%FSLAX34Y34*%
%MOMM*%
%LNCOPPER_BOTTOM*%
G71*
G01*
%ADD10C, 2.600*%
%ADD11C, 2.200*%
%ADD12C, 2.800*%
%ADD13C, 1.500*%
%ADD14C, 3.200*%
%ADD15C, 1.300*%
%ADD16C, 0.600*%
%ADD17C, 1.800*%
%ADD18C, 1.400*%
%ADD19C, 0.500*%
%LPD*%
G36*
X-6350Y9525D02*
X893650Y9525D01*
X893650Y-840475D01*
X-6350Y-840475D01*
X-6350Y9525D01*
G37*
%LPC*%
G36*
X147005Y-384475D02*
X139400Y-376870D01*
X139400Y-366080D01*
X147005Y-358475D01*
X157795Y-358475D01*
X165400Y-366080D01*
X165400Y-376870D01*
X157795Y-384475D01*
X147005Y-384475D01*
G37*
G36*
X147005Y-359075D02*
X139400Y-351470D01*
X139400Y-340680D01*
X147005Y-333075D01*
X157795Y-333075D01*
X165400Y-340680D01*
X165400Y-351470D01*
X157795Y-359075D01*
X147005Y-359075D01*
G37*
G36*
X147005Y-333675D02*
X139400Y-326070D01*
X139400Y-315280D01*
X147005Y-307675D01*
X157795Y-307675D01*
X165400Y-315280D01*
X165400Y-326070D01*
X157795Y-333675D01*
X147005Y-333675D01*
G37*
G36*
X147005Y-359075D02*
X139400Y-351470D01*
X139400Y-340680D01*
X147005Y-333075D01*
X157795Y-333075D01*
X165400Y-340680D01*
X165400Y-351470D01*
X157795Y-359075D01*
X147005Y-359075D01*
G37*
X152400Y-212724D02*
G54D10*
D03*
X177800Y-212724D02*
G54D10*
D03*
X203200Y-212724D02*
G54D10*
D03*
X368300Y-320675D02*
G54D10*
D03*
X368300Y-346075D02*
G54D10*
D03*
X368300Y-371475D02*
G54D10*
D03*
X368300Y-206375D02*
G54D10*
D03*
X368300Y-231775D02*
G54D10*
D03*
X368300Y-257175D02*
G54D10*
D03*
G36*
X277925Y-306275D02*
X277925Y-284275D01*
X299925Y-284275D01*
X299925Y-306275D01*
X277925Y-306275D01*
G37*
X288925Y-269875D02*
G54D11*
D03*
X212725Y-269875D02*
G54D11*
D03*
X212725Y-295275D02*
G54D11*
D03*
X285750Y-365125D02*
G54D10*
D03*
X311150Y-365125D02*
G54D10*
D03*
X76200Y-53975D02*
G54D12*
D03*
X76200Y-28575D02*
G54D12*
D03*
X368300Y-28575D02*
G54D12*
D03*
X368300Y-53975D02*
G54D12*
D03*
X368300Y-117475D02*
G54D12*
D03*
X368300Y-142875D02*
G54D12*
D03*
G36*
X197150Y-21270D02*
X189545Y-28875D01*
X178755Y-28875D01*
X171150Y-21270D01*
X171150Y-10480D01*
X178755Y-2875D01*
X189545Y-2875D01*
X197150Y-10480D01*
X197150Y-21270D01*
G37*
G36*
X171750Y-21270D02*
X164145Y-28875D01*
X153355Y-28875D01*
X145750Y-21270D01*
X145750Y-10480D01*
X153355Y-2875D01*
X164145Y-2875D01*
X171750Y-10480D01*
X171750Y-21270D01*
G37*
G36*
X146350Y-21270D02*
X138745Y-28875D01*
X127955Y-28875D01*
X120350Y-21270D01*
X120350Y-10480D01*
X127955Y-2875D01*
X138745Y-2875D01*
X146350Y-10480D01*
X146350Y-21270D01*
G37*
G36*
X171750Y-21270D02*
X164145Y-28875D01*
X153355Y-28875D01*
X145750Y-21270D01*
X145750Y-10480D01*
X153355Y-2875D01*
X164145Y-2875D01*
X171750Y-10480D01*
X171750Y-21270D01*
G37*
X196850Y-365125D02*
G54D10*
D03*
X222250Y-365125D02*
G54D10*
D03*
X76200Y-180975D02*
G54D12*
D03*
X76200Y-206375D02*
G54D12*
D03*
X76200Y-231775D02*
G54D12*
D03*
X76200Y-257175D02*
G54D12*
D03*
X279400Y-41275D02*
G54D12*
D03*
X254000Y-41275D02*
G54D12*
D03*
X228600Y-41275D02*
G54D12*
D03*
X279400Y-79375D02*
G54D12*
D03*
X254000Y-79375D02*
G54D12*
D03*
X228600Y-79375D02*
G54D12*
D03*
G54D13*
X152400Y-371475D02*
X171450Y-390525D01*
X349250Y-390525D01*
X368300Y-371475D01*
G54D13*
X196850Y-365125D02*
X196850Y-390525D01*
G54D13*
X285750Y-365125D02*
X285750Y-390525D01*
G54D13*
X184150Y-15875D02*
X273050Y-15875D01*
X279400Y-22225D01*
X279400Y-79375D01*
G54D13*
X254000Y-79375D02*
X254000Y-104775D01*
X266700Y-117475D01*
X368300Y-117475D01*
G54D13*
X152400Y-320675D02*
X165100Y-320675D01*
X177800Y-333375D01*
X323850Y-333375D01*
X342900Y-314325D01*
X342900Y-269875D01*
X355600Y-257175D01*
X368300Y-257175D01*
G54D13*
X76200Y-53975D02*
X31750Y-53975D01*
X19050Y-66675D01*
X19050Y-301625D01*
X38100Y-320675D01*
X152400Y-320675D01*
G54D13*
X184150Y-15875D02*
X184150Y-168275D01*
X203200Y-187325D01*
X203200Y-215900D01*
X368300Y-231775D02*
G54D12*
D03*
X368300Y-346075D02*
G54D12*
D03*
X311150Y-365125D02*
G54D12*
D03*
X222250Y-365125D02*
G54D12*
D03*
X76200Y-28575D02*
G54D12*
D03*
X288925Y-269875D02*
G54D12*
D03*
X212725Y-269875D02*
G54D12*
D03*
X177800Y-212725D02*
G54D12*
D03*
X161925Y-269875D02*
G54D14*
D03*
X333375Y-85725D02*
G54D14*
D03*
G54D15*
X152400Y-212724D02*
X133351Y-212724D01*
X117475Y-228600D01*
X117475Y-320675D01*
G36*
X591505Y-384475D02*
X583900Y-376870D01*
X583900Y-366080D01*
X591505Y-358475D01*
X602295Y-358475D01*
X609900Y-366080D01*
X609900Y-376870D01*
X602295Y-384475D01*
X591505Y-384475D01*
G37*
G36*
X591505Y-359075D02*
X583900Y-351470D01*
X583900Y-340680D01*
X591505Y-333075D01*
X602295Y-333075D01*
X609900Y-340680D01*
X609900Y-351470D01*
X602295Y-359075D01*
X591505Y-359075D01*
G37*
G36*
X591505Y-333675D02*
X583900Y-326070D01*
X583900Y-315280D01*
X591505Y-307675D01*
X602295Y-307675D01*
X609900Y-315280D01*
X609900Y-326070D01*
X602295Y-333675D01*
X591505Y-333675D01*
G37*
G36*
X591505Y-359075D02*
X583900Y-351470D01*
X583900Y-340680D01*
X591505Y-333075D01*
X602295Y-333075D01*
X609900Y-340680D01*
X609900Y-351470D01*
X602295Y-359075D01*
X591505Y-359075D01*
G37*
X596900Y-212724D02*
G54D10*
D03*
X622300Y-212724D02*
G54D10*
D03*
X647700Y-212724D02*
G54D10*
D03*
X812800Y-320675D02*
G54D10*
D03*
X812800Y-346075D02*
G54D10*
D03*
X812800Y-371475D02*
G54D10*
D03*
X812800Y-206375D02*
G54D10*
D03*
X812800Y-231775D02*
G54D10*
D03*
X812800Y-257175D02*
G54D10*
D03*
G36*
X722425Y-306275D02*
X722425Y-284275D01*
X744425Y-284275D01*
X744425Y-306275D01*
X722425Y-306275D01*
G37*
X733425Y-269875D02*
G54D11*
D03*
X657225Y-269875D02*
G54D11*
D03*
X657225Y-295275D02*
G54D11*
D03*
X730250Y-365125D02*
G54D10*
D03*
X755650Y-365125D02*
G54D10*
D03*
X520700Y-53975D02*
G54D12*
D03*
X520700Y-28575D02*
G54D12*
D03*
X812800Y-28575D02*
G54D12*
D03*
X812800Y-53975D02*
G54D12*
D03*
X812800Y-117475D02*
G54D12*
D03*
X812800Y-142875D02*
G54D12*
D03*
G36*
X641650Y-21270D02*
X634045Y-28875D01*
X623255Y-28875D01*
X615650Y-21270D01*
X615650Y-10480D01*
X623255Y-2875D01*
X634045Y-2875D01*
X641650Y-10480D01*
X641650Y-21270D01*
G37*
G36*
X616250Y-21270D02*
X608645Y-28875D01*
X597855Y-28875D01*
X590250Y-21270D01*
X590250Y-10480D01*
X597855Y-2875D01*
X608645Y-2875D01*
X616250Y-10480D01*
X616250Y-21270D01*
G37*
G36*
X590850Y-21270D02*
X583245Y-28875D01*
X572455Y-28875D01*
X564850Y-21270D01*
X564850Y-10480D01*
X572455Y-2875D01*
X583245Y-2875D01*
X590850Y-10480D01*
X590850Y-21270D01*
G37*
G36*
X616250Y-21270D02*
X608645Y-28875D01*
X597855Y-28875D01*
X590250Y-21270D01*
X590250Y-10480D01*
X597855Y-2875D01*
X608645Y-2875D01*
X616250Y-10480D01*
X616250Y-21270D01*
G37*
X641350Y-365125D02*
G54D10*
D03*
X666750Y-365125D02*
G54D10*
D03*
X520700Y-180975D02*
G54D12*
D03*
X520700Y-206375D02*
G54D12*
D03*
X520700Y-231775D02*
G54D12*
D03*
X520700Y-257175D02*
G54D12*
D03*
X723900Y-41275D02*
G54D12*
D03*
X698500Y-41275D02*
G54D12*
D03*
X673100Y-41275D02*
G54D12*
D03*
X723900Y-79375D02*
G54D12*
D03*
X698500Y-79375D02*
G54D12*
D03*
X673100Y-79375D02*
G54D12*
D03*
G54D13*
X596900Y-371475D02*
X615950Y-390525D01*
X793750Y-390525D01*
X812800Y-371475D01*
G54D13*
X641350Y-365125D02*
X641350Y-390525D01*
G54D13*
X730250Y-365125D02*
X730250Y-390525D01*
G54D13*
X628650Y-15875D02*
X717550Y-15875D01*
X723900Y-22225D01*
X723900Y-79375D01*
G54D13*
X698500Y-79375D02*
X698500Y-104775D01*
X711200Y-117475D01*
X812800Y-117475D01*
G54D13*
X596900Y-320675D02*
X609600Y-320675D01*
X622300Y-333375D01*
X768350Y-333375D01*
X787400Y-314325D01*
X787400Y-269875D01*
X800100Y-257175D01*
X812800Y-257175D01*
G54D13*
X520700Y-53975D02*
X476250Y-53975D01*
X463550Y-66675D01*
X463550Y-301625D01*
X482600Y-320675D01*
X596900Y-320675D01*
G54D13*
X628650Y-15875D02*
X628650Y-168275D01*
X647700Y-187325D01*
X647700Y-215900D01*
X812800Y-231775D02*
G54D12*
D03*
X812800Y-346075D02*
G54D12*
D03*
X755650Y-365125D02*
G54D12*
D03*
X666750Y-365125D02*
G54D12*
D03*
X520700Y-28575D02*
G54D12*
D03*
X733425Y-269875D02*
G54D12*
D03*
X657225Y-269875D02*
G54D12*
D03*
X622300Y-212725D02*
G54D12*
D03*
X606425Y-269875D02*
G54D14*
D03*
X777875Y-85725D02*
G54D14*
D03*
G54D15*
X596900Y-212724D02*
X577851Y-212724D01*
X561975Y-228600D01*
X561975Y-320675D01*
G36*
X147005Y-790875D02*
X139400Y-783270D01*
X139400Y-772480D01*
X147005Y-764875D01*
X157795Y-764875D01*
X165400Y-772480D01*
X165400Y-783270D01*
X157795Y-790875D01*
X147005Y-790875D01*
G37*
G36*
X147005Y-765475D02*
X139400Y-757870D01*
X139400Y-747080D01*
X147005Y-739475D01*
X157795Y-739475D01*
X165400Y-747080D01*
X165400Y-757870D01*
X157795Y-765475D01*
X147005Y-765475D01*
G37*
G36*
X147005Y-740075D02*
X139400Y-732470D01*
X139400Y-721680D01*
X147005Y-714075D01*
X157795Y-714075D01*
X165400Y-721680D01*
X165400Y-732470D01*
X157795Y-740075D01*
X147005Y-740075D01*
G37*
G36*
X147005Y-765475D02*
X139400Y-757870D01*
X139400Y-747080D01*
X147005Y-739475D01*
X157795Y-739475D01*
X165400Y-747080D01*
X165400Y-757870D01*
X157795Y-765475D01*
X147005Y-765475D01*
G37*
X152400Y-619124D02*
G54D10*
D03*
X177800Y-619124D02*
G54D10*
D03*
X203200Y-619124D02*
G54D10*
D03*
X368300Y-727075D02*
G54D10*
D03*
X368300Y-752475D02*
G54D10*
D03*
X368300Y-777875D02*
G54D10*
D03*
X368300Y-612775D02*
G54D10*
D03*
X368300Y-638175D02*
G54D10*
D03*
X368300Y-663575D02*
G54D10*
D03*
G36*
X277925Y-712675D02*
X277925Y-690675D01*
X299925Y-690675D01*
X299925Y-712675D01*
X277925Y-712675D01*
G37*
X288925Y-676275D02*
G54D11*
D03*
X212725Y-676275D02*
G54D11*
D03*
X212725Y-701675D02*
G54D11*
D03*
X285750Y-771525D02*
G54D10*
D03*
X311150Y-771525D02*
G54D10*
D03*
X76200Y-460375D02*
G54D12*
D03*
X76200Y-434975D02*
G54D12*
D03*
X368300Y-434975D02*
G54D12*
D03*
X368300Y-460375D02*
G54D12*
D03*
X368300Y-523875D02*
G54D12*
D03*
X368300Y-549275D02*
G54D12*
D03*
G36*
X197150Y-427670D02*
X189545Y-435275D01*
X178755Y-435275D01*
X171150Y-427670D01*
X171150Y-416880D01*
X178755Y-409275D01*
X189545Y-409275D01*
X197150Y-416880D01*
X197150Y-427670D01*
G37*
G36*
X171750Y-427670D02*
X164145Y-435275D01*
X153355Y-435275D01*
X145750Y-427670D01*
X145750Y-416880D01*
X153355Y-409275D01*
X164145Y-409275D01*
X171750Y-416880D01*
X171750Y-427670D01*
G37*
G36*
X146350Y-427670D02*
X138745Y-435275D01*
X127955Y-435275D01*
X120350Y-427670D01*
X120350Y-416880D01*
X127955Y-409275D01*
X138745Y-409275D01*
X146350Y-416880D01*
X146350Y-427670D01*
G37*
G36*
X171750Y-427670D02*
X164145Y-435275D01*
X153355Y-435275D01*
X145750Y-427670D01*
X145750Y-416880D01*
X153355Y-409275D01*
X164145Y-409275D01*
X171750Y-416880D01*
X171750Y-427670D01*
G37*
X196850Y-771525D02*
G54D10*
D03*
X222250Y-771525D02*
G54D10*
D03*
X76200Y-587375D02*
G54D12*
D03*
X76200Y-612775D02*
G54D12*
D03*
X76200Y-638175D02*
G54D12*
D03*
X76200Y-663575D02*
G54D12*
D03*
X279400Y-447675D02*
G54D12*
D03*
X254000Y-447675D02*
G54D12*
D03*
X228600Y-447675D02*
G54D12*
D03*
X279400Y-485775D02*
G54D12*
D03*
X254000Y-485775D02*
G54D12*
D03*
X228600Y-485775D02*
G54D12*
D03*
G54D13*
X152400Y-777875D02*
X171450Y-796925D01*
X349250Y-796925D01*
X368300Y-777875D01*
G54D13*
X196850Y-771525D02*
X196850Y-796925D01*
G54D13*
X285750Y-771525D02*
X285750Y-796925D01*
G54D13*
X184150Y-422275D02*
X273050Y-422275D01*
X279400Y-428625D01*
X279400Y-485775D01*
G54D13*
X254000Y-485775D02*
X254000Y-511175D01*
X266700Y-523875D01*
X368300Y-523875D01*
G54D13*
X152400Y-727075D02*
X165100Y-727075D01*
X177800Y-739775D01*
X323850Y-739775D01*
X342900Y-720725D01*
X342900Y-676275D01*
X355600Y-663575D01*
X368300Y-663575D01*
G54D13*
X76200Y-460375D02*
X31750Y-460375D01*
X19050Y-473075D01*
X19050Y-708025D01*
X38100Y-727075D01*
X152400Y-727075D01*
G54D13*
X184150Y-422275D02*
X184150Y-574675D01*
X203200Y-593725D01*
X203200Y-622300D01*
X368300Y-638175D02*
G54D12*
D03*
X368300Y-752475D02*
G54D12*
D03*
X311150Y-771525D02*
G54D12*
D03*
X222250Y-771525D02*
G54D12*
D03*
X76200Y-434975D02*
G54D12*
D03*
X288925Y-676275D02*
G54D12*
D03*
X212725Y-676275D02*
G54D12*
D03*
X177800Y-619125D02*
G54D12*
D03*
X161925Y-676275D02*
G54D14*
D03*
X333375Y-492125D02*
G54D14*
D03*
G54D15*
X152400Y-619124D02*
X133351Y-619124D01*
X117475Y-635000D01*
X117475Y-727075D01*
G36*
X591505Y-790875D02*
X583900Y-783270D01*
X583900Y-772480D01*
X591505Y-764875D01*
X602295Y-764875D01*
X609900Y-772480D01*
X609900Y-783270D01*
X602295Y-790875D01*
X591505Y-790875D01*
G37*
G36*
X591505Y-765475D02*
X583900Y-757870D01*
X583900Y-747080D01*
X591505Y-739475D01*
X602295Y-739475D01*
X609900Y-747080D01*
X609900Y-757870D01*
X602295Y-765475D01*
X591505Y-765475D01*
G37*
G36*
X591505Y-740075D02*
X583900Y-732470D01*
X583900Y-721680D01*
X591505Y-714075D01*
X602295Y-714075D01*
X609900Y-721680D01*
X609900Y-732470D01*
X602295Y-740075D01*
X591505Y-740075D01*
G37*
G36*
X591505Y-765475D02*
X583900Y-757870D01*
X583900Y-747080D01*
X591505Y-739475D01*
X602295Y-739475D01*
X609900Y-747080D01*
X609900Y-757870D01*
X602295Y-765475D01*
X591505Y-765475D01*
G37*
X596900Y-619124D02*
G54D10*
D03*
X622300Y-619124D02*
G54D10*
D03*
X647700Y-619124D02*
G54D10*
D03*
X812800Y-727075D02*
G54D10*
D03*
X812800Y-752475D02*
G54D10*
D03*
X812800Y-777875D02*
G54D10*
D03*
X812800Y-612775D02*
G54D10*
D03*
X812800Y-638175D02*
G54D10*
D03*
X812800Y-663575D02*
G54D10*
D03*
G36*
X722425Y-712675D02*
X722425Y-690675D01*
X744425Y-690675D01*
X744425Y-712675D01*
X722425Y-712675D01*
G37*
X733425Y-676275D02*
G54D11*
D03*
X657225Y-676275D02*
G54D11*
D03*
X657225Y-701675D02*
G54D11*
D03*
X730250Y-771525D02*
G54D10*
D03*
X755650Y-771525D02*
G54D10*
D03*
X520700Y-460375D02*
G54D12*
D03*
X520700Y-434975D02*
G54D12*
D03*
X812800Y-434975D02*
G54D12*
D03*
X812800Y-460375D02*
G54D12*
D03*
X812800Y-523875D02*
G54D12*
D03*
X812800Y-549275D02*
G54D12*
D03*
G36*
X641650Y-427670D02*
X634045Y-435275D01*
X623255Y-435275D01*
X615650Y-427670D01*
X615650Y-416880D01*
X623255Y-409275D01*
X634045Y-409275D01*
X641650Y-416880D01*
X641650Y-427670D01*
G37*
G36*
X616250Y-427670D02*
X608645Y-435275D01*
X597855Y-435275D01*
X590250Y-427670D01*
X590250Y-416880D01*
X597855Y-409275D01*
X608645Y-409275D01*
X616250Y-416880D01*
X616250Y-427670D01*
G37*
G36*
X590850Y-427670D02*
X583245Y-435275D01*
X572455Y-435275D01*
X564850Y-427670D01*
X564850Y-416880D01*
X572455Y-409275D01*
X583245Y-409275D01*
X590850Y-416880D01*
X590850Y-427670D01*
G37*
G36*
X616250Y-427670D02*
X608645Y-435275D01*
X597855Y-435275D01*
X590250Y-427670D01*
X590250Y-416880D01*
X597855Y-409275D01*
X608645Y-409275D01*
X616250Y-416880D01*
X616250Y-427670D01*
G37*
X641350Y-771525D02*
G54D10*
D03*
X666750Y-771525D02*
G54D10*
D03*
X520700Y-587375D02*
G54D12*
D03*
X520700Y-612775D02*
G54D12*
D03*
X520700Y-638175D02*
G54D12*
D03*
X520700Y-663575D02*
G54D12*
D03*
X723900Y-447675D02*
G54D12*
D03*
X698500Y-447675D02*
G54D12*
D03*
X673100Y-447675D02*
G54D12*
D03*
X723900Y-485775D02*
G54D12*
D03*
X698500Y-485775D02*
G54D12*
D03*
X673100Y-485775D02*
G54D12*
D03*
G54D13*
X596900Y-777875D02*
X615950Y-796925D01*
X793750Y-796925D01*
X812800Y-777875D01*
G54D13*
X641350Y-771525D02*
X641350Y-796925D01*
G54D13*
X730250Y-771525D02*
X730250Y-796925D01*
G54D13*
X628650Y-422275D02*
X717550Y-422275D01*
X723900Y-428625D01*
X723900Y-485775D01*
G54D13*
X698500Y-485775D02*
X698500Y-511175D01*
X711200Y-523875D01*
X812800Y-523875D01*
G54D13*
X596900Y-727075D02*
X609600Y-727075D01*
X622300Y-739775D01*
X768350Y-739775D01*
X787400Y-720725D01*
X787400Y-676275D01*
X800100Y-663575D01*
X812800Y-663575D01*
G54D13*
X520700Y-460375D02*
X476250Y-460375D01*
X463550Y-473075D01*
X463550Y-708025D01*
X482600Y-727075D01*
X596900Y-727075D01*
G54D13*
X628650Y-422275D02*
X628650Y-574675D01*
X647700Y-593725D01*
X647700Y-622300D01*
X812800Y-638175D02*
G54D12*
D03*
X812800Y-752475D02*
G54D12*
D03*
X755650Y-771525D02*
G54D12*
D03*
X666750Y-771525D02*
G54D12*
D03*
X520700Y-434975D02*
G54D12*
D03*
X733425Y-676275D02*
G54D12*
D03*
X657225Y-676275D02*
G54D12*
D03*
X622300Y-619125D02*
G54D12*
D03*
X606425Y-676275D02*
G54D14*
D03*
X777875Y-492125D02*
G54D14*
D03*
G54D15*
X596900Y-619124D02*
X577851Y-619124D01*
X561975Y-635000D01*
X561975Y-727075D01*
%LPD*%
G54D16*
G36*
X152400Y-349075D02*
X138900Y-349075D01*
X138900Y-343075D01*
X152400Y-343075D01*
X152400Y-349075D01*
G37*
G36*
X152400Y-343075D02*
X165900Y-343075D01*
X165900Y-349075D01*
X152400Y-349075D01*
X152400Y-343075D01*
G37*
G54D16*
G36*
X161750Y-15875D02*
X161750Y-29375D01*
X155750Y-29375D01*
X155750Y-15875D01*
X161750Y-15875D01*
G37*
G36*
X155750Y-15875D02*
X155750Y-2375D01*
X161750Y-2375D01*
X161750Y-15875D01*
X155750Y-15875D01*
G37*
G54D16*
G36*
X368300Y-228775D02*
X382800Y-228775D01*
X382800Y-234775D01*
X368300Y-234775D01*
X368300Y-228775D01*
G37*
G36*
X368300Y-234775D02*
X353800Y-234775D01*
X353800Y-228775D01*
X368300Y-228775D01*
X368300Y-234775D01*
G37*
G54D16*
G36*
X368300Y-343075D02*
X382800Y-343075D01*
X382800Y-349075D01*
X368300Y-349075D01*
X368300Y-343075D01*
G37*
G36*
X368300Y-349075D02*
X353800Y-349075D01*
X353800Y-343075D01*
X368300Y-343075D01*
X368300Y-349075D01*
G37*
G54D16*
G36*
X308150Y-365125D02*
X308150Y-350625D01*
X314150Y-350625D01*
X314150Y-365125D01*
X308150Y-365125D01*
G37*
G36*
X311150Y-362125D02*
X325650Y-362125D01*
X325650Y-368125D01*
X311150Y-368125D01*
X311150Y-362125D01*
G37*
G36*
X314150Y-365125D02*
X314150Y-379625D01*
X308150Y-379625D01*
X308150Y-365125D01*
X314150Y-365125D01*
G37*
G54D16*
G36*
X219250Y-365125D02*
X219250Y-350625D01*
X225250Y-350625D01*
X225250Y-365125D01*
X219250Y-365125D01*
G37*
G36*
X222250Y-362125D02*
X236750Y-362125D01*
X236750Y-368125D01*
X222250Y-368125D01*
X222250Y-362125D01*
G37*
G36*
X225250Y-365125D02*
X225250Y-379625D01*
X219250Y-379625D01*
X219250Y-365125D01*
X225250Y-365125D01*
G37*
G54D16*
G36*
X73200Y-28575D02*
X73200Y-14075D01*
X79200Y-14075D01*
X79200Y-28575D01*
X73200Y-28575D01*
G37*
G36*
X76200Y-25575D02*
X90700Y-25575D01*
X90700Y-31575D01*
X76200Y-31575D01*
X76200Y-25575D01*
G37*
G36*
X76200Y-31575D02*
X61700Y-31575D01*
X61700Y-25575D01*
X76200Y-25575D01*
X76200Y-31575D01*
G37*
G54D16*
G36*
X288925Y-266875D02*
X303425Y-266875D01*
X303425Y-272875D01*
X288925Y-272875D01*
X288925Y-266875D01*
G37*
G36*
X288925Y-272875D02*
X274425Y-272875D01*
X274425Y-266875D01*
X288925Y-266875D01*
X288925Y-272875D01*
G37*
G54D16*
G36*
X212725Y-266875D02*
X227225Y-266875D01*
X227225Y-272875D01*
X212725Y-272875D01*
X212725Y-266875D01*
G37*
G36*
X212725Y-272875D02*
X198225Y-272875D01*
X198225Y-266875D01*
X212725Y-266875D01*
X212725Y-272875D01*
G37*
G54D16*
G36*
X174800Y-212725D02*
X174800Y-198225D01*
X180800Y-198225D01*
X180800Y-212725D01*
X174800Y-212725D01*
G37*
G36*
X180800Y-212725D02*
X180800Y-227225D01*
X174800Y-227225D01*
X174800Y-212725D01*
X180800Y-212725D01*
G37*
G54D16*
G36*
X596900Y-349075D02*
X583400Y-349075D01*
X583400Y-343075D01*
X596900Y-343075D01*
X596900Y-349075D01*
G37*
G36*
X596900Y-343075D02*
X610400Y-343075D01*
X610400Y-349075D01*
X596900Y-349075D01*
X596900Y-343075D01*
G37*
G54D16*
G36*
X606250Y-15875D02*
X606250Y-29375D01*
X600250Y-29375D01*
X600250Y-15875D01*
X606250Y-15875D01*
G37*
G36*
X600250Y-15875D02*
X600250Y-2375D01*
X606250Y-2375D01*
X606250Y-15875D01*
X600250Y-15875D01*
G37*
G54D16*
G36*
X812800Y-228775D02*
X827300Y-228775D01*
X827300Y-234775D01*
X812800Y-234775D01*
X812800Y-228775D01*
G37*
G36*
X812800Y-234775D02*
X798300Y-234775D01*
X798300Y-228775D01*
X812800Y-228775D01*
X812800Y-234775D01*
G37*
G54D16*
G36*
X812800Y-343075D02*
X827300Y-343075D01*
X827300Y-349075D01*
X812800Y-349075D01*
X812800Y-343075D01*
G37*
G36*
X812800Y-349075D02*
X798300Y-349075D01*
X798300Y-343075D01*
X812800Y-343075D01*
X812800Y-349075D01*
G37*
G54D16*
G36*
X752650Y-365125D02*
X752650Y-350625D01*
X758650Y-350625D01*
X758650Y-365125D01*
X752650Y-365125D01*
G37*
G36*
X755650Y-362125D02*
X770150Y-362125D01*
X770150Y-368125D01*
X755650Y-368125D01*
X755650Y-362125D01*
G37*
G36*
X758650Y-365125D02*
X758650Y-379625D01*
X752650Y-379625D01*
X752650Y-365125D01*
X758650Y-365125D01*
G37*
G54D16*
G36*
X663750Y-365125D02*
X663750Y-350625D01*
X669750Y-350625D01*
X669750Y-365125D01*
X663750Y-365125D01*
G37*
G36*
X666750Y-362125D02*
X681250Y-362125D01*
X681250Y-368125D01*
X666750Y-368125D01*
X666750Y-362125D01*
G37*
G36*
X669750Y-365125D02*
X669750Y-379625D01*
X663750Y-379625D01*
X663750Y-365125D01*
X669750Y-365125D01*
G37*
G54D16*
G36*
X517700Y-28575D02*
X517700Y-14075D01*
X523700Y-14075D01*
X523700Y-28575D01*
X517700Y-28575D01*
G37*
G36*
X520700Y-25575D02*
X535200Y-25575D01*
X535200Y-31575D01*
X520700Y-31575D01*
X520700Y-25575D01*
G37*
G36*
X520700Y-31575D02*
X506200Y-31575D01*
X506200Y-25575D01*
X520700Y-25575D01*
X520700Y-31575D01*
G37*
G54D16*
G36*
X733425Y-266875D02*
X747925Y-266875D01*
X747925Y-272875D01*
X733425Y-272875D01*
X733425Y-266875D01*
G37*
G36*
X733425Y-272875D02*
X718925Y-272875D01*
X718925Y-266875D01*
X733425Y-266875D01*
X733425Y-272875D01*
G37*
G54D16*
G36*
X657225Y-266875D02*
X671725Y-266875D01*
X671725Y-272875D01*
X657225Y-272875D01*
X657225Y-266875D01*
G37*
G36*
X657225Y-272875D02*
X642725Y-272875D01*
X642725Y-266875D01*
X657225Y-266875D01*
X657225Y-272875D01*
G37*
G54D16*
G36*
X619300Y-212725D02*
X619300Y-198225D01*
X625300Y-198225D01*
X625300Y-212725D01*
X619300Y-212725D01*
G37*
G36*
X625300Y-212725D02*
X625300Y-227225D01*
X619300Y-227225D01*
X619300Y-212725D01*
X625300Y-212725D01*
G37*
G54D16*
G36*
X152400Y-755475D02*
X138900Y-755475D01*
X138900Y-749475D01*
X152400Y-749475D01*
X152400Y-755475D01*
G37*
G36*
X152400Y-749475D02*
X165900Y-749475D01*
X165900Y-755475D01*
X152400Y-755475D01*
X152400Y-749475D01*
G37*
G54D16*
G36*
X161750Y-422275D02*
X161750Y-435775D01*
X155750Y-435775D01*
X155750Y-422275D01*
X161750Y-422275D01*
G37*
G36*
X155750Y-422275D02*
X155750Y-408775D01*
X161750Y-408775D01*
X161750Y-422275D01*
X155750Y-422275D01*
G37*
G54D16*
G36*
X368300Y-635175D02*
X382800Y-635175D01*
X382800Y-641175D01*
X368300Y-641175D01*
X368300Y-635175D01*
G37*
G36*
X368300Y-641175D02*
X353800Y-641175D01*
X353800Y-635175D01*
X368300Y-635175D01*
X368300Y-641175D01*
G37*
G54D16*
G36*
X368300Y-749475D02*
X382800Y-749475D01*
X382800Y-755475D01*
X368300Y-755475D01*
X368300Y-749475D01*
G37*
G36*
X368300Y-755475D02*
X353800Y-755475D01*
X353800Y-749475D01*
X368300Y-749475D01*
X368300Y-755475D01*
G37*
G54D16*
G36*
X308150Y-771525D02*
X308150Y-757025D01*
X314150Y-757025D01*
X314150Y-771525D01*
X308150Y-771525D01*
G37*
G36*
X311150Y-768525D02*
X325650Y-768525D01*
X325650Y-774525D01*
X311150Y-774525D01*
X311150Y-768525D01*
G37*
G36*
X314150Y-771525D02*
X314150Y-786025D01*
X308150Y-786025D01*
X308150Y-771525D01*
X314150Y-771525D01*
G37*
G54D16*
G36*
X219250Y-771525D02*
X219250Y-757025D01*
X225250Y-757025D01*
X225250Y-771525D01*
X219250Y-771525D01*
G37*
G36*
X222250Y-768525D02*
X236750Y-768525D01*
X236750Y-774525D01*
X222250Y-774525D01*
X222250Y-768525D01*
G37*
G36*
X225250Y-771525D02*
X225250Y-786025D01*
X219250Y-786025D01*
X219250Y-771525D01*
X225250Y-771525D01*
G37*
G54D16*
G36*
X73200Y-434975D02*
X73200Y-420475D01*
X79200Y-420475D01*
X79200Y-434975D01*
X73200Y-434975D01*
G37*
G36*
X76200Y-431975D02*
X90700Y-431975D01*
X90700Y-437975D01*
X76200Y-437975D01*
X76200Y-431975D01*
G37*
G36*
X76200Y-437975D02*
X61700Y-437975D01*
X61700Y-431975D01*
X76200Y-431975D01*
X76200Y-437975D01*
G37*
G54D16*
G36*
X288925Y-673275D02*
X303425Y-673275D01*
X303425Y-679275D01*
X288925Y-679275D01*
X288925Y-673275D01*
G37*
G36*
X288925Y-679275D02*
X274425Y-679275D01*
X274425Y-673275D01*
X288925Y-673275D01*
X288925Y-679275D01*
G37*
G54D16*
G36*
X212725Y-673275D02*
X227225Y-673275D01*
X227225Y-679275D01*
X212725Y-679275D01*
X212725Y-673275D01*
G37*
G36*
X212725Y-679275D02*
X198225Y-679275D01*
X198225Y-673275D01*
X212725Y-673275D01*
X212725Y-679275D01*
G37*
G54D16*
G36*
X174800Y-619125D02*
X174800Y-604625D01*
X180800Y-604625D01*
X180800Y-619125D01*
X174800Y-619125D01*
G37*
G36*
X180800Y-619125D02*
X180800Y-633625D01*
X174800Y-633625D01*
X174800Y-619125D01*
X180800Y-619125D01*
G37*
G54D16*
G36*
X596900Y-755475D02*
X583400Y-755475D01*
X583400Y-749475D01*
X596900Y-749475D01*
X596900Y-755475D01*
G37*
G36*
X596900Y-749475D02*
X610400Y-749475D01*
X610400Y-755475D01*
X596900Y-755475D01*
X596900Y-749475D01*
G37*
G54D16*
G36*
X606250Y-422275D02*
X606250Y-435775D01*
X600250Y-435775D01*
X600250Y-422275D01*
X606250Y-422275D01*
G37*
G36*
X600250Y-422275D02*
X600250Y-408775D01*
X606250Y-408775D01*
X606250Y-422275D01*
X600250Y-422275D01*
G37*
G54D16*
G36*
X812800Y-635175D02*
X827300Y-635175D01*
X827300Y-641175D01*
X812800Y-641175D01*
X812800Y-635175D01*
G37*
G36*
X812800Y-641175D02*
X798300Y-641175D01*
X798300Y-635175D01*
X812800Y-635175D01*
X812800Y-641175D01*
G37*
G54D16*
G36*
X812800Y-749475D02*
X827300Y-749475D01*
X827300Y-755475D01*
X812800Y-755475D01*
X812800Y-749475D01*
G37*
G36*
X812800Y-755475D02*
X798300Y-755475D01*
X798300Y-749475D01*
X812800Y-749475D01*
X812800Y-755475D01*
G37*
G54D16*
G36*
X752650Y-771525D02*
X752650Y-757025D01*
X758650Y-757025D01*
X758650Y-771525D01*
X752650Y-771525D01*
G37*
G36*
X755650Y-768525D02*
X770150Y-768525D01*
X770150Y-774525D01*
X755650Y-774525D01*
X755650Y-768525D01*
G37*
G36*
X758650Y-771525D02*
X758650Y-786025D01*
X752650Y-786025D01*
X752650Y-771525D01*
X758650Y-771525D01*
G37*
G54D16*
G36*
X663750Y-771525D02*
X663750Y-757025D01*
X669750Y-757025D01*
X669750Y-771525D01*
X663750Y-771525D01*
G37*
G36*
X666750Y-768525D02*
X681250Y-768525D01*
X681250Y-774525D01*
X666750Y-774525D01*
X666750Y-768525D01*
G37*
G36*
X669750Y-771525D02*
X669750Y-786025D01*
X663750Y-786025D01*
X663750Y-771525D01*
X669750Y-771525D01*
G37*
G54D16*
G36*
X517700Y-434975D02*
X517700Y-420475D01*
X523700Y-420475D01*
X523700Y-434975D01*
X517700Y-434975D01*
G37*
G36*
X520700Y-431975D02*
X535200Y-431975D01*
X535200Y-437975D01*
X520700Y-437975D01*
X520700Y-431975D01*
G37*
G36*
X520700Y-437975D02*
X506200Y-437975D01*
X506200Y-431975D01*
X520700Y-431975D01*
X520700Y-437975D01*
G37*
G54D16*
G36*
X733425Y-673275D02*
X747925Y-673275D01*
X747925Y-679275D01*
X733425Y-679275D01*
X733425Y-673275D01*
G37*
G36*
X733425Y-679275D02*
X718925Y-679275D01*
X718925Y-673275D01*
X733425Y-673275D01*
X733425Y-679275D01*
G37*
G54D16*
G36*
X657225Y-673275D02*
X671725Y-673275D01*
X671725Y-679275D01*
X657225Y-679275D01*
X657225Y-673275D01*
G37*
G36*
X657225Y-679275D02*
X642725Y-679275D01*
X642725Y-673275D01*
X657225Y-673275D01*
X657225Y-679275D01*
G37*
G54D16*
G36*
X619300Y-619125D02*
X619300Y-604625D01*
X625300Y-604625D01*
X625300Y-619125D01*
X619300Y-619125D01*
G37*
G36*
X625300Y-619125D02*
X625300Y-633625D01*
X619300Y-633625D01*
X619300Y-619125D01*
X625300Y-619125D01*
G37*
G36*
X148665Y-380475D02*
X143400Y-375210D01*
X143400Y-367740D01*
X148665Y-362475D01*
X156135Y-362475D01*
X161400Y-367740D01*
X161400Y-375210D01*
X156135Y-380475D01*
X148665Y-380475D01*
G37*
G36*
X148665Y-355075D02*
X143400Y-349810D01*
X143400Y-342340D01*
X148665Y-337075D01*
X156135Y-337075D01*
X161400Y-342340D01*
X161400Y-349810D01*
X156135Y-355075D01*
X148665Y-355075D01*
G37*
G36*
X148665Y-329675D02*
X143400Y-324410D01*
X143400Y-316940D01*
X148665Y-311675D01*
X156135Y-311675D01*
X161400Y-316940D01*
X161400Y-324410D01*
X156135Y-329675D01*
X148665Y-329675D01*
G37*
G36*
X148665Y-355075D02*
X143400Y-349810D01*
X143400Y-342340D01*
X148665Y-337075D01*
X156135Y-337075D01*
X161400Y-342340D01*
X161400Y-349810D01*
X156135Y-355075D01*
X148665Y-355075D01*
G37*
X152400Y-212724D02*
G54D17*
D03*
X177800Y-212724D02*
G54D17*
D03*
X203200Y-212724D02*
G54D17*
D03*
X368300Y-320675D02*
G54D17*
D03*
X368300Y-346075D02*
G54D17*
D03*
X368300Y-371475D02*
G54D17*
D03*
X368300Y-206375D02*
G54D17*
D03*
X368300Y-231775D02*
G54D17*
D03*
X368300Y-257175D02*
G54D17*
D03*
G36*
X281925Y-302275D02*
X281925Y-288275D01*
X295925Y-288275D01*
X295925Y-302275D01*
X281925Y-302275D01*
G37*
X288925Y-269875D02*
G54D18*
D03*
X212725Y-269875D02*
G54D18*
D03*
X212725Y-295275D02*
G54D18*
D03*
X285750Y-365125D02*
G54D17*
D03*
X311150Y-365125D02*
G54D17*
D03*
X76200Y-53975D02*
G54D17*
D03*
X76200Y-28575D02*
G54D17*
D03*
X368300Y-28575D02*
G54D17*
D03*
X368300Y-53975D02*
G54D17*
D03*
X368300Y-117475D02*
G54D17*
D03*
X368300Y-142875D02*
G54D17*
D03*
G36*
X193150Y-19610D02*
X187885Y-24875D01*
X180415Y-24875D01*
X175150Y-19610D01*
X175150Y-12140D01*
X180415Y-6875D01*
X187885Y-6875D01*
X193150Y-12140D01*
X193150Y-19610D01*
G37*
G36*
X167750Y-19610D02*
X162485Y-24875D01*
X155015Y-24875D01*
X149750Y-19610D01*
X149750Y-12140D01*
X155015Y-6875D01*
X162485Y-6875D01*
X167750Y-12140D01*
X167750Y-19610D01*
G37*
G36*
X142350Y-19610D02*
X137085Y-24875D01*
X129615Y-24875D01*
X124350Y-19610D01*
X124350Y-12140D01*
X129615Y-6875D01*
X137085Y-6875D01*
X142350Y-12140D01*
X142350Y-19610D01*
G37*
G36*
X167750Y-19610D02*
X162485Y-24875D01*
X155015Y-24875D01*
X149750Y-19610D01*
X149750Y-12140D01*
X155015Y-6875D01*
X162485Y-6875D01*
X167750Y-12140D01*
X167750Y-19610D01*
G37*
X196850Y-365125D02*
G54D17*
D03*
X222250Y-365125D02*
G54D17*
D03*
X76200Y-180975D02*
G54D17*
D03*
X76200Y-206375D02*
G54D17*
D03*
X76200Y-231775D02*
G54D17*
D03*
X76200Y-257175D02*
G54D17*
D03*
X279400Y-41275D02*
G54D17*
D03*
X254000Y-41275D02*
G54D17*
D03*
X228600Y-41275D02*
G54D17*
D03*
X279400Y-79375D02*
G54D17*
D03*
X254000Y-79375D02*
G54D17*
D03*
X228600Y-79375D02*
G54D17*
D03*
G54D19*
X152400Y-371475D02*
X171450Y-390525D01*
X349250Y-390525D01*
X368300Y-371475D01*
G54D19*
X196850Y-365125D02*
X196850Y-390525D01*
G54D19*
X285750Y-365125D02*
X285750Y-390525D01*
G54D19*
X184150Y-15875D02*
X273050Y-15875D01*
X279400Y-22225D01*
X279400Y-79375D01*
G54D19*
X254000Y-79375D02*
X254000Y-104775D01*
X266700Y-117475D01*
X368300Y-117475D01*
G54D19*
X152400Y-320675D02*
X165100Y-320675D01*
X177800Y-333375D01*
X323850Y-333375D01*
X342900Y-314325D01*
X342900Y-269875D01*
X355600Y-257175D01*
X368300Y-257175D01*
G54D19*
X76200Y-53975D02*
X31750Y-53975D01*
X19050Y-66675D01*
X19050Y-301625D01*
X38100Y-320675D01*
X152400Y-320675D01*
G54D19*
X184150Y-15875D02*
X184150Y-168275D01*
X203200Y-187325D01*
X203200Y-215900D01*
X368300Y-231775D02*
G54D17*
D03*
X368300Y-346075D02*
G54D17*
D03*
X311150Y-365125D02*
G54D17*
D03*
X222250Y-365125D02*
G54D17*
D03*
X76200Y-28575D02*
G54D17*
D03*
X288925Y-269875D02*
G54D17*
D03*
X212725Y-269875D02*
G54D17*
D03*
X177800Y-212725D02*
G54D17*
D03*
G54D19*
X152400Y-212724D02*
X133351Y-212724D01*
X117475Y-228600D01*
X117475Y-320675D01*
G36*
X593165Y-380475D02*
X587900Y-375210D01*
X587900Y-367740D01*
X593165Y-362475D01*
X600635Y-362475D01*
X605900Y-367740D01*
X605900Y-375210D01*
X600635Y-380475D01*
X593165Y-380475D01*
G37*
G36*
X593165Y-355075D02*
X587900Y-349810D01*
X587900Y-342340D01*
X593165Y-337075D01*
X600635Y-337075D01*
X605900Y-342340D01*
X605900Y-349810D01*
X600635Y-355075D01*
X593165Y-355075D01*
G37*
G36*
X593165Y-329675D02*
X587900Y-324410D01*
X587900Y-316940D01*
X593165Y-311675D01*
X600635Y-311675D01*
X605900Y-316940D01*
X605900Y-324410D01*
X600635Y-329675D01*
X593165Y-329675D01*
G37*
G36*
X593165Y-355075D02*
X587900Y-349810D01*
X587900Y-342340D01*
X593165Y-337075D01*
X600635Y-337075D01*
X605900Y-342340D01*
X605900Y-349810D01*
X600635Y-355075D01*
X593165Y-355075D01*
G37*
X596900Y-212724D02*
G54D17*
D03*
X622300Y-212724D02*
G54D17*
D03*
X647700Y-212724D02*
G54D17*
D03*
X812800Y-320675D02*
G54D17*
D03*
X812800Y-346075D02*
G54D17*
D03*
X812800Y-371475D02*
G54D17*
D03*
X812800Y-206375D02*
G54D17*
D03*
X812800Y-231775D02*
G54D17*
D03*
X812800Y-257175D02*
G54D17*
D03*
G36*
X726425Y-302275D02*
X726425Y-288275D01*
X740425Y-288275D01*
X740425Y-302275D01*
X726425Y-302275D01*
G37*
X733425Y-269875D02*
G54D18*
D03*
X657225Y-269875D02*
G54D18*
D03*
X657225Y-295275D02*
G54D18*
D03*
X730250Y-365125D02*
G54D17*
D03*
X755650Y-365125D02*
G54D17*
D03*
X520700Y-53975D02*
G54D17*
D03*
X520700Y-28575D02*
G54D17*
D03*
X812800Y-28575D02*
G54D17*
D03*
X812800Y-53975D02*
G54D17*
D03*
X812800Y-117475D02*
G54D17*
D03*
X812800Y-142875D02*
G54D17*
D03*
G36*
X637650Y-19610D02*
X632385Y-24875D01*
X624915Y-24875D01*
X619650Y-19610D01*
X619650Y-12140D01*
X624915Y-6875D01*
X632385Y-6875D01*
X637650Y-12140D01*
X637650Y-19610D01*
G37*
G36*
X612250Y-19610D02*
X606985Y-24875D01*
X599515Y-24875D01*
X594250Y-19610D01*
X594250Y-12140D01*
X599515Y-6875D01*
X606985Y-6875D01*
X612250Y-12140D01*
X612250Y-19610D01*
G37*
G36*
X586850Y-19610D02*
X581585Y-24875D01*
X574115Y-24875D01*
X568850Y-19610D01*
X568850Y-12140D01*
X574115Y-6875D01*
X581585Y-6875D01*
X586850Y-12140D01*
X586850Y-19610D01*
G37*
G36*
X612250Y-19610D02*
X606985Y-24875D01*
X599515Y-24875D01*
X594250Y-19610D01*
X594250Y-12140D01*
X599515Y-6875D01*
X606985Y-6875D01*
X612250Y-12140D01*
X612250Y-19610D01*
G37*
X641350Y-365125D02*
G54D17*
D03*
X666750Y-365125D02*
G54D17*
D03*
X520700Y-180975D02*
G54D17*
D03*
X520700Y-206375D02*
G54D17*
D03*
X520700Y-231775D02*
G54D17*
D03*
X520700Y-257175D02*
G54D17*
D03*
X723900Y-41275D02*
G54D17*
D03*
X698500Y-41275D02*
G54D17*
D03*
X673100Y-41275D02*
G54D17*
D03*
X723900Y-79375D02*
G54D17*
D03*
X698500Y-79375D02*
G54D17*
D03*
X673100Y-79375D02*
G54D17*
D03*
G54D19*
X596900Y-371475D02*
X615950Y-390525D01*
X793750Y-390525D01*
X812800Y-371475D01*
G54D19*
X641350Y-365125D02*
X641350Y-390525D01*
G54D19*
X730250Y-365125D02*
X730250Y-390525D01*
G54D19*
X628650Y-15875D02*
X717550Y-15875D01*
X723900Y-22225D01*
X723900Y-79375D01*
G54D19*
X698500Y-79375D02*
X698500Y-104775D01*
X711200Y-117475D01*
X812800Y-117475D01*
G54D19*
X596900Y-320675D02*
X609600Y-320675D01*
X622300Y-333375D01*
X768350Y-333375D01*
X787400Y-314325D01*
X787400Y-269875D01*
X800100Y-257175D01*
X812800Y-257175D01*
G54D19*
X520700Y-53975D02*
X476250Y-53975D01*
X463550Y-66675D01*
X463550Y-301625D01*
X482600Y-320675D01*
X596900Y-320675D01*
G54D19*
X628650Y-15875D02*
X628650Y-168275D01*
X647700Y-187325D01*
X647700Y-215900D01*
X812800Y-231775D02*
G54D17*
D03*
X812800Y-346075D02*
G54D17*
D03*
X755650Y-365125D02*
G54D17*
D03*
X666750Y-365125D02*
G54D17*
D03*
X520700Y-28575D02*
G54D17*
D03*
X733425Y-269875D02*
G54D17*
D03*
X657225Y-269875D02*
G54D17*
D03*
X622300Y-212725D02*
G54D17*
D03*
G54D19*
X596900Y-212724D02*
X577851Y-212724D01*
X561975Y-228600D01*
X561975Y-320675D01*
G36*
X148665Y-786875D02*
X143400Y-781610D01*
X143400Y-774140D01*
X148665Y-768875D01*
X156135Y-768875D01*
X161400Y-774140D01*
X161400Y-781610D01*
X156135Y-786875D01*
X148665Y-786875D01*
G37*
G36*
X148665Y-761475D02*
X143400Y-756210D01*
X143400Y-748740D01*
X148665Y-743475D01*
X156135Y-743475D01*
X161400Y-748740D01*
X161400Y-756210D01*
X156135Y-761475D01*
X148665Y-761475D01*
G37*
G36*
X148665Y-736075D02*
X143400Y-730810D01*
X143400Y-723340D01*
X148665Y-718075D01*
X156135Y-718075D01*
X161400Y-723340D01*
X161400Y-730810D01*
X156135Y-736075D01*
X148665Y-736075D01*
G37*
G36*
X148665Y-761475D02*
X143400Y-756210D01*
X143400Y-748740D01*
X148665Y-743475D01*
X156135Y-743475D01*
X161400Y-748740D01*
X161400Y-756210D01*
X156135Y-761475D01*
X148665Y-761475D01*
G37*
X152400Y-619124D02*
G54D17*
D03*
X177800Y-619124D02*
G54D17*
D03*
X203200Y-619124D02*
G54D17*
D03*
X368300Y-727075D02*
G54D17*
D03*
X368300Y-752475D02*
G54D17*
D03*
X368300Y-777875D02*
G54D17*
D03*
X368300Y-612775D02*
G54D17*
D03*
X368300Y-638175D02*
G54D17*
D03*
X368300Y-663575D02*
G54D17*
D03*
G36*
X281925Y-708675D02*
X281925Y-694675D01*
X295925Y-694675D01*
X295925Y-708675D01*
X281925Y-708675D01*
G37*
X288925Y-676275D02*
G54D18*
D03*
X212725Y-676275D02*
G54D18*
D03*
X212725Y-701675D02*
G54D18*
D03*
X285750Y-771525D02*
G54D17*
D03*
X311150Y-771525D02*
G54D17*
D03*
X76200Y-460375D02*
G54D17*
D03*
X76200Y-434975D02*
G54D17*
D03*
X368300Y-434975D02*
G54D17*
D03*
X368300Y-460375D02*
G54D17*
D03*
X368300Y-523875D02*
G54D17*
D03*
X368300Y-549275D02*
G54D17*
D03*
G36*
X193150Y-426010D02*
X187885Y-431275D01*
X180415Y-431275D01*
X175150Y-426010D01*
X175150Y-418540D01*
X180415Y-413275D01*
X187885Y-413275D01*
X193150Y-418540D01*
X193150Y-426010D01*
G37*
G36*
X167750Y-426010D02*
X162485Y-431275D01*
X155015Y-431275D01*
X149750Y-426010D01*
X149750Y-418540D01*
X155015Y-413275D01*
X162485Y-413275D01*
X167750Y-418540D01*
X167750Y-426010D01*
G37*
G36*
X142350Y-426010D02*
X137085Y-431275D01*
X129615Y-431275D01*
X124350Y-426010D01*
X124350Y-418540D01*
X129615Y-413275D01*
X137085Y-413275D01*
X142350Y-418540D01*
X142350Y-426010D01*
G37*
G36*
X167750Y-426010D02*
X162485Y-431275D01*
X155015Y-431275D01*
X149750Y-426010D01*
X149750Y-418540D01*
X155015Y-413275D01*
X162485Y-413275D01*
X167750Y-418540D01*
X167750Y-426010D01*
G37*
X196850Y-771525D02*
G54D17*
D03*
X222250Y-771525D02*
G54D17*
D03*
X76200Y-587375D02*
G54D17*
D03*
X76200Y-612775D02*
G54D17*
D03*
X76200Y-638175D02*
G54D17*
D03*
X76200Y-663575D02*
G54D17*
D03*
X279400Y-447675D02*
G54D17*
D03*
X254000Y-447675D02*
G54D17*
D03*
X228600Y-447675D02*
G54D17*
D03*
X279400Y-485775D02*
G54D17*
D03*
X254000Y-485775D02*
G54D17*
D03*
X228600Y-485775D02*
G54D17*
D03*
G54D19*
X152400Y-777875D02*
X171450Y-796925D01*
X349250Y-796925D01*
X368300Y-777875D01*
G54D19*
X196850Y-771525D02*
X196850Y-796925D01*
G54D19*
X285750Y-771525D02*
X285750Y-796925D01*
G54D19*
X184150Y-422275D02*
X273050Y-422275D01*
X279400Y-428625D01*
X279400Y-485775D01*
G54D19*
X254000Y-485775D02*
X254000Y-511175D01*
X266700Y-523875D01*
X368300Y-523875D01*
G54D19*
X152400Y-727075D02*
X165100Y-727075D01*
X177800Y-739775D01*
X323850Y-739775D01*
X342900Y-720725D01*
X342900Y-676275D01*
X355600Y-663575D01*
X368300Y-663575D01*
G54D19*
X76200Y-460375D02*
X31750Y-460375D01*
X19050Y-473075D01*
X19050Y-708025D01*
X38100Y-727075D01*
X152400Y-727075D01*
G54D19*
X184150Y-422275D02*
X184150Y-574675D01*
X203200Y-593725D01*
X203200Y-622300D01*
X368300Y-638175D02*
G54D17*
D03*
X368300Y-752475D02*
G54D17*
D03*
X311150Y-771525D02*
G54D17*
D03*
X222250Y-771525D02*
G54D17*
D03*
X76200Y-434975D02*
G54D17*
D03*
X288925Y-676275D02*
G54D17*
D03*
X212725Y-676275D02*
G54D17*
D03*
X177800Y-619125D02*
G54D17*
D03*
G54D19*
X152400Y-619124D02*
X133351Y-619124D01*
X117475Y-635000D01*
X117475Y-727075D01*
G36*
X593165Y-786875D02*
X587900Y-781610D01*
X587900Y-774140D01*
X593165Y-768875D01*
X600635Y-768875D01*
X605900Y-774140D01*
X605900Y-781610D01*
X600635Y-786875D01*
X593165Y-786875D01*
G37*
G36*
X593165Y-761475D02*
X587900Y-756210D01*
X587900Y-748740D01*
X593165Y-743475D01*
X600635Y-743475D01*
X605900Y-748740D01*
X605900Y-756210D01*
X600635Y-761475D01*
X593165Y-761475D01*
G37*
G36*
X593165Y-736075D02*
X587900Y-730810D01*
X587900Y-723340D01*
X593165Y-718075D01*
X600635Y-718075D01*
X605900Y-723340D01*
X605900Y-730810D01*
X600635Y-736075D01*
X593165Y-736075D01*
G37*
G36*
X593165Y-761475D02*
X587900Y-756210D01*
X587900Y-748740D01*
X593165Y-743475D01*
X600635Y-743475D01*
X605900Y-748740D01*
X605900Y-756210D01*
X600635Y-761475D01*
X593165Y-761475D01*
G37*
X596900Y-619124D02*
G54D17*
D03*
X622300Y-619124D02*
G54D17*
D03*
X647700Y-619124D02*
G54D17*
D03*
X812800Y-727075D02*
G54D17*
D03*
X812800Y-752475D02*
G54D17*
D03*
X812800Y-777875D02*
G54D17*
D03*
X812800Y-612775D02*
G54D17*
D03*
X812800Y-638175D02*
G54D17*
D03*
X812800Y-663575D02*
G54D17*
D03*
G36*
X726425Y-708675D02*
X726425Y-694675D01*
X740425Y-694675D01*
X740425Y-708675D01*
X726425Y-708675D01*
G37*
X733425Y-676275D02*
G54D18*
D03*
X657225Y-676275D02*
G54D18*
D03*
X657225Y-701675D02*
G54D18*
D03*
X730250Y-771525D02*
G54D17*
D03*
X755650Y-771525D02*
G54D17*
D03*
X520700Y-460375D02*
G54D17*
D03*
X520700Y-434975D02*
G54D17*
D03*
X812800Y-434975D02*
G54D17*
D03*
X812800Y-460375D02*
G54D17*
D03*
X812800Y-523875D02*
G54D17*
D03*
X812800Y-549275D02*
G54D17*
D03*
G36*
X637650Y-426010D02*
X632385Y-431275D01*
X624915Y-431275D01*
X619650Y-426010D01*
X619650Y-418540D01*
X624915Y-413275D01*
X632385Y-413275D01*
X637650Y-418540D01*
X637650Y-426010D01*
G37*
G36*
X612250Y-426010D02*
X606985Y-431275D01*
X599515Y-431275D01*
X594250Y-426010D01*
X594250Y-418540D01*
X599515Y-413275D01*
X606985Y-413275D01*
X612250Y-418540D01*
X612250Y-426010D01*
G37*
G36*
X586850Y-426010D02*
X581585Y-431275D01*
X574115Y-431275D01*
X568850Y-426010D01*
X568850Y-418540D01*
X574115Y-413275D01*
X581585Y-413275D01*
X586850Y-418540D01*
X586850Y-426010D01*
G37*
G36*
X612250Y-426010D02*
X606985Y-431275D01*
X599515Y-431275D01*
X594250Y-426010D01*
X594250Y-418540D01*
X599515Y-413275D01*
X606985Y-413275D01*
X612250Y-418540D01*
X612250Y-426010D01*
G37*
X641350Y-771525D02*
G54D17*
D03*
X666750Y-771525D02*
G54D17*
D03*
X520700Y-587375D02*
G54D17*
D03*
X520700Y-612775D02*
G54D17*
D03*
X520700Y-638175D02*
G54D17*
D03*
X520700Y-663575D02*
G54D17*
D03*
X723900Y-447675D02*
G54D17*
D03*
X698500Y-447675D02*
G54D17*
D03*
X673100Y-447675D02*
G54D17*
D03*
X723900Y-485775D02*
G54D17*
D03*
X698500Y-485775D02*
G54D17*
D03*
X673100Y-485775D02*
G54D17*
D03*
G54D19*
X596900Y-777875D02*
X615950Y-796925D01*
X793750Y-796925D01*
X812800Y-777875D01*
G54D19*
X641350Y-771525D02*
X641350Y-796925D01*
G54D19*
X730250Y-771525D02*
X730250Y-796925D01*
G54D19*
X628650Y-422275D02*
X717550Y-422275D01*
X723900Y-428625D01*
X723900Y-485775D01*
G54D19*
X698500Y-485775D02*
X698500Y-511175D01*
X711200Y-523875D01*
X812800Y-523875D01*
G54D19*
X596900Y-727075D02*
X609600Y-727075D01*
X622300Y-739775D01*
X768350Y-739775D01*
X787400Y-720725D01*
X787400Y-676275D01*
X800100Y-663575D01*
X812800Y-663575D01*
G54D19*
X520700Y-460375D02*
X476250Y-460375D01*
X463550Y-473075D01*
X463550Y-708025D01*
X482600Y-727075D01*
X596900Y-727075D01*
G54D19*
X628650Y-422275D02*
X628650Y-574675D01*
X647700Y-593725D01*
X647700Y-622300D01*
X812800Y-638175D02*
G54D17*
D03*
X812800Y-752475D02*
G54D17*
D03*
X755650Y-771525D02*
G54D17*
D03*
X666750Y-771525D02*
G54D17*
D03*
X520700Y-434975D02*
G54D17*
D03*
X733425Y-676275D02*
G54D17*
D03*
X657225Y-676275D02*
G54D17*
D03*
X622300Y-619125D02*
G54D17*
D03*
G54D19*
X596900Y-619124D02*
X577851Y-619124D01*
X561975Y-635000D01*
X561975Y-727075D01*
M02*
