; Drill file
; Format: 2.4 (00.0000)
M48
INCH
T01C0.0283
T02C0.0335
T03C0.0394
T04C0.0866
%
G05
G90
T01
X008380Y-027630
X011370Y-027630
X025870Y-027630
X028880Y-027630
X028880Y-011630
X025870Y-011630
X011370Y-011630
X008380Y-011630
T02
X003000Y-026120
X003000Y-025130
X003000Y-024130
X003000Y-023120
X006000Y-024370
X007000Y-024380
X008000Y-024370
X008380Y-026630
X011370Y-026630
X014500Y-026120
X014500Y-025130
X014500Y-024130
X014500Y-021630
X014500Y-020620
X014500Y-018120
X014500Y-017120
X014500Y-014620
X014500Y-013630
X014500Y-012620
X014500Y-010120
X014500Y-009120
X014500Y-008120
X014500Y-005620
X014500Y-004630
X014500Y-002120
X014500Y-001130
X011000Y-001630
X010000Y-001630
X009000Y-001630
X009000Y-003120
X010000Y-003120
X011000Y-003120
X008000Y-008370
X007000Y-008380
X006000Y-008370
X003000Y-008120
X003000Y-007130
X003000Y-009120
X003000Y-010120
X008380Y-010620
X011370Y-010620
X011250Y-014380
X012250Y-014380
X011000Y-017620
X010000Y-017620
X009000Y-017620
X009000Y-019130
X010000Y-019130
X011000Y-019130
X008750Y-014380
X007750Y-014380
X003000Y-017120
X003000Y-018120
X007750Y-030380
X008750Y-030380
X011250Y-030380
X012250Y-030380
X014500Y-030620
X014500Y-029620
X014500Y-028620
X020500Y-026120
X020500Y-025130
X020500Y-024130
X020500Y-023120
X023500Y-024370
X024500Y-024380
X025500Y-024370
X025870Y-026630
X028880Y-026630
X032000Y-026120
X032000Y-025130
X032000Y-024130
X032000Y-021630
X032000Y-020620
X032000Y-018120
X032000Y-017120
X032000Y-014620
X032000Y-013630
X032000Y-012620
X032000Y-010120
X032000Y-009120
X032000Y-008120
X032000Y-005620
X032000Y-004630
X032000Y-002120
X032000Y-001130
X028500Y-001630
X027500Y-001630
X026500Y-001630
X026500Y-003120
X027500Y-003120
X028500Y-003120
X025500Y-008370
X024500Y-008380
X023500Y-008370
X020500Y-008120
X020500Y-007130
X020500Y-009120
X020500Y-010120
X025870Y-010620
X028880Y-010620
X028750Y-014380
X029750Y-014380
X028500Y-017620
X027500Y-017620
X026500Y-017620
X026500Y-019130
X027500Y-019130
X028500Y-019130
X026250Y-014380
X025250Y-014380
X020500Y-017120
X020500Y-018120
X025250Y-030380
X026250Y-030380
X028750Y-030380
X029750Y-030380
X032000Y-030620
X032000Y-029620
X032000Y-028620
X020500Y-002120
X020500Y-001130
X003000Y-001130
X003000Y-002120
T03
X006000Y-030620
X006000Y-029620
X006000Y-028620
X006250Y-016630
X005250Y-016630
X007250Y-016630
X006000Y-014620
X006000Y-013630
X006000Y-012620
X006250Y-000620
X005250Y-000620
X007250Y-000620
X022750Y-000620
X023750Y-000620
X024750Y-000620
X023500Y-012620
X023500Y-013630
X023500Y-014620
X023750Y-016630
X022750Y-016630
X024750Y-016630
X023500Y-028620
X023500Y-029620
X023500Y-030620
T04
X006370Y-026630
X013120Y-019380
X006370Y-010620
X013120Y-003380
X023880Y-010620
X030620Y-003380
X030620Y-019380
X023880Y-026630
M30
