%FSLAX34Y34*%
%MOMM*%
%LNSILK_TOP*%
G71*
G01*
%ADD10C, 0.150*%
%ADD11C, 0.100*%
%ADD12C, 0.111*%
%LPD*%
G54D10*
X8050Y-88925D02*
X30050Y-88925D01*
X30050Y-126925D01*
X8050Y-126925D01*
X8050Y-88925D01*
G54D10*
X269750Y-107975D02*
X234750Y-107975D01*
X234750Y-172975D01*
X269750Y-172975D01*
X269750Y-107975D01*
G54D10*
X329756Y-21394D02*
X314656Y-21394D01*
X314656Y-48394D01*
X329756Y-48394D01*
X329756Y-21394D01*
G36*
X329756Y-21394D02*
X314656Y-21394D01*
X314656Y-28494D01*
X329756Y-28494D01*
X329756Y-21394D01*
G37*
G54D11*
X329756Y-21394D02*
X314656Y-21394D01*
X314656Y-28494D01*
X329756Y-28494D01*
X329756Y-21394D01*
G54D10*
X47650Y-109425D02*
X47650Y-87425D01*
X85650Y-87425D01*
X85650Y-109425D01*
X47650Y-109425D01*
G54D11*
X165100Y-398462D02*
X165100Y-293688D01*
X0Y-293688D01*
X0Y-398463D01*
X165100Y-398462D01*
G54D11*
X165100Y-384175D02*
X139700Y-384175D01*
X139700Y-307975D01*
X165100Y-307975D01*
G54D12*
X113428Y-366142D02*
X118983Y-366142D01*
X120094Y-366808D01*
X120650Y-368142D01*
X120650Y-369475D01*
X120094Y-370808D01*
X118983Y-371475D01*
X113428Y-371475D01*
X112317Y-370808D01*
X111761Y-369475D01*
X111761Y-368142D01*
X112317Y-366808D01*
X113428Y-366142D01*
G54D12*
X120650Y-363698D02*
X111761Y-363698D01*
G54D12*
X117872Y-363698D02*
X111761Y-358365D01*
G54D12*
X116206Y-361698D02*
X120650Y-358365D01*
G54D12*
X120650Y-355921D02*
X111761Y-355921D01*
G54D12*
X116761Y-353477D02*
X116761Y-348144D01*
G54D12*
X111761Y-345700D02*
X111761Y-340367D01*
X112872Y-341033D01*
X114539Y-342367D01*
X116761Y-343700D01*
X118428Y-344367D01*
X120650Y-344367D01*
G54D12*
X116206Y-334590D02*
X116206Y-335923D01*
X115650Y-337256D01*
X114539Y-337923D01*
X113428Y-337923D01*
X112317Y-337256D01*
X111761Y-335923D01*
X111761Y-334590D01*
X112317Y-333256D01*
X113428Y-332590D01*
X114539Y-332590D01*
X115650Y-333256D01*
X116206Y-334590D01*
X116761Y-333256D01*
X117872Y-332590D01*
X118983Y-332590D01*
X120094Y-333256D01*
X120650Y-334590D01*
X120650Y-335923D01*
X120094Y-337256D01*
X118983Y-337923D01*
X117872Y-337923D01*
X116761Y-337256D01*
X116206Y-335923D01*
G54D12*
X118983Y-330146D02*
X120094Y-329479D01*
X120650Y-328146D01*
X120650Y-326813D01*
X120094Y-325479D01*
X118983Y-324813D01*
X117872Y-324813D01*
X116761Y-325479D01*
X116205Y-326813D01*
X116205Y-328146D01*
X115650Y-329479D01*
X114539Y-330146D01*
X113428Y-330146D01*
X112317Y-329479D01*
X111761Y-328146D01*
X111761Y-326813D01*
X112317Y-325479D01*
X113428Y-324813D01*
G54D12*
X116206Y-319702D02*
X117317Y-317702D01*
X118428Y-317036D01*
X120650Y-317036D01*
G54D12*
X120650Y-322369D02*
X111761Y-322369D01*
X111761Y-319036D01*
X112317Y-317702D01*
X113428Y-317036D01*
X114539Y-317036D01*
X115650Y-317702D01*
X116205Y-319036D01*
X116206Y-322369D01*
G54D12*
X126128Y-366538D02*
X131683Y-366539D01*
X132794Y-367205D01*
X133350Y-368538D01*
X133350Y-369872D01*
X132794Y-371205D01*
X131683Y-371872D01*
X126128Y-371872D01*
X125017Y-371205D01*
X124461Y-369872D01*
X124461Y-368538D01*
X125017Y-367205D01*
X126128Y-366538D01*
G54D12*
X128905Y-343408D02*
X128905Y-340742D01*
X131683Y-340742D01*
X132794Y-341408D01*
X133350Y-342742D01*
X133350Y-344075D01*
X132794Y-345408D01*
X131683Y-346075D01*
X126128Y-346075D01*
X125017Y-345408D01*
X124461Y-344075D01*
X124461Y-342742D01*
X125017Y-341408D01*
X126128Y-340742D01*
G54D12*
X133350Y-320675D02*
X124461Y-320675D01*
G54D11*
X127000Y-238124D02*
X127000Y-177799D01*
G54D11*
X127000Y-238124D02*
X228600Y-238124D01*
X228600Y-177799D01*
X127000Y-177799D01*
G54D11*
X152400Y-238124D02*
X152400Y-231774D01*
X203200Y-231774D01*
X203200Y-238124D01*
G54D11*
X368300Y-390525D02*
X368300Y-396875D01*
X441325Y-396875D01*
X441325Y-295275D01*
X368300Y-295275D01*
X368300Y-301625D01*
X390525Y-301625D01*
X390525Y-390525D01*
X368300Y-390525D01*
G54D11*
X441325Y-371475D02*
X434975Y-371475D01*
X434975Y-320675D01*
X441325Y-320675D01*
G54D11*
X390525Y-320675D02*
X384175Y-320675D01*
G54D11*
X384175Y-346075D02*
X390525Y-346075D01*
G54D11*
X384175Y-371475D02*
X390525Y-371475D01*
G54D11*
X368300Y-276225D02*
X368300Y-282575D01*
X441325Y-282575D01*
X441325Y-180975D01*
X368300Y-180975D01*
X368300Y-187325D01*
X390525Y-187325D01*
X390525Y-276225D01*
X368300Y-276225D01*
G54D11*
X441325Y-257175D02*
X434975Y-257175D01*
X434975Y-206375D01*
X441325Y-206375D01*
G54D11*
X390525Y-206375D02*
X384175Y-206375D01*
G54D11*
X384175Y-231775D02*
X390525Y-231775D01*
G54D11*
X384175Y-257175D02*
X390525Y-257175D01*
G54D10*
X225425Y-307975D02*
X276225Y-307975D01*
X276225Y-257175D01*
X225425Y-257175D01*
X225425Y-307975D01*
G54D10*
X238125Y-307975D02*
X263525Y-307975D01*
X263525Y-295275D01*
X238125Y-295275D01*
X238125Y-307975D01*
G54D12*
X355667Y-392225D02*
X364556Y-388892D01*
X355667Y-385559D01*
G54D12*
X361045Y-303148D02*
X362156Y-302481D01*
X362712Y-301148D01*
X362712Y-299814D01*
X362156Y-298481D01*
X361045Y-297814D01*
X359934Y-297814D01*
X358823Y-298481D01*
X358267Y-299814D01*
X358267Y-301148D01*
X357712Y-302481D01*
X356600Y-303148D01*
X355489Y-303148D01*
X354378Y-302481D01*
X353823Y-301148D01*
X353823Y-299814D01*
X354378Y-298481D01*
X355489Y-297814D01*
G54D12*
X355667Y-280975D02*
X364556Y-277642D01*
X355667Y-274309D01*
G54D12*
X361045Y-191898D02*
X362156Y-191231D01*
X362712Y-189898D01*
X362712Y-188564D01*
X362156Y-187231D01*
X361045Y-186564D01*
X359934Y-186564D01*
X358823Y-187231D01*
X358267Y-188564D01*
X358267Y-189898D01*
X357712Y-191231D01*
X356600Y-191898D01*
X355489Y-191898D01*
X354378Y-191231D01*
X353823Y-189898D01*
X353823Y-188564D01*
X354378Y-187231D01*
X355489Y-186564D01*
G54D10*
X309675Y-266725D02*
X331675Y-266725D01*
X331675Y-304725D01*
X309675Y-304725D01*
X309675Y-266725D01*
G54D11*
X260350Y-339725D02*
X260350Y-400050D01*
G54D11*
X336550Y-339725D02*
X336550Y-400050D01*
X260350Y-400050D01*
G54D11*
X260350Y-339725D02*
X336550Y-339725D01*
G54D11*
X285750Y-339725D02*
X285750Y-346075D01*
X311150Y-346075D01*
X311150Y-339725D01*
G54D11*
X76200Y-3175D02*
X3175Y-3175D01*
X3175Y-79375D01*
X76200Y-79375D01*
X76200Y-73025D01*
X53975Y-73025D01*
X53975Y-9525D01*
X76200Y-9525D01*
X76200Y-3175D01*
G54D11*
X58738Y-28575D02*
X53975Y-28575D01*
G54D11*
X58738Y-53975D02*
X53975Y-53975D01*
G54D11*
X3175Y-53975D02*
X9525Y-53975D01*
X9525Y-28575D01*
X3175Y-28575D01*
G54D11*
X368300Y-79375D02*
X441325Y-79375D01*
X441325Y-3175D01*
X368300Y-3175D01*
X368300Y-9525D01*
X390525Y-9525D01*
X390525Y-73025D01*
X368300Y-73025D01*
X368300Y-79375D01*
G54D11*
X385762Y-53975D02*
X390525Y-53975D01*
G54D11*
X385762Y-28575D02*
X390525Y-28575D01*
G54D11*
X441325Y-28575D02*
X434975Y-28575D01*
X434975Y-53975D01*
X441325Y-53975D01*
G54D11*
X368300Y-168275D02*
X441325Y-168275D01*
X441325Y-92075D01*
X368300Y-92075D01*
X368300Y-98425D01*
X390525Y-98425D01*
X390525Y-161925D01*
X368300Y-161925D01*
X368300Y-168275D01*
G54D11*
X385762Y-142875D02*
X390525Y-142875D01*
G54D11*
X385762Y-117475D02*
X390525Y-117475D01*
G54D11*
X441325Y-117475D02*
X434975Y-117475D01*
X434975Y-142875D01*
X441325Y-142875D01*
G54D11*
X211138Y-3175D02*
X106363Y-3175D01*
X106363Y-168275D01*
X211138Y-168275D01*
X211138Y-3175D01*
G54D11*
X196850Y-3175D02*
X196850Y-28575D01*
X120650Y-28575D01*
X120650Y-3175D01*
G54D12*
X178817Y-54847D02*
X178817Y-49292D01*
X179483Y-48180D01*
X180817Y-47625D01*
X182150Y-47625D01*
X183483Y-48180D01*
X184150Y-49292D01*
X184150Y-54847D01*
X183483Y-55958D01*
X182150Y-56514D01*
X180817Y-56514D01*
X179483Y-55958D01*
X178817Y-54847D01*
G54D12*
X176373Y-47625D02*
X176373Y-56514D01*
G54D12*
X176373Y-50403D02*
X171040Y-56514D01*
G54D12*
X174373Y-52070D02*
X171040Y-47625D01*
G54D12*
X168596Y-47625D02*
X168596Y-56514D01*
G54D12*
X166152Y-51514D02*
X160819Y-51514D01*
G54D12*
X158375Y-56514D02*
X153042Y-56514D01*
X153708Y-55403D01*
X155042Y-53736D01*
X156375Y-51514D01*
X157042Y-49847D01*
X157042Y-47625D01*
G54D12*
X147265Y-52070D02*
X148598Y-52070D01*
X149931Y-52625D01*
X150598Y-53736D01*
X150598Y-54847D01*
X149931Y-55958D01*
X148598Y-56514D01*
X147265Y-56514D01*
X145931Y-55958D01*
X145265Y-54847D01*
X145265Y-53736D01*
X145931Y-52625D01*
X147265Y-52070D01*
X145931Y-51514D01*
X145265Y-50403D01*
X145265Y-49292D01*
X145931Y-48180D01*
X147265Y-47625D01*
X148598Y-47625D01*
X149931Y-48180D01*
X150598Y-49292D01*
X150598Y-50403D01*
X149931Y-51514D01*
X148598Y-52070D01*
G54D12*
X142821Y-49292D02*
X142154Y-48181D01*
X140821Y-47625D01*
X139488Y-47625D01*
X138154Y-48180D01*
X137488Y-49292D01*
X137488Y-50403D01*
X138154Y-51514D01*
X139488Y-52070D01*
X140821Y-52070D01*
X142154Y-52625D01*
X142821Y-53736D01*
X142821Y-54847D01*
X142154Y-55958D01*
X140821Y-56514D01*
X139488Y-56514D01*
X138154Y-55958D01*
X137488Y-54847D01*
G54D12*
X132377Y-52070D02*
X130377Y-50958D01*
X129711Y-49847D01*
X129711Y-47625D01*
G54D12*
X135044Y-47625D02*
X135044Y-56514D01*
X131711Y-56514D01*
X130377Y-55958D01*
X129711Y-54847D01*
X129711Y-53736D01*
X130377Y-52625D01*
X131711Y-52070D01*
X135044Y-52070D01*
G54D12*
X179214Y-42147D02*
X179214Y-36592D01*
X179880Y-35480D01*
X181214Y-34925D01*
X182547Y-34925D01*
X183880Y-35480D01*
X184547Y-36592D01*
X184547Y-42147D01*
X183880Y-43258D01*
X182547Y-43814D01*
X181214Y-43814D01*
X179880Y-43258D01*
X179214Y-42147D01*
G54D12*
X156083Y-39370D02*
X153417Y-39370D01*
X153417Y-36592D01*
X154083Y-35480D01*
X155417Y-34925D01*
X156750Y-34925D01*
X158083Y-35480D01*
X158750Y-36592D01*
X158750Y-42147D01*
X158083Y-43258D01*
X156750Y-43814D01*
X155417Y-43814D01*
X154083Y-43258D01*
X153417Y-42147D01*
G54D12*
X133350Y-34925D02*
X133350Y-43814D01*
G54D11*
X171450Y-339725D02*
X171450Y-400050D01*
G54D11*
X247650Y-339725D02*
X247650Y-400050D01*
X171450Y-400050D01*
G54D11*
X171450Y-339725D02*
X247650Y-339725D01*
G54D11*
X196850Y-339725D02*
X196850Y-346075D01*
X222250Y-346075D01*
X222250Y-339725D01*
G54D10*
X47650Y-147525D02*
X47650Y-125525D01*
X85650Y-125525D01*
X85650Y-147525D01*
X47650Y-147525D01*
G54D10*
X317056Y-122994D02*
X301956Y-122994D01*
X301956Y-149994D01*
X317056Y-149994D01*
X317056Y-122994D01*
G36*
X317056Y-122994D02*
X301956Y-122994D01*
X301956Y-130094D01*
X317056Y-130094D01*
X317056Y-122994D01*
G37*
G54D11*
X317056Y-122994D02*
X301956Y-122994D01*
X301956Y-130094D01*
X317056Y-130094D01*
X317056Y-122994D01*
G54D11*
X76200Y-282575D02*
X3175Y-282575D01*
X3175Y-155575D01*
X76200Y-155575D01*
X76200Y-161925D01*
X53975Y-161925D01*
X53975Y-276225D01*
X76200Y-276225D01*
X76200Y-282575D01*
G54D11*
X3175Y-180975D02*
X9525Y-180975D01*
X9525Y-257175D01*
X3175Y-257175D01*
G54D10*
X263550Y-193800D02*
X263550Y-228800D01*
X328550Y-228800D01*
X328550Y-193800D01*
X263550Y-193800D01*
G54D10*
X233450Y-209600D02*
X255450Y-209600D01*
X255450Y-247600D01*
X233450Y-247600D01*
X233450Y-209600D01*
G36*
X97494Y-24470D02*
X103844Y-18120D01*
X97494Y-11770D01*
X97494Y-24470D01*
G37*
G54D12*
X95615Y-32021D02*
X104504Y-32021D01*
X104504Y-35354D01*
X103948Y-36688D01*
X102837Y-37354D01*
X101726Y-37354D01*
X100615Y-36688D01*
X100059Y-35354D01*
X100059Y-32021D01*
G54D12*
X104504Y-39798D02*
X95615Y-39798D01*
X101170Y-43131D01*
X95615Y-46465D01*
X104504Y-46465D01*
G54D12*
X100059Y-51576D02*
X98948Y-53576D01*
X97837Y-54242D01*
X95615Y-54242D01*
G54D12*
X95615Y-48909D02*
X104504Y-48909D01*
X104504Y-52242D01*
X103948Y-53576D01*
X102837Y-54242D01*
X101726Y-54242D01*
X100615Y-53576D01*
X100059Y-52242D01*
X100059Y-48909D01*
G54D12*
X95615Y-59263D02*
X104504Y-59263D01*
G54D12*
X95615Y-61707D02*
X104504Y-61707D01*
X95615Y-67040D01*
X104504Y-67040D01*
G36*
X97494Y-170520D02*
X103844Y-164170D01*
X97494Y-157820D01*
X97494Y-170520D01*
G37*
G54D12*
X98425Y-187325D02*
X98425Y-178436D01*
X103092Y-178436D01*
G54D12*
X98425Y-182881D02*
X103092Y-182881D01*
G54D12*
X105536Y-181769D02*
X108869Y-178436D01*
X108869Y-187325D01*
G54D12*
X98425Y-212725D02*
X98425Y-203836D01*
X103092Y-203836D01*
G54D12*
X98425Y-208280D02*
X103092Y-208280D01*
G54D12*
X110869Y-212725D02*
X105536Y-212725D01*
X105536Y-212170D01*
X106203Y-211058D01*
X110203Y-207725D01*
X110869Y-206614D01*
X110869Y-205503D01*
X110203Y-204392D01*
X108869Y-203836D01*
X107536Y-203836D01*
X106203Y-204392D01*
X105536Y-205503D01*
G54D12*
X98425Y-238125D02*
X98425Y-229236D01*
X103758Y-238125D01*
X103758Y-229236D01*
G54D12*
X110869Y-238125D02*
X106202Y-238125D01*
X106202Y-229236D01*
X110869Y-229236D01*
G54D12*
X106202Y-233680D02*
X110869Y-233680D01*
G54D12*
X118646Y-230903D02*
X118646Y-236458D01*
X117980Y-237570D01*
X116646Y-238125D01*
X115313Y-238125D01*
X113980Y-237570D01*
X113313Y-236458D01*
X113313Y-230903D01*
X113980Y-229792D01*
X115313Y-229236D01*
X116646Y-229236D01*
X117980Y-229792D01*
X118646Y-230903D01*
G54D12*
X98425Y-263525D02*
X98425Y-254636D01*
X101758Y-254636D01*
X103092Y-255192D01*
X103758Y-256303D01*
X103758Y-257414D01*
X103092Y-258525D01*
X101758Y-259080D01*
X98425Y-259080D01*
G54D12*
X108869Y-259080D02*
X110869Y-260192D01*
X111535Y-261303D01*
X111535Y-263525D01*
G54D12*
X106202Y-263525D02*
X106202Y-254636D01*
X109535Y-254636D01*
X110869Y-255192D01*
X111535Y-256303D01*
X111535Y-257414D01*
X110869Y-258525D01*
X109535Y-259080D01*
X106202Y-259080D01*
G54D12*
X119312Y-256303D02*
X119312Y-261858D01*
X118646Y-262970D01*
X117312Y-263525D01*
X115979Y-263525D01*
X114646Y-262970D01*
X113979Y-261858D01*
X113979Y-256303D01*
X114646Y-255192D01*
X115979Y-254636D01*
X117312Y-254636D01*
X118646Y-255192D01*
X119312Y-256303D01*
G54D12*
X121756Y-263525D02*
X121756Y-254636D01*
X125089Y-254636D01*
X126423Y-255192D01*
X127089Y-256303D01*
X127089Y-257414D01*
X126423Y-258525D01*
X125089Y-259080D01*
X126423Y-259636D01*
X127089Y-260747D01*
X127089Y-261858D01*
X126423Y-262970D01*
X125089Y-263525D01*
X121756Y-263525D01*
G54D12*
X121756Y-259080D02*
X125089Y-259080D01*
G54D12*
X134200Y-263525D02*
X129533Y-263525D01*
X129533Y-254636D01*
X134200Y-254636D01*
G54D12*
X129533Y-259080D02*
X134200Y-259080D01*
G54D12*
X208533Y-324486D02*
X203200Y-324486D01*
X203200Y-328375D01*
X203867Y-328375D01*
X205200Y-327820D01*
X206533Y-327820D01*
X207867Y-328375D01*
X208533Y-329486D01*
X208533Y-331708D01*
X207867Y-332820D01*
X206533Y-333375D01*
X205200Y-333375D01*
X203867Y-332820D01*
X203200Y-331708D01*
G54D12*
X210977Y-324486D02*
X214310Y-333375D01*
X217644Y-324486D01*
G54D12*
X300608Y-324486D02*
X295275Y-324486D01*
X295275Y-328375D01*
X295942Y-328375D01*
X297275Y-327820D01*
X298608Y-327820D01*
X299942Y-328375D01*
X300608Y-329486D01*
X300608Y-331708D01*
X299942Y-332820D01*
X298608Y-333375D01*
X297275Y-333375D01*
X295942Y-332820D01*
X295275Y-331708D01*
G54D12*
X303052Y-324486D02*
X306385Y-333375D01*
X309719Y-324486D01*
G54D12*
X349250Y-371475D02*
X340361Y-371475D01*
X349250Y-366142D01*
X340361Y-366142D01*
G54D12*
X349250Y-359031D02*
X349250Y-363698D01*
X340361Y-363698D01*
X340361Y-359031D01*
G54D12*
X344806Y-363698D02*
X344806Y-359031D01*
G54D12*
X342028Y-351254D02*
X347583Y-351254D01*
X348694Y-351920D01*
X349250Y-353254D01*
X349250Y-354587D01*
X348694Y-355920D01*
X347583Y-356587D01*
X342028Y-356587D01*
X340917Y-355920D01*
X340361Y-354587D01*
X340361Y-353254D01*
X340917Y-351920D01*
X342028Y-351254D01*
G54D12*
X349250Y-348810D02*
X340361Y-348810D01*
X340361Y-345477D01*
X340917Y-344143D01*
X342028Y-343477D01*
X343139Y-343477D01*
X344250Y-344143D01*
X344806Y-345477D01*
X344806Y-348810D01*
G54D12*
X349250Y-341033D02*
X340361Y-341033D01*
G54D12*
X340361Y-338589D02*
X349250Y-331922D01*
G54D12*
X349250Y-338589D02*
X340361Y-331922D01*
G54D12*
X349250Y-324811D02*
X349250Y-329478D01*
X340361Y-329478D01*
X340361Y-324811D01*
G54D12*
X344806Y-329478D02*
X344806Y-324811D01*
G54D12*
X340361Y-322367D02*
X349250Y-322367D01*
X349250Y-317700D01*
G54D12*
X349250Y-244475D02*
X340361Y-244475D01*
X340361Y-241142D01*
X340917Y-239808D01*
X342028Y-239142D01*
X343139Y-239142D01*
X344250Y-239808D01*
X344806Y-241142D01*
X344806Y-244475D01*
G54D12*
X344806Y-234031D02*
X345917Y-232031D01*
X347028Y-231365D01*
X349250Y-231365D01*
G54D12*
X349250Y-236698D02*
X340361Y-236698D01*
X340361Y-233365D01*
X340917Y-232031D01*
X342028Y-231365D01*
X343139Y-231365D01*
X344250Y-232031D01*
X344806Y-233365D01*
X344806Y-236698D01*
G54D12*
X342028Y-223588D02*
X347583Y-223588D01*
X348694Y-224254D01*
X349250Y-225588D01*
X349250Y-226921D01*
X348694Y-228254D01*
X347583Y-228921D01*
X342028Y-228921D01*
X340917Y-228254D01*
X340361Y-226921D01*
X340361Y-225588D01*
X340917Y-224254D01*
X342028Y-223588D01*
G54D12*
X349250Y-221144D02*
X340361Y-221144D01*
X340361Y-217811D01*
X340917Y-216477D01*
X342028Y-215811D01*
X343139Y-215811D01*
X344250Y-216477D01*
X344806Y-217811D01*
X345361Y-216477D01*
X346472Y-215811D01*
X347583Y-215811D01*
X348694Y-216477D01*
X349250Y-217811D01*
X349250Y-221144D01*
G54D12*
X344806Y-221144D02*
X344806Y-217811D01*
G54D12*
X349250Y-208700D02*
X349250Y-213367D01*
X340361Y-213367D01*
X340361Y-208700D01*
G54D12*
X344806Y-213367D02*
X344806Y-208700D01*
G54D12*
X349250Y-47625D02*
X340361Y-47625D01*
X340361Y-42958D01*
G54D12*
X344806Y-47625D02*
X344806Y-42958D01*
G54D12*
X343694Y-40514D02*
X340361Y-37181D01*
X349250Y-37181D01*
G54D12*
X349250Y-136525D02*
X340361Y-136525D01*
X340361Y-131858D01*
G54D12*
X344806Y-136525D02*
X344806Y-131858D01*
G54D12*
X349250Y-124081D02*
X349250Y-129414D01*
X348694Y-129414D01*
X347583Y-128747D01*
X344250Y-124747D01*
X343139Y-124081D01*
X342028Y-124081D01*
X340917Y-124747D01*
X340361Y-126081D01*
X340361Y-127414D01*
X340917Y-128747D01*
X342028Y-129414D01*
G54D12*
X292100Y-13336D02*
X295433Y-22225D01*
X298767Y-13336D01*
G54D12*
X301211Y-22225D02*
X301211Y-13336D01*
X305878Y-13336D01*
G54D12*
X301211Y-17781D02*
X305878Y-17781D01*
G54D12*
X308322Y-16669D02*
X311655Y-13336D01*
X311655Y-22225D01*
G54D12*
X295275Y-64136D02*
X298608Y-73025D01*
X301942Y-64136D01*
G54D12*
X304386Y-73025D02*
X304386Y-64136D01*
X309053Y-64136D01*
G54D12*
X304386Y-68581D02*
X309053Y-68581D01*
G54D12*
X316830Y-73025D02*
X311497Y-73025D01*
X311497Y-72469D01*
X312164Y-71358D01*
X316164Y-68025D01*
X316830Y-66914D01*
X316830Y-65803D01*
X316164Y-64692D01*
X314830Y-64136D01*
X313497Y-64136D01*
X312164Y-64692D01*
X311497Y-65803D01*
G54D12*
X227583Y-19050D02*
X222250Y-19050D01*
X222250Y-18494D01*
X222917Y-17383D01*
X226917Y-14050D01*
X227583Y-12939D01*
X227583Y-11828D01*
X226917Y-10717D01*
X225583Y-10161D01*
X224250Y-10161D01*
X222917Y-10717D01*
X222250Y-11828D01*
G54D12*
X234027Y-19050D02*
X234027Y-10161D01*
X230027Y-15717D01*
X230027Y-16828D01*
X235360Y-16828D01*
G54D12*
X237804Y-10161D02*
X241137Y-19050D01*
X244471Y-10161D01*
G54D12*
X249492Y-15161D02*
X254825Y-15161D01*
G54D12*
X259846Y-13494D02*
X263179Y-10161D01*
X263179Y-19050D01*
G54D12*
X270956Y-19050D02*
X265623Y-19050D01*
X265623Y-18494D01*
X266290Y-17383D01*
X270290Y-14050D01*
X270956Y-12939D01*
X270956Y-11828D01*
X270290Y-10717D01*
X268956Y-10161D01*
X267623Y-10161D01*
X266290Y-10717D01*
X265623Y-11828D01*
G54D12*
X273400Y-10161D02*
X276733Y-19050D01*
X280067Y-10161D01*
G54D12*
X151383Y-254000D02*
X146050Y-254000D01*
X146050Y-253444D01*
X146717Y-252333D01*
X150717Y-249000D01*
X151383Y-247889D01*
X151383Y-246778D01*
X150717Y-245667D01*
X149383Y-245111D01*
X148050Y-245111D01*
X146717Y-245667D01*
X146050Y-246778D01*
G54D12*
X157827Y-254000D02*
X157827Y-245111D01*
X153827Y-250667D01*
X153827Y-251778D01*
X159160Y-251778D01*
G54D12*
X169425Y-249556D02*
X172091Y-249556D01*
X172091Y-252333D01*
X171425Y-253444D01*
X170091Y-254000D01*
X168758Y-254000D01*
X167425Y-253444D01*
X166758Y-252333D01*
X166758Y-246778D01*
X167425Y-245667D01*
X168758Y-245111D01*
X170091Y-245111D01*
X171425Y-245667D01*
X172091Y-246778D01*
G54D12*
X174535Y-254000D02*
X174535Y-245111D01*
X179868Y-254000D01*
X179868Y-245111D01*
G54D12*
X182312Y-254000D02*
X182312Y-245111D01*
X185645Y-245111D01*
X186979Y-245667D01*
X187645Y-246778D01*
X187645Y-252333D01*
X186979Y-253444D01*
X185645Y-254000D01*
X182312Y-254000D01*
G54D12*
X192666Y-248444D02*
X195999Y-245111D01*
X195999Y-254000D01*
G54D12*
X203776Y-254000D02*
X198443Y-254000D01*
X198443Y-253444D01*
X199110Y-252333D01*
X203110Y-249000D01*
X203776Y-247889D01*
X203776Y-246778D01*
X203110Y-245667D01*
X201776Y-245111D01*
X200443Y-245111D01*
X199110Y-245667D01*
X198443Y-246778D01*
G54D12*
X353061Y-9525D02*
X361950Y-6192D01*
X353061Y-2858D01*
G54D12*
X353061Y-98425D02*
X361950Y-95092D01*
X353061Y-91758D01*
G54D12*
X357506Y-165608D02*
X357506Y-162942D01*
X360283Y-162942D01*
X361394Y-163608D01*
X361950Y-164942D01*
X361950Y-166275D01*
X361394Y-167608D01*
X360283Y-168275D01*
X354728Y-168275D01*
X353617Y-167608D01*
X353061Y-166275D01*
X353061Y-164942D01*
X353617Y-163608D01*
X354728Y-162942D01*
G54D12*
X357506Y-76708D02*
X357506Y-74042D01*
X360283Y-74042D01*
X361394Y-74708D01*
X361950Y-76042D01*
X361950Y-77375D01*
X361394Y-78708D01*
X360283Y-79375D01*
X354728Y-79375D01*
X353617Y-78708D01*
X353061Y-77375D01*
X353061Y-76042D01*
X353617Y-74708D01*
X354728Y-74042D01*
G54D12*
X83264Y-73025D02*
X83264Y-78358D01*
G54D12*
X85486Y-75692D02*
X81042Y-75692D01*
G54D12*
X191214Y-327025D02*
X191214Y-332358D01*
G54D12*
X193436Y-329692D02*
X188992Y-329692D01*
G54D12*
X283289Y-327025D02*
X283289Y-332358D01*
G54D12*
X285511Y-329692D02*
X281067Y-329692D01*
G54D12*
X83264Y-3175D02*
X83264Y-8508D01*
G54D12*
X225425Y-329486D02*
X230758Y-329486D01*
G54D12*
X314325Y-329486D02*
X319658Y-329486D01*
G54D12*
X111761Y-388367D02*
X111761Y-393700D01*
X115650Y-393700D01*
X115650Y-393033D01*
X115094Y-391700D01*
X115094Y-390367D01*
X115650Y-389033D01*
X116761Y-388367D01*
X118983Y-388367D01*
X120094Y-389033D01*
X120650Y-390367D01*
X120650Y-391700D01*
X120094Y-393033D01*
X118983Y-393700D01*
G54D12*
X111761Y-385923D02*
X120650Y-382590D01*
X111761Y-379256D01*
G54D12*
X209550Y-53181D02*
X206217Y-56514D01*
X206217Y-47625D01*
G54D12*
X198440Y-47625D02*
X203773Y-47625D01*
X203773Y-48181D01*
X203106Y-49292D01*
X199106Y-52625D01*
X198440Y-53736D01*
X198440Y-54847D01*
X199106Y-55958D01*
X200440Y-56514D01*
X201773Y-56514D01*
X203106Y-55958D01*
X203773Y-54847D01*
G54D12*
X195996Y-56514D02*
X192663Y-47625D01*
X189329Y-56514D01*
G54D10*
X452550Y-88925D02*
X474550Y-88925D01*
X474550Y-126925D01*
X452550Y-126925D01*
X452550Y-88925D01*
G54D10*
X714250Y-107975D02*
X679250Y-107975D01*
X679250Y-172975D01*
X714250Y-172975D01*
X714250Y-107975D01*
G54D10*
X774256Y-21394D02*
X759156Y-21394D01*
X759156Y-48394D01*
X774256Y-48394D01*
X774256Y-21394D01*
G36*
X774256Y-21394D02*
X759156Y-21394D01*
X759156Y-28494D01*
X774256Y-28494D01*
X774256Y-21394D01*
G37*
G54D11*
X774256Y-21394D02*
X759156Y-21394D01*
X759156Y-28494D01*
X774256Y-28494D01*
X774256Y-21394D01*
G54D10*
X492150Y-109425D02*
X492150Y-87425D01*
X530150Y-87425D01*
X530150Y-109425D01*
X492150Y-109425D01*
G54D11*
X609600Y-398462D02*
X609600Y-293688D01*
X444500Y-293688D01*
X444500Y-398463D01*
X609600Y-398462D01*
G54D11*
X609600Y-384175D02*
X584200Y-384175D01*
X584200Y-307975D01*
X609600Y-307975D01*
G54D12*
X557928Y-366142D02*
X563483Y-366142D01*
X564594Y-366808D01*
X565150Y-368142D01*
X565150Y-369475D01*
X564594Y-370808D01*
X563483Y-371475D01*
X557928Y-371475D01*
X556817Y-370808D01*
X556261Y-369475D01*
X556261Y-368142D01*
X556817Y-366808D01*
X557928Y-366142D01*
G54D12*
X565150Y-363698D02*
X556261Y-363698D01*
G54D12*
X562372Y-363698D02*
X556261Y-358365D01*
G54D12*
X560706Y-361698D02*
X565150Y-358365D01*
G54D12*
X565150Y-355921D02*
X556261Y-355921D01*
G54D12*
X561261Y-353477D02*
X561261Y-348144D01*
G54D12*
X556261Y-345700D02*
X556261Y-340367D01*
X557372Y-341033D01*
X559039Y-342367D01*
X561261Y-343700D01*
X562928Y-344367D01*
X565150Y-344367D01*
G54D12*
X560706Y-334590D02*
X560706Y-335923D01*
X560150Y-337256D01*
X559039Y-337923D01*
X557928Y-337923D01*
X556817Y-337256D01*
X556261Y-335923D01*
X556261Y-334590D01*
X556817Y-333256D01*
X557928Y-332590D01*
X559039Y-332590D01*
X560150Y-333256D01*
X560706Y-334590D01*
X561261Y-333256D01*
X562372Y-332590D01*
X563483Y-332590D01*
X564594Y-333256D01*
X565150Y-334590D01*
X565150Y-335923D01*
X564594Y-337256D01*
X563483Y-337923D01*
X562372Y-337923D01*
X561261Y-337256D01*
X560706Y-335923D01*
G54D12*
X563483Y-330146D02*
X564594Y-329479D01*
X565150Y-328146D01*
X565150Y-326813D01*
X564594Y-325479D01*
X563483Y-324813D01*
X562372Y-324813D01*
X561261Y-325479D01*
X560705Y-326813D01*
X560705Y-328146D01*
X560150Y-329479D01*
X559039Y-330146D01*
X557928Y-330146D01*
X556817Y-329479D01*
X556261Y-328146D01*
X556261Y-326813D01*
X556817Y-325479D01*
X557928Y-324813D01*
G54D12*
X560706Y-319702D02*
X561817Y-317702D01*
X562928Y-317036D01*
X565150Y-317036D01*
G54D12*
X565150Y-322369D02*
X556261Y-322369D01*
X556261Y-319036D01*
X556817Y-317702D01*
X557928Y-317036D01*
X559039Y-317036D01*
X560150Y-317702D01*
X560705Y-319036D01*
X560706Y-322369D01*
G54D12*
X570628Y-366538D02*
X576183Y-366539D01*
X577294Y-367205D01*
X577850Y-368538D01*
X577850Y-369872D01*
X577294Y-371205D01*
X576183Y-371872D01*
X570628Y-371872D01*
X569517Y-371205D01*
X568961Y-369872D01*
X568961Y-368538D01*
X569517Y-367205D01*
X570628Y-366538D01*
G54D12*
X573405Y-343408D02*
X573405Y-340742D01*
X576183Y-340742D01*
X577294Y-341408D01*
X577850Y-342742D01*
X577850Y-344075D01*
X577294Y-345408D01*
X576183Y-346075D01*
X570628Y-346075D01*
X569517Y-345408D01*
X568961Y-344075D01*
X568961Y-342742D01*
X569517Y-341408D01*
X570628Y-340742D01*
G54D12*
X577850Y-320675D02*
X568961Y-320675D01*
G54D11*
X571500Y-238124D02*
X571500Y-177799D01*
G54D11*
X571500Y-238124D02*
X673100Y-238124D01*
X673100Y-177799D01*
X571500Y-177799D01*
G54D11*
X596900Y-238124D02*
X596900Y-231774D01*
X647700Y-231774D01*
X647700Y-238124D01*
G54D11*
X812800Y-390525D02*
X812800Y-396875D01*
X885825Y-396875D01*
X885825Y-295275D01*
X812800Y-295275D01*
X812800Y-301625D01*
X835025Y-301625D01*
X835025Y-390525D01*
X812800Y-390525D01*
G54D11*
X885825Y-371475D02*
X879475Y-371475D01*
X879475Y-320675D01*
X885825Y-320675D01*
G54D11*
X835025Y-320675D02*
X828675Y-320675D01*
G54D11*
X828675Y-346075D02*
X835025Y-346075D01*
G54D11*
X828675Y-371475D02*
X835025Y-371475D01*
G54D11*
X812800Y-276225D02*
X812800Y-282575D01*
X885825Y-282575D01*
X885825Y-180975D01*
X812800Y-180975D01*
X812800Y-187325D01*
X835025Y-187325D01*
X835025Y-276225D01*
X812800Y-276225D01*
G54D11*
X885825Y-257175D02*
X879475Y-257175D01*
X879475Y-206375D01*
X885825Y-206375D01*
G54D11*
X835025Y-206375D02*
X828675Y-206375D01*
G54D11*
X828675Y-231775D02*
X835025Y-231775D01*
G54D11*
X828675Y-257175D02*
X835025Y-257175D01*
G54D10*
X669925Y-307975D02*
X720725Y-307975D01*
X720725Y-257175D01*
X669925Y-257175D01*
X669925Y-307975D01*
G54D10*
X682625Y-307975D02*
X708025Y-307975D01*
X708025Y-295275D01*
X682625Y-295275D01*
X682625Y-307975D01*
G54D12*
X800167Y-392225D02*
X809056Y-388892D01*
X800167Y-385559D01*
G54D12*
X805545Y-303148D02*
X806656Y-302481D01*
X807212Y-301148D01*
X807212Y-299814D01*
X806656Y-298481D01*
X805545Y-297814D01*
X804434Y-297814D01*
X803323Y-298481D01*
X802767Y-299814D01*
X802767Y-301148D01*
X802212Y-302481D01*
X801100Y-303148D01*
X799989Y-303148D01*
X798878Y-302481D01*
X798323Y-301148D01*
X798323Y-299814D01*
X798878Y-298481D01*
X799989Y-297814D01*
G54D12*
X800167Y-280975D02*
X809056Y-277642D01*
X800167Y-274309D01*
G54D12*
X805545Y-191898D02*
X806656Y-191231D01*
X807212Y-189898D01*
X807212Y-188564D01*
X806656Y-187231D01*
X805545Y-186564D01*
X804434Y-186564D01*
X803323Y-187231D01*
X802767Y-188564D01*
X802767Y-189898D01*
X802212Y-191231D01*
X801100Y-191898D01*
X799989Y-191898D01*
X798878Y-191231D01*
X798323Y-189898D01*
X798323Y-188564D01*
X798878Y-187231D01*
X799989Y-186564D01*
G54D10*
X754175Y-266725D02*
X776175Y-266725D01*
X776175Y-304725D01*
X754175Y-304725D01*
X754175Y-266725D01*
G54D11*
X704850Y-339725D02*
X704850Y-400050D01*
G54D11*
X781050Y-339725D02*
X781050Y-400050D01*
X704850Y-400050D01*
G54D11*
X704850Y-339725D02*
X781050Y-339725D01*
G54D11*
X730250Y-339725D02*
X730250Y-346075D01*
X755650Y-346075D01*
X755650Y-339725D01*
G54D11*
X520700Y-3175D02*
X447675Y-3175D01*
X447675Y-79375D01*
X520700Y-79375D01*
X520700Y-73025D01*
X498475Y-73025D01*
X498475Y-9525D01*
X520700Y-9525D01*
X520700Y-3175D01*
G54D11*
X503238Y-28575D02*
X498475Y-28575D01*
G54D11*
X503238Y-53975D02*
X498475Y-53975D01*
G54D11*
X447675Y-53975D02*
X454025Y-53975D01*
X454025Y-28575D01*
X447675Y-28575D01*
G54D11*
X812800Y-79375D02*
X885825Y-79375D01*
X885825Y-3175D01*
X812800Y-3175D01*
X812800Y-9525D01*
X835025Y-9525D01*
X835025Y-73025D01*
X812800Y-73025D01*
X812800Y-79375D01*
G54D11*
X830262Y-53975D02*
X835025Y-53975D01*
G54D11*
X830262Y-28575D02*
X835025Y-28575D01*
G54D11*
X885825Y-28575D02*
X879475Y-28575D01*
X879475Y-53975D01*
X885825Y-53975D01*
G54D11*
X812800Y-168275D02*
X885825Y-168275D01*
X885825Y-92075D01*
X812800Y-92075D01*
X812800Y-98425D01*
X835025Y-98425D01*
X835025Y-161925D01*
X812800Y-161925D01*
X812800Y-168275D01*
G54D11*
X830262Y-142875D02*
X835025Y-142875D01*
G54D11*
X830262Y-117475D02*
X835025Y-117475D01*
G54D11*
X885825Y-117475D02*
X879475Y-117475D01*
X879475Y-142875D01*
X885825Y-142875D01*
G54D11*
X655638Y-3175D02*
X550863Y-3175D01*
X550863Y-168275D01*
X655638Y-168275D01*
X655638Y-3175D01*
G54D11*
X641350Y-3175D02*
X641350Y-28575D01*
X565150Y-28575D01*
X565150Y-3175D01*
G54D12*
X623317Y-54847D02*
X623317Y-49292D01*
X623983Y-48180D01*
X625317Y-47625D01*
X626650Y-47625D01*
X627983Y-48180D01*
X628650Y-49292D01*
X628650Y-54847D01*
X627983Y-55958D01*
X626650Y-56514D01*
X625317Y-56514D01*
X623983Y-55958D01*
X623317Y-54847D01*
G54D12*
X620873Y-47625D02*
X620873Y-56514D01*
G54D12*
X620873Y-50403D02*
X615540Y-56514D01*
G54D12*
X618873Y-52070D02*
X615540Y-47625D01*
G54D12*
X613096Y-47625D02*
X613096Y-56514D01*
G54D12*
X610652Y-51514D02*
X605319Y-51514D01*
G54D12*
X602875Y-56514D02*
X597542Y-56514D01*
X598208Y-55403D01*
X599542Y-53736D01*
X600875Y-51514D01*
X601542Y-49847D01*
X601542Y-47625D01*
G54D12*
X591765Y-52070D02*
X593098Y-52070D01*
X594431Y-52625D01*
X595098Y-53736D01*
X595098Y-54847D01*
X594431Y-55958D01*
X593098Y-56514D01*
X591765Y-56514D01*
X590431Y-55958D01*
X589765Y-54847D01*
X589765Y-53736D01*
X590431Y-52625D01*
X591765Y-52070D01*
X590431Y-51514D01*
X589765Y-50403D01*
X589765Y-49292D01*
X590431Y-48180D01*
X591765Y-47625D01*
X593098Y-47625D01*
X594431Y-48180D01*
X595098Y-49292D01*
X595098Y-50403D01*
X594431Y-51514D01*
X593098Y-52070D01*
G54D12*
X587321Y-49292D02*
X586654Y-48181D01*
X585321Y-47625D01*
X583988Y-47625D01*
X582654Y-48180D01*
X581988Y-49292D01*
X581988Y-50403D01*
X582654Y-51514D01*
X583988Y-52070D01*
X585321Y-52070D01*
X586654Y-52625D01*
X587321Y-53736D01*
X587321Y-54847D01*
X586654Y-55958D01*
X585321Y-56514D01*
X583988Y-56514D01*
X582654Y-55958D01*
X581988Y-54847D01*
G54D12*
X576877Y-52070D02*
X574877Y-50958D01*
X574211Y-49847D01*
X574211Y-47625D01*
G54D12*
X579544Y-47625D02*
X579544Y-56514D01*
X576211Y-56514D01*
X574877Y-55958D01*
X574211Y-54847D01*
X574211Y-53736D01*
X574877Y-52625D01*
X576211Y-52070D01*
X579544Y-52070D01*
G54D12*
X623714Y-42147D02*
X623714Y-36592D01*
X624380Y-35480D01*
X625714Y-34925D01*
X627047Y-34925D01*
X628380Y-35480D01*
X629047Y-36592D01*
X629047Y-42147D01*
X628380Y-43258D01*
X627047Y-43814D01*
X625714Y-43814D01*
X624380Y-43258D01*
X623714Y-42147D01*
G54D12*
X600583Y-39370D02*
X597917Y-39370D01*
X597917Y-36592D01*
X598583Y-35480D01*
X599917Y-34925D01*
X601250Y-34925D01*
X602583Y-35480D01*
X603250Y-36592D01*
X603250Y-42147D01*
X602583Y-43258D01*
X601250Y-43814D01*
X599917Y-43814D01*
X598583Y-43258D01*
X597917Y-42147D01*
G54D12*
X577850Y-34925D02*
X577850Y-43814D01*
G54D11*
X615950Y-339725D02*
X615950Y-400050D01*
G54D11*
X692150Y-339725D02*
X692150Y-400050D01*
X615950Y-400050D01*
G54D11*
X615950Y-339725D02*
X692150Y-339725D01*
G54D11*
X641350Y-339725D02*
X641350Y-346075D01*
X666750Y-346075D01*
X666750Y-339725D01*
G54D10*
X492150Y-147525D02*
X492150Y-125525D01*
X530150Y-125525D01*
X530150Y-147525D01*
X492150Y-147525D01*
G54D10*
X761556Y-122994D02*
X746456Y-122994D01*
X746456Y-149994D01*
X761556Y-149994D01*
X761556Y-122994D01*
G36*
X761556Y-122994D02*
X746456Y-122994D01*
X746456Y-130094D01*
X761556Y-130094D01*
X761556Y-122994D01*
G37*
G54D11*
X761556Y-122994D02*
X746456Y-122994D01*
X746456Y-130094D01*
X761556Y-130094D01*
X761556Y-122994D01*
G54D11*
X520700Y-282575D02*
X447675Y-282575D01*
X447675Y-155575D01*
X520700Y-155575D01*
X520700Y-161925D01*
X498475Y-161925D01*
X498475Y-276225D01*
X520700Y-276225D01*
X520700Y-282575D01*
G54D11*
X447675Y-180975D02*
X454025Y-180975D01*
X454025Y-257175D01*
X447675Y-257175D01*
G54D10*
X708050Y-193800D02*
X708050Y-228800D01*
X773050Y-228800D01*
X773050Y-193800D01*
X708050Y-193800D01*
G54D10*
X677950Y-209600D02*
X699950Y-209600D01*
X699950Y-247600D01*
X677950Y-247600D01*
X677950Y-209600D01*
G36*
X541994Y-24470D02*
X548344Y-18120D01*
X541994Y-11770D01*
X541994Y-24470D01*
G37*
G54D12*
X540115Y-32021D02*
X549004Y-32021D01*
X549004Y-35354D01*
X548448Y-36688D01*
X547337Y-37354D01*
X546226Y-37354D01*
X545115Y-36688D01*
X544559Y-35354D01*
X544559Y-32021D01*
G54D12*
X549004Y-39798D02*
X540115Y-39798D01*
X545670Y-43131D01*
X540115Y-46465D01*
X549004Y-46465D01*
G54D12*
X544559Y-51576D02*
X543448Y-53576D01*
X542337Y-54242D01*
X540115Y-54242D01*
G54D12*
X540115Y-48909D02*
X549004Y-48909D01*
X549004Y-52242D01*
X548448Y-53576D01*
X547337Y-54242D01*
X546226Y-54242D01*
X545115Y-53576D01*
X544559Y-52242D01*
X544559Y-48909D01*
G54D12*
X540115Y-59263D02*
X549004Y-59263D01*
G54D12*
X540115Y-61707D02*
X549004Y-61707D01*
X540115Y-67040D01*
X549004Y-67040D01*
G36*
X541994Y-170520D02*
X548344Y-164170D01*
X541994Y-157820D01*
X541994Y-170520D01*
G37*
G54D12*
X542925Y-187325D02*
X542925Y-178436D01*
X547592Y-178436D01*
G54D12*
X542925Y-182881D02*
X547592Y-182881D01*
G54D12*
X550036Y-181769D02*
X553369Y-178436D01*
X553369Y-187325D01*
G54D12*
X542925Y-212725D02*
X542925Y-203836D01*
X547592Y-203836D01*
G54D12*
X542925Y-208280D02*
X547592Y-208280D01*
G54D12*
X555369Y-212725D02*
X550036Y-212725D01*
X550036Y-212170D01*
X550703Y-211058D01*
X554703Y-207725D01*
X555369Y-206614D01*
X555369Y-205503D01*
X554703Y-204392D01*
X553369Y-203836D01*
X552036Y-203836D01*
X550703Y-204392D01*
X550036Y-205503D01*
G54D12*
X542925Y-238125D02*
X542925Y-229236D01*
X548258Y-238125D01*
X548258Y-229236D01*
G54D12*
X555369Y-238125D02*
X550702Y-238125D01*
X550702Y-229236D01*
X555369Y-229236D01*
G54D12*
X550702Y-233680D02*
X555369Y-233680D01*
G54D12*
X563146Y-230903D02*
X563146Y-236458D01*
X562480Y-237570D01*
X561146Y-238125D01*
X559813Y-238125D01*
X558480Y-237570D01*
X557813Y-236458D01*
X557813Y-230903D01*
X558480Y-229792D01*
X559813Y-229236D01*
X561146Y-229236D01*
X562480Y-229792D01*
X563146Y-230903D01*
G54D12*
X542925Y-263525D02*
X542925Y-254636D01*
X546258Y-254636D01*
X547592Y-255192D01*
X548258Y-256303D01*
X548258Y-257414D01*
X547592Y-258525D01*
X546258Y-259080D01*
X542925Y-259080D01*
G54D12*
X553369Y-259080D02*
X555369Y-260192D01*
X556035Y-261303D01*
X556035Y-263525D01*
G54D12*
X550702Y-263525D02*
X550702Y-254636D01*
X554035Y-254636D01*
X555369Y-255192D01*
X556035Y-256303D01*
X556035Y-257414D01*
X555369Y-258525D01*
X554035Y-259080D01*
X550702Y-259080D01*
G54D12*
X563812Y-256303D02*
X563812Y-261858D01*
X563146Y-262970D01*
X561812Y-263525D01*
X560479Y-263525D01*
X559146Y-262970D01*
X558479Y-261858D01*
X558479Y-256303D01*
X559146Y-255192D01*
X560479Y-254636D01*
X561812Y-254636D01*
X563146Y-255192D01*
X563812Y-256303D01*
G54D12*
X566256Y-263525D02*
X566256Y-254636D01*
X569589Y-254636D01*
X570923Y-255192D01*
X571589Y-256303D01*
X571589Y-257414D01*
X570923Y-258525D01*
X569589Y-259080D01*
X570923Y-259636D01*
X571589Y-260747D01*
X571589Y-261858D01*
X570923Y-262970D01*
X569589Y-263525D01*
X566256Y-263525D01*
G54D12*
X566256Y-259080D02*
X569589Y-259080D01*
G54D12*
X578700Y-263525D02*
X574033Y-263525D01*
X574033Y-254636D01*
X578700Y-254636D01*
G54D12*
X574033Y-259080D02*
X578700Y-259080D01*
G54D12*
X653033Y-324486D02*
X647700Y-324486D01*
X647700Y-328375D01*
X648367Y-328375D01*
X649700Y-327820D01*
X651033Y-327820D01*
X652367Y-328375D01*
X653033Y-329486D01*
X653033Y-331708D01*
X652367Y-332820D01*
X651033Y-333375D01*
X649700Y-333375D01*
X648367Y-332820D01*
X647700Y-331708D01*
G54D12*
X655477Y-324486D02*
X658810Y-333375D01*
X662144Y-324486D01*
G54D12*
X745108Y-324486D02*
X739775Y-324486D01*
X739775Y-328375D01*
X740442Y-328375D01*
X741775Y-327820D01*
X743108Y-327820D01*
X744442Y-328375D01*
X745108Y-329486D01*
X745108Y-331708D01*
X744442Y-332820D01*
X743108Y-333375D01*
X741775Y-333375D01*
X740442Y-332820D01*
X739775Y-331708D01*
G54D12*
X747552Y-324486D02*
X750885Y-333375D01*
X754219Y-324486D01*
G54D12*
X793750Y-371475D02*
X784861Y-371475D01*
X793750Y-366142D01*
X784861Y-366142D01*
G54D12*
X793750Y-359031D02*
X793750Y-363698D01*
X784861Y-363698D01*
X784861Y-359031D01*
G54D12*
X789306Y-363698D02*
X789306Y-359031D01*
G54D12*
X786528Y-351254D02*
X792083Y-351254D01*
X793194Y-351920D01*
X793750Y-353254D01*
X793750Y-354587D01*
X793194Y-355920D01*
X792083Y-356587D01*
X786528Y-356587D01*
X785417Y-355920D01*
X784861Y-354587D01*
X784861Y-353254D01*
X785417Y-351920D01*
X786528Y-351254D01*
G54D12*
X793750Y-348810D02*
X784861Y-348810D01*
X784861Y-345477D01*
X785417Y-344143D01*
X786528Y-343477D01*
X787639Y-343477D01*
X788750Y-344143D01*
X789306Y-345477D01*
X789306Y-348810D01*
G54D12*
X793750Y-341033D02*
X784861Y-341033D01*
G54D12*
X784861Y-338589D02*
X793750Y-331922D01*
G54D12*
X793750Y-338589D02*
X784861Y-331922D01*
G54D12*
X793750Y-324811D02*
X793750Y-329478D01*
X784861Y-329478D01*
X784861Y-324811D01*
G54D12*
X789306Y-329478D02*
X789306Y-324811D01*
G54D12*
X784861Y-322367D02*
X793750Y-322367D01*
X793750Y-317700D01*
G54D12*
X793750Y-244475D02*
X784861Y-244475D01*
X784861Y-241142D01*
X785417Y-239808D01*
X786528Y-239142D01*
X787639Y-239142D01*
X788750Y-239808D01*
X789306Y-241142D01*
X789306Y-244475D01*
G54D12*
X789306Y-234031D02*
X790417Y-232031D01*
X791528Y-231365D01*
X793750Y-231365D01*
G54D12*
X793750Y-236698D02*
X784861Y-236698D01*
X784861Y-233365D01*
X785417Y-232031D01*
X786528Y-231365D01*
X787639Y-231365D01*
X788750Y-232031D01*
X789306Y-233365D01*
X789306Y-236698D01*
G54D12*
X786528Y-223588D02*
X792083Y-223588D01*
X793194Y-224254D01*
X793750Y-225588D01*
X793750Y-226921D01*
X793194Y-228254D01*
X792083Y-228921D01*
X786528Y-228921D01*
X785417Y-228254D01*
X784861Y-226921D01*
X784861Y-225588D01*
X785417Y-224254D01*
X786528Y-223588D01*
G54D12*
X793750Y-221144D02*
X784861Y-221144D01*
X784861Y-217811D01*
X785417Y-216477D01*
X786528Y-215811D01*
X787639Y-215811D01*
X788750Y-216477D01*
X789306Y-217811D01*
X789861Y-216477D01*
X790972Y-215811D01*
X792083Y-215811D01*
X793194Y-216477D01*
X793750Y-217811D01*
X793750Y-221144D01*
G54D12*
X789306Y-221144D02*
X789306Y-217811D01*
G54D12*
X793750Y-208700D02*
X793750Y-213367D01*
X784861Y-213367D01*
X784861Y-208700D01*
G54D12*
X789306Y-213367D02*
X789306Y-208700D01*
G54D12*
X793750Y-47625D02*
X784861Y-47625D01*
X784861Y-42958D01*
G54D12*
X789306Y-47625D02*
X789306Y-42958D01*
G54D12*
X788194Y-40514D02*
X784861Y-37181D01*
X793750Y-37181D01*
G54D12*
X793750Y-136525D02*
X784861Y-136525D01*
X784861Y-131858D01*
G54D12*
X789306Y-136525D02*
X789306Y-131858D01*
G54D12*
X793750Y-124081D02*
X793750Y-129414D01*
X793194Y-129414D01*
X792083Y-128747D01*
X788750Y-124747D01*
X787639Y-124081D01*
X786528Y-124081D01*
X785417Y-124747D01*
X784861Y-126081D01*
X784861Y-127414D01*
X785417Y-128747D01*
X786528Y-129414D01*
G54D12*
X736600Y-13336D02*
X739933Y-22225D01*
X743267Y-13336D01*
G54D12*
X745711Y-22225D02*
X745711Y-13336D01*
X750378Y-13336D01*
G54D12*
X745711Y-17781D02*
X750378Y-17781D01*
G54D12*
X752822Y-16669D02*
X756155Y-13336D01*
X756155Y-22225D01*
G54D12*
X739775Y-64136D02*
X743108Y-73025D01*
X746442Y-64136D01*
G54D12*
X748886Y-73025D02*
X748886Y-64136D01*
X753553Y-64136D01*
G54D12*
X748886Y-68581D02*
X753553Y-68581D01*
G54D12*
X761330Y-73025D02*
X755997Y-73025D01*
X755997Y-72469D01*
X756664Y-71358D01*
X760664Y-68025D01*
X761330Y-66914D01*
X761330Y-65803D01*
X760664Y-64692D01*
X759330Y-64136D01*
X757997Y-64136D01*
X756664Y-64692D01*
X755997Y-65803D01*
G54D12*
X672083Y-19050D02*
X666750Y-19050D01*
X666750Y-18494D01*
X667417Y-17383D01*
X671417Y-14050D01*
X672083Y-12939D01*
X672083Y-11828D01*
X671417Y-10717D01*
X670083Y-10161D01*
X668750Y-10161D01*
X667417Y-10717D01*
X666750Y-11828D01*
G54D12*
X678527Y-19050D02*
X678527Y-10161D01*
X674527Y-15717D01*
X674527Y-16828D01*
X679860Y-16828D01*
G54D12*
X682304Y-10161D02*
X685637Y-19050D01*
X688971Y-10161D01*
G54D12*
X693992Y-15161D02*
X699325Y-15161D01*
G54D12*
X704346Y-13494D02*
X707679Y-10161D01*
X707679Y-19050D01*
G54D12*
X715456Y-19050D02*
X710123Y-19050D01*
X710123Y-18494D01*
X710790Y-17383D01*
X714790Y-14050D01*
X715456Y-12939D01*
X715456Y-11828D01*
X714790Y-10717D01*
X713456Y-10161D01*
X712123Y-10161D01*
X710790Y-10717D01*
X710123Y-11828D01*
G54D12*
X717900Y-10161D02*
X721233Y-19050D01*
X724567Y-10161D01*
G54D12*
X595883Y-254000D02*
X590550Y-254000D01*
X590550Y-253444D01*
X591217Y-252333D01*
X595217Y-249000D01*
X595883Y-247889D01*
X595883Y-246778D01*
X595217Y-245667D01*
X593883Y-245111D01*
X592550Y-245111D01*
X591217Y-245667D01*
X590550Y-246778D01*
G54D12*
X602327Y-254000D02*
X602327Y-245111D01*
X598327Y-250667D01*
X598327Y-251778D01*
X603660Y-251778D01*
G54D12*
X613925Y-249556D02*
X616591Y-249556D01*
X616591Y-252333D01*
X615925Y-253444D01*
X614591Y-254000D01*
X613258Y-254000D01*
X611925Y-253444D01*
X611258Y-252333D01*
X611258Y-246778D01*
X611925Y-245667D01*
X613258Y-245111D01*
X614591Y-245111D01*
X615925Y-245667D01*
X616591Y-246778D01*
G54D12*
X619035Y-254000D02*
X619035Y-245111D01*
X624368Y-254000D01*
X624368Y-245111D01*
G54D12*
X626812Y-254000D02*
X626812Y-245111D01*
X630145Y-245111D01*
X631479Y-245667D01*
X632145Y-246778D01*
X632145Y-252333D01*
X631479Y-253444D01*
X630145Y-254000D01*
X626812Y-254000D01*
G54D12*
X637166Y-248444D02*
X640499Y-245111D01*
X640499Y-254000D01*
G54D12*
X648276Y-254000D02*
X642943Y-254000D01*
X642943Y-253444D01*
X643610Y-252333D01*
X647610Y-249000D01*
X648276Y-247889D01*
X648276Y-246778D01*
X647610Y-245667D01*
X646276Y-245111D01*
X644943Y-245111D01*
X643610Y-245667D01*
X642943Y-246778D01*
G54D12*
X797561Y-9525D02*
X806450Y-6192D01*
X797561Y-2858D01*
G54D12*
X797561Y-98425D02*
X806450Y-95092D01*
X797561Y-91758D01*
G54D12*
X802006Y-165608D02*
X802006Y-162942D01*
X804783Y-162942D01*
X805894Y-163608D01*
X806450Y-164942D01*
X806450Y-166275D01*
X805894Y-167608D01*
X804783Y-168275D01*
X799228Y-168275D01*
X798117Y-167608D01*
X797561Y-166275D01*
X797561Y-164942D01*
X798117Y-163608D01*
X799228Y-162942D01*
G54D12*
X802006Y-76708D02*
X802006Y-74042D01*
X804783Y-74042D01*
X805894Y-74708D01*
X806450Y-76042D01*
X806450Y-77375D01*
X805894Y-78708D01*
X804783Y-79375D01*
X799228Y-79375D01*
X798117Y-78708D01*
X797561Y-77375D01*
X797561Y-76042D01*
X798117Y-74708D01*
X799228Y-74042D01*
G54D12*
X527764Y-73025D02*
X527764Y-78358D01*
G54D12*
X529986Y-75692D02*
X525542Y-75692D01*
G54D12*
X635714Y-327025D02*
X635714Y-332358D01*
G54D12*
X637936Y-329692D02*
X633492Y-329692D01*
G54D12*
X727789Y-327025D02*
X727789Y-332358D01*
G54D12*
X730011Y-329692D02*
X725567Y-329692D01*
G54D12*
X527764Y-3175D02*
X527764Y-8508D01*
G54D12*
X669925Y-329486D02*
X675258Y-329486D01*
G54D12*
X758825Y-329486D02*
X764158Y-329486D01*
G54D12*
X556261Y-388367D02*
X556261Y-393700D01*
X560150Y-393700D01*
X560150Y-393033D01*
X559594Y-391700D01*
X559594Y-390367D01*
X560150Y-389033D01*
X561261Y-388367D01*
X563483Y-388367D01*
X564594Y-389033D01*
X565150Y-390367D01*
X565150Y-391700D01*
X564594Y-393033D01*
X563483Y-393700D01*
G54D12*
X556261Y-385923D02*
X565150Y-382590D01*
X556261Y-379256D01*
G54D12*
X654050Y-53181D02*
X650717Y-56514D01*
X650717Y-47625D01*
G54D12*
X642940Y-47625D02*
X648273Y-47625D01*
X648273Y-48181D01*
X647606Y-49292D01*
X643606Y-52625D01*
X642940Y-53736D01*
X642940Y-54847D01*
X643606Y-55958D01*
X644940Y-56514D01*
X646273Y-56514D01*
X647606Y-55958D01*
X648273Y-54847D01*
G54D12*
X640496Y-56514D02*
X637163Y-47625D01*
X633829Y-56514D01*
G54D10*
X8050Y-495325D02*
X30050Y-495325D01*
X30050Y-533325D01*
X8050Y-533325D01*
X8050Y-495325D01*
G54D10*
X269750Y-514375D02*
X234750Y-514375D01*
X234750Y-579375D01*
X269750Y-579375D01*
X269750Y-514375D01*
G54D10*
X329756Y-427794D02*
X314656Y-427794D01*
X314656Y-454794D01*
X329756Y-454794D01*
X329756Y-427794D01*
G36*
X329756Y-427794D02*
X314656Y-427794D01*
X314656Y-434894D01*
X329756Y-434894D01*
X329756Y-427794D01*
G37*
G54D11*
X329756Y-427794D02*
X314656Y-427794D01*
X314656Y-434894D01*
X329756Y-434894D01*
X329756Y-427794D01*
G54D10*
X47650Y-515825D02*
X47650Y-493825D01*
X85650Y-493825D01*
X85650Y-515825D01*
X47650Y-515825D01*
G54D11*
X165100Y-804862D02*
X165100Y-700088D01*
X0Y-700088D01*
X0Y-804863D01*
X165100Y-804862D01*
G54D11*
X165100Y-790575D02*
X139700Y-790575D01*
X139700Y-714375D01*
X165100Y-714375D01*
G54D12*
X113428Y-772542D02*
X118983Y-772542D01*
X120094Y-773208D01*
X120650Y-774542D01*
X120650Y-775875D01*
X120094Y-777208D01*
X118983Y-777875D01*
X113428Y-777875D01*
X112317Y-777208D01*
X111761Y-775875D01*
X111761Y-774542D01*
X112317Y-773208D01*
X113428Y-772542D01*
G54D12*
X120650Y-770098D02*
X111761Y-770098D01*
G54D12*
X117872Y-770098D02*
X111761Y-764765D01*
G54D12*
X116206Y-768098D02*
X120650Y-764765D01*
G54D12*
X120650Y-762321D02*
X111761Y-762321D01*
G54D12*
X116761Y-759877D02*
X116761Y-754544D01*
G54D12*
X111761Y-752100D02*
X111761Y-746767D01*
X112872Y-747433D01*
X114539Y-748767D01*
X116761Y-750100D01*
X118428Y-750767D01*
X120650Y-750767D01*
G54D12*
X116206Y-740990D02*
X116206Y-742323D01*
X115650Y-743656D01*
X114539Y-744323D01*
X113428Y-744323D01*
X112317Y-743656D01*
X111761Y-742323D01*
X111761Y-740990D01*
X112317Y-739656D01*
X113428Y-738990D01*
X114539Y-738990D01*
X115650Y-739656D01*
X116206Y-740990D01*
X116761Y-739656D01*
X117872Y-738990D01*
X118983Y-738990D01*
X120094Y-739656D01*
X120650Y-740990D01*
X120650Y-742323D01*
X120094Y-743656D01*
X118983Y-744323D01*
X117872Y-744323D01*
X116761Y-743656D01*
X116206Y-742323D01*
G54D12*
X118983Y-736546D02*
X120094Y-735879D01*
X120650Y-734546D01*
X120650Y-733213D01*
X120094Y-731879D01*
X118983Y-731213D01*
X117872Y-731213D01*
X116761Y-731879D01*
X116205Y-733213D01*
X116205Y-734546D01*
X115650Y-735879D01*
X114539Y-736546D01*
X113428Y-736546D01*
X112317Y-735879D01*
X111761Y-734546D01*
X111761Y-733213D01*
X112317Y-731879D01*
X113428Y-731213D01*
G54D12*
X116206Y-726102D02*
X117317Y-724102D01*
X118428Y-723436D01*
X120650Y-723436D01*
G54D12*
X120650Y-728769D02*
X111761Y-728769D01*
X111761Y-725436D01*
X112317Y-724102D01*
X113428Y-723436D01*
X114539Y-723436D01*
X115650Y-724102D01*
X116205Y-725436D01*
X116206Y-728769D01*
G54D12*
X126128Y-772938D02*
X131683Y-772939D01*
X132794Y-773605D01*
X133350Y-774938D01*
X133350Y-776272D01*
X132794Y-777605D01*
X131683Y-778272D01*
X126128Y-778272D01*
X125017Y-777605D01*
X124461Y-776272D01*
X124461Y-774938D01*
X125017Y-773605D01*
X126128Y-772938D01*
G54D12*
X128905Y-749808D02*
X128905Y-747142D01*
X131683Y-747142D01*
X132794Y-747808D01*
X133350Y-749142D01*
X133350Y-750475D01*
X132794Y-751808D01*
X131683Y-752475D01*
X126128Y-752475D01*
X125017Y-751808D01*
X124461Y-750475D01*
X124461Y-749142D01*
X125017Y-747808D01*
X126128Y-747142D01*
G54D12*
X133350Y-727075D02*
X124461Y-727075D01*
G54D11*
X127000Y-644524D02*
X127000Y-584199D01*
G54D11*
X127000Y-644524D02*
X228600Y-644524D01*
X228600Y-584199D01*
X127000Y-584199D01*
G54D11*
X152400Y-644524D02*
X152400Y-638174D01*
X203200Y-638174D01*
X203200Y-644524D01*
G54D11*
X368300Y-796925D02*
X368300Y-803275D01*
X441325Y-803275D01*
X441325Y-701675D01*
X368300Y-701675D01*
X368300Y-708025D01*
X390525Y-708025D01*
X390525Y-796925D01*
X368300Y-796925D01*
G54D11*
X441325Y-777875D02*
X434975Y-777875D01*
X434975Y-727075D01*
X441325Y-727075D01*
G54D11*
X390525Y-727075D02*
X384175Y-727075D01*
G54D11*
X384175Y-752475D02*
X390525Y-752475D01*
G54D11*
X384175Y-777875D02*
X390525Y-777875D01*
G54D11*
X368300Y-682625D02*
X368300Y-688975D01*
X441325Y-688975D01*
X441325Y-587375D01*
X368300Y-587375D01*
X368300Y-593725D01*
X390525Y-593725D01*
X390525Y-682625D01*
X368300Y-682625D01*
G54D11*
X441325Y-663575D02*
X434975Y-663575D01*
X434975Y-612775D01*
X441325Y-612775D01*
G54D11*
X390525Y-612775D02*
X384175Y-612775D01*
G54D11*
X384175Y-638175D02*
X390525Y-638175D01*
G54D11*
X384175Y-663575D02*
X390525Y-663575D01*
G54D10*
X225425Y-714375D02*
X276225Y-714375D01*
X276225Y-663575D01*
X225425Y-663575D01*
X225425Y-714375D01*
G54D10*
X238125Y-714375D02*
X263525Y-714375D01*
X263525Y-701675D01*
X238125Y-701675D01*
X238125Y-714375D01*
G54D12*
X355667Y-798625D02*
X364556Y-795292D01*
X355667Y-791959D01*
G54D12*
X361045Y-709548D02*
X362156Y-708881D01*
X362712Y-707548D01*
X362712Y-706214D01*
X362156Y-704881D01*
X361045Y-704214D01*
X359934Y-704214D01*
X358823Y-704881D01*
X358267Y-706214D01*
X358267Y-707548D01*
X357712Y-708881D01*
X356600Y-709548D01*
X355489Y-709548D01*
X354378Y-708881D01*
X353823Y-707548D01*
X353823Y-706214D01*
X354378Y-704881D01*
X355489Y-704214D01*
G54D12*
X355667Y-687375D02*
X364556Y-684042D01*
X355667Y-680709D01*
G54D12*
X361045Y-598298D02*
X362156Y-597631D01*
X362712Y-596298D01*
X362712Y-594964D01*
X362156Y-593631D01*
X361045Y-592964D01*
X359934Y-592964D01*
X358823Y-593631D01*
X358267Y-594964D01*
X358267Y-596298D01*
X357712Y-597631D01*
X356600Y-598298D01*
X355489Y-598298D01*
X354378Y-597631D01*
X353823Y-596298D01*
X353823Y-594964D01*
X354378Y-593631D01*
X355489Y-592964D01*
G54D10*
X309675Y-673125D02*
X331675Y-673125D01*
X331675Y-711125D01*
X309675Y-711125D01*
X309675Y-673125D01*
G54D11*
X260350Y-746125D02*
X260350Y-806450D01*
G54D11*
X336550Y-746125D02*
X336550Y-806450D01*
X260350Y-806450D01*
G54D11*
X260350Y-746125D02*
X336550Y-746125D01*
G54D11*
X285750Y-746125D02*
X285750Y-752475D01*
X311150Y-752475D01*
X311150Y-746125D01*
G54D11*
X76200Y-409575D02*
X3175Y-409575D01*
X3175Y-485775D01*
X76200Y-485775D01*
X76200Y-479425D01*
X53975Y-479425D01*
X53975Y-415925D01*
X76200Y-415925D01*
X76200Y-409575D01*
G54D11*
X58738Y-434975D02*
X53975Y-434975D01*
G54D11*
X58738Y-460375D02*
X53975Y-460375D01*
G54D11*
X3175Y-460375D02*
X9525Y-460375D01*
X9525Y-434975D01*
X3175Y-434975D01*
G54D11*
X368300Y-485775D02*
X441325Y-485775D01*
X441325Y-409575D01*
X368300Y-409575D01*
X368300Y-415925D01*
X390525Y-415925D01*
X390525Y-479425D01*
X368300Y-479425D01*
X368300Y-485775D01*
G54D11*
X385762Y-460375D02*
X390525Y-460375D01*
G54D11*
X385762Y-434975D02*
X390525Y-434975D01*
G54D11*
X441325Y-434975D02*
X434975Y-434975D01*
X434975Y-460375D01*
X441325Y-460375D01*
G54D11*
X368300Y-574675D02*
X441325Y-574675D01*
X441325Y-498475D01*
X368300Y-498475D01*
X368300Y-504825D01*
X390525Y-504825D01*
X390525Y-568325D01*
X368300Y-568325D01*
X368300Y-574675D01*
G54D11*
X385762Y-549275D02*
X390525Y-549275D01*
G54D11*
X385762Y-523875D02*
X390525Y-523875D01*
G54D11*
X441325Y-523875D02*
X434975Y-523875D01*
X434975Y-549275D01*
X441325Y-549275D01*
G54D11*
X211137Y-409575D02*
X106363Y-409575D01*
X106363Y-574675D01*
X211138Y-574675D01*
X211137Y-409575D01*
G54D11*
X196850Y-409575D02*
X196850Y-434975D01*
X120650Y-434975D01*
X120650Y-409575D01*
G54D12*
X178817Y-461247D02*
X178817Y-455692D01*
X179483Y-454580D01*
X180817Y-454025D01*
X182150Y-454025D01*
X183483Y-454580D01*
X184150Y-455692D01*
X184150Y-461247D01*
X183483Y-462358D01*
X182150Y-462914D01*
X180817Y-462914D01*
X179483Y-462358D01*
X178817Y-461247D01*
G54D12*
X176373Y-454025D02*
X176373Y-462914D01*
G54D12*
X176373Y-456803D02*
X171040Y-462914D01*
G54D12*
X174373Y-458470D02*
X171040Y-454025D01*
G54D12*
X168596Y-454025D02*
X168596Y-462914D01*
G54D12*
X166152Y-457914D02*
X160819Y-457914D01*
G54D12*
X158375Y-462914D02*
X153042Y-462914D01*
X153708Y-461803D01*
X155042Y-460136D01*
X156375Y-457914D01*
X157042Y-456247D01*
X157042Y-454025D01*
G54D12*
X147265Y-458470D02*
X148598Y-458470D01*
X149931Y-459025D01*
X150598Y-460136D01*
X150598Y-461247D01*
X149931Y-462358D01*
X148598Y-462914D01*
X147265Y-462914D01*
X145931Y-462358D01*
X145265Y-461247D01*
X145265Y-460136D01*
X145931Y-459025D01*
X147265Y-458470D01*
X145931Y-457914D01*
X145265Y-456803D01*
X145265Y-455692D01*
X145931Y-454580D01*
X147265Y-454025D01*
X148598Y-454025D01*
X149931Y-454580D01*
X150598Y-455692D01*
X150598Y-456803D01*
X149931Y-457914D01*
X148598Y-458470D01*
G54D12*
X142821Y-455692D02*
X142154Y-454580D01*
X140821Y-454025D01*
X139488Y-454025D01*
X138154Y-454580D01*
X137488Y-455692D01*
X137488Y-456803D01*
X138154Y-457914D01*
X139488Y-458470D01*
X140821Y-458470D01*
X142154Y-459025D01*
X142821Y-460136D01*
X142821Y-461247D01*
X142154Y-462358D01*
X140821Y-462914D01*
X139488Y-462914D01*
X138154Y-462358D01*
X137488Y-461247D01*
G54D12*
X132377Y-458470D02*
X130377Y-457358D01*
X129711Y-456247D01*
X129711Y-454025D01*
G54D12*
X135044Y-454025D02*
X135044Y-462914D01*
X131711Y-462914D01*
X130377Y-462358D01*
X129711Y-461247D01*
X129711Y-460136D01*
X130377Y-459025D01*
X131711Y-458470D01*
X135044Y-458470D01*
G54D12*
X179213Y-448547D02*
X179214Y-442992D01*
X179880Y-441880D01*
X181213Y-441325D01*
X182547Y-441325D01*
X183880Y-441880D01*
X184547Y-442992D01*
X184547Y-448547D01*
X183880Y-449658D01*
X182547Y-450214D01*
X181213Y-450214D01*
X179880Y-449658D01*
X179213Y-448547D01*
G54D12*
X156083Y-445770D02*
X153417Y-445770D01*
X153417Y-442992D01*
X154083Y-441880D01*
X155417Y-441325D01*
X156750Y-441325D01*
X158083Y-441880D01*
X158750Y-442992D01*
X158750Y-448547D01*
X158083Y-449658D01*
X156750Y-450214D01*
X155417Y-450214D01*
X154083Y-449658D01*
X153417Y-448547D01*
G54D12*
X133350Y-441325D02*
X133350Y-450214D01*
G54D11*
X171450Y-746125D02*
X171450Y-806450D01*
G54D11*
X247650Y-746125D02*
X247650Y-806450D01*
X171450Y-806450D01*
G54D11*
X171450Y-746125D02*
X247650Y-746125D01*
G54D11*
X196850Y-746125D02*
X196850Y-752475D01*
X222250Y-752475D01*
X222250Y-746125D01*
G54D10*
X47650Y-553925D02*
X47650Y-531925D01*
X85650Y-531925D01*
X85650Y-553925D01*
X47650Y-553925D01*
G54D10*
X317056Y-529394D02*
X301956Y-529394D01*
X301956Y-556394D01*
X317056Y-556394D01*
X317056Y-529394D01*
G36*
X317056Y-529394D02*
X301956Y-529394D01*
X301956Y-536494D01*
X317056Y-536494D01*
X317056Y-529394D01*
G37*
G54D11*
X317056Y-529394D02*
X301956Y-529394D01*
X301956Y-536494D01*
X317056Y-536494D01*
X317056Y-529394D01*
G54D11*
X76200Y-688975D02*
X3175Y-688975D01*
X3175Y-561975D01*
X76200Y-561975D01*
X76200Y-568325D01*
X53975Y-568325D01*
X53975Y-682625D01*
X76200Y-682625D01*
X76200Y-688975D01*
G54D11*
X3175Y-587375D02*
X9525Y-587375D01*
X9525Y-663575D01*
X3175Y-663575D01*
G54D10*
X263550Y-600200D02*
X263550Y-635200D01*
X328550Y-635200D01*
X328550Y-600200D01*
X263550Y-600200D01*
G54D10*
X233450Y-616000D02*
X255450Y-616000D01*
X255450Y-654000D01*
X233450Y-654000D01*
X233450Y-616000D01*
G36*
X97494Y-430870D02*
X103844Y-424520D01*
X97494Y-418170D01*
X97494Y-430870D01*
G37*
G54D12*
X95615Y-438421D02*
X104504Y-438421D01*
X104504Y-441754D01*
X103948Y-443088D01*
X102837Y-443754D01*
X101726Y-443754D01*
X100615Y-443088D01*
X100059Y-441754D01*
X100059Y-438421D01*
G54D12*
X104504Y-446198D02*
X95615Y-446198D01*
X101170Y-449531D01*
X95615Y-452865D01*
X104504Y-452865D01*
G54D12*
X100059Y-457976D02*
X98948Y-459976D01*
X97837Y-460642D01*
X95615Y-460642D01*
G54D12*
X95615Y-455309D02*
X104504Y-455309D01*
X104504Y-458642D01*
X103948Y-459976D01*
X102837Y-460642D01*
X101726Y-460642D01*
X100615Y-459976D01*
X100059Y-458642D01*
X100059Y-455309D01*
G54D12*
X95615Y-465663D02*
X104504Y-465663D01*
G54D12*
X95615Y-468107D02*
X104504Y-468107D01*
X95615Y-473440D01*
X104504Y-473440D01*
G36*
X97494Y-576920D02*
X103844Y-570570D01*
X97494Y-564220D01*
X97494Y-576920D01*
G37*
G54D12*
X98425Y-593725D02*
X98425Y-584836D01*
X103092Y-584836D01*
G54D12*
X98425Y-589280D02*
X103092Y-589280D01*
G54D12*
X105536Y-588170D02*
X108869Y-584836D01*
X108869Y-593725D01*
G54D12*
X98425Y-619125D02*
X98425Y-610236D01*
X103092Y-610236D01*
G54D12*
X98425Y-614680D02*
X103092Y-614680D01*
G54D12*
X110869Y-619125D02*
X105536Y-619125D01*
X105536Y-618570D01*
X106203Y-617458D01*
X110203Y-614125D01*
X110869Y-613014D01*
X110869Y-611903D01*
X110203Y-610792D01*
X108869Y-610236D01*
X107536Y-610236D01*
X106203Y-610792D01*
X105536Y-611903D01*
G54D12*
X98425Y-644525D02*
X98425Y-635636D01*
X103758Y-644525D01*
X103758Y-635636D01*
G54D12*
X110869Y-644525D02*
X106202Y-644525D01*
X106202Y-635636D01*
X110869Y-635636D01*
G54D12*
X106202Y-640080D02*
X110869Y-640080D01*
G54D12*
X118646Y-637303D02*
X118646Y-642858D01*
X117980Y-643970D01*
X116646Y-644525D01*
X115313Y-644525D01*
X113980Y-643970D01*
X113313Y-642858D01*
X113313Y-637303D01*
X113980Y-636192D01*
X115313Y-635636D01*
X116646Y-635636D01*
X117980Y-636192D01*
X118646Y-637303D01*
G54D12*
X98425Y-669925D02*
X98425Y-661036D01*
X101758Y-661036D01*
X103092Y-661592D01*
X103758Y-662703D01*
X103758Y-663814D01*
X103092Y-664925D01*
X101758Y-665480D01*
X98425Y-665480D01*
G54D12*
X108869Y-665480D02*
X110869Y-666592D01*
X111535Y-667703D01*
X111535Y-669925D01*
G54D12*
X106202Y-669925D02*
X106202Y-661036D01*
X109535Y-661036D01*
X110869Y-661592D01*
X111535Y-662703D01*
X111535Y-663814D01*
X110869Y-664925D01*
X109535Y-665480D01*
X106202Y-665480D01*
G54D12*
X119312Y-662703D02*
X119312Y-668258D01*
X118646Y-669370D01*
X117312Y-669925D01*
X115979Y-669925D01*
X114646Y-669370D01*
X113979Y-668258D01*
X113979Y-662703D01*
X114646Y-661592D01*
X115979Y-661036D01*
X117312Y-661036D01*
X118646Y-661592D01*
X119312Y-662703D01*
G54D12*
X121756Y-669925D02*
X121756Y-661036D01*
X125089Y-661036D01*
X126423Y-661592D01*
X127089Y-662703D01*
X127089Y-663814D01*
X126423Y-664925D01*
X125089Y-665480D01*
X126423Y-666036D01*
X127089Y-667147D01*
X127089Y-668258D01*
X126423Y-669370D01*
X125089Y-669925D01*
X121756Y-669925D01*
G54D12*
X121756Y-665480D02*
X125089Y-665480D01*
G54D12*
X134200Y-669925D02*
X129533Y-669925D01*
X129533Y-661036D01*
X134200Y-661036D01*
G54D12*
X129533Y-665480D02*
X134200Y-665480D01*
G54D12*
X208533Y-730886D02*
X203200Y-730886D01*
X203200Y-734775D01*
X203867Y-734775D01*
X205200Y-734220D01*
X206533Y-734220D01*
X207867Y-734775D01*
X208533Y-735886D01*
X208533Y-738108D01*
X207867Y-739220D01*
X206533Y-739775D01*
X205200Y-739775D01*
X203867Y-739220D01*
X203200Y-738108D01*
G54D12*
X210977Y-730886D02*
X214310Y-739775D01*
X217644Y-730886D01*
G54D12*
X300608Y-730886D02*
X295275Y-730886D01*
X295275Y-734775D01*
X295942Y-734775D01*
X297275Y-734220D01*
X298608Y-734220D01*
X299942Y-734775D01*
X300608Y-735886D01*
X300608Y-738108D01*
X299942Y-739220D01*
X298608Y-739775D01*
X297275Y-739775D01*
X295942Y-739220D01*
X295275Y-738108D01*
G54D12*
X303052Y-730886D02*
X306385Y-739775D01*
X309719Y-730886D01*
G54D12*
X349250Y-777875D02*
X340361Y-777875D01*
X349250Y-772542D01*
X340361Y-772542D01*
G54D12*
X349250Y-765431D02*
X349250Y-770098D01*
X340361Y-770098D01*
X340361Y-765431D01*
G54D12*
X344806Y-770098D02*
X344806Y-765431D01*
G54D12*
X342028Y-757654D02*
X347583Y-757654D01*
X348694Y-758320D01*
X349250Y-759654D01*
X349250Y-760987D01*
X348694Y-762320D01*
X347583Y-762987D01*
X342028Y-762987D01*
X340917Y-762320D01*
X340361Y-760987D01*
X340361Y-759654D01*
X340917Y-758320D01*
X342028Y-757654D01*
G54D12*
X349250Y-755210D02*
X340361Y-755210D01*
X340361Y-751877D01*
X340917Y-750543D01*
X342028Y-749877D01*
X343139Y-749877D01*
X344250Y-750543D01*
X344806Y-751877D01*
X344806Y-755210D01*
G54D12*
X349250Y-747433D02*
X340361Y-747433D01*
G54D12*
X340361Y-744989D02*
X349250Y-738322D01*
G54D12*
X349250Y-744989D02*
X340361Y-738322D01*
G54D12*
X349250Y-731211D02*
X349250Y-735878D01*
X340361Y-735878D01*
X340361Y-731211D01*
G54D12*
X344806Y-735878D02*
X344806Y-731211D01*
G54D12*
X340361Y-728767D02*
X349250Y-728767D01*
X349250Y-724100D01*
G54D12*
X349250Y-650875D02*
X340361Y-650875D01*
X340361Y-647542D01*
X340917Y-646208D01*
X342028Y-645542D01*
X343139Y-645542D01*
X344250Y-646208D01*
X344806Y-647542D01*
X344806Y-650875D01*
G54D12*
X344806Y-640431D02*
X345917Y-638431D01*
X347028Y-637765D01*
X349250Y-637765D01*
G54D12*
X349250Y-643098D02*
X340361Y-643098D01*
X340361Y-639765D01*
X340917Y-638431D01*
X342028Y-637765D01*
X343139Y-637765D01*
X344250Y-638431D01*
X344806Y-639765D01*
X344806Y-643098D01*
G54D12*
X342028Y-629988D02*
X347583Y-629988D01*
X348694Y-630654D01*
X349250Y-631988D01*
X349250Y-633321D01*
X348694Y-634654D01*
X347583Y-635321D01*
X342028Y-635321D01*
X340917Y-634654D01*
X340361Y-633321D01*
X340361Y-631988D01*
X340917Y-630654D01*
X342028Y-629988D01*
G54D12*
X349250Y-627544D02*
X340361Y-627544D01*
X340361Y-624211D01*
X340917Y-622877D01*
X342028Y-622211D01*
X343139Y-622211D01*
X344250Y-622877D01*
X344806Y-624211D01*
X345361Y-622877D01*
X346472Y-622211D01*
X347583Y-622211D01*
X348694Y-622877D01*
X349250Y-624211D01*
X349250Y-627544D01*
G54D12*
X344806Y-627544D02*
X344806Y-624211D01*
G54D12*
X349250Y-615100D02*
X349250Y-619767D01*
X340361Y-619767D01*
X340361Y-615100D01*
G54D12*
X344806Y-619767D02*
X344806Y-615100D01*
G54D12*
X349250Y-454025D02*
X340361Y-454025D01*
X340361Y-449358D01*
G54D12*
X344806Y-454025D02*
X344806Y-449358D01*
G54D12*
X343694Y-446914D02*
X340361Y-443581D01*
X349250Y-443581D01*
G54D12*
X349250Y-542925D02*
X340361Y-542925D01*
X340361Y-538258D01*
G54D12*
X344806Y-542925D02*
X344806Y-538258D01*
G54D12*
X349250Y-530481D02*
X349250Y-535814D01*
X348694Y-535814D01*
X347583Y-535147D01*
X344250Y-531147D01*
X343139Y-530481D01*
X342028Y-530481D01*
X340917Y-531147D01*
X340361Y-532481D01*
X340361Y-533814D01*
X340917Y-535147D01*
X342028Y-535814D01*
G54D12*
X292100Y-419736D02*
X295433Y-428625D01*
X298767Y-419736D01*
G54D12*
X301211Y-428625D02*
X301211Y-419736D01*
X305878Y-419736D01*
G54D12*
X301211Y-424180D02*
X305878Y-424180D01*
G54D12*
X308322Y-423070D02*
X311655Y-419736D01*
X311655Y-428625D01*
G54D12*
X295275Y-470536D02*
X298608Y-479425D01*
X301942Y-470536D01*
G54D12*
X304386Y-479425D02*
X304386Y-470536D01*
X309053Y-470536D01*
G54D12*
X304386Y-474980D02*
X309053Y-474980D01*
G54D12*
X316830Y-479425D02*
X311497Y-479425D01*
X311497Y-478870D01*
X312164Y-477758D01*
X316164Y-474425D01*
X316830Y-473314D01*
X316830Y-472203D01*
X316164Y-471092D01*
X314830Y-470536D01*
X313497Y-470536D01*
X312164Y-471092D01*
X311497Y-472203D01*
G54D12*
X227583Y-425450D02*
X222250Y-425450D01*
X222250Y-424894D01*
X222917Y-423783D01*
X226917Y-420450D01*
X227583Y-419339D01*
X227583Y-418228D01*
X226917Y-417117D01*
X225583Y-416561D01*
X224250Y-416561D01*
X222917Y-417117D01*
X222250Y-418228D01*
G54D12*
X234027Y-425450D02*
X234027Y-416561D01*
X230027Y-422117D01*
X230027Y-423228D01*
X235360Y-423228D01*
G54D12*
X237804Y-416561D02*
X241137Y-425450D01*
X244471Y-416561D01*
G54D12*
X249492Y-421561D02*
X254825Y-421561D01*
G54D12*
X259846Y-419894D02*
X263179Y-416561D01*
X263179Y-425450D01*
G54D12*
X270956Y-425450D02*
X265623Y-425450D01*
X265623Y-424894D01*
X266290Y-423783D01*
X270290Y-420450D01*
X270956Y-419339D01*
X270956Y-418228D01*
X270290Y-417117D01*
X268956Y-416561D01*
X267623Y-416561D01*
X266290Y-417117D01*
X265623Y-418228D01*
G54D12*
X273400Y-416561D02*
X276733Y-425450D01*
X280067Y-416561D01*
G54D12*
X151383Y-660400D02*
X146050Y-660400D01*
X146050Y-659844D01*
X146717Y-658733D01*
X150717Y-655400D01*
X151383Y-654289D01*
X151383Y-653178D01*
X150717Y-652067D01*
X149383Y-651511D01*
X148050Y-651511D01*
X146717Y-652067D01*
X146050Y-653178D01*
G54D12*
X157827Y-660400D02*
X157827Y-651511D01*
X153827Y-657067D01*
X153827Y-658178D01*
X159160Y-658178D01*
G54D12*
X169425Y-655956D02*
X172091Y-655956D01*
X172091Y-658733D01*
X171425Y-659844D01*
X170091Y-660400D01*
X168758Y-660400D01*
X167425Y-659844D01*
X166758Y-658733D01*
X166758Y-653178D01*
X167425Y-652067D01*
X168758Y-651511D01*
X170091Y-651511D01*
X171425Y-652067D01*
X172091Y-653178D01*
G54D12*
X174535Y-660400D02*
X174535Y-651511D01*
X179868Y-660400D01*
X179868Y-651511D01*
G54D12*
X182312Y-660400D02*
X182312Y-651511D01*
X185645Y-651511D01*
X186979Y-652067D01*
X187645Y-653178D01*
X187645Y-658733D01*
X186979Y-659844D01*
X185645Y-660400D01*
X182312Y-660400D01*
G54D12*
X192666Y-654844D02*
X195999Y-651511D01*
X195999Y-660400D01*
G54D12*
X203776Y-660400D02*
X198443Y-660400D01*
X198443Y-659844D01*
X199110Y-658733D01*
X203110Y-655400D01*
X203776Y-654289D01*
X203776Y-653178D01*
X203110Y-652067D01*
X201776Y-651511D01*
X200443Y-651511D01*
X199110Y-652067D01*
X198443Y-653178D01*
G54D12*
X353061Y-415925D02*
X361950Y-412592D01*
X353061Y-409258D01*
G54D12*
X353061Y-504825D02*
X361950Y-501492D01*
X353061Y-498158D01*
G54D12*
X357506Y-572008D02*
X357506Y-569342D01*
X360283Y-569342D01*
X361394Y-570008D01*
X361950Y-571342D01*
X361950Y-572675D01*
X361394Y-574008D01*
X360283Y-574675D01*
X354728Y-574675D01*
X353617Y-574008D01*
X353061Y-572675D01*
X353061Y-571342D01*
X353617Y-570008D01*
X354728Y-569342D01*
G54D12*
X357506Y-483108D02*
X357506Y-480442D01*
X360283Y-480442D01*
X361394Y-481108D01*
X361950Y-482442D01*
X361950Y-483775D01*
X361394Y-485108D01*
X360283Y-485775D01*
X354728Y-485775D01*
X353617Y-485108D01*
X353061Y-483775D01*
X353061Y-482442D01*
X353617Y-481108D01*
X354728Y-480442D01*
G54D12*
X83264Y-479425D02*
X83264Y-484758D01*
G54D12*
X85486Y-482092D02*
X81042Y-482092D01*
G54D12*
X191214Y-733425D02*
X191214Y-738758D01*
G54D12*
X193436Y-736092D02*
X188992Y-736092D01*
G54D12*
X283289Y-733425D02*
X283289Y-738758D01*
G54D12*
X285511Y-736092D02*
X281067Y-736092D01*
G54D12*
X83264Y-409575D02*
X83264Y-414908D01*
G54D12*
X225425Y-735886D02*
X230758Y-735886D01*
G54D12*
X314325Y-735886D02*
X319658Y-735886D01*
G54D12*
X111761Y-794767D02*
X111761Y-800100D01*
X115650Y-800100D01*
X115650Y-799433D01*
X115094Y-798100D01*
X115094Y-796767D01*
X115650Y-795433D01*
X116761Y-794767D01*
X118983Y-794767D01*
X120094Y-795433D01*
X120650Y-796767D01*
X120650Y-798100D01*
X120094Y-799433D01*
X118983Y-800100D01*
G54D12*
X111761Y-792323D02*
X120650Y-788990D01*
X111761Y-785656D01*
G54D12*
X209550Y-459580D02*
X206217Y-462914D01*
X206217Y-454025D01*
G54D12*
X198440Y-454025D02*
X203773Y-454025D01*
X203773Y-454580D01*
X203106Y-455692D01*
X199106Y-459025D01*
X198440Y-460136D01*
X198440Y-461247D01*
X199106Y-462358D01*
X200440Y-462914D01*
X201773Y-462914D01*
X203106Y-462358D01*
X203773Y-461247D01*
G54D12*
X195996Y-462914D02*
X192663Y-454025D01*
X189329Y-462914D01*
G54D10*
X452550Y-495325D02*
X474550Y-495325D01*
X474550Y-533325D01*
X452550Y-533325D01*
X452550Y-495325D01*
G54D10*
X714250Y-514375D02*
X679250Y-514375D01*
X679250Y-579375D01*
X714250Y-579375D01*
X714250Y-514375D01*
G54D10*
X774256Y-427794D02*
X759156Y-427794D01*
X759156Y-454794D01*
X774256Y-454794D01*
X774256Y-427794D01*
G36*
X774256Y-427794D02*
X759156Y-427794D01*
X759156Y-434894D01*
X774256Y-434894D01*
X774256Y-427794D01*
G37*
G54D11*
X774256Y-427794D02*
X759156Y-427794D01*
X759156Y-434894D01*
X774256Y-434894D01*
X774256Y-427794D01*
G54D10*
X492150Y-515825D02*
X492150Y-493825D01*
X530150Y-493825D01*
X530150Y-515825D01*
X492150Y-515825D01*
G54D11*
X609600Y-804862D02*
X609600Y-700088D01*
X444500Y-700088D01*
X444500Y-804863D01*
X609600Y-804862D01*
G54D11*
X609600Y-790575D02*
X584200Y-790575D01*
X584200Y-714375D01*
X609600Y-714375D01*
G54D12*
X557928Y-772542D02*
X563483Y-772542D01*
X564594Y-773208D01*
X565150Y-774542D01*
X565150Y-775875D01*
X564594Y-777208D01*
X563483Y-777875D01*
X557928Y-777875D01*
X556817Y-777208D01*
X556261Y-775875D01*
X556261Y-774542D01*
X556817Y-773208D01*
X557928Y-772542D01*
G54D12*
X565150Y-770098D02*
X556261Y-770098D01*
G54D12*
X562372Y-770098D02*
X556261Y-764765D01*
G54D12*
X560706Y-768098D02*
X565150Y-764765D01*
G54D12*
X565150Y-762321D02*
X556261Y-762321D01*
G54D12*
X561261Y-759877D02*
X561261Y-754544D01*
G54D12*
X556261Y-752100D02*
X556261Y-746767D01*
X557372Y-747433D01*
X559039Y-748767D01*
X561261Y-750100D01*
X562928Y-750767D01*
X565150Y-750767D01*
G54D12*
X560706Y-740990D02*
X560706Y-742323D01*
X560150Y-743656D01*
X559039Y-744323D01*
X557928Y-744323D01*
X556817Y-743656D01*
X556261Y-742323D01*
X556261Y-740990D01*
X556817Y-739656D01*
X557928Y-738990D01*
X559039Y-738990D01*
X560150Y-739656D01*
X560706Y-740990D01*
X561261Y-739656D01*
X562372Y-738990D01*
X563483Y-738990D01*
X564594Y-739656D01*
X565150Y-740990D01*
X565150Y-742323D01*
X564594Y-743656D01*
X563483Y-744323D01*
X562372Y-744323D01*
X561261Y-743656D01*
X560706Y-742323D01*
G54D12*
X563483Y-736546D02*
X564594Y-735879D01*
X565150Y-734546D01*
X565150Y-733213D01*
X564594Y-731879D01*
X563483Y-731213D01*
X562372Y-731213D01*
X561261Y-731879D01*
X560705Y-733213D01*
X560705Y-734546D01*
X560150Y-735879D01*
X559039Y-736546D01*
X557928Y-736546D01*
X556817Y-735879D01*
X556261Y-734546D01*
X556261Y-733213D01*
X556817Y-731879D01*
X557928Y-731213D01*
G54D12*
X560706Y-726102D02*
X561817Y-724102D01*
X562928Y-723436D01*
X565150Y-723436D01*
G54D12*
X565150Y-728769D02*
X556261Y-728769D01*
X556261Y-725436D01*
X556817Y-724102D01*
X557928Y-723436D01*
X559039Y-723436D01*
X560150Y-724102D01*
X560705Y-725436D01*
X560706Y-728769D01*
G54D12*
X570628Y-772938D02*
X576183Y-772939D01*
X577294Y-773605D01*
X577850Y-774938D01*
X577850Y-776272D01*
X577294Y-777605D01*
X576183Y-778272D01*
X570628Y-778272D01*
X569516Y-777605D01*
X568961Y-776272D01*
X568961Y-774938D01*
X569517Y-773605D01*
X570628Y-772938D01*
G54D12*
X573405Y-749808D02*
X573405Y-747142D01*
X576183Y-747142D01*
X577294Y-747808D01*
X577850Y-749142D01*
X577850Y-750475D01*
X577294Y-751808D01*
X576183Y-752475D01*
X570628Y-752475D01*
X569517Y-751808D01*
X568961Y-750475D01*
X568961Y-749142D01*
X569517Y-747808D01*
X570628Y-747142D01*
G54D12*
X577850Y-727075D02*
X568961Y-727075D01*
G54D11*
X571500Y-644524D02*
X571500Y-584199D01*
G54D11*
X571500Y-644524D02*
X673101Y-644524D01*
X673101Y-584199D01*
X571500Y-584199D01*
G54D11*
X596900Y-644524D02*
X596900Y-638174D01*
X647700Y-638174D01*
X647700Y-644524D01*
G54D11*
X812800Y-796925D02*
X812800Y-803275D01*
X885825Y-803275D01*
X885825Y-701675D01*
X812800Y-701675D01*
X812800Y-708025D01*
X835025Y-708025D01*
X835025Y-796925D01*
X812800Y-796925D01*
G54D11*
X885825Y-777875D02*
X879475Y-777875D01*
X879475Y-727075D01*
X885825Y-727075D01*
G54D11*
X835025Y-727075D02*
X828675Y-727075D01*
G54D11*
X828675Y-752475D02*
X835025Y-752475D01*
G54D11*
X828675Y-777875D02*
X835025Y-777875D01*
G54D11*
X812800Y-682625D02*
X812800Y-688975D01*
X885825Y-688975D01*
X885825Y-587375D01*
X812800Y-587375D01*
X812800Y-593725D01*
X835025Y-593725D01*
X835025Y-682625D01*
X812800Y-682625D01*
G54D11*
X885825Y-663575D02*
X879475Y-663575D01*
X879475Y-612775D01*
X885825Y-612775D01*
G54D11*
X835025Y-612775D02*
X828675Y-612775D01*
G54D11*
X828675Y-638175D02*
X835025Y-638175D01*
G54D11*
X828675Y-663575D02*
X835025Y-663575D01*
G54D10*
X669925Y-714375D02*
X720725Y-714375D01*
X720725Y-663575D01*
X669925Y-663575D01*
X669925Y-714375D01*
G54D10*
X682625Y-714375D02*
X708025Y-714375D01*
X708025Y-701675D01*
X682625Y-701675D01*
X682625Y-714375D01*
G54D12*
X800167Y-798625D02*
X809056Y-795292D01*
X800167Y-791959D01*
G54D12*
X805545Y-709548D02*
X806656Y-708881D01*
X807212Y-707548D01*
X807212Y-706214D01*
X806656Y-704881D01*
X805545Y-704214D01*
X804434Y-704214D01*
X803323Y-704881D01*
X802767Y-706214D01*
X802767Y-707548D01*
X802212Y-708881D01*
X801100Y-709548D01*
X799989Y-709548D01*
X798878Y-708881D01*
X798323Y-707548D01*
X798323Y-706214D01*
X798878Y-704881D01*
X799989Y-704214D01*
G54D12*
X800167Y-687375D02*
X809056Y-684042D01*
X800167Y-680709D01*
G54D12*
X805545Y-598298D02*
X806656Y-597631D01*
X807212Y-596298D01*
X807212Y-594964D01*
X806656Y-593631D01*
X805545Y-592964D01*
X804434Y-592964D01*
X803323Y-593631D01*
X802767Y-594964D01*
X802767Y-596298D01*
X802212Y-597631D01*
X801100Y-598298D01*
X799989Y-598298D01*
X798878Y-597631D01*
X798323Y-596298D01*
X798323Y-594964D01*
X798878Y-593631D01*
X799989Y-592964D01*
G54D10*
X754175Y-673125D02*
X776175Y-673125D01*
X776175Y-711125D01*
X754175Y-711125D01*
X754175Y-673125D01*
G54D11*
X704850Y-746125D02*
X704850Y-806450D01*
G54D11*
X781050Y-746125D02*
X781050Y-806450D01*
X704850Y-806450D01*
G54D11*
X704850Y-746125D02*
X781050Y-746125D01*
G54D11*
X730250Y-746125D02*
X730250Y-752475D01*
X755650Y-752475D01*
X755650Y-746125D01*
G54D11*
X520700Y-409575D02*
X447675Y-409575D01*
X447675Y-485775D01*
X520700Y-485775D01*
X520700Y-479425D01*
X498475Y-479425D01*
X498475Y-415925D01*
X520700Y-415925D01*
X520700Y-409575D01*
G54D11*
X503238Y-434975D02*
X498475Y-434975D01*
G54D11*
X503238Y-460375D02*
X498475Y-460375D01*
G54D11*
X447675Y-460375D02*
X454025Y-460375D01*
X454025Y-434975D01*
X447675Y-434975D01*
G54D11*
X812800Y-485775D02*
X885825Y-485775D01*
X885825Y-409575D01*
X812800Y-409575D01*
X812800Y-415925D01*
X835025Y-415925D01*
X835025Y-479425D01*
X812800Y-479425D01*
X812800Y-485775D01*
G54D11*
X830263Y-460375D02*
X835025Y-460375D01*
G54D11*
X830263Y-434975D02*
X835025Y-434975D01*
G54D11*
X885825Y-434975D02*
X879475Y-434975D01*
X879475Y-460375D01*
X885825Y-460375D01*
G54D11*
X812800Y-574675D02*
X885825Y-574675D01*
X885825Y-498475D01*
X812800Y-498475D01*
X812800Y-504825D01*
X835025Y-504825D01*
X835025Y-568325D01*
X812800Y-568325D01*
X812800Y-574675D01*
G54D11*
X830263Y-549275D02*
X835025Y-549275D01*
G54D11*
X830263Y-523875D02*
X835025Y-523875D01*
G54D11*
X885825Y-523875D02*
X879475Y-523875D01*
X879475Y-549275D01*
X885825Y-549275D01*
G54D11*
X655638Y-409575D02*
X550863Y-409575D01*
X550863Y-574675D01*
X655638Y-574675D01*
X655638Y-409575D01*
G54D11*
X641350Y-409575D02*
X641350Y-434975D01*
X565150Y-434975D01*
X565150Y-409575D01*
G54D12*
X623317Y-461247D02*
X623317Y-455692D01*
X623983Y-454580D01*
X625317Y-454025D01*
X626650Y-454025D01*
X627983Y-454580D01*
X628650Y-455692D01*
X628650Y-461247D01*
X627983Y-462358D01*
X626650Y-462914D01*
X625317Y-462914D01*
X623983Y-462358D01*
X623317Y-461247D01*
G54D12*
X620873Y-454025D02*
X620873Y-462914D01*
G54D12*
X620873Y-456803D02*
X615540Y-462914D01*
G54D12*
X618873Y-458470D02*
X615540Y-454025D01*
G54D12*
X613096Y-454025D02*
X613096Y-462914D01*
G54D12*
X610652Y-457914D02*
X605319Y-457914D01*
G54D12*
X602875Y-462914D02*
X597542Y-462914D01*
X598208Y-461803D01*
X599542Y-460136D01*
X600875Y-457914D01*
X601542Y-456247D01*
X601542Y-454025D01*
G54D12*
X591765Y-458470D02*
X593098Y-458470D01*
X594431Y-459025D01*
X595098Y-460136D01*
X595098Y-461247D01*
X594431Y-462358D01*
X593098Y-462914D01*
X591765Y-462914D01*
X590431Y-462358D01*
X589765Y-461247D01*
X589765Y-460136D01*
X590431Y-459025D01*
X591765Y-458470D01*
X590431Y-457914D01*
X589765Y-456803D01*
X589765Y-455692D01*
X590431Y-454580D01*
X591765Y-454025D01*
X593098Y-454025D01*
X594431Y-454580D01*
X595098Y-455692D01*
X595098Y-456803D01*
X594431Y-457914D01*
X593098Y-458470D01*
G54D12*
X587321Y-455692D02*
X586654Y-454580D01*
X585321Y-454025D01*
X583988Y-454025D01*
X582654Y-454580D01*
X581988Y-455692D01*
X581988Y-456803D01*
X582654Y-457914D01*
X583988Y-458470D01*
X585321Y-458470D01*
X586654Y-459025D01*
X587321Y-460136D01*
X587321Y-461247D01*
X586654Y-462358D01*
X585321Y-462914D01*
X583988Y-462914D01*
X582654Y-462358D01*
X581988Y-461247D01*
G54D12*
X576877Y-458470D02*
X574877Y-457358D01*
X574211Y-456247D01*
X574211Y-454025D01*
G54D12*
X579544Y-454025D02*
X579544Y-462914D01*
X576211Y-462914D01*
X574877Y-462358D01*
X574211Y-461247D01*
X574211Y-460136D01*
X574877Y-459025D01*
X576211Y-458470D01*
X579544Y-458470D01*
G54D12*
X623714Y-448547D02*
X623714Y-442992D01*
X624380Y-441880D01*
X625714Y-441325D01*
X627047Y-441325D01*
X628380Y-441880D01*
X629047Y-442992D01*
X629047Y-448547D01*
X628380Y-449658D01*
X627047Y-450214D01*
X625714Y-450214D01*
X624380Y-449658D01*
X623714Y-448547D01*
G54D12*
X600583Y-445770D02*
X597917Y-445770D01*
X597917Y-442992D01*
X598583Y-441880D01*
X599917Y-441325D01*
X601250Y-441325D01*
X602583Y-441880D01*
X603250Y-442992D01*
X603250Y-448547D01*
X602583Y-449658D01*
X601250Y-450214D01*
X599917Y-450214D01*
X598583Y-449658D01*
X597917Y-448547D01*
G54D12*
X577850Y-441325D02*
X577850Y-450214D01*
G54D11*
X615950Y-746125D02*
X615950Y-806450D01*
G54D11*
X692150Y-746125D02*
X692150Y-806450D01*
X615950Y-806450D01*
G54D11*
X615950Y-746125D02*
X692150Y-746125D01*
G54D11*
X641350Y-746125D02*
X641350Y-752475D01*
X666750Y-752475D01*
X666750Y-746125D01*
G54D10*
X492150Y-553925D02*
X492150Y-531925D01*
X530150Y-531925D01*
X530150Y-553925D01*
X492150Y-553925D01*
G54D10*
X761556Y-529394D02*
X746456Y-529394D01*
X746456Y-556394D01*
X761556Y-556394D01*
X761556Y-529394D01*
G36*
X761556Y-529394D02*
X746456Y-529394D01*
X746456Y-536494D01*
X761556Y-536494D01*
X761556Y-529394D01*
G37*
G54D11*
X761556Y-529394D02*
X746456Y-529394D01*
X746456Y-536494D01*
X761556Y-536494D01*
X761556Y-529394D01*
G54D11*
X520700Y-688975D02*
X447675Y-688975D01*
X447675Y-561975D01*
X520700Y-561975D01*
X520700Y-568325D01*
X498475Y-568325D01*
X498475Y-682625D01*
X520700Y-682625D01*
X520700Y-688975D01*
G54D11*
X447675Y-587375D02*
X454025Y-587375D01*
X454025Y-663575D01*
X447675Y-663575D01*
G54D10*
X708050Y-600200D02*
X708050Y-635200D01*
X773050Y-635200D01*
X773050Y-600200D01*
X708050Y-600200D01*
G54D10*
X677950Y-616000D02*
X699950Y-616000D01*
X699950Y-654000D01*
X677950Y-654000D01*
X677950Y-616000D01*
G36*
X541994Y-430870D02*
X548344Y-424520D01*
X541994Y-418170D01*
X541994Y-430870D01*
G37*
G54D12*
X540115Y-438421D02*
X549004Y-438421D01*
X549004Y-441754D01*
X548448Y-443088D01*
X547337Y-443754D01*
X546226Y-443754D01*
X545115Y-443088D01*
X544559Y-441754D01*
X544559Y-438421D01*
G54D12*
X549004Y-446198D02*
X540115Y-446198D01*
X545670Y-449531D01*
X540115Y-452865D01*
X549004Y-452865D01*
G54D12*
X544559Y-457976D02*
X543448Y-459976D01*
X542337Y-460642D01*
X540115Y-460642D01*
G54D12*
X540115Y-455309D02*
X549004Y-455309D01*
X549004Y-458642D01*
X548448Y-459976D01*
X547337Y-460642D01*
X546226Y-460642D01*
X545115Y-459976D01*
X544559Y-458642D01*
X544559Y-455309D01*
G54D12*
X540115Y-465663D02*
X549004Y-465663D01*
G54D12*
X540115Y-468107D02*
X549004Y-468107D01*
X540115Y-473440D01*
X549004Y-473440D01*
G36*
X541994Y-576920D02*
X548344Y-570570D01*
X541994Y-564220D01*
X541994Y-576920D01*
G37*
G54D12*
X542925Y-593725D02*
X542925Y-584836D01*
X547592Y-584836D01*
G54D12*
X542925Y-589280D02*
X547592Y-589280D01*
G54D12*
X550036Y-588170D02*
X553369Y-584836D01*
X553369Y-593725D01*
G54D12*
X542925Y-619125D02*
X542925Y-610236D01*
X547592Y-610236D01*
G54D12*
X542925Y-614680D02*
X547592Y-614680D01*
G54D12*
X555369Y-619125D02*
X550036Y-619125D01*
X550036Y-618570D01*
X550703Y-617458D01*
X554703Y-614125D01*
X555369Y-613014D01*
X555369Y-611903D01*
X554703Y-610792D01*
X553369Y-610236D01*
X552036Y-610236D01*
X550703Y-610792D01*
X550036Y-611903D01*
G54D12*
X542925Y-644525D02*
X542925Y-635636D01*
X548258Y-644525D01*
X548258Y-635636D01*
G54D12*
X555369Y-644525D02*
X550702Y-644525D01*
X550702Y-635636D01*
X555369Y-635636D01*
G54D12*
X550702Y-640080D02*
X555369Y-640080D01*
G54D12*
X563146Y-637303D02*
X563146Y-642858D01*
X562480Y-643970D01*
X561146Y-644525D01*
X559813Y-644525D01*
X558480Y-643970D01*
X557813Y-642858D01*
X557813Y-637303D01*
X558480Y-636192D01*
X559813Y-635636D01*
X561146Y-635636D01*
X562480Y-636192D01*
X563146Y-637303D01*
G54D12*
X542925Y-669925D02*
X542925Y-661036D01*
X546258Y-661036D01*
X547592Y-661592D01*
X548258Y-662703D01*
X548258Y-663814D01*
X547592Y-664925D01*
X546258Y-665480D01*
X542925Y-665480D01*
G54D12*
X553369Y-665480D02*
X555369Y-666592D01*
X556035Y-667703D01*
X556035Y-669925D01*
G54D12*
X550702Y-669925D02*
X550702Y-661036D01*
X554035Y-661036D01*
X555369Y-661592D01*
X556035Y-662703D01*
X556035Y-663814D01*
X555369Y-664925D01*
X554035Y-665480D01*
X550702Y-665480D01*
G54D12*
X563812Y-662703D02*
X563812Y-668258D01*
X563146Y-669370D01*
X561812Y-669925D01*
X560479Y-669925D01*
X559146Y-669370D01*
X558479Y-668258D01*
X558479Y-662703D01*
X559146Y-661592D01*
X560479Y-661036D01*
X561812Y-661036D01*
X563146Y-661592D01*
X563812Y-662703D01*
G54D12*
X566256Y-669925D02*
X566256Y-661036D01*
X569589Y-661036D01*
X570923Y-661592D01*
X571589Y-662703D01*
X571589Y-663814D01*
X570923Y-664925D01*
X569589Y-665480D01*
X570923Y-666036D01*
X571589Y-667147D01*
X571589Y-668258D01*
X570923Y-669370D01*
X569589Y-669925D01*
X566256Y-669925D01*
G54D12*
X566256Y-665480D02*
X569589Y-665480D01*
G54D12*
X578700Y-669925D02*
X574033Y-669925D01*
X574033Y-661036D01*
X578700Y-661036D01*
G54D12*
X574033Y-665480D02*
X578700Y-665480D01*
G54D12*
X653033Y-730886D02*
X647700Y-730886D01*
X647700Y-734775D01*
X648367Y-734775D01*
X649700Y-734220D01*
X651033Y-734220D01*
X652367Y-734775D01*
X653033Y-735886D01*
X653033Y-738108D01*
X652367Y-739220D01*
X651033Y-739775D01*
X649700Y-739775D01*
X648367Y-739220D01*
X647700Y-738108D01*
G54D12*
X655477Y-730886D02*
X658810Y-739775D01*
X662144Y-730886D01*
G54D12*
X745108Y-730886D02*
X739775Y-730886D01*
X739775Y-734775D01*
X740442Y-734775D01*
X741775Y-734220D01*
X743108Y-734220D01*
X744442Y-734775D01*
X745108Y-735886D01*
X745108Y-738108D01*
X744442Y-739220D01*
X743108Y-739775D01*
X741775Y-739775D01*
X740442Y-739220D01*
X739775Y-738108D01*
G54D12*
X747552Y-730886D02*
X750885Y-739775D01*
X754219Y-730886D01*
G54D12*
X793750Y-777875D02*
X784861Y-777875D01*
X793750Y-772542D01*
X784861Y-772542D01*
G54D12*
X793750Y-765431D02*
X793750Y-770098D01*
X784861Y-770098D01*
X784861Y-765431D01*
G54D12*
X789306Y-770098D02*
X789306Y-765431D01*
G54D12*
X786528Y-757654D02*
X792083Y-757654D01*
X793194Y-758320D01*
X793750Y-759654D01*
X793750Y-760987D01*
X793194Y-762320D01*
X792083Y-762987D01*
X786528Y-762987D01*
X785417Y-762320D01*
X784861Y-760987D01*
X784861Y-759654D01*
X785417Y-758320D01*
X786528Y-757654D01*
G54D12*
X793750Y-755210D02*
X784861Y-755210D01*
X784861Y-751877D01*
X785417Y-750543D01*
X786528Y-749877D01*
X787639Y-749877D01*
X788750Y-750543D01*
X789306Y-751877D01*
X789306Y-755210D01*
G54D12*
X793750Y-747433D02*
X784861Y-747433D01*
G54D12*
X784861Y-744989D02*
X793750Y-738322D01*
G54D12*
X793750Y-744989D02*
X784861Y-738322D01*
G54D12*
X793750Y-731211D02*
X793750Y-735878D01*
X784861Y-735878D01*
X784861Y-731211D01*
G54D12*
X789306Y-735878D02*
X789306Y-731211D01*
G54D12*
X784861Y-728767D02*
X793750Y-728767D01*
X793750Y-724100D01*
G54D12*
X793750Y-650875D02*
X784861Y-650875D01*
X784861Y-647542D01*
X785417Y-646208D01*
X786528Y-645542D01*
X787639Y-645542D01*
X788750Y-646208D01*
X789306Y-647542D01*
X789306Y-650875D01*
G54D12*
X789306Y-640431D02*
X790417Y-638431D01*
X791528Y-637765D01*
X793750Y-637765D01*
G54D12*
X793750Y-643098D02*
X784861Y-643098D01*
X784861Y-639765D01*
X785417Y-638431D01*
X786528Y-637765D01*
X787639Y-637765D01*
X788750Y-638431D01*
X789306Y-639765D01*
X789306Y-643098D01*
G54D12*
X786528Y-629988D02*
X792083Y-629988D01*
X793194Y-630654D01*
X793750Y-631988D01*
X793750Y-633321D01*
X793194Y-634654D01*
X792083Y-635321D01*
X786528Y-635321D01*
X785417Y-634654D01*
X784861Y-633321D01*
X784861Y-631988D01*
X785417Y-630654D01*
X786528Y-629988D01*
G54D12*
X793750Y-627544D02*
X784861Y-627544D01*
X784861Y-624211D01*
X785417Y-622877D01*
X786528Y-622211D01*
X787639Y-622211D01*
X788750Y-622877D01*
X789306Y-624211D01*
X789861Y-622877D01*
X790972Y-622211D01*
X792083Y-622211D01*
X793194Y-622877D01*
X793750Y-624211D01*
X793750Y-627544D01*
G54D12*
X789306Y-627544D02*
X789306Y-624211D01*
G54D12*
X793750Y-615100D02*
X793750Y-619767D01*
X784861Y-619767D01*
X784861Y-615100D01*
G54D12*
X789306Y-619767D02*
X789306Y-615100D01*
G54D12*
X793750Y-454025D02*
X784861Y-454025D01*
X784861Y-449358D01*
G54D12*
X789306Y-454025D02*
X789306Y-449358D01*
G54D12*
X788194Y-446914D02*
X784861Y-443581D01*
X793750Y-443581D01*
G54D12*
X793750Y-542925D02*
X784861Y-542925D01*
X784861Y-538258D01*
G54D12*
X789306Y-542925D02*
X789306Y-538258D01*
G54D12*
X793750Y-530481D02*
X793750Y-535814D01*
X793194Y-535814D01*
X792083Y-535147D01*
X788750Y-531147D01*
X787639Y-530481D01*
X786528Y-530481D01*
X785417Y-531147D01*
X784861Y-532481D01*
X784861Y-533814D01*
X785417Y-535147D01*
X786528Y-535814D01*
G54D12*
X736600Y-419736D02*
X739933Y-428625D01*
X743267Y-419736D01*
G54D12*
X745711Y-428625D02*
X745711Y-419736D01*
X750378Y-419736D01*
G54D12*
X745711Y-424180D02*
X750378Y-424180D01*
G54D12*
X752822Y-423070D02*
X756155Y-419736D01*
X756155Y-428625D01*
G54D12*
X739775Y-470536D02*
X743108Y-479425D01*
X746442Y-470536D01*
G54D12*
X748886Y-479425D02*
X748886Y-470536D01*
X753553Y-470536D01*
G54D12*
X748886Y-474980D02*
X753553Y-474980D01*
G54D12*
X761330Y-479425D02*
X755997Y-479425D01*
X755997Y-478870D01*
X756664Y-477758D01*
X760664Y-474425D01*
X761330Y-473314D01*
X761330Y-472203D01*
X760664Y-471092D01*
X759330Y-470536D01*
X757997Y-470536D01*
X756664Y-471092D01*
X755997Y-472203D01*
G54D12*
X672083Y-425450D02*
X666750Y-425450D01*
X666750Y-424894D01*
X667417Y-423783D01*
X671417Y-420450D01*
X672083Y-419339D01*
X672083Y-418228D01*
X671417Y-417117D01*
X670083Y-416561D01*
X668750Y-416561D01*
X667417Y-417117D01*
X666750Y-418228D01*
G54D12*
X678527Y-425450D02*
X678527Y-416561D01*
X674527Y-422117D01*
X674527Y-423228D01*
X679860Y-423228D01*
G54D12*
X682304Y-416561D02*
X685637Y-425450D01*
X688971Y-416561D01*
G54D12*
X693992Y-421561D02*
X699325Y-421561D01*
G54D12*
X704346Y-419894D02*
X707679Y-416561D01*
X707679Y-425450D01*
G54D12*
X715456Y-425450D02*
X710123Y-425450D01*
X710123Y-424894D01*
X710790Y-423783D01*
X714790Y-420450D01*
X715456Y-419339D01*
X715456Y-418228D01*
X714790Y-417117D01*
X713456Y-416561D01*
X712123Y-416561D01*
X710790Y-417117D01*
X710123Y-418228D01*
G54D12*
X717900Y-416561D02*
X721233Y-425450D01*
X724567Y-416561D01*
G54D12*
X595883Y-660400D02*
X590550Y-660400D01*
X590550Y-659844D01*
X591217Y-658733D01*
X595217Y-655400D01*
X595883Y-654289D01*
X595883Y-653178D01*
X595217Y-652067D01*
X593883Y-651511D01*
X592550Y-651511D01*
X591217Y-652067D01*
X590550Y-653178D01*
G54D12*
X602327Y-660400D02*
X602327Y-651511D01*
X598327Y-657067D01*
X598327Y-658178D01*
X603660Y-658178D01*
G54D12*
X613925Y-655956D02*
X616591Y-655956D01*
X616591Y-658733D01*
X615925Y-659844D01*
X614591Y-660400D01*
X613258Y-660400D01*
X611925Y-659844D01*
X611258Y-658733D01*
X611258Y-653178D01*
X611925Y-652067D01*
X613258Y-651511D01*
X614591Y-651511D01*
X615925Y-652067D01*
X616591Y-653178D01*
G54D12*
X619035Y-660400D02*
X619035Y-651511D01*
X624368Y-660400D01*
X624368Y-651511D01*
G54D12*
X626812Y-660400D02*
X626812Y-651511D01*
X630145Y-651511D01*
X631479Y-652067D01*
X632145Y-653178D01*
X632145Y-658733D01*
X631479Y-659844D01*
X630145Y-660400D01*
X626812Y-660400D01*
G54D12*
X637166Y-654844D02*
X640499Y-651511D01*
X640499Y-660400D01*
G54D12*
X648276Y-660400D02*
X642943Y-660400D01*
X642943Y-659844D01*
X643610Y-658733D01*
X647610Y-655400D01*
X648276Y-654289D01*
X648276Y-653178D01*
X647610Y-652067D01*
X646276Y-651511D01*
X644943Y-651511D01*
X643610Y-652067D01*
X642943Y-653178D01*
G54D12*
X797561Y-415925D02*
X806450Y-412592D01*
X797561Y-409258D01*
G54D12*
X797561Y-504825D02*
X806450Y-501492D01*
X797561Y-498158D01*
G54D12*
X802006Y-572008D02*
X802006Y-569342D01*
X804783Y-569342D01*
X805894Y-570008D01*
X806450Y-571342D01*
X806450Y-572675D01*
X805894Y-574008D01*
X804783Y-574675D01*
X799228Y-574675D01*
X798117Y-574008D01*
X797561Y-572675D01*
X797561Y-571342D01*
X798117Y-570008D01*
X799228Y-569342D01*
G54D12*
X802006Y-483108D02*
X802006Y-480442D01*
X804783Y-480442D01*
X805894Y-481108D01*
X806450Y-482442D01*
X806450Y-483775D01*
X805894Y-485108D01*
X804783Y-485775D01*
X799228Y-485775D01*
X798117Y-485108D01*
X797561Y-483775D01*
X797561Y-482442D01*
X798117Y-481108D01*
X799228Y-480442D01*
G54D12*
X527764Y-479425D02*
X527764Y-484758D01*
G54D12*
X529986Y-482092D02*
X525542Y-482092D01*
G54D12*
X635714Y-733425D02*
X635714Y-738758D01*
G54D12*
X637936Y-736092D02*
X633492Y-736092D01*
G54D12*
X727789Y-733425D02*
X727789Y-738758D01*
G54D12*
X730011Y-736092D02*
X725567Y-736092D01*
G54D12*
X527764Y-409575D02*
X527764Y-414908D01*
G54D12*
X669925Y-735886D02*
X675258Y-735886D01*
G54D12*
X758825Y-735886D02*
X764158Y-735886D01*
G54D12*
X556261Y-794767D02*
X556261Y-800100D01*
X560150Y-800100D01*
X560150Y-799433D01*
X559594Y-798100D01*
X559594Y-796767D01*
X560150Y-795433D01*
X561261Y-794767D01*
X563483Y-794767D01*
X564594Y-795433D01*
X565150Y-796767D01*
X565150Y-798100D01*
X564594Y-799433D01*
X563483Y-800100D01*
G54D12*
X556261Y-792323D02*
X565150Y-788990D01*
X556261Y-785656D01*
G54D12*
X654050Y-459580D02*
X650717Y-462914D01*
X650717Y-454025D01*
G54D12*
X642940Y-454025D02*
X648273Y-454025D01*
X648273Y-454580D01*
X647606Y-455692D01*
X643606Y-459025D01*
X642940Y-460136D01*
X642940Y-461247D01*
X643606Y-462358D01*
X644940Y-462914D01*
X646273Y-462914D01*
X647606Y-462358D01*
X648273Y-461247D01*
G54D12*
X640496Y-462914D02*
X637163Y-454025D01*
X633829Y-462914D01*
M02*
