%FSLAX34Y34*%
%MOMM*%
%LNSOLDERMASK_BOTTOM*%
G71*
G01*
%ADD10C, 2.400*%
%ADD11C, 2.000*%
%LPD*%
G36*
X147420Y-383475D02*
X140400Y-376455D01*
X140400Y-366495D01*
X147420Y-359475D01*
X157380Y-359475D01*
X164400Y-366495D01*
X164400Y-376455D01*
X157380Y-383475D01*
X147420Y-383475D01*
G37*
G36*
X147420Y-358075D02*
X140400Y-351055D01*
X140400Y-341095D01*
X147420Y-334075D01*
X157380Y-334075D01*
X164400Y-341095D01*
X164400Y-351055D01*
X157380Y-358075D01*
X147420Y-358075D01*
G37*
G36*
X147420Y-332675D02*
X140400Y-325655D01*
X140400Y-315695D01*
X147420Y-308675D01*
X157380Y-308675D01*
X164400Y-315695D01*
X164400Y-325655D01*
X157380Y-332675D01*
X147420Y-332675D01*
G37*
G36*
X147420Y-358075D02*
X140400Y-351055D01*
X140400Y-341095D01*
X147420Y-334075D01*
X157380Y-334075D01*
X164400Y-341095D01*
X164400Y-351055D01*
X157380Y-358075D01*
X147420Y-358075D01*
G37*
X152400Y-212724D02*
G54D10*
D03*
X177800Y-212724D02*
G54D10*
D03*
X203200Y-212724D02*
G54D10*
D03*
X368300Y-320675D02*
G54D10*
D03*
X368300Y-346075D02*
G54D10*
D03*
X368300Y-371475D02*
G54D10*
D03*
X368300Y-206375D02*
G54D10*
D03*
X368300Y-231775D02*
G54D10*
D03*
X368300Y-257175D02*
G54D10*
D03*
G36*
X278925Y-305275D02*
X278925Y-285275D01*
X298925Y-285275D01*
X298925Y-305275D01*
X278925Y-305275D01*
G37*
X288925Y-269875D02*
G54D11*
D03*
X212725Y-269875D02*
G54D11*
D03*
X212725Y-295275D02*
G54D11*
D03*
X285750Y-365125D02*
G54D10*
D03*
X311150Y-365125D02*
G54D10*
D03*
X76200Y-53975D02*
G54D10*
D03*
X76200Y-28575D02*
G54D10*
D03*
X368300Y-28575D02*
G54D10*
D03*
X368300Y-53975D02*
G54D10*
D03*
X368300Y-117475D02*
G54D10*
D03*
X368300Y-142875D02*
G54D10*
D03*
G36*
X196150Y-20855D02*
X189130Y-27875D01*
X179170Y-27875D01*
X172150Y-20855D01*
X172150Y-10895D01*
X179170Y-3875D01*
X189130Y-3875D01*
X196150Y-10895D01*
X196150Y-20855D01*
G37*
G36*
X170750Y-20855D02*
X163730Y-27875D01*
X153770Y-27875D01*
X146750Y-20855D01*
X146750Y-10895D01*
X153770Y-3875D01*
X163730Y-3875D01*
X170750Y-10895D01*
X170750Y-20855D01*
G37*
G36*
X145350Y-20855D02*
X138330Y-27875D01*
X128370Y-27875D01*
X121350Y-20855D01*
X121350Y-10895D01*
X128370Y-3875D01*
X138330Y-3875D01*
X145350Y-10895D01*
X145350Y-20855D01*
G37*
G36*
X170750Y-20855D02*
X163730Y-27875D01*
X153770Y-27875D01*
X146750Y-20855D01*
X146750Y-10895D01*
X153770Y-3875D01*
X163730Y-3875D01*
X170750Y-10895D01*
X170750Y-20855D01*
G37*
X196850Y-365125D02*
G54D10*
D03*
X222250Y-365125D02*
G54D10*
D03*
X76200Y-180975D02*
G54D10*
D03*
X76200Y-206375D02*
G54D10*
D03*
X76200Y-231775D02*
G54D10*
D03*
X76200Y-257175D02*
G54D10*
D03*
X279400Y-41275D02*
G54D10*
D03*
X254000Y-41275D02*
G54D10*
D03*
X228600Y-41275D02*
G54D10*
D03*
X279400Y-79375D02*
G54D10*
D03*
X254000Y-79375D02*
G54D10*
D03*
X228600Y-79375D02*
G54D10*
D03*
X368300Y-231775D02*
G54D10*
D03*
X368300Y-346075D02*
G54D10*
D03*
X311150Y-365125D02*
G54D10*
D03*
X222250Y-365125D02*
G54D10*
D03*
X76200Y-28575D02*
G54D10*
D03*
X288925Y-269875D02*
G54D10*
D03*
X212725Y-269875D02*
G54D10*
D03*
X177800Y-212725D02*
G54D10*
D03*
G36*
X591920Y-383475D02*
X584900Y-376455D01*
X584900Y-366495D01*
X591920Y-359475D01*
X601880Y-359475D01*
X608900Y-366495D01*
X608900Y-376455D01*
X601880Y-383475D01*
X591920Y-383475D01*
G37*
G36*
X591920Y-358075D02*
X584900Y-351055D01*
X584900Y-341095D01*
X591920Y-334075D01*
X601880Y-334075D01*
X608900Y-341095D01*
X608900Y-351055D01*
X601880Y-358075D01*
X591920Y-358075D01*
G37*
G36*
X591920Y-332675D02*
X584900Y-325655D01*
X584900Y-315695D01*
X591920Y-308675D01*
X601880Y-308675D01*
X608900Y-315695D01*
X608900Y-325655D01*
X601880Y-332675D01*
X591920Y-332675D01*
G37*
G36*
X591920Y-358075D02*
X584900Y-351055D01*
X584900Y-341095D01*
X591920Y-334075D01*
X601880Y-334075D01*
X608900Y-341095D01*
X608900Y-351055D01*
X601880Y-358075D01*
X591920Y-358075D01*
G37*
X596900Y-212724D02*
G54D10*
D03*
X622300Y-212724D02*
G54D10*
D03*
X647700Y-212724D02*
G54D10*
D03*
X812800Y-320675D02*
G54D10*
D03*
X812800Y-346075D02*
G54D10*
D03*
X812800Y-371475D02*
G54D10*
D03*
X812800Y-206375D02*
G54D10*
D03*
X812800Y-231775D02*
G54D10*
D03*
X812800Y-257175D02*
G54D10*
D03*
G36*
X723425Y-305275D02*
X723425Y-285275D01*
X743425Y-285275D01*
X743425Y-305275D01*
X723425Y-305275D01*
G37*
X733425Y-269875D02*
G54D11*
D03*
X657225Y-269875D02*
G54D11*
D03*
X657225Y-295275D02*
G54D11*
D03*
X730250Y-365125D02*
G54D10*
D03*
X755650Y-365125D02*
G54D10*
D03*
X520700Y-53975D02*
G54D10*
D03*
X520700Y-28575D02*
G54D10*
D03*
X812800Y-28575D02*
G54D10*
D03*
X812800Y-53975D02*
G54D10*
D03*
X812800Y-117475D02*
G54D10*
D03*
X812800Y-142875D02*
G54D10*
D03*
G36*
X640650Y-20855D02*
X633630Y-27875D01*
X623670Y-27875D01*
X616650Y-20855D01*
X616650Y-10895D01*
X623670Y-3875D01*
X633630Y-3875D01*
X640650Y-10895D01*
X640650Y-20855D01*
G37*
G36*
X615250Y-20855D02*
X608230Y-27875D01*
X598270Y-27875D01*
X591250Y-20855D01*
X591250Y-10895D01*
X598270Y-3875D01*
X608230Y-3875D01*
X615250Y-10895D01*
X615250Y-20855D01*
G37*
G36*
X589850Y-20855D02*
X582830Y-27875D01*
X572870Y-27875D01*
X565850Y-20855D01*
X565850Y-10895D01*
X572870Y-3875D01*
X582830Y-3875D01*
X589850Y-10895D01*
X589850Y-20855D01*
G37*
G36*
X615250Y-20855D02*
X608230Y-27875D01*
X598270Y-27875D01*
X591250Y-20855D01*
X591250Y-10895D01*
X598270Y-3875D01*
X608230Y-3875D01*
X615250Y-10895D01*
X615250Y-20855D01*
G37*
X641350Y-365125D02*
G54D10*
D03*
X666750Y-365125D02*
G54D10*
D03*
X520700Y-180975D02*
G54D10*
D03*
X520700Y-206375D02*
G54D10*
D03*
X520700Y-231775D02*
G54D10*
D03*
X520700Y-257175D02*
G54D10*
D03*
X723900Y-41275D02*
G54D10*
D03*
X698500Y-41275D02*
G54D10*
D03*
X673100Y-41275D02*
G54D10*
D03*
X723900Y-79375D02*
G54D10*
D03*
X698500Y-79375D02*
G54D10*
D03*
X673100Y-79375D02*
G54D10*
D03*
X812800Y-231775D02*
G54D10*
D03*
X812800Y-346075D02*
G54D10*
D03*
X755650Y-365125D02*
G54D10*
D03*
X666750Y-365125D02*
G54D10*
D03*
X520700Y-28575D02*
G54D10*
D03*
X733425Y-269875D02*
G54D10*
D03*
X657225Y-269875D02*
G54D10*
D03*
X622300Y-212725D02*
G54D10*
D03*
G36*
X147420Y-789875D02*
X140400Y-782855D01*
X140400Y-772895D01*
X147420Y-765875D01*
X157380Y-765875D01*
X164400Y-772895D01*
X164400Y-782855D01*
X157380Y-789875D01*
X147420Y-789875D01*
G37*
G36*
X147420Y-764475D02*
X140400Y-757455D01*
X140400Y-747495D01*
X147420Y-740475D01*
X157380Y-740475D01*
X164400Y-747495D01*
X164400Y-757455D01*
X157380Y-764475D01*
X147420Y-764475D01*
G37*
G36*
X147420Y-739075D02*
X140400Y-732055D01*
X140400Y-722095D01*
X147420Y-715075D01*
X157380Y-715075D01*
X164400Y-722095D01*
X164400Y-732055D01*
X157380Y-739075D01*
X147420Y-739075D01*
G37*
G36*
X147420Y-764475D02*
X140400Y-757455D01*
X140400Y-747495D01*
X147420Y-740475D01*
X157380Y-740475D01*
X164400Y-747495D01*
X164400Y-757455D01*
X157380Y-764475D01*
X147420Y-764475D01*
G37*
X152400Y-619124D02*
G54D10*
D03*
X177800Y-619124D02*
G54D10*
D03*
X203200Y-619124D02*
G54D10*
D03*
X368300Y-727075D02*
G54D10*
D03*
X368300Y-752475D02*
G54D10*
D03*
X368300Y-777875D02*
G54D10*
D03*
X368300Y-612775D02*
G54D10*
D03*
X368300Y-638175D02*
G54D10*
D03*
X368300Y-663575D02*
G54D10*
D03*
G36*
X278925Y-711675D02*
X278925Y-691675D01*
X298925Y-691675D01*
X298925Y-711675D01*
X278925Y-711675D01*
G37*
X288925Y-676275D02*
G54D11*
D03*
X212725Y-676275D02*
G54D11*
D03*
X212725Y-701675D02*
G54D11*
D03*
X285750Y-771525D02*
G54D10*
D03*
X311150Y-771525D02*
G54D10*
D03*
X76200Y-460375D02*
G54D10*
D03*
X76200Y-434975D02*
G54D10*
D03*
X368300Y-434975D02*
G54D10*
D03*
X368300Y-460375D02*
G54D10*
D03*
X368300Y-523875D02*
G54D10*
D03*
X368300Y-549275D02*
G54D10*
D03*
G36*
X196150Y-427255D02*
X189130Y-434275D01*
X179170Y-434275D01*
X172150Y-427255D01*
X172150Y-417295D01*
X179170Y-410275D01*
X189130Y-410275D01*
X196150Y-417295D01*
X196150Y-427255D01*
G37*
G36*
X170750Y-427255D02*
X163730Y-434275D01*
X153770Y-434275D01*
X146750Y-427255D01*
X146750Y-417295D01*
X153770Y-410275D01*
X163730Y-410275D01*
X170750Y-417295D01*
X170750Y-427255D01*
G37*
G36*
X145350Y-427255D02*
X138330Y-434275D01*
X128370Y-434275D01*
X121350Y-427255D01*
X121350Y-417295D01*
X128370Y-410275D01*
X138330Y-410275D01*
X145350Y-417295D01*
X145350Y-427255D01*
G37*
G36*
X170750Y-427255D02*
X163730Y-434275D01*
X153770Y-434275D01*
X146750Y-427255D01*
X146750Y-417295D01*
X153770Y-410275D01*
X163730Y-410275D01*
X170750Y-417295D01*
X170750Y-427255D01*
G37*
X196850Y-771525D02*
G54D10*
D03*
X222250Y-771525D02*
G54D10*
D03*
X76200Y-587375D02*
G54D10*
D03*
X76200Y-612775D02*
G54D10*
D03*
X76200Y-638175D02*
G54D10*
D03*
X76200Y-663575D02*
G54D10*
D03*
X279400Y-447675D02*
G54D10*
D03*
X254000Y-447675D02*
G54D10*
D03*
X228600Y-447675D02*
G54D10*
D03*
X279400Y-485775D02*
G54D10*
D03*
X254000Y-485775D02*
G54D10*
D03*
X228600Y-485775D02*
G54D10*
D03*
X368300Y-638175D02*
G54D10*
D03*
X368300Y-752475D02*
G54D10*
D03*
X311150Y-771525D02*
G54D10*
D03*
X222250Y-771525D02*
G54D10*
D03*
X76200Y-434975D02*
G54D10*
D03*
X288925Y-676275D02*
G54D10*
D03*
X212725Y-676275D02*
G54D10*
D03*
X177800Y-619125D02*
G54D10*
D03*
G36*
X591920Y-789875D02*
X584900Y-782855D01*
X584900Y-772895D01*
X591920Y-765875D01*
X601880Y-765875D01*
X608900Y-772895D01*
X608900Y-782855D01*
X601880Y-789875D01*
X591920Y-789875D01*
G37*
G36*
X591920Y-764475D02*
X584900Y-757455D01*
X584900Y-747495D01*
X591920Y-740475D01*
X601880Y-740475D01*
X608900Y-747495D01*
X608900Y-757455D01*
X601880Y-764475D01*
X591920Y-764475D01*
G37*
G36*
X591920Y-739075D02*
X584900Y-732055D01*
X584900Y-722095D01*
X591920Y-715075D01*
X601880Y-715075D01*
X608900Y-722095D01*
X608900Y-732055D01*
X601880Y-739075D01*
X591920Y-739075D01*
G37*
G36*
X591920Y-764475D02*
X584900Y-757455D01*
X584900Y-747495D01*
X591920Y-740475D01*
X601880Y-740475D01*
X608900Y-747495D01*
X608900Y-757455D01*
X601880Y-764475D01*
X591920Y-764475D01*
G37*
X596900Y-619124D02*
G54D10*
D03*
X622300Y-619124D02*
G54D10*
D03*
X647700Y-619124D02*
G54D10*
D03*
X812800Y-727075D02*
G54D10*
D03*
X812800Y-752475D02*
G54D10*
D03*
X812800Y-777875D02*
G54D10*
D03*
X812800Y-612775D02*
G54D10*
D03*
X812800Y-638175D02*
G54D10*
D03*
X812800Y-663575D02*
G54D10*
D03*
G36*
X723425Y-711675D02*
X723425Y-691675D01*
X743425Y-691675D01*
X743425Y-711675D01*
X723425Y-711675D01*
G37*
X733425Y-676275D02*
G54D11*
D03*
X657225Y-676275D02*
G54D11*
D03*
X657225Y-701675D02*
G54D11*
D03*
X730250Y-771525D02*
G54D10*
D03*
X755650Y-771525D02*
G54D10*
D03*
X520700Y-460375D02*
G54D10*
D03*
X520700Y-434975D02*
G54D10*
D03*
X812800Y-434975D02*
G54D10*
D03*
X812800Y-460375D02*
G54D10*
D03*
X812800Y-523875D02*
G54D10*
D03*
X812800Y-549275D02*
G54D10*
D03*
G36*
X640650Y-427255D02*
X633630Y-434275D01*
X623670Y-434275D01*
X616650Y-427255D01*
X616650Y-417295D01*
X623670Y-410275D01*
X633630Y-410275D01*
X640650Y-417295D01*
X640650Y-427255D01*
G37*
G36*
X615250Y-427255D02*
X608230Y-434275D01*
X598270Y-434275D01*
X591250Y-427255D01*
X591250Y-417295D01*
X598270Y-410275D01*
X608230Y-410275D01*
X615250Y-417295D01*
X615250Y-427255D01*
G37*
G36*
X589850Y-427255D02*
X582830Y-434275D01*
X572870Y-434275D01*
X565850Y-427255D01*
X565850Y-417295D01*
X572870Y-410275D01*
X582830Y-410275D01*
X589850Y-417295D01*
X589850Y-427255D01*
G37*
G36*
X615250Y-427255D02*
X608230Y-434275D01*
X598270Y-434275D01*
X591250Y-427255D01*
X591250Y-417295D01*
X598270Y-410275D01*
X608230Y-410275D01*
X615250Y-417295D01*
X615250Y-427255D01*
G37*
X641350Y-771525D02*
G54D10*
D03*
X666750Y-771525D02*
G54D10*
D03*
X520700Y-587375D02*
G54D10*
D03*
X520700Y-612775D02*
G54D10*
D03*
X520700Y-638175D02*
G54D10*
D03*
X520700Y-663575D02*
G54D10*
D03*
X723900Y-447675D02*
G54D10*
D03*
X698500Y-447675D02*
G54D10*
D03*
X673100Y-447675D02*
G54D10*
D03*
X723900Y-485775D02*
G54D10*
D03*
X698500Y-485775D02*
G54D10*
D03*
X673100Y-485775D02*
G54D10*
D03*
X812800Y-638175D02*
G54D10*
D03*
X812800Y-752475D02*
G54D10*
D03*
X755650Y-771525D02*
G54D10*
D03*
X666750Y-771525D02*
G54D10*
D03*
X520700Y-434975D02*
G54D10*
D03*
X733425Y-676275D02*
G54D10*
D03*
X657225Y-676275D02*
G54D10*
D03*
X622300Y-619125D02*
G54D10*
D03*
M02*
