%FSLAX34Y34*%
%MOMM*%
%LNCOPPER_TOP*%
G71*
G01*
%ADD10R, 2.400X2.100*%
%ADD11R, 2.200X2.000*%
%ADD12R, 2.200X4.300*%
%ADD13R, 1.820X1.800*%
%ADD14R, 2.100X2.400*%
%ADD15C, 2.600*%
%ADD16C, 2.200*%
%ADD17C, 2.800*%
%ADD18C, 1.500*%
%ADD19R, 2.000X2.200*%
%ADD20R, 4.300X2.200*%
%ADD21C, 3.200*%
%ADD22C, 0.433*%
%ADD23C, 0.600*%
%ADD24C, 0.400*%
%ADD25R, 1.600X1.300*%
%ADD26R, 1.400X1.200*%
%ADD27R, 1.400X3.500*%
%ADD28R, 1.020X1.000*%
%ADD29R, 1.300X1.600*%
%ADD30C, 1.800*%
%ADD31C, 1.400*%
%ADD32C, 0.500*%
%ADD33R, 1.200X1.400*%
%ADD34R, 3.500X1.400*%
%LPD*%
G36*
X-6350Y9525D02*
X893650Y9525D01*
X893650Y-840475D01*
X-6350Y-840475D01*
X-6350Y9525D01*
G37*
%LPC*%
X19050Y-98425D02*
G54D10*
D03*
X19050Y-117425D02*
G54D10*
D03*
X19050Y-117475D02*
G54D10*
D03*
X222250Y-117475D02*
G54D11*
D03*
X222250Y-140475D02*
G54D11*
D03*
X222250Y-163475D02*
G54D11*
D03*
X284250Y-140475D02*
G54D12*
D03*
X322356Y-17394D02*
G54D13*
D03*
X322356Y-52294D02*
G54D13*
D03*
X57150Y-98425D02*
G54D14*
D03*
X76150Y-98425D02*
G54D14*
D03*
G36*
X147005Y-384475D02*
X139400Y-376870D01*
X139400Y-366080D01*
X147005Y-358475D01*
X157795Y-358475D01*
X165400Y-366080D01*
X165400Y-376870D01*
X157795Y-384475D01*
X147005Y-384475D01*
G37*
G36*
X147005Y-359075D02*
X139400Y-351470D01*
X139400Y-340680D01*
X147005Y-333075D01*
X157795Y-333075D01*
X165400Y-340680D01*
X165400Y-351470D01*
X157795Y-359075D01*
X147005Y-359075D01*
G37*
G36*
X147005Y-333675D02*
X139400Y-326070D01*
X139400Y-315280D01*
X147005Y-307675D01*
X157795Y-307675D01*
X165400Y-315280D01*
X165400Y-326070D01*
X157795Y-333675D01*
X147005Y-333675D01*
G37*
G36*
X147005Y-359075D02*
X139400Y-351470D01*
X139400Y-340680D01*
X147005Y-333075D01*
X157795Y-333075D01*
X165400Y-340680D01*
X165400Y-351470D01*
X157795Y-359075D01*
X147005Y-359075D01*
G37*
X152400Y-212724D02*
G54D15*
D03*
X177800Y-212724D02*
G54D15*
D03*
X203200Y-212724D02*
G54D15*
D03*
X368300Y-320675D02*
G54D15*
D03*
X368300Y-346075D02*
G54D15*
D03*
X368300Y-371475D02*
G54D15*
D03*
X368300Y-206375D02*
G54D15*
D03*
X368300Y-231775D02*
G54D15*
D03*
X368300Y-257175D02*
G54D15*
D03*
G36*
X277925Y-306275D02*
X277925Y-284275D01*
X299925Y-284275D01*
X299925Y-306275D01*
X277925Y-306275D01*
G37*
X288925Y-269875D02*
G54D16*
D03*
X212725Y-269875D02*
G54D16*
D03*
X212725Y-295275D02*
G54D16*
D03*
X320675Y-276225D02*
G54D10*
D03*
X320675Y-295225D02*
G54D10*
D03*
X285750Y-365125D02*
G54D15*
D03*
X311150Y-365125D02*
G54D15*
D03*
X76200Y-53975D02*
G54D17*
D03*
X76200Y-28575D02*
G54D17*
D03*
X368300Y-28575D02*
G54D17*
D03*
X368300Y-53975D02*
G54D17*
D03*
X368300Y-117475D02*
G54D17*
D03*
X368300Y-142875D02*
G54D17*
D03*
G36*
X197150Y-21270D02*
X189545Y-28875D01*
X178755Y-28875D01*
X171150Y-21270D01*
X171150Y-10480D01*
X178755Y-2875D01*
X189545Y-2875D01*
X197150Y-10480D01*
X197150Y-21270D01*
G37*
G36*
X171750Y-21270D02*
X164145Y-28875D01*
X153355Y-28875D01*
X145750Y-21270D01*
X145750Y-10480D01*
X153355Y-2875D01*
X164145Y-2875D01*
X171750Y-10480D01*
X171750Y-21270D01*
G37*
G36*
X146350Y-21270D02*
X138745Y-28875D01*
X127955Y-28875D01*
X120350Y-21270D01*
X120350Y-10480D01*
X127955Y-2875D01*
X138745Y-2875D01*
X146350Y-10480D01*
X146350Y-21270D01*
G37*
G36*
X171750Y-21270D02*
X164145Y-28875D01*
X153355Y-28875D01*
X145750Y-21270D01*
X145750Y-10480D01*
X153355Y-2875D01*
X164145Y-2875D01*
X171750Y-10480D01*
X171750Y-21270D01*
G37*
X196850Y-365125D02*
G54D15*
D03*
X222250Y-365125D02*
G54D15*
D03*
X57150Y-136525D02*
G54D14*
D03*
G36*
X65650Y-124525D02*
X86650Y-124525D01*
X86650Y-148525D01*
X65650Y-148525D01*
X65650Y-124525D01*
G37*
X309656Y-118994D02*
G54D13*
D03*
X309656Y-153894D02*
G54D13*
D03*
X76200Y-180975D02*
G54D17*
D03*
X76200Y-206375D02*
G54D17*
D03*
X76200Y-231775D02*
G54D17*
D03*
X76200Y-257175D02*
G54D17*
D03*
X279400Y-41275D02*
G54D17*
D03*
X254000Y-41275D02*
G54D17*
D03*
X228600Y-41275D02*
G54D17*
D03*
X279400Y-79375D02*
G54D17*
D03*
X254000Y-79375D02*
G54D17*
D03*
X228600Y-79375D02*
G54D17*
D03*
G54D18*
X76200Y-53975D02*
X133350Y-53975D01*
X133350Y-15875D01*
X273050Y-241300D02*
G54D19*
D03*
X296050Y-241300D02*
G54D19*
D03*
X319050Y-241300D02*
G54D19*
D03*
X296050Y-179300D02*
G54D20*
D03*
G54D18*
X228600Y-79375D02*
X228600Y-41275D01*
G54D18*
X120650Y-53975D02*
X228600Y-53975D01*
X228600Y-41275D01*
G54D18*
X254000Y-41275D02*
X254000Y-28575D01*
X266700Y-15875D01*
X355600Y-15875D01*
X368300Y-28575D01*
G54D18*
X288925Y-295275D02*
X323850Y-295275D01*
G54D18*
X76200Y-53975D02*
X76200Y-98425D01*
G54D18*
X19050Y-98425D02*
X57150Y-98425D01*
G54D18*
X76200Y-180975D02*
X76200Y-136525D01*
X244450Y-219100D02*
G54D10*
D03*
X244450Y-238100D02*
G54D10*
D03*
G54D18*
X311150Y-155575D02*
X355600Y-155575D01*
X368300Y-142875D01*
G54D18*
X311150Y-117475D02*
X368300Y-117475D01*
G54D18*
X368300Y-53975D02*
X320675Y-53975D01*
X368300Y-231775D02*
G54D17*
D03*
X368300Y-346075D02*
G54D17*
D03*
X311150Y-365125D02*
G54D17*
D03*
X222250Y-365125D02*
G54D17*
D03*
X76200Y-28575D02*
G54D17*
D03*
X288925Y-269875D02*
G54D17*
D03*
X212725Y-269875D02*
G54D17*
D03*
X177800Y-212725D02*
G54D17*
D03*
G54D18*
X311150Y-180975D02*
X311150Y-155575D01*
X244475Y-219075D02*
G54D10*
D03*
G36*
X46650Y-124525D02*
X67650Y-124525D01*
X67650Y-148525D01*
X46650Y-148525D01*
X46650Y-124525D01*
G37*
X320675Y-241300D02*
G54D19*
D03*
X222250Y-165100D02*
G54D11*
D03*
G54D18*
X76200Y-206375D02*
X92075Y-206375D01*
X123825Y-238125D01*
X273050Y-238125D01*
G54D18*
X76200Y-257175D02*
X76200Y-276225D01*
X95250Y-295275D01*
X212725Y-295275D01*
G54D18*
X282575Y-139700D02*
X282575Y-117475D01*
X304800Y-95250D01*
X304800Y-66675D01*
X320675Y-50800D01*
G54D18*
X320675Y-276225D02*
X346075Y-250825D01*
X346075Y-215900D01*
X355600Y-206375D01*
X365125Y-206375D01*
G54D18*
X76200Y-231775D02*
X31750Y-231775D01*
X19050Y-244475D01*
X19050Y-377825D01*
X31750Y-390525D01*
X323850Y-390525D01*
X342900Y-371475D01*
X342900Y-333375D01*
X355600Y-320675D01*
X368300Y-320675D01*
X161925Y-269875D02*
G54D21*
D03*
X333375Y-85725D02*
G54D21*
D03*
G54D18*
X222250Y-117475D02*
X142875Y-117475D01*
X123825Y-136525D01*
X76200Y-136525D01*
X463550Y-98425D02*
G54D10*
D03*
X463550Y-117425D02*
G54D10*
D03*
X463550Y-117475D02*
G54D10*
D03*
X666750Y-117475D02*
G54D11*
D03*
X666750Y-140475D02*
G54D11*
D03*
X666750Y-163475D02*
G54D11*
D03*
X728750Y-140475D02*
G54D12*
D03*
X766856Y-17394D02*
G54D13*
D03*
X766856Y-52294D02*
G54D13*
D03*
X501650Y-98425D02*
G54D14*
D03*
X520650Y-98425D02*
G54D14*
D03*
G36*
X591505Y-384475D02*
X583900Y-376870D01*
X583900Y-366080D01*
X591505Y-358475D01*
X602295Y-358475D01*
X609900Y-366080D01*
X609900Y-376870D01*
X602295Y-384475D01*
X591505Y-384475D01*
G37*
G36*
X591505Y-359075D02*
X583900Y-351470D01*
X583900Y-340680D01*
X591505Y-333075D01*
X602295Y-333075D01*
X609900Y-340680D01*
X609900Y-351470D01*
X602295Y-359075D01*
X591505Y-359075D01*
G37*
G36*
X591505Y-333675D02*
X583900Y-326070D01*
X583900Y-315280D01*
X591505Y-307675D01*
X602295Y-307675D01*
X609900Y-315280D01*
X609900Y-326070D01*
X602295Y-333675D01*
X591505Y-333675D01*
G37*
G36*
X591505Y-359075D02*
X583900Y-351470D01*
X583900Y-340680D01*
X591505Y-333075D01*
X602295Y-333075D01*
X609900Y-340680D01*
X609900Y-351470D01*
X602295Y-359075D01*
X591505Y-359075D01*
G37*
X596900Y-212724D02*
G54D15*
D03*
X622300Y-212724D02*
G54D15*
D03*
X647700Y-212724D02*
G54D15*
D03*
X812800Y-320675D02*
G54D15*
D03*
X812800Y-346075D02*
G54D15*
D03*
X812800Y-371475D02*
G54D15*
D03*
X812800Y-206375D02*
G54D15*
D03*
X812800Y-231775D02*
G54D15*
D03*
X812800Y-257175D02*
G54D15*
D03*
G36*
X722425Y-306275D02*
X722425Y-284275D01*
X744425Y-284275D01*
X744425Y-306275D01*
X722425Y-306275D01*
G37*
X733425Y-269875D02*
G54D16*
D03*
X657225Y-269875D02*
G54D16*
D03*
X657225Y-295275D02*
G54D16*
D03*
X765175Y-276225D02*
G54D10*
D03*
X765175Y-295225D02*
G54D10*
D03*
X730250Y-365125D02*
G54D15*
D03*
X755650Y-365125D02*
G54D15*
D03*
X520700Y-53975D02*
G54D17*
D03*
X520700Y-28575D02*
G54D17*
D03*
X812800Y-28575D02*
G54D17*
D03*
X812800Y-53975D02*
G54D17*
D03*
X812800Y-117475D02*
G54D17*
D03*
X812800Y-142875D02*
G54D17*
D03*
G36*
X641650Y-21270D02*
X634045Y-28875D01*
X623255Y-28875D01*
X615650Y-21270D01*
X615650Y-10480D01*
X623255Y-2875D01*
X634045Y-2875D01*
X641650Y-10480D01*
X641650Y-21270D01*
G37*
G36*
X616250Y-21270D02*
X608645Y-28875D01*
X597855Y-28875D01*
X590250Y-21270D01*
X590250Y-10480D01*
X597855Y-2875D01*
X608645Y-2875D01*
X616250Y-10480D01*
X616250Y-21270D01*
G37*
G36*
X590850Y-21270D02*
X583245Y-28875D01*
X572455Y-28875D01*
X564850Y-21270D01*
X564850Y-10480D01*
X572455Y-2875D01*
X583245Y-2875D01*
X590850Y-10480D01*
X590850Y-21270D01*
G37*
G36*
X616250Y-21270D02*
X608645Y-28875D01*
X597855Y-28875D01*
X590250Y-21270D01*
X590250Y-10480D01*
X597855Y-2875D01*
X608645Y-2875D01*
X616250Y-10480D01*
X616250Y-21270D01*
G37*
X641350Y-365125D02*
G54D15*
D03*
X666750Y-365125D02*
G54D15*
D03*
X501650Y-136525D02*
G54D14*
D03*
G36*
X510150Y-124525D02*
X531150Y-124525D01*
X531150Y-148525D01*
X510150Y-148525D01*
X510150Y-124525D01*
G37*
X754156Y-118994D02*
G54D13*
D03*
X754156Y-153894D02*
G54D13*
D03*
X520700Y-180975D02*
G54D17*
D03*
X520700Y-206375D02*
G54D17*
D03*
X520700Y-231775D02*
G54D17*
D03*
X520700Y-257175D02*
G54D17*
D03*
X723900Y-41275D02*
G54D17*
D03*
X698500Y-41275D02*
G54D17*
D03*
X673100Y-41275D02*
G54D17*
D03*
X723900Y-79375D02*
G54D17*
D03*
X698500Y-79375D02*
G54D17*
D03*
X673100Y-79375D02*
G54D17*
D03*
G54D18*
X520700Y-53975D02*
X577850Y-53975D01*
X577850Y-15875D01*
X717550Y-241300D02*
G54D19*
D03*
X740550Y-241300D02*
G54D19*
D03*
X763550Y-241300D02*
G54D19*
D03*
X740550Y-179300D02*
G54D20*
D03*
G54D18*
X673100Y-79375D02*
X673100Y-41275D01*
G54D18*
X565150Y-53975D02*
X673100Y-53975D01*
X673100Y-41275D01*
G54D18*
X698500Y-41275D02*
X698500Y-28575D01*
X711200Y-15875D01*
X800100Y-15875D01*
X812800Y-28575D01*
G54D18*
X733425Y-295275D02*
X768350Y-295275D01*
G54D18*
X520700Y-53975D02*
X520700Y-98425D01*
G54D18*
X463550Y-98425D02*
X501650Y-98425D01*
G54D18*
X520700Y-180975D02*
X520700Y-136525D01*
X688950Y-219100D02*
G54D10*
D03*
X688950Y-238100D02*
G54D10*
D03*
G54D18*
X755650Y-155575D02*
X800100Y-155575D01*
X812800Y-142875D01*
G54D18*
X755650Y-117475D02*
X812800Y-117475D01*
G54D18*
X812800Y-53975D02*
X765175Y-53975D01*
X812800Y-231775D02*
G54D17*
D03*
X812800Y-346075D02*
G54D17*
D03*
X755650Y-365125D02*
G54D17*
D03*
X666750Y-365125D02*
G54D17*
D03*
X520700Y-28575D02*
G54D17*
D03*
X733425Y-269875D02*
G54D17*
D03*
X657225Y-269875D02*
G54D17*
D03*
X622300Y-212725D02*
G54D17*
D03*
G54D18*
X755650Y-180975D02*
X755650Y-155575D01*
X688975Y-219075D02*
G54D10*
D03*
G36*
X491150Y-124525D02*
X512150Y-124525D01*
X512150Y-148525D01*
X491150Y-148525D01*
X491150Y-124525D01*
G37*
X765175Y-241300D02*
G54D19*
D03*
X666750Y-165100D02*
G54D11*
D03*
G54D18*
X520700Y-206375D02*
X536575Y-206375D01*
X568325Y-238125D01*
X717550Y-238125D01*
G54D18*
X520700Y-257175D02*
X520700Y-276225D01*
X539750Y-295275D01*
X657225Y-295275D01*
G54D18*
X727075Y-139700D02*
X727075Y-117475D01*
X749300Y-95250D01*
X749300Y-66675D01*
X765175Y-50800D01*
G54D18*
X765175Y-276225D02*
X790575Y-250825D01*
X790575Y-215900D01*
X800100Y-206375D01*
X809625Y-206375D01*
G54D18*
X520700Y-231775D02*
X476250Y-231775D01*
X463550Y-244475D01*
X463550Y-377825D01*
X476250Y-390525D01*
X768350Y-390525D01*
X787400Y-371475D01*
X787400Y-333375D01*
X800100Y-320675D01*
X812800Y-320675D01*
X606425Y-269875D02*
G54D21*
D03*
X777875Y-85725D02*
G54D21*
D03*
G54D18*
X666750Y-117475D02*
X587375Y-117475D01*
X568325Y-136525D01*
X520700Y-136525D01*
X19050Y-504825D02*
G54D10*
D03*
X19050Y-523825D02*
G54D10*
D03*
X19050Y-523875D02*
G54D10*
D03*
X222250Y-523875D02*
G54D11*
D03*
X222250Y-546875D02*
G54D11*
D03*
X222250Y-569875D02*
G54D11*
D03*
X284250Y-546875D02*
G54D12*
D03*
X322356Y-423794D02*
G54D13*
D03*
X322356Y-458694D02*
G54D13*
D03*
X57150Y-504825D02*
G54D14*
D03*
X76150Y-504825D02*
G54D14*
D03*
G36*
X147005Y-790875D02*
X139400Y-783270D01*
X139400Y-772480D01*
X147005Y-764875D01*
X157795Y-764875D01*
X165400Y-772480D01*
X165400Y-783270D01*
X157795Y-790875D01*
X147005Y-790875D01*
G37*
G36*
X147005Y-765475D02*
X139400Y-757870D01*
X139400Y-747080D01*
X147005Y-739475D01*
X157795Y-739475D01*
X165400Y-747080D01*
X165400Y-757870D01*
X157795Y-765475D01*
X147005Y-765475D01*
G37*
G36*
X147005Y-740075D02*
X139400Y-732470D01*
X139400Y-721680D01*
X147005Y-714075D01*
X157795Y-714075D01*
X165400Y-721680D01*
X165400Y-732470D01*
X157795Y-740075D01*
X147005Y-740075D01*
G37*
G36*
X147005Y-765475D02*
X139400Y-757870D01*
X139400Y-747080D01*
X147005Y-739475D01*
X157795Y-739475D01*
X165400Y-747080D01*
X165400Y-757870D01*
X157795Y-765475D01*
X147005Y-765475D01*
G37*
X152400Y-619124D02*
G54D15*
D03*
X177800Y-619124D02*
G54D15*
D03*
X203200Y-619124D02*
G54D15*
D03*
X368300Y-727075D02*
G54D15*
D03*
X368300Y-752475D02*
G54D15*
D03*
X368300Y-777875D02*
G54D15*
D03*
X368300Y-612775D02*
G54D15*
D03*
X368300Y-638175D02*
G54D15*
D03*
X368300Y-663575D02*
G54D15*
D03*
G36*
X277925Y-712675D02*
X277925Y-690675D01*
X299925Y-690675D01*
X299925Y-712675D01*
X277925Y-712675D01*
G37*
X288925Y-676275D02*
G54D16*
D03*
X212725Y-676275D02*
G54D16*
D03*
X212725Y-701675D02*
G54D16*
D03*
X320675Y-682625D02*
G54D10*
D03*
X320675Y-701625D02*
G54D10*
D03*
X285750Y-771525D02*
G54D15*
D03*
X311150Y-771525D02*
G54D15*
D03*
X76200Y-460375D02*
G54D17*
D03*
X76200Y-434975D02*
G54D17*
D03*
X368300Y-434975D02*
G54D17*
D03*
X368300Y-460375D02*
G54D17*
D03*
X368300Y-523875D02*
G54D17*
D03*
X368300Y-549275D02*
G54D17*
D03*
G36*
X197150Y-427670D02*
X189545Y-435275D01*
X178755Y-435275D01*
X171150Y-427670D01*
X171150Y-416880D01*
X178755Y-409275D01*
X189545Y-409275D01*
X197150Y-416880D01*
X197150Y-427670D01*
G37*
G36*
X171750Y-427670D02*
X164145Y-435275D01*
X153355Y-435275D01*
X145750Y-427670D01*
X145750Y-416880D01*
X153355Y-409275D01*
X164145Y-409275D01*
X171750Y-416880D01*
X171750Y-427670D01*
G37*
G36*
X146350Y-427670D02*
X138745Y-435275D01*
X127955Y-435275D01*
X120350Y-427670D01*
X120350Y-416880D01*
X127955Y-409275D01*
X138745Y-409275D01*
X146350Y-416880D01*
X146350Y-427670D01*
G37*
G36*
X171750Y-427670D02*
X164145Y-435275D01*
X153355Y-435275D01*
X145750Y-427670D01*
X145750Y-416880D01*
X153355Y-409275D01*
X164145Y-409275D01*
X171750Y-416880D01*
X171750Y-427670D01*
G37*
X196850Y-771525D02*
G54D15*
D03*
X222250Y-771525D02*
G54D15*
D03*
X57150Y-542925D02*
G54D14*
D03*
G36*
X65650Y-530925D02*
X86650Y-530925D01*
X86650Y-554925D01*
X65650Y-554925D01*
X65650Y-530925D01*
G37*
X309656Y-525394D02*
G54D13*
D03*
X309656Y-560294D02*
G54D13*
D03*
X76200Y-587375D02*
G54D17*
D03*
X76200Y-612775D02*
G54D17*
D03*
X76200Y-638175D02*
G54D17*
D03*
X76200Y-663575D02*
G54D17*
D03*
X279400Y-447675D02*
G54D17*
D03*
X254000Y-447675D02*
G54D17*
D03*
X228600Y-447675D02*
G54D17*
D03*
X279400Y-485775D02*
G54D17*
D03*
X254000Y-485775D02*
G54D17*
D03*
X228600Y-485775D02*
G54D17*
D03*
G54D18*
X76200Y-460375D02*
X133350Y-460375D01*
X133350Y-422275D01*
X273050Y-647700D02*
G54D19*
D03*
X296050Y-647700D02*
G54D19*
D03*
X319050Y-647700D02*
G54D19*
D03*
X296050Y-585700D02*
G54D20*
D03*
G54D18*
X228600Y-485775D02*
X228600Y-447675D01*
G54D18*
X120650Y-460375D02*
X228600Y-460375D01*
X228600Y-447675D01*
G54D18*
X254000Y-447675D02*
X254000Y-434975D01*
X266700Y-422275D01*
X355600Y-422275D01*
X368300Y-434975D01*
G54D18*
X288925Y-701675D02*
X323850Y-701675D01*
G54D18*
X76200Y-460375D02*
X76200Y-504825D01*
G54D18*
X19050Y-504825D02*
X57150Y-504825D01*
G54D18*
X76200Y-587375D02*
X76200Y-542925D01*
X244450Y-625500D02*
G54D10*
D03*
X244450Y-644500D02*
G54D10*
D03*
G54D18*
X311150Y-561975D02*
X355600Y-561975D01*
X368300Y-549275D01*
G54D18*
X311150Y-523875D02*
X368300Y-523875D01*
G54D18*
X368300Y-460375D02*
X320675Y-460375D01*
X368300Y-638175D02*
G54D17*
D03*
X368300Y-752475D02*
G54D17*
D03*
X311150Y-771525D02*
G54D17*
D03*
X222250Y-771525D02*
G54D17*
D03*
X76200Y-434975D02*
G54D17*
D03*
X288925Y-676275D02*
G54D17*
D03*
X212725Y-676275D02*
G54D17*
D03*
X177800Y-619125D02*
G54D17*
D03*
G54D18*
X311150Y-587375D02*
X311150Y-561975D01*
X244475Y-625475D02*
G54D10*
D03*
X57150Y-542925D02*
G54D14*
D03*
X320675Y-647700D02*
G54D19*
D03*
X222250Y-571500D02*
G54D11*
D03*
G54D18*
X76200Y-612775D02*
X92075Y-612775D01*
X123825Y-644525D01*
X273050Y-644525D01*
G54D18*
X76200Y-663575D02*
X76200Y-682625D01*
X95250Y-701675D01*
X212725Y-701675D01*
G54D18*
X282575Y-546100D02*
X282575Y-523875D01*
X304800Y-501650D01*
X304800Y-473075D01*
X320675Y-457200D01*
G54D18*
X320675Y-682625D02*
X346075Y-657225D01*
X346075Y-622300D01*
X355600Y-612775D01*
X365125Y-612775D01*
G54D18*
X76200Y-638175D02*
X31750Y-638175D01*
X19050Y-650875D01*
X19050Y-784225D01*
X31750Y-796925D01*
X323850Y-796925D01*
X342900Y-777875D01*
X342900Y-739775D01*
X355600Y-727075D01*
X368300Y-727075D01*
X161925Y-676275D02*
G54D21*
D03*
X333375Y-492125D02*
G54D21*
D03*
G54D18*
X222250Y-523875D02*
X142875Y-523875D01*
X123825Y-542925D01*
X76200Y-542925D01*
X463550Y-504825D02*
G54D10*
D03*
X463550Y-523825D02*
G54D10*
D03*
X463550Y-523875D02*
G54D10*
D03*
X666750Y-523875D02*
G54D11*
D03*
X666750Y-546875D02*
G54D11*
D03*
X666750Y-569875D02*
G54D11*
D03*
X728750Y-546875D02*
G54D12*
D03*
X766856Y-423794D02*
G54D13*
D03*
X766856Y-458694D02*
G54D13*
D03*
X501650Y-504825D02*
G54D14*
D03*
X520650Y-504825D02*
G54D14*
D03*
G36*
X591505Y-790875D02*
X583900Y-783270D01*
X583900Y-772480D01*
X591505Y-764875D01*
X602295Y-764875D01*
X609900Y-772480D01*
X609900Y-783270D01*
X602295Y-790875D01*
X591505Y-790875D01*
G37*
G36*
X591505Y-765475D02*
X583900Y-757870D01*
X583900Y-747080D01*
X591505Y-739475D01*
X602295Y-739475D01*
X609900Y-747080D01*
X609900Y-757870D01*
X602295Y-765475D01*
X591505Y-765475D01*
G37*
G36*
X591505Y-740075D02*
X583900Y-732470D01*
X583900Y-721680D01*
X591505Y-714075D01*
X602295Y-714075D01*
X609900Y-721680D01*
X609900Y-732470D01*
X602295Y-740075D01*
X591505Y-740075D01*
G37*
G36*
X591505Y-765475D02*
X583900Y-757870D01*
X583900Y-747080D01*
X591505Y-739475D01*
X602295Y-739475D01*
X609900Y-747080D01*
X609900Y-757870D01*
X602295Y-765475D01*
X591505Y-765475D01*
G37*
X596900Y-619124D02*
G54D15*
D03*
X622300Y-619124D02*
G54D15*
D03*
X647700Y-619124D02*
G54D15*
D03*
X812800Y-727075D02*
G54D15*
D03*
X812800Y-752475D02*
G54D15*
D03*
X812800Y-777875D02*
G54D15*
D03*
X812800Y-612775D02*
G54D15*
D03*
X812800Y-638175D02*
G54D15*
D03*
X812800Y-663575D02*
G54D15*
D03*
G36*
X722425Y-712675D02*
X722425Y-690675D01*
X744425Y-690675D01*
X744425Y-712675D01*
X722425Y-712675D01*
G37*
X733425Y-676275D02*
G54D16*
D03*
X657225Y-676275D02*
G54D16*
D03*
X657225Y-701675D02*
G54D16*
D03*
X765175Y-682625D02*
G54D10*
D03*
X765175Y-701625D02*
G54D10*
D03*
X730250Y-771525D02*
G54D15*
D03*
X755650Y-771525D02*
G54D15*
D03*
X520700Y-460375D02*
G54D17*
D03*
X520700Y-434975D02*
G54D17*
D03*
X812800Y-434975D02*
G54D17*
D03*
X812800Y-460375D02*
G54D17*
D03*
X812800Y-523875D02*
G54D17*
D03*
X812800Y-549275D02*
G54D17*
D03*
G36*
X641650Y-427670D02*
X634045Y-435275D01*
X623255Y-435275D01*
X615650Y-427670D01*
X615650Y-416880D01*
X623255Y-409275D01*
X634045Y-409275D01*
X641650Y-416880D01*
X641650Y-427670D01*
G37*
G36*
X616250Y-427670D02*
X608645Y-435275D01*
X597855Y-435275D01*
X590250Y-427670D01*
X590250Y-416880D01*
X597855Y-409275D01*
X608645Y-409275D01*
X616250Y-416880D01*
X616250Y-427670D01*
G37*
G36*
X590850Y-427670D02*
X583245Y-435275D01*
X572455Y-435275D01*
X564850Y-427670D01*
X564850Y-416880D01*
X572455Y-409275D01*
X583245Y-409275D01*
X590850Y-416880D01*
X590850Y-427670D01*
G37*
G36*
X616250Y-427670D02*
X608645Y-435275D01*
X597855Y-435275D01*
X590250Y-427670D01*
X590250Y-416880D01*
X597855Y-409275D01*
X608645Y-409275D01*
X616250Y-416880D01*
X616250Y-427670D01*
G37*
X641350Y-771525D02*
G54D15*
D03*
X666750Y-771525D02*
G54D15*
D03*
X501650Y-542925D02*
G54D14*
D03*
G36*
X510150Y-530925D02*
X531150Y-530925D01*
X531150Y-554925D01*
X510150Y-554925D01*
X510150Y-530925D01*
G37*
X754156Y-525394D02*
G54D13*
D03*
X754156Y-560294D02*
G54D13*
D03*
X520700Y-587375D02*
G54D17*
D03*
X520700Y-612775D02*
G54D17*
D03*
X520700Y-638175D02*
G54D17*
D03*
X520700Y-663575D02*
G54D17*
D03*
X723900Y-447675D02*
G54D17*
D03*
X698500Y-447675D02*
G54D17*
D03*
X673100Y-447675D02*
G54D17*
D03*
X723900Y-485775D02*
G54D17*
D03*
X698500Y-485775D02*
G54D17*
D03*
X673100Y-485775D02*
G54D17*
D03*
G54D18*
X520700Y-460375D02*
X577850Y-460375D01*
X577850Y-422275D01*
X717550Y-647700D02*
G54D19*
D03*
X740550Y-647700D02*
G54D19*
D03*
X763550Y-647700D02*
G54D19*
D03*
X740550Y-585700D02*
G54D20*
D03*
G54D18*
X673100Y-485775D02*
X673100Y-447675D01*
G54D18*
X565150Y-460375D02*
X673100Y-460375D01*
X673100Y-447675D01*
G54D18*
X698500Y-447675D02*
X698500Y-434975D01*
X711200Y-422275D01*
X800100Y-422275D01*
X812800Y-434975D01*
G54D18*
X733425Y-701675D02*
X768350Y-701675D01*
G54D18*
X520700Y-460375D02*
X520700Y-504825D01*
G54D18*
X463550Y-504825D02*
X501650Y-504825D01*
G54D18*
X520700Y-587375D02*
X520700Y-542925D01*
X688950Y-625500D02*
G54D10*
D03*
X688950Y-644500D02*
G54D10*
D03*
G54D18*
X755650Y-561975D02*
X800100Y-561975D01*
X812800Y-549275D01*
G54D18*
X755650Y-523875D02*
X812800Y-523875D01*
G54D18*
X812800Y-460375D02*
X765175Y-460375D01*
X812800Y-638175D02*
G54D17*
D03*
X812800Y-752475D02*
G54D17*
D03*
X755650Y-771525D02*
G54D17*
D03*
X666750Y-771525D02*
G54D17*
D03*
X520700Y-434975D02*
G54D17*
D03*
X733425Y-676275D02*
G54D17*
D03*
X657225Y-676275D02*
G54D17*
D03*
X622300Y-619125D02*
G54D17*
D03*
G54D18*
X755650Y-587375D02*
X755650Y-561975D01*
X688975Y-625475D02*
G54D10*
D03*
X501650Y-542925D02*
G54D14*
D03*
X765175Y-647700D02*
G54D19*
D03*
X666750Y-571500D02*
G54D11*
D03*
G54D18*
X520700Y-612775D02*
X536575Y-612775D01*
X568325Y-644525D01*
X717550Y-644525D01*
G54D18*
X520700Y-663575D02*
X520700Y-682625D01*
X539750Y-701675D01*
X657225Y-701675D01*
G54D18*
X727075Y-546100D02*
X727075Y-523875D01*
X749300Y-501650D01*
X749300Y-473075D01*
X765175Y-457200D01*
G54D18*
X765175Y-682625D02*
X790575Y-657225D01*
X790575Y-622300D01*
X800100Y-612775D01*
X809625Y-612775D01*
G54D18*
X520700Y-638175D02*
X476250Y-638175D01*
X463550Y-650875D01*
X463550Y-784225D01*
X476250Y-796925D01*
X768350Y-796925D01*
X787400Y-777875D01*
X787400Y-739775D01*
X800100Y-727075D01*
X812800Y-727075D01*
X606425Y-676275D02*
G54D21*
D03*
X777875Y-492125D02*
G54D21*
D03*
G54D18*
X666750Y-523875D02*
X587375Y-523875D01*
X568325Y-542925D01*
X520700Y-542925D01*
%LPD*%
G54D22*
G36*
X21216Y-117475D02*
X21217Y-128475D01*
X16884Y-128475D01*
X16884Y-117475D01*
X21216Y-117475D01*
G37*
G54D23*
G36*
X152400Y-349075D02*
X138900Y-349075D01*
X138900Y-343075D01*
X152400Y-343075D01*
X152400Y-349075D01*
G37*
G36*
X152400Y-343075D02*
X165900Y-343075D01*
X165900Y-349075D01*
X152400Y-349075D01*
X152400Y-343075D01*
G37*
G54D23*
G36*
X161750Y-15875D02*
X161750Y-29375D01*
X155750Y-29375D01*
X155750Y-15875D01*
X161750Y-15875D01*
G37*
G36*
X155750Y-15875D02*
X155750Y-2375D01*
X161750Y-2375D01*
X161750Y-15875D01*
X155750Y-15875D01*
G37*
G54D23*
G36*
X368300Y-228775D02*
X382800Y-228775D01*
X382800Y-234775D01*
X368300Y-234775D01*
X368300Y-228775D01*
G37*
G36*
X368300Y-234775D02*
X353800Y-234775D01*
X353800Y-228775D01*
X368300Y-228775D01*
X368300Y-234775D01*
G37*
G54D23*
G36*
X368300Y-343075D02*
X382800Y-343075D01*
X382800Y-349075D01*
X368300Y-349075D01*
X368300Y-343075D01*
G37*
G36*
X368300Y-349075D02*
X353800Y-349075D01*
X353800Y-343075D01*
X368300Y-343075D01*
X368300Y-349075D01*
G37*
G54D23*
G36*
X308150Y-365125D02*
X308150Y-350625D01*
X314150Y-350625D01*
X314150Y-365125D01*
X308150Y-365125D01*
G37*
G36*
X311150Y-362125D02*
X325650Y-362125D01*
X325650Y-368125D01*
X311150Y-368125D01*
X311150Y-362125D01*
G37*
G36*
X314150Y-365125D02*
X314150Y-379625D01*
X308150Y-379625D01*
X308150Y-365125D01*
X314150Y-365125D01*
G37*
G54D23*
G36*
X219250Y-365125D02*
X219250Y-350625D01*
X225250Y-350625D01*
X225250Y-365125D01*
X219250Y-365125D01*
G37*
G36*
X222250Y-362125D02*
X236750Y-362125D01*
X236750Y-368125D01*
X222250Y-368125D01*
X222250Y-362125D01*
G37*
G36*
X225250Y-365125D02*
X225250Y-379625D01*
X219250Y-379625D01*
X219250Y-365125D01*
X225250Y-365125D01*
G37*
G54D23*
G36*
X73200Y-28575D02*
X73200Y-14075D01*
X79200Y-14075D01*
X79200Y-28575D01*
X73200Y-28575D01*
G37*
G36*
X76200Y-25575D02*
X90700Y-25575D01*
X90700Y-31575D01*
X76200Y-31575D01*
X76200Y-25575D01*
G37*
G36*
X76200Y-31575D02*
X61700Y-31575D01*
X61700Y-25575D01*
X76200Y-25575D01*
X76200Y-31575D01*
G37*
G54D23*
G36*
X288925Y-266875D02*
X303425Y-266875D01*
X303425Y-272875D01*
X288925Y-272875D01*
X288925Y-266875D01*
G37*
G36*
X288925Y-272875D02*
X274425Y-272875D01*
X274425Y-266875D01*
X288925Y-266875D01*
X288925Y-272875D01*
G37*
G54D23*
G36*
X212725Y-266875D02*
X227225Y-266875D01*
X227225Y-272875D01*
X212725Y-272875D01*
X212725Y-266875D01*
G37*
G36*
X212725Y-272875D02*
X198225Y-272875D01*
X198225Y-266875D01*
X212725Y-266875D01*
X212725Y-272875D01*
G37*
G54D23*
G36*
X174800Y-212725D02*
X174800Y-198225D01*
X180800Y-198225D01*
X180800Y-212725D01*
X174800Y-212725D01*
G37*
G36*
X180800Y-212725D02*
X180800Y-227225D01*
X174800Y-227225D01*
X174800Y-212725D01*
X180800Y-212725D01*
G37*
G54D22*
G36*
X242308Y-219075D02*
X242308Y-208075D01*
X246641Y-208075D01*
X246642Y-219075D01*
X242308Y-219075D01*
G37*
G54D22*
G36*
X57150Y-138692D02*
X46150Y-138692D01*
X46150Y-134359D01*
X57150Y-134358D01*
X57150Y-138692D01*
G37*
G54D24*
G36*
X320675Y-239300D02*
X331175Y-239300D01*
X331175Y-243300D01*
X320675Y-243300D01*
X320675Y-239300D01*
G37*
G54D24*
G36*
X224250Y-165100D02*
X224250Y-175600D01*
X220250Y-175600D01*
X220250Y-165100D01*
X224250Y-165100D01*
G37*
G54D22*
G36*
X465716Y-117475D02*
X465717Y-128475D01*
X461384Y-128475D01*
X461384Y-117475D01*
X465716Y-117475D01*
G37*
G54D23*
G36*
X596900Y-349075D02*
X583400Y-349075D01*
X583400Y-343075D01*
X596900Y-343075D01*
X596900Y-349075D01*
G37*
G36*
X596900Y-343075D02*
X610400Y-343075D01*
X610400Y-349075D01*
X596900Y-349075D01*
X596900Y-343075D01*
G37*
G54D23*
G36*
X606250Y-15875D02*
X606250Y-29375D01*
X600250Y-29375D01*
X600250Y-15875D01*
X606250Y-15875D01*
G37*
G36*
X600250Y-15875D02*
X600250Y-2375D01*
X606250Y-2375D01*
X606250Y-15875D01*
X600250Y-15875D01*
G37*
G54D23*
G36*
X812800Y-228775D02*
X827300Y-228775D01*
X827300Y-234775D01*
X812800Y-234775D01*
X812800Y-228775D01*
G37*
G36*
X812800Y-234775D02*
X798300Y-234775D01*
X798300Y-228775D01*
X812800Y-228775D01*
X812800Y-234775D01*
G37*
G54D23*
G36*
X812800Y-343075D02*
X827300Y-343075D01*
X827300Y-349075D01*
X812800Y-349075D01*
X812800Y-343075D01*
G37*
G36*
X812800Y-349075D02*
X798300Y-349075D01*
X798300Y-343075D01*
X812800Y-343075D01*
X812800Y-349075D01*
G37*
G54D23*
G36*
X752650Y-365125D02*
X752650Y-350625D01*
X758650Y-350625D01*
X758650Y-365125D01*
X752650Y-365125D01*
G37*
G36*
X755650Y-362125D02*
X770150Y-362125D01*
X770150Y-368125D01*
X755650Y-368125D01*
X755650Y-362125D01*
G37*
G36*
X758650Y-365125D02*
X758650Y-379625D01*
X752650Y-379625D01*
X752650Y-365125D01*
X758650Y-365125D01*
G37*
G54D23*
G36*
X663750Y-365125D02*
X663750Y-350625D01*
X669750Y-350625D01*
X669750Y-365125D01*
X663750Y-365125D01*
G37*
G36*
X666750Y-362125D02*
X681250Y-362125D01*
X681250Y-368125D01*
X666750Y-368125D01*
X666750Y-362125D01*
G37*
G36*
X669750Y-365125D02*
X669750Y-379625D01*
X663750Y-379625D01*
X663750Y-365125D01*
X669750Y-365125D01*
G37*
G54D23*
G36*
X517700Y-28575D02*
X517700Y-14075D01*
X523700Y-14075D01*
X523700Y-28575D01*
X517700Y-28575D01*
G37*
G36*
X520700Y-25575D02*
X535200Y-25575D01*
X535200Y-31575D01*
X520700Y-31575D01*
X520700Y-25575D01*
G37*
G36*
X520700Y-31575D02*
X506200Y-31575D01*
X506200Y-25575D01*
X520700Y-25575D01*
X520700Y-31575D01*
G37*
G54D23*
G36*
X733425Y-266875D02*
X747925Y-266875D01*
X747925Y-272875D01*
X733425Y-272875D01*
X733425Y-266875D01*
G37*
G36*
X733425Y-272875D02*
X718925Y-272875D01*
X718925Y-266875D01*
X733425Y-266875D01*
X733425Y-272875D01*
G37*
G54D23*
G36*
X657225Y-266875D02*
X671725Y-266875D01*
X671725Y-272875D01*
X657225Y-272875D01*
X657225Y-266875D01*
G37*
G36*
X657225Y-272875D02*
X642725Y-272875D01*
X642725Y-266875D01*
X657225Y-266875D01*
X657225Y-272875D01*
G37*
G54D23*
G36*
X619300Y-212725D02*
X619300Y-198225D01*
X625300Y-198225D01*
X625300Y-212725D01*
X619300Y-212725D01*
G37*
G36*
X625300Y-212725D02*
X625300Y-227225D01*
X619300Y-227225D01*
X619300Y-212725D01*
X625300Y-212725D01*
G37*
G54D22*
G36*
X686808Y-219075D02*
X686808Y-208075D01*
X691141Y-208075D01*
X691142Y-219075D01*
X686808Y-219075D01*
G37*
G54D22*
G36*
X501650Y-138692D02*
X490650Y-138692D01*
X490650Y-134359D01*
X501650Y-134358D01*
X501650Y-138692D01*
G37*
G54D24*
G36*
X765175Y-239300D02*
X775675Y-239300D01*
X775675Y-243300D01*
X765175Y-243300D01*
X765175Y-239300D01*
G37*
G54D24*
G36*
X668750Y-165100D02*
X668750Y-175600D01*
X664750Y-175600D01*
X664750Y-165100D01*
X668750Y-165100D01*
G37*
G54D22*
G36*
X21216Y-523875D02*
X21217Y-534875D01*
X16884Y-534875D01*
X16884Y-523875D01*
X21216Y-523875D01*
G37*
G54D23*
G36*
X152400Y-755475D02*
X138900Y-755475D01*
X138900Y-749475D01*
X152400Y-749475D01*
X152400Y-755475D01*
G37*
G36*
X152400Y-749475D02*
X165900Y-749475D01*
X165900Y-755475D01*
X152400Y-755475D01*
X152400Y-749475D01*
G37*
G54D23*
G36*
X161750Y-422275D02*
X161750Y-435775D01*
X155750Y-435775D01*
X155750Y-422275D01*
X161750Y-422275D01*
G37*
G36*
X155750Y-422275D02*
X155750Y-408775D01*
X161750Y-408775D01*
X161750Y-422275D01*
X155750Y-422275D01*
G37*
G54D23*
G36*
X368300Y-635175D02*
X382800Y-635175D01*
X382800Y-641175D01*
X368300Y-641175D01*
X368300Y-635175D01*
G37*
G36*
X368300Y-641175D02*
X353800Y-641175D01*
X353800Y-635175D01*
X368300Y-635175D01*
X368300Y-641175D01*
G37*
G54D23*
G36*
X368300Y-749475D02*
X382800Y-749475D01*
X382800Y-755475D01*
X368300Y-755475D01*
X368300Y-749475D01*
G37*
G36*
X368300Y-755475D02*
X353800Y-755475D01*
X353800Y-749475D01*
X368300Y-749475D01*
X368300Y-755475D01*
G37*
G54D23*
G36*
X308150Y-771525D02*
X308150Y-757025D01*
X314150Y-757025D01*
X314150Y-771525D01*
X308150Y-771525D01*
G37*
G36*
X311150Y-768525D02*
X325650Y-768525D01*
X325650Y-774525D01*
X311150Y-774525D01*
X311150Y-768525D01*
G37*
G36*
X314150Y-771525D02*
X314150Y-786025D01*
X308150Y-786025D01*
X308150Y-771525D01*
X314150Y-771525D01*
G37*
G54D23*
G36*
X219250Y-771525D02*
X219250Y-757025D01*
X225250Y-757025D01*
X225250Y-771525D01*
X219250Y-771525D01*
G37*
G36*
X222250Y-768525D02*
X236750Y-768525D01*
X236750Y-774525D01*
X222250Y-774525D01*
X222250Y-768525D01*
G37*
G36*
X225250Y-771525D02*
X225250Y-786025D01*
X219250Y-786025D01*
X219250Y-771525D01*
X225250Y-771525D01*
G37*
G54D23*
G36*
X73200Y-434975D02*
X73200Y-420475D01*
X79200Y-420475D01*
X79200Y-434975D01*
X73200Y-434975D01*
G37*
G36*
X76200Y-431975D02*
X90700Y-431975D01*
X90700Y-437975D01*
X76200Y-437975D01*
X76200Y-431975D01*
G37*
G36*
X76200Y-437975D02*
X61700Y-437975D01*
X61700Y-431975D01*
X76200Y-431975D01*
X76200Y-437975D01*
G37*
G54D23*
G36*
X288925Y-673275D02*
X303425Y-673275D01*
X303425Y-679275D01*
X288925Y-679275D01*
X288925Y-673275D01*
G37*
G36*
X288925Y-679275D02*
X274425Y-679275D01*
X274425Y-673275D01*
X288925Y-673275D01*
X288925Y-679275D01*
G37*
G54D23*
G36*
X212725Y-673275D02*
X227225Y-673275D01*
X227225Y-679275D01*
X212725Y-679275D01*
X212725Y-673275D01*
G37*
G36*
X212725Y-679275D02*
X198225Y-679275D01*
X198225Y-673275D01*
X212725Y-673275D01*
X212725Y-679275D01*
G37*
G54D23*
G36*
X174800Y-619125D02*
X174800Y-604625D01*
X180800Y-604625D01*
X180800Y-619125D01*
X174800Y-619125D01*
G37*
G36*
X180800Y-619125D02*
X180800Y-633625D01*
X174800Y-633625D01*
X174800Y-619125D01*
X180800Y-619125D01*
G37*
G54D22*
G36*
X242308Y-625475D02*
X242308Y-614475D01*
X246641Y-614475D01*
X246641Y-625475D01*
X242308Y-625475D01*
G37*
G54D22*
G36*
X57150Y-545092D02*
X46150Y-545092D01*
X46150Y-540758D01*
X57150Y-540758D01*
X57150Y-545092D01*
G37*
G54D24*
G36*
X320675Y-645700D02*
X331175Y-645700D01*
X331175Y-649700D01*
X320675Y-649700D01*
X320675Y-645700D01*
G37*
G54D24*
G36*
X224250Y-571500D02*
X224250Y-582000D01*
X220250Y-582000D01*
X220250Y-571500D01*
X224250Y-571500D01*
G37*
G54D22*
G36*
X465716Y-523875D02*
X465717Y-534875D01*
X461384Y-534875D01*
X461384Y-523875D01*
X465716Y-523875D01*
G37*
G54D23*
G36*
X596900Y-755475D02*
X583400Y-755475D01*
X583400Y-749475D01*
X596900Y-749475D01*
X596900Y-755475D01*
G37*
G36*
X596900Y-749475D02*
X610400Y-749475D01*
X610400Y-755475D01*
X596900Y-755475D01*
X596900Y-749475D01*
G37*
G54D23*
G36*
X606250Y-422275D02*
X606250Y-435775D01*
X600250Y-435775D01*
X600250Y-422275D01*
X606250Y-422275D01*
G37*
G36*
X600250Y-422275D02*
X600250Y-408775D01*
X606250Y-408775D01*
X606250Y-422275D01*
X600250Y-422275D01*
G37*
G54D23*
G36*
X812800Y-635175D02*
X827300Y-635175D01*
X827300Y-641175D01*
X812800Y-641175D01*
X812800Y-635175D01*
G37*
G36*
X812800Y-641175D02*
X798300Y-641175D01*
X798300Y-635175D01*
X812800Y-635175D01*
X812800Y-641175D01*
G37*
G54D23*
G36*
X812800Y-749475D02*
X827300Y-749475D01*
X827300Y-755475D01*
X812800Y-755475D01*
X812800Y-749475D01*
G37*
G36*
X812800Y-755475D02*
X798300Y-755475D01*
X798300Y-749475D01*
X812800Y-749475D01*
X812800Y-755475D01*
G37*
G54D23*
G36*
X752650Y-771525D02*
X752650Y-757025D01*
X758650Y-757025D01*
X758650Y-771525D01*
X752650Y-771525D01*
G37*
G36*
X755650Y-768525D02*
X770150Y-768525D01*
X770150Y-774525D01*
X755650Y-774525D01*
X755650Y-768525D01*
G37*
G36*
X758650Y-771525D02*
X758650Y-786025D01*
X752650Y-786025D01*
X752650Y-771525D01*
X758650Y-771525D01*
G37*
G54D23*
G36*
X663750Y-771525D02*
X663750Y-757025D01*
X669750Y-757025D01*
X669750Y-771525D01*
X663750Y-771525D01*
G37*
G36*
X666750Y-768525D02*
X681250Y-768525D01*
X681250Y-774525D01*
X666750Y-774525D01*
X666750Y-768525D01*
G37*
G36*
X669750Y-771525D02*
X669750Y-786025D01*
X663750Y-786025D01*
X663750Y-771525D01*
X669750Y-771525D01*
G37*
G54D23*
G36*
X517700Y-434975D02*
X517700Y-420475D01*
X523700Y-420475D01*
X523700Y-434975D01*
X517700Y-434975D01*
G37*
G36*
X520700Y-431975D02*
X535200Y-431975D01*
X535200Y-437975D01*
X520700Y-437975D01*
X520700Y-431975D01*
G37*
G36*
X520700Y-437975D02*
X506200Y-437975D01*
X506200Y-431975D01*
X520700Y-431975D01*
X520700Y-437975D01*
G37*
G54D23*
G36*
X733425Y-673275D02*
X747925Y-673275D01*
X747925Y-679275D01*
X733425Y-679275D01*
X733425Y-673275D01*
G37*
G36*
X733425Y-679275D02*
X718925Y-679275D01*
X718925Y-673275D01*
X733425Y-673275D01*
X733425Y-679275D01*
G37*
G54D23*
G36*
X657225Y-673275D02*
X671725Y-673275D01*
X671725Y-679275D01*
X657225Y-679275D01*
X657225Y-673275D01*
G37*
G36*
X657225Y-679275D02*
X642725Y-679275D01*
X642725Y-673275D01*
X657225Y-673275D01*
X657225Y-679275D01*
G37*
G54D23*
G36*
X619300Y-619125D02*
X619300Y-604625D01*
X625300Y-604625D01*
X625300Y-619125D01*
X619300Y-619125D01*
G37*
G36*
X625300Y-619125D02*
X625300Y-633625D01*
X619300Y-633625D01*
X619300Y-619125D01*
X625300Y-619125D01*
G37*
G54D22*
G36*
X686808Y-625475D02*
X686808Y-614475D01*
X691141Y-614475D01*
X691142Y-625475D01*
X686808Y-625475D01*
G37*
G54D22*
G36*
X501650Y-545092D02*
X490650Y-545092D01*
X490650Y-540758D01*
X501650Y-540758D01*
X501650Y-545092D01*
G37*
G54D24*
G36*
X765175Y-645700D02*
X775675Y-645700D01*
X775675Y-649700D01*
X765175Y-649700D01*
X765175Y-645700D01*
G37*
G54D24*
G36*
X668750Y-571500D02*
X668750Y-582000D01*
X664750Y-582000D01*
X664750Y-571500D01*
X668750Y-571500D01*
G37*
X19050Y-98425D02*
G54D25*
D03*
X19050Y-117425D02*
G54D25*
D03*
X19050Y-117475D02*
G54D25*
D03*
X222250Y-117475D02*
G54D26*
D03*
X222250Y-140475D02*
G54D26*
D03*
X222250Y-163475D02*
G54D26*
D03*
X284250Y-140475D02*
G54D27*
D03*
X322356Y-17394D02*
G54D28*
D03*
X322356Y-52294D02*
G54D28*
D03*
X57150Y-98425D02*
G54D29*
D03*
X76150Y-98425D02*
G54D29*
D03*
G36*
X148665Y-380475D02*
X143400Y-375210D01*
X143400Y-367740D01*
X148665Y-362475D01*
X156135Y-362475D01*
X161400Y-367740D01*
X161400Y-375210D01*
X156135Y-380475D01*
X148665Y-380475D01*
G37*
G36*
X148665Y-355075D02*
X143400Y-349810D01*
X143400Y-342340D01*
X148665Y-337075D01*
X156135Y-337075D01*
X161400Y-342340D01*
X161400Y-349810D01*
X156135Y-355075D01*
X148665Y-355075D01*
G37*
G36*
X148665Y-329675D02*
X143400Y-324410D01*
X143400Y-316940D01*
X148665Y-311675D01*
X156135Y-311675D01*
X161400Y-316940D01*
X161400Y-324410D01*
X156135Y-329675D01*
X148665Y-329675D01*
G37*
G36*
X148665Y-355075D02*
X143400Y-349810D01*
X143400Y-342340D01*
X148665Y-337075D01*
X156135Y-337075D01*
X161400Y-342340D01*
X161400Y-349810D01*
X156135Y-355075D01*
X148665Y-355075D01*
G37*
X152400Y-212724D02*
G54D30*
D03*
X177800Y-212724D02*
G54D30*
D03*
X203200Y-212724D02*
G54D30*
D03*
X368300Y-320675D02*
G54D30*
D03*
X368300Y-346075D02*
G54D30*
D03*
X368300Y-371475D02*
G54D30*
D03*
X368300Y-206375D02*
G54D30*
D03*
X368300Y-231775D02*
G54D30*
D03*
X368300Y-257175D02*
G54D30*
D03*
G36*
X281925Y-302275D02*
X281925Y-288275D01*
X295925Y-288275D01*
X295925Y-302275D01*
X281925Y-302275D01*
G37*
X288925Y-269875D02*
G54D31*
D03*
X212725Y-269875D02*
G54D31*
D03*
X212725Y-295275D02*
G54D31*
D03*
X320675Y-276225D02*
G54D25*
D03*
X320675Y-295225D02*
G54D25*
D03*
X285750Y-365125D02*
G54D30*
D03*
X311150Y-365125D02*
G54D30*
D03*
X76200Y-53975D02*
G54D30*
D03*
X76200Y-28575D02*
G54D30*
D03*
X368300Y-28575D02*
G54D30*
D03*
X368300Y-53975D02*
G54D30*
D03*
X368300Y-117475D02*
G54D30*
D03*
X368300Y-142875D02*
G54D30*
D03*
G36*
X193150Y-19610D02*
X187885Y-24875D01*
X180415Y-24875D01*
X175150Y-19610D01*
X175150Y-12140D01*
X180415Y-6875D01*
X187885Y-6875D01*
X193150Y-12140D01*
X193150Y-19610D01*
G37*
G36*
X167750Y-19610D02*
X162485Y-24875D01*
X155015Y-24875D01*
X149750Y-19610D01*
X149750Y-12140D01*
X155015Y-6875D01*
X162485Y-6875D01*
X167750Y-12140D01*
X167750Y-19610D01*
G37*
G36*
X142350Y-19610D02*
X137085Y-24875D01*
X129615Y-24875D01*
X124350Y-19610D01*
X124350Y-12140D01*
X129615Y-6875D01*
X137085Y-6875D01*
X142350Y-12140D01*
X142350Y-19610D01*
G37*
G36*
X167750Y-19610D02*
X162485Y-24875D01*
X155015Y-24875D01*
X149750Y-19610D01*
X149750Y-12140D01*
X155015Y-6875D01*
X162485Y-6875D01*
X167750Y-12140D01*
X167750Y-19610D01*
G37*
X196850Y-365125D02*
G54D30*
D03*
X222250Y-365125D02*
G54D30*
D03*
X57150Y-136525D02*
G54D29*
D03*
G36*
X69650Y-128525D02*
X82650Y-128525D01*
X82650Y-144525D01*
X69650Y-144525D01*
X69650Y-128525D01*
G37*
X309656Y-118994D02*
G54D28*
D03*
X309656Y-153894D02*
G54D28*
D03*
X76200Y-180975D02*
G54D30*
D03*
X76200Y-206375D02*
G54D30*
D03*
X76200Y-231775D02*
G54D30*
D03*
X76200Y-257175D02*
G54D30*
D03*
X279400Y-41275D02*
G54D30*
D03*
X254000Y-41275D02*
G54D30*
D03*
X228600Y-41275D02*
G54D30*
D03*
X279400Y-79375D02*
G54D30*
D03*
X254000Y-79375D02*
G54D30*
D03*
X228600Y-79375D02*
G54D30*
D03*
G54D32*
X76200Y-53975D02*
X133350Y-53975D01*
X133350Y-15875D01*
X273050Y-241300D02*
G54D33*
D03*
X296050Y-241300D02*
G54D33*
D03*
X319050Y-241300D02*
G54D33*
D03*
X296050Y-179300D02*
G54D34*
D03*
G54D32*
X228600Y-79375D02*
X228600Y-41275D01*
G54D32*
X120650Y-53975D02*
X228600Y-53975D01*
X228600Y-41275D01*
G54D32*
X254000Y-41275D02*
X254000Y-28575D01*
X266700Y-15875D01*
X355600Y-15875D01*
X368300Y-28575D01*
G54D32*
X288925Y-295275D02*
X323850Y-295275D01*
G54D32*
X76200Y-53975D02*
X76200Y-98425D01*
G54D32*
X19050Y-98425D02*
X57150Y-98425D01*
G54D32*
X76200Y-180975D02*
X76200Y-136525D01*
X244450Y-219100D02*
G54D25*
D03*
X244450Y-238100D02*
G54D25*
D03*
G54D32*
X311150Y-155575D02*
X355600Y-155575D01*
X368300Y-142875D01*
G54D32*
X311150Y-117475D02*
X368300Y-117475D01*
G54D32*
X368300Y-53975D02*
X320675Y-53975D01*
X368300Y-231775D02*
G54D30*
D03*
X368300Y-346075D02*
G54D30*
D03*
X311150Y-365125D02*
G54D30*
D03*
X222250Y-365125D02*
G54D30*
D03*
X76200Y-28575D02*
G54D30*
D03*
X288925Y-269875D02*
G54D30*
D03*
X212725Y-269875D02*
G54D30*
D03*
X177800Y-212725D02*
G54D30*
D03*
G54D32*
X311150Y-180975D02*
X311150Y-155575D01*
X244475Y-219075D02*
G54D25*
D03*
G36*
X50650Y-128525D02*
X63650Y-128525D01*
X63650Y-144525D01*
X50650Y-144525D01*
X50650Y-128525D01*
G37*
X320675Y-241300D02*
G54D33*
D03*
X222250Y-165100D02*
G54D26*
D03*
G54D32*
X76200Y-206375D02*
X92075Y-206375D01*
X123825Y-238125D01*
X273050Y-238125D01*
G54D32*
X76200Y-257175D02*
X76200Y-276225D01*
X95250Y-295275D01*
X212725Y-295275D01*
G54D32*
X282575Y-139700D02*
X282575Y-117475D01*
X304800Y-95250D01*
X304800Y-66675D01*
X320675Y-50800D01*
G54D32*
X320675Y-276225D02*
X346075Y-250825D01*
X346075Y-215900D01*
X355600Y-206375D01*
X365125Y-206375D01*
G54D32*
X76200Y-231775D02*
X31750Y-231775D01*
X19050Y-244475D01*
X19050Y-377825D01*
X31750Y-390525D01*
X323850Y-390525D01*
X342900Y-371475D01*
X342900Y-333375D01*
X355600Y-320675D01*
X368300Y-320675D01*
G54D32*
X222250Y-117475D02*
X142875Y-117475D01*
X123825Y-136525D01*
X76200Y-136525D01*
X463550Y-98425D02*
G54D25*
D03*
X463550Y-117425D02*
G54D25*
D03*
X463550Y-117475D02*
G54D25*
D03*
X666750Y-117475D02*
G54D26*
D03*
X666750Y-140475D02*
G54D26*
D03*
X666750Y-163475D02*
G54D26*
D03*
X728750Y-140475D02*
G54D27*
D03*
X766856Y-17394D02*
G54D28*
D03*
X766856Y-52294D02*
G54D28*
D03*
X501650Y-98425D02*
G54D29*
D03*
X520650Y-98425D02*
G54D29*
D03*
G36*
X593165Y-380475D02*
X587900Y-375210D01*
X587900Y-367740D01*
X593165Y-362475D01*
X600635Y-362475D01*
X605900Y-367740D01*
X605900Y-375210D01*
X600635Y-380475D01*
X593165Y-380475D01*
G37*
G36*
X593165Y-355075D02*
X587900Y-349810D01*
X587900Y-342340D01*
X593165Y-337075D01*
X600635Y-337075D01*
X605900Y-342340D01*
X605900Y-349810D01*
X600635Y-355075D01*
X593165Y-355075D01*
G37*
G36*
X593165Y-329675D02*
X587900Y-324410D01*
X587900Y-316940D01*
X593165Y-311675D01*
X600635Y-311675D01*
X605900Y-316940D01*
X605900Y-324410D01*
X600635Y-329675D01*
X593165Y-329675D01*
G37*
G36*
X593165Y-355075D02*
X587900Y-349810D01*
X587900Y-342340D01*
X593165Y-337075D01*
X600635Y-337075D01*
X605900Y-342340D01*
X605900Y-349810D01*
X600635Y-355075D01*
X593165Y-355075D01*
G37*
X596900Y-212724D02*
G54D30*
D03*
X622300Y-212724D02*
G54D30*
D03*
X647700Y-212724D02*
G54D30*
D03*
X812800Y-320675D02*
G54D30*
D03*
X812800Y-346075D02*
G54D30*
D03*
X812800Y-371475D02*
G54D30*
D03*
X812800Y-206375D02*
G54D30*
D03*
X812800Y-231775D02*
G54D30*
D03*
X812800Y-257175D02*
G54D30*
D03*
G36*
X726425Y-302275D02*
X726425Y-288275D01*
X740425Y-288275D01*
X740425Y-302275D01*
X726425Y-302275D01*
G37*
X733425Y-269875D02*
G54D31*
D03*
X657225Y-269875D02*
G54D31*
D03*
X657225Y-295275D02*
G54D31*
D03*
X765175Y-276225D02*
G54D25*
D03*
X765175Y-295225D02*
G54D25*
D03*
X730250Y-365125D02*
G54D30*
D03*
X755650Y-365125D02*
G54D30*
D03*
X520700Y-53975D02*
G54D30*
D03*
X520700Y-28575D02*
G54D30*
D03*
X812800Y-28575D02*
G54D30*
D03*
X812800Y-53975D02*
G54D30*
D03*
X812800Y-117475D02*
G54D30*
D03*
X812800Y-142875D02*
G54D30*
D03*
G36*
X637650Y-19610D02*
X632385Y-24875D01*
X624915Y-24875D01*
X619650Y-19610D01*
X619650Y-12140D01*
X624915Y-6875D01*
X632385Y-6875D01*
X637650Y-12140D01*
X637650Y-19610D01*
G37*
G36*
X612250Y-19610D02*
X606985Y-24875D01*
X599515Y-24875D01*
X594250Y-19610D01*
X594250Y-12140D01*
X599515Y-6875D01*
X606985Y-6875D01*
X612250Y-12140D01*
X612250Y-19610D01*
G37*
G36*
X586850Y-19610D02*
X581585Y-24875D01*
X574115Y-24875D01*
X568850Y-19610D01*
X568850Y-12140D01*
X574115Y-6875D01*
X581585Y-6875D01*
X586850Y-12140D01*
X586850Y-19610D01*
G37*
G36*
X612250Y-19610D02*
X606985Y-24875D01*
X599515Y-24875D01*
X594250Y-19610D01*
X594250Y-12140D01*
X599515Y-6875D01*
X606985Y-6875D01*
X612250Y-12140D01*
X612250Y-19610D01*
G37*
X641350Y-365125D02*
G54D30*
D03*
X666750Y-365125D02*
G54D30*
D03*
X501650Y-136525D02*
G54D29*
D03*
G36*
X514150Y-128525D02*
X527150Y-128525D01*
X527150Y-144525D01*
X514150Y-144525D01*
X514150Y-128525D01*
G37*
X754156Y-118994D02*
G54D28*
D03*
X754156Y-153894D02*
G54D28*
D03*
X520700Y-180975D02*
G54D30*
D03*
X520700Y-206375D02*
G54D30*
D03*
X520700Y-231775D02*
G54D30*
D03*
X520700Y-257175D02*
G54D30*
D03*
X723900Y-41275D02*
G54D30*
D03*
X698500Y-41275D02*
G54D30*
D03*
X673100Y-41275D02*
G54D30*
D03*
X723900Y-79375D02*
G54D30*
D03*
X698500Y-79375D02*
G54D30*
D03*
X673100Y-79375D02*
G54D30*
D03*
G54D32*
X520700Y-53975D02*
X577850Y-53975D01*
X577850Y-15875D01*
X717550Y-241300D02*
G54D33*
D03*
X740550Y-241300D02*
G54D33*
D03*
X763550Y-241300D02*
G54D33*
D03*
X740550Y-179300D02*
G54D34*
D03*
G54D32*
X673100Y-79375D02*
X673100Y-41275D01*
G54D32*
X565150Y-53975D02*
X673100Y-53975D01*
X673100Y-41275D01*
G54D32*
X698500Y-41275D02*
X698500Y-28575D01*
X711200Y-15875D01*
X800100Y-15875D01*
X812800Y-28575D01*
G54D32*
X733425Y-295275D02*
X768350Y-295275D01*
G54D32*
X520700Y-53975D02*
X520700Y-98425D01*
G54D32*
X463550Y-98425D02*
X501650Y-98425D01*
G54D32*
X520700Y-180975D02*
X520700Y-136525D01*
X688950Y-219100D02*
G54D25*
D03*
X688950Y-238100D02*
G54D25*
D03*
G54D32*
X755650Y-155575D02*
X800100Y-155575D01*
X812800Y-142875D01*
G54D32*
X755650Y-117475D02*
X812800Y-117475D01*
G54D32*
X812800Y-53975D02*
X765175Y-53975D01*
X812800Y-231775D02*
G54D30*
D03*
X812800Y-346075D02*
G54D30*
D03*
X755650Y-365125D02*
G54D30*
D03*
X666750Y-365125D02*
G54D30*
D03*
X520700Y-28575D02*
G54D30*
D03*
X733425Y-269875D02*
G54D30*
D03*
X657225Y-269875D02*
G54D30*
D03*
X622300Y-212725D02*
G54D30*
D03*
G54D32*
X755650Y-180975D02*
X755650Y-155575D01*
X688975Y-219075D02*
G54D25*
D03*
G36*
X495150Y-128525D02*
X508150Y-128525D01*
X508150Y-144525D01*
X495150Y-144525D01*
X495150Y-128525D01*
G37*
X765175Y-241300D02*
G54D33*
D03*
X666750Y-165100D02*
G54D26*
D03*
G54D32*
X520700Y-206375D02*
X536575Y-206375D01*
X568325Y-238125D01*
X717550Y-238125D01*
G54D32*
X520700Y-257175D02*
X520700Y-276225D01*
X539750Y-295275D01*
X657225Y-295275D01*
G54D32*
X727075Y-139700D02*
X727075Y-117475D01*
X749300Y-95250D01*
X749300Y-66675D01*
X765175Y-50800D01*
G54D32*
X765175Y-276225D02*
X790575Y-250825D01*
X790575Y-215900D01*
X800100Y-206375D01*
X809625Y-206375D01*
G54D32*
X520700Y-231775D02*
X476250Y-231775D01*
X463550Y-244475D01*
X463550Y-377825D01*
X476250Y-390525D01*
X768350Y-390525D01*
X787400Y-371475D01*
X787400Y-333375D01*
X800100Y-320675D01*
X812800Y-320675D01*
G54D32*
X666750Y-117475D02*
X587375Y-117475D01*
X568325Y-136525D01*
X520700Y-136525D01*
X19050Y-504825D02*
G54D25*
D03*
X19050Y-523825D02*
G54D25*
D03*
X19050Y-523875D02*
G54D25*
D03*
X222250Y-523875D02*
G54D26*
D03*
X222250Y-546875D02*
G54D26*
D03*
X222250Y-569875D02*
G54D26*
D03*
X284250Y-546875D02*
G54D27*
D03*
X322356Y-423794D02*
G54D28*
D03*
X322356Y-458694D02*
G54D28*
D03*
X57150Y-504825D02*
G54D29*
D03*
X76150Y-504825D02*
G54D29*
D03*
G36*
X148665Y-786875D02*
X143400Y-781610D01*
X143400Y-774140D01*
X148665Y-768875D01*
X156135Y-768875D01*
X161400Y-774140D01*
X161400Y-781610D01*
X156135Y-786875D01*
X148665Y-786875D01*
G37*
G36*
X148665Y-761475D02*
X143400Y-756210D01*
X143400Y-748740D01*
X148665Y-743475D01*
X156135Y-743475D01*
X161400Y-748740D01*
X161400Y-756210D01*
X156135Y-761475D01*
X148665Y-761475D01*
G37*
G36*
X148665Y-736075D02*
X143400Y-730810D01*
X143400Y-723340D01*
X148665Y-718075D01*
X156135Y-718075D01*
X161400Y-723340D01*
X161400Y-730810D01*
X156135Y-736075D01*
X148665Y-736075D01*
G37*
G36*
X148665Y-761475D02*
X143400Y-756210D01*
X143400Y-748740D01*
X148665Y-743475D01*
X156135Y-743475D01*
X161400Y-748740D01*
X161400Y-756210D01*
X156135Y-761475D01*
X148665Y-761475D01*
G37*
X152400Y-619124D02*
G54D30*
D03*
X177800Y-619124D02*
G54D30*
D03*
X203200Y-619124D02*
G54D30*
D03*
X368300Y-727075D02*
G54D30*
D03*
X368300Y-752475D02*
G54D30*
D03*
X368300Y-777875D02*
G54D30*
D03*
X368300Y-612775D02*
G54D30*
D03*
X368300Y-638175D02*
G54D30*
D03*
X368300Y-663575D02*
G54D30*
D03*
G36*
X281925Y-708675D02*
X281925Y-694675D01*
X295925Y-694675D01*
X295925Y-708675D01*
X281925Y-708675D01*
G37*
X288925Y-676275D02*
G54D31*
D03*
X212725Y-676275D02*
G54D31*
D03*
X212725Y-701675D02*
G54D31*
D03*
X320675Y-682625D02*
G54D25*
D03*
X320675Y-701625D02*
G54D25*
D03*
X285750Y-771525D02*
G54D30*
D03*
X311150Y-771525D02*
G54D30*
D03*
X76200Y-460375D02*
G54D30*
D03*
X76200Y-434975D02*
G54D30*
D03*
X368300Y-434975D02*
G54D30*
D03*
X368300Y-460375D02*
G54D30*
D03*
X368300Y-523875D02*
G54D30*
D03*
X368300Y-549275D02*
G54D30*
D03*
G36*
X193150Y-426010D02*
X187885Y-431275D01*
X180415Y-431275D01*
X175150Y-426010D01*
X175150Y-418540D01*
X180415Y-413275D01*
X187885Y-413275D01*
X193150Y-418540D01*
X193150Y-426010D01*
G37*
G36*
X167750Y-426010D02*
X162485Y-431275D01*
X155015Y-431275D01*
X149750Y-426010D01*
X149750Y-418540D01*
X155015Y-413275D01*
X162485Y-413275D01*
X167750Y-418540D01*
X167750Y-426010D01*
G37*
G36*
X142350Y-426010D02*
X137085Y-431275D01*
X129615Y-431275D01*
X124350Y-426010D01*
X124350Y-418540D01*
X129615Y-413275D01*
X137085Y-413275D01*
X142350Y-418540D01*
X142350Y-426010D01*
G37*
G36*
X167750Y-426010D02*
X162485Y-431275D01*
X155015Y-431275D01*
X149750Y-426010D01*
X149750Y-418540D01*
X155015Y-413275D01*
X162485Y-413275D01*
X167750Y-418540D01*
X167750Y-426010D01*
G37*
X196850Y-771525D02*
G54D30*
D03*
X222250Y-771525D02*
G54D30*
D03*
X57150Y-542925D02*
G54D29*
D03*
G36*
X69650Y-534925D02*
X82650Y-534925D01*
X82650Y-550925D01*
X69650Y-550925D01*
X69650Y-534925D01*
G37*
X309656Y-525394D02*
G54D28*
D03*
X309656Y-560294D02*
G54D28*
D03*
X76200Y-587375D02*
G54D30*
D03*
X76200Y-612775D02*
G54D30*
D03*
X76200Y-638175D02*
G54D30*
D03*
X76200Y-663575D02*
G54D30*
D03*
X279400Y-447675D02*
G54D30*
D03*
X254000Y-447675D02*
G54D30*
D03*
X228600Y-447675D02*
G54D30*
D03*
X279400Y-485775D02*
G54D30*
D03*
X254000Y-485775D02*
G54D30*
D03*
X228600Y-485775D02*
G54D30*
D03*
G54D32*
X76200Y-460375D02*
X133350Y-460375D01*
X133350Y-422275D01*
X273050Y-647700D02*
G54D33*
D03*
X296050Y-647700D02*
G54D33*
D03*
X319050Y-647700D02*
G54D33*
D03*
X296050Y-585700D02*
G54D34*
D03*
G54D32*
X228600Y-485775D02*
X228600Y-447675D01*
G54D32*
X120650Y-460375D02*
X228600Y-460375D01*
X228600Y-447675D01*
G54D32*
X254000Y-447675D02*
X254000Y-434975D01*
X266700Y-422275D01*
X355600Y-422275D01*
X368300Y-434975D01*
G54D32*
X288925Y-701675D02*
X323850Y-701675D01*
G54D32*
X76200Y-460375D02*
X76200Y-504825D01*
G54D32*
X19050Y-504825D02*
X57150Y-504825D01*
G54D32*
X76200Y-587375D02*
X76200Y-542925D01*
X244450Y-625500D02*
G54D25*
D03*
X244450Y-644500D02*
G54D25*
D03*
G54D32*
X311150Y-561975D02*
X355600Y-561975D01*
X368300Y-549275D01*
G54D32*
X311150Y-523875D02*
X368300Y-523875D01*
G54D32*
X368300Y-460375D02*
X320675Y-460375D01*
X368300Y-638175D02*
G54D30*
D03*
X368300Y-752475D02*
G54D30*
D03*
X311150Y-771525D02*
G54D30*
D03*
X222250Y-771525D02*
G54D30*
D03*
X76200Y-434975D02*
G54D30*
D03*
X288925Y-676275D02*
G54D30*
D03*
X212725Y-676275D02*
G54D30*
D03*
X177800Y-619125D02*
G54D30*
D03*
G54D32*
X311150Y-587375D02*
X311150Y-561975D01*
X244475Y-625475D02*
G54D25*
D03*
X57150Y-542925D02*
G54D29*
D03*
X320675Y-647700D02*
G54D33*
D03*
X222250Y-571500D02*
G54D26*
D03*
G54D32*
X76200Y-612775D02*
X92075Y-612775D01*
X123825Y-644525D01*
X273050Y-644525D01*
G54D32*
X76200Y-663575D02*
X76200Y-682625D01*
X95250Y-701675D01*
X212725Y-701675D01*
G54D32*
X282575Y-546100D02*
X282575Y-523875D01*
X304800Y-501650D01*
X304800Y-473075D01*
X320675Y-457200D01*
G54D32*
X320675Y-682625D02*
X346075Y-657225D01*
X346075Y-622300D01*
X355600Y-612775D01*
X365125Y-612775D01*
G54D32*
X76200Y-638175D02*
X31750Y-638175D01*
X19050Y-650875D01*
X19050Y-784225D01*
X31750Y-796925D01*
X323850Y-796925D01*
X342900Y-777875D01*
X342900Y-739775D01*
X355600Y-727075D01*
X368300Y-727075D01*
G54D32*
X222250Y-523875D02*
X142875Y-523875D01*
X123825Y-542925D01*
X76200Y-542925D01*
X463550Y-504825D02*
G54D25*
D03*
X463550Y-523825D02*
G54D25*
D03*
X463550Y-523875D02*
G54D25*
D03*
X666750Y-523875D02*
G54D26*
D03*
X666750Y-546875D02*
G54D26*
D03*
X666750Y-569875D02*
G54D26*
D03*
X728750Y-546875D02*
G54D27*
D03*
X766856Y-423794D02*
G54D28*
D03*
X766856Y-458694D02*
G54D28*
D03*
X501650Y-504825D02*
G54D29*
D03*
X520650Y-504825D02*
G54D29*
D03*
G36*
X593165Y-786875D02*
X587900Y-781610D01*
X587900Y-774140D01*
X593165Y-768875D01*
X600635Y-768875D01*
X605900Y-774140D01*
X605900Y-781610D01*
X600635Y-786875D01*
X593165Y-786875D01*
G37*
G36*
X593165Y-761475D02*
X587900Y-756210D01*
X587900Y-748740D01*
X593165Y-743475D01*
X600635Y-743475D01*
X605900Y-748740D01*
X605900Y-756210D01*
X600635Y-761475D01*
X593165Y-761475D01*
G37*
G36*
X593165Y-736075D02*
X587900Y-730810D01*
X587900Y-723340D01*
X593165Y-718075D01*
X600635Y-718075D01*
X605900Y-723340D01*
X605900Y-730810D01*
X600635Y-736075D01*
X593165Y-736075D01*
G37*
G36*
X593165Y-761475D02*
X587900Y-756210D01*
X587900Y-748740D01*
X593165Y-743475D01*
X600635Y-743475D01*
X605900Y-748740D01*
X605900Y-756210D01*
X600635Y-761475D01*
X593165Y-761475D01*
G37*
X596900Y-619124D02*
G54D30*
D03*
X622300Y-619124D02*
G54D30*
D03*
X647700Y-619124D02*
G54D30*
D03*
X812800Y-727075D02*
G54D30*
D03*
X812800Y-752475D02*
G54D30*
D03*
X812800Y-777875D02*
G54D30*
D03*
X812800Y-612775D02*
G54D30*
D03*
X812800Y-638175D02*
G54D30*
D03*
X812800Y-663575D02*
G54D30*
D03*
G36*
X726425Y-708675D02*
X726425Y-694675D01*
X740425Y-694675D01*
X740425Y-708675D01*
X726425Y-708675D01*
G37*
X733425Y-676275D02*
G54D31*
D03*
X657225Y-676275D02*
G54D31*
D03*
X657225Y-701675D02*
G54D31*
D03*
X765175Y-682625D02*
G54D25*
D03*
X765175Y-701625D02*
G54D25*
D03*
X730250Y-771525D02*
G54D30*
D03*
X755650Y-771525D02*
G54D30*
D03*
X520700Y-460375D02*
G54D30*
D03*
X520700Y-434975D02*
G54D30*
D03*
X812800Y-434975D02*
G54D30*
D03*
X812800Y-460375D02*
G54D30*
D03*
X812800Y-523875D02*
G54D30*
D03*
X812800Y-549275D02*
G54D30*
D03*
G36*
X637650Y-426010D02*
X632385Y-431275D01*
X624915Y-431275D01*
X619650Y-426010D01*
X619650Y-418540D01*
X624915Y-413275D01*
X632385Y-413275D01*
X637650Y-418540D01*
X637650Y-426010D01*
G37*
G36*
X612250Y-426010D02*
X606985Y-431275D01*
X599515Y-431275D01*
X594250Y-426010D01*
X594250Y-418540D01*
X599515Y-413275D01*
X606985Y-413275D01*
X612250Y-418540D01*
X612250Y-426010D01*
G37*
G36*
X586850Y-426010D02*
X581585Y-431275D01*
X574115Y-431275D01*
X568850Y-426010D01*
X568850Y-418540D01*
X574115Y-413275D01*
X581585Y-413275D01*
X586850Y-418540D01*
X586850Y-426010D01*
G37*
G36*
X612250Y-426010D02*
X606985Y-431275D01*
X599515Y-431275D01*
X594250Y-426010D01*
X594250Y-418540D01*
X599515Y-413275D01*
X606985Y-413275D01*
X612250Y-418540D01*
X612250Y-426010D01*
G37*
X641350Y-771525D02*
G54D30*
D03*
X666750Y-771525D02*
G54D30*
D03*
X501650Y-542925D02*
G54D29*
D03*
G36*
X514150Y-534925D02*
X527150Y-534925D01*
X527150Y-550925D01*
X514150Y-550925D01*
X514150Y-534925D01*
G37*
X754156Y-525394D02*
G54D28*
D03*
X754156Y-560294D02*
G54D28*
D03*
X520700Y-587375D02*
G54D30*
D03*
X520700Y-612775D02*
G54D30*
D03*
X520700Y-638175D02*
G54D30*
D03*
X520700Y-663575D02*
G54D30*
D03*
X723900Y-447675D02*
G54D30*
D03*
X698500Y-447675D02*
G54D30*
D03*
X673100Y-447675D02*
G54D30*
D03*
X723900Y-485775D02*
G54D30*
D03*
X698500Y-485775D02*
G54D30*
D03*
X673100Y-485775D02*
G54D30*
D03*
G54D32*
X520700Y-460375D02*
X577850Y-460375D01*
X577850Y-422275D01*
X717550Y-647700D02*
G54D33*
D03*
X740550Y-647700D02*
G54D33*
D03*
X763550Y-647700D02*
G54D33*
D03*
X740550Y-585700D02*
G54D34*
D03*
G54D32*
X673100Y-485775D02*
X673100Y-447675D01*
G54D32*
X565150Y-460375D02*
X673100Y-460375D01*
X673100Y-447675D01*
G54D32*
X698500Y-447675D02*
X698500Y-434975D01*
X711200Y-422275D01*
X800100Y-422275D01*
X812800Y-434975D01*
G54D32*
X733425Y-701675D02*
X768350Y-701675D01*
G54D32*
X520700Y-460375D02*
X520700Y-504825D01*
G54D32*
X463550Y-504825D02*
X501650Y-504825D01*
G54D32*
X520700Y-587375D02*
X520700Y-542925D01*
X688950Y-625500D02*
G54D25*
D03*
X688950Y-644500D02*
G54D25*
D03*
G54D32*
X755650Y-561975D02*
X800100Y-561975D01*
X812800Y-549275D01*
G54D32*
X755650Y-523875D02*
X812800Y-523875D01*
G54D32*
X812800Y-460375D02*
X765175Y-460375D01*
X812800Y-638175D02*
G54D30*
D03*
X812800Y-752475D02*
G54D30*
D03*
X755650Y-771525D02*
G54D30*
D03*
X666750Y-771525D02*
G54D30*
D03*
X520700Y-434975D02*
G54D30*
D03*
X733425Y-676275D02*
G54D30*
D03*
X657225Y-676275D02*
G54D30*
D03*
X622300Y-619125D02*
G54D30*
D03*
G54D32*
X755650Y-587375D02*
X755650Y-561975D01*
X688975Y-625475D02*
G54D25*
D03*
X501650Y-542925D02*
G54D29*
D03*
X765175Y-647700D02*
G54D33*
D03*
X666750Y-571500D02*
G54D26*
D03*
G54D32*
X520700Y-612775D02*
X536575Y-612775D01*
X568325Y-644525D01*
X717550Y-644525D01*
G54D32*
X520700Y-663575D02*
X520700Y-682625D01*
X539750Y-701675D01*
X657225Y-701675D01*
G54D32*
X727075Y-546100D02*
X727075Y-523875D01*
X749300Y-501650D01*
X749300Y-473075D01*
X765175Y-457200D01*
G54D32*
X765175Y-682625D02*
X790575Y-657225D01*
X790575Y-622300D01*
X800100Y-612775D01*
X809625Y-612775D01*
G54D32*
X520700Y-638175D02*
X476250Y-638175D01*
X463550Y-650875D01*
X463550Y-784225D01*
X476250Y-796925D01*
X768350Y-796925D01*
X787400Y-777875D01*
X787400Y-739775D01*
X800100Y-727075D01*
X812800Y-727075D01*
G54D32*
X666750Y-523875D02*
X587375Y-523875D01*
X568325Y-542925D01*
X520700Y-542925D01*
M02*
