%FSLAX34Y34*%
%MOMM*%
%LNCOPPER_TOP*%
G71*
G01*
%ADD10C, 2.00*%
%ADD11C, 0.10*%
%ADD12C, 7.00*%
%LPD*%
G36*
X257300Y759700D02*
X248525Y768475D01*
X248525Y780925D01*
X257300Y789700D01*
X269750Y789700D01*
X278525Y780925D01*
X278525Y768475D01*
X269750Y759700D01*
X257300Y759700D01*
G37*
G36*
X257300Y810500D02*
X248525Y819275D01*
X248525Y831725D01*
X257300Y840500D01*
X269750Y840500D01*
X278525Y831725D01*
X278525Y819275D01*
X269750Y810500D01*
X257300Y810500D01*
G37*
G36*
X257300Y861300D02*
X248525Y870075D01*
X248525Y882525D01*
X257300Y891300D01*
X269750Y891300D01*
X278525Y882525D01*
X278525Y870075D01*
X269750Y861300D01*
X257300Y861300D01*
G37*
G36*
X257300Y912100D02*
X248525Y920875D01*
X248525Y933325D01*
X257300Y942100D01*
X269750Y942100D01*
X278525Y933325D01*
X278525Y920875D01*
X269750Y912100D01*
X257300Y912100D01*
G37*
X187325Y928688D02*
G54D10*
D03*
X187325Y927100D02*
G54D10*
D03*
X187325Y925512D02*
G54D10*
D03*
X187325Y923925D02*
G54D10*
D03*
X187325Y922338D02*
G54D10*
D03*
X187325Y920750D02*
G54D10*
D03*
X187325Y919162D02*
G54D10*
D03*
X187325Y917575D02*
G54D10*
D03*
X187325Y915988D02*
G54D10*
D03*
X187325Y914400D02*
G54D10*
D03*
X187325Y912812D02*
G54D10*
D03*
X152400Y928688D02*
G54D10*
D03*
X152400Y927100D02*
G54D10*
D03*
X152400Y925512D02*
G54D10*
D03*
X152400Y923925D02*
G54D10*
D03*
X152400Y922338D02*
G54D10*
D03*
X152400Y920750D02*
G54D10*
D03*
X152400Y919162D02*
G54D10*
D03*
X152400Y917575D02*
G54D10*
D03*
X152400Y915988D02*
G54D10*
D03*
X152400Y914400D02*
G54D10*
D03*
X152400Y912812D02*
G54D10*
D03*
X187325Y788988D02*
G54D10*
D03*
X187325Y787400D02*
G54D10*
D03*
X187325Y785812D02*
G54D10*
D03*
X187325Y784225D02*
G54D10*
D03*
X187325Y782638D02*
G54D10*
D03*
X187325Y781050D02*
G54D10*
D03*
X187325Y779462D02*
G54D10*
D03*
X187325Y777875D02*
G54D10*
D03*
X187325Y776288D02*
G54D10*
D03*
X187325Y774700D02*
G54D10*
D03*
X187325Y773112D02*
G54D10*
D03*
X152400Y787400D02*
G54D10*
D03*
X152400Y788988D02*
G54D10*
D03*
X152400Y785812D02*
G54D10*
D03*
X152400Y784225D02*
G54D10*
D03*
X152400Y782638D02*
G54D10*
D03*
X152400Y781050D02*
G54D10*
D03*
X152400Y779462D02*
G54D10*
D03*
X152400Y777875D02*
G54D10*
D03*
X152400Y776288D02*
G54D10*
D03*
X152400Y774700D02*
G54D10*
D03*
X152400Y773112D02*
G54D10*
D03*
G36*
X301625Y889000D02*
X295275Y895350D01*
X219075Y895350D01*
X212725Y889000D01*
X212725Y812800D01*
X219075Y806450D01*
X295275Y806450D01*
X301625Y812800D01*
X301625Y889000D01*
G37*
G54D11*
X301625Y889000D02*
X295275Y895350D01*
X219075Y895350D01*
X212725Y889000D01*
X212725Y812800D01*
X219075Y806450D01*
X295275Y806450D01*
X301625Y812800D01*
X301625Y889000D01*
G36*
X295275Y908050D02*
X301625Y914400D01*
X301625Y946150D01*
X295275Y952500D01*
X142875Y952500D01*
X136525Y946150D01*
X136525Y908050D01*
X295275Y908050D01*
G37*
G54D11*
X295275Y908050D02*
X301625Y914400D01*
X301625Y946150D01*
X295275Y952500D01*
X142875Y952500D01*
X136525Y946150D01*
X136525Y908050D01*
X295275Y908050D01*
G36*
X301625Y787400D02*
X295275Y793750D01*
X136525Y793750D01*
X136525Y755650D01*
X142875Y749300D01*
X295275Y749300D01*
X301625Y755650D01*
X301625Y787400D01*
G37*
G54D11*
X301625Y787400D02*
X295275Y793750D01*
X136525Y793750D01*
X136525Y755650D01*
X142875Y749300D01*
X295275Y749300D01*
X301625Y755650D01*
X301625Y787400D01*
G36*
X136525Y908050D02*
X136525Y901700D01*
X142875Y895350D01*
X200025Y895350D01*
X206375Y901700D01*
X206375Y908050D01*
X136525Y908050D01*
G37*
G54D11*
X136525Y908050D02*
X136525Y901700D01*
X142875Y895350D01*
X200025Y895350D01*
X206375Y901700D01*
X206375Y908050D01*
X136525Y908050D01*
G36*
X136525Y793750D02*
X136525Y800100D01*
X142875Y806450D01*
X200025Y806450D01*
X206375Y800100D01*
X206375Y793750D01*
X136525Y793750D01*
G37*
G54D11*
X136525Y793750D02*
X136525Y800100D01*
X142875Y806450D01*
X200025Y806450D01*
X206375Y800100D01*
X206375Y793750D01*
X136525Y793750D01*
X73025Y914400D02*
G54D12*
D03*
X73025Y711200D02*
G54D12*
D03*
G36*
X136525Y946150D02*
X301625Y946150D01*
X301625Y971550D01*
X295275Y977900D01*
X142875Y977900D01*
X136525Y971550D01*
X136525Y946150D01*
G37*
G54D11*
X136525Y946150D02*
X301625Y946150D01*
X301625Y971550D01*
X295275Y977900D01*
X142875Y977900D01*
X136525Y971550D01*
X136525Y946150D01*
G36*
X301625Y755650D02*
X301625Y730250D01*
X295275Y723900D01*
X142875Y723900D01*
X136525Y730250D01*
X136525Y755650D01*
X301625Y755650D01*
G37*
G54D11*
X301625Y755650D02*
X301625Y730250D01*
X295275Y723900D01*
X142875Y723900D01*
X136525Y730250D01*
X136525Y755650D01*
X301625Y755650D01*
G36*
X536700Y759700D02*
X527925Y768475D01*
X527925Y780925D01*
X536700Y789700D01*
X549150Y789700D01*
X557925Y780925D01*
X557925Y768475D01*
X549150Y759700D01*
X536700Y759700D01*
G37*
G36*
X536700Y810500D02*
X527925Y819275D01*
X527925Y831725D01*
X536700Y840500D01*
X549150Y840500D01*
X557925Y831725D01*
X557925Y819275D01*
X549150Y810500D01*
X536700Y810500D01*
G37*
G36*
X536700Y861300D02*
X527925Y870075D01*
X527925Y882525D01*
X536700Y891300D01*
X549150Y891300D01*
X557925Y882525D01*
X557925Y870075D01*
X549150Y861300D01*
X536700Y861300D01*
G37*
G36*
X536700Y912100D02*
X527925Y920875D01*
X527925Y933325D01*
X536700Y942100D01*
X549150Y942100D01*
X557925Y933325D01*
X557925Y920875D01*
X549150Y912100D01*
X536700Y912100D01*
G37*
X466725Y928688D02*
G54D10*
D03*
X466725Y927100D02*
G54D10*
D03*
X466725Y925512D02*
G54D10*
D03*
X466725Y923925D02*
G54D10*
D03*
X466725Y922338D02*
G54D10*
D03*
X466725Y920750D02*
G54D10*
D03*
X466725Y919162D02*
G54D10*
D03*
X466725Y917575D02*
G54D10*
D03*
X466725Y915988D02*
G54D10*
D03*
X466725Y914400D02*
G54D10*
D03*
X466725Y912812D02*
G54D10*
D03*
X431800Y928688D02*
G54D10*
D03*
X431800Y927100D02*
G54D10*
D03*
X431800Y925512D02*
G54D10*
D03*
X431800Y923925D02*
G54D10*
D03*
X431800Y922338D02*
G54D10*
D03*
X431800Y920750D02*
G54D10*
D03*
X431800Y919162D02*
G54D10*
D03*
X431800Y917575D02*
G54D10*
D03*
X431800Y915988D02*
G54D10*
D03*
X431800Y914400D02*
G54D10*
D03*
X431800Y912812D02*
G54D10*
D03*
X466725Y788988D02*
G54D10*
D03*
X466725Y787400D02*
G54D10*
D03*
X466725Y785812D02*
G54D10*
D03*
X466725Y784225D02*
G54D10*
D03*
X466725Y782638D02*
G54D10*
D03*
X466725Y781050D02*
G54D10*
D03*
X466725Y779462D02*
G54D10*
D03*
X466725Y777875D02*
G54D10*
D03*
X466725Y776288D02*
G54D10*
D03*
X466725Y774700D02*
G54D10*
D03*
X466725Y773112D02*
G54D10*
D03*
X431800Y787400D02*
G54D10*
D03*
X431800Y788988D02*
G54D10*
D03*
X431800Y785812D02*
G54D10*
D03*
X431800Y784225D02*
G54D10*
D03*
X431800Y782638D02*
G54D10*
D03*
X431800Y781050D02*
G54D10*
D03*
X431800Y779462D02*
G54D10*
D03*
X431800Y777875D02*
G54D10*
D03*
X431800Y776288D02*
G54D10*
D03*
X431800Y774700D02*
G54D10*
D03*
X431800Y773112D02*
G54D10*
D03*
G36*
X581025Y889000D02*
X574675Y895350D01*
X498475Y895350D01*
X492125Y889000D01*
X492125Y812800D01*
X498475Y806450D01*
X574675Y806450D01*
X581025Y812800D01*
X581025Y889000D01*
G37*
G54D11*
X581025Y889000D02*
X574675Y895350D01*
X498475Y895350D01*
X492125Y889000D01*
X492125Y812800D01*
X498475Y806450D01*
X574675Y806450D01*
X581025Y812800D01*
X581025Y889000D01*
G36*
X574675Y908050D02*
X581025Y914400D01*
X581025Y946150D01*
X574675Y952500D01*
X422275Y952500D01*
X415925Y946150D01*
X415925Y908050D01*
X574675Y908050D01*
G37*
G54D11*
X574675Y908050D02*
X581025Y914400D01*
X581025Y946150D01*
X574675Y952500D01*
X422275Y952500D01*
X415925Y946150D01*
X415925Y908050D01*
X574675Y908050D01*
G36*
X581025Y787400D02*
X574675Y793750D01*
X415925Y793750D01*
X415925Y755650D01*
X422275Y749300D01*
X574675Y749300D01*
X581025Y755650D01*
X581025Y787400D01*
G37*
G54D11*
X581025Y787400D02*
X574675Y793750D01*
X415925Y793750D01*
X415925Y755650D01*
X422275Y749300D01*
X574675Y749300D01*
X581025Y755650D01*
X581025Y787400D01*
G36*
X415925Y908050D02*
X415925Y901700D01*
X422275Y895350D01*
X479425Y895350D01*
X485775Y901700D01*
X485775Y908050D01*
X415925Y908050D01*
G37*
G54D11*
X415925Y908050D02*
X415925Y901700D01*
X422275Y895350D01*
X479425Y895350D01*
X485775Y901700D01*
X485775Y908050D01*
X415925Y908050D01*
G36*
X415925Y793750D02*
X415925Y800100D01*
X422275Y806450D01*
X479425Y806450D01*
X485775Y800100D01*
X485775Y793750D01*
X415925Y793750D01*
G37*
G54D11*
X415925Y793750D02*
X415925Y800100D01*
X422275Y806450D01*
X479425Y806450D01*
X485775Y800100D01*
X485775Y793750D01*
X415925Y793750D01*
X352425Y914400D02*
G54D12*
D03*
X352425Y711200D02*
G54D12*
D03*
G36*
X415925Y946150D02*
X581025Y946150D01*
X581025Y971550D01*
X574675Y977900D01*
X422275Y977900D01*
X415925Y971550D01*
X415925Y946150D01*
G37*
G54D11*
X415925Y946150D02*
X581025Y946150D01*
X581025Y971550D01*
X574675Y977900D01*
X422275Y977900D01*
X415925Y971550D01*
X415925Y946150D01*
G36*
X581025Y755650D02*
X581025Y730250D01*
X574675Y723900D01*
X422275Y723900D01*
X415925Y730250D01*
X415925Y755650D01*
X581025Y755650D01*
G37*
G54D11*
X581025Y755650D02*
X581025Y730250D01*
X574675Y723900D01*
X422275Y723900D01*
X415925Y730250D01*
X415925Y755650D01*
X581025Y755650D01*
G36*
X816100Y759700D02*
X807325Y768475D01*
X807325Y780925D01*
X816100Y789700D01*
X828550Y789700D01*
X837325Y780925D01*
X837325Y768475D01*
X828550Y759700D01*
X816100Y759700D01*
G37*
G36*
X816100Y810500D02*
X807325Y819275D01*
X807325Y831725D01*
X816100Y840500D01*
X828550Y840500D01*
X837325Y831725D01*
X837325Y819275D01*
X828550Y810500D01*
X816100Y810500D01*
G37*
G36*
X816100Y861300D02*
X807325Y870075D01*
X807325Y882525D01*
X816100Y891300D01*
X828550Y891300D01*
X837325Y882525D01*
X837325Y870075D01*
X828550Y861300D01*
X816100Y861300D01*
G37*
G36*
X816100Y912100D02*
X807325Y920875D01*
X807325Y933325D01*
X816100Y942100D01*
X828550Y942100D01*
X837325Y933325D01*
X837325Y920875D01*
X828550Y912100D01*
X816100Y912100D01*
G37*
X746125Y928688D02*
G54D10*
D03*
X746125Y927100D02*
G54D10*
D03*
X746125Y925512D02*
G54D10*
D03*
X746125Y923925D02*
G54D10*
D03*
X746125Y922338D02*
G54D10*
D03*
X746125Y920750D02*
G54D10*
D03*
X746125Y919162D02*
G54D10*
D03*
X746125Y917575D02*
G54D10*
D03*
X746125Y915988D02*
G54D10*
D03*
X746125Y914400D02*
G54D10*
D03*
X746125Y912812D02*
G54D10*
D03*
X711200Y928688D02*
G54D10*
D03*
X711200Y927100D02*
G54D10*
D03*
X711200Y925512D02*
G54D10*
D03*
X711200Y923925D02*
G54D10*
D03*
X711200Y922338D02*
G54D10*
D03*
X711200Y920750D02*
G54D10*
D03*
X711200Y919162D02*
G54D10*
D03*
X711200Y917575D02*
G54D10*
D03*
X711200Y915988D02*
G54D10*
D03*
X711200Y914400D02*
G54D10*
D03*
X711200Y912812D02*
G54D10*
D03*
X746125Y788988D02*
G54D10*
D03*
X746125Y787400D02*
G54D10*
D03*
X746125Y785812D02*
G54D10*
D03*
X746125Y784225D02*
G54D10*
D03*
X746125Y782638D02*
G54D10*
D03*
X746125Y781050D02*
G54D10*
D03*
X746125Y779462D02*
G54D10*
D03*
X746125Y777875D02*
G54D10*
D03*
X746125Y776288D02*
G54D10*
D03*
X746125Y774700D02*
G54D10*
D03*
X746125Y773112D02*
G54D10*
D03*
X711200Y787400D02*
G54D10*
D03*
X711200Y788988D02*
G54D10*
D03*
X711200Y785812D02*
G54D10*
D03*
X711200Y784225D02*
G54D10*
D03*
X711200Y782638D02*
G54D10*
D03*
X711200Y781050D02*
G54D10*
D03*
X711200Y779462D02*
G54D10*
D03*
X711200Y777875D02*
G54D10*
D03*
X711200Y776288D02*
G54D10*
D03*
X711200Y774700D02*
G54D10*
D03*
X711200Y773112D02*
G54D10*
D03*
G36*
X860425Y889000D02*
X854075Y895350D01*
X777875Y895350D01*
X771525Y889000D01*
X771525Y812800D01*
X777875Y806450D01*
X854075Y806450D01*
X860425Y812800D01*
X860425Y889000D01*
G37*
G54D11*
X860425Y889000D02*
X854075Y895350D01*
X777875Y895350D01*
X771525Y889000D01*
X771525Y812800D01*
X777875Y806450D01*
X854075Y806450D01*
X860425Y812800D01*
X860425Y889000D01*
G36*
X854075Y908050D02*
X860425Y914400D01*
X860425Y946150D01*
X854075Y952500D01*
X701675Y952500D01*
X695325Y946150D01*
X695325Y908050D01*
X854075Y908050D01*
G37*
G54D11*
X854075Y908050D02*
X860425Y914400D01*
X860425Y946150D01*
X854075Y952500D01*
X701675Y952500D01*
X695325Y946150D01*
X695325Y908050D01*
X854075Y908050D01*
G36*
X860425Y787400D02*
X854075Y793750D01*
X695325Y793750D01*
X695325Y755650D01*
X701675Y749300D01*
X854075Y749300D01*
X860425Y755650D01*
X860425Y787400D01*
G37*
G54D11*
X860425Y787400D02*
X854075Y793750D01*
X695325Y793750D01*
X695325Y755650D01*
X701675Y749300D01*
X854075Y749300D01*
X860425Y755650D01*
X860425Y787400D01*
G36*
X695325Y908050D02*
X695325Y901700D01*
X701675Y895350D01*
X758825Y895350D01*
X765175Y901700D01*
X765175Y908050D01*
X695325Y908050D01*
G37*
G54D11*
X695325Y908050D02*
X695325Y901700D01*
X701675Y895350D01*
X758825Y895350D01*
X765175Y901700D01*
X765175Y908050D01*
X695325Y908050D01*
G36*
X695325Y793750D02*
X695325Y800100D01*
X701675Y806450D01*
X758825Y806450D01*
X765175Y800100D01*
X765175Y793750D01*
X695325Y793750D01*
G37*
G54D11*
X695325Y793750D02*
X695325Y800100D01*
X701675Y806450D01*
X758825Y806450D01*
X765175Y800100D01*
X765175Y793750D01*
X695325Y793750D01*
X631825Y914400D02*
G54D12*
D03*
X631825Y711200D02*
G54D12*
D03*
G36*
X695325Y946150D02*
X860425Y946150D01*
X860425Y971550D01*
X854075Y977900D01*
X701675Y977900D01*
X695325Y971550D01*
X695325Y946150D01*
G37*
G54D11*
X695325Y946150D02*
X860425Y946150D01*
X860425Y971550D01*
X854075Y977900D01*
X701675Y977900D01*
X695325Y971550D01*
X695325Y946150D01*
G36*
X860425Y755650D02*
X860425Y730250D01*
X854075Y723900D01*
X701675Y723900D01*
X695325Y730250D01*
X695325Y755650D01*
X860425Y755650D01*
G37*
G54D11*
X860425Y755650D02*
X860425Y730250D01*
X854075Y723900D01*
X701675Y723900D01*
X695325Y730250D01*
X695325Y755650D01*
X860425Y755650D01*
G36*
X257300Y404100D02*
X248525Y412875D01*
X248525Y425325D01*
X257300Y434100D01*
X269750Y434100D01*
X278525Y425325D01*
X278525Y412875D01*
X269750Y404100D01*
X257300Y404100D01*
G37*
G36*
X257300Y454900D02*
X248525Y463675D01*
X248525Y476125D01*
X257300Y484900D01*
X269750Y484900D01*
X278525Y476125D01*
X278525Y463675D01*
X269750Y454900D01*
X257300Y454900D01*
G37*
G36*
X257300Y505700D02*
X248525Y514475D01*
X248525Y526925D01*
X257300Y535700D01*
X269750Y535700D01*
X278525Y526925D01*
X278525Y514475D01*
X269750Y505700D01*
X257300Y505700D01*
G37*
G36*
X257300Y556500D02*
X248525Y565275D01*
X248525Y577725D01*
X257300Y586500D01*
X269750Y586500D01*
X278525Y577725D01*
X278525Y565275D01*
X269750Y556500D01*
X257300Y556500D01*
G37*
X187325Y573088D02*
G54D10*
D03*
X187325Y571500D02*
G54D10*
D03*
X187325Y569912D02*
G54D10*
D03*
X187325Y568325D02*
G54D10*
D03*
X187325Y566738D02*
G54D10*
D03*
X187325Y565150D02*
G54D10*
D03*
X187325Y563562D02*
G54D10*
D03*
X187325Y561975D02*
G54D10*
D03*
X187325Y560388D02*
G54D10*
D03*
X187325Y558800D02*
G54D10*
D03*
X187325Y557212D02*
G54D10*
D03*
X152400Y573088D02*
G54D10*
D03*
X152400Y571500D02*
G54D10*
D03*
X152400Y569912D02*
G54D10*
D03*
X152400Y568325D02*
G54D10*
D03*
X152400Y566738D02*
G54D10*
D03*
X152400Y565150D02*
G54D10*
D03*
X152400Y563562D02*
G54D10*
D03*
X152400Y561975D02*
G54D10*
D03*
X152400Y560388D02*
G54D10*
D03*
X152400Y558800D02*
G54D10*
D03*
X152400Y557212D02*
G54D10*
D03*
X187325Y433388D02*
G54D10*
D03*
X187325Y431800D02*
G54D10*
D03*
X187325Y430212D02*
G54D10*
D03*
X187325Y428625D02*
G54D10*
D03*
X187325Y427038D02*
G54D10*
D03*
X187325Y425450D02*
G54D10*
D03*
X187325Y423862D02*
G54D10*
D03*
X187325Y422275D02*
G54D10*
D03*
X187325Y420688D02*
G54D10*
D03*
X187325Y419100D02*
G54D10*
D03*
X187325Y417512D02*
G54D10*
D03*
X152400Y431800D02*
G54D10*
D03*
X152400Y433388D02*
G54D10*
D03*
X152400Y430212D02*
G54D10*
D03*
X152400Y428625D02*
G54D10*
D03*
X152400Y427038D02*
G54D10*
D03*
X152400Y425450D02*
G54D10*
D03*
X152400Y423862D02*
G54D10*
D03*
X152400Y422275D02*
G54D10*
D03*
X152400Y420688D02*
G54D10*
D03*
X152400Y419100D02*
G54D10*
D03*
X152400Y417512D02*
G54D10*
D03*
G36*
X301625Y533400D02*
X295275Y539750D01*
X219075Y539750D01*
X212725Y533400D01*
X212725Y457200D01*
X219075Y450850D01*
X295275Y450850D01*
X301625Y457200D01*
X301625Y533400D01*
G37*
G54D11*
X301625Y533400D02*
X295275Y539750D01*
X219075Y539750D01*
X212725Y533400D01*
X212725Y457200D01*
X219075Y450850D01*
X295275Y450850D01*
X301625Y457200D01*
X301625Y533400D01*
G36*
X295275Y552450D02*
X301625Y558800D01*
X301625Y590550D01*
X295275Y596900D01*
X142875Y596900D01*
X136525Y590550D01*
X136525Y552450D01*
X295275Y552450D01*
G37*
G54D11*
X295275Y552450D02*
X301625Y558800D01*
X301625Y590550D01*
X295275Y596900D01*
X142875Y596900D01*
X136525Y590550D01*
X136525Y552450D01*
X295275Y552450D01*
G36*
X301625Y431800D02*
X295275Y438150D01*
X136525Y438150D01*
X136525Y400050D01*
X142875Y393700D01*
X295275Y393700D01*
X301625Y400050D01*
X301625Y431800D01*
G37*
G54D11*
X301625Y431800D02*
X295275Y438150D01*
X136525Y438150D01*
X136525Y400050D01*
X142875Y393700D01*
X295275Y393700D01*
X301625Y400050D01*
X301625Y431800D01*
G36*
X136525Y552450D02*
X136525Y546100D01*
X142875Y539750D01*
X200025Y539750D01*
X206375Y546100D01*
X206375Y552450D01*
X136525Y552450D01*
G37*
G54D11*
X136525Y552450D02*
X136525Y546100D01*
X142875Y539750D01*
X200025Y539750D01*
X206375Y546100D01*
X206375Y552450D01*
X136525Y552450D01*
G36*
X136525Y438150D02*
X136525Y444500D01*
X142875Y450850D01*
X200025Y450850D01*
X206375Y444500D01*
X206375Y438150D01*
X136525Y438150D01*
G37*
G54D11*
X136525Y438150D02*
X136525Y444500D01*
X142875Y450850D01*
X200025Y450850D01*
X206375Y444500D01*
X206375Y438150D01*
X136525Y438150D01*
X73025Y558800D02*
G54D12*
D03*
X73025Y355600D02*
G54D12*
D03*
G36*
X136525Y590550D02*
X301625Y590550D01*
X301625Y615950D01*
X295275Y622300D01*
X142875Y622300D01*
X136525Y615950D01*
X136525Y590550D01*
G37*
G54D11*
X136525Y590550D02*
X301625Y590550D01*
X301625Y615950D01*
X295275Y622300D01*
X142875Y622300D01*
X136525Y615950D01*
X136525Y590550D01*
G36*
X301625Y400050D02*
X301625Y374650D01*
X295275Y368300D01*
X142875Y368300D01*
X136525Y374650D01*
X136525Y400050D01*
X301625Y400050D01*
G37*
G54D11*
X301625Y400050D02*
X301625Y374650D01*
X295275Y368300D01*
X142875Y368300D01*
X136525Y374650D01*
X136525Y400050D01*
X301625Y400050D01*
G36*
X536700Y404100D02*
X527925Y412875D01*
X527925Y425325D01*
X536700Y434100D01*
X549150Y434100D01*
X557925Y425325D01*
X557925Y412875D01*
X549150Y404100D01*
X536700Y404100D01*
G37*
G36*
X536700Y454900D02*
X527925Y463675D01*
X527925Y476125D01*
X536700Y484900D01*
X549150Y484900D01*
X557925Y476125D01*
X557925Y463675D01*
X549150Y454900D01*
X536700Y454900D01*
G37*
G36*
X536700Y505700D02*
X527925Y514475D01*
X527925Y526925D01*
X536700Y535700D01*
X549150Y535700D01*
X557925Y526925D01*
X557925Y514475D01*
X549150Y505700D01*
X536700Y505700D01*
G37*
G36*
X536700Y556500D02*
X527925Y565275D01*
X527925Y577725D01*
X536700Y586500D01*
X549150Y586500D01*
X557925Y577725D01*
X557925Y565275D01*
X549150Y556500D01*
X536700Y556500D01*
G37*
X466725Y573088D02*
G54D10*
D03*
X466725Y571500D02*
G54D10*
D03*
X466725Y569912D02*
G54D10*
D03*
X466725Y568325D02*
G54D10*
D03*
X466725Y566738D02*
G54D10*
D03*
X466725Y565150D02*
G54D10*
D03*
X466725Y563562D02*
G54D10*
D03*
X466725Y561975D02*
G54D10*
D03*
X466725Y560388D02*
G54D10*
D03*
X466725Y558800D02*
G54D10*
D03*
X466725Y557212D02*
G54D10*
D03*
X431800Y573088D02*
G54D10*
D03*
X431800Y571500D02*
G54D10*
D03*
X431800Y569912D02*
G54D10*
D03*
X431800Y568325D02*
G54D10*
D03*
X431800Y566738D02*
G54D10*
D03*
X431800Y565150D02*
G54D10*
D03*
X431800Y563562D02*
G54D10*
D03*
X431800Y561975D02*
G54D10*
D03*
X431800Y560388D02*
G54D10*
D03*
X431800Y558800D02*
G54D10*
D03*
X431800Y557212D02*
G54D10*
D03*
X466725Y433388D02*
G54D10*
D03*
X466725Y431800D02*
G54D10*
D03*
X466725Y430212D02*
G54D10*
D03*
X466725Y428625D02*
G54D10*
D03*
X466725Y427038D02*
G54D10*
D03*
X466725Y425450D02*
G54D10*
D03*
X466725Y423862D02*
G54D10*
D03*
X466725Y422275D02*
G54D10*
D03*
X466725Y420688D02*
G54D10*
D03*
X466725Y419100D02*
G54D10*
D03*
X466725Y417512D02*
G54D10*
D03*
X431800Y431800D02*
G54D10*
D03*
X431800Y433388D02*
G54D10*
D03*
X431800Y430212D02*
G54D10*
D03*
X431800Y428625D02*
G54D10*
D03*
X431800Y427038D02*
G54D10*
D03*
X431800Y425450D02*
G54D10*
D03*
X431800Y423862D02*
G54D10*
D03*
X431800Y422275D02*
G54D10*
D03*
X431800Y420688D02*
G54D10*
D03*
X431800Y419100D02*
G54D10*
D03*
X431800Y417512D02*
G54D10*
D03*
G36*
X581025Y533400D02*
X574675Y539750D01*
X498475Y539750D01*
X492125Y533400D01*
X492125Y457200D01*
X498475Y450850D01*
X574675Y450850D01*
X581025Y457200D01*
X581025Y533400D01*
G37*
G54D11*
X581025Y533400D02*
X574675Y539750D01*
X498475Y539750D01*
X492125Y533400D01*
X492125Y457200D01*
X498475Y450850D01*
X574675Y450850D01*
X581025Y457200D01*
X581025Y533400D01*
G36*
X574675Y552450D02*
X581025Y558800D01*
X581025Y590550D01*
X574675Y596900D01*
X422275Y596900D01*
X415925Y590550D01*
X415925Y552450D01*
X574675Y552450D01*
G37*
G54D11*
X574675Y552450D02*
X581025Y558800D01*
X581025Y590550D01*
X574675Y596900D01*
X422275Y596900D01*
X415925Y590550D01*
X415925Y552450D01*
X574675Y552450D01*
G36*
X581025Y431800D02*
X574675Y438150D01*
X415925Y438150D01*
X415925Y400050D01*
X422275Y393700D01*
X574675Y393700D01*
X581025Y400050D01*
X581025Y431800D01*
G37*
G54D11*
X581025Y431800D02*
X574675Y438150D01*
X415925Y438150D01*
X415925Y400050D01*
X422275Y393700D01*
X574675Y393700D01*
X581025Y400050D01*
X581025Y431800D01*
G36*
X415925Y552450D02*
X415925Y546100D01*
X422275Y539750D01*
X479425Y539750D01*
X485775Y546100D01*
X485775Y552450D01*
X415925Y552450D01*
G37*
G54D11*
X415925Y552450D02*
X415925Y546100D01*
X422275Y539750D01*
X479425Y539750D01*
X485775Y546100D01*
X485775Y552450D01*
X415925Y552450D01*
G36*
X415925Y438150D02*
X415925Y444500D01*
X422275Y450850D01*
X479425Y450850D01*
X485775Y444500D01*
X485775Y438150D01*
X415925Y438150D01*
G37*
G54D11*
X415925Y438150D02*
X415925Y444500D01*
X422275Y450850D01*
X479425Y450850D01*
X485775Y444500D01*
X485775Y438150D01*
X415925Y438150D01*
X352425Y558800D02*
G54D12*
D03*
X352425Y355600D02*
G54D12*
D03*
G36*
X415925Y590550D02*
X581025Y590550D01*
X581025Y615950D01*
X574675Y622300D01*
X422275Y622300D01*
X415925Y615950D01*
X415925Y590550D01*
G37*
G54D11*
X415925Y590550D02*
X581025Y590550D01*
X581025Y615950D01*
X574675Y622300D01*
X422275Y622300D01*
X415925Y615950D01*
X415925Y590550D01*
G36*
X581025Y400050D02*
X581025Y374650D01*
X574675Y368300D01*
X422275Y368300D01*
X415925Y374650D01*
X415925Y400050D01*
X581025Y400050D01*
G37*
G54D11*
X581025Y400050D02*
X581025Y374650D01*
X574675Y368300D01*
X422275Y368300D01*
X415925Y374650D01*
X415925Y400050D01*
X581025Y400050D01*
G36*
X816100Y404100D02*
X807325Y412875D01*
X807325Y425325D01*
X816100Y434100D01*
X828550Y434100D01*
X837325Y425325D01*
X837325Y412875D01*
X828550Y404100D01*
X816100Y404100D01*
G37*
G36*
X816100Y454900D02*
X807325Y463675D01*
X807325Y476125D01*
X816100Y484900D01*
X828550Y484900D01*
X837325Y476125D01*
X837325Y463675D01*
X828550Y454900D01*
X816100Y454900D01*
G37*
G36*
X816100Y505700D02*
X807325Y514475D01*
X807325Y526925D01*
X816100Y535700D01*
X828550Y535700D01*
X837325Y526925D01*
X837325Y514475D01*
X828550Y505700D01*
X816100Y505700D01*
G37*
G36*
X816100Y556500D02*
X807325Y565275D01*
X807325Y577725D01*
X816100Y586500D01*
X828550Y586500D01*
X837325Y577725D01*
X837325Y565275D01*
X828550Y556500D01*
X816100Y556500D01*
G37*
X746125Y573088D02*
G54D10*
D03*
X746125Y571500D02*
G54D10*
D03*
X746125Y569912D02*
G54D10*
D03*
X746125Y568325D02*
G54D10*
D03*
X746125Y566738D02*
G54D10*
D03*
X746125Y565150D02*
G54D10*
D03*
X746125Y563562D02*
G54D10*
D03*
X746125Y561975D02*
G54D10*
D03*
X746125Y560388D02*
G54D10*
D03*
X746125Y558800D02*
G54D10*
D03*
X746125Y557212D02*
G54D10*
D03*
X711200Y573088D02*
G54D10*
D03*
X711200Y571500D02*
G54D10*
D03*
X711200Y569912D02*
G54D10*
D03*
X711200Y568325D02*
G54D10*
D03*
X711200Y566738D02*
G54D10*
D03*
X711200Y565150D02*
G54D10*
D03*
X711200Y563562D02*
G54D10*
D03*
X711200Y561975D02*
G54D10*
D03*
X711200Y560388D02*
G54D10*
D03*
X711200Y558800D02*
G54D10*
D03*
X711200Y557212D02*
G54D10*
D03*
X746125Y433388D02*
G54D10*
D03*
X746125Y431800D02*
G54D10*
D03*
X746125Y430212D02*
G54D10*
D03*
X746125Y428625D02*
G54D10*
D03*
X746125Y427038D02*
G54D10*
D03*
X746125Y425450D02*
G54D10*
D03*
X746125Y423862D02*
G54D10*
D03*
X746125Y422275D02*
G54D10*
D03*
X746125Y420688D02*
G54D10*
D03*
X746125Y419100D02*
G54D10*
D03*
X746125Y417512D02*
G54D10*
D03*
X711200Y431800D02*
G54D10*
D03*
X711200Y433388D02*
G54D10*
D03*
X711200Y430212D02*
G54D10*
D03*
X711200Y428625D02*
G54D10*
D03*
X711200Y427038D02*
G54D10*
D03*
X711200Y425450D02*
G54D10*
D03*
X711200Y423862D02*
G54D10*
D03*
X711200Y422275D02*
G54D10*
D03*
X711200Y420688D02*
G54D10*
D03*
X711200Y419100D02*
G54D10*
D03*
X711200Y417512D02*
G54D10*
D03*
G36*
X860425Y533400D02*
X854075Y539750D01*
X777875Y539750D01*
X771525Y533400D01*
X771525Y457200D01*
X777875Y450850D01*
X854075Y450850D01*
X860425Y457200D01*
X860425Y533400D01*
G37*
G54D11*
X860425Y533400D02*
X854075Y539750D01*
X777875Y539750D01*
X771525Y533400D01*
X771525Y457200D01*
X777875Y450850D01*
X854075Y450850D01*
X860425Y457200D01*
X860425Y533400D01*
G36*
X854075Y552450D02*
X860425Y558800D01*
X860425Y590550D01*
X854075Y596900D01*
X701675Y596900D01*
X695325Y590550D01*
X695325Y552450D01*
X854075Y552450D01*
G37*
G54D11*
X854075Y552450D02*
X860425Y558800D01*
X860425Y590550D01*
X854075Y596900D01*
X701675Y596900D01*
X695325Y590550D01*
X695325Y552450D01*
X854075Y552450D01*
G36*
X860425Y431800D02*
X854075Y438150D01*
X695325Y438150D01*
X695325Y400050D01*
X701675Y393700D01*
X854075Y393700D01*
X860425Y400050D01*
X860425Y431800D01*
G37*
G54D11*
X860425Y431800D02*
X854075Y438150D01*
X695325Y438150D01*
X695325Y400050D01*
X701675Y393700D01*
X854075Y393700D01*
X860425Y400050D01*
X860425Y431800D01*
G36*
X695325Y552450D02*
X695325Y546100D01*
X701675Y539750D01*
X758825Y539750D01*
X765175Y546100D01*
X765175Y552450D01*
X695325Y552450D01*
G37*
G54D11*
X695325Y552450D02*
X695325Y546100D01*
X701675Y539750D01*
X758825Y539750D01*
X765175Y546100D01*
X765175Y552450D01*
X695325Y552450D01*
G36*
X695325Y438150D02*
X695325Y444500D01*
X701675Y450850D01*
X758825Y450850D01*
X765175Y444500D01*
X765175Y438150D01*
X695325Y438150D01*
G37*
G54D11*
X695325Y438150D02*
X695325Y444500D01*
X701675Y450850D01*
X758825Y450850D01*
X765175Y444500D01*
X765175Y438150D01*
X695325Y438150D01*
X631825Y558800D02*
G54D12*
D03*
X631825Y355600D02*
G54D12*
D03*
G36*
X695325Y590550D02*
X860425Y590550D01*
X860425Y615950D01*
X854075Y622300D01*
X701675Y622300D01*
X695325Y615950D01*
X695325Y590550D01*
G37*
G54D11*
X695325Y590550D02*
X860425Y590550D01*
X860425Y615950D01*
X854075Y622300D01*
X701675Y622300D01*
X695325Y615950D01*
X695325Y590550D01*
G36*
X860425Y400050D02*
X860425Y374650D01*
X854075Y368300D01*
X701675Y368300D01*
X695325Y374650D01*
X695325Y400050D01*
X860425Y400050D01*
G37*
G54D11*
X860425Y400050D02*
X860425Y374650D01*
X854075Y368300D01*
X701675Y368300D01*
X695325Y374650D01*
X695325Y400050D01*
X860425Y400050D01*
M02*
