; Drill file
; Format: 2.4 (00.0000)
M48
INCH
T01C0.0197
T02C0.0433
T03C0.126
%
G05
G90
T01
X006000Y016440
X006000Y016500
X006000Y016560
X006000Y016630
X006000Y016690
X006000Y016750
X006000Y016810
X006000Y016880
X006000Y016940
X006000Y017000
X006000Y017060
X007380Y017060
X007380Y017000
X007380Y016940
X007380Y016880
X007380Y016810
X007380Y016750
X007380Y016690
X007380Y016630
X007380Y016560
X007380Y016500
X007380Y016440
X007380Y021940
X007380Y022000
X007380Y022060
X007380Y022120
X007380Y022190
X007380Y022250
X007380Y022310
X007380Y022370
X007380Y022440
X007380Y022500
X007380Y022560
X006000Y022560
X006000Y022500
X006000Y022440
X006000Y022370
X006000Y022310
X006000Y022250
X006000Y022190
X006000Y022120
X006000Y022060
X006000Y022000
X006000Y021940
X006000Y030440
X006000Y030500
X006000Y030560
X006000Y030620
X006000Y030690
X006000Y030750
X006000Y030810
X006000Y030870
X006000Y030940
X006000Y031000
X006000Y031060
X007380Y031060
X007380Y031000
X007380Y030940
X007380Y030870
X007380Y030810
X007380Y030750
X007380Y030690
X007380Y030620
X007380Y030560
X007380Y030500
X007380Y030440
X007380Y035940
X007380Y036000
X007380Y036060
X007380Y036120
X007380Y036190
X007380Y036250
X007380Y036310
X007380Y036380
X007380Y036440
X007380Y036500
X007380Y036560
X006000Y036560
X006000Y036500
X006000Y036440
X006000Y036380
X006000Y036310
X006000Y036250
X006000Y036190
X006000Y036120
X006000Y036060
X006000Y036000
X006000Y035940
X017000Y035940
X017000Y036000
X017000Y036060
X017000Y036120
X017000Y036190
X017000Y036250
X017000Y036310
X017000Y036380
X017000Y036440
X017000Y036500
X017000Y036560
X018370Y036560
X018370Y036500
X018370Y036440
X018370Y036380
X018370Y036310
X018370Y036250
X018370Y036190
X018370Y036120
X018370Y036060
X018370Y036000
X018370Y035940
X018370Y031060
X018370Y031000
X018370Y030940
X018370Y030870
X018370Y030810
X018370Y030750
X018370Y030690
X018370Y030620
X018370Y030560
X018370Y030500
X018370Y030440
X017000Y030440
X017000Y030500
X017000Y030560
X017000Y030620
X017000Y030690
X017000Y030750
X017000Y030810
X017000Y030870
X017000Y030940
X017000Y031000
X017000Y031060
X017000Y022560
X017000Y022500
X017000Y022440
X017000Y022370
X017000Y022310
X017000Y022250
X017000Y022190
X017000Y022120
X017000Y022060
X017000Y022000
X017000Y021940
X018370Y021940
X018370Y022000
X018370Y022060
X018370Y022120
X018370Y022190
X018370Y022250
X018370Y022310
X018370Y022370
X018370Y022440
X018370Y022500
X018370Y022560
X018370Y017060
X018370Y017000
X018370Y016940
X018370Y016880
X018370Y016810
X018370Y016750
X018370Y016690
X018370Y016630
X018370Y016560
X018370Y016500
X018370Y016440
X017000Y016440
X017000Y016500
X017000Y016560
X017000Y016630
X017000Y016690
X017000Y016750
X017000Y016810
X017000Y016880
X017000Y016940
X017000Y017000
X017000Y017060
X028000Y017060
X028000Y017000
X028000Y016940
X028000Y016880
X028000Y016810
X028000Y016750
X028000Y016690
X028000Y016630
X028000Y016560
X028000Y016500
X028000Y016440
X029380Y016440
X029380Y016500
X029380Y016560
X029380Y016630
X029380Y016690
X029380Y016750
X029380Y016810
X029380Y016880
X029380Y016940
X029380Y017000
X029380Y017060
X029380Y021940
X029380Y022000
X029380Y022060
X029380Y022120
X029380Y022190
X029380Y022250
X029380Y022310
X029380Y022370
X029380Y022440
X029380Y022500
X029380Y022560
X028000Y022560
X028000Y022500
X028000Y022440
X028000Y022370
X028000Y022310
X028000Y022250
X028000Y022190
X028000Y022120
X028000Y022060
X028000Y022000
X028000Y021940
X028000Y030440
X028000Y030500
X028000Y030560
X028000Y030620
X028000Y030690
X028000Y030750
X028000Y030810
X028000Y030870
X028000Y030940
X028000Y031000
X028000Y031060
X029380Y031060
X029380Y031000
X029380Y030940
X029380Y030870
X029380Y030810
X029380Y030750
X029380Y030690
X029380Y030620
X029380Y030560
X029380Y030500
X029380Y030440
X029380Y035940
X029380Y036000
X029380Y036060
X029380Y036120
X029380Y036190
X029380Y036250
X029380Y036310
X029380Y036380
X029380Y036440
X029380Y036500
X029380Y036560
X028000Y036560
X028000Y036500
X028000Y036440
X028000Y036380
X028000Y036310
X028000Y036250
X028000Y036190
X028000Y036120
X028000Y036060
X028000Y036000
X028000Y035940
T02
X010380Y016500
X010380Y018500
X010380Y020500
X010380Y022500
X010380Y030500
X010380Y032500
X010380Y034500
X010380Y036500
X021380Y036500
X021380Y034500
X021380Y032500
X021380Y030500
X021380Y022500
X021380Y020500
X021380Y018500
X021380Y016500
X032370Y016500
X032370Y018500
X032370Y020500
X032370Y022500
X032370Y030500
X032370Y032500
X032370Y034500
X032370Y036500
T03
X002870Y014000
X002870Y022000
X002870Y028000
X002870Y036000
X013870Y036000
X013870Y028000
X013870Y022000
X013870Y014000
X024870Y014000
X024870Y022000
X024870Y028000
X024870Y036000
M30
