; Drill file
; Format: 2.4 (00.0000)
M48
INCH
T01C0.0098
T02C0.0335
T03C0.0866
%
G05
G90
T01
X008750Y-028500
X019500Y-028500
X030250Y-028500
X030250Y-013000
X019500Y-013000
X008750Y-013000
T02
X001470Y-031220
X001470Y-030220
X001470Y-029220
X001470Y-028220
X001470Y-027220
X001470Y-026220
X001470Y-025220
X001470Y-024220
X001470Y-023220
X001470Y-022220
X001470Y-021220
X001470Y-020210
X001470Y-019220
X001470Y-018220
X001470Y-017220
X001470Y-015720
X001470Y-014720
X001470Y-013720
X001470Y-012720
X001470Y-011720
X001470Y-010720
X001470Y-009720
X001470Y-008720
X001470Y-007720
X001470Y-006720
X001470Y-005720
X001470Y-004710
X001470Y-003720
X001470Y-002720
X001470Y-001720
X003970Y-002470
X004970Y-002470
X004970Y-003470
X003970Y-003470
X003970Y-004470
X004970Y-004470
X004970Y-005470
X004970Y-006470
X003970Y-006470
X003970Y-005470
X007470Y-005720
X007470Y-006720
X007470Y-007720
X007470Y-008720
X007470Y-009720
X007470Y-010720
X007470Y-011720
X007470Y-012720
X007470Y-013720
X007470Y-014720
X007470Y-015720
X007470Y-017220
X007470Y-018220
X007470Y-019220
X007470Y-020220
X007470Y-021220
X007470Y-022220
X007470Y-023220
X007470Y-024220
X007470Y-025220
X007470Y-026220
X007470Y-027220
X007470Y-028220
X007470Y-029220
X007470Y-030220
X007470Y-031220
X004970Y-030470
X004970Y-029470
X004970Y-028470
X004970Y-027470
X004970Y-026470
X003970Y-026470
X003970Y-027470
X003970Y-028470
X003970Y-029470
X003970Y-030470
X010000Y-028500
X010000Y-027500
X010000Y-026500
X010000Y-025500
X012220Y-025220
X012220Y-024220
X012220Y-023220
X012220Y-022220
X012220Y-021220
X012220Y-020210
X012220Y-019220
X012220Y-018220
X012220Y-017220
X012220Y-015720
X012220Y-014720
X012220Y-013720
X012220Y-012720
X012220Y-011720
X012220Y-010720
X012220Y-009720
X012220Y-008720
X012220Y-007720
X012220Y-006720
X012220Y-005720
X012220Y-004710
X012220Y-003720
X012220Y-002720
X012220Y-001720
X014720Y-002470
X015720Y-002470
X015720Y-003470
X014720Y-003470
X014720Y-004470
X015720Y-004470
X015720Y-005470
X015720Y-006470
X014720Y-006470
X014720Y-005470
X018220Y-005720
X018220Y-006720
X018220Y-007720
X018220Y-008720
X018220Y-009720
X018220Y-010720
X018220Y-011720
X018220Y-012720
X018220Y-013720
X018220Y-014720
X018220Y-015720
X018220Y-017220
X018220Y-018220
X018220Y-019220
X018220Y-020220
X018220Y-021220
X018220Y-022220
X018220Y-023220
X018220Y-024220
X018220Y-025220
X018220Y-026220
X018220Y-027220
X018220Y-028220
X018220Y-029220
X018220Y-030220
X018220Y-031220
X015720Y-030470
X015720Y-029470
X015720Y-028470
X015720Y-027470
X015720Y-026470
X014720Y-026470
X014720Y-027470
X014720Y-028470
X014720Y-029470
X014720Y-030470
X012220Y-030220
X012220Y-029220
X012220Y-028220
X012220Y-027220
X012220Y-026220
X010000Y-023000
X010000Y-022000
X010000Y-021000
X010000Y-020000
X014720Y-019970
X014720Y-018970
X014720Y-017970
X015720Y-017970
X015720Y-018970
X015720Y-019970
X015720Y-020970
X014720Y-020970
X014720Y-021970
X015720Y-021970
X020750Y-022000
X020750Y-021000
X020750Y-020000
X022970Y-020210
X022970Y-019220
X022970Y-018220
X022970Y-017220
X022970Y-015720
X022970Y-014720
X022970Y-013720
X022970Y-012720
X022970Y-011720
X022970Y-010720
X022970Y-009720
X022970Y-008720
X022970Y-007720
X022970Y-006720
X022970Y-005720
X022970Y-004710
X022970Y-003720
X022970Y-002720
X022970Y-001720
X025470Y-002470
X026470Y-002470
X026470Y-003470
X025470Y-003470
X025470Y-004470
X026470Y-004470
X026470Y-005470
X026470Y-006470
X025470Y-006470
X025470Y-005470
X028970Y-005720
X028970Y-006720
X028970Y-007720
X028970Y-008720
X028970Y-009720
X028970Y-010720
X028970Y-011720
X028970Y-012720
X028970Y-013720
X028970Y-014720
X028970Y-015720
X028970Y-017220
X028970Y-018220
X028970Y-019220
X028970Y-020220
X028970Y-021220
X028970Y-022220
X028970Y-023220
X028970Y-024220
X028970Y-025220
X028970Y-026220
X028970Y-027220
X028970Y-028220
X028970Y-029220
X028970Y-030220
X028970Y-031220
X026470Y-030470
X026470Y-029470
X026470Y-028470
X026470Y-027470
X026470Y-026470
X025470Y-026470
X025470Y-027470
X025470Y-028470
X025470Y-029470
X025470Y-030470
X022970Y-030220
X022970Y-029220
X022970Y-028220
X022970Y-027220
X022970Y-026220
X022970Y-025220
X022970Y-024220
X022970Y-023220
X022970Y-022220
X022970Y-021220
X025470Y-020970
X025470Y-019970
X025470Y-018970
X025470Y-017970
X026470Y-017970
X026470Y-018970
X026470Y-019970
X026470Y-020970
X026470Y-021970
X025470Y-021970
X020750Y-023000
X020750Y-025500
X020750Y-026500
X020750Y-027500
X020750Y-028500
X022970Y-031220
X031500Y-028500
X031500Y-027500
X031500Y-026500
X031500Y-025500
X031500Y-023000
X031500Y-022000
X031500Y-021000
X031500Y-020000
X031500Y-013000
X031500Y-012000
X031500Y-011000
X031500Y-010000
X031500Y-007500
X031500Y-006500
X031500Y-005500
X031500Y-004500
X028970Y-004720
X028970Y-003720
X028970Y-002720
X028970Y-001720
X020750Y-004500
X020750Y-005500
X020750Y-006500
X020750Y-007500
X020750Y-010000
X020750Y-011000
X020750Y-012000
X020750Y-013000
X025470Y-012970
X025470Y-011970
X025470Y-010970
X026470Y-010970
X026470Y-011970
X026470Y-012970
X026470Y-013970
X025470Y-013970
X025470Y-014970
X026470Y-014970
X015720Y-014970
X015720Y-013970
X015720Y-012970
X015720Y-011970
X015720Y-010970
X014720Y-010970
X014720Y-011970
X014720Y-012970
X014720Y-013970
X014720Y-014970
X010000Y-013000
X010000Y-012000
X010000Y-011000
X010000Y-010000
X010000Y-007500
X010000Y-006500
X010000Y-005500
X010000Y-004500
X007470Y-004720
X007470Y-003720
X007470Y-002720
X007470Y-001720
X004970Y-010970
X003970Y-010970
X003970Y-011970
X004970Y-011970
X004970Y-012970
X003970Y-012970
X003970Y-013970
X004970Y-013970
X004970Y-014970
X003970Y-014970
X003970Y-017970
X004970Y-017970
X004970Y-018970
X003970Y-018970
X003970Y-019970
X003970Y-020970
X003970Y-021970
X004970Y-021970
X004970Y-020970
X004970Y-019970
X012220Y-031220
X018220Y-004720
X018220Y-003720
X018220Y-002720
X018220Y-001720
T03
X010000Y-030750
X020750Y-030750
X031500Y-030750
X031500Y-017750
X031500Y-015250
X020750Y-015250
X020750Y-017750
X010000Y-017750
X010000Y-015250
X010000Y-002250
X020750Y-002250
X031500Y-002250
M30
