%FSLAX34Y34*%
%MOMM*%
%LNSILK_BOTTOM*%
G71*
G01*
%ADD10C, 0.100*%
%ADD11C, 0.111*%
%ADD12C, 0.167*%
%LPD*%
G54D10*
X279400Y-215900D02*
X219075Y-215900D01*
G54D10*
X279400Y-88900D02*
X219075Y-88900D01*
X219075Y-215900D01*
G54D10*
X279400Y-215900D02*
X279400Y-88900D01*
G54D10*
X279400Y-190500D02*
X273050Y-190500D01*
X273050Y-114300D01*
X279400Y-114300D01*
G54D10*
X279400Y-355600D02*
X219075Y-355600D01*
G54D10*
X279400Y-228600D02*
X219075Y-228600D01*
X219075Y-355600D01*
G54D10*
X279400Y-355600D02*
X279400Y-228600D01*
G54D10*
X279400Y-330200D02*
X273050Y-330200D01*
X273050Y-254000D01*
X279400Y-254000D01*
G54D10*
X82550Y-44450D02*
X146050Y-44450D01*
X146050Y-184150D01*
X82550Y-184150D01*
X82550Y-44450D01*
G54D10*
X82550Y-260350D02*
X145250Y-260350D01*
X145250Y-399196D01*
X82550Y-399196D01*
X82550Y-260350D01*
G54D11*
X207011Y-95250D02*
X215900Y-98583D01*
X207011Y-101917D01*
G54D11*
X214233Y-109694D02*
X215344Y-109028D01*
X215900Y-107694D01*
X215900Y-106361D01*
X215344Y-105028D01*
X214233Y-104361D01*
X208678Y-104361D01*
X207567Y-105028D01*
X207011Y-106361D01*
X207011Y-107694D01*
X207567Y-109028D01*
X208678Y-109694D01*
G54D11*
X214233Y-117471D02*
X215344Y-116805D01*
X215900Y-115471D01*
X215900Y-114138D01*
X215344Y-112805D01*
X214233Y-112138D01*
X208678Y-112138D01*
X207567Y-112805D01*
X207011Y-114138D01*
X207011Y-115471D01*
X207567Y-116805D01*
X208678Y-117471D01*
G54D11*
X214233Y-127000D02*
X215344Y-127667D01*
X215900Y-129000D01*
X215900Y-130333D01*
X215344Y-131667D01*
X214233Y-132333D01*
X213122Y-132333D01*
X212011Y-131667D01*
X211456Y-130333D01*
X211456Y-129000D01*
X210900Y-127667D01*
X209789Y-127000D01*
X208678Y-127000D01*
X207567Y-127667D01*
X207011Y-129000D01*
X207011Y-130333D01*
X207567Y-131667D01*
X208678Y-132333D01*
G54D11*
X214233Y-140110D02*
X215344Y-139444D01*
X215900Y-138110D01*
X215900Y-136777D01*
X215344Y-135444D01*
X214233Y-134777D01*
X208678Y-134777D01*
X207567Y-135444D01*
X207011Y-136777D01*
X207011Y-138110D01*
X207567Y-139444D01*
X208678Y-140110D01*
G54D11*
X207011Y-142554D02*
X215900Y-142554D01*
X215900Y-147221D01*
G54D11*
X214233Y-152400D02*
X215344Y-153067D01*
X215900Y-154400D01*
X215900Y-155733D01*
X215344Y-157067D01*
X214233Y-157733D01*
X213122Y-157733D01*
X212011Y-157067D01*
X211456Y-155733D01*
X211456Y-154400D01*
X210900Y-153067D01*
X209789Y-152400D01*
X208678Y-152400D01*
X207567Y-153067D01*
X207011Y-154400D01*
X207011Y-155733D01*
X207567Y-157067D01*
X208678Y-157733D01*
G54D11*
X215900Y-160177D02*
X207011Y-160177D01*
X207011Y-163510D01*
X207567Y-164844D01*
X208678Y-165510D01*
X214233Y-165510D01*
X215344Y-164844D01*
X215900Y-163510D01*
X215900Y-160177D01*
G54D11*
X215900Y-167954D02*
X207011Y-171287D01*
X215900Y-174621D01*
G54D11*
X212567Y-169287D02*
X212567Y-173287D01*
G54D11*
X211456Y-186817D02*
X211456Y-189483D01*
X214233Y-189483D01*
X215344Y-188817D01*
X215900Y-187483D01*
X215900Y-186150D01*
X215344Y-184817D01*
X214233Y-184150D01*
X208678Y-184150D01*
X207567Y-184817D01*
X207011Y-186150D01*
X207011Y-187483D01*
X207567Y-188817D01*
X208678Y-189483D01*
G54D11*
X215900Y-191927D02*
X207011Y-191927D01*
X215900Y-197260D01*
X207011Y-197260D01*
G54D11*
X215900Y-199704D02*
X207011Y-199704D01*
X207011Y-203037D01*
X207567Y-204371D01*
X208678Y-205037D01*
X214233Y-205037D01*
X215344Y-204371D01*
X215900Y-203037D01*
X215900Y-199704D01*
G54D11*
X207011Y-234950D02*
X215900Y-238283D01*
X207011Y-241617D01*
G54D11*
X214233Y-249394D02*
X215344Y-248728D01*
X215900Y-247394D01*
X215900Y-246061D01*
X215344Y-244728D01*
X214233Y-244061D01*
X208678Y-244061D01*
X207567Y-244728D01*
X207011Y-246061D01*
X207011Y-247394D01*
X207567Y-248728D01*
X208678Y-249394D01*
G54D11*
X214233Y-257171D02*
X215344Y-256505D01*
X215900Y-255171D01*
X215900Y-253838D01*
X215344Y-252505D01*
X214233Y-251838D01*
X208678Y-251838D01*
X207567Y-252505D01*
X207011Y-253838D01*
X207011Y-255171D01*
X207567Y-256505D01*
X208678Y-257171D01*
G54D11*
X214233Y-266700D02*
X215344Y-267367D01*
X215900Y-268700D01*
X215900Y-270033D01*
X215344Y-271367D01*
X214233Y-272033D01*
X213122Y-272033D01*
X212011Y-271367D01*
X211456Y-270033D01*
X211456Y-268700D01*
X210900Y-267367D01*
X209789Y-266700D01*
X208678Y-266700D01*
X207567Y-267367D01*
X207011Y-268700D01*
X207011Y-270033D01*
X207567Y-271367D01*
X208678Y-272033D01*
G54D11*
X214233Y-279810D02*
X215344Y-279144D01*
X215900Y-277810D01*
X215900Y-276477D01*
X215344Y-275144D01*
X214233Y-274477D01*
X208678Y-274477D01*
X207567Y-275144D01*
X207011Y-276477D01*
X207011Y-277810D01*
X207567Y-279144D01*
X208678Y-279810D01*
G54D11*
X207011Y-282254D02*
X215900Y-282254D01*
X215900Y-286921D01*
G54D11*
X214233Y-292100D02*
X215344Y-292767D01*
X215900Y-294100D01*
X215900Y-295433D01*
X215344Y-296767D01*
X214233Y-297433D01*
X213122Y-297433D01*
X212011Y-296767D01*
X211456Y-295433D01*
X211456Y-294100D01*
X210900Y-292767D01*
X209789Y-292100D01*
X208678Y-292100D01*
X207567Y-292767D01*
X207011Y-294100D01*
X207011Y-295433D01*
X207567Y-296767D01*
X208678Y-297433D01*
G54D11*
X215900Y-299877D02*
X207011Y-299877D01*
X207011Y-303210D01*
X207567Y-304544D01*
X208678Y-305210D01*
X214233Y-305210D01*
X215344Y-304544D01*
X215900Y-303210D01*
X215900Y-299877D01*
G54D11*
X215900Y-307654D02*
X207011Y-310987D01*
X215900Y-314321D01*
G54D11*
X212567Y-308987D02*
X212567Y-312987D01*
G54D11*
X211456Y-332867D02*
X211456Y-335533D01*
X214233Y-335533D01*
X215344Y-334867D01*
X215900Y-333533D01*
X215900Y-332200D01*
X215344Y-330867D01*
X214233Y-330200D01*
X208678Y-330200D01*
X207567Y-330867D01*
X207011Y-332200D01*
X207011Y-333533D01*
X207567Y-334867D01*
X208678Y-335533D01*
G54D11*
X215900Y-337977D02*
X207011Y-337977D01*
X215900Y-343310D01*
X207011Y-343310D01*
G54D11*
X215900Y-345754D02*
X207011Y-345754D01*
X207011Y-349087D01*
X207567Y-350421D01*
X208678Y-351087D01*
X214233Y-351087D01*
X215344Y-350421D01*
X215900Y-349087D01*
X215900Y-345754D01*
G54D11*
X165100Y-106267D02*
X165100Y-101600D01*
X156211Y-101600D01*
X156211Y-106267D01*
G54D11*
X160656Y-101600D02*
X160656Y-106267D01*
G54D11*
X156211Y-108711D02*
X165100Y-115378D01*
G54D11*
X165100Y-108711D02*
X156211Y-115378D01*
G54D11*
X165100Y-117822D02*
X156211Y-117822D01*
X156211Y-121155D01*
X156767Y-122489D01*
X157878Y-123155D01*
X158989Y-123155D01*
X160100Y-122489D01*
X160656Y-121155D01*
X160656Y-117822D01*
G54D11*
X159544Y-125599D02*
X156211Y-128932D01*
X165100Y-128932D01*
G54D11*
X165100Y-315817D02*
X165100Y-311150D01*
X156211Y-311150D01*
X156211Y-315817D01*
G54D11*
X160656Y-311150D02*
X160656Y-315817D01*
G54D11*
X156211Y-318261D02*
X165100Y-324928D01*
G54D11*
X165100Y-318261D02*
X156211Y-324928D01*
G54D11*
X165100Y-327372D02*
X156211Y-327372D01*
X156211Y-330705D01*
X156767Y-332039D01*
X157878Y-332705D01*
X158989Y-332705D01*
X160100Y-332039D01*
X160656Y-330705D01*
X160656Y-327372D01*
G54D11*
X165100Y-340482D02*
X165100Y-335149D01*
X164544Y-335149D01*
X163433Y-335816D01*
X160100Y-339816D01*
X158989Y-340482D01*
X157878Y-340482D01*
X156767Y-339816D01*
X156211Y-338482D01*
X156211Y-337149D01*
X156767Y-335816D01*
X157878Y-335149D01*
G54D12*
X69850Y-50800D02*
X56517Y-50800D01*
X69850Y-58800D01*
X56517Y-58800D01*
G54D12*
X63183Y-62467D02*
X62350Y-64467D01*
X62350Y-66867D01*
X64017Y-68467D01*
X69850Y-68467D01*
G54D12*
X67350Y-68467D02*
X65683Y-67467D01*
X65350Y-65467D01*
X65683Y-63467D01*
X67350Y-62467D01*
X69017Y-62867D01*
X69850Y-64467D01*
X69850Y-65467D01*
X69850Y-65867D01*
X69017Y-67467D01*
X67350Y-68467D01*
G54D12*
X69850Y-72134D02*
X62350Y-72134D01*
G54D12*
X64017Y-72134D02*
X62850Y-73134D01*
X62350Y-75134D01*
X62850Y-77134D01*
X64017Y-78134D01*
X69850Y-78134D01*
G54D12*
X67850Y-87801D02*
X64517Y-87801D01*
X62850Y-86801D01*
X62350Y-84801D01*
X62850Y-82801D01*
X64517Y-81801D01*
X67850Y-81801D01*
X69517Y-82801D01*
X69850Y-84801D01*
X69517Y-86801D01*
X67850Y-87801D01*
G54D12*
X69850Y-101335D02*
X56517Y-101335D01*
G54D12*
X64517Y-101335D02*
X62850Y-100335D01*
X62350Y-98335D01*
X62850Y-96335D01*
X64517Y-95335D01*
X67850Y-95335D01*
X69517Y-96335D01*
X69850Y-98335D01*
X69517Y-100335D01*
X67850Y-101335D01*
G54D12*
X69850Y-105002D02*
X62350Y-105002D01*
G54D12*
X59850Y-105002D02*
X59850Y-105002D01*
G54D12*
X69017Y-108669D02*
X69850Y-110669D01*
X69850Y-112669D01*
X69017Y-114669D01*
X67350Y-114669D01*
X66517Y-113669D01*
X65683Y-109669D01*
X64850Y-108669D01*
X63183Y-108669D01*
X62350Y-110669D01*
X62350Y-112669D01*
X63183Y-114669D01*
G54D12*
X62350Y-118336D02*
X73183Y-118336D01*
G54D12*
X67350Y-118336D02*
X69517Y-119336D01*
X69850Y-121336D01*
X69517Y-123336D01*
X67850Y-124336D01*
X64517Y-124336D01*
X62850Y-123336D01*
X62350Y-121336D01*
X62850Y-119336D01*
X64850Y-118336D01*
G54D12*
X69850Y-128003D02*
X56517Y-128003D01*
G54D12*
X63183Y-131670D02*
X62350Y-133670D01*
X62350Y-136070D01*
X64017Y-137670D01*
X69850Y-137670D01*
G54D12*
X67350Y-137670D02*
X65683Y-136670D01*
X65350Y-134670D01*
X65683Y-132670D01*
X67350Y-131670D01*
X69017Y-132070D01*
X69850Y-133670D01*
X69850Y-134670D01*
X69850Y-135070D01*
X69017Y-136670D01*
X67350Y-137670D01*
G54D12*
X62350Y-141337D02*
X69850Y-145337D01*
X62350Y-149337D01*
G54D12*
X69850Y-145337D02*
X72350Y-144337D01*
X73183Y-143337D01*
X73183Y-142337D01*
G54D12*
X64017Y-156871D02*
X64017Y-164871D01*
G54D12*
X60683Y-160871D02*
X67350Y-160871D01*
G54D12*
X69850Y-172405D02*
X56517Y-172405D01*
G54D12*
X69850Y-184072D02*
X69850Y-176072D01*
X69017Y-176072D01*
X67350Y-177072D01*
X62350Y-183072D01*
X60683Y-184072D01*
X59017Y-184072D01*
X57350Y-183072D01*
X56517Y-181072D01*
X56517Y-179072D01*
X57350Y-177072D01*
X59017Y-176072D01*
G54D12*
X67350Y-195739D02*
X69017Y-194739D01*
X69850Y-192739D01*
X69850Y-190739D01*
X69017Y-188739D01*
X67350Y-187739D01*
X59017Y-187739D01*
X57350Y-188739D01*
X56517Y-190739D01*
X56517Y-192739D01*
X57350Y-194739D01*
X59017Y-195739D01*
G54D11*
X71756Y-205867D02*
X72867Y-207867D01*
X73978Y-208533D01*
X76200Y-208533D01*
G54D11*
X76200Y-203200D02*
X67311Y-203200D01*
X67311Y-206533D01*
X67867Y-207867D01*
X68978Y-208533D01*
X70089Y-208533D01*
X71200Y-207867D01*
X71756Y-206533D01*
X71756Y-203200D01*
G54D11*
X75644Y-214977D02*
X76200Y-213910D01*
X76200Y-212577D01*
X75644Y-211244D01*
X74533Y-210977D01*
X72644Y-210977D01*
X71533Y-211644D01*
X71200Y-212977D01*
X71533Y-214310D01*
X72311Y-214977D01*
X73422Y-214977D01*
X73422Y-210977D01*
G54D11*
X71200Y-217421D02*
X76200Y-220088D01*
X71200Y-222754D01*
G54D11*
X76200Y-225198D02*
X76200Y-225198D01*
G54D11*
X70644Y-227642D02*
X67311Y-230975D01*
X76200Y-230975D01*
G54D10*
X552450Y-215900D02*
X492125Y-215900D01*
G54D10*
X552450Y-88900D02*
X492125Y-88900D01*
X492125Y-215900D01*
G54D10*
X552450Y-215900D02*
X552450Y-88900D01*
G54D10*
X552450Y-190500D02*
X546100Y-190500D01*
X546100Y-114300D01*
X552450Y-114300D01*
G54D10*
X552450Y-355600D02*
X492125Y-355600D01*
G54D10*
X552450Y-228600D02*
X492125Y-228600D01*
X492125Y-355600D01*
G54D10*
X552450Y-355600D02*
X552450Y-228600D01*
G54D10*
X552450Y-330200D02*
X546100Y-330200D01*
X546100Y-254000D01*
X552450Y-254000D01*
G54D10*
X355600Y-44450D02*
X419100Y-44450D01*
X419100Y-184150D01*
X355600Y-184150D01*
X355600Y-44450D01*
G54D10*
X355600Y-260350D02*
X418300Y-260350D01*
X418300Y-399196D01*
X355600Y-399196D01*
X355600Y-260350D01*
G54D11*
X480061Y-95250D02*
X488950Y-98583D01*
X480061Y-101917D01*
G54D11*
X487283Y-109694D02*
X488394Y-109028D01*
X488950Y-107694D01*
X488950Y-106361D01*
X488394Y-105028D01*
X487283Y-104361D01*
X481728Y-104361D01*
X480617Y-105028D01*
X480061Y-106361D01*
X480061Y-107694D01*
X480617Y-109028D01*
X481728Y-109694D01*
G54D11*
X487283Y-117471D02*
X488394Y-116805D01*
X488950Y-115471D01*
X488950Y-114138D01*
X488394Y-112805D01*
X487283Y-112138D01*
X481728Y-112138D01*
X480617Y-112805D01*
X480061Y-114138D01*
X480061Y-115471D01*
X480617Y-116805D01*
X481728Y-117471D01*
G54D11*
X487283Y-127000D02*
X488394Y-127667D01*
X488950Y-129000D01*
X488950Y-130333D01*
X488394Y-131667D01*
X487283Y-132333D01*
X486172Y-132333D01*
X485061Y-131667D01*
X484506Y-130333D01*
X484506Y-129000D01*
X483950Y-127667D01*
X482839Y-127000D01*
X481728Y-127000D01*
X480617Y-127667D01*
X480061Y-129000D01*
X480061Y-130333D01*
X480617Y-131667D01*
X481728Y-132333D01*
G54D11*
X487283Y-140110D02*
X488394Y-139444D01*
X488950Y-138110D01*
X488950Y-136777D01*
X488394Y-135444D01*
X487283Y-134777D01*
X481728Y-134777D01*
X480617Y-135444D01*
X480061Y-136777D01*
X480061Y-138110D01*
X480617Y-139444D01*
X481728Y-140110D01*
G54D11*
X480061Y-142554D02*
X488950Y-142554D01*
X488950Y-147221D01*
G54D11*
X487283Y-152400D02*
X488394Y-153067D01*
X488950Y-154400D01*
X488950Y-155733D01*
X488394Y-157067D01*
X487283Y-157733D01*
X486172Y-157733D01*
X485061Y-157067D01*
X484506Y-155733D01*
X484506Y-154400D01*
X483950Y-153067D01*
X482839Y-152400D01*
X481728Y-152400D01*
X480617Y-153067D01*
X480061Y-154400D01*
X480061Y-155733D01*
X480617Y-157067D01*
X481728Y-157733D01*
G54D11*
X488950Y-160177D02*
X480061Y-160177D01*
X480061Y-163510D01*
X480617Y-164844D01*
X481728Y-165510D01*
X487283Y-165510D01*
X488394Y-164844D01*
X488950Y-163510D01*
X488950Y-160177D01*
G54D11*
X488950Y-167954D02*
X480061Y-171287D01*
X488950Y-174621D01*
G54D11*
X485617Y-169287D02*
X485617Y-173287D01*
G54D11*
X484506Y-186817D02*
X484506Y-189483D01*
X487283Y-189483D01*
X488394Y-188817D01*
X488950Y-187483D01*
X488950Y-186150D01*
X488394Y-184817D01*
X487283Y-184150D01*
X481728Y-184150D01*
X480617Y-184817D01*
X480061Y-186150D01*
X480061Y-187483D01*
X480617Y-188817D01*
X481728Y-189483D01*
G54D11*
X488950Y-191927D02*
X480061Y-191927D01*
X488950Y-197260D01*
X480061Y-197260D01*
G54D11*
X488950Y-199704D02*
X480061Y-199704D01*
X480061Y-203037D01*
X480617Y-204371D01*
X481728Y-205037D01*
X487283Y-205037D01*
X488394Y-204371D01*
X488950Y-203037D01*
X488950Y-199704D01*
G54D11*
X480061Y-234950D02*
X488950Y-238283D01*
X480061Y-241617D01*
G54D11*
X487283Y-249394D02*
X488394Y-248728D01*
X488950Y-247394D01*
X488950Y-246061D01*
X488394Y-244728D01*
X487283Y-244061D01*
X481728Y-244061D01*
X480617Y-244728D01*
X480061Y-246061D01*
X480061Y-247394D01*
X480617Y-248728D01*
X481728Y-249394D01*
G54D11*
X487283Y-257171D02*
X488394Y-256505D01*
X488950Y-255171D01*
X488950Y-253838D01*
X488394Y-252505D01*
X487283Y-251838D01*
X481728Y-251838D01*
X480617Y-252505D01*
X480061Y-253838D01*
X480061Y-255171D01*
X480617Y-256505D01*
X481728Y-257171D01*
G54D11*
X487283Y-266700D02*
X488394Y-267367D01*
X488950Y-268700D01*
X488950Y-270033D01*
X488394Y-271367D01*
X487283Y-272033D01*
X486172Y-272033D01*
X485061Y-271367D01*
X484506Y-270033D01*
X484506Y-268700D01*
X483950Y-267367D01*
X482839Y-266700D01*
X481728Y-266700D01*
X480617Y-267367D01*
X480061Y-268700D01*
X480061Y-270033D01*
X480617Y-271367D01*
X481728Y-272033D01*
G54D11*
X487283Y-279810D02*
X488394Y-279144D01*
X488950Y-277810D01*
X488950Y-276477D01*
X488394Y-275144D01*
X487283Y-274477D01*
X481728Y-274477D01*
X480617Y-275144D01*
X480061Y-276477D01*
X480061Y-277810D01*
X480617Y-279144D01*
X481728Y-279810D01*
G54D11*
X480061Y-282254D02*
X488950Y-282254D01*
X488950Y-286921D01*
G54D11*
X487283Y-292100D02*
X488394Y-292767D01*
X488950Y-294100D01*
X488950Y-295433D01*
X488394Y-296767D01*
X487283Y-297433D01*
X486172Y-297433D01*
X485061Y-296767D01*
X484506Y-295433D01*
X484506Y-294100D01*
X483950Y-292767D01*
X482839Y-292100D01*
X481728Y-292100D01*
X480617Y-292767D01*
X480061Y-294100D01*
X480061Y-295433D01*
X480617Y-296767D01*
X481728Y-297433D01*
G54D11*
X488950Y-299877D02*
X480061Y-299877D01*
X480061Y-303210D01*
X480617Y-304544D01*
X481728Y-305210D01*
X487283Y-305210D01*
X488394Y-304544D01*
X488950Y-303210D01*
X488950Y-299877D01*
G54D11*
X488950Y-307654D02*
X480061Y-310987D01*
X488950Y-314321D01*
G54D11*
X485617Y-308987D02*
X485617Y-312987D01*
G54D11*
X484506Y-332867D02*
X484506Y-335533D01*
X487283Y-335533D01*
X488394Y-334867D01*
X488950Y-333533D01*
X488950Y-332200D01*
X488394Y-330867D01*
X487283Y-330200D01*
X481728Y-330200D01*
X480617Y-330867D01*
X480061Y-332200D01*
X480061Y-333533D01*
X480617Y-334867D01*
X481728Y-335533D01*
G54D11*
X488950Y-337977D02*
X480061Y-337977D01*
X488950Y-343310D01*
X480061Y-343310D01*
G54D11*
X488950Y-345754D02*
X480061Y-345754D01*
X480061Y-349087D01*
X480617Y-350421D01*
X481728Y-351087D01*
X487283Y-351087D01*
X488394Y-350421D01*
X488950Y-349087D01*
X488950Y-345754D01*
G54D11*
X438150Y-106267D02*
X438150Y-101600D01*
X429261Y-101600D01*
X429261Y-106267D01*
G54D11*
X433706Y-101600D02*
X433706Y-106267D01*
G54D11*
X429261Y-108711D02*
X438150Y-115378D01*
G54D11*
X438150Y-108711D02*
X429261Y-115378D01*
G54D11*
X438150Y-117822D02*
X429261Y-117822D01*
X429261Y-121155D01*
X429817Y-122489D01*
X430928Y-123155D01*
X432039Y-123155D01*
X433150Y-122489D01*
X433706Y-121155D01*
X433706Y-117822D01*
G54D11*
X432594Y-125599D02*
X429261Y-128932D01*
X438150Y-128932D01*
G54D11*
X438150Y-315817D02*
X438150Y-311150D01*
X429261Y-311150D01*
X429261Y-315817D01*
G54D11*
X433706Y-311150D02*
X433706Y-315817D01*
G54D11*
X429261Y-318261D02*
X438150Y-324928D01*
G54D11*
X438150Y-318261D02*
X429261Y-324928D01*
G54D11*
X438150Y-327372D02*
X429261Y-327372D01*
X429261Y-330705D01*
X429817Y-332039D01*
X430928Y-332705D01*
X432039Y-332705D01*
X433150Y-332039D01*
X433706Y-330705D01*
X433706Y-327372D01*
G54D11*
X438150Y-340482D02*
X438150Y-335149D01*
X437594Y-335149D01*
X436483Y-335816D01*
X433150Y-339816D01*
X432039Y-340482D01*
X430928Y-340482D01*
X429817Y-339816D01*
X429261Y-338482D01*
X429261Y-337149D01*
X429817Y-335816D01*
X430928Y-335149D01*
G54D12*
X342900Y-50800D02*
X329567Y-50800D01*
X342900Y-58800D01*
X329567Y-58800D01*
G54D12*
X336233Y-62467D02*
X335400Y-64467D01*
X335400Y-66867D01*
X337067Y-68467D01*
X342900Y-68467D01*
G54D12*
X340400Y-68467D02*
X338733Y-67467D01*
X338400Y-65467D01*
X338733Y-63467D01*
X340400Y-62467D01*
X342067Y-62867D01*
X342900Y-64467D01*
X342900Y-65467D01*
X342900Y-65867D01*
X342067Y-67467D01*
X340400Y-68467D01*
G54D12*
X342900Y-72134D02*
X335400Y-72134D01*
G54D12*
X337067Y-72134D02*
X335900Y-73134D01*
X335400Y-75134D01*
X335900Y-77134D01*
X337067Y-78134D01*
X342900Y-78134D01*
G54D12*
X340900Y-87801D02*
X337567Y-87801D01*
X335900Y-86801D01*
X335400Y-84801D01*
X335900Y-82801D01*
X337567Y-81801D01*
X340900Y-81801D01*
X342567Y-82801D01*
X342900Y-84801D01*
X342567Y-86801D01*
X340900Y-87801D01*
G54D12*
X342900Y-101335D02*
X329567Y-101335D01*
G54D12*
X337567Y-101335D02*
X335900Y-100335D01*
X335400Y-98335D01*
X335900Y-96335D01*
X337567Y-95335D01*
X340900Y-95335D01*
X342567Y-96335D01*
X342900Y-98335D01*
X342567Y-100335D01*
X340900Y-101335D01*
G54D12*
X342900Y-105002D02*
X335400Y-105002D01*
G54D12*
X332900Y-105002D02*
X332900Y-105002D01*
G54D12*
X342067Y-108669D02*
X342900Y-110669D01*
X342900Y-112669D01*
X342067Y-114669D01*
X340400Y-114669D01*
X339567Y-113669D01*
X338733Y-109669D01*
X337900Y-108669D01*
X336233Y-108669D01*
X335400Y-110669D01*
X335400Y-112669D01*
X336233Y-114669D01*
G54D12*
X335400Y-118336D02*
X346233Y-118336D01*
G54D12*
X340400Y-118336D02*
X342567Y-119336D01*
X342900Y-121336D01*
X342567Y-123336D01*
X340900Y-124336D01*
X337567Y-124336D01*
X335900Y-123336D01*
X335400Y-121336D01*
X335900Y-119336D01*
X337900Y-118336D01*
G54D12*
X342900Y-128003D02*
X329567Y-128003D01*
G54D12*
X336233Y-131670D02*
X335400Y-133670D01*
X335400Y-136070D01*
X337067Y-137670D01*
X342900Y-137670D01*
G54D12*
X340400Y-137670D02*
X338733Y-136670D01*
X338400Y-134670D01*
X338733Y-132670D01*
X340400Y-131670D01*
X342067Y-132070D01*
X342900Y-133670D01*
X342900Y-134670D01*
X342900Y-135070D01*
X342067Y-136670D01*
X340400Y-137670D01*
G54D12*
X335400Y-141337D02*
X342900Y-145337D01*
X335400Y-149337D01*
G54D12*
X342900Y-145337D02*
X345400Y-144337D01*
X346233Y-143337D01*
X346233Y-142337D01*
G54D12*
X337067Y-156871D02*
X337067Y-164871D01*
G54D12*
X333733Y-160871D02*
X340400Y-160871D01*
G54D12*
X342900Y-172405D02*
X329567Y-172405D01*
G54D12*
X342900Y-184072D02*
X342900Y-176072D01*
X342067Y-176072D01*
X340400Y-177072D01*
X335400Y-183072D01*
X333733Y-184072D01*
X332067Y-184072D01*
X330400Y-183072D01*
X329567Y-181072D01*
X329567Y-179072D01*
X330400Y-177072D01*
X332067Y-176072D01*
G54D12*
X340400Y-195739D02*
X342067Y-194739D01*
X342900Y-192739D01*
X342900Y-190739D01*
X342067Y-188739D01*
X340400Y-187739D01*
X332067Y-187739D01*
X330400Y-188739D01*
X329567Y-190739D01*
X329567Y-192739D01*
X330400Y-194739D01*
X332067Y-195739D01*
G54D11*
X344806Y-205867D02*
X345917Y-207867D01*
X347028Y-208533D01*
X349250Y-208533D01*
G54D11*
X349250Y-203200D02*
X340361Y-203200D01*
X340361Y-206533D01*
X340917Y-207867D01*
X342028Y-208533D01*
X343139Y-208533D01*
X344250Y-207867D01*
X344806Y-206533D01*
X344806Y-203200D01*
G54D11*
X348694Y-214977D02*
X349250Y-213910D01*
X349250Y-212577D01*
X348694Y-211244D01*
X347583Y-210977D01*
X345694Y-210977D01*
X344583Y-211644D01*
X344250Y-212977D01*
X344583Y-214310D01*
X345361Y-214977D01*
X346472Y-214977D01*
X346472Y-210977D01*
G54D11*
X344250Y-217421D02*
X349250Y-220088D01*
X344250Y-222754D01*
G54D11*
X349250Y-225198D02*
X349250Y-225198D01*
G54D11*
X343694Y-227642D02*
X340361Y-230975D01*
X349250Y-230975D01*
G54D10*
X825500Y-215900D02*
X765175Y-215900D01*
G54D10*
X825500Y-88900D02*
X765175Y-88900D01*
X765175Y-215900D01*
G54D10*
X825500Y-215900D02*
X825500Y-88900D01*
G54D10*
X825500Y-190500D02*
X819150Y-190500D01*
X819150Y-114300D01*
X825500Y-114300D01*
G54D10*
X825500Y-355600D02*
X765175Y-355600D01*
G54D10*
X825500Y-228600D02*
X765175Y-228600D01*
X765175Y-355600D01*
G54D10*
X825500Y-355600D02*
X825500Y-228600D01*
G54D10*
X825500Y-330200D02*
X819150Y-330200D01*
X819150Y-254000D01*
X825500Y-254000D01*
G54D10*
X628650Y-44450D02*
X692150Y-44450D01*
X692150Y-184150D01*
X628650Y-184150D01*
X628650Y-44450D01*
G54D10*
X628650Y-260350D02*
X691350Y-260350D01*
X691350Y-399196D01*
X628650Y-399196D01*
X628650Y-260350D01*
G54D11*
X753111Y-95250D02*
X762000Y-98583D01*
X753111Y-101917D01*
G54D11*
X760333Y-109694D02*
X761444Y-109028D01*
X762000Y-107694D01*
X762000Y-106361D01*
X761444Y-105028D01*
X760333Y-104361D01*
X754778Y-104361D01*
X753667Y-105028D01*
X753111Y-106361D01*
X753111Y-107694D01*
X753667Y-109028D01*
X754778Y-109694D01*
G54D11*
X760333Y-117471D02*
X761444Y-116805D01*
X762000Y-115471D01*
X762000Y-114138D01*
X761444Y-112805D01*
X760333Y-112138D01*
X754778Y-112138D01*
X753667Y-112805D01*
X753111Y-114138D01*
X753111Y-115471D01*
X753667Y-116805D01*
X754778Y-117471D01*
G54D11*
X760333Y-127000D02*
X761444Y-127667D01*
X762000Y-129000D01*
X762000Y-130333D01*
X761444Y-131667D01*
X760333Y-132333D01*
X759222Y-132333D01*
X758111Y-131667D01*
X757556Y-130333D01*
X757556Y-129000D01*
X757000Y-127667D01*
X755889Y-127000D01*
X754778Y-127000D01*
X753667Y-127667D01*
X753111Y-129000D01*
X753111Y-130333D01*
X753667Y-131667D01*
X754778Y-132333D01*
G54D11*
X760333Y-140110D02*
X761444Y-139444D01*
X762000Y-138110D01*
X762000Y-136777D01*
X761444Y-135444D01*
X760333Y-134777D01*
X754778Y-134777D01*
X753667Y-135444D01*
X753111Y-136777D01*
X753111Y-138110D01*
X753667Y-139444D01*
X754778Y-140110D01*
G54D11*
X753111Y-142554D02*
X762000Y-142554D01*
X762000Y-147221D01*
G54D11*
X760333Y-152400D02*
X761444Y-153067D01*
X762000Y-154400D01*
X762000Y-155733D01*
X761444Y-157067D01*
X760333Y-157733D01*
X759222Y-157733D01*
X758111Y-157067D01*
X757556Y-155733D01*
X757556Y-154400D01*
X757000Y-153067D01*
X755889Y-152400D01*
X754778Y-152400D01*
X753667Y-153067D01*
X753111Y-154400D01*
X753111Y-155733D01*
X753667Y-157067D01*
X754778Y-157733D01*
G54D11*
X762000Y-160177D02*
X753111Y-160177D01*
X753111Y-163510D01*
X753667Y-164844D01*
X754778Y-165510D01*
X760333Y-165510D01*
X761444Y-164844D01*
X762000Y-163510D01*
X762000Y-160177D01*
G54D11*
X762000Y-167954D02*
X753111Y-171287D01*
X762000Y-174621D01*
G54D11*
X758667Y-169287D02*
X758667Y-173287D01*
G54D11*
X757556Y-186817D02*
X757556Y-189483D01*
X760333Y-189483D01*
X761444Y-188817D01*
X762000Y-187483D01*
X762000Y-186150D01*
X761444Y-184817D01*
X760333Y-184150D01*
X754778Y-184150D01*
X753667Y-184817D01*
X753111Y-186150D01*
X753111Y-187483D01*
X753667Y-188817D01*
X754778Y-189483D01*
G54D11*
X762000Y-191927D02*
X753111Y-191927D01*
X762000Y-197260D01*
X753111Y-197260D01*
G54D11*
X762000Y-199704D02*
X753111Y-199704D01*
X753111Y-203037D01*
X753667Y-204371D01*
X754778Y-205037D01*
X760333Y-205037D01*
X761444Y-204371D01*
X762000Y-203037D01*
X762000Y-199704D01*
G54D11*
X753111Y-234950D02*
X762000Y-238283D01*
X753111Y-241617D01*
G54D11*
X760333Y-249394D02*
X761444Y-248728D01*
X762000Y-247394D01*
X762000Y-246061D01*
X761444Y-244728D01*
X760333Y-244061D01*
X754778Y-244061D01*
X753667Y-244728D01*
X753111Y-246061D01*
X753111Y-247394D01*
X753667Y-248728D01*
X754778Y-249394D01*
G54D11*
X760333Y-257171D02*
X761444Y-256505D01*
X762000Y-255171D01*
X762000Y-253838D01*
X761444Y-252505D01*
X760333Y-251838D01*
X754778Y-251838D01*
X753667Y-252505D01*
X753111Y-253838D01*
X753111Y-255171D01*
X753667Y-256505D01*
X754778Y-257171D01*
G54D11*
X760333Y-266700D02*
X761444Y-267367D01*
X762000Y-268700D01*
X762000Y-270033D01*
X761444Y-271367D01*
X760333Y-272033D01*
X759222Y-272033D01*
X758111Y-271367D01*
X757556Y-270033D01*
X757556Y-268700D01*
X757000Y-267367D01*
X755889Y-266700D01*
X754778Y-266700D01*
X753667Y-267367D01*
X753111Y-268700D01*
X753111Y-270033D01*
X753667Y-271367D01*
X754778Y-272033D01*
G54D11*
X760333Y-279810D02*
X761444Y-279144D01*
X762000Y-277810D01*
X762000Y-276477D01*
X761444Y-275144D01*
X760333Y-274477D01*
X754778Y-274477D01*
X753667Y-275144D01*
X753111Y-276477D01*
X753111Y-277810D01*
X753667Y-279144D01*
X754778Y-279810D01*
G54D11*
X753111Y-282254D02*
X762000Y-282254D01*
X762000Y-286921D01*
G54D11*
X760333Y-292100D02*
X761444Y-292767D01*
X762000Y-294100D01*
X762000Y-295433D01*
X761444Y-296767D01*
X760333Y-297433D01*
X759222Y-297433D01*
X758111Y-296767D01*
X757556Y-295433D01*
X757556Y-294100D01*
X757000Y-292767D01*
X755889Y-292100D01*
X754778Y-292100D01*
X753667Y-292767D01*
X753111Y-294100D01*
X753111Y-295433D01*
X753667Y-296767D01*
X754778Y-297433D01*
G54D11*
X762000Y-299877D02*
X753111Y-299877D01*
X753111Y-303210D01*
X753667Y-304544D01*
X754778Y-305210D01*
X760333Y-305210D01*
X761444Y-304544D01*
X762000Y-303210D01*
X762000Y-299877D01*
G54D11*
X762000Y-307654D02*
X753111Y-310987D01*
X762000Y-314321D01*
G54D11*
X758667Y-308987D02*
X758667Y-312987D01*
G54D11*
X757556Y-332867D02*
X757556Y-335533D01*
X760333Y-335533D01*
X761444Y-334867D01*
X762000Y-333533D01*
X762000Y-332200D01*
X761444Y-330867D01*
X760333Y-330200D01*
X754778Y-330200D01*
X753667Y-330867D01*
X753111Y-332200D01*
X753111Y-333533D01*
X753667Y-334867D01*
X754778Y-335533D01*
G54D11*
X762000Y-337977D02*
X753111Y-337977D01*
X762000Y-343310D01*
X753111Y-343310D01*
G54D11*
X762000Y-345754D02*
X753111Y-345754D01*
X753111Y-349087D01*
X753667Y-350421D01*
X754778Y-351087D01*
X760333Y-351087D01*
X761444Y-350421D01*
X762000Y-349087D01*
X762000Y-345754D01*
G54D11*
X711200Y-106267D02*
X711200Y-101600D01*
X702311Y-101600D01*
X702311Y-106267D01*
G54D11*
X706756Y-101600D02*
X706756Y-106267D01*
G54D11*
X702311Y-108711D02*
X711200Y-115378D01*
G54D11*
X711200Y-108711D02*
X702311Y-115378D01*
G54D11*
X711200Y-117822D02*
X702311Y-117822D01*
X702311Y-121155D01*
X702867Y-122489D01*
X703978Y-123155D01*
X705089Y-123155D01*
X706200Y-122489D01*
X706756Y-121155D01*
X706756Y-117822D01*
G54D11*
X705644Y-125599D02*
X702311Y-128932D01*
X711200Y-128932D01*
G54D11*
X711200Y-315817D02*
X711200Y-311150D01*
X702311Y-311150D01*
X702311Y-315817D01*
G54D11*
X706756Y-311150D02*
X706756Y-315817D01*
G54D11*
X702311Y-318261D02*
X711200Y-324928D01*
G54D11*
X711200Y-318261D02*
X702311Y-324928D01*
G54D11*
X711200Y-327372D02*
X702311Y-327372D01*
X702311Y-330705D01*
X702867Y-332039D01*
X703978Y-332705D01*
X705089Y-332705D01*
X706200Y-332039D01*
X706756Y-330705D01*
X706756Y-327372D01*
G54D11*
X711200Y-340482D02*
X711200Y-335149D01*
X710644Y-335149D01*
X709533Y-335816D01*
X706200Y-339816D01*
X705089Y-340482D01*
X703978Y-340482D01*
X702867Y-339816D01*
X702311Y-338482D01*
X702311Y-337149D01*
X702867Y-335816D01*
X703978Y-335149D01*
G54D12*
X615950Y-50800D02*
X602617Y-50800D01*
X615950Y-58800D01*
X602617Y-58800D01*
G54D12*
X609283Y-62467D02*
X608450Y-64467D01*
X608450Y-66867D01*
X610117Y-68467D01*
X615950Y-68467D01*
G54D12*
X613450Y-68467D02*
X611783Y-67467D01*
X611450Y-65467D01*
X611783Y-63467D01*
X613450Y-62467D01*
X615117Y-62867D01*
X615950Y-64467D01*
X615950Y-65467D01*
X615950Y-65867D01*
X615117Y-67467D01*
X613450Y-68467D01*
G54D12*
X615950Y-72134D02*
X608450Y-72134D01*
G54D12*
X610117Y-72134D02*
X608950Y-73134D01*
X608450Y-75134D01*
X608950Y-77134D01*
X610117Y-78134D01*
X615950Y-78134D01*
G54D12*
X613950Y-87801D02*
X610617Y-87801D01*
X608950Y-86801D01*
X608450Y-84801D01*
X608950Y-82801D01*
X610617Y-81801D01*
X613950Y-81801D01*
X615617Y-82801D01*
X615950Y-84801D01*
X615617Y-86801D01*
X613950Y-87801D01*
G54D12*
X615950Y-101335D02*
X602617Y-101335D01*
G54D12*
X610617Y-101335D02*
X608950Y-100335D01*
X608450Y-98335D01*
X608950Y-96335D01*
X610617Y-95335D01*
X613950Y-95335D01*
X615617Y-96335D01*
X615950Y-98335D01*
X615617Y-100335D01*
X613950Y-101335D01*
G54D12*
X615950Y-105002D02*
X608450Y-105002D01*
G54D12*
X605950Y-105002D02*
X605950Y-105002D01*
G54D12*
X615117Y-108669D02*
X615950Y-110669D01*
X615950Y-112669D01*
X615117Y-114669D01*
X613450Y-114669D01*
X612617Y-113669D01*
X611783Y-109669D01*
X610950Y-108669D01*
X609283Y-108669D01*
X608450Y-110669D01*
X608450Y-112669D01*
X609283Y-114669D01*
G54D12*
X608450Y-118336D02*
X619283Y-118336D01*
G54D12*
X613450Y-118336D02*
X615617Y-119336D01*
X615950Y-121336D01*
X615617Y-123336D01*
X613950Y-124336D01*
X610617Y-124336D01*
X608950Y-123336D01*
X608450Y-121336D01*
X608950Y-119336D01*
X610950Y-118336D01*
G54D12*
X615950Y-128003D02*
X602617Y-128003D01*
G54D12*
X609283Y-131670D02*
X608450Y-133670D01*
X608450Y-136070D01*
X610117Y-137670D01*
X615950Y-137670D01*
G54D12*
X613450Y-137670D02*
X611783Y-136670D01*
X611450Y-134670D01*
X611783Y-132670D01*
X613450Y-131670D01*
X615117Y-132070D01*
X615950Y-133670D01*
X615950Y-134670D01*
X615950Y-135070D01*
X615117Y-136670D01*
X613450Y-137670D01*
G54D12*
X608450Y-141337D02*
X615950Y-145337D01*
X608450Y-149337D01*
G54D12*
X615950Y-145337D02*
X618450Y-144337D01*
X619283Y-143337D01*
X619283Y-142337D01*
G54D12*
X610117Y-156871D02*
X610117Y-164871D01*
G54D12*
X606783Y-160871D02*
X613450Y-160871D01*
G54D12*
X615950Y-172405D02*
X602617Y-172405D01*
G54D12*
X615950Y-184072D02*
X615950Y-176072D01*
X615117Y-176072D01*
X613450Y-177072D01*
X608450Y-183072D01*
X606783Y-184072D01*
X605117Y-184072D01*
X603450Y-183072D01*
X602617Y-181072D01*
X602617Y-179072D01*
X603450Y-177072D01*
X605117Y-176072D01*
G54D12*
X613450Y-195739D02*
X615117Y-194739D01*
X615950Y-192739D01*
X615950Y-190739D01*
X615117Y-188739D01*
X613450Y-187739D01*
X605117Y-187739D01*
X603450Y-188739D01*
X602617Y-190739D01*
X602617Y-192739D01*
X603450Y-194739D01*
X605117Y-195739D01*
G54D11*
X617856Y-205867D02*
X618967Y-207867D01*
X620078Y-208533D01*
X622300Y-208533D01*
G54D11*
X622300Y-203200D02*
X613411Y-203200D01*
X613411Y-206533D01*
X613967Y-207867D01*
X615078Y-208533D01*
X616189Y-208533D01*
X617300Y-207867D01*
X617856Y-206533D01*
X617856Y-203200D01*
G54D11*
X621744Y-214977D02*
X622300Y-213910D01*
X622300Y-212577D01*
X621744Y-211244D01*
X620633Y-210977D01*
X618744Y-210977D01*
X617633Y-211644D01*
X617300Y-212977D01*
X617633Y-214310D01*
X618411Y-214977D01*
X619522Y-214977D01*
X619522Y-210977D01*
G54D11*
X617300Y-217421D02*
X622300Y-220088D01*
X617300Y-222754D01*
G54D11*
X622300Y-225198D02*
X622300Y-225198D01*
G54D11*
X616744Y-227642D02*
X613411Y-230975D01*
X622300Y-230975D01*
G54D10*
X279400Y-609600D02*
X219075Y-609600D01*
G54D10*
X279400Y-482600D02*
X219075Y-482600D01*
X219075Y-609600D01*
G54D10*
X279400Y-609600D02*
X279400Y-482600D01*
G54D10*
X279400Y-584200D02*
X273050Y-584200D01*
X273050Y-508000D01*
X279400Y-508000D01*
G54D10*
X279400Y-749300D02*
X219075Y-749300D01*
G54D10*
X279400Y-622300D02*
X219075Y-622300D01*
X219075Y-749300D01*
G54D10*
X279400Y-749300D02*
X279400Y-622300D01*
G54D10*
X279400Y-723900D02*
X273050Y-723900D01*
X273050Y-647700D01*
X279400Y-647700D01*
G54D10*
X82550Y-438150D02*
X146050Y-438150D01*
X146050Y-577850D01*
X82550Y-577850D01*
X82550Y-438150D01*
G54D10*
X82550Y-654050D02*
X145250Y-654050D01*
X145250Y-792896D01*
X82550Y-792896D01*
X82550Y-654050D01*
G54D11*
X207011Y-488950D02*
X215900Y-492283D01*
X207011Y-495617D01*
G54D11*
X214233Y-503394D02*
X215344Y-502728D01*
X215900Y-501394D01*
X215900Y-500061D01*
X215344Y-498728D01*
X214233Y-498061D01*
X208678Y-498061D01*
X207567Y-498728D01*
X207011Y-500061D01*
X207011Y-501394D01*
X207567Y-502728D01*
X208678Y-503394D01*
G54D11*
X214233Y-511171D02*
X215344Y-510505D01*
X215900Y-509171D01*
X215900Y-507838D01*
X215344Y-506505D01*
X214233Y-505838D01*
X208678Y-505838D01*
X207567Y-506505D01*
X207011Y-507838D01*
X207011Y-509171D01*
X207567Y-510505D01*
X208678Y-511171D01*
G54D11*
X214233Y-520700D02*
X215344Y-521367D01*
X215900Y-522700D01*
X215900Y-524033D01*
X215344Y-525367D01*
X214233Y-526033D01*
X213122Y-526033D01*
X212011Y-525367D01*
X211456Y-524033D01*
X211456Y-522700D01*
X210900Y-521367D01*
X209789Y-520700D01*
X208678Y-520700D01*
X207567Y-521367D01*
X207011Y-522700D01*
X207011Y-524033D01*
X207567Y-525367D01*
X208678Y-526033D01*
G54D11*
X214233Y-533810D02*
X215344Y-533144D01*
X215900Y-531810D01*
X215900Y-530477D01*
X215344Y-529144D01*
X214233Y-528477D01*
X208678Y-528477D01*
X207567Y-529144D01*
X207011Y-530477D01*
X207011Y-531810D01*
X207567Y-533144D01*
X208678Y-533810D01*
G54D11*
X207011Y-536254D02*
X215900Y-536254D01*
X215900Y-540921D01*
G54D11*
X214233Y-546100D02*
X215344Y-546767D01*
X215900Y-548100D01*
X215900Y-549433D01*
X215344Y-550767D01*
X214233Y-551433D01*
X213122Y-551433D01*
X212011Y-550767D01*
X211456Y-549433D01*
X211456Y-548100D01*
X210900Y-546767D01*
X209789Y-546100D01*
X208678Y-546100D01*
X207567Y-546767D01*
X207011Y-548100D01*
X207011Y-549433D01*
X207567Y-550767D01*
X208678Y-551433D01*
G54D11*
X215900Y-553877D02*
X207011Y-553877D01*
X207011Y-557210D01*
X207567Y-558544D01*
X208678Y-559210D01*
X214233Y-559210D01*
X215344Y-558544D01*
X215900Y-557210D01*
X215900Y-553877D01*
G54D11*
X215900Y-561654D02*
X207011Y-564987D01*
X215900Y-568321D01*
G54D11*
X212567Y-562987D02*
X212567Y-566987D01*
G54D11*
X211456Y-580517D02*
X211456Y-583183D01*
X214233Y-583183D01*
X215344Y-582517D01*
X215900Y-581183D01*
X215900Y-579850D01*
X215344Y-578517D01*
X214233Y-577850D01*
X208678Y-577850D01*
X207567Y-578517D01*
X207011Y-579850D01*
X207011Y-581183D01*
X207567Y-582517D01*
X208678Y-583183D01*
G54D11*
X215900Y-585627D02*
X207011Y-585627D01*
X215900Y-590960D01*
X207011Y-590960D01*
G54D11*
X215900Y-593404D02*
X207011Y-593404D01*
X207011Y-596737D01*
X207567Y-598071D01*
X208678Y-598737D01*
X214233Y-598737D01*
X215344Y-598071D01*
X215900Y-596737D01*
X215900Y-593404D01*
G54D11*
X207011Y-628650D02*
X215900Y-631983D01*
X207011Y-635317D01*
G54D11*
X214233Y-643094D02*
X215344Y-642428D01*
X215900Y-641094D01*
X215900Y-639761D01*
X215344Y-638428D01*
X214233Y-637761D01*
X208678Y-637761D01*
X207567Y-638428D01*
X207011Y-639761D01*
X207011Y-641094D01*
X207567Y-642428D01*
X208678Y-643094D01*
G54D11*
X214233Y-650871D02*
X215344Y-650205D01*
X215900Y-648871D01*
X215900Y-647538D01*
X215344Y-646205D01*
X214233Y-645538D01*
X208678Y-645538D01*
X207567Y-646205D01*
X207011Y-647538D01*
X207011Y-648871D01*
X207567Y-650205D01*
X208678Y-650871D01*
G54D11*
X214233Y-660400D02*
X215344Y-661067D01*
X215900Y-662400D01*
X215900Y-663733D01*
X215344Y-665067D01*
X214233Y-665733D01*
X213122Y-665733D01*
X212011Y-665067D01*
X211456Y-663733D01*
X211456Y-662400D01*
X210900Y-661067D01*
X209789Y-660400D01*
X208678Y-660400D01*
X207567Y-661067D01*
X207011Y-662400D01*
X207011Y-663733D01*
X207567Y-665067D01*
X208678Y-665733D01*
G54D11*
X214233Y-673510D02*
X215344Y-672844D01*
X215900Y-671510D01*
X215900Y-670177D01*
X215344Y-668844D01*
X214233Y-668177D01*
X208678Y-668177D01*
X207567Y-668844D01*
X207011Y-670177D01*
X207011Y-671510D01*
X207567Y-672844D01*
X208678Y-673510D01*
G54D11*
X207011Y-675954D02*
X215900Y-675954D01*
X215900Y-680621D01*
G54D11*
X214233Y-685800D02*
X215344Y-686467D01*
X215900Y-687800D01*
X215900Y-689133D01*
X215344Y-690467D01*
X214233Y-691133D01*
X213122Y-691133D01*
X212011Y-690467D01*
X211456Y-689133D01*
X211456Y-687800D01*
X210900Y-686467D01*
X209789Y-685800D01*
X208678Y-685800D01*
X207567Y-686467D01*
X207011Y-687800D01*
X207011Y-689133D01*
X207567Y-690467D01*
X208678Y-691133D01*
G54D11*
X215900Y-693577D02*
X207011Y-693577D01*
X207011Y-696910D01*
X207567Y-698244D01*
X208678Y-698910D01*
X214233Y-698910D01*
X215344Y-698244D01*
X215900Y-696910D01*
X215900Y-693577D01*
G54D11*
X215900Y-701354D02*
X207011Y-704687D01*
X215900Y-708021D01*
G54D11*
X212567Y-702687D02*
X212567Y-706687D01*
G54D11*
X211456Y-726567D02*
X211456Y-729233D01*
X214233Y-729233D01*
X215344Y-728567D01*
X215900Y-727233D01*
X215900Y-725900D01*
X215344Y-724567D01*
X214233Y-723900D01*
X208678Y-723900D01*
X207567Y-724567D01*
X207011Y-725900D01*
X207011Y-727233D01*
X207567Y-728567D01*
X208678Y-729233D01*
G54D11*
X215900Y-731677D02*
X207011Y-731677D01*
X215900Y-737010D01*
X207011Y-737010D01*
G54D11*
X215900Y-739454D02*
X207011Y-739454D01*
X207011Y-742787D01*
X207567Y-744121D01*
X208678Y-744787D01*
X214233Y-744787D01*
X215344Y-744121D01*
X215900Y-742787D01*
X215900Y-739454D01*
G54D11*
X165100Y-499967D02*
X165100Y-495300D01*
X156211Y-495300D01*
X156211Y-499967D01*
G54D11*
X160656Y-495300D02*
X160656Y-499967D01*
G54D11*
X156211Y-502411D02*
X165100Y-509078D01*
G54D11*
X165100Y-502411D02*
X156211Y-509078D01*
G54D11*
X165100Y-511522D02*
X156211Y-511522D01*
X156211Y-514855D01*
X156767Y-516189D01*
X157878Y-516855D01*
X158989Y-516855D01*
X160100Y-516189D01*
X160656Y-514855D01*
X160656Y-511522D01*
G54D11*
X159544Y-519299D02*
X156211Y-522632D01*
X165100Y-522632D01*
G54D11*
X165100Y-709517D02*
X165100Y-704850D01*
X156211Y-704850D01*
X156211Y-709517D01*
G54D11*
X160656Y-704850D02*
X160656Y-709517D01*
G54D11*
X156211Y-711961D02*
X165100Y-718628D01*
G54D11*
X165100Y-711961D02*
X156211Y-718628D01*
G54D11*
X165100Y-721072D02*
X156211Y-721072D01*
X156211Y-724405D01*
X156767Y-725739D01*
X157878Y-726405D01*
X158989Y-726405D01*
X160100Y-725739D01*
X160656Y-724405D01*
X160656Y-721072D01*
G54D11*
X165100Y-734182D02*
X165100Y-728849D01*
X164544Y-728849D01*
X163433Y-729516D01*
X160100Y-733516D01*
X158989Y-734182D01*
X157878Y-734182D01*
X156767Y-733516D01*
X156211Y-732182D01*
X156211Y-730849D01*
X156767Y-729516D01*
X157878Y-728849D01*
G54D12*
X69850Y-444500D02*
X56517Y-444500D01*
X69850Y-452500D01*
X56517Y-452500D01*
G54D12*
X63183Y-456167D02*
X62350Y-458167D01*
X62350Y-460567D01*
X64017Y-462167D01*
X69850Y-462167D01*
G54D12*
X67350Y-462167D02*
X65683Y-461167D01*
X65350Y-459167D01*
X65683Y-457167D01*
X67350Y-456167D01*
X69017Y-456567D01*
X69850Y-458167D01*
X69850Y-459167D01*
X69850Y-459567D01*
X69017Y-461167D01*
X67350Y-462167D01*
G54D12*
X69850Y-465834D02*
X62350Y-465834D01*
G54D12*
X64017Y-465834D02*
X62850Y-466834D01*
X62350Y-468834D01*
X62850Y-470834D01*
X64017Y-471834D01*
X69850Y-471834D01*
G54D12*
X67850Y-481501D02*
X64517Y-481501D01*
X62850Y-480501D01*
X62350Y-478501D01*
X62850Y-476501D01*
X64517Y-475501D01*
X67850Y-475501D01*
X69517Y-476501D01*
X69850Y-478501D01*
X69517Y-480501D01*
X67850Y-481501D01*
G54D12*
X69850Y-495035D02*
X56517Y-495035D01*
G54D12*
X64517Y-495035D02*
X62850Y-494035D01*
X62350Y-492035D01*
X62850Y-490035D01*
X64517Y-489035D01*
X67850Y-489035D01*
X69517Y-490035D01*
X69850Y-492035D01*
X69517Y-494035D01*
X67850Y-495035D01*
G54D12*
X69850Y-498702D02*
X62350Y-498702D01*
G54D12*
X59850Y-498702D02*
X59850Y-498702D01*
G54D12*
X69017Y-502369D02*
X69850Y-504369D01*
X69850Y-506369D01*
X69017Y-508369D01*
X67350Y-508369D01*
X66517Y-507369D01*
X65683Y-503369D01*
X64850Y-502369D01*
X63183Y-502369D01*
X62350Y-504369D01*
X62350Y-506369D01*
X63183Y-508369D01*
G54D12*
X62350Y-512036D02*
X73183Y-512036D01*
G54D12*
X67350Y-512036D02*
X69517Y-513036D01*
X69850Y-515036D01*
X69517Y-517036D01*
X67850Y-518036D01*
X64517Y-518036D01*
X62850Y-517036D01*
X62350Y-515036D01*
X62850Y-513036D01*
X64850Y-512036D01*
G54D12*
X69850Y-521703D02*
X56517Y-521703D01*
G54D12*
X63183Y-525370D02*
X62350Y-527370D01*
X62350Y-529770D01*
X64017Y-531370D01*
X69850Y-531370D01*
G54D12*
X67350Y-531370D02*
X65683Y-530370D01*
X65350Y-528370D01*
X65683Y-526370D01*
X67350Y-525370D01*
X69017Y-525770D01*
X69850Y-527370D01*
X69850Y-528370D01*
X69850Y-528770D01*
X69017Y-530370D01*
X67350Y-531370D01*
G54D12*
X62350Y-535037D02*
X69850Y-539037D01*
X62350Y-543037D01*
G54D12*
X69850Y-539037D02*
X72350Y-538037D01*
X73183Y-537037D01*
X73183Y-536037D01*
G54D12*
X64017Y-550571D02*
X64017Y-558571D01*
G54D12*
X60683Y-554571D02*
X67350Y-554571D01*
G54D12*
X69850Y-566105D02*
X56517Y-566105D01*
G54D12*
X69850Y-577772D02*
X69850Y-569772D01*
X69017Y-569772D01*
X67350Y-570772D01*
X62350Y-576772D01*
X60683Y-577772D01*
X59017Y-577772D01*
X57350Y-576772D01*
X56517Y-574772D01*
X56517Y-572772D01*
X57350Y-570772D01*
X59017Y-569772D01*
G54D12*
X67350Y-589439D02*
X69017Y-588439D01*
X69850Y-586439D01*
X69850Y-584439D01*
X69017Y-582439D01*
X67350Y-581439D01*
X59017Y-581439D01*
X57350Y-582439D01*
X56517Y-584439D01*
X56517Y-586439D01*
X57350Y-588439D01*
X59017Y-589439D01*
G54D11*
X71756Y-599567D02*
X72867Y-601567D01*
X73978Y-602233D01*
X76200Y-602233D01*
G54D11*
X76200Y-596900D02*
X67311Y-596900D01*
X67311Y-600233D01*
X67867Y-601567D01*
X68978Y-602233D01*
X70089Y-602233D01*
X71200Y-601567D01*
X71756Y-600233D01*
X71756Y-596900D01*
G54D11*
X75644Y-608677D02*
X76200Y-607610D01*
X76200Y-606277D01*
X75644Y-604944D01*
X74533Y-604677D01*
X72644Y-604677D01*
X71533Y-605344D01*
X71200Y-606677D01*
X71533Y-608010D01*
X72311Y-608677D01*
X73422Y-608677D01*
X73422Y-604677D01*
G54D11*
X71200Y-611121D02*
X76200Y-613788D01*
X71200Y-616454D01*
G54D11*
X76200Y-618898D02*
X76200Y-618898D01*
G54D11*
X70644Y-621342D02*
X67311Y-624675D01*
X76200Y-624675D01*
G54D10*
X552450Y-609600D02*
X492125Y-609600D01*
G54D10*
X552450Y-482600D02*
X492125Y-482600D01*
X492125Y-609600D01*
G54D10*
X552450Y-609600D02*
X552450Y-482600D01*
G54D10*
X552450Y-584200D02*
X546100Y-584200D01*
X546100Y-508000D01*
X552450Y-508000D01*
G54D10*
X552450Y-749300D02*
X492125Y-749300D01*
G54D10*
X552450Y-622300D02*
X492125Y-622300D01*
X492125Y-749300D01*
G54D10*
X552450Y-749300D02*
X552450Y-622300D01*
G54D10*
X552450Y-723900D02*
X546100Y-723900D01*
X546100Y-647700D01*
X552450Y-647700D01*
G54D10*
X355600Y-438150D02*
X419100Y-438150D01*
X419100Y-577850D01*
X355600Y-577850D01*
X355600Y-438150D01*
G54D10*
X355600Y-654050D02*
X418300Y-654050D01*
X418300Y-792896D01*
X355600Y-792896D01*
X355600Y-654050D01*
G54D11*
X480061Y-488950D02*
X488950Y-492283D01*
X480061Y-495617D01*
G54D11*
X487283Y-503394D02*
X488394Y-502728D01*
X488950Y-501394D01*
X488950Y-500061D01*
X488394Y-498728D01*
X487283Y-498061D01*
X481728Y-498061D01*
X480617Y-498728D01*
X480061Y-500061D01*
X480061Y-501394D01*
X480617Y-502728D01*
X481728Y-503394D01*
G54D11*
X487283Y-511171D02*
X488394Y-510505D01*
X488950Y-509171D01*
X488950Y-507838D01*
X488394Y-506505D01*
X487283Y-505838D01*
X481728Y-505838D01*
X480617Y-506505D01*
X480061Y-507838D01*
X480061Y-509171D01*
X480617Y-510505D01*
X481728Y-511171D01*
G54D11*
X487283Y-520700D02*
X488394Y-521367D01*
X488950Y-522700D01*
X488950Y-524033D01*
X488394Y-525367D01*
X487283Y-526033D01*
X486172Y-526033D01*
X485061Y-525367D01*
X484506Y-524033D01*
X484506Y-522700D01*
X483950Y-521367D01*
X482839Y-520700D01*
X481728Y-520700D01*
X480617Y-521367D01*
X480061Y-522700D01*
X480061Y-524033D01*
X480617Y-525367D01*
X481728Y-526033D01*
G54D11*
X487283Y-533810D02*
X488394Y-533144D01*
X488950Y-531810D01*
X488950Y-530477D01*
X488394Y-529144D01*
X487283Y-528477D01*
X481728Y-528477D01*
X480617Y-529144D01*
X480061Y-530477D01*
X480061Y-531810D01*
X480617Y-533144D01*
X481728Y-533810D01*
G54D11*
X480061Y-536254D02*
X488950Y-536254D01*
X488950Y-540921D01*
G54D11*
X487283Y-546100D02*
X488394Y-546767D01*
X488950Y-548100D01*
X488950Y-549433D01*
X488394Y-550767D01*
X487283Y-551433D01*
X486172Y-551433D01*
X485061Y-550767D01*
X484506Y-549433D01*
X484506Y-548100D01*
X483950Y-546767D01*
X482839Y-546100D01*
X481728Y-546100D01*
X480617Y-546767D01*
X480061Y-548100D01*
X480061Y-549433D01*
X480617Y-550767D01*
X481728Y-551433D01*
G54D11*
X488950Y-553877D02*
X480061Y-553877D01*
X480061Y-557210D01*
X480617Y-558544D01*
X481728Y-559210D01*
X487283Y-559210D01*
X488394Y-558544D01*
X488950Y-557210D01*
X488950Y-553877D01*
G54D11*
X488950Y-561654D02*
X480061Y-564987D01*
X488950Y-568321D01*
G54D11*
X485617Y-562987D02*
X485617Y-566987D01*
G54D11*
X484506Y-580517D02*
X484506Y-583183D01*
X487283Y-583183D01*
X488394Y-582517D01*
X488950Y-581183D01*
X488950Y-579850D01*
X488394Y-578517D01*
X487283Y-577850D01*
X481728Y-577850D01*
X480617Y-578517D01*
X480061Y-579850D01*
X480061Y-581183D01*
X480617Y-582517D01*
X481728Y-583183D01*
G54D11*
X488950Y-585627D02*
X480061Y-585627D01*
X488950Y-590960D01*
X480061Y-590960D01*
G54D11*
X488950Y-593404D02*
X480061Y-593404D01*
X480061Y-596737D01*
X480617Y-598071D01*
X481728Y-598737D01*
X487283Y-598737D01*
X488394Y-598071D01*
X488950Y-596737D01*
X488950Y-593404D01*
G54D11*
X480061Y-628650D02*
X488950Y-631983D01*
X480061Y-635317D01*
G54D11*
X487283Y-643094D02*
X488394Y-642428D01*
X488950Y-641094D01*
X488950Y-639761D01*
X488394Y-638428D01*
X487283Y-637761D01*
X481728Y-637761D01*
X480617Y-638428D01*
X480061Y-639761D01*
X480061Y-641094D01*
X480617Y-642428D01*
X481728Y-643094D01*
G54D11*
X487283Y-650871D02*
X488394Y-650205D01*
X488950Y-648871D01*
X488950Y-647538D01*
X488394Y-646205D01*
X487283Y-645538D01*
X481728Y-645538D01*
X480617Y-646205D01*
X480061Y-647538D01*
X480061Y-648871D01*
X480617Y-650205D01*
X481728Y-650871D01*
G54D11*
X487283Y-660400D02*
X488394Y-661067D01*
X488950Y-662400D01*
X488950Y-663733D01*
X488394Y-665067D01*
X487283Y-665733D01*
X486172Y-665733D01*
X485061Y-665067D01*
X484506Y-663733D01*
X484506Y-662400D01*
X483950Y-661067D01*
X482839Y-660400D01*
X481728Y-660400D01*
X480617Y-661067D01*
X480061Y-662400D01*
X480061Y-663733D01*
X480617Y-665067D01*
X481728Y-665733D01*
G54D11*
X487283Y-673510D02*
X488394Y-672844D01*
X488950Y-671510D01*
X488950Y-670177D01*
X488394Y-668844D01*
X487283Y-668177D01*
X481728Y-668177D01*
X480617Y-668844D01*
X480061Y-670177D01*
X480061Y-671510D01*
X480617Y-672844D01*
X481728Y-673510D01*
G54D11*
X480061Y-675954D02*
X488950Y-675954D01*
X488950Y-680621D01*
G54D11*
X487283Y-685800D02*
X488394Y-686467D01*
X488950Y-687800D01*
X488950Y-689133D01*
X488394Y-690467D01*
X487283Y-691133D01*
X486172Y-691133D01*
X485061Y-690467D01*
X484506Y-689133D01*
X484506Y-687800D01*
X483950Y-686467D01*
X482839Y-685800D01*
X481728Y-685800D01*
X480617Y-686467D01*
X480061Y-687800D01*
X480061Y-689133D01*
X480617Y-690467D01*
X481728Y-691133D01*
G54D11*
X488950Y-693577D02*
X480061Y-693577D01*
X480061Y-696910D01*
X480617Y-698244D01*
X481728Y-698910D01*
X487283Y-698910D01*
X488394Y-698244D01*
X488950Y-696910D01*
X488950Y-693577D01*
G54D11*
X488950Y-701354D02*
X480061Y-704687D01*
X488950Y-708021D01*
G54D11*
X485617Y-702687D02*
X485617Y-706687D01*
G54D11*
X484506Y-726567D02*
X484506Y-729233D01*
X487283Y-729233D01*
X488394Y-728567D01*
X488950Y-727233D01*
X488950Y-725900D01*
X488394Y-724567D01*
X487283Y-723900D01*
X481728Y-723900D01*
X480617Y-724567D01*
X480061Y-725900D01*
X480061Y-727233D01*
X480617Y-728567D01*
X481728Y-729233D01*
G54D11*
X488950Y-731677D02*
X480061Y-731677D01*
X488950Y-737010D01*
X480061Y-737010D01*
G54D11*
X488950Y-739454D02*
X480061Y-739454D01*
X480061Y-742787D01*
X480617Y-744121D01*
X481728Y-744787D01*
X487283Y-744787D01*
X488394Y-744121D01*
X488950Y-742787D01*
X488950Y-739454D01*
G54D11*
X438150Y-499967D02*
X438150Y-495300D01*
X429261Y-495300D01*
X429261Y-499967D01*
G54D11*
X433706Y-495300D02*
X433706Y-499967D01*
G54D11*
X429261Y-502411D02*
X438150Y-509078D01*
G54D11*
X438150Y-502411D02*
X429261Y-509078D01*
G54D11*
X438150Y-511522D02*
X429261Y-511522D01*
X429261Y-514855D01*
X429817Y-516189D01*
X430928Y-516855D01*
X432039Y-516855D01*
X433150Y-516189D01*
X433706Y-514855D01*
X433706Y-511522D01*
G54D11*
X432594Y-519299D02*
X429261Y-522632D01*
X438150Y-522632D01*
G54D11*
X438150Y-709517D02*
X438150Y-704850D01*
X429261Y-704850D01*
X429261Y-709517D01*
G54D11*
X433706Y-704850D02*
X433706Y-709517D01*
G54D11*
X429261Y-711961D02*
X438150Y-718628D01*
G54D11*
X438150Y-711961D02*
X429261Y-718628D01*
G54D11*
X438150Y-721072D02*
X429261Y-721072D01*
X429261Y-724405D01*
X429817Y-725739D01*
X430928Y-726405D01*
X432039Y-726405D01*
X433150Y-725739D01*
X433706Y-724405D01*
X433706Y-721072D01*
G54D11*
X438150Y-734182D02*
X438150Y-728849D01*
X437594Y-728849D01*
X436483Y-729516D01*
X433150Y-733516D01*
X432039Y-734182D01*
X430928Y-734182D01*
X429817Y-733516D01*
X429261Y-732182D01*
X429261Y-730849D01*
X429817Y-729516D01*
X430928Y-728849D01*
G54D12*
X342900Y-444500D02*
X329567Y-444500D01*
X342900Y-452500D01*
X329567Y-452500D01*
G54D12*
X336233Y-456167D02*
X335400Y-458167D01*
X335400Y-460567D01*
X337067Y-462167D01*
X342900Y-462167D01*
G54D12*
X340400Y-462167D02*
X338733Y-461167D01*
X338400Y-459167D01*
X338733Y-457167D01*
X340400Y-456167D01*
X342067Y-456567D01*
X342900Y-458167D01*
X342900Y-459167D01*
X342900Y-459567D01*
X342067Y-461167D01*
X340400Y-462167D01*
G54D12*
X342900Y-465834D02*
X335400Y-465834D01*
G54D12*
X337067Y-465834D02*
X335900Y-466834D01*
X335400Y-468834D01*
X335900Y-470834D01*
X337067Y-471834D01*
X342900Y-471834D01*
G54D12*
X340900Y-481501D02*
X337567Y-481501D01*
X335900Y-480501D01*
X335400Y-478501D01*
X335900Y-476501D01*
X337567Y-475501D01*
X340900Y-475501D01*
X342567Y-476501D01*
X342900Y-478501D01*
X342567Y-480501D01*
X340900Y-481501D01*
G54D12*
X342900Y-495035D02*
X329567Y-495035D01*
G54D12*
X337567Y-495035D02*
X335900Y-494035D01*
X335400Y-492035D01*
X335900Y-490035D01*
X337567Y-489035D01*
X340900Y-489035D01*
X342567Y-490035D01*
X342900Y-492035D01*
X342567Y-494035D01*
X340900Y-495035D01*
G54D12*
X342900Y-498702D02*
X335400Y-498702D01*
G54D12*
X332900Y-498702D02*
X332900Y-498702D01*
G54D12*
X342067Y-502369D02*
X342900Y-504369D01*
X342900Y-506369D01*
X342067Y-508369D01*
X340400Y-508369D01*
X339567Y-507369D01*
X338733Y-503369D01*
X337900Y-502369D01*
X336233Y-502369D01*
X335400Y-504369D01*
X335400Y-506369D01*
X336233Y-508369D01*
G54D12*
X335400Y-512036D02*
X346233Y-512036D01*
G54D12*
X340400Y-512036D02*
X342567Y-513036D01*
X342900Y-515036D01*
X342567Y-517036D01*
X340900Y-518036D01*
X337567Y-518036D01*
X335900Y-517036D01*
X335400Y-515036D01*
X335900Y-513036D01*
X337900Y-512036D01*
G54D12*
X342900Y-521703D02*
X329567Y-521703D01*
G54D12*
X336233Y-525370D02*
X335400Y-527370D01*
X335400Y-529770D01*
X337067Y-531370D01*
X342900Y-531370D01*
G54D12*
X340400Y-531370D02*
X338733Y-530370D01*
X338400Y-528370D01*
X338733Y-526370D01*
X340400Y-525370D01*
X342067Y-525770D01*
X342900Y-527370D01*
X342900Y-528370D01*
X342900Y-528770D01*
X342067Y-530370D01*
X340400Y-531370D01*
G54D12*
X335400Y-535037D02*
X342900Y-539037D01*
X335400Y-543037D01*
G54D12*
X342900Y-539037D02*
X345400Y-538037D01*
X346233Y-537037D01*
X346233Y-536037D01*
G54D12*
X337067Y-550571D02*
X337067Y-558571D01*
G54D12*
X333733Y-554571D02*
X340400Y-554571D01*
G54D12*
X342900Y-566105D02*
X329567Y-566105D01*
G54D12*
X342900Y-577772D02*
X342900Y-569772D01*
X342067Y-569772D01*
X340400Y-570772D01*
X335400Y-576772D01*
X333733Y-577772D01*
X332067Y-577772D01*
X330400Y-576772D01*
X329567Y-574772D01*
X329567Y-572772D01*
X330400Y-570772D01*
X332067Y-569772D01*
G54D12*
X340400Y-589439D02*
X342067Y-588439D01*
X342900Y-586439D01*
X342900Y-584439D01*
X342067Y-582439D01*
X340400Y-581439D01*
X332067Y-581439D01*
X330400Y-582439D01*
X329567Y-584439D01*
X329567Y-586439D01*
X330400Y-588439D01*
X332067Y-589439D01*
G54D11*
X344806Y-599567D02*
X345917Y-601567D01*
X347028Y-602233D01*
X349250Y-602233D01*
G54D11*
X349250Y-596900D02*
X340361Y-596900D01*
X340361Y-600233D01*
X340917Y-601567D01*
X342028Y-602233D01*
X343139Y-602233D01*
X344250Y-601567D01*
X344806Y-600233D01*
X344806Y-596900D01*
G54D11*
X348694Y-608677D02*
X349250Y-607610D01*
X349250Y-606277D01*
X348694Y-604944D01*
X347583Y-604677D01*
X345694Y-604677D01*
X344583Y-605344D01*
X344250Y-606677D01*
X344583Y-608010D01*
X345361Y-608677D01*
X346472Y-608677D01*
X346472Y-604677D01*
G54D11*
X344250Y-611121D02*
X349250Y-613788D01*
X344250Y-616454D01*
G54D11*
X349250Y-618898D02*
X349250Y-618898D01*
G54D11*
X343694Y-621342D02*
X340361Y-624675D01*
X349250Y-624675D01*
G54D10*
X825500Y-609600D02*
X765175Y-609600D01*
G54D10*
X825500Y-482600D02*
X765175Y-482600D01*
X765175Y-609600D01*
G54D10*
X825500Y-609600D02*
X825500Y-482600D01*
G54D10*
X825500Y-584200D02*
X819150Y-584200D01*
X819150Y-508000D01*
X825500Y-508000D01*
G54D10*
X825500Y-749300D02*
X765175Y-749300D01*
G54D10*
X825500Y-622300D02*
X765175Y-622300D01*
X765175Y-749300D01*
G54D10*
X825500Y-749300D02*
X825500Y-622300D01*
G54D10*
X825500Y-723900D02*
X819150Y-723900D01*
X819150Y-647700D01*
X825500Y-647700D01*
G54D10*
X628650Y-438150D02*
X692150Y-438150D01*
X692150Y-577850D01*
X628650Y-577850D01*
X628650Y-438150D01*
G54D10*
X628650Y-654050D02*
X691350Y-654050D01*
X691350Y-792896D01*
X628650Y-792896D01*
X628650Y-654050D01*
G54D11*
X753111Y-488950D02*
X762000Y-492283D01*
X753111Y-495617D01*
G54D11*
X760333Y-503394D02*
X761444Y-502728D01*
X762000Y-501394D01*
X762000Y-500061D01*
X761444Y-498728D01*
X760333Y-498061D01*
X754778Y-498061D01*
X753667Y-498728D01*
X753111Y-500061D01*
X753111Y-501394D01*
X753667Y-502728D01*
X754778Y-503394D01*
G54D11*
X760333Y-511171D02*
X761444Y-510505D01*
X762000Y-509171D01*
X762000Y-507838D01*
X761444Y-506505D01*
X760333Y-505838D01*
X754778Y-505838D01*
X753667Y-506505D01*
X753111Y-507838D01*
X753111Y-509171D01*
X753667Y-510505D01*
X754778Y-511171D01*
G54D11*
X760333Y-520700D02*
X761444Y-521367D01*
X762000Y-522700D01*
X762000Y-524033D01*
X761444Y-525367D01*
X760333Y-526033D01*
X759222Y-526033D01*
X758111Y-525367D01*
X757556Y-524033D01*
X757556Y-522700D01*
X757000Y-521367D01*
X755889Y-520700D01*
X754778Y-520700D01*
X753667Y-521367D01*
X753111Y-522700D01*
X753111Y-524033D01*
X753667Y-525367D01*
X754778Y-526033D01*
G54D11*
X760333Y-533810D02*
X761444Y-533144D01*
X762000Y-531810D01*
X762000Y-530477D01*
X761444Y-529144D01*
X760333Y-528477D01*
X754778Y-528477D01*
X753667Y-529144D01*
X753111Y-530477D01*
X753111Y-531810D01*
X753667Y-533144D01*
X754778Y-533810D01*
G54D11*
X753111Y-536254D02*
X762000Y-536254D01*
X762000Y-540921D01*
G54D11*
X760333Y-546100D02*
X761444Y-546767D01*
X762000Y-548100D01*
X762000Y-549433D01*
X761444Y-550767D01*
X760333Y-551433D01*
X759222Y-551433D01*
X758111Y-550767D01*
X757556Y-549433D01*
X757556Y-548100D01*
X757000Y-546767D01*
X755889Y-546100D01*
X754778Y-546100D01*
X753667Y-546767D01*
X753111Y-548100D01*
X753111Y-549433D01*
X753667Y-550767D01*
X754778Y-551433D01*
G54D11*
X762000Y-553877D02*
X753111Y-553877D01*
X753111Y-557210D01*
X753667Y-558544D01*
X754778Y-559210D01*
X760333Y-559210D01*
X761444Y-558544D01*
X762000Y-557210D01*
X762000Y-553877D01*
G54D11*
X762000Y-561654D02*
X753111Y-564987D01*
X762000Y-568321D01*
G54D11*
X758667Y-562987D02*
X758667Y-566987D01*
G54D11*
X757556Y-580517D02*
X757556Y-583183D01*
X760333Y-583183D01*
X761444Y-582517D01*
X762000Y-581183D01*
X762000Y-579850D01*
X761444Y-578517D01*
X760333Y-577850D01*
X754778Y-577850D01*
X753667Y-578517D01*
X753111Y-579850D01*
X753111Y-581183D01*
X753667Y-582517D01*
X754778Y-583183D01*
G54D11*
X762000Y-585627D02*
X753111Y-585627D01*
X762000Y-590960D01*
X753111Y-590960D01*
G54D11*
X762000Y-593404D02*
X753111Y-593404D01*
X753111Y-596737D01*
X753667Y-598071D01*
X754778Y-598737D01*
X760333Y-598737D01*
X761444Y-598071D01*
X762000Y-596737D01*
X762000Y-593404D01*
G54D11*
X753111Y-628650D02*
X762000Y-631983D01*
X753111Y-635317D01*
G54D11*
X760333Y-643094D02*
X761444Y-642428D01*
X762000Y-641094D01*
X762000Y-639761D01*
X761444Y-638428D01*
X760333Y-637761D01*
X754778Y-637761D01*
X753667Y-638428D01*
X753111Y-639761D01*
X753111Y-641094D01*
X753667Y-642428D01*
X754778Y-643094D01*
G54D11*
X760333Y-650871D02*
X761444Y-650205D01*
X762000Y-648871D01*
X762000Y-647538D01*
X761444Y-646205D01*
X760333Y-645538D01*
X754778Y-645538D01*
X753667Y-646205D01*
X753111Y-647538D01*
X753111Y-648871D01*
X753667Y-650205D01*
X754778Y-650871D01*
G54D11*
X760333Y-660400D02*
X761444Y-661067D01*
X762000Y-662400D01*
X762000Y-663733D01*
X761444Y-665067D01*
X760333Y-665733D01*
X759222Y-665733D01*
X758111Y-665067D01*
X757556Y-663733D01*
X757556Y-662400D01*
X757000Y-661067D01*
X755889Y-660400D01*
X754778Y-660400D01*
X753667Y-661067D01*
X753111Y-662400D01*
X753111Y-663733D01*
X753667Y-665067D01*
X754778Y-665733D01*
G54D11*
X760333Y-673510D02*
X761444Y-672844D01*
X762000Y-671510D01*
X762000Y-670177D01*
X761444Y-668844D01*
X760333Y-668177D01*
X754778Y-668177D01*
X753667Y-668844D01*
X753111Y-670177D01*
X753111Y-671510D01*
X753667Y-672844D01*
X754778Y-673510D01*
G54D11*
X753111Y-675954D02*
X762000Y-675954D01*
X762000Y-680621D01*
G54D11*
X760333Y-685800D02*
X761444Y-686467D01*
X762000Y-687800D01*
X762000Y-689133D01*
X761444Y-690467D01*
X760333Y-691133D01*
X759222Y-691133D01*
X758111Y-690467D01*
X757556Y-689133D01*
X757556Y-687800D01*
X757000Y-686467D01*
X755889Y-685800D01*
X754778Y-685800D01*
X753667Y-686467D01*
X753111Y-687800D01*
X753111Y-689133D01*
X753667Y-690467D01*
X754778Y-691133D01*
G54D11*
X762000Y-693577D02*
X753111Y-693577D01*
X753111Y-696910D01*
X753667Y-698244D01*
X754778Y-698910D01*
X760333Y-698910D01*
X761444Y-698244D01*
X762000Y-696910D01*
X762000Y-693577D01*
G54D11*
X762000Y-701354D02*
X753111Y-704687D01*
X762000Y-708021D01*
G54D11*
X758667Y-702687D02*
X758667Y-706687D01*
G54D11*
X757556Y-726567D02*
X757556Y-729233D01*
X760333Y-729233D01*
X761444Y-728567D01*
X762000Y-727233D01*
X762000Y-725900D01*
X761444Y-724567D01*
X760333Y-723900D01*
X754778Y-723900D01*
X753667Y-724567D01*
X753111Y-725900D01*
X753111Y-727233D01*
X753667Y-728567D01*
X754778Y-729233D01*
G54D11*
X762000Y-731677D02*
X753111Y-731677D01*
X762000Y-737010D01*
X753111Y-737010D01*
G54D11*
X762000Y-739454D02*
X753111Y-739454D01*
X753111Y-742787D01*
X753667Y-744121D01*
X754778Y-744787D01*
X760333Y-744787D01*
X761444Y-744121D01*
X762000Y-742787D01*
X762000Y-739454D01*
G54D11*
X711200Y-499967D02*
X711200Y-495300D01*
X702311Y-495300D01*
X702311Y-499967D01*
G54D11*
X706756Y-495300D02*
X706756Y-499967D01*
G54D11*
X702311Y-502411D02*
X711200Y-509078D01*
G54D11*
X711200Y-502411D02*
X702311Y-509078D01*
G54D11*
X711200Y-511522D02*
X702311Y-511522D01*
X702311Y-514855D01*
X702867Y-516189D01*
X703978Y-516855D01*
X705089Y-516855D01*
X706200Y-516189D01*
X706756Y-514855D01*
X706756Y-511522D01*
G54D11*
X705644Y-519299D02*
X702311Y-522632D01*
X711200Y-522632D01*
G54D11*
X711200Y-709517D02*
X711200Y-704850D01*
X702311Y-704850D01*
X702311Y-709517D01*
G54D11*
X706756Y-704850D02*
X706756Y-709517D01*
G54D11*
X702311Y-711961D02*
X711200Y-718628D01*
G54D11*
X711200Y-711961D02*
X702311Y-718628D01*
G54D11*
X711200Y-721072D02*
X702311Y-721072D01*
X702311Y-724405D01*
X702867Y-725739D01*
X703978Y-726405D01*
X705089Y-726405D01*
X706200Y-725739D01*
X706756Y-724405D01*
X706756Y-721072D01*
G54D11*
X711200Y-734182D02*
X711200Y-728849D01*
X710644Y-728849D01*
X709533Y-729516D01*
X706200Y-733516D01*
X705089Y-734182D01*
X703978Y-734182D01*
X702867Y-733516D01*
X702311Y-732182D01*
X702311Y-730849D01*
X702867Y-729516D01*
X703978Y-728849D01*
G54D12*
X615950Y-444500D02*
X602617Y-444500D01*
X615950Y-452500D01*
X602617Y-452500D01*
G54D12*
X609283Y-456167D02*
X608450Y-458167D01*
X608450Y-460567D01*
X610117Y-462167D01*
X615950Y-462167D01*
G54D12*
X613450Y-462167D02*
X611783Y-461167D01*
X611450Y-459167D01*
X611783Y-457167D01*
X613450Y-456167D01*
X615117Y-456567D01*
X615950Y-458167D01*
X615950Y-459167D01*
X615950Y-459567D01*
X615117Y-461167D01*
X613450Y-462167D01*
G54D12*
X615950Y-465834D02*
X608450Y-465834D01*
G54D12*
X610117Y-465834D02*
X608950Y-466834D01*
X608450Y-468834D01*
X608950Y-470834D01*
X610117Y-471834D01*
X615950Y-471834D01*
G54D12*
X613950Y-481501D02*
X610617Y-481501D01*
X608950Y-480501D01*
X608450Y-478501D01*
X608950Y-476501D01*
X610617Y-475501D01*
X613950Y-475501D01*
X615617Y-476501D01*
X615950Y-478501D01*
X615617Y-480501D01*
X613950Y-481501D01*
G54D12*
X615950Y-495035D02*
X602617Y-495035D01*
G54D12*
X610617Y-495035D02*
X608950Y-494035D01*
X608450Y-492035D01*
X608950Y-490035D01*
X610617Y-489035D01*
X613950Y-489035D01*
X615617Y-490035D01*
X615950Y-492035D01*
X615617Y-494035D01*
X613950Y-495035D01*
G54D12*
X615950Y-498702D02*
X608450Y-498702D01*
G54D12*
X605950Y-498702D02*
X605950Y-498702D01*
G54D12*
X615117Y-502369D02*
X615950Y-504369D01*
X615950Y-506369D01*
X615117Y-508369D01*
X613450Y-508369D01*
X612617Y-507369D01*
X611783Y-503369D01*
X610950Y-502369D01*
X609283Y-502369D01*
X608450Y-504369D01*
X608450Y-506369D01*
X609283Y-508369D01*
G54D12*
X608450Y-512036D02*
X619283Y-512036D01*
G54D12*
X613450Y-512036D02*
X615617Y-513036D01*
X615950Y-515036D01*
X615617Y-517036D01*
X613950Y-518036D01*
X610617Y-518036D01*
X608950Y-517036D01*
X608450Y-515036D01*
X608950Y-513036D01*
X610950Y-512036D01*
G54D12*
X615950Y-521703D02*
X602617Y-521703D01*
G54D12*
X609283Y-525370D02*
X608450Y-527370D01*
X608450Y-529770D01*
X610117Y-531370D01*
X615950Y-531370D01*
G54D12*
X613450Y-531370D02*
X611783Y-530370D01*
X611450Y-528370D01*
X611783Y-526370D01*
X613450Y-525370D01*
X615117Y-525770D01*
X615950Y-527370D01*
X615950Y-528370D01*
X615950Y-528770D01*
X615117Y-530370D01*
X613450Y-531370D01*
G54D12*
X608450Y-535037D02*
X615950Y-539037D01*
X608450Y-543037D01*
G54D12*
X615950Y-539037D02*
X618450Y-538037D01*
X619283Y-537037D01*
X619283Y-536037D01*
G54D12*
X610117Y-550571D02*
X610117Y-558571D01*
G54D12*
X606783Y-554571D02*
X613450Y-554571D01*
G54D12*
X615950Y-566105D02*
X602617Y-566105D01*
G54D12*
X615950Y-577772D02*
X615950Y-569772D01*
X615117Y-569772D01*
X613450Y-570772D01*
X608450Y-576772D01*
X606783Y-577772D01*
X605117Y-577772D01*
X603450Y-576772D01*
X602617Y-574772D01*
X602617Y-572772D01*
X603450Y-570772D01*
X605117Y-569772D01*
G54D12*
X613450Y-589439D02*
X615117Y-588439D01*
X615950Y-586439D01*
X615950Y-584439D01*
X615117Y-582439D01*
X613450Y-581439D01*
X605117Y-581439D01*
X603450Y-582439D01*
X602617Y-584439D01*
X602617Y-586439D01*
X603450Y-588439D01*
X605117Y-589439D01*
G54D11*
X617856Y-599567D02*
X618967Y-601567D01*
X620078Y-602233D01*
X622300Y-602233D01*
G54D11*
X622300Y-596900D02*
X613411Y-596900D01*
X613411Y-600233D01*
X613967Y-601567D01*
X615078Y-602233D01*
X616189Y-602233D01*
X617300Y-601567D01*
X617856Y-600233D01*
X617856Y-596900D01*
G54D11*
X621744Y-608677D02*
X622300Y-607610D01*
X622300Y-606277D01*
X621744Y-604944D01*
X620633Y-604677D01*
X618744Y-604677D01*
X617633Y-605344D01*
X617300Y-606677D01*
X617633Y-608010D01*
X618411Y-608677D01*
X619522Y-608677D01*
X619522Y-604677D01*
G54D11*
X617300Y-611121D02*
X622300Y-613788D01*
X617300Y-616454D01*
G54D11*
X622300Y-618898D02*
X622300Y-618898D01*
G54D11*
X616744Y-621342D02*
X613411Y-624675D01*
X622300Y-624675D01*
M02*
