%FSLAX34Y34*%
%MOMM*%
%LNCOPPER_BOTTOM*%
G71*
G01*
%ADD10C, 2.800*%
%ADD11C, 1.250*%
%ADD12C, 2.600*%
%ADD13C, 5.500*%
%ADD14C, 0.600*%
%ADD15C, 1.800*%
%ADD16C, 0.250*%
%ADD17C, 4.500*%
%LPD*%
G36*
X0Y0D02*
X850000Y0D01*
X850000Y-850000D01*
X0Y-850000D01*
X0Y0D01*
G37*
%LPC*%
G36*
X23300Y-29596D02*
X51300Y-29596D01*
X51300Y-57596D01*
X23300Y-57596D01*
X23300Y-29596D01*
G37*
G36*
X175700Y-29596D02*
X203700Y-29596D01*
X203700Y-57596D01*
X175700Y-57596D01*
X175700Y-29596D01*
G37*
X37300Y-68996D02*
G54D10*
D03*
X37300Y-94396D02*
G54D10*
D03*
X37300Y-119742D02*
G54D10*
D03*
X37300Y-145196D02*
G54D10*
D03*
X37300Y-170596D02*
G54D10*
D03*
X37300Y-195996D02*
G54D10*
D03*
X37300Y-221396D02*
G54D10*
D03*
X37300Y-246796D02*
G54D10*
D03*
X37300Y-272196D02*
G54D10*
D03*
X37300Y-297596D02*
G54D10*
D03*
X37300Y-322996D02*
G54D10*
D03*
X37300Y-348396D02*
G54D10*
D03*
X37300Y-373796D02*
G54D10*
D03*
X37300Y-399196D02*
G54D10*
D03*
X189700Y-399196D02*
G54D10*
D03*
X189700Y-373796D02*
G54D10*
D03*
X189700Y-348396D02*
G54D10*
D03*
X189700Y-322996D02*
G54D10*
D03*
X189700Y-297596D02*
G54D10*
D03*
X189700Y-272196D02*
G54D10*
D03*
X189700Y-246796D02*
G54D10*
D03*
X189700Y-221396D02*
G54D10*
D03*
X189700Y-195996D02*
G54D10*
D03*
X189700Y-170596D02*
G54D10*
D03*
X189700Y-145196D02*
G54D10*
D03*
X189700Y-119796D02*
G54D10*
D03*
X189700Y-94396D02*
G54D10*
D03*
X189700Y-68996D02*
G54D10*
D03*
X100800Y-62646D02*
G54D10*
D03*
X126200Y-62646D02*
G54D10*
D03*
X126200Y-88046D02*
G54D10*
D03*
X100800Y-88046D02*
G54D10*
D03*
X100800Y-113446D02*
G54D10*
D03*
X100800Y-138846D02*
G54D10*
D03*
X100800Y-164246D02*
G54D10*
D03*
X126200Y-164246D02*
G54D10*
D03*
X126200Y-138846D02*
G54D10*
D03*
X126200Y-113446D02*
G54D10*
D03*
X100800Y-278546D02*
G54D10*
D03*
X126200Y-278546D02*
G54D10*
D03*
X126200Y-303946D02*
G54D10*
D03*
X100800Y-303946D02*
G54D10*
D03*
X100800Y-329346D02*
G54D10*
D03*
X126200Y-329346D02*
G54D10*
D03*
X126200Y-354746D02*
G54D10*
D03*
X100800Y-354746D02*
G54D10*
D03*
X100800Y-380146D02*
G54D10*
D03*
X126200Y-380146D02*
G54D10*
D03*
G54D11*
X37300Y-145196D02*
X62700Y-145196D01*
X75400Y-132496D01*
X75400Y-102670D01*
X90024Y-88046D01*
X100800Y-88046D01*
G54D11*
X37300Y-195996D02*
X79900Y-153396D01*
X79900Y-123570D01*
X90024Y-113446D01*
X100800Y-113446D01*
G54D11*
X37300Y-246796D02*
X84400Y-199696D01*
X84400Y-144469D01*
X90024Y-138846D01*
X100800Y-138846D01*
G54D11*
X37300Y-297596D02*
X50000Y-297596D01*
X56350Y-291246D01*
X56350Y-259496D01*
X93180Y-222666D01*
X93180Y-171866D01*
X100800Y-164246D01*
G54D11*
X37300Y-373796D02*
X56350Y-373796D01*
X88100Y-342046D01*
X113500Y-342046D01*
X126200Y-329346D01*
G54D11*
X37300Y-399196D02*
X81750Y-399196D01*
X100800Y-380146D01*
G54D11*
X126200Y-380146D02*
X145250Y-399196D01*
X189700Y-399196D01*
G54D11*
X100800Y-354746D02*
X113500Y-367446D01*
X145250Y-367446D01*
X170650Y-342046D01*
X170650Y-279225D01*
X177679Y-272196D01*
X189700Y-272196D01*
G54D11*
X126200Y-354746D02*
X157950Y-322996D01*
X157950Y-265846D01*
X177000Y-246796D01*
X189700Y-246796D01*
G54D11*
X126200Y-303946D02*
X113500Y-291246D01*
X113500Y-259496D01*
X170650Y-202346D01*
X170650Y-100746D01*
X177000Y-94396D01*
X189700Y-94396D01*
X254000Y-190500D02*
G54D12*
D03*
X254000Y-165100D02*
G54D12*
D03*
X254000Y-139700D02*
G54D12*
D03*
X254000Y-114300D02*
G54D12*
D03*
X254000Y-330200D02*
G54D12*
D03*
X254000Y-304800D02*
G54D12*
D03*
X254000Y-279400D02*
G54D12*
D03*
X254000Y-254000D02*
G54D12*
D03*
G36*
X212250Y-320200D02*
X232250Y-320200D01*
X232250Y-340200D01*
X212250Y-340200D01*
X212250Y-320200D01*
G37*
X254000Y-190500D02*
G54D10*
D03*
X254000Y-330200D02*
G54D10*
D03*
X254000Y-387350D02*
G54D13*
D03*
X254000Y-57150D02*
G54D13*
D03*
G54D11*
X253200Y-138792D02*
X265792Y-138792D01*
X273050Y-146050D01*
X273050Y-273050D01*
X266700Y-279400D01*
X254000Y-279400D01*
G54D11*
X222250Y-330200D02*
X222250Y-285750D01*
X228600Y-279400D01*
X254000Y-279400D01*
G36*
X296350Y-29596D02*
X324350Y-29596D01*
X324350Y-57596D01*
X296350Y-57596D01*
X296350Y-29596D01*
G37*
G36*
X448750Y-29596D02*
X476750Y-29596D01*
X476750Y-57596D01*
X448750Y-57596D01*
X448750Y-29596D01*
G37*
X310350Y-68996D02*
G54D10*
D03*
X310350Y-94396D02*
G54D10*
D03*
X310350Y-119742D02*
G54D10*
D03*
X310350Y-145196D02*
G54D10*
D03*
X310350Y-170596D02*
G54D10*
D03*
X310350Y-195996D02*
G54D10*
D03*
X310350Y-221396D02*
G54D10*
D03*
X310350Y-246796D02*
G54D10*
D03*
X310350Y-272196D02*
G54D10*
D03*
X310350Y-297596D02*
G54D10*
D03*
X310350Y-322996D02*
G54D10*
D03*
X310350Y-348396D02*
G54D10*
D03*
X310350Y-373796D02*
G54D10*
D03*
X310350Y-399196D02*
G54D10*
D03*
X462750Y-399196D02*
G54D10*
D03*
X462750Y-373796D02*
G54D10*
D03*
X462750Y-348396D02*
G54D10*
D03*
X462750Y-322996D02*
G54D10*
D03*
X462750Y-297596D02*
G54D10*
D03*
X462750Y-272196D02*
G54D10*
D03*
X462750Y-246796D02*
G54D10*
D03*
X462750Y-221396D02*
G54D10*
D03*
X462750Y-195996D02*
G54D10*
D03*
X462750Y-170596D02*
G54D10*
D03*
X462750Y-145196D02*
G54D10*
D03*
X462750Y-119796D02*
G54D10*
D03*
X462750Y-94396D02*
G54D10*
D03*
X462750Y-68996D02*
G54D10*
D03*
X373850Y-62646D02*
G54D10*
D03*
X399250Y-62646D02*
G54D10*
D03*
X399250Y-88046D02*
G54D10*
D03*
X373850Y-88046D02*
G54D10*
D03*
X373850Y-113446D02*
G54D10*
D03*
X373850Y-138846D02*
G54D10*
D03*
X373850Y-164246D02*
G54D10*
D03*
X399250Y-164246D02*
G54D10*
D03*
X399250Y-138846D02*
G54D10*
D03*
X399250Y-113446D02*
G54D10*
D03*
X373850Y-278546D02*
G54D10*
D03*
X399250Y-278546D02*
G54D10*
D03*
X399250Y-303946D02*
G54D10*
D03*
X373850Y-303946D02*
G54D10*
D03*
X373850Y-329346D02*
G54D10*
D03*
X399250Y-329346D02*
G54D10*
D03*
X399250Y-354746D02*
G54D10*
D03*
X373850Y-354746D02*
G54D10*
D03*
X373850Y-380146D02*
G54D10*
D03*
X399250Y-380146D02*
G54D10*
D03*
G54D11*
X310350Y-145196D02*
X335750Y-145196D01*
X348450Y-132496D01*
X348450Y-102670D01*
X363074Y-88046D01*
X373850Y-88046D01*
G54D11*
X310350Y-195996D02*
X352950Y-153396D01*
X352950Y-123570D01*
X363074Y-113446D01*
X373850Y-113446D01*
G54D11*
X310350Y-246796D02*
X357450Y-199696D01*
X357450Y-144469D01*
X363074Y-138846D01*
X373850Y-138846D01*
G54D11*
X310350Y-297596D02*
X323050Y-297596D01*
X329400Y-291246D01*
X329400Y-259496D01*
X366230Y-222666D01*
X366230Y-171866D01*
X373850Y-164246D01*
G54D11*
X310350Y-373796D02*
X329400Y-373796D01*
X361150Y-342046D01*
X386550Y-342046D01*
X399250Y-329346D01*
G54D11*
X310350Y-399196D02*
X354800Y-399196D01*
X373850Y-380146D01*
G54D11*
X399250Y-380146D02*
X418300Y-399196D01*
X462750Y-399196D01*
G54D11*
X373850Y-354746D02*
X386550Y-367446D01*
X418300Y-367446D01*
X443700Y-342046D01*
X443700Y-279225D01*
X450729Y-272196D01*
X462750Y-272196D01*
G54D11*
X399250Y-354746D02*
X431000Y-322996D01*
X431000Y-265846D01*
X450050Y-246796D01*
X462750Y-246796D01*
G54D11*
X399250Y-303946D02*
X386550Y-291246D01*
X386550Y-259496D01*
X443700Y-202346D01*
X443700Y-100746D01*
X450050Y-94396D01*
X462750Y-94396D01*
X527050Y-190500D02*
G54D12*
D03*
X527050Y-165100D02*
G54D12*
D03*
X527050Y-139700D02*
G54D12*
D03*
X527050Y-114300D02*
G54D12*
D03*
X527050Y-330200D02*
G54D12*
D03*
X527050Y-304800D02*
G54D12*
D03*
X527050Y-279400D02*
G54D12*
D03*
X527050Y-254000D02*
G54D12*
D03*
G36*
X485300Y-320200D02*
X505300Y-320200D01*
X505300Y-340200D01*
X485300Y-340200D01*
X485300Y-320200D01*
G37*
X527050Y-190500D02*
G54D10*
D03*
X527050Y-330200D02*
G54D10*
D03*
X527050Y-387350D02*
G54D13*
D03*
X527050Y-57150D02*
G54D13*
D03*
G54D11*
X526250Y-138792D02*
X538842Y-138792D01*
X546100Y-146050D01*
X546100Y-273050D01*
X539750Y-279400D01*
X527050Y-279400D01*
G54D11*
X495300Y-330200D02*
X495300Y-285750D01*
X501650Y-279400D01*
X527050Y-279400D01*
G36*
X569400Y-29596D02*
X597400Y-29596D01*
X597400Y-57596D01*
X569400Y-57596D01*
X569400Y-29596D01*
G37*
G36*
X721800Y-29596D02*
X749800Y-29596D01*
X749800Y-57596D01*
X721800Y-57596D01*
X721800Y-29596D01*
G37*
X583400Y-68996D02*
G54D10*
D03*
X583400Y-94396D02*
G54D10*
D03*
X583400Y-119742D02*
G54D10*
D03*
X583400Y-145196D02*
G54D10*
D03*
X583400Y-170596D02*
G54D10*
D03*
X583400Y-195996D02*
G54D10*
D03*
X583400Y-221396D02*
G54D10*
D03*
X583400Y-246796D02*
G54D10*
D03*
X583400Y-272196D02*
G54D10*
D03*
X583400Y-297596D02*
G54D10*
D03*
X583400Y-322996D02*
G54D10*
D03*
X583400Y-348396D02*
G54D10*
D03*
X583400Y-373796D02*
G54D10*
D03*
X583400Y-399196D02*
G54D10*
D03*
X735800Y-399196D02*
G54D10*
D03*
X735800Y-373796D02*
G54D10*
D03*
X735800Y-348396D02*
G54D10*
D03*
X735800Y-322996D02*
G54D10*
D03*
X735800Y-297596D02*
G54D10*
D03*
X735800Y-272196D02*
G54D10*
D03*
X735800Y-246796D02*
G54D10*
D03*
X735800Y-221396D02*
G54D10*
D03*
X735800Y-195996D02*
G54D10*
D03*
X735800Y-170596D02*
G54D10*
D03*
X735800Y-145196D02*
G54D10*
D03*
X735800Y-119796D02*
G54D10*
D03*
X735800Y-94396D02*
G54D10*
D03*
X735800Y-68996D02*
G54D10*
D03*
X646900Y-62646D02*
G54D10*
D03*
X672300Y-62646D02*
G54D10*
D03*
X672300Y-88046D02*
G54D10*
D03*
X646900Y-88046D02*
G54D10*
D03*
X646900Y-113446D02*
G54D10*
D03*
X646900Y-138846D02*
G54D10*
D03*
X646900Y-164246D02*
G54D10*
D03*
X672300Y-164246D02*
G54D10*
D03*
X672300Y-138846D02*
G54D10*
D03*
X672300Y-113446D02*
G54D10*
D03*
X646900Y-278546D02*
G54D10*
D03*
X672300Y-278546D02*
G54D10*
D03*
X672300Y-303946D02*
G54D10*
D03*
X646900Y-303946D02*
G54D10*
D03*
X646900Y-329346D02*
G54D10*
D03*
X672300Y-329346D02*
G54D10*
D03*
X672300Y-354746D02*
G54D10*
D03*
X646900Y-354746D02*
G54D10*
D03*
X646900Y-380146D02*
G54D10*
D03*
X672300Y-380146D02*
G54D10*
D03*
G54D11*
X583400Y-145196D02*
X608800Y-145196D01*
X621500Y-132496D01*
X621500Y-102670D01*
X636124Y-88046D01*
X646900Y-88046D01*
G54D11*
X583400Y-195996D02*
X626000Y-153396D01*
X626000Y-123570D01*
X636124Y-113446D01*
X646900Y-113446D01*
G54D11*
X583400Y-246796D02*
X630500Y-199696D01*
X630500Y-144469D01*
X636124Y-138846D01*
X646900Y-138846D01*
G54D11*
X583400Y-297596D02*
X596100Y-297596D01*
X602450Y-291246D01*
X602450Y-259496D01*
X639280Y-222666D01*
X639280Y-171866D01*
X646900Y-164246D01*
G54D11*
X583400Y-373796D02*
X602450Y-373796D01*
X634200Y-342046D01*
X659600Y-342046D01*
X672300Y-329346D01*
G54D11*
X583400Y-399196D02*
X627850Y-399196D01*
X646900Y-380146D01*
G54D11*
X672300Y-380146D02*
X691350Y-399196D01*
X735800Y-399196D01*
G54D11*
X646900Y-354746D02*
X659600Y-367446D01*
X691350Y-367446D01*
X716750Y-342046D01*
X716750Y-279225D01*
X723779Y-272196D01*
X735800Y-272196D01*
G54D11*
X672300Y-354746D02*
X704050Y-322996D01*
X704050Y-265846D01*
X723100Y-246796D01*
X735800Y-246796D01*
G54D11*
X672300Y-303946D02*
X659600Y-291246D01*
X659600Y-259496D01*
X716750Y-202346D01*
X716750Y-100746D01*
X723100Y-94396D01*
X735800Y-94396D01*
X800100Y-190500D02*
G54D12*
D03*
X800100Y-165100D02*
G54D12*
D03*
X800100Y-139700D02*
G54D12*
D03*
X800100Y-114300D02*
G54D12*
D03*
X800100Y-330200D02*
G54D12*
D03*
X800100Y-304800D02*
G54D12*
D03*
X800100Y-279400D02*
G54D12*
D03*
X800100Y-254000D02*
G54D12*
D03*
G36*
X758350Y-320200D02*
X778350Y-320200D01*
X778350Y-340200D01*
X758350Y-340200D01*
X758350Y-320200D01*
G37*
X800100Y-190500D02*
G54D10*
D03*
X800100Y-330200D02*
G54D10*
D03*
X800100Y-387350D02*
G54D13*
D03*
X800100Y-57150D02*
G54D13*
D03*
G54D11*
X799300Y-138792D02*
X811892Y-138792D01*
X819150Y-146050D01*
X819150Y-273050D01*
X812800Y-279400D01*
X800100Y-279400D01*
G54D11*
X768350Y-330200D02*
X768350Y-285750D01*
X774700Y-279400D01*
X800100Y-279400D01*
G36*
X23300Y-423296D02*
X51300Y-423296D01*
X51300Y-451296D01*
X23300Y-451296D01*
X23300Y-423296D01*
G37*
G36*
X175700Y-423296D02*
X203700Y-423296D01*
X203700Y-451296D01*
X175700Y-451296D01*
X175700Y-423296D01*
G37*
X37300Y-462696D02*
G54D10*
D03*
X37300Y-488096D02*
G54D10*
D03*
X37300Y-513442D02*
G54D10*
D03*
X37300Y-538896D02*
G54D10*
D03*
X37300Y-564296D02*
G54D10*
D03*
X37300Y-589696D02*
G54D10*
D03*
X37300Y-615096D02*
G54D10*
D03*
X37300Y-640496D02*
G54D10*
D03*
X37300Y-665896D02*
G54D10*
D03*
X37300Y-691296D02*
G54D10*
D03*
X37300Y-716696D02*
G54D10*
D03*
X37300Y-742096D02*
G54D10*
D03*
X37300Y-767496D02*
G54D10*
D03*
X37300Y-792896D02*
G54D10*
D03*
X189700Y-792896D02*
G54D10*
D03*
X189700Y-767496D02*
G54D10*
D03*
X189700Y-742096D02*
G54D10*
D03*
X189700Y-716696D02*
G54D10*
D03*
X189700Y-691296D02*
G54D10*
D03*
X189700Y-665896D02*
G54D10*
D03*
X189700Y-640496D02*
G54D10*
D03*
X189700Y-615096D02*
G54D10*
D03*
X189700Y-589696D02*
G54D10*
D03*
X189700Y-564296D02*
G54D10*
D03*
X189700Y-538896D02*
G54D10*
D03*
X189700Y-513496D02*
G54D10*
D03*
X189700Y-488096D02*
G54D10*
D03*
X189700Y-462696D02*
G54D10*
D03*
X100800Y-456346D02*
G54D10*
D03*
X126200Y-456346D02*
G54D10*
D03*
X126200Y-481746D02*
G54D10*
D03*
X100800Y-481746D02*
G54D10*
D03*
X100800Y-507146D02*
G54D10*
D03*
X100800Y-532546D02*
G54D10*
D03*
X100800Y-557946D02*
G54D10*
D03*
X126200Y-557946D02*
G54D10*
D03*
X126200Y-532546D02*
G54D10*
D03*
X126200Y-507146D02*
G54D10*
D03*
X100800Y-672246D02*
G54D10*
D03*
X126200Y-672246D02*
G54D10*
D03*
X126200Y-697646D02*
G54D10*
D03*
X100800Y-697646D02*
G54D10*
D03*
X100800Y-723046D02*
G54D10*
D03*
X126200Y-723046D02*
G54D10*
D03*
X126200Y-748446D02*
G54D10*
D03*
X100800Y-748446D02*
G54D10*
D03*
X100800Y-773846D02*
G54D10*
D03*
X126200Y-773846D02*
G54D10*
D03*
G54D11*
X37300Y-538896D02*
X62700Y-538896D01*
X75400Y-526196D01*
X75400Y-496370D01*
X90024Y-481746D01*
X100800Y-481746D01*
G54D11*
X37300Y-589696D02*
X79900Y-547096D01*
X79900Y-517270D01*
X90024Y-507146D01*
X100800Y-507146D01*
G54D11*
X37300Y-640496D02*
X84400Y-593396D01*
X84400Y-538170D01*
X90024Y-532546D01*
X100800Y-532546D01*
G54D11*
X37300Y-691296D02*
X50000Y-691296D01*
X56350Y-684946D01*
X56350Y-653196D01*
X93180Y-616366D01*
X93180Y-565566D01*
X100800Y-557946D01*
G54D11*
X37300Y-767496D02*
X56350Y-767496D01*
X88100Y-735746D01*
X113500Y-735746D01*
X126200Y-723046D01*
G54D11*
X37300Y-792896D02*
X81750Y-792896D01*
X100800Y-773846D01*
G54D11*
X126200Y-773846D02*
X145250Y-792896D01*
X189700Y-792896D01*
G54D11*
X100800Y-748446D02*
X113500Y-761146D01*
X145250Y-761146D01*
X170650Y-735746D01*
X170650Y-672925D01*
X177679Y-665896D01*
X189700Y-665896D01*
G54D11*
X126200Y-748446D02*
X157950Y-716696D01*
X157950Y-659546D01*
X177000Y-640496D01*
X189700Y-640496D01*
G54D11*
X126200Y-697646D02*
X113500Y-684946D01*
X113500Y-653196D01*
X170650Y-596046D01*
X170650Y-494446D01*
X177000Y-488096D01*
X189700Y-488096D01*
X254000Y-584200D02*
G54D12*
D03*
X254000Y-558800D02*
G54D12*
D03*
X254000Y-533400D02*
G54D12*
D03*
X254000Y-508000D02*
G54D12*
D03*
X254000Y-723900D02*
G54D12*
D03*
X254000Y-698500D02*
G54D12*
D03*
X254000Y-673100D02*
G54D12*
D03*
X254000Y-647700D02*
G54D12*
D03*
G36*
X212250Y-713900D02*
X232250Y-713900D01*
X232250Y-733900D01*
X212250Y-733900D01*
X212250Y-713900D01*
G37*
X254000Y-584200D02*
G54D10*
D03*
X254000Y-723900D02*
G54D10*
D03*
X254000Y-781050D02*
G54D13*
D03*
X254000Y-450850D02*
G54D13*
D03*
G54D11*
X253200Y-532492D02*
X265792Y-532492D01*
X273050Y-539750D01*
X273050Y-666750D01*
X266700Y-673100D01*
X254000Y-673100D01*
G54D11*
X222250Y-723900D02*
X222250Y-679450D01*
X228600Y-673100D01*
X254000Y-673100D01*
G36*
X296350Y-423296D02*
X324350Y-423296D01*
X324350Y-451296D01*
X296350Y-451296D01*
X296350Y-423296D01*
G37*
G36*
X448750Y-423296D02*
X476750Y-423296D01*
X476750Y-451296D01*
X448750Y-451296D01*
X448750Y-423296D01*
G37*
X310350Y-462696D02*
G54D10*
D03*
X310350Y-488096D02*
G54D10*
D03*
X310350Y-513442D02*
G54D10*
D03*
X310350Y-538896D02*
G54D10*
D03*
X310350Y-564296D02*
G54D10*
D03*
X310350Y-589696D02*
G54D10*
D03*
X310350Y-615096D02*
G54D10*
D03*
X310350Y-640496D02*
G54D10*
D03*
X310350Y-665896D02*
G54D10*
D03*
X310350Y-691296D02*
G54D10*
D03*
X310350Y-716696D02*
G54D10*
D03*
X310350Y-742096D02*
G54D10*
D03*
X310350Y-767496D02*
G54D10*
D03*
X310350Y-792896D02*
G54D10*
D03*
X462750Y-792896D02*
G54D10*
D03*
X462750Y-767496D02*
G54D10*
D03*
X462750Y-742096D02*
G54D10*
D03*
X462750Y-716696D02*
G54D10*
D03*
X462750Y-691296D02*
G54D10*
D03*
X462750Y-665896D02*
G54D10*
D03*
X462750Y-640496D02*
G54D10*
D03*
X462750Y-615096D02*
G54D10*
D03*
X462750Y-589696D02*
G54D10*
D03*
X462750Y-564296D02*
G54D10*
D03*
X462750Y-538896D02*
G54D10*
D03*
X462750Y-513496D02*
G54D10*
D03*
X462750Y-488096D02*
G54D10*
D03*
X462750Y-462696D02*
G54D10*
D03*
X373850Y-456346D02*
G54D10*
D03*
X399250Y-456346D02*
G54D10*
D03*
X399250Y-481746D02*
G54D10*
D03*
X373850Y-481746D02*
G54D10*
D03*
X373850Y-507146D02*
G54D10*
D03*
X373850Y-532546D02*
G54D10*
D03*
X373850Y-557946D02*
G54D10*
D03*
X399250Y-557946D02*
G54D10*
D03*
X399250Y-532546D02*
G54D10*
D03*
X399250Y-507146D02*
G54D10*
D03*
X373850Y-672246D02*
G54D10*
D03*
X399250Y-672246D02*
G54D10*
D03*
X399250Y-697646D02*
G54D10*
D03*
X373850Y-697646D02*
G54D10*
D03*
X373850Y-723046D02*
G54D10*
D03*
X399250Y-723046D02*
G54D10*
D03*
X399250Y-748446D02*
G54D10*
D03*
X373850Y-748446D02*
G54D10*
D03*
X373850Y-773846D02*
G54D10*
D03*
X399250Y-773846D02*
G54D10*
D03*
G54D11*
X310350Y-538896D02*
X335750Y-538896D01*
X348450Y-526196D01*
X348450Y-496370D01*
X363074Y-481746D01*
X373850Y-481746D01*
G54D11*
X310350Y-589696D02*
X352950Y-547096D01*
X352950Y-517270D01*
X363074Y-507146D01*
X373850Y-507146D01*
G54D11*
X310350Y-640496D02*
X357450Y-593396D01*
X357450Y-538170D01*
X363074Y-532546D01*
X373850Y-532546D01*
G54D11*
X310350Y-691296D02*
X323050Y-691296D01*
X329400Y-684946D01*
X329400Y-653196D01*
X366230Y-616366D01*
X366230Y-565566D01*
X373850Y-557946D01*
G54D11*
X310350Y-767496D02*
X329400Y-767496D01*
X361150Y-735746D01*
X386550Y-735746D01*
X399250Y-723046D01*
G54D11*
X310350Y-792896D02*
X354800Y-792896D01*
X373850Y-773846D01*
G54D11*
X399250Y-773846D02*
X418300Y-792896D01*
X462750Y-792896D01*
G54D11*
X373850Y-748446D02*
X386550Y-761146D01*
X418300Y-761146D01*
X443700Y-735746D01*
X443700Y-672925D01*
X450729Y-665896D01*
X462750Y-665896D01*
G54D11*
X399250Y-748446D02*
X431000Y-716696D01*
X431000Y-659546D01*
X450050Y-640496D01*
X462750Y-640496D01*
G54D11*
X399250Y-697646D02*
X386550Y-684946D01*
X386550Y-653196D01*
X443700Y-596046D01*
X443700Y-494446D01*
X450050Y-488096D01*
X462750Y-488096D01*
X527050Y-584200D02*
G54D12*
D03*
X527050Y-558800D02*
G54D12*
D03*
X527050Y-533400D02*
G54D12*
D03*
X527050Y-508000D02*
G54D12*
D03*
X527050Y-723900D02*
G54D12*
D03*
X527050Y-698500D02*
G54D12*
D03*
X527050Y-673100D02*
G54D12*
D03*
X527050Y-647700D02*
G54D12*
D03*
G36*
X485300Y-713900D02*
X505300Y-713900D01*
X505300Y-733900D01*
X485300Y-733900D01*
X485300Y-713900D01*
G37*
X527050Y-584200D02*
G54D10*
D03*
X527050Y-723900D02*
G54D10*
D03*
X527050Y-781050D02*
G54D13*
D03*
X527050Y-450850D02*
G54D13*
D03*
G54D11*
X526250Y-532492D02*
X538842Y-532492D01*
X546100Y-539750D01*
X546100Y-666750D01*
X539750Y-673100D01*
X527050Y-673100D01*
G54D11*
X495300Y-723900D02*
X495300Y-679450D01*
X501650Y-673100D01*
X527050Y-673100D01*
G36*
X569400Y-423296D02*
X597400Y-423296D01*
X597400Y-451296D01*
X569400Y-451296D01*
X569400Y-423296D01*
G37*
G36*
X721800Y-423296D02*
X749800Y-423296D01*
X749800Y-451296D01*
X721800Y-451296D01*
X721800Y-423296D01*
G37*
X583400Y-462696D02*
G54D10*
D03*
X583400Y-488096D02*
G54D10*
D03*
X583400Y-513442D02*
G54D10*
D03*
X583400Y-538896D02*
G54D10*
D03*
X583400Y-564296D02*
G54D10*
D03*
X583400Y-589696D02*
G54D10*
D03*
X583400Y-615096D02*
G54D10*
D03*
X583400Y-640496D02*
G54D10*
D03*
X583400Y-665896D02*
G54D10*
D03*
X583400Y-691296D02*
G54D10*
D03*
X583400Y-716696D02*
G54D10*
D03*
X583400Y-742096D02*
G54D10*
D03*
X583400Y-767496D02*
G54D10*
D03*
X583400Y-792896D02*
G54D10*
D03*
X735800Y-792896D02*
G54D10*
D03*
X735800Y-767496D02*
G54D10*
D03*
X735800Y-742096D02*
G54D10*
D03*
X735800Y-716696D02*
G54D10*
D03*
X735800Y-691296D02*
G54D10*
D03*
X735800Y-665896D02*
G54D10*
D03*
X735800Y-640496D02*
G54D10*
D03*
X735800Y-615096D02*
G54D10*
D03*
X735800Y-589696D02*
G54D10*
D03*
X735800Y-564296D02*
G54D10*
D03*
X735800Y-538896D02*
G54D10*
D03*
X735800Y-513496D02*
G54D10*
D03*
X735800Y-488096D02*
G54D10*
D03*
X735800Y-462696D02*
G54D10*
D03*
X646900Y-456346D02*
G54D10*
D03*
X672300Y-456346D02*
G54D10*
D03*
X672300Y-481746D02*
G54D10*
D03*
X646900Y-481746D02*
G54D10*
D03*
X646900Y-507146D02*
G54D10*
D03*
X646900Y-532546D02*
G54D10*
D03*
X646900Y-557946D02*
G54D10*
D03*
X672300Y-557946D02*
G54D10*
D03*
X672300Y-532546D02*
G54D10*
D03*
X672300Y-507146D02*
G54D10*
D03*
X646900Y-672246D02*
G54D10*
D03*
X672300Y-672246D02*
G54D10*
D03*
X672300Y-697646D02*
G54D10*
D03*
X646900Y-697646D02*
G54D10*
D03*
X646900Y-723046D02*
G54D10*
D03*
X672300Y-723046D02*
G54D10*
D03*
X672300Y-748446D02*
G54D10*
D03*
X646900Y-748446D02*
G54D10*
D03*
X646900Y-773846D02*
G54D10*
D03*
X672300Y-773846D02*
G54D10*
D03*
G54D11*
X583400Y-538896D02*
X608800Y-538896D01*
X621500Y-526196D01*
X621500Y-496370D01*
X636124Y-481746D01*
X646900Y-481746D01*
G54D11*
X583400Y-589696D02*
X626000Y-547096D01*
X626000Y-517270D01*
X636124Y-507146D01*
X646900Y-507146D01*
G54D11*
X583400Y-640496D02*
X630500Y-593396D01*
X630500Y-538170D01*
X636124Y-532546D01*
X646900Y-532546D01*
G54D11*
X583400Y-691296D02*
X596100Y-691296D01*
X602450Y-684946D01*
X602450Y-653196D01*
X639280Y-616366D01*
X639280Y-565566D01*
X646900Y-557946D01*
G54D11*
X583400Y-767496D02*
X602450Y-767496D01*
X634200Y-735746D01*
X659600Y-735746D01*
X672300Y-723046D01*
G54D11*
X583400Y-792896D02*
X627850Y-792896D01*
X646900Y-773846D01*
G54D11*
X672300Y-773846D02*
X691350Y-792896D01*
X735800Y-792896D01*
G54D11*
X646900Y-748446D02*
X659600Y-761146D01*
X691350Y-761146D01*
X716750Y-735746D01*
X716750Y-672925D01*
X723779Y-665896D01*
X735800Y-665896D01*
G54D11*
X672300Y-748446D02*
X704050Y-716696D01*
X704050Y-659546D01*
X723100Y-640496D01*
X735800Y-640496D01*
G54D11*
X672300Y-697646D02*
X659600Y-684946D01*
X659600Y-653196D01*
X716750Y-596046D01*
X716750Y-494446D01*
X723100Y-488096D01*
X735800Y-488096D01*
X800100Y-584200D02*
G54D12*
D03*
X800100Y-558800D02*
G54D12*
D03*
X800100Y-533400D02*
G54D12*
D03*
X800100Y-508000D02*
G54D12*
D03*
X800100Y-723900D02*
G54D12*
D03*
X800100Y-698500D02*
G54D12*
D03*
X800100Y-673100D02*
G54D12*
D03*
X800100Y-647700D02*
G54D12*
D03*
G36*
X758350Y-713900D02*
X778350Y-713900D01*
X778350Y-733900D01*
X758350Y-733900D01*
X758350Y-713900D01*
G37*
X800100Y-584200D02*
G54D10*
D03*
X800100Y-723900D02*
G54D10*
D03*
X800100Y-781050D02*
G54D13*
D03*
X800100Y-450850D02*
G54D13*
D03*
G54D11*
X799300Y-532492D02*
X811892Y-532492D01*
X819150Y-539750D01*
X819150Y-666750D01*
X812800Y-673100D01*
X800100Y-673100D01*
G54D11*
X768350Y-723900D02*
X768350Y-679450D01*
X774700Y-673100D01*
X800100Y-673100D01*
%LPD*%
G54D14*
G36*
X37300Y-116742D02*
X51800Y-116742D01*
X51800Y-122742D01*
X37300Y-122742D01*
X37300Y-116742D01*
G37*
G54D14*
G36*
X189700Y-71996D02*
X175200Y-71996D01*
X175200Y-65996D01*
X189700Y-65996D01*
X189700Y-71996D01*
G37*
G54D14*
G36*
X98679Y-60525D02*
X108932Y-50272D01*
X113174Y-54514D01*
X102921Y-64767D01*
X98679Y-60525D01*
G37*
G36*
X102921Y-60525D02*
X113174Y-70778D01*
X108932Y-75020D01*
X98679Y-64767D01*
X102921Y-60525D01*
G37*
G36*
X102921Y-64767D02*
X92668Y-75020D01*
X88426Y-70778D01*
X98679Y-60525D01*
X102921Y-64767D01*
G37*
G36*
X98679Y-64767D02*
X88426Y-54514D01*
X92668Y-50272D01*
X102921Y-60525D01*
X98679Y-64767D01*
G37*
G54D14*
G36*
X102921Y-280667D02*
X92668Y-290920D01*
X88426Y-286678D01*
X98679Y-276425D01*
X102921Y-280667D01*
G37*
G36*
X98679Y-280667D02*
X88426Y-270414D01*
X92668Y-266172D01*
X102921Y-276425D01*
X98679Y-280667D01*
G37*
G54D14*
G36*
X102921Y-306067D02*
X92668Y-316320D01*
X88426Y-312078D01*
X98679Y-301825D01*
X102921Y-306067D01*
G37*
G36*
X98679Y-306067D02*
X88426Y-295814D01*
X92668Y-291572D01*
X102921Y-301825D01*
X98679Y-306067D01*
G37*
G54D14*
G36*
X257000Y-190500D02*
X257000Y-205000D01*
X251000Y-205000D01*
X251000Y-190500D01*
X257000Y-190500D01*
G37*
G36*
X254000Y-193500D02*
X239500Y-193500D01*
X239500Y-187500D01*
X254000Y-187500D01*
X254000Y-193500D01*
G37*
G54D14*
G36*
X257000Y-330200D02*
X257000Y-344700D01*
X251000Y-344700D01*
X251000Y-330200D01*
X257000Y-330200D01*
G37*
G36*
X254000Y-333200D02*
X239500Y-333200D01*
X239500Y-327200D01*
X254000Y-327200D01*
X254000Y-333200D01*
G37*
G54D14*
G36*
X310350Y-116742D02*
X324850Y-116742D01*
X324850Y-122742D01*
X310350Y-122742D01*
X310350Y-116742D01*
G37*
G54D14*
G36*
X462750Y-71996D02*
X448250Y-71996D01*
X448250Y-65996D01*
X462750Y-65996D01*
X462750Y-71996D01*
G37*
G54D14*
G36*
X371729Y-60525D02*
X381982Y-50272D01*
X386224Y-54514D01*
X375971Y-64767D01*
X371729Y-60525D01*
G37*
G36*
X375971Y-60525D02*
X386224Y-70778D01*
X381982Y-75020D01*
X371729Y-64767D01*
X375971Y-60525D01*
G37*
G36*
X375971Y-64767D02*
X365718Y-75020D01*
X361476Y-70778D01*
X371729Y-60525D01*
X375971Y-64767D01*
G37*
G36*
X371729Y-64767D02*
X361476Y-54514D01*
X365718Y-50272D01*
X375971Y-60525D01*
X371729Y-64767D01*
G37*
G54D14*
G36*
X375971Y-280667D02*
X365718Y-290920D01*
X361476Y-286678D01*
X371729Y-276425D01*
X375971Y-280667D01*
G37*
G36*
X371729Y-280667D02*
X361476Y-270414D01*
X365718Y-266172D01*
X375971Y-276425D01*
X371729Y-280667D01*
G37*
G54D14*
G36*
X375971Y-306067D02*
X365718Y-316320D01*
X361476Y-312078D01*
X371729Y-301825D01*
X375971Y-306067D01*
G37*
G36*
X371729Y-306067D02*
X361476Y-295814D01*
X365718Y-291572D01*
X375971Y-301825D01*
X371729Y-306067D01*
G37*
G54D14*
G36*
X530050Y-190500D02*
X530050Y-205000D01*
X524050Y-205000D01*
X524050Y-190500D01*
X530050Y-190500D01*
G37*
G36*
X527050Y-193500D02*
X512550Y-193500D01*
X512550Y-187500D01*
X527050Y-187500D01*
X527050Y-193500D01*
G37*
G54D14*
G36*
X530050Y-330200D02*
X530050Y-344700D01*
X524050Y-344700D01*
X524050Y-330200D01*
X530050Y-330200D01*
G37*
G36*
X527050Y-333200D02*
X512550Y-333200D01*
X512550Y-327200D01*
X527050Y-327200D01*
X527050Y-333200D01*
G37*
G54D14*
G36*
X583400Y-116742D02*
X597900Y-116742D01*
X597900Y-122742D01*
X583400Y-122742D01*
X583400Y-116742D01*
G37*
G54D14*
G36*
X735800Y-71996D02*
X721300Y-71996D01*
X721300Y-65996D01*
X735800Y-65996D01*
X735800Y-71996D01*
G37*
G54D14*
G36*
X644779Y-60525D02*
X655032Y-50272D01*
X659274Y-54514D01*
X649021Y-64767D01*
X644779Y-60525D01*
G37*
G36*
X649021Y-60525D02*
X659274Y-70778D01*
X655032Y-75020D01*
X644779Y-64767D01*
X649021Y-60525D01*
G37*
G36*
X649021Y-64767D02*
X638768Y-75020D01*
X634526Y-70778D01*
X644779Y-60525D01*
X649021Y-64767D01*
G37*
G36*
X644779Y-64767D02*
X634526Y-54514D01*
X638768Y-50272D01*
X649021Y-60525D01*
X644779Y-64767D01*
G37*
G54D14*
G36*
X649021Y-280667D02*
X638768Y-290920D01*
X634526Y-286678D01*
X644779Y-276425D01*
X649021Y-280667D01*
G37*
G36*
X644779Y-280667D02*
X634526Y-270414D01*
X638768Y-266172D01*
X649021Y-276425D01*
X644779Y-280667D01*
G37*
G54D14*
G36*
X649021Y-306067D02*
X638768Y-316320D01*
X634526Y-312078D01*
X644779Y-301825D01*
X649021Y-306067D01*
G37*
G36*
X644779Y-306067D02*
X634526Y-295814D01*
X638768Y-291572D01*
X649021Y-301825D01*
X644779Y-306067D01*
G37*
G54D14*
G36*
X803100Y-190500D02*
X803100Y-205000D01*
X797100Y-205000D01*
X797100Y-190500D01*
X803100Y-190500D01*
G37*
G36*
X800100Y-193500D02*
X785600Y-193500D01*
X785600Y-187500D01*
X800100Y-187500D01*
X800100Y-193500D01*
G37*
G54D14*
G36*
X803100Y-330200D02*
X803100Y-344700D01*
X797100Y-344700D01*
X797100Y-330200D01*
X803100Y-330200D01*
G37*
G36*
X800100Y-333200D02*
X785600Y-333200D01*
X785600Y-327200D01*
X800100Y-327200D01*
X800100Y-333200D01*
G37*
G54D14*
G36*
X37300Y-510442D02*
X51800Y-510442D01*
X51800Y-516442D01*
X37300Y-516442D01*
X37300Y-510442D01*
G37*
G54D14*
G36*
X189700Y-465696D02*
X175200Y-465696D01*
X175200Y-459696D01*
X189700Y-459696D01*
X189700Y-465696D01*
G37*
G54D14*
G36*
X98679Y-454225D02*
X108932Y-443972D01*
X113174Y-448214D01*
X102921Y-458467D01*
X98679Y-454225D01*
G37*
G36*
X102921Y-454225D02*
X113174Y-464478D01*
X108932Y-468720D01*
X98679Y-458467D01*
X102921Y-454225D01*
G37*
G36*
X102921Y-458467D02*
X92668Y-468720D01*
X88426Y-464478D01*
X98679Y-454225D01*
X102921Y-458467D01*
G37*
G36*
X98679Y-458467D02*
X88426Y-448214D01*
X92668Y-443972D01*
X102921Y-454225D01*
X98679Y-458467D01*
G37*
G54D14*
G36*
X102921Y-674367D02*
X92668Y-684620D01*
X88426Y-680378D01*
X98679Y-670125D01*
X102921Y-674367D01*
G37*
G36*
X98679Y-674367D02*
X88426Y-664114D01*
X92668Y-659872D01*
X102921Y-670125D01*
X98679Y-674367D01*
G37*
G54D14*
G36*
X102921Y-699767D02*
X92668Y-710020D01*
X88426Y-705778D01*
X98679Y-695525D01*
X102921Y-699767D01*
G37*
G36*
X98679Y-699767D02*
X88426Y-689514D01*
X92668Y-685272D01*
X102921Y-695525D01*
X98679Y-699767D01*
G37*
G54D14*
G36*
X257000Y-584200D02*
X257000Y-598700D01*
X251000Y-598700D01*
X251000Y-584200D01*
X257000Y-584200D01*
G37*
G36*
X254000Y-587200D02*
X239500Y-587200D01*
X239500Y-581200D01*
X254000Y-581200D01*
X254000Y-587200D01*
G37*
G54D14*
G36*
X257000Y-723900D02*
X257000Y-738400D01*
X251000Y-738400D01*
X251000Y-723900D01*
X257000Y-723900D01*
G37*
G36*
X254000Y-726900D02*
X239500Y-726900D01*
X239500Y-720900D01*
X254000Y-720900D01*
X254000Y-726900D01*
G37*
G54D14*
G36*
X310350Y-510442D02*
X324850Y-510442D01*
X324850Y-516442D01*
X310350Y-516442D01*
X310350Y-510442D01*
G37*
G54D14*
G36*
X462750Y-465696D02*
X448250Y-465696D01*
X448250Y-459696D01*
X462750Y-459696D01*
X462750Y-465696D01*
G37*
G54D14*
G36*
X371729Y-454225D02*
X381982Y-443972D01*
X386224Y-448214D01*
X375971Y-458467D01*
X371729Y-454225D01*
G37*
G36*
X375971Y-454225D02*
X386224Y-464478D01*
X381982Y-468720D01*
X371729Y-458467D01*
X375971Y-454225D01*
G37*
G36*
X375971Y-458467D02*
X365718Y-468720D01*
X361476Y-464478D01*
X371729Y-454225D01*
X375971Y-458467D01*
G37*
G36*
X371729Y-458467D02*
X361476Y-448214D01*
X365718Y-443972D01*
X375971Y-454225D01*
X371729Y-458467D01*
G37*
G54D14*
G36*
X375971Y-674367D02*
X365718Y-684620D01*
X361476Y-680378D01*
X371729Y-670125D01*
X375971Y-674367D01*
G37*
G36*
X371729Y-674367D02*
X361476Y-664114D01*
X365718Y-659872D01*
X375971Y-670125D01*
X371729Y-674367D01*
G37*
G54D14*
G36*
X375971Y-699767D02*
X365718Y-710020D01*
X361476Y-705778D01*
X371729Y-695525D01*
X375971Y-699767D01*
G37*
G36*
X371729Y-699767D02*
X361476Y-689514D01*
X365718Y-685272D01*
X375971Y-695525D01*
X371729Y-699767D01*
G37*
G54D14*
G36*
X530050Y-584200D02*
X530050Y-598700D01*
X524050Y-598700D01*
X524050Y-584200D01*
X530050Y-584200D01*
G37*
G36*
X527050Y-587200D02*
X512550Y-587200D01*
X512550Y-581200D01*
X527050Y-581200D01*
X527050Y-587200D01*
G37*
G54D14*
G36*
X530050Y-723900D02*
X530050Y-738400D01*
X524050Y-738400D01*
X524050Y-723900D01*
X530050Y-723900D01*
G37*
G36*
X527050Y-726900D02*
X512550Y-726900D01*
X512550Y-720900D01*
X527050Y-720900D01*
X527050Y-726900D01*
G37*
G54D14*
G36*
X583400Y-510442D02*
X597900Y-510442D01*
X597900Y-516442D01*
X583400Y-516442D01*
X583400Y-510442D01*
G37*
G54D14*
G36*
X735800Y-465696D02*
X721300Y-465696D01*
X721300Y-459696D01*
X735800Y-459696D01*
X735800Y-465696D01*
G37*
G54D14*
G36*
X644779Y-454225D02*
X655032Y-443972D01*
X659274Y-448214D01*
X649021Y-458467D01*
X644779Y-454225D01*
G37*
G36*
X649021Y-454225D02*
X659274Y-464478D01*
X655032Y-468720D01*
X644779Y-458467D01*
X649021Y-454225D01*
G37*
G36*
X649021Y-458467D02*
X638768Y-468720D01*
X634526Y-464478D01*
X644779Y-454225D01*
X649021Y-458467D01*
G37*
G36*
X644779Y-458467D02*
X634526Y-448214D01*
X638768Y-443972D01*
X649021Y-454225D01*
X644779Y-458467D01*
G37*
G54D14*
G36*
X649021Y-674367D02*
X638768Y-684620D01*
X634526Y-680378D01*
X644779Y-670125D01*
X649021Y-674367D01*
G37*
G36*
X644779Y-674367D02*
X634526Y-664114D01*
X638768Y-659872D01*
X649021Y-670125D01*
X644779Y-674367D01*
G37*
G54D14*
G36*
X649021Y-699767D02*
X638768Y-710020D01*
X634526Y-705778D01*
X644779Y-695525D01*
X649021Y-699767D01*
G37*
G36*
X644779Y-699767D02*
X634526Y-689514D01*
X638768Y-685272D01*
X649021Y-695525D01*
X644779Y-699767D01*
G37*
G54D14*
G36*
X803100Y-584200D02*
X803100Y-598700D01*
X797100Y-598700D01*
X797100Y-584200D01*
X803100Y-584200D01*
G37*
G36*
X800100Y-587200D02*
X785600Y-587200D01*
X785600Y-581200D01*
X800100Y-581200D01*
X800100Y-587200D01*
G37*
G54D14*
G36*
X803100Y-723900D02*
X803100Y-738400D01*
X797100Y-738400D01*
X797100Y-723900D01*
X803100Y-723900D01*
G37*
G36*
X800100Y-726900D02*
X785600Y-726900D01*
X785600Y-720900D01*
X800100Y-720900D01*
X800100Y-726900D01*
G37*
G36*
X28300Y-34596D02*
X46300Y-34596D01*
X46300Y-52596D01*
X28300Y-52596D01*
X28300Y-34596D01*
G37*
G36*
X180700Y-34596D02*
X198700Y-34596D01*
X198700Y-52596D01*
X180700Y-52596D01*
X180700Y-34596D01*
G37*
X37300Y-68996D02*
G54D15*
D03*
X37300Y-94396D02*
G54D15*
D03*
X37300Y-119742D02*
G54D15*
D03*
X37300Y-145196D02*
G54D15*
D03*
X37300Y-170596D02*
G54D15*
D03*
X37300Y-195996D02*
G54D15*
D03*
X37300Y-221396D02*
G54D15*
D03*
X37300Y-246796D02*
G54D15*
D03*
X37300Y-272196D02*
G54D15*
D03*
X37300Y-297596D02*
G54D15*
D03*
X37300Y-322996D02*
G54D15*
D03*
X37300Y-348396D02*
G54D15*
D03*
X37300Y-373796D02*
G54D15*
D03*
X37300Y-399196D02*
G54D15*
D03*
X189700Y-399196D02*
G54D15*
D03*
X189700Y-373796D02*
G54D15*
D03*
X189700Y-348396D02*
G54D15*
D03*
X189700Y-322996D02*
G54D15*
D03*
X189700Y-297596D02*
G54D15*
D03*
X189700Y-272196D02*
G54D15*
D03*
X189700Y-246796D02*
G54D15*
D03*
X189700Y-221396D02*
G54D15*
D03*
X189700Y-195996D02*
G54D15*
D03*
X189700Y-170596D02*
G54D15*
D03*
X189700Y-145196D02*
G54D15*
D03*
X189700Y-119796D02*
G54D15*
D03*
X189700Y-94396D02*
G54D15*
D03*
X189700Y-68996D02*
G54D15*
D03*
X100800Y-62646D02*
G54D15*
D03*
X126200Y-62646D02*
G54D15*
D03*
X126200Y-88046D02*
G54D15*
D03*
X100800Y-88046D02*
G54D15*
D03*
X100800Y-113446D02*
G54D15*
D03*
X100800Y-138846D02*
G54D15*
D03*
X100800Y-164246D02*
G54D15*
D03*
X126200Y-164246D02*
G54D15*
D03*
X126200Y-138846D02*
G54D15*
D03*
X126200Y-113446D02*
G54D15*
D03*
X100800Y-278546D02*
G54D15*
D03*
X126200Y-278546D02*
G54D15*
D03*
X126200Y-303946D02*
G54D15*
D03*
X100800Y-303946D02*
G54D15*
D03*
X100800Y-329346D02*
G54D15*
D03*
X126200Y-329346D02*
G54D15*
D03*
X126200Y-354746D02*
G54D15*
D03*
X100800Y-354746D02*
G54D15*
D03*
X100800Y-380146D02*
G54D15*
D03*
X126200Y-380146D02*
G54D15*
D03*
G54D16*
X37300Y-145196D02*
X62700Y-145196D01*
X75400Y-132496D01*
X75400Y-102670D01*
X90024Y-88046D01*
X100800Y-88046D01*
G54D16*
X37300Y-195996D02*
X79900Y-153396D01*
X79900Y-123570D01*
X90024Y-113446D01*
X100800Y-113446D01*
G54D16*
X37300Y-246796D02*
X84400Y-199696D01*
X84400Y-144469D01*
X90024Y-138846D01*
X100800Y-138846D01*
G54D16*
X37300Y-297596D02*
X50000Y-297596D01*
X56350Y-291246D01*
X56350Y-259496D01*
X93180Y-222666D01*
X93180Y-171866D01*
X100800Y-164246D01*
G54D16*
X37300Y-373796D02*
X56350Y-373796D01*
X88100Y-342046D01*
X113500Y-342046D01*
X126200Y-329346D01*
G54D16*
X37300Y-399196D02*
X81750Y-399196D01*
X100800Y-380146D01*
G54D16*
X126200Y-380146D02*
X145250Y-399196D01*
X189700Y-399196D01*
G54D16*
X100800Y-354746D02*
X113500Y-367446D01*
X145250Y-367446D01*
X170650Y-342046D01*
X170650Y-279225D01*
X177679Y-272196D01*
X189700Y-272196D01*
G54D16*
X126200Y-354746D02*
X157950Y-322996D01*
X157950Y-265846D01*
X177000Y-246796D01*
X189700Y-246796D01*
G54D16*
X126200Y-303946D02*
X113500Y-291246D01*
X113500Y-259496D01*
X170650Y-202346D01*
X170650Y-100746D01*
X177000Y-94396D01*
X189700Y-94396D01*
X254000Y-190500D02*
G54D15*
D03*
X254000Y-165100D02*
G54D15*
D03*
X254000Y-139700D02*
G54D15*
D03*
X254000Y-114300D02*
G54D15*
D03*
X254000Y-330200D02*
G54D15*
D03*
X254000Y-304800D02*
G54D15*
D03*
X254000Y-279400D02*
G54D15*
D03*
X254000Y-254000D02*
G54D15*
D03*
G36*
X217250Y-325200D02*
X227250Y-325200D01*
X227250Y-335200D01*
X217250Y-335200D01*
X217250Y-325200D01*
G37*
X254000Y-190500D02*
G54D15*
D03*
X254000Y-330200D02*
G54D15*
D03*
X254000Y-387350D02*
G54D17*
D03*
X254000Y-57150D02*
G54D17*
D03*
G54D16*
X253200Y-138792D02*
X265792Y-138792D01*
X273050Y-146050D01*
X273050Y-273050D01*
X266700Y-279400D01*
X254000Y-279400D01*
G54D16*
X222250Y-330200D02*
X222250Y-285750D01*
X228600Y-279400D01*
X254000Y-279400D01*
G36*
X301350Y-34596D02*
X319350Y-34596D01*
X319350Y-52596D01*
X301350Y-52596D01*
X301350Y-34596D01*
G37*
G36*
X453750Y-34596D02*
X471750Y-34596D01*
X471750Y-52596D01*
X453750Y-52596D01*
X453750Y-34596D01*
G37*
X310350Y-68996D02*
G54D15*
D03*
X310350Y-94396D02*
G54D15*
D03*
X310350Y-119742D02*
G54D15*
D03*
X310350Y-145196D02*
G54D15*
D03*
X310350Y-170596D02*
G54D15*
D03*
X310350Y-195996D02*
G54D15*
D03*
X310350Y-221396D02*
G54D15*
D03*
X310350Y-246796D02*
G54D15*
D03*
X310350Y-272196D02*
G54D15*
D03*
X310350Y-297596D02*
G54D15*
D03*
X310350Y-322996D02*
G54D15*
D03*
X310350Y-348396D02*
G54D15*
D03*
X310350Y-373796D02*
G54D15*
D03*
X310350Y-399196D02*
G54D15*
D03*
X462750Y-399196D02*
G54D15*
D03*
X462750Y-373796D02*
G54D15*
D03*
X462750Y-348396D02*
G54D15*
D03*
X462750Y-322996D02*
G54D15*
D03*
X462750Y-297596D02*
G54D15*
D03*
X462750Y-272196D02*
G54D15*
D03*
X462750Y-246796D02*
G54D15*
D03*
X462750Y-221396D02*
G54D15*
D03*
X462750Y-195996D02*
G54D15*
D03*
X462750Y-170596D02*
G54D15*
D03*
X462750Y-145196D02*
G54D15*
D03*
X462750Y-119796D02*
G54D15*
D03*
X462750Y-94396D02*
G54D15*
D03*
X462750Y-68996D02*
G54D15*
D03*
X373850Y-62646D02*
G54D15*
D03*
X399250Y-62646D02*
G54D15*
D03*
X399250Y-88046D02*
G54D15*
D03*
X373850Y-88046D02*
G54D15*
D03*
X373850Y-113446D02*
G54D15*
D03*
X373850Y-138846D02*
G54D15*
D03*
X373850Y-164246D02*
G54D15*
D03*
X399250Y-164246D02*
G54D15*
D03*
X399250Y-138846D02*
G54D15*
D03*
X399250Y-113446D02*
G54D15*
D03*
X373850Y-278546D02*
G54D15*
D03*
X399250Y-278546D02*
G54D15*
D03*
X399250Y-303946D02*
G54D15*
D03*
X373850Y-303946D02*
G54D15*
D03*
X373850Y-329346D02*
G54D15*
D03*
X399250Y-329346D02*
G54D15*
D03*
X399250Y-354746D02*
G54D15*
D03*
X373850Y-354746D02*
G54D15*
D03*
X373850Y-380146D02*
G54D15*
D03*
X399250Y-380146D02*
G54D15*
D03*
G54D16*
X310350Y-145196D02*
X335750Y-145196D01*
X348450Y-132496D01*
X348450Y-102670D01*
X363074Y-88046D01*
X373850Y-88046D01*
G54D16*
X310350Y-195996D02*
X352950Y-153396D01*
X352950Y-123570D01*
X363074Y-113446D01*
X373850Y-113446D01*
G54D16*
X310350Y-246796D02*
X357450Y-199696D01*
X357450Y-144469D01*
X363074Y-138846D01*
X373850Y-138846D01*
G54D16*
X310350Y-297596D02*
X323050Y-297596D01*
X329400Y-291246D01*
X329400Y-259496D01*
X366230Y-222666D01*
X366230Y-171866D01*
X373850Y-164246D01*
G54D16*
X310350Y-373796D02*
X329400Y-373796D01*
X361150Y-342046D01*
X386550Y-342046D01*
X399250Y-329346D01*
G54D16*
X310350Y-399196D02*
X354800Y-399196D01*
X373850Y-380146D01*
G54D16*
X399250Y-380146D02*
X418300Y-399196D01*
X462750Y-399196D01*
G54D16*
X373850Y-354746D02*
X386550Y-367446D01*
X418300Y-367446D01*
X443700Y-342046D01*
X443700Y-279225D01*
X450729Y-272196D01*
X462750Y-272196D01*
G54D16*
X399250Y-354746D02*
X431000Y-322996D01*
X431000Y-265846D01*
X450050Y-246796D01*
X462750Y-246796D01*
G54D16*
X399250Y-303946D02*
X386550Y-291246D01*
X386550Y-259496D01*
X443700Y-202346D01*
X443700Y-100746D01*
X450050Y-94396D01*
X462750Y-94396D01*
X527050Y-190500D02*
G54D15*
D03*
X527050Y-165100D02*
G54D15*
D03*
X527050Y-139700D02*
G54D15*
D03*
X527050Y-114300D02*
G54D15*
D03*
X527050Y-330200D02*
G54D15*
D03*
X527050Y-304800D02*
G54D15*
D03*
X527050Y-279400D02*
G54D15*
D03*
X527050Y-254000D02*
G54D15*
D03*
G36*
X490300Y-325200D02*
X500300Y-325200D01*
X500300Y-335200D01*
X490300Y-335200D01*
X490300Y-325200D01*
G37*
X527050Y-190500D02*
G54D15*
D03*
X527050Y-330200D02*
G54D15*
D03*
X527050Y-387350D02*
G54D17*
D03*
X527050Y-57150D02*
G54D17*
D03*
G54D16*
X526250Y-138792D02*
X538842Y-138792D01*
X546100Y-146050D01*
X546100Y-273050D01*
X539750Y-279400D01*
X527050Y-279400D01*
G54D16*
X495300Y-330200D02*
X495300Y-285750D01*
X501650Y-279400D01*
X527050Y-279400D01*
G36*
X574400Y-34596D02*
X592400Y-34596D01*
X592400Y-52596D01*
X574400Y-52596D01*
X574400Y-34596D01*
G37*
G36*
X726800Y-34596D02*
X744800Y-34596D01*
X744800Y-52596D01*
X726800Y-52596D01*
X726800Y-34596D01*
G37*
X583400Y-68996D02*
G54D15*
D03*
X583400Y-94396D02*
G54D15*
D03*
X583400Y-119742D02*
G54D15*
D03*
X583400Y-145196D02*
G54D15*
D03*
X583400Y-170596D02*
G54D15*
D03*
X583400Y-195996D02*
G54D15*
D03*
X583400Y-221396D02*
G54D15*
D03*
X583400Y-246796D02*
G54D15*
D03*
X583400Y-272196D02*
G54D15*
D03*
X583400Y-297596D02*
G54D15*
D03*
X583400Y-322996D02*
G54D15*
D03*
X583400Y-348396D02*
G54D15*
D03*
X583400Y-373796D02*
G54D15*
D03*
X583400Y-399196D02*
G54D15*
D03*
X735800Y-399196D02*
G54D15*
D03*
X735800Y-373796D02*
G54D15*
D03*
X735800Y-348396D02*
G54D15*
D03*
X735800Y-322996D02*
G54D15*
D03*
X735800Y-297596D02*
G54D15*
D03*
X735800Y-272196D02*
G54D15*
D03*
X735800Y-246796D02*
G54D15*
D03*
X735800Y-221396D02*
G54D15*
D03*
X735800Y-195996D02*
G54D15*
D03*
X735800Y-170596D02*
G54D15*
D03*
X735800Y-145196D02*
G54D15*
D03*
X735800Y-119796D02*
G54D15*
D03*
X735800Y-94396D02*
G54D15*
D03*
X735800Y-68996D02*
G54D15*
D03*
X646900Y-62646D02*
G54D15*
D03*
X672300Y-62646D02*
G54D15*
D03*
X672300Y-88046D02*
G54D15*
D03*
X646900Y-88046D02*
G54D15*
D03*
X646900Y-113446D02*
G54D15*
D03*
X646900Y-138846D02*
G54D15*
D03*
X646900Y-164246D02*
G54D15*
D03*
X672300Y-164246D02*
G54D15*
D03*
X672300Y-138846D02*
G54D15*
D03*
X672300Y-113446D02*
G54D15*
D03*
X646900Y-278546D02*
G54D15*
D03*
X672300Y-278546D02*
G54D15*
D03*
X672300Y-303946D02*
G54D15*
D03*
X646900Y-303946D02*
G54D15*
D03*
X646900Y-329346D02*
G54D15*
D03*
X672300Y-329346D02*
G54D15*
D03*
X672300Y-354746D02*
G54D15*
D03*
X646900Y-354746D02*
G54D15*
D03*
X646900Y-380146D02*
G54D15*
D03*
X672300Y-380146D02*
G54D15*
D03*
G54D16*
X583400Y-145196D02*
X608800Y-145196D01*
X621500Y-132496D01*
X621500Y-102670D01*
X636124Y-88046D01*
X646900Y-88046D01*
G54D16*
X583400Y-195996D02*
X626000Y-153396D01*
X626000Y-123570D01*
X636124Y-113446D01*
X646900Y-113446D01*
G54D16*
X583400Y-246796D02*
X630500Y-199696D01*
X630500Y-144469D01*
X636124Y-138846D01*
X646900Y-138846D01*
G54D16*
X583400Y-297596D02*
X596100Y-297596D01*
X602450Y-291246D01*
X602450Y-259496D01*
X639280Y-222666D01*
X639280Y-171866D01*
X646900Y-164246D01*
G54D16*
X583400Y-373796D02*
X602450Y-373796D01*
X634200Y-342046D01*
X659600Y-342046D01*
X672300Y-329346D01*
G54D16*
X583400Y-399196D02*
X627850Y-399196D01*
X646900Y-380146D01*
G54D16*
X672300Y-380146D02*
X691350Y-399196D01*
X735800Y-399196D01*
G54D16*
X646900Y-354746D02*
X659600Y-367446D01*
X691350Y-367446D01*
X716750Y-342046D01*
X716750Y-279225D01*
X723779Y-272196D01*
X735800Y-272196D01*
G54D16*
X672300Y-354746D02*
X704050Y-322996D01*
X704050Y-265846D01*
X723100Y-246796D01*
X735800Y-246796D01*
G54D16*
X672300Y-303946D02*
X659600Y-291246D01*
X659600Y-259496D01*
X716750Y-202346D01*
X716750Y-100746D01*
X723100Y-94396D01*
X735800Y-94396D01*
X800100Y-190500D02*
G54D15*
D03*
X800100Y-165100D02*
G54D15*
D03*
X800100Y-139700D02*
G54D15*
D03*
X800100Y-114300D02*
G54D15*
D03*
X800100Y-330200D02*
G54D15*
D03*
X800100Y-304800D02*
G54D15*
D03*
X800100Y-279400D02*
G54D15*
D03*
X800100Y-254000D02*
G54D15*
D03*
G36*
X763350Y-325200D02*
X773350Y-325200D01*
X773350Y-335200D01*
X763350Y-335200D01*
X763350Y-325200D01*
G37*
X800100Y-190500D02*
G54D15*
D03*
X800100Y-330200D02*
G54D15*
D03*
X800100Y-387350D02*
G54D17*
D03*
X800100Y-57150D02*
G54D17*
D03*
G54D16*
X799300Y-138792D02*
X811892Y-138792D01*
X819150Y-146050D01*
X819150Y-273050D01*
X812800Y-279400D01*
X800100Y-279400D01*
G54D16*
X768350Y-330200D02*
X768350Y-285750D01*
X774700Y-279400D01*
X800100Y-279400D01*
G36*
X28300Y-428296D02*
X46300Y-428296D01*
X46300Y-446296D01*
X28300Y-446296D01*
X28300Y-428296D01*
G37*
G36*
X180700Y-428296D02*
X198700Y-428296D01*
X198700Y-446296D01*
X180700Y-446296D01*
X180700Y-428296D01*
G37*
X37300Y-462696D02*
G54D15*
D03*
X37300Y-488096D02*
G54D15*
D03*
X37300Y-513442D02*
G54D15*
D03*
X37300Y-538896D02*
G54D15*
D03*
X37300Y-564296D02*
G54D15*
D03*
X37300Y-589696D02*
G54D15*
D03*
X37300Y-615096D02*
G54D15*
D03*
X37300Y-640496D02*
G54D15*
D03*
X37300Y-665896D02*
G54D15*
D03*
X37300Y-691296D02*
G54D15*
D03*
X37300Y-716696D02*
G54D15*
D03*
X37300Y-742096D02*
G54D15*
D03*
X37300Y-767496D02*
G54D15*
D03*
X37300Y-792896D02*
G54D15*
D03*
X189700Y-792896D02*
G54D15*
D03*
X189700Y-767496D02*
G54D15*
D03*
X189700Y-742096D02*
G54D15*
D03*
X189700Y-716696D02*
G54D15*
D03*
X189700Y-691296D02*
G54D15*
D03*
X189700Y-665896D02*
G54D15*
D03*
X189700Y-640496D02*
G54D15*
D03*
X189700Y-615096D02*
G54D15*
D03*
X189700Y-589696D02*
G54D15*
D03*
X189700Y-564296D02*
G54D15*
D03*
X189700Y-538896D02*
G54D15*
D03*
X189700Y-513496D02*
G54D15*
D03*
X189700Y-488096D02*
G54D15*
D03*
X189700Y-462696D02*
G54D15*
D03*
X100800Y-456346D02*
G54D15*
D03*
X126200Y-456346D02*
G54D15*
D03*
X126200Y-481746D02*
G54D15*
D03*
X100800Y-481746D02*
G54D15*
D03*
X100800Y-507146D02*
G54D15*
D03*
X100800Y-532546D02*
G54D15*
D03*
X100800Y-557946D02*
G54D15*
D03*
X126200Y-557946D02*
G54D15*
D03*
X126200Y-532546D02*
G54D15*
D03*
X126200Y-507146D02*
G54D15*
D03*
X100800Y-672246D02*
G54D15*
D03*
X126200Y-672246D02*
G54D15*
D03*
X126200Y-697646D02*
G54D15*
D03*
X100800Y-697646D02*
G54D15*
D03*
X100800Y-723046D02*
G54D15*
D03*
X126200Y-723046D02*
G54D15*
D03*
X126200Y-748446D02*
G54D15*
D03*
X100800Y-748446D02*
G54D15*
D03*
X100800Y-773846D02*
G54D15*
D03*
X126200Y-773846D02*
G54D15*
D03*
G54D16*
X37300Y-538896D02*
X62700Y-538896D01*
X75400Y-526196D01*
X75400Y-496370D01*
X90024Y-481746D01*
X100800Y-481746D01*
G54D16*
X37300Y-589696D02*
X79900Y-547096D01*
X79900Y-517270D01*
X90024Y-507146D01*
X100800Y-507146D01*
G54D16*
X37300Y-640496D02*
X84400Y-593396D01*
X84400Y-538170D01*
X90024Y-532546D01*
X100800Y-532546D01*
G54D16*
X37300Y-691296D02*
X50000Y-691296D01*
X56350Y-684946D01*
X56350Y-653196D01*
X93180Y-616366D01*
X93180Y-565566D01*
X100800Y-557946D01*
G54D16*
X37300Y-767496D02*
X56350Y-767496D01*
X88100Y-735746D01*
X113500Y-735746D01*
X126200Y-723046D01*
G54D16*
X37300Y-792896D02*
X81750Y-792896D01*
X100800Y-773846D01*
G54D16*
X126200Y-773846D02*
X145250Y-792896D01*
X189700Y-792896D01*
G54D16*
X100800Y-748446D02*
X113500Y-761146D01*
X145250Y-761146D01*
X170650Y-735746D01*
X170650Y-672925D01*
X177679Y-665896D01*
X189700Y-665896D01*
G54D16*
X126200Y-748446D02*
X157950Y-716696D01*
X157950Y-659546D01*
X177000Y-640496D01*
X189700Y-640496D01*
G54D16*
X126200Y-697646D02*
X113500Y-684946D01*
X113500Y-653196D01*
X170650Y-596046D01*
X170650Y-494446D01*
X177000Y-488096D01*
X189700Y-488096D01*
X254000Y-584200D02*
G54D15*
D03*
X254000Y-558800D02*
G54D15*
D03*
X254000Y-533400D02*
G54D15*
D03*
X254000Y-508000D02*
G54D15*
D03*
X254000Y-723900D02*
G54D15*
D03*
X254000Y-698500D02*
G54D15*
D03*
X254000Y-673100D02*
G54D15*
D03*
X254000Y-647700D02*
G54D15*
D03*
G36*
X217250Y-718900D02*
X227250Y-718900D01*
X227250Y-728900D01*
X217250Y-728900D01*
X217250Y-718900D01*
G37*
X254000Y-584200D02*
G54D15*
D03*
X254000Y-723900D02*
G54D15*
D03*
X254000Y-781050D02*
G54D17*
D03*
X254000Y-450850D02*
G54D17*
D03*
G54D16*
X253200Y-532492D02*
X265792Y-532492D01*
X273050Y-539750D01*
X273050Y-666750D01*
X266700Y-673100D01*
X254000Y-673100D01*
G54D16*
X222250Y-723900D02*
X222250Y-679450D01*
X228600Y-673100D01*
X254000Y-673100D01*
G36*
X301350Y-428296D02*
X319350Y-428296D01*
X319350Y-446296D01*
X301350Y-446296D01*
X301350Y-428296D01*
G37*
G36*
X453750Y-428296D02*
X471750Y-428296D01*
X471750Y-446296D01*
X453750Y-446296D01*
X453750Y-428296D01*
G37*
X310350Y-462696D02*
G54D15*
D03*
X310350Y-488096D02*
G54D15*
D03*
X310350Y-513442D02*
G54D15*
D03*
X310350Y-538896D02*
G54D15*
D03*
X310350Y-564296D02*
G54D15*
D03*
X310350Y-589696D02*
G54D15*
D03*
X310350Y-615096D02*
G54D15*
D03*
X310350Y-640496D02*
G54D15*
D03*
X310350Y-665896D02*
G54D15*
D03*
X310350Y-691296D02*
G54D15*
D03*
X310350Y-716696D02*
G54D15*
D03*
X310350Y-742096D02*
G54D15*
D03*
X310350Y-767496D02*
G54D15*
D03*
X310350Y-792896D02*
G54D15*
D03*
X462750Y-792896D02*
G54D15*
D03*
X462750Y-767496D02*
G54D15*
D03*
X462750Y-742096D02*
G54D15*
D03*
X462750Y-716696D02*
G54D15*
D03*
X462750Y-691296D02*
G54D15*
D03*
X462750Y-665896D02*
G54D15*
D03*
X462750Y-640496D02*
G54D15*
D03*
X462750Y-615096D02*
G54D15*
D03*
X462750Y-589696D02*
G54D15*
D03*
X462750Y-564296D02*
G54D15*
D03*
X462750Y-538896D02*
G54D15*
D03*
X462750Y-513496D02*
G54D15*
D03*
X462750Y-488096D02*
G54D15*
D03*
X462750Y-462696D02*
G54D15*
D03*
X373850Y-456346D02*
G54D15*
D03*
X399250Y-456346D02*
G54D15*
D03*
X399250Y-481746D02*
G54D15*
D03*
X373850Y-481746D02*
G54D15*
D03*
X373850Y-507146D02*
G54D15*
D03*
X373850Y-532546D02*
G54D15*
D03*
X373850Y-557946D02*
G54D15*
D03*
X399250Y-557946D02*
G54D15*
D03*
X399250Y-532546D02*
G54D15*
D03*
X399250Y-507146D02*
G54D15*
D03*
X373850Y-672246D02*
G54D15*
D03*
X399250Y-672246D02*
G54D15*
D03*
X399250Y-697646D02*
G54D15*
D03*
X373850Y-697646D02*
G54D15*
D03*
X373850Y-723046D02*
G54D15*
D03*
X399250Y-723046D02*
G54D15*
D03*
X399250Y-748446D02*
G54D15*
D03*
X373850Y-748446D02*
G54D15*
D03*
X373850Y-773846D02*
G54D15*
D03*
X399250Y-773846D02*
G54D15*
D03*
G54D16*
X310350Y-538896D02*
X335750Y-538896D01*
X348450Y-526196D01*
X348450Y-496370D01*
X363074Y-481746D01*
X373850Y-481746D01*
G54D16*
X310350Y-589696D02*
X352950Y-547096D01*
X352950Y-517270D01*
X363074Y-507146D01*
X373850Y-507146D01*
G54D16*
X310350Y-640496D02*
X357450Y-593396D01*
X357450Y-538170D01*
X363074Y-532546D01*
X373850Y-532546D01*
G54D16*
X310350Y-691296D02*
X323050Y-691296D01*
X329400Y-684946D01*
X329400Y-653196D01*
X366230Y-616366D01*
X366230Y-565566D01*
X373850Y-557946D01*
G54D16*
X310350Y-767496D02*
X329400Y-767496D01*
X361150Y-735746D01*
X386550Y-735746D01*
X399250Y-723046D01*
G54D16*
X310350Y-792896D02*
X354800Y-792896D01*
X373850Y-773846D01*
G54D16*
X399250Y-773846D02*
X418300Y-792896D01*
X462750Y-792896D01*
G54D16*
X373850Y-748446D02*
X386550Y-761146D01*
X418300Y-761146D01*
X443700Y-735746D01*
X443700Y-672925D01*
X450729Y-665896D01*
X462750Y-665896D01*
G54D16*
X399250Y-748446D02*
X431000Y-716696D01*
X431000Y-659546D01*
X450050Y-640496D01*
X462750Y-640496D01*
G54D16*
X399250Y-697646D02*
X386550Y-684946D01*
X386550Y-653196D01*
X443700Y-596046D01*
X443700Y-494446D01*
X450050Y-488096D01*
X462750Y-488096D01*
X527050Y-584200D02*
G54D15*
D03*
X527050Y-558800D02*
G54D15*
D03*
X527050Y-533400D02*
G54D15*
D03*
X527050Y-508000D02*
G54D15*
D03*
X527050Y-723900D02*
G54D15*
D03*
X527050Y-698500D02*
G54D15*
D03*
X527050Y-673100D02*
G54D15*
D03*
X527050Y-647700D02*
G54D15*
D03*
G36*
X490300Y-718900D02*
X500300Y-718900D01*
X500300Y-728900D01*
X490300Y-728900D01*
X490300Y-718900D01*
G37*
X527050Y-584200D02*
G54D15*
D03*
X527050Y-723900D02*
G54D15*
D03*
X527050Y-781050D02*
G54D17*
D03*
X527050Y-450850D02*
G54D17*
D03*
G54D16*
X526250Y-532492D02*
X538842Y-532492D01*
X546100Y-539750D01*
X546100Y-666750D01*
X539750Y-673100D01*
X527050Y-673100D01*
G54D16*
X495300Y-723900D02*
X495300Y-679450D01*
X501650Y-673100D01*
X527050Y-673100D01*
G36*
X574400Y-428296D02*
X592400Y-428296D01*
X592400Y-446296D01*
X574400Y-446296D01*
X574400Y-428296D01*
G37*
G36*
X726800Y-428296D02*
X744800Y-428296D01*
X744800Y-446296D01*
X726800Y-446296D01*
X726800Y-428296D01*
G37*
X583400Y-462696D02*
G54D15*
D03*
X583400Y-488096D02*
G54D15*
D03*
X583400Y-513442D02*
G54D15*
D03*
X583400Y-538896D02*
G54D15*
D03*
X583400Y-564296D02*
G54D15*
D03*
X583400Y-589696D02*
G54D15*
D03*
X583400Y-615096D02*
G54D15*
D03*
X583400Y-640496D02*
G54D15*
D03*
X583400Y-665896D02*
G54D15*
D03*
X583400Y-691296D02*
G54D15*
D03*
X583400Y-716696D02*
G54D15*
D03*
X583400Y-742096D02*
G54D15*
D03*
X583400Y-767496D02*
G54D15*
D03*
X583400Y-792896D02*
G54D15*
D03*
X735800Y-792896D02*
G54D15*
D03*
X735800Y-767496D02*
G54D15*
D03*
X735800Y-742096D02*
G54D15*
D03*
X735800Y-716696D02*
G54D15*
D03*
X735800Y-691296D02*
G54D15*
D03*
X735800Y-665896D02*
G54D15*
D03*
X735800Y-640496D02*
G54D15*
D03*
X735800Y-615096D02*
G54D15*
D03*
X735800Y-589696D02*
G54D15*
D03*
X735800Y-564296D02*
G54D15*
D03*
X735800Y-538896D02*
G54D15*
D03*
X735800Y-513496D02*
G54D15*
D03*
X735800Y-488096D02*
G54D15*
D03*
X735800Y-462696D02*
G54D15*
D03*
X646900Y-456346D02*
G54D15*
D03*
X672300Y-456346D02*
G54D15*
D03*
X672300Y-481746D02*
G54D15*
D03*
X646900Y-481746D02*
G54D15*
D03*
X646900Y-507146D02*
G54D15*
D03*
X646900Y-532546D02*
G54D15*
D03*
X646900Y-557946D02*
G54D15*
D03*
X672300Y-557946D02*
G54D15*
D03*
X672300Y-532546D02*
G54D15*
D03*
X672300Y-507146D02*
G54D15*
D03*
X646900Y-672246D02*
G54D15*
D03*
X672300Y-672246D02*
G54D15*
D03*
X672300Y-697646D02*
G54D15*
D03*
X646900Y-697646D02*
G54D15*
D03*
X646900Y-723046D02*
G54D15*
D03*
X672300Y-723046D02*
G54D15*
D03*
X672300Y-748446D02*
G54D15*
D03*
X646900Y-748446D02*
G54D15*
D03*
X646900Y-773846D02*
G54D15*
D03*
X672300Y-773846D02*
G54D15*
D03*
G54D16*
X583400Y-538896D02*
X608800Y-538896D01*
X621500Y-526196D01*
X621500Y-496370D01*
X636124Y-481746D01*
X646900Y-481746D01*
G54D16*
X583400Y-589696D02*
X626000Y-547096D01*
X626000Y-517270D01*
X636124Y-507146D01*
X646900Y-507146D01*
G54D16*
X583400Y-640496D02*
X630500Y-593396D01*
X630500Y-538170D01*
X636124Y-532546D01*
X646900Y-532546D01*
G54D16*
X583400Y-691296D02*
X596100Y-691296D01*
X602450Y-684946D01*
X602450Y-653196D01*
X639280Y-616366D01*
X639280Y-565566D01*
X646900Y-557946D01*
G54D16*
X583400Y-767496D02*
X602450Y-767496D01*
X634200Y-735746D01*
X659600Y-735746D01*
X672300Y-723046D01*
G54D16*
X583400Y-792896D02*
X627850Y-792896D01*
X646900Y-773846D01*
G54D16*
X672300Y-773846D02*
X691350Y-792896D01*
X735800Y-792896D01*
G54D16*
X646900Y-748446D02*
X659600Y-761146D01*
X691350Y-761146D01*
X716750Y-735746D01*
X716750Y-672925D01*
X723779Y-665896D01*
X735800Y-665896D01*
G54D16*
X672300Y-748446D02*
X704050Y-716696D01*
X704050Y-659546D01*
X723100Y-640496D01*
X735800Y-640496D01*
G54D16*
X672300Y-697646D02*
X659600Y-684946D01*
X659600Y-653196D01*
X716750Y-596046D01*
X716750Y-494446D01*
X723100Y-488096D01*
X735800Y-488096D01*
X800100Y-584200D02*
G54D15*
D03*
X800100Y-558800D02*
G54D15*
D03*
X800100Y-533400D02*
G54D15*
D03*
X800100Y-508000D02*
G54D15*
D03*
X800100Y-723900D02*
G54D15*
D03*
X800100Y-698500D02*
G54D15*
D03*
X800100Y-673100D02*
G54D15*
D03*
X800100Y-647700D02*
G54D15*
D03*
G36*
X763350Y-718900D02*
X773350Y-718900D01*
X773350Y-728900D01*
X763350Y-728900D01*
X763350Y-718900D01*
G37*
X800100Y-584200D02*
G54D15*
D03*
X800100Y-723900D02*
G54D15*
D03*
X800100Y-781050D02*
G54D17*
D03*
X800100Y-450850D02*
G54D17*
D03*
G54D16*
X799300Y-532492D02*
X811892Y-532492D01*
X819150Y-539750D01*
X819150Y-666750D01*
X812800Y-673100D01*
X800100Y-673100D01*
G54D16*
X768350Y-723900D02*
X768350Y-679450D01*
X774700Y-673100D01*
X800100Y-673100D01*
M02*
