; Drill file
; Format: 2.4 (00.0000)
M48
INCH
T01C0.0197
T02C0.0394
T03C0.0433
T04C0.0945
T05C0.1181
%
G05
G90
T01
X012300Y027750
X025300Y027750
X038300Y027750
T02
X001500Y009250
X002500Y009250
X003500Y009250
X004500Y009250
X004500Y012000
X003500Y012000
X002500Y012000
X001500Y012000
X001500Y014750
X001500Y015750
X001500Y018250
X001500Y019250
X001500Y021750
X001500Y022750
X001500Y025250
X001500Y026250
X001500Y028750
X001500Y029750
X001500Y032250
X001500Y033250
X004750Y032000
X004750Y031000
X004750Y030000
X008250Y033750
X009230Y033750
X010020Y033750
X011000Y033750
X014500Y033250
X014500Y032250
X014500Y029750
X014500Y028750
X014500Y026250
X014500Y025250
X014500Y022750
X014500Y021750
X014500Y019250
X014500Y018250
X014500Y015750
X014500Y014750
X012000Y014750
X011000Y014750
X010000Y014750
X009000Y014750
X009000Y012000
X010000Y012000
X011000Y012000
X012000Y012000
X014500Y012000
X015500Y012000
X016500Y012000
X017500Y012000
X017500Y009250
X016500Y009250
X015500Y009250
X014500Y009250
X012000Y009250
X011000Y009250
X010000Y009250
X009000Y009250
X012000Y017500
X012000Y018500
X012000Y021000
X012000Y022000
X012000Y024500
X012000Y025500
X009500Y023000
X009500Y022000
X009500Y021000
X017750Y030000
X017750Y031000
X017750Y032000
X021250Y033750
X022230Y033750
X023020Y033750
X024000Y033750
X027500Y033250
X027500Y032250
X027500Y029750
X027500Y028750
X027500Y026250
X027500Y025250
X027500Y022750
X027500Y021750
X027500Y019250
X027500Y018250
X027500Y015750
X027500Y014750
X025000Y014750
X024000Y014750
X023000Y014750
X022000Y014750
X022000Y012000
X023000Y012000
X024000Y012000
X025000Y012000
X027500Y012000
X028500Y012000
X029500Y012000
X030500Y012000
X030500Y009250
X029500Y009250
X028500Y009250
X027500Y009250
X025000Y009250
X024000Y009250
X023000Y009250
X022000Y009250
X025000Y017500
X025000Y018500
X025000Y021000
X025000Y022000
X025000Y024500
X025000Y025500
X022500Y023000
X022500Y022000
X022500Y021000
X030750Y030000
X030750Y031000
X030750Y032000
X034250Y033750
X035230Y033750
X036020Y033750
X037000Y033750
X038000Y025500
X038000Y024500
X038000Y022000
X038000Y021000
X035500Y021000
X035500Y022000
X035500Y023000
X038000Y018500
X038000Y017500
X038000Y014750
X037000Y014750
X036000Y014750
X035000Y014750
X035000Y012000
X036000Y012000
X037000Y012000
X038000Y012000
X038000Y009250
X037000Y009250
X036000Y009250
X035000Y009250
T03
X003000Y037000
X005000Y037000
X016000Y037000
X018000Y037000
X029000Y037000
X031000Y037000
T04
X007030Y034810
X012210Y034810
X020030Y034810
X025210Y034810
X033030Y034810
X038210Y034810
T05
X002810Y006250
X010690Y006250
X015810Y006250
X023690Y006250
X028810Y006250
X036690Y006250
M30
