%FSLAX34Y34*%
%MOMM*%
%LNSILK_TOP*%
G71*
G01*
%ADD10C, 2.60*%
%ADD11R, 0.67X0.67*%
%ADD12C, 0.51*%
%ADD13C, 2.30*%
%ADD14C, 1.80*%
%ADD15C, 7.20*%
%ADD16C, 1.90*%
%ADD17C, 1.00*%
%ADD18C, 0.60*%
%ADD19C, 1.80*%
%ADD20R, 0.27X0.27*%
%ADD21C, 0.11*%
%ADD22C, 1.50*%
%ADD23C, 6.00*%
%LPD*%
G36*
X0Y1000000D02*
X1000000Y1000000D01*
X1000000Y100000D01*
X0Y100000D01*
X0Y1000000D01*
G37*
%LPC*%
G36*
X146000Y931915D02*
X134885Y920800D01*
X119115Y920800D01*
X108000Y931915D01*
X108000Y947685D01*
X119115Y958800D01*
X134885Y958800D01*
X146000Y947685D01*
X146000Y931915D01*
G37*
G36*
X95200Y931915D02*
X84085Y920800D01*
X68315Y920800D01*
X57200Y931915D01*
X57200Y947685D01*
X68315Y958800D01*
X84085Y958800D01*
X95200Y947685D01*
X95200Y931915D01*
G37*
X38100Y819150D02*
G54D10*
D03*
X38100Y844550D02*
G54D10*
D03*
X38100Y730250D02*
G54D10*
D03*
X38100Y755650D02*
G54D10*
D03*
G36*
X57200Y947685D02*
X68315Y958800D01*
X84085Y958800D01*
X95200Y947685D01*
X95200Y931915D01*
X84085Y920800D01*
X68315Y920800D01*
X57200Y931915D01*
X57200Y947685D01*
G37*
X38100Y844550D02*
G54D10*
D03*
X38100Y755650D02*
G54D10*
D03*
X209550Y857250D02*
G54D10*
D03*
G36*
X126045Y825800D02*
X133650Y818195D01*
X133650Y807405D01*
X126045Y799800D01*
X115255Y799800D01*
X107650Y807405D01*
X107650Y818195D01*
X115255Y825800D01*
X126045Y825800D01*
G37*
G36*
X126045Y800400D02*
X133650Y792795D01*
X133650Y782005D01*
X126045Y774400D01*
X115255Y774400D01*
X107650Y782005D01*
X107650Y792795D01*
X115255Y800400D01*
X126045Y800400D01*
G37*
G36*
X126045Y775000D02*
X133650Y767395D01*
X133650Y756605D01*
X126045Y749000D01*
X115255Y749000D01*
X107650Y756605D01*
X107650Y767395D01*
X115255Y775000D01*
X126045Y775000D01*
G37*
G36*
X126045Y800400D02*
X133650Y792795D01*
X133650Y782005D01*
X126045Y774400D01*
X115255Y774400D01*
X107650Y782005D01*
X107650Y792795D01*
X115255Y800400D01*
X126045Y800400D01*
G37*
X279400Y857250D02*
G54D10*
D03*
X254397Y857250D02*
G54D10*
D03*
X234553Y857250D02*
G54D10*
D03*
X209550Y857250D02*
G54D10*
D03*
G36*
X334158Y874277D02*
X320118Y860237D01*
X300198Y860237D01*
X286158Y874277D01*
X286158Y894197D01*
X300198Y908237D01*
X320118Y908237D01*
X334158Y894197D01*
X334158Y874277D01*
G37*
G36*
X202594Y874277D02*
X188554Y860237D01*
X168634Y860237D01*
X154594Y874277D01*
X154594Y894197D01*
X168634Y908237D01*
X188554Y908237D01*
X202594Y894197D01*
X202594Y874277D01*
G37*
X314325Y939800D02*
G54D11*
D03*
X311150Y936625D02*
G54D11*
D03*
X307975Y933450D02*
G54D11*
D03*
X304800Y930275D02*
G54D11*
D03*
X314325Y946150D02*
G54D11*
D03*
X311150Y949325D02*
G54D11*
D03*
X307975Y952500D02*
G54D11*
D03*
X304800Y955675D02*
G54D11*
D03*
X301625Y958850D02*
G54D11*
D03*
X301625Y927100D02*
G54D11*
D03*
X298450Y923925D02*
G54D11*
D03*
X295275Y920750D02*
G54D11*
D03*
X292100Y917575D02*
G54D11*
D03*
X285750Y917575D02*
G54D11*
D03*
X282575Y920750D02*
G54D11*
D03*
X279400Y923925D02*
G54D11*
D03*
X276225Y927100D02*
G54D11*
D03*
X273050Y930275D02*
G54D11*
D03*
X269875Y933450D02*
G54D11*
D03*
X266700Y936625D02*
G54D11*
D03*
X263525Y939800D02*
G54D11*
D03*
X260350Y942975D02*
G54D11*
D03*
X298450Y962025D02*
G54D11*
D03*
X295275Y965200D02*
G54D11*
D03*
X292100Y968375D02*
G54D11*
D03*
X288925Y971550D02*
G54D11*
D03*
X273050Y968375D02*
G54D11*
D03*
X263525Y958850D02*
G54D11*
D03*
X260350Y962025D02*
G54D11*
D03*
X269875Y971550D02*
G54D11*
D03*
X269875Y977900D02*
G54D11*
D03*
X266700Y981075D02*
G54D11*
D03*
X263525Y977900D02*
G54D11*
D03*
X260350Y974725D02*
G54D11*
D03*
X257175Y971550D02*
G54D11*
D03*
X254000Y968375D02*
G54D11*
D03*
X250825Y965200D02*
G54D11*
D03*
X254000Y962025D02*
G54D11*
D03*
X304800Y949325D02*
G54D11*
D03*
X301625Y949325D02*
G54D11*
D03*
X298450Y952500D02*
G54D11*
D03*
X295275Y949325D02*
G54D11*
D03*
X292100Y949325D02*
G54D11*
D03*
X288925Y949325D02*
G54D11*
D03*
X285750Y946150D02*
G54D11*
D03*
X282575Y946150D02*
G54D11*
D03*
X279400Y949325D02*
G54D11*
D03*
X276225Y949325D02*
G54D11*
D03*
X273050Y949325D02*
G54D11*
D03*
X269875Y949325D02*
G54D11*
D03*
X266700Y949325D02*
G54D11*
D03*
X263525Y946150D02*
G54D11*
D03*
X247650Y974725D02*
G54D11*
D03*
X247650Y971550D02*
G54D11*
D03*
X247650Y968375D02*
G54D11*
D03*
X244475Y968375D02*
G54D11*
D03*
X244475Y974725D02*
G54D11*
D03*
X241300Y974725D02*
G54D11*
D03*
X241300Y977900D02*
G54D11*
D03*
X241300Y981075D02*
G54D11*
D03*
X238125Y981075D02*
G54D11*
D03*
X234950Y981075D02*
G54D11*
D03*
X234950Y977900D02*
G54D11*
D03*
X234950Y974725D02*
G54D11*
D03*
X231775Y974725D02*
G54D11*
D03*
X228600Y974725D02*
G54D11*
D03*
X228600Y971550D02*
G54D11*
D03*
X228600Y968375D02*
G54D11*
D03*
X231775Y968375D02*
G54D11*
D03*
X234950Y968375D02*
G54D11*
D03*
X241300Y968375D02*
G54D11*
D03*
X241300Y965200D02*
G54D11*
D03*
X241300Y962025D02*
G54D11*
D03*
X238125Y962025D02*
G54D11*
D03*
X234950Y962025D02*
G54D11*
D03*
X234950Y965200D02*
G54D11*
D03*
X285750Y974725D02*
G54D11*
D03*
X279400Y974725D02*
G54D11*
D03*
X276225Y971550D02*
G54D11*
D03*
X260350Y955675D02*
G54D11*
D03*
X257175Y952500D02*
G54D11*
D03*
X257175Y946150D02*
G54D11*
D03*
X260350Y936625D02*
G54D11*
D03*
X257175Y936625D02*
G54D11*
D03*
X254000Y936625D02*
G54D11*
D03*
X250825Y936625D02*
G54D11*
D03*
X247650Y936625D02*
G54D11*
D03*
X254000Y933450D02*
G54D11*
D03*
X254000Y930275D02*
G54D11*
D03*
X254000Y927100D02*
G54D11*
D03*
X254000Y923925D02*
G54D11*
D03*
X254000Y920750D02*
G54D11*
D03*
X257175Y917575D02*
G54D11*
D03*
X260350Y917575D02*
G54D11*
D03*
X263525Y920750D02*
G54D11*
D03*
X244475Y917575D02*
G54D11*
D03*
X241300Y920750D02*
G54D11*
D03*
X241300Y923925D02*
G54D11*
D03*
X241300Y927100D02*
G54D11*
D03*
X241300Y930275D02*
G54D11*
D03*
X238125Y917575D02*
G54D11*
D03*
X234950Y917575D02*
G54D11*
D03*
X231775Y917575D02*
G54D11*
D03*
X231775Y920750D02*
G54D11*
D03*
X231775Y923925D02*
G54D11*
D03*
X231775Y927100D02*
G54D11*
D03*
X231775Y930275D02*
G54D11*
D03*
X225425Y933450D02*
G54D11*
D03*
X225425Y927100D02*
G54D11*
D03*
X225425Y923925D02*
G54D11*
D03*
X225425Y920750D02*
G54D11*
D03*
X225425Y917575D02*
G54D11*
D03*
X219075Y920750D02*
G54D11*
D03*
X219075Y923925D02*
G54D11*
D03*
X219075Y927100D02*
G54D11*
D03*
X215900Y930275D02*
G54D11*
D03*
X212725Y930275D02*
G54D11*
D03*
X215900Y917575D02*
G54D11*
D03*
X212725Y917575D02*
G54D11*
D03*
X209550Y917575D02*
G54D11*
D03*
X209550Y930275D02*
G54D11*
D03*
X203200Y920750D02*
G54D11*
D03*
X203200Y923925D02*
G54D11*
D03*
X203200Y927100D02*
G54D11*
D03*
X200025Y930275D02*
G54D11*
D03*
X196850Y930275D02*
G54D11*
D03*
X193675Y930275D02*
G54D11*
D03*
X200025Y917575D02*
G54D11*
D03*
X196850Y917575D02*
G54D11*
D03*
X193675Y917575D02*
G54D11*
D03*
X190500Y927100D02*
G54D11*
D03*
X190500Y923925D02*
G54D11*
D03*
X193675Y923925D02*
G54D11*
D03*
X196850Y923925D02*
G54D11*
D03*
X200025Y923925D02*
G54D11*
D03*
X292100Y936625D02*
G54D11*
D03*
X288925Y933450D02*
G54D11*
D03*
X285750Y936625D02*
G54D11*
D03*
X288925Y939800D02*
G54D11*
D03*
X279400Y933450D02*
G54D11*
D03*
X301625Y942975D02*
G54D11*
D03*
X273050Y942975D02*
G54D11*
D03*
X288925Y923925D02*
G54D11*
D03*
X304800Y939800D02*
G54D11*
D03*
X244475Y955675D02*
G54D11*
D03*
X241300Y955675D02*
G54D11*
D03*
X238125Y955675D02*
G54D11*
D03*
X234950Y955675D02*
G54D11*
D03*
X231775Y955675D02*
G54D11*
D03*
X231775Y952500D02*
G54D11*
D03*
X231775Y949325D02*
G54D11*
D03*
X234950Y946150D02*
G54D11*
D03*
X238125Y942975D02*
G54D11*
D03*
X241300Y939800D02*
G54D11*
D03*
X228600Y962025D02*
G54D11*
D03*
X228600Y958850D02*
G54D11*
D03*
X225425Y958850D02*
G54D11*
D03*
X225425Y962025D02*
G54D11*
D03*
X222250Y955675D02*
G54D11*
D03*
X219075Y955675D02*
G54D11*
D03*
X215900Y955675D02*
G54D11*
D03*
X212725Y955675D02*
G54D11*
D03*
X209550Y955675D02*
G54D11*
D03*
X222250Y949325D02*
G54D11*
D03*
X219075Y949325D02*
G54D11*
D03*
X215900Y949325D02*
G54D11*
D03*
X212725Y949325D02*
G54D11*
D03*
X209550Y949325D02*
G54D11*
D03*
X209550Y946150D02*
G54D11*
D03*
X212725Y942975D02*
G54D11*
D03*
X215900Y939800D02*
G54D11*
D03*
X222250Y939800D02*
G54D11*
D03*
X219075Y939800D02*
G54D11*
D03*
X203200Y955675D02*
G54D11*
D03*
X200025Y955675D02*
G54D11*
D03*
X196850Y955675D02*
G54D11*
D03*
X193675Y955675D02*
G54D11*
D03*
X190500Y955675D02*
G54D11*
D03*
X190500Y952500D02*
G54D11*
D03*
X193675Y949325D02*
G54D11*
D03*
X196850Y946150D02*
G54D11*
D03*
X200025Y942975D02*
G54D11*
D03*
X203200Y939800D02*
G54D11*
D03*
X193675Y942975D02*
G54D11*
D03*
X190500Y939800D02*
G54D11*
D03*
X282575Y968375D02*
G54D11*
D03*
X285750Y965200D02*
G54D11*
D03*
G54D12*
X216408Y969644D02*
X214408Y968533D01*
X213742Y967422D01*
X213742Y965200D01*
G54D12*
X219075Y965200D02*
X219075Y974089D01*
X215742Y974089D01*
X214408Y973533D01*
X213742Y972422D01*
X213742Y971311D01*
X214408Y970200D01*
X215742Y969644D01*
X219075Y969644D01*
G54D12*
X207298Y965756D02*
X208365Y965200D01*
X209698Y965200D01*
X211031Y965756D01*
X211298Y966867D01*
X211298Y968756D01*
X210631Y969867D01*
X209298Y970200D01*
X207965Y969867D01*
X207298Y969089D01*
X207298Y967978D01*
X211298Y967978D01*
G54D12*
X204854Y970200D02*
X202187Y965200D01*
X199521Y970200D01*
G54D12*
X197077Y965200D02*
X197077Y965200D01*
G54D12*
X189300Y965200D02*
X194633Y965200D01*
X194633Y965756D01*
X193966Y966867D01*
X189966Y970200D01*
X189300Y971311D01*
X189300Y972422D01*
X189966Y973533D01*
X191300Y974089D01*
X192633Y974089D01*
X193966Y973533D01*
X194633Y972422D01*
G54D12*
X186856Y965200D02*
X186856Y965200D01*
G54D12*
X179079Y972422D02*
X179079Y966867D01*
X179745Y965756D01*
X181079Y965200D01*
X182412Y965200D01*
X183745Y965756D01*
X184412Y966867D01*
X184412Y972422D01*
X183745Y973533D01*
X182412Y974089D01*
X181079Y974089D01*
X179745Y973533D01*
X179079Y972422D01*
X228600Y374650D02*
G54D10*
D03*
X254000Y374650D02*
G54D10*
D03*
X279400Y374650D02*
G54D10*
D03*
X304800Y374650D02*
G54D10*
D03*
X228600Y304800D02*
G54D10*
D03*
X254000Y304800D02*
G54D10*
D03*
X279400Y304800D02*
G54D10*
D03*
X304800Y304800D02*
G54D10*
D03*
X38100Y304800D02*
G54D10*
D03*
X63500Y304800D02*
G54D10*
D03*
X88900Y304800D02*
G54D10*
D03*
X114300Y304800D02*
G54D10*
D03*
X38100Y234950D02*
G54D10*
D03*
X63500Y234950D02*
G54D10*
D03*
X88900Y234950D02*
G54D10*
D03*
X114300Y234950D02*
G54D10*
D03*
X228600Y234950D02*
G54D10*
D03*
X254000Y234950D02*
G54D10*
D03*
X279400Y234950D02*
G54D10*
D03*
X304800Y234950D02*
G54D10*
D03*
X38100Y641350D02*
G54D10*
D03*
X38100Y666750D02*
G54D10*
D03*
G54D13*
X228600Y374650D02*
X228600Y234950D01*
G54D13*
X254000Y374650D02*
X254000Y234950D01*
G54D13*
X279400Y374650D02*
X279400Y234950D01*
G54D13*
X304800Y374650D02*
X304800Y234950D01*
X38100Y666750D02*
G54D10*
D03*
X288925Y917575D02*
G54D11*
D03*
X314325Y942975D02*
G54D11*
D03*
G36*
X291800Y247950D02*
X317800Y247950D01*
X317800Y221950D01*
X291800Y221950D01*
X291800Y247950D01*
G37*
G36*
X101300Y317800D02*
X127300Y317800D01*
X127300Y291800D01*
X101300Y291800D01*
X101300Y317800D01*
G37*
G36*
X101300Y247950D02*
X127300Y247950D01*
X127300Y221950D01*
X101300Y221950D01*
X101300Y247950D01*
G37*
G36*
X291800Y317800D02*
X317800Y317800D01*
X317800Y291800D01*
X291800Y291800D01*
X291800Y317800D01*
G37*
G36*
X291800Y387650D02*
X317800Y387650D01*
X317800Y361650D01*
X291800Y361650D01*
X291800Y387650D01*
G37*
G54D14*
X254000Y234950D02*
X254000Y215900D01*
X247650Y209550D01*
X69850Y209550D01*
X63500Y215900D01*
X63500Y234950D01*
G54D14*
X38100Y304800D02*
X38100Y317500D01*
X50800Y330200D01*
X228600Y330200D01*
G36*
X299341Y726850D02*
X325341Y726850D01*
X325341Y682850D01*
X299341Y682850D01*
X299341Y726850D01*
G37*
G36*
X235905Y520400D02*
X228300Y528005D01*
X228300Y538795D01*
X235905Y546400D01*
X246695Y546400D01*
X254300Y538795D01*
X254300Y528005D01*
X246695Y520400D01*
X235905Y520400D01*
G37*
G36*
X235905Y545800D02*
X228300Y553405D01*
X228300Y564195D01*
X235905Y571800D01*
X246695Y571800D01*
X254300Y564195D01*
X254300Y553405D01*
X246695Y545800D01*
X235905Y545800D01*
G37*
G36*
X235905Y571200D02*
X228300Y578805D01*
X228300Y589595D01*
X235905Y597200D01*
X246695Y597200D01*
X254300Y589595D01*
X254300Y578805D01*
X246695Y571200D01*
X235905Y571200D01*
G37*
G36*
X235905Y545800D02*
X228300Y553405D01*
X228300Y564195D01*
X235905Y571800D01*
X246695Y571800D01*
X254300Y564195D01*
X254300Y553405D01*
X246695Y545800D01*
X235905Y545800D01*
G37*
X304800Y647700D02*
G54D10*
D03*
X304800Y622300D02*
G54D10*
D03*
X304800Y558800D02*
G54D10*
D03*
X304800Y533400D02*
G54D10*
D03*
X38100Y552450D02*
G54D10*
D03*
X38100Y577850D02*
G54D10*
D03*
X38100Y463550D02*
G54D10*
D03*
X38100Y488950D02*
G54D10*
D03*
G54D13*
X120650Y762000D02*
X203200Y762000D01*
X241300Y723900D01*
X241300Y584200D01*
X38100Y374650D02*
G54D10*
D03*
X38100Y400050D02*
G54D10*
D03*
X38100Y400050D02*
G54D10*
D03*
X304800Y469900D02*
G54D10*
D03*
X304800Y444500D02*
G54D10*
D03*
X304800Y444500D02*
G54D10*
D03*
X71438Y158750D02*
G54D15*
D03*
X271462Y158750D02*
G54D15*
D03*
G54D13*
X38100Y488950D02*
X260350Y488950D01*
X304800Y533400D01*
G54D16*
X312341Y704850D02*
X312341Y786209D01*
X285750Y812800D01*
X120650Y812800D01*
G36*
X476200Y931915D02*
X465085Y920800D01*
X449315Y920800D01*
X438200Y931915D01*
X438200Y947685D01*
X449315Y958800D01*
X465085Y958800D01*
X476200Y947685D01*
X476200Y931915D01*
G37*
G36*
X425400Y931915D02*
X414285Y920800D01*
X398515Y920800D01*
X387400Y931915D01*
X387400Y947685D01*
X398515Y958800D01*
X414285Y958800D01*
X425400Y947685D01*
X425400Y931915D01*
G37*
X368300Y819150D02*
G54D10*
D03*
X368300Y844550D02*
G54D10*
D03*
X368300Y730250D02*
G54D10*
D03*
X368300Y755650D02*
G54D10*
D03*
G36*
X387400Y947685D02*
X398515Y958800D01*
X414285Y958800D01*
X425400Y947685D01*
X425400Y931915D01*
X414285Y920800D01*
X398515Y920800D01*
X387400Y931915D01*
X387400Y947685D01*
G37*
X368300Y844550D02*
G54D10*
D03*
X368300Y755650D02*
G54D10*
D03*
X539750Y857250D02*
G54D10*
D03*
G36*
X456245Y825800D02*
X463850Y818195D01*
X463850Y807405D01*
X456245Y799800D01*
X445455Y799800D01*
X437850Y807405D01*
X437850Y818195D01*
X445455Y825800D01*
X456245Y825800D01*
G37*
G36*
X456245Y800400D02*
X463850Y792795D01*
X463850Y782005D01*
X456245Y774400D01*
X445455Y774400D01*
X437850Y782005D01*
X437850Y792795D01*
X445455Y800400D01*
X456245Y800400D01*
G37*
G36*
X456245Y775000D02*
X463850Y767395D01*
X463850Y756605D01*
X456245Y749000D01*
X445455Y749000D01*
X437850Y756605D01*
X437850Y767395D01*
X445455Y775000D01*
X456245Y775000D01*
G37*
G36*
X456245Y800400D02*
X463850Y792795D01*
X463850Y782005D01*
X456245Y774400D01*
X445455Y774400D01*
X437850Y782005D01*
X437850Y792795D01*
X445455Y800400D01*
X456245Y800400D01*
G37*
X609600Y857250D02*
G54D10*
D03*
X584597Y857250D02*
G54D10*
D03*
X564753Y857250D02*
G54D10*
D03*
X539750Y857250D02*
G54D10*
D03*
G36*
X664358Y874277D02*
X650318Y860237D01*
X630398Y860237D01*
X616358Y874277D01*
X616358Y894197D01*
X630398Y908237D01*
X650318Y908237D01*
X664358Y894197D01*
X664358Y874277D01*
G37*
G36*
X532794Y874277D02*
X518754Y860237D01*
X498834Y860237D01*
X484794Y874277D01*
X484794Y894197D01*
X498834Y908237D01*
X518754Y908237D01*
X532794Y894197D01*
X532794Y874277D01*
G37*
X644525Y939800D02*
G54D11*
D03*
X641350Y936625D02*
G54D11*
D03*
X638175Y933450D02*
G54D11*
D03*
X635000Y930275D02*
G54D11*
D03*
X644525Y946150D02*
G54D11*
D03*
X641350Y949325D02*
G54D11*
D03*
X638175Y952500D02*
G54D11*
D03*
X635000Y955675D02*
G54D11*
D03*
X631825Y958850D02*
G54D11*
D03*
X631825Y927100D02*
G54D11*
D03*
X628650Y923925D02*
G54D11*
D03*
X625475Y920750D02*
G54D11*
D03*
X622300Y917575D02*
G54D11*
D03*
X615950Y917575D02*
G54D11*
D03*
X612775Y920750D02*
G54D11*
D03*
X609600Y923925D02*
G54D11*
D03*
X606425Y927100D02*
G54D11*
D03*
X603250Y930275D02*
G54D11*
D03*
X600075Y933450D02*
G54D11*
D03*
X596900Y936625D02*
G54D11*
D03*
X593725Y939800D02*
G54D11*
D03*
X590550Y942975D02*
G54D11*
D03*
X628650Y962025D02*
G54D11*
D03*
X625475Y965200D02*
G54D11*
D03*
X622300Y968375D02*
G54D11*
D03*
X619125Y971550D02*
G54D11*
D03*
X603250Y968375D02*
G54D11*
D03*
X593725Y958850D02*
G54D11*
D03*
X590550Y962025D02*
G54D11*
D03*
X600075Y971550D02*
G54D11*
D03*
X600075Y977900D02*
G54D11*
D03*
X596900Y981075D02*
G54D11*
D03*
X593725Y977900D02*
G54D11*
D03*
X590550Y974725D02*
G54D11*
D03*
X587375Y971550D02*
G54D11*
D03*
X584200Y968375D02*
G54D11*
D03*
X581025Y965200D02*
G54D11*
D03*
X584200Y962025D02*
G54D11*
D03*
X635000Y949325D02*
G54D11*
D03*
X631825Y949325D02*
G54D11*
D03*
X628650Y952500D02*
G54D11*
D03*
X625475Y949325D02*
G54D11*
D03*
X622300Y949325D02*
G54D11*
D03*
X619125Y949325D02*
G54D11*
D03*
X615950Y946150D02*
G54D11*
D03*
X612775Y946150D02*
G54D11*
D03*
X609600Y949325D02*
G54D11*
D03*
X606425Y949325D02*
G54D11*
D03*
X603250Y949325D02*
G54D11*
D03*
X600075Y949325D02*
G54D11*
D03*
X596900Y949325D02*
G54D11*
D03*
X593725Y946150D02*
G54D11*
D03*
X577850Y974725D02*
G54D11*
D03*
X577850Y971550D02*
G54D11*
D03*
X577850Y968375D02*
G54D11*
D03*
X574675Y968375D02*
G54D11*
D03*
X574675Y974725D02*
G54D11*
D03*
X571500Y974725D02*
G54D11*
D03*
X571500Y977900D02*
G54D11*
D03*
X571500Y981075D02*
G54D11*
D03*
X568325Y981075D02*
G54D11*
D03*
X565150Y981075D02*
G54D11*
D03*
X565150Y977900D02*
G54D11*
D03*
X565150Y974725D02*
G54D11*
D03*
X561975Y974725D02*
G54D11*
D03*
X558800Y974725D02*
G54D11*
D03*
X558800Y971550D02*
G54D11*
D03*
X558800Y968375D02*
G54D11*
D03*
X561975Y968375D02*
G54D11*
D03*
X565150Y968375D02*
G54D11*
D03*
X571500Y968375D02*
G54D11*
D03*
X571500Y965200D02*
G54D11*
D03*
X571500Y962025D02*
G54D11*
D03*
X568325Y962025D02*
G54D11*
D03*
X565150Y962025D02*
G54D11*
D03*
X565150Y965200D02*
G54D11*
D03*
X615950Y974725D02*
G54D11*
D03*
X609600Y974725D02*
G54D11*
D03*
X606425Y971550D02*
G54D11*
D03*
X590550Y955675D02*
G54D11*
D03*
X587375Y952500D02*
G54D11*
D03*
X587375Y946150D02*
G54D11*
D03*
X590550Y936625D02*
G54D11*
D03*
X587375Y936625D02*
G54D11*
D03*
X584200Y936625D02*
G54D11*
D03*
X581025Y936625D02*
G54D11*
D03*
X577850Y936625D02*
G54D11*
D03*
X584200Y933450D02*
G54D11*
D03*
X584200Y930275D02*
G54D11*
D03*
X584200Y927100D02*
G54D11*
D03*
X584200Y923925D02*
G54D11*
D03*
X584200Y920750D02*
G54D11*
D03*
X587375Y917575D02*
G54D11*
D03*
X590550Y917575D02*
G54D11*
D03*
X593725Y920750D02*
G54D11*
D03*
X574675Y917575D02*
G54D11*
D03*
X571500Y920750D02*
G54D11*
D03*
X571500Y923925D02*
G54D11*
D03*
X571500Y927100D02*
G54D11*
D03*
X571500Y930275D02*
G54D11*
D03*
X568325Y917575D02*
G54D11*
D03*
X565150Y917575D02*
G54D11*
D03*
X561975Y917575D02*
G54D11*
D03*
X561975Y920750D02*
G54D11*
D03*
X561975Y923925D02*
G54D11*
D03*
X561975Y927100D02*
G54D11*
D03*
X561975Y930275D02*
G54D11*
D03*
X555625Y933450D02*
G54D11*
D03*
X555625Y927100D02*
G54D11*
D03*
X555625Y923925D02*
G54D11*
D03*
X555625Y920750D02*
G54D11*
D03*
X555625Y917575D02*
G54D11*
D03*
X549275Y920750D02*
G54D11*
D03*
X549275Y923925D02*
G54D11*
D03*
X549275Y927100D02*
G54D11*
D03*
X546100Y930275D02*
G54D11*
D03*
X542925Y930275D02*
G54D11*
D03*
X546100Y917575D02*
G54D11*
D03*
X542925Y917575D02*
G54D11*
D03*
X539750Y917575D02*
G54D11*
D03*
X539750Y930275D02*
G54D11*
D03*
X533400Y920750D02*
G54D11*
D03*
X533400Y923925D02*
G54D11*
D03*
X533400Y927100D02*
G54D11*
D03*
X530225Y930275D02*
G54D11*
D03*
X527050Y930275D02*
G54D11*
D03*
X523875Y930275D02*
G54D11*
D03*
X530225Y917575D02*
G54D11*
D03*
X527050Y917575D02*
G54D11*
D03*
X523875Y917575D02*
G54D11*
D03*
X520700Y927100D02*
G54D11*
D03*
X520700Y923925D02*
G54D11*
D03*
X523875Y923925D02*
G54D11*
D03*
X527050Y923925D02*
G54D11*
D03*
X530225Y923925D02*
G54D11*
D03*
X622300Y936625D02*
G54D11*
D03*
X619125Y933450D02*
G54D11*
D03*
X615950Y936625D02*
G54D11*
D03*
X619125Y939800D02*
G54D11*
D03*
X609600Y933450D02*
G54D11*
D03*
X631825Y942975D02*
G54D11*
D03*
X603250Y942975D02*
G54D11*
D03*
X619125Y923925D02*
G54D11*
D03*
X635000Y939800D02*
G54D11*
D03*
X574675Y955675D02*
G54D11*
D03*
X571500Y955675D02*
G54D11*
D03*
X568325Y955675D02*
G54D11*
D03*
X565150Y955675D02*
G54D11*
D03*
X561975Y955675D02*
G54D11*
D03*
X561975Y952500D02*
G54D11*
D03*
X561975Y949325D02*
G54D11*
D03*
X565150Y946150D02*
G54D11*
D03*
X568325Y942975D02*
G54D11*
D03*
X571500Y939800D02*
G54D11*
D03*
X558800Y962025D02*
G54D11*
D03*
X558800Y958850D02*
G54D11*
D03*
X555625Y958850D02*
G54D11*
D03*
X555625Y962025D02*
G54D11*
D03*
X552450Y955675D02*
G54D11*
D03*
X549275Y955675D02*
G54D11*
D03*
X546100Y955675D02*
G54D11*
D03*
X542925Y955675D02*
G54D11*
D03*
X539750Y955675D02*
G54D11*
D03*
X552450Y949325D02*
G54D11*
D03*
X549275Y949325D02*
G54D11*
D03*
X546100Y949325D02*
G54D11*
D03*
X542925Y949325D02*
G54D11*
D03*
X539750Y949325D02*
G54D11*
D03*
X539750Y946150D02*
G54D11*
D03*
X542925Y942975D02*
G54D11*
D03*
X546100Y939800D02*
G54D11*
D03*
X552450Y939800D02*
G54D11*
D03*
X549275Y939800D02*
G54D11*
D03*
X533400Y955675D02*
G54D11*
D03*
X530225Y955675D02*
G54D11*
D03*
X527050Y955675D02*
G54D11*
D03*
X523875Y955675D02*
G54D11*
D03*
X520700Y955675D02*
G54D11*
D03*
X520700Y952500D02*
G54D11*
D03*
X523875Y949325D02*
G54D11*
D03*
X527050Y946150D02*
G54D11*
D03*
X530225Y942975D02*
G54D11*
D03*
X533400Y939800D02*
G54D11*
D03*
X523875Y942975D02*
G54D11*
D03*
X520700Y939800D02*
G54D11*
D03*
X612775Y968375D02*
G54D11*
D03*
X615950Y965200D02*
G54D11*
D03*
G54D12*
X546608Y969644D02*
X544608Y968533D01*
X543942Y967422D01*
X543942Y965200D01*
G54D12*
X549275Y965200D02*
X549275Y974089D01*
X545942Y974089D01*
X544608Y973533D01*
X543942Y972422D01*
X543942Y971311D01*
X544608Y970200D01*
X545942Y969644D01*
X549275Y969644D01*
G54D12*
X537498Y965756D02*
X538565Y965200D01*
X539898Y965200D01*
X541231Y965756D01*
X541498Y966867D01*
X541498Y968756D01*
X540831Y969867D01*
X539498Y970200D01*
X538165Y969867D01*
X537498Y969089D01*
X537498Y967978D01*
X541498Y967978D01*
G54D12*
X535054Y970200D02*
X532387Y965200D01*
X529721Y970200D01*
G54D12*
X527277Y965200D02*
X527277Y965200D01*
G54D12*
X519500Y965200D02*
X524833Y965200D01*
X524833Y965756D01*
X524166Y966867D01*
X520166Y970200D01*
X519500Y971311D01*
X519500Y972422D01*
X520166Y973533D01*
X521500Y974089D01*
X522833Y974089D01*
X524166Y973533D01*
X524833Y972422D01*
G54D12*
X517056Y965200D02*
X517056Y965200D01*
G54D12*
X509279Y972422D02*
X509279Y966867D01*
X509945Y965756D01*
X511279Y965200D01*
X512612Y965200D01*
X513945Y965756D01*
X514612Y966867D01*
X514612Y972422D01*
X513945Y973533D01*
X512612Y974089D01*
X511279Y974089D01*
X509945Y973533D01*
X509279Y972422D01*
X558800Y374650D02*
G54D10*
D03*
X584200Y374650D02*
G54D10*
D03*
X609600Y374650D02*
G54D10*
D03*
X635000Y374650D02*
G54D10*
D03*
X558800Y304800D02*
G54D10*
D03*
X584200Y304800D02*
G54D10*
D03*
X609600Y304800D02*
G54D10*
D03*
X635000Y304800D02*
G54D10*
D03*
X368300Y304800D02*
G54D10*
D03*
X393700Y304800D02*
G54D10*
D03*
X419100Y304800D02*
G54D10*
D03*
X444500Y304800D02*
G54D10*
D03*
X368300Y234950D02*
G54D10*
D03*
X393700Y234950D02*
G54D10*
D03*
X419100Y234950D02*
G54D10*
D03*
X444500Y234950D02*
G54D10*
D03*
X558800Y234950D02*
G54D10*
D03*
X584200Y234950D02*
G54D10*
D03*
X609600Y234950D02*
G54D10*
D03*
X635000Y234950D02*
G54D10*
D03*
X368300Y641350D02*
G54D10*
D03*
X368300Y666750D02*
G54D10*
D03*
G54D13*
X558800Y374650D02*
X558800Y234950D01*
G54D13*
X584200Y374650D02*
X584200Y234950D01*
G54D13*
X609600Y374650D02*
X609600Y234950D01*
G54D13*
X635000Y374650D02*
X635000Y234950D01*
X368300Y666750D02*
G54D10*
D03*
X619125Y917575D02*
G54D11*
D03*
X644525Y942975D02*
G54D11*
D03*
G36*
X622000Y247950D02*
X648000Y247950D01*
X648000Y221950D01*
X622000Y221950D01*
X622000Y247950D01*
G37*
G36*
X431500Y317800D02*
X457500Y317800D01*
X457500Y291800D01*
X431500Y291800D01*
X431500Y317800D01*
G37*
G36*
X431500Y247950D02*
X457500Y247950D01*
X457500Y221950D01*
X431500Y221950D01*
X431500Y247950D01*
G37*
G36*
X622000Y317800D02*
X648000Y317800D01*
X648000Y291800D01*
X622000Y291800D01*
X622000Y317800D01*
G37*
G36*
X622000Y387650D02*
X648000Y387650D01*
X648000Y361650D01*
X622000Y361650D01*
X622000Y387650D01*
G37*
G54D14*
X584200Y234950D02*
X584200Y215900D01*
X577850Y209550D01*
X400050Y209550D01*
X393700Y215900D01*
X393700Y234950D01*
G54D14*
X368300Y304800D02*
X368300Y317500D01*
X381000Y330200D01*
X558800Y330200D01*
G36*
X629541Y726850D02*
X655541Y726850D01*
X655541Y682850D01*
X629541Y682850D01*
X629541Y726850D01*
G37*
G36*
X566105Y520400D02*
X558500Y528005D01*
X558500Y538795D01*
X566105Y546400D01*
X576895Y546400D01*
X584500Y538795D01*
X584500Y528005D01*
X576895Y520400D01*
X566105Y520400D01*
G37*
G36*
X566105Y545800D02*
X558500Y553405D01*
X558500Y564195D01*
X566105Y571800D01*
X576895Y571800D01*
X584500Y564195D01*
X584500Y553405D01*
X576895Y545800D01*
X566105Y545800D01*
G37*
G36*
X566105Y571200D02*
X558500Y578805D01*
X558500Y589595D01*
X566105Y597200D01*
X576895Y597200D01*
X584500Y589595D01*
X584500Y578805D01*
X576895Y571200D01*
X566105Y571200D01*
G37*
G36*
X566105Y545800D02*
X558500Y553405D01*
X558500Y564195D01*
X566105Y571800D01*
X576895Y571800D01*
X584500Y564195D01*
X584500Y553405D01*
X576895Y545800D01*
X566105Y545800D01*
G37*
X635000Y647700D02*
G54D10*
D03*
X635000Y622300D02*
G54D10*
D03*
X635000Y558800D02*
G54D10*
D03*
X635000Y533400D02*
G54D10*
D03*
X368300Y552450D02*
G54D10*
D03*
X368300Y577850D02*
G54D10*
D03*
X368300Y463550D02*
G54D10*
D03*
X368300Y488950D02*
G54D10*
D03*
G54D13*
X450850Y762000D02*
X533400Y762000D01*
X571500Y723900D01*
X571500Y584200D01*
X368300Y374650D02*
G54D10*
D03*
X368300Y400050D02*
G54D10*
D03*
X368300Y400050D02*
G54D10*
D03*
X635000Y469900D02*
G54D10*
D03*
X635000Y444500D02*
G54D10*
D03*
X635000Y444500D02*
G54D10*
D03*
X401638Y158750D02*
G54D15*
D03*
X601662Y158750D02*
G54D15*
D03*
G54D13*
X368300Y488950D02*
X590550Y488950D01*
X635000Y533400D01*
G54D13*
X642541Y704850D02*
X642541Y786209D01*
X615950Y812800D01*
X450850Y812800D01*
G36*
X806400Y931915D02*
X795285Y920800D01*
X779515Y920800D01*
X768400Y931915D01*
X768400Y947685D01*
X779515Y958800D01*
X795285Y958800D01*
X806400Y947685D01*
X806400Y931915D01*
G37*
G36*
X755600Y931915D02*
X744485Y920800D01*
X728715Y920800D01*
X717600Y931915D01*
X717600Y947685D01*
X728715Y958800D01*
X744485Y958800D01*
X755600Y947685D01*
X755600Y931915D01*
G37*
X698500Y819150D02*
G54D10*
D03*
X698500Y844550D02*
G54D10*
D03*
X698500Y730250D02*
G54D10*
D03*
X698500Y755650D02*
G54D10*
D03*
G36*
X717600Y947685D02*
X728715Y958800D01*
X744485Y958800D01*
X755600Y947685D01*
X755600Y931915D01*
X744485Y920800D01*
X728715Y920800D01*
X717600Y931915D01*
X717600Y947685D01*
G37*
X698500Y844550D02*
G54D10*
D03*
X698500Y755650D02*
G54D10*
D03*
X869950Y857250D02*
G54D10*
D03*
G36*
X786445Y825800D02*
X794050Y818195D01*
X794050Y807405D01*
X786445Y799800D01*
X775655Y799800D01*
X768050Y807405D01*
X768050Y818195D01*
X775655Y825800D01*
X786445Y825800D01*
G37*
G36*
X786445Y800400D02*
X794050Y792795D01*
X794050Y782005D01*
X786445Y774400D01*
X775655Y774400D01*
X768050Y782005D01*
X768050Y792795D01*
X775655Y800400D01*
X786445Y800400D01*
G37*
G36*
X786445Y775000D02*
X794050Y767395D01*
X794050Y756605D01*
X786445Y749000D01*
X775655Y749000D01*
X768050Y756605D01*
X768050Y767395D01*
X775655Y775000D01*
X786445Y775000D01*
G37*
G36*
X786445Y800400D02*
X794050Y792795D01*
X794050Y782005D01*
X786445Y774400D01*
X775655Y774400D01*
X768050Y782005D01*
X768050Y792795D01*
X775655Y800400D01*
X786445Y800400D01*
G37*
X939800Y857250D02*
G54D10*
D03*
X914797Y857250D02*
G54D10*
D03*
X894953Y857250D02*
G54D10*
D03*
X869950Y857250D02*
G54D10*
D03*
G36*
X994558Y874277D02*
X980518Y860237D01*
X960598Y860237D01*
X946558Y874277D01*
X946558Y894197D01*
X960598Y908237D01*
X980518Y908237D01*
X994558Y894197D01*
X994558Y874277D01*
G37*
G36*
X862994Y874277D02*
X848954Y860237D01*
X829034Y860237D01*
X814994Y874277D01*
X814994Y894197D01*
X829034Y908237D01*
X848954Y908237D01*
X862994Y894197D01*
X862994Y874277D01*
G37*
X974725Y939800D02*
G54D11*
D03*
X971550Y936625D02*
G54D11*
D03*
X968375Y933450D02*
G54D11*
D03*
X965200Y930275D02*
G54D11*
D03*
X974725Y946150D02*
G54D11*
D03*
X971550Y949325D02*
G54D11*
D03*
X968375Y952500D02*
G54D11*
D03*
X965200Y955675D02*
G54D11*
D03*
X962025Y958850D02*
G54D11*
D03*
X962025Y927100D02*
G54D11*
D03*
X958850Y923925D02*
G54D11*
D03*
X955675Y920750D02*
G54D11*
D03*
X952500Y917575D02*
G54D11*
D03*
X946150Y917575D02*
G54D11*
D03*
X942975Y920750D02*
G54D11*
D03*
X939800Y923925D02*
G54D11*
D03*
X936625Y927100D02*
G54D11*
D03*
X933450Y930275D02*
G54D11*
D03*
X930275Y933450D02*
G54D11*
D03*
X927100Y936625D02*
G54D11*
D03*
X923925Y939800D02*
G54D11*
D03*
X920750Y942975D02*
G54D11*
D03*
X958850Y962025D02*
G54D11*
D03*
X955675Y965200D02*
G54D11*
D03*
X952500Y968375D02*
G54D11*
D03*
X949325Y971550D02*
G54D11*
D03*
X933450Y968375D02*
G54D11*
D03*
X923925Y958850D02*
G54D11*
D03*
X920750Y962025D02*
G54D11*
D03*
X930275Y971550D02*
G54D11*
D03*
X930275Y977900D02*
G54D11*
D03*
X927100Y981075D02*
G54D11*
D03*
X923925Y977900D02*
G54D11*
D03*
X920750Y974725D02*
G54D11*
D03*
X917575Y971550D02*
G54D11*
D03*
X914400Y968375D02*
G54D11*
D03*
X911225Y965200D02*
G54D11*
D03*
X914400Y962025D02*
G54D11*
D03*
X965200Y949325D02*
G54D11*
D03*
X962025Y949325D02*
G54D11*
D03*
X958850Y952500D02*
G54D11*
D03*
X955675Y949325D02*
G54D11*
D03*
X952500Y949325D02*
G54D11*
D03*
X949325Y949325D02*
G54D11*
D03*
X946150Y946150D02*
G54D11*
D03*
X942975Y946150D02*
G54D11*
D03*
X939800Y949325D02*
G54D11*
D03*
X936625Y949325D02*
G54D11*
D03*
X933450Y949325D02*
G54D11*
D03*
X930275Y949325D02*
G54D11*
D03*
X927100Y949325D02*
G54D11*
D03*
X923925Y946150D02*
G54D11*
D03*
X908050Y974725D02*
G54D11*
D03*
X908050Y971550D02*
G54D11*
D03*
X908050Y968375D02*
G54D11*
D03*
X904875Y968375D02*
G54D11*
D03*
X904875Y974725D02*
G54D11*
D03*
X901700Y974725D02*
G54D11*
D03*
X901700Y977900D02*
G54D11*
D03*
X901700Y981075D02*
G54D11*
D03*
X898525Y981075D02*
G54D11*
D03*
X895350Y981075D02*
G54D11*
D03*
X895350Y977900D02*
G54D11*
D03*
X895350Y974725D02*
G54D11*
D03*
X892175Y974725D02*
G54D11*
D03*
X889000Y974725D02*
G54D11*
D03*
X889000Y971550D02*
G54D11*
D03*
X889000Y968375D02*
G54D11*
D03*
X892175Y968375D02*
G54D11*
D03*
X895350Y968375D02*
G54D11*
D03*
X901700Y968375D02*
G54D11*
D03*
X901700Y965200D02*
G54D11*
D03*
X901700Y962025D02*
G54D11*
D03*
X898525Y962025D02*
G54D11*
D03*
X895350Y962025D02*
G54D11*
D03*
X895350Y965200D02*
G54D11*
D03*
X946150Y974725D02*
G54D11*
D03*
X939800Y974725D02*
G54D11*
D03*
X936625Y971550D02*
G54D11*
D03*
X920750Y955675D02*
G54D11*
D03*
X917575Y952500D02*
G54D11*
D03*
X917575Y946150D02*
G54D11*
D03*
X920750Y936625D02*
G54D11*
D03*
X917575Y936625D02*
G54D11*
D03*
X914400Y936625D02*
G54D11*
D03*
X911225Y936625D02*
G54D11*
D03*
X908050Y936625D02*
G54D11*
D03*
X914400Y933450D02*
G54D11*
D03*
X914400Y930275D02*
G54D11*
D03*
X914400Y927100D02*
G54D11*
D03*
X914400Y923925D02*
G54D11*
D03*
X914400Y920750D02*
G54D11*
D03*
X917575Y917575D02*
G54D11*
D03*
X920750Y917575D02*
G54D11*
D03*
X923925Y920750D02*
G54D11*
D03*
X904875Y917575D02*
G54D11*
D03*
X901700Y920750D02*
G54D11*
D03*
X901700Y923925D02*
G54D11*
D03*
X901700Y927100D02*
G54D11*
D03*
X901700Y930275D02*
G54D11*
D03*
X898525Y917575D02*
G54D11*
D03*
X895350Y917575D02*
G54D11*
D03*
X892175Y917575D02*
G54D11*
D03*
X892175Y920750D02*
G54D11*
D03*
X892175Y923925D02*
G54D11*
D03*
X892175Y927100D02*
G54D11*
D03*
X892175Y930275D02*
G54D11*
D03*
X885825Y933450D02*
G54D11*
D03*
X885825Y927100D02*
G54D11*
D03*
X885825Y923925D02*
G54D11*
D03*
X885825Y920750D02*
G54D11*
D03*
X885825Y917575D02*
G54D11*
D03*
X879475Y920750D02*
G54D11*
D03*
X879475Y923925D02*
G54D11*
D03*
X879475Y927100D02*
G54D11*
D03*
X876300Y930275D02*
G54D11*
D03*
X873125Y930275D02*
G54D11*
D03*
X876300Y917575D02*
G54D11*
D03*
X873125Y917575D02*
G54D11*
D03*
X869950Y917575D02*
G54D11*
D03*
X869950Y930275D02*
G54D11*
D03*
X863600Y920750D02*
G54D11*
D03*
X863600Y923925D02*
G54D11*
D03*
X863600Y927100D02*
G54D11*
D03*
X860425Y930275D02*
G54D11*
D03*
X857250Y930275D02*
G54D11*
D03*
X854075Y930275D02*
G54D11*
D03*
X860425Y917575D02*
G54D11*
D03*
X857250Y917575D02*
G54D11*
D03*
X854075Y917575D02*
G54D11*
D03*
X850900Y927100D02*
G54D11*
D03*
X850900Y923925D02*
G54D11*
D03*
X854075Y923925D02*
G54D11*
D03*
X857250Y923925D02*
G54D11*
D03*
X860425Y923925D02*
G54D11*
D03*
X952500Y936625D02*
G54D11*
D03*
X949325Y933450D02*
G54D11*
D03*
X946150Y936625D02*
G54D11*
D03*
X949325Y939800D02*
G54D11*
D03*
X939800Y933450D02*
G54D11*
D03*
X962025Y942975D02*
G54D11*
D03*
X933450Y942975D02*
G54D11*
D03*
X949325Y923925D02*
G54D11*
D03*
X965200Y939800D02*
G54D11*
D03*
X904875Y955675D02*
G54D11*
D03*
X901700Y955675D02*
G54D11*
D03*
X898525Y955675D02*
G54D11*
D03*
X895350Y955675D02*
G54D11*
D03*
X892175Y955675D02*
G54D11*
D03*
X892175Y952500D02*
G54D11*
D03*
X892175Y949325D02*
G54D11*
D03*
X895350Y946150D02*
G54D11*
D03*
X898525Y942975D02*
G54D11*
D03*
X901700Y939800D02*
G54D11*
D03*
X889000Y962025D02*
G54D11*
D03*
X889000Y958850D02*
G54D11*
D03*
X885825Y958850D02*
G54D11*
D03*
X885825Y962025D02*
G54D11*
D03*
X882650Y955675D02*
G54D11*
D03*
X879475Y955675D02*
G54D11*
D03*
X876300Y955675D02*
G54D11*
D03*
X873125Y955675D02*
G54D11*
D03*
X869950Y955675D02*
G54D11*
D03*
X882650Y949325D02*
G54D11*
D03*
X879475Y949325D02*
G54D11*
D03*
X876300Y949325D02*
G54D11*
D03*
X873125Y949325D02*
G54D11*
D03*
X869950Y949325D02*
G54D11*
D03*
X869950Y946150D02*
G54D11*
D03*
X873125Y942975D02*
G54D11*
D03*
X876300Y939800D02*
G54D11*
D03*
X882650Y939800D02*
G54D11*
D03*
X879475Y939800D02*
G54D11*
D03*
X863600Y955675D02*
G54D11*
D03*
X860425Y955675D02*
G54D11*
D03*
X857250Y955675D02*
G54D11*
D03*
X854075Y955675D02*
G54D11*
D03*
X850900Y955675D02*
G54D11*
D03*
X850900Y952500D02*
G54D11*
D03*
X854075Y949325D02*
G54D11*
D03*
X857250Y946150D02*
G54D11*
D03*
X860425Y942975D02*
G54D11*
D03*
X863600Y939800D02*
G54D11*
D03*
X854075Y942975D02*
G54D11*
D03*
X850900Y939800D02*
G54D11*
D03*
X942975Y968375D02*
G54D11*
D03*
X946150Y965200D02*
G54D11*
D03*
G54D12*
X876808Y969644D02*
X874808Y968533D01*
X874142Y967422D01*
X874142Y965200D01*
G54D12*
X879475Y965200D02*
X879475Y974089D01*
X876142Y974089D01*
X874808Y973533D01*
X874142Y972422D01*
X874142Y971311D01*
X874808Y970200D01*
X876142Y969644D01*
X879475Y969644D01*
G54D12*
X867698Y965756D02*
X868765Y965200D01*
X870098Y965200D01*
X871431Y965756D01*
X871698Y966867D01*
X871698Y968756D01*
X871031Y969867D01*
X869698Y970200D01*
X868365Y969867D01*
X867698Y969089D01*
X867698Y967978D01*
X871698Y967978D01*
G54D12*
X865254Y970200D02*
X862587Y965200D01*
X859921Y970200D01*
G54D12*
X857477Y965200D02*
X857477Y965200D01*
G54D12*
X849700Y965200D02*
X855033Y965200D01*
X855033Y965756D01*
X854366Y966867D01*
X850366Y970200D01*
X849700Y971311D01*
X849700Y972422D01*
X850366Y973533D01*
X851700Y974089D01*
X853033Y974089D01*
X854366Y973533D01*
X855033Y972422D01*
G54D12*
X847256Y965200D02*
X847256Y965200D01*
G54D12*
X839479Y972422D02*
X839479Y966867D01*
X840145Y965756D01*
X841479Y965200D01*
X842812Y965200D01*
X844145Y965756D01*
X844812Y966867D01*
X844812Y972422D01*
X844145Y973533D01*
X842812Y974089D01*
X841479Y974089D01*
X840145Y973533D01*
X839479Y972422D01*
X889000Y374650D02*
G54D10*
D03*
X914400Y374650D02*
G54D10*
D03*
X939800Y374650D02*
G54D10*
D03*
X965200Y374650D02*
G54D10*
D03*
X889000Y304800D02*
G54D10*
D03*
X914400Y304800D02*
G54D10*
D03*
X939800Y304800D02*
G54D10*
D03*
X965200Y304800D02*
G54D10*
D03*
X698500Y304800D02*
G54D10*
D03*
X723900Y304800D02*
G54D10*
D03*
X749300Y304800D02*
G54D10*
D03*
X774700Y304800D02*
G54D10*
D03*
X698500Y234950D02*
G54D10*
D03*
X723900Y234950D02*
G54D10*
D03*
X749300Y234950D02*
G54D10*
D03*
X774700Y234950D02*
G54D10*
D03*
X889000Y234950D02*
G54D10*
D03*
X914400Y234950D02*
G54D10*
D03*
X939800Y234950D02*
G54D10*
D03*
X965200Y234950D02*
G54D10*
D03*
X698500Y641350D02*
G54D10*
D03*
X698500Y666750D02*
G54D10*
D03*
G54D13*
X889000Y374650D02*
X889000Y234950D01*
G54D13*
X914400Y374650D02*
X914400Y234950D01*
G54D13*
X939800Y374650D02*
X939800Y234950D01*
G54D13*
X965200Y374650D02*
X965200Y234950D01*
X698500Y666750D02*
G54D10*
D03*
X949325Y917575D02*
G54D11*
D03*
X974725Y942975D02*
G54D11*
D03*
G36*
X952200Y247950D02*
X978200Y247950D01*
X978200Y221950D01*
X952200Y221950D01*
X952200Y247950D01*
G37*
G36*
X761700Y317800D02*
X787700Y317800D01*
X787700Y291800D01*
X761700Y291800D01*
X761700Y317800D01*
G37*
G36*
X761700Y247950D02*
X787700Y247950D01*
X787700Y221950D01*
X761700Y221950D01*
X761700Y247950D01*
G37*
G36*
X952200Y317800D02*
X978200Y317800D01*
X978200Y291800D01*
X952200Y291800D01*
X952200Y317800D01*
G37*
G36*
X952200Y387650D02*
X978200Y387650D01*
X978200Y361650D01*
X952200Y361650D01*
X952200Y387650D01*
G37*
G54D14*
X914400Y234950D02*
X914400Y215900D01*
X908050Y209550D01*
X730250Y209550D01*
X723900Y215900D01*
X723900Y234950D01*
G54D14*
X698500Y304800D02*
X698500Y317500D01*
X711200Y330200D01*
X889000Y330200D01*
G36*
X959741Y726850D02*
X985741Y726850D01*
X985741Y682850D01*
X959741Y682850D01*
X959741Y726850D01*
G37*
G36*
X896305Y520400D02*
X888700Y528005D01*
X888700Y538795D01*
X896305Y546400D01*
X907095Y546400D01*
X914700Y538795D01*
X914700Y528005D01*
X907095Y520400D01*
X896305Y520400D01*
G37*
G36*
X896305Y545800D02*
X888700Y553405D01*
X888700Y564195D01*
X896305Y571800D01*
X907095Y571800D01*
X914700Y564195D01*
X914700Y553405D01*
X907095Y545800D01*
X896305Y545800D01*
G37*
G36*
X896305Y571200D02*
X888700Y578805D01*
X888700Y589595D01*
X896305Y597200D01*
X907095Y597200D01*
X914700Y589595D01*
X914700Y578805D01*
X907095Y571200D01*
X896305Y571200D01*
G37*
G36*
X896305Y545800D02*
X888700Y553405D01*
X888700Y564195D01*
X896305Y571800D01*
X907095Y571800D01*
X914700Y564195D01*
X914700Y553405D01*
X907095Y545800D01*
X896305Y545800D01*
G37*
X965200Y647700D02*
G54D10*
D03*
X965200Y622300D02*
G54D10*
D03*
X965200Y558800D02*
G54D10*
D03*
X965200Y533400D02*
G54D10*
D03*
X698500Y552450D02*
G54D10*
D03*
X698500Y577850D02*
G54D10*
D03*
X698500Y463550D02*
G54D10*
D03*
X698500Y488950D02*
G54D10*
D03*
G54D13*
X781050Y762000D02*
X863600Y762000D01*
X901700Y723900D01*
X901700Y584200D01*
X698500Y374650D02*
G54D10*
D03*
X698500Y400050D02*
G54D10*
D03*
X698500Y400050D02*
G54D10*
D03*
X965200Y469900D02*
G54D10*
D03*
X965200Y444500D02*
G54D10*
D03*
X965200Y444500D02*
G54D10*
D03*
X731838Y158750D02*
G54D15*
D03*
X931862Y158750D02*
G54D15*
D03*
G54D13*
X698500Y488950D02*
X920750Y488950D01*
X965200Y533400D01*
G54D13*
X972741Y704850D02*
X972741Y786209D01*
X946150Y812800D01*
X781050Y812800D01*
%LPD*%
G54D17*
G36*
X72664Y943336D02*
X86453Y957124D01*
X93524Y950053D01*
X79736Y936264D01*
X72664Y943336D01*
G37*
G36*
X79736Y943336D02*
X93524Y929547D01*
X86453Y922476D01*
X72664Y936264D01*
X79736Y943336D01*
G37*
G36*
X79736Y936264D02*
X65947Y922476D01*
X58876Y929547D01*
X72664Y943336D01*
X79736Y936264D01*
G37*
G36*
X72664Y936264D02*
X58876Y950053D01*
X65947Y957124D01*
X79736Y943336D01*
X72664Y936264D01*
G37*
G54D18*
G36*
X35100Y844550D02*
X35100Y858050D01*
X41100Y858050D01*
X41100Y844550D01*
X35100Y844550D01*
G37*
G36*
X38100Y847550D02*
X51600Y847550D01*
X51600Y841550D01*
X38100Y841550D01*
X38100Y847550D01*
G37*
G36*
X38100Y841550D02*
X24600Y841550D01*
X24600Y847550D01*
X38100Y847550D01*
X38100Y841550D01*
G37*
G54D18*
G36*
X35100Y755650D02*
X35100Y769150D01*
X41100Y769150D01*
X41100Y755650D01*
X35100Y755650D01*
G37*
G36*
X38100Y758650D02*
X51600Y758650D01*
X51600Y752650D01*
X38100Y752650D01*
X38100Y758650D01*
G37*
G36*
X38100Y752650D02*
X24600Y752650D01*
X24600Y758650D01*
X38100Y758650D01*
X38100Y752650D01*
G37*
G54D18*
G36*
X207429Y859371D02*
X216975Y868917D01*
X221217Y864675D01*
X211671Y855129D01*
X207429Y859371D01*
G37*
G36*
X211671Y859371D02*
X221217Y849825D01*
X216975Y845583D01*
X207429Y855129D01*
X211671Y859371D01*
G37*
G36*
X211671Y855129D02*
X202125Y845583D01*
X197883Y849825D01*
X207429Y859371D01*
X211671Y855129D01*
G37*
G36*
X207429Y855129D02*
X197883Y864675D01*
X202125Y868917D01*
X211671Y859371D01*
X207429Y855129D01*
G37*
G54D18*
G36*
X120650Y790400D02*
X134150Y790400D01*
X134150Y784400D01*
X120650Y784400D01*
X120650Y790400D01*
G37*
G36*
X120650Y784400D02*
X107150Y784400D01*
X107150Y790400D01*
X120650Y790400D01*
X120650Y784400D01*
G37*
G54D18*
G36*
X35100Y666750D02*
X35100Y680250D01*
X41100Y680250D01*
X41100Y666750D01*
X35100Y666750D01*
G37*
G36*
X38100Y669750D02*
X51600Y669750D01*
X51600Y663750D01*
X38100Y663750D01*
X38100Y669750D01*
G37*
G36*
X38100Y663750D02*
X24600Y663750D01*
X24600Y669750D01*
X38100Y669750D01*
X38100Y663750D01*
G37*
G54D18*
G36*
X241300Y555800D02*
X227800Y555800D01*
X227800Y561800D01*
X241300Y561800D01*
X241300Y555800D01*
G37*
G36*
X241300Y561800D02*
X254800Y561800D01*
X254800Y555800D01*
X241300Y555800D01*
X241300Y561800D01*
G37*
G54D18*
G36*
X35100Y400050D02*
X35100Y413550D01*
X41100Y413550D01*
X41100Y400050D01*
X35100Y400050D01*
G37*
G36*
X38100Y403050D02*
X51600Y403050D01*
X51600Y397050D01*
X38100Y397050D01*
X38100Y403050D01*
G37*
G36*
X38100Y397050D02*
X24600Y397050D01*
X24600Y403050D01*
X38100Y403050D01*
X38100Y397050D01*
G37*
G54D18*
G36*
X307800Y444500D02*
X307800Y431000D01*
X301800Y431000D01*
X301800Y444500D01*
X307800Y444500D01*
G37*
G36*
X304800Y441500D02*
X291300Y441500D01*
X291300Y447500D01*
X304800Y447500D01*
X304800Y441500D01*
G37*
G36*
X304800Y447500D02*
X318300Y447500D01*
X318300Y441500D01*
X304800Y441500D01*
X304800Y447500D01*
G37*
G54D17*
G36*
X402864Y943336D02*
X416653Y957124D01*
X423724Y950053D01*
X409936Y936264D01*
X402864Y943336D01*
G37*
G36*
X409936Y943336D02*
X423724Y929547D01*
X416653Y922476D01*
X402864Y936264D01*
X409936Y943336D01*
G37*
G36*
X409936Y936264D02*
X396147Y922476D01*
X389076Y929547D01*
X402864Y943336D01*
X409936Y936264D01*
G37*
G36*
X402864Y936264D02*
X389076Y950053D01*
X396147Y957124D01*
X409936Y943336D01*
X402864Y936264D01*
G37*
G54D18*
G36*
X365300Y844550D02*
X365300Y858050D01*
X371300Y858050D01*
X371300Y844550D01*
X365300Y844550D01*
G37*
G36*
X368300Y847550D02*
X381800Y847550D01*
X381800Y841550D01*
X368300Y841550D01*
X368300Y847550D01*
G37*
G36*
X368300Y841550D02*
X354800Y841550D01*
X354800Y847550D01*
X368300Y847550D01*
X368300Y841550D01*
G37*
G54D18*
G36*
X365300Y755650D02*
X365300Y769150D01*
X371300Y769150D01*
X371300Y755650D01*
X365300Y755650D01*
G37*
G36*
X368300Y758650D02*
X381800Y758650D01*
X381800Y752650D01*
X368300Y752650D01*
X368300Y758650D01*
G37*
G36*
X368300Y752650D02*
X354800Y752650D01*
X354800Y758650D01*
X368300Y758650D01*
X368300Y752650D01*
G37*
G54D18*
G36*
X537629Y859371D02*
X547175Y868917D01*
X551417Y864675D01*
X541871Y855129D01*
X537629Y859371D01*
G37*
G36*
X541871Y859371D02*
X551417Y849825D01*
X547175Y845583D01*
X537629Y855129D01*
X541871Y859371D01*
G37*
G36*
X541871Y855129D02*
X532325Y845583D01*
X528083Y849825D01*
X537629Y859371D01*
X541871Y855129D01*
G37*
G36*
X537629Y855129D02*
X528083Y864675D01*
X532325Y868917D01*
X541871Y859371D01*
X537629Y855129D01*
G37*
G54D18*
G36*
X450850Y790400D02*
X464350Y790400D01*
X464350Y784400D01*
X450850Y784400D01*
X450850Y790400D01*
G37*
G36*
X450850Y784400D02*
X437350Y784400D01*
X437350Y790400D01*
X450850Y790400D01*
X450850Y784400D01*
G37*
G54D18*
G36*
X365300Y666750D02*
X365300Y680250D01*
X371300Y680250D01*
X371300Y666750D01*
X365300Y666750D01*
G37*
G36*
X368300Y669750D02*
X381800Y669750D01*
X381800Y663750D01*
X368300Y663750D01*
X368300Y669750D01*
G37*
G36*
X368300Y663750D02*
X354800Y663750D01*
X354800Y669750D01*
X368300Y669750D01*
X368300Y663750D01*
G37*
G54D18*
G36*
X571500Y555800D02*
X558000Y555800D01*
X558000Y561800D01*
X571500Y561800D01*
X571500Y555800D01*
G37*
G36*
X571500Y561800D02*
X585000Y561800D01*
X585000Y555800D01*
X571500Y555800D01*
X571500Y561800D01*
G37*
G54D18*
G36*
X365300Y400050D02*
X365300Y413550D01*
X371300Y413550D01*
X371300Y400050D01*
X365300Y400050D01*
G37*
G36*
X368300Y403050D02*
X381800Y403050D01*
X381800Y397050D01*
X368300Y397050D01*
X368300Y403050D01*
G37*
G36*
X368300Y397050D02*
X354800Y397050D01*
X354800Y403050D01*
X368300Y403050D01*
X368300Y397050D01*
G37*
G54D18*
G36*
X638000Y444500D02*
X638000Y431000D01*
X632000Y431000D01*
X632000Y444500D01*
X638000Y444500D01*
G37*
G36*
X635000Y441500D02*
X621500Y441500D01*
X621500Y447500D01*
X635000Y447500D01*
X635000Y441500D01*
G37*
G36*
X635000Y447500D02*
X648500Y447500D01*
X648500Y441500D01*
X635000Y441500D01*
X635000Y447500D01*
G37*
G54D17*
G36*
X733064Y943336D02*
X746853Y957124D01*
X753924Y950053D01*
X740136Y936264D01*
X733064Y943336D01*
G37*
G36*
X740136Y943336D02*
X753924Y929547D01*
X746853Y922476D01*
X733064Y936264D01*
X740136Y943336D01*
G37*
G36*
X740136Y936264D02*
X726347Y922476D01*
X719276Y929547D01*
X733064Y943336D01*
X740136Y936264D01*
G37*
G36*
X733064Y936264D02*
X719276Y950053D01*
X726347Y957124D01*
X740136Y943336D01*
X733064Y936264D01*
G37*
G54D18*
G36*
X695500Y844550D02*
X695500Y858050D01*
X701500Y858050D01*
X701500Y844550D01*
X695500Y844550D01*
G37*
G36*
X698500Y847550D02*
X712000Y847550D01*
X712000Y841550D01*
X698500Y841550D01*
X698500Y847550D01*
G37*
G36*
X698500Y841550D02*
X685000Y841550D01*
X685000Y847550D01*
X698500Y847550D01*
X698500Y841550D01*
G37*
G54D18*
G36*
X695500Y755650D02*
X695500Y769150D01*
X701500Y769150D01*
X701500Y755650D01*
X695500Y755650D01*
G37*
G36*
X698500Y758650D02*
X712000Y758650D01*
X712000Y752650D01*
X698500Y752650D01*
X698500Y758650D01*
G37*
G36*
X698500Y752650D02*
X685000Y752650D01*
X685000Y758650D01*
X698500Y758650D01*
X698500Y752650D01*
G37*
G54D18*
G36*
X867829Y859371D02*
X877375Y868917D01*
X881617Y864675D01*
X872071Y855129D01*
X867829Y859371D01*
G37*
G36*
X872071Y859371D02*
X881617Y849825D01*
X877375Y845583D01*
X867829Y855129D01*
X872071Y859371D01*
G37*
G36*
X872071Y855129D02*
X862525Y845583D01*
X858283Y849825D01*
X867829Y859371D01*
X872071Y855129D01*
G37*
G36*
X867829Y855129D02*
X858283Y864675D01*
X862525Y868917D01*
X872071Y859371D01*
X867829Y855129D01*
G37*
G54D18*
G36*
X781050Y790400D02*
X794550Y790400D01*
X794550Y784400D01*
X781050Y784400D01*
X781050Y790400D01*
G37*
G36*
X781050Y784400D02*
X767550Y784400D01*
X767550Y790400D01*
X781050Y790400D01*
X781050Y784400D01*
G37*
G54D18*
G36*
X695500Y666750D02*
X695500Y680250D01*
X701500Y680250D01*
X701500Y666750D01*
X695500Y666750D01*
G37*
G36*
X698500Y669750D02*
X712000Y669750D01*
X712000Y663750D01*
X698500Y663750D01*
X698500Y669750D01*
G37*
G36*
X698500Y663750D02*
X685000Y663750D01*
X685000Y669750D01*
X698500Y669750D01*
X698500Y663750D01*
G37*
G54D18*
G36*
X901700Y555800D02*
X888200Y555800D01*
X888200Y561800D01*
X901700Y561800D01*
X901700Y555800D01*
G37*
G36*
X901700Y561800D02*
X915200Y561800D01*
X915200Y555800D01*
X901700Y555800D01*
X901700Y561800D01*
G37*
G54D18*
G36*
X695500Y400050D02*
X695500Y413550D01*
X701500Y413550D01*
X701500Y400050D01*
X695500Y400050D01*
G37*
G36*
X698500Y403050D02*
X712000Y403050D01*
X712000Y397050D01*
X698500Y397050D01*
X698500Y403050D01*
G37*
G36*
X698500Y397050D02*
X685000Y397050D01*
X685000Y403050D01*
X698500Y403050D01*
X698500Y397050D01*
G37*
G54D18*
G36*
X968200Y444500D02*
X968200Y431000D01*
X962200Y431000D01*
X962200Y444500D01*
X968200Y444500D01*
G37*
G36*
X965200Y441500D02*
X951700Y441500D01*
X951700Y447500D01*
X965200Y447500D01*
X965200Y441500D01*
G37*
G36*
X965200Y447500D02*
X978700Y447500D01*
X978700Y441500D01*
X965200Y441500D01*
X965200Y447500D01*
G37*
G36*
X142000Y933575D02*
X133225Y924800D01*
X120775Y924800D01*
X112000Y933575D01*
X112000Y946025D01*
X120775Y954800D01*
X133225Y954800D01*
X142000Y946025D01*
X142000Y933575D01*
G37*
G36*
X91200Y933575D02*
X82425Y924800D01*
X69975Y924800D01*
X61200Y933575D01*
X61200Y946025D01*
X69975Y954800D01*
X82425Y954800D01*
X91200Y946025D01*
X91200Y933575D01*
G37*
X38100Y819150D02*
G54D19*
D03*
X38100Y844550D02*
G54D19*
D03*
X38100Y730250D02*
G54D19*
D03*
X38100Y755650D02*
G54D19*
D03*
G36*
X61200Y946025D02*
X69975Y954800D01*
X82425Y954800D01*
X91200Y946025D01*
X91200Y933575D01*
X82425Y924800D01*
X69975Y924800D01*
X61200Y933575D01*
X61200Y946025D01*
G37*
X38100Y844550D02*
G54D19*
D03*
X38100Y755650D02*
G54D19*
D03*
X209550Y857250D02*
G54D19*
D03*
G36*
X124385Y821800D02*
X129650Y816535D01*
X129650Y809065D01*
X124385Y803800D01*
X116915Y803800D01*
X111650Y809065D01*
X111650Y816535D01*
X116915Y821800D01*
X124385Y821800D01*
G37*
G36*
X124385Y796400D02*
X129650Y791135D01*
X129650Y783665D01*
X124385Y778400D01*
X116915Y778400D01*
X111650Y783665D01*
X111650Y791135D01*
X116915Y796400D01*
X124385Y796400D01*
G37*
G36*
X124385Y771000D02*
X129650Y765735D01*
X129650Y758265D01*
X124385Y753000D01*
X116915Y753000D01*
X111650Y758265D01*
X111650Y765735D01*
X116915Y771000D01*
X124385Y771000D01*
G37*
G36*
X124385Y796400D02*
X129650Y791135D01*
X129650Y783665D01*
X124385Y778400D01*
X116915Y778400D01*
X111650Y783665D01*
X111650Y791135D01*
X116915Y796400D01*
X124385Y796400D01*
G37*
X279400Y857250D02*
G54D19*
D03*
X254397Y857250D02*
G54D19*
D03*
X234553Y857250D02*
G54D19*
D03*
X209550Y857250D02*
G54D19*
D03*
G36*
X330158Y875937D02*
X318458Y864237D01*
X301858Y864237D01*
X290158Y875937D01*
X290158Y892537D01*
X301858Y904237D01*
X318458Y904237D01*
X330158Y892537D01*
X330158Y875937D01*
G37*
G36*
X198594Y875937D02*
X186894Y864237D01*
X170294Y864237D01*
X158594Y875937D01*
X158594Y892537D01*
X170294Y904237D01*
X186894Y904237D01*
X198594Y892537D01*
X198594Y875937D01*
G37*
X314325Y939800D02*
G54D20*
D03*
X311150Y936625D02*
G54D20*
D03*
X307975Y933450D02*
G54D20*
D03*
X304800Y930275D02*
G54D20*
D03*
X314325Y946150D02*
G54D20*
D03*
X311150Y949325D02*
G54D20*
D03*
X307975Y952500D02*
G54D20*
D03*
X304800Y955675D02*
G54D20*
D03*
X301625Y958850D02*
G54D20*
D03*
X301625Y927100D02*
G54D20*
D03*
X298450Y923925D02*
G54D20*
D03*
X295275Y920750D02*
G54D20*
D03*
X292100Y917575D02*
G54D20*
D03*
X285750Y917575D02*
G54D20*
D03*
X282575Y920750D02*
G54D20*
D03*
X279400Y923925D02*
G54D20*
D03*
X276225Y927100D02*
G54D20*
D03*
X273050Y930275D02*
G54D20*
D03*
X269875Y933450D02*
G54D20*
D03*
X266700Y936625D02*
G54D20*
D03*
X263525Y939800D02*
G54D20*
D03*
X260350Y942975D02*
G54D20*
D03*
X298450Y962025D02*
G54D20*
D03*
X295275Y965200D02*
G54D20*
D03*
X292100Y968375D02*
G54D20*
D03*
X288925Y971550D02*
G54D20*
D03*
X273050Y968375D02*
G54D20*
D03*
X263525Y958850D02*
G54D20*
D03*
X260350Y962025D02*
G54D20*
D03*
X269875Y971550D02*
G54D20*
D03*
X269875Y977900D02*
G54D20*
D03*
X266700Y981075D02*
G54D20*
D03*
X263525Y977900D02*
G54D20*
D03*
X260350Y974725D02*
G54D20*
D03*
X257175Y971550D02*
G54D20*
D03*
X254000Y968375D02*
G54D20*
D03*
X250825Y965200D02*
G54D20*
D03*
X254000Y962025D02*
G54D20*
D03*
X304800Y949325D02*
G54D20*
D03*
X301625Y949325D02*
G54D20*
D03*
X298450Y952500D02*
G54D20*
D03*
X295275Y949325D02*
G54D20*
D03*
X292100Y949325D02*
G54D20*
D03*
X288925Y949325D02*
G54D20*
D03*
X285750Y946150D02*
G54D20*
D03*
X282575Y946150D02*
G54D20*
D03*
X279400Y949325D02*
G54D20*
D03*
X276225Y949325D02*
G54D20*
D03*
X273050Y949325D02*
G54D20*
D03*
X269875Y949325D02*
G54D20*
D03*
X266700Y949325D02*
G54D20*
D03*
X263525Y946150D02*
G54D20*
D03*
X247650Y974725D02*
G54D20*
D03*
X247650Y971550D02*
G54D20*
D03*
X247650Y968375D02*
G54D20*
D03*
X244475Y968375D02*
G54D20*
D03*
X244475Y974725D02*
G54D20*
D03*
X241300Y974725D02*
G54D20*
D03*
X241300Y977900D02*
G54D20*
D03*
X241300Y981075D02*
G54D20*
D03*
X238125Y981075D02*
G54D20*
D03*
X234950Y981075D02*
G54D20*
D03*
X234950Y977900D02*
G54D20*
D03*
X234950Y974725D02*
G54D20*
D03*
X231775Y974725D02*
G54D20*
D03*
X228600Y974725D02*
G54D20*
D03*
X228600Y971550D02*
G54D20*
D03*
X228600Y968375D02*
G54D20*
D03*
X231775Y968375D02*
G54D20*
D03*
X234950Y968375D02*
G54D20*
D03*
X241300Y968375D02*
G54D20*
D03*
X241300Y965200D02*
G54D20*
D03*
X241300Y962025D02*
G54D20*
D03*
X238125Y962025D02*
G54D20*
D03*
X234950Y962025D02*
G54D20*
D03*
X234950Y965200D02*
G54D20*
D03*
X285750Y974725D02*
G54D20*
D03*
X279400Y974725D02*
G54D20*
D03*
X276225Y971550D02*
G54D20*
D03*
X260350Y955675D02*
G54D20*
D03*
X257175Y952500D02*
G54D20*
D03*
X257175Y946150D02*
G54D20*
D03*
X260350Y936625D02*
G54D20*
D03*
X257175Y936625D02*
G54D20*
D03*
X254000Y936625D02*
G54D20*
D03*
X250825Y936625D02*
G54D20*
D03*
X247650Y936625D02*
G54D20*
D03*
X254000Y933450D02*
G54D20*
D03*
X254000Y930275D02*
G54D20*
D03*
X254000Y927100D02*
G54D20*
D03*
X254000Y923925D02*
G54D20*
D03*
X254000Y920750D02*
G54D20*
D03*
X257175Y917575D02*
G54D20*
D03*
X260350Y917575D02*
G54D20*
D03*
X263525Y920750D02*
G54D20*
D03*
X244475Y917575D02*
G54D20*
D03*
X241300Y920750D02*
G54D20*
D03*
X241300Y923925D02*
G54D20*
D03*
X241300Y927100D02*
G54D20*
D03*
X241300Y930275D02*
G54D20*
D03*
X238125Y917575D02*
G54D20*
D03*
X234950Y917575D02*
G54D20*
D03*
X231775Y917575D02*
G54D20*
D03*
X231775Y920750D02*
G54D20*
D03*
X231775Y923925D02*
G54D20*
D03*
X231775Y927100D02*
G54D20*
D03*
X231775Y930275D02*
G54D20*
D03*
X225425Y933450D02*
G54D20*
D03*
X225425Y927100D02*
G54D20*
D03*
X225425Y923925D02*
G54D20*
D03*
X225425Y920750D02*
G54D20*
D03*
X225425Y917575D02*
G54D20*
D03*
X219075Y920750D02*
G54D20*
D03*
X219075Y923925D02*
G54D20*
D03*
X219075Y927100D02*
G54D20*
D03*
X215900Y930275D02*
G54D20*
D03*
X212725Y930275D02*
G54D20*
D03*
X215900Y917575D02*
G54D20*
D03*
X212725Y917575D02*
G54D20*
D03*
X209550Y917575D02*
G54D20*
D03*
X209550Y930275D02*
G54D20*
D03*
X203200Y920750D02*
G54D20*
D03*
X203200Y923925D02*
G54D20*
D03*
X203200Y927100D02*
G54D20*
D03*
X200025Y930275D02*
G54D20*
D03*
X196850Y930275D02*
G54D20*
D03*
X193675Y930275D02*
G54D20*
D03*
X200025Y917575D02*
G54D20*
D03*
X196850Y917575D02*
G54D20*
D03*
X193675Y917575D02*
G54D20*
D03*
X190500Y927100D02*
G54D20*
D03*
X190500Y923925D02*
G54D20*
D03*
X193675Y923925D02*
G54D20*
D03*
X196850Y923925D02*
G54D20*
D03*
X200025Y923925D02*
G54D20*
D03*
X292100Y936625D02*
G54D20*
D03*
X288925Y933450D02*
G54D20*
D03*
X285750Y936625D02*
G54D20*
D03*
X288925Y939800D02*
G54D20*
D03*
X279400Y933450D02*
G54D20*
D03*
X301625Y942975D02*
G54D20*
D03*
X273050Y942975D02*
G54D20*
D03*
X288925Y923925D02*
G54D20*
D03*
X304800Y939800D02*
G54D20*
D03*
X244475Y955675D02*
G54D20*
D03*
X241300Y955675D02*
G54D20*
D03*
X238125Y955675D02*
G54D20*
D03*
X234950Y955675D02*
G54D20*
D03*
X231775Y955675D02*
G54D20*
D03*
X231775Y952500D02*
G54D20*
D03*
X231775Y949325D02*
G54D20*
D03*
X234950Y946150D02*
G54D20*
D03*
X238125Y942975D02*
G54D20*
D03*
X241300Y939800D02*
G54D20*
D03*
X228600Y962025D02*
G54D20*
D03*
X228600Y958850D02*
G54D20*
D03*
X225425Y958850D02*
G54D20*
D03*
X225425Y962025D02*
G54D20*
D03*
X222250Y955675D02*
G54D20*
D03*
X219075Y955675D02*
G54D20*
D03*
X215900Y955675D02*
G54D20*
D03*
X212725Y955675D02*
G54D20*
D03*
X209550Y955675D02*
G54D20*
D03*
X222250Y949325D02*
G54D20*
D03*
X219075Y949325D02*
G54D20*
D03*
X215900Y949325D02*
G54D20*
D03*
X212725Y949325D02*
G54D20*
D03*
X209550Y949325D02*
G54D20*
D03*
X209550Y946150D02*
G54D20*
D03*
X212725Y942975D02*
G54D20*
D03*
X215900Y939800D02*
G54D20*
D03*
X222250Y939800D02*
G54D20*
D03*
X219075Y939800D02*
G54D20*
D03*
X203200Y955675D02*
G54D20*
D03*
X200025Y955675D02*
G54D20*
D03*
X196850Y955675D02*
G54D20*
D03*
X193675Y955675D02*
G54D20*
D03*
X190500Y955675D02*
G54D20*
D03*
X190500Y952500D02*
G54D20*
D03*
X193675Y949325D02*
G54D20*
D03*
X196850Y946150D02*
G54D20*
D03*
X200025Y942975D02*
G54D20*
D03*
X203200Y939800D02*
G54D20*
D03*
X193675Y942975D02*
G54D20*
D03*
X190500Y939800D02*
G54D20*
D03*
X282575Y968375D02*
G54D20*
D03*
X285750Y965200D02*
G54D20*
D03*
G54D21*
X216408Y969644D02*
X214408Y968533D01*
X213742Y967422D01*
X213742Y965200D01*
G54D21*
X219075Y965200D02*
X219075Y974089D01*
X215742Y974089D01*
X214408Y973533D01*
X213742Y972422D01*
X213742Y971311D01*
X214408Y970200D01*
X215742Y969644D01*
X219075Y969644D01*
G54D21*
X207298Y965756D02*
X208365Y965200D01*
X209698Y965200D01*
X211031Y965756D01*
X211298Y966867D01*
X211298Y968756D01*
X210631Y969867D01*
X209298Y970200D01*
X207965Y969867D01*
X207298Y969089D01*
X207298Y967978D01*
X211298Y967978D01*
G54D21*
X204854Y970200D02*
X202187Y965200D01*
X199521Y970200D01*
G54D21*
X197077Y965200D02*
X197077Y965200D01*
G54D21*
X189300Y965200D02*
X194633Y965200D01*
X194633Y965756D01*
X193966Y966867D01*
X189966Y970200D01*
X189300Y971311D01*
X189300Y972422D01*
X189966Y973533D01*
X191300Y974089D01*
X192633Y974089D01*
X193966Y973533D01*
X194633Y972422D01*
G54D21*
X186856Y965200D02*
X186856Y965200D01*
G54D21*
X179079Y972422D02*
X179079Y966867D01*
X179745Y965756D01*
X181079Y965200D01*
X182412Y965200D01*
X183745Y965756D01*
X184412Y966867D01*
X184412Y972422D01*
X183745Y973533D01*
X182412Y974089D01*
X181079Y974089D01*
X179745Y973533D01*
X179079Y972422D01*
X228600Y374650D02*
G54D19*
D03*
X254000Y374650D02*
G54D19*
D03*
X279400Y374650D02*
G54D19*
D03*
X304800Y374650D02*
G54D19*
D03*
X228600Y304800D02*
G54D19*
D03*
X254000Y304800D02*
G54D19*
D03*
X279400Y304800D02*
G54D19*
D03*
X304800Y304800D02*
G54D19*
D03*
X38100Y304800D02*
G54D19*
D03*
X63500Y304800D02*
G54D19*
D03*
X88900Y304800D02*
G54D19*
D03*
X114300Y304800D02*
G54D19*
D03*
X38100Y234950D02*
G54D19*
D03*
X63500Y234950D02*
G54D19*
D03*
X88900Y234950D02*
G54D19*
D03*
X114300Y234950D02*
G54D19*
D03*
X228600Y234950D02*
G54D19*
D03*
X254000Y234950D02*
G54D19*
D03*
X279400Y234950D02*
G54D19*
D03*
X304800Y234950D02*
G54D19*
D03*
X38100Y641350D02*
G54D19*
D03*
X38100Y666750D02*
G54D19*
D03*
G54D22*
X228600Y374650D02*
X228600Y234950D01*
G54D22*
X254000Y374650D02*
X254000Y234950D01*
G54D22*
X279400Y374650D02*
X279400Y234950D01*
G54D22*
X304800Y374650D02*
X304800Y234950D01*
X38100Y666750D02*
G54D19*
D03*
X288925Y917575D02*
G54D20*
D03*
X314325Y942975D02*
G54D20*
D03*
G36*
X295800Y243950D02*
X313800Y243950D01*
X313800Y225950D01*
X295800Y225950D01*
X295800Y243950D01*
G37*
G36*
X105300Y313800D02*
X123300Y313800D01*
X123300Y295800D01*
X105300Y295800D01*
X105300Y313800D01*
G37*
G36*
X105300Y243950D02*
X123300Y243950D01*
X123300Y225950D01*
X105300Y225950D01*
X105300Y243950D01*
G37*
G36*
X295800Y313800D02*
X313800Y313800D01*
X313800Y295800D01*
X295800Y295800D01*
X295800Y313800D01*
G37*
G36*
X295800Y383650D02*
X313800Y383650D01*
X313800Y365650D01*
X295800Y365650D01*
X295800Y383650D01*
G37*
G54D17*
X254000Y234950D02*
X254000Y215900D01*
X247650Y209550D01*
X69850Y209550D01*
X63500Y215900D01*
X63500Y234950D01*
G54D17*
X38100Y304800D02*
X38100Y317500D01*
X50800Y330200D01*
X228600Y330200D01*
G36*
X303341Y722850D02*
X321341Y722850D01*
X321341Y686850D01*
X303341Y686850D01*
X303341Y722850D01*
G37*
G36*
X237565Y524400D02*
X232300Y529665D01*
X232300Y537135D01*
X237565Y542400D01*
X245035Y542400D01*
X250300Y537135D01*
X250300Y529665D01*
X245035Y524400D01*
X237565Y524400D01*
G37*
G36*
X237565Y549800D02*
X232300Y555065D01*
X232300Y562535D01*
X237565Y567800D01*
X245035Y567800D01*
X250300Y562535D01*
X250300Y555065D01*
X245035Y549800D01*
X237565Y549800D01*
G37*
G36*
X237565Y575200D02*
X232300Y580465D01*
X232300Y587935D01*
X237565Y593200D01*
X245035Y593200D01*
X250300Y587935D01*
X250300Y580465D01*
X245035Y575200D01*
X237565Y575200D01*
G37*
G36*
X237565Y549800D02*
X232300Y555065D01*
X232300Y562535D01*
X237565Y567800D01*
X245035Y567800D01*
X250300Y562535D01*
X250300Y555065D01*
X245035Y549800D01*
X237565Y549800D01*
G37*
X304800Y647700D02*
G54D19*
D03*
X304800Y622300D02*
G54D19*
D03*
X304800Y558800D02*
G54D19*
D03*
X304800Y533400D02*
G54D19*
D03*
X38100Y552450D02*
G54D19*
D03*
X38100Y577850D02*
G54D19*
D03*
X38100Y463550D02*
G54D19*
D03*
X38100Y488950D02*
G54D19*
D03*
G54D22*
X120650Y762000D02*
X203200Y762000D01*
X241300Y723900D01*
X241300Y584200D01*
X38100Y374650D02*
G54D19*
D03*
X38100Y400050D02*
G54D19*
D03*
X38100Y400050D02*
G54D19*
D03*
X304800Y469900D02*
G54D19*
D03*
X304800Y444500D02*
G54D19*
D03*
X304800Y444500D02*
G54D19*
D03*
X71438Y158750D02*
G54D23*
D03*
X271462Y158750D02*
G54D23*
D03*
G54D22*
X38100Y488950D02*
X260350Y488950D01*
X304800Y533400D01*
G54D22*
X312341Y704850D02*
X312341Y786209D01*
X285750Y812800D01*
X120650Y812800D01*
G36*
X472200Y933575D02*
X463425Y924800D01*
X450975Y924800D01*
X442200Y933575D01*
X442200Y946025D01*
X450975Y954800D01*
X463425Y954800D01*
X472200Y946025D01*
X472200Y933575D01*
G37*
G36*
X421400Y933575D02*
X412625Y924800D01*
X400175Y924800D01*
X391400Y933575D01*
X391400Y946025D01*
X400175Y954800D01*
X412625Y954800D01*
X421400Y946025D01*
X421400Y933575D01*
G37*
X368300Y819150D02*
G54D19*
D03*
X368300Y844550D02*
G54D19*
D03*
X368300Y730250D02*
G54D19*
D03*
X368300Y755650D02*
G54D19*
D03*
G36*
X391400Y946025D02*
X400175Y954800D01*
X412625Y954800D01*
X421400Y946025D01*
X421400Y933575D01*
X412625Y924800D01*
X400175Y924800D01*
X391400Y933575D01*
X391400Y946025D01*
G37*
X368300Y844550D02*
G54D19*
D03*
X368300Y755650D02*
G54D19*
D03*
X539750Y857250D02*
G54D19*
D03*
G36*
X454585Y821800D02*
X459850Y816535D01*
X459850Y809065D01*
X454585Y803800D01*
X447115Y803800D01*
X441850Y809065D01*
X441850Y816535D01*
X447115Y821800D01*
X454585Y821800D01*
G37*
G36*
X454585Y796400D02*
X459850Y791135D01*
X459850Y783665D01*
X454585Y778400D01*
X447115Y778400D01*
X441850Y783665D01*
X441850Y791135D01*
X447115Y796400D01*
X454585Y796400D01*
G37*
G36*
X454585Y771000D02*
X459850Y765735D01*
X459850Y758265D01*
X454585Y753000D01*
X447115Y753000D01*
X441850Y758265D01*
X441850Y765735D01*
X447115Y771000D01*
X454585Y771000D01*
G37*
G36*
X454585Y796400D02*
X459850Y791135D01*
X459850Y783665D01*
X454585Y778400D01*
X447115Y778400D01*
X441850Y783665D01*
X441850Y791135D01*
X447115Y796400D01*
X454585Y796400D01*
G37*
X609600Y857250D02*
G54D19*
D03*
X584597Y857250D02*
G54D19*
D03*
X564753Y857250D02*
G54D19*
D03*
X539750Y857250D02*
G54D19*
D03*
G36*
X660358Y875937D02*
X648658Y864237D01*
X632058Y864237D01*
X620358Y875937D01*
X620358Y892537D01*
X632058Y904237D01*
X648658Y904237D01*
X660358Y892537D01*
X660358Y875937D01*
G37*
G36*
X528794Y875937D02*
X517094Y864237D01*
X500494Y864237D01*
X488794Y875937D01*
X488794Y892537D01*
X500494Y904237D01*
X517094Y904237D01*
X528794Y892537D01*
X528794Y875937D01*
G37*
X644525Y939800D02*
G54D20*
D03*
X641350Y936625D02*
G54D20*
D03*
X638175Y933450D02*
G54D20*
D03*
X635000Y930275D02*
G54D20*
D03*
X644525Y946150D02*
G54D20*
D03*
X641350Y949325D02*
G54D20*
D03*
X638175Y952500D02*
G54D20*
D03*
X635000Y955675D02*
G54D20*
D03*
X631825Y958850D02*
G54D20*
D03*
X631825Y927100D02*
G54D20*
D03*
X628650Y923925D02*
G54D20*
D03*
X625475Y920750D02*
G54D20*
D03*
X622300Y917575D02*
G54D20*
D03*
X615950Y917575D02*
G54D20*
D03*
X612775Y920750D02*
G54D20*
D03*
X609600Y923925D02*
G54D20*
D03*
X606425Y927100D02*
G54D20*
D03*
X603250Y930275D02*
G54D20*
D03*
X600075Y933450D02*
G54D20*
D03*
X596900Y936625D02*
G54D20*
D03*
X593725Y939800D02*
G54D20*
D03*
X590550Y942975D02*
G54D20*
D03*
X628650Y962025D02*
G54D20*
D03*
X625475Y965200D02*
G54D20*
D03*
X622300Y968375D02*
G54D20*
D03*
X619125Y971550D02*
G54D20*
D03*
X603250Y968375D02*
G54D20*
D03*
X593725Y958850D02*
G54D20*
D03*
X590550Y962025D02*
G54D20*
D03*
X600075Y971550D02*
G54D20*
D03*
X600075Y977900D02*
G54D20*
D03*
X596900Y981075D02*
G54D20*
D03*
X593725Y977900D02*
G54D20*
D03*
X590550Y974725D02*
G54D20*
D03*
X587375Y971550D02*
G54D20*
D03*
X584200Y968375D02*
G54D20*
D03*
X581025Y965200D02*
G54D20*
D03*
X584200Y962025D02*
G54D20*
D03*
X635000Y949325D02*
G54D20*
D03*
X631825Y949325D02*
G54D20*
D03*
X628650Y952500D02*
G54D20*
D03*
X625475Y949325D02*
G54D20*
D03*
X622300Y949325D02*
G54D20*
D03*
X619125Y949325D02*
G54D20*
D03*
X615950Y946150D02*
G54D20*
D03*
X612775Y946150D02*
G54D20*
D03*
X609600Y949325D02*
G54D20*
D03*
X606425Y949325D02*
G54D20*
D03*
X603250Y949325D02*
G54D20*
D03*
X600075Y949325D02*
G54D20*
D03*
X596900Y949325D02*
G54D20*
D03*
X593725Y946150D02*
G54D20*
D03*
X577850Y974725D02*
G54D20*
D03*
X577850Y971550D02*
G54D20*
D03*
X577850Y968375D02*
G54D20*
D03*
X574675Y968375D02*
G54D20*
D03*
X574675Y974725D02*
G54D20*
D03*
X571500Y974725D02*
G54D20*
D03*
X571500Y977900D02*
G54D20*
D03*
X571500Y981075D02*
G54D20*
D03*
X568325Y981075D02*
G54D20*
D03*
X565150Y981075D02*
G54D20*
D03*
X565150Y977900D02*
G54D20*
D03*
X565150Y974725D02*
G54D20*
D03*
X561975Y974725D02*
G54D20*
D03*
X558800Y974725D02*
G54D20*
D03*
X558800Y971550D02*
G54D20*
D03*
X558800Y968375D02*
G54D20*
D03*
X561975Y968375D02*
G54D20*
D03*
X565150Y968375D02*
G54D20*
D03*
X571500Y968375D02*
G54D20*
D03*
X571500Y965200D02*
G54D20*
D03*
X571500Y962025D02*
G54D20*
D03*
X568325Y962025D02*
G54D20*
D03*
X565150Y962025D02*
G54D20*
D03*
X565150Y965200D02*
G54D20*
D03*
X615950Y974725D02*
G54D20*
D03*
X609600Y974725D02*
G54D20*
D03*
X606425Y971550D02*
G54D20*
D03*
X590550Y955675D02*
G54D20*
D03*
X587375Y952500D02*
G54D20*
D03*
X587375Y946150D02*
G54D20*
D03*
X590550Y936625D02*
G54D20*
D03*
X587375Y936625D02*
G54D20*
D03*
X584200Y936625D02*
G54D20*
D03*
X581025Y936625D02*
G54D20*
D03*
X577850Y936625D02*
G54D20*
D03*
X584200Y933450D02*
G54D20*
D03*
X584200Y930275D02*
G54D20*
D03*
X584200Y927100D02*
G54D20*
D03*
X584200Y923925D02*
G54D20*
D03*
X584200Y920750D02*
G54D20*
D03*
X587375Y917575D02*
G54D20*
D03*
X590550Y917575D02*
G54D20*
D03*
X593725Y920750D02*
G54D20*
D03*
X574675Y917575D02*
G54D20*
D03*
X571500Y920750D02*
G54D20*
D03*
X571500Y923925D02*
G54D20*
D03*
X571500Y927100D02*
G54D20*
D03*
X571500Y930275D02*
G54D20*
D03*
X568325Y917575D02*
G54D20*
D03*
X565150Y917575D02*
G54D20*
D03*
X561975Y917575D02*
G54D20*
D03*
X561975Y920750D02*
G54D20*
D03*
X561975Y923925D02*
G54D20*
D03*
X561975Y927100D02*
G54D20*
D03*
X561975Y930275D02*
G54D20*
D03*
X555625Y933450D02*
G54D20*
D03*
X555625Y927100D02*
G54D20*
D03*
X555625Y923925D02*
G54D20*
D03*
X555625Y920750D02*
G54D20*
D03*
X555625Y917575D02*
G54D20*
D03*
X549275Y920750D02*
G54D20*
D03*
X549275Y923925D02*
G54D20*
D03*
X549275Y927100D02*
G54D20*
D03*
X546100Y930275D02*
G54D20*
D03*
X542925Y930275D02*
G54D20*
D03*
X546100Y917575D02*
G54D20*
D03*
X542925Y917575D02*
G54D20*
D03*
X539750Y917575D02*
G54D20*
D03*
X539750Y930275D02*
G54D20*
D03*
X533400Y920750D02*
G54D20*
D03*
X533400Y923925D02*
G54D20*
D03*
X533400Y927100D02*
G54D20*
D03*
X530225Y930275D02*
G54D20*
D03*
X527050Y930275D02*
G54D20*
D03*
X523875Y930275D02*
G54D20*
D03*
X530225Y917575D02*
G54D20*
D03*
X527050Y917575D02*
G54D20*
D03*
X523875Y917575D02*
G54D20*
D03*
X520700Y927100D02*
G54D20*
D03*
X520700Y923925D02*
G54D20*
D03*
X523875Y923925D02*
G54D20*
D03*
X527050Y923925D02*
G54D20*
D03*
X530225Y923925D02*
G54D20*
D03*
X622300Y936625D02*
G54D20*
D03*
X619125Y933450D02*
G54D20*
D03*
X615950Y936625D02*
G54D20*
D03*
X619125Y939800D02*
G54D20*
D03*
X609600Y933450D02*
G54D20*
D03*
X631825Y942975D02*
G54D20*
D03*
X603250Y942975D02*
G54D20*
D03*
X619125Y923925D02*
G54D20*
D03*
X635000Y939800D02*
G54D20*
D03*
X574675Y955675D02*
G54D20*
D03*
X571500Y955675D02*
G54D20*
D03*
X568325Y955675D02*
G54D20*
D03*
X565150Y955675D02*
G54D20*
D03*
X561975Y955675D02*
G54D20*
D03*
X561975Y952500D02*
G54D20*
D03*
X561975Y949325D02*
G54D20*
D03*
X565150Y946150D02*
G54D20*
D03*
X568325Y942975D02*
G54D20*
D03*
X571500Y939800D02*
G54D20*
D03*
X558800Y962025D02*
G54D20*
D03*
X558800Y958850D02*
G54D20*
D03*
X555625Y958850D02*
G54D20*
D03*
X555625Y962025D02*
G54D20*
D03*
X552450Y955675D02*
G54D20*
D03*
X549275Y955675D02*
G54D20*
D03*
X546100Y955675D02*
G54D20*
D03*
X542925Y955675D02*
G54D20*
D03*
X539750Y955675D02*
G54D20*
D03*
X552450Y949325D02*
G54D20*
D03*
X549275Y949325D02*
G54D20*
D03*
X546100Y949325D02*
G54D20*
D03*
X542925Y949325D02*
G54D20*
D03*
X539750Y949325D02*
G54D20*
D03*
X539750Y946150D02*
G54D20*
D03*
X542925Y942975D02*
G54D20*
D03*
X546100Y939800D02*
G54D20*
D03*
X552450Y939800D02*
G54D20*
D03*
X549275Y939800D02*
G54D20*
D03*
X533400Y955675D02*
G54D20*
D03*
X530225Y955675D02*
G54D20*
D03*
X527050Y955675D02*
G54D20*
D03*
X523875Y955675D02*
G54D20*
D03*
X520700Y955675D02*
G54D20*
D03*
X520700Y952500D02*
G54D20*
D03*
X523875Y949325D02*
G54D20*
D03*
X527050Y946150D02*
G54D20*
D03*
X530225Y942975D02*
G54D20*
D03*
X533400Y939800D02*
G54D20*
D03*
X523875Y942975D02*
G54D20*
D03*
X520700Y939800D02*
G54D20*
D03*
X612775Y968375D02*
G54D20*
D03*
X615950Y965200D02*
G54D20*
D03*
G54D21*
X546608Y969644D02*
X544608Y968533D01*
X543942Y967422D01*
X543942Y965200D01*
G54D21*
X549275Y965200D02*
X549275Y974089D01*
X545942Y974089D01*
X544608Y973533D01*
X543942Y972422D01*
X543942Y971311D01*
X544608Y970200D01*
X545942Y969644D01*
X549275Y969644D01*
G54D21*
X537498Y965756D02*
X538565Y965200D01*
X539898Y965200D01*
X541231Y965756D01*
X541498Y966867D01*
X541498Y968756D01*
X540831Y969867D01*
X539498Y970200D01*
X538165Y969867D01*
X537498Y969089D01*
X537498Y967978D01*
X541498Y967978D01*
G54D21*
X535054Y970200D02*
X532387Y965200D01*
X529721Y970200D01*
G54D21*
X527277Y965200D02*
X527277Y965200D01*
G54D21*
X519500Y965200D02*
X524833Y965200D01*
X524833Y965756D01*
X524166Y966867D01*
X520166Y970200D01*
X519500Y971311D01*
X519500Y972422D01*
X520166Y973533D01*
X521500Y974089D01*
X522833Y974089D01*
X524166Y973533D01*
X524833Y972422D01*
G54D21*
X517056Y965200D02*
X517056Y965200D01*
G54D21*
X509279Y972422D02*
X509279Y966867D01*
X509945Y965756D01*
X511279Y965200D01*
X512612Y965200D01*
X513945Y965756D01*
X514612Y966867D01*
X514612Y972422D01*
X513945Y973533D01*
X512612Y974089D01*
X511279Y974089D01*
X509945Y973533D01*
X509279Y972422D01*
X558800Y374650D02*
G54D19*
D03*
X584200Y374650D02*
G54D19*
D03*
X609600Y374650D02*
G54D19*
D03*
X635000Y374650D02*
G54D19*
D03*
X558800Y304800D02*
G54D19*
D03*
X584200Y304800D02*
G54D19*
D03*
X609600Y304800D02*
G54D19*
D03*
X635000Y304800D02*
G54D19*
D03*
X368300Y304800D02*
G54D19*
D03*
X393700Y304800D02*
G54D19*
D03*
X419100Y304800D02*
G54D19*
D03*
X444500Y304800D02*
G54D19*
D03*
X368300Y234950D02*
G54D19*
D03*
X393700Y234950D02*
G54D19*
D03*
X419100Y234950D02*
G54D19*
D03*
X444500Y234950D02*
G54D19*
D03*
X558800Y234950D02*
G54D19*
D03*
X584200Y234950D02*
G54D19*
D03*
X609600Y234950D02*
G54D19*
D03*
X635000Y234950D02*
G54D19*
D03*
X368300Y641350D02*
G54D19*
D03*
X368300Y666750D02*
G54D19*
D03*
G54D22*
X558800Y374650D02*
X558800Y234950D01*
G54D22*
X584200Y374650D02*
X584200Y234950D01*
G54D22*
X609600Y374650D02*
X609600Y234950D01*
G54D22*
X635000Y374650D02*
X635000Y234950D01*
X368300Y666750D02*
G54D19*
D03*
X619125Y917575D02*
G54D20*
D03*
X644525Y942975D02*
G54D20*
D03*
G36*
X626000Y243950D02*
X644000Y243950D01*
X644000Y225950D01*
X626000Y225950D01*
X626000Y243950D01*
G37*
G36*
X435500Y313800D02*
X453500Y313800D01*
X453500Y295800D01*
X435500Y295800D01*
X435500Y313800D01*
G37*
G36*
X435500Y243950D02*
X453500Y243950D01*
X453500Y225950D01*
X435500Y225950D01*
X435500Y243950D01*
G37*
G36*
X626000Y313800D02*
X644000Y313800D01*
X644000Y295800D01*
X626000Y295800D01*
X626000Y313800D01*
G37*
G36*
X626000Y383650D02*
X644000Y383650D01*
X644000Y365650D01*
X626000Y365650D01*
X626000Y383650D01*
G37*
G54D17*
X584200Y234950D02*
X584200Y215900D01*
X577850Y209550D01*
X400050Y209550D01*
X393700Y215900D01*
X393700Y234950D01*
G54D17*
X368300Y304800D02*
X368300Y317500D01*
X381000Y330200D01*
X558800Y330200D01*
G36*
X633541Y722850D02*
X651541Y722850D01*
X651541Y686850D01*
X633541Y686850D01*
X633541Y722850D01*
G37*
G36*
X567765Y524400D02*
X562500Y529665D01*
X562500Y537135D01*
X567765Y542400D01*
X575235Y542400D01*
X580500Y537135D01*
X580500Y529665D01*
X575235Y524400D01*
X567765Y524400D01*
G37*
G36*
X567765Y549800D02*
X562500Y555065D01*
X562500Y562535D01*
X567765Y567800D01*
X575235Y567800D01*
X580500Y562535D01*
X580500Y555065D01*
X575235Y549800D01*
X567765Y549800D01*
G37*
G36*
X567765Y575200D02*
X562500Y580465D01*
X562500Y587935D01*
X567765Y593200D01*
X575235Y593200D01*
X580500Y587935D01*
X580500Y580465D01*
X575235Y575200D01*
X567765Y575200D01*
G37*
G36*
X567765Y549800D02*
X562500Y555065D01*
X562500Y562535D01*
X567765Y567800D01*
X575235Y567800D01*
X580500Y562535D01*
X580500Y555065D01*
X575235Y549800D01*
X567765Y549800D01*
G37*
X635000Y647700D02*
G54D19*
D03*
X635000Y622300D02*
G54D19*
D03*
X635000Y558800D02*
G54D19*
D03*
X635000Y533400D02*
G54D19*
D03*
X368300Y552450D02*
G54D19*
D03*
X368300Y577850D02*
G54D19*
D03*
X368300Y463550D02*
G54D19*
D03*
X368300Y488950D02*
G54D19*
D03*
G54D22*
X450850Y762000D02*
X533400Y762000D01*
X571500Y723900D01*
X571500Y584200D01*
X368300Y374650D02*
G54D19*
D03*
X368300Y400050D02*
G54D19*
D03*
X368300Y400050D02*
G54D19*
D03*
X635000Y469900D02*
G54D19*
D03*
X635000Y444500D02*
G54D19*
D03*
X635000Y444500D02*
G54D19*
D03*
X401638Y158750D02*
G54D23*
D03*
X601662Y158750D02*
G54D23*
D03*
G54D22*
X368300Y488950D02*
X590550Y488950D01*
X635000Y533400D01*
G54D22*
X642541Y704850D02*
X642541Y786209D01*
X615950Y812800D01*
X450850Y812800D01*
G36*
X802400Y933575D02*
X793625Y924800D01*
X781175Y924800D01*
X772400Y933575D01*
X772400Y946025D01*
X781175Y954800D01*
X793625Y954800D01*
X802400Y946025D01*
X802400Y933575D01*
G37*
G36*
X751600Y933575D02*
X742825Y924800D01*
X730375Y924800D01*
X721600Y933575D01*
X721600Y946025D01*
X730375Y954800D01*
X742825Y954800D01*
X751600Y946025D01*
X751600Y933575D01*
G37*
X698500Y819150D02*
G54D19*
D03*
X698500Y844550D02*
G54D19*
D03*
X698500Y730250D02*
G54D19*
D03*
X698500Y755650D02*
G54D19*
D03*
G36*
X721600Y946025D02*
X730375Y954800D01*
X742825Y954800D01*
X751600Y946025D01*
X751600Y933575D01*
X742825Y924800D01*
X730375Y924800D01*
X721600Y933575D01*
X721600Y946025D01*
G37*
X698500Y844550D02*
G54D19*
D03*
X698500Y755650D02*
G54D19*
D03*
X869950Y857250D02*
G54D19*
D03*
G36*
X784785Y821800D02*
X790050Y816535D01*
X790050Y809065D01*
X784785Y803800D01*
X777315Y803800D01*
X772050Y809065D01*
X772050Y816535D01*
X777315Y821800D01*
X784785Y821800D01*
G37*
G36*
X784785Y796400D02*
X790050Y791135D01*
X790050Y783665D01*
X784785Y778400D01*
X777315Y778400D01*
X772050Y783665D01*
X772050Y791135D01*
X777315Y796400D01*
X784785Y796400D01*
G37*
G36*
X784785Y771000D02*
X790050Y765735D01*
X790050Y758265D01*
X784785Y753000D01*
X777315Y753000D01*
X772050Y758265D01*
X772050Y765735D01*
X777315Y771000D01*
X784785Y771000D01*
G37*
G36*
X784785Y796400D02*
X790050Y791135D01*
X790050Y783665D01*
X784785Y778400D01*
X777315Y778400D01*
X772050Y783665D01*
X772050Y791135D01*
X777315Y796400D01*
X784785Y796400D01*
G37*
X939800Y857250D02*
G54D19*
D03*
X914797Y857250D02*
G54D19*
D03*
X894953Y857250D02*
G54D19*
D03*
X869950Y857250D02*
G54D19*
D03*
G36*
X990558Y875937D02*
X978858Y864237D01*
X962258Y864237D01*
X950558Y875937D01*
X950558Y892537D01*
X962258Y904237D01*
X978858Y904237D01*
X990558Y892537D01*
X990558Y875937D01*
G37*
G36*
X858994Y875937D02*
X847294Y864237D01*
X830694Y864237D01*
X818994Y875937D01*
X818994Y892537D01*
X830694Y904237D01*
X847294Y904237D01*
X858994Y892537D01*
X858994Y875937D01*
G37*
X974725Y939800D02*
G54D20*
D03*
X971550Y936625D02*
G54D20*
D03*
X968375Y933450D02*
G54D20*
D03*
X965200Y930275D02*
G54D20*
D03*
X974725Y946150D02*
G54D20*
D03*
X971550Y949325D02*
G54D20*
D03*
X968375Y952500D02*
G54D20*
D03*
X965200Y955675D02*
G54D20*
D03*
X962025Y958850D02*
G54D20*
D03*
X962025Y927100D02*
G54D20*
D03*
X958850Y923925D02*
G54D20*
D03*
X955675Y920750D02*
G54D20*
D03*
X952500Y917575D02*
G54D20*
D03*
X946150Y917575D02*
G54D20*
D03*
X942975Y920750D02*
G54D20*
D03*
X939800Y923925D02*
G54D20*
D03*
X936625Y927100D02*
G54D20*
D03*
X933450Y930275D02*
G54D20*
D03*
X930275Y933450D02*
G54D20*
D03*
X927100Y936625D02*
G54D20*
D03*
X923925Y939800D02*
G54D20*
D03*
X920750Y942975D02*
G54D20*
D03*
X958850Y962025D02*
G54D20*
D03*
X955675Y965200D02*
G54D20*
D03*
X952500Y968375D02*
G54D20*
D03*
X949325Y971550D02*
G54D20*
D03*
X933450Y968375D02*
G54D20*
D03*
X923925Y958850D02*
G54D20*
D03*
X920750Y962025D02*
G54D20*
D03*
X930275Y971550D02*
G54D20*
D03*
X930275Y977900D02*
G54D20*
D03*
X927100Y981075D02*
G54D20*
D03*
X923925Y977900D02*
G54D20*
D03*
X920750Y974725D02*
G54D20*
D03*
X917575Y971550D02*
G54D20*
D03*
X914400Y968375D02*
G54D20*
D03*
X911225Y965200D02*
G54D20*
D03*
X914400Y962025D02*
G54D20*
D03*
X965200Y949325D02*
G54D20*
D03*
X962025Y949325D02*
G54D20*
D03*
X958850Y952500D02*
G54D20*
D03*
X955675Y949325D02*
G54D20*
D03*
X952500Y949325D02*
G54D20*
D03*
X949325Y949325D02*
G54D20*
D03*
X946150Y946150D02*
G54D20*
D03*
X942975Y946150D02*
G54D20*
D03*
X939800Y949325D02*
G54D20*
D03*
X936625Y949325D02*
G54D20*
D03*
X933450Y949325D02*
G54D20*
D03*
X930275Y949325D02*
G54D20*
D03*
X927100Y949325D02*
G54D20*
D03*
X923925Y946150D02*
G54D20*
D03*
X908050Y974725D02*
G54D20*
D03*
X908050Y971550D02*
G54D20*
D03*
X908050Y968375D02*
G54D20*
D03*
X904875Y968375D02*
G54D20*
D03*
X904875Y974725D02*
G54D20*
D03*
X901700Y974725D02*
G54D20*
D03*
X901700Y977900D02*
G54D20*
D03*
X901700Y981075D02*
G54D20*
D03*
X898525Y981075D02*
G54D20*
D03*
X895350Y981075D02*
G54D20*
D03*
X895350Y977900D02*
G54D20*
D03*
X895350Y974725D02*
G54D20*
D03*
X892175Y974725D02*
G54D20*
D03*
X889000Y974725D02*
G54D20*
D03*
X889000Y971550D02*
G54D20*
D03*
X889000Y968375D02*
G54D20*
D03*
X892175Y968375D02*
G54D20*
D03*
X895350Y968375D02*
G54D20*
D03*
X901700Y968375D02*
G54D20*
D03*
X901700Y965200D02*
G54D20*
D03*
X901700Y962025D02*
G54D20*
D03*
X898525Y962025D02*
G54D20*
D03*
X895350Y962025D02*
G54D20*
D03*
X895350Y965200D02*
G54D20*
D03*
X946150Y974725D02*
G54D20*
D03*
X939800Y974725D02*
G54D20*
D03*
X936625Y971550D02*
G54D20*
D03*
X920750Y955675D02*
G54D20*
D03*
X917575Y952500D02*
G54D20*
D03*
X917575Y946150D02*
G54D20*
D03*
X920750Y936625D02*
G54D20*
D03*
X917575Y936625D02*
G54D20*
D03*
X914400Y936625D02*
G54D20*
D03*
X911225Y936625D02*
G54D20*
D03*
X908050Y936625D02*
G54D20*
D03*
X914400Y933450D02*
G54D20*
D03*
X914400Y930275D02*
G54D20*
D03*
X914400Y927100D02*
G54D20*
D03*
X914400Y923925D02*
G54D20*
D03*
X914400Y920750D02*
G54D20*
D03*
X917575Y917575D02*
G54D20*
D03*
X920750Y917575D02*
G54D20*
D03*
X923925Y920750D02*
G54D20*
D03*
X904875Y917575D02*
G54D20*
D03*
X901700Y920750D02*
G54D20*
D03*
X901700Y923925D02*
G54D20*
D03*
X901700Y927100D02*
G54D20*
D03*
X901700Y930275D02*
G54D20*
D03*
X898525Y917575D02*
G54D20*
D03*
X895350Y917575D02*
G54D20*
D03*
X892175Y917575D02*
G54D20*
D03*
X892175Y920750D02*
G54D20*
D03*
X892175Y923925D02*
G54D20*
D03*
X892175Y927100D02*
G54D20*
D03*
X892175Y930275D02*
G54D20*
D03*
X885825Y933450D02*
G54D20*
D03*
X885825Y927100D02*
G54D20*
D03*
X885825Y923925D02*
G54D20*
D03*
X885825Y920750D02*
G54D20*
D03*
X885825Y917575D02*
G54D20*
D03*
X879475Y920750D02*
G54D20*
D03*
X879475Y923925D02*
G54D20*
D03*
X879475Y927100D02*
G54D20*
D03*
X876300Y930275D02*
G54D20*
D03*
X873125Y930275D02*
G54D20*
D03*
X876300Y917575D02*
G54D20*
D03*
X873125Y917575D02*
G54D20*
D03*
X869950Y917575D02*
G54D20*
D03*
X869950Y930275D02*
G54D20*
D03*
X863600Y920750D02*
G54D20*
D03*
X863600Y923925D02*
G54D20*
D03*
X863600Y927100D02*
G54D20*
D03*
X860425Y930275D02*
G54D20*
D03*
X857250Y930275D02*
G54D20*
D03*
X854075Y930275D02*
G54D20*
D03*
X860425Y917575D02*
G54D20*
D03*
X857250Y917575D02*
G54D20*
D03*
X854075Y917575D02*
G54D20*
D03*
X850900Y927100D02*
G54D20*
D03*
X850900Y923925D02*
G54D20*
D03*
X854075Y923925D02*
G54D20*
D03*
X857250Y923925D02*
G54D20*
D03*
X860425Y923925D02*
G54D20*
D03*
X952500Y936625D02*
G54D20*
D03*
X949325Y933450D02*
G54D20*
D03*
X946150Y936625D02*
G54D20*
D03*
X949325Y939800D02*
G54D20*
D03*
X939800Y933450D02*
G54D20*
D03*
X962025Y942975D02*
G54D20*
D03*
X933450Y942975D02*
G54D20*
D03*
X949325Y923925D02*
G54D20*
D03*
X965200Y939800D02*
G54D20*
D03*
X904875Y955675D02*
G54D20*
D03*
X901700Y955675D02*
G54D20*
D03*
X898525Y955675D02*
G54D20*
D03*
X895350Y955675D02*
G54D20*
D03*
X892175Y955675D02*
G54D20*
D03*
X892175Y952500D02*
G54D20*
D03*
X892175Y949325D02*
G54D20*
D03*
X895350Y946150D02*
G54D20*
D03*
X898525Y942975D02*
G54D20*
D03*
X901700Y939800D02*
G54D20*
D03*
X889000Y962025D02*
G54D20*
D03*
X889000Y958850D02*
G54D20*
D03*
X885825Y958850D02*
G54D20*
D03*
X885825Y962025D02*
G54D20*
D03*
X882650Y955675D02*
G54D20*
D03*
X879475Y955675D02*
G54D20*
D03*
X876300Y955675D02*
G54D20*
D03*
X873125Y955675D02*
G54D20*
D03*
X869950Y955675D02*
G54D20*
D03*
X882650Y949325D02*
G54D20*
D03*
X879475Y949325D02*
G54D20*
D03*
X876300Y949325D02*
G54D20*
D03*
X873125Y949325D02*
G54D20*
D03*
X869950Y949325D02*
G54D20*
D03*
X869950Y946150D02*
G54D20*
D03*
X873125Y942975D02*
G54D20*
D03*
X876300Y939800D02*
G54D20*
D03*
X882650Y939800D02*
G54D20*
D03*
X879475Y939800D02*
G54D20*
D03*
X863600Y955675D02*
G54D20*
D03*
X860425Y955675D02*
G54D20*
D03*
X857250Y955675D02*
G54D20*
D03*
X854075Y955675D02*
G54D20*
D03*
X850900Y955675D02*
G54D20*
D03*
X850900Y952500D02*
G54D20*
D03*
X854075Y949325D02*
G54D20*
D03*
X857250Y946150D02*
G54D20*
D03*
X860425Y942975D02*
G54D20*
D03*
X863600Y939800D02*
G54D20*
D03*
X854075Y942975D02*
G54D20*
D03*
X850900Y939800D02*
G54D20*
D03*
X942975Y968375D02*
G54D20*
D03*
X946150Y965200D02*
G54D20*
D03*
G54D21*
X876808Y969644D02*
X874808Y968533D01*
X874142Y967422D01*
X874142Y965200D01*
G54D21*
X879475Y965200D02*
X879475Y974089D01*
X876142Y974089D01*
X874808Y973533D01*
X874142Y972422D01*
X874142Y971311D01*
X874808Y970200D01*
X876142Y969644D01*
X879475Y969644D01*
G54D21*
X867698Y965756D02*
X868765Y965200D01*
X870098Y965200D01*
X871431Y965756D01*
X871698Y966867D01*
X871698Y968756D01*
X871031Y969867D01*
X869698Y970200D01*
X868365Y969867D01*
X867698Y969089D01*
X867698Y967978D01*
X871698Y967978D01*
G54D21*
X865254Y970200D02*
X862587Y965200D01*
X859921Y970200D01*
G54D21*
X857477Y965200D02*
X857477Y965200D01*
G54D21*
X849700Y965200D02*
X855033Y965200D01*
X855033Y965756D01*
X854366Y966867D01*
X850366Y970200D01*
X849700Y971311D01*
X849700Y972422D01*
X850366Y973533D01*
X851700Y974089D01*
X853033Y974089D01*
X854366Y973533D01*
X855033Y972422D01*
G54D21*
X847256Y965200D02*
X847256Y965200D01*
G54D21*
X839479Y972422D02*
X839479Y966867D01*
X840145Y965756D01*
X841479Y965200D01*
X842812Y965200D01*
X844145Y965756D01*
X844812Y966867D01*
X844812Y972422D01*
X844145Y973533D01*
X842812Y974089D01*
X841479Y974089D01*
X840145Y973533D01*
X839479Y972422D01*
X889000Y374650D02*
G54D19*
D03*
X914400Y374650D02*
G54D19*
D03*
X939800Y374650D02*
G54D19*
D03*
X965200Y374650D02*
G54D19*
D03*
X889000Y304800D02*
G54D19*
D03*
X914400Y304800D02*
G54D19*
D03*
X939800Y304800D02*
G54D19*
D03*
X965200Y304800D02*
G54D19*
D03*
X698500Y304800D02*
G54D19*
D03*
X723900Y304800D02*
G54D19*
D03*
X749300Y304800D02*
G54D19*
D03*
X774700Y304800D02*
G54D19*
D03*
X698500Y234950D02*
G54D19*
D03*
X723900Y234950D02*
G54D19*
D03*
X749300Y234950D02*
G54D19*
D03*
X774700Y234950D02*
G54D19*
D03*
X889000Y234950D02*
G54D19*
D03*
X914400Y234950D02*
G54D19*
D03*
X939800Y234950D02*
G54D19*
D03*
X965200Y234950D02*
G54D19*
D03*
X698500Y641350D02*
G54D19*
D03*
X698500Y666750D02*
G54D19*
D03*
G54D22*
X889000Y374650D02*
X889000Y234950D01*
G54D22*
X914400Y374650D02*
X914400Y234950D01*
G54D22*
X939800Y374650D02*
X939800Y234950D01*
G54D22*
X965200Y374650D02*
X965200Y234950D01*
X698500Y666750D02*
G54D19*
D03*
X949325Y917575D02*
G54D20*
D03*
X974725Y942975D02*
G54D20*
D03*
G36*
X956200Y243950D02*
X974200Y243950D01*
X974200Y225950D01*
X956200Y225950D01*
X956200Y243950D01*
G37*
G36*
X765700Y313800D02*
X783700Y313800D01*
X783700Y295800D01*
X765700Y295800D01*
X765700Y313800D01*
G37*
G36*
X765700Y243950D02*
X783700Y243950D01*
X783700Y225950D01*
X765700Y225950D01*
X765700Y243950D01*
G37*
G36*
X956200Y313800D02*
X974200Y313800D01*
X974200Y295800D01*
X956200Y295800D01*
X956200Y313800D01*
G37*
G36*
X956200Y383650D02*
X974200Y383650D01*
X974200Y365650D01*
X956200Y365650D01*
X956200Y383650D01*
G37*
G54D17*
X914400Y234950D02*
X914400Y215900D01*
X908050Y209550D01*
X730250Y209550D01*
X723900Y215900D01*
X723900Y234950D01*
G54D17*
X698500Y304800D02*
X698500Y317500D01*
X711200Y330200D01*
X889000Y330200D01*
G36*
X963741Y722850D02*
X981741Y722850D01*
X981741Y686850D01*
X963741Y686850D01*
X963741Y722850D01*
G37*
G36*
X897965Y524400D02*
X892700Y529665D01*
X892700Y537135D01*
X897965Y542400D01*
X905435Y542400D01*
X910700Y537135D01*
X910700Y529665D01*
X905435Y524400D01*
X897965Y524400D01*
G37*
G36*
X897965Y549800D02*
X892700Y555065D01*
X892700Y562535D01*
X897965Y567800D01*
X905435Y567800D01*
X910700Y562535D01*
X910700Y555065D01*
X905435Y549800D01*
X897965Y549800D01*
G37*
G36*
X897965Y575200D02*
X892700Y580465D01*
X892700Y587935D01*
X897965Y593200D01*
X905435Y593200D01*
X910700Y587935D01*
X910700Y580465D01*
X905435Y575200D01*
X897965Y575200D01*
G37*
G36*
X897965Y549800D02*
X892700Y555065D01*
X892700Y562535D01*
X897965Y567800D01*
X905435Y567800D01*
X910700Y562535D01*
X910700Y555065D01*
X905435Y549800D01*
X897965Y549800D01*
G37*
X965200Y647700D02*
G54D19*
D03*
X965200Y622300D02*
G54D19*
D03*
X965200Y558800D02*
G54D19*
D03*
X965200Y533400D02*
G54D19*
D03*
X698500Y552450D02*
G54D19*
D03*
X698500Y577850D02*
G54D19*
D03*
X698500Y463550D02*
G54D19*
D03*
X698500Y488950D02*
G54D19*
D03*
G54D22*
X781050Y762000D02*
X863600Y762000D01*
X901700Y723900D01*
X901700Y584200D01*
X698500Y374650D02*
G54D19*
D03*
X698500Y400050D02*
G54D19*
D03*
X698500Y400050D02*
G54D19*
D03*
X965200Y469900D02*
G54D19*
D03*
X965200Y444500D02*
G54D19*
D03*
X965200Y444500D02*
G54D19*
D03*
X731838Y158750D02*
G54D23*
D03*
X931862Y158750D02*
G54D23*
D03*
G54D22*
X698500Y488950D02*
X920750Y488950D01*
X965200Y533400D01*
G54D22*
X972741Y704850D02*
X972741Y786209D01*
X946150Y812800D01*
X781050Y812800D01*
M02*
