%FSLAX34Y34*%
%MOMM*%
%LNCOPPER_BOTTOM*%
G71*
G01*
%ADD10C, 0.11*%
%ADD11C, 0.10*%
%ADD12C, 0.15*%
%LPD*%
G54D10*
X81578Y845817D02*
X81578Y840484D01*
G54D10*
X77689Y832707D02*
X77689Y838040D01*
X78244Y838040D01*
X79355Y837374D01*
X82689Y833374D01*
X83800Y832707D01*
X84911Y832707D01*
X86022Y833374D01*
X86578Y834707D01*
X86578Y836040D01*
X86022Y837374D01*
X84911Y838040D01*
G54D10*
X77689Y826263D02*
X86578Y826263D01*
X81022Y830263D01*
X79911Y830263D01*
X79911Y824930D01*
G54D10*
X86578Y822486D02*
X77689Y819153D01*
X86578Y815820D01*
G54D10*
X81578Y813375D02*
X81578Y808042D01*
G54D10*
X83800Y810709D02*
X79355Y810709D01*
G54D11*
X152400Y927100D02*
X152400Y977900D01*
X50800Y977900D01*
X50800Y927100D01*
G54D11*
X152400Y927100D02*
X152400Y889000D01*
X50800Y889000D01*
X50800Y927100D01*
G54D11*
X139700Y977900D02*
X139700Y965200D01*
X114300Y965200D01*
X114300Y977900D01*
G54D11*
X88900Y977900D02*
X88900Y965200D01*
X63500Y965200D01*
X63500Y977900D01*
G54D11*
X12700Y793750D02*
X73025Y793750D01*
G54D11*
X12700Y869950D02*
X73025Y869950D01*
X73025Y793750D01*
G54D11*
X12700Y793750D02*
X12700Y869950D01*
G54D11*
X12700Y819150D02*
X19050Y819150D01*
X19050Y844550D01*
X12700Y844550D01*
G54D11*
X12700Y704850D02*
X73025Y704850D01*
G54D11*
X12700Y781050D02*
X73025Y781050D01*
X73025Y704850D01*
G54D11*
X12700Y704850D02*
X12700Y781050D01*
G54D11*
X12700Y730250D02*
X19050Y730250D01*
X19050Y755650D01*
X12700Y755650D01*
G54D11*
X107950Y839788D02*
X107950Y735013D01*
X273050Y735013D01*
X273050Y839788D01*
X107950Y839788D01*
G54D11*
X107950Y825500D02*
X133350Y825500D01*
X133350Y749300D01*
X107950Y749300D01*
G54D10*
X159622Y807467D02*
X154067Y807467D01*
X152956Y808133D01*
X152400Y809467D01*
X152400Y810800D01*
X152956Y812133D01*
X154067Y812800D01*
X159622Y812800D01*
X160734Y812133D01*
X161289Y810800D01*
X161289Y809467D01*
X160733Y808133D01*
X159622Y807467D01*
G54D10*
X152400Y805023D02*
X161289Y805023D01*
G54D10*
X155178Y805023D02*
X161289Y799690D01*
G54D10*
X156845Y803023D02*
X152400Y799690D01*
G54D10*
X152400Y797246D02*
X161289Y797246D01*
G54D10*
X156289Y794802D02*
X156289Y789469D01*
G54D10*
X161289Y787025D02*
X161289Y781692D01*
X160178Y782358D01*
X158511Y783692D01*
X156289Y785025D01*
X154622Y785692D01*
X152400Y785692D01*
G54D10*
X156845Y775915D02*
X156845Y777248D01*
X157400Y778581D01*
X158511Y779248D01*
X159622Y779248D01*
X160734Y778581D01*
X161289Y777248D01*
X161289Y775915D01*
X160733Y774581D01*
X159622Y773915D01*
X158511Y773915D01*
X157400Y774581D01*
X156845Y775915D01*
X156289Y774581D01*
X155178Y773915D01*
X154067Y773915D01*
X152956Y774581D01*
X152400Y775915D01*
X152400Y777248D01*
X152956Y778581D01*
X154067Y779248D01*
X155178Y779248D01*
X156289Y778581D01*
X156845Y777248D01*
G54D10*
X154067Y771471D02*
X152956Y770804D01*
X152400Y769471D01*
X152400Y768138D01*
X152956Y766804D01*
X154067Y766138D01*
X155178Y766138D01*
X156289Y766804D01*
X156845Y768138D01*
X156845Y769471D01*
X157400Y770804D01*
X158511Y771471D01*
X159622Y771471D01*
X160733Y770804D01*
X161289Y769471D01*
X161289Y768138D01*
X160734Y766804D01*
X159622Y766138D01*
G54D10*
X156845Y761027D02*
X155733Y759027D01*
X154622Y758361D01*
X152400Y758361D01*
G54D10*
X152400Y763694D02*
X161289Y763694D01*
X161289Y760361D01*
X160733Y759027D01*
X159622Y758361D01*
X158511Y758361D01*
X157400Y759027D01*
X156845Y760361D01*
X156845Y763694D01*
G54D10*
X146922Y807864D02*
X141367Y807864D01*
X140256Y808530D01*
X139700Y809864D01*
X139700Y811197D01*
X140256Y812530D01*
X141367Y813197D01*
X146922Y813197D01*
X148034Y812530D01*
X148589Y811197D01*
X148589Y809864D01*
X148034Y808530D01*
X146922Y807864D01*
G54D10*
X144145Y784733D02*
X144145Y782067D01*
X141367Y782067D01*
X140256Y782733D01*
X139700Y784067D01*
X139700Y785400D01*
X140256Y786733D01*
X141367Y787400D01*
X146922Y787400D01*
X148034Y786733D01*
X148589Y785400D01*
X148589Y784067D01*
X148034Y782733D01*
X146922Y782067D01*
G54D10*
X139700Y762000D02*
X148589Y762000D01*
G54D11*
X78184Y883444D02*
X151209Y883444D01*
X151209Y850106D01*
X78184Y850106D01*
X78184Y883444D01*
G54D11*
X310158Y859631D02*
X310158Y847130D01*
X178594Y847130D01*
X178594Y859631D01*
G54D11*
X310158Y908844D02*
X310158Y987028D01*
X178594Y987028D01*
X178594Y908844D01*
G54D10*
X275274Y872331D02*
X284162Y875664D01*
X275274Y878998D01*
G54D10*
X282496Y886776D02*
X283607Y886109D01*
X284162Y884776D01*
X284162Y883442D01*
X283607Y882109D01*
X282496Y881442D01*
X276940Y881442D01*
X275829Y882109D01*
X275274Y883442D01*
X275274Y884776D01*
X275829Y886109D01*
X276940Y886776D01*
G54D10*
X282496Y894553D02*
X283607Y893886D01*
X284162Y892553D01*
X284162Y891219D01*
X283607Y889886D01*
X282496Y889219D01*
X276940Y889219D01*
X275829Y889886D01*
X275274Y891219D01*
X275274Y892553D01*
X275829Y893886D01*
X276940Y894553D01*
G54D10*
X258762Y872331D02*
X249874Y872331D01*
X249874Y875664D01*
X250429Y876998D01*
X251540Y877665D01*
X257096Y877665D01*
X258207Y876998D01*
X258762Y875665D01*
X258762Y872331D01*
G54D10*
X254874Y880108D02*
X254874Y885442D01*
G54D10*
X239712Y872331D02*
X230824Y872331D01*
X230824Y875664D01*
X231379Y876998D01*
X232490Y877665D01*
X238046Y877665D01*
X239157Y876998D01*
X239712Y875664D01*
X239712Y872331D01*
G54D10*
X235824Y880108D02*
X235824Y885442D01*
G54D10*
X233602Y882775D02*
X238046Y882775D01*
G54D10*
X209868Y874998D02*
X209868Y877665D01*
X212646Y877665D01*
X213757Y876998D01*
X214312Y875665D01*
X214312Y874331D01*
X213757Y872998D01*
X212646Y872331D01*
X207090Y872331D01*
X205979Y872998D01*
X205424Y874331D01*
X205424Y875664D01*
X205979Y876998D01*
X207090Y877665D01*
G54D10*
X214312Y880108D02*
X205424Y880108D01*
X214312Y885442D01*
X205424Y885442D01*
G54D10*
X214312Y887885D02*
X205424Y887885D01*
X205424Y891219D01*
X205979Y892552D01*
X207090Y893219D01*
X212646Y893219D01*
X213757Y892552D01*
X214312Y891219D01*
X214312Y887885D01*
G54D10*
X81578Y769617D02*
X81578Y764284D01*
G54D10*
X77689Y756507D02*
X77689Y761840D01*
X78244Y761840D01*
X79355Y761174D01*
X82689Y757174D01*
X83800Y756507D01*
X84911Y756507D01*
X86022Y757174D01*
X86578Y758507D01*
X86578Y759840D01*
X86022Y761174D01*
X84911Y761840D01*
G54D10*
X77689Y750063D02*
X86578Y750063D01*
X81022Y754063D01*
X79911Y754063D01*
X79911Y748730D01*
G54D10*
X86578Y746286D02*
X77689Y742953D01*
X86578Y739620D01*
G54D10*
X81578Y737175D02*
X81578Y731842D01*
G54D10*
X83800Y734509D02*
X79355Y734509D01*
G54D12*
X9550Y935150D02*
X9550Y957150D01*
X47550Y957150D01*
X47550Y935150D01*
X9550Y935150D01*
G54D12*
X9550Y960550D02*
X9550Y982550D01*
X47550Y982550D01*
X47550Y960550D01*
X9550Y960550D01*
G54D11*
X50205Y881261D02*
X6945Y881261D01*
X6945Y924520D01*
X50205Y924520D01*
X50205Y881261D01*
G54D11*
G75*
G01X8605Y903108D02*
G03X8605Y903108I20000J0D01*
G01*
G54D10*
X21630Y893247D02*
X16296Y893247D01*
G54D10*
X18963Y891025D02*
X18963Y895469D01*
G54D10*
X21233Y913488D02*
X15900Y913488D01*
G54D11*
X181372Y713184D02*
X98028Y713184D01*
X98028Y629841D01*
X181372Y629841D01*
X181372Y713184D01*
G54D11*
G75*
G01X179700Y671512D02*
G03X179700Y671512I-40000J0D01*
G01*
G54D10*
X159544Y690086D02*
X164877Y690086D01*
G54D10*
X161925Y651192D02*
X167258Y651192D01*
G54D10*
X164592Y653414D02*
X164592Y648970D01*
G54D11*
X203200Y400050D02*
X203200Y339725D01*
G54D11*
X330200Y400050D02*
X330200Y339725D01*
X203200Y339725D01*
G54D11*
X203200Y400050D02*
X330200Y400050D01*
G54D11*
X228600Y400050D02*
X228600Y393700D01*
X304800Y393700D01*
X304800Y400050D01*
G54D11*
X203200Y330200D02*
X203200Y269875D01*
G54D11*
X330200Y330200D02*
X330200Y269875D01*
X203200Y269875D01*
G54D11*
X203200Y330200D02*
X330200Y330200D01*
G54D11*
X228600Y330200D02*
X228600Y323850D01*
X304800Y323850D01*
X304800Y330200D01*
G54D11*
X12700Y330200D02*
X12700Y269875D01*
G54D11*
X139700Y330200D02*
X139700Y269875D01*
X12700Y269875D01*
G54D11*
X12700Y330200D02*
X139700Y330200D01*
G54D11*
X38100Y330200D02*
X38100Y323850D01*
X114300Y323850D01*
X114300Y330200D01*
G54D11*
X12700Y260350D02*
X12700Y200025D01*
G54D11*
X139700Y260350D02*
X139700Y200025D01*
X12700Y200025D01*
G54D11*
X12700Y260350D02*
X139700Y260350D01*
G54D11*
X38100Y260350D02*
X38100Y254000D01*
X114300Y254000D01*
X114300Y260350D01*
G54D11*
X203200Y260350D02*
X203200Y200025D01*
G54D11*
X330200Y260350D02*
X330200Y200025D01*
X203200Y200025D01*
G54D11*
X203200Y260350D02*
X330200Y260350D01*
G54D11*
X228600Y260350D02*
X228600Y254000D01*
X304800Y254000D01*
X304800Y260350D01*
G54D11*
X12700Y615950D02*
X73025Y615950D01*
G54D11*
X12700Y692150D02*
X73025Y692150D01*
X73025Y615950D01*
G54D11*
X12700Y615950D02*
X12700Y692150D01*
G54D11*
X12700Y641350D02*
X19050Y641350D01*
X19050Y666750D01*
X12700Y666750D01*
G54D10*
X81281Y669926D02*
X81281Y664592D01*
G54D10*
X86281Y656815D02*
X86281Y662149D01*
X82392Y662149D01*
X82392Y661482D01*
X82948Y660149D01*
X82948Y658815D01*
X82392Y657482D01*
X81281Y656815D01*
X79059Y656815D01*
X77948Y657482D01*
X77392Y658815D01*
X77392Y660149D01*
X77948Y661482D01*
X79059Y662149D01*
G54D10*
X86281Y654372D02*
X77392Y651038D01*
X86281Y647705D01*
G54D10*
X81281Y645261D02*
X81281Y639927D01*
G54D10*
X83503Y642594D02*
X79059Y642594D01*
G54D10*
X187961Y349250D02*
X187961Y354583D01*
X196850Y349250D01*
X196850Y354583D01*
G54D10*
X196850Y359604D02*
X187961Y359604D01*
X193517Y362937D01*
X187961Y366271D01*
X196850Y366271D01*
G54D10*
X195517Y372715D02*
X193294Y372715D01*
X192183Y372048D01*
X191850Y370715D01*
X192183Y369382D01*
X193294Y368715D01*
X195517Y368715D01*
X196628Y369382D01*
X196850Y370715D01*
X196628Y372048D01*
X195517Y372715D01*
G54D10*
X187961Y376492D02*
X196294Y376492D01*
X196850Y377159D01*
X196628Y377826D01*
G54D10*
X191850Y375159D02*
X191850Y377826D01*
G54D10*
X195517Y384270D02*
X193294Y384270D01*
X192183Y383603D01*
X191850Y382270D01*
X192183Y380937D01*
X193294Y380270D01*
X195517Y380270D01*
X196628Y380937D01*
X196850Y382270D01*
X196628Y383603D01*
X195517Y384270D01*
G54D10*
X196850Y386714D02*
X191850Y386714D01*
G54D10*
X192961Y386714D02*
X191850Y388047D01*
X191850Y389381D01*
G54D10*
X196850Y247650D02*
X187961Y247650D01*
X187961Y250983D01*
X188517Y252317D01*
X189628Y252983D01*
X190739Y252983D01*
X191850Y252317D01*
X192406Y250983D01*
X192406Y247650D01*
G54D10*
X192406Y255427D02*
X191850Y256760D01*
X191850Y258360D01*
X192961Y259427D01*
X196850Y259427D01*
G54D10*
X195183Y259427D02*
X194072Y258760D01*
X193850Y257427D01*
X194072Y256094D01*
X195183Y255427D01*
X196294Y255694D01*
X196850Y256760D01*
X196850Y257427D01*
X196850Y257694D01*
X196294Y258760D01*
X195183Y259427D01*
G54D10*
X196850Y261871D02*
X191850Y261871D01*
G54D10*
X192961Y261871D02*
X191850Y263204D01*
X191850Y264538D01*
G54D10*
X192406Y266982D02*
X191850Y268315D01*
X191850Y269915D01*
X192961Y270982D01*
X196850Y270982D01*
G54D10*
X195183Y270982D02*
X194072Y270315D01*
X193850Y268982D01*
X194072Y267649D01*
X195183Y266982D01*
X196294Y267249D01*
X196850Y268315D01*
X196850Y268982D01*
X196850Y269249D01*
X196294Y270315D01*
X195183Y270982D01*
G54D10*
X196850Y273426D02*
X187961Y273426D01*
G54D10*
X196850Y275870D02*
X187961Y275870D01*
G54D10*
X196294Y282314D02*
X196850Y281247D01*
X196850Y279914D01*
X196294Y278581D01*
X195183Y278314D01*
X193294Y278314D01*
X192183Y278981D01*
X191850Y280314D01*
X192183Y281647D01*
X192961Y282314D01*
X194072Y282314D01*
X194072Y278314D01*
G54D10*
X196850Y284758D02*
X187961Y284758D01*
G54D10*
X147717Y280988D02*
X146606Y280321D01*
X146050Y278988D01*
X146050Y277654D01*
X146606Y276321D01*
X147717Y275654D01*
X148828Y275654D01*
X149939Y276321D01*
X150494Y277654D01*
X150494Y278988D01*
X151050Y280321D01*
X152161Y280988D01*
X153272Y280988D01*
X154383Y280321D01*
X154939Y278988D01*
X154939Y277654D01*
X154383Y276321D01*
X153272Y275654D01*
G54D10*
X146606Y269210D02*
X146050Y270277D01*
X146050Y271610D01*
X146606Y272944D01*
X147717Y273210D01*
X149606Y273210D01*
X150717Y272544D01*
X151050Y271210D01*
X150717Y269877D01*
X149939Y269210D01*
X148828Y269210D01*
X148828Y273210D01*
G54D10*
X146050Y266766D02*
X151050Y266766D01*
G54D10*
X149939Y266766D02*
X151050Y265433D01*
X151050Y264100D01*
G54D10*
X146050Y261656D02*
X151050Y261656D01*
G54D10*
X152717Y261656D02*
X152717Y261656D01*
G54D10*
X150494Y259212D02*
X151050Y257878D01*
X151050Y256278D01*
X149939Y255212D01*
X146050Y255212D01*
G54D10*
X147717Y255212D02*
X148828Y255878D01*
X149050Y257212D01*
X148828Y258545D01*
X147717Y259212D01*
X146606Y258945D01*
X146050Y257878D01*
X146050Y257212D01*
X146050Y256945D01*
X146606Y255878D01*
X147717Y255212D01*
G54D10*
X146050Y252768D02*
X154939Y252768D01*
G54D11*
X193675Y288925D02*
X193675Y295275D01*
X200025Y295275D01*
G54D11*
X193675Y244475D02*
X193675Y238125D01*
X200025Y238125D01*
G54D11*
X149225Y288925D02*
X149225Y295275D01*
X142875Y295275D01*
G54D11*
X149225Y244475D02*
X149225Y238125D01*
X142875Y238125D01*
G54D11*
X323056Y688181D02*
X250031Y688181D01*
X250031Y721519D01*
X323056Y721519D01*
X323056Y688181D01*
G54D12*
X300150Y828650D02*
X322150Y828650D01*
X322150Y790650D01*
X300150Y790650D01*
X300150Y828650D01*
G54D12*
X300150Y777850D02*
X322150Y777850D01*
X322150Y739850D01*
X300150Y739850D01*
X300150Y777850D01*
G54D11*
X254000Y506412D02*
X254000Y611187D01*
X88900Y611188D01*
X88900Y506412D01*
X254000Y506412D01*
G54D11*
X254000Y520700D02*
X228600Y520700D01*
X228600Y596900D01*
X254000Y596900D01*
G54D10*
X202328Y538733D02*
X207883Y538733D01*
X208994Y538067D01*
X209550Y536733D01*
X209550Y535400D01*
X208994Y534067D01*
X207883Y533400D01*
X202328Y533400D01*
X201217Y534067D01*
X200661Y535400D01*
X200661Y536733D01*
X201217Y538067D01*
X202328Y538733D01*
G54D10*
X209550Y541177D02*
X200661Y541177D01*
G54D10*
X206772Y541177D02*
X200661Y546510D01*
G54D10*
X205106Y543177D02*
X209550Y546510D01*
G54D10*
X209550Y548954D02*
X200661Y548954D01*
G54D10*
X205661Y551398D02*
X205661Y556731D01*
G54D10*
X200661Y559175D02*
X200661Y564508D01*
X201772Y563842D01*
X203439Y562508D01*
X205661Y561175D01*
X207328Y560508D01*
X209550Y560508D01*
G54D10*
X205106Y570285D02*
X205106Y568952D01*
X204550Y567619D01*
X203439Y566952D01*
X202328Y566952D01*
X201217Y567619D01*
X200661Y568952D01*
X200661Y570285D01*
X201217Y571619D01*
X202328Y572285D01*
X203439Y572285D01*
X204550Y571619D01*
X205106Y570285D01*
X205661Y571619D01*
X206772Y572285D01*
X207883Y572285D01*
X208994Y571619D01*
X209550Y570285D01*
X209550Y568952D01*
X208994Y567619D01*
X207883Y566952D01*
X206772Y566952D01*
X205661Y567619D01*
X205106Y568952D01*
G54D10*
X207883Y574729D02*
X208994Y575396D01*
X209550Y576729D01*
X209550Y578062D01*
X208994Y579396D01*
X207883Y580062D01*
X206772Y580062D01*
X205661Y579396D01*
X205106Y578062D01*
X205106Y576729D01*
X204550Y575396D01*
X203439Y574729D01*
X202328Y574729D01*
X201217Y575396D01*
X200661Y576729D01*
X200661Y578062D01*
X201217Y579396D01*
X202328Y580062D01*
G54D10*
X205106Y585173D02*
X206217Y587173D01*
X207328Y587839D01*
X209550Y587839D01*
G54D10*
X209550Y582506D02*
X200661Y582506D01*
X200661Y585839D01*
X201217Y587173D01*
X202328Y587839D01*
X203439Y587839D01*
X204550Y587173D01*
X205106Y585839D01*
X205106Y582506D01*
G54D10*
X215028Y538337D02*
X220583Y538336D01*
X221694Y537670D01*
X222250Y536337D01*
X222250Y535003D01*
X221694Y533670D01*
X220583Y533003D01*
X215028Y533003D01*
X213917Y533670D01*
X213361Y535003D01*
X213361Y536336D01*
X213917Y537670D01*
X215028Y538337D01*
G54D10*
X217806Y561467D02*
X217806Y564133D01*
X220583Y564133D01*
X221694Y563467D01*
X222250Y562133D01*
X222250Y560800D01*
X221694Y559467D01*
X220583Y558800D01*
X215028Y558800D01*
X213917Y559467D01*
X213361Y560800D01*
X213361Y562133D01*
X213917Y563467D01*
X215028Y564133D01*
G54D10*
X222250Y584200D02*
X213361Y584200D01*
G54D11*
X330200Y673100D02*
X269875Y673100D01*
G54D11*
X330200Y596900D02*
X269875Y596900D01*
X269875Y673100D01*
G54D11*
X330200Y673100D02*
X330200Y596900D01*
G54D11*
X330200Y647700D02*
X323850Y647700D01*
X323850Y622300D01*
X330200Y622300D01*
G54D11*
X330200Y584200D02*
X269875Y584200D01*
G54D11*
X330200Y508000D02*
X269875Y508000D01*
X269875Y584200D01*
G54D11*
X330200Y584200D02*
X330200Y508000D01*
G54D11*
X330200Y558800D02*
X323850Y558800D01*
X323850Y533400D01*
X330200Y533400D01*
G54D11*
X12700Y527050D02*
X73025Y527050D01*
G54D11*
X12700Y603250D02*
X73025Y603250D01*
X73025Y527050D01*
G54D11*
X12700Y527050D02*
X12700Y603250D01*
G54D11*
X12700Y552450D02*
X19050Y552450D01*
X19050Y577850D01*
X12700Y577850D01*
G54D11*
X12700Y438150D02*
X73025Y438150D01*
G54D11*
X12700Y514350D02*
X73025Y514350D01*
X73025Y438150D01*
G54D11*
X12700Y438150D02*
X12700Y514350D01*
G54D11*
X12700Y463550D02*
X19050Y463550D01*
X19050Y488950D01*
X12700Y488950D01*
G54D10*
X81280Y594909D02*
X81280Y589576D01*
G54D10*
X77392Y587132D02*
X86280Y587132D01*
X86280Y582465D01*
G54D10*
X81836Y587132D02*
X81836Y582465D01*
G54D10*
X77392Y580021D02*
X86280Y576688D01*
X77392Y573354D01*
G54D10*
X80725Y578688D02*
X80725Y574688D01*
G54D10*
X77392Y570910D02*
X86280Y570910D01*
X77392Y565577D01*
X86280Y565577D01*
G54D10*
X82947Y563133D02*
X86280Y559800D01*
X77392Y559800D01*
G54D10*
X86280Y555356D02*
X85725Y556689D01*
X84614Y557356D01*
X79058Y557356D01*
X77947Y556689D01*
X77392Y555356D01*
G54D10*
X82947Y552912D02*
X86280Y549579D01*
X77392Y549579D01*
G54D10*
X77392Y541802D02*
X77392Y547135D01*
X77947Y547135D01*
X79058Y546468D01*
X82392Y542468D01*
X83503Y541802D01*
X84614Y541802D01*
X85725Y542468D01*
X86280Y543802D01*
X86280Y545135D01*
X85725Y546468D01*
X84614Y547135D01*
G54D10*
X86280Y539358D02*
X77392Y536025D01*
X86280Y532691D01*
G54D10*
X86280Y530247D02*
X85725Y528914D01*
X84614Y528247D01*
X79058Y528247D01*
X77947Y528914D01*
X77392Y530247D01*
G54D10*
X81280Y525803D02*
X81280Y520470D01*
G54D10*
X83503Y523136D02*
X79058Y523136D01*
G54D11*
X183356Y465931D02*
X110331Y465931D01*
X110331Y499269D01*
X183356Y499269D01*
X183356Y465931D01*
G54D10*
X262256Y674481D02*
X262256Y669148D01*
G54D10*
X264478Y671814D02*
X260033Y671814D01*
G54D10*
X258367Y666704D02*
X267256Y666704D01*
X267256Y662037D01*
G54D10*
X262811Y666704D02*
X262811Y662037D01*
G54D10*
X258367Y659593D02*
X267256Y656260D01*
X258367Y652926D01*
G54D10*
X261700Y658260D02*
X261700Y654260D01*
G54D10*
X258367Y650482D02*
X267256Y650482D01*
X258367Y645149D01*
X267256Y645149D01*
G54D10*
X263922Y642705D02*
X267256Y639372D01*
X258367Y639372D01*
G54D10*
X267256Y634928D02*
X266700Y636261D01*
X265589Y636928D01*
X260033Y636928D01*
X258922Y636261D01*
X258367Y634928D01*
G54D10*
X258367Y627151D02*
X258367Y632484D01*
X258922Y632484D01*
X260033Y631817D01*
X263367Y627817D01*
X264478Y627151D01*
X265589Y627151D01*
X266700Y627817D01*
X267256Y629151D01*
X267256Y630484D01*
X266700Y631817D01*
X265589Y632484D01*
G54D10*
X258367Y620707D02*
X267256Y620707D01*
X261700Y624707D01*
X260589Y624707D01*
X260589Y619374D01*
G54D10*
X267256Y616930D02*
X258367Y613597D01*
X267256Y610263D01*
G54D10*
X267256Y607819D02*
X266700Y606486D01*
X265589Y605819D01*
X260033Y605819D01*
X258922Y606486D01*
X258367Y607819D01*
G54D10*
X262256Y603375D02*
X262256Y598042D01*
G54D10*
X262256Y585581D02*
X262256Y580248D01*
G54D10*
X264478Y582914D02*
X260033Y582914D01*
G54D10*
X258367Y577804D02*
X267256Y577804D01*
X267256Y573137D01*
G54D10*
X262811Y577804D02*
X262811Y573137D01*
G54D10*
X258367Y570693D02*
X267256Y567360D01*
X258367Y564026D01*
G54D10*
X261700Y569360D02*
X261700Y565360D01*
G54D10*
X258367Y561582D02*
X267256Y561582D01*
X258367Y556249D01*
X267256Y556249D01*
G54D10*
X258367Y548472D02*
X258367Y553805D01*
X258922Y553805D01*
X260033Y553138D01*
X263367Y549138D01*
X264478Y548472D01*
X265589Y548472D01*
X266700Y549138D01*
X267256Y550472D01*
X267256Y551805D01*
X266700Y553138D01*
X265589Y553805D01*
G54D10*
X267256Y544028D02*
X266700Y545361D01*
X265589Y546028D01*
X260033Y546028D01*
X258922Y545361D01*
X258367Y544028D01*
G54D10*
X258367Y536251D02*
X258367Y541584D01*
X258922Y541584D01*
X260033Y540917D01*
X263367Y536917D01*
X264478Y536251D01*
X265589Y536251D01*
X266700Y536917D01*
X267256Y538251D01*
X267256Y539584D01*
X266700Y540917D01*
X265589Y541584D01*
G54D10*
X258367Y529807D02*
X267256Y529807D01*
X261700Y533807D01*
X260589Y533807D01*
X260589Y528474D01*
G54D10*
X267256Y526030D02*
X258367Y522697D01*
X267256Y519363D01*
G54D10*
X267256Y516919D02*
X266700Y515586D01*
X265589Y514919D01*
X260033Y514919D01*
X258922Y515586D01*
X258367Y516919D01*
G54D10*
X262256Y512475D02*
X262256Y507142D01*
G54D10*
X81280Y506009D02*
X81280Y500676D01*
G54D10*
X77392Y498232D02*
X86280Y498232D01*
X86280Y493565D01*
G54D10*
X81836Y498232D02*
X81836Y493565D01*
G54D10*
X77392Y491121D02*
X86280Y487788D01*
X77392Y484454D01*
G54D10*
X80725Y489788D02*
X80725Y485788D01*
G54D10*
X77392Y482010D02*
X86280Y482010D01*
X77392Y476677D01*
X86280Y476677D01*
G54D10*
X77392Y468900D02*
X77392Y474233D01*
X77947Y474233D01*
X79058Y473566D01*
X82392Y469566D01*
X83503Y468900D01*
X84614Y468900D01*
X85725Y469566D01*
X86280Y470900D01*
X86280Y472233D01*
X85725Y473566D01*
X84614Y474233D01*
G54D10*
X86280Y464456D02*
X85725Y465789D01*
X84614Y466456D01*
X79058Y466456D01*
X77947Y465789D01*
X77392Y464456D01*
G54D10*
X82947Y462012D02*
X86280Y458679D01*
X77392Y458679D01*
G54D10*
X77392Y450902D02*
X77392Y456235D01*
X77947Y456235D01*
X79058Y455568D01*
X82392Y451568D01*
X83503Y450902D01*
X84614Y450902D01*
X85725Y451568D01*
X86280Y452902D01*
X86280Y454235D01*
X85725Y455568D01*
X84614Y456235D01*
G54D10*
X86280Y448458D02*
X77392Y445125D01*
X86280Y441791D01*
G54D10*
X86280Y439347D02*
X85725Y438014D01*
X84614Y437347D01*
X79058Y437347D01*
X77947Y438014D01*
X77392Y439347D01*
G54D10*
X81280Y434903D02*
X81280Y429570D01*
G54D10*
X83503Y432236D02*
X79058Y432236D01*
G54D11*
X12700Y349250D02*
X73025Y349250D01*
G54D11*
X12700Y425450D02*
X73025Y425450D01*
X73025Y349250D01*
G54D11*
X12700Y349250D02*
X12700Y425450D01*
G54D11*
X12700Y374650D02*
X19050Y374650D01*
X19050Y400050D01*
X12700Y400050D01*
G54D10*
X81280Y398059D02*
X81280Y392726D01*
G54D10*
X82947Y390282D02*
X86280Y386949D01*
X77392Y386949D01*
G54D10*
X77392Y379172D02*
X77392Y384505D01*
X77947Y384505D01*
X79058Y383838D01*
X82392Y379838D01*
X83503Y379172D01*
X84614Y379172D01*
X85725Y379838D01*
X86280Y381172D01*
X86280Y382505D01*
X85725Y383838D01*
X84614Y384505D01*
G54D10*
X86280Y376728D02*
X77392Y373395D01*
X86280Y370061D01*
G54D10*
X81280Y367617D02*
X81280Y362284D01*
G54D10*
X83503Y364950D02*
X79058Y364950D01*
G54D12*
X225400Y430100D02*
X225400Y408100D01*
X187400Y408100D01*
X187400Y430100D01*
X225400Y430100D01*
G54D11*
X98028Y359966D02*
X181372Y359966D01*
X181372Y443309D01*
X98028Y443309D01*
X98028Y359966D01*
G54D11*
G75*
G01X99700Y401638D02*
G03X99700Y401638I40000J0D01*
G01*
G54D10*
X119856Y383064D02*
X114523Y383064D01*
G54D10*
X117475Y421958D02*
X112142Y421958D01*
G54D10*
X114808Y419736D02*
X114808Y424180D01*
G54D12*
X258650Y409650D02*
X236650Y409650D01*
X236650Y447650D01*
X258650Y447650D01*
X258650Y409650D01*
G54D11*
X330200Y495300D02*
X269875Y495300D01*
G54D11*
X330200Y419100D02*
X269875Y419100D01*
X269875Y495300D01*
G54D11*
X330200Y495300D02*
X330200Y419100D01*
G54D11*
X330200Y469900D02*
X323850Y469900D01*
X323850Y444500D01*
X330200Y444500D01*
G54D10*
X259080Y486959D02*
X259080Y481626D01*
G54D10*
X261302Y484292D02*
X256858Y484292D01*
G54D10*
X260746Y479182D02*
X264080Y475849D01*
X255191Y475849D01*
G54D10*
X255191Y468072D02*
X255191Y473405D01*
X255746Y473405D01*
X256858Y472739D01*
X260191Y468739D01*
X261302Y468072D01*
X262413Y468072D01*
X263524Y468739D01*
X264080Y470072D01*
X264080Y471405D01*
X263524Y472739D01*
X262413Y473405D01*
G54D10*
X264080Y465628D02*
X255191Y462295D01*
X264080Y458962D01*
G54D10*
X259080Y456517D02*
X259080Y451184D01*
G54D10*
X208756Y457200D02*
X212089Y453867D01*
X203200Y453867D01*
G54D10*
X203200Y446090D02*
X203200Y451423D01*
X203756Y451423D01*
X204867Y450756D01*
X208200Y446756D01*
X209311Y446090D01*
X210422Y446090D01*
X211533Y446756D01*
X212089Y448090D01*
X212089Y449423D01*
X211533Y450756D01*
X210422Y451423D01*
G54D10*
X212089Y443646D02*
X203200Y440313D01*
X212089Y436979D01*
G54D10*
X294639Y763017D02*
X294639Y768350D01*
X290750Y768350D01*
X290750Y767683D01*
X291306Y766350D01*
X291306Y765017D01*
X290750Y763683D01*
X289639Y763017D01*
X287417Y763017D01*
X286306Y763683D01*
X285750Y765017D01*
X285750Y766350D01*
X286306Y767683D01*
X287417Y768350D01*
G54D10*
X294639Y760573D02*
X285750Y757240D01*
X294639Y753906D01*
G54D10*
X19050Y165100D02*
X27939Y165100D01*
X22383Y161767D01*
X27939Y158433D01*
X19050Y158433D01*
G54D10*
X26272Y155989D02*
X27383Y155322D01*
X27939Y153989D01*
X27939Y152656D01*
X27383Y151322D01*
X26272Y150656D01*
X25161Y150656D01*
X24050Y151322D01*
X23494Y152656D01*
X22939Y151322D01*
X21828Y150656D01*
X20717Y150656D01*
X19606Y151322D01*
X19050Y152656D01*
X19050Y153989D01*
X19606Y155322D01*
X20717Y155989D01*
G54D10*
X317500Y165100D02*
X326389Y165100D01*
X320833Y161767D01*
X326389Y158433D01*
X317500Y158433D01*
G54D10*
X324722Y155989D02*
X325833Y155322D01*
X326389Y153989D01*
X326389Y152656D01*
X325833Y151322D01*
X324722Y150656D01*
X323611Y150656D01*
X322500Y151322D01*
X321944Y152656D01*
X321389Y151322D01*
X320278Y150656D01*
X319167Y150656D01*
X318056Y151322D01*
X317500Y152656D01*
X317500Y153989D01*
X318056Y155322D01*
X319167Y155989D01*
G54D11*
X157162Y268288D02*
X184150Y268288D01*
G54D11*
X171450Y268288D02*
X171450Y333375D01*
X192088Y333375D01*
X192088Y346075D01*
G54D10*
X411778Y845817D02*
X411778Y840484D01*
G54D10*
X407889Y832707D02*
X407889Y838040D01*
X408444Y838040D01*
X409555Y837374D01*
X412889Y833374D01*
X414000Y832707D01*
X415111Y832707D01*
X416222Y833374D01*
X416778Y834707D01*
X416778Y836040D01*
X416222Y837374D01*
X415111Y838040D01*
G54D10*
X407889Y826263D02*
X416778Y826263D01*
X411222Y830263D01*
X410111Y830263D01*
X410111Y824930D01*
G54D10*
X416778Y822486D02*
X407889Y819153D01*
X416778Y815820D01*
G54D10*
X411778Y813375D02*
X411778Y808042D01*
G54D10*
X414000Y810709D02*
X409555Y810709D01*
G54D11*
X482600Y927100D02*
X482600Y977900D01*
X381000Y977900D01*
X381000Y927100D01*
G54D11*
X482600Y927100D02*
X482600Y889000D01*
X381000Y889000D01*
X381000Y927100D01*
G54D11*
X469900Y977900D02*
X469900Y965200D01*
X444500Y965200D01*
X444500Y977900D01*
G54D11*
X419100Y977900D02*
X419100Y965200D01*
X393700Y965200D01*
X393700Y977900D01*
G54D11*
X342900Y793750D02*
X403225Y793750D01*
G54D11*
X342900Y869950D02*
X403225Y869950D01*
X403225Y793750D01*
G54D11*
X342900Y793750D02*
X342900Y869950D01*
G54D11*
X342900Y819150D02*
X349250Y819150D01*
X349250Y844550D01*
X342900Y844550D01*
G54D11*
X342900Y704850D02*
X403225Y704850D01*
G54D11*
X342900Y781050D02*
X403225Y781050D01*
X403225Y704850D01*
G54D11*
X342900Y704850D02*
X342900Y781050D01*
G54D11*
X342900Y730250D02*
X349250Y730250D01*
X349250Y755650D01*
X342900Y755650D01*
G54D11*
X438150Y839788D02*
X438150Y735013D01*
X603250Y735013D01*
X603250Y839788D01*
X438150Y839788D01*
G54D11*
X438150Y825500D02*
X463550Y825500D01*
X463550Y749300D01*
X438150Y749300D01*
G54D10*
X489822Y807467D02*
X484267Y807467D01*
X483156Y808133D01*
X482600Y809467D01*
X482600Y810800D01*
X483156Y812133D01*
X484267Y812800D01*
X489822Y812800D01*
X490934Y812133D01*
X491489Y810800D01*
X491489Y809467D01*
X490933Y808133D01*
X489822Y807467D01*
G54D10*
X482600Y805023D02*
X491489Y805023D01*
G54D10*
X485378Y805023D02*
X491489Y799690D01*
G54D10*
X487045Y803023D02*
X482600Y799690D01*
G54D10*
X482600Y797246D02*
X491489Y797246D01*
G54D10*
X486489Y794802D02*
X486489Y789469D01*
G54D10*
X491489Y787025D02*
X491489Y781692D01*
X490378Y782358D01*
X488711Y783692D01*
X486489Y785025D01*
X484822Y785692D01*
X482600Y785692D01*
G54D10*
X487045Y775915D02*
X487045Y777248D01*
X487600Y778581D01*
X488711Y779248D01*
X489822Y779248D01*
X490934Y778581D01*
X491489Y777248D01*
X491489Y775915D01*
X490933Y774581D01*
X489822Y773915D01*
X488711Y773915D01*
X487600Y774581D01*
X487045Y775915D01*
X486489Y774581D01*
X485378Y773915D01*
X484267Y773915D01*
X483156Y774581D01*
X482600Y775915D01*
X482600Y777248D01*
X483156Y778581D01*
X484267Y779248D01*
X485378Y779248D01*
X486489Y778581D01*
X487045Y777248D01*
G54D10*
X484267Y771471D02*
X483156Y770804D01*
X482600Y769471D01*
X482600Y768138D01*
X483156Y766804D01*
X484267Y766138D01*
X485378Y766138D01*
X486489Y766804D01*
X487045Y768138D01*
X487045Y769471D01*
X487600Y770804D01*
X488711Y771471D01*
X489822Y771471D01*
X490933Y770804D01*
X491489Y769471D01*
X491489Y768138D01*
X490934Y766804D01*
X489822Y766138D01*
G54D10*
X487045Y761027D02*
X485933Y759027D01*
X484822Y758361D01*
X482600Y758361D01*
G54D10*
X482600Y763694D02*
X491489Y763694D01*
X491489Y760361D01*
X490933Y759027D01*
X489822Y758361D01*
X488711Y758361D01*
X487600Y759027D01*
X487045Y760361D01*
X487045Y763694D01*
G54D10*
X477122Y807864D02*
X471567Y807864D01*
X470456Y808530D01*
X469900Y809864D01*
X469900Y811197D01*
X470456Y812530D01*
X471567Y813197D01*
X477122Y813197D01*
X478234Y812530D01*
X478789Y811197D01*
X478789Y809864D01*
X478234Y808530D01*
X477122Y807864D01*
G54D10*
X474345Y784733D02*
X474345Y782067D01*
X471567Y782067D01*
X470456Y782733D01*
X469900Y784067D01*
X469900Y785400D01*
X470456Y786733D01*
X471567Y787400D01*
X477122Y787400D01*
X478234Y786733D01*
X478789Y785400D01*
X478789Y784067D01*
X478234Y782733D01*
X477122Y782067D01*
G54D10*
X469900Y762000D02*
X478789Y762000D01*
G54D11*
X408384Y883444D02*
X481409Y883444D01*
X481409Y850106D01*
X408384Y850106D01*
X408384Y883444D01*
G54D11*
X640358Y859631D02*
X640358Y847130D01*
X508794Y847130D01*
X508794Y859631D01*
G54D11*
X640358Y908844D02*
X640358Y987028D01*
X508794Y987028D01*
X508794Y908844D01*
G54D10*
X605474Y872331D02*
X614362Y875664D01*
X605474Y878998D01*
G54D10*
X612696Y886776D02*
X613807Y886109D01*
X614362Y884776D01*
X614362Y883442D01*
X613807Y882109D01*
X612696Y881442D01*
X607140Y881442D01*
X606029Y882109D01*
X605474Y883442D01*
X605474Y884776D01*
X606029Y886109D01*
X607140Y886776D01*
G54D10*
X612696Y894553D02*
X613807Y893886D01*
X614362Y892553D01*
X614362Y891219D01*
X613807Y889886D01*
X612696Y889219D01*
X607140Y889219D01*
X606029Y889886D01*
X605474Y891219D01*
X605474Y892553D01*
X606029Y893886D01*
X607140Y894553D01*
G54D10*
X588962Y872331D02*
X580074Y872331D01*
X580074Y875664D01*
X580629Y876998D01*
X581740Y877665D01*
X587296Y877665D01*
X588407Y876998D01*
X588962Y875665D01*
X588962Y872331D01*
G54D10*
X585074Y880108D02*
X585074Y885442D01*
G54D10*
X569912Y872331D02*
X561024Y872331D01*
X561024Y875664D01*
X561579Y876998D01*
X562690Y877665D01*
X568246Y877665D01*
X569357Y876998D01*
X569912Y875664D01*
X569912Y872331D01*
G54D10*
X566024Y880108D02*
X566024Y885442D01*
G54D10*
X563802Y882775D02*
X568246Y882775D01*
G54D10*
X540068Y874998D02*
X540068Y877665D01*
X542846Y877665D01*
X543957Y876998D01*
X544512Y875665D01*
X544512Y874331D01*
X543957Y872998D01*
X542846Y872331D01*
X537290Y872331D01*
X536179Y872998D01*
X535624Y874331D01*
X535624Y875664D01*
X536179Y876998D01*
X537290Y877665D01*
G54D10*
X544512Y880108D02*
X535624Y880108D01*
X544512Y885442D01*
X535624Y885442D01*
G54D10*
X544512Y887885D02*
X535624Y887885D01*
X535624Y891219D01*
X536179Y892552D01*
X537290Y893219D01*
X542846Y893219D01*
X543957Y892552D01*
X544512Y891219D01*
X544512Y887885D01*
G54D10*
X411778Y769617D02*
X411778Y764284D01*
G54D10*
X407889Y756507D02*
X407889Y761840D01*
X408444Y761840D01*
X409555Y761174D01*
X412889Y757174D01*
X414000Y756507D01*
X415111Y756507D01*
X416222Y757174D01*
X416778Y758507D01*
X416778Y759840D01*
X416222Y761174D01*
X415111Y761840D01*
G54D10*
X407889Y750063D02*
X416778Y750063D01*
X411222Y754063D01*
X410111Y754063D01*
X410111Y748730D01*
G54D10*
X416778Y746286D02*
X407889Y742953D01*
X416778Y739620D01*
G54D10*
X411778Y737175D02*
X411778Y731842D01*
G54D10*
X414000Y734509D02*
X409555Y734509D01*
G54D12*
X339750Y935150D02*
X339750Y957150D01*
X377750Y957150D01*
X377750Y935150D01*
X339750Y935150D01*
G54D12*
X339750Y960550D02*
X339750Y982550D01*
X377750Y982550D01*
X377750Y960550D01*
X339750Y960550D01*
G54D11*
X380405Y881261D02*
X337145Y881261D01*
X337145Y924520D01*
X380405Y924520D01*
X380405Y881261D01*
G54D11*
G75*
G01X338805Y903108D02*
G03X338805Y903108I20000J0D01*
G01*
G54D10*
X351830Y893247D02*
X346496Y893247D01*
G54D10*
X349163Y891025D02*
X349163Y895469D01*
G54D10*
X351433Y913488D02*
X346100Y913488D01*
G54D11*
X511572Y713184D02*
X428228Y713184D01*
X428228Y629841D01*
X511572Y629841D01*
X511572Y713184D01*
G54D11*
G75*
G01X509900Y671512D02*
G03X509900Y671512I-40000J0D01*
G01*
G54D10*
X489744Y690086D02*
X495077Y690086D01*
G54D10*
X492125Y651192D02*
X497458Y651192D01*
G54D10*
X494792Y653414D02*
X494792Y648970D01*
G54D11*
X533400Y400050D02*
X533400Y339725D01*
G54D11*
X660400Y400050D02*
X660400Y339725D01*
X533400Y339725D01*
G54D11*
X533400Y400050D02*
X660400Y400050D01*
G54D11*
X558800Y400050D02*
X558800Y393700D01*
X635000Y393700D01*
X635000Y400050D01*
G54D11*
X533400Y330200D02*
X533400Y269875D01*
G54D11*
X660400Y330200D02*
X660400Y269875D01*
X533400Y269875D01*
G54D11*
X533400Y330200D02*
X660400Y330200D01*
G54D11*
X558800Y330200D02*
X558800Y323850D01*
X635000Y323850D01*
X635000Y330200D01*
G54D11*
X342900Y330200D02*
X342900Y269875D01*
G54D11*
X469900Y330200D02*
X469900Y269875D01*
X342900Y269875D01*
G54D11*
X342900Y330200D02*
X469900Y330200D01*
G54D11*
X368300Y330200D02*
X368300Y323850D01*
X444500Y323850D01*
X444500Y330200D01*
G54D11*
X342900Y260350D02*
X342900Y200025D01*
G54D11*
X469900Y260350D02*
X469900Y200025D01*
X342900Y200025D01*
G54D11*
X342900Y260350D02*
X469900Y260350D01*
G54D11*
X368300Y260350D02*
X368300Y254000D01*
X444500Y254000D01*
X444500Y260350D01*
G54D11*
X533400Y260350D02*
X533400Y200025D01*
G54D11*
X660400Y260350D02*
X660400Y200025D01*
X533400Y200025D01*
G54D11*
X533400Y260350D02*
X660400Y260350D01*
G54D11*
X558800Y260350D02*
X558800Y254000D01*
X635000Y254000D01*
X635000Y260350D01*
G54D11*
X342900Y615950D02*
X403225Y615950D01*
G54D11*
X342900Y692150D02*
X403225Y692150D01*
X403225Y615950D01*
G54D11*
X342900Y615950D02*
X342900Y692150D01*
G54D11*
X342900Y641350D02*
X349250Y641350D01*
X349250Y666750D01*
X342900Y666750D01*
G54D10*
X411481Y669926D02*
X411481Y664592D01*
G54D10*
X416481Y656815D02*
X416481Y662149D01*
X412592Y662149D01*
X412592Y661482D01*
X413148Y660149D01*
X413148Y658815D01*
X412592Y657482D01*
X411481Y656815D01*
X409259Y656815D01*
X408148Y657482D01*
X407592Y658815D01*
X407592Y660149D01*
X408148Y661482D01*
X409259Y662149D01*
G54D10*
X416481Y654372D02*
X407592Y651038D01*
X416481Y647705D01*
G54D10*
X411481Y645261D02*
X411481Y639927D01*
G54D10*
X413703Y642594D02*
X409259Y642594D01*
G54D10*
X518161Y349250D02*
X518161Y354583D01*
X527050Y349250D01*
X527050Y354583D01*
G54D10*
X527050Y359604D02*
X518161Y359604D01*
X523717Y362937D01*
X518161Y366271D01*
X527050Y366271D01*
G54D10*
X525717Y372715D02*
X523494Y372715D01*
X522383Y372048D01*
X522050Y370715D01*
X522383Y369382D01*
X523494Y368715D01*
X525717Y368715D01*
X526828Y369382D01*
X527050Y370715D01*
X526828Y372048D01*
X525717Y372715D01*
G54D10*
X518161Y376492D02*
X526494Y376492D01*
X527050Y377159D01*
X526828Y377826D01*
G54D10*
X522050Y375159D02*
X522050Y377826D01*
G54D10*
X525717Y384270D02*
X523494Y384270D01*
X522383Y383603D01*
X522050Y382270D01*
X522383Y380937D01*
X523494Y380270D01*
X525717Y380270D01*
X526828Y380937D01*
X527050Y382270D01*
X526828Y383603D01*
X525717Y384270D01*
G54D10*
X527050Y386714D02*
X522050Y386714D01*
G54D10*
X523161Y386714D02*
X522050Y388047D01*
X522050Y389381D01*
G54D10*
X527050Y247650D02*
X518161Y247650D01*
X518161Y250983D01*
X518717Y252317D01*
X519828Y252983D01*
X520939Y252983D01*
X522050Y252317D01*
X522606Y250983D01*
X522606Y247650D01*
G54D10*
X522606Y255427D02*
X522050Y256760D01*
X522050Y258360D01*
X523161Y259427D01*
X527050Y259427D01*
G54D10*
X525383Y259427D02*
X524272Y258760D01*
X524050Y257427D01*
X524272Y256094D01*
X525383Y255427D01*
X526494Y255694D01*
X527050Y256760D01*
X527050Y257427D01*
X527050Y257694D01*
X526494Y258760D01*
X525383Y259427D01*
G54D10*
X527050Y261871D02*
X522050Y261871D01*
G54D10*
X523161Y261871D02*
X522050Y263204D01*
X522050Y264538D01*
G54D10*
X522606Y266982D02*
X522050Y268315D01*
X522050Y269915D01*
X523161Y270982D01*
X527050Y270982D01*
G54D10*
X525383Y270982D02*
X524272Y270315D01*
X524050Y268982D01*
X524272Y267649D01*
X525383Y266982D01*
X526494Y267249D01*
X527050Y268315D01*
X527050Y268982D01*
X527050Y269249D01*
X526494Y270315D01*
X525383Y270982D01*
G54D10*
X527050Y273426D02*
X518161Y273426D01*
G54D10*
X527050Y275870D02*
X518161Y275870D01*
G54D10*
X526494Y282314D02*
X527050Y281247D01*
X527050Y279914D01*
X526494Y278581D01*
X525383Y278314D01*
X523494Y278314D01*
X522383Y278981D01*
X522050Y280314D01*
X522383Y281647D01*
X523161Y282314D01*
X524272Y282314D01*
X524272Y278314D01*
G54D10*
X527050Y284758D02*
X518161Y284758D01*
G54D10*
X477917Y280988D02*
X476806Y280321D01*
X476250Y278988D01*
X476250Y277654D01*
X476806Y276321D01*
X477917Y275654D01*
X479028Y275654D01*
X480139Y276321D01*
X480694Y277654D01*
X480694Y278988D01*
X481250Y280321D01*
X482361Y280988D01*
X483472Y280988D01*
X484583Y280321D01*
X485139Y278988D01*
X485139Y277654D01*
X484583Y276321D01*
X483472Y275654D01*
G54D10*
X476806Y269210D02*
X476250Y270277D01*
X476250Y271610D01*
X476806Y272944D01*
X477917Y273210D01*
X479806Y273210D01*
X480917Y272544D01*
X481250Y271210D01*
X480917Y269877D01*
X480139Y269210D01*
X479028Y269210D01*
X479028Y273210D01*
G54D10*
X476250Y266766D02*
X481250Y266766D01*
G54D10*
X480139Y266766D02*
X481250Y265433D01*
X481250Y264100D01*
G54D10*
X476250Y261656D02*
X481250Y261656D01*
G54D10*
X482917Y261656D02*
X482917Y261656D01*
G54D10*
X480694Y259212D02*
X481250Y257878D01*
X481250Y256278D01*
X480139Y255212D01*
X476250Y255212D01*
G54D10*
X477917Y255212D02*
X479028Y255878D01*
X479250Y257212D01*
X479028Y258545D01*
X477917Y259212D01*
X476806Y258945D01*
X476250Y257878D01*
X476250Y257212D01*
X476250Y256945D01*
X476806Y255878D01*
X477917Y255212D01*
G54D10*
X476250Y252768D02*
X485139Y252768D01*
G54D11*
X523875Y288925D02*
X523875Y295275D01*
X530225Y295275D01*
G54D11*
X523875Y244475D02*
X523875Y238125D01*
X530225Y238125D01*
G54D11*
X479425Y288925D02*
X479425Y295275D01*
X473075Y295275D01*
G54D11*
X479425Y244475D02*
X479425Y238125D01*
X473075Y238125D01*
G54D11*
X653256Y688181D02*
X580231Y688181D01*
X580231Y721519D01*
X653256Y721519D01*
X653256Y688181D01*
G54D12*
X630350Y828650D02*
X652350Y828650D01*
X652350Y790650D01*
X630350Y790650D01*
X630350Y828650D01*
G54D12*
X630350Y777850D02*
X652350Y777850D01*
X652350Y739850D01*
X630350Y739850D01*
X630350Y777850D01*
G54D11*
X584200Y506412D02*
X584200Y611187D01*
X419100Y611188D01*
X419100Y506412D01*
X584200Y506412D01*
G54D11*
X584200Y520700D02*
X558800Y520700D01*
X558800Y596900D01*
X584200Y596900D01*
G54D10*
X532528Y538733D02*
X538083Y538733D01*
X539194Y538067D01*
X539750Y536733D01*
X539750Y535400D01*
X539194Y534067D01*
X538083Y533400D01*
X532528Y533400D01*
X531417Y534067D01*
X530861Y535400D01*
X530861Y536733D01*
X531417Y538067D01*
X532528Y538733D01*
G54D10*
X539750Y541177D02*
X530861Y541177D01*
G54D10*
X536972Y541177D02*
X530861Y546510D01*
G54D10*
X535306Y543177D02*
X539750Y546510D01*
G54D10*
X539750Y548954D02*
X530861Y548954D01*
G54D10*
X535861Y551398D02*
X535861Y556731D01*
G54D10*
X530861Y559175D02*
X530861Y564508D01*
X531972Y563842D01*
X533639Y562508D01*
X535861Y561175D01*
X537528Y560508D01*
X539750Y560508D01*
G54D10*
X535306Y570285D02*
X535306Y568952D01*
X534750Y567619D01*
X533639Y566952D01*
X532528Y566952D01*
X531417Y567619D01*
X530861Y568952D01*
X530861Y570285D01*
X531417Y571619D01*
X532528Y572285D01*
X533639Y572285D01*
X534750Y571619D01*
X535306Y570285D01*
X535861Y571619D01*
X536972Y572285D01*
X538083Y572285D01*
X539194Y571619D01*
X539750Y570285D01*
X539750Y568952D01*
X539194Y567619D01*
X538083Y566952D01*
X536972Y566952D01*
X535861Y567619D01*
X535306Y568952D01*
G54D10*
X538083Y574729D02*
X539194Y575396D01*
X539750Y576729D01*
X539750Y578062D01*
X539194Y579396D01*
X538083Y580062D01*
X536972Y580062D01*
X535861Y579396D01*
X535306Y578062D01*
X535306Y576729D01*
X534750Y575396D01*
X533639Y574729D01*
X532528Y574729D01*
X531417Y575396D01*
X530861Y576729D01*
X530861Y578062D01*
X531417Y579396D01*
X532528Y580062D01*
G54D10*
X535306Y585173D02*
X536417Y587173D01*
X537528Y587839D01*
X539750Y587839D01*
G54D10*
X539750Y582506D02*
X530861Y582506D01*
X530861Y585839D01*
X531417Y587173D01*
X532528Y587839D01*
X533639Y587839D01*
X534750Y587173D01*
X535306Y585839D01*
X535306Y582506D01*
G54D10*
X545228Y538337D02*
X550783Y538336D01*
X551894Y537670D01*
X552450Y536337D01*
X552450Y535003D01*
X551894Y533670D01*
X550783Y533003D01*
X545228Y533003D01*
X544117Y533670D01*
X543561Y535003D01*
X543561Y536336D01*
X544117Y537670D01*
X545228Y538337D01*
G54D10*
X548006Y561467D02*
X548006Y564133D01*
X550783Y564133D01*
X551894Y563467D01*
X552450Y562133D01*
X552450Y560800D01*
X551894Y559467D01*
X550783Y558800D01*
X545228Y558800D01*
X544117Y559467D01*
X543561Y560800D01*
X543561Y562133D01*
X544117Y563467D01*
X545228Y564133D01*
G54D10*
X552450Y584200D02*
X543561Y584200D01*
G54D11*
X660400Y673100D02*
X600075Y673100D01*
G54D11*
X660400Y596900D02*
X600075Y596900D01*
X600075Y673100D01*
G54D11*
X660400Y673100D02*
X660400Y596900D01*
G54D11*
X660400Y647700D02*
X654050Y647700D01*
X654050Y622300D01*
X660400Y622300D01*
G54D11*
X660400Y584200D02*
X600075Y584200D01*
G54D11*
X660400Y508000D02*
X600075Y508000D01*
X600075Y584200D01*
G54D11*
X660400Y584200D02*
X660400Y508000D01*
G54D11*
X660400Y558800D02*
X654050Y558800D01*
X654050Y533400D01*
X660400Y533400D01*
G54D11*
X342900Y527050D02*
X403225Y527050D01*
G54D11*
X342900Y603250D02*
X403225Y603250D01*
X403225Y527050D01*
G54D11*
X342900Y527050D02*
X342900Y603250D01*
G54D11*
X342900Y552450D02*
X349250Y552450D01*
X349250Y577850D01*
X342900Y577850D01*
G54D11*
X342900Y438150D02*
X403225Y438150D01*
G54D11*
X342900Y514350D02*
X403225Y514350D01*
X403225Y438150D01*
G54D11*
X342900Y438150D02*
X342900Y514350D01*
G54D11*
X342900Y463550D02*
X349250Y463550D01*
X349250Y488950D01*
X342900Y488950D01*
G54D10*
X411480Y594909D02*
X411480Y589576D01*
G54D10*
X407592Y587132D02*
X416480Y587132D01*
X416480Y582465D01*
G54D10*
X412036Y587132D02*
X412036Y582465D01*
G54D10*
X407592Y580021D02*
X416480Y576688D01*
X407592Y573354D01*
G54D10*
X410925Y578688D02*
X410925Y574688D01*
G54D10*
X407592Y570910D02*
X416480Y570910D01*
X407592Y565577D01*
X416480Y565577D01*
G54D10*
X413147Y563133D02*
X416480Y559800D01*
X407592Y559800D01*
G54D10*
X416480Y555356D02*
X415925Y556689D01*
X414814Y557356D01*
X409258Y557356D01*
X408147Y556689D01*
X407592Y555356D01*
G54D10*
X413147Y552912D02*
X416480Y549579D01*
X407592Y549579D01*
G54D10*
X407592Y541802D02*
X407592Y547135D01*
X408147Y547135D01*
X409258Y546468D01*
X412592Y542468D01*
X413703Y541802D01*
X414814Y541802D01*
X415925Y542468D01*
X416480Y543802D01*
X416480Y545135D01*
X415925Y546468D01*
X414814Y547135D01*
G54D10*
X416480Y539358D02*
X407592Y536025D01*
X416480Y532691D01*
G54D10*
X416480Y530247D02*
X415925Y528914D01*
X414814Y528247D01*
X409258Y528247D01*
X408147Y528914D01*
X407592Y530247D01*
G54D10*
X411480Y525803D02*
X411480Y520470D01*
G54D10*
X413703Y523136D02*
X409258Y523136D01*
G54D11*
X513556Y465931D02*
X440531Y465931D01*
X440531Y499269D01*
X513556Y499269D01*
X513556Y465931D01*
G54D10*
X592456Y674481D02*
X592456Y669148D01*
G54D10*
X594678Y671814D02*
X590233Y671814D01*
G54D10*
X588567Y666704D02*
X597456Y666704D01*
X597456Y662037D01*
G54D10*
X593011Y666704D02*
X593011Y662037D01*
G54D10*
X588567Y659593D02*
X597456Y656260D01*
X588567Y652926D01*
G54D10*
X591900Y658260D02*
X591900Y654260D01*
G54D10*
X588567Y650482D02*
X597456Y650482D01*
X588567Y645149D01*
X597456Y645149D01*
G54D10*
X594122Y642705D02*
X597456Y639372D01*
X588567Y639372D01*
G54D10*
X597456Y634928D02*
X596900Y636261D01*
X595789Y636928D01*
X590233Y636928D01*
X589122Y636261D01*
X588567Y634928D01*
G54D10*
X588567Y627151D02*
X588567Y632484D01*
X589122Y632484D01*
X590233Y631817D01*
X593567Y627817D01*
X594678Y627151D01*
X595789Y627151D01*
X596900Y627817D01*
X597456Y629151D01*
X597456Y630484D01*
X596900Y631817D01*
X595789Y632484D01*
G54D10*
X588567Y620707D02*
X597456Y620707D01*
X591900Y624707D01*
X590789Y624707D01*
X590789Y619374D01*
G54D10*
X597456Y616930D02*
X588567Y613597D01*
X597456Y610263D01*
G54D10*
X597456Y607819D02*
X596900Y606486D01*
X595789Y605819D01*
X590233Y605819D01*
X589122Y606486D01*
X588567Y607819D01*
G54D10*
X592456Y603375D02*
X592456Y598042D01*
G54D10*
X592456Y585581D02*
X592456Y580248D01*
G54D10*
X594678Y582914D02*
X590233Y582914D01*
G54D10*
X588567Y577804D02*
X597456Y577804D01*
X597456Y573137D01*
G54D10*
X593011Y577804D02*
X593011Y573137D01*
G54D10*
X588567Y570693D02*
X597456Y567360D01*
X588567Y564026D01*
G54D10*
X591900Y569360D02*
X591900Y565360D01*
G54D10*
X588567Y561582D02*
X597456Y561582D01*
X588567Y556249D01*
X597456Y556249D01*
G54D10*
X588567Y548472D02*
X588567Y553805D01*
X589122Y553805D01*
X590233Y553138D01*
X593567Y549138D01*
X594678Y548472D01*
X595789Y548472D01*
X596900Y549138D01*
X597456Y550472D01*
X597456Y551805D01*
X596900Y553138D01*
X595789Y553805D01*
G54D10*
X597456Y544028D02*
X596900Y545361D01*
X595789Y546028D01*
X590233Y546028D01*
X589122Y545361D01*
X588567Y544028D01*
G54D10*
X588567Y536251D02*
X588567Y541584D01*
X589122Y541584D01*
X590233Y540917D01*
X593567Y536917D01*
X594678Y536251D01*
X595789Y536251D01*
X596900Y536917D01*
X597456Y538251D01*
X597456Y539584D01*
X596900Y540917D01*
X595789Y541584D01*
G54D10*
X588567Y529807D02*
X597456Y529807D01*
X591900Y533807D01*
X590789Y533807D01*
X590789Y528474D01*
G54D10*
X597456Y526030D02*
X588567Y522697D01*
X597456Y519363D01*
G54D10*
X597456Y516919D02*
X596900Y515586D01*
X595789Y514919D01*
X590233Y514919D01*
X589122Y515586D01*
X588567Y516919D01*
G54D10*
X592456Y512475D02*
X592456Y507142D01*
G54D10*
X411480Y506009D02*
X411480Y500676D01*
G54D10*
X407592Y498232D02*
X416480Y498232D01*
X416480Y493565D01*
G54D10*
X412036Y498232D02*
X412036Y493565D01*
G54D10*
X407592Y491121D02*
X416480Y487788D01*
X407592Y484454D01*
G54D10*
X410925Y489788D02*
X410925Y485788D01*
G54D10*
X407592Y482010D02*
X416480Y482010D01*
X407592Y476677D01*
X416480Y476677D01*
G54D10*
X407592Y468900D02*
X407592Y474233D01*
X408147Y474233D01*
X409258Y473566D01*
X412592Y469566D01*
X413703Y468900D01*
X414814Y468900D01*
X415925Y469566D01*
X416480Y470900D01*
X416480Y472233D01*
X415925Y473566D01*
X414814Y474233D01*
G54D10*
X416480Y464456D02*
X415925Y465789D01*
X414814Y466456D01*
X409258Y466456D01*
X408147Y465789D01*
X407592Y464456D01*
G54D10*
X413147Y462012D02*
X416480Y458679D01*
X407592Y458679D01*
G54D10*
X407592Y450902D02*
X407592Y456235D01*
X408147Y456235D01*
X409258Y455568D01*
X412592Y451568D01*
X413703Y450902D01*
X414814Y450902D01*
X415925Y451568D01*
X416480Y452902D01*
X416480Y454235D01*
X415925Y455568D01*
X414814Y456235D01*
G54D10*
X416480Y448458D02*
X407592Y445125D01*
X416480Y441791D01*
G54D10*
X416480Y439347D02*
X415925Y438014D01*
X414814Y437347D01*
X409258Y437347D01*
X408147Y438014D01*
X407592Y439347D01*
G54D10*
X411480Y434903D02*
X411480Y429570D01*
G54D10*
X413703Y432236D02*
X409258Y432236D01*
G54D11*
X342900Y349250D02*
X403225Y349250D01*
G54D11*
X342900Y425450D02*
X403225Y425450D01*
X403225Y349250D01*
G54D11*
X342900Y349250D02*
X342900Y425450D01*
G54D11*
X342900Y374650D02*
X349250Y374650D01*
X349250Y400050D01*
X342900Y400050D01*
G54D10*
X411480Y398059D02*
X411480Y392726D01*
G54D10*
X413147Y390282D02*
X416480Y386949D01*
X407592Y386949D01*
G54D10*
X407592Y379172D02*
X407592Y384505D01*
X408147Y384505D01*
X409258Y383838D01*
X412592Y379838D01*
X413703Y379172D01*
X414814Y379172D01*
X415925Y379838D01*
X416480Y381172D01*
X416480Y382505D01*
X415925Y383838D01*
X414814Y384505D01*
G54D10*
X416480Y376728D02*
X407592Y373395D01*
X416480Y370061D01*
G54D10*
X411480Y367617D02*
X411480Y362284D01*
G54D10*
X413703Y364950D02*
X409258Y364950D01*
G54D12*
X555600Y430100D02*
X555600Y408100D01*
X517600Y408100D01*
X517600Y430100D01*
X555600Y430100D01*
G54D11*
X428228Y359966D02*
X511572Y359966D01*
X511572Y443309D01*
X428228Y443309D01*
X428228Y359966D01*
G54D11*
G75*
G01X429900Y401638D02*
G03X429900Y401638I40000J0D01*
G01*
G54D10*
X450056Y383064D02*
X444723Y383064D01*
G54D10*
X447675Y421958D02*
X442342Y421958D01*
G54D10*
X445008Y419736D02*
X445008Y424180D01*
G54D12*
X588850Y409650D02*
X566850Y409650D01*
X566850Y447650D01*
X588850Y447650D01*
X588850Y409650D01*
G54D11*
X660400Y495300D02*
X600075Y495300D01*
G54D11*
X660400Y419100D02*
X600075Y419100D01*
X600075Y495300D01*
G54D11*
X660400Y495300D02*
X660400Y419100D01*
G54D11*
X660400Y469900D02*
X654050Y469900D01*
X654050Y444500D01*
X660400Y444500D01*
G54D10*
X589280Y486959D02*
X589280Y481626D01*
G54D10*
X591502Y484292D02*
X587058Y484292D01*
G54D10*
X590946Y479182D02*
X594280Y475849D01*
X585391Y475849D01*
G54D10*
X585391Y468072D02*
X585391Y473405D01*
X585946Y473405D01*
X587058Y472739D01*
X590391Y468739D01*
X591502Y468072D01*
X592613Y468072D01*
X593724Y468739D01*
X594280Y470072D01*
X594280Y471405D01*
X593724Y472739D01*
X592613Y473405D01*
G54D10*
X594280Y465628D02*
X585391Y462295D01*
X594280Y458962D01*
G54D10*
X589280Y456517D02*
X589280Y451184D01*
G54D10*
X538956Y457200D02*
X542289Y453867D01*
X533400Y453867D01*
G54D10*
X533400Y446090D02*
X533400Y451423D01*
X533956Y451423D01*
X535067Y450756D01*
X538400Y446756D01*
X539511Y446090D01*
X540622Y446090D01*
X541733Y446756D01*
X542289Y448090D01*
X542289Y449423D01*
X541733Y450756D01*
X540622Y451423D01*
G54D10*
X542289Y443646D02*
X533400Y440313D01*
X542289Y436979D01*
G54D10*
X624839Y763017D02*
X624839Y768350D01*
X620950Y768350D01*
X620950Y767683D01*
X621506Y766350D01*
X621506Y765017D01*
X620950Y763683D01*
X619839Y763017D01*
X617617Y763017D01*
X616506Y763683D01*
X615950Y765017D01*
X615950Y766350D01*
X616506Y767683D01*
X617617Y768350D01*
G54D10*
X624839Y760573D02*
X615950Y757240D01*
X624839Y753906D01*
G54D10*
X349250Y165100D02*
X358139Y165100D01*
X352583Y161767D01*
X358139Y158433D01*
X349250Y158433D01*
G54D10*
X356472Y155989D02*
X357583Y155322D01*
X358139Y153989D01*
X358139Y152656D01*
X357583Y151322D01*
X356472Y150656D01*
X355361Y150656D01*
X354250Y151322D01*
X353694Y152656D01*
X353139Y151322D01*
X352028Y150656D01*
X350917Y150656D01*
X349806Y151322D01*
X349250Y152656D01*
X349250Y153989D01*
X349806Y155322D01*
X350917Y155989D01*
G54D10*
X647700Y165100D02*
X656589Y165100D01*
X651033Y161767D01*
X656589Y158433D01*
X647700Y158433D01*
G54D10*
X654922Y155989D02*
X656033Y155322D01*
X656589Y153989D01*
X656589Y152656D01*
X656033Y151322D01*
X654922Y150656D01*
X653811Y150656D01*
X652700Y151322D01*
X652144Y152656D01*
X651589Y151322D01*
X650478Y150656D01*
X649367Y150656D01*
X648256Y151322D01*
X647700Y152656D01*
X647700Y153989D01*
X648256Y155322D01*
X649367Y155989D01*
G54D11*
X487362Y268288D02*
X514350Y268288D01*
G54D11*
X501650Y268288D02*
X501650Y333375D01*
X522288Y333375D01*
X522288Y346075D01*
G54D10*
X741978Y845817D02*
X741978Y840484D01*
G54D10*
X738089Y832707D02*
X738089Y838040D01*
X738644Y838040D01*
X739755Y837374D01*
X743089Y833374D01*
X744200Y832707D01*
X745311Y832707D01*
X746422Y833374D01*
X746978Y834707D01*
X746978Y836040D01*
X746422Y837374D01*
X745311Y838040D01*
G54D10*
X738089Y826263D02*
X746978Y826263D01*
X741422Y830263D01*
X740311Y830263D01*
X740311Y824930D01*
G54D10*
X746978Y822486D02*
X738089Y819153D01*
X746978Y815820D01*
G54D10*
X741978Y813375D02*
X741978Y808042D01*
G54D10*
X744200Y810709D02*
X739755Y810709D01*
G54D11*
X812800Y927100D02*
X812800Y977900D01*
X711200Y977900D01*
X711200Y927100D01*
G54D11*
X812800Y927100D02*
X812800Y889000D01*
X711200Y889000D01*
X711200Y927100D01*
G54D11*
X800100Y977900D02*
X800100Y965200D01*
X774700Y965200D01*
X774700Y977900D01*
G54D11*
X749300Y977900D02*
X749300Y965200D01*
X723900Y965200D01*
X723900Y977900D01*
G54D11*
X673100Y793750D02*
X733425Y793750D01*
G54D11*
X673100Y869950D02*
X733425Y869950D01*
X733425Y793750D01*
G54D11*
X673100Y793750D02*
X673100Y869950D01*
G54D11*
X673100Y819150D02*
X679450Y819150D01*
X679450Y844550D01*
X673100Y844550D01*
G54D11*
X673100Y704850D02*
X733425Y704850D01*
G54D11*
X673100Y781050D02*
X733425Y781050D01*
X733425Y704850D01*
G54D11*
X673100Y704850D02*
X673100Y781050D01*
G54D11*
X673100Y730250D02*
X679450Y730250D01*
X679450Y755650D01*
X673100Y755650D01*
G54D11*
X768350Y839788D02*
X768350Y735013D01*
X933450Y735013D01*
X933450Y839788D01*
X768350Y839788D01*
G54D11*
X768350Y825500D02*
X793750Y825500D01*
X793750Y749300D01*
X768350Y749300D01*
G54D10*
X820022Y807467D02*
X814467Y807467D01*
X813356Y808133D01*
X812800Y809467D01*
X812800Y810800D01*
X813356Y812133D01*
X814467Y812800D01*
X820022Y812800D01*
X821134Y812133D01*
X821689Y810800D01*
X821689Y809467D01*
X821133Y808133D01*
X820022Y807467D01*
G54D10*
X812800Y805023D02*
X821689Y805023D01*
G54D10*
X815578Y805023D02*
X821689Y799690D01*
G54D10*
X817245Y803023D02*
X812800Y799690D01*
G54D10*
X812800Y797246D02*
X821689Y797246D01*
G54D10*
X816689Y794802D02*
X816689Y789469D01*
G54D10*
X821689Y787025D02*
X821689Y781692D01*
X820578Y782358D01*
X818911Y783692D01*
X816689Y785025D01*
X815022Y785692D01*
X812800Y785692D01*
G54D10*
X817245Y775915D02*
X817245Y777248D01*
X817800Y778581D01*
X818911Y779248D01*
X820022Y779248D01*
X821134Y778581D01*
X821689Y777248D01*
X821689Y775915D01*
X821133Y774581D01*
X820022Y773915D01*
X818911Y773915D01*
X817800Y774581D01*
X817245Y775915D01*
X816689Y774581D01*
X815578Y773915D01*
X814467Y773915D01*
X813356Y774581D01*
X812800Y775915D01*
X812800Y777248D01*
X813356Y778581D01*
X814467Y779248D01*
X815578Y779248D01*
X816689Y778581D01*
X817245Y777248D01*
G54D10*
X814467Y771471D02*
X813356Y770804D01*
X812800Y769471D01*
X812800Y768138D01*
X813356Y766804D01*
X814467Y766138D01*
X815578Y766138D01*
X816689Y766804D01*
X817245Y768138D01*
X817245Y769471D01*
X817800Y770804D01*
X818911Y771471D01*
X820022Y771471D01*
X821133Y770804D01*
X821689Y769471D01*
X821689Y768138D01*
X821134Y766804D01*
X820022Y766138D01*
G54D10*
X817245Y761027D02*
X816133Y759027D01*
X815022Y758361D01*
X812800Y758361D01*
G54D10*
X812800Y763694D02*
X821689Y763694D01*
X821689Y760361D01*
X821133Y759027D01*
X820022Y758361D01*
X818911Y758361D01*
X817800Y759027D01*
X817245Y760361D01*
X817245Y763694D01*
G54D10*
X807322Y807864D02*
X801767Y807864D01*
X800656Y808530D01*
X800100Y809864D01*
X800100Y811197D01*
X800656Y812530D01*
X801767Y813197D01*
X807322Y813197D01*
X808434Y812530D01*
X808989Y811197D01*
X808989Y809864D01*
X808434Y808530D01*
X807322Y807864D01*
G54D10*
X804545Y784733D02*
X804545Y782067D01*
X801767Y782067D01*
X800656Y782733D01*
X800100Y784067D01*
X800100Y785400D01*
X800656Y786733D01*
X801767Y787400D01*
X807322Y787400D01*
X808434Y786733D01*
X808989Y785400D01*
X808989Y784067D01*
X808434Y782733D01*
X807322Y782067D01*
G54D10*
X800100Y762000D02*
X808989Y762000D01*
G54D11*
X738584Y883444D02*
X811609Y883444D01*
X811609Y850106D01*
X738584Y850106D01*
X738584Y883444D01*
G54D11*
X970558Y859631D02*
X970558Y847130D01*
X838994Y847130D01*
X838994Y859631D01*
G54D11*
X970558Y908844D02*
X970558Y987028D01*
X838994Y987028D01*
X838994Y908844D01*
G54D10*
X935674Y872331D02*
X944562Y875664D01*
X935674Y878998D01*
G54D10*
X942896Y886776D02*
X944007Y886109D01*
X944562Y884776D01*
X944562Y883442D01*
X944007Y882109D01*
X942896Y881442D01*
X937340Y881442D01*
X936229Y882109D01*
X935674Y883442D01*
X935674Y884776D01*
X936229Y886109D01*
X937340Y886776D01*
G54D10*
X942896Y894553D02*
X944007Y893886D01*
X944562Y892553D01*
X944562Y891219D01*
X944007Y889886D01*
X942896Y889219D01*
X937340Y889219D01*
X936229Y889886D01*
X935674Y891219D01*
X935674Y892553D01*
X936229Y893886D01*
X937340Y894553D01*
G54D10*
X919162Y872331D02*
X910274Y872331D01*
X910274Y875664D01*
X910829Y876998D01*
X911940Y877665D01*
X917496Y877665D01*
X918607Y876998D01*
X919162Y875665D01*
X919162Y872331D01*
G54D10*
X915274Y880108D02*
X915274Y885442D01*
G54D10*
X900112Y872331D02*
X891224Y872331D01*
X891224Y875664D01*
X891779Y876998D01*
X892890Y877665D01*
X898446Y877665D01*
X899557Y876998D01*
X900112Y875664D01*
X900112Y872331D01*
G54D10*
X896224Y880108D02*
X896224Y885442D01*
G54D10*
X894002Y882775D02*
X898446Y882775D01*
G54D10*
X870268Y874998D02*
X870268Y877665D01*
X873046Y877665D01*
X874157Y876998D01*
X874712Y875665D01*
X874712Y874331D01*
X874157Y872998D01*
X873046Y872331D01*
X867490Y872331D01*
X866379Y872998D01*
X865824Y874331D01*
X865824Y875664D01*
X866379Y876998D01*
X867490Y877665D01*
G54D10*
X874712Y880108D02*
X865824Y880108D01*
X874712Y885442D01*
X865824Y885442D01*
G54D10*
X874712Y887885D02*
X865824Y887885D01*
X865824Y891219D01*
X866379Y892552D01*
X867490Y893219D01*
X873046Y893219D01*
X874157Y892552D01*
X874712Y891219D01*
X874712Y887885D01*
G54D10*
X741978Y769617D02*
X741978Y764284D01*
G54D10*
X738089Y756507D02*
X738089Y761840D01*
X738644Y761840D01*
X739755Y761174D01*
X743089Y757174D01*
X744200Y756507D01*
X745311Y756507D01*
X746422Y757174D01*
X746978Y758507D01*
X746978Y759840D01*
X746422Y761174D01*
X745311Y761840D01*
G54D10*
X738089Y750063D02*
X746978Y750063D01*
X741422Y754063D01*
X740311Y754063D01*
X740311Y748730D01*
G54D10*
X746978Y746286D02*
X738089Y742953D01*
X746978Y739620D01*
G54D10*
X741978Y737175D02*
X741978Y731842D01*
G54D10*
X744200Y734509D02*
X739755Y734509D01*
G54D12*
X669950Y935150D02*
X669950Y957150D01*
X707950Y957150D01*
X707950Y935150D01*
X669950Y935150D01*
G54D12*
X669950Y960550D02*
X669950Y982550D01*
X707950Y982550D01*
X707950Y960550D01*
X669950Y960550D01*
G54D11*
X710605Y881261D02*
X667345Y881261D01*
X667345Y924520D01*
X710605Y924520D01*
X710605Y881261D01*
G54D11*
G75*
G01X669005Y903108D02*
G03X669005Y903108I20000J0D01*
G01*
G54D10*
X682030Y893247D02*
X676696Y893247D01*
G54D10*
X679363Y891025D02*
X679363Y895469D01*
G54D10*
X681633Y913488D02*
X676300Y913488D01*
G54D11*
X841772Y713184D02*
X758428Y713184D01*
X758428Y629841D01*
X841772Y629841D01*
X841772Y713184D01*
G54D11*
G75*
G01X840100Y671512D02*
G03X840100Y671512I-40000J0D01*
G01*
G54D10*
X819944Y690086D02*
X825277Y690086D01*
G54D10*
X822325Y651192D02*
X827658Y651192D01*
G54D10*
X824992Y653414D02*
X824992Y648970D01*
G54D11*
X863600Y400050D02*
X863600Y339725D01*
G54D11*
X990600Y400050D02*
X990600Y339725D01*
X863600Y339725D01*
G54D11*
X863600Y400050D02*
X990600Y400050D01*
G54D11*
X889000Y400050D02*
X889000Y393700D01*
X965200Y393700D01*
X965200Y400050D01*
G54D11*
X863600Y330200D02*
X863600Y269875D01*
G54D11*
X990600Y330200D02*
X990600Y269875D01*
X863600Y269875D01*
G54D11*
X863600Y330200D02*
X990600Y330200D01*
G54D11*
X889000Y330200D02*
X889000Y323850D01*
X965200Y323850D01*
X965200Y330200D01*
G54D11*
X673100Y330200D02*
X673100Y269875D01*
G54D11*
X800100Y330200D02*
X800100Y269875D01*
X673100Y269875D01*
G54D11*
X673100Y330200D02*
X800100Y330200D01*
G54D11*
X698500Y330200D02*
X698500Y323850D01*
X774700Y323850D01*
X774700Y330200D01*
G54D11*
X673100Y260350D02*
X673100Y200025D01*
G54D11*
X800100Y260350D02*
X800100Y200025D01*
X673100Y200025D01*
G54D11*
X673100Y260350D02*
X800100Y260350D01*
G54D11*
X698500Y260350D02*
X698500Y254000D01*
X774700Y254000D01*
X774700Y260350D01*
G54D11*
X863600Y260350D02*
X863600Y200025D01*
G54D11*
X990600Y260350D02*
X990600Y200025D01*
X863600Y200025D01*
G54D11*
X863600Y260350D02*
X990600Y260350D01*
G54D11*
X889000Y260350D02*
X889000Y254000D01*
X965200Y254000D01*
X965200Y260350D01*
G54D11*
X673100Y615950D02*
X733425Y615950D01*
G54D11*
X673100Y692150D02*
X733425Y692150D01*
X733425Y615950D01*
G54D11*
X673100Y615950D02*
X673100Y692150D01*
G54D11*
X673100Y641350D02*
X679450Y641350D01*
X679450Y666750D01*
X673100Y666750D01*
G54D10*
X741681Y669926D02*
X741681Y664592D01*
G54D10*
X746681Y656815D02*
X746681Y662149D01*
X742792Y662149D01*
X742792Y661482D01*
X743348Y660149D01*
X743348Y658815D01*
X742792Y657482D01*
X741681Y656815D01*
X739459Y656815D01*
X738348Y657482D01*
X737792Y658815D01*
X737792Y660149D01*
X738348Y661482D01*
X739459Y662149D01*
G54D10*
X746681Y654372D02*
X737792Y651038D01*
X746681Y647705D01*
G54D10*
X741681Y645261D02*
X741681Y639927D01*
G54D10*
X743903Y642594D02*
X739459Y642594D01*
G54D10*
X848361Y349250D02*
X848361Y354583D01*
X857250Y349250D01*
X857250Y354583D01*
G54D10*
X857250Y359604D02*
X848361Y359604D01*
X853917Y362937D01*
X848361Y366271D01*
X857250Y366271D01*
G54D10*
X855917Y372715D02*
X853694Y372715D01*
X852583Y372048D01*
X852250Y370715D01*
X852583Y369382D01*
X853694Y368715D01*
X855917Y368715D01*
X857028Y369382D01*
X857250Y370715D01*
X857028Y372048D01*
X855917Y372715D01*
G54D10*
X848361Y376492D02*
X856694Y376492D01*
X857250Y377159D01*
X857028Y377826D01*
G54D10*
X852250Y375159D02*
X852250Y377826D01*
G54D10*
X855917Y384270D02*
X853694Y384270D01*
X852583Y383603D01*
X852250Y382270D01*
X852583Y380937D01*
X853694Y380270D01*
X855917Y380270D01*
X857028Y380937D01*
X857250Y382270D01*
X857028Y383603D01*
X855917Y384270D01*
G54D10*
X857250Y386714D02*
X852250Y386714D01*
G54D10*
X853361Y386714D02*
X852250Y388047D01*
X852250Y389381D01*
G54D10*
X857250Y247650D02*
X848361Y247650D01*
X848361Y250983D01*
X848917Y252317D01*
X850028Y252983D01*
X851139Y252983D01*
X852250Y252317D01*
X852806Y250983D01*
X852806Y247650D01*
G54D10*
X852806Y255427D02*
X852250Y256760D01*
X852250Y258360D01*
X853361Y259427D01*
X857250Y259427D01*
G54D10*
X855583Y259427D02*
X854472Y258760D01*
X854250Y257427D01*
X854472Y256094D01*
X855583Y255427D01*
X856694Y255694D01*
X857250Y256760D01*
X857250Y257427D01*
X857250Y257694D01*
X856694Y258760D01*
X855583Y259427D01*
G54D10*
X857250Y261871D02*
X852250Y261871D01*
G54D10*
X853361Y261871D02*
X852250Y263204D01*
X852250Y264538D01*
G54D10*
X852806Y266982D02*
X852250Y268315D01*
X852250Y269915D01*
X853361Y270982D01*
X857250Y270982D01*
G54D10*
X855583Y270982D02*
X854472Y270315D01*
X854250Y268982D01*
X854472Y267649D01*
X855583Y266982D01*
X856694Y267249D01*
X857250Y268315D01*
X857250Y268982D01*
X857250Y269249D01*
X856694Y270315D01*
X855583Y270982D01*
G54D10*
X857250Y273426D02*
X848361Y273426D01*
G54D10*
X857250Y275870D02*
X848361Y275870D01*
G54D10*
X856694Y282314D02*
X857250Y281247D01*
X857250Y279914D01*
X856694Y278581D01*
X855583Y278314D01*
X853694Y278314D01*
X852583Y278981D01*
X852250Y280314D01*
X852583Y281647D01*
X853361Y282314D01*
X854472Y282314D01*
X854472Y278314D01*
G54D10*
X857250Y284758D02*
X848361Y284758D01*
G54D10*
X808117Y280988D02*
X807006Y280321D01*
X806450Y278988D01*
X806450Y277654D01*
X807006Y276321D01*
X808117Y275654D01*
X809228Y275654D01*
X810339Y276321D01*
X810894Y277654D01*
X810894Y278988D01*
X811450Y280321D01*
X812561Y280988D01*
X813672Y280988D01*
X814783Y280321D01*
X815339Y278988D01*
X815339Y277654D01*
X814783Y276321D01*
X813672Y275654D01*
G54D10*
X807006Y269210D02*
X806450Y270277D01*
X806450Y271610D01*
X807006Y272944D01*
X808117Y273210D01*
X810006Y273210D01*
X811117Y272544D01*
X811450Y271210D01*
X811117Y269877D01*
X810339Y269210D01*
X809228Y269210D01*
X809228Y273210D01*
G54D10*
X806450Y266766D02*
X811450Y266766D01*
G54D10*
X810339Y266766D02*
X811450Y265433D01*
X811450Y264100D01*
G54D10*
X806450Y261656D02*
X811450Y261656D01*
G54D10*
X813117Y261656D02*
X813117Y261656D01*
G54D10*
X810894Y259212D02*
X811450Y257878D01*
X811450Y256278D01*
X810339Y255212D01*
X806450Y255212D01*
G54D10*
X808117Y255212D02*
X809228Y255878D01*
X809450Y257212D01*
X809228Y258545D01*
X808117Y259212D01*
X807006Y258945D01*
X806450Y257878D01*
X806450Y257212D01*
X806450Y256945D01*
X807006Y255878D01*
X808117Y255212D01*
G54D10*
X806450Y252768D02*
X815339Y252768D01*
G54D11*
X854075Y288925D02*
X854075Y295275D01*
X860425Y295275D01*
G54D11*
X854075Y244475D02*
X854075Y238125D01*
X860425Y238125D01*
G54D11*
X809625Y288925D02*
X809625Y295275D01*
X803275Y295275D01*
G54D11*
X809625Y244475D02*
X809625Y238125D01*
X803275Y238125D01*
G54D11*
X983456Y688181D02*
X910431Y688181D01*
X910431Y721519D01*
X983456Y721519D01*
X983456Y688181D01*
G54D12*
X960550Y828650D02*
X982550Y828650D01*
X982550Y790650D01*
X960550Y790650D01*
X960550Y828650D01*
G54D12*
X960550Y777850D02*
X982550Y777850D01*
X982550Y739850D01*
X960550Y739850D01*
X960550Y777850D01*
G54D11*
X914400Y506412D02*
X914400Y611187D01*
X749300Y611188D01*
X749300Y506412D01*
X914400Y506412D01*
G54D11*
X914400Y520700D02*
X889000Y520700D01*
X889000Y596900D01*
X914400Y596900D01*
G54D10*
X862728Y538733D02*
X868283Y538733D01*
X869394Y538067D01*
X869950Y536733D01*
X869950Y535400D01*
X869394Y534067D01*
X868283Y533400D01*
X862728Y533400D01*
X861617Y534067D01*
X861061Y535400D01*
X861061Y536733D01*
X861617Y538067D01*
X862728Y538733D01*
G54D10*
X869950Y541177D02*
X861061Y541177D01*
G54D10*
X867172Y541177D02*
X861061Y546510D01*
G54D10*
X865506Y543177D02*
X869950Y546510D01*
G54D10*
X869950Y548954D02*
X861061Y548954D01*
G54D10*
X866061Y551398D02*
X866061Y556731D01*
G54D10*
X861061Y559175D02*
X861061Y564508D01*
X862172Y563842D01*
X863839Y562508D01*
X866061Y561175D01*
X867728Y560508D01*
X869950Y560508D01*
G54D10*
X865506Y570285D02*
X865506Y568952D01*
X864950Y567619D01*
X863839Y566952D01*
X862728Y566952D01*
X861617Y567619D01*
X861061Y568952D01*
X861061Y570285D01*
X861617Y571619D01*
X862728Y572285D01*
X863839Y572285D01*
X864950Y571619D01*
X865506Y570285D01*
X866061Y571619D01*
X867172Y572285D01*
X868283Y572285D01*
X869394Y571619D01*
X869950Y570285D01*
X869950Y568952D01*
X869394Y567619D01*
X868283Y566952D01*
X867172Y566952D01*
X866061Y567619D01*
X865506Y568952D01*
G54D10*
X868283Y574729D02*
X869394Y575396D01*
X869950Y576729D01*
X869950Y578062D01*
X869394Y579396D01*
X868283Y580062D01*
X867172Y580062D01*
X866061Y579396D01*
X865506Y578062D01*
X865506Y576729D01*
X864950Y575396D01*
X863839Y574729D01*
X862728Y574729D01*
X861617Y575396D01*
X861061Y576729D01*
X861061Y578062D01*
X861617Y579396D01*
X862728Y580062D01*
G54D10*
X865506Y585173D02*
X866617Y587173D01*
X867728Y587839D01*
X869950Y587839D01*
G54D10*
X869950Y582506D02*
X861061Y582506D01*
X861061Y585839D01*
X861617Y587173D01*
X862728Y587839D01*
X863839Y587839D01*
X864950Y587173D01*
X865506Y585839D01*
X865506Y582506D01*
G54D10*
X875428Y538337D02*
X880983Y538336D01*
X882094Y537670D01*
X882650Y536337D01*
X882650Y535003D01*
X882094Y533670D01*
X880983Y533003D01*
X875428Y533003D01*
X874317Y533670D01*
X873761Y535003D01*
X873761Y536336D01*
X874317Y537670D01*
X875428Y538337D01*
G54D10*
X878206Y561467D02*
X878206Y564133D01*
X880983Y564133D01*
X882094Y563467D01*
X882650Y562133D01*
X882650Y560800D01*
X882094Y559467D01*
X880983Y558800D01*
X875428Y558800D01*
X874317Y559467D01*
X873761Y560800D01*
X873761Y562133D01*
X874317Y563467D01*
X875428Y564133D01*
G54D10*
X882650Y584200D02*
X873761Y584200D01*
G54D11*
X990600Y673100D02*
X930275Y673100D01*
G54D11*
X990600Y596900D02*
X930275Y596900D01*
X930275Y673100D01*
G54D11*
X990600Y673100D02*
X990600Y596900D01*
G54D11*
X990600Y647700D02*
X984250Y647700D01*
X984250Y622300D01*
X990600Y622300D01*
G54D11*
X990600Y584200D02*
X930275Y584200D01*
G54D11*
X990600Y508000D02*
X930275Y508000D01*
X930275Y584200D01*
G54D11*
X990600Y584200D02*
X990600Y508000D01*
G54D11*
X990600Y558800D02*
X984250Y558800D01*
X984250Y533400D01*
X990600Y533400D01*
G54D11*
X673100Y527050D02*
X733425Y527050D01*
G54D11*
X673100Y603250D02*
X733425Y603250D01*
X733425Y527050D01*
G54D11*
X673100Y527050D02*
X673100Y603250D01*
G54D11*
X673100Y552450D02*
X679450Y552450D01*
X679450Y577850D01*
X673100Y577850D01*
G54D11*
X673100Y438150D02*
X733425Y438150D01*
G54D11*
X673100Y514350D02*
X733425Y514350D01*
X733425Y438150D01*
G54D11*
X673100Y438150D02*
X673100Y514350D01*
G54D11*
X673100Y463550D02*
X679450Y463550D01*
X679450Y488950D01*
X673100Y488950D01*
G54D10*
X741680Y594909D02*
X741680Y589576D01*
G54D10*
X737792Y587132D02*
X746680Y587132D01*
X746680Y582465D01*
G54D10*
X742236Y587132D02*
X742236Y582465D01*
G54D10*
X737792Y580021D02*
X746680Y576688D01*
X737792Y573354D01*
G54D10*
X741125Y578688D02*
X741125Y574688D01*
G54D10*
X737792Y570910D02*
X746680Y570910D01*
X737792Y565577D01*
X746680Y565577D01*
G54D10*
X743347Y563133D02*
X746680Y559800D01*
X737792Y559800D01*
G54D10*
X746680Y555356D02*
X746125Y556689D01*
X745014Y557356D01*
X739458Y557356D01*
X738347Y556689D01*
X737792Y555356D01*
G54D10*
X743347Y552912D02*
X746680Y549579D01*
X737792Y549579D01*
G54D10*
X737792Y541802D02*
X737792Y547135D01*
X738347Y547135D01*
X739458Y546468D01*
X742792Y542468D01*
X743903Y541802D01*
X745014Y541802D01*
X746125Y542468D01*
X746680Y543802D01*
X746680Y545135D01*
X746125Y546468D01*
X745014Y547135D01*
G54D10*
X746680Y539358D02*
X737792Y536025D01*
X746680Y532691D01*
G54D10*
X746680Y530247D02*
X746125Y528914D01*
X745014Y528247D01*
X739458Y528247D01*
X738347Y528914D01*
X737792Y530247D01*
G54D10*
X741680Y525803D02*
X741680Y520470D01*
G54D10*
X743903Y523136D02*
X739458Y523136D01*
G54D11*
X843756Y465931D02*
X770731Y465931D01*
X770731Y499269D01*
X843756Y499269D01*
X843756Y465931D01*
G54D10*
X922656Y674481D02*
X922656Y669148D01*
G54D10*
X924878Y671814D02*
X920433Y671814D01*
G54D10*
X918767Y666704D02*
X927656Y666704D01*
X927656Y662037D01*
G54D10*
X923211Y666704D02*
X923211Y662037D01*
G54D10*
X918767Y659593D02*
X927656Y656260D01*
X918767Y652926D01*
G54D10*
X922100Y658260D02*
X922100Y654260D01*
G54D10*
X918767Y650482D02*
X927656Y650482D01*
X918767Y645149D01*
X927656Y645149D01*
G54D10*
X924322Y642705D02*
X927656Y639372D01*
X918767Y639372D01*
G54D10*
X927656Y634928D02*
X927100Y636261D01*
X925989Y636928D01*
X920433Y636928D01*
X919322Y636261D01*
X918767Y634928D01*
G54D10*
X918767Y627151D02*
X918767Y632484D01*
X919322Y632484D01*
X920433Y631817D01*
X923767Y627817D01*
X924878Y627151D01*
X925989Y627151D01*
X927100Y627817D01*
X927656Y629151D01*
X927656Y630484D01*
X927100Y631817D01*
X925989Y632484D01*
G54D10*
X918767Y620707D02*
X927656Y620707D01*
X922100Y624707D01*
X920989Y624707D01*
X920989Y619374D01*
G54D10*
X927656Y616930D02*
X918767Y613597D01*
X927656Y610263D01*
G54D10*
X927656Y607819D02*
X927100Y606486D01*
X925989Y605819D01*
X920433Y605819D01*
X919322Y606486D01*
X918767Y607819D01*
G54D10*
X922656Y603375D02*
X922656Y598042D01*
G54D10*
X922656Y585581D02*
X922656Y580248D01*
G54D10*
X924878Y582914D02*
X920433Y582914D01*
G54D10*
X918767Y577804D02*
X927656Y577804D01*
X927656Y573137D01*
G54D10*
X923211Y577804D02*
X923211Y573137D01*
G54D10*
X918767Y570693D02*
X927656Y567360D01*
X918767Y564026D01*
G54D10*
X922100Y569360D02*
X922100Y565360D01*
G54D10*
X918767Y561582D02*
X927656Y561582D01*
X918767Y556249D01*
X927656Y556249D01*
G54D10*
X918767Y548472D02*
X918767Y553805D01*
X919322Y553805D01*
X920433Y553138D01*
X923767Y549138D01*
X924878Y548472D01*
X925989Y548472D01*
X927100Y549138D01*
X927656Y550472D01*
X927656Y551805D01*
X927100Y553138D01*
X925989Y553805D01*
G54D10*
X927656Y544028D02*
X927100Y545361D01*
X925989Y546028D01*
X920433Y546028D01*
X919322Y545361D01*
X918767Y544028D01*
G54D10*
X918767Y536251D02*
X918767Y541584D01*
X919322Y541584D01*
X920433Y540917D01*
X923767Y536917D01*
X924878Y536251D01*
X925989Y536251D01*
X927100Y536917D01*
X927656Y538251D01*
X927656Y539584D01*
X927100Y540917D01*
X925989Y541584D01*
G54D10*
X918767Y529807D02*
X927656Y529807D01*
X922100Y533807D01*
X920989Y533807D01*
X920989Y528474D01*
G54D10*
X927656Y526030D02*
X918767Y522697D01*
X927656Y519363D01*
G54D10*
X927656Y516919D02*
X927100Y515586D01*
X925989Y514919D01*
X920433Y514919D01*
X919322Y515586D01*
X918767Y516919D01*
G54D10*
X922656Y512475D02*
X922656Y507142D01*
G54D10*
X741680Y506009D02*
X741680Y500676D01*
G54D10*
X737792Y498232D02*
X746680Y498232D01*
X746680Y493565D01*
G54D10*
X742236Y498232D02*
X742236Y493565D01*
G54D10*
X737792Y491121D02*
X746680Y487788D01*
X737792Y484454D01*
G54D10*
X741125Y489788D02*
X741125Y485788D01*
G54D10*
X737792Y482010D02*
X746680Y482010D01*
X737792Y476677D01*
X746680Y476677D01*
G54D10*
X737792Y468900D02*
X737792Y474233D01*
X738347Y474233D01*
X739458Y473566D01*
X742792Y469566D01*
X743903Y468900D01*
X745014Y468900D01*
X746125Y469566D01*
X746680Y470900D01*
X746680Y472233D01*
X746125Y473566D01*
X745014Y474233D01*
G54D10*
X746680Y464456D02*
X746125Y465789D01*
X745014Y466456D01*
X739458Y466456D01*
X738347Y465789D01*
X737792Y464456D01*
G54D10*
X743347Y462012D02*
X746680Y458679D01*
X737792Y458679D01*
G54D10*
X737792Y450902D02*
X737792Y456235D01*
X738347Y456235D01*
X739458Y455568D01*
X742792Y451568D01*
X743903Y450902D01*
X745014Y450902D01*
X746125Y451568D01*
X746680Y452902D01*
X746680Y454235D01*
X746125Y455568D01*
X745014Y456235D01*
G54D10*
X746680Y448458D02*
X737792Y445125D01*
X746680Y441791D01*
G54D10*
X746680Y439347D02*
X746125Y438014D01*
X745014Y437347D01*
X739458Y437347D01*
X738347Y438014D01*
X737792Y439347D01*
G54D10*
X741680Y434903D02*
X741680Y429570D01*
G54D10*
X743903Y432236D02*
X739458Y432236D01*
G54D11*
X673100Y349250D02*
X733425Y349250D01*
G54D11*
X673100Y425450D02*
X733425Y425450D01*
X733425Y349250D01*
G54D11*
X673100Y349250D02*
X673100Y425450D01*
G54D11*
X673100Y374650D02*
X679450Y374650D01*
X679450Y400050D01*
X673100Y400050D01*
G54D10*
X741680Y398059D02*
X741680Y392726D01*
G54D10*
X743347Y390282D02*
X746680Y386949D01*
X737792Y386949D01*
G54D10*
X737792Y379172D02*
X737792Y384505D01*
X738347Y384505D01*
X739458Y383838D01*
X742792Y379838D01*
X743903Y379172D01*
X745014Y379172D01*
X746125Y379838D01*
X746680Y381172D01*
X746680Y382505D01*
X746125Y383838D01*
X745014Y384505D01*
G54D10*
X746680Y376728D02*
X737792Y373395D01*
X746680Y370061D01*
G54D10*
X741680Y367617D02*
X741680Y362284D01*
G54D10*
X743903Y364950D02*
X739458Y364950D01*
G54D12*
X885800Y430100D02*
X885800Y408100D01*
X847800Y408100D01*
X847800Y430100D01*
X885800Y430100D01*
G54D11*
X758428Y359966D02*
X841772Y359966D01*
X841772Y443309D01*
X758428Y443309D01*
X758428Y359966D01*
G54D11*
G75*
G01X760100Y401638D02*
G03X760100Y401638I40000J0D01*
G01*
G54D10*
X780256Y383064D02*
X774923Y383064D01*
G54D10*
X777875Y421958D02*
X772542Y421958D01*
G54D10*
X775208Y419736D02*
X775208Y424180D01*
G54D12*
X919050Y409650D02*
X897050Y409650D01*
X897050Y447650D01*
X919050Y447650D01*
X919050Y409650D01*
G54D11*
X990600Y495300D02*
X930275Y495300D01*
G54D11*
X990600Y419100D02*
X930275Y419100D01*
X930275Y495300D01*
G54D11*
X990600Y495300D02*
X990600Y419100D01*
G54D11*
X990600Y469900D02*
X984250Y469900D01*
X984250Y444500D01*
X990600Y444500D01*
G54D10*
X919480Y486959D02*
X919480Y481626D01*
G54D10*
X921702Y484292D02*
X917258Y484292D01*
G54D10*
X921146Y479182D02*
X924480Y475849D01*
X915591Y475849D01*
G54D10*
X915591Y468072D02*
X915591Y473405D01*
X916146Y473405D01*
X917258Y472739D01*
X920591Y468739D01*
X921702Y468072D01*
X922813Y468072D01*
X923924Y468739D01*
X924480Y470072D01*
X924480Y471405D01*
X923924Y472739D01*
X922813Y473405D01*
G54D10*
X924480Y465628D02*
X915591Y462295D01*
X924480Y458962D01*
G54D10*
X919480Y456517D02*
X919480Y451184D01*
G54D10*
X869156Y457200D02*
X872489Y453867D01*
X863600Y453867D01*
G54D10*
X863600Y446090D02*
X863600Y451423D01*
X864156Y451423D01*
X865267Y450756D01*
X868600Y446756D01*
X869711Y446090D01*
X870822Y446090D01*
X871933Y446756D01*
X872489Y448090D01*
X872489Y449423D01*
X871933Y450756D01*
X870822Y451423D01*
G54D10*
X872489Y443646D02*
X863600Y440313D01*
X872489Y436979D01*
G54D10*
X955039Y763017D02*
X955039Y768350D01*
X951150Y768350D01*
X951150Y767683D01*
X951706Y766350D01*
X951706Y765017D01*
X951150Y763683D01*
X950039Y763017D01*
X947817Y763017D01*
X946706Y763683D01*
X946150Y765017D01*
X946150Y766350D01*
X946706Y767683D01*
X947817Y768350D01*
G54D10*
X955039Y760573D02*
X946150Y757240D01*
X955039Y753906D01*
G54D10*
X679450Y165100D02*
X688339Y165100D01*
X682783Y161767D01*
X688339Y158433D01*
X679450Y158433D01*
G54D10*
X686672Y155989D02*
X687783Y155322D01*
X688339Y153989D01*
X688339Y152656D01*
X687783Y151322D01*
X686672Y150656D01*
X685561Y150656D01*
X684450Y151322D01*
X683894Y152656D01*
X683339Y151322D01*
X682228Y150656D01*
X681117Y150656D01*
X680006Y151322D01*
X679450Y152656D01*
X679450Y153989D01*
X680006Y155322D01*
X681117Y155989D01*
G54D10*
X977900Y165100D02*
X986789Y165100D01*
X981233Y161767D01*
X986789Y158433D01*
X977900Y158433D01*
G54D10*
X985122Y155989D02*
X986233Y155322D01*
X986789Y153989D01*
X986789Y152656D01*
X986233Y151322D01*
X985122Y150656D01*
X984011Y150656D01*
X982900Y151322D01*
X982344Y152656D01*
X981789Y151322D01*
X980678Y150656D01*
X979567Y150656D01*
X978456Y151322D01*
X977900Y152656D01*
X977900Y153989D01*
X978456Y155322D01*
X979567Y155989D01*
G54D11*
X817562Y268288D02*
X844550Y268288D01*
G54D11*
X831850Y268288D02*
X831850Y333375D01*
X852488Y333375D01*
X852488Y346075D01*
G54D10*
X126286Y981075D02*
X126286Y986408D01*
G54D10*
X124064Y983742D02*
X128508Y983742D01*
G54D10*
X456486Y981075D02*
X456486Y986408D01*
G54D10*
X454264Y983742D02*
X458708Y983742D01*
G54D10*
X786686Y981075D02*
X786686Y986408D01*
G54D10*
X784464Y983742D02*
X788908Y983742D01*
G54D10*
X733425Y984964D02*
X738758Y984964D01*
G54D10*
X406400Y984964D02*
X411733Y984964D01*
G54D10*
X73025Y984964D02*
X78358Y984964D01*
M02*
