%FSLAX34Y34*%
%MOMM*%
%LNSILK_BOTTOM_*%
G71*
G01*
%ADD10C, 0.19*%
%ADD11C, 0.10*%
%ADD12R, 0.27X0.27*%
%ADD13C, 0.11*%
%ADD14R, 0.40X0.40*%
%LPD*%
G54D10*
X197142Y424120D02*
X212253Y424120D01*
G54D10*
X203186Y424120D02*
X205075Y425254D01*
X205642Y427520D01*
X205075Y429787D01*
X203186Y430920D01*
X197142Y430920D01*
G54D10*
X212253Y437343D02*
X198086Y437343D01*
X197142Y438476D01*
X197519Y439610D01*
G54D10*
X205642Y435076D02*
X205642Y439610D01*
G54D10*
X212253Y446032D02*
X198086Y446032D01*
X197142Y447165D01*
X197519Y448299D01*
G54D10*
X205642Y443765D02*
X205642Y448299D01*
G54D10*
X205642Y452454D02*
X193364Y452454D01*
G54D10*
X199975Y452454D02*
X197519Y453588D01*
X197142Y455854D01*
X197519Y458121D01*
X199408Y459254D01*
X203186Y459254D01*
X205075Y458121D01*
X205642Y455854D01*
X205075Y453588D01*
X202808Y452454D01*
G54D10*
X198086Y463410D02*
X197142Y465677D01*
X197142Y467944D01*
X198086Y470210D01*
X199975Y470210D01*
X200919Y469077D01*
X201864Y464544D01*
X202808Y463410D01*
X204697Y463410D01*
X205642Y465677D01*
X205642Y467944D01*
X204697Y470210D01*
G54D10*
X197142Y474366D02*
X197142Y474366D01*
G54D10*
X205642Y474366D02*
X205642Y474366D01*
G54D10*
X197142Y478522D02*
X212253Y487589D01*
G54D10*
X197142Y491745D02*
X212253Y500812D01*
G54D10*
X194308Y504968D02*
X193364Y507235D01*
X193364Y508822D01*
X194308Y511088D01*
X196197Y511768D01*
X205642Y511768D01*
G54D10*
X203186Y511768D02*
X205075Y510635D01*
X205642Y508368D01*
X205075Y506102D01*
X203186Y504968D01*
X199408Y504968D01*
X197519Y506102D01*
X197142Y508368D01*
X197519Y510635D01*
X199408Y511768D01*
G54D10*
X197142Y515924D02*
X205642Y515924D01*
G54D10*
X208475Y515924D02*
X208475Y515924D01*
G54D10*
X212253Y522347D02*
X198086Y522347D01*
X197142Y523480D01*
X197519Y524614D01*
G54D10*
X205642Y520080D02*
X205642Y524614D01*
G54D10*
X197142Y528769D02*
X212253Y528769D01*
G54D10*
X203186Y528769D02*
X205075Y529903D01*
X205642Y532169D01*
X205075Y534436D01*
X203186Y535569D01*
X197142Y535569D01*
G54D10*
X205642Y546525D02*
X197142Y546525D01*
G54D10*
X199030Y546525D02*
X197519Y545392D01*
X197142Y543125D01*
X197519Y540859D01*
X199030Y539725D01*
X205642Y539725D01*
G54D10*
X197142Y550681D02*
X212253Y550681D01*
G54D10*
X203186Y550681D02*
X205075Y551815D01*
X205642Y554081D01*
X205075Y556348D01*
X203186Y557481D01*
X199408Y557481D01*
X197519Y556348D01*
X197142Y554081D01*
X197519Y551815D01*
X199408Y550681D01*
G54D10*
X197142Y561637D02*
X197142Y561637D01*
G54D10*
X205075Y571460D02*
X205642Y569193D01*
X205075Y566927D01*
X203186Y565793D01*
X199408Y565793D01*
X197519Y566927D01*
X197142Y569193D01*
X197519Y571460D01*
G54D10*
X199408Y582416D02*
X203186Y582416D01*
X205075Y581283D01*
X205642Y579016D01*
X205075Y576750D01*
X203186Y575616D01*
X199408Y575616D01*
X197519Y576750D01*
X197142Y579016D01*
X197519Y581283D01*
X199408Y582416D01*
G54D10*
X197142Y586572D02*
X205642Y586572D01*
G54D10*
X204130Y586572D02*
X205642Y588839D01*
X205075Y591106D01*
X203753Y592239D01*
X197142Y592239D01*
G54D10*
X204130Y592239D02*
X205642Y594506D01*
X205075Y596772D01*
X203753Y597906D01*
X197142Y597906D01*
G54D10*
X197142Y602061D02*
X212253Y611128D01*
G54D10*
X199975Y624351D02*
X198086Y623218D01*
X197142Y620951D01*
X197142Y618684D01*
X198086Y616418D01*
X199975Y615284D01*
X209419Y615284D01*
X211308Y616418D01*
X212253Y618684D01*
X212253Y620951D01*
X211308Y623218D01*
X209419Y624351D01*
G54D10*
X197142Y628507D02*
X212253Y628507D01*
G54D10*
X203186Y628507D02*
X205075Y629641D01*
X205642Y631907D01*
X205075Y634174D01*
X203186Y635307D01*
X197142Y635307D01*
G54D10*
X197142Y639463D02*
X205642Y639463D01*
G54D10*
X208475Y639463D02*
X208475Y639463D01*
G54D10*
X205642Y643619D02*
X193364Y643619D01*
G54D10*
X199975Y643619D02*
X197519Y644753D01*
X197142Y647019D01*
X197519Y649286D01*
X199408Y650419D01*
X203186Y650419D01*
X205075Y649286D01*
X205642Y647019D01*
X205075Y644753D01*
X202808Y643619D01*
G54D10*
X197142Y659109D02*
X212253Y659109D01*
G54D10*
X212253Y654575D02*
X212253Y663642D01*
G54D10*
X198086Y674598D02*
X197142Y672785D01*
X197142Y670518D01*
X198086Y668252D01*
X199975Y667798D01*
X203186Y667798D01*
X205075Y668932D01*
X205642Y671198D01*
X205075Y673465D01*
X203753Y674598D01*
X201864Y674598D01*
X201864Y667798D01*
G54D10*
X205075Y684421D02*
X205642Y682154D01*
X205075Y679888D01*
X203186Y678754D01*
X199408Y678754D01*
X197519Y679888D01*
X197142Y682154D01*
X197519Y684421D01*
G54D10*
X197142Y688577D02*
X212253Y688577D01*
G54D10*
X203186Y688577D02*
X205075Y689711D01*
X205642Y691977D01*
X205075Y694244D01*
X203186Y695377D01*
X197142Y695377D01*
G54D10*
X197142Y699533D02*
X205642Y699533D01*
G54D10*
X203753Y699533D02*
X205075Y700667D01*
X205642Y702933D01*
X205075Y705200D01*
X203753Y706333D01*
X197142Y706333D01*
G54D10*
X199408Y717289D02*
X203186Y717289D01*
X205075Y716156D01*
X205642Y713889D01*
X205075Y711623D01*
X203186Y710489D01*
X199408Y710489D01*
X197519Y711623D01*
X197142Y713889D01*
X197519Y716156D01*
X199408Y717289D01*
G54D10*
X197142Y721445D02*
X212253Y730512D01*
G54D10*
X212253Y743735D02*
X199975Y743735D01*
X198086Y742602D01*
X197142Y740335D01*
X197142Y738068D01*
X198086Y735802D01*
X199975Y734668D01*
G54D10*
X205642Y754691D02*
X197142Y754691D01*
G54D10*
X199030Y754691D02*
X197519Y753558D01*
X197142Y751291D01*
X197519Y749025D01*
X199030Y747891D01*
X205642Y747891D01*
G54D10*
X197142Y758847D02*
X205642Y758847D01*
G54D10*
X208475Y758847D02*
X208475Y758847D01*
G54D10*
X205075Y768670D02*
X205642Y766403D01*
X205075Y764137D01*
X203186Y763003D01*
X199408Y763003D01*
X197519Y764137D01*
X197142Y766403D01*
X197519Y768670D01*
G54D10*
X198086Y779626D02*
X197142Y777813D01*
X197142Y775546D01*
X198086Y773280D01*
X199975Y772826D01*
X203186Y772826D01*
X205075Y773960D01*
X205642Y776226D01*
X205075Y778493D01*
X203753Y779626D01*
X201864Y779626D01*
X201864Y772826D01*
G54D10*
X203753Y783782D02*
X203753Y792849D01*
G54D10*
X205642Y797005D02*
X193364Y797005D01*
G54D10*
X199975Y797005D02*
X197519Y798139D01*
X197142Y800405D01*
X197519Y802672D01*
X199408Y803805D01*
X203186Y803805D01*
X205075Y802672D01*
X205642Y800405D01*
X205075Y798139D01*
X202808Y797005D01*
G54D10*
X197142Y807961D02*
X212253Y807961D01*
G54D10*
X205642Y818917D02*
X197142Y818917D01*
G54D10*
X199030Y818917D02*
X197519Y817784D01*
X197142Y815517D01*
X197519Y813251D01*
X199030Y812117D01*
X205642Y812117D01*
G54D10*
X198086Y823073D02*
X197142Y825340D01*
X197142Y827607D01*
X198086Y829873D01*
X199975Y829873D01*
X200919Y828740D01*
X201864Y824207D01*
X202808Y823073D01*
X204697Y823073D01*
X205642Y825340D01*
X205642Y827607D01*
X204697Y829873D01*
G54D11*
X176217Y707189D02*
X176217Y696076D01*
X165898Y693695D01*
X162723Y686155D01*
X168676Y677026D01*
X161533Y669089D01*
X153595Y675439D01*
X145658Y671867D01*
X144070Y660755D01*
X133355Y660755D01*
X132164Y670676D01*
X123830Y674248D01*
X116289Y669089D01*
X108748Y676630D01*
X114305Y685361D01*
X111526Y689726D01*
X128195Y697267D01*
G54D11*
X128195Y705998D02*
X111923Y713539D01*
X113908Y717905D01*
X108352Y726239D01*
X115892Y734573D01*
X123830Y728620D01*
X132164Y732192D01*
X133354Y742511D01*
X144070Y742114D01*
X146054Y731398D01*
X152404Y728620D01*
X160739Y734573D01*
X168280Y726636D01*
X162723Y717508D01*
X165898Y708776D01*
X176217Y707189D01*
G54D11*
G75*
G01X128880Y697536D02*
G03X128880Y705742I9665J4103D01*
G01*
G36*
X144070Y742114D02*
X146054Y731398D01*
X152404Y728620D01*
X160739Y734573D01*
X168280Y726636D01*
X162723Y717508D01*
X165898Y708776D01*
X176217Y707189D01*
X176217Y696076D01*
X165898Y693695D01*
X162723Y686155D01*
X168676Y677026D01*
X161533Y669089D01*
X153595Y675439D01*
X145658Y671867D01*
X144070Y660755D01*
X133355Y660755D01*
X132164Y670676D01*
X123830Y674248D01*
X116289Y669089D01*
X108748Y676630D01*
X114305Y685361D01*
X111526Y689726D01*
X128989Y697664D01*
X129386Y696473D01*
X130180Y695283D01*
X132561Y692902D01*
X135736Y691314D01*
X137720Y690917D01*
X139308Y690917D01*
X141689Y691314D01*
X144467Y692505D01*
X147245Y694886D01*
X148436Y696870D01*
X149230Y698855D01*
X149626Y701236D01*
X149230Y703617D01*
X148436Y706792D01*
X146054Y709570D01*
X142086Y712348D01*
X135736Y712348D01*
X133355Y711158D01*
X130973Y709570D01*
X128989Y707189D01*
X128989Y705602D01*
X111923Y713539D01*
X113908Y717905D01*
X108352Y726239D01*
X115892Y734573D01*
X123830Y728620D01*
X144070Y742114D01*
G37*
G54D11*
X144070Y742114D02*
X146054Y731398D01*
X152404Y728620D01*
X160739Y734573D01*
X168280Y726636D01*
X162723Y717508D01*
X165898Y708776D01*
X176217Y707189D01*
X176217Y696076D01*
X165898Y693695D01*
X162723Y686155D01*
X168676Y677026D01*
X161533Y669089D01*
X153595Y675439D01*
X145658Y671867D01*
X144070Y660755D01*
X133355Y660755D01*
X132164Y670676D01*
X123830Y674248D01*
X116289Y669089D01*
X108748Y676630D01*
X114305Y685361D01*
X111526Y689726D01*
X128989Y697664D01*
X129386Y696473D01*
X130180Y695283D01*
X132561Y692902D01*
X135736Y691314D01*
X137720Y690917D01*
X139308Y690917D01*
X141689Y691314D01*
X144467Y692505D01*
X147245Y694886D01*
X148436Y696870D01*
X149230Y698855D01*
X149626Y701236D01*
X149230Y703617D01*
X148436Y706792D01*
X146054Y709570D01*
X142086Y712348D01*
X135736Y712348D01*
X133355Y711158D01*
X130973Y709570D01*
X128989Y707189D01*
X128989Y705602D01*
X111923Y713539D01*
X113908Y717905D01*
X108352Y726239D01*
X115892Y734573D01*
X123830Y728620D01*
X144070Y742114D01*
G36*
X144070Y742114D02*
X133354Y742511D01*
X132164Y732192D01*
X144070Y742114D01*
G37*
G54D11*
X144070Y742114D02*
X133354Y742511D01*
X132164Y732192D01*
X144070Y742114D01*
G54D10*
X97544Y684897D02*
X88099Y684897D01*
X86210Y683764D01*
X85266Y681497D01*
X85266Y679230D01*
X86210Y676964D01*
X88099Y675830D01*
X97544Y675830D01*
X99433Y676964D01*
X100377Y679230D01*
X100377Y681497D01*
X99433Y683764D01*
X97544Y684897D01*
G54D10*
X88099Y689053D02*
X86210Y690187D01*
X85266Y692453D01*
X85266Y694720D01*
X86210Y696987D01*
X88099Y698120D01*
X89988Y698120D01*
X91877Y696987D01*
X92822Y694720D01*
X92822Y692453D01*
X93766Y690187D01*
X95655Y689053D01*
X97544Y689053D01*
X99433Y690187D01*
X100377Y692453D01*
X100377Y694720D01*
X99433Y696987D01*
X97544Y698120D01*
G54D10*
X85266Y702276D02*
X100377Y702276D01*
G54D10*
X85266Y711343D02*
X100377Y711343D01*
G54D10*
X92822Y702276D02*
X92822Y711343D01*
G54D10*
X100377Y715499D02*
X85266Y715499D01*
X94710Y721166D01*
X85266Y726833D01*
X100377Y726833D01*
X123825Y506412D02*
G54D12*
D03*
X120650Y509588D02*
G54D12*
D03*
X117475Y512762D02*
G54D12*
D03*
X114300Y515938D02*
G54D12*
D03*
X130175Y506412D02*
G54D12*
D03*
X133350Y509588D02*
G54D12*
D03*
X136525Y512762D02*
G54D12*
D03*
X139700Y515938D02*
G54D12*
D03*
X142875Y519112D02*
G54D12*
D03*
X111125Y519112D02*
G54D12*
D03*
X107950Y522288D02*
G54D12*
D03*
X104775Y525462D02*
G54D12*
D03*
X101600Y528638D02*
G54D12*
D03*
X101600Y534988D02*
G54D12*
D03*
X104775Y538162D02*
G54D12*
D03*
X107950Y541338D02*
G54D12*
D03*
X111125Y544512D02*
G54D12*
D03*
X114300Y547688D02*
G54D12*
D03*
X117475Y550862D02*
G54D12*
D03*
X120650Y554038D02*
G54D12*
D03*
X123825Y557213D02*
G54D12*
D03*
X127000Y560388D02*
G54D12*
D03*
X146050Y522288D02*
G54D12*
D03*
X149225Y525462D02*
G54D12*
D03*
X152400Y528638D02*
G54D12*
D03*
X155575Y531812D02*
G54D12*
D03*
X152400Y547688D02*
G54D12*
D03*
X142875Y557213D02*
G54D12*
D03*
X146050Y560388D02*
G54D12*
D03*
X155575Y550862D02*
G54D12*
D03*
X161925Y550862D02*
G54D12*
D03*
X165100Y554038D02*
G54D12*
D03*
X161925Y557213D02*
G54D12*
D03*
X158750Y560388D02*
G54D12*
D03*
X155575Y563563D02*
G54D12*
D03*
X152400Y566738D02*
G54D12*
D03*
X149225Y569912D02*
G54D12*
D03*
X146050Y566738D02*
G54D12*
D03*
X133350Y515938D02*
G54D12*
D03*
X133350Y519112D02*
G54D12*
D03*
X136525Y522288D02*
G54D12*
D03*
X133350Y525462D02*
G54D12*
D03*
X133350Y528638D02*
G54D12*
D03*
X133350Y531812D02*
G54D12*
D03*
X130175Y534988D02*
G54D12*
D03*
X130175Y538162D02*
G54D12*
D03*
X133350Y541338D02*
G54D12*
D03*
X133350Y544512D02*
G54D12*
D03*
X133350Y547688D02*
G54D12*
D03*
X133350Y550862D02*
G54D12*
D03*
X133350Y554038D02*
G54D12*
D03*
X130175Y557213D02*
G54D12*
D03*
X158750Y573088D02*
G54D12*
D03*
X155575Y573088D02*
G54D12*
D03*
X152400Y573088D02*
G54D12*
D03*
X152400Y576263D02*
G54D12*
D03*
X158750Y576263D02*
G54D12*
D03*
X158750Y579438D02*
G54D12*
D03*
X161925Y579438D02*
G54D12*
D03*
X165100Y579438D02*
G54D12*
D03*
X165100Y582613D02*
G54D12*
D03*
X165100Y585788D02*
G54D12*
D03*
X161925Y585788D02*
G54D12*
D03*
X158750Y585788D02*
G54D12*
D03*
X158750Y588963D02*
G54D12*
D03*
X158750Y592138D02*
G54D12*
D03*
X155575Y592138D02*
G54D12*
D03*
X152400Y592138D02*
G54D12*
D03*
X152400Y588963D02*
G54D12*
D03*
X152400Y585788D02*
G54D12*
D03*
X152400Y579438D02*
G54D12*
D03*
X149225Y579438D02*
G54D12*
D03*
X146050Y579438D02*
G54D12*
D03*
X146050Y582613D02*
G54D12*
D03*
X146050Y585788D02*
G54D12*
D03*
X149225Y585788D02*
G54D12*
D03*
X158750Y534988D02*
G54D12*
D03*
X158750Y541338D02*
G54D12*
D03*
X155575Y544512D02*
G54D12*
D03*
X139700Y560388D02*
G54D12*
D03*
X136525Y563563D02*
G54D12*
D03*
X130175Y563563D02*
G54D12*
D03*
X120650Y560388D02*
G54D12*
D03*
X120650Y563563D02*
G54D12*
D03*
X120650Y566738D02*
G54D12*
D03*
X120650Y569912D02*
G54D12*
D03*
X120650Y573088D02*
G54D12*
D03*
X117475Y566738D02*
G54D12*
D03*
X114300Y566738D02*
G54D12*
D03*
X111125Y566738D02*
G54D12*
D03*
X107950Y566738D02*
G54D12*
D03*
X104775Y566738D02*
G54D12*
D03*
X101600Y563563D02*
G54D12*
D03*
X101600Y560388D02*
G54D12*
D03*
X104775Y557213D02*
G54D12*
D03*
X101600Y576263D02*
G54D12*
D03*
X104775Y579438D02*
G54D12*
D03*
X107950Y579438D02*
G54D12*
D03*
X111125Y579438D02*
G54D12*
D03*
X114300Y579438D02*
G54D12*
D03*
X101600Y582613D02*
G54D12*
D03*
X101600Y585788D02*
G54D12*
D03*
X101600Y588963D02*
G54D12*
D03*
X104775Y588963D02*
G54D12*
D03*
X107950Y588963D02*
G54D12*
D03*
X111125Y588963D02*
G54D12*
D03*
X114300Y588963D02*
G54D12*
D03*
X117475Y595313D02*
G54D12*
D03*
X111125Y595313D02*
G54D12*
D03*
X107950Y595313D02*
G54D12*
D03*
X104775Y595313D02*
G54D12*
D03*
X101600Y595313D02*
G54D12*
D03*
X104775Y601662D02*
G54D12*
D03*
X107950Y601662D02*
G54D12*
D03*
X111125Y601662D02*
G54D12*
D03*
X114300Y604838D02*
G54D12*
D03*
X114300Y608013D02*
G54D12*
D03*
X101600Y604838D02*
G54D12*
D03*
X101600Y608012D02*
G54D12*
D03*
X101600Y611188D02*
G54D12*
D03*
X114300Y611188D02*
G54D12*
D03*
X104775Y617538D02*
G54D12*
D03*
X107950Y617538D02*
G54D12*
D03*
X111125Y617538D02*
G54D12*
D03*
X114300Y620712D02*
G54D12*
D03*
X114300Y623888D02*
G54D12*
D03*
X114300Y627062D02*
G54D12*
D03*
X101600Y620713D02*
G54D12*
D03*
X101600Y623888D02*
G54D12*
D03*
X101600Y627063D02*
G54D12*
D03*
X111125Y630238D02*
G54D12*
D03*
X107950Y630238D02*
G54D12*
D03*
X107950Y627063D02*
G54D12*
D03*
X107950Y623888D02*
G54D12*
D03*
X107950Y620712D02*
G54D12*
D03*
X120650Y528638D02*
G54D12*
D03*
X117475Y531812D02*
G54D12*
D03*
X120650Y534988D02*
G54D12*
D03*
X123825Y531812D02*
G54D12*
D03*
X117475Y541338D02*
G54D12*
D03*
X127000Y519112D02*
G54D12*
D03*
X127000Y547688D02*
G54D12*
D03*
X107950Y531812D02*
G54D12*
D03*
X123825Y515938D02*
G54D12*
D03*
X139700Y576262D02*
G54D12*
D03*
X139700Y579438D02*
G54D12*
D03*
X139700Y582613D02*
G54D12*
D03*
X139700Y585788D02*
G54D12*
D03*
X139700Y588963D02*
G54D12*
D03*
X136525Y588963D02*
G54D12*
D03*
X133350Y588963D02*
G54D12*
D03*
X130175Y585788D02*
G54D12*
D03*
X127000Y582613D02*
G54D12*
D03*
X123825Y579438D02*
G54D12*
D03*
X146050Y592138D02*
G54D12*
D03*
X142875Y592138D02*
G54D12*
D03*
X142875Y595313D02*
G54D12*
D03*
X146050Y595313D02*
G54D12*
D03*
X139700Y598488D02*
G54D12*
D03*
X139700Y601663D02*
G54D12*
D03*
X139700Y604838D02*
G54D12*
D03*
X139700Y608013D02*
G54D12*
D03*
X139700Y611188D02*
G54D12*
D03*
X133350Y598488D02*
G54D12*
D03*
X133350Y601663D02*
G54D12*
D03*
X133350Y604838D02*
G54D12*
D03*
X133350Y608013D02*
G54D12*
D03*
X133350Y611188D02*
G54D12*
D03*
X130175Y611188D02*
G54D12*
D03*
X127000Y608013D02*
G54D12*
D03*
X123825Y604838D02*
G54D12*
D03*
X123825Y598488D02*
G54D12*
D03*
X123825Y601663D02*
G54D12*
D03*
X139700Y617538D02*
G54D12*
D03*
X139700Y620712D02*
G54D12*
D03*
X139700Y623888D02*
G54D12*
D03*
X139700Y627062D02*
G54D12*
D03*
X139700Y630238D02*
G54D12*
D03*
X136525Y630238D02*
G54D12*
D03*
X133350Y627062D02*
G54D12*
D03*
X130175Y623888D02*
G54D12*
D03*
X127000Y620712D02*
G54D12*
D03*
X123825Y617538D02*
G54D12*
D03*
X127000Y627062D02*
G54D12*
D03*
X123825Y630238D02*
G54D12*
D03*
X152400Y538162D02*
G54D12*
D03*
X149225Y534988D02*
G54D12*
D03*
G54D13*
X153670Y604329D02*
X152558Y606329D01*
X151447Y606996D01*
X149225Y606996D01*
G54D13*
X149225Y601662D02*
X158114Y601663D01*
X158114Y604996D01*
X157558Y606329D01*
X156447Y606996D01*
X155336Y606996D01*
X154225Y606329D01*
X153670Y604996D01*
X153670Y601662D01*
G54D13*
X149780Y613440D02*
X149225Y612373D01*
X149225Y611040D01*
X149780Y609706D01*
X150892Y609440D01*
X152780Y609440D01*
X153892Y610106D01*
X154225Y611440D01*
X153892Y612773D01*
X153114Y613440D01*
X152003Y613440D01*
X152003Y609440D01*
G54D13*
X154225Y615884D02*
X149225Y618550D01*
X154225Y621217D01*
G54D13*
X149225Y623660D02*
X149225Y623660D01*
G54D13*
X149225Y631438D02*
X149225Y626105D01*
X149780Y626104D01*
X150892Y626771D01*
X154225Y630771D01*
X155336Y631438D01*
X156447Y631438D01*
X157558Y630771D01*
X158114Y629438D01*
X158114Y628104D01*
X157558Y626771D01*
X156447Y626105D01*
G54D13*
X149225Y633882D02*
X149225Y633882D01*
G54D13*
X156447Y641659D02*
X150892Y641659D01*
X149780Y640992D01*
X149225Y639659D01*
X149225Y638326D01*
X149780Y636992D01*
X150892Y636326D01*
X156447Y636326D01*
X157558Y636992D01*
X158114Y638326D01*
X158114Y639659D01*
X157558Y640992D01*
X156447Y641659D01*
X127000Y506412D02*
G54D12*
D03*
X101600Y531812D02*
G54D12*
D03*
X168275Y445691D02*
G54D14*
D03*
X168275Y450453D02*
G54D14*
D03*
X168275Y455216D02*
G54D14*
D03*
X168275Y459978D02*
G54D14*
D03*
X168275Y464741D02*
G54D14*
D03*
X168275Y469503D02*
G54D14*
D03*
X168275Y474266D02*
G54D14*
D03*
X168275Y479028D02*
G54D14*
D03*
X153988Y431403D02*
G54D14*
D03*
X149225Y431403D02*
G54D14*
D03*
X144462Y431403D02*
G54D14*
D03*
X139700Y431403D02*
G54D14*
D03*
X134938Y431403D02*
G54D14*
D03*
X130175Y431403D02*
G54D14*
D03*
X125412Y431403D02*
G54D14*
D03*
X120650Y431403D02*
G54D14*
D03*
X115888Y431403D02*
G54D14*
D03*
X111125Y431403D02*
G54D14*
D03*
X106362Y426641D02*
G54D14*
D03*
X101600Y426641D02*
G54D14*
D03*
X96837Y426641D02*
G54D14*
D03*
X96838Y421878D02*
G54D14*
D03*
X101600Y436166D02*
G54D14*
D03*
X96838Y436166D02*
G54D14*
D03*
X96838Y440928D02*
G54D14*
D03*
X101600Y445691D02*
G54D14*
D03*
X101600Y450453D02*
G54D14*
D03*
X101600Y455216D02*
G54D14*
D03*
X96838Y455216D02*
G54D14*
D03*
X96838Y459978D02*
G54D14*
D03*
X144462Y488553D02*
G54D14*
D03*
X149225Y488553D02*
G54D14*
D03*
X153988Y488553D02*
G54D14*
D03*
X158750Y488553D02*
G54D14*
D03*
X163512Y483791D02*
G54D14*
D03*
X153988Y445691D02*
G54D14*
D03*
X158750Y450453D02*
G54D14*
D03*
X158750Y455216D02*
G54D14*
D03*
X158750Y459978D02*
G54D14*
D03*
X158750Y464741D02*
G54D14*
D03*
X153988Y469503D02*
G54D14*
D03*
X149225Y450453D02*
G54D14*
D03*
X149225Y455216D02*
G54D14*
D03*
X149225Y459978D02*
G54D14*
D03*
X149225Y464741D02*
G54D14*
D03*
X153988Y455216D02*
G54D14*
D03*
X153988Y459978D02*
G54D14*
D03*
X101600Y431403D02*
G54D14*
D03*
X139700Y483791D02*
G54D14*
D03*
X139700Y479028D02*
G54D14*
D03*
X134938Y469503D02*
G54D14*
D03*
X134938Y474266D02*
G54D14*
D03*
X134938Y464741D02*
G54D14*
D03*
X130175Y464741D02*
G54D14*
D03*
X125412Y464741D02*
G54D14*
D03*
X120650Y464741D02*
G54D14*
D03*
X115888Y464741D02*
G54D14*
D03*
X111125Y464741D02*
G54D14*
D03*
X106362Y464741D02*
G54D14*
D03*
X101600Y464741D02*
G54D14*
D03*
X168275Y440928D02*
G54D14*
D03*
X163512Y436166D02*
G54D14*
D03*
X158750Y431403D02*
G54D14*
D03*
G54D10*
X527342Y424120D02*
X542453Y424120D01*
G54D10*
X533386Y424120D02*
X535275Y425254D01*
X535842Y427520D01*
X535275Y429787D01*
X533386Y430920D01*
X527342Y430920D01*
G54D10*
X542453Y437343D02*
X528286Y437343D01*
X527342Y438476D01*
X527719Y439610D01*
G54D10*
X535842Y435076D02*
X535842Y439610D01*
G54D10*
X542453Y446032D02*
X528286Y446032D01*
X527342Y447165D01*
X527719Y448299D01*
G54D10*
X535842Y443765D02*
X535842Y448299D01*
G54D10*
X535842Y452454D02*
X523564Y452454D01*
G54D10*
X530175Y452454D02*
X527719Y453588D01*
X527342Y455854D01*
X527719Y458121D01*
X529608Y459254D01*
X533386Y459254D01*
X535275Y458121D01*
X535842Y455854D01*
X535275Y453588D01*
X533008Y452454D01*
G54D10*
X528286Y463410D02*
X527342Y465677D01*
X527342Y467944D01*
X528286Y470210D01*
X530175Y470210D01*
X531119Y469077D01*
X532064Y464544D01*
X533008Y463410D01*
X534897Y463410D01*
X535842Y465677D01*
X535842Y467944D01*
X534897Y470210D01*
G54D10*
X527342Y474366D02*
X527342Y474366D01*
G54D10*
X535842Y474366D02*
X535842Y474366D01*
G54D10*
X527342Y478522D02*
X542453Y487589D01*
G54D10*
X527342Y491745D02*
X542453Y500812D01*
G54D10*
X524508Y504968D02*
X523564Y507235D01*
X523564Y508822D01*
X524508Y511088D01*
X526397Y511768D01*
X535842Y511768D01*
G54D10*
X533386Y511768D02*
X535275Y510635D01*
X535842Y508368D01*
X535275Y506102D01*
X533386Y504968D01*
X529608Y504968D01*
X527719Y506102D01*
X527342Y508368D01*
X527719Y510635D01*
X529608Y511768D01*
G54D10*
X527342Y515924D02*
X535842Y515924D01*
G54D10*
X538675Y515924D02*
X538675Y515924D01*
G54D10*
X542453Y522347D02*
X528286Y522347D01*
X527342Y523480D01*
X527719Y524614D01*
G54D10*
X535842Y520080D02*
X535842Y524614D01*
G54D10*
X527342Y528769D02*
X542453Y528769D01*
G54D10*
X533386Y528769D02*
X535275Y529903D01*
X535842Y532169D01*
X535275Y534436D01*
X533386Y535569D01*
X527342Y535569D01*
G54D10*
X535842Y546525D02*
X527342Y546525D01*
G54D10*
X529230Y546525D02*
X527719Y545392D01*
X527342Y543125D01*
X527719Y540859D01*
X529230Y539725D01*
X535842Y539725D01*
G54D10*
X527342Y550681D02*
X542453Y550681D01*
G54D10*
X533386Y550681D02*
X535275Y551815D01*
X535842Y554081D01*
X535275Y556348D01*
X533386Y557481D01*
X529608Y557481D01*
X527719Y556348D01*
X527342Y554081D01*
X527719Y551815D01*
X529608Y550681D01*
G54D10*
X527342Y561637D02*
X527342Y561637D01*
G54D10*
X535275Y571460D02*
X535842Y569193D01*
X535275Y566927D01*
X533386Y565793D01*
X529608Y565793D01*
X527719Y566927D01*
X527342Y569193D01*
X527719Y571460D01*
G54D10*
X529608Y582416D02*
X533386Y582416D01*
X535275Y581283D01*
X535842Y579016D01*
X535275Y576750D01*
X533386Y575616D01*
X529608Y575616D01*
X527719Y576750D01*
X527342Y579016D01*
X527719Y581283D01*
X529608Y582416D01*
G54D10*
X527342Y586572D02*
X535842Y586572D01*
G54D10*
X534330Y586572D02*
X535842Y588839D01*
X535275Y591106D01*
X533953Y592239D01*
X527342Y592239D01*
G54D10*
X534330Y592239D02*
X535842Y594506D01*
X535275Y596772D01*
X533953Y597906D01*
X527342Y597906D01*
G54D10*
X527342Y602061D02*
X542453Y611128D01*
G54D10*
X530175Y624351D02*
X528286Y623218D01*
X527342Y620951D01*
X527342Y618684D01*
X528286Y616418D01*
X530175Y615284D01*
X539619Y615284D01*
X541508Y616418D01*
X542453Y618684D01*
X542453Y620951D01*
X541508Y623218D01*
X539619Y624351D01*
G54D10*
X527342Y628507D02*
X542453Y628507D01*
G54D10*
X533386Y628507D02*
X535275Y629641D01*
X535842Y631907D01*
X535275Y634174D01*
X533386Y635307D01*
X527342Y635307D01*
G54D10*
X527342Y639463D02*
X535842Y639463D01*
G54D10*
X538675Y639463D02*
X538675Y639463D01*
G54D10*
X535842Y643619D02*
X523564Y643619D01*
G54D10*
X530175Y643619D02*
X527719Y644753D01*
X527342Y647019D01*
X527719Y649286D01*
X529608Y650419D01*
X533386Y650419D01*
X535275Y649286D01*
X535842Y647019D01*
X535275Y644753D01*
X533008Y643619D01*
G54D10*
X527342Y659109D02*
X542453Y659109D01*
G54D10*
X542453Y654575D02*
X542453Y663642D01*
G54D10*
X528286Y674598D02*
X527342Y672785D01*
X527342Y670518D01*
X528286Y668252D01*
X530175Y667798D01*
X533386Y667798D01*
X535275Y668932D01*
X535842Y671198D01*
X535275Y673465D01*
X533953Y674598D01*
X532064Y674598D01*
X532064Y667798D01*
G54D10*
X535275Y684421D02*
X535842Y682154D01*
X535275Y679888D01*
X533386Y678754D01*
X529608Y678754D01*
X527719Y679888D01*
X527342Y682154D01*
X527719Y684421D01*
G54D10*
X527342Y688577D02*
X542453Y688577D01*
G54D10*
X533386Y688577D02*
X535275Y689711D01*
X535842Y691977D01*
X535275Y694244D01*
X533386Y695377D01*
X527342Y695377D01*
G54D10*
X527342Y699533D02*
X535842Y699533D01*
G54D10*
X533953Y699533D02*
X535275Y700667D01*
X535842Y702933D01*
X535275Y705200D01*
X533953Y706333D01*
X527342Y706333D01*
G54D10*
X529608Y717289D02*
X533386Y717289D01*
X535275Y716156D01*
X535842Y713889D01*
X535275Y711623D01*
X533386Y710489D01*
X529608Y710489D01*
X527719Y711623D01*
X527342Y713889D01*
X527719Y716156D01*
X529608Y717289D01*
G54D10*
X527342Y721445D02*
X542453Y730512D01*
G54D10*
X542453Y743735D02*
X530175Y743735D01*
X528286Y742602D01*
X527342Y740335D01*
X527342Y738068D01*
X528286Y735802D01*
X530175Y734668D01*
G54D10*
X535842Y754691D02*
X527342Y754691D01*
G54D10*
X529230Y754691D02*
X527719Y753558D01*
X527342Y751291D01*
X527719Y749025D01*
X529230Y747891D01*
X535842Y747891D01*
G54D10*
X527342Y758847D02*
X535842Y758847D01*
G54D10*
X538675Y758847D02*
X538675Y758847D01*
G54D10*
X535275Y768670D02*
X535842Y766403D01*
X535275Y764137D01*
X533386Y763003D01*
X529608Y763003D01*
X527719Y764137D01*
X527342Y766403D01*
X527719Y768670D01*
G54D10*
X528286Y779626D02*
X527342Y777813D01*
X527342Y775546D01*
X528286Y773280D01*
X530175Y772826D01*
X533386Y772826D01*
X535275Y773960D01*
X535842Y776226D01*
X535275Y778493D01*
X533953Y779626D01*
X532064Y779626D01*
X532064Y772826D01*
G54D10*
X533953Y783782D02*
X533953Y792849D01*
G54D10*
X535842Y797005D02*
X523564Y797005D01*
G54D10*
X530175Y797005D02*
X527719Y798139D01*
X527342Y800405D01*
X527719Y802672D01*
X529608Y803805D01*
X533386Y803805D01*
X535275Y802672D01*
X535842Y800405D01*
X535275Y798139D01*
X533008Y797005D01*
G54D10*
X527342Y807961D02*
X542453Y807961D01*
G54D10*
X535842Y818917D02*
X527342Y818917D01*
G54D10*
X529230Y818917D02*
X527719Y817784D01*
X527342Y815517D01*
X527719Y813251D01*
X529230Y812117D01*
X535842Y812117D01*
G54D10*
X528286Y823073D02*
X527342Y825340D01*
X527342Y827607D01*
X528286Y829873D01*
X530175Y829873D01*
X531119Y828740D01*
X532064Y824207D01*
X533008Y823073D01*
X534897Y823073D01*
X535842Y825340D01*
X535842Y827607D01*
X534897Y829873D01*
G54D11*
X506417Y707189D02*
X506417Y696076D01*
X496098Y693695D01*
X492923Y686155D01*
X498876Y677026D01*
X491733Y669089D01*
X483795Y675439D01*
X475858Y671867D01*
X474270Y660755D01*
X463555Y660755D01*
X462364Y670676D01*
X454030Y674248D01*
X446489Y669089D01*
X438948Y676630D01*
X444505Y685361D01*
X441726Y689726D01*
X458395Y697267D01*
G54D11*
X458395Y705998D02*
X442123Y713539D01*
X444108Y717905D01*
X438552Y726239D01*
X446092Y734573D01*
X454030Y728620D01*
X462364Y732192D01*
X463554Y742511D01*
X474270Y742114D01*
X476254Y731398D01*
X482604Y728620D01*
X490939Y734573D01*
X498480Y726636D01*
X492923Y717508D01*
X496098Y708776D01*
X506417Y707189D01*
G54D11*
G75*
G01X459080Y697536D02*
G03X459080Y705742I9665J4103D01*
G01*
G36*
X474270Y742114D02*
X476254Y731398D01*
X482604Y728620D01*
X490939Y734573D01*
X498480Y726636D01*
X492923Y717508D01*
X496098Y708776D01*
X506417Y707189D01*
X506417Y696076D01*
X496098Y693695D01*
X492923Y686155D01*
X498876Y677026D01*
X491733Y669089D01*
X483795Y675439D01*
X475858Y671867D01*
X474270Y660755D01*
X463555Y660755D01*
X462364Y670676D01*
X454030Y674248D01*
X446489Y669089D01*
X438948Y676630D01*
X444505Y685361D01*
X441726Y689726D01*
X459189Y697664D01*
X459586Y696473D01*
X460380Y695283D01*
X462761Y692902D01*
X465936Y691314D01*
X467920Y690917D01*
X469508Y690917D01*
X471889Y691314D01*
X474667Y692505D01*
X477445Y694886D01*
X478636Y696870D01*
X479430Y698855D01*
X479826Y701236D01*
X479430Y703617D01*
X478636Y706792D01*
X476254Y709570D01*
X472286Y712348D01*
X465936Y712348D01*
X463555Y711158D01*
X461173Y709570D01*
X459189Y707189D01*
X459189Y705602D01*
X442123Y713539D01*
X444108Y717905D01*
X438552Y726239D01*
X446092Y734573D01*
X454030Y728620D01*
X474270Y742114D01*
G37*
G54D11*
X474270Y742114D02*
X476254Y731398D01*
X482604Y728620D01*
X490939Y734573D01*
X498480Y726636D01*
X492923Y717508D01*
X496098Y708776D01*
X506417Y707189D01*
X506417Y696076D01*
X496098Y693695D01*
X492923Y686155D01*
X498876Y677026D01*
X491733Y669089D01*
X483795Y675439D01*
X475858Y671867D01*
X474270Y660755D01*
X463555Y660755D01*
X462364Y670676D01*
X454030Y674248D01*
X446489Y669089D01*
X438948Y676630D01*
X444505Y685361D01*
X441726Y689726D01*
X459189Y697664D01*
X459586Y696473D01*
X460380Y695283D01*
X462761Y692902D01*
X465936Y691314D01*
X467920Y690917D01*
X469508Y690917D01*
X471889Y691314D01*
X474667Y692505D01*
X477445Y694886D01*
X478636Y696870D01*
X479430Y698855D01*
X479826Y701236D01*
X479430Y703617D01*
X478636Y706792D01*
X476254Y709570D01*
X472286Y712348D01*
X465936Y712348D01*
X463555Y711158D01*
X461173Y709570D01*
X459189Y707189D01*
X459189Y705602D01*
X442123Y713539D01*
X444108Y717905D01*
X438552Y726239D01*
X446092Y734573D01*
X454030Y728620D01*
X474270Y742114D01*
G36*
X474270Y742114D02*
X463554Y742511D01*
X462364Y732192D01*
X474270Y742114D01*
G37*
G54D11*
X474270Y742114D02*
X463554Y742511D01*
X462364Y732192D01*
X474270Y742114D01*
G54D10*
X427744Y684897D02*
X418299Y684897D01*
X416410Y683764D01*
X415466Y681497D01*
X415466Y679230D01*
X416410Y676964D01*
X418299Y675830D01*
X427744Y675830D01*
X429633Y676964D01*
X430577Y679230D01*
X430577Y681497D01*
X429633Y683764D01*
X427744Y684897D01*
G54D10*
X418299Y689053D02*
X416410Y690187D01*
X415466Y692453D01*
X415466Y694720D01*
X416410Y696987D01*
X418299Y698120D01*
X420188Y698120D01*
X422077Y696987D01*
X423022Y694720D01*
X423022Y692453D01*
X423966Y690187D01*
X425855Y689053D01*
X427744Y689053D01*
X429633Y690187D01*
X430577Y692453D01*
X430577Y694720D01*
X429633Y696987D01*
X427744Y698120D01*
G54D10*
X415466Y702276D02*
X430577Y702276D01*
G54D10*
X415466Y711343D02*
X430577Y711343D01*
G54D10*
X423022Y702276D02*
X423022Y711343D01*
G54D10*
X430577Y715499D02*
X415466Y715499D01*
X424910Y721166D01*
X415466Y726833D01*
X430577Y726833D01*
X454025Y506412D02*
G54D12*
D03*
X450850Y509588D02*
G54D12*
D03*
X447675Y512762D02*
G54D12*
D03*
X444500Y515938D02*
G54D12*
D03*
X460375Y506412D02*
G54D12*
D03*
X463550Y509588D02*
G54D12*
D03*
X466725Y512762D02*
G54D12*
D03*
X469900Y515938D02*
G54D12*
D03*
X473075Y519112D02*
G54D12*
D03*
X441325Y519112D02*
G54D12*
D03*
X438150Y522288D02*
G54D12*
D03*
X434975Y525462D02*
G54D12*
D03*
X431800Y528638D02*
G54D12*
D03*
X431800Y534988D02*
G54D12*
D03*
X434975Y538162D02*
G54D12*
D03*
X438150Y541338D02*
G54D12*
D03*
X441325Y544512D02*
G54D12*
D03*
X444500Y547688D02*
G54D12*
D03*
X447675Y550862D02*
G54D12*
D03*
X450850Y554038D02*
G54D12*
D03*
X454025Y557213D02*
G54D12*
D03*
X457200Y560388D02*
G54D12*
D03*
X476250Y522288D02*
G54D12*
D03*
X479425Y525462D02*
G54D12*
D03*
X482600Y528638D02*
G54D12*
D03*
X485775Y531812D02*
G54D12*
D03*
X482600Y547688D02*
G54D12*
D03*
X473075Y557213D02*
G54D12*
D03*
X476250Y560388D02*
G54D12*
D03*
X485775Y550862D02*
G54D12*
D03*
X492125Y550862D02*
G54D12*
D03*
X495300Y554038D02*
G54D12*
D03*
X492125Y557213D02*
G54D12*
D03*
X488950Y560388D02*
G54D12*
D03*
X485775Y563563D02*
G54D12*
D03*
X482600Y566738D02*
G54D12*
D03*
X479425Y569912D02*
G54D12*
D03*
X476250Y566738D02*
G54D12*
D03*
X463550Y515938D02*
G54D12*
D03*
X463550Y519112D02*
G54D12*
D03*
X466725Y522288D02*
G54D12*
D03*
X463550Y525462D02*
G54D12*
D03*
X463550Y528638D02*
G54D12*
D03*
X463550Y531812D02*
G54D12*
D03*
X460375Y534988D02*
G54D12*
D03*
X460375Y538162D02*
G54D12*
D03*
X463550Y541338D02*
G54D12*
D03*
X463550Y544512D02*
G54D12*
D03*
X463550Y547688D02*
G54D12*
D03*
X463550Y550862D02*
G54D12*
D03*
X463550Y554038D02*
G54D12*
D03*
X460375Y557213D02*
G54D12*
D03*
X488950Y573088D02*
G54D12*
D03*
X485775Y573088D02*
G54D12*
D03*
X482600Y573088D02*
G54D12*
D03*
X482600Y576263D02*
G54D12*
D03*
X488950Y576263D02*
G54D12*
D03*
X488950Y579438D02*
G54D12*
D03*
X492125Y579438D02*
G54D12*
D03*
X495300Y579438D02*
G54D12*
D03*
X495300Y582613D02*
G54D12*
D03*
X495300Y585788D02*
G54D12*
D03*
X492125Y585788D02*
G54D12*
D03*
X488950Y585788D02*
G54D12*
D03*
X488950Y588963D02*
G54D12*
D03*
X488950Y592138D02*
G54D12*
D03*
X485775Y592138D02*
G54D12*
D03*
X482600Y592138D02*
G54D12*
D03*
X482600Y588963D02*
G54D12*
D03*
X482600Y585788D02*
G54D12*
D03*
X482600Y579438D02*
G54D12*
D03*
X479425Y579438D02*
G54D12*
D03*
X476250Y579438D02*
G54D12*
D03*
X476250Y582613D02*
G54D12*
D03*
X476250Y585788D02*
G54D12*
D03*
X479425Y585788D02*
G54D12*
D03*
X488950Y534988D02*
G54D12*
D03*
X488950Y541338D02*
G54D12*
D03*
X485775Y544512D02*
G54D12*
D03*
X469900Y560388D02*
G54D12*
D03*
X466725Y563563D02*
G54D12*
D03*
X460375Y563563D02*
G54D12*
D03*
X450850Y560388D02*
G54D12*
D03*
X450850Y563563D02*
G54D12*
D03*
X450850Y566738D02*
G54D12*
D03*
X450850Y569912D02*
G54D12*
D03*
X450850Y573088D02*
G54D12*
D03*
X447675Y566738D02*
G54D12*
D03*
X444500Y566738D02*
G54D12*
D03*
X441325Y566738D02*
G54D12*
D03*
X438150Y566738D02*
G54D12*
D03*
X434975Y566738D02*
G54D12*
D03*
X431800Y563563D02*
G54D12*
D03*
X431800Y560388D02*
G54D12*
D03*
X434975Y557213D02*
G54D12*
D03*
X431800Y576263D02*
G54D12*
D03*
X434975Y579438D02*
G54D12*
D03*
X438150Y579438D02*
G54D12*
D03*
X441325Y579438D02*
G54D12*
D03*
X444500Y579438D02*
G54D12*
D03*
X431800Y582613D02*
G54D12*
D03*
X431800Y585788D02*
G54D12*
D03*
X431800Y588963D02*
G54D12*
D03*
X434975Y588963D02*
G54D12*
D03*
X438150Y588963D02*
G54D12*
D03*
X441325Y588963D02*
G54D12*
D03*
X444500Y588963D02*
G54D12*
D03*
X447675Y595313D02*
G54D12*
D03*
X441325Y595313D02*
G54D12*
D03*
X438150Y595313D02*
G54D12*
D03*
X434975Y595313D02*
G54D12*
D03*
X431800Y595313D02*
G54D12*
D03*
X434975Y601662D02*
G54D12*
D03*
X438150Y601662D02*
G54D12*
D03*
X441325Y601662D02*
G54D12*
D03*
X444500Y604838D02*
G54D12*
D03*
X444500Y608013D02*
G54D12*
D03*
X431800Y604838D02*
G54D12*
D03*
X431800Y608012D02*
G54D12*
D03*
X431800Y611188D02*
G54D12*
D03*
X444500Y611188D02*
G54D12*
D03*
X434975Y617538D02*
G54D12*
D03*
X438150Y617538D02*
G54D12*
D03*
X441325Y617538D02*
G54D12*
D03*
X444500Y620712D02*
G54D12*
D03*
X444500Y623888D02*
G54D12*
D03*
X444500Y627062D02*
G54D12*
D03*
X431800Y620713D02*
G54D12*
D03*
X431800Y623888D02*
G54D12*
D03*
X431800Y627063D02*
G54D12*
D03*
X441325Y630238D02*
G54D12*
D03*
X438150Y630238D02*
G54D12*
D03*
X438150Y627063D02*
G54D12*
D03*
X438150Y623888D02*
G54D12*
D03*
X438150Y620712D02*
G54D12*
D03*
X450850Y528638D02*
G54D12*
D03*
X447675Y531812D02*
G54D12*
D03*
X450850Y534988D02*
G54D12*
D03*
X454025Y531812D02*
G54D12*
D03*
X447675Y541338D02*
G54D12*
D03*
X457200Y519112D02*
G54D12*
D03*
X457200Y547688D02*
G54D12*
D03*
X438150Y531812D02*
G54D12*
D03*
X454025Y515938D02*
G54D12*
D03*
X469900Y576262D02*
G54D12*
D03*
X469900Y579438D02*
G54D12*
D03*
X469900Y582613D02*
G54D12*
D03*
X469900Y585788D02*
G54D12*
D03*
X469900Y588963D02*
G54D12*
D03*
X466725Y588963D02*
G54D12*
D03*
X463550Y588963D02*
G54D12*
D03*
X460375Y585788D02*
G54D12*
D03*
X457200Y582613D02*
G54D12*
D03*
X454025Y579438D02*
G54D12*
D03*
X476250Y592138D02*
G54D12*
D03*
X473075Y592138D02*
G54D12*
D03*
X473075Y595313D02*
G54D12*
D03*
X476250Y595313D02*
G54D12*
D03*
X469900Y598488D02*
G54D12*
D03*
X469900Y601663D02*
G54D12*
D03*
X469900Y604838D02*
G54D12*
D03*
X469900Y608013D02*
G54D12*
D03*
X469900Y611188D02*
G54D12*
D03*
X463550Y598488D02*
G54D12*
D03*
X463550Y601663D02*
G54D12*
D03*
X463550Y604838D02*
G54D12*
D03*
X463550Y608013D02*
G54D12*
D03*
X463550Y611188D02*
G54D12*
D03*
X460375Y611188D02*
G54D12*
D03*
X457200Y608013D02*
G54D12*
D03*
X454025Y604838D02*
G54D12*
D03*
X454025Y598488D02*
G54D12*
D03*
X454025Y601663D02*
G54D12*
D03*
X469900Y617538D02*
G54D12*
D03*
X469900Y620712D02*
G54D12*
D03*
X469900Y623888D02*
G54D12*
D03*
X469900Y627062D02*
G54D12*
D03*
X469900Y630238D02*
G54D12*
D03*
X466725Y630238D02*
G54D12*
D03*
X463550Y627062D02*
G54D12*
D03*
X460375Y623888D02*
G54D12*
D03*
X457200Y620712D02*
G54D12*
D03*
X454025Y617538D02*
G54D12*
D03*
X457200Y627062D02*
G54D12*
D03*
X454025Y630238D02*
G54D12*
D03*
X482600Y538162D02*
G54D12*
D03*
X479425Y534988D02*
G54D12*
D03*
G54D13*
X483870Y604329D02*
X482758Y606329D01*
X481647Y606996D01*
X479425Y606996D01*
G54D13*
X479425Y601662D02*
X488314Y601663D01*
X488314Y604996D01*
X487758Y606329D01*
X486647Y606996D01*
X485536Y606996D01*
X484425Y606329D01*
X483870Y604996D01*
X483870Y601662D01*
G54D13*
X479980Y613440D02*
X479425Y612373D01*
X479425Y611040D01*
X479980Y609706D01*
X481092Y609440D01*
X482980Y609440D01*
X484092Y610106D01*
X484425Y611440D01*
X484092Y612773D01*
X483314Y613440D01*
X482203Y613440D01*
X482203Y609440D01*
G54D13*
X484425Y615884D02*
X479425Y618550D01*
X484425Y621217D01*
G54D13*
X479425Y623660D02*
X479425Y623660D01*
G54D13*
X479425Y631438D02*
X479425Y626105D01*
X479980Y626104D01*
X481092Y626771D01*
X484425Y630771D01*
X485536Y631438D01*
X486647Y631438D01*
X487758Y630771D01*
X488314Y629438D01*
X488314Y628104D01*
X487758Y626771D01*
X486647Y626105D01*
G54D13*
X479425Y633882D02*
X479425Y633882D01*
G54D13*
X486647Y641659D02*
X481092Y641659D01*
X479980Y640992D01*
X479425Y639659D01*
X479425Y638326D01*
X479980Y636992D01*
X481092Y636326D01*
X486647Y636326D01*
X487758Y636992D01*
X488314Y638326D01*
X488314Y639659D01*
X487758Y640992D01*
X486647Y641659D01*
X457200Y506412D02*
G54D12*
D03*
X431800Y531812D02*
G54D12*
D03*
X498475Y445691D02*
G54D14*
D03*
X498475Y450453D02*
G54D14*
D03*
X498475Y455216D02*
G54D14*
D03*
X498475Y459978D02*
G54D14*
D03*
X498475Y464741D02*
G54D14*
D03*
X498475Y469503D02*
G54D14*
D03*
X498475Y474266D02*
G54D14*
D03*
X498475Y479028D02*
G54D14*
D03*
X484188Y431403D02*
G54D14*
D03*
X479425Y431403D02*
G54D14*
D03*
X474662Y431403D02*
G54D14*
D03*
X469900Y431403D02*
G54D14*
D03*
X465138Y431403D02*
G54D14*
D03*
X460375Y431403D02*
G54D14*
D03*
X455612Y431403D02*
G54D14*
D03*
X450850Y431403D02*
G54D14*
D03*
X446088Y431403D02*
G54D14*
D03*
X441325Y431403D02*
G54D14*
D03*
X436562Y426641D02*
G54D14*
D03*
X431800Y426641D02*
G54D14*
D03*
X427037Y426641D02*
G54D14*
D03*
X427038Y421878D02*
G54D14*
D03*
X431800Y436166D02*
G54D14*
D03*
X427038Y436166D02*
G54D14*
D03*
X427038Y440928D02*
G54D14*
D03*
X431800Y445691D02*
G54D14*
D03*
X431800Y450453D02*
G54D14*
D03*
X431800Y455216D02*
G54D14*
D03*
X427038Y455216D02*
G54D14*
D03*
X427038Y459978D02*
G54D14*
D03*
X474662Y488553D02*
G54D14*
D03*
X479425Y488553D02*
G54D14*
D03*
X484188Y488553D02*
G54D14*
D03*
X488950Y488553D02*
G54D14*
D03*
X493712Y483791D02*
G54D14*
D03*
X484188Y445691D02*
G54D14*
D03*
X488950Y450453D02*
G54D14*
D03*
X488950Y455216D02*
G54D14*
D03*
X488950Y459978D02*
G54D14*
D03*
X488950Y464741D02*
G54D14*
D03*
X484188Y469503D02*
G54D14*
D03*
X479425Y450453D02*
G54D14*
D03*
X479425Y455216D02*
G54D14*
D03*
X479425Y459978D02*
G54D14*
D03*
X479425Y464741D02*
G54D14*
D03*
X484188Y455216D02*
G54D14*
D03*
X484188Y459978D02*
G54D14*
D03*
X431800Y431403D02*
G54D14*
D03*
X469900Y483791D02*
G54D14*
D03*
X469900Y479028D02*
G54D14*
D03*
X465138Y469503D02*
G54D14*
D03*
X465138Y474266D02*
G54D14*
D03*
X465138Y464741D02*
G54D14*
D03*
X460375Y464741D02*
G54D14*
D03*
X455612Y464741D02*
G54D14*
D03*
X450850Y464741D02*
G54D14*
D03*
X446088Y464741D02*
G54D14*
D03*
X441325Y464741D02*
G54D14*
D03*
X436562Y464741D02*
G54D14*
D03*
X431800Y464741D02*
G54D14*
D03*
X498475Y440928D02*
G54D14*
D03*
X493712Y436166D02*
G54D14*
D03*
X488950Y431403D02*
G54D14*
D03*
G54D10*
X857542Y424120D02*
X872653Y424120D01*
G54D10*
X863586Y424120D02*
X865475Y425254D01*
X866042Y427520D01*
X865475Y429787D01*
X863586Y430920D01*
X857542Y430920D01*
G54D10*
X872653Y437343D02*
X858486Y437343D01*
X857542Y438476D01*
X857919Y439610D01*
G54D10*
X866042Y435076D02*
X866042Y439610D01*
G54D10*
X872653Y446032D02*
X858486Y446032D01*
X857542Y447165D01*
X857919Y448299D01*
G54D10*
X866042Y443765D02*
X866042Y448299D01*
G54D10*
X866042Y452454D02*
X853764Y452454D01*
G54D10*
X860375Y452454D02*
X857919Y453588D01*
X857542Y455854D01*
X857919Y458121D01*
X859808Y459254D01*
X863586Y459254D01*
X865475Y458121D01*
X866042Y455854D01*
X865475Y453588D01*
X863208Y452454D01*
G54D10*
X858486Y463410D02*
X857542Y465677D01*
X857542Y467944D01*
X858486Y470210D01*
X860375Y470210D01*
X861319Y469077D01*
X862264Y464544D01*
X863208Y463410D01*
X865097Y463410D01*
X866042Y465677D01*
X866042Y467944D01*
X865097Y470210D01*
G54D10*
X857542Y474366D02*
X857542Y474366D01*
G54D10*
X866042Y474366D02*
X866042Y474366D01*
G54D10*
X857542Y478522D02*
X872653Y487589D01*
G54D10*
X857542Y491745D02*
X872653Y500812D01*
G54D10*
X854708Y504968D02*
X853764Y507235D01*
X853764Y508822D01*
X854708Y511088D01*
X856597Y511768D01*
X866042Y511768D01*
G54D10*
X863586Y511768D02*
X865475Y510635D01*
X866042Y508368D01*
X865475Y506102D01*
X863586Y504968D01*
X859808Y504968D01*
X857919Y506102D01*
X857542Y508368D01*
X857919Y510635D01*
X859808Y511768D01*
G54D10*
X857542Y515924D02*
X866042Y515924D01*
G54D10*
X868875Y515924D02*
X868875Y515924D01*
G54D10*
X872653Y522347D02*
X858486Y522347D01*
X857542Y523480D01*
X857919Y524614D01*
G54D10*
X866042Y520080D02*
X866042Y524614D01*
G54D10*
X857542Y528769D02*
X872653Y528769D01*
G54D10*
X863586Y528769D02*
X865475Y529903D01*
X866042Y532169D01*
X865475Y534436D01*
X863586Y535569D01*
X857542Y535569D01*
G54D10*
X866042Y546525D02*
X857542Y546525D01*
G54D10*
X859430Y546525D02*
X857919Y545392D01*
X857542Y543125D01*
X857919Y540859D01*
X859430Y539725D01*
X866042Y539725D01*
G54D10*
X857542Y550681D02*
X872653Y550681D01*
G54D10*
X863586Y550681D02*
X865475Y551815D01*
X866042Y554081D01*
X865475Y556348D01*
X863586Y557481D01*
X859808Y557481D01*
X857919Y556348D01*
X857542Y554081D01*
X857919Y551815D01*
X859808Y550681D01*
G54D10*
X857542Y561637D02*
X857542Y561637D01*
G54D10*
X865475Y571460D02*
X866042Y569193D01*
X865475Y566927D01*
X863586Y565793D01*
X859808Y565793D01*
X857919Y566927D01*
X857542Y569193D01*
X857919Y571460D01*
G54D10*
X859808Y582416D02*
X863586Y582416D01*
X865475Y581283D01*
X866042Y579016D01*
X865475Y576750D01*
X863586Y575616D01*
X859808Y575616D01*
X857919Y576750D01*
X857542Y579016D01*
X857919Y581283D01*
X859808Y582416D01*
G54D10*
X857542Y586572D02*
X866042Y586572D01*
G54D10*
X864530Y586572D02*
X866042Y588839D01*
X865475Y591106D01*
X864153Y592239D01*
X857542Y592239D01*
G54D10*
X864530Y592239D02*
X866042Y594506D01*
X865475Y596772D01*
X864153Y597906D01*
X857542Y597906D01*
G54D10*
X857542Y602061D02*
X872653Y611128D01*
G54D10*
X860375Y624351D02*
X858486Y623218D01*
X857542Y620951D01*
X857542Y618684D01*
X858486Y616418D01*
X860375Y615284D01*
X869819Y615284D01*
X871708Y616418D01*
X872653Y618684D01*
X872653Y620951D01*
X871708Y623218D01*
X869819Y624351D01*
G54D10*
X857542Y628507D02*
X872653Y628507D01*
G54D10*
X863586Y628507D02*
X865475Y629641D01*
X866042Y631907D01*
X865475Y634174D01*
X863586Y635307D01*
X857542Y635307D01*
G54D10*
X857542Y639463D02*
X866042Y639463D01*
G54D10*
X868875Y639463D02*
X868875Y639463D01*
G54D10*
X866042Y643619D02*
X853764Y643619D01*
G54D10*
X860375Y643619D02*
X857919Y644753D01*
X857542Y647019D01*
X857919Y649286D01*
X859808Y650419D01*
X863586Y650419D01*
X865475Y649286D01*
X866042Y647019D01*
X865475Y644753D01*
X863208Y643619D01*
G54D10*
X857542Y659109D02*
X872653Y659109D01*
G54D10*
X872653Y654575D02*
X872653Y663642D01*
G54D10*
X858486Y674598D02*
X857542Y672785D01*
X857542Y670518D01*
X858486Y668252D01*
X860375Y667798D01*
X863586Y667798D01*
X865475Y668932D01*
X866042Y671198D01*
X865475Y673465D01*
X864153Y674598D01*
X862264Y674598D01*
X862264Y667798D01*
G54D10*
X865475Y684421D02*
X866042Y682154D01*
X865475Y679888D01*
X863586Y678754D01*
X859808Y678754D01*
X857919Y679888D01*
X857542Y682154D01*
X857919Y684421D01*
G54D10*
X857542Y688577D02*
X872653Y688577D01*
G54D10*
X863586Y688577D02*
X865475Y689711D01*
X866042Y691977D01*
X865475Y694244D01*
X863586Y695377D01*
X857542Y695377D01*
G54D10*
X857542Y699533D02*
X866042Y699533D01*
G54D10*
X864153Y699533D02*
X865475Y700667D01*
X866042Y702933D01*
X865475Y705200D01*
X864153Y706333D01*
X857542Y706333D01*
G54D10*
X859808Y717289D02*
X863586Y717289D01*
X865475Y716156D01*
X866042Y713889D01*
X865475Y711623D01*
X863586Y710489D01*
X859808Y710489D01*
X857919Y711623D01*
X857542Y713889D01*
X857919Y716156D01*
X859808Y717289D01*
G54D10*
X857542Y721445D02*
X872653Y730512D01*
G54D10*
X872653Y743735D02*
X860375Y743735D01*
X858486Y742602D01*
X857542Y740335D01*
X857542Y738068D01*
X858486Y735802D01*
X860375Y734668D01*
G54D10*
X866042Y754691D02*
X857542Y754691D01*
G54D10*
X859430Y754691D02*
X857919Y753558D01*
X857542Y751291D01*
X857919Y749025D01*
X859430Y747891D01*
X866042Y747891D01*
G54D10*
X857542Y758847D02*
X866042Y758847D01*
G54D10*
X868875Y758847D02*
X868875Y758847D01*
G54D10*
X865475Y768670D02*
X866042Y766403D01*
X865475Y764137D01*
X863586Y763003D01*
X859808Y763003D01*
X857919Y764137D01*
X857542Y766403D01*
X857919Y768670D01*
G54D10*
X858486Y779626D02*
X857542Y777813D01*
X857542Y775546D01*
X858486Y773280D01*
X860375Y772826D01*
X863586Y772826D01*
X865475Y773960D01*
X866042Y776226D01*
X865475Y778493D01*
X864153Y779626D01*
X862264Y779626D01*
X862264Y772826D01*
G54D10*
X864153Y783782D02*
X864153Y792849D01*
G54D10*
X866042Y797005D02*
X853764Y797005D01*
G54D10*
X860375Y797005D02*
X857919Y798139D01*
X857542Y800405D01*
X857919Y802672D01*
X859808Y803805D01*
X863586Y803805D01*
X865475Y802672D01*
X866042Y800405D01*
X865475Y798139D01*
X863208Y797005D01*
G54D10*
X857542Y807961D02*
X872653Y807961D01*
G54D10*
X866042Y818917D02*
X857542Y818917D01*
G54D10*
X859430Y818917D02*
X857919Y817784D01*
X857542Y815517D01*
X857919Y813251D01*
X859430Y812117D01*
X866042Y812117D01*
G54D10*
X858486Y823073D02*
X857542Y825340D01*
X857542Y827607D01*
X858486Y829873D01*
X860375Y829873D01*
X861319Y828740D01*
X862264Y824207D01*
X863208Y823073D01*
X865097Y823073D01*
X866042Y825340D01*
X866042Y827607D01*
X865097Y829873D01*
G54D11*
X836617Y707189D02*
X836617Y696076D01*
X826298Y693695D01*
X823123Y686155D01*
X829076Y677026D01*
X821933Y669089D01*
X813995Y675439D01*
X806058Y671867D01*
X804470Y660755D01*
X793755Y660755D01*
X792564Y670676D01*
X784230Y674248D01*
X776689Y669089D01*
X769148Y676630D01*
X774705Y685361D01*
X771926Y689726D01*
X788595Y697267D01*
G54D11*
X788595Y705998D02*
X772323Y713539D01*
X774308Y717905D01*
X768752Y726239D01*
X776292Y734573D01*
X784230Y728620D01*
X792564Y732192D01*
X793754Y742511D01*
X804470Y742114D01*
X806454Y731398D01*
X812804Y728620D01*
X821139Y734573D01*
X828680Y726636D01*
X823123Y717508D01*
X826298Y708776D01*
X836617Y707189D01*
G54D11*
G75*
G01X789280Y697536D02*
G03X789280Y705742I9665J4103D01*
G01*
G36*
X804470Y742114D02*
X806454Y731398D01*
X812804Y728620D01*
X821139Y734573D01*
X828680Y726636D01*
X823123Y717508D01*
X826298Y708776D01*
X836617Y707189D01*
X836617Y696076D01*
X826298Y693695D01*
X823123Y686155D01*
X829076Y677026D01*
X821933Y669089D01*
X813995Y675439D01*
X806058Y671867D01*
X804470Y660755D01*
X793755Y660755D01*
X792564Y670676D01*
X784230Y674248D01*
X776689Y669089D01*
X769148Y676630D01*
X774705Y685361D01*
X771926Y689726D01*
X789389Y697664D01*
X789786Y696473D01*
X790580Y695283D01*
X792961Y692902D01*
X796136Y691314D01*
X798120Y690917D01*
X799708Y690917D01*
X802089Y691314D01*
X804867Y692505D01*
X807645Y694886D01*
X808836Y696870D01*
X809630Y698855D01*
X810026Y701236D01*
X809630Y703617D01*
X808836Y706792D01*
X806454Y709570D01*
X802486Y712348D01*
X796136Y712348D01*
X793755Y711158D01*
X791373Y709570D01*
X789389Y707189D01*
X789389Y705602D01*
X772323Y713539D01*
X774308Y717905D01*
X768752Y726239D01*
X776292Y734573D01*
X784230Y728620D01*
X804470Y742114D01*
G37*
G54D11*
X804470Y742114D02*
X806454Y731398D01*
X812804Y728620D01*
X821139Y734573D01*
X828680Y726636D01*
X823123Y717508D01*
X826298Y708776D01*
X836617Y707189D01*
X836617Y696076D01*
X826298Y693695D01*
X823123Y686155D01*
X829076Y677026D01*
X821933Y669089D01*
X813995Y675439D01*
X806058Y671867D01*
X804470Y660755D01*
X793755Y660755D01*
X792564Y670676D01*
X784230Y674248D01*
X776689Y669089D01*
X769148Y676630D01*
X774705Y685361D01*
X771926Y689726D01*
X789389Y697664D01*
X789786Y696473D01*
X790580Y695283D01*
X792961Y692902D01*
X796136Y691314D01*
X798120Y690917D01*
X799708Y690917D01*
X802089Y691314D01*
X804867Y692505D01*
X807645Y694886D01*
X808836Y696870D01*
X809630Y698855D01*
X810026Y701236D01*
X809630Y703617D01*
X808836Y706792D01*
X806454Y709570D01*
X802486Y712348D01*
X796136Y712348D01*
X793755Y711158D01*
X791373Y709570D01*
X789389Y707189D01*
X789389Y705602D01*
X772323Y713539D01*
X774308Y717905D01*
X768752Y726239D01*
X776292Y734573D01*
X784230Y728620D01*
X804470Y742114D01*
G36*
X804470Y742114D02*
X793754Y742511D01*
X792564Y732192D01*
X804470Y742114D01*
G37*
G54D11*
X804470Y742114D02*
X793754Y742511D01*
X792564Y732192D01*
X804470Y742114D01*
G54D10*
X757944Y684897D02*
X748499Y684897D01*
X746610Y683764D01*
X745666Y681497D01*
X745666Y679230D01*
X746610Y676964D01*
X748499Y675830D01*
X757944Y675830D01*
X759833Y676964D01*
X760777Y679230D01*
X760777Y681497D01*
X759833Y683764D01*
X757944Y684897D01*
G54D10*
X748499Y689053D02*
X746610Y690187D01*
X745666Y692453D01*
X745666Y694720D01*
X746610Y696987D01*
X748499Y698120D01*
X750388Y698120D01*
X752277Y696987D01*
X753222Y694720D01*
X753222Y692453D01*
X754166Y690187D01*
X756055Y689053D01*
X757944Y689053D01*
X759833Y690187D01*
X760777Y692453D01*
X760777Y694720D01*
X759833Y696987D01*
X757944Y698120D01*
G54D10*
X745666Y702276D02*
X760777Y702276D01*
G54D10*
X745666Y711343D02*
X760777Y711343D01*
G54D10*
X753222Y702276D02*
X753222Y711343D01*
G54D10*
X760777Y715499D02*
X745666Y715499D01*
X755110Y721166D01*
X745666Y726833D01*
X760777Y726833D01*
X784225Y506412D02*
G54D12*
D03*
X781050Y509588D02*
G54D12*
D03*
X777875Y512762D02*
G54D12*
D03*
X774700Y515938D02*
G54D12*
D03*
X790575Y506412D02*
G54D12*
D03*
X793750Y509588D02*
G54D12*
D03*
X796925Y512762D02*
G54D12*
D03*
X800100Y515938D02*
G54D12*
D03*
X803275Y519112D02*
G54D12*
D03*
X771525Y519112D02*
G54D12*
D03*
X768350Y522288D02*
G54D12*
D03*
X765175Y525462D02*
G54D12*
D03*
X762000Y528638D02*
G54D12*
D03*
X762000Y534988D02*
G54D12*
D03*
X765175Y538162D02*
G54D12*
D03*
X768350Y541338D02*
G54D12*
D03*
X771525Y544512D02*
G54D12*
D03*
X774700Y547688D02*
G54D12*
D03*
X777875Y550862D02*
G54D12*
D03*
X781050Y554038D02*
G54D12*
D03*
X784225Y557213D02*
G54D12*
D03*
X787400Y560388D02*
G54D12*
D03*
X806450Y522288D02*
G54D12*
D03*
X809625Y525462D02*
G54D12*
D03*
X812800Y528638D02*
G54D12*
D03*
X815975Y531812D02*
G54D12*
D03*
X812800Y547688D02*
G54D12*
D03*
X803275Y557213D02*
G54D12*
D03*
X806450Y560388D02*
G54D12*
D03*
X815975Y550862D02*
G54D12*
D03*
X822325Y550862D02*
G54D12*
D03*
X825500Y554038D02*
G54D12*
D03*
X822325Y557213D02*
G54D12*
D03*
X819150Y560388D02*
G54D12*
D03*
X815975Y563563D02*
G54D12*
D03*
X812800Y566738D02*
G54D12*
D03*
X809625Y569912D02*
G54D12*
D03*
X806450Y566738D02*
G54D12*
D03*
X793750Y515938D02*
G54D12*
D03*
X793750Y519112D02*
G54D12*
D03*
X796925Y522288D02*
G54D12*
D03*
X793750Y525462D02*
G54D12*
D03*
X793750Y528638D02*
G54D12*
D03*
X793750Y531812D02*
G54D12*
D03*
X790575Y534988D02*
G54D12*
D03*
X790575Y538162D02*
G54D12*
D03*
X793750Y541338D02*
G54D12*
D03*
X793750Y544512D02*
G54D12*
D03*
X793750Y547688D02*
G54D12*
D03*
X793750Y550862D02*
G54D12*
D03*
X793750Y554038D02*
G54D12*
D03*
X790575Y557213D02*
G54D12*
D03*
X819150Y573088D02*
G54D12*
D03*
X815975Y573088D02*
G54D12*
D03*
X812800Y573088D02*
G54D12*
D03*
X812800Y576263D02*
G54D12*
D03*
X819150Y576263D02*
G54D12*
D03*
X819150Y579438D02*
G54D12*
D03*
X822325Y579438D02*
G54D12*
D03*
X825500Y579438D02*
G54D12*
D03*
X825500Y582613D02*
G54D12*
D03*
X825500Y585788D02*
G54D12*
D03*
X822325Y585788D02*
G54D12*
D03*
X819150Y585788D02*
G54D12*
D03*
X819150Y588963D02*
G54D12*
D03*
X819150Y592138D02*
G54D12*
D03*
X815975Y592138D02*
G54D12*
D03*
X812800Y592138D02*
G54D12*
D03*
X812800Y588963D02*
G54D12*
D03*
X812800Y585788D02*
G54D12*
D03*
X812800Y579438D02*
G54D12*
D03*
X809625Y579438D02*
G54D12*
D03*
X806450Y579438D02*
G54D12*
D03*
X806450Y582613D02*
G54D12*
D03*
X806450Y585788D02*
G54D12*
D03*
X809625Y585788D02*
G54D12*
D03*
X819150Y534988D02*
G54D12*
D03*
X819150Y541338D02*
G54D12*
D03*
X815975Y544512D02*
G54D12*
D03*
X800100Y560388D02*
G54D12*
D03*
X796925Y563563D02*
G54D12*
D03*
X790575Y563563D02*
G54D12*
D03*
X781050Y560388D02*
G54D12*
D03*
X781050Y563563D02*
G54D12*
D03*
X781050Y566738D02*
G54D12*
D03*
X781050Y569912D02*
G54D12*
D03*
X781050Y573088D02*
G54D12*
D03*
X777875Y566738D02*
G54D12*
D03*
X774700Y566738D02*
G54D12*
D03*
X771525Y566738D02*
G54D12*
D03*
X768350Y566738D02*
G54D12*
D03*
X765175Y566738D02*
G54D12*
D03*
X762000Y563563D02*
G54D12*
D03*
X762000Y560388D02*
G54D12*
D03*
X765175Y557213D02*
G54D12*
D03*
X762000Y576263D02*
G54D12*
D03*
X765175Y579438D02*
G54D12*
D03*
X768350Y579438D02*
G54D12*
D03*
X771525Y579438D02*
G54D12*
D03*
X774700Y579438D02*
G54D12*
D03*
X762000Y582613D02*
G54D12*
D03*
X762000Y585788D02*
G54D12*
D03*
X762000Y588963D02*
G54D12*
D03*
X765175Y588963D02*
G54D12*
D03*
X768350Y588963D02*
G54D12*
D03*
X771525Y588963D02*
G54D12*
D03*
X774700Y588963D02*
G54D12*
D03*
X777875Y595313D02*
G54D12*
D03*
X771525Y595313D02*
G54D12*
D03*
X768350Y595313D02*
G54D12*
D03*
X765175Y595313D02*
G54D12*
D03*
X762000Y595313D02*
G54D12*
D03*
X765175Y601662D02*
G54D12*
D03*
X768350Y601662D02*
G54D12*
D03*
X771525Y601662D02*
G54D12*
D03*
X774700Y604838D02*
G54D12*
D03*
X774700Y608013D02*
G54D12*
D03*
X762000Y604838D02*
G54D12*
D03*
X762000Y608012D02*
G54D12*
D03*
X762000Y611188D02*
G54D12*
D03*
X774700Y611188D02*
G54D12*
D03*
X765175Y617538D02*
G54D12*
D03*
X768350Y617538D02*
G54D12*
D03*
X771525Y617538D02*
G54D12*
D03*
X774700Y620712D02*
G54D12*
D03*
X774700Y623888D02*
G54D12*
D03*
X774700Y627062D02*
G54D12*
D03*
X762000Y620713D02*
G54D12*
D03*
X762000Y623888D02*
G54D12*
D03*
X762000Y627063D02*
G54D12*
D03*
X771525Y630238D02*
G54D12*
D03*
X768350Y630238D02*
G54D12*
D03*
X768350Y627063D02*
G54D12*
D03*
X768350Y623888D02*
G54D12*
D03*
X768350Y620712D02*
G54D12*
D03*
X781050Y528638D02*
G54D12*
D03*
X777875Y531812D02*
G54D12*
D03*
X781050Y534988D02*
G54D12*
D03*
X784225Y531812D02*
G54D12*
D03*
X777875Y541338D02*
G54D12*
D03*
X787400Y519112D02*
G54D12*
D03*
X787400Y547688D02*
G54D12*
D03*
X768350Y531812D02*
G54D12*
D03*
X784225Y515938D02*
G54D12*
D03*
X800100Y576262D02*
G54D12*
D03*
X800100Y579438D02*
G54D12*
D03*
X800100Y582613D02*
G54D12*
D03*
X800100Y585788D02*
G54D12*
D03*
X800100Y588963D02*
G54D12*
D03*
X796925Y588963D02*
G54D12*
D03*
X793750Y588963D02*
G54D12*
D03*
X790575Y585788D02*
G54D12*
D03*
X787400Y582613D02*
G54D12*
D03*
X784225Y579438D02*
G54D12*
D03*
X806450Y592138D02*
G54D12*
D03*
X803275Y592138D02*
G54D12*
D03*
X803275Y595313D02*
G54D12*
D03*
X806450Y595313D02*
G54D12*
D03*
X800100Y598488D02*
G54D12*
D03*
X800100Y601663D02*
G54D12*
D03*
X800100Y604838D02*
G54D12*
D03*
X800100Y608013D02*
G54D12*
D03*
X800100Y611188D02*
G54D12*
D03*
X793750Y598488D02*
G54D12*
D03*
X793750Y601663D02*
G54D12*
D03*
X793750Y604838D02*
G54D12*
D03*
X793750Y608013D02*
G54D12*
D03*
X793750Y611188D02*
G54D12*
D03*
X790575Y611188D02*
G54D12*
D03*
X787400Y608013D02*
G54D12*
D03*
X784225Y604838D02*
G54D12*
D03*
X784225Y598488D02*
G54D12*
D03*
X784225Y601663D02*
G54D12*
D03*
X800100Y617538D02*
G54D12*
D03*
X800100Y620712D02*
G54D12*
D03*
X800100Y623888D02*
G54D12*
D03*
X800100Y627062D02*
G54D12*
D03*
X800100Y630238D02*
G54D12*
D03*
X796925Y630238D02*
G54D12*
D03*
X793750Y627062D02*
G54D12*
D03*
X790575Y623888D02*
G54D12*
D03*
X787400Y620712D02*
G54D12*
D03*
X784225Y617538D02*
G54D12*
D03*
X787400Y627062D02*
G54D12*
D03*
X784225Y630238D02*
G54D12*
D03*
X812800Y538162D02*
G54D12*
D03*
X809625Y534988D02*
G54D12*
D03*
G54D13*
X814070Y604329D02*
X812958Y606329D01*
X811847Y606996D01*
X809625Y606996D01*
G54D13*
X809625Y601662D02*
X818514Y601663D01*
X818514Y604996D01*
X817958Y606329D01*
X816847Y606996D01*
X815736Y606996D01*
X814625Y606329D01*
X814070Y604996D01*
X814070Y601662D01*
G54D13*
X810180Y613440D02*
X809625Y612373D01*
X809625Y611040D01*
X810180Y609706D01*
X811292Y609440D01*
X813180Y609440D01*
X814292Y610106D01*
X814625Y611440D01*
X814292Y612773D01*
X813514Y613440D01*
X812403Y613440D01*
X812403Y609440D01*
G54D13*
X814625Y615884D02*
X809625Y618550D01*
X814625Y621217D01*
G54D13*
X809625Y623660D02*
X809625Y623660D01*
G54D13*
X809625Y631438D02*
X809625Y626105D01*
X810180Y626104D01*
X811292Y626771D01*
X814625Y630771D01*
X815736Y631438D01*
X816847Y631438D01*
X817958Y630771D01*
X818514Y629438D01*
X818514Y628104D01*
X817958Y626771D01*
X816847Y626105D01*
G54D13*
X809625Y633882D02*
X809625Y633882D01*
G54D13*
X816847Y641659D02*
X811292Y641659D01*
X810180Y640992D01*
X809625Y639659D01*
X809625Y638326D01*
X810180Y636992D01*
X811292Y636326D01*
X816847Y636326D01*
X817958Y636992D01*
X818514Y638326D01*
X818514Y639659D01*
X817958Y640992D01*
X816847Y641659D01*
X787400Y506412D02*
G54D12*
D03*
X762000Y531812D02*
G54D12*
D03*
X828675Y445691D02*
G54D14*
D03*
X828675Y450453D02*
G54D14*
D03*
X828675Y455216D02*
G54D14*
D03*
X828675Y459978D02*
G54D14*
D03*
X828675Y464741D02*
G54D14*
D03*
X828675Y469503D02*
G54D14*
D03*
X828675Y474266D02*
G54D14*
D03*
X828675Y479028D02*
G54D14*
D03*
X814388Y431403D02*
G54D14*
D03*
X809625Y431403D02*
G54D14*
D03*
X804862Y431403D02*
G54D14*
D03*
X800100Y431403D02*
G54D14*
D03*
X795338Y431403D02*
G54D14*
D03*
X790575Y431403D02*
G54D14*
D03*
X785812Y431403D02*
G54D14*
D03*
X781050Y431403D02*
G54D14*
D03*
X776288Y431403D02*
G54D14*
D03*
X771525Y431403D02*
G54D14*
D03*
X766762Y426641D02*
G54D14*
D03*
X762000Y426641D02*
G54D14*
D03*
X757238Y426641D02*
G54D14*
D03*
X757238Y421878D02*
G54D14*
D03*
X762000Y436166D02*
G54D14*
D03*
X757238Y436166D02*
G54D14*
D03*
X757238Y440928D02*
G54D14*
D03*
X762000Y445691D02*
G54D14*
D03*
X762000Y450453D02*
G54D14*
D03*
X762000Y455216D02*
G54D14*
D03*
X757238Y455216D02*
G54D14*
D03*
X757238Y459978D02*
G54D14*
D03*
X804862Y488553D02*
G54D14*
D03*
X809625Y488553D02*
G54D14*
D03*
X814388Y488553D02*
G54D14*
D03*
X819150Y488553D02*
G54D14*
D03*
X823912Y483791D02*
G54D14*
D03*
X814388Y445691D02*
G54D14*
D03*
X819150Y450453D02*
G54D14*
D03*
X819150Y455216D02*
G54D14*
D03*
X819150Y459978D02*
G54D14*
D03*
X819150Y464741D02*
G54D14*
D03*
X814388Y469503D02*
G54D14*
D03*
X809625Y450453D02*
G54D14*
D03*
X809625Y455216D02*
G54D14*
D03*
X809625Y459978D02*
G54D14*
D03*
X809625Y464741D02*
G54D14*
D03*
X814388Y455216D02*
G54D14*
D03*
X814388Y459978D02*
G54D14*
D03*
X762000Y431403D02*
G54D14*
D03*
X800100Y483791D02*
G54D14*
D03*
X800100Y479028D02*
G54D14*
D03*
X795338Y469503D02*
G54D14*
D03*
X795338Y474266D02*
G54D14*
D03*
X795338Y464741D02*
G54D14*
D03*
X790575Y464741D02*
G54D14*
D03*
X785812Y464741D02*
G54D14*
D03*
X781050Y464741D02*
G54D14*
D03*
X776288Y464741D02*
G54D14*
D03*
X771525Y464741D02*
G54D14*
D03*
X766762Y464741D02*
G54D14*
D03*
X762000Y464741D02*
G54D14*
D03*
X828675Y440928D02*
G54D14*
D03*
X823912Y436166D02*
G54D14*
D03*
X819150Y431403D02*
G54D14*
D03*
M02*
