%FSLAX34Y34*%
%MOMM*%
%LNSMDMASK_TOP*%
G71*
G01*
%ADD10R, 1.98X3.35*%
%ADD11R, 1.50X1.80*%
%ADD12R, 1.00X2.20*%
%ADD13R, 2.20X4.20*%
%ADD14R, 2.20X4.70*%
%ADD15R, 1.80X1.50*%
%ADD16R, 0.60X0.60*%
%LPD*%
X140891Y866775D02*
G54D10*
D03*
X88900Y866775D02*
G54D10*
D03*
X19050Y946150D02*
G54D11*
D03*
X38050Y946150D02*
G54D11*
D03*
X19050Y971550D02*
G54D11*
D03*
X38050Y971550D02*
G54D11*
D03*
X28575Y885825D02*
G54D12*
D03*
X28575Y920155D02*
G54D12*
D03*
X139700Y698500D02*
G54D13*
D03*
X139700Y644525D02*
G54D13*
D03*
X139700Y700881D02*
G54D14*
D03*
G36*
X128700Y665247D02*
X150700Y665247D01*
X150700Y618247D01*
X128700Y618247D01*
X128700Y665247D01*
G37*
X260350Y704850D02*
G54D10*
D03*
X312341Y704850D02*
G54D10*
D03*
X139700Y700880D02*
G54D14*
D03*
X28580Y920150D02*
G54D12*
D03*
X38050Y971550D02*
G54D11*
D03*
X311150Y819150D02*
G54D15*
D03*
X311150Y800150D02*
G54D15*
D03*
X311150Y768350D02*
G54D15*
D03*
X311150Y749350D02*
G54D15*
D03*
X311150Y819150D02*
G54D15*
D03*
X120650Y482600D02*
G54D10*
D03*
X172641Y482600D02*
G54D10*
D03*
X215900Y419100D02*
G54D11*
D03*
X196900Y419100D02*
G54D11*
D03*
X196900Y419100D02*
G54D11*
D03*
X139700Y374650D02*
G54D13*
D03*
X139700Y428625D02*
G54D13*
D03*
X139700Y372269D02*
G54D14*
D03*
X139700Y431403D02*
G54D14*
D03*
X139700Y372270D02*
G54D14*
D03*
X247650Y419150D02*
G54D15*
D03*
X247650Y438150D02*
G54D15*
D03*
X130175Y192088D02*
G54D16*
D03*
X134938Y192088D02*
G54D16*
D03*
X139700Y192088D02*
G54D16*
D03*
X144462Y192088D02*
G54D16*
D03*
X149225Y192088D02*
G54D16*
D03*
X153988Y192088D02*
G54D16*
D03*
X158750Y192088D02*
G54D16*
D03*
X163512Y192088D02*
G54D16*
D03*
X115888Y177800D02*
G54D16*
D03*
X115888Y173038D02*
G54D16*
D03*
X115888Y168275D02*
G54D16*
D03*
X115888Y163512D02*
G54D16*
D03*
X115888Y158750D02*
G54D16*
D03*
X115888Y153988D02*
G54D16*
D03*
X115888Y149225D02*
G54D16*
D03*
X115888Y144462D02*
G54D16*
D03*
X115888Y139700D02*
G54D16*
D03*
X115888Y134938D02*
G54D16*
D03*
X111125Y130175D02*
G54D16*
D03*
X111125Y125412D02*
G54D16*
D03*
X111125Y120650D02*
G54D16*
D03*
X106362Y120650D02*
G54D16*
D03*
X120650Y125412D02*
G54D16*
D03*
X120650Y120650D02*
G54D16*
D03*
X125412Y120650D02*
G54D16*
D03*
X130175Y125412D02*
G54D16*
D03*
X134938Y125412D02*
G54D16*
D03*
X139700Y125412D02*
G54D16*
D03*
X139700Y120650D02*
G54D16*
D03*
X144462Y120650D02*
G54D16*
D03*
X173038Y168275D02*
G54D16*
D03*
X173038Y173038D02*
G54D16*
D03*
X173038Y177800D02*
G54D16*
D03*
X173038Y182562D02*
G54D16*
D03*
X168275Y187325D02*
G54D16*
D03*
X130175Y177800D02*
G54D16*
D03*
X134938Y182562D02*
G54D16*
D03*
X139700Y182562D02*
G54D16*
D03*
X144462Y182562D02*
G54D16*
D03*
X149225Y182562D02*
G54D16*
D03*
X153988Y177800D02*
G54D16*
D03*
X134938Y173038D02*
G54D16*
D03*
X139700Y173038D02*
G54D16*
D03*
X144462Y173038D02*
G54D16*
D03*
X149225Y173038D02*
G54D16*
D03*
X139700Y177800D02*
G54D16*
D03*
X144462Y177800D02*
G54D16*
D03*
X115888Y125412D02*
G54D16*
D03*
X168275Y163512D02*
G54D16*
D03*
X163512Y163512D02*
G54D16*
D03*
X153988Y158750D02*
G54D16*
D03*
X158750Y158750D02*
G54D16*
D03*
X149225Y158750D02*
G54D16*
D03*
X149225Y153988D02*
G54D16*
D03*
X149225Y149225D02*
G54D16*
D03*
X149225Y144462D02*
G54D16*
D03*
X149225Y139700D02*
G54D16*
D03*
X149225Y134938D02*
G54D16*
D03*
X149225Y130175D02*
G54D16*
D03*
X149225Y125412D02*
G54D16*
D03*
X125412Y192088D02*
G54D16*
D03*
X120650Y187325D02*
G54D16*
D03*
X115888Y182562D02*
G54D16*
D03*
X158750Y125412D02*
G54D16*
D03*
X158750Y130175D02*
G54D16*
D03*
X158750Y134938D02*
G54D16*
D03*
X163512Y139700D02*
G54D16*
D03*
X163512Y120650D02*
G54D16*
D03*
X171450Y139700D02*
G54D16*
D03*
X171450Y134938D02*
G54D16*
D03*
X171450Y130175D02*
G54D16*
D03*
X176212Y130175D02*
G54D16*
D03*
X180975Y130175D02*
G54D16*
D03*
X180975Y134938D02*
G54D16*
D03*
X180975Y139700D02*
G54D16*
D03*
X171450Y125412D02*
G54D16*
D03*
X171450Y120650D02*
G54D16*
D03*
X180975Y125412D02*
G54D16*
D03*
X180975Y120650D02*
G54D16*
D03*
X188912Y139700D02*
G54D16*
D03*
X188912Y134938D02*
G54D16*
D03*
X188912Y130175D02*
G54D16*
D03*
X188912Y125412D02*
G54D16*
D03*
X188912Y120650D02*
G54D16*
D03*
X196850Y139700D02*
G54D16*
D03*
X196850Y134938D02*
G54D16*
D03*
X196850Y130175D02*
G54D16*
D03*
X196850Y125412D02*
G54D16*
D03*
X196850Y120650D02*
G54D16*
D03*
X201612Y130175D02*
G54D16*
D03*
X201612Y139700D02*
G54D16*
D03*
X206375Y139700D02*
G54D16*
D03*
X206375Y130175D02*
G54D16*
D03*
X206375Y134938D02*
G54D16*
D03*
X158750Y139700D02*
G54D16*
D03*
X158750Y120650D02*
G54D16*
D03*
X214312Y139700D02*
G54D16*
D03*
X214312Y134938D02*
G54D16*
D03*
X214312Y130175D02*
G54D16*
D03*
X214312Y125412D02*
G54D16*
D03*
X214312Y120650D02*
G54D16*
D03*
X219075Y120650D02*
G54D16*
D03*
X219075Y139700D02*
G54D16*
D03*
X228600Y120650D02*
G54D16*
D03*
X228600Y125412D02*
G54D16*
D03*
X228600Y130175D02*
G54D16*
D03*
X228600Y134938D02*
G54D16*
D03*
X228600Y139700D02*
G54D16*
D03*
X233362Y139700D02*
G54D16*
D03*
X233362Y130175D02*
G54D16*
D03*
X233362Y120650D02*
G54D16*
D03*
X471091Y866775D02*
G54D10*
D03*
X419100Y866775D02*
G54D10*
D03*
X349250Y946150D02*
G54D11*
D03*
X368250Y946150D02*
G54D11*
D03*
X349250Y971550D02*
G54D11*
D03*
X368250Y971550D02*
G54D11*
D03*
X358775Y885825D02*
G54D12*
D03*
X358775Y920155D02*
G54D12*
D03*
X469900Y698500D02*
G54D13*
D03*
X469900Y644525D02*
G54D13*
D03*
X469900Y700881D02*
G54D14*
D03*
G36*
X458900Y665247D02*
X480900Y665247D01*
X480900Y618247D01*
X458900Y618247D01*
X458900Y665247D01*
G37*
X590550Y704850D02*
G54D10*
D03*
X642541Y704850D02*
G54D10*
D03*
X469900Y700880D02*
G54D14*
D03*
X358780Y920150D02*
G54D12*
D03*
X368250Y971550D02*
G54D11*
D03*
X641350Y819150D02*
G54D15*
D03*
X641350Y800150D02*
G54D15*
D03*
X641350Y768350D02*
G54D15*
D03*
X641350Y749350D02*
G54D15*
D03*
X641350Y819150D02*
G54D15*
D03*
X450850Y482600D02*
G54D10*
D03*
X502841Y482600D02*
G54D10*
D03*
X546100Y419100D02*
G54D11*
D03*
X527100Y419100D02*
G54D11*
D03*
X527100Y419100D02*
G54D11*
D03*
X469900Y374650D02*
G54D13*
D03*
X469900Y428625D02*
G54D13*
D03*
X469900Y372269D02*
G54D14*
D03*
X469900Y431403D02*
G54D14*
D03*
X469900Y372270D02*
G54D14*
D03*
X577850Y419150D02*
G54D15*
D03*
X577850Y438150D02*
G54D15*
D03*
X460375Y192088D02*
G54D16*
D03*
X465138Y192088D02*
G54D16*
D03*
X469900Y192088D02*
G54D16*
D03*
X474662Y192088D02*
G54D16*
D03*
X479425Y192088D02*
G54D16*
D03*
X484188Y192088D02*
G54D16*
D03*
X488950Y192088D02*
G54D16*
D03*
X493712Y192088D02*
G54D16*
D03*
X446088Y177800D02*
G54D16*
D03*
X446088Y173038D02*
G54D16*
D03*
X446088Y168275D02*
G54D16*
D03*
X446088Y163512D02*
G54D16*
D03*
X446088Y158750D02*
G54D16*
D03*
X446088Y153988D02*
G54D16*
D03*
X446088Y149225D02*
G54D16*
D03*
X446088Y144462D02*
G54D16*
D03*
X446088Y139700D02*
G54D16*
D03*
X446088Y134938D02*
G54D16*
D03*
X441325Y130175D02*
G54D16*
D03*
X441325Y125412D02*
G54D16*
D03*
X441325Y120650D02*
G54D16*
D03*
X436562Y120650D02*
G54D16*
D03*
X450850Y125412D02*
G54D16*
D03*
X450850Y120650D02*
G54D16*
D03*
X455612Y120650D02*
G54D16*
D03*
X460375Y125412D02*
G54D16*
D03*
X465138Y125412D02*
G54D16*
D03*
X469900Y125412D02*
G54D16*
D03*
X469900Y120650D02*
G54D16*
D03*
X474662Y120650D02*
G54D16*
D03*
X503238Y168275D02*
G54D16*
D03*
X503238Y173038D02*
G54D16*
D03*
X503238Y177800D02*
G54D16*
D03*
X503238Y182562D02*
G54D16*
D03*
X498475Y187325D02*
G54D16*
D03*
X460375Y177800D02*
G54D16*
D03*
X465138Y182562D02*
G54D16*
D03*
X469900Y182562D02*
G54D16*
D03*
X474662Y182562D02*
G54D16*
D03*
X479425Y182562D02*
G54D16*
D03*
X484188Y177800D02*
G54D16*
D03*
X465138Y173038D02*
G54D16*
D03*
X469900Y173038D02*
G54D16*
D03*
X474662Y173038D02*
G54D16*
D03*
X479425Y173038D02*
G54D16*
D03*
X469900Y177800D02*
G54D16*
D03*
X474662Y177800D02*
G54D16*
D03*
X446088Y125412D02*
G54D16*
D03*
X498475Y163512D02*
G54D16*
D03*
X493712Y163512D02*
G54D16*
D03*
X484188Y158750D02*
G54D16*
D03*
X488950Y158750D02*
G54D16*
D03*
X479425Y158750D02*
G54D16*
D03*
X479425Y153988D02*
G54D16*
D03*
X479425Y149225D02*
G54D16*
D03*
X479425Y144462D02*
G54D16*
D03*
X479425Y139700D02*
G54D16*
D03*
X479425Y134938D02*
G54D16*
D03*
X479425Y130175D02*
G54D16*
D03*
X479425Y125412D02*
G54D16*
D03*
X455612Y192088D02*
G54D16*
D03*
X450850Y187325D02*
G54D16*
D03*
X446088Y182562D02*
G54D16*
D03*
X488950Y125412D02*
G54D16*
D03*
X488950Y130175D02*
G54D16*
D03*
X488950Y134938D02*
G54D16*
D03*
X493712Y139700D02*
G54D16*
D03*
X493712Y120650D02*
G54D16*
D03*
X501650Y139700D02*
G54D16*
D03*
X501650Y134938D02*
G54D16*
D03*
X501650Y130175D02*
G54D16*
D03*
X506412Y130175D02*
G54D16*
D03*
X511175Y130175D02*
G54D16*
D03*
X511175Y134938D02*
G54D16*
D03*
X511175Y139700D02*
G54D16*
D03*
X501650Y125412D02*
G54D16*
D03*
X501650Y120650D02*
G54D16*
D03*
X511175Y125412D02*
G54D16*
D03*
X511175Y120650D02*
G54D16*
D03*
X519112Y139700D02*
G54D16*
D03*
X519112Y134938D02*
G54D16*
D03*
X519112Y130175D02*
G54D16*
D03*
X519112Y125412D02*
G54D16*
D03*
X519112Y120650D02*
G54D16*
D03*
X527050Y139700D02*
G54D16*
D03*
X527050Y134938D02*
G54D16*
D03*
X527050Y130175D02*
G54D16*
D03*
X527050Y125412D02*
G54D16*
D03*
X527050Y120650D02*
G54D16*
D03*
X531812Y130175D02*
G54D16*
D03*
X531812Y139700D02*
G54D16*
D03*
X536575Y139700D02*
G54D16*
D03*
X536575Y130175D02*
G54D16*
D03*
X536575Y134938D02*
G54D16*
D03*
X488950Y139700D02*
G54D16*
D03*
X488950Y120650D02*
G54D16*
D03*
X544512Y139700D02*
G54D16*
D03*
X544512Y134938D02*
G54D16*
D03*
X544512Y130175D02*
G54D16*
D03*
X544512Y125412D02*
G54D16*
D03*
X544512Y120650D02*
G54D16*
D03*
X549275Y120650D02*
G54D16*
D03*
X549275Y139700D02*
G54D16*
D03*
X558800Y120650D02*
G54D16*
D03*
X558800Y125412D02*
G54D16*
D03*
X558800Y130175D02*
G54D16*
D03*
X558800Y134938D02*
G54D16*
D03*
X558800Y139700D02*
G54D16*
D03*
X563562Y139700D02*
G54D16*
D03*
X563562Y130175D02*
G54D16*
D03*
X563562Y120650D02*
G54D16*
D03*
X801291Y866775D02*
G54D10*
D03*
X749300Y866775D02*
G54D10*
D03*
X679450Y946150D02*
G54D11*
D03*
X698450Y946150D02*
G54D11*
D03*
X679450Y971550D02*
G54D11*
D03*
X698450Y971550D02*
G54D11*
D03*
X688975Y885825D02*
G54D12*
D03*
X688975Y920155D02*
G54D12*
D03*
X800100Y698500D02*
G54D13*
D03*
X800100Y644525D02*
G54D13*
D03*
X800100Y700881D02*
G54D14*
D03*
G36*
X789100Y665247D02*
X811100Y665247D01*
X811100Y618247D01*
X789100Y618247D01*
X789100Y665247D01*
G37*
X920750Y704850D02*
G54D10*
D03*
X972741Y704850D02*
G54D10*
D03*
X800100Y700880D02*
G54D14*
D03*
X688980Y920150D02*
G54D12*
D03*
X698450Y971550D02*
G54D11*
D03*
X971550Y819150D02*
G54D15*
D03*
X971550Y800150D02*
G54D15*
D03*
X971550Y768350D02*
G54D15*
D03*
X971550Y749350D02*
G54D15*
D03*
X971550Y819150D02*
G54D15*
D03*
X781050Y482600D02*
G54D10*
D03*
X833041Y482600D02*
G54D10*
D03*
X876300Y419100D02*
G54D11*
D03*
X857300Y419100D02*
G54D11*
D03*
X857300Y419100D02*
G54D11*
D03*
X800100Y374650D02*
G54D13*
D03*
X800100Y428625D02*
G54D13*
D03*
X800100Y372269D02*
G54D14*
D03*
X800100Y431403D02*
G54D14*
D03*
X800100Y372270D02*
G54D14*
D03*
X908050Y419150D02*
G54D15*
D03*
X908050Y438150D02*
G54D15*
D03*
X790575Y192088D02*
G54D16*
D03*
X795338Y192088D02*
G54D16*
D03*
X800100Y192088D02*
G54D16*
D03*
X804862Y192088D02*
G54D16*
D03*
X809625Y192088D02*
G54D16*
D03*
X814388Y192088D02*
G54D16*
D03*
X819150Y192088D02*
G54D16*
D03*
X823912Y192088D02*
G54D16*
D03*
X776288Y177800D02*
G54D16*
D03*
X776288Y173038D02*
G54D16*
D03*
X776288Y168275D02*
G54D16*
D03*
X776288Y163512D02*
G54D16*
D03*
X776288Y158750D02*
G54D16*
D03*
X776288Y153988D02*
G54D16*
D03*
X776288Y149225D02*
G54D16*
D03*
X776288Y144462D02*
G54D16*
D03*
X776288Y139700D02*
G54D16*
D03*
X776288Y134938D02*
G54D16*
D03*
X771525Y130175D02*
G54D16*
D03*
X771525Y125412D02*
G54D16*
D03*
X771525Y120650D02*
G54D16*
D03*
X766762Y120650D02*
G54D16*
D03*
X781050Y125412D02*
G54D16*
D03*
X781050Y120650D02*
G54D16*
D03*
X785812Y120650D02*
G54D16*
D03*
X790575Y125412D02*
G54D16*
D03*
X795338Y125412D02*
G54D16*
D03*
X800100Y125412D02*
G54D16*
D03*
X800100Y120650D02*
G54D16*
D03*
X804862Y120650D02*
G54D16*
D03*
X833438Y168275D02*
G54D16*
D03*
X833438Y173038D02*
G54D16*
D03*
X833438Y177800D02*
G54D16*
D03*
X833438Y182562D02*
G54D16*
D03*
X828675Y187325D02*
G54D16*
D03*
X790575Y177800D02*
G54D16*
D03*
X795338Y182562D02*
G54D16*
D03*
X800100Y182562D02*
G54D16*
D03*
X804862Y182562D02*
G54D16*
D03*
X809625Y182562D02*
G54D16*
D03*
X814388Y177800D02*
G54D16*
D03*
X795338Y173038D02*
G54D16*
D03*
X800100Y173038D02*
G54D16*
D03*
X804862Y173038D02*
G54D16*
D03*
X809625Y173038D02*
G54D16*
D03*
X800100Y177800D02*
G54D16*
D03*
X804862Y177800D02*
G54D16*
D03*
X776288Y125412D02*
G54D16*
D03*
X828675Y163512D02*
G54D16*
D03*
X823912Y163512D02*
G54D16*
D03*
X814388Y158750D02*
G54D16*
D03*
X819150Y158750D02*
G54D16*
D03*
X809625Y158750D02*
G54D16*
D03*
X809625Y153988D02*
G54D16*
D03*
X809625Y149225D02*
G54D16*
D03*
X809625Y144462D02*
G54D16*
D03*
X809625Y139700D02*
G54D16*
D03*
X809625Y134938D02*
G54D16*
D03*
X809625Y130175D02*
G54D16*
D03*
X809625Y125412D02*
G54D16*
D03*
X785812Y192088D02*
G54D16*
D03*
X781050Y187325D02*
G54D16*
D03*
X776288Y182562D02*
G54D16*
D03*
X819150Y125412D02*
G54D16*
D03*
X819150Y130175D02*
G54D16*
D03*
X819150Y134938D02*
G54D16*
D03*
X823912Y139700D02*
G54D16*
D03*
X823912Y120650D02*
G54D16*
D03*
X831850Y139700D02*
G54D16*
D03*
X831850Y134938D02*
G54D16*
D03*
X831850Y130175D02*
G54D16*
D03*
X836612Y130175D02*
G54D16*
D03*
X841375Y130175D02*
G54D16*
D03*
X841375Y134938D02*
G54D16*
D03*
X841375Y139700D02*
G54D16*
D03*
X831850Y125412D02*
G54D16*
D03*
X831850Y120650D02*
G54D16*
D03*
X841375Y125412D02*
G54D16*
D03*
X841375Y120650D02*
G54D16*
D03*
X849312Y139700D02*
G54D16*
D03*
X849312Y134938D02*
G54D16*
D03*
X849312Y130175D02*
G54D16*
D03*
X849312Y125412D02*
G54D16*
D03*
X849312Y120650D02*
G54D16*
D03*
X857250Y139700D02*
G54D16*
D03*
X857250Y134938D02*
G54D16*
D03*
X857250Y130175D02*
G54D16*
D03*
X857250Y125412D02*
G54D16*
D03*
X857250Y120650D02*
G54D16*
D03*
X862012Y130175D02*
G54D16*
D03*
X862012Y139700D02*
G54D16*
D03*
X866775Y139700D02*
G54D16*
D03*
X866775Y130175D02*
G54D16*
D03*
X866775Y134938D02*
G54D16*
D03*
X819150Y139700D02*
G54D16*
D03*
X819150Y120650D02*
G54D16*
D03*
X874712Y139700D02*
G54D16*
D03*
X874712Y134938D02*
G54D16*
D03*
X874712Y130175D02*
G54D16*
D03*
X874712Y125412D02*
G54D16*
D03*
X874712Y120650D02*
G54D16*
D03*
X879475Y120650D02*
G54D16*
D03*
X879475Y139700D02*
G54D16*
D03*
X889000Y120650D02*
G54D16*
D03*
X889000Y125412D02*
G54D16*
D03*
X889000Y130175D02*
G54D16*
D03*
X889000Y134938D02*
G54D16*
D03*
X889000Y139700D02*
G54D16*
D03*
X893762Y139700D02*
G54D16*
D03*
X893762Y130175D02*
G54D16*
D03*
X893762Y120650D02*
G54D16*
D03*
M02*
