; Drill file
; Format: 2.4 (00.0000)
M48
INCH
T01C0.0197
T02C0.0315
T03C0.0394
T04C0.0591
T05C0.1181
%
G05
G90
T01
X006130Y014000
X006130Y014060
X006130Y014130
X006130Y014190
X006130Y014250
X006130Y014310
X006130Y014380
X006130Y014440
X006130Y014500
X006130Y014560
X006130Y014620
X006130Y014690
X006130Y014750
X007560Y014750
X007560Y014690
X007560Y014620
X007560Y014560
X007560Y014500
X007560Y014440
X007560Y014380
X007560Y014310
X007560Y014250
X007560Y014190
X007560Y014130
X007560Y014060
X007560Y014000
X009440Y014000
X009440Y014060
X009440Y014130
X009440Y014190
X009440Y014250
X009440Y014310
X009440Y014380
X009440Y014440
X009440Y014500
X009440Y014560
X009440Y014620
X009440Y014690
X009440Y014750
X010870Y014750
X010870Y014690
X010870Y014620
X010870Y014560
X010870Y014500
X010870Y014440
X010870Y014380
X010870Y014310
X010870Y014250
X010870Y014190
X010870Y014130
X010870Y014060
X010870Y014000
X012900Y018900
X012900Y020100
X012900Y022150
X010870Y028000
X010870Y028060
X010870Y028120
X010870Y028190
X010870Y028250
X010870Y028310
X010870Y028370
X010870Y028440
X010870Y028500
X010870Y028560
X010870Y028620
X010870Y028690
X010870Y028750
X009440Y028750
X009440Y028690
X009440Y028620
X009440Y028560
X009440Y028500
X009440Y028440
X009440Y028370
X009440Y028310
X009440Y028250
X009440Y028190
X009440Y028120
X009440Y028060
X009440Y028000
X007560Y028000
X007560Y028060
X007560Y028120
X007560Y028190
X007560Y028250
X007560Y028310
X007560Y028370
X007560Y028440
X007560Y028500
X007560Y028560
X007560Y028620
X007560Y028690
X007560Y028750
X006130Y028750
X006130Y028690
X006130Y028620
X006130Y028560
X006130Y028500
X006130Y028440
X006130Y028370
X006130Y028310
X006130Y028250
X006130Y028190
X006130Y028120
X006130Y028060
X006130Y028000
X005250Y022000
X012900Y032900
X012900Y034100
X012900Y036150
X005250Y036000
X021750Y036000
X022630Y028750
X022630Y028690
X022630Y028620
X022630Y028560
X022630Y028500
X022630Y028440
X022630Y028370
X022630Y028310
X022630Y028250
X022630Y028190
X022630Y028120
X022630Y028060
X022630Y028000
X024060Y028000
X024060Y028060
X024060Y028120
X024060Y028190
X024060Y028250
X024060Y028310
X024060Y028370
X024060Y028440
X024060Y028500
X024060Y028560
X024060Y028620
X024060Y028690
X024060Y028750
X025940Y028750
X025940Y028690
X025940Y028620
X025940Y028560
X025940Y028500
X025940Y028440
X025940Y028370
X025940Y028310
X025940Y028250
X025940Y028190
X025940Y028120
X025940Y028060
X025940Y028000
X027370Y028000
X027370Y028060
X027370Y028120
X027370Y028190
X027370Y028250
X027370Y028310
X027370Y028370
X027370Y028440
X027370Y028500
X027370Y028560
X027370Y028620
X027370Y028690
X027370Y028750
X029400Y032900
X029400Y034100
X029400Y036150
X029400Y022150
X029400Y020100
X029400Y018900
X027370Y014750
X027370Y014690
X027370Y014620
X027370Y014560
X027370Y014500
X027370Y014440
X027370Y014380
X027370Y014310
X027370Y014250
X027370Y014190
X027370Y014130
X027370Y014060
X027370Y014000
X025940Y014000
X025940Y014060
X025940Y014130
X025940Y014190
X025940Y014250
X025940Y014310
X025940Y014380
X025940Y014440
X025940Y014500
X025940Y014560
X025940Y014620
X025940Y014690
X025940Y014750
X024060Y014750
X024060Y014690
X024060Y014620
X024060Y014560
X024060Y014500
X024060Y014440
X024060Y014380
X024060Y014310
X024060Y014250
X024060Y014190
X024060Y014130
X024060Y014060
X024060Y014000
X022630Y014000
X022630Y014060
X022630Y014130
X022630Y014190
X022630Y014250
X022630Y014310
X022630Y014380
X022630Y014440
X022630Y014500
X022630Y014560
X022630Y014620
X022630Y014690
X022630Y014750
X021750Y022000
T02
X001500Y017000
X002500Y017000
X003500Y017000
X004500Y017000
X005500Y017000
X006500Y017000
X007500Y017000
X008500Y017000
X009500Y017000
X010500Y017000
X011500Y017000
X012500Y017000
X018000Y017000
X019000Y017000
X020000Y017000
X021000Y017000
X022000Y017000
X023000Y017000
X024000Y017000
X025000Y017000
X026000Y017000
X027000Y017000
X028000Y017000
X029000Y017000
X022750Y020000
X021750Y020000
X020750Y020000
X021000Y031000
X020000Y031000
X019000Y031000
X018000Y031000
X022000Y031000
X023000Y031000
X024000Y031000
X025000Y031000
X026000Y031000
X027000Y031000
X028000Y031000
X029000Y031000
X022750Y034000
X021750Y034000
X020750Y034000
X012500Y031000
X011500Y031000
X010500Y031000
X009500Y031000
X008500Y031000
X007500Y031000
X006500Y031000
X005500Y031000
X004500Y031000
X003500Y031000
X002500Y031000
X001500Y031000
X004250Y034000
X005250Y034000
X006250Y034000
X006250Y020000
X005250Y020000
X004250Y020000
T03
X001500Y022500
X002500Y022500
X003500Y022500
X007000Y022500
X008000Y022500
X009000Y022500
X010000Y022500
X011000Y022500
X015250Y022250
X015250Y023250
X018000Y022500
X019000Y022500
X020000Y022500
X023500Y022500
X024500Y022500
X025500Y022500
X026500Y022500
X027500Y022500
X031750Y022250
X031750Y023250
X031750Y020000
X031750Y019000
X031750Y016750
X031750Y015750
X031750Y029750
X031750Y030750
X031750Y033000
X031750Y034000
X031750Y036250
X031750Y037250
X027500Y036500
X026500Y036500
X025500Y036500
X024500Y036500
X023500Y036500
X020000Y036500
X019000Y036500
X018000Y036500
X015250Y036250
X015250Y037250
X015250Y034000
X015250Y033000
X015250Y030750
X015250Y029750
X011000Y036500
X010000Y036500
X009000Y036500
X008000Y036500
X007000Y036500
X003500Y036500
X002500Y036500
X001500Y036500
X015250Y020000
X015250Y019000
X015250Y016750
X015250Y015750
T04
X002000Y012250
X002000Y013810
X002000Y026250
X002000Y027810
X015000Y027810
X015000Y026250
X018500Y026250
X018500Y027810
X031500Y027810
X031500Y026250
X031500Y013810
X031500Y012250
X018500Y012250
X018500Y013810
X015000Y013810
X015000Y012250
T05
X005880Y012250
X011130Y012250
X022370Y012250
X027630Y012250
X027630Y026250
X022370Y026250
X011130Y026250
X005880Y026250
M30
