%FSLAX34Y34*%
%MOMM*%
%LNCOPPER_BOTTOM*%
G71*
G01*
%ADD10C, 0.10*%
%ADD11C, 0.15*%
%ADD12C, 0.20*%
%ADD13C, 0.11*%
%LPD*%
G54D10*
X304800Y901700D02*
X304800Y962025D01*
G54D10*
X152400Y901700D02*
X152400Y962025D01*
X304800Y962025D01*
G54D10*
X304800Y901700D02*
X152400Y901700D01*
G54D10*
X279400Y901700D02*
X279400Y908050D01*
X177800Y908050D01*
X177800Y901700D01*
G54D10*
X412750Y971550D02*
X352425Y971550D01*
G54D10*
X412750Y895350D02*
X352425Y895350D01*
X352425Y971550D01*
G54D10*
X412750Y971550D02*
X412750Y895350D01*
G54D10*
X412750Y946150D02*
X406400Y946150D01*
X406400Y920750D01*
X412750Y920750D01*
G54D10*
X313333Y829271D02*
X313333Y872530D01*
X341908Y872530D01*
X341908Y829271D01*
X313333Y829271D01*
G54D11*
X144350Y904900D02*
X122350Y904900D01*
X122350Y942900D01*
X144350Y942900D01*
X144350Y904900D01*
G54D12*
X419100Y727075D02*
X331788Y727075D01*
X331788Y646112D01*
X419100Y646113D01*
X419100Y727075D01*
G54D12*
X419100Y666750D02*
X401638Y666750D01*
X401638Y706438D01*
X419100Y706438D01*
G54D12*
X401638Y727075D02*
X401638Y646112D01*
G54D12*
X12700Y646112D02*
X100012Y646112D01*
X100012Y727075D01*
X12700Y727075D01*
X12700Y646112D01*
G54D12*
X12700Y706438D02*
X30162Y706438D01*
X30162Y666750D01*
X12700Y666750D01*
G54D12*
X30162Y646112D02*
X30162Y727075D01*
G54D12*
X136525Y744538D02*
X295275Y744538D01*
X295275Y696912D01*
X136525Y696912D01*
X136525Y744538D01*
G54D12*
X12700Y971550D02*
X419100Y971550D01*
G54D10*
X412750Y971550D02*
X422275Y971550D01*
X422275Y895350D01*
X412750Y895350D01*
G54D10*
X422275Y904875D02*
X412750Y904875D01*
G54D10*
X422275Y962025D02*
X412750Y962025D01*
G54D10*
X412750Y936625D02*
X422275Y936625D01*
G54D10*
X412750Y930275D02*
X422275Y930275D01*
G54D10*
X412750Y889000D02*
X352425Y889000D01*
G54D10*
X412750Y812800D02*
X352425Y812800D01*
X352425Y889000D01*
G54D10*
X412750Y889000D02*
X412750Y812800D01*
G54D10*
X412750Y863600D02*
X406400Y863600D01*
X406400Y838200D01*
X412750Y838200D01*
G54D10*
X412750Y889000D02*
X422275Y889000D01*
X422275Y812800D01*
X412750Y812800D01*
G54D10*
X422275Y822325D02*
X412750Y822325D01*
G54D10*
X422275Y879475D02*
X412750Y879475D01*
G54D10*
X412750Y854075D02*
X422275Y854075D01*
G54D10*
X412750Y847725D02*
X422275Y847725D01*
G54D10*
X412750Y806450D02*
X352425Y806450D01*
G54D10*
X412750Y730250D02*
X352425Y730250D01*
X352425Y806450D01*
G54D10*
X412750Y806450D02*
X412750Y730250D01*
G54D10*
X412750Y781050D02*
X406400Y781050D01*
X406400Y755650D01*
X412750Y755650D01*
G54D10*
X412750Y806450D02*
X422275Y806450D01*
X422275Y730250D01*
X412750Y730250D01*
G54D10*
X422275Y739775D02*
X412750Y739775D01*
G54D10*
X422275Y796925D02*
X412750Y796925D01*
G54D10*
X412750Y771525D02*
X422275Y771525D01*
G54D10*
X412750Y765175D02*
X422275Y765175D01*
G54D10*
X304800Y901700D02*
X304800Y892175D01*
X152400Y892175D01*
X152400Y901700D01*
G54D10*
X161925Y901700D02*
X161925Y892175D01*
G54D10*
X295275Y892175D02*
X295275Y901700D01*
G54D10*
X95250Y876300D02*
X95250Y850900D01*
X171450Y850900D01*
X171450Y876300D01*
X95250Y876300D01*
G54D10*
X12700Y822325D02*
X12700Y752475D01*
X342900Y752475D01*
X342900Y822325D01*
X12700Y822325D01*
G54D10*
X12700Y812800D02*
X342900Y812800D01*
G54D10*
X38100Y812800D02*
X38100Y806450D01*
X317500Y806450D01*
X317500Y812800D01*
G54D10*
X174625Y822325D02*
X174625Y812800D01*
G54D10*
X180975Y822325D02*
X180975Y812800D01*
G54D10*
X22225Y822325D02*
X22225Y812800D01*
G54D10*
X333375Y822325D02*
X333375Y812800D01*
G54D10*
X313333Y911820D02*
X313333Y955080D01*
X341908Y955080D01*
X341908Y911820D01*
X313333Y911820D01*
G54D10*
X68659Y877888D02*
X68659Y849312D01*
X76597Y849312D01*
X76597Y877888D01*
X68659Y877888D01*
G54D10*
X114300Y901700D02*
X114300Y962025D01*
G54D10*
X12700Y901700D02*
X12700Y962025D01*
X114300Y962025D01*
G54D10*
X114300Y901700D02*
X12700Y901700D01*
G54D10*
X88900Y901700D02*
X88900Y908050D01*
X38100Y908050D01*
X38100Y901700D01*
G54D10*
X114300Y901700D02*
X114300Y892175D01*
X12700Y892175D01*
X12700Y901700D01*
G54D10*
X22225Y901700D02*
X22225Y892175D01*
G54D10*
X104775Y892175D02*
X104775Y901700D01*
G54D10*
X265112Y831850D02*
X265112Y875109D01*
X293688Y875109D01*
X293688Y831850D01*
X265112Y831850D01*
G54D10*
X177800Y800100D02*
X177800Y762000D01*
G54D13*
X276225Y888364D02*
X279558Y879475D01*
X282892Y888364D01*
G54D13*
X253492Y883919D02*
X256158Y883919D01*
X256158Y881142D01*
X255492Y880031D01*
X254158Y879475D01*
X252825Y879475D01*
X251492Y880031D01*
X250825Y881142D01*
X250825Y886697D01*
X251492Y887808D01*
X252825Y888364D01*
X254158Y888364D01*
X255492Y887808D01*
X256158Y886697D01*
G54D13*
X225425Y881142D02*
X226092Y880031D01*
X227425Y879475D01*
X228758Y879475D01*
X230092Y880031D01*
X230758Y881142D01*
X230758Y882253D01*
X230092Y883364D01*
X228758Y883919D01*
X227425Y883919D01*
X226092Y884475D01*
X225425Y885586D01*
X225425Y886697D01*
X226092Y887808D01*
X227425Y888364D01*
X228758Y888364D01*
X230092Y887808D01*
X230758Y886697D01*
G54D13*
X202692Y883919D02*
X205358Y883919D01*
X205358Y881142D01*
X204692Y880031D01*
X203358Y879475D01*
X202025Y879475D01*
X200692Y880031D01*
X200025Y881142D01*
X200025Y886697D01*
X200692Y887808D01*
X202025Y888364D01*
X203358Y888364D01*
X204692Y887808D01*
X205358Y886697D01*
G54D13*
X174625Y888364D02*
X179958Y888364D01*
X174625Y879475D01*
X179958Y879475D01*
G54D13*
X60325Y834389D02*
X65658Y834389D01*
X60325Y825500D01*
X65658Y825500D01*
G54D13*
X88392Y829944D02*
X91058Y829944D01*
X91058Y827167D01*
X90392Y826056D01*
X89058Y825500D01*
X87725Y825500D01*
X86392Y826056D01*
X85725Y827167D01*
X85725Y832722D01*
X86392Y833833D01*
X87725Y834389D01*
X89058Y834389D01*
X90392Y833833D01*
X91058Y832722D01*
G54D13*
X111125Y827167D02*
X111792Y826056D01*
X113125Y825500D01*
X114458Y825500D01*
X115792Y826056D01*
X116458Y827167D01*
X116458Y828278D01*
X115792Y829389D01*
X114458Y829944D01*
X113125Y829944D01*
X111792Y830500D01*
X111125Y831611D01*
X111125Y832722D01*
X111792Y833833D01*
X113125Y834389D01*
X114458Y834389D01*
X115792Y833833D01*
X116458Y832722D01*
G54D13*
X139192Y829944D02*
X141858Y829944D01*
X141858Y827167D01*
X141192Y826056D01*
X139858Y825500D01*
X138525Y825500D01*
X137192Y826056D01*
X136525Y827167D01*
X136525Y832722D01*
X137192Y833833D01*
X138525Y834389D01*
X139858Y834389D01*
X141192Y833833D01*
X141858Y832722D01*
G54D13*
X165100Y834389D02*
X168433Y825500D01*
X171767Y834389D01*
G54D13*
X88900Y888364D02*
X92233Y879475D01*
X95567Y888364D01*
G54D13*
X57150Y881142D02*
X57817Y880031D01*
X59150Y879475D01*
X60483Y879475D01*
X61817Y880031D01*
X62483Y881142D01*
X62483Y882253D01*
X61817Y883364D01*
X60483Y883919D01*
X59150Y883919D01*
X57817Y884475D01*
X57150Y885586D01*
X57150Y886697D01*
X57817Y887808D01*
X59150Y888364D01*
X60483Y888364D01*
X61817Y887808D01*
X62483Y886697D01*
G54D13*
X34417Y883919D02*
X37083Y883919D01*
X37083Y881142D01*
X36417Y880031D01*
X35083Y879475D01*
X33750Y879475D01*
X32417Y880031D01*
X31750Y881142D01*
X31750Y886697D01*
X32417Y887808D01*
X33750Y888364D01*
X35083Y888364D01*
X36417Y887808D01*
X37083Y886697D01*
G54D13*
X310133Y881142D02*
X309467Y880031D01*
X308133Y879475D01*
X306800Y879475D01*
X305467Y880031D01*
X304800Y881142D01*
X304800Y886697D01*
X305467Y887808D01*
X306800Y888364D01*
X308133Y888364D01*
X309467Y887808D01*
X310133Y886697D01*
G54D13*
X316577Y880808D02*
X316577Y883031D01*
X315910Y884142D01*
X314577Y884475D01*
X313244Y884142D01*
X312577Y883031D01*
X312577Y880808D01*
X313244Y879697D01*
X314577Y879475D01*
X315910Y879697D01*
X316577Y880808D01*
G54D13*
X323021Y880808D02*
X323021Y883031D01*
X322354Y884142D01*
X321021Y884475D01*
X319688Y884142D01*
X319021Y883031D01*
X319021Y880808D01*
X319688Y879697D01*
X321021Y879475D01*
X322354Y879697D01*
X323021Y880808D01*
G54D13*
X325465Y879475D02*
X325465Y888364D01*
G54D13*
X327909Y879475D02*
X327909Y884475D01*
G54D13*
X327909Y886142D02*
X327909Y886142D01*
G54D13*
X330353Y879475D02*
X330353Y884475D01*
G54D13*
X330353Y883364D02*
X331020Y884142D01*
X332353Y884475D01*
X333686Y884142D01*
X334353Y883364D01*
X334353Y879475D01*
G54D13*
X336797Y877808D02*
X338130Y877253D01*
X339064Y877253D01*
X340397Y877808D01*
X340797Y878919D01*
X340797Y884475D01*
G54D13*
X340797Y883031D02*
X340130Y884142D01*
X338797Y884475D01*
X337464Y884142D01*
X336797Y883031D01*
X336797Y880808D01*
X337464Y879697D01*
X338797Y879475D01*
X340130Y879697D01*
X340797Y880808D01*
G54D13*
X343241Y883364D02*
X348574Y883364D01*
G54D13*
X345908Y885586D02*
X345908Y881142D01*
G54D13*
X311150Y967739D02*
X311150Y958850D01*
X315817Y958850D01*
G54D13*
X318261Y963294D02*
X319594Y963850D01*
X321194Y963850D01*
X322261Y962739D01*
X322261Y958850D01*
G54D13*
X322261Y960517D02*
X321594Y961628D01*
X320261Y961850D01*
X318928Y961628D01*
X318261Y960517D01*
X318528Y959406D01*
X319594Y958850D01*
X320261Y958850D01*
X320528Y958850D01*
X321594Y959406D01*
X322261Y960517D01*
G54D13*
X324705Y963850D02*
X327372Y958850D01*
X330038Y963850D01*
G54D13*
X327372Y958850D02*
X326705Y957183D01*
X326038Y956628D01*
X325372Y956628D01*
G54D13*
X336482Y959406D02*
X335415Y958850D01*
X334082Y958850D01*
X332749Y959406D01*
X332482Y960517D01*
X332482Y962406D01*
X333149Y963517D01*
X334482Y963850D01*
X335815Y963517D01*
X336482Y962739D01*
X336482Y961628D01*
X332482Y961628D01*
G54D13*
X338926Y958850D02*
X338926Y963850D01*
G54D13*
X338926Y962739D02*
X340259Y963850D01*
X341593Y963850D01*
G54D13*
X344037Y962739D02*
X349370Y962739D01*
G54D13*
X346704Y964961D02*
X346704Y960517D01*
G54D13*
X190500Y834389D02*
X190500Y825500D01*
X195167Y825500D01*
G54D13*
X215392Y829944D02*
X218058Y829944D01*
X218058Y827167D01*
X217392Y826056D01*
X216058Y825500D01*
X214725Y825500D01*
X213392Y826056D01*
X212725Y827167D01*
X212725Y832722D01*
X213392Y833833D01*
X214725Y834389D01*
X216058Y834389D01*
X217392Y833833D01*
X218058Y832722D01*
G54D13*
X246633Y827167D02*
X245967Y826056D01*
X244633Y825500D01*
X243300Y825500D01*
X241967Y826056D01*
X241300Y827167D01*
X241300Y832722D01*
X241967Y833833D01*
X243300Y834389D01*
X244633Y834389D01*
X245967Y833833D01*
X246633Y832722D01*
G54D13*
X20542Y981075D02*
X15875Y981075D01*
X15875Y989964D01*
X20542Y989964D01*
G54D13*
X15875Y985519D02*
X20542Y985519D01*
G54D13*
X22986Y986075D02*
X28319Y981075D01*
G54D13*
X22986Y981075D02*
X28319Y986075D01*
G54D13*
X32096Y989964D02*
X32096Y981631D01*
X32763Y981075D01*
X33430Y981297D01*
G54D13*
X30763Y986075D02*
X33430Y986075D01*
G54D13*
X35874Y981075D02*
X35874Y986075D01*
G54D13*
X35874Y984964D02*
X37207Y986075D01*
X38541Y986075D01*
G54D13*
X44985Y986075D02*
X44985Y981075D01*
G54D13*
X44985Y982186D02*
X44318Y981297D01*
X42985Y981075D01*
X41652Y981297D01*
X40985Y982186D01*
X40985Y986075D01*
G54D13*
X51429Y981075D02*
X51429Y989964D01*
G54D13*
X51429Y984631D02*
X50762Y985742D01*
X49429Y986075D01*
X48096Y985742D01*
X47429Y984631D01*
X47429Y982408D01*
X48096Y981297D01*
X49429Y981075D01*
X50762Y981297D01*
X51429Y982408D01*
G54D13*
X57873Y981631D02*
X56806Y981075D01*
X55473Y981075D01*
X54140Y981631D01*
X53873Y982742D01*
X53873Y984631D01*
X54540Y985742D01*
X55873Y986075D01*
X57206Y985742D01*
X57873Y984964D01*
X57873Y983853D01*
X53873Y983853D01*
G54D13*
X60317Y981075D02*
X60317Y986075D01*
G54D13*
X60317Y984964D02*
X61650Y986075D01*
X62984Y986075D01*
G54D13*
X68005Y981075D02*
X68005Y989964D01*
G54D13*
X75782Y988297D02*
X75782Y982742D01*
X75116Y981631D01*
X73782Y981075D01*
X72449Y981075D01*
X71116Y981631D01*
X70449Y982742D01*
X70449Y988297D01*
X71116Y989408D01*
X72449Y989964D01*
X73782Y989964D01*
X75116Y989408D01*
X75782Y988297D01*
G54D13*
X80803Y981075D02*
X80803Y986075D01*
G54D13*
X80803Y984964D02*
X82136Y986075D01*
X83470Y986075D01*
G54D13*
X89914Y981631D02*
X88847Y981075D01*
X87514Y981075D01*
X86181Y981631D01*
X85914Y982742D01*
X85914Y984631D01*
X86581Y985742D01*
X87914Y986075D01*
X89247Y985742D01*
X89914Y984964D01*
X89914Y983853D01*
X85914Y983853D01*
G54D13*
X92358Y986075D02*
X95025Y981075D01*
X97691Y986075D01*
G54D13*
X105468Y981075D02*
X100135Y981075D01*
X100135Y981631D01*
X100802Y982742D01*
X104802Y986075D01*
X105468Y987186D01*
X105468Y988297D01*
X104802Y989408D01*
X103468Y989964D01*
X102135Y989964D01*
X100802Y989408D01*
X100135Y988297D01*
G54D13*
X316992Y736600D02*
X316992Y745489D01*
G54D13*
X314325Y745489D02*
X319658Y745489D01*
G54D13*
X322102Y736600D02*
X322102Y745489D01*
G54D13*
X322102Y740156D02*
X322769Y741267D01*
X324102Y741600D01*
X325435Y741267D01*
X326102Y740156D01*
X326102Y736600D01*
G54D13*
X332546Y737156D02*
X331479Y736600D01*
X330146Y736600D01*
X328813Y737156D01*
X328546Y738267D01*
X328546Y740156D01*
X329213Y741267D01*
X330546Y741600D01*
X331879Y741267D01*
X332546Y740489D01*
X332546Y739378D01*
X328546Y739378D01*
G54D13*
X334990Y736600D02*
X334990Y741600D01*
G54D13*
X334990Y740489D02*
X336323Y741600D01*
X337657Y741600D01*
G54D13*
X340101Y736600D02*
X340101Y741600D01*
G54D13*
X340101Y740711D02*
X341434Y741600D01*
X342768Y741267D01*
X343434Y740489D01*
X343434Y736600D01*
G54D13*
X343434Y740711D02*
X344768Y741600D01*
X346101Y741267D01*
X346768Y740489D01*
X346768Y736600D01*
G54D13*
X31750Y825500D02*
X31750Y834389D01*
X37083Y825500D01*
X37083Y834389D01*
G54D13*
X44860Y827167D02*
X44194Y826056D01*
X42860Y825500D01*
X41527Y825500D01*
X40194Y826056D01*
X39527Y827167D01*
X39527Y832722D01*
X40194Y833833D01*
X41527Y834389D01*
X42860Y834389D01*
X44194Y833833D01*
X44860Y832722D01*
G54D10*
X723900Y901700D02*
X723900Y962025D01*
G54D10*
X571500Y901700D02*
X571500Y962025D01*
X723900Y962025D01*
G54D10*
X723900Y901700D02*
X571500Y901700D01*
G54D10*
X698500Y901700D02*
X698500Y908050D01*
X596900Y908050D01*
X596900Y901700D01*
G54D10*
X831850Y971550D02*
X771525Y971550D01*
G54D10*
X831850Y895350D02*
X771525Y895350D01*
X771525Y971550D01*
G54D10*
X831850Y971550D02*
X831850Y895350D01*
G54D10*
X831850Y946150D02*
X825500Y946150D01*
X825500Y920750D01*
X831850Y920750D01*
G54D10*
X732433Y829270D02*
X732433Y872530D01*
X761008Y872530D01*
X761008Y829270D01*
X732433Y829270D01*
G54D11*
X563450Y904900D02*
X541450Y904900D01*
X541450Y942900D01*
X563450Y942900D01*
X563450Y904900D01*
G54D12*
X838200Y727075D02*
X750888Y727075D01*
X750888Y646112D01*
X838200Y646112D01*
X838200Y727075D01*
G54D12*
X838200Y666750D02*
X820738Y666750D01*
X820738Y706438D01*
X838200Y706438D01*
G54D12*
X820738Y727075D02*
X820738Y646112D01*
G54D12*
X431800Y646112D02*
X519112Y646112D01*
X519112Y727075D01*
X431800Y727075D01*
X431800Y646112D01*
G54D12*
X431800Y706438D02*
X449262Y706438D01*
X449262Y666750D01*
X431800Y666750D01*
G54D12*
X449262Y646112D02*
X449262Y727075D01*
G54D12*
X555625Y744538D02*
X714375Y744538D01*
X714375Y696912D01*
X555625Y696912D01*
X555625Y744538D01*
G54D12*
X431800Y971550D02*
X838200Y971550D01*
G54D10*
X831850Y971550D02*
X841375Y971550D01*
X841375Y895350D01*
X831850Y895350D01*
G54D10*
X841375Y904875D02*
X831850Y904875D01*
G54D10*
X841375Y962025D02*
X831850Y962025D01*
G54D10*
X831850Y936625D02*
X841375Y936625D01*
G54D10*
X831850Y930275D02*
X841375Y930275D01*
G54D10*
X831850Y889000D02*
X771525Y889000D01*
G54D10*
X831850Y812800D02*
X771525Y812800D01*
X771525Y889000D01*
G54D10*
X831850Y889000D02*
X831850Y812800D01*
G54D10*
X831850Y863600D02*
X825500Y863600D01*
X825500Y838200D01*
X831850Y838200D01*
G54D10*
X831850Y889000D02*
X841375Y889000D01*
X841375Y812800D01*
X831850Y812800D01*
G54D10*
X841375Y822325D02*
X831850Y822325D01*
G54D10*
X841375Y879475D02*
X831850Y879475D01*
G54D10*
X831850Y854075D02*
X841375Y854075D01*
G54D10*
X831850Y847725D02*
X841375Y847725D01*
G54D10*
X831850Y806450D02*
X771525Y806450D01*
G54D10*
X831850Y730250D02*
X771525Y730250D01*
X771525Y806450D01*
G54D10*
X831850Y806450D02*
X831850Y730250D01*
G54D10*
X831850Y781050D02*
X825500Y781050D01*
X825500Y755650D01*
X831850Y755650D01*
G54D10*
X831850Y806450D02*
X841375Y806450D01*
X841375Y730250D01*
X831850Y730250D01*
G54D10*
X841375Y739775D02*
X831850Y739775D01*
G54D10*
X841375Y796925D02*
X831850Y796925D01*
G54D10*
X831850Y771525D02*
X841375Y771525D01*
G54D10*
X831850Y765175D02*
X841375Y765175D01*
G54D10*
X723900Y901700D02*
X723900Y892175D01*
X571500Y892175D01*
X571500Y901700D01*
G54D10*
X581025Y901700D02*
X581025Y892175D01*
G54D10*
X714375Y892175D02*
X714375Y901700D01*
G54D10*
X514350Y876300D02*
X514350Y850900D01*
X590550Y850900D01*
X590550Y876300D01*
X514350Y876300D01*
G54D10*
X431800Y822325D02*
X431800Y752475D01*
X762000Y752475D01*
X762000Y822325D01*
X431800Y822325D01*
G54D10*
X431800Y812800D02*
X762000Y812800D01*
G54D10*
X457200Y812800D02*
X457200Y806450D01*
X736600Y806450D01*
X736600Y812800D01*
G54D10*
X593725Y822325D02*
X593725Y812800D01*
G54D10*
X600075Y822325D02*
X600075Y812800D01*
G54D10*
X441325Y822325D02*
X441325Y812800D01*
G54D10*
X752475Y822325D02*
X752475Y812800D01*
G54D10*
X732433Y911820D02*
X732433Y955080D01*
X761008Y955080D01*
X761008Y911820D01*
X732433Y911820D01*
G54D10*
X487759Y877888D02*
X487759Y849312D01*
X495697Y849312D01*
X495697Y877888D01*
X487759Y877888D01*
G54D10*
X533400Y901700D02*
X533400Y962025D01*
G54D10*
X431800Y901700D02*
X431800Y962025D01*
X533400Y962025D01*
G54D10*
X533400Y901700D02*
X431800Y901700D01*
G54D10*
X508000Y901700D02*
X508000Y908050D01*
X457200Y908050D01*
X457200Y901700D01*
G54D10*
X533400Y901700D02*
X533400Y892175D01*
X431800Y892175D01*
X431800Y901700D01*
G54D10*
X441325Y901700D02*
X441325Y892175D01*
G54D10*
X523875Y892175D02*
X523875Y901700D01*
G54D10*
X684212Y831850D02*
X684212Y875109D01*
X712788Y875109D01*
X712788Y831850D01*
X684212Y831850D01*
G54D10*
X596900Y800100D02*
X596900Y762000D01*
G54D13*
X695325Y888364D02*
X698658Y879475D01*
X701992Y888364D01*
G54D13*
X672592Y883919D02*
X675258Y883919D01*
X675258Y881142D01*
X674592Y880031D01*
X673258Y879475D01*
X671925Y879475D01*
X670592Y880031D01*
X669925Y881142D01*
X669925Y886697D01*
X670592Y887808D01*
X671925Y888364D01*
X673258Y888364D01*
X674592Y887808D01*
X675258Y886697D01*
G54D13*
X644525Y881142D02*
X645192Y880031D01*
X646525Y879475D01*
X647858Y879475D01*
X649192Y880031D01*
X649858Y881142D01*
X649858Y882253D01*
X649192Y883364D01*
X647858Y883919D01*
X646525Y883919D01*
X645192Y884475D01*
X644525Y885586D01*
X644525Y886697D01*
X645192Y887808D01*
X646525Y888364D01*
X647858Y888364D01*
X649192Y887808D01*
X649858Y886697D01*
G54D13*
X621792Y883919D02*
X624458Y883919D01*
X624458Y881142D01*
X623792Y880031D01*
X622458Y879475D01*
X621125Y879475D01*
X619792Y880031D01*
X619125Y881142D01*
X619125Y886697D01*
X619792Y887808D01*
X621125Y888364D01*
X622458Y888364D01*
X623792Y887808D01*
X624458Y886697D01*
G54D13*
X593725Y888364D02*
X599058Y888364D01*
X593725Y879475D01*
X599058Y879475D01*
G54D13*
X479425Y834389D02*
X484758Y834389D01*
X479425Y825500D01*
X484758Y825500D01*
G54D13*
X507492Y829944D02*
X510158Y829944D01*
X510158Y827167D01*
X509492Y826056D01*
X508158Y825500D01*
X506825Y825500D01*
X505492Y826056D01*
X504825Y827167D01*
X504825Y832722D01*
X505492Y833833D01*
X506825Y834389D01*
X508158Y834389D01*
X509492Y833833D01*
X510158Y832722D01*
G54D13*
X530225Y827167D02*
X530892Y826056D01*
X532225Y825500D01*
X533558Y825500D01*
X534892Y826056D01*
X535558Y827167D01*
X535558Y828278D01*
X534892Y829389D01*
X533558Y829944D01*
X532225Y829944D01*
X530892Y830500D01*
X530225Y831611D01*
X530225Y832722D01*
X530892Y833833D01*
X532225Y834389D01*
X533558Y834389D01*
X534892Y833833D01*
X535558Y832722D01*
G54D13*
X558292Y829944D02*
X560958Y829944D01*
X560958Y827167D01*
X560292Y826056D01*
X558958Y825500D01*
X557625Y825500D01*
X556292Y826056D01*
X555625Y827167D01*
X555625Y832722D01*
X556292Y833833D01*
X557625Y834389D01*
X558958Y834389D01*
X560292Y833833D01*
X560958Y832722D01*
G54D13*
X584200Y834389D02*
X587533Y825500D01*
X590867Y834389D01*
G54D13*
X508000Y888364D02*
X511333Y879475D01*
X514667Y888364D01*
G54D13*
X476250Y881142D02*
X476917Y880031D01*
X478250Y879475D01*
X479583Y879475D01*
X480917Y880031D01*
X481583Y881142D01*
X481583Y882253D01*
X480917Y883364D01*
X479583Y883919D01*
X478250Y883919D01*
X476917Y884475D01*
X476250Y885586D01*
X476250Y886697D01*
X476917Y887808D01*
X478250Y888364D01*
X479583Y888364D01*
X480917Y887808D01*
X481583Y886697D01*
G54D13*
X453517Y883919D02*
X456183Y883919D01*
X456183Y881142D01*
X455517Y880031D01*
X454183Y879475D01*
X452850Y879475D01*
X451517Y880031D01*
X450850Y881142D01*
X450850Y886697D01*
X451517Y887808D01*
X452850Y888364D01*
X454183Y888364D01*
X455517Y887808D01*
X456183Y886697D01*
G54D13*
X729233Y881142D02*
X728567Y880031D01*
X727233Y879475D01*
X725900Y879475D01*
X724567Y880031D01*
X723900Y881142D01*
X723900Y886697D01*
X724567Y887808D01*
X725900Y888364D01*
X727233Y888364D01*
X728567Y887808D01*
X729233Y886697D01*
G54D13*
X735677Y880808D02*
X735677Y883031D01*
X735010Y884142D01*
X733677Y884475D01*
X732344Y884142D01*
X731677Y883031D01*
X731677Y880808D01*
X732344Y879697D01*
X733677Y879475D01*
X735010Y879697D01*
X735677Y880808D01*
G54D13*
X742121Y880808D02*
X742121Y883031D01*
X741454Y884142D01*
X740121Y884475D01*
X738788Y884142D01*
X738121Y883031D01*
X738121Y880808D01*
X738788Y879697D01*
X740121Y879475D01*
X741454Y879697D01*
X742121Y880808D01*
G54D13*
X744565Y879475D02*
X744565Y888364D01*
G54D13*
X747009Y879475D02*
X747009Y884475D01*
G54D13*
X747009Y886142D02*
X747009Y886142D01*
G54D13*
X749453Y879475D02*
X749453Y884475D01*
G54D13*
X749453Y883364D02*
X750120Y884142D01*
X751453Y884475D01*
X752786Y884142D01*
X753453Y883364D01*
X753453Y879475D01*
G54D13*
X755897Y877808D02*
X757230Y877253D01*
X758164Y877253D01*
X759497Y877808D01*
X759897Y878919D01*
X759897Y884475D01*
G54D13*
X759897Y883031D02*
X759230Y884142D01*
X757897Y884475D01*
X756564Y884142D01*
X755897Y883031D01*
X755897Y880808D01*
X756564Y879697D01*
X757897Y879475D01*
X759230Y879697D01*
X759897Y880808D01*
G54D13*
X762341Y883364D02*
X767674Y883364D01*
G54D13*
X765008Y885586D02*
X765008Y881142D01*
G54D13*
X730250Y967739D02*
X730250Y958850D01*
X734917Y958850D01*
G54D13*
X737361Y963294D02*
X738694Y963850D01*
X740294Y963850D01*
X741361Y962739D01*
X741361Y958850D01*
G54D13*
X741361Y960517D02*
X740694Y961628D01*
X739361Y961850D01*
X738028Y961628D01*
X737361Y960517D01*
X737628Y959406D01*
X738694Y958850D01*
X739361Y958850D01*
X739628Y958850D01*
X740694Y959406D01*
X741361Y960517D01*
G54D13*
X743805Y963850D02*
X746472Y958850D01*
X749138Y963850D01*
G54D13*
X746472Y958850D02*
X745805Y957183D01*
X745138Y956628D01*
X744472Y956628D01*
G54D13*
X755582Y959406D02*
X754515Y958850D01*
X753182Y958850D01*
X751849Y959406D01*
X751582Y960517D01*
X751582Y962406D01*
X752249Y963517D01*
X753582Y963850D01*
X754915Y963517D01*
X755582Y962739D01*
X755582Y961628D01*
X751582Y961628D01*
G54D13*
X758026Y958850D02*
X758026Y963850D01*
G54D13*
X758026Y962739D02*
X759359Y963850D01*
X760693Y963850D01*
G54D13*
X763137Y962739D02*
X768470Y962739D01*
G54D13*
X765804Y964961D02*
X765804Y960517D01*
G54D13*
X609600Y834389D02*
X609600Y825500D01*
X614267Y825500D01*
G54D13*
X634492Y829944D02*
X637158Y829944D01*
X637158Y827167D01*
X636492Y826056D01*
X635158Y825500D01*
X633825Y825500D01*
X632492Y826056D01*
X631825Y827167D01*
X631825Y832722D01*
X632492Y833833D01*
X633825Y834389D01*
X635158Y834389D01*
X636492Y833833D01*
X637158Y832722D01*
G54D13*
X665733Y827167D02*
X665067Y826056D01*
X663733Y825500D01*
X662400Y825500D01*
X661067Y826056D01*
X660400Y827167D01*
X660400Y832722D01*
X661067Y833833D01*
X662400Y834389D01*
X663733Y834389D01*
X665067Y833833D01*
X665733Y832722D01*
G54D13*
X439642Y981075D02*
X434975Y981075D01*
X434975Y989964D01*
X439642Y989964D01*
G54D13*
X434975Y985519D02*
X439642Y985519D01*
G54D13*
X442086Y986075D02*
X447419Y981075D01*
G54D13*
X442086Y981075D02*
X447419Y986075D01*
G54D13*
X451196Y989964D02*
X451196Y981631D01*
X451863Y981075D01*
X452530Y981297D01*
G54D13*
X449863Y986075D02*
X452530Y986075D01*
G54D13*
X454974Y981075D02*
X454974Y986075D01*
G54D13*
X454974Y984964D02*
X456307Y986075D01*
X457641Y986075D01*
G54D13*
X464085Y986075D02*
X464085Y981075D01*
G54D13*
X464085Y982186D02*
X463418Y981297D01*
X462085Y981075D01*
X460752Y981297D01*
X460085Y982186D01*
X460085Y986075D01*
G54D13*
X470529Y981075D02*
X470529Y989964D01*
G54D13*
X470529Y984631D02*
X469862Y985742D01*
X468529Y986075D01*
X467196Y985742D01*
X466529Y984631D01*
X466529Y982408D01*
X467196Y981297D01*
X468529Y981075D01*
X469862Y981297D01*
X470529Y982408D01*
G54D13*
X476973Y981631D02*
X475906Y981075D01*
X474573Y981075D01*
X473240Y981631D01*
X472973Y982742D01*
X472973Y984631D01*
X473640Y985742D01*
X474973Y986075D01*
X476306Y985742D01*
X476973Y984964D01*
X476973Y983853D01*
X472973Y983853D01*
G54D13*
X479417Y981075D02*
X479417Y986075D01*
G54D13*
X479417Y984964D02*
X480750Y986075D01*
X482084Y986075D01*
G54D13*
X487105Y981075D02*
X487105Y989964D01*
G54D13*
X494882Y988297D02*
X494882Y982742D01*
X494216Y981631D01*
X492882Y981075D01*
X491549Y981075D01*
X490216Y981631D01*
X489549Y982742D01*
X489549Y988297D01*
X490216Y989408D01*
X491549Y989964D01*
X492882Y989964D01*
X494216Y989408D01*
X494882Y988297D01*
G54D13*
X499903Y981075D02*
X499903Y986075D01*
G54D13*
X499903Y984964D02*
X501236Y986075D01*
X502570Y986075D01*
G54D13*
X509014Y981631D02*
X507947Y981075D01*
X506614Y981075D01*
X505281Y981631D01*
X505014Y982742D01*
X505014Y984631D01*
X505681Y985742D01*
X507014Y986075D01*
X508347Y985742D01*
X509014Y984964D01*
X509014Y983853D01*
X505014Y983853D01*
G54D13*
X511458Y986075D02*
X514125Y981075D01*
X516791Y986075D01*
G54D13*
X524568Y981075D02*
X519235Y981075D01*
X519235Y981631D01*
X519902Y982742D01*
X523902Y986075D01*
X524568Y987186D01*
X524568Y988297D01*
X523902Y989408D01*
X522568Y989964D01*
X521235Y989964D01*
X519902Y989408D01*
X519235Y988297D01*
G54D13*
X736092Y736600D02*
X736092Y745489D01*
G54D13*
X733425Y745489D02*
X738758Y745489D01*
G54D13*
X741202Y736600D02*
X741202Y745489D01*
G54D13*
X741202Y740156D02*
X741869Y741267D01*
X743202Y741600D01*
X744535Y741267D01*
X745202Y740156D01*
X745202Y736600D01*
G54D13*
X751646Y737156D02*
X750579Y736600D01*
X749246Y736600D01*
X747913Y737156D01*
X747646Y738267D01*
X747646Y740156D01*
X748313Y741267D01*
X749646Y741600D01*
X750979Y741267D01*
X751646Y740489D01*
X751646Y739378D01*
X747646Y739378D01*
G54D13*
X754090Y736600D02*
X754090Y741600D01*
G54D13*
X754090Y740489D02*
X755423Y741600D01*
X756757Y741600D01*
G54D13*
X759201Y736600D02*
X759201Y741600D01*
G54D13*
X759201Y740711D02*
X760534Y741600D01*
X761868Y741267D01*
X762534Y740489D01*
X762534Y736600D01*
G54D13*
X762534Y740711D02*
X763868Y741600D01*
X765201Y741267D01*
X765868Y740489D01*
X765868Y736600D01*
G54D13*
X450850Y825500D02*
X450850Y834389D01*
X456183Y825500D01*
X456183Y834389D01*
G54D13*
X463960Y827167D02*
X463294Y826056D01*
X461960Y825500D01*
X460627Y825500D01*
X459294Y826056D01*
X458627Y827167D01*
X458627Y832722D01*
X459294Y833833D01*
X460627Y834389D01*
X461960Y834389D01*
X463294Y833833D01*
X463960Y832722D01*
G54D10*
X304800Y546100D02*
X304800Y606425D01*
G54D10*
X152400Y546100D02*
X152400Y606425D01*
X304800Y606425D01*
G54D10*
X304800Y546100D02*
X152400Y546100D01*
G54D10*
X279400Y546100D02*
X279400Y552450D01*
X177800Y552450D01*
X177800Y546100D01*
G54D10*
X412750Y615950D02*
X352425Y615950D01*
G54D10*
X412750Y539750D02*
X352425Y539750D01*
X352425Y615950D01*
G54D10*
X412750Y615950D02*
X412750Y539750D01*
G54D10*
X412750Y590550D02*
X406400Y590550D01*
X406400Y565150D01*
X412750Y565150D01*
G54D10*
X313333Y473670D02*
X313333Y516930D01*
X341908Y516930D01*
X341908Y473670D01*
X313333Y473670D01*
G54D11*
X144350Y549300D02*
X122350Y549300D01*
X122350Y587300D01*
X144350Y587300D01*
X144350Y549300D01*
G54D12*
X419100Y371475D02*
X331788Y371475D01*
X331788Y290512D01*
X419100Y290512D01*
X419100Y371475D01*
G54D12*
X419100Y311150D02*
X401638Y311150D01*
X401638Y350838D01*
X419100Y350838D01*
G54D12*
X401638Y371475D02*
X401638Y290512D01*
G54D12*
X12700Y290512D02*
X100012Y290512D01*
X100012Y371475D01*
X12700Y371475D01*
X12700Y290512D01*
G54D12*
X12700Y350838D02*
X30162Y350838D01*
X30162Y311150D01*
X12700Y311150D01*
G54D12*
X30162Y290512D02*
X30162Y371475D01*
G54D12*
X136525Y388938D02*
X295275Y388938D01*
X295275Y341312D01*
X136525Y341312D01*
X136525Y388938D01*
G54D12*
X12700Y615950D02*
X419100Y615950D01*
G54D10*
X412750Y615950D02*
X422275Y615950D01*
X422275Y539750D01*
X412750Y539750D01*
G54D10*
X422275Y549275D02*
X412750Y549275D01*
G54D10*
X422275Y606425D02*
X412750Y606425D01*
G54D10*
X412750Y581025D02*
X422275Y581025D01*
G54D10*
X412750Y574675D02*
X422275Y574675D01*
G54D10*
X412750Y533400D02*
X352425Y533400D01*
G54D10*
X412750Y457200D02*
X352425Y457200D01*
X352425Y533400D01*
G54D10*
X412750Y533400D02*
X412750Y457200D01*
G54D10*
X412750Y508000D02*
X406400Y508000D01*
X406400Y482600D01*
X412750Y482600D01*
G54D10*
X412750Y533400D02*
X422275Y533400D01*
X422275Y457200D01*
X412750Y457200D01*
G54D10*
X422275Y466725D02*
X412750Y466725D01*
G54D10*
X422275Y523875D02*
X412750Y523875D01*
G54D10*
X412750Y498475D02*
X422275Y498475D01*
G54D10*
X412750Y492125D02*
X422275Y492125D01*
G54D10*
X412750Y450850D02*
X352425Y450850D01*
G54D10*
X412750Y374650D02*
X352425Y374650D01*
X352425Y450850D01*
G54D10*
X412750Y450850D02*
X412750Y374650D01*
G54D10*
X412750Y425450D02*
X406400Y425450D01*
X406400Y400050D01*
X412750Y400050D01*
G54D10*
X412750Y450850D02*
X422275Y450850D01*
X422275Y374650D01*
X412750Y374650D01*
G54D10*
X422275Y384175D02*
X412750Y384175D01*
G54D10*
X422275Y441325D02*
X412750Y441325D01*
G54D10*
X412750Y415925D02*
X422275Y415925D01*
G54D10*
X412750Y409575D02*
X422275Y409575D01*
G54D10*
X304800Y546100D02*
X304800Y536575D01*
X152400Y536575D01*
X152400Y546100D01*
G54D10*
X161925Y546100D02*
X161925Y536575D01*
G54D10*
X295275Y536575D02*
X295275Y546100D01*
G54D10*
X95250Y520700D02*
X95250Y495300D01*
X171450Y495300D01*
X171450Y520700D01*
X95250Y520700D01*
G54D10*
X12700Y466725D02*
X12700Y396875D01*
X342900Y396875D01*
X342900Y466725D01*
X12700Y466725D01*
G54D10*
X12700Y457200D02*
X342900Y457200D01*
G54D10*
X38100Y457200D02*
X38100Y450850D01*
X317500Y450850D01*
X317500Y457200D01*
G54D10*
X174625Y466725D02*
X174625Y457200D01*
G54D10*
X180975Y466725D02*
X180975Y457200D01*
G54D10*
X22225Y466725D02*
X22225Y457200D01*
G54D10*
X333375Y466725D02*
X333375Y457200D01*
G54D10*
X313333Y556220D02*
X313333Y599480D01*
X341908Y599480D01*
X341908Y556220D01*
X313333Y556220D01*
G54D10*
X68659Y522288D02*
X68659Y493712D01*
X76597Y493712D01*
X76597Y522288D01*
X68659Y522288D01*
G54D10*
X114300Y546100D02*
X114300Y606425D01*
G54D10*
X12700Y546100D02*
X12700Y606425D01*
X114300Y606425D01*
G54D10*
X114300Y546100D02*
X12700Y546100D01*
G54D10*
X88900Y546100D02*
X88900Y552450D01*
X38100Y552450D01*
X38100Y546100D01*
G54D10*
X114300Y546100D02*
X114300Y536575D01*
X12700Y536575D01*
X12700Y546100D01*
G54D10*
X22225Y546100D02*
X22225Y536575D01*
G54D10*
X104775Y536575D02*
X104775Y546100D01*
G54D10*
X265112Y476250D02*
X265112Y519509D01*
X293688Y519509D01*
X293688Y476250D01*
X265112Y476250D01*
G54D10*
X177800Y444500D02*
X177800Y406400D01*
G54D13*
X276225Y532764D02*
X279558Y523875D01*
X282892Y532764D01*
G54D13*
X253492Y528319D02*
X256158Y528319D01*
X256158Y525542D01*
X255492Y524431D01*
X254158Y523875D01*
X252825Y523875D01*
X251492Y524431D01*
X250825Y525542D01*
X250825Y531097D01*
X251492Y532208D01*
X252825Y532764D01*
X254158Y532764D01*
X255492Y532208D01*
X256158Y531097D01*
G54D13*
X225425Y525542D02*
X226092Y524431D01*
X227425Y523875D01*
X228758Y523875D01*
X230092Y524431D01*
X230758Y525542D01*
X230758Y526653D01*
X230092Y527764D01*
X228758Y528319D01*
X227425Y528319D01*
X226092Y528875D01*
X225425Y529986D01*
X225425Y531097D01*
X226092Y532208D01*
X227425Y532764D01*
X228758Y532764D01*
X230092Y532208D01*
X230758Y531097D01*
G54D13*
X202692Y528319D02*
X205358Y528319D01*
X205358Y525542D01*
X204692Y524431D01*
X203358Y523875D01*
X202025Y523875D01*
X200692Y524431D01*
X200025Y525542D01*
X200025Y531097D01*
X200692Y532208D01*
X202025Y532764D01*
X203358Y532764D01*
X204692Y532208D01*
X205358Y531097D01*
G54D13*
X174625Y532764D02*
X179958Y532764D01*
X174625Y523875D01*
X179958Y523875D01*
G54D13*
X60325Y478789D02*
X65658Y478789D01*
X60325Y469900D01*
X65658Y469900D01*
G54D13*
X88392Y474344D02*
X91058Y474344D01*
X91058Y471567D01*
X90392Y470456D01*
X89058Y469900D01*
X87725Y469900D01*
X86392Y470456D01*
X85725Y471567D01*
X85725Y477122D01*
X86392Y478233D01*
X87725Y478789D01*
X89058Y478789D01*
X90392Y478233D01*
X91058Y477122D01*
G54D13*
X111125Y471567D02*
X111792Y470456D01*
X113125Y469900D01*
X114458Y469900D01*
X115792Y470456D01*
X116458Y471567D01*
X116458Y472678D01*
X115792Y473789D01*
X114458Y474344D01*
X113125Y474344D01*
X111792Y474900D01*
X111125Y476011D01*
X111125Y477122D01*
X111792Y478233D01*
X113125Y478789D01*
X114458Y478789D01*
X115792Y478233D01*
X116458Y477122D01*
G54D13*
X139192Y474344D02*
X141858Y474344D01*
X141858Y471567D01*
X141192Y470456D01*
X139858Y469900D01*
X138525Y469900D01*
X137192Y470456D01*
X136525Y471567D01*
X136525Y477122D01*
X137192Y478233D01*
X138525Y478789D01*
X139858Y478789D01*
X141192Y478233D01*
X141858Y477122D01*
G54D13*
X165100Y478789D02*
X168433Y469900D01*
X171767Y478789D01*
G54D13*
X88900Y532764D02*
X92233Y523875D01*
X95567Y532764D01*
G54D13*
X57150Y525542D02*
X57817Y524431D01*
X59150Y523875D01*
X60483Y523875D01*
X61817Y524431D01*
X62483Y525542D01*
X62483Y526653D01*
X61817Y527764D01*
X60483Y528319D01*
X59150Y528319D01*
X57817Y528875D01*
X57150Y529986D01*
X57150Y531097D01*
X57817Y532208D01*
X59150Y532764D01*
X60483Y532764D01*
X61817Y532208D01*
X62483Y531097D01*
G54D13*
X34417Y528319D02*
X37083Y528319D01*
X37083Y525542D01*
X36417Y524431D01*
X35083Y523875D01*
X33750Y523875D01*
X32417Y524431D01*
X31750Y525542D01*
X31750Y531097D01*
X32417Y532208D01*
X33750Y532764D01*
X35083Y532764D01*
X36417Y532208D01*
X37083Y531097D01*
G54D13*
X310133Y525542D02*
X309467Y524431D01*
X308133Y523875D01*
X306800Y523875D01*
X305467Y524431D01*
X304800Y525542D01*
X304800Y531097D01*
X305467Y532208D01*
X306800Y532764D01*
X308133Y532764D01*
X309467Y532208D01*
X310133Y531097D01*
G54D13*
X316577Y525208D02*
X316577Y527431D01*
X315910Y528542D01*
X314577Y528875D01*
X313244Y528542D01*
X312577Y527431D01*
X312577Y525208D01*
X313244Y524097D01*
X314577Y523875D01*
X315910Y524097D01*
X316577Y525208D01*
G54D13*
X323021Y525208D02*
X323021Y527431D01*
X322354Y528542D01*
X321021Y528875D01*
X319688Y528542D01*
X319021Y527431D01*
X319021Y525208D01*
X319688Y524097D01*
X321021Y523875D01*
X322354Y524097D01*
X323021Y525208D01*
G54D13*
X325465Y523875D02*
X325465Y532764D01*
G54D13*
X327909Y523875D02*
X327909Y528875D01*
G54D13*
X327909Y530542D02*
X327909Y530542D01*
G54D13*
X330353Y523875D02*
X330353Y528875D01*
G54D13*
X330353Y527764D02*
X331020Y528542D01*
X332353Y528875D01*
X333686Y528542D01*
X334353Y527764D01*
X334353Y523875D01*
G54D13*
X336797Y522208D02*
X338130Y521653D01*
X339064Y521653D01*
X340397Y522208D01*
X340797Y523319D01*
X340797Y528875D01*
G54D13*
X340797Y527431D02*
X340130Y528542D01*
X338797Y528875D01*
X337464Y528542D01*
X336797Y527431D01*
X336797Y525208D01*
X337464Y524097D01*
X338797Y523875D01*
X340130Y524097D01*
X340797Y525208D01*
G54D13*
X343241Y527764D02*
X348574Y527764D01*
G54D13*
X345908Y529986D02*
X345908Y525542D01*
G54D13*
X311150Y612139D02*
X311150Y603250D01*
X315817Y603250D01*
G54D13*
X318261Y607694D02*
X319594Y608250D01*
X321194Y608250D01*
X322261Y607139D01*
X322261Y603250D01*
G54D13*
X322261Y604917D02*
X321594Y606028D01*
X320261Y606250D01*
X318928Y606028D01*
X318261Y604917D01*
X318528Y603806D01*
X319594Y603250D01*
X320261Y603250D01*
X320528Y603250D01*
X321594Y603806D01*
X322261Y604917D01*
G54D13*
X324705Y608250D02*
X327372Y603250D01*
X330038Y608250D01*
G54D13*
X327372Y603250D02*
X326705Y601583D01*
X326038Y601028D01*
X325372Y601028D01*
G54D13*
X336482Y603806D02*
X335415Y603250D01*
X334082Y603250D01*
X332749Y603806D01*
X332482Y604917D01*
X332482Y606806D01*
X333149Y607917D01*
X334482Y608250D01*
X335815Y607917D01*
X336482Y607139D01*
X336482Y606028D01*
X332482Y606028D01*
G54D13*
X338926Y603250D02*
X338926Y608250D01*
G54D13*
X338926Y607139D02*
X340259Y608250D01*
X341593Y608250D01*
G54D13*
X344037Y607139D02*
X349370Y607139D01*
G54D13*
X346704Y609361D02*
X346704Y604917D01*
G54D13*
X190500Y478789D02*
X190500Y469900D01*
X195167Y469900D01*
G54D13*
X215392Y474344D02*
X218058Y474344D01*
X218058Y471567D01*
X217392Y470456D01*
X216058Y469900D01*
X214725Y469900D01*
X213392Y470456D01*
X212725Y471567D01*
X212725Y477122D01*
X213392Y478233D01*
X214725Y478789D01*
X216058Y478789D01*
X217392Y478233D01*
X218058Y477122D01*
G54D13*
X246633Y471567D02*
X245967Y470456D01*
X244633Y469900D01*
X243300Y469900D01*
X241967Y470456D01*
X241300Y471567D01*
X241300Y477122D01*
X241967Y478233D01*
X243300Y478789D01*
X244633Y478789D01*
X245967Y478233D01*
X246633Y477122D01*
G54D13*
X20542Y625475D02*
X15875Y625475D01*
X15875Y634364D01*
X20542Y634364D01*
G54D13*
X15875Y629919D02*
X20542Y629919D01*
G54D13*
X22986Y630475D02*
X28319Y625475D01*
G54D13*
X22986Y625475D02*
X28319Y630475D01*
G54D13*
X32096Y634364D02*
X32096Y626031D01*
X32763Y625475D01*
X33430Y625697D01*
G54D13*
X30763Y630475D02*
X33430Y630475D01*
G54D13*
X35874Y625475D02*
X35874Y630475D01*
G54D13*
X35874Y629364D02*
X37207Y630475D01*
X38541Y630475D01*
G54D13*
X44985Y630475D02*
X44985Y625475D01*
G54D13*
X44985Y626586D02*
X44318Y625697D01*
X42985Y625475D01*
X41652Y625697D01*
X40985Y626586D01*
X40985Y630475D01*
G54D13*
X51429Y625475D02*
X51429Y634364D01*
G54D13*
X51429Y629031D02*
X50762Y630142D01*
X49429Y630475D01*
X48096Y630142D01*
X47429Y629031D01*
X47429Y626808D01*
X48096Y625697D01*
X49429Y625475D01*
X50762Y625697D01*
X51429Y626808D01*
G54D13*
X57873Y626031D02*
X56806Y625475D01*
X55473Y625475D01*
X54140Y626031D01*
X53873Y627142D01*
X53873Y629031D01*
X54540Y630142D01*
X55873Y630475D01*
X57206Y630142D01*
X57873Y629364D01*
X57873Y628253D01*
X53873Y628253D01*
G54D13*
X60317Y625475D02*
X60317Y630475D01*
G54D13*
X60317Y629364D02*
X61650Y630475D01*
X62984Y630475D01*
G54D13*
X68005Y625475D02*
X68005Y634364D01*
G54D13*
X75782Y632697D02*
X75782Y627142D01*
X75116Y626031D01*
X73782Y625475D01*
X72449Y625475D01*
X71116Y626031D01*
X70449Y627142D01*
X70449Y632697D01*
X71116Y633808D01*
X72449Y634364D01*
X73782Y634364D01*
X75116Y633808D01*
X75782Y632697D01*
G54D13*
X80803Y625475D02*
X80803Y630475D01*
G54D13*
X80803Y629364D02*
X82136Y630475D01*
X83470Y630475D01*
G54D13*
X89914Y626031D02*
X88847Y625475D01*
X87514Y625475D01*
X86181Y626031D01*
X85914Y627142D01*
X85914Y629031D01*
X86581Y630142D01*
X87914Y630475D01*
X89247Y630142D01*
X89914Y629364D01*
X89914Y628253D01*
X85914Y628253D01*
G54D13*
X92358Y630475D02*
X95025Y625475D01*
X97691Y630475D01*
G54D13*
X105468Y625475D02*
X100135Y625475D01*
X100135Y626031D01*
X100802Y627142D01*
X104802Y630475D01*
X105468Y631586D01*
X105468Y632697D01*
X104802Y633808D01*
X103468Y634364D01*
X102135Y634364D01*
X100802Y633808D01*
X100135Y632697D01*
G54D13*
X316992Y381000D02*
X316992Y389889D01*
G54D13*
X314325Y389889D02*
X319658Y389889D01*
G54D13*
X322102Y381000D02*
X322102Y389889D01*
G54D13*
X322102Y384556D02*
X322769Y385667D01*
X324102Y386000D01*
X325435Y385667D01*
X326102Y384556D01*
X326102Y381000D01*
G54D13*
X332546Y381556D02*
X331479Y381000D01*
X330146Y381000D01*
X328813Y381556D01*
X328546Y382667D01*
X328546Y384556D01*
X329213Y385667D01*
X330546Y386000D01*
X331879Y385667D01*
X332546Y384889D01*
X332546Y383778D01*
X328546Y383778D01*
G54D13*
X334990Y381000D02*
X334990Y386000D01*
G54D13*
X334990Y384889D02*
X336323Y386000D01*
X337657Y386000D01*
G54D13*
X340101Y381000D02*
X340101Y386000D01*
G54D13*
X340101Y385111D02*
X341434Y386000D01*
X342768Y385667D01*
X343434Y384889D01*
X343434Y381000D01*
G54D13*
X343434Y385111D02*
X344768Y386000D01*
X346101Y385667D01*
X346768Y384889D01*
X346768Y381000D01*
G54D13*
X31750Y469900D02*
X31750Y478789D01*
X37083Y469900D01*
X37083Y478789D01*
G54D13*
X44860Y471567D02*
X44194Y470456D01*
X42860Y469900D01*
X41527Y469900D01*
X40194Y470456D01*
X39527Y471567D01*
X39527Y477122D01*
X40194Y478233D01*
X41527Y478789D01*
X42860Y478789D01*
X44194Y478233D01*
X44860Y477122D01*
G54D10*
X723900Y546100D02*
X723900Y606425D01*
G54D10*
X571500Y546100D02*
X571500Y606425D01*
X723900Y606425D01*
G54D10*
X723900Y546100D02*
X571500Y546100D01*
G54D10*
X698500Y546100D02*
X698500Y552450D01*
X596900Y552450D01*
X596900Y546100D01*
G54D10*
X831850Y615950D02*
X771525Y615950D01*
G54D10*
X831850Y539750D02*
X771525Y539750D01*
X771525Y615950D01*
G54D10*
X831850Y615950D02*
X831850Y539750D01*
G54D10*
X831850Y590550D02*
X825500Y590550D01*
X825500Y565150D01*
X831850Y565150D01*
G54D10*
X732433Y473670D02*
X732433Y516930D01*
X761008Y516930D01*
X761008Y473670D01*
X732433Y473670D01*
G54D11*
X563450Y549300D02*
X541450Y549300D01*
X541450Y587300D01*
X563450Y587300D01*
X563450Y549300D01*
G54D12*
X838200Y371475D02*
X750888Y371475D01*
X750888Y290512D01*
X838200Y290512D01*
X838200Y371475D01*
G54D12*
X838200Y311150D02*
X820738Y311150D01*
X820738Y350838D01*
X838200Y350838D01*
G54D12*
X820738Y371475D02*
X820738Y290512D01*
G54D12*
X431800Y290512D02*
X519112Y290512D01*
X519112Y371475D01*
X431800Y371475D01*
X431800Y290512D01*
G54D12*
X431800Y350838D02*
X449262Y350838D01*
X449262Y311150D01*
X431800Y311150D01*
G54D12*
X449262Y290512D02*
X449262Y371475D01*
G54D12*
X555625Y388938D02*
X714375Y388938D01*
X714375Y341312D01*
X555625Y341312D01*
X555625Y388938D01*
G54D12*
X431800Y615950D02*
X838200Y615950D01*
G54D10*
X831850Y615950D02*
X841375Y615950D01*
X841375Y539750D01*
X831850Y539750D01*
G54D10*
X841375Y549275D02*
X831850Y549275D01*
G54D10*
X841375Y606425D02*
X831850Y606425D01*
G54D10*
X831850Y581025D02*
X841375Y581025D01*
G54D10*
X831850Y574675D02*
X841375Y574675D01*
G54D10*
X831850Y533400D02*
X771525Y533400D01*
G54D10*
X831850Y457200D02*
X771525Y457200D01*
X771525Y533400D01*
G54D10*
X831850Y533400D02*
X831850Y457200D01*
G54D10*
X831850Y508000D02*
X825500Y508000D01*
X825500Y482600D01*
X831850Y482600D01*
G54D10*
X831850Y533400D02*
X841375Y533400D01*
X841375Y457200D01*
X831850Y457200D01*
G54D10*
X841375Y466725D02*
X831850Y466725D01*
G54D10*
X841375Y523875D02*
X831850Y523875D01*
G54D10*
X831850Y498475D02*
X841375Y498475D01*
G54D10*
X831850Y492125D02*
X841375Y492125D01*
G54D10*
X831850Y450850D02*
X771525Y450850D01*
G54D10*
X831850Y374650D02*
X771525Y374650D01*
X771525Y450850D01*
G54D10*
X831850Y450850D02*
X831850Y374650D01*
G54D10*
X831850Y425450D02*
X825500Y425450D01*
X825500Y400050D01*
X831850Y400050D01*
G54D10*
X831850Y450850D02*
X841375Y450850D01*
X841375Y374650D01*
X831850Y374650D01*
G54D10*
X841375Y384175D02*
X831850Y384175D01*
G54D10*
X841375Y441325D02*
X831850Y441325D01*
G54D10*
X831850Y415925D02*
X841375Y415925D01*
G54D10*
X831850Y409575D02*
X841375Y409575D01*
G54D10*
X723900Y546100D02*
X723900Y536575D01*
X571500Y536575D01*
X571500Y546100D01*
G54D10*
X581025Y546100D02*
X581025Y536575D01*
G54D10*
X714375Y536575D02*
X714375Y546100D01*
G54D10*
X514350Y520700D02*
X514350Y495300D01*
X590550Y495300D01*
X590550Y520700D01*
X514350Y520700D01*
G54D10*
X431800Y466725D02*
X431800Y396875D01*
X762000Y396875D01*
X762000Y466725D01*
X431800Y466725D01*
G54D10*
X431800Y457200D02*
X762000Y457200D01*
G54D10*
X457200Y457200D02*
X457200Y450850D01*
X736600Y450850D01*
X736600Y457200D01*
G54D10*
X593725Y466725D02*
X593725Y457200D01*
G54D10*
X600075Y466725D02*
X600075Y457200D01*
G54D10*
X441325Y466725D02*
X441325Y457200D01*
G54D10*
X752475Y466725D02*
X752475Y457200D01*
G54D10*
X732433Y556220D02*
X732433Y599480D01*
X761008Y599480D01*
X761008Y556220D01*
X732433Y556220D01*
G54D10*
X487759Y522288D02*
X487759Y493712D01*
X495697Y493712D01*
X495697Y522288D01*
X487759Y522288D01*
G54D10*
X533400Y546100D02*
X533400Y606425D01*
G54D10*
X431800Y546100D02*
X431800Y606425D01*
X533400Y606425D01*
G54D10*
X533400Y546100D02*
X431800Y546100D01*
G54D10*
X508000Y546100D02*
X508000Y552450D01*
X457200Y552450D01*
X457200Y546100D01*
G54D10*
X533400Y546100D02*
X533400Y536575D01*
X431800Y536575D01*
X431800Y546100D01*
G54D10*
X441325Y546100D02*
X441325Y536575D01*
G54D10*
X523875Y536575D02*
X523875Y546100D01*
G54D10*
X684212Y476250D02*
X684212Y519509D01*
X712788Y519509D01*
X712788Y476250D01*
X684212Y476250D01*
G54D10*
X596900Y444500D02*
X596900Y406400D01*
G54D13*
X695325Y532764D02*
X698658Y523875D01*
X701992Y532764D01*
G54D13*
X672592Y528319D02*
X675258Y528319D01*
X675258Y525542D01*
X674592Y524431D01*
X673258Y523875D01*
X671925Y523875D01*
X670592Y524431D01*
X669925Y525542D01*
X669925Y531097D01*
X670592Y532208D01*
X671925Y532764D01*
X673258Y532764D01*
X674592Y532208D01*
X675258Y531097D01*
G54D13*
X644525Y525542D02*
X645192Y524431D01*
X646525Y523875D01*
X647858Y523875D01*
X649192Y524431D01*
X649858Y525542D01*
X649858Y526653D01*
X649192Y527764D01*
X647858Y528319D01*
X646525Y528319D01*
X645192Y528875D01*
X644525Y529986D01*
X644525Y531097D01*
X645192Y532208D01*
X646525Y532764D01*
X647858Y532764D01*
X649192Y532208D01*
X649858Y531097D01*
G54D13*
X621792Y528319D02*
X624458Y528319D01*
X624458Y525542D01*
X623792Y524431D01*
X622458Y523875D01*
X621125Y523875D01*
X619792Y524431D01*
X619125Y525542D01*
X619125Y531097D01*
X619792Y532208D01*
X621125Y532764D01*
X622458Y532764D01*
X623792Y532208D01*
X624458Y531097D01*
G54D13*
X593725Y532764D02*
X599058Y532764D01*
X593725Y523875D01*
X599058Y523875D01*
G54D13*
X479425Y478789D02*
X484758Y478789D01*
X479425Y469900D01*
X484758Y469900D01*
G54D13*
X507492Y474344D02*
X510158Y474344D01*
X510158Y471567D01*
X509492Y470456D01*
X508158Y469900D01*
X506825Y469900D01*
X505492Y470456D01*
X504825Y471567D01*
X504825Y477122D01*
X505492Y478233D01*
X506825Y478789D01*
X508158Y478789D01*
X509492Y478233D01*
X510158Y477122D01*
G54D13*
X530225Y471567D02*
X530892Y470456D01*
X532225Y469900D01*
X533558Y469900D01*
X534892Y470456D01*
X535558Y471567D01*
X535558Y472678D01*
X534892Y473789D01*
X533558Y474344D01*
X532225Y474344D01*
X530892Y474900D01*
X530225Y476011D01*
X530225Y477122D01*
X530892Y478233D01*
X532225Y478789D01*
X533558Y478789D01*
X534892Y478233D01*
X535558Y477122D01*
G54D13*
X558292Y474344D02*
X560958Y474344D01*
X560958Y471567D01*
X560292Y470456D01*
X558958Y469900D01*
X557625Y469900D01*
X556292Y470456D01*
X555625Y471567D01*
X555625Y477122D01*
X556292Y478233D01*
X557625Y478789D01*
X558958Y478789D01*
X560292Y478233D01*
X560958Y477122D01*
G54D13*
X584200Y478789D02*
X587533Y469900D01*
X590867Y478789D01*
G54D13*
X508000Y532764D02*
X511333Y523875D01*
X514667Y532764D01*
G54D13*
X476250Y525542D02*
X476917Y524431D01*
X478250Y523875D01*
X479583Y523875D01*
X480917Y524431D01*
X481583Y525542D01*
X481583Y526653D01*
X480917Y527764D01*
X479583Y528319D01*
X478250Y528319D01*
X476917Y528875D01*
X476250Y529986D01*
X476250Y531097D01*
X476917Y532208D01*
X478250Y532764D01*
X479583Y532764D01*
X480917Y532208D01*
X481583Y531097D01*
G54D13*
X453517Y528319D02*
X456183Y528319D01*
X456183Y525542D01*
X455517Y524431D01*
X454183Y523875D01*
X452850Y523875D01*
X451517Y524431D01*
X450850Y525542D01*
X450850Y531097D01*
X451517Y532208D01*
X452850Y532764D01*
X454183Y532764D01*
X455517Y532208D01*
X456183Y531097D01*
G54D13*
X729233Y525542D02*
X728567Y524431D01*
X727233Y523875D01*
X725900Y523875D01*
X724567Y524431D01*
X723900Y525542D01*
X723900Y531097D01*
X724567Y532208D01*
X725900Y532764D01*
X727233Y532764D01*
X728567Y532208D01*
X729233Y531097D01*
G54D13*
X735677Y525208D02*
X735677Y527431D01*
X735010Y528542D01*
X733677Y528875D01*
X732344Y528542D01*
X731677Y527431D01*
X731677Y525208D01*
X732344Y524097D01*
X733677Y523875D01*
X735010Y524097D01*
X735677Y525208D01*
G54D13*
X742121Y525208D02*
X742121Y527431D01*
X741454Y528542D01*
X740121Y528875D01*
X738788Y528542D01*
X738121Y527431D01*
X738121Y525208D01*
X738788Y524097D01*
X740121Y523875D01*
X741454Y524097D01*
X742121Y525208D01*
G54D13*
X744565Y523875D02*
X744565Y532764D01*
G54D13*
X747009Y523875D02*
X747009Y528875D01*
G54D13*
X747009Y530542D02*
X747009Y530542D01*
G54D13*
X749453Y523875D02*
X749453Y528875D01*
G54D13*
X749453Y527764D02*
X750120Y528542D01*
X751453Y528875D01*
X752786Y528542D01*
X753453Y527764D01*
X753453Y523875D01*
G54D13*
X755897Y522208D02*
X757230Y521653D01*
X758164Y521653D01*
X759497Y522208D01*
X759897Y523319D01*
X759897Y528875D01*
G54D13*
X759897Y527431D02*
X759230Y528542D01*
X757897Y528875D01*
X756564Y528542D01*
X755897Y527431D01*
X755897Y525208D01*
X756564Y524097D01*
X757897Y523875D01*
X759230Y524097D01*
X759897Y525208D01*
G54D13*
X762341Y527764D02*
X767674Y527764D01*
G54D13*
X765008Y529986D02*
X765008Y525542D01*
G54D13*
X730250Y612139D02*
X730250Y603250D01*
X734917Y603250D01*
G54D13*
X737361Y607694D02*
X738694Y608250D01*
X740294Y608250D01*
X741361Y607139D01*
X741361Y603250D01*
G54D13*
X741361Y604917D02*
X740694Y606028D01*
X739361Y606250D01*
X738028Y606028D01*
X737361Y604917D01*
X737628Y603806D01*
X738694Y603250D01*
X739361Y603250D01*
X739628Y603250D01*
X740694Y603806D01*
X741361Y604917D01*
G54D13*
X743805Y608250D02*
X746472Y603250D01*
X749138Y608250D01*
G54D13*
X746472Y603250D02*
X745805Y601583D01*
X745138Y601028D01*
X744472Y601028D01*
G54D13*
X755582Y603806D02*
X754515Y603250D01*
X753182Y603250D01*
X751849Y603806D01*
X751582Y604917D01*
X751582Y606806D01*
X752249Y607917D01*
X753582Y608250D01*
X754915Y607917D01*
X755582Y607139D01*
X755582Y606028D01*
X751582Y606028D01*
G54D13*
X758026Y603250D02*
X758026Y608250D01*
G54D13*
X758026Y607139D02*
X759359Y608250D01*
X760693Y608250D01*
G54D13*
X763137Y607139D02*
X768470Y607139D01*
G54D13*
X765804Y609361D02*
X765804Y604917D01*
G54D13*
X609600Y478789D02*
X609600Y469900D01*
X614267Y469900D01*
G54D13*
X634492Y474344D02*
X637158Y474344D01*
X637158Y471567D01*
X636492Y470456D01*
X635158Y469900D01*
X633825Y469900D01*
X632492Y470456D01*
X631825Y471567D01*
X631825Y477122D01*
X632492Y478233D01*
X633825Y478789D01*
X635158Y478789D01*
X636492Y478233D01*
X637158Y477122D01*
G54D13*
X665733Y471567D02*
X665067Y470456D01*
X663733Y469900D01*
X662400Y469900D01*
X661067Y470456D01*
X660400Y471567D01*
X660400Y477122D01*
X661067Y478233D01*
X662400Y478789D01*
X663733Y478789D01*
X665067Y478233D01*
X665733Y477122D01*
G54D13*
X439642Y625475D02*
X434975Y625475D01*
X434975Y634364D01*
X439642Y634364D01*
G54D13*
X434975Y629919D02*
X439642Y629919D01*
G54D13*
X442086Y630475D02*
X447419Y625475D01*
G54D13*
X442086Y625475D02*
X447419Y630475D01*
G54D13*
X451196Y634364D02*
X451196Y626031D01*
X451863Y625475D01*
X452530Y625697D01*
G54D13*
X449863Y630475D02*
X452530Y630475D01*
G54D13*
X454974Y625475D02*
X454974Y630475D01*
G54D13*
X454974Y629364D02*
X456307Y630475D01*
X457641Y630475D01*
G54D13*
X464085Y630475D02*
X464085Y625475D01*
G54D13*
X464085Y626586D02*
X463418Y625697D01*
X462085Y625475D01*
X460752Y625697D01*
X460085Y626586D01*
X460085Y630475D01*
G54D13*
X470529Y625475D02*
X470529Y634364D01*
G54D13*
X470529Y629031D02*
X469862Y630142D01*
X468529Y630475D01*
X467196Y630142D01*
X466529Y629031D01*
X466529Y626808D01*
X467196Y625697D01*
X468529Y625475D01*
X469862Y625697D01*
X470529Y626808D01*
G54D13*
X476973Y626031D02*
X475906Y625475D01*
X474573Y625475D01*
X473240Y626031D01*
X472973Y627142D01*
X472973Y629031D01*
X473640Y630142D01*
X474973Y630475D01*
X476306Y630142D01*
X476973Y629364D01*
X476973Y628253D01*
X472973Y628253D01*
G54D13*
X479417Y625475D02*
X479417Y630475D01*
G54D13*
X479417Y629364D02*
X480750Y630475D01*
X482084Y630475D01*
G54D13*
X487105Y625475D02*
X487105Y634364D01*
G54D13*
X494882Y632697D02*
X494882Y627142D01*
X494216Y626031D01*
X492882Y625475D01*
X491549Y625475D01*
X490216Y626031D01*
X489549Y627142D01*
X489549Y632697D01*
X490216Y633808D01*
X491549Y634364D01*
X492882Y634364D01*
X494216Y633808D01*
X494882Y632697D01*
G54D13*
X499903Y625475D02*
X499903Y630475D01*
G54D13*
X499903Y629364D02*
X501236Y630475D01*
X502570Y630475D01*
G54D13*
X509014Y626031D02*
X507947Y625475D01*
X506614Y625475D01*
X505281Y626031D01*
X505014Y627142D01*
X505014Y629031D01*
X505681Y630142D01*
X507014Y630475D01*
X508347Y630142D01*
X509014Y629364D01*
X509014Y628253D01*
X505014Y628253D01*
G54D13*
X511458Y630475D02*
X514125Y625475D01*
X516791Y630475D01*
G54D13*
X524568Y625475D02*
X519235Y625475D01*
X519235Y626031D01*
X519902Y627142D01*
X523902Y630475D01*
X524568Y631586D01*
X524568Y632697D01*
X523902Y633808D01*
X522568Y634364D01*
X521235Y634364D01*
X519902Y633808D01*
X519235Y632697D01*
G54D13*
X736092Y381000D02*
X736092Y389889D01*
G54D13*
X733425Y389889D02*
X738758Y389889D01*
G54D13*
X741202Y381000D02*
X741202Y389889D01*
G54D13*
X741202Y384556D02*
X741869Y385667D01*
X743202Y386000D01*
X744535Y385667D01*
X745202Y384556D01*
X745202Y381000D01*
G54D13*
X751646Y381556D02*
X750579Y381000D01*
X749246Y381000D01*
X747913Y381556D01*
X747646Y382667D01*
X747646Y384556D01*
X748313Y385667D01*
X749646Y386000D01*
X750979Y385667D01*
X751646Y384889D01*
X751646Y383778D01*
X747646Y383778D01*
G54D13*
X754090Y381000D02*
X754090Y386000D01*
G54D13*
X754090Y384889D02*
X755423Y386000D01*
X756757Y386000D01*
G54D13*
X759201Y381000D02*
X759201Y386000D01*
G54D13*
X759201Y385111D02*
X760534Y386000D01*
X761868Y385667D01*
X762534Y384889D01*
X762534Y381000D01*
G54D13*
X762534Y385111D02*
X763868Y386000D01*
X765201Y385667D01*
X765868Y384889D01*
X765868Y381000D01*
G54D13*
X450850Y469900D02*
X450850Y478789D01*
X456183Y469900D01*
X456183Y478789D01*
G54D13*
X463960Y471567D02*
X463294Y470456D01*
X461960Y469900D01*
X460627Y469900D01*
X459294Y470456D01*
X458627Y471567D01*
X458627Y477122D01*
X459294Y478233D01*
X460627Y478789D01*
X461960Y478789D01*
X463294Y478233D01*
X463960Y477122D01*
M02*
