%FSLAX34Y34*%
%MOMM*%
%LNSMDMASK_TOP*%
G71*
G01*
%ADD10R, 2.70X1.20*%
%ADD11R, 1.80X1.50*%
%ADD12R, 1.10X0.90*%
%LPD*%
X327620Y835620D02*
G54D10*
D03*
X327620Y866180D02*
G54D10*
D03*
X133350Y914400D02*
G54D11*
D03*
X133350Y933400D02*
G54D11*
D03*
X327620Y918170D02*
G54D10*
D03*
X327620Y948730D02*
G54D10*
D03*
X82550Y863600D02*
G54D12*
D03*
X62309Y873125D02*
G54D12*
D03*
X62309Y854075D02*
G54D12*
D03*
X279400Y838200D02*
G54D10*
D03*
X279400Y868759D02*
G54D10*
D03*
X746720Y835620D02*
G54D10*
D03*
X746720Y866180D02*
G54D10*
D03*
X552450Y914400D02*
G54D11*
D03*
X552450Y933400D02*
G54D11*
D03*
X746720Y918170D02*
G54D10*
D03*
X746720Y948730D02*
G54D10*
D03*
X501650Y863600D02*
G54D12*
D03*
X481409Y873125D02*
G54D12*
D03*
X481409Y854075D02*
G54D12*
D03*
X698500Y838200D02*
G54D10*
D03*
X698500Y868759D02*
G54D10*
D03*
X327620Y480020D02*
G54D10*
D03*
X327620Y510580D02*
G54D10*
D03*
X133350Y558800D02*
G54D11*
D03*
X133350Y577800D02*
G54D11*
D03*
X327620Y562570D02*
G54D10*
D03*
X327620Y593130D02*
G54D10*
D03*
X82550Y508000D02*
G54D12*
D03*
X62309Y517525D02*
G54D12*
D03*
X62309Y498475D02*
G54D12*
D03*
X279400Y482600D02*
G54D10*
D03*
X279400Y513159D02*
G54D10*
D03*
X746720Y480020D02*
G54D10*
D03*
X746720Y510580D02*
G54D10*
D03*
X552450Y558800D02*
G54D11*
D03*
X552450Y577800D02*
G54D11*
D03*
X746720Y562570D02*
G54D10*
D03*
X746720Y593130D02*
G54D10*
D03*
X501650Y508000D02*
G54D12*
D03*
X481409Y517525D02*
G54D12*
D03*
X481409Y498475D02*
G54D12*
D03*
X698500Y482600D02*
G54D10*
D03*
X698500Y513159D02*
G54D10*
D03*
M02*
