%FSLAX34Y34*%
%MOMM*%
%LNSILK_TOP*%
G71*
G01*
%ADD10C, 0.200*%
%ADD11C, 0.150*%
%LPD*%
G54D10*
X82550Y-114300D02*
X82550Y-139700D01*
X209550Y-139700D01*
X209550Y-114300D01*
G54D10*
X82550Y-38100D02*
X82550Y-12700D01*
X209550Y-12700D01*
X209550Y-38100D01*
G54D10*
X82550Y-63500D02*
X82550Y-88900D01*
G54D10*
X209550Y-63500D02*
X209550Y-88900D01*
G54D10*
X95250Y-50800D02*
X107950Y-50800D01*
G54D10*
X184150Y-50800D02*
X196850Y-50800D01*
G54D10*
X95250Y-101600D02*
X107950Y-101600D01*
G54D10*
X184150Y-101600D02*
X196850Y-101600D01*
G54D10*
G75*
G01X184150Y-76200D02*
G03X184150Y-76200I-38100J0D01*
G01*
G54D10*
X285750Y-114300D02*
X285750Y-139700D01*
X412750Y-139700D01*
X412750Y-114300D01*
G54D10*
X285750Y-38100D02*
X285750Y-12700D01*
X412750Y-12700D01*
X412750Y-38100D01*
G54D10*
X285750Y-63500D02*
X285750Y-88900D01*
G54D10*
X412750Y-63500D02*
X412750Y-88900D01*
G54D10*
X298450Y-50800D02*
X311150Y-50800D01*
G54D10*
X387350Y-50800D02*
X400050Y-50800D01*
G54D10*
X298450Y-101600D02*
X311150Y-101600D01*
G54D10*
X387350Y-101600D02*
X400050Y-101600D01*
G54D10*
G75*
G01X387350Y-76200D02*
G03X387350Y-76200I-38100J0D01*
G01*
G54D10*
X488950Y-114300D02*
X488950Y-139700D01*
X615950Y-139700D01*
X615950Y-114300D01*
G54D10*
X488950Y-38100D02*
X488950Y-12700D01*
X615950Y-12700D01*
X615950Y-38100D01*
G54D10*
X488950Y-63500D02*
X488950Y-88900D01*
G54D10*
X615950Y-63500D02*
X615950Y-88900D01*
G54D10*
X501650Y-50800D02*
X514350Y-50800D01*
G54D10*
X590550Y-50800D02*
X603250Y-50800D01*
G54D10*
X501650Y-101600D02*
X514350Y-101600D01*
G54D10*
X590550Y-101600D02*
X603250Y-101600D01*
G54D10*
G75*
G01X590550Y-76200D02*
G03X590550Y-76200I-38100J0D01*
G01*
G54D10*
X692150Y-114300D02*
X692150Y-139700D01*
X819150Y-139700D01*
X819150Y-114300D01*
G54D10*
X692150Y-38100D02*
X692150Y-12700D01*
X819150Y-12700D01*
X819150Y-38100D01*
G54D10*
X692150Y-63500D02*
X692150Y-88900D01*
G54D10*
X819150Y-63500D02*
X819150Y-88900D01*
G54D10*
X704850Y-50800D02*
X717550Y-50800D01*
G54D10*
X793750Y-50800D02*
X806450Y-50800D01*
G54D10*
X704850Y-101600D02*
X717550Y-101600D01*
G54D10*
X793750Y-101600D02*
X806450Y-101600D01*
G54D10*
G75*
G01X793750Y-76200D02*
G03X793750Y-76200I-38100J0D01*
G01*
G54D11*
X255700Y-123850D02*
X277700Y-123850D01*
X277700Y-161850D01*
X255700Y-161850D01*
X255700Y-123850D01*
G54D11*
X458900Y-123850D02*
X480900Y-123850D01*
X480900Y-161850D01*
X458900Y-161850D01*
X458900Y-123850D01*
G54D11*
X662100Y-123850D02*
X684100Y-123850D01*
X684100Y-161850D01*
X662100Y-161850D01*
X662100Y-123850D01*
G54D11*
X255700Y-168350D02*
X277700Y-168350D01*
X277700Y-206350D01*
X255700Y-206350D01*
X255700Y-168350D01*
G54D11*
X427150Y-123850D02*
X449150Y-123850D01*
X449150Y-161850D01*
X427150Y-161850D01*
X427150Y-123850D01*
G54D11*
X630350Y-123850D02*
X652350Y-123850D01*
X652350Y-161850D01*
X630350Y-161850D01*
X630350Y-123850D01*
G54D10*
X82550Y-342900D02*
X82550Y-368300D01*
X209550Y-368300D01*
X209550Y-342900D01*
G54D10*
X82550Y-266700D02*
X82550Y-241300D01*
X209550Y-241300D01*
X209550Y-266700D01*
G54D10*
X82550Y-292100D02*
X82550Y-317500D01*
G54D10*
X209550Y-292100D02*
X209550Y-317500D01*
G54D10*
X95250Y-279400D02*
X107950Y-279400D01*
G54D10*
X184150Y-279400D02*
X196850Y-279400D01*
G54D10*
X95250Y-330200D02*
X107950Y-330200D01*
G54D10*
X184150Y-330200D02*
X196850Y-330200D01*
G54D10*
G75*
G01X184150Y-304800D02*
G03X184150Y-304800I-38100J0D01*
G01*
G54D10*
X285750Y-342900D02*
X285750Y-368300D01*
X412750Y-368300D01*
X412750Y-342900D01*
G54D10*
X285750Y-266700D02*
X285750Y-241300D01*
X412750Y-241300D01*
X412750Y-266700D01*
G54D10*
X285750Y-292100D02*
X285750Y-317500D01*
G54D10*
X412750Y-292100D02*
X412750Y-317500D01*
G54D10*
X298450Y-279400D02*
X311150Y-279400D01*
G54D10*
X387350Y-279400D02*
X400050Y-279400D01*
G54D10*
X298450Y-330200D02*
X311150Y-330200D01*
G54D10*
X387350Y-330200D02*
X400050Y-330200D01*
G54D10*
G75*
G01X387350Y-304800D02*
G03X387350Y-304800I-38100J0D01*
G01*
G54D10*
X488950Y-342900D02*
X488950Y-368300D01*
X615950Y-368300D01*
X615950Y-342900D01*
G54D10*
X488950Y-266700D02*
X488950Y-241300D01*
X615950Y-241300D01*
X615950Y-266700D01*
G54D10*
X488950Y-292100D02*
X488950Y-317500D01*
G54D10*
X615950Y-292100D02*
X615950Y-317500D01*
G54D10*
X501650Y-279400D02*
X514350Y-279400D01*
G54D10*
X590550Y-279400D02*
X603250Y-279400D01*
G54D10*
X501650Y-330200D02*
X514350Y-330200D01*
G54D10*
X590550Y-330200D02*
X603250Y-330200D01*
G54D10*
G75*
G01X590550Y-304800D02*
G03X590550Y-304800I-38100J0D01*
G01*
G54D10*
X692150Y-342900D02*
X692150Y-368300D01*
X819150Y-368300D01*
X819150Y-342900D01*
G54D10*
X692150Y-266700D02*
X692150Y-241300D01*
X819150Y-241300D01*
X819150Y-266700D01*
G54D10*
X692150Y-292100D02*
X692150Y-317500D01*
G54D10*
X819150Y-292100D02*
X819150Y-317500D01*
G54D10*
X704850Y-279400D02*
X717550Y-279400D01*
G54D10*
X793750Y-279400D02*
X806450Y-279400D01*
G54D10*
X704850Y-330200D02*
X717550Y-330200D01*
G54D10*
X793750Y-330200D02*
X806450Y-330200D01*
G54D10*
G75*
G01X793750Y-304800D02*
G03X793750Y-304800I-38100J0D01*
G01*
G54D11*
X255700Y-352450D02*
X277700Y-352450D01*
X277700Y-390450D01*
X255700Y-390450D01*
X255700Y-352450D01*
G54D11*
X458900Y-352450D02*
X480900Y-352450D01*
X480900Y-390450D01*
X458900Y-390450D01*
X458900Y-352450D01*
G54D11*
X662100Y-352450D02*
X684100Y-352450D01*
X684100Y-390450D01*
X662100Y-390450D01*
X662100Y-352450D01*
G54D11*
X255700Y-396950D02*
X277700Y-396950D01*
X277700Y-434950D01*
X255700Y-434950D01*
X255700Y-396950D01*
G54D11*
X427150Y-352450D02*
X449150Y-352450D01*
X449150Y-390450D01*
X427150Y-390450D01*
X427150Y-352450D01*
G54D11*
X630350Y-352450D02*
X652350Y-352450D01*
X652350Y-390450D01*
X630350Y-390450D01*
X630350Y-352450D01*
G54D10*
X82550Y-571500D02*
X82550Y-596900D01*
X209550Y-596900D01*
X209550Y-571500D01*
G54D10*
X82550Y-495300D02*
X82550Y-469900D01*
X209550Y-469900D01*
X209550Y-495300D01*
G54D10*
X82550Y-520700D02*
X82550Y-546100D01*
G54D10*
X209550Y-520700D02*
X209550Y-546100D01*
G54D10*
X95250Y-508000D02*
X107950Y-508000D01*
G54D10*
X184150Y-508000D02*
X196850Y-508000D01*
G54D10*
X95250Y-558800D02*
X107950Y-558800D01*
G54D10*
X184150Y-558800D02*
X196850Y-558800D01*
G54D10*
G75*
G01X184150Y-533400D02*
G03X184150Y-533400I-38100J0D01*
G01*
G54D10*
X285750Y-571500D02*
X285750Y-596900D01*
X412750Y-596900D01*
X412750Y-571500D01*
G54D10*
X285750Y-495300D02*
X285750Y-469900D01*
X412750Y-469900D01*
X412750Y-495300D01*
G54D10*
X285750Y-520700D02*
X285750Y-546100D01*
G54D10*
X412750Y-520700D02*
X412750Y-546100D01*
G54D10*
X298450Y-508000D02*
X311150Y-508000D01*
G54D10*
X387350Y-508000D02*
X400050Y-508000D01*
G54D10*
X298450Y-558800D02*
X311150Y-558800D01*
G54D10*
X387350Y-558800D02*
X400050Y-558800D01*
G54D10*
G75*
G01X387350Y-533400D02*
G03X387350Y-533400I-38100J0D01*
G01*
G54D10*
X488950Y-571500D02*
X488950Y-596900D01*
X615950Y-596900D01*
X615950Y-571500D01*
G54D10*
X488950Y-495300D02*
X488950Y-469900D01*
X615950Y-469900D01*
X615950Y-495300D01*
G54D10*
X488950Y-520700D02*
X488950Y-546100D01*
G54D10*
X615950Y-520700D02*
X615950Y-546100D01*
G54D10*
X501650Y-508000D02*
X514350Y-508000D01*
G54D10*
X590550Y-508000D02*
X603250Y-508000D01*
G54D10*
X501650Y-558800D02*
X514350Y-558800D01*
G54D10*
X590550Y-558800D02*
X603250Y-558800D01*
G54D10*
G75*
G01X590550Y-533400D02*
G03X590550Y-533400I-38100J0D01*
G01*
G54D10*
X692150Y-571500D02*
X692150Y-596900D01*
X819150Y-596900D01*
X819150Y-571500D01*
G54D10*
X692150Y-495300D02*
X692150Y-469900D01*
X819150Y-469900D01*
X819150Y-495300D01*
G54D10*
X692150Y-520700D02*
X692150Y-546100D01*
G54D10*
X819150Y-520700D02*
X819150Y-546100D01*
G54D10*
X704850Y-508000D02*
X717550Y-508000D01*
G54D10*
X793750Y-508000D02*
X806450Y-508000D01*
G54D10*
X704850Y-558800D02*
X717550Y-558800D01*
G54D10*
X793750Y-558800D02*
X806450Y-558800D01*
G54D10*
G75*
G01X793750Y-533400D02*
G03X793750Y-533400I-38100J0D01*
G01*
G54D11*
X255700Y-581050D02*
X277700Y-581050D01*
X277700Y-619050D01*
X255700Y-619050D01*
X255700Y-581050D01*
G54D11*
X458900Y-581050D02*
X480900Y-581050D01*
X480900Y-619050D01*
X458900Y-619050D01*
X458900Y-581050D01*
G54D11*
X662100Y-581050D02*
X684100Y-581050D01*
X684100Y-619050D01*
X662100Y-619050D01*
X662100Y-581050D01*
G54D11*
X255700Y-625550D02*
X277700Y-625550D01*
X277700Y-663550D01*
X255700Y-663550D01*
X255700Y-625550D01*
G54D11*
X427150Y-581050D02*
X449150Y-581050D01*
X449150Y-619050D01*
X427150Y-619050D01*
X427150Y-581050D01*
G54D11*
X630350Y-581050D02*
X652350Y-581050D01*
X652350Y-619050D01*
X630350Y-619050D01*
X630350Y-581050D01*
G54D10*
X82550Y-800100D02*
X82550Y-825500D01*
X209550Y-825500D01*
X209550Y-800100D01*
G54D10*
X82550Y-723900D02*
X82550Y-698500D01*
X209550Y-698500D01*
X209550Y-723900D01*
G54D10*
X82550Y-749300D02*
X82550Y-774700D01*
G54D10*
X209550Y-749300D02*
X209550Y-774700D01*
G54D10*
X95250Y-736600D02*
X107950Y-736600D01*
G54D10*
X184150Y-736600D02*
X196850Y-736600D01*
G54D10*
X95250Y-787400D02*
X107950Y-787400D01*
G54D10*
X184150Y-787400D02*
X196850Y-787400D01*
G54D10*
G75*
G01X184150Y-762000D02*
G03X184150Y-762000I-38100J0D01*
G01*
G54D10*
X285750Y-800100D02*
X285750Y-825500D01*
X412750Y-825500D01*
X412750Y-800100D01*
G54D10*
X285750Y-723900D02*
X285750Y-698500D01*
X412750Y-698500D01*
X412750Y-723900D01*
G54D10*
X285750Y-749300D02*
X285750Y-774700D01*
G54D10*
X412750Y-749300D02*
X412750Y-774700D01*
G54D10*
X298450Y-736600D02*
X311150Y-736600D01*
G54D10*
X387350Y-736600D02*
X400050Y-736600D01*
G54D10*
X298450Y-787400D02*
X311150Y-787400D01*
G54D10*
X387350Y-787400D02*
X400050Y-787400D01*
G54D10*
G75*
G01X387350Y-762000D02*
G03X387350Y-762000I-38100J0D01*
G01*
G54D10*
X488950Y-800100D02*
X488950Y-825500D01*
X615950Y-825500D01*
X615950Y-800100D01*
G54D10*
X488950Y-723900D02*
X488950Y-698500D01*
X615950Y-698500D01*
X615950Y-723900D01*
G54D10*
X488950Y-749300D02*
X488950Y-774700D01*
G54D10*
X615950Y-749300D02*
X615950Y-774700D01*
G54D10*
X501650Y-736600D02*
X514350Y-736600D01*
G54D10*
X590550Y-736600D02*
X603250Y-736600D01*
G54D10*
X501650Y-787400D02*
X514350Y-787400D01*
G54D10*
X590550Y-787400D02*
X603250Y-787400D01*
G54D10*
G75*
G01X590550Y-762000D02*
G03X590550Y-762000I-38100J0D01*
G01*
G54D10*
X692150Y-800100D02*
X692150Y-825500D01*
X819150Y-825500D01*
X819150Y-800100D01*
G54D10*
X692150Y-723900D02*
X692150Y-698500D01*
X819150Y-698500D01*
X819150Y-723900D01*
G54D10*
X692150Y-749300D02*
X692150Y-774700D01*
G54D10*
X819150Y-749300D02*
X819150Y-774700D01*
G54D10*
X704850Y-736600D02*
X717550Y-736600D01*
G54D10*
X793750Y-736600D02*
X806450Y-736600D01*
G54D10*
X704850Y-787400D02*
X717550Y-787400D01*
G54D10*
X793750Y-787400D02*
X806450Y-787400D01*
G54D10*
G75*
G01X793750Y-762000D02*
G03X793750Y-762000I-38100J0D01*
G01*
G54D11*
X255700Y-809650D02*
X277700Y-809650D01*
X277700Y-847650D01*
X255700Y-847650D01*
X255700Y-809650D01*
G54D11*
X458900Y-809650D02*
X480900Y-809650D01*
X480900Y-847650D01*
X458900Y-847650D01*
X458900Y-809650D01*
G54D11*
X662100Y-809650D02*
X684100Y-809650D01*
X684100Y-847650D01*
X662100Y-847650D01*
X662100Y-809650D01*
G54D11*
X255700Y-854150D02*
X277700Y-854150D01*
X277700Y-892150D01*
X255700Y-892150D01*
X255700Y-854150D01*
G54D11*
X427150Y-809650D02*
X449150Y-809650D01*
X449150Y-847650D01*
X427150Y-847650D01*
X427150Y-809650D01*
G54D11*
X630350Y-809650D02*
X652350Y-809650D01*
X652350Y-847650D01*
X630350Y-847650D01*
X630350Y-809650D01*
M02*
