; Drill file
; Format: 2.4 (00.0000)
M48
INCH
T01C0.0335
T02C0.0339
T03C0.0472
T04C0.0866
%
G05
G90
T01
X013250Y-034000
X014250Y-034000
X015250Y-034000
X015250Y-025000
X014250Y-025000
X013250Y-025000
X013250Y-016000
X014250Y-016000
X015250Y-016000
X015250Y-007000
X014250Y-007000
X013250Y-007000
T02
X005250Y-034000
X006250Y-034000
X012250Y-034000
X012250Y-025000
X006250Y-025000
X005250Y-025000
X005250Y-016000
X006250Y-016000
X012250Y-016000
X012250Y-007000
X006250Y-007000
X005250Y-007000
T03
X003250Y-031000
X003250Y-029000
X008250Y-029000
X008250Y-031000
X011250Y-031000
X011250Y-029000
X016250Y-029000
X016250Y-031000
X019250Y-031000
X019250Y-029000
X024250Y-029000
X024250Y-031000
X027250Y-031000
X027250Y-029000
X032250Y-029000
X032250Y-031000
X032250Y-022000
X032250Y-020000
X027250Y-020000
X027250Y-022000
X024250Y-022000
X024250Y-020000
X019250Y-020000
X019250Y-022000
X016250Y-022000
X016250Y-020000
X011250Y-020000
X011250Y-022000
X008250Y-022000
X008250Y-020000
X003250Y-020000
X003250Y-022000
X003250Y-013000
X003250Y-011000
X008250Y-011000
X008250Y-013000
X011250Y-013000
X011250Y-011000
X016250Y-011000
X016250Y-013000
X019250Y-013000
X019250Y-011000
X024250Y-011000
X024250Y-013000
X027250Y-013000
X027250Y-011000
X032250Y-011000
X032250Y-013000
X032250Y-004000
X032250Y-002000
X027250Y-002000
X027250Y-004000
X024250Y-004000
X024250Y-002000
X019250Y-002000
X019250Y-004000
X016250Y-004000
X016250Y-002000
X011250Y-002000
X011250Y-004000
X008250Y-004000
X008250Y-002000
X003250Y-002000
X003250Y-004000
T04
X001250Y-034750
X001250Y-028250
X001250Y-025750
X001250Y-019250
X001250Y-016750
X001250Y-010250
X001250Y-007750
X001250Y-001250
X034250Y-001250
X034250Y-007750
X034250Y-010250
X034250Y-016750
X034250Y-019250
X034250Y-025750
X034250Y-028250
X034250Y-034750
M30
