%FSLAX34Y34*%
%MOMM*%
%LNSOLDERMASK_TOP*%
G71*
G01*
%ADD10C, 2.600*%
%ADD11C, 2.400*%
%ADD12C, 5.600*%
%ADD13C, 2.400*%
%ADD14C, 2.600*%
%ADD15R, 1.800X1.500*%
%LPD*%
X82550Y-50800D02*
G54D10*
D03*
X82550Y-101600D02*
G54D10*
D03*
X209550Y-50800D02*
G54D10*
D03*
X209550Y-101600D02*
G54D10*
D03*
X158750Y-177799D02*
G54D11*
D03*
X133350Y-177799D02*
G54D11*
D03*
X31750Y-31750D02*
G54D12*
D03*
X31750Y-196850D02*
G54D12*
D03*
X869950Y-196850D02*
G54D12*
D03*
X869950Y-31750D02*
G54D12*
D03*
X285750Y-50800D02*
G54D10*
D03*
X285750Y-101600D02*
G54D10*
D03*
X412750Y-50800D02*
G54D10*
D03*
X412750Y-101600D02*
G54D10*
D03*
X488950Y-50800D02*
G54D10*
D03*
X488950Y-101600D02*
G54D10*
D03*
X615950Y-50800D02*
G54D10*
D03*
X615950Y-101600D02*
G54D10*
D03*
X692150Y-50800D02*
G54D10*
D03*
X692150Y-101600D02*
G54D10*
D03*
X819150Y-50800D02*
G54D10*
D03*
X819150Y-101600D02*
G54D10*
D03*
X387350Y-177800D02*
G54D13*
D03*
X361950Y-177800D02*
G54D13*
D03*
X336550Y-177800D02*
G54D13*
D03*
X311150Y-177800D02*
G54D13*
D03*
X311150Y-177800D02*
G54D11*
D03*
X285750Y-50800D02*
G54D14*
D03*
X285750Y-50800D02*
G54D10*
D03*
X412750Y-50800D02*
G54D10*
D03*
X488950Y-50800D02*
G54D10*
D03*
X615950Y-50800D02*
G54D10*
D03*
X692150Y-50800D02*
G54D10*
D03*
X819150Y-50800D02*
G54D10*
D03*
X266700Y-133350D02*
G54D15*
D03*
X266700Y-152350D02*
G54D15*
D03*
X469900Y-133350D02*
G54D15*
D03*
X469900Y-152350D02*
G54D15*
D03*
X673100Y-133350D02*
G54D15*
D03*
X673100Y-152350D02*
G54D15*
D03*
X266700Y-177850D02*
G54D15*
D03*
X266700Y-196850D02*
G54D15*
D03*
X438150Y-133350D02*
G54D15*
D03*
X438150Y-152350D02*
G54D15*
D03*
X641350Y-133350D02*
G54D15*
D03*
X641350Y-152350D02*
G54D15*
D03*
X266700Y-196850D02*
G54D15*
D03*
X438150Y-133350D02*
G54D15*
D03*
X641350Y-133350D02*
G54D15*
D03*
X82550Y-279400D02*
G54D10*
D03*
X82550Y-330200D02*
G54D10*
D03*
X209550Y-279400D02*
G54D10*
D03*
X209550Y-330200D02*
G54D10*
D03*
X158750Y-406399D02*
G54D11*
D03*
X133350Y-406399D02*
G54D11*
D03*
X31750Y-260350D02*
G54D12*
D03*
X31750Y-425450D02*
G54D12*
D03*
X869950Y-425450D02*
G54D12*
D03*
X869950Y-260350D02*
G54D12*
D03*
X285750Y-279400D02*
G54D10*
D03*
X285750Y-330200D02*
G54D10*
D03*
X412750Y-279400D02*
G54D10*
D03*
X412750Y-330200D02*
G54D10*
D03*
X488950Y-279400D02*
G54D10*
D03*
X488950Y-330200D02*
G54D10*
D03*
X615950Y-279400D02*
G54D10*
D03*
X615950Y-330200D02*
G54D10*
D03*
X692150Y-279400D02*
G54D10*
D03*
X692150Y-330200D02*
G54D10*
D03*
X819150Y-279400D02*
G54D10*
D03*
X819150Y-330200D02*
G54D10*
D03*
X387350Y-406400D02*
G54D13*
D03*
X361950Y-406400D02*
G54D13*
D03*
X336550Y-406400D02*
G54D13*
D03*
X311150Y-406400D02*
G54D13*
D03*
X311150Y-406400D02*
G54D11*
D03*
X285750Y-279400D02*
G54D14*
D03*
X285750Y-279400D02*
G54D10*
D03*
X412750Y-279400D02*
G54D10*
D03*
X488950Y-279400D02*
G54D10*
D03*
X615950Y-279400D02*
G54D10*
D03*
X692150Y-279400D02*
G54D10*
D03*
X819150Y-279400D02*
G54D10*
D03*
X266700Y-361950D02*
G54D15*
D03*
X266700Y-380950D02*
G54D15*
D03*
X469900Y-361950D02*
G54D15*
D03*
X469900Y-380950D02*
G54D15*
D03*
X673100Y-361950D02*
G54D15*
D03*
X673100Y-380950D02*
G54D15*
D03*
X266700Y-406450D02*
G54D15*
D03*
X266700Y-425450D02*
G54D15*
D03*
X438150Y-361950D02*
G54D15*
D03*
X438150Y-380950D02*
G54D15*
D03*
X641350Y-361950D02*
G54D15*
D03*
X641350Y-380950D02*
G54D15*
D03*
X266700Y-425450D02*
G54D15*
D03*
X438150Y-361950D02*
G54D15*
D03*
X641350Y-361950D02*
G54D15*
D03*
X82550Y-508000D02*
G54D10*
D03*
X82550Y-558800D02*
G54D10*
D03*
X209550Y-508000D02*
G54D10*
D03*
X209550Y-558800D02*
G54D10*
D03*
X158750Y-634999D02*
G54D11*
D03*
X133350Y-634999D02*
G54D11*
D03*
X31750Y-488950D02*
G54D12*
D03*
X31750Y-654050D02*
G54D12*
D03*
X869950Y-654050D02*
G54D12*
D03*
X869950Y-488950D02*
G54D12*
D03*
X285750Y-508000D02*
G54D10*
D03*
X285750Y-558800D02*
G54D10*
D03*
X412750Y-508000D02*
G54D10*
D03*
X412750Y-558800D02*
G54D10*
D03*
X488950Y-508000D02*
G54D10*
D03*
X488950Y-558800D02*
G54D10*
D03*
X615950Y-508000D02*
G54D10*
D03*
X615950Y-558800D02*
G54D10*
D03*
X692150Y-508000D02*
G54D10*
D03*
X692150Y-558800D02*
G54D10*
D03*
X819150Y-508000D02*
G54D10*
D03*
X819150Y-558800D02*
G54D10*
D03*
X387350Y-635000D02*
G54D13*
D03*
X361950Y-635000D02*
G54D13*
D03*
X336550Y-635000D02*
G54D13*
D03*
X311150Y-635000D02*
G54D13*
D03*
X311150Y-635000D02*
G54D11*
D03*
X285750Y-508000D02*
G54D14*
D03*
X285750Y-508000D02*
G54D10*
D03*
X412750Y-508000D02*
G54D10*
D03*
X488950Y-508000D02*
G54D10*
D03*
X615950Y-508000D02*
G54D10*
D03*
X692150Y-508000D02*
G54D10*
D03*
X819150Y-508000D02*
G54D10*
D03*
X266700Y-590550D02*
G54D15*
D03*
X266700Y-609550D02*
G54D15*
D03*
X469900Y-590550D02*
G54D15*
D03*
X469900Y-609550D02*
G54D15*
D03*
X673100Y-590550D02*
G54D15*
D03*
X673100Y-609550D02*
G54D15*
D03*
X266700Y-635050D02*
G54D15*
D03*
X266700Y-654050D02*
G54D15*
D03*
X438150Y-590550D02*
G54D15*
D03*
X438150Y-609550D02*
G54D15*
D03*
X641350Y-590550D02*
G54D15*
D03*
X641350Y-609550D02*
G54D15*
D03*
X266700Y-654050D02*
G54D15*
D03*
X438150Y-590550D02*
G54D15*
D03*
X641350Y-590550D02*
G54D15*
D03*
X82550Y-736600D02*
G54D10*
D03*
X82550Y-787400D02*
G54D10*
D03*
X209550Y-736600D02*
G54D10*
D03*
X209550Y-787400D02*
G54D10*
D03*
X158750Y-863599D02*
G54D11*
D03*
X133350Y-863599D02*
G54D11*
D03*
X31750Y-717550D02*
G54D12*
D03*
X31750Y-882650D02*
G54D12*
D03*
X869950Y-882650D02*
G54D12*
D03*
X869950Y-717550D02*
G54D12*
D03*
X285750Y-736600D02*
G54D10*
D03*
X285750Y-787400D02*
G54D10*
D03*
X412750Y-736600D02*
G54D10*
D03*
X412750Y-787400D02*
G54D10*
D03*
X488950Y-736600D02*
G54D10*
D03*
X488950Y-787400D02*
G54D10*
D03*
X615950Y-736600D02*
G54D10*
D03*
X615950Y-787400D02*
G54D10*
D03*
X692150Y-736600D02*
G54D10*
D03*
X692150Y-787400D02*
G54D10*
D03*
X819150Y-736600D02*
G54D10*
D03*
X819150Y-787400D02*
G54D10*
D03*
X387350Y-863600D02*
G54D13*
D03*
X361950Y-863600D02*
G54D13*
D03*
X336550Y-863600D02*
G54D13*
D03*
X311150Y-863600D02*
G54D13*
D03*
X311150Y-863600D02*
G54D11*
D03*
X285750Y-736600D02*
G54D14*
D03*
X285750Y-736600D02*
G54D10*
D03*
X412750Y-736600D02*
G54D10*
D03*
X488950Y-736600D02*
G54D10*
D03*
X615950Y-736600D02*
G54D10*
D03*
X692150Y-736600D02*
G54D10*
D03*
X819150Y-736600D02*
G54D10*
D03*
X266700Y-819150D02*
G54D15*
D03*
X266700Y-838150D02*
G54D15*
D03*
X469900Y-819150D02*
G54D15*
D03*
X469900Y-838150D02*
G54D15*
D03*
X673100Y-819150D02*
G54D15*
D03*
X673100Y-838150D02*
G54D15*
D03*
X266700Y-863650D02*
G54D15*
D03*
X266700Y-882650D02*
G54D15*
D03*
X438150Y-819150D02*
G54D15*
D03*
X438150Y-838150D02*
G54D15*
D03*
X641350Y-819150D02*
G54D15*
D03*
X641350Y-838150D02*
G54D15*
D03*
X266700Y-882650D02*
G54D15*
D03*
X438150Y-819150D02*
G54D15*
D03*
X641350Y-819150D02*
G54D15*
D03*
M02*
