; Drill file
; Format: 2.4 (00.0000)
M48
INCH
T01C0.0315
T02C0.0394
T03C0.0433
T04C0.0945
%
G05
G90
T01
X007620Y007130
X008630Y007130
X010870Y007130
X011750Y007130
X020620Y007130
X021630Y007130
X023880Y007130
X024750Y007130
X033620Y007130
X034620Y007130
X036880Y007130
X037750Y007130
X032370Y018630
X032370Y019620
X033620Y025620
X034620Y025620
X036880Y025620
X037750Y025620
X032370Y037120
X032370Y038120
X019380Y038120
X019380Y037120
X020620Y025620
X021630Y025620
X023880Y025620
X024750Y025620
X019380Y019620
X019380Y018630
X011750Y025620
X010870Y025620
X008630Y025620
X007620Y025620
X006370Y019620
X006370Y018630
X006370Y037120
X006370Y038120
T02
X001380Y003380
X001380Y004380
X001380Y006880
X001380Y007870
X001380Y010380
X001380Y011370
X001380Y013870
X001380Y014880
X003380Y015750
X004380Y014130
X005370Y014130
X006370Y014130
X008120Y015380
X009110Y015380
X009890Y015380
X010870Y015380
X010870Y014130
X009880Y014130
X008870Y014130
X014380Y013870
X014380Y014880
X016370Y015750
X017380Y014130
X018370Y014130
X019380Y014130
X021120Y015380
X022110Y015380
X022890Y015380
X023880Y015380
X023880Y014130
X022880Y014130
X021880Y014130
X027370Y013870
X027370Y014880
X029380Y015750
X030380Y014130
X031380Y014130
X032370Y014130
X034130Y015380
X035110Y015380
X035890Y015380
X036880Y015380
X036880Y014130
X035870Y014130
X034870Y014130
X033370Y021880
X033370Y022880
X030380Y022880
X030380Y021880
X027370Y021880
X027370Y022880
X027370Y025380
X027370Y026380
X027370Y028880
X027370Y029870
X027370Y032370
X027370Y033370
X029380Y034250
X030380Y032630
X031380Y032630
X032370Y032630
X034130Y033880
X035110Y033880
X035890Y033880
X036880Y033880
X036880Y032630
X035870Y032630
X034870Y032630
X023880Y032630
X022880Y032630
X021880Y032630
X022110Y033880
X022890Y033880
X023880Y033880
X021120Y033880
X019380Y032630
X018370Y032630
X017380Y032630
X016370Y034250
X014380Y033370
X014380Y032370
X014380Y029870
X014380Y028880
X014380Y026380
X014380Y025380
X014380Y022880
X014380Y021880
X017380Y021880
X017380Y022880
X020380Y022880
X020380Y021880
X014380Y011370
X014380Y010380
X014380Y007870
X014380Y006880
X014380Y004380
X014380Y003380
X017380Y003380
X017380Y004380
X020380Y004380
X020380Y003380
X027370Y003380
X027370Y004380
X027370Y006880
X027370Y007870
X027370Y010380
X027370Y011370
X030380Y004380
X030380Y003380
X033370Y003380
X033370Y004380
X007380Y004380
X007380Y003380
X004380Y003380
X004380Y004380
X004380Y021880
X004380Y022880
X007380Y022880
X007380Y021880
X001380Y021880
X001380Y022880
X001380Y025380
X001380Y026380
X001380Y028880
X001380Y029870
X001380Y032370
X001380Y033370
X003380Y034250
X004380Y032630
X005370Y032630
X006370Y032630
X008120Y033880
X009110Y033880
X009890Y033880
X010870Y033880
X010870Y032630
X009880Y032630
X008870Y032630
T03
X002870Y018630
X004870Y018630
X015870Y018630
X017880Y018630
X028880Y018630
X030870Y018630
X030870Y037120
X028880Y037120
X017880Y037120
X015870Y037120
X004870Y037120
X002870Y037120
T04
X006910Y016440
X012090Y016440
X019910Y016440
X025090Y016440
X032910Y016440
X038090Y016440
X038090Y034940
X032910Y034940
X025090Y034940
X019910Y034940
X012090Y034940
X006910Y034940
M30
