; Drill file
; Format: 2.4 (00.0000)
M48
INCH
T01C0.0315
T02C0.0394
T03C0.0433
T04C0.0945
%
G05
G90
T01
X007620Y007250
X008630Y007250
X010870Y007250
X011750Y007250
X020620Y007250
X021630Y007250
X023880Y007250
X024750Y007250
X033620Y007250
X034620Y007250
X036880Y007250
X037750Y007250
X032370Y018750
X032370Y019750
X033620Y025750
X034620Y025750
X036880Y025750
X037750Y025750
X032370Y037250
X032370Y038250
X019380Y038250
X019380Y037250
X020620Y025750
X021630Y025750
X023880Y025750
X024750Y025750
X019380Y019750
X019380Y018750
X011750Y025750
X010870Y025750
X008630Y025750
X007620Y025750
X006370Y019750
X006370Y018750
X006370Y037250
X006370Y038250
T02
X001380Y003500
X001380Y004500
X001380Y007000
X001380Y008000
X001380Y010500
X001380Y011500
X001380Y014000
X001380Y015000
X003380Y015870
X004380Y014250
X005370Y014250
X006370Y014250
X008120Y015500
X009110Y015500
X009890Y015500
X010870Y015500
X010870Y014250
X009880Y014250
X008870Y014250
X014380Y014000
X014380Y015000
X016370Y015870
X017380Y014250
X018370Y014250
X019380Y014250
X021120Y015500
X022110Y015500
X022890Y015500
X023880Y015500
X023880Y014250
X022880Y014250
X021880Y014250
X027370Y014000
X027370Y015000
X029380Y015870
X030380Y014250
X031380Y014250
X032370Y014250
X034130Y015500
X035110Y015500
X035890Y015500
X036880Y015500
X036880Y014250
X035870Y014250
X034870Y014250
X033370Y022000
X033370Y023000
X030380Y023000
X030380Y022000
X027370Y022000
X027370Y023000
X027370Y025500
X027370Y026500
X027370Y029000
X027370Y030000
X027370Y032500
X027370Y033500
X029380Y034380
X030380Y032750
X031380Y032750
X032370Y032750
X034130Y034000
X035110Y034000
X035890Y034000
X036880Y034000
X036880Y032750
X035870Y032750
X034870Y032750
X023880Y032750
X022880Y032750
X021880Y032750
X022110Y034000
X022890Y034000
X023880Y034000
X021120Y034000
X019380Y032750
X018370Y032750
X017380Y032750
X016370Y034380
X014380Y033500
X014380Y032500
X014380Y030000
X014380Y029000
X014380Y026500
X014380Y025500
X014380Y023000
X014380Y022000
X017380Y022000
X017380Y023000
X020380Y023000
X020380Y022000
X014380Y011500
X014380Y010500
X014380Y008000
X014380Y007000
X014380Y004500
X014380Y003500
X017380Y003500
X017380Y004500
X020380Y004500
X020380Y003500
X027370Y003500
X027370Y004500
X027370Y007000
X027370Y008000
X027370Y010500
X027370Y011500
X030380Y004500
X030380Y003500
X033370Y003500
X033370Y004500
X007380Y004500
X007380Y003500
X004380Y003500
X004380Y004500
X004380Y022000
X004380Y023000
X007380Y023000
X007380Y022000
X001380Y022000
X001380Y023000
X001380Y025500
X001380Y026500
X001380Y029000
X001380Y030000
X001380Y032500
X001380Y033500
X003380Y034380
X004380Y032750
X005370Y032750
X006370Y032750
X008120Y034000
X009110Y034000
X009890Y034000
X010870Y034000
X010870Y032750
X009880Y032750
X008870Y032750
T03
X002870Y018750
X004870Y018750
X015870Y018750
X017880Y018750
X028880Y018750
X030870Y018750
X030870Y037250
X028880Y037250
X017880Y037250
X015870Y037250
X004870Y037250
X002870Y037250
T04
X006910Y016560
X012090Y016560
X019910Y016560
X025090Y016560
X032910Y016560
X038090Y016560
X038090Y035060
X032910Y035060
X025090Y035060
X019910Y035060
X012090Y035060
X006910Y035060
M30
