%FSLAX34Y34*%
%MOMM*%
%LNCOPPER_BOTTOM*%
G71*
G01*
%ADD10C, 0.11*%
%ADD11C, 0.10*%
%ADD12C, 0.15*%
%LPD*%
G54D10*
X78403Y848992D02*
X78403Y843659D01*
G54D10*
X74514Y835882D02*
X74514Y841215D01*
X75069Y841215D01*
X76180Y840549D01*
X79514Y836549D01*
X80625Y835882D01*
X81736Y835882D01*
X82847Y836549D01*
X83403Y837882D01*
X83403Y839215D01*
X82847Y840549D01*
X81736Y841215D01*
G54D10*
X74514Y829438D02*
X83403Y829438D01*
X77847Y833438D01*
X76736Y833438D01*
X76736Y828105D01*
G54D10*
X83403Y825661D02*
X74514Y822328D01*
X83403Y818995D01*
G54D10*
X78403Y816550D02*
X78403Y811217D01*
G54D10*
X80625Y813884D02*
X76180Y813884D01*
G54D10*
X76914Y682625D02*
X76914Y677292D01*
G54D10*
X78580Y674848D02*
X81914Y671515D01*
X73025Y671515D01*
G54D10*
X73025Y663738D02*
X73025Y669071D01*
X73580Y669071D01*
X74692Y668404D01*
X78025Y664404D01*
X79136Y663738D01*
X80247Y663738D01*
X81358Y664404D01*
X81914Y665738D01*
X81914Y667071D01*
X81358Y668404D01*
X80247Y669071D01*
G54D10*
X81914Y661294D02*
X73025Y657961D01*
X81914Y654627D01*
G54D10*
X76914Y652183D02*
X76914Y646850D01*
G54D10*
X79136Y649516D02*
X74692Y649516D01*
G54D10*
X76019Y588322D02*
X76019Y582989D01*
G54D10*
X77685Y580545D02*
X81019Y577212D01*
X72130Y577212D01*
G54D10*
X72130Y569435D02*
X72130Y574768D01*
X72685Y574768D01*
X73796Y574102D01*
X77130Y570102D01*
X78241Y569435D01*
X79352Y569435D01*
X80463Y570102D01*
X81019Y571435D01*
X81019Y572768D01*
X80463Y574102D01*
X79352Y574768D01*
G54D10*
X81019Y566991D02*
X72130Y563658D01*
X81019Y560325D01*
G54D10*
X76019Y557880D02*
X76019Y552547D01*
G54D10*
X78241Y555214D02*
X73796Y555214D01*
G54D11*
X149225Y930275D02*
X149225Y981075D01*
X47625Y981075D01*
X47625Y930275D01*
G54D11*
X149225Y930275D02*
X149225Y892175D01*
X47625Y892175D01*
X47625Y930275D01*
G54D11*
X136525Y981075D02*
X136525Y968375D01*
X111125Y968375D01*
X111125Y981075D01*
G54D11*
X85725Y981075D02*
X85725Y968375D01*
X60325Y968375D01*
X60325Y981075D01*
G54D11*
X9525Y796925D02*
X69850Y796925D01*
G54D11*
X9525Y873125D02*
X69850Y873125D01*
X69850Y796925D01*
G54D11*
X9525Y796925D02*
X9525Y873125D01*
G54D11*
X9525Y822325D02*
X15875Y822325D01*
X15875Y847725D01*
X9525Y847725D01*
G54D11*
X9525Y708025D02*
X69850Y708025D01*
G54D11*
X9525Y784225D02*
X69850Y784225D01*
X69850Y708025D01*
G54D11*
X9525Y708025D02*
X9525Y784225D01*
G54D11*
X9525Y733425D02*
X15875Y733425D01*
X15875Y758825D01*
X9525Y758825D01*
G54D11*
X9525Y619125D02*
X69850Y619125D01*
G54D11*
X9525Y695325D02*
X69850Y695325D01*
X69850Y619125D01*
G54D11*
X9525Y619125D02*
X9525Y695325D01*
G54D11*
X9525Y644525D02*
X15875Y644525D01*
X15875Y669925D01*
X9525Y669925D01*
G54D11*
X188912Y841375D02*
X84138Y841375D01*
X84138Y676275D01*
X188912Y676275D01*
X188912Y841375D01*
G54D11*
X174625Y841375D02*
X174625Y815975D01*
X98425Y815975D01*
X98425Y841375D01*
G54D10*
X156592Y789703D02*
X156592Y795258D01*
X157258Y796369D01*
X158592Y796925D01*
X159925Y796925D01*
X161258Y796369D01*
X161925Y795258D01*
X161925Y789703D01*
X161258Y788592D01*
X159925Y788036D01*
X158592Y788036D01*
X157258Y788592D01*
X156592Y789703D01*
G54D10*
X154148Y796925D02*
X154148Y788036D01*
G54D10*
X154148Y794147D02*
X148815Y788036D01*
G54D10*
X152148Y792481D02*
X148815Y796925D01*
G54D10*
X146371Y796925D02*
X146371Y788036D01*
G54D10*
X143927Y793036D02*
X138594Y793036D01*
G54D10*
X136150Y788036D02*
X130817Y788036D01*
X131483Y789147D01*
X132817Y790814D01*
X134150Y793036D01*
X134817Y794703D01*
X134817Y796925D01*
G54D10*
X125040Y792481D02*
X126373Y792481D01*
X127706Y791925D01*
X128373Y790814D01*
X128373Y789703D01*
X127706Y788592D01*
X126373Y788036D01*
X125040Y788036D01*
X123706Y788592D01*
X123040Y789703D01*
X123040Y790814D01*
X123706Y791925D01*
X125040Y792481D01*
X123706Y793036D01*
X123040Y794147D01*
X123040Y795258D01*
X123706Y796369D01*
X125040Y796925D01*
X126373Y796925D01*
X127706Y796369D01*
X128373Y795258D01*
X128373Y794147D01*
X127706Y793036D01*
X126373Y792481D01*
G54D10*
X120596Y795258D02*
X119929Y796369D01*
X118596Y796925D01*
X117263Y796925D01*
X115929Y796369D01*
X115263Y795258D01*
X115263Y794147D01*
X115929Y793036D01*
X117263Y792481D01*
X118596Y792481D01*
X119929Y791925D01*
X120596Y790814D01*
X120596Y789703D01*
X119929Y788592D01*
X118596Y788036D01*
X117263Y788036D01*
X115929Y788592D01*
X115263Y789703D01*
G54D10*
X110152Y792481D02*
X108152Y793592D01*
X107486Y794703D01*
X107486Y796925D01*
G54D10*
X112819Y796925D02*
X112819Y788036D01*
X109486Y788036D01*
X108152Y788592D01*
X107486Y789703D01*
X107486Y790814D01*
X108152Y791925D01*
X109486Y792481D01*
X112819Y792481D01*
G54D10*
X156988Y802403D02*
X156988Y807958D01*
X157655Y809069D01*
X158988Y809625D01*
X160322Y809625D01*
X161655Y809069D01*
X162322Y807958D01*
X162322Y802403D01*
X161655Y801292D01*
X160322Y800736D01*
X158988Y800736D01*
X157655Y801292D01*
X156988Y802403D01*
G54D10*
X133858Y805181D02*
X131192Y805181D01*
X131192Y807958D01*
X131858Y809069D01*
X133192Y809625D01*
X134525Y809625D01*
X135858Y809069D01*
X136525Y807958D01*
X136525Y802403D01*
X135858Y801292D01*
X134525Y800736D01*
X133192Y800736D01*
X131858Y801292D01*
X131192Y802403D01*
G54D10*
X111125Y809625D02*
X111125Y800736D01*
G54D11*
X303212Y841375D02*
X198438Y841375D01*
X198438Y676275D01*
X303212Y676275D01*
X303212Y841375D01*
G54D11*
X288925Y841375D02*
X288925Y815975D01*
X212725Y815975D01*
X212725Y841375D01*
G54D10*
X270892Y789703D02*
X270892Y795258D01*
X271558Y796369D01*
X272892Y796925D01*
X274225Y796925D01*
X275558Y796369D01*
X276225Y795258D01*
X276225Y789703D01*
X275558Y788592D01*
X274225Y788036D01*
X272892Y788036D01*
X271558Y788592D01*
X270892Y789703D01*
G54D10*
X268448Y796925D02*
X268448Y788036D01*
G54D10*
X268448Y794147D02*
X263115Y788036D01*
G54D10*
X266448Y792481D02*
X263115Y796925D01*
G54D10*
X260671Y796925D02*
X260671Y788036D01*
G54D10*
X258227Y793036D02*
X252894Y793036D01*
G54D10*
X250450Y788036D02*
X245117Y788036D01*
X245783Y789147D01*
X247117Y790814D01*
X248450Y793036D01*
X249117Y794703D01*
X249117Y796925D01*
G54D10*
X239340Y792481D02*
X240673Y792481D01*
X242006Y791925D01*
X242673Y790814D01*
X242673Y789703D01*
X242006Y788592D01*
X240673Y788036D01*
X239340Y788036D01*
X238006Y788592D01*
X237340Y789703D01*
X237340Y790814D01*
X238006Y791925D01*
X239340Y792481D01*
X238006Y793036D01*
X237340Y794147D01*
X237340Y795258D01*
X238006Y796369D01*
X239340Y796925D01*
X240673Y796925D01*
X242006Y796369D01*
X242673Y795258D01*
X242673Y794147D01*
X242006Y793036D01*
X240673Y792481D01*
G54D10*
X234896Y795258D02*
X234229Y796369D01*
X232896Y796925D01*
X231563Y796925D01*
X230229Y796369D01*
X229563Y795258D01*
X229563Y794147D01*
X230229Y793036D01*
X231563Y792481D01*
X232896Y792481D01*
X234229Y791925D01*
X234896Y790814D01*
X234896Y789703D01*
X234229Y788592D01*
X232896Y788036D01*
X231563Y788036D01*
X230229Y788592D01*
X229563Y789703D01*
G54D10*
X224452Y792481D02*
X222452Y793592D01*
X221786Y794703D01*
X221786Y796925D01*
G54D10*
X227119Y796925D02*
X227119Y788036D01*
X223786Y788036D01*
X222452Y788592D01*
X221786Y789703D01*
X221786Y790814D01*
X222452Y791925D01*
X223786Y792481D01*
X227119Y792481D01*
G54D10*
X271288Y802403D02*
X271288Y807958D01*
X271955Y809069D01*
X273288Y809625D01*
X274622Y809625D01*
X275955Y809069D01*
X276622Y807958D01*
X276622Y802403D01*
X275955Y801292D01*
X274622Y800736D01*
X273288Y800736D01*
X271955Y801292D01*
X271288Y802403D01*
G54D10*
X248158Y805181D02*
X245492Y805181D01*
X245492Y807958D01*
X246158Y809069D01*
X247492Y809625D01*
X248825Y809625D01*
X250158Y809069D01*
X250825Y807958D01*
X250825Y802403D01*
X250158Y801292D01*
X248825Y800736D01*
X247492Y800736D01*
X246158Y801292D01*
X245492Y802403D01*
G54D10*
X225425Y809625D02*
X225425Y800736D01*
G54D11*
X75009Y886619D02*
X148034Y886619D01*
X148034Y853281D01*
X75009Y853281D01*
X75009Y886619D01*
G54D11*
X306983Y862806D02*
X306983Y850305D01*
X175419Y850305D01*
X175419Y862806D01*
G54D11*
X306983Y912019D02*
X306983Y990203D01*
X175419Y990203D01*
X175419Y912019D01*
G54D10*
X272099Y875506D02*
X280988Y878840D01*
X272099Y882173D01*
G54D10*
X279321Y889951D02*
X280432Y889284D01*
X280988Y887951D01*
X280988Y886617D01*
X280432Y885284D01*
X279321Y884617D01*
X273765Y884617D01*
X272654Y885284D01*
X272099Y886617D01*
X272099Y887951D01*
X272654Y889284D01*
X273765Y889951D01*
G54D10*
X279321Y897728D02*
X280432Y897061D01*
X280988Y895728D01*
X280988Y894394D01*
X280432Y893061D01*
X279321Y892394D01*
X273765Y892394D01*
X272654Y893061D01*
X272099Y894394D01*
X272099Y895728D01*
X272654Y897061D01*
X273765Y897728D01*
G54D10*
X255588Y875506D02*
X246699Y875506D01*
X246699Y878840D01*
X247254Y880173D01*
X248365Y880840D01*
X253921Y880840D01*
X255032Y880173D01*
X255588Y878840D01*
X255588Y875506D01*
G54D10*
X251699Y883283D02*
X251699Y888617D01*
G54D10*
X236538Y875506D02*
X227649Y875506D01*
X227649Y878840D01*
X228204Y880173D01*
X229315Y880840D01*
X234871Y880840D01*
X235982Y880173D01*
X236538Y878840D01*
X236538Y875506D01*
G54D10*
X232649Y883283D02*
X232649Y888617D01*
G54D10*
X230426Y885950D02*
X234871Y885950D01*
G54D10*
X206693Y878173D02*
X206693Y880840D01*
X209471Y880840D01*
X210582Y880173D01*
X211138Y878840D01*
X211138Y877506D01*
X210582Y876173D01*
X209471Y875506D01*
X203915Y875506D01*
X202804Y876173D01*
X202249Y877506D01*
X202249Y878840D01*
X202804Y880173D01*
X203915Y880840D01*
G54D10*
X211138Y883283D02*
X202249Y883283D01*
X211138Y888617D01*
X202249Y888617D01*
G54D10*
X211138Y891060D02*
X202249Y891060D01*
X202249Y894394D01*
X202804Y895727D01*
X203915Y896394D01*
X209471Y896394D01*
X210582Y895727D01*
X211138Y894394D01*
X211138Y891060D01*
G54D11*
X149225Y981075D02*
X174625Y981075D01*
X174625Y930275D01*
X149225Y930275D01*
X149225Y981075D01*
G54D10*
X229314Y574675D02*
X229314Y569342D01*
G54D10*
X234314Y561565D02*
X234314Y566898D01*
X230425Y566898D01*
X230425Y566231D01*
X230980Y564898D01*
X230980Y563565D01*
X230425Y562231D01*
X229314Y561565D01*
X227092Y561565D01*
X225980Y562231D01*
X225425Y563565D01*
X225425Y564898D01*
X225980Y566231D01*
X227092Y566898D01*
G54D10*
X234314Y559121D02*
X225425Y555788D01*
X234314Y552454D01*
G54D10*
X229314Y550010D02*
X229314Y544677D01*
G54D10*
X231536Y547343D02*
X227092Y547343D01*
G54D11*
X161925Y530225D02*
X222250Y530225D01*
G54D11*
X161925Y606425D02*
X222250Y606425D01*
X222250Y530225D01*
G54D11*
X161925Y530225D02*
X161925Y606425D01*
G54D11*
X161925Y555625D02*
X168275Y555625D01*
X168275Y581025D01*
X161925Y581025D01*
G54D11*
X9525Y530225D02*
X69850Y530225D01*
G54D11*
X9525Y606425D02*
X69850Y606425D01*
X69850Y530225D01*
G54D11*
X9525Y530225D02*
X9525Y606425D01*
G54D11*
X9525Y555625D02*
X15875Y555625D01*
X15875Y581025D01*
X9525Y581025D01*
G54D10*
X78403Y772792D02*
X78403Y767459D01*
G54D10*
X74514Y759682D02*
X74514Y765015D01*
X75069Y765015D01*
X76180Y764349D01*
X79514Y760349D01*
X80625Y759682D01*
X81736Y759682D01*
X82847Y760349D01*
X83403Y761682D01*
X83403Y763015D01*
X82847Y764349D01*
X81736Y765015D01*
G54D10*
X74514Y753238D02*
X83403Y753238D01*
X77847Y757238D01*
X76736Y757238D01*
X76736Y751905D01*
G54D10*
X83403Y749461D02*
X74514Y746128D01*
X83403Y742795D01*
G54D10*
X78403Y740350D02*
X78403Y735017D01*
G54D10*
X80625Y737684D02*
X76180Y737684D01*
G54D12*
X6375Y938325D02*
X6375Y960325D01*
X44375Y960325D01*
X44375Y938325D01*
X6375Y938325D01*
G54D12*
X6375Y963725D02*
X6375Y985725D01*
X44375Y985725D01*
X44375Y963725D01*
X6375Y963725D01*
G54D12*
X133375Y643050D02*
X133375Y665050D01*
X171375Y665050D01*
X171375Y643050D01*
X133375Y643050D01*
G54D12*
X133375Y617650D02*
X133375Y639650D01*
X171375Y639650D01*
X171375Y617650D01*
X133375Y617650D01*
G54D12*
X85750Y617650D02*
X85750Y639650D01*
X123750Y639650D01*
X123750Y617650D01*
X85750Y617650D01*
G54D12*
X85750Y643050D02*
X85750Y665050D01*
X123750Y665050D01*
X123750Y643050D01*
X85750Y643050D01*
G54D11*
X180975Y663575D02*
X231775Y663575D01*
X231775Y638175D01*
X180975Y638175D01*
X180975Y663575D01*
G54D12*
X306475Y838150D02*
X328475Y838150D01*
X328475Y800150D01*
X306475Y800150D01*
X306475Y838150D01*
G54D10*
X224408Y672464D02*
X219075Y672464D01*
X219075Y668575D01*
X219742Y668575D01*
X221075Y669131D01*
X222408Y669131D01*
X223742Y668575D01*
X224408Y667464D01*
X224408Y665242D01*
X223742Y664131D01*
X222408Y663575D01*
X221075Y663575D01*
X219742Y664131D01*
X219075Y665242D01*
G54D10*
X226852Y668575D02*
X229519Y663575D01*
X232185Y668575D01*
G54D10*
X189992Y668019D02*
X192658Y668019D01*
X192658Y665242D01*
X191992Y664131D01*
X190658Y663575D01*
X189325Y663575D01*
X187992Y664131D01*
X187325Y665242D01*
X187325Y670797D01*
X187992Y671908D01*
X189325Y672464D01*
X190658Y672464D01*
X191992Y671908D01*
X192658Y670797D01*
G54D10*
X195102Y663575D02*
X195102Y672464D01*
X200435Y663575D01*
X200435Y672464D01*
G54D10*
X202879Y663575D02*
X202879Y672464D01*
X206212Y672464D01*
X207546Y671908D01*
X208212Y670797D01*
X208212Y665242D01*
X207546Y664131D01*
X206212Y663575D01*
X202879Y663575D01*
G54D10*
X164464Y927100D02*
X155575Y923767D01*
X164464Y920433D01*
G54D10*
X160020Y987933D02*
X160020Y985267D01*
X157242Y985267D01*
X156130Y985933D01*
X155575Y987267D01*
X155575Y988600D01*
X156130Y989933D01*
X157242Y990600D01*
X162797Y990600D01*
X163908Y989933D01*
X164464Y988600D01*
X164464Y987267D01*
X163908Y985933D01*
X162797Y985267D01*
G54D11*
X85725Y530225D02*
X146050Y530225D01*
G54D11*
X85725Y606425D02*
X146050Y606425D01*
X146050Y530225D01*
G54D11*
X85725Y530225D02*
X85725Y606425D01*
G54D11*
X85725Y555625D02*
X92075Y555625D01*
X92075Y581025D01*
X85725Y581025D01*
G54D10*
X153114Y587375D02*
X153114Y582042D01*
G54D10*
X158114Y574265D02*
X158114Y579598D01*
X154225Y579598D01*
X154225Y578931D01*
X154780Y577598D01*
X154780Y576265D01*
X154225Y574931D01*
X153114Y574265D01*
X150892Y574265D01*
X149780Y574931D01*
X149225Y576265D01*
X149225Y577598D01*
X149780Y578931D01*
X150892Y579598D01*
G54D10*
X158114Y571821D02*
X149225Y568488D01*
X158114Y565154D01*
G54D10*
X153114Y562710D02*
X153114Y557377D01*
G54D10*
X155336Y560043D02*
X150892Y560043D01*
G54D11*
X234435Y541736D02*
X317779Y541736D01*
X317779Y625080D01*
X234435Y625080D01*
X234435Y541736D01*
G54D11*
G75*
G01X236107Y583408D02*
G03X236107Y583408I40000J0D01*
G01*
G54D10*
X256263Y564834D02*
X250930Y564834D01*
G54D10*
X253882Y603728D02*
X248549Y603728D01*
G54D10*
X251215Y601506D02*
X251215Y605950D01*
G54D12*
X190525Y611300D02*
X190525Y633300D01*
X228525Y633300D01*
X228525Y611300D01*
X190525Y611300D01*
G54D11*
X47030Y884436D02*
X3770Y884436D01*
X3770Y927695D01*
X47030Y927695D01*
X47030Y884436D01*
G54D11*
G75*
G01X5430Y906283D02*
G03X5430Y906283I20000J0D01*
G01*
G54D10*
X18455Y896422D02*
X13121Y896422D01*
G54D10*
X15788Y894200D02*
X15788Y898644D01*
G54D10*
X18058Y916663D02*
X12724Y916663D01*
G54D11*
X263525Y663575D02*
X314325Y663575D01*
X314325Y638175D01*
X263525Y638175D01*
X263525Y663575D01*
G54D10*
X294767Y668019D02*
X297433Y668019D01*
X297433Y665242D01*
X296767Y664131D01*
X295433Y663575D01*
X294100Y663575D01*
X292767Y664131D01*
X292100Y665242D01*
X292100Y670797D01*
X292767Y671908D01*
X294100Y672464D01*
X295433Y672464D01*
X296767Y671908D01*
X297433Y670797D01*
G54D10*
X299877Y663575D02*
X299877Y672464D01*
X305210Y663575D01*
X305210Y672464D01*
G54D10*
X307654Y663575D02*
X307654Y672464D01*
X310987Y672464D01*
X312321Y671908D01*
X312987Y670797D01*
X312987Y665242D01*
X312321Y664131D01*
X310987Y663575D01*
X307654Y663575D01*
G54D10*
X272033Y672464D02*
X266700Y672464D01*
X266700Y668575D01*
X267367Y668575D01*
X268700Y669131D01*
X270033Y669131D01*
X271367Y668575D01*
X272033Y667464D01*
X272033Y665242D01*
X271367Y664131D01*
X270033Y663575D01*
X268700Y663575D01*
X267367Y664131D01*
X266700Y665242D01*
G54D10*
X274477Y668575D02*
X277144Y663575D01*
X279810Y668575D01*
G54D10*
X408603Y848992D02*
X408603Y843659D01*
G54D10*
X404714Y835882D02*
X404714Y841215D01*
X405269Y841215D01*
X406380Y840548D01*
X409714Y836548D01*
X410825Y835882D01*
X411936Y835882D01*
X413047Y836548D01*
X413603Y837882D01*
X413603Y839215D01*
X413047Y840548D01*
X411936Y841215D01*
G54D10*
X404714Y829438D02*
X413603Y829438D01*
X408047Y833438D01*
X406936Y833438D01*
X406936Y828105D01*
G54D10*
X413603Y825661D02*
X404714Y822328D01*
X413603Y818994D01*
G54D10*
X408603Y816550D02*
X408603Y811217D01*
G54D10*
X410825Y813884D02*
X406380Y813884D01*
G54D10*
X407114Y682625D02*
X407114Y677292D01*
G54D10*
X408780Y674848D02*
X412114Y671515D01*
X403225Y671515D01*
G54D10*
X403225Y663738D02*
X403225Y669071D01*
X403780Y669071D01*
X404892Y668404D01*
X408225Y664404D01*
X409336Y663738D01*
X410447Y663738D01*
X411558Y664404D01*
X412114Y665738D01*
X412114Y667071D01*
X411558Y668404D01*
X410447Y669071D01*
G54D10*
X412114Y661294D02*
X403225Y657961D01*
X412114Y654627D01*
G54D10*
X407114Y652183D02*
X407114Y646850D01*
G54D10*
X409336Y649516D02*
X404892Y649516D01*
G54D10*
X406219Y588322D02*
X406219Y582989D01*
G54D10*
X407885Y580545D02*
X411219Y577212D01*
X402330Y577212D01*
G54D10*
X402330Y569435D02*
X402330Y574768D01*
X402885Y574768D01*
X403996Y574102D01*
X407330Y570102D01*
X408441Y569435D01*
X409552Y569435D01*
X410663Y570102D01*
X411219Y571435D01*
X411219Y572768D01*
X410663Y574102D01*
X409552Y574768D01*
G54D10*
X411219Y566991D02*
X402330Y563658D01*
X411219Y560325D01*
G54D10*
X406219Y557880D02*
X406219Y552547D01*
G54D10*
X408441Y555214D02*
X403996Y555214D01*
G54D11*
X479425Y930275D02*
X479425Y981075D01*
X377825Y981075D01*
X377825Y930275D01*
G54D11*
X479425Y930275D02*
X479425Y892175D01*
X377825Y892175D01*
X377825Y930275D01*
G54D11*
X466725Y981075D02*
X466725Y968375D01*
X441325Y968375D01*
X441325Y981075D01*
G54D11*
X415925Y981075D02*
X415925Y968375D01*
X390525Y968375D01*
X390525Y981075D01*
G54D11*
X339725Y796925D02*
X400050Y796925D01*
G54D11*
X339725Y873125D02*
X400050Y873125D01*
X400050Y796925D01*
G54D11*
X339725Y796925D02*
X339725Y873125D01*
G54D11*
X339725Y822325D02*
X346075Y822325D01*
X346075Y847725D01*
X339725Y847725D01*
G54D11*
X339725Y708025D02*
X400050Y708025D01*
G54D11*
X339725Y784225D02*
X400050Y784225D01*
X400050Y708025D01*
G54D11*
X339725Y708025D02*
X339725Y784225D01*
G54D11*
X339725Y733425D02*
X346075Y733425D01*
X346075Y758825D01*
X339725Y758825D01*
G54D11*
X339725Y619125D02*
X400050Y619125D01*
G54D11*
X339725Y695325D02*
X400050Y695325D01*
X400050Y619125D01*
G54D11*
X339725Y619125D02*
X339725Y695325D01*
G54D11*
X339725Y644525D02*
X346075Y644525D01*
X346075Y669925D01*
X339725Y669925D01*
G54D11*
X519112Y841375D02*
X414338Y841375D01*
X414338Y676275D01*
X519112Y676275D01*
X519112Y841375D01*
G54D11*
X504825Y841375D02*
X504825Y815975D01*
X428625Y815975D01*
X428625Y841375D01*
G54D10*
X486792Y789703D02*
X486792Y795258D01*
X487458Y796369D01*
X488792Y796925D01*
X490125Y796925D01*
X491458Y796369D01*
X492125Y795258D01*
X492125Y789703D01*
X491458Y788592D01*
X490125Y788036D01*
X488792Y788036D01*
X487458Y788592D01*
X486792Y789703D01*
G54D10*
X484348Y796925D02*
X484348Y788036D01*
G54D10*
X484348Y794147D02*
X479015Y788036D01*
G54D10*
X482348Y792481D02*
X479015Y796925D01*
G54D10*
X476571Y796925D02*
X476571Y788036D01*
G54D10*
X474127Y793036D02*
X468794Y793036D01*
G54D10*
X466350Y788036D02*
X461017Y788036D01*
X461683Y789147D01*
X463017Y790814D01*
X464350Y793036D01*
X465017Y794703D01*
X465017Y796925D01*
G54D10*
X455240Y792481D02*
X456573Y792481D01*
X457906Y791925D01*
X458573Y790814D01*
X458573Y789703D01*
X457906Y788592D01*
X456573Y788036D01*
X455240Y788036D01*
X453906Y788592D01*
X453240Y789703D01*
X453240Y790814D01*
X453906Y791925D01*
X455240Y792481D01*
X453906Y793036D01*
X453240Y794147D01*
X453240Y795258D01*
X453906Y796369D01*
X455240Y796925D01*
X456573Y796925D01*
X457906Y796369D01*
X458573Y795258D01*
X458573Y794147D01*
X457906Y793036D01*
X456573Y792481D01*
G54D10*
X450796Y795258D02*
X450129Y796369D01*
X448796Y796925D01*
X447463Y796925D01*
X446129Y796369D01*
X445463Y795258D01*
X445463Y794147D01*
X446129Y793036D01*
X447463Y792481D01*
X448796Y792481D01*
X450129Y791925D01*
X450796Y790814D01*
X450796Y789703D01*
X450129Y788592D01*
X448796Y788036D01*
X447463Y788036D01*
X446129Y788592D01*
X445463Y789703D01*
G54D10*
X440352Y792481D02*
X438352Y793592D01*
X437686Y794703D01*
X437686Y796925D01*
G54D10*
X443019Y796925D02*
X443019Y788036D01*
X439686Y788036D01*
X438352Y788592D01*
X437686Y789703D01*
X437686Y790814D01*
X438352Y791925D01*
X439686Y792481D01*
X443019Y792481D01*
G54D10*
X487188Y802403D02*
X487188Y807958D01*
X487855Y809069D01*
X489188Y809625D01*
X490522Y809625D01*
X491855Y809069D01*
X492522Y807958D01*
X492522Y802403D01*
X491855Y801292D01*
X490522Y800736D01*
X489188Y800736D01*
X487855Y801292D01*
X487188Y802403D01*
G54D10*
X464058Y805181D02*
X461392Y805181D01*
X461392Y807958D01*
X462058Y809069D01*
X463392Y809625D01*
X464725Y809625D01*
X466058Y809069D01*
X466725Y807958D01*
X466725Y802403D01*
X466058Y801292D01*
X464725Y800736D01*
X463392Y800736D01*
X462058Y801292D01*
X461392Y802403D01*
G54D10*
X441325Y809625D02*
X441325Y800736D01*
G54D11*
X633412Y841375D02*
X528638Y841375D01*
X528638Y676275D01*
X633412Y676275D01*
X633412Y841375D01*
G54D11*
X619125Y841375D02*
X619125Y815975D01*
X542925Y815975D01*
X542925Y841375D01*
G54D10*
X601092Y789703D02*
X601092Y795258D01*
X601758Y796369D01*
X603092Y796925D01*
X604425Y796925D01*
X605758Y796369D01*
X606425Y795258D01*
X606425Y789703D01*
X605758Y788592D01*
X604425Y788036D01*
X603092Y788036D01*
X601758Y788592D01*
X601092Y789703D01*
G54D10*
X598648Y796925D02*
X598648Y788036D01*
G54D10*
X598648Y794147D02*
X593315Y788036D01*
G54D10*
X596648Y792481D02*
X593315Y796925D01*
G54D10*
X590871Y796925D02*
X590871Y788036D01*
G54D10*
X588427Y793036D02*
X583094Y793036D01*
G54D10*
X580650Y788036D02*
X575317Y788036D01*
X575983Y789147D01*
X577317Y790814D01*
X578650Y793036D01*
X579317Y794703D01*
X579317Y796925D01*
G54D10*
X569540Y792481D02*
X570873Y792481D01*
X572206Y791925D01*
X572873Y790814D01*
X572873Y789703D01*
X572206Y788592D01*
X570873Y788036D01*
X569540Y788036D01*
X568206Y788592D01*
X567540Y789703D01*
X567540Y790814D01*
X568206Y791925D01*
X569540Y792481D01*
X568206Y793036D01*
X567540Y794147D01*
X567540Y795258D01*
X568206Y796369D01*
X569540Y796925D01*
X570873Y796925D01*
X572206Y796369D01*
X572873Y795258D01*
X572873Y794147D01*
X572206Y793036D01*
X570873Y792481D01*
G54D10*
X565096Y795258D02*
X564429Y796369D01*
X563096Y796925D01*
X561763Y796925D01*
X560429Y796369D01*
X559763Y795258D01*
X559763Y794147D01*
X560429Y793036D01*
X561763Y792481D01*
X563096Y792481D01*
X564429Y791925D01*
X565096Y790814D01*
X565096Y789703D01*
X564429Y788592D01*
X563096Y788036D01*
X561763Y788036D01*
X560429Y788592D01*
X559763Y789703D01*
G54D10*
X554652Y792481D02*
X552652Y793592D01*
X551986Y794703D01*
X551986Y796925D01*
G54D10*
X557319Y796925D02*
X557319Y788036D01*
X553986Y788036D01*
X552652Y788592D01*
X551986Y789703D01*
X551986Y790814D01*
X552652Y791925D01*
X553986Y792481D01*
X557319Y792481D01*
G54D10*
X601488Y802403D02*
X601488Y807958D01*
X602155Y809069D01*
X603488Y809625D01*
X604822Y809625D01*
X606155Y809069D01*
X606822Y807958D01*
X606822Y802403D01*
X606155Y801292D01*
X604822Y800736D01*
X603488Y800736D01*
X602155Y801292D01*
X601488Y802403D01*
G54D10*
X578358Y805181D02*
X575692Y805181D01*
X575692Y807958D01*
X576358Y809069D01*
X577692Y809625D01*
X579025Y809625D01*
X580358Y809069D01*
X581025Y807958D01*
X581025Y802403D01*
X580358Y801292D01*
X579025Y800736D01*
X577692Y800736D01*
X576358Y801292D01*
X575692Y802403D01*
G54D10*
X555625Y809625D02*
X555625Y800736D01*
G54D11*
X405209Y886619D02*
X478234Y886619D01*
X478234Y853281D01*
X405209Y853281D01*
X405209Y886619D01*
G54D11*
X637183Y862806D02*
X637183Y850305D01*
X505619Y850305D01*
X505619Y862806D01*
G54D11*
X637183Y912019D02*
X637183Y990203D01*
X505619Y990203D01*
X505619Y912019D01*
G54D10*
X602299Y875506D02*
X611188Y878840D01*
X602299Y882173D01*
G54D10*
X609521Y889950D02*
X610632Y889284D01*
X611188Y887950D01*
X611188Y886617D01*
X610632Y885284D01*
X609521Y884617D01*
X603965Y884617D01*
X602854Y885284D01*
X602299Y886617D01*
X602299Y887950D01*
X602854Y889284D01*
X603965Y889950D01*
G54D10*
X609521Y897728D02*
X610632Y897061D01*
X611188Y895728D01*
X611188Y894394D01*
X610632Y893061D01*
X609521Y892394D01*
X603965Y892394D01*
X602854Y893061D01*
X602299Y894394D01*
X602299Y895728D01*
X602854Y897061D01*
X603965Y897728D01*
G54D10*
X585788Y875506D02*
X576899Y875506D01*
X576899Y878840D01*
X577454Y880173D01*
X578565Y880840D01*
X584121Y880840D01*
X585232Y880173D01*
X585788Y878840D01*
X585788Y875506D01*
G54D10*
X581899Y883283D02*
X581899Y888616D01*
G54D10*
X566738Y875506D02*
X557849Y875506D01*
X557849Y878840D01*
X558404Y880173D01*
X559515Y880840D01*
X565071Y880840D01*
X566182Y880173D01*
X566738Y878840D01*
X566738Y875506D01*
G54D10*
X562849Y883283D02*
X562849Y888616D01*
G54D10*
X560626Y885950D02*
X565071Y885950D01*
G54D10*
X536893Y878173D02*
X536893Y880840D01*
X539671Y880840D01*
X540782Y880173D01*
X541338Y878840D01*
X541338Y877506D01*
X540782Y876173D01*
X539671Y875506D01*
X534115Y875506D01*
X533004Y876173D01*
X532449Y877506D01*
X532449Y878840D01*
X533004Y880173D01*
X534115Y880840D01*
G54D10*
X541338Y883283D02*
X532449Y883283D01*
X541338Y888616D01*
X532449Y888617D01*
G54D10*
X541338Y891060D02*
X532449Y891060D01*
X532449Y894394D01*
X533004Y895727D01*
X534115Y896394D01*
X539671Y896394D01*
X540782Y895727D01*
X541338Y894394D01*
X541338Y891060D01*
G54D11*
X479425Y981075D02*
X504825Y981075D01*
X504825Y930275D01*
X479425Y930275D01*
X479425Y981075D01*
G54D10*
X559514Y574675D02*
X559514Y569342D01*
G54D10*
X564514Y561565D02*
X564514Y566898D01*
X560625Y566898D01*
X560625Y566231D01*
X561180Y564898D01*
X561180Y563565D01*
X560625Y562231D01*
X559514Y561565D01*
X557292Y561565D01*
X556180Y562231D01*
X555625Y563565D01*
X555625Y564898D01*
X556180Y566231D01*
X557292Y566898D01*
G54D10*
X564514Y559121D02*
X555625Y555788D01*
X564514Y552454D01*
G54D10*
X559514Y550010D02*
X559514Y544677D01*
G54D10*
X561736Y547343D02*
X557292Y547343D01*
G54D11*
X492125Y530225D02*
X552450Y530225D01*
G54D11*
X492125Y606425D02*
X552450Y606425D01*
X552450Y530225D01*
G54D11*
X492125Y530225D02*
X492125Y606425D01*
G54D11*
X492125Y555625D02*
X498475Y555625D01*
X498475Y581025D01*
X492125Y581025D01*
G54D11*
X339725Y530225D02*
X400050Y530225D01*
G54D11*
X339725Y606425D02*
X400050Y606425D01*
X400050Y530225D01*
G54D11*
X339725Y530225D02*
X339725Y606425D01*
G54D11*
X339725Y555625D02*
X346075Y555625D01*
X346075Y581025D01*
X339725Y581025D01*
G54D10*
X408603Y772792D02*
X408603Y767459D01*
G54D10*
X404714Y759682D02*
X404714Y765015D01*
X405269Y765015D01*
X406380Y764348D01*
X409714Y760348D01*
X410825Y759682D01*
X411936Y759682D01*
X413047Y760348D01*
X413603Y761682D01*
X413603Y763015D01*
X413047Y764348D01*
X411936Y765015D01*
G54D10*
X404714Y753238D02*
X413603Y753238D01*
X408047Y757238D01*
X406936Y757238D01*
X406936Y751905D01*
G54D10*
X413603Y749461D02*
X404714Y746128D01*
X413603Y742794D01*
G54D10*
X408603Y740350D02*
X408603Y735017D01*
G54D10*
X410825Y737684D02*
X406380Y737684D01*
G54D12*
X336575Y938325D02*
X336575Y960325D01*
X374575Y960325D01*
X374575Y938325D01*
X336575Y938325D01*
G54D12*
X336575Y963725D02*
X336575Y985725D01*
X374575Y985725D01*
X374575Y963725D01*
X336575Y963725D01*
G54D12*
X463575Y643050D02*
X463575Y665050D01*
X501575Y665050D01*
X501575Y643050D01*
X463575Y643050D01*
G54D12*
X463575Y617650D02*
X463575Y639650D01*
X501575Y639650D01*
X501575Y617650D01*
X463575Y617650D01*
G54D12*
X415950Y617650D02*
X415950Y639650D01*
X453950Y639650D01*
X453950Y617650D01*
X415950Y617650D01*
G54D12*
X415950Y643050D02*
X415950Y665050D01*
X453950Y665050D01*
X453950Y643050D01*
X415950Y643050D01*
G54D11*
X511175Y663575D02*
X561975Y663575D01*
X561975Y638175D01*
X511175Y638175D01*
X511175Y663575D01*
G54D12*
X636675Y838150D02*
X658675Y838150D01*
X658675Y800150D01*
X636675Y800150D01*
X636675Y838150D01*
G54D10*
X554608Y672464D02*
X549275Y672464D01*
X549275Y668575D01*
X549942Y668575D01*
X551275Y669131D01*
X552608Y669131D01*
X553942Y668575D01*
X554608Y667464D01*
X554608Y665242D01*
X553942Y664131D01*
X552608Y663575D01*
X551275Y663575D01*
X549942Y664131D01*
X549275Y665242D01*
G54D10*
X557052Y668575D02*
X559719Y663575D01*
X562385Y668575D01*
G54D10*
X520192Y668019D02*
X522858Y668019D01*
X522858Y665242D01*
X522192Y664131D01*
X520858Y663575D01*
X519525Y663575D01*
X518192Y664131D01*
X517525Y665242D01*
X517525Y670797D01*
X518192Y671908D01*
X519525Y672464D01*
X520858Y672464D01*
X522192Y671908D01*
X522858Y670797D01*
G54D10*
X525302Y663575D02*
X525302Y672464D01*
X530635Y663575D01*
X530635Y672464D01*
G54D10*
X533079Y663575D02*
X533079Y672464D01*
X536412Y672464D01*
X537746Y671908D01*
X538412Y670797D01*
X538412Y665242D01*
X537746Y664131D01*
X536412Y663575D01*
X533079Y663575D01*
G54D10*
X494664Y927100D02*
X485775Y923767D01*
X494664Y920433D01*
G54D10*
X490220Y987933D02*
X490220Y985267D01*
X487442Y985267D01*
X486330Y985933D01*
X485775Y987267D01*
X485775Y988600D01*
X486330Y989933D01*
X487442Y990600D01*
X492997Y990600D01*
X494108Y989933D01*
X494664Y988600D01*
X494664Y987267D01*
X494108Y985933D01*
X492997Y985267D01*
G54D11*
X415925Y530225D02*
X476250Y530225D01*
G54D11*
X415925Y606425D02*
X476250Y606425D01*
X476250Y530225D01*
G54D11*
X415925Y530225D02*
X415925Y606425D01*
G54D11*
X415925Y555625D02*
X422275Y555625D01*
X422275Y581025D01*
X415925Y581025D01*
G54D10*
X483314Y587375D02*
X483314Y582042D01*
G54D10*
X488314Y574265D02*
X488314Y579598D01*
X484425Y579598D01*
X484425Y578931D01*
X484980Y577598D01*
X484980Y576265D01*
X484425Y574931D01*
X483314Y574265D01*
X481092Y574265D01*
X479980Y574931D01*
X479425Y576265D01*
X479425Y577598D01*
X479980Y578931D01*
X481092Y579598D01*
G54D10*
X488314Y571821D02*
X479425Y568488D01*
X488314Y565154D01*
G54D10*
X483314Y562710D02*
X483314Y557377D01*
G54D10*
X485536Y560043D02*
X481092Y560043D01*
G54D11*
X564635Y541736D02*
X647979Y541736D01*
X647979Y625080D01*
X564635Y625080D01*
X564635Y541736D01*
G54D11*
G75*
G01X566307Y583408D02*
G03X566307Y583408I40000J0D01*
G01*
G54D10*
X586463Y564834D02*
X581130Y564834D01*
G54D10*
X584082Y603728D02*
X578749Y603728D01*
G54D10*
X581415Y601506D02*
X581415Y605950D01*
G54D12*
X520725Y611300D02*
X520725Y633300D01*
X558725Y633300D01*
X558725Y611300D01*
X520725Y611300D01*
G54D11*
X377230Y884436D02*
X333970Y884436D01*
X333970Y927695D01*
X377230Y927695D01*
X377230Y884436D01*
G54D11*
G75*
G01X335630Y906283D02*
G03X335630Y906283I20000J0D01*
G01*
G54D10*
X348655Y896422D02*
X343321Y896422D01*
G54D10*
X345988Y894200D02*
X345988Y898644D01*
G54D10*
X348258Y916663D02*
X342924Y916663D01*
G54D11*
X593725Y663575D02*
X644525Y663575D01*
X644525Y638175D01*
X593725Y638175D01*
X593725Y663575D01*
G54D10*
X624967Y668019D02*
X627633Y668019D01*
X627633Y665242D01*
X626967Y664131D01*
X625633Y663575D01*
X624300Y663575D01*
X622967Y664131D01*
X622300Y665242D01*
X622300Y670797D01*
X622967Y671908D01*
X624300Y672464D01*
X625633Y672464D01*
X626967Y671908D01*
X627633Y670797D01*
G54D10*
X630077Y663575D02*
X630077Y672464D01*
X635410Y663575D01*
X635410Y672464D01*
G54D10*
X637854Y663575D02*
X637854Y672464D01*
X641187Y672464D01*
X642521Y671908D01*
X643187Y670797D01*
X643187Y665242D01*
X642521Y664131D01*
X641187Y663575D01*
X637854Y663575D01*
G54D10*
X602233Y672464D02*
X596900Y672464D01*
X596900Y668575D01*
X597567Y668575D01*
X598900Y669131D01*
X600233Y669131D01*
X601567Y668575D01*
X602233Y667464D01*
X602233Y665242D01*
X601567Y664131D01*
X600233Y663575D01*
X598900Y663575D01*
X597567Y664131D01*
X596900Y665242D01*
G54D10*
X604677Y668575D02*
X607344Y663575D01*
X610010Y668575D01*
G54D10*
X738803Y848992D02*
X738803Y843659D01*
G54D10*
X734914Y835882D02*
X734914Y841215D01*
X735469Y841215D01*
X736580Y840548D01*
X739914Y836548D01*
X741025Y835882D01*
X742136Y835882D01*
X743247Y836548D01*
X743803Y837882D01*
X743803Y839215D01*
X743247Y840548D01*
X742136Y841215D01*
G54D10*
X734914Y829438D02*
X743803Y829438D01*
X738247Y833438D01*
X737136Y833438D01*
X737136Y828105D01*
G54D10*
X743803Y825661D02*
X734914Y822328D01*
X743803Y818994D01*
G54D10*
X738803Y816550D02*
X738803Y811217D01*
G54D10*
X741025Y813884D02*
X736580Y813884D01*
G54D10*
X737314Y682625D02*
X737314Y677292D01*
G54D10*
X738980Y674848D02*
X742314Y671515D01*
X733425Y671515D01*
G54D10*
X733425Y663738D02*
X733425Y669071D01*
X733980Y669071D01*
X735092Y668404D01*
X738425Y664404D01*
X739536Y663738D01*
X740647Y663738D01*
X741758Y664404D01*
X742314Y665738D01*
X742314Y667071D01*
X741758Y668404D01*
X740647Y669071D01*
G54D10*
X742314Y661294D02*
X733425Y657961D01*
X742314Y654627D01*
G54D10*
X737314Y652183D02*
X737314Y646850D01*
G54D10*
X739536Y649516D02*
X735092Y649516D01*
G54D10*
X736419Y588322D02*
X736419Y582989D01*
G54D10*
X738085Y580545D02*
X741419Y577212D01*
X732530Y577212D01*
G54D10*
X732530Y569435D02*
X732530Y574768D01*
X733085Y574768D01*
X734196Y574102D01*
X737530Y570102D01*
X738641Y569435D01*
X739752Y569435D01*
X740863Y570102D01*
X741419Y571435D01*
X741419Y572768D01*
X740863Y574102D01*
X739752Y574768D01*
G54D10*
X741419Y566991D02*
X732530Y563658D01*
X741419Y560325D01*
G54D10*
X736419Y557880D02*
X736419Y552547D01*
G54D10*
X738641Y555214D02*
X734196Y555214D01*
G54D11*
X809625Y930275D02*
X809625Y981075D01*
X708025Y981075D01*
X708025Y930275D01*
G54D11*
X809625Y930275D02*
X809625Y892175D01*
X708025Y892175D01*
X708025Y930275D01*
G54D11*
X796925Y981075D02*
X796925Y968375D01*
X771525Y968375D01*
X771525Y981075D01*
G54D11*
X746125Y981075D02*
X746125Y968375D01*
X720725Y968375D01*
X720725Y981075D01*
G54D11*
X669925Y796925D02*
X730250Y796925D01*
G54D11*
X669925Y873125D02*
X730250Y873125D01*
X730250Y796925D01*
G54D11*
X669925Y796925D02*
X669925Y873125D01*
G54D11*
X669925Y822325D02*
X676275Y822325D01*
X676275Y847725D01*
X669925Y847725D01*
G54D11*
X669925Y708025D02*
X730250Y708025D01*
G54D11*
X669925Y784225D02*
X730250Y784225D01*
X730250Y708025D01*
G54D11*
X669925Y708025D02*
X669925Y784225D01*
G54D11*
X669925Y733425D02*
X676275Y733425D01*
X676275Y758825D01*
X669925Y758825D01*
G54D11*
X669925Y619125D02*
X730250Y619125D01*
G54D11*
X669925Y695325D02*
X730250Y695325D01*
X730250Y619125D01*
G54D11*
X669925Y619125D02*
X669925Y695325D01*
G54D11*
X669925Y644525D02*
X676275Y644525D01*
X676275Y669925D01*
X669925Y669925D01*
G54D11*
X849312Y841375D02*
X744538Y841375D01*
X744538Y676275D01*
X849312Y676275D01*
X849312Y841375D01*
G54D11*
X835025Y841375D02*
X835025Y815975D01*
X758825Y815975D01*
X758825Y841375D01*
G54D10*
X816992Y789703D02*
X816992Y795258D01*
X817658Y796369D01*
X818992Y796925D01*
X820325Y796925D01*
X821658Y796369D01*
X822325Y795258D01*
X822325Y789703D01*
X821658Y788592D01*
X820325Y788036D01*
X818992Y788036D01*
X817658Y788592D01*
X816992Y789703D01*
G54D10*
X814548Y796925D02*
X814548Y788036D01*
G54D10*
X814548Y794147D02*
X809215Y788036D01*
G54D10*
X812548Y792481D02*
X809215Y796925D01*
G54D10*
X806771Y796925D02*
X806771Y788036D01*
G54D10*
X804327Y793036D02*
X798994Y793036D01*
G54D10*
X796550Y788036D02*
X791217Y788036D01*
X791883Y789147D01*
X793217Y790814D01*
X794550Y793036D01*
X795217Y794703D01*
X795217Y796925D01*
G54D10*
X785440Y792481D02*
X786773Y792481D01*
X788106Y791925D01*
X788773Y790814D01*
X788773Y789703D01*
X788106Y788592D01*
X786773Y788036D01*
X785440Y788036D01*
X784106Y788592D01*
X783440Y789703D01*
X783440Y790814D01*
X784106Y791925D01*
X785440Y792481D01*
X784106Y793036D01*
X783440Y794147D01*
X783440Y795258D01*
X784106Y796369D01*
X785440Y796925D01*
X786773Y796925D01*
X788106Y796369D01*
X788773Y795258D01*
X788773Y794147D01*
X788106Y793036D01*
X786773Y792481D01*
G54D10*
X780996Y795258D02*
X780329Y796369D01*
X778996Y796925D01*
X777663Y796925D01*
X776329Y796369D01*
X775663Y795258D01*
X775663Y794147D01*
X776329Y793036D01*
X777663Y792481D01*
X778996Y792481D01*
X780329Y791925D01*
X780996Y790814D01*
X780996Y789703D01*
X780329Y788592D01*
X778996Y788036D01*
X777663Y788036D01*
X776329Y788592D01*
X775663Y789703D01*
G54D10*
X770552Y792481D02*
X768552Y793592D01*
X767886Y794703D01*
X767886Y796925D01*
G54D10*
X773219Y796925D02*
X773219Y788036D01*
X769886Y788036D01*
X768552Y788592D01*
X767886Y789703D01*
X767886Y790814D01*
X768552Y791925D01*
X769886Y792481D01*
X773219Y792481D01*
G54D10*
X817388Y802403D02*
X817388Y807958D01*
X818055Y809069D01*
X819388Y809625D01*
X820722Y809625D01*
X822055Y809069D01*
X822722Y807958D01*
X822722Y802403D01*
X822055Y801292D01*
X820722Y800736D01*
X819388Y800736D01*
X818055Y801292D01*
X817388Y802403D01*
G54D10*
X794258Y805181D02*
X791592Y805181D01*
X791592Y807958D01*
X792258Y809069D01*
X793592Y809625D01*
X794925Y809625D01*
X796258Y809069D01*
X796925Y807958D01*
X796925Y802403D01*
X796258Y801292D01*
X794925Y800736D01*
X793592Y800736D01*
X792258Y801292D01*
X791592Y802403D01*
G54D10*
X771525Y809625D02*
X771525Y800736D01*
G54D11*
X963612Y841375D02*
X858838Y841375D01*
X858838Y676275D01*
X963612Y676275D01*
X963612Y841375D01*
G54D11*
X949325Y841375D02*
X949325Y815975D01*
X873125Y815975D01*
X873125Y841375D01*
G54D10*
X931292Y789703D02*
X931292Y795258D01*
X931958Y796369D01*
X933292Y796925D01*
X934625Y796925D01*
X935958Y796369D01*
X936625Y795258D01*
X936625Y789703D01*
X935958Y788592D01*
X934625Y788036D01*
X933292Y788036D01*
X931958Y788592D01*
X931292Y789703D01*
G54D10*
X928848Y796925D02*
X928848Y788036D01*
G54D10*
X928848Y794147D02*
X923515Y788036D01*
G54D10*
X926848Y792481D02*
X923515Y796925D01*
G54D10*
X921071Y796925D02*
X921071Y788036D01*
G54D10*
X918627Y793036D02*
X913294Y793036D01*
G54D10*
X910850Y788036D02*
X905517Y788036D01*
X906183Y789147D01*
X907517Y790814D01*
X908850Y793036D01*
X909517Y794703D01*
X909517Y796925D01*
G54D10*
X899740Y792481D02*
X901073Y792481D01*
X902406Y791925D01*
X903073Y790814D01*
X903073Y789703D01*
X902406Y788592D01*
X901073Y788036D01*
X899740Y788036D01*
X898406Y788592D01*
X897740Y789703D01*
X897740Y790814D01*
X898406Y791925D01*
X899740Y792481D01*
X898406Y793036D01*
X897740Y794147D01*
X897740Y795258D01*
X898406Y796369D01*
X899740Y796925D01*
X901073Y796925D01*
X902406Y796369D01*
X903073Y795258D01*
X903073Y794147D01*
X902406Y793036D01*
X901073Y792481D01*
G54D10*
X895296Y795258D02*
X894629Y796369D01*
X893296Y796925D01*
X891963Y796925D01*
X890629Y796369D01*
X889963Y795258D01*
X889963Y794147D01*
X890629Y793036D01*
X891963Y792481D01*
X893296Y792481D01*
X894629Y791925D01*
X895296Y790814D01*
X895296Y789703D01*
X894629Y788592D01*
X893296Y788036D01*
X891963Y788036D01*
X890629Y788592D01*
X889963Y789703D01*
G54D10*
X884852Y792481D02*
X882852Y793592D01*
X882186Y794703D01*
X882186Y796925D01*
G54D10*
X887519Y796925D02*
X887519Y788036D01*
X884186Y788036D01*
X882852Y788592D01*
X882186Y789703D01*
X882186Y790814D01*
X882852Y791925D01*
X884186Y792481D01*
X887519Y792481D01*
G54D10*
X931688Y802403D02*
X931688Y807958D01*
X932355Y809069D01*
X933688Y809625D01*
X935022Y809625D01*
X936355Y809069D01*
X937022Y807958D01*
X937022Y802403D01*
X936355Y801292D01*
X935022Y800736D01*
X933688Y800736D01*
X932355Y801292D01*
X931688Y802403D01*
G54D10*
X908558Y805181D02*
X905892Y805181D01*
X905892Y807958D01*
X906558Y809069D01*
X907892Y809625D01*
X909225Y809625D01*
X910558Y809069D01*
X911225Y807958D01*
X911225Y802403D01*
X910558Y801292D01*
X909225Y800736D01*
X907892Y800736D01*
X906558Y801292D01*
X905892Y802403D01*
G54D10*
X885825Y809625D02*
X885825Y800736D01*
G54D11*
X735409Y886619D02*
X808434Y886619D01*
X808434Y853281D01*
X735409Y853281D01*
X735409Y886619D01*
G54D11*
X967383Y862806D02*
X967383Y850305D01*
X835819Y850305D01*
X835819Y862806D01*
G54D11*
X967383Y912019D02*
X967383Y990203D01*
X835819Y990203D01*
X835819Y912019D01*
G54D10*
X932499Y875506D02*
X941388Y878840D01*
X932499Y882173D01*
G54D10*
X939721Y889950D02*
X940832Y889284D01*
X941388Y887950D01*
X941388Y886617D01*
X940832Y885284D01*
X939721Y884617D01*
X934165Y884617D01*
X933054Y885284D01*
X932499Y886617D01*
X932499Y887950D01*
X933054Y889284D01*
X934165Y889950D01*
G54D10*
X939721Y897728D02*
X940832Y897061D01*
X941388Y895728D01*
X941388Y894394D01*
X940832Y893061D01*
X939721Y892394D01*
X934165Y892394D01*
X933054Y893061D01*
X932499Y894394D01*
X932499Y895728D01*
X933054Y897061D01*
X934165Y897728D01*
G54D10*
X915988Y875506D02*
X907099Y875506D01*
X907099Y878840D01*
X907654Y880173D01*
X908765Y880840D01*
X914321Y880840D01*
X915432Y880173D01*
X915988Y878840D01*
X915988Y875506D01*
G54D10*
X912099Y883283D02*
X912099Y888616D01*
G54D10*
X896938Y875506D02*
X888049Y875506D01*
X888049Y878840D01*
X888604Y880173D01*
X889715Y880840D01*
X895271Y880840D01*
X896382Y880173D01*
X896938Y878840D01*
X896938Y875506D01*
G54D10*
X893049Y883283D02*
X893049Y888616D01*
G54D10*
X890826Y885950D02*
X895271Y885950D01*
G54D10*
X867093Y878173D02*
X867093Y880840D01*
X869871Y880840D01*
X870982Y880173D01*
X871538Y878840D01*
X871538Y877506D01*
X870982Y876173D01*
X869871Y875506D01*
X864315Y875506D01*
X863204Y876173D01*
X862649Y877506D01*
X862649Y878840D01*
X863204Y880173D01*
X864315Y880840D01*
G54D10*
X871538Y883283D02*
X862649Y883283D01*
X871538Y888616D01*
X862649Y888617D01*
G54D10*
X871538Y891060D02*
X862649Y891060D01*
X862649Y894394D01*
X863204Y895727D01*
X864315Y896394D01*
X869871Y896394D01*
X870982Y895727D01*
X871538Y894394D01*
X871538Y891060D01*
G54D11*
X809625Y981075D02*
X835025Y981075D01*
X835025Y930275D01*
X809625Y930275D01*
X809625Y981075D01*
G54D10*
X889714Y574675D02*
X889714Y569342D01*
G54D10*
X894714Y561565D02*
X894714Y566898D01*
X890825Y566898D01*
X890825Y566231D01*
X891380Y564898D01*
X891380Y563565D01*
X890825Y562231D01*
X889714Y561565D01*
X887492Y561565D01*
X886380Y562231D01*
X885825Y563565D01*
X885825Y564898D01*
X886380Y566231D01*
X887492Y566898D01*
G54D10*
X894714Y559121D02*
X885825Y555788D01*
X894714Y552454D01*
G54D10*
X889714Y550010D02*
X889714Y544677D01*
G54D10*
X891936Y547343D02*
X887492Y547343D01*
G54D11*
X822325Y530225D02*
X882650Y530225D01*
G54D11*
X822325Y606425D02*
X882650Y606425D01*
X882650Y530225D01*
G54D11*
X822325Y530225D02*
X822325Y606425D01*
G54D11*
X822325Y555625D02*
X828675Y555625D01*
X828675Y581025D01*
X822325Y581025D01*
G54D11*
X669925Y530225D02*
X730250Y530225D01*
G54D11*
X669925Y606425D02*
X730250Y606425D01*
X730250Y530225D01*
G54D11*
X669925Y530225D02*
X669925Y606425D01*
G54D11*
X669925Y555625D02*
X676275Y555625D01*
X676275Y581025D01*
X669925Y581025D01*
G54D10*
X738803Y772792D02*
X738803Y767459D01*
G54D10*
X734914Y759682D02*
X734914Y765015D01*
X735469Y765015D01*
X736580Y764348D01*
X739914Y760348D01*
X741025Y759682D01*
X742136Y759682D01*
X743247Y760348D01*
X743803Y761682D01*
X743803Y763015D01*
X743247Y764348D01*
X742136Y765015D01*
G54D10*
X734914Y753238D02*
X743803Y753238D01*
X738247Y757238D01*
X737136Y757238D01*
X737136Y751905D01*
G54D10*
X743803Y749461D02*
X734914Y746128D01*
X743803Y742794D01*
G54D10*
X738803Y740350D02*
X738803Y735017D01*
G54D10*
X741025Y737684D02*
X736580Y737684D01*
G54D12*
X666775Y938325D02*
X666775Y960325D01*
X704775Y960325D01*
X704775Y938325D01*
X666775Y938325D01*
G54D12*
X666775Y963725D02*
X666775Y985725D01*
X704775Y985725D01*
X704775Y963725D01*
X666775Y963725D01*
G54D12*
X793775Y643050D02*
X793775Y665050D01*
X831775Y665050D01*
X831775Y643050D01*
X793775Y643050D01*
G54D12*
X793775Y617650D02*
X793775Y639650D01*
X831775Y639650D01*
X831775Y617650D01*
X793775Y617650D01*
G54D12*
X746150Y617650D02*
X746150Y639650D01*
X784150Y639650D01*
X784150Y617650D01*
X746150Y617650D01*
G54D12*
X746150Y643050D02*
X746150Y665050D01*
X784150Y665050D01*
X784150Y643050D01*
X746150Y643050D01*
G54D11*
X841375Y663575D02*
X892175Y663575D01*
X892175Y638175D01*
X841375Y638175D01*
X841375Y663575D01*
G54D12*
X966875Y838150D02*
X988875Y838150D01*
X988875Y800150D01*
X966875Y800150D01*
X966875Y838150D01*
G54D10*
X884808Y672464D02*
X879475Y672464D01*
X879475Y668575D01*
X880142Y668575D01*
X881475Y669131D01*
X882808Y669131D01*
X884142Y668575D01*
X884808Y667464D01*
X884808Y665242D01*
X884142Y664131D01*
X882808Y663575D01*
X881475Y663575D01*
X880142Y664131D01*
X879475Y665242D01*
G54D10*
X887252Y668575D02*
X889919Y663575D01*
X892585Y668575D01*
G54D10*
X850392Y668019D02*
X853058Y668019D01*
X853058Y665242D01*
X852392Y664131D01*
X851058Y663575D01*
X849725Y663575D01*
X848392Y664131D01*
X847725Y665242D01*
X847725Y670797D01*
X848392Y671908D01*
X849725Y672464D01*
X851058Y672464D01*
X852392Y671908D01*
X853058Y670797D01*
G54D10*
X855502Y663575D02*
X855502Y672464D01*
X860835Y663575D01*
X860835Y672464D01*
G54D10*
X863279Y663575D02*
X863279Y672464D01*
X866612Y672464D01*
X867946Y671908D01*
X868612Y670797D01*
X868612Y665242D01*
X867946Y664131D01*
X866612Y663575D01*
X863279Y663575D01*
G54D10*
X824864Y927100D02*
X815975Y923767D01*
X824864Y920433D01*
G54D10*
X820420Y987933D02*
X820420Y985267D01*
X817642Y985267D01*
X816530Y985933D01*
X815975Y987267D01*
X815975Y988600D01*
X816530Y989933D01*
X817642Y990600D01*
X823197Y990600D01*
X824308Y989933D01*
X824864Y988600D01*
X824864Y987267D01*
X824308Y985933D01*
X823197Y985267D01*
G54D11*
X746125Y530225D02*
X806450Y530225D01*
G54D11*
X746125Y606425D02*
X806450Y606425D01*
X806450Y530225D01*
G54D11*
X746125Y530225D02*
X746125Y606425D01*
G54D11*
X746125Y555625D02*
X752475Y555625D01*
X752475Y581025D01*
X746125Y581025D01*
G54D10*
X813514Y587375D02*
X813514Y582042D01*
G54D10*
X818514Y574265D02*
X818514Y579598D01*
X814625Y579598D01*
X814625Y578931D01*
X815180Y577598D01*
X815180Y576265D01*
X814625Y574931D01*
X813514Y574265D01*
X811292Y574265D01*
X810180Y574931D01*
X809625Y576265D01*
X809625Y577598D01*
X810180Y578931D01*
X811292Y579598D01*
G54D10*
X818514Y571821D02*
X809625Y568488D01*
X818514Y565154D01*
G54D10*
X813514Y562710D02*
X813514Y557377D01*
G54D10*
X815736Y560043D02*
X811292Y560043D01*
G54D11*
X894835Y541736D02*
X978179Y541736D01*
X978179Y625080D01*
X894835Y625080D01*
X894835Y541736D01*
G54D11*
G75*
G01X896507Y583408D02*
G03X896507Y583408I40000J0D01*
G01*
G54D10*
X916663Y564834D02*
X911330Y564834D01*
G54D10*
X914282Y603728D02*
X908949Y603728D01*
G54D10*
X911615Y601506D02*
X911615Y605950D01*
G54D12*
X850925Y611300D02*
X850925Y633300D01*
X888925Y633300D01*
X888925Y611300D01*
X850925Y611300D01*
G54D11*
X707430Y884436D02*
X664170Y884436D01*
X664170Y927695D01*
X707430Y927695D01*
X707430Y884436D01*
G54D11*
G75*
G01X665830Y906283D02*
G03X665830Y906283I20000J0D01*
G01*
G54D10*
X678855Y896422D02*
X673521Y896422D01*
G54D10*
X676188Y894200D02*
X676188Y898644D01*
G54D10*
X678458Y916663D02*
X673124Y916663D01*
G54D11*
X923925Y663575D02*
X974725Y663575D01*
X974725Y638175D01*
X923925Y638175D01*
X923925Y663575D01*
G54D10*
X955167Y668019D02*
X957833Y668019D01*
X957833Y665242D01*
X957167Y664131D01*
X955833Y663575D01*
X954500Y663575D01*
X953167Y664131D01*
X952500Y665242D01*
X952500Y670797D01*
X953167Y671908D01*
X954500Y672464D01*
X955833Y672464D01*
X957167Y671908D01*
X957833Y670797D01*
G54D10*
X960277Y663575D02*
X960277Y672464D01*
X965610Y663575D01*
X965610Y672464D01*
G54D10*
X968054Y663575D02*
X968054Y672464D01*
X971387Y672464D01*
X972721Y671908D01*
X973387Y670797D01*
X973387Y665242D01*
X972721Y664131D01*
X971387Y663575D01*
X968054Y663575D01*
G54D10*
X932433Y672464D02*
X927100Y672464D01*
X927100Y668575D01*
X927767Y668575D01*
X929100Y669131D01*
X930433Y669131D01*
X931767Y668575D01*
X932433Y667464D01*
X932433Y665242D01*
X931767Y664131D01*
X930433Y663575D01*
X929100Y663575D01*
X927767Y664131D01*
X927100Y665242D01*
G54D10*
X934877Y668575D02*
X937544Y663575D01*
X940210Y668575D01*
G54D10*
X78403Y379092D02*
X78403Y373759D01*
G54D10*
X74514Y365982D02*
X74514Y371315D01*
X75069Y371315D01*
X76180Y370648D01*
X79514Y366648D01*
X80625Y365982D01*
X81736Y365982D01*
X82847Y366648D01*
X83403Y367982D01*
X83403Y369315D01*
X82847Y370648D01*
X81736Y371315D01*
G54D10*
X74514Y359538D02*
X83403Y359538D01*
X77847Y363538D01*
X76736Y363538D01*
X76736Y358205D01*
G54D10*
X83403Y355761D02*
X74514Y352428D01*
X83403Y349094D01*
G54D10*
X78403Y346650D02*
X78403Y341317D01*
G54D10*
X80625Y343984D02*
X76180Y343984D01*
G54D10*
X76914Y212725D02*
X76914Y207392D01*
G54D10*
X78580Y204948D02*
X81914Y201615D01*
X73025Y201615D01*
G54D10*
X73025Y193838D02*
X73025Y199171D01*
X73580Y199171D01*
X74692Y198504D01*
X78025Y194504D01*
X79136Y193838D01*
X80247Y193838D01*
X81358Y194504D01*
X81914Y195838D01*
X81914Y197171D01*
X81358Y198504D01*
X80247Y199171D01*
G54D10*
X81914Y191394D02*
X73025Y188061D01*
X81914Y184727D01*
G54D10*
X76914Y182283D02*
X76914Y176950D01*
G54D10*
X79136Y179616D02*
X74692Y179616D01*
G54D10*
X76019Y118422D02*
X76019Y113089D01*
G54D10*
X77685Y110645D02*
X81019Y107312D01*
X72130Y107312D01*
G54D10*
X72130Y99535D02*
X72130Y104868D01*
X72685Y104868D01*
X73796Y104202D01*
X77130Y100202D01*
X78241Y99535D01*
X79352Y99535D01*
X80463Y100202D01*
X81019Y101535D01*
X81019Y102868D01*
X80463Y104202D01*
X79352Y104868D01*
G54D10*
X81019Y97091D02*
X72130Y93758D01*
X81019Y90425D01*
G54D10*
X76019Y87980D02*
X76019Y82647D01*
G54D10*
X78241Y85314D02*
X73796Y85314D01*
G54D11*
X149225Y460375D02*
X149225Y511175D01*
X47625Y511175D01*
X47625Y460375D01*
G54D11*
X149225Y460375D02*
X149225Y422275D01*
X47625Y422275D01*
X47625Y460375D01*
G54D11*
X136525Y511175D02*
X136525Y498475D01*
X111125Y498475D01*
X111125Y511175D01*
G54D11*
X85725Y511175D02*
X85725Y498475D01*
X60325Y498475D01*
X60325Y511175D01*
G54D11*
X9525Y327025D02*
X69850Y327025D01*
G54D11*
X9525Y403225D02*
X69850Y403225D01*
X69850Y327025D01*
G54D11*
X9525Y327025D02*
X9525Y403225D01*
G54D11*
X9525Y352425D02*
X15875Y352425D01*
X15875Y377825D01*
X9525Y377825D01*
G54D11*
X9525Y238125D02*
X69850Y238125D01*
G54D11*
X9525Y314325D02*
X69850Y314325D01*
X69850Y238125D01*
G54D11*
X9525Y238125D02*
X9525Y314325D01*
G54D11*
X9525Y263525D02*
X15875Y263525D01*
X15875Y288925D01*
X9525Y288925D01*
G54D11*
X9525Y149225D02*
X69850Y149225D01*
G54D11*
X9525Y225425D02*
X69850Y225425D01*
X69850Y149225D01*
G54D11*
X9525Y149225D02*
X9525Y225425D01*
G54D11*
X9525Y174625D02*
X15875Y174625D01*
X15875Y200025D01*
X9525Y200025D01*
G54D11*
X188912Y371475D02*
X84138Y371475D01*
X84138Y206375D01*
X188912Y206375D01*
X188912Y371475D01*
G54D11*
X174625Y371475D02*
X174625Y346075D01*
X98425Y346075D01*
X98425Y371475D01*
G54D10*
X156592Y319803D02*
X156592Y325358D01*
X157258Y326469D01*
X158592Y327025D01*
X159925Y327025D01*
X161258Y326469D01*
X161925Y325358D01*
X161925Y319803D01*
X161258Y318692D01*
X159925Y318136D01*
X158592Y318136D01*
X157258Y318692D01*
X156592Y319803D01*
G54D10*
X154148Y327025D02*
X154148Y318136D01*
G54D10*
X154148Y324247D02*
X148815Y318136D01*
G54D10*
X152148Y322581D02*
X148815Y327025D01*
G54D10*
X146371Y327025D02*
X146371Y318136D01*
G54D10*
X143927Y323136D02*
X138594Y323136D01*
G54D10*
X136150Y318136D02*
X130817Y318136D01*
X131483Y319247D01*
X132817Y320914D01*
X134150Y323136D01*
X134817Y324803D01*
X134817Y327025D01*
G54D10*
X125040Y322581D02*
X126373Y322581D01*
X127706Y322025D01*
X128373Y320914D01*
X128373Y319803D01*
X127706Y318692D01*
X126373Y318136D01*
X125040Y318136D01*
X123706Y318692D01*
X123040Y319803D01*
X123040Y320914D01*
X123706Y322025D01*
X125040Y322581D01*
X123706Y323136D01*
X123040Y324247D01*
X123040Y325358D01*
X123706Y326469D01*
X125040Y327025D01*
X126373Y327025D01*
X127706Y326469D01*
X128373Y325358D01*
X128373Y324247D01*
X127706Y323136D01*
X126373Y322581D01*
G54D10*
X120596Y325358D02*
X119929Y326469D01*
X118596Y327025D01*
X117263Y327025D01*
X115929Y326469D01*
X115263Y325358D01*
X115263Y324247D01*
X115929Y323136D01*
X117263Y322581D01*
X118596Y322581D01*
X119929Y322025D01*
X120596Y320914D01*
X120596Y319803D01*
X119929Y318692D01*
X118596Y318136D01*
X117263Y318136D01*
X115929Y318692D01*
X115263Y319803D01*
G54D10*
X110152Y322581D02*
X108152Y323692D01*
X107486Y324803D01*
X107486Y327025D01*
G54D10*
X112819Y327025D02*
X112819Y318136D01*
X109486Y318136D01*
X108152Y318692D01*
X107486Y319803D01*
X107486Y320914D01*
X108152Y322025D01*
X109486Y322581D01*
X112819Y322581D01*
G54D10*
X156988Y332503D02*
X156988Y338058D01*
X157655Y339169D01*
X158988Y339725D01*
X160322Y339725D01*
X161655Y339169D01*
X162322Y338058D01*
X162322Y332503D01*
X161655Y331392D01*
X160322Y330836D01*
X158988Y330836D01*
X157655Y331392D01*
X156988Y332503D01*
G54D10*
X133858Y335281D02*
X131192Y335281D01*
X131192Y338058D01*
X131858Y339169D01*
X133192Y339725D01*
X134525Y339725D01*
X135858Y339169D01*
X136525Y338058D01*
X136525Y332503D01*
X135858Y331392D01*
X134525Y330836D01*
X133192Y330836D01*
X131858Y331392D01*
X131192Y332503D01*
G54D10*
X111125Y339725D02*
X111125Y330836D01*
G54D11*
X303212Y371475D02*
X198438Y371475D01*
X198438Y206375D01*
X303212Y206375D01*
X303212Y371475D01*
G54D11*
X288925Y371475D02*
X288925Y346075D01*
X212725Y346075D01*
X212725Y371475D01*
G54D10*
X270892Y319803D02*
X270892Y325358D01*
X271558Y326469D01*
X272892Y327025D01*
X274225Y327025D01*
X275558Y326469D01*
X276225Y325358D01*
X276225Y319803D01*
X275558Y318692D01*
X274225Y318136D01*
X272892Y318136D01*
X271558Y318692D01*
X270892Y319803D01*
G54D10*
X268448Y327025D02*
X268448Y318136D01*
G54D10*
X268448Y324247D02*
X263115Y318136D01*
G54D10*
X266448Y322581D02*
X263115Y327025D01*
G54D10*
X260671Y327025D02*
X260671Y318136D01*
G54D10*
X258227Y323136D02*
X252894Y323136D01*
G54D10*
X250450Y318136D02*
X245117Y318136D01*
X245783Y319247D01*
X247117Y320914D01*
X248450Y323136D01*
X249117Y324803D01*
X249117Y327025D01*
G54D10*
X239340Y322581D02*
X240673Y322581D01*
X242006Y322025D01*
X242673Y320914D01*
X242673Y319803D01*
X242006Y318692D01*
X240673Y318136D01*
X239340Y318136D01*
X238006Y318692D01*
X237340Y319803D01*
X237340Y320914D01*
X238006Y322025D01*
X239340Y322581D01*
X238006Y323136D01*
X237340Y324247D01*
X237340Y325358D01*
X238006Y326469D01*
X239340Y327025D01*
X240673Y327025D01*
X242006Y326469D01*
X242673Y325358D01*
X242673Y324247D01*
X242006Y323136D01*
X240673Y322581D01*
G54D10*
X234896Y325358D02*
X234229Y326469D01*
X232896Y327025D01*
X231563Y327025D01*
X230229Y326469D01*
X229563Y325358D01*
X229563Y324247D01*
X230229Y323136D01*
X231563Y322581D01*
X232896Y322581D01*
X234229Y322025D01*
X234896Y320914D01*
X234896Y319803D01*
X234229Y318692D01*
X232896Y318136D01*
X231563Y318136D01*
X230229Y318692D01*
X229563Y319803D01*
G54D10*
X224452Y322581D02*
X222452Y323692D01*
X221786Y324803D01*
X221786Y327025D01*
G54D10*
X227119Y327025D02*
X227119Y318136D01*
X223786Y318136D01*
X222452Y318692D01*
X221786Y319803D01*
X221786Y320914D01*
X222452Y322025D01*
X223786Y322581D01*
X227119Y322581D01*
G54D10*
X271288Y332503D02*
X271288Y338058D01*
X271955Y339169D01*
X273288Y339725D01*
X274622Y339725D01*
X275955Y339169D01*
X276622Y338058D01*
X276622Y332503D01*
X275955Y331392D01*
X274622Y330836D01*
X273288Y330836D01*
X271955Y331392D01*
X271288Y332503D01*
G54D10*
X248158Y335281D02*
X245492Y335281D01*
X245492Y338058D01*
X246158Y339169D01*
X247492Y339725D01*
X248825Y339725D01*
X250158Y339169D01*
X250825Y338058D01*
X250825Y332503D01*
X250158Y331392D01*
X248825Y330836D01*
X247492Y330836D01*
X246158Y331392D01*
X245492Y332503D01*
G54D10*
X225425Y339725D02*
X225425Y330836D01*
G54D11*
X75009Y416719D02*
X148034Y416719D01*
X148034Y383381D01*
X75009Y383381D01*
X75009Y416719D01*
G54D11*
X306983Y392906D02*
X306983Y380405D01*
X175419Y380405D01*
X175419Y392906D01*
G54D11*
X306983Y442119D02*
X306983Y520303D01*
X175419Y520303D01*
X175419Y442119D01*
G54D10*
X272099Y405606D02*
X280988Y408940D01*
X272099Y412273D01*
G54D10*
X279321Y420050D02*
X280432Y419384D01*
X280988Y418050D01*
X280988Y416717D01*
X280432Y415384D01*
X279321Y414717D01*
X273765Y414717D01*
X272654Y415384D01*
X272099Y416717D01*
X272099Y418050D01*
X272654Y419384D01*
X273765Y420050D01*
G54D10*
X279321Y427828D02*
X280432Y427161D01*
X280988Y425828D01*
X280988Y424494D01*
X280432Y423161D01*
X279321Y422494D01*
X273765Y422494D01*
X272654Y423161D01*
X272099Y424494D01*
X272099Y425828D01*
X272654Y427161D01*
X273765Y427828D01*
G54D10*
X255588Y405606D02*
X246699Y405606D01*
X246699Y408940D01*
X247254Y410273D01*
X248365Y410940D01*
X253921Y410940D01*
X255032Y410273D01*
X255588Y408940D01*
X255588Y405606D01*
G54D10*
X251699Y413383D02*
X251699Y418716D01*
G54D10*
X236538Y405606D02*
X227649Y405606D01*
X227649Y408940D01*
X228204Y410273D01*
X229315Y410940D01*
X234871Y410940D01*
X235982Y410273D01*
X236538Y408940D01*
X236538Y405606D01*
G54D10*
X232649Y413383D02*
X232649Y418716D01*
G54D10*
X230426Y416050D02*
X234871Y416050D01*
G54D10*
X206693Y408273D02*
X206693Y410940D01*
X209471Y410940D01*
X210582Y410273D01*
X211138Y408940D01*
X211138Y407606D01*
X210582Y406273D01*
X209471Y405606D01*
X203915Y405606D01*
X202804Y406273D01*
X202249Y407606D01*
X202249Y408940D01*
X202804Y410273D01*
X203915Y410940D01*
G54D10*
X211138Y413383D02*
X202249Y413383D01*
X211138Y418716D01*
X202249Y418717D01*
G54D10*
X211138Y421160D02*
X202249Y421160D01*
X202249Y424494D01*
X202804Y425827D01*
X203915Y426494D01*
X209471Y426494D01*
X210582Y425827D01*
X211138Y424494D01*
X211138Y421160D01*
G54D11*
X149225Y511175D02*
X174625Y511175D01*
X174625Y460375D01*
X149225Y460375D01*
X149225Y511175D01*
G54D10*
X229314Y104775D02*
X229314Y99442D01*
G54D10*
X234314Y91665D02*
X234314Y96998D01*
X230425Y96998D01*
X230425Y96331D01*
X230980Y94998D01*
X230980Y93665D01*
X230425Y92331D01*
X229314Y91665D01*
X227092Y91665D01*
X225980Y92331D01*
X225425Y93665D01*
X225425Y94998D01*
X225980Y96331D01*
X227092Y96998D01*
G54D10*
X234314Y89221D02*
X225425Y85888D01*
X234314Y82554D01*
G54D10*
X229314Y80110D02*
X229314Y74777D01*
G54D10*
X231536Y77443D02*
X227092Y77443D01*
G54D11*
X161925Y60325D02*
X222250Y60325D01*
G54D11*
X161925Y136525D02*
X222250Y136525D01*
X222250Y60325D01*
G54D11*
X161925Y60325D02*
X161925Y136525D01*
G54D11*
X161925Y85725D02*
X168275Y85725D01*
X168275Y111125D01*
X161925Y111125D01*
G54D11*
X9525Y60325D02*
X69850Y60325D01*
G54D11*
X9525Y136525D02*
X69850Y136525D01*
X69850Y60325D01*
G54D11*
X9525Y60325D02*
X9525Y136525D01*
G54D11*
X9525Y85725D02*
X15875Y85725D01*
X15875Y111125D01*
X9525Y111125D01*
G54D10*
X78403Y302892D02*
X78403Y297559D01*
G54D10*
X74514Y289782D02*
X74514Y295115D01*
X75069Y295115D01*
X76180Y294448D01*
X79514Y290448D01*
X80625Y289782D01*
X81736Y289782D01*
X82847Y290448D01*
X83403Y291782D01*
X83403Y293115D01*
X82847Y294448D01*
X81736Y295115D01*
G54D10*
X74514Y283338D02*
X83403Y283338D01*
X77847Y287338D01*
X76736Y287338D01*
X76736Y282005D01*
G54D10*
X83403Y279561D02*
X74514Y276228D01*
X83403Y272894D01*
G54D10*
X78403Y270450D02*
X78403Y265117D01*
G54D10*
X80625Y267784D02*
X76180Y267784D01*
G54D12*
X6375Y468425D02*
X6375Y490425D01*
X44375Y490425D01*
X44375Y468425D01*
X6375Y468425D01*
G54D12*
X6375Y493825D02*
X6375Y515825D01*
X44375Y515825D01*
X44375Y493825D01*
X6375Y493825D01*
G54D12*
X133375Y173150D02*
X133375Y195150D01*
X171375Y195150D01*
X171375Y173150D01*
X133375Y173150D01*
G54D12*
X133375Y147750D02*
X133375Y169750D01*
X171375Y169750D01*
X171375Y147750D01*
X133375Y147750D01*
G54D12*
X85750Y147750D02*
X85750Y169750D01*
X123750Y169750D01*
X123750Y147750D01*
X85750Y147750D01*
G54D12*
X85750Y173150D02*
X85750Y195150D01*
X123750Y195150D01*
X123750Y173150D01*
X85750Y173150D01*
G54D11*
X180975Y193675D02*
X231775Y193675D01*
X231775Y168275D01*
X180975Y168275D01*
X180975Y193675D01*
G54D12*
X306475Y368250D02*
X328475Y368250D01*
X328475Y330250D01*
X306475Y330250D01*
X306475Y368250D01*
G54D10*
X224408Y202564D02*
X219075Y202564D01*
X219075Y198675D01*
X219742Y198675D01*
X221075Y199231D01*
X222408Y199231D01*
X223742Y198675D01*
X224408Y197564D01*
X224408Y195342D01*
X223742Y194231D01*
X222408Y193675D01*
X221075Y193675D01*
X219742Y194231D01*
X219075Y195342D01*
G54D10*
X226852Y198675D02*
X229519Y193675D01*
X232185Y198675D01*
G54D10*
X189992Y198119D02*
X192658Y198119D01*
X192658Y195342D01*
X191992Y194231D01*
X190658Y193675D01*
X189325Y193675D01*
X187992Y194231D01*
X187325Y195342D01*
X187325Y200897D01*
X187992Y202008D01*
X189325Y202564D01*
X190658Y202564D01*
X191992Y202008D01*
X192658Y200897D01*
G54D10*
X195102Y193675D02*
X195102Y202564D01*
X200435Y193675D01*
X200435Y202564D01*
G54D10*
X202879Y193675D02*
X202879Y202564D01*
X206212Y202564D01*
X207546Y202008D01*
X208212Y200897D01*
X208212Y195342D01*
X207546Y194231D01*
X206212Y193675D01*
X202879Y193675D01*
G54D10*
X164464Y457200D02*
X155575Y453867D01*
X164464Y450533D01*
G54D10*
X160020Y518033D02*
X160020Y515367D01*
X157242Y515367D01*
X156130Y516033D01*
X155575Y517367D01*
X155575Y518700D01*
X156130Y520033D01*
X157242Y520700D01*
X162797Y520700D01*
X163908Y520033D01*
X164464Y518700D01*
X164464Y517367D01*
X163908Y516033D01*
X162797Y515367D01*
G54D11*
X85725Y60325D02*
X146050Y60325D01*
G54D11*
X85725Y136525D02*
X146050Y136525D01*
X146050Y60325D01*
G54D11*
X85725Y60325D02*
X85725Y136525D01*
G54D11*
X85725Y85725D02*
X92075Y85725D01*
X92075Y111125D01*
X85725Y111125D01*
G54D10*
X153114Y117475D02*
X153114Y112142D01*
G54D10*
X158114Y104365D02*
X158114Y109698D01*
X154225Y109698D01*
X154225Y109031D01*
X154780Y107698D01*
X154780Y106365D01*
X154225Y105031D01*
X153114Y104365D01*
X150892Y104365D01*
X149780Y105031D01*
X149225Y106365D01*
X149225Y107698D01*
X149780Y109031D01*
X150892Y109698D01*
G54D10*
X158114Y101921D02*
X149225Y98588D01*
X158114Y95254D01*
G54D10*
X153114Y92810D02*
X153114Y87477D01*
G54D10*
X155336Y90143D02*
X150892Y90143D01*
G54D11*
X234435Y71836D02*
X317779Y71836D01*
X317779Y155180D01*
X234435Y155180D01*
X234435Y71836D01*
G54D11*
G75*
G01X236107Y113508D02*
G03X236107Y113508I40000J0D01*
G01*
G54D10*
X256263Y94934D02*
X250930Y94934D01*
G54D10*
X253882Y133828D02*
X248549Y133828D01*
G54D10*
X251215Y131606D02*
X251215Y136050D01*
G54D12*
X190525Y141400D02*
X190525Y163400D01*
X228525Y163400D01*
X228525Y141400D01*
X190525Y141400D01*
G54D11*
X47030Y414536D02*
X3770Y414536D01*
X3770Y457795D01*
X47030Y457795D01*
X47030Y414536D01*
G54D11*
G75*
G01X5430Y436383D02*
G03X5430Y436383I20000J0D01*
G01*
G54D10*
X18455Y426522D02*
X13121Y426522D01*
G54D10*
X15788Y424300D02*
X15788Y428744D01*
G54D10*
X18058Y446763D02*
X12724Y446763D01*
G54D11*
X263525Y193675D02*
X314325Y193675D01*
X314325Y168275D01*
X263525Y168275D01*
X263525Y193675D01*
G54D10*
X294767Y198119D02*
X297433Y198119D01*
X297433Y195342D01*
X296767Y194231D01*
X295433Y193675D01*
X294100Y193675D01*
X292767Y194231D01*
X292100Y195342D01*
X292100Y200897D01*
X292767Y202008D01*
X294100Y202564D01*
X295433Y202564D01*
X296767Y202008D01*
X297433Y200897D01*
G54D10*
X299877Y193675D02*
X299877Y202564D01*
X305210Y193675D01*
X305210Y202564D01*
G54D10*
X307654Y193675D02*
X307654Y202564D01*
X310987Y202564D01*
X312321Y202008D01*
X312987Y200897D01*
X312987Y195342D01*
X312321Y194231D01*
X310987Y193675D01*
X307654Y193675D01*
G54D10*
X272033Y202564D02*
X266700Y202564D01*
X266700Y198675D01*
X267367Y198675D01*
X268700Y199231D01*
X270033Y199231D01*
X271367Y198675D01*
X272033Y197564D01*
X272033Y195342D01*
X271367Y194231D01*
X270033Y193675D01*
X268700Y193675D01*
X267367Y194231D01*
X266700Y195342D01*
G54D10*
X274477Y198675D02*
X277144Y193675D01*
X279810Y198675D01*
G54D10*
X408603Y379092D02*
X408603Y373759D01*
G54D10*
X404714Y365982D02*
X404714Y371315D01*
X405269Y371315D01*
X406380Y370648D01*
X409714Y366648D01*
X410825Y365982D01*
X411936Y365982D01*
X413047Y366648D01*
X413603Y367982D01*
X413603Y369315D01*
X413047Y370648D01*
X411936Y371315D01*
G54D10*
X404714Y359538D02*
X413603Y359538D01*
X408047Y363538D01*
X406936Y363538D01*
X406936Y358205D01*
G54D10*
X413603Y355761D02*
X404714Y352428D01*
X413603Y349094D01*
G54D10*
X408603Y346650D02*
X408603Y341317D01*
G54D10*
X410825Y343984D02*
X406380Y343984D01*
G54D10*
X407114Y212725D02*
X407114Y207392D01*
G54D10*
X408780Y204948D02*
X412114Y201615D01*
X403225Y201615D01*
G54D10*
X403225Y193838D02*
X403225Y199171D01*
X403780Y199171D01*
X404892Y198504D01*
X408225Y194504D01*
X409336Y193838D01*
X410447Y193838D01*
X411558Y194504D01*
X412114Y195838D01*
X412114Y197171D01*
X411558Y198504D01*
X410447Y199171D01*
G54D10*
X412114Y191394D02*
X403225Y188061D01*
X412114Y184727D01*
G54D10*
X407114Y182283D02*
X407114Y176950D01*
G54D10*
X409336Y179616D02*
X404892Y179616D01*
G54D10*
X406219Y118422D02*
X406219Y113089D01*
G54D10*
X407885Y110645D02*
X411219Y107312D01*
X402330Y107312D01*
G54D10*
X402330Y99535D02*
X402330Y104868D01*
X402885Y104868D01*
X403996Y104202D01*
X407330Y100202D01*
X408441Y99535D01*
X409552Y99535D01*
X410663Y100202D01*
X411219Y101535D01*
X411219Y102868D01*
X410663Y104202D01*
X409552Y104868D01*
G54D10*
X411219Y97091D02*
X402330Y93758D01*
X411219Y90425D01*
G54D10*
X406219Y87980D02*
X406219Y82647D01*
G54D10*
X408441Y85314D02*
X403996Y85314D01*
G54D11*
X479425Y460375D02*
X479425Y511175D01*
X377825Y511175D01*
X377825Y460375D01*
G54D11*
X479425Y460375D02*
X479425Y422275D01*
X377825Y422275D01*
X377825Y460375D01*
G54D11*
X466725Y511175D02*
X466725Y498475D01*
X441325Y498475D01*
X441325Y511175D01*
G54D11*
X415925Y511175D02*
X415925Y498475D01*
X390525Y498475D01*
X390525Y511175D01*
G54D11*
X339725Y327025D02*
X400050Y327025D01*
G54D11*
X339725Y403225D02*
X400050Y403225D01*
X400050Y327025D01*
G54D11*
X339725Y327025D02*
X339725Y403225D01*
G54D11*
X339725Y352425D02*
X346075Y352425D01*
X346075Y377825D01*
X339725Y377825D01*
G54D11*
X339725Y238125D02*
X400050Y238125D01*
G54D11*
X339725Y314325D02*
X400050Y314325D01*
X400050Y238125D01*
G54D11*
X339725Y238125D02*
X339725Y314325D01*
G54D11*
X339725Y263525D02*
X346075Y263525D01*
X346075Y288925D01*
X339725Y288925D01*
G54D11*
X339725Y149225D02*
X400050Y149225D01*
G54D11*
X339725Y225425D02*
X400050Y225425D01*
X400050Y149225D01*
G54D11*
X339725Y149225D02*
X339725Y225425D01*
G54D11*
X339725Y174625D02*
X346075Y174625D01*
X346075Y200025D01*
X339725Y200025D01*
G54D11*
X519112Y371475D02*
X414338Y371475D01*
X414338Y206375D01*
X519112Y206375D01*
X519112Y371475D01*
G54D11*
X504825Y371475D02*
X504825Y346075D01*
X428625Y346075D01*
X428625Y371475D01*
G54D10*
X486792Y319803D02*
X486792Y325358D01*
X487458Y326469D01*
X488792Y327025D01*
X490125Y327025D01*
X491458Y326469D01*
X492125Y325358D01*
X492125Y319803D01*
X491458Y318692D01*
X490125Y318136D01*
X488792Y318136D01*
X487458Y318692D01*
X486792Y319803D01*
G54D10*
X484348Y327025D02*
X484348Y318136D01*
G54D10*
X484348Y324247D02*
X479015Y318136D01*
G54D10*
X482348Y322581D02*
X479015Y327025D01*
G54D10*
X476571Y327025D02*
X476571Y318136D01*
G54D10*
X474127Y323136D02*
X468794Y323136D01*
G54D10*
X466350Y318136D02*
X461017Y318136D01*
X461683Y319247D01*
X463017Y320914D01*
X464350Y323136D01*
X465017Y324803D01*
X465017Y327025D01*
G54D10*
X455240Y322581D02*
X456573Y322581D01*
X457906Y322025D01*
X458573Y320914D01*
X458573Y319803D01*
X457906Y318692D01*
X456573Y318136D01*
X455240Y318136D01*
X453906Y318692D01*
X453240Y319803D01*
X453240Y320914D01*
X453906Y322025D01*
X455240Y322581D01*
X453906Y323136D01*
X453240Y324247D01*
X453240Y325358D01*
X453906Y326469D01*
X455240Y327025D01*
X456573Y327025D01*
X457906Y326469D01*
X458573Y325358D01*
X458573Y324247D01*
X457906Y323136D01*
X456573Y322581D01*
G54D10*
X450796Y325358D02*
X450129Y326469D01*
X448796Y327025D01*
X447463Y327025D01*
X446129Y326469D01*
X445463Y325358D01*
X445463Y324247D01*
X446129Y323136D01*
X447463Y322581D01*
X448796Y322581D01*
X450129Y322025D01*
X450796Y320914D01*
X450796Y319803D01*
X450129Y318692D01*
X448796Y318136D01*
X447463Y318136D01*
X446129Y318692D01*
X445463Y319803D01*
G54D10*
X440352Y322581D02*
X438352Y323692D01*
X437686Y324803D01*
X437686Y327025D01*
G54D10*
X443019Y327025D02*
X443019Y318136D01*
X439686Y318136D01*
X438352Y318692D01*
X437686Y319803D01*
X437686Y320914D01*
X438352Y322025D01*
X439686Y322581D01*
X443019Y322581D01*
G54D10*
X487188Y332503D02*
X487188Y338058D01*
X487855Y339169D01*
X489188Y339725D01*
X490522Y339725D01*
X491855Y339169D01*
X492522Y338058D01*
X492522Y332503D01*
X491855Y331392D01*
X490522Y330836D01*
X489188Y330836D01*
X487855Y331392D01*
X487188Y332503D01*
G54D10*
X464058Y335281D02*
X461392Y335281D01*
X461392Y338058D01*
X462058Y339169D01*
X463392Y339725D01*
X464725Y339725D01*
X466058Y339169D01*
X466725Y338058D01*
X466725Y332503D01*
X466058Y331392D01*
X464725Y330836D01*
X463392Y330836D01*
X462058Y331392D01*
X461392Y332503D01*
G54D10*
X441325Y339725D02*
X441325Y330836D01*
G54D11*
X633412Y371475D02*
X528638Y371475D01*
X528638Y206375D01*
X633412Y206375D01*
X633412Y371475D01*
G54D11*
X619125Y371475D02*
X619125Y346075D01*
X542925Y346075D01*
X542925Y371475D01*
G54D10*
X601092Y319803D02*
X601092Y325358D01*
X601758Y326469D01*
X603092Y327025D01*
X604425Y327025D01*
X605758Y326469D01*
X606425Y325358D01*
X606425Y319803D01*
X605758Y318692D01*
X604425Y318136D01*
X603092Y318136D01*
X601758Y318692D01*
X601092Y319803D01*
G54D10*
X598648Y327025D02*
X598648Y318136D01*
G54D10*
X598648Y324247D02*
X593315Y318136D01*
G54D10*
X596648Y322581D02*
X593315Y327025D01*
G54D10*
X590871Y327025D02*
X590871Y318136D01*
G54D10*
X588427Y323136D02*
X583094Y323136D01*
G54D10*
X580650Y318136D02*
X575317Y318136D01*
X575983Y319247D01*
X577317Y320914D01*
X578650Y323136D01*
X579317Y324803D01*
X579317Y327025D01*
G54D10*
X569540Y322581D02*
X570873Y322581D01*
X572206Y322025D01*
X572873Y320914D01*
X572873Y319803D01*
X572206Y318692D01*
X570873Y318136D01*
X569540Y318136D01*
X568206Y318692D01*
X567540Y319803D01*
X567540Y320914D01*
X568206Y322025D01*
X569540Y322581D01*
X568206Y323136D01*
X567540Y324247D01*
X567540Y325358D01*
X568206Y326469D01*
X569540Y327025D01*
X570873Y327025D01*
X572206Y326469D01*
X572873Y325358D01*
X572873Y324247D01*
X572206Y323136D01*
X570873Y322581D01*
G54D10*
X565096Y325358D02*
X564429Y326469D01*
X563096Y327025D01*
X561763Y327025D01*
X560429Y326469D01*
X559763Y325358D01*
X559763Y324247D01*
X560429Y323136D01*
X561763Y322581D01*
X563096Y322581D01*
X564429Y322025D01*
X565096Y320914D01*
X565096Y319803D01*
X564429Y318692D01*
X563096Y318136D01*
X561763Y318136D01*
X560429Y318692D01*
X559763Y319803D01*
G54D10*
X554652Y322581D02*
X552652Y323692D01*
X551986Y324803D01*
X551986Y327025D01*
G54D10*
X557319Y327025D02*
X557319Y318136D01*
X553986Y318136D01*
X552652Y318692D01*
X551986Y319803D01*
X551986Y320914D01*
X552652Y322025D01*
X553986Y322581D01*
X557319Y322581D01*
G54D10*
X601488Y332503D02*
X601488Y338058D01*
X602155Y339169D01*
X603488Y339725D01*
X604822Y339725D01*
X606155Y339169D01*
X606822Y338058D01*
X606822Y332503D01*
X606155Y331392D01*
X604822Y330836D01*
X603488Y330836D01*
X602155Y331392D01*
X601488Y332503D01*
G54D10*
X578358Y335281D02*
X575692Y335281D01*
X575692Y338058D01*
X576358Y339169D01*
X577692Y339725D01*
X579025Y339725D01*
X580358Y339169D01*
X581025Y338058D01*
X581025Y332503D01*
X580358Y331392D01*
X579025Y330836D01*
X577692Y330836D01*
X576358Y331392D01*
X575692Y332503D01*
G54D10*
X555625Y339725D02*
X555625Y330836D01*
G54D11*
X405209Y416719D02*
X478234Y416719D01*
X478234Y383381D01*
X405209Y383381D01*
X405209Y416719D01*
G54D11*
X637183Y392906D02*
X637183Y380405D01*
X505619Y380405D01*
X505619Y392906D01*
G54D11*
X637183Y442119D02*
X637183Y520303D01*
X505619Y520303D01*
X505619Y442119D01*
G54D10*
X602299Y405606D02*
X611188Y408940D01*
X602299Y412273D01*
G54D10*
X609521Y420050D02*
X610632Y419384D01*
X611188Y418050D01*
X611188Y416717D01*
X610632Y415384D01*
X609521Y414717D01*
X603965Y414717D01*
X602854Y415384D01*
X602299Y416717D01*
X602299Y418050D01*
X602854Y419384D01*
X603965Y420050D01*
G54D10*
X609521Y427828D02*
X610632Y427161D01*
X611188Y425828D01*
X611188Y424494D01*
X610632Y423161D01*
X609521Y422494D01*
X603965Y422494D01*
X602854Y423161D01*
X602299Y424494D01*
X602299Y425828D01*
X602854Y427161D01*
X603965Y427828D01*
G54D10*
X585788Y405606D02*
X576899Y405606D01*
X576899Y408940D01*
X577454Y410273D01*
X578565Y410940D01*
X584121Y410940D01*
X585232Y410273D01*
X585788Y408940D01*
X585788Y405606D01*
G54D10*
X581899Y413383D02*
X581899Y418716D01*
G54D10*
X566738Y405606D02*
X557849Y405606D01*
X557849Y408940D01*
X558404Y410273D01*
X559515Y410940D01*
X565071Y410940D01*
X566182Y410273D01*
X566738Y408940D01*
X566738Y405606D01*
G54D10*
X562849Y413383D02*
X562849Y418716D01*
G54D10*
X560626Y416050D02*
X565071Y416050D01*
G54D10*
X536893Y408273D02*
X536893Y410940D01*
X539671Y410940D01*
X540782Y410273D01*
X541338Y408940D01*
X541338Y407606D01*
X540782Y406273D01*
X539671Y405606D01*
X534115Y405606D01*
X533004Y406273D01*
X532449Y407606D01*
X532449Y408940D01*
X533004Y410273D01*
X534115Y410940D01*
G54D10*
X541338Y413383D02*
X532449Y413383D01*
X541338Y418716D01*
X532449Y418717D01*
G54D10*
X541338Y421160D02*
X532449Y421160D01*
X532449Y424494D01*
X533004Y425827D01*
X534115Y426494D01*
X539671Y426494D01*
X540782Y425827D01*
X541338Y424494D01*
X541338Y421160D01*
G54D11*
X479425Y511175D02*
X504825Y511175D01*
X504825Y460375D01*
X479425Y460375D01*
X479425Y511175D01*
G54D10*
X559514Y104775D02*
X559514Y99442D01*
G54D10*
X564514Y91665D02*
X564514Y96998D01*
X560625Y96998D01*
X560625Y96331D01*
X561180Y94998D01*
X561180Y93665D01*
X560625Y92331D01*
X559514Y91665D01*
X557292Y91665D01*
X556180Y92331D01*
X555625Y93665D01*
X555625Y94998D01*
X556180Y96331D01*
X557292Y96998D01*
G54D10*
X564514Y89221D02*
X555625Y85888D01*
X564514Y82554D01*
G54D10*
X559514Y80110D02*
X559514Y74777D01*
G54D10*
X561736Y77443D02*
X557292Y77443D01*
G54D11*
X492125Y60325D02*
X552450Y60325D01*
G54D11*
X492125Y136525D02*
X552450Y136525D01*
X552450Y60325D01*
G54D11*
X492125Y60325D02*
X492125Y136525D01*
G54D11*
X492125Y85725D02*
X498475Y85725D01*
X498475Y111125D01*
X492125Y111125D01*
G54D11*
X339725Y60325D02*
X400050Y60325D01*
G54D11*
X339725Y136525D02*
X400050Y136525D01*
X400050Y60325D01*
G54D11*
X339725Y60325D02*
X339725Y136525D01*
G54D11*
X339725Y85725D02*
X346075Y85725D01*
X346075Y111125D01*
X339725Y111125D01*
G54D10*
X408603Y302892D02*
X408603Y297559D01*
G54D10*
X404714Y289782D02*
X404714Y295115D01*
X405269Y295115D01*
X406380Y294448D01*
X409714Y290448D01*
X410825Y289782D01*
X411936Y289782D01*
X413047Y290448D01*
X413603Y291782D01*
X413603Y293115D01*
X413047Y294448D01*
X411936Y295115D01*
G54D10*
X404714Y283338D02*
X413603Y283338D01*
X408047Y287338D01*
X406936Y287338D01*
X406936Y282005D01*
G54D10*
X413603Y279561D02*
X404714Y276228D01*
X413603Y272894D01*
G54D10*
X408603Y270450D02*
X408603Y265117D01*
G54D10*
X410825Y267784D02*
X406380Y267784D01*
G54D12*
X336575Y468425D02*
X336575Y490425D01*
X374575Y490425D01*
X374575Y468425D01*
X336575Y468425D01*
G54D12*
X336575Y493825D02*
X336575Y515825D01*
X374575Y515825D01*
X374575Y493825D01*
X336575Y493825D01*
G54D12*
X463575Y173150D02*
X463575Y195150D01*
X501575Y195150D01*
X501575Y173150D01*
X463575Y173150D01*
G54D12*
X463575Y147750D02*
X463575Y169750D01*
X501575Y169750D01*
X501575Y147750D01*
X463575Y147750D01*
G54D12*
X415950Y147750D02*
X415950Y169750D01*
X453950Y169750D01*
X453950Y147750D01*
X415950Y147750D01*
G54D12*
X415950Y173150D02*
X415950Y195150D01*
X453950Y195150D01*
X453950Y173150D01*
X415950Y173150D01*
G54D11*
X511175Y193675D02*
X561975Y193675D01*
X561975Y168275D01*
X511175Y168275D01*
X511175Y193675D01*
G54D12*
X636675Y368250D02*
X658675Y368250D01*
X658675Y330250D01*
X636675Y330250D01*
X636675Y368250D01*
G54D10*
X554608Y202564D02*
X549275Y202564D01*
X549275Y198675D01*
X549942Y198675D01*
X551275Y199231D01*
X552608Y199231D01*
X553942Y198675D01*
X554608Y197564D01*
X554608Y195342D01*
X553942Y194231D01*
X552608Y193675D01*
X551275Y193675D01*
X549942Y194231D01*
X549275Y195342D01*
G54D10*
X557052Y198675D02*
X559719Y193675D01*
X562385Y198675D01*
G54D10*
X520192Y198119D02*
X522858Y198119D01*
X522858Y195342D01*
X522192Y194231D01*
X520858Y193675D01*
X519525Y193675D01*
X518192Y194231D01*
X517525Y195342D01*
X517525Y200897D01*
X518192Y202008D01*
X519525Y202564D01*
X520858Y202564D01*
X522192Y202008D01*
X522858Y200897D01*
G54D10*
X525302Y193675D02*
X525302Y202564D01*
X530635Y193675D01*
X530635Y202564D01*
G54D10*
X533079Y193675D02*
X533079Y202564D01*
X536412Y202564D01*
X537746Y202008D01*
X538412Y200897D01*
X538412Y195342D01*
X537746Y194231D01*
X536412Y193675D01*
X533079Y193675D01*
G54D10*
X494664Y457200D02*
X485775Y453867D01*
X494664Y450533D01*
G54D10*
X490220Y518033D02*
X490220Y515367D01*
X487442Y515367D01*
X486330Y516033D01*
X485775Y517367D01*
X485775Y518700D01*
X486330Y520033D01*
X487442Y520700D01*
X492997Y520700D01*
X494108Y520033D01*
X494664Y518700D01*
X494664Y517367D01*
X494108Y516033D01*
X492997Y515367D01*
G54D11*
X415925Y60325D02*
X476250Y60325D01*
G54D11*
X415925Y136525D02*
X476250Y136525D01*
X476250Y60325D01*
G54D11*
X415925Y60325D02*
X415925Y136525D01*
G54D11*
X415925Y85725D02*
X422275Y85725D01*
X422275Y111125D01*
X415925Y111125D01*
G54D10*
X483314Y117475D02*
X483314Y112142D01*
G54D10*
X488314Y104365D02*
X488314Y109698D01*
X484425Y109698D01*
X484425Y109031D01*
X484980Y107698D01*
X484980Y106365D01*
X484425Y105031D01*
X483314Y104365D01*
X481092Y104365D01*
X479980Y105031D01*
X479425Y106365D01*
X479425Y107698D01*
X479980Y109031D01*
X481092Y109698D01*
G54D10*
X488314Y101921D02*
X479425Y98588D01*
X488314Y95254D01*
G54D10*
X483314Y92810D02*
X483314Y87477D01*
G54D10*
X485536Y90143D02*
X481092Y90143D01*
G54D11*
X564635Y71836D02*
X647979Y71836D01*
X647979Y155180D01*
X564635Y155180D01*
X564635Y71836D01*
G54D11*
G75*
G01X566307Y113508D02*
G03X566307Y113508I40000J0D01*
G01*
G54D10*
X586463Y94934D02*
X581130Y94934D01*
G54D10*
X584082Y133828D02*
X578749Y133828D01*
G54D10*
X581415Y131606D02*
X581415Y136050D01*
G54D12*
X520725Y141400D02*
X520725Y163400D01*
X558725Y163400D01*
X558725Y141400D01*
X520725Y141400D01*
G54D11*
X377230Y414536D02*
X333970Y414536D01*
X333970Y457795D01*
X377230Y457795D01*
X377230Y414536D01*
G54D11*
G75*
G01X335630Y436383D02*
G03X335630Y436383I20000J0D01*
G01*
G54D10*
X348655Y426522D02*
X343321Y426522D01*
G54D10*
X345988Y424300D02*
X345988Y428744D01*
G54D10*
X348258Y446763D02*
X342924Y446763D01*
G54D11*
X593725Y193675D02*
X644525Y193675D01*
X644525Y168275D01*
X593725Y168275D01*
X593725Y193675D01*
G54D10*
X624967Y198119D02*
X627633Y198119D01*
X627633Y195342D01*
X626967Y194231D01*
X625633Y193675D01*
X624300Y193675D01*
X622967Y194231D01*
X622300Y195342D01*
X622300Y200897D01*
X622967Y202008D01*
X624300Y202564D01*
X625633Y202564D01*
X626967Y202008D01*
X627633Y200897D01*
G54D10*
X630077Y193675D02*
X630077Y202564D01*
X635410Y193675D01*
X635410Y202564D01*
G54D10*
X637854Y193675D02*
X637854Y202564D01*
X641187Y202564D01*
X642521Y202008D01*
X643187Y200897D01*
X643187Y195342D01*
X642521Y194231D01*
X641187Y193675D01*
X637854Y193675D01*
G54D10*
X602233Y202564D02*
X596900Y202564D01*
X596900Y198675D01*
X597567Y198675D01*
X598900Y199231D01*
X600233Y199231D01*
X601567Y198675D01*
X602233Y197564D01*
X602233Y195342D01*
X601567Y194231D01*
X600233Y193675D01*
X598900Y193675D01*
X597567Y194231D01*
X596900Y195342D01*
G54D10*
X604677Y198675D02*
X607344Y193675D01*
X610010Y198675D01*
G54D10*
X738803Y379092D02*
X738803Y373759D01*
G54D10*
X734914Y365982D02*
X734914Y371315D01*
X735469Y371315D01*
X736580Y370648D01*
X739914Y366648D01*
X741025Y365982D01*
X742136Y365982D01*
X743247Y366648D01*
X743803Y367982D01*
X743803Y369315D01*
X743247Y370648D01*
X742136Y371315D01*
G54D10*
X734914Y359538D02*
X743803Y359538D01*
X738247Y363538D01*
X737136Y363538D01*
X737136Y358205D01*
G54D10*
X743803Y355761D02*
X734914Y352428D01*
X743803Y349094D01*
G54D10*
X738803Y346650D02*
X738803Y341317D01*
G54D10*
X741025Y343984D02*
X736580Y343984D01*
G54D10*
X737314Y212725D02*
X737314Y207392D01*
G54D10*
X738980Y204948D02*
X742314Y201615D01*
X733425Y201615D01*
G54D10*
X733425Y193838D02*
X733425Y199171D01*
X733980Y199171D01*
X735092Y198504D01*
X738425Y194504D01*
X739536Y193838D01*
X740647Y193838D01*
X741758Y194504D01*
X742314Y195838D01*
X742314Y197171D01*
X741758Y198504D01*
X740647Y199171D01*
G54D10*
X742314Y191394D02*
X733425Y188061D01*
X742314Y184727D01*
G54D10*
X737314Y182283D02*
X737314Y176950D01*
G54D10*
X739536Y179616D02*
X735092Y179616D01*
G54D10*
X736419Y118422D02*
X736419Y113089D01*
G54D10*
X738085Y110645D02*
X741419Y107312D01*
X732530Y107312D01*
G54D10*
X732530Y99535D02*
X732530Y104868D01*
X733085Y104868D01*
X734196Y104202D01*
X737530Y100202D01*
X738641Y99535D01*
X739752Y99535D01*
X740863Y100202D01*
X741419Y101535D01*
X741419Y102868D01*
X740863Y104202D01*
X739752Y104868D01*
G54D10*
X741419Y97091D02*
X732530Y93758D01*
X741419Y90425D01*
G54D10*
X736419Y87980D02*
X736419Y82647D01*
G54D10*
X738641Y85314D02*
X734196Y85314D01*
G54D11*
X809625Y460375D02*
X809625Y511175D01*
X708025Y511175D01*
X708025Y460375D01*
G54D11*
X809625Y460375D02*
X809625Y422275D01*
X708025Y422275D01*
X708025Y460375D01*
G54D11*
X796925Y511175D02*
X796925Y498475D01*
X771525Y498475D01*
X771525Y511175D01*
G54D11*
X746125Y511175D02*
X746125Y498475D01*
X720725Y498475D01*
X720725Y511175D01*
G54D11*
X669925Y327025D02*
X730250Y327025D01*
G54D11*
X669925Y403225D02*
X730250Y403225D01*
X730250Y327025D01*
G54D11*
X669925Y327025D02*
X669925Y403225D01*
G54D11*
X669925Y352425D02*
X676275Y352425D01*
X676275Y377825D01*
X669925Y377825D01*
G54D11*
X669925Y238125D02*
X730250Y238125D01*
G54D11*
X669925Y314325D02*
X730250Y314325D01*
X730250Y238125D01*
G54D11*
X669925Y238125D02*
X669925Y314325D01*
G54D11*
X669925Y263525D02*
X676275Y263525D01*
X676275Y288925D01*
X669925Y288925D01*
G54D11*
X669925Y149225D02*
X730250Y149225D01*
G54D11*
X669925Y225425D02*
X730250Y225425D01*
X730250Y149225D01*
G54D11*
X669925Y149225D02*
X669925Y225425D01*
G54D11*
X669925Y174625D02*
X676275Y174625D01*
X676275Y200025D01*
X669925Y200025D01*
G54D11*
X849312Y371475D02*
X744538Y371475D01*
X744538Y206375D01*
X849312Y206375D01*
X849312Y371475D01*
G54D11*
X835025Y371475D02*
X835025Y346075D01*
X758825Y346075D01*
X758825Y371475D01*
G54D10*
X816992Y319803D02*
X816992Y325358D01*
X817658Y326469D01*
X818992Y327025D01*
X820325Y327025D01*
X821658Y326469D01*
X822325Y325358D01*
X822325Y319803D01*
X821658Y318692D01*
X820325Y318136D01*
X818992Y318136D01*
X817658Y318692D01*
X816992Y319803D01*
G54D10*
X814548Y327025D02*
X814548Y318136D01*
G54D10*
X814548Y324247D02*
X809215Y318136D01*
G54D10*
X812548Y322581D02*
X809215Y327025D01*
G54D10*
X806771Y327025D02*
X806771Y318136D01*
G54D10*
X804327Y323136D02*
X798994Y323136D01*
G54D10*
X796550Y318136D02*
X791217Y318136D01*
X791883Y319247D01*
X793217Y320914D01*
X794550Y323136D01*
X795217Y324803D01*
X795217Y327025D01*
G54D10*
X785440Y322581D02*
X786773Y322581D01*
X788106Y322025D01*
X788773Y320914D01*
X788773Y319803D01*
X788106Y318692D01*
X786773Y318136D01*
X785440Y318136D01*
X784106Y318692D01*
X783440Y319803D01*
X783440Y320914D01*
X784106Y322025D01*
X785440Y322581D01*
X784106Y323136D01*
X783440Y324247D01*
X783440Y325358D01*
X784106Y326469D01*
X785440Y327025D01*
X786773Y327025D01*
X788106Y326469D01*
X788773Y325358D01*
X788773Y324247D01*
X788106Y323136D01*
X786773Y322581D01*
G54D10*
X780996Y325358D02*
X780329Y326469D01*
X778996Y327025D01*
X777663Y327025D01*
X776329Y326469D01*
X775663Y325358D01*
X775663Y324247D01*
X776329Y323136D01*
X777663Y322581D01*
X778996Y322581D01*
X780329Y322025D01*
X780996Y320914D01*
X780996Y319803D01*
X780329Y318692D01*
X778996Y318136D01*
X777663Y318136D01*
X776329Y318692D01*
X775663Y319803D01*
G54D10*
X770552Y322581D02*
X768552Y323692D01*
X767886Y324803D01*
X767886Y327025D01*
G54D10*
X773219Y327025D02*
X773219Y318136D01*
X769886Y318136D01*
X768552Y318692D01*
X767886Y319803D01*
X767886Y320914D01*
X768552Y322025D01*
X769886Y322581D01*
X773219Y322581D01*
G54D10*
X817388Y332503D02*
X817388Y338058D01*
X818055Y339169D01*
X819388Y339725D01*
X820722Y339725D01*
X822055Y339169D01*
X822722Y338058D01*
X822722Y332503D01*
X822055Y331392D01*
X820722Y330836D01*
X819388Y330836D01*
X818055Y331392D01*
X817388Y332503D01*
G54D10*
X794258Y335281D02*
X791592Y335281D01*
X791592Y338058D01*
X792258Y339169D01*
X793592Y339725D01*
X794925Y339725D01*
X796258Y339169D01*
X796925Y338058D01*
X796925Y332503D01*
X796258Y331392D01*
X794925Y330836D01*
X793592Y330836D01*
X792258Y331392D01*
X791592Y332503D01*
G54D10*
X771525Y339725D02*
X771525Y330836D01*
G54D11*
X963612Y371475D02*
X858838Y371475D01*
X858838Y206375D01*
X963612Y206375D01*
X963612Y371475D01*
G54D11*
X949325Y371475D02*
X949325Y346075D01*
X873125Y346075D01*
X873125Y371475D01*
G54D10*
X931292Y319803D02*
X931292Y325358D01*
X931958Y326469D01*
X933292Y327025D01*
X934625Y327025D01*
X935958Y326469D01*
X936625Y325358D01*
X936625Y319803D01*
X935958Y318692D01*
X934625Y318136D01*
X933292Y318136D01*
X931958Y318692D01*
X931292Y319803D01*
G54D10*
X928848Y327025D02*
X928848Y318136D01*
G54D10*
X928848Y324247D02*
X923515Y318136D01*
G54D10*
X926848Y322581D02*
X923515Y327025D01*
G54D10*
X921071Y327025D02*
X921071Y318136D01*
G54D10*
X918627Y323136D02*
X913294Y323136D01*
G54D10*
X910850Y318136D02*
X905517Y318136D01*
X906183Y319247D01*
X907517Y320914D01*
X908850Y323136D01*
X909517Y324803D01*
X909517Y327025D01*
G54D10*
X899740Y322581D02*
X901073Y322581D01*
X902406Y322025D01*
X903073Y320914D01*
X903073Y319803D01*
X902406Y318692D01*
X901073Y318136D01*
X899740Y318136D01*
X898406Y318692D01*
X897740Y319803D01*
X897740Y320914D01*
X898406Y322025D01*
X899740Y322581D01*
X898406Y323136D01*
X897740Y324247D01*
X897740Y325358D01*
X898406Y326469D01*
X899740Y327025D01*
X901073Y327025D01*
X902406Y326469D01*
X903073Y325358D01*
X903073Y324247D01*
X902406Y323136D01*
X901073Y322581D01*
G54D10*
X895296Y325358D02*
X894629Y326469D01*
X893296Y327025D01*
X891963Y327025D01*
X890629Y326469D01*
X889963Y325358D01*
X889963Y324247D01*
X890629Y323136D01*
X891963Y322581D01*
X893296Y322581D01*
X894629Y322025D01*
X895296Y320914D01*
X895296Y319803D01*
X894629Y318692D01*
X893296Y318136D01*
X891963Y318136D01*
X890629Y318692D01*
X889963Y319803D01*
G54D10*
X884852Y322581D02*
X882852Y323692D01*
X882186Y324803D01*
X882186Y327025D01*
G54D10*
X887519Y327025D02*
X887519Y318136D01*
X884186Y318136D01*
X882852Y318692D01*
X882186Y319803D01*
X882186Y320914D01*
X882852Y322025D01*
X884186Y322581D01*
X887519Y322581D01*
G54D10*
X931688Y332503D02*
X931688Y338058D01*
X932355Y339169D01*
X933688Y339725D01*
X935022Y339725D01*
X936355Y339169D01*
X937022Y338058D01*
X937022Y332503D01*
X936355Y331392D01*
X935022Y330836D01*
X933688Y330836D01*
X932355Y331392D01*
X931688Y332503D01*
G54D10*
X908558Y335281D02*
X905892Y335281D01*
X905892Y338058D01*
X906558Y339169D01*
X907892Y339725D01*
X909225Y339725D01*
X910558Y339169D01*
X911225Y338058D01*
X911225Y332503D01*
X910558Y331392D01*
X909225Y330836D01*
X907892Y330836D01*
X906558Y331392D01*
X905892Y332503D01*
G54D10*
X885825Y339725D02*
X885825Y330836D01*
G54D11*
X735409Y416719D02*
X808434Y416719D01*
X808434Y383381D01*
X735409Y383381D01*
X735409Y416719D01*
G54D11*
X967383Y392906D02*
X967383Y380405D01*
X835819Y380405D01*
X835819Y392906D01*
G54D11*
X967383Y442119D02*
X967383Y520303D01*
X835819Y520303D01*
X835819Y442119D01*
G54D10*
X932499Y405606D02*
X941388Y408940D01*
X932499Y412273D01*
G54D10*
X939721Y420050D02*
X940832Y419384D01*
X941388Y418050D01*
X941388Y416717D01*
X940832Y415384D01*
X939721Y414717D01*
X934165Y414717D01*
X933054Y415384D01*
X932499Y416717D01*
X932499Y418050D01*
X933054Y419384D01*
X934165Y420050D01*
G54D10*
X939721Y427828D02*
X940832Y427161D01*
X941388Y425828D01*
X941388Y424494D01*
X940832Y423161D01*
X939721Y422494D01*
X934165Y422494D01*
X933054Y423161D01*
X932499Y424494D01*
X932499Y425828D01*
X933054Y427161D01*
X934165Y427828D01*
G54D10*
X915988Y405606D02*
X907099Y405606D01*
X907099Y408940D01*
X907654Y410273D01*
X908765Y410940D01*
X914321Y410940D01*
X915432Y410273D01*
X915988Y408940D01*
X915988Y405606D01*
G54D10*
X912099Y413383D02*
X912099Y418716D01*
G54D10*
X896938Y405606D02*
X888049Y405606D01*
X888049Y408940D01*
X888604Y410273D01*
X889715Y410940D01*
X895271Y410940D01*
X896382Y410273D01*
X896938Y408940D01*
X896938Y405606D01*
G54D10*
X893049Y413383D02*
X893049Y418716D01*
G54D10*
X890826Y416050D02*
X895271Y416050D01*
G54D10*
X867093Y408273D02*
X867093Y410940D01*
X869871Y410940D01*
X870982Y410273D01*
X871538Y408940D01*
X871538Y407606D01*
X870982Y406273D01*
X869871Y405606D01*
X864315Y405606D01*
X863204Y406273D01*
X862649Y407606D01*
X862649Y408940D01*
X863204Y410273D01*
X864315Y410940D01*
G54D10*
X871538Y413383D02*
X862649Y413383D01*
X871538Y418716D01*
X862649Y418717D01*
G54D10*
X871538Y421160D02*
X862649Y421160D01*
X862649Y424494D01*
X863204Y425827D01*
X864315Y426494D01*
X869871Y426494D01*
X870982Y425827D01*
X871538Y424494D01*
X871538Y421160D01*
G54D11*
X809625Y511175D02*
X835025Y511175D01*
X835025Y460375D01*
X809625Y460375D01*
X809625Y511175D01*
G54D10*
X889714Y104775D02*
X889714Y99442D01*
G54D10*
X894714Y91665D02*
X894714Y96998D01*
X890825Y96998D01*
X890825Y96331D01*
X891380Y94998D01*
X891380Y93665D01*
X890825Y92331D01*
X889714Y91665D01*
X887492Y91665D01*
X886380Y92331D01*
X885825Y93665D01*
X885825Y94998D01*
X886380Y96331D01*
X887492Y96998D01*
G54D10*
X894714Y89221D02*
X885825Y85888D01*
X894714Y82554D01*
G54D10*
X889714Y80110D02*
X889714Y74777D01*
G54D10*
X891936Y77443D02*
X887492Y77443D01*
G54D11*
X822325Y60325D02*
X882650Y60325D01*
G54D11*
X822325Y136525D02*
X882650Y136525D01*
X882650Y60325D01*
G54D11*
X822325Y60325D02*
X822325Y136525D01*
G54D11*
X822325Y85725D02*
X828675Y85725D01*
X828675Y111125D01*
X822325Y111125D01*
G54D11*
X669925Y60325D02*
X730250Y60325D01*
G54D11*
X669925Y136525D02*
X730250Y136525D01*
X730250Y60325D01*
G54D11*
X669925Y60325D02*
X669925Y136525D01*
G54D11*
X669925Y85725D02*
X676275Y85725D01*
X676275Y111125D01*
X669925Y111125D01*
G54D10*
X738803Y302892D02*
X738803Y297559D01*
G54D10*
X734914Y289782D02*
X734914Y295115D01*
X735469Y295115D01*
X736580Y294448D01*
X739914Y290448D01*
X741025Y289782D01*
X742136Y289782D01*
X743247Y290448D01*
X743803Y291782D01*
X743803Y293115D01*
X743247Y294448D01*
X742136Y295115D01*
G54D10*
X734914Y283338D02*
X743803Y283338D01*
X738247Y287338D01*
X737136Y287338D01*
X737136Y282005D01*
G54D10*
X743803Y279561D02*
X734914Y276228D01*
X743803Y272894D01*
G54D10*
X738803Y270450D02*
X738803Y265117D01*
G54D10*
X741025Y267784D02*
X736580Y267784D01*
G54D12*
X666775Y468425D02*
X666775Y490425D01*
X704775Y490425D01*
X704775Y468425D01*
X666775Y468425D01*
G54D12*
X666775Y493825D02*
X666775Y515825D01*
X704775Y515825D01*
X704775Y493825D01*
X666775Y493825D01*
G54D12*
X793775Y173150D02*
X793775Y195150D01*
X831775Y195150D01*
X831775Y173150D01*
X793775Y173150D01*
G54D12*
X793775Y147750D02*
X793775Y169750D01*
X831775Y169750D01*
X831775Y147750D01*
X793775Y147750D01*
G54D12*
X746150Y147750D02*
X746150Y169750D01*
X784150Y169750D01*
X784150Y147750D01*
X746150Y147750D01*
G54D12*
X746150Y173150D02*
X746150Y195150D01*
X784150Y195150D01*
X784150Y173150D01*
X746150Y173150D01*
G54D11*
X841375Y193675D02*
X892175Y193675D01*
X892175Y168275D01*
X841375Y168275D01*
X841375Y193675D01*
G54D12*
X966875Y368250D02*
X988875Y368250D01*
X988875Y330250D01*
X966875Y330250D01*
X966875Y368250D01*
G54D10*
X884808Y202564D02*
X879475Y202564D01*
X879475Y198675D01*
X880142Y198675D01*
X881475Y199231D01*
X882808Y199231D01*
X884142Y198675D01*
X884808Y197564D01*
X884808Y195342D01*
X884142Y194231D01*
X882808Y193675D01*
X881475Y193675D01*
X880142Y194231D01*
X879475Y195342D01*
G54D10*
X887252Y198675D02*
X889919Y193675D01*
X892585Y198675D01*
G54D10*
X850392Y198119D02*
X853058Y198119D01*
X853058Y195342D01*
X852392Y194231D01*
X851058Y193675D01*
X849725Y193675D01*
X848392Y194231D01*
X847725Y195342D01*
X847725Y200897D01*
X848392Y202008D01*
X849725Y202564D01*
X851058Y202564D01*
X852392Y202008D01*
X853058Y200897D01*
G54D10*
X855502Y193675D02*
X855502Y202564D01*
X860835Y193675D01*
X860835Y202564D01*
G54D10*
X863279Y193675D02*
X863279Y202564D01*
X866612Y202564D01*
X867946Y202008D01*
X868612Y200897D01*
X868612Y195342D01*
X867946Y194231D01*
X866612Y193675D01*
X863279Y193675D01*
G54D10*
X824864Y457200D02*
X815975Y453867D01*
X824864Y450533D01*
G54D10*
X820420Y518033D02*
X820420Y515367D01*
X817642Y515367D01*
X816530Y516033D01*
X815975Y517367D01*
X815975Y518700D01*
X816530Y520033D01*
X817642Y520700D01*
X823197Y520700D01*
X824308Y520033D01*
X824864Y518700D01*
X824864Y517367D01*
X824308Y516033D01*
X823197Y515367D01*
G54D11*
X746125Y60325D02*
X806450Y60325D01*
G54D11*
X746125Y136525D02*
X806450Y136525D01*
X806450Y60325D01*
G54D11*
X746125Y60325D02*
X746125Y136525D01*
G54D11*
X746125Y85725D02*
X752475Y85725D01*
X752475Y111125D01*
X746125Y111125D01*
G54D10*
X813514Y117475D02*
X813514Y112142D01*
G54D10*
X818514Y104365D02*
X818514Y109698D01*
X814625Y109698D01*
X814625Y109031D01*
X815180Y107698D01*
X815180Y106365D01*
X814625Y105031D01*
X813514Y104365D01*
X811292Y104365D01*
X810180Y105031D01*
X809625Y106365D01*
X809625Y107698D01*
X810180Y109031D01*
X811292Y109698D01*
G54D10*
X818514Y101921D02*
X809625Y98588D01*
X818514Y95254D01*
G54D10*
X813514Y92810D02*
X813514Y87477D01*
G54D10*
X815736Y90143D02*
X811292Y90143D01*
G54D11*
X894835Y71836D02*
X978179Y71836D01*
X978179Y155180D01*
X894835Y155180D01*
X894835Y71836D01*
G54D11*
G75*
G01X896507Y113508D02*
G03X896507Y113508I40000J0D01*
G01*
G54D10*
X916663Y94934D02*
X911330Y94934D01*
G54D10*
X914282Y133828D02*
X908949Y133828D01*
G54D10*
X911615Y131606D02*
X911615Y136050D01*
G54D12*
X850925Y141400D02*
X850925Y163400D01*
X888925Y163400D01*
X888925Y141400D01*
X850925Y141400D01*
G54D11*
X707430Y414536D02*
X664170Y414536D01*
X664170Y457795D01*
X707430Y457795D01*
X707430Y414536D01*
G54D11*
G75*
G01X665830Y436383D02*
G03X665830Y436383I20000J0D01*
G01*
G54D10*
X678855Y426522D02*
X673521Y426522D01*
G54D10*
X676188Y424300D02*
X676188Y428744D01*
G54D10*
X678458Y446763D02*
X673124Y446763D01*
G54D11*
X923925Y193675D02*
X974725Y193675D01*
X974725Y168275D01*
X923925Y168275D01*
X923925Y193675D01*
G54D10*
X955167Y198119D02*
X957833Y198119D01*
X957833Y195342D01*
X957167Y194231D01*
X955833Y193675D01*
X954500Y193675D01*
X953167Y194231D01*
X952500Y195342D01*
X952500Y200897D01*
X953167Y202008D01*
X954500Y202564D01*
X955833Y202564D01*
X957167Y202008D01*
X957833Y200897D01*
G54D10*
X960277Y193675D02*
X960277Y202564D01*
X965610Y193675D01*
X965610Y202564D01*
G54D10*
X968054Y193675D02*
X968054Y202564D01*
X971387Y202564D01*
X972721Y202008D01*
X973387Y200897D01*
X973387Y195342D01*
X972721Y194231D01*
X971387Y193675D01*
X968054Y193675D01*
G54D10*
X932433Y202564D02*
X927100Y202564D01*
X927100Y198675D01*
X927767Y198675D01*
X929100Y199231D01*
X930433Y199231D01*
X931767Y198675D01*
X932433Y197564D01*
X932433Y195342D01*
X931767Y194231D01*
X930433Y193675D01*
X929100Y193675D01*
X927767Y194231D01*
X927100Y195342D01*
G54D10*
X934877Y198675D02*
X937544Y193675D01*
X940210Y198675D01*
M02*
