%FSLAX34Y34*%
%MOMM*%
%LNSMDMASK_TOP*%
G71*
G01*
%ADD10R, 1.98X3.35*%
%ADD11R, 1.50X1.80*%
%ADD12R, 1.80X1.50*%
%ADD13R, 2.20X4.20*%
%ADD14R, 2.20X4.70*%
%ADD15R, 1.00X2.20*%
%LPD*%
X137716Y873125D02*
G54D10*
D03*
X85725Y873125D02*
G54D10*
D03*
X15875Y952500D02*
G54D11*
D03*
X34875Y952500D02*
G54D11*
D03*
X15875Y977900D02*
G54D11*
D03*
X34875Y977900D02*
G54D11*
D03*
X142875Y657225D02*
G54D11*
D03*
X161875Y657225D02*
G54D11*
D03*
X142875Y631825D02*
G54D11*
D03*
X161875Y631825D02*
G54D11*
D03*
X95250Y631825D02*
G54D11*
D03*
X114250Y631825D02*
G54D11*
D03*
X95250Y657225D02*
G54D11*
D03*
X114250Y657225D02*
G54D11*
D03*
X317475Y831825D02*
G54D12*
D03*
X317475Y812825D02*
G54D12*
D03*
X276107Y559595D02*
G54D13*
D03*
X276107Y613570D02*
G54D13*
D03*
X276107Y557214D02*
G54D14*
D03*
X276107Y616348D02*
G54D14*
D03*
X200025Y625475D02*
G54D11*
D03*
X219025Y625475D02*
G54D11*
D03*
X25400Y892175D02*
G54D15*
D03*
X25400Y926505D02*
G54D15*
D03*
X467916Y873125D02*
G54D10*
D03*
X415925Y873125D02*
G54D10*
D03*
X346075Y952500D02*
G54D11*
D03*
X365075Y952500D02*
G54D11*
D03*
X346075Y977900D02*
G54D11*
D03*
X365075Y977900D02*
G54D11*
D03*
X473075Y657225D02*
G54D11*
D03*
X492075Y657225D02*
G54D11*
D03*
X473075Y631825D02*
G54D11*
D03*
X492075Y631825D02*
G54D11*
D03*
X425450Y631825D02*
G54D11*
D03*
X444450Y631825D02*
G54D11*
D03*
X425450Y657225D02*
G54D11*
D03*
X444450Y657225D02*
G54D11*
D03*
X647675Y831825D02*
G54D12*
D03*
X647675Y812825D02*
G54D12*
D03*
X606307Y559595D02*
G54D13*
D03*
X606307Y613570D02*
G54D13*
D03*
X606307Y557214D02*
G54D14*
D03*
X606307Y616348D02*
G54D14*
D03*
X530225Y625475D02*
G54D11*
D03*
X549225Y625475D02*
G54D11*
D03*
X355600Y892175D02*
G54D15*
D03*
X355600Y926505D02*
G54D15*
D03*
X798116Y873125D02*
G54D10*
D03*
X746125Y873125D02*
G54D10*
D03*
X676275Y952500D02*
G54D11*
D03*
X695275Y952500D02*
G54D11*
D03*
X676275Y977900D02*
G54D11*
D03*
X695275Y977900D02*
G54D11*
D03*
X803275Y657225D02*
G54D11*
D03*
X822275Y657225D02*
G54D11*
D03*
X803275Y631825D02*
G54D11*
D03*
X822275Y631825D02*
G54D11*
D03*
X755650Y631825D02*
G54D11*
D03*
X774650Y631825D02*
G54D11*
D03*
X755650Y657225D02*
G54D11*
D03*
X774650Y657225D02*
G54D11*
D03*
X977875Y831825D02*
G54D12*
D03*
X977875Y812825D02*
G54D12*
D03*
X936507Y559595D02*
G54D13*
D03*
X936507Y613570D02*
G54D13*
D03*
X936507Y557214D02*
G54D14*
D03*
X936507Y616348D02*
G54D14*
D03*
X860425Y625475D02*
G54D11*
D03*
X879425Y625475D02*
G54D11*
D03*
X685800Y892175D02*
G54D15*
D03*
X685800Y926505D02*
G54D15*
D03*
X137716Y403225D02*
G54D10*
D03*
X85725Y403225D02*
G54D10*
D03*
X15875Y482600D02*
G54D11*
D03*
X34875Y482600D02*
G54D11*
D03*
X15875Y508000D02*
G54D11*
D03*
X34875Y508000D02*
G54D11*
D03*
X142875Y187325D02*
G54D11*
D03*
X161875Y187325D02*
G54D11*
D03*
X142875Y161925D02*
G54D11*
D03*
X161875Y161925D02*
G54D11*
D03*
X95250Y161925D02*
G54D11*
D03*
X114250Y161925D02*
G54D11*
D03*
X95250Y187325D02*
G54D11*
D03*
X114250Y187325D02*
G54D11*
D03*
X317475Y361925D02*
G54D12*
D03*
X317475Y342925D02*
G54D12*
D03*
X276107Y89695D02*
G54D13*
D03*
X276107Y143670D02*
G54D13*
D03*
X276107Y87314D02*
G54D14*
D03*
X276107Y146448D02*
G54D14*
D03*
X200025Y155575D02*
G54D11*
D03*
X219025Y155575D02*
G54D11*
D03*
X25400Y422275D02*
G54D15*
D03*
X25400Y456605D02*
G54D15*
D03*
X467916Y403225D02*
G54D10*
D03*
X415925Y403225D02*
G54D10*
D03*
X346075Y482600D02*
G54D11*
D03*
X365075Y482600D02*
G54D11*
D03*
X346075Y508000D02*
G54D11*
D03*
X365075Y508000D02*
G54D11*
D03*
X473075Y187325D02*
G54D11*
D03*
X492075Y187325D02*
G54D11*
D03*
X473075Y161925D02*
G54D11*
D03*
X492075Y161925D02*
G54D11*
D03*
X425450Y161925D02*
G54D11*
D03*
X444450Y161925D02*
G54D11*
D03*
X425450Y187325D02*
G54D11*
D03*
X444450Y187325D02*
G54D11*
D03*
X647675Y361925D02*
G54D12*
D03*
X647675Y342925D02*
G54D12*
D03*
X606307Y89695D02*
G54D13*
D03*
X606307Y143670D02*
G54D13*
D03*
X606307Y87314D02*
G54D14*
D03*
X606307Y146448D02*
G54D14*
D03*
X530225Y155575D02*
G54D11*
D03*
X549225Y155575D02*
G54D11*
D03*
X355600Y422275D02*
G54D15*
D03*
X355600Y456605D02*
G54D15*
D03*
X798116Y403225D02*
G54D10*
D03*
X746125Y403225D02*
G54D10*
D03*
X676275Y482600D02*
G54D11*
D03*
X695275Y482600D02*
G54D11*
D03*
X676275Y508000D02*
G54D11*
D03*
X695275Y508000D02*
G54D11*
D03*
X803275Y187325D02*
G54D11*
D03*
X822275Y187325D02*
G54D11*
D03*
X803275Y161925D02*
G54D11*
D03*
X822275Y161925D02*
G54D11*
D03*
X755650Y161925D02*
G54D11*
D03*
X774650Y161925D02*
G54D11*
D03*
X755650Y187325D02*
G54D11*
D03*
X774650Y187325D02*
G54D11*
D03*
X977875Y361925D02*
G54D12*
D03*
X977875Y342925D02*
G54D12*
D03*
X936507Y89695D02*
G54D13*
D03*
X936507Y143670D02*
G54D13*
D03*
X936507Y87314D02*
G54D14*
D03*
X936507Y146448D02*
G54D14*
D03*
X860425Y155575D02*
G54D11*
D03*
X879425Y155575D02*
G54D11*
D03*
X685800Y422275D02*
G54D15*
D03*
X685800Y456605D02*
G54D15*
D03*
M02*
