%FSLAX34Y34*%
%MOMM*%
%LNSOLDERMASK_BOTTOM*%
G71*
G01*
%ADD10C, 2.40*%
%ADD11C, 2.40*%
%ADD12R, 0.47X0.47*%
%LPD*%
G36*
X141825Y935505D02*
X131295Y924975D01*
X116355Y924975D01*
X105825Y935505D01*
X105825Y950445D01*
X116355Y960975D01*
X131295Y960975D01*
X141825Y950445D01*
X141825Y935505D01*
G37*
G36*
X91025Y935505D02*
X80495Y924975D01*
X65555Y924975D01*
X55025Y935505D01*
X55025Y950445D01*
X65555Y960975D01*
X80495Y960975D01*
X91025Y950445D01*
X91025Y935505D01*
G37*
X34925Y822325D02*
G54D10*
D03*
X34925Y847725D02*
G54D10*
D03*
X34925Y733425D02*
G54D10*
D03*
X34925Y758825D02*
G54D10*
D03*
X34925Y644525D02*
G54D10*
D03*
X34925Y669925D02*
G54D10*
D03*
G36*
X55025Y950445D02*
X65555Y960975D01*
X80495Y960975D01*
X91025Y950445D01*
X91025Y935505D01*
X80495Y924975D01*
X65555Y924975D01*
X55025Y935505D01*
X55025Y950445D01*
G37*
X34925Y847725D02*
G54D10*
D03*
X34925Y758825D02*
G54D10*
D03*
X34925Y669925D02*
G54D10*
D03*
X206375Y860425D02*
G54D10*
D03*
G36*
X173925Y823695D02*
X166905Y816675D01*
X156945Y816675D01*
X149925Y823695D01*
X149925Y833655D01*
X156945Y840675D01*
X166905Y840675D01*
X173925Y833655D01*
X173925Y823695D01*
G37*
G36*
X148525Y823695D02*
X141505Y816675D01*
X131545Y816675D01*
X124525Y823695D01*
X124525Y833655D01*
X131545Y840675D01*
X141505Y840675D01*
X148525Y833655D01*
X148525Y823695D01*
G37*
G36*
X123125Y823695D02*
X116105Y816675D01*
X106145Y816675D01*
X99125Y823695D01*
X99125Y833655D01*
X106145Y840675D01*
X116105Y840675D01*
X123125Y833655D01*
X123125Y823695D01*
G37*
G36*
X288225Y823695D02*
X281205Y816675D01*
X271245Y816675D01*
X264225Y823695D01*
X264225Y833655D01*
X271245Y840675D01*
X281205Y840675D01*
X288225Y833655D01*
X288225Y823695D01*
G37*
G36*
X262825Y823695D02*
X255805Y816675D01*
X245845Y816675D01*
X238825Y823695D01*
X238825Y833655D01*
X245845Y840675D01*
X255805Y840675D01*
X262825Y833655D01*
X262825Y823695D01*
G37*
G36*
X237425Y823695D02*
X230405Y816675D01*
X220445Y816675D01*
X213425Y823695D01*
X213425Y833655D01*
X220445Y840675D01*
X230405Y840675D01*
X237425Y833655D01*
X237425Y823695D01*
G37*
G36*
X148525Y823695D02*
X141505Y816675D01*
X131545Y816675D01*
X124525Y823695D01*
X124525Y833655D01*
X131545Y840675D01*
X141505Y840675D01*
X148525Y833655D01*
X148525Y823695D01*
G37*
G36*
X262825Y823695D02*
X255805Y816675D01*
X245845Y816675D01*
X238825Y823695D01*
X238825Y833655D01*
X245845Y840675D01*
X255805Y840675D01*
X262825Y833655D01*
X262825Y823695D01*
G37*
G36*
X73725Y874930D02*
X80745Y881950D01*
X90705Y881950D01*
X97725Y874930D01*
X97725Y864970D01*
X90705Y857950D01*
X80745Y857950D01*
X73725Y864970D01*
X73725Y874930D01*
G37*
X276225Y860425D02*
G54D10*
D03*
X251222Y860425D02*
G54D10*
D03*
X231378Y860425D02*
G54D10*
D03*
X206375Y860425D02*
G54D10*
D03*
G36*
X329983Y877867D02*
X316528Y864412D01*
X297438Y864412D01*
X283983Y877867D01*
X283983Y896957D01*
X297438Y910412D01*
X316528Y910412D01*
X329983Y896957D01*
X329983Y877867D01*
G37*
G36*
X198419Y877867D02*
X184964Y864412D01*
X165874Y864412D01*
X152419Y877867D01*
X152419Y896957D01*
X165874Y910412D01*
X184964Y910412D01*
X198419Y896957D01*
X198419Y877867D01*
G37*
X161925Y968375D02*
G54D11*
D03*
X161925Y942975D02*
G54D11*
D03*
X187325Y555625D02*
G54D10*
D03*
X187325Y581025D02*
G54D10*
D03*
X187325Y581025D02*
G54D10*
D03*
X34925Y555625D02*
G54D10*
D03*
X34925Y581025D02*
G54D10*
D03*
X34925Y581025D02*
G54D10*
D03*
X193675Y650875D02*
G54D11*
D03*
X219075Y650875D02*
G54D11*
D03*
X111125Y555625D02*
G54D10*
D03*
X111125Y581025D02*
G54D10*
D03*
X111125Y581025D02*
G54D10*
D03*
X323850Y942975D02*
G54D12*
D03*
X320675Y939800D02*
G54D12*
D03*
X317500Y936625D02*
G54D12*
D03*
X314325Y933450D02*
G54D12*
D03*
X323850Y949325D02*
G54D12*
D03*
X320675Y952500D02*
G54D12*
D03*
X317500Y955675D02*
G54D12*
D03*
X314325Y958850D02*
G54D12*
D03*
X311150Y962025D02*
G54D12*
D03*
X311150Y930275D02*
G54D12*
D03*
X307975Y927100D02*
G54D12*
D03*
X304800Y923925D02*
G54D12*
D03*
X301625Y920750D02*
G54D12*
D03*
X295275Y920750D02*
G54D12*
D03*
X292100Y923925D02*
G54D12*
D03*
X288925Y927100D02*
G54D12*
D03*
X285750Y930275D02*
G54D12*
D03*
X282575Y933450D02*
G54D12*
D03*
X279400Y936625D02*
G54D12*
D03*
X276225Y939800D02*
G54D12*
D03*
X273050Y942975D02*
G54D12*
D03*
X269875Y946150D02*
G54D12*
D03*
X307975Y965200D02*
G54D12*
D03*
X304800Y968375D02*
G54D12*
D03*
X301625Y971550D02*
G54D12*
D03*
X298450Y974725D02*
G54D12*
D03*
X282575Y971550D02*
G54D12*
D03*
X273050Y962025D02*
G54D12*
D03*
X269875Y965200D02*
G54D12*
D03*
X279400Y974725D02*
G54D12*
D03*
X279400Y981075D02*
G54D12*
D03*
X276225Y984250D02*
G54D12*
D03*
X273050Y981075D02*
G54D12*
D03*
X269875Y977900D02*
G54D12*
D03*
X266700Y974725D02*
G54D12*
D03*
X263525Y971550D02*
G54D12*
D03*
X260350Y968375D02*
G54D12*
D03*
X263525Y965200D02*
G54D12*
D03*
X314325Y952500D02*
G54D12*
D03*
X311150Y952500D02*
G54D12*
D03*
X307975Y955675D02*
G54D12*
D03*
X304800Y952500D02*
G54D12*
D03*
X301625Y952500D02*
G54D12*
D03*
X298450Y952500D02*
G54D12*
D03*
X295275Y949325D02*
G54D12*
D03*
X292100Y949325D02*
G54D12*
D03*
X288925Y952500D02*
G54D12*
D03*
X285750Y952500D02*
G54D12*
D03*
X282575Y952500D02*
G54D12*
D03*
X279400Y952500D02*
G54D12*
D03*
X276225Y952500D02*
G54D12*
D03*
X273050Y949325D02*
G54D12*
D03*
X257175Y977900D02*
G54D12*
D03*
X257175Y974725D02*
G54D12*
D03*
X257175Y971550D02*
G54D12*
D03*
X254000Y971550D02*
G54D12*
D03*
X254000Y977900D02*
G54D12*
D03*
X250825Y977900D02*
G54D12*
D03*
X250825Y981075D02*
G54D12*
D03*
X250825Y984250D02*
G54D12*
D03*
X247650Y984250D02*
G54D12*
D03*
X244475Y984250D02*
G54D12*
D03*
X244475Y981075D02*
G54D12*
D03*
X244475Y977900D02*
G54D12*
D03*
X241300Y977900D02*
G54D12*
D03*
X238125Y977900D02*
G54D12*
D03*
X238125Y974725D02*
G54D12*
D03*
X238125Y971550D02*
G54D12*
D03*
X241300Y971550D02*
G54D12*
D03*
X244475Y971550D02*
G54D12*
D03*
X250825Y971550D02*
G54D12*
D03*
X250825Y968375D02*
G54D12*
D03*
X250825Y965200D02*
G54D12*
D03*
X247650Y965200D02*
G54D12*
D03*
X244475Y965200D02*
G54D12*
D03*
X244475Y968375D02*
G54D12*
D03*
X295275Y977900D02*
G54D12*
D03*
X288925Y977900D02*
G54D12*
D03*
X285750Y974725D02*
G54D12*
D03*
X269875Y958850D02*
G54D12*
D03*
X266700Y955675D02*
G54D12*
D03*
X266700Y949325D02*
G54D12*
D03*
X269875Y939800D02*
G54D12*
D03*
X266700Y939800D02*
G54D12*
D03*
X263525Y939800D02*
G54D12*
D03*
X260350Y939800D02*
G54D12*
D03*
X257175Y939800D02*
G54D12*
D03*
X263525Y936625D02*
G54D12*
D03*
X263525Y933450D02*
G54D12*
D03*
X263525Y930275D02*
G54D12*
D03*
X263525Y927100D02*
G54D12*
D03*
X263525Y923925D02*
G54D12*
D03*
X266700Y920750D02*
G54D12*
D03*
X269875Y920750D02*
G54D12*
D03*
X273050Y923925D02*
G54D12*
D03*
X254000Y920750D02*
G54D12*
D03*
X250825Y923925D02*
G54D12*
D03*
X250825Y927100D02*
G54D12*
D03*
X250825Y930275D02*
G54D12*
D03*
X250825Y933450D02*
G54D12*
D03*
X247650Y920750D02*
G54D12*
D03*
X244475Y920750D02*
G54D12*
D03*
X241300Y920750D02*
G54D12*
D03*
X241300Y923925D02*
G54D12*
D03*
X241300Y927100D02*
G54D12*
D03*
X241300Y930275D02*
G54D12*
D03*
X241300Y933450D02*
G54D12*
D03*
X234950Y936625D02*
G54D12*
D03*
X234950Y930275D02*
G54D12*
D03*
X234950Y927100D02*
G54D12*
D03*
X234950Y923925D02*
G54D12*
D03*
X234950Y920750D02*
G54D12*
D03*
X228600Y923925D02*
G54D12*
D03*
X228600Y927100D02*
G54D12*
D03*
X228600Y930275D02*
G54D12*
D03*
X225425Y933450D02*
G54D12*
D03*
X222250Y933450D02*
G54D12*
D03*
X225425Y920750D02*
G54D12*
D03*
X222250Y920750D02*
G54D12*
D03*
X219075Y920750D02*
G54D12*
D03*
X219075Y933450D02*
G54D12*
D03*
X212725Y923925D02*
G54D12*
D03*
X212725Y927100D02*
G54D12*
D03*
X212725Y930275D02*
G54D12*
D03*
X209550Y933450D02*
G54D12*
D03*
X206375Y933450D02*
G54D12*
D03*
X203200Y933450D02*
G54D12*
D03*
X209550Y920750D02*
G54D12*
D03*
X206375Y920750D02*
G54D12*
D03*
X203200Y920750D02*
G54D12*
D03*
X200025Y930275D02*
G54D12*
D03*
X200025Y927100D02*
G54D12*
D03*
X203200Y927100D02*
G54D12*
D03*
X206375Y927100D02*
G54D12*
D03*
X209550Y927100D02*
G54D12*
D03*
X301625Y939800D02*
G54D12*
D03*
X298450Y936625D02*
G54D12*
D03*
X295275Y939800D02*
G54D12*
D03*
X298450Y942975D02*
G54D12*
D03*
X288925Y936625D02*
G54D12*
D03*
X311150Y946150D02*
G54D12*
D03*
X282575Y946150D02*
G54D12*
D03*
X298450Y927100D02*
G54D12*
D03*
X314325Y942975D02*
G54D12*
D03*
X254000Y958850D02*
G54D12*
D03*
X250825Y958850D02*
G54D12*
D03*
X247650Y958850D02*
G54D12*
D03*
X244475Y958850D02*
G54D12*
D03*
X241300Y958850D02*
G54D12*
D03*
X241300Y955675D02*
G54D12*
D03*
X241300Y952500D02*
G54D12*
D03*
X244475Y949325D02*
G54D12*
D03*
X247650Y946150D02*
G54D12*
D03*
X250825Y942975D02*
G54D12*
D03*
X238125Y965200D02*
G54D12*
D03*
X238125Y962025D02*
G54D12*
D03*
X234950Y962025D02*
G54D12*
D03*
X234950Y965200D02*
G54D12*
D03*
X231775Y958850D02*
G54D12*
D03*
X228600Y958850D02*
G54D12*
D03*
X225425Y958850D02*
G54D12*
D03*
X222250Y958850D02*
G54D12*
D03*
X219075Y958850D02*
G54D12*
D03*
X231775Y952500D02*
G54D12*
D03*
X228600Y952500D02*
G54D12*
D03*
X225425Y952500D02*
G54D12*
D03*
X222250Y952500D02*
G54D12*
D03*
X219075Y952500D02*
G54D12*
D03*
X219075Y949325D02*
G54D12*
D03*
X222250Y946150D02*
G54D12*
D03*
X225425Y942975D02*
G54D12*
D03*
X231775Y942975D02*
G54D12*
D03*
X228600Y942975D02*
G54D12*
D03*
X212725Y958850D02*
G54D12*
D03*
X209550Y958850D02*
G54D12*
D03*
X206375Y958850D02*
G54D12*
D03*
X203200Y958850D02*
G54D12*
D03*
X200025Y958850D02*
G54D12*
D03*
X200025Y955675D02*
G54D12*
D03*
X203200Y952500D02*
G54D12*
D03*
X206375Y949325D02*
G54D12*
D03*
X209550Y946150D02*
G54D12*
D03*
X212725Y942975D02*
G54D12*
D03*
X203200Y946150D02*
G54D12*
D03*
X200025Y942975D02*
G54D12*
D03*
X292100Y971550D02*
G54D12*
D03*
X295275Y968375D02*
G54D12*
D03*
X276225Y650875D02*
G54D11*
D03*
X298455Y650875D02*
G54D11*
D03*
G36*
X472025Y935505D02*
X461495Y924975D01*
X446555Y924975D01*
X436025Y935505D01*
X436025Y950445D01*
X446555Y960975D01*
X461495Y960975D01*
X472025Y950445D01*
X472025Y935505D01*
G37*
G36*
X421225Y935505D02*
X410695Y924975D01*
X395755Y924975D01*
X385225Y935505D01*
X385225Y950445D01*
X395755Y960975D01*
X410695Y960975D01*
X421225Y950445D01*
X421225Y935505D01*
G37*
X365125Y822325D02*
G54D10*
D03*
X365125Y847725D02*
G54D10*
D03*
X365125Y733425D02*
G54D10*
D03*
X365125Y758825D02*
G54D10*
D03*
X365125Y644525D02*
G54D10*
D03*
X365125Y669925D02*
G54D10*
D03*
G36*
X385225Y950445D02*
X395755Y960975D01*
X410695Y960975D01*
X421225Y950445D01*
X421225Y935505D01*
X410695Y924975D01*
X395755Y924975D01*
X385225Y935505D01*
X385225Y950445D01*
G37*
X365125Y847725D02*
G54D10*
D03*
X365125Y758825D02*
G54D10*
D03*
X365125Y669925D02*
G54D10*
D03*
X536575Y860425D02*
G54D10*
D03*
G36*
X504125Y823695D02*
X497105Y816675D01*
X487145Y816675D01*
X480125Y823695D01*
X480125Y833655D01*
X487145Y840675D01*
X497105Y840675D01*
X504125Y833655D01*
X504125Y823695D01*
G37*
G36*
X478725Y823695D02*
X471705Y816675D01*
X461745Y816675D01*
X454725Y823695D01*
X454725Y833655D01*
X461745Y840675D01*
X471705Y840675D01*
X478725Y833655D01*
X478725Y823695D01*
G37*
G36*
X453325Y823695D02*
X446305Y816675D01*
X436345Y816675D01*
X429325Y823695D01*
X429325Y833655D01*
X436345Y840675D01*
X446305Y840675D01*
X453325Y833655D01*
X453325Y823695D01*
G37*
G36*
X618425Y823695D02*
X611405Y816675D01*
X601445Y816675D01*
X594425Y823695D01*
X594425Y833655D01*
X601445Y840675D01*
X611405Y840675D01*
X618425Y833655D01*
X618425Y823695D01*
G37*
G36*
X593025Y823695D02*
X586005Y816675D01*
X576045Y816675D01*
X569025Y823695D01*
X569025Y833655D01*
X576045Y840675D01*
X586005Y840675D01*
X593025Y833655D01*
X593025Y823695D01*
G37*
G36*
X567625Y823695D02*
X560605Y816675D01*
X550645Y816675D01*
X543625Y823695D01*
X543625Y833655D01*
X550645Y840675D01*
X560605Y840675D01*
X567625Y833655D01*
X567625Y823695D01*
G37*
G36*
X478725Y823695D02*
X471705Y816675D01*
X461745Y816675D01*
X454725Y823695D01*
X454725Y833655D01*
X461745Y840675D01*
X471705Y840675D01*
X478725Y833655D01*
X478725Y823695D01*
G37*
G36*
X593025Y823695D02*
X586005Y816675D01*
X576045Y816675D01*
X569025Y823695D01*
X569025Y833655D01*
X576045Y840675D01*
X586005Y840675D01*
X593025Y833655D01*
X593025Y823695D01*
G37*
G36*
X403925Y874930D02*
X410945Y881950D01*
X420905Y881950D01*
X427925Y874930D01*
X427925Y864970D01*
X420905Y857950D01*
X410945Y857950D01*
X403925Y864970D01*
X403925Y874930D01*
G37*
X606425Y860425D02*
G54D10*
D03*
X581422Y860425D02*
G54D10*
D03*
X561578Y860425D02*
G54D10*
D03*
X536575Y860425D02*
G54D10*
D03*
G36*
X660183Y877868D02*
X646728Y864412D01*
X627638Y864412D01*
X614183Y877868D01*
X614183Y896958D01*
X627638Y910412D01*
X646728Y910412D01*
X660183Y896958D01*
X660183Y877868D01*
G37*
G36*
X528619Y877867D02*
X515164Y864412D01*
X496074Y864412D01*
X482619Y877867D01*
X482619Y896957D01*
X496074Y910412D01*
X515164Y910412D01*
X528619Y896957D01*
X528619Y877867D01*
G37*
X492125Y968375D02*
G54D11*
D03*
X492125Y942975D02*
G54D11*
D03*
X517525Y555625D02*
G54D10*
D03*
X517525Y581025D02*
G54D10*
D03*
X517525Y581025D02*
G54D10*
D03*
X365125Y555625D02*
G54D10*
D03*
X365125Y581025D02*
G54D10*
D03*
X365125Y581025D02*
G54D10*
D03*
X523875Y650875D02*
G54D11*
D03*
X549275Y650875D02*
G54D11*
D03*
X441325Y555625D02*
G54D10*
D03*
X441325Y581025D02*
G54D10*
D03*
X441325Y581025D02*
G54D10*
D03*
X654050Y942975D02*
G54D12*
D03*
X650875Y939800D02*
G54D12*
D03*
X647700Y936625D02*
G54D12*
D03*
X644525Y933450D02*
G54D12*
D03*
X654050Y949325D02*
G54D12*
D03*
X650875Y952500D02*
G54D12*
D03*
X647700Y955675D02*
G54D12*
D03*
X644525Y958850D02*
G54D12*
D03*
X641350Y962025D02*
G54D12*
D03*
X641350Y930275D02*
G54D12*
D03*
X638175Y927100D02*
G54D12*
D03*
X635000Y923925D02*
G54D12*
D03*
X631825Y920750D02*
G54D12*
D03*
X625475Y920750D02*
G54D12*
D03*
X622300Y923925D02*
G54D12*
D03*
X619125Y927100D02*
G54D12*
D03*
X615950Y930275D02*
G54D12*
D03*
X612775Y933450D02*
G54D12*
D03*
X609600Y936625D02*
G54D12*
D03*
X606425Y939800D02*
G54D12*
D03*
X603250Y942975D02*
G54D12*
D03*
X600075Y946150D02*
G54D12*
D03*
X638175Y965200D02*
G54D12*
D03*
X635000Y968375D02*
G54D12*
D03*
X631825Y971550D02*
G54D12*
D03*
X628650Y974725D02*
G54D12*
D03*
X612775Y971550D02*
G54D12*
D03*
X603250Y962025D02*
G54D12*
D03*
X600075Y965200D02*
G54D12*
D03*
X609600Y974725D02*
G54D12*
D03*
X609600Y981075D02*
G54D12*
D03*
X606425Y984250D02*
G54D12*
D03*
X603250Y981075D02*
G54D12*
D03*
X600075Y977900D02*
G54D12*
D03*
X596900Y974725D02*
G54D12*
D03*
X593725Y971550D02*
G54D12*
D03*
X590550Y968375D02*
G54D12*
D03*
X593725Y965200D02*
G54D12*
D03*
X644525Y952500D02*
G54D12*
D03*
X641350Y952500D02*
G54D12*
D03*
X638175Y955675D02*
G54D12*
D03*
X635000Y952500D02*
G54D12*
D03*
X631825Y952500D02*
G54D12*
D03*
X628650Y952500D02*
G54D12*
D03*
X625475Y949325D02*
G54D12*
D03*
X622300Y949325D02*
G54D12*
D03*
X619125Y952500D02*
G54D12*
D03*
X615950Y952500D02*
G54D12*
D03*
X612775Y952500D02*
G54D12*
D03*
X609600Y952500D02*
G54D12*
D03*
X606425Y952500D02*
G54D12*
D03*
X603250Y949325D02*
G54D12*
D03*
X587375Y977900D02*
G54D12*
D03*
X587375Y974725D02*
G54D12*
D03*
X587375Y971550D02*
G54D12*
D03*
X584200Y971550D02*
G54D12*
D03*
X584200Y977900D02*
G54D12*
D03*
X581025Y977900D02*
G54D12*
D03*
X581025Y981075D02*
G54D12*
D03*
X581025Y984250D02*
G54D12*
D03*
X577850Y984250D02*
G54D12*
D03*
X574675Y984250D02*
G54D12*
D03*
X574675Y981075D02*
G54D12*
D03*
X574675Y977900D02*
G54D12*
D03*
X571500Y977900D02*
G54D12*
D03*
X568325Y977900D02*
G54D12*
D03*
X568325Y974725D02*
G54D12*
D03*
X568325Y971550D02*
G54D12*
D03*
X571500Y971550D02*
G54D12*
D03*
X574675Y971550D02*
G54D12*
D03*
X581025Y971550D02*
G54D12*
D03*
X581025Y968375D02*
G54D12*
D03*
X581025Y965200D02*
G54D12*
D03*
X577850Y965200D02*
G54D12*
D03*
X574675Y965200D02*
G54D12*
D03*
X574675Y968375D02*
G54D12*
D03*
X625475Y977900D02*
G54D12*
D03*
X619125Y977900D02*
G54D12*
D03*
X615950Y974725D02*
G54D12*
D03*
X600075Y958850D02*
G54D12*
D03*
X596900Y955675D02*
G54D12*
D03*
X596900Y949325D02*
G54D12*
D03*
X600075Y939800D02*
G54D12*
D03*
X596900Y939800D02*
G54D12*
D03*
X593725Y939800D02*
G54D12*
D03*
X590550Y939800D02*
G54D12*
D03*
X587375Y939800D02*
G54D12*
D03*
X593725Y936625D02*
G54D12*
D03*
X593725Y933450D02*
G54D12*
D03*
X593725Y930275D02*
G54D12*
D03*
X593725Y927100D02*
G54D12*
D03*
X593725Y923925D02*
G54D12*
D03*
X596900Y920750D02*
G54D12*
D03*
X600075Y920750D02*
G54D12*
D03*
X603250Y923925D02*
G54D12*
D03*
X584200Y920750D02*
G54D12*
D03*
X581025Y923925D02*
G54D12*
D03*
X581025Y927100D02*
G54D12*
D03*
X581025Y930275D02*
G54D12*
D03*
X581025Y933450D02*
G54D12*
D03*
X577850Y920750D02*
G54D12*
D03*
X574675Y920750D02*
G54D12*
D03*
X571500Y920750D02*
G54D12*
D03*
X571500Y923925D02*
G54D12*
D03*
X571500Y927100D02*
G54D12*
D03*
X571500Y930275D02*
G54D12*
D03*
X571500Y933450D02*
G54D12*
D03*
X565150Y936625D02*
G54D12*
D03*
X565150Y930275D02*
G54D12*
D03*
X565150Y927100D02*
G54D12*
D03*
X565150Y923925D02*
G54D12*
D03*
X565150Y920750D02*
G54D12*
D03*
X558800Y923925D02*
G54D12*
D03*
X558800Y927100D02*
G54D12*
D03*
X558800Y930275D02*
G54D12*
D03*
X555625Y933450D02*
G54D12*
D03*
X552450Y933450D02*
G54D12*
D03*
X555625Y920750D02*
G54D12*
D03*
X552450Y920750D02*
G54D12*
D03*
X549275Y920750D02*
G54D12*
D03*
X549275Y933450D02*
G54D12*
D03*
X542925Y923925D02*
G54D12*
D03*
X542925Y927100D02*
G54D12*
D03*
X542925Y930275D02*
G54D12*
D03*
X539750Y933450D02*
G54D12*
D03*
X536575Y933450D02*
G54D12*
D03*
X533400Y933450D02*
G54D12*
D03*
X539750Y920750D02*
G54D12*
D03*
X536575Y920750D02*
G54D12*
D03*
X533400Y920750D02*
G54D12*
D03*
X530225Y930275D02*
G54D12*
D03*
X530225Y927100D02*
G54D12*
D03*
X533400Y927100D02*
G54D12*
D03*
X536575Y927100D02*
G54D12*
D03*
X539750Y927100D02*
G54D12*
D03*
X631825Y939800D02*
G54D12*
D03*
X628650Y936625D02*
G54D12*
D03*
X625475Y939800D02*
G54D12*
D03*
X628650Y942975D02*
G54D12*
D03*
X619125Y936625D02*
G54D12*
D03*
X641350Y946150D02*
G54D12*
D03*
X612775Y946150D02*
G54D12*
D03*
X628650Y927100D02*
G54D12*
D03*
X644525Y942975D02*
G54D12*
D03*
X584200Y958850D02*
G54D12*
D03*
X581025Y958850D02*
G54D12*
D03*
X577850Y958850D02*
G54D12*
D03*
X574675Y958850D02*
G54D12*
D03*
X571500Y958850D02*
G54D12*
D03*
X571500Y955675D02*
G54D12*
D03*
X571500Y952500D02*
G54D12*
D03*
X574675Y949325D02*
G54D12*
D03*
X577850Y946150D02*
G54D12*
D03*
X581025Y942975D02*
G54D12*
D03*
X568325Y965200D02*
G54D12*
D03*
X568325Y962025D02*
G54D12*
D03*
X565150Y962025D02*
G54D12*
D03*
X565150Y965200D02*
G54D12*
D03*
X561975Y958850D02*
G54D12*
D03*
X558800Y958850D02*
G54D12*
D03*
X555625Y958850D02*
G54D12*
D03*
X552450Y958850D02*
G54D12*
D03*
X549275Y958850D02*
G54D12*
D03*
X561975Y952500D02*
G54D12*
D03*
X558800Y952500D02*
G54D12*
D03*
X555625Y952500D02*
G54D12*
D03*
X552450Y952500D02*
G54D12*
D03*
X549275Y952500D02*
G54D12*
D03*
X549275Y949325D02*
G54D12*
D03*
X552450Y946150D02*
G54D12*
D03*
X555625Y942975D02*
G54D12*
D03*
X561975Y942975D02*
G54D12*
D03*
X558800Y942975D02*
G54D12*
D03*
X542925Y958850D02*
G54D12*
D03*
X539750Y958850D02*
G54D12*
D03*
X536575Y958850D02*
G54D12*
D03*
X533400Y958850D02*
G54D12*
D03*
X530225Y958850D02*
G54D12*
D03*
X530225Y955675D02*
G54D12*
D03*
X533400Y952500D02*
G54D12*
D03*
X536575Y949325D02*
G54D12*
D03*
X539750Y946150D02*
G54D12*
D03*
X542925Y942975D02*
G54D12*
D03*
X533400Y946150D02*
G54D12*
D03*
X530225Y942975D02*
G54D12*
D03*
X622300Y971550D02*
G54D12*
D03*
X625475Y968375D02*
G54D12*
D03*
X606425Y650875D02*
G54D11*
D03*
X628655Y650875D02*
G54D11*
D03*
G36*
X802225Y935505D02*
X791695Y924975D01*
X776755Y924975D01*
X766225Y935505D01*
X766225Y950445D01*
X776755Y960975D01*
X791695Y960975D01*
X802225Y950445D01*
X802225Y935505D01*
G37*
G36*
X751425Y935505D02*
X740895Y924975D01*
X725955Y924975D01*
X715425Y935505D01*
X715425Y950445D01*
X725955Y960975D01*
X740895Y960975D01*
X751425Y950445D01*
X751425Y935505D01*
G37*
X695325Y822325D02*
G54D10*
D03*
X695325Y847725D02*
G54D10*
D03*
X695325Y733425D02*
G54D10*
D03*
X695325Y758825D02*
G54D10*
D03*
X695325Y644525D02*
G54D10*
D03*
X695325Y669925D02*
G54D10*
D03*
G36*
X715425Y950445D02*
X725955Y960975D01*
X740895Y960975D01*
X751425Y950445D01*
X751425Y935505D01*
X740895Y924975D01*
X725955Y924975D01*
X715425Y935505D01*
X715425Y950445D01*
G37*
X695325Y847725D02*
G54D10*
D03*
X695325Y758825D02*
G54D10*
D03*
X695325Y669925D02*
G54D10*
D03*
X866775Y860425D02*
G54D10*
D03*
G36*
X834325Y823695D02*
X827305Y816675D01*
X817345Y816675D01*
X810325Y823695D01*
X810325Y833655D01*
X817345Y840675D01*
X827305Y840675D01*
X834325Y833655D01*
X834325Y823695D01*
G37*
G36*
X808925Y823695D02*
X801905Y816675D01*
X791945Y816675D01*
X784925Y823695D01*
X784925Y833655D01*
X791945Y840675D01*
X801905Y840675D01*
X808925Y833655D01*
X808925Y823695D01*
G37*
G36*
X783525Y823695D02*
X776505Y816675D01*
X766545Y816675D01*
X759525Y823695D01*
X759525Y833655D01*
X766545Y840675D01*
X776505Y840675D01*
X783525Y833655D01*
X783525Y823695D01*
G37*
G36*
X948625Y823695D02*
X941605Y816675D01*
X931645Y816675D01*
X924625Y823695D01*
X924625Y833655D01*
X931645Y840675D01*
X941605Y840675D01*
X948625Y833655D01*
X948625Y823695D01*
G37*
G36*
X923225Y823695D02*
X916205Y816675D01*
X906245Y816675D01*
X899225Y823695D01*
X899225Y833655D01*
X906245Y840675D01*
X916205Y840675D01*
X923225Y833655D01*
X923225Y823695D01*
G37*
G36*
X897825Y823695D02*
X890805Y816675D01*
X880845Y816675D01*
X873825Y823695D01*
X873825Y833655D01*
X880845Y840675D01*
X890805Y840675D01*
X897825Y833655D01*
X897825Y823695D01*
G37*
G36*
X808925Y823695D02*
X801905Y816675D01*
X791945Y816675D01*
X784925Y823695D01*
X784925Y833655D01*
X791945Y840675D01*
X801905Y840675D01*
X808925Y833655D01*
X808925Y823695D01*
G37*
G36*
X923225Y823695D02*
X916205Y816675D01*
X906245Y816675D01*
X899225Y823695D01*
X899225Y833655D01*
X906245Y840675D01*
X916205Y840675D01*
X923225Y833655D01*
X923225Y823695D01*
G37*
G36*
X734125Y874930D02*
X741145Y881950D01*
X751105Y881950D01*
X758125Y874930D01*
X758125Y864970D01*
X751105Y857950D01*
X741145Y857950D01*
X734125Y864970D01*
X734125Y874930D01*
G37*
X936625Y860425D02*
G54D10*
D03*
X911622Y860425D02*
G54D10*
D03*
X891778Y860425D02*
G54D10*
D03*
X866775Y860425D02*
G54D10*
D03*
G36*
X990383Y877868D02*
X976928Y864412D01*
X957838Y864412D01*
X944383Y877868D01*
X944383Y896958D01*
X957838Y910412D01*
X976928Y910412D01*
X990383Y896958D01*
X990383Y877868D01*
G37*
G36*
X858819Y877867D02*
X845364Y864412D01*
X826274Y864412D01*
X812819Y877867D01*
X812819Y896957D01*
X826274Y910412D01*
X845364Y910412D01*
X858819Y896957D01*
X858819Y877867D01*
G37*
X822325Y968375D02*
G54D11*
D03*
X822325Y942975D02*
G54D11*
D03*
X847725Y555625D02*
G54D10*
D03*
X847725Y581025D02*
G54D10*
D03*
X847725Y581025D02*
G54D10*
D03*
X695325Y555625D02*
G54D10*
D03*
X695325Y581025D02*
G54D10*
D03*
X695325Y581025D02*
G54D10*
D03*
X854075Y650875D02*
G54D11*
D03*
X879475Y650875D02*
G54D11*
D03*
X771525Y555625D02*
G54D10*
D03*
X771525Y581025D02*
G54D10*
D03*
X771525Y581025D02*
G54D10*
D03*
X984250Y942975D02*
G54D12*
D03*
X981075Y939800D02*
G54D12*
D03*
X977900Y936625D02*
G54D12*
D03*
X974725Y933450D02*
G54D12*
D03*
X984250Y949325D02*
G54D12*
D03*
X981075Y952500D02*
G54D12*
D03*
X977900Y955675D02*
G54D12*
D03*
X974725Y958850D02*
G54D12*
D03*
X971550Y962025D02*
G54D12*
D03*
X971550Y930275D02*
G54D12*
D03*
X968375Y927100D02*
G54D12*
D03*
X965200Y923925D02*
G54D12*
D03*
X962025Y920750D02*
G54D12*
D03*
X955675Y920750D02*
G54D12*
D03*
X952500Y923925D02*
G54D12*
D03*
X949325Y927100D02*
G54D12*
D03*
X946150Y930275D02*
G54D12*
D03*
X942975Y933450D02*
G54D12*
D03*
X939800Y936625D02*
G54D12*
D03*
X936625Y939800D02*
G54D12*
D03*
X933450Y942975D02*
G54D12*
D03*
X930275Y946150D02*
G54D12*
D03*
X968375Y965200D02*
G54D12*
D03*
X965200Y968375D02*
G54D12*
D03*
X962025Y971550D02*
G54D12*
D03*
X958850Y974725D02*
G54D12*
D03*
X942975Y971550D02*
G54D12*
D03*
X933450Y962025D02*
G54D12*
D03*
X930275Y965200D02*
G54D12*
D03*
X939800Y974725D02*
G54D12*
D03*
X939800Y981075D02*
G54D12*
D03*
X936625Y984250D02*
G54D12*
D03*
X933450Y981075D02*
G54D12*
D03*
X930275Y977900D02*
G54D12*
D03*
X927100Y974725D02*
G54D12*
D03*
X923925Y971550D02*
G54D12*
D03*
X920750Y968375D02*
G54D12*
D03*
X923925Y965200D02*
G54D12*
D03*
X974725Y952500D02*
G54D12*
D03*
X971550Y952500D02*
G54D12*
D03*
X968375Y955675D02*
G54D12*
D03*
X965200Y952500D02*
G54D12*
D03*
X962025Y952500D02*
G54D12*
D03*
X958850Y952500D02*
G54D12*
D03*
X955675Y949325D02*
G54D12*
D03*
X952500Y949325D02*
G54D12*
D03*
X949325Y952500D02*
G54D12*
D03*
X946150Y952500D02*
G54D12*
D03*
X942975Y952500D02*
G54D12*
D03*
X939800Y952500D02*
G54D12*
D03*
X936625Y952500D02*
G54D12*
D03*
X933450Y949325D02*
G54D12*
D03*
X917575Y977900D02*
G54D12*
D03*
X917575Y974725D02*
G54D12*
D03*
X917575Y971550D02*
G54D12*
D03*
X914400Y971550D02*
G54D12*
D03*
X914400Y977900D02*
G54D12*
D03*
X911225Y977900D02*
G54D12*
D03*
X911225Y981075D02*
G54D12*
D03*
X911225Y984250D02*
G54D12*
D03*
X908050Y984250D02*
G54D12*
D03*
X904875Y984250D02*
G54D12*
D03*
X904875Y981075D02*
G54D12*
D03*
X904875Y977900D02*
G54D12*
D03*
X901700Y977900D02*
G54D12*
D03*
X898525Y977900D02*
G54D12*
D03*
X898525Y974725D02*
G54D12*
D03*
X898525Y971550D02*
G54D12*
D03*
X901700Y971550D02*
G54D12*
D03*
X904875Y971550D02*
G54D12*
D03*
X911225Y971550D02*
G54D12*
D03*
X911225Y968375D02*
G54D12*
D03*
X911225Y965200D02*
G54D12*
D03*
X908050Y965200D02*
G54D12*
D03*
X904875Y965200D02*
G54D12*
D03*
X904875Y968375D02*
G54D12*
D03*
X955675Y977900D02*
G54D12*
D03*
X949325Y977900D02*
G54D12*
D03*
X946150Y974725D02*
G54D12*
D03*
X930275Y958850D02*
G54D12*
D03*
X927100Y955675D02*
G54D12*
D03*
X927100Y949325D02*
G54D12*
D03*
X930275Y939800D02*
G54D12*
D03*
X927100Y939800D02*
G54D12*
D03*
X923925Y939800D02*
G54D12*
D03*
X920750Y939800D02*
G54D12*
D03*
X917575Y939800D02*
G54D12*
D03*
X923925Y936625D02*
G54D12*
D03*
X923925Y933450D02*
G54D12*
D03*
X923925Y930275D02*
G54D12*
D03*
X923925Y927100D02*
G54D12*
D03*
X923925Y923925D02*
G54D12*
D03*
X927100Y920750D02*
G54D12*
D03*
X930275Y920750D02*
G54D12*
D03*
X933450Y923925D02*
G54D12*
D03*
X914400Y920750D02*
G54D12*
D03*
X911225Y923925D02*
G54D12*
D03*
X911225Y927100D02*
G54D12*
D03*
X911225Y930275D02*
G54D12*
D03*
X911225Y933450D02*
G54D12*
D03*
X908050Y920750D02*
G54D12*
D03*
X904875Y920750D02*
G54D12*
D03*
X901700Y920750D02*
G54D12*
D03*
X901700Y923925D02*
G54D12*
D03*
X901700Y927100D02*
G54D12*
D03*
X901700Y930275D02*
G54D12*
D03*
X901700Y933450D02*
G54D12*
D03*
X895350Y936625D02*
G54D12*
D03*
X895350Y930275D02*
G54D12*
D03*
X895350Y927100D02*
G54D12*
D03*
X895350Y923925D02*
G54D12*
D03*
X895350Y920750D02*
G54D12*
D03*
X889000Y923925D02*
G54D12*
D03*
X889000Y927100D02*
G54D12*
D03*
X889000Y930275D02*
G54D12*
D03*
X885825Y933450D02*
G54D12*
D03*
X882650Y933450D02*
G54D12*
D03*
X885825Y920750D02*
G54D12*
D03*
X882650Y920750D02*
G54D12*
D03*
X879475Y920750D02*
G54D12*
D03*
X879475Y933450D02*
G54D12*
D03*
X873125Y923925D02*
G54D12*
D03*
X873125Y927100D02*
G54D12*
D03*
X873125Y930275D02*
G54D12*
D03*
X869950Y933450D02*
G54D12*
D03*
X866775Y933450D02*
G54D12*
D03*
X863600Y933450D02*
G54D12*
D03*
X869950Y920750D02*
G54D12*
D03*
X866775Y920750D02*
G54D12*
D03*
X863600Y920750D02*
G54D12*
D03*
X860425Y930275D02*
G54D12*
D03*
X860425Y927100D02*
G54D12*
D03*
X863600Y927100D02*
G54D12*
D03*
X866775Y927100D02*
G54D12*
D03*
X869950Y927100D02*
G54D12*
D03*
X962025Y939800D02*
G54D12*
D03*
X958850Y936625D02*
G54D12*
D03*
X955675Y939800D02*
G54D12*
D03*
X958850Y942975D02*
G54D12*
D03*
X949325Y936625D02*
G54D12*
D03*
X971550Y946150D02*
G54D12*
D03*
X942975Y946150D02*
G54D12*
D03*
X958850Y927100D02*
G54D12*
D03*
X974725Y942975D02*
G54D12*
D03*
X914400Y958850D02*
G54D12*
D03*
X911225Y958850D02*
G54D12*
D03*
X908050Y958850D02*
G54D12*
D03*
X904875Y958850D02*
G54D12*
D03*
X901700Y958850D02*
G54D12*
D03*
X901700Y955675D02*
G54D12*
D03*
X901700Y952500D02*
G54D12*
D03*
X904875Y949325D02*
G54D12*
D03*
X908050Y946150D02*
G54D12*
D03*
X911225Y942975D02*
G54D12*
D03*
X898525Y965200D02*
G54D12*
D03*
X898525Y962025D02*
G54D12*
D03*
X895350Y962025D02*
G54D12*
D03*
X895350Y965200D02*
G54D12*
D03*
X892175Y958850D02*
G54D12*
D03*
X889000Y958850D02*
G54D12*
D03*
X885825Y958850D02*
G54D12*
D03*
X882650Y958850D02*
G54D12*
D03*
X879475Y958850D02*
G54D12*
D03*
X892175Y952500D02*
G54D12*
D03*
X889000Y952500D02*
G54D12*
D03*
X885825Y952500D02*
G54D12*
D03*
X882650Y952500D02*
G54D12*
D03*
X879475Y952500D02*
G54D12*
D03*
X879475Y949325D02*
G54D12*
D03*
X882650Y946150D02*
G54D12*
D03*
X885825Y942975D02*
G54D12*
D03*
X892175Y942975D02*
G54D12*
D03*
X889000Y942975D02*
G54D12*
D03*
X873125Y958850D02*
G54D12*
D03*
X869950Y958850D02*
G54D12*
D03*
X866775Y958850D02*
G54D12*
D03*
X863600Y958850D02*
G54D12*
D03*
X860425Y958850D02*
G54D12*
D03*
X860425Y955675D02*
G54D12*
D03*
X863600Y952500D02*
G54D12*
D03*
X866775Y949325D02*
G54D12*
D03*
X869950Y946150D02*
G54D12*
D03*
X873125Y942975D02*
G54D12*
D03*
X863600Y946150D02*
G54D12*
D03*
X860425Y942975D02*
G54D12*
D03*
X952500Y971550D02*
G54D12*
D03*
X955675Y968375D02*
G54D12*
D03*
X936625Y650875D02*
G54D11*
D03*
X958855Y650875D02*
G54D11*
D03*
G36*
X141825Y465605D02*
X131295Y455075D01*
X116355Y455075D01*
X105825Y465605D01*
X105825Y480545D01*
X116355Y491075D01*
X131295Y491075D01*
X141825Y480545D01*
X141825Y465605D01*
G37*
G36*
X91025Y465605D02*
X80495Y455075D01*
X65555Y455075D01*
X55025Y465605D01*
X55025Y480545D01*
X65555Y491075D01*
X80495Y491075D01*
X91025Y480545D01*
X91025Y465605D01*
G37*
X34925Y352425D02*
G54D10*
D03*
X34925Y377825D02*
G54D10*
D03*
X34925Y263525D02*
G54D10*
D03*
X34925Y288925D02*
G54D10*
D03*
X34925Y174625D02*
G54D10*
D03*
X34925Y200025D02*
G54D10*
D03*
G36*
X55025Y480545D02*
X65555Y491075D01*
X80495Y491075D01*
X91025Y480545D01*
X91025Y465605D01*
X80495Y455075D01*
X65555Y455075D01*
X55025Y465605D01*
X55025Y480545D01*
G37*
X34925Y377825D02*
G54D10*
D03*
X34925Y288925D02*
G54D10*
D03*
X34925Y200025D02*
G54D10*
D03*
X206375Y390525D02*
G54D10*
D03*
G36*
X173925Y353795D02*
X166905Y346775D01*
X156945Y346775D01*
X149925Y353795D01*
X149925Y363755D01*
X156945Y370775D01*
X166905Y370775D01*
X173925Y363755D01*
X173925Y353795D01*
G37*
G36*
X148525Y353795D02*
X141505Y346775D01*
X131545Y346775D01*
X124525Y353795D01*
X124525Y363755D01*
X131545Y370775D01*
X141505Y370775D01*
X148525Y363755D01*
X148525Y353795D01*
G37*
G36*
X123125Y353795D02*
X116105Y346775D01*
X106145Y346775D01*
X99125Y353795D01*
X99125Y363755D01*
X106145Y370775D01*
X116105Y370775D01*
X123125Y363755D01*
X123125Y353795D01*
G37*
G36*
X288225Y353795D02*
X281205Y346775D01*
X271245Y346775D01*
X264225Y353795D01*
X264225Y363755D01*
X271245Y370775D01*
X281205Y370775D01*
X288225Y363755D01*
X288225Y353795D01*
G37*
G36*
X262825Y353795D02*
X255805Y346775D01*
X245845Y346775D01*
X238825Y353795D01*
X238825Y363755D01*
X245845Y370775D01*
X255805Y370775D01*
X262825Y363755D01*
X262825Y353795D01*
G37*
G36*
X237425Y353795D02*
X230405Y346775D01*
X220445Y346775D01*
X213425Y353795D01*
X213425Y363755D01*
X220445Y370775D01*
X230405Y370775D01*
X237425Y363755D01*
X237425Y353795D01*
G37*
G36*
X148525Y353795D02*
X141505Y346775D01*
X131545Y346775D01*
X124525Y353795D01*
X124525Y363755D01*
X131545Y370775D01*
X141505Y370775D01*
X148525Y363755D01*
X148525Y353795D01*
G37*
G36*
X262825Y353795D02*
X255805Y346775D01*
X245845Y346775D01*
X238825Y353795D01*
X238825Y363755D01*
X245845Y370775D01*
X255805Y370775D01*
X262825Y363755D01*
X262825Y353795D01*
G37*
G36*
X73725Y405030D02*
X80745Y412050D01*
X90705Y412050D01*
X97725Y405030D01*
X97725Y395070D01*
X90705Y388050D01*
X80745Y388050D01*
X73725Y395070D01*
X73725Y405030D01*
G37*
X276225Y390525D02*
G54D10*
D03*
X251222Y390525D02*
G54D10*
D03*
X231378Y390525D02*
G54D10*
D03*
X206375Y390525D02*
G54D10*
D03*
G36*
X329983Y407968D02*
X316528Y394512D01*
X297438Y394512D01*
X283983Y407968D01*
X283983Y427058D01*
X297438Y440512D01*
X316528Y440512D01*
X329983Y427058D01*
X329983Y407968D01*
G37*
G36*
X198419Y407967D02*
X184964Y394512D01*
X165874Y394512D01*
X152419Y407967D01*
X152419Y427057D01*
X165874Y440512D01*
X184964Y440512D01*
X198419Y427057D01*
X198419Y407967D01*
G37*
X161925Y498475D02*
G54D11*
D03*
X161925Y473075D02*
G54D11*
D03*
X187325Y85725D02*
G54D10*
D03*
X187325Y111125D02*
G54D10*
D03*
X187325Y111125D02*
G54D10*
D03*
X34925Y85725D02*
G54D10*
D03*
X34925Y111125D02*
G54D10*
D03*
X34925Y111125D02*
G54D10*
D03*
X193675Y180975D02*
G54D11*
D03*
X219075Y180975D02*
G54D11*
D03*
X111125Y85725D02*
G54D10*
D03*
X111125Y111125D02*
G54D10*
D03*
X111125Y111125D02*
G54D10*
D03*
X323850Y473075D02*
G54D12*
D03*
X320675Y469900D02*
G54D12*
D03*
X317500Y466725D02*
G54D12*
D03*
X314325Y463550D02*
G54D12*
D03*
X323850Y479425D02*
G54D12*
D03*
X320675Y482600D02*
G54D12*
D03*
X317500Y485775D02*
G54D12*
D03*
X314325Y488950D02*
G54D12*
D03*
X311150Y492125D02*
G54D12*
D03*
X311150Y460375D02*
G54D12*
D03*
X307975Y457200D02*
G54D12*
D03*
X304800Y454025D02*
G54D12*
D03*
X301625Y450850D02*
G54D12*
D03*
X295275Y450850D02*
G54D12*
D03*
X292100Y454025D02*
G54D12*
D03*
X288925Y457200D02*
G54D12*
D03*
X285750Y460375D02*
G54D12*
D03*
X282575Y463550D02*
G54D12*
D03*
X279400Y466725D02*
G54D12*
D03*
X276225Y469900D02*
G54D12*
D03*
X273050Y473075D02*
G54D12*
D03*
X269875Y476250D02*
G54D12*
D03*
X307975Y495300D02*
G54D12*
D03*
X304800Y498475D02*
G54D12*
D03*
X301625Y501650D02*
G54D12*
D03*
X298450Y504825D02*
G54D12*
D03*
X282575Y501650D02*
G54D12*
D03*
X273050Y492125D02*
G54D12*
D03*
X269875Y495300D02*
G54D12*
D03*
X279400Y504825D02*
G54D12*
D03*
X279400Y511175D02*
G54D12*
D03*
X276225Y514350D02*
G54D12*
D03*
X273050Y511175D02*
G54D12*
D03*
X269875Y508000D02*
G54D12*
D03*
X266700Y504825D02*
G54D12*
D03*
X263525Y501650D02*
G54D12*
D03*
X260350Y498475D02*
G54D12*
D03*
X263525Y495300D02*
G54D12*
D03*
X314325Y482600D02*
G54D12*
D03*
X311150Y482600D02*
G54D12*
D03*
X307975Y485775D02*
G54D12*
D03*
X304800Y482600D02*
G54D12*
D03*
X301625Y482600D02*
G54D12*
D03*
X298450Y482600D02*
G54D12*
D03*
X295275Y479425D02*
G54D12*
D03*
X292100Y479425D02*
G54D12*
D03*
X288925Y482600D02*
G54D12*
D03*
X285750Y482600D02*
G54D12*
D03*
X282575Y482600D02*
G54D12*
D03*
X279400Y482600D02*
G54D12*
D03*
X276225Y482600D02*
G54D12*
D03*
X273050Y479425D02*
G54D12*
D03*
X257175Y508000D02*
G54D12*
D03*
X257175Y504825D02*
G54D12*
D03*
X257175Y501650D02*
G54D12*
D03*
X254000Y501650D02*
G54D12*
D03*
X254000Y508000D02*
G54D12*
D03*
X250825Y508000D02*
G54D12*
D03*
X250825Y511175D02*
G54D12*
D03*
X250825Y514350D02*
G54D12*
D03*
X247650Y514350D02*
G54D12*
D03*
X244475Y514350D02*
G54D12*
D03*
X244475Y511175D02*
G54D12*
D03*
X244475Y508000D02*
G54D12*
D03*
X241300Y508000D02*
G54D12*
D03*
X238125Y508000D02*
G54D12*
D03*
X238125Y504825D02*
G54D12*
D03*
X238125Y501650D02*
G54D12*
D03*
X241300Y501650D02*
G54D12*
D03*
X244475Y501650D02*
G54D12*
D03*
X250825Y501650D02*
G54D12*
D03*
X250825Y498475D02*
G54D12*
D03*
X250825Y495300D02*
G54D12*
D03*
X247650Y495300D02*
G54D12*
D03*
X244475Y495300D02*
G54D12*
D03*
X244475Y498475D02*
G54D12*
D03*
X295275Y508000D02*
G54D12*
D03*
X288925Y508000D02*
G54D12*
D03*
X285750Y504825D02*
G54D12*
D03*
X269875Y488950D02*
G54D12*
D03*
X266700Y485775D02*
G54D12*
D03*
X266700Y479425D02*
G54D12*
D03*
X269875Y469900D02*
G54D12*
D03*
X266700Y469900D02*
G54D12*
D03*
X263525Y469900D02*
G54D12*
D03*
X260350Y469900D02*
G54D12*
D03*
X257175Y469900D02*
G54D12*
D03*
X263525Y466725D02*
G54D12*
D03*
X263525Y463550D02*
G54D12*
D03*
X263525Y460375D02*
G54D12*
D03*
X263525Y457200D02*
G54D12*
D03*
X263525Y454025D02*
G54D12*
D03*
X266700Y450850D02*
G54D12*
D03*
X269875Y450850D02*
G54D12*
D03*
X273050Y454025D02*
G54D12*
D03*
X254000Y450850D02*
G54D12*
D03*
X250825Y454025D02*
G54D12*
D03*
X250825Y457200D02*
G54D12*
D03*
X250825Y460375D02*
G54D12*
D03*
X250825Y463550D02*
G54D12*
D03*
X247650Y450850D02*
G54D12*
D03*
X244475Y450850D02*
G54D12*
D03*
X241300Y450850D02*
G54D12*
D03*
X241300Y454025D02*
G54D12*
D03*
X241300Y457200D02*
G54D12*
D03*
X241300Y460375D02*
G54D12*
D03*
X241300Y463550D02*
G54D12*
D03*
X234950Y466725D02*
G54D12*
D03*
X234950Y460375D02*
G54D12*
D03*
X234950Y457200D02*
G54D12*
D03*
X234950Y454025D02*
G54D12*
D03*
X234950Y450850D02*
G54D12*
D03*
X228600Y454025D02*
G54D12*
D03*
X228600Y457200D02*
G54D12*
D03*
X228600Y460375D02*
G54D12*
D03*
X225425Y463550D02*
G54D12*
D03*
X222250Y463550D02*
G54D12*
D03*
X225425Y450850D02*
G54D12*
D03*
X222250Y450850D02*
G54D12*
D03*
X219075Y450850D02*
G54D12*
D03*
X219075Y463550D02*
G54D12*
D03*
X212725Y454025D02*
G54D12*
D03*
X212725Y457200D02*
G54D12*
D03*
X212725Y460375D02*
G54D12*
D03*
X209550Y463550D02*
G54D12*
D03*
X206375Y463550D02*
G54D12*
D03*
X203200Y463550D02*
G54D12*
D03*
X209550Y450850D02*
G54D12*
D03*
X206375Y450850D02*
G54D12*
D03*
X203200Y450850D02*
G54D12*
D03*
X200025Y460375D02*
G54D12*
D03*
X200025Y457200D02*
G54D12*
D03*
X203200Y457200D02*
G54D12*
D03*
X206375Y457200D02*
G54D12*
D03*
X209550Y457200D02*
G54D12*
D03*
X301625Y469900D02*
G54D12*
D03*
X298450Y466725D02*
G54D12*
D03*
X295275Y469900D02*
G54D12*
D03*
X298450Y473075D02*
G54D12*
D03*
X288925Y466725D02*
G54D12*
D03*
X311150Y476250D02*
G54D12*
D03*
X282575Y476250D02*
G54D12*
D03*
X298450Y457200D02*
G54D12*
D03*
X314325Y473075D02*
G54D12*
D03*
X254000Y488950D02*
G54D12*
D03*
X250825Y488950D02*
G54D12*
D03*
X247650Y488950D02*
G54D12*
D03*
X244475Y488950D02*
G54D12*
D03*
X241300Y488950D02*
G54D12*
D03*
X241300Y485775D02*
G54D12*
D03*
X241300Y482600D02*
G54D12*
D03*
X244475Y479425D02*
G54D12*
D03*
X247650Y476250D02*
G54D12*
D03*
X250825Y473075D02*
G54D12*
D03*
X238125Y495300D02*
G54D12*
D03*
X238125Y492125D02*
G54D12*
D03*
X234950Y492125D02*
G54D12*
D03*
X234950Y495300D02*
G54D12*
D03*
X231775Y488950D02*
G54D12*
D03*
X228600Y488950D02*
G54D12*
D03*
X225425Y488950D02*
G54D12*
D03*
X222250Y488950D02*
G54D12*
D03*
X219075Y488950D02*
G54D12*
D03*
X231775Y482600D02*
G54D12*
D03*
X228600Y482600D02*
G54D12*
D03*
X225425Y482600D02*
G54D12*
D03*
X222250Y482600D02*
G54D12*
D03*
X219075Y482600D02*
G54D12*
D03*
X219075Y479425D02*
G54D12*
D03*
X222250Y476250D02*
G54D12*
D03*
X225425Y473075D02*
G54D12*
D03*
X231775Y473075D02*
G54D12*
D03*
X228600Y473075D02*
G54D12*
D03*
X212725Y488950D02*
G54D12*
D03*
X209550Y488950D02*
G54D12*
D03*
X206375Y488950D02*
G54D12*
D03*
X203200Y488950D02*
G54D12*
D03*
X200025Y488950D02*
G54D12*
D03*
X200025Y485775D02*
G54D12*
D03*
X203200Y482600D02*
G54D12*
D03*
X206375Y479425D02*
G54D12*
D03*
X209550Y476250D02*
G54D12*
D03*
X212725Y473075D02*
G54D12*
D03*
X203200Y476250D02*
G54D12*
D03*
X200025Y473075D02*
G54D12*
D03*
X292100Y501650D02*
G54D12*
D03*
X295275Y498475D02*
G54D12*
D03*
X276225Y180975D02*
G54D11*
D03*
X298455Y180975D02*
G54D11*
D03*
G36*
X472025Y465605D02*
X461495Y455075D01*
X446555Y455075D01*
X436025Y465605D01*
X436025Y480545D01*
X446555Y491075D01*
X461495Y491075D01*
X472025Y480545D01*
X472025Y465605D01*
G37*
G36*
X421225Y465605D02*
X410695Y455075D01*
X395755Y455075D01*
X385225Y465605D01*
X385225Y480545D01*
X395755Y491075D01*
X410695Y491075D01*
X421225Y480545D01*
X421225Y465605D01*
G37*
X365125Y352425D02*
G54D10*
D03*
X365125Y377825D02*
G54D10*
D03*
X365125Y263525D02*
G54D10*
D03*
X365125Y288925D02*
G54D10*
D03*
X365125Y174625D02*
G54D10*
D03*
X365125Y200025D02*
G54D10*
D03*
G36*
X385225Y480545D02*
X395755Y491075D01*
X410695Y491075D01*
X421225Y480545D01*
X421225Y465605D01*
X410695Y455075D01*
X395755Y455075D01*
X385225Y465605D01*
X385225Y480545D01*
G37*
X365125Y377825D02*
G54D10*
D03*
X365125Y288925D02*
G54D10*
D03*
X365125Y200025D02*
G54D10*
D03*
X536575Y390525D02*
G54D10*
D03*
G36*
X504125Y353795D02*
X497105Y346775D01*
X487145Y346775D01*
X480125Y353795D01*
X480125Y363755D01*
X487145Y370775D01*
X497105Y370775D01*
X504125Y363755D01*
X504125Y353795D01*
G37*
G36*
X478725Y353795D02*
X471705Y346775D01*
X461745Y346775D01*
X454725Y353795D01*
X454725Y363755D01*
X461745Y370775D01*
X471705Y370775D01*
X478725Y363755D01*
X478725Y353795D01*
G37*
G36*
X453325Y353795D02*
X446305Y346775D01*
X436345Y346775D01*
X429325Y353795D01*
X429325Y363755D01*
X436345Y370775D01*
X446305Y370775D01*
X453325Y363755D01*
X453325Y353795D01*
G37*
G36*
X618425Y353795D02*
X611405Y346775D01*
X601445Y346775D01*
X594425Y353795D01*
X594425Y363755D01*
X601445Y370775D01*
X611405Y370775D01*
X618425Y363755D01*
X618425Y353795D01*
G37*
G36*
X593025Y353795D02*
X586005Y346775D01*
X576045Y346775D01*
X569025Y353795D01*
X569025Y363755D01*
X576045Y370775D01*
X586005Y370775D01*
X593025Y363755D01*
X593025Y353795D01*
G37*
G36*
X567625Y353795D02*
X560605Y346775D01*
X550645Y346775D01*
X543625Y353795D01*
X543625Y363755D01*
X550645Y370775D01*
X560605Y370775D01*
X567625Y363755D01*
X567625Y353795D01*
G37*
G36*
X478725Y353795D02*
X471705Y346775D01*
X461745Y346775D01*
X454725Y353795D01*
X454725Y363755D01*
X461745Y370775D01*
X471705Y370775D01*
X478725Y363755D01*
X478725Y353795D01*
G37*
G36*
X593025Y353795D02*
X586005Y346775D01*
X576045Y346775D01*
X569025Y353795D01*
X569025Y363755D01*
X576045Y370775D01*
X586005Y370775D01*
X593025Y363755D01*
X593025Y353795D01*
G37*
G36*
X403925Y405030D02*
X410945Y412050D01*
X420905Y412050D01*
X427925Y405030D01*
X427925Y395070D01*
X420905Y388050D01*
X410945Y388050D01*
X403925Y395070D01*
X403925Y405030D01*
G37*
X606425Y390525D02*
G54D10*
D03*
X581422Y390525D02*
G54D10*
D03*
X561578Y390525D02*
G54D10*
D03*
X536575Y390525D02*
G54D10*
D03*
G36*
X660183Y407968D02*
X646728Y394512D01*
X627638Y394512D01*
X614183Y407968D01*
X614183Y427058D01*
X627638Y440512D01*
X646728Y440512D01*
X660183Y427058D01*
X660183Y407968D01*
G37*
G36*
X528619Y407967D02*
X515164Y394512D01*
X496074Y394512D01*
X482619Y407967D01*
X482619Y427057D01*
X496074Y440512D01*
X515164Y440512D01*
X528619Y427057D01*
X528619Y407967D01*
G37*
X492125Y498475D02*
G54D11*
D03*
X492125Y473075D02*
G54D11*
D03*
X517525Y85725D02*
G54D10*
D03*
X517525Y111125D02*
G54D10*
D03*
X517525Y111125D02*
G54D10*
D03*
X365125Y85725D02*
G54D10*
D03*
X365125Y111125D02*
G54D10*
D03*
X365125Y111125D02*
G54D10*
D03*
X523875Y180975D02*
G54D11*
D03*
X549275Y180975D02*
G54D11*
D03*
X441325Y85725D02*
G54D10*
D03*
X441325Y111125D02*
G54D10*
D03*
X441325Y111125D02*
G54D10*
D03*
X654050Y473075D02*
G54D12*
D03*
X650875Y469900D02*
G54D12*
D03*
X647700Y466725D02*
G54D12*
D03*
X644525Y463550D02*
G54D12*
D03*
X654050Y479425D02*
G54D12*
D03*
X650875Y482600D02*
G54D12*
D03*
X647700Y485775D02*
G54D12*
D03*
X644525Y488950D02*
G54D12*
D03*
X641350Y492125D02*
G54D12*
D03*
X641350Y460375D02*
G54D12*
D03*
X638175Y457200D02*
G54D12*
D03*
X635000Y454025D02*
G54D12*
D03*
X631825Y450850D02*
G54D12*
D03*
X625475Y450850D02*
G54D12*
D03*
X622300Y454025D02*
G54D12*
D03*
X619125Y457200D02*
G54D12*
D03*
X615950Y460375D02*
G54D12*
D03*
X612775Y463550D02*
G54D12*
D03*
X609600Y466725D02*
G54D12*
D03*
X606425Y469900D02*
G54D12*
D03*
X603250Y473075D02*
G54D12*
D03*
X600075Y476250D02*
G54D12*
D03*
X638175Y495300D02*
G54D12*
D03*
X635000Y498475D02*
G54D12*
D03*
X631825Y501650D02*
G54D12*
D03*
X628650Y504825D02*
G54D12*
D03*
X612775Y501650D02*
G54D12*
D03*
X603250Y492125D02*
G54D12*
D03*
X600075Y495300D02*
G54D12*
D03*
X609600Y504825D02*
G54D12*
D03*
X609600Y511175D02*
G54D12*
D03*
X606425Y514350D02*
G54D12*
D03*
X603250Y511175D02*
G54D12*
D03*
X600075Y508000D02*
G54D12*
D03*
X596900Y504825D02*
G54D12*
D03*
X593725Y501650D02*
G54D12*
D03*
X590550Y498475D02*
G54D12*
D03*
X593725Y495300D02*
G54D12*
D03*
X644525Y482600D02*
G54D12*
D03*
X641350Y482600D02*
G54D12*
D03*
X638175Y485775D02*
G54D12*
D03*
X635000Y482600D02*
G54D12*
D03*
X631825Y482600D02*
G54D12*
D03*
X628650Y482600D02*
G54D12*
D03*
X625475Y479425D02*
G54D12*
D03*
X622300Y479425D02*
G54D12*
D03*
X619125Y482600D02*
G54D12*
D03*
X615950Y482600D02*
G54D12*
D03*
X612775Y482600D02*
G54D12*
D03*
X609600Y482600D02*
G54D12*
D03*
X606425Y482600D02*
G54D12*
D03*
X603250Y479425D02*
G54D12*
D03*
X587375Y508000D02*
G54D12*
D03*
X587375Y504825D02*
G54D12*
D03*
X587375Y501650D02*
G54D12*
D03*
X584200Y501650D02*
G54D12*
D03*
X584200Y508000D02*
G54D12*
D03*
X581025Y508000D02*
G54D12*
D03*
X581025Y511175D02*
G54D12*
D03*
X581025Y514350D02*
G54D12*
D03*
X577850Y514350D02*
G54D12*
D03*
X574675Y514350D02*
G54D12*
D03*
X574675Y511175D02*
G54D12*
D03*
X574675Y508000D02*
G54D12*
D03*
X571500Y508000D02*
G54D12*
D03*
X568325Y508000D02*
G54D12*
D03*
X568325Y504825D02*
G54D12*
D03*
X568325Y501650D02*
G54D12*
D03*
X571500Y501650D02*
G54D12*
D03*
X574675Y501650D02*
G54D12*
D03*
X581025Y501650D02*
G54D12*
D03*
X581025Y498475D02*
G54D12*
D03*
X581025Y495300D02*
G54D12*
D03*
X577850Y495300D02*
G54D12*
D03*
X574675Y495300D02*
G54D12*
D03*
X574675Y498475D02*
G54D12*
D03*
X625475Y508000D02*
G54D12*
D03*
X619125Y508000D02*
G54D12*
D03*
X615950Y504825D02*
G54D12*
D03*
X600075Y488950D02*
G54D12*
D03*
X596900Y485775D02*
G54D12*
D03*
X596900Y479425D02*
G54D12*
D03*
X600075Y469900D02*
G54D12*
D03*
X596900Y469900D02*
G54D12*
D03*
X593725Y469900D02*
G54D12*
D03*
X590550Y469900D02*
G54D12*
D03*
X587375Y469900D02*
G54D12*
D03*
X593725Y466725D02*
G54D12*
D03*
X593725Y463550D02*
G54D12*
D03*
X593725Y460375D02*
G54D12*
D03*
X593725Y457200D02*
G54D12*
D03*
X593725Y454025D02*
G54D12*
D03*
X596900Y450850D02*
G54D12*
D03*
X600075Y450850D02*
G54D12*
D03*
X603250Y454025D02*
G54D12*
D03*
X584200Y450850D02*
G54D12*
D03*
X581025Y454025D02*
G54D12*
D03*
X581025Y457200D02*
G54D12*
D03*
X581025Y460375D02*
G54D12*
D03*
X581025Y463550D02*
G54D12*
D03*
X577850Y450850D02*
G54D12*
D03*
X574675Y450850D02*
G54D12*
D03*
X571500Y450850D02*
G54D12*
D03*
X571500Y454025D02*
G54D12*
D03*
X571500Y457200D02*
G54D12*
D03*
X571500Y460375D02*
G54D12*
D03*
X571500Y463550D02*
G54D12*
D03*
X565150Y466725D02*
G54D12*
D03*
X565150Y460375D02*
G54D12*
D03*
X565150Y457200D02*
G54D12*
D03*
X565150Y454025D02*
G54D12*
D03*
X565150Y450850D02*
G54D12*
D03*
X558800Y454025D02*
G54D12*
D03*
X558800Y457200D02*
G54D12*
D03*
X558800Y460375D02*
G54D12*
D03*
X555625Y463550D02*
G54D12*
D03*
X552450Y463550D02*
G54D12*
D03*
X555625Y450850D02*
G54D12*
D03*
X552450Y450850D02*
G54D12*
D03*
X549275Y450850D02*
G54D12*
D03*
X549275Y463550D02*
G54D12*
D03*
X542925Y454025D02*
G54D12*
D03*
X542925Y457200D02*
G54D12*
D03*
X542925Y460375D02*
G54D12*
D03*
X539750Y463550D02*
G54D12*
D03*
X536575Y463550D02*
G54D12*
D03*
X533400Y463550D02*
G54D12*
D03*
X539750Y450850D02*
G54D12*
D03*
X536575Y450850D02*
G54D12*
D03*
X533400Y450850D02*
G54D12*
D03*
X530225Y460375D02*
G54D12*
D03*
X530225Y457200D02*
G54D12*
D03*
X533400Y457200D02*
G54D12*
D03*
X536575Y457200D02*
G54D12*
D03*
X539750Y457200D02*
G54D12*
D03*
X631825Y469900D02*
G54D12*
D03*
X628650Y466725D02*
G54D12*
D03*
X625475Y469900D02*
G54D12*
D03*
X628650Y473075D02*
G54D12*
D03*
X619125Y466725D02*
G54D12*
D03*
X641350Y476250D02*
G54D12*
D03*
X612775Y476250D02*
G54D12*
D03*
X628650Y457200D02*
G54D12*
D03*
X644525Y473075D02*
G54D12*
D03*
X584200Y488950D02*
G54D12*
D03*
X581025Y488950D02*
G54D12*
D03*
X577850Y488950D02*
G54D12*
D03*
X574675Y488950D02*
G54D12*
D03*
X571500Y488950D02*
G54D12*
D03*
X571500Y485775D02*
G54D12*
D03*
X571500Y482600D02*
G54D12*
D03*
X574675Y479425D02*
G54D12*
D03*
X577850Y476250D02*
G54D12*
D03*
X581025Y473075D02*
G54D12*
D03*
X568325Y495300D02*
G54D12*
D03*
X568325Y492125D02*
G54D12*
D03*
X565150Y492125D02*
G54D12*
D03*
X565150Y495300D02*
G54D12*
D03*
X561975Y488950D02*
G54D12*
D03*
X558800Y488950D02*
G54D12*
D03*
X555625Y488950D02*
G54D12*
D03*
X552450Y488950D02*
G54D12*
D03*
X549275Y488950D02*
G54D12*
D03*
X561975Y482600D02*
G54D12*
D03*
X558800Y482600D02*
G54D12*
D03*
X555625Y482600D02*
G54D12*
D03*
X552450Y482600D02*
G54D12*
D03*
X549275Y482600D02*
G54D12*
D03*
X549275Y479425D02*
G54D12*
D03*
X552450Y476250D02*
G54D12*
D03*
X555625Y473075D02*
G54D12*
D03*
X561975Y473075D02*
G54D12*
D03*
X558800Y473075D02*
G54D12*
D03*
X542925Y488950D02*
G54D12*
D03*
X539750Y488950D02*
G54D12*
D03*
X536575Y488950D02*
G54D12*
D03*
X533400Y488950D02*
G54D12*
D03*
X530225Y488950D02*
G54D12*
D03*
X530225Y485775D02*
G54D12*
D03*
X533400Y482600D02*
G54D12*
D03*
X536575Y479425D02*
G54D12*
D03*
X539750Y476250D02*
G54D12*
D03*
X542925Y473075D02*
G54D12*
D03*
X533400Y476250D02*
G54D12*
D03*
X530225Y473075D02*
G54D12*
D03*
X622300Y501650D02*
G54D12*
D03*
X625475Y498475D02*
G54D12*
D03*
X606425Y180975D02*
G54D11*
D03*
X628655Y180975D02*
G54D11*
D03*
G36*
X802225Y465605D02*
X791695Y455075D01*
X776755Y455075D01*
X766225Y465605D01*
X766225Y480545D01*
X776755Y491075D01*
X791695Y491075D01*
X802225Y480545D01*
X802225Y465605D01*
G37*
G36*
X751425Y465605D02*
X740895Y455075D01*
X725955Y455075D01*
X715425Y465605D01*
X715425Y480545D01*
X725955Y491075D01*
X740895Y491075D01*
X751425Y480545D01*
X751425Y465605D01*
G37*
X695325Y352425D02*
G54D10*
D03*
X695325Y377825D02*
G54D10*
D03*
X695325Y263525D02*
G54D10*
D03*
X695325Y288925D02*
G54D10*
D03*
X695325Y174625D02*
G54D10*
D03*
X695325Y200025D02*
G54D10*
D03*
G36*
X715425Y480545D02*
X725955Y491075D01*
X740895Y491075D01*
X751425Y480545D01*
X751425Y465605D01*
X740895Y455075D01*
X725955Y455075D01*
X715425Y465605D01*
X715425Y480545D01*
G37*
X695325Y377825D02*
G54D10*
D03*
X695325Y288925D02*
G54D10*
D03*
X695325Y200025D02*
G54D10*
D03*
X866775Y390525D02*
G54D10*
D03*
G36*
X834325Y353795D02*
X827305Y346775D01*
X817345Y346775D01*
X810325Y353795D01*
X810325Y363755D01*
X817345Y370775D01*
X827305Y370775D01*
X834325Y363755D01*
X834325Y353795D01*
G37*
G36*
X808925Y353795D02*
X801905Y346775D01*
X791945Y346775D01*
X784925Y353795D01*
X784925Y363755D01*
X791945Y370775D01*
X801905Y370775D01*
X808925Y363755D01*
X808925Y353795D01*
G37*
G36*
X783525Y353795D02*
X776505Y346775D01*
X766545Y346775D01*
X759525Y353795D01*
X759525Y363755D01*
X766545Y370775D01*
X776505Y370775D01*
X783525Y363755D01*
X783525Y353795D01*
G37*
G36*
X948625Y353795D02*
X941605Y346775D01*
X931645Y346775D01*
X924625Y353795D01*
X924625Y363755D01*
X931645Y370775D01*
X941605Y370775D01*
X948625Y363755D01*
X948625Y353795D01*
G37*
G36*
X923225Y353795D02*
X916205Y346775D01*
X906245Y346775D01*
X899225Y353795D01*
X899225Y363755D01*
X906245Y370775D01*
X916205Y370775D01*
X923225Y363755D01*
X923225Y353795D01*
G37*
G36*
X897825Y353795D02*
X890805Y346775D01*
X880845Y346775D01*
X873825Y353795D01*
X873825Y363755D01*
X880845Y370775D01*
X890805Y370775D01*
X897825Y363755D01*
X897825Y353795D01*
G37*
G36*
X808925Y353795D02*
X801905Y346775D01*
X791945Y346775D01*
X784925Y353795D01*
X784925Y363755D01*
X791945Y370775D01*
X801905Y370775D01*
X808925Y363755D01*
X808925Y353795D01*
G37*
G36*
X923225Y353795D02*
X916205Y346775D01*
X906245Y346775D01*
X899225Y353795D01*
X899225Y363755D01*
X906245Y370775D01*
X916205Y370775D01*
X923225Y363755D01*
X923225Y353795D01*
G37*
G36*
X734125Y405030D02*
X741145Y412050D01*
X751105Y412050D01*
X758125Y405030D01*
X758125Y395070D01*
X751105Y388050D01*
X741145Y388050D01*
X734125Y395070D01*
X734125Y405030D01*
G37*
X936625Y390525D02*
G54D10*
D03*
X911622Y390525D02*
G54D10*
D03*
X891778Y390525D02*
G54D10*
D03*
X866775Y390525D02*
G54D10*
D03*
G36*
X990383Y407968D02*
X976928Y394512D01*
X957838Y394512D01*
X944383Y407968D01*
X944383Y427058D01*
X957838Y440512D01*
X976928Y440512D01*
X990383Y427058D01*
X990383Y407968D01*
G37*
G36*
X858819Y407967D02*
X845364Y394512D01*
X826274Y394512D01*
X812819Y407967D01*
X812819Y427057D01*
X826274Y440512D01*
X845364Y440512D01*
X858819Y427057D01*
X858819Y407967D01*
G37*
X822325Y498475D02*
G54D11*
D03*
X822325Y473075D02*
G54D11*
D03*
X847725Y85725D02*
G54D10*
D03*
X847725Y111125D02*
G54D10*
D03*
X847725Y111125D02*
G54D10*
D03*
X695325Y85725D02*
G54D10*
D03*
X695325Y111125D02*
G54D10*
D03*
X695325Y111125D02*
G54D10*
D03*
X854075Y180975D02*
G54D11*
D03*
X879475Y180975D02*
G54D11*
D03*
X771525Y85725D02*
G54D10*
D03*
X771525Y111125D02*
G54D10*
D03*
X771525Y111125D02*
G54D10*
D03*
X984250Y473075D02*
G54D12*
D03*
X981075Y469900D02*
G54D12*
D03*
X977900Y466725D02*
G54D12*
D03*
X974725Y463550D02*
G54D12*
D03*
X984250Y479425D02*
G54D12*
D03*
X981075Y482600D02*
G54D12*
D03*
X977900Y485775D02*
G54D12*
D03*
X974725Y488950D02*
G54D12*
D03*
X971550Y492125D02*
G54D12*
D03*
X971550Y460375D02*
G54D12*
D03*
X968375Y457200D02*
G54D12*
D03*
X965200Y454025D02*
G54D12*
D03*
X962025Y450850D02*
G54D12*
D03*
X955675Y450850D02*
G54D12*
D03*
X952500Y454025D02*
G54D12*
D03*
X949325Y457200D02*
G54D12*
D03*
X946150Y460375D02*
G54D12*
D03*
X942975Y463550D02*
G54D12*
D03*
X939800Y466725D02*
G54D12*
D03*
X936625Y469900D02*
G54D12*
D03*
X933450Y473075D02*
G54D12*
D03*
X930275Y476250D02*
G54D12*
D03*
X968375Y495300D02*
G54D12*
D03*
X965200Y498475D02*
G54D12*
D03*
X962025Y501650D02*
G54D12*
D03*
X958850Y504825D02*
G54D12*
D03*
X942975Y501650D02*
G54D12*
D03*
X933450Y492125D02*
G54D12*
D03*
X930275Y495300D02*
G54D12*
D03*
X939800Y504825D02*
G54D12*
D03*
X939800Y511175D02*
G54D12*
D03*
X936625Y514350D02*
G54D12*
D03*
X933450Y511175D02*
G54D12*
D03*
X930275Y508000D02*
G54D12*
D03*
X927100Y504825D02*
G54D12*
D03*
X923925Y501650D02*
G54D12*
D03*
X920750Y498475D02*
G54D12*
D03*
X923925Y495300D02*
G54D12*
D03*
X974725Y482600D02*
G54D12*
D03*
X971550Y482600D02*
G54D12*
D03*
X968375Y485775D02*
G54D12*
D03*
X965200Y482600D02*
G54D12*
D03*
X962025Y482600D02*
G54D12*
D03*
X958850Y482600D02*
G54D12*
D03*
X955675Y479425D02*
G54D12*
D03*
X952500Y479425D02*
G54D12*
D03*
X949325Y482600D02*
G54D12*
D03*
X946150Y482600D02*
G54D12*
D03*
X942975Y482600D02*
G54D12*
D03*
X939800Y482600D02*
G54D12*
D03*
X936625Y482600D02*
G54D12*
D03*
X933450Y479425D02*
G54D12*
D03*
X917575Y508000D02*
G54D12*
D03*
X917575Y504825D02*
G54D12*
D03*
X917575Y501650D02*
G54D12*
D03*
X914400Y501650D02*
G54D12*
D03*
X914400Y508000D02*
G54D12*
D03*
X911225Y508000D02*
G54D12*
D03*
X911225Y511175D02*
G54D12*
D03*
X911225Y514350D02*
G54D12*
D03*
X908050Y514350D02*
G54D12*
D03*
X904875Y514350D02*
G54D12*
D03*
X904875Y511175D02*
G54D12*
D03*
X904875Y508000D02*
G54D12*
D03*
X901700Y508000D02*
G54D12*
D03*
X898525Y508000D02*
G54D12*
D03*
X898525Y504825D02*
G54D12*
D03*
X898525Y501650D02*
G54D12*
D03*
X901700Y501650D02*
G54D12*
D03*
X904875Y501650D02*
G54D12*
D03*
X911225Y501650D02*
G54D12*
D03*
X911225Y498475D02*
G54D12*
D03*
X911225Y495300D02*
G54D12*
D03*
X908050Y495300D02*
G54D12*
D03*
X904875Y495300D02*
G54D12*
D03*
X904875Y498475D02*
G54D12*
D03*
X955675Y508000D02*
G54D12*
D03*
X949325Y508000D02*
G54D12*
D03*
X946150Y504825D02*
G54D12*
D03*
X930275Y488950D02*
G54D12*
D03*
X927100Y485775D02*
G54D12*
D03*
X927100Y479425D02*
G54D12*
D03*
X930275Y469900D02*
G54D12*
D03*
X927100Y469900D02*
G54D12*
D03*
X923925Y469900D02*
G54D12*
D03*
X920750Y469900D02*
G54D12*
D03*
X917575Y469900D02*
G54D12*
D03*
X923925Y466725D02*
G54D12*
D03*
X923925Y463550D02*
G54D12*
D03*
X923925Y460375D02*
G54D12*
D03*
X923925Y457200D02*
G54D12*
D03*
X923925Y454025D02*
G54D12*
D03*
X927100Y450850D02*
G54D12*
D03*
X930275Y450850D02*
G54D12*
D03*
X933450Y454025D02*
G54D12*
D03*
X914400Y450850D02*
G54D12*
D03*
X911225Y454025D02*
G54D12*
D03*
X911225Y457200D02*
G54D12*
D03*
X911225Y460375D02*
G54D12*
D03*
X911225Y463550D02*
G54D12*
D03*
X908050Y450850D02*
G54D12*
D03*
X904875Y450850D02*
G54D12*
D03*
X901700Y450850D02*
G54D12*
D03*
X901700Y454025D02*
G54D12*
D03*
X901700Y457200D02*
G54D12*
D03*
X901700Y460375D02*
G54D12*
D03*
X901700Y463550D02*
G54D12*
D03*
X895350Y466725D02*
G54D12*
D03*
X895350Y460375D02*
G54D12*
D03*
X895350Y457200D02*
G54D12*
D03*
X895350Y454025D02*
G54D12*
D03*
X895350Y450850D02*
G54D12*
D03*
X889000Y454025D02*
G54D12*
D03*
X889000Y457200D02*
G54D12*
D03*
X889000Y460375D02*
G54D12*
D03*
X885825Y463550D02*
G54D12*
D03*
X882650Y463550D02*
G54D12*
D03*
X885825Y450850D02*
G54D12*
D03*
X882650Y450850D02*
G54D12*
D03*
X879475Y450850D02*
G54D12*
D03*
X879475Y463550D02*
G54D12*
D03*
X873125Y454025D02*
G54D12*
D03*
X873125Y457200D02*
G54D12*
D03*
X873125Y460375D02*
G54D12*
D03*
X869950Y463550D02*
G54D12*
D03*
X866775Y463550D02*
G54D12*
D03*
X863600Y463550D02*
G54D12*
D03*
X869950Y450850D02*
G54D12*
D03*
X866775Y450850D02*
G54D12*
D03*
X863600Y450850D02*
G54D12*
D03*
X860425Y460375D02*
G54D12*
D03*
X860425Y457200D02*
G54D12*
D03*
X863600Y457200D02*
G54D12*
D03*
X866775Y457200D02*
G54D12*
D03*
X869950Y457200D02*
G54D12*
D03*
X962025Y469900D02*
G54D12*
D03*
X958850Y466725D02*
G54D12*
D03*
X955675Y469900D02*
G54D12*
D03*
X958850Y473075D02*
G54D12*
D03*
X949325Y466725D02*
G54D12*
D03*
X971550Y476250D02*
G54D12*
D03*
X942975Y476250D02*
G54D12*
D03*
X958850Y457200D02*
G54D12*
D03*
X974725Y473075D02*
G54D12*
D03*
X914400Y488950D02*
G54D12*
D03*
X911225Y488950D02*
G54D12*
D03*
X908050Y488950D02*
G54D12*
D03*
X904875Y488950D02*
G54D12*
D03*
X901700Y488950D02*
G54D12*
D03*
X901700Y485775D02*
G54D12*
D03*
X901700Y482600D02*
G54D12*
D03*
X904875Y479425D02*
G54D12*
D03*
X908050Y476250D02*
G54D12*
D03*
X911225Y473075D02*
G54D12*
D03*
X898525Y495300D02*
G54D12*
D03*
X898525Y492125D02*
G54D12*
D03*
X895350Y492125D02*
G54D12*
D03*
X895350Y495300D02*
G54D12*
D03*
X892175Y488950D02*
G54D12*
D03*
X889000Y488950D02*
G54D12*
D03*
X885825Y488950D02*
G54D12*
D03*
X882650Y488950D02*
G54D12*
D03*
X879475Y488950D02*
G54D12*
D03*
X892175Y482600D02*
G54D12*
D03*
X889000Y482600D02*
G54D12*
D03*
X885825Y482600D02*
G54D12*
D03*
X882650Y482600D02*
G54D12*
D03*
X879475Y482600D02*
G54D12*
D03*
X879475Y479425D02*
G54D12*
D03*
X882650Y476250D02*
G54D12*
D03*
X885825Y473075D02*
G54D12*
D03*
X892175Y473075D02*
G54D12*
D03*
X889000Y473075D02*
G54D12*
D03*
X873125Y488950D02*
G54D12*
D03*
X869950Y488950D02*
G54D12*
D03*
X866775Y488950D02*
G54D12*
D03*
X863600Y488950D02*
G54D12*
D03*
X860425Y488950D02*
G54D12*
D03*
X860425Y485775D02*
G54D12*
D03*
X863600Y482600D02*
G54D12*
D03*
X866775Y479425D02*
G54D12*
D03*
X869950Y476250D02*
G54D12*
D03*
X873125Y473075D02*
G54D12*
D03*
X863600Y476250D02*
G54D12*
D03*
X860425Y473075D02*
G54D12*
D03*
X952500Y501650D02*
G54D12*
D03*
X955675Y498475D02*
G54D12*
D03*
X936625Y180975D02*
G54D11*
D03*
X958855Y180975D02*
G54D11*
D03*
M02*
