%FSLAX34Y34*%
%MOMM*%
%LNCOPPER_TOP*%
G71*
G01*
%ADD10C, 2.60*%
%ADD11R, 2.58X3.95*%
%ADD12C, 2.30*%
%ADD13C, 2.60*%
%ADD14R, 2.10X2.40*%
%ADD15C, 1.30*%
%ADD16C, 0.50*%
%ADD17R, 2.40X2.10*%
%ADD18R, 2.80X4.80*%
%ADD19R, 2.80X5.30*%
%ADD20C, 1.50*%
%ADD21C, 0.10*%
%ADD22R, 1.60X2.80*%
%ADD23C, 1.00*%
%ADD24C, 0.60*%
%ADD25C, 1.80*%
%ADD26R, 1.78X3.15*%
%ADD27C, 1.80*%
%ADD28R, 1.30X1.60*%
%ADD29R, 1.60X1.30*%
%ADD30R, 2.00X4.00*%
%ADD31R, 2.00X4.50*%
%ADD32R, 0.80X2.00*%
%LPD*%
G36*
X0Y1000000D02*
X1000000Y1000000D01*
X1000000Y50000D01*
X0Y50000D01*
X0Y1000000D01*
G37*
%LPC*%
G36*
X142825Y938265D02*
X131710Y927150D01*
X115940Y927150D01*
X104825Y938265D01*
X104825Y954035D01*
X115940Y965150D01*
X131710Y965150D01*
X142825Y954035D01*
X142825Y938265D01*
G37*
G36*
X92025Y938265D02*
X80910Y927150D01*
X65140Y927150D01*
X54025Y938265D01*
X54025Y954035D01*
X65140Y965150D01*
X80910Y965150D01*
X92025Y954035D01*
X92025Y938265D01*
G37*
X34925Y825500D02*
G54D10*
D03*
X34925Y850900D02*
G54D10*
D03*
X34925Y736600D02*
G54D10*
D03*
X34925Y762000D02*
G54D10*
D03*
X34925Y647700D02*
G54D10*
D03*
X34925Y673100D02*
G54D10*
D03*
G36*
X54025Y954035D02*
X65140Y965150D01*
X80910Y965150D01*
X92025Y954035D01*
X92025Y938265D01*
X80910Y927150D01*
X65140Y927150D01*
X54025Y938265D01*
X54025Y954035D01*
G37*
X34925Y850900D02*
G54D10*
D03*
X34925Y762000D02*
G54D10*
D03*
X34925Y673100D02*
G54D10*
D03*
X206375Y863600D02*
G54D10*
D03*
G36*
X174925Y826455D02*
X167320Y818850D01*
X156530Y818850D01*
X148925Y826455D01*
X148925Y837245D01*
X156530Y844850D01*
X167320Y844850D01*
X174925Y837245D01*
X174925Y826455D01*
G37*
G36*
X149525Y826455D02*
X141920Y818850D01*
X131130Y818850D01*
X123525Y826455D01*
X123525Y837245D01*
X131130Y844850D01*
X141920Y844850D01*
X149525Y837245D01*
X149525Y826455D01*
G37*
G36*
X124125Y826455D02*
X116520Y818850D01*
X105730Y818850D01*
X98125Y826455D01*
X98125Y837245D01*
X105730Y844850D01*
X116520Y844850D01*
X124125Y837245D01*
X124125Y826455D01*
G37*
G36*
X289225Y826455D02*
X281620Y818850D01*
X270830Y818850D01*
X263225Y826455D01*
X263225Y837245D01*
X270830Y844850D01*
X281620Y844850D01*
X289225Y837245D01*
X289225Y826455D01*
G37*
G36*
X263825Y826455D02*
X256220Y818850D01*
X245430Y818850D01*
X237825Y826455D01*
X237825Y837245D01*
X245430Y844850D01*
X256220Y844850D01*
X263825Y837245D01*
X263825Y826455D01*
G37*
G36*
X238425Y826455D02*
X230820Y818850D01*
X220030Y818850D01*
X212425Y826455D01*
X212425Y837245D01*
X220030Y844850D01*
X230820Y844850D01*
X238425Y837245D01*
X238425Y826455D01*
G37*
G36*
X149525Y826455D02*
X141920Y818850D01*
X131130Y818850D01*
X123525Y826455D01*
X123525Y837245D01*
X131130Y844850D01*
X141920Y844850D01*
X149525Y837245D01*
X149525Y826455D01*
G37*
G36*
X263825Y826455D02*
X256220Y818850D01*
X245430Y818850D01*
X237825Y826455D01*
X237825Y837245D01*
X245430Y844850D01*
X256220Y844850D01*
X263825Y837245D01*
X263825Y826455D01*
G37*
X137716Y873125D02*
G54D11*
D03*
X85725Y873125D02*
G54D11*
D03*
G36*
X72725Y878520D02*
X80330Y886125D01*
X91120Y886125D01*
X98725Y878520D01*
X98725Y867730D01*
X91120Y860125D01*
X80330Y860125D01*
X72725Y867730D01*
X72725Y878520D01*
G37*
G54D12*
X123825Y946150D02*
X123825Y920750D01*
X138112Y906462D01*
X138112Y873522D01*
X137716Y873125D01*
X276225Y863600D02*
G54D10*
D03*
X251222Y863600D02*
G54D10*
D03*
X231378Y863600D02*
G54D10*
D03*
X206375Y863600D02*
G54D10*
D03*
G36*
X330983Y880627D02*
X316943Y866587D01*
X297023Y866587D01*
X282983Y880627D01*
X282983Y900547D01*
X297023Y914587D01*
X316943Y914587D01*
X330983Y900547D01*
X330983Y880627D01*
G37*
G36*
X199419Y880627D02*
X185379Y866587D01*
X165459Y866587D01*
X151419Y880627D01*
X151419Y900547D01*
X165459Y914587D01*
X185379Y914587D01*
X199419Y900547D01*
X199419Y880627D01*
G37*
X161925Y971550D02*
G54D13*
D03*
X161925Y946150D02*
G54D13*
D03*
G54D12*
X123825Y946150D02*
X161925Y946150D01*
X187325Y558800D02*
G54D10*
D03*
X187325Y584200D02*
G54D10*
D03*
X187325Y584200D02*
G54D10*
D03*
X34925Y558800D02*
G54D10*
D03*
X34925Y584200D02*
G54D10*
D03*
X34925Y584200D02*
G54D10*
D03*
G54D12*
X34925Y558800D02*
X53975Y558800D01*
X66675Y571500D01*
X66675Y647700D01*
X34925Y647700D01*
G54D12*
X276225Y831850D02*
X276225Y863600D01*
G54D12*
X66675Y647700D02*
X66675Y698500D01*
X161925Y793750D01*
X161925Y831850D01*
G54D12*
X276225Y831850D02*
X276025Y616150D01*
X15875Y952500D02*
G54D14*
D03*
X34875Y952500D02*
G54D14*
D03*
X15875Y977900D02*
G54D14*
D03*
X34875Y977900D02*
G54D14*
D03*
G54D15*
X15875Y952500D02*
X15875Y977900D01*
G54D16*
X34925Y977900D02*
X34925Y990600D01*
X142875Y657225D02*
G54D14*
D03*
X161875Y657225D02*
G54D14*
D03*
X142875Y631825D02*
G54D14*
D03*
X161875Y631825D02*
G54D14*
D03*
X95250Y631825D02*
G54D14*
D03*
X114250Y631825D02*
G54D14*
D03*
X193675Y654050D02*
G54D13*
D03*
X219075Y654050D02*
G54D13*
D03*
X95250Y657225D02*
G54D14*
D03*
X114250Y657225D02*
G54D14*
D03*
G54D12*
X222250Y654050D02*
X276225Y654050D01*
G54D15*
X95250Y631825D02*
X69850Y631825D01*
X66675Y635000D01*
G54D15*
X95250Y657225D02*
X95250Y631825D01*
G54D15*
X161875Y631825D02*
X161875Y657225D01*
G54D16*
X114250Y657225D02*
X142875Y657225D01*
G54D16*
X114250Y631825D02*
X142875Y631825D01*
X317475Y831825D02*
G54D17*
D03*
X317475Y812825D02*
G54D17*
D03*
G54D16*
X317475Y812825D02*
X317475Y800125D01*
G54D15*
X317475Y831825D02*
X276250Y831825D01*
X276225Y831850D01*
X111125Y558800D02*
G54D10*
D03*
X111125Y584200D02*
G54D10*
D03*
X111125Y584200D02*
G54D10*
D03*
G54D12*
X111125Y558800D02*
X187325Y558800D01*
G54D15*
X161875Y631825D02*
X161875Y558850D01*
X161925Y558800D01*
X276107Y559595D02*
G54D18*
D03*
X276107Y613570D02*
G54D18*
D03*
X276107Y557214D02*
G54D19*
D03*
X276107Y616348D02*
G54D19*
D03*
G54D12*
X276107Y616348D02*
X276107Y615832D01*
X219075Y558800D01*
X187325Y558800D01*
G54D20*
X263525Y558800D02*
X288925Y558800D01*
G36*
X96838Y893762D02*
X127000Y893762D01*
X127000Y852488D01*
X96838Y852488D01*
X96838Y893762D01*
G37*
G54D21*
X96838Y893762D02*
X127000Y893762D01*
X127000Y852488D01*
X96838Y852488D01*
X96838Y893762D01*
X200025Y625475D02*
G54D14*
D03*
X219025Y625475D02*
G54D14*
D03*
G54D16*
X190450Y625475D02*
X200025Y625475D01*
G54D15*
X219075Y625475D02*
X219075Y654050D01*
X25400Y892175D02*
G54D22*
D03*
X25400Y926505D02*
G54D22*
D03*
G54D15*
X25400Y892175D02*
X66675Y892175D01*
X85725Y873125D01*
G54D15*
X34875Y952500D02*
X34925Y952500D01*
X47625Y939800D01*
X47625Y892175D01*
G54D16*
X15875Y927100D02*
X34925Y927100D01*
X276225Y654050D02*
G54D13*
D03*
X298455Y654050D02*
G54D13*
D03*
G36*
X473025Y938265D02*
X461910Y927150D01*
X446140Y927150D01*
X435025Y938265D01*
X435025Y954035D01*
X446140Y965150D01*
X461910Y965150D01*
X473025Y954035D01*
X473025Y938265D01*
G37*
G36*
X422225Y938265D02*
X411110Y927150D01*
X395340Y927150D01*
X384225Y938265D01*
X384225Y954035D01*
X395340Y965150D01*
X411110Y965150D01*
X422225Y954035D01*
X422225Y938265D01*
G37*
X365125Y825500D02*
G54D10*
D03*
X365125Y850900D02*
G54D10*
D03*
X365125Y736600D02*
G54D10*
D03*
X365125Y762000D02*
G54D10*
D03*
X365125Y647700D02*
G54D10*
D03*
X365125Y673100D02*
G54D10*
D03*
G36*
X384225Y954035D02*
X395340Y965150D01*
X411110Y965150D01*
X422225Y954035D01*
X422225Y938265D01*
X411110Y927150D01*
X395340Y927150D01*
X384225Y938265D01*
X384225Y954035D01*
G37*
X365125Y850900D02*
G54D10*
D03*
X365125Y762000D02*
G54D10*
D03*
X365125Y673100D02*
G54D10*
D03*
X536575Y863600D02*
G54D10*
D03*
G36*
X505125Y826455D02*
X497520Y818850D01*
X486730Y818850D01*
X479125Y826455D01*
X479125Y837245D01*
X486730Y844850D01*
X497520Y844850D01*
X505125Y837245D01*
X505125Y826455D01*
G37*
G36*
X479725Y826455D02*
X472120Y818850D01*
X461330Y818850D01*
X453725Y826455D01*
X453725Y837245D01*
X461330Y844850D01*
X472120Y844850D01*
X479725Y837245D01*
X479725Y826455D01*
G37*
G36*
X454325Y826455D02*
X446720Y818850D01*
X435930Y818850D01*
X428325Y826455D01*
X428325Y837245D01*
X435930Y844850D01*
X446720Y844850D01*
X454325Y837245D01*
X454325Y826455D01*
G37*
G36*
X619425Y826455D02*
X611820Y818850D01*
X601030Y818850D01*
X593425Y826455D01*
X593425Y837245D01*
X601030Y844850D01*
X611820Y844850D01*
X619425Y837245D01*
X619425Y826455D01*
G37*
G36*
X594025Y826455D02*
X586420Y818850D01*
X575630Y818850D01*
X568025Y826455D01*
X568025Y837245D01*
X575630Y844850D01*
X586420Y844850D01*
X594025Y837245D01*
X594025Y826455D01*
G37*
G36*
X568625Y826455D02*
X561020Y818850D01*
X550230Y818850D01*
X542625Y826455D01*
X542625Y837245D01*
X550230Y844850D01*
X561020Y844850D01*
X568625Y837245D01*
X568625Y826455D01*
G37*
G36*
X479725Y826455D02*
X472120Y818850D01*
X461330Y818850D01*
X453725Y826455D01*
X453725Y837245D01*
X461330Y844850D01*
X472120Y844850D01*
X479725Y837245D01*
X479725Y826455D01*
G37*
G36*
X594025Y826455D02*
X586420Y818850D01*
X575630Y818850D01*
X568025Y826455D01*
X568025Y837245D01*
X575630Y844850D01*
X586420Y844850D01*
X594025Y837245D01*
X594025Y826455D01*
G37*
X467916Y873125D02*
G54D11*
D03*
X415925Y873125D02*
G54D11*
D03*
G36*
X402925Y878520D02*
X410530Y886125D01*
X421320Y886125D01*
X428925Y878520D01*
X428925Y867730D01*
X421320Y860125D01*
X410530Y860125D01*
X402925Y867730D01*
X402925Y878520D01*
G37*
G54D12*
X454025Y946150D02*
X454025Y920750D01*
X468312Y906462D01*
X468312Y873522D01*
X467916Y873125D01*
X606425Y863600D02*
G54D10*
D03*
X581422Y863600D02*
G54D10*
D03*
X561578Y863600D02*
G54D10*
D03*
X536575Y863600D02*
G54D10*
D03*
G36*
X661183Y880627D02*
X647143Y866587D01*
X627223Y866587D01*
X613183Y880627D01*
X613183Y900547D01*
X627223Y914587D01*
X647143Y914587D01*
X661183Y900547D01*
X661183Y880627D01*
G37*
G36*
X529619Y880627D02*
X515579Y866587D01*
X495659Y866587D01*
X481619Y880627D01*
X481619Y900547D01*
X495659Y914587D01*
X515579Y914587D01*
X529619Y900547D01*
X529619Y880627D01*
G37*
X492125Y971550D02*
G54D13*
D03*
X492125Y946150D02*
G54D13*
D03*
G54D12*
X454025Y946150D02*
X492125Y946150D01*
X517525Y558800D02*
G54D10*
D03*
X517525Y584200D02*
G54D10*
D03*
X517525Y584200D02*
G54D10*
D03*
X365125Y558800D02*
G54D10*
D03*
X365125Y584200D02*
G54D10*
D03*
X365125Y584200D02*
G54D10*
D03*
G54D12*
X365125Y558800D02*
X384175Y558800D01*
X396875Y571500D01*
X396875Y647700D01*
X365125Y647700D01*
G54D12*
X606425Y831850D02*
X606425Y863600D01*
G54D12*
X396875Y647700D02*
X396875Y698500D01*
X492125Y793750D01*
X492125Y831850D01*
G54D12*
X606425Y831850D02*
X606225Y616150D01*
X346075Y952500D02*
G54D14*
D03*
X365075Y952500D02*
G54D14*
D03*
X346075Y977900D02*
G54D14*
D03*
X365075Y977900D02*
G54D14*
D03*
G54D15*
X346075Y952500D02*
X346075Y977900D01*
G54D16*
X365125Y977900D02*
X365125Y990600D01*
X473075Y657225D02*
G54D14*
D03*
X492075Y657225D02*
G54D14*
D03*
X473075Y631825D02*
G54D14*
D03*
X492075Y631825D02*
G54D14*
D03*
X425450Y631825D02*
G54D14*
D03*
X444450Y631825D02*
G54D14*
D03*
X523875Y654050D02*
G54D13*
D03*
X549275Y654050D02*
G54D13*
D03*
X425450Y657225D02*
G54D14*
D03*
X444450Y657225D02*
G54D14*
D03*
G54D12*
X552450Y654050D02*
X606425Y654050D01*
G54D15*
X425450Y631825D02*
X400050Y631825D01*
X396875Y635000D01*
G54D15*
X425450Y657225D02*
X425450Y631825D01*
G54D15*
X492075Y631825D02*
X492075Y657225D01*
G54D16*
X444450Y657225D02*
X473075Y657225D01*
G54D16*
X444450Y631825D02*
X473075Y631825D01*
X647675Y831825D02*
G54D17*
D03*
X647675Y812825D02*
G54D17*
D03*
G54D16*
X647675Y812825D02*
X647675Y800125D01*
G54D15*
X647675Y831825D02*
X606450Y831825D01*
X606425Y831850D01*
X441325Y558800D02*
G54D10*
D03*
X441325Y584200D02*
G54D10*
D03*
X441325Y584200D02*
G54D10*
D03*
G54D12*
X441325Y558800D02*
X517525Y558800D01*
G54D15*
X492075Y631825D02*
X492075Y558850D01*
X492125Y558800D01*
X606307Y559595D02*
G54D18*
D03*
X606307Y613570D02*
G54D18*
D03*
X606307Y557214D02*
G54D19*
D03*
X606307Y616348D02*
G54D19*
D03*
G54D12*
X606307Y616348D02*
X606307Y615832D01*
X549275Y558800D01*
X517525Y558800D01*
G54D20*
X593725Y558800D02*
X619125Y558800D01*
G36*
X427038Y893762D02*
X457200Y893762D01*
X457200Y852488D01*
X427038Y852488D01*
X427038Y893762D01*
G37*
G54D21*
X427038Y893762D02*
X457200Y893762D01*
X457200Y852488D01*
X427038Y852488D01*
X427038Y893762D01*
X530225Y625475D02*
G54D14*
D03*
X549225Y625475D02*
G54D14*
D03*
G54D16*
X520650Y625475D02*
X530225Y625475D01*
G54D15*
X549275Y625475D02*
X549275Y654050D01*
X355600Y892175D02*
G54D22*
D03*
X355600Y926505D02*
G54D22*
D03*
G54D15*
X355600Y892175D02*
X396875Y892175D01*
X415925Y873125D01*
G54D15*
X365075Y952500D02*
X365125Y952500D01*
X377825Y939800D01*
X377825Y892175D01*
G54D16*
X346075Y927100D02*
X365125Y927100D01*
X606425Y654050D02*
G54D13*
D03*
X628655Y654050D02*
G54D13*
D03*
G36*
X803225Y938265D02*
X792110Y927150D01*
X776340Y927150D01*
X765225Y938265D01*
X765225Y954035D01*
X776340Y965150D01*
X792110Y965150D01*
X803225Y954035D01*
X803225Y938265D01*
G37*
G36*
X752425Y938265D02*
X741310Y927150D01*
X725540Y927150D01*
X714425Y938265D01*
X714425Y954035D01*
X725540Y965150D01*
X741310Y965150D01*
X752425Y954035D01*
X752425Y938265D01*
G37*
X695325Y825500D02*
G54D10*
D03*
X695325Y850900D02*
G54D10*
D03*
X695325Y736600D02*
G54D10*
D03*
X695325Y762000D02*
G54D10*
D03*
X695325Y647700D02*
G54D10*
D03*
X695325Y673100D02*
G54D10*
D03*
G36*
X714425Y954035D02*
X725540Y965150D01*
X741310Y965150D01*
X752425Y954035D01*
X752425Y938265D01*
X741310Y927150D01*
X725540Y927150D01*
X714425Y938265D01*
X714425Y954035D01*
G37*
X695325Y850900D02*
G54D10*
D03*
X695325Y762000D02*
G54D10*
D03*
X695325Y673100D02*
G54D10*
D03*
X866775Y863600D02*
G54D10*
D03*
G36*
X835325Y826455D02*
X827720Y818850D01*
X816930Y818850D01*
X809325Y826455D01*
X809325Y837245D01*
X816930Y844850D01*
X827720Y844850D01*
X835325Y837245D01*
X835325Y826455D01*
G37*
G36*
X809925Y826455D02*
X802320Y818850D01*
X791530Y818850D01*
X783925Y826455D01*
X783925Y837245D01*
X791530Y844850D01*
X802320Y844850D01*
X809925Y837245D01*
X809925Y826455D01*
G37*
G36*
X784525Y826455D02*
X776920Y818850D01*
X766130Y818850D01*
X758525Y826455D01*
X758525Y837245D01*
X766130Y844850D01*
X776920Y844850D01*
X784525Y837245D01*
X784525Y826455D01*
G37*
G36*
X949625Y826455D02*
X942020Y818850D01*
X931230Y818850D01*
X923625Y826455D01*
X923625Y837245D01*
X931230Y844850D01*
X942020Y844850D01*
X949625Y837245D01*
X949625Y826455D01*
G37*
G36*
X924225Y826455D02*
X916620Y818850D01*
X905830Y818850D01*
X898225Y826455D01*
X898225Y837245D01*
X905830Y844850D01*
X916620Y844850D01*
X924225Y837245D01*
X924225Y826455D01*
G37*
G36*
X898825Y826455D02*
X891220Y818850D01*
X880430Y818850D01*
X872825Y826455D01*
X872825Y837245D01*
X880430Y844850D01*
X891220Y844850D01*
X898825Y837245D01*
X898825Y826455D01*
G37*
G36*
X809925Y826455D02*
X802320Y818850D01*
X791530Y818850D01*
X783925Y826455D01*
X783925Y837245D01*
X791530Y844850D01*
X802320Y844850D01*
X809925Y837245D01*
X809925Y826455D01*
G37*
G36*
X924225Y826455D02*
X916620Y818850D01*
X905830Y818850D01*
X898225Y826455D01*
X898225Y837245D01*
X905830Y844850D01*
X916620Y844850D01*
X924225Y837245D01*
X924225Y826455D01*
G37*
X798116Y873125D02*
G54D11*
D03*
X746125Y873125D02*
G54D11*
D03*
G36*
X733125Y878520D02*
X740730Y886125D01*
X751520Y886125D01*
X759125Y878520D01*
X759125Y867730D01*
X751520Y860125D01*
X740730Y860125D01*
X733125Y867730D01*
X733125Y878520D01*
G37*
G54D12*
X784225Y946150D02*
X784225Y920750D01*
X798512Y906462D01*
X798512Y873522D01*
X798116Y873125D01*
X936625Y863600D02*
G54D10*
D03*
X911622Y863600D02*
G54D10*
D03*
X891778Y863600D02*
G54D10*
D03*
X866775Y863600D02*
G54D10*
D03*
G36*
X991383Y880627D02*
X977343Y866587D01*
X957423Y866587D01*
X943383Y880627D01*
X943383Y900547D01*
X957423Y914587D01*
X977343Y914587D01*
X991383Y900547D01*
X991383Y880627D01*
G37*
G36*
X859819Y880627D02*
X845779Y866587D01*
X825859Y866587D01*
X811819Y880627D01*
X811819Y900547D01*
X825859Y914587D01*
X845779Y914587D01*
X859819Y900547D01*
X859819Y880627D01*
G37*
X822325Y971550D02*
G54D13*
D03*
X822325Y946150D02*
G54D13*
D03*
G54D12*
X784225Y946150D02*
X822325Y946150D01*
X847725Y558800D02*
G54D10*
D03*
X847725Y584200D02*
G54D10*
D03*
X847725Y584200D02*
G54D10*
D03*
X695325Y558800D02*
G54D10*
D03*
X695325Y584200D02*
G54D10*
D03*
X695325Y584200D02*
G54D10*
D03*
G54D12*
X695325Y558800D02*
X714375Y558800D01*
X727075Y571500D01*
X727075Y647700D01*
X695325Y647700D01*
G54D12*
X936625Y831850D02*
X936625Y863600D01*
G54D12*
X727075Y647700D02*
X727075Y698500D01*
X822325Y793750D01*
X822325Y831850D01*
G54D12*
X936625Y831850D02*
X936425Y616150D01*
X676275Y952500D02*
G54D14*
D03*
X695275Y952500D02*
G54D14*
D03*
X676275Y977900D02*
G54D14*
D03*
X695275Y977900D02*
G54D14*
D03*
G54D15*
X676275Y952500D02*
X676275Y977900D01*
G54D16*
X695325Y977900D02*
X695325Y990600D01*
X803275Y657225D02*
G54D14*
D03*
X822275Y657225D02*
G54D14*
D03*
X803275Y631825D02*
G54D14*
D03*
X822275Y631825D02*
G54D14*
D03*
X755650Y631825D02*
G54D14*
D03*
X774650Y631825D02*
G54D14*
D03*
X854075Y654050D02*
G54D13*
D03*
X879475Y654050D02*
G54D13*
D03*
X755650Y657225D02*
G54D14*
D03*
X774650Y657225D02*
G54D14*
D03*
G54D12*
X882650Y654050D02*
X936625Y654050D01*
G54D15*
X755650Y631825D02*
X730250Y631825D01*
X727075Y635000D01*
G54D15*
X755650Y657225D02*
X755650Y631825D01*
G54D15*
X822275Y631825D02*
X822275Y657225D01*
G54D16*
X774650Y657225D02*
X803275Y657225D01*
G54D16*
X774650Y631825D02*
X803275Y631825D01*
X977875Y831825D02*
G54D17*
D03*
X977875Y812825D02*
G54D17*
D03*
G54D16*
X977875Y812825D02*
X977875Y800125D01*
G54D15*
X977875Y831825D02*
X936650Y831825D01*
X936625Y831850D01*
X771525Y558800D02*
G54D10*
D03*
X771525Y584200D02*
G54D10*
D03*
X771525Y584200D02*
G54D10*
D03*
G54D12*
X771525Y558800D02*
X847725Y558800D01*
G54D15*
X822275Y631825D02*
X822275Y558850D01*
X822325Y558800D01*
X936507Y559595D02*
G54D18*
D03*
X936507Y613570D02*
G54D18*
D03*
X936507Y557214D02*
G54D19*
D03*
X936507Y616348D02*
G54D19*
D03*
G54D12*
X936507Y616348D02*
X936507Y615832D01*
X879475Y558800D01*
X847725Y558800D01*
G54D20*
X923925Y558800D02*
X949325Y558800D01*
G36*
X757238Y893762D02*
X787400Y893762D01*
X787400Y852488D01*
X757238Y852488D01*
X757238Y893762D01*
G37*
G54D21*
X757238Y893762D02*
X787400Y893762D01*
X787400Y852488D01*
X757238Y852488D01*
X757238Y893762D01*
X860425Y625475D02*
G54D14*
D03*
X879425Y625475D02*
G54D14*
D03*
G54D16*
X850850Y625475D02*
X860425Y625475D01*
G54D15*
X879475Y625475D02*
X879475Y654050D01*
X685800Y892175D02*
G54D22*
D03*
X685800Y926505D02*
G54D22*
D03*
G54D15*
X685800Y892175D02*
X727075Y892175D01*
X746125Y873125D01*
G54D15*
X695275Y952500D02*
X695325Y952500D01*
X708025Y939800D01*
X708025Y892175D01*
G54D16*
X676275Y927100D02*
X695325Y927100D01*
X936625Y654050D02*
G54D13*
D03*
X958855Y654050D02*
G54D13*
D03*
G36*
X142825Y468365D02*
X131710Y457250D01*
X115940Y457250D01*
X104825Y468365D01*
X104825Y484135D01*
X115940Y495250D01*
X131710Y495250D01*
X142825Y484135D01*
X142825Y468365D01*
G37*
G36*
X92025Y468365D02*
X80910Y457250D01*
X65140Y457250D01*
X54025Y468365D01*
X54025Y484135D01*
X65140Y495250D01*
X80910Y495250D01*
X92025Y484135D01*
X92025Y468365D01*
G37*
X34925Y355600D02*
G54D10*
D03*
X34925Y381000D02*
G54D10*
D03*
X34925Y266700D02*
G54D10*
D03*
X34925Y292100D02*
G54D10*
D03*
X34925Y177800D02*
G54D10*
D03*
X34925Y203200D02*
G54D10*
D03*
G36*
X54025Y484135D02*
X65140Y495250D01*
X80910Y495250D01*
X92025Y484135D01*
X92025Y468365D01*
X80910Y457250D01*
X65140Y457250D01*
X54025Y468365D01*
X54025Y484135D01*
G37*
X34925Y381000D02*
G54D10*
D03*
X34925Y292100D02*
G54D10*
D03*
X34925Y203200D02*
G54D10*
D03*
X206375Y393700D02*
G54D10*
D03*
G36*
X174925Y356555D02*
X167320Y348950D01*
X156530Y348950D01*
X148925Y356555D01*
X148925Y367345D01*
X156530Y374950D01*
X167320Y374950D01*
X174925Y367345D01*
X174925Y356555D01*
G37*
G36*
X149525Y356555D02*
X141920Y348950D01*
X131130Y348950D01*
X123525Y356555D01*
X123525Y367345D01*
X131130Y374950D01*
X141920Y374950D01*
X149525Y367345D01*
X149525Y356555D01*
G37*
G36*
X124125Y356555D02*
X116520Y348950D01*
X105730Y348950D01*
X98125Y356555D01*
X98125Y367345D01*
X105730Y374950D01*
X116520Y374950D01*
X124125Y367345D01*
X124125Y356555D01*
G37*
G36*
X289225Y356555D02*
X281620Y348950D01*
X270830Y348950D01*
X263225Y356555D01*
X263225Y367345D01*
X270830Y374950D01*
X281620Y374950D01*
X289225Y367345D01*
X289225Y356555D01*
G37*
G36*
X263825Y356555D02*
X256220Y348950D01*
X245430Y348950D01*
X237825Y356555D01*
X237825Y367345D01*
X245430Y374950D01*
X256220Y374950D01*
X263825Y367345D01*
X263825Y356555D01*
G37*
G36*
X238425Y356555D02*
X230820Y348950D01*
X220030Y348950D01*
X212425Y356555D01*
X212425Y367345D01*
X220030Y374950D01*
X230820Y374950D01*
X238425Y367345D01*
X238425Y356555D01*
G37*
G36*
X149525Y356555D02*
X141920Y348950D01*
X131130Y348950D01*
X123525Y356555D01*
X123525Y367345D01*
X131130Y374950D01*
X141920Y374950D01*
X149525Y367345D01*
X149525Y356555D01*
G37*
G36*
X263825Y356555D02*
X256220Y348950D01*
X245430Y348950D01*
X237825Y356555D01*
X237825Y367345D01*
X245430Y374950D01*
X256220Y374950D01*
X263825Y367345D01*
X263825Y356555D01*
G37*
X137716Y403225D02*
G54D11*
D03*
X85725Y403225D02*
G54D11*
D03*
G36*
X72725Y408620D02*
X80330Y416225D01*
X91120Y416225D01*
X98725Y408620D01*
X98725Y397830D01*
X91120Y390225D01*
X80330Y390225D01*
X72725Y397830D01*
X72725Y408620D01*
G37*
G54D12*
X123825Y476250D02*
X123825Y450850D01*
X138112Y436562D01*
X138112Y403622D01*
X137716Y403225D01*
X276225Y393700D02*
G54D10*
D03*
X251222Y393700D02*
G54D10*
D03*
X231378Y393700D02*
G54D10*
D03*
X206375Y393700D02*
G54D10*
D03*
G36*
X330983Y410728D02*
X316943Y396688D01*
X297023Y396688D01*
X282983Y410728D01*
X282983Y430648D01*
X297023Y444688D01*
X316943Y444688D01*
X330983Y430648D01*
X330983Y410728D01*
G37*
G36*
X199419Y410727D02*
X185379Y396687D01*
X165459Y396687D01*
X151419Y410727D01*
X151419Y430647D01*
X165459Y444687D01*
X185379Y444687D01*
X199419Y430647D01*
X199419Y410727D01*
G37*
X161925Y501650D02*
G54D13*
D03*
X161925Y476250D02*
G54D13*
D03*
G54D12*
X123825Y476250D02*
X161925Y476250D01*
X187325Y88900D02*
G54D10*
D03*
X187325Y114300D02*
G54D10*
D03*
X187325Y114300D02*
G54D10*
D03*
X34925Y88900D02*
G54D10*
D03*
X34925Y114300D02*
G54D10*
D03*
X34925Y114300D02*
G54D10*
D03*
G54D12*
X34925Y88900D02*
X53975Y88900D01*
X66675Y101600D01*
X66675Y177800D01*
X34925Y177800D01*
G54D12*
X276225Y361950D02*
X276225Y393700D01*
G54D12*
X66675Y177800D02*
X66675Y228600D01*
X161925Y323850D01*
X161925Y361950D01*
G54D12*
X276225Y361950D02*
X276025Y146250D01*
X15875Y482600D02*
G54D14*
D03*
X34875Y482600D02*
G54D14*
D03*
X15875Y508000D02*
G54D14*
D03*
X34875Y508000D02*
G54D14*
D03*
G54D15*
X15875Y482600D02*
X15875Y508000D01*
G54D16*
X34925Y508000D02*
X34925Y520700D01*
X142875Y187325D02*
G54D14*
D03*
X161875Y187325D02*
G54D14*
D03*
X142875Y161925D02*
G54D14*
D03*
X161875Y161925D02*
G54D14*
D03*
X95250Y161925D02*
G54D14*
D03*
X114250Y161925D02*
G54D14*
D03*
X193675Y184150D02*
G54D13*
D03*
X219075Y184150D02*
G54D13*
D03*
X95250Y187325D02*
G54D14*
D03*
X114250Y187325D02*
G54D14*
D03*
G54D12*
X222250Y184150D02*
X276225Y184150D01*
G54D15*
X95250Y161925D02*
X69850Y161925D01*
X66675Y165100D01*
G54D15*
X95250Y187325D02*
X95250Y161925D01*
G54D15*
X161875Y161925D02*
X161875Y187325D01*
G54D16*
X114250Y187325D02*
X142875Y187325D01*
G54D16*
X114250Y161925D02*
X142875Y161925D01*
X317475Y361925D02*
G54D17*
D03*
X317475Y342925D02*
G54D17*
D03*
G54D16*
X317475Y342925D02*
X317475Y330225D01*
G54D15*
X317475Y361925D02*
X276250Y361925D01*
X276225Y361950D01*
X111125Y88900D02*
G54D10*
D03*
X111125Y114300D02*
G54D10*
D03*
X111125Y114300D02*
G54D10*
D03*
G54D12*
X111125Y88900D02*
X187325Y88900D01*
G54D15*
X161875Y161925D02*
X161875Y88950D01*
X161925Y88900D01*
X276107Y89695D02*
G54D18*
D03*
X276107Y143670D02*
G54D18*
D03*
X276107Y87314D02*
G54D19*
D03*
X276107Y146448D02*
G54D19*
D03*
G54D12*
X276107Y146448D02*
X276107Y145932D01*
X219075Y88900D01*
X187325Y88900D01*
G54D20*
X263525Y88900D02*
X288925Y88900D01*
G36*
X96838Y423862D02*
X127000Y423862D01*
X127000Y382588D01*
X96838Y382588D01*
X96838Y423862D01*
G37*
G54D21*
X96838Y423862D02*
X127000Y423862D01*
X127000Y382588D01*
X96838Y382588D01*
X96838Y423862D01*
X200025Y155575D02*
G54D14*
D03*
X219025Y155575D02*
G54D14*
D03*
G54D16*
X190450Y155575D02*
X200025Y155575D01*
G54D15*
X219075Y155575D02*
X219075Y184150D01*
X25400Y422275D02*
G54D22*
D03*
X25400Y456605D02*
G54D22*
D03*
G54D15*
X25400Y422275D02*
X66675Y422275D01*
X85725Y403225D01*
G54D15*
X34875Y482600D02*
X34925Y482600D01*
X47625Y469900D01*
X47625Y422275D01*
G54D16*
X15875Y457200D02*
X34925Y457200D01*
X276225Y184150D02*
G54D13*
D03*
X298455Y184150D02*
G54D13*
D03*
G36*
X473025Y468365D02*
X461910Y457250D01*
X446140Y457250D01*
X435025Y468365D01*
X435025Y484135D01*
X446140Y495250D01*
X461910Y495250D01*
X473025Y484135D01*
X473025Y468365D01*
G37*
G36*
X422225Y468365D02*
X411110Y457250D01*
X395340Y457250D01*
X384225Y468365D01*
X384225Y484135D01*
X395340Y495250D01*
X411110Y495250D01*
X422225Y484135D01*
X422225Y468365D01*
G37*
X365125Y355600D02*
G54D10*
D03*
X365125Y381000D02*
G54D10*
D03*
X365125Y266700D02*
G54D10*
D03*
X365125Y292100D02*
G54D10*
D03*
X365125Y177800D02*
G54D10*
D03*
X365125Y203200D02*
G54D10*
D03*
G36*
X384225Y484135D02*
X395340Y495250D01*
X411110Y495250D01*
X422225Y484135D01*
X422225Y468365D01*
X411110Y457250D01*
X395340Y457250D01*
X384225Y468365D01*
X384225Y484135D01*
G37*
X365125Y381000D02*
G54D10*
D03*
X365125Y292100D02*
G54D10*
D03*
X365125Y203200D02*
G54D10*
D03*
X536575Y393700D02*
G54D10*
D03*
G36*
X505125Y356555D02*
X497520Y348950D01*
X486730Y348950D01*
X479125Y356555D01*
X479125Y367345D01*
X486730Y374950D01*
X497520Y374950D01*
X505125Y367345D01*
X505125Y356555D01*
G37*
G36*
X479725Y356555D02*
X472120Y348950D01*
X461330Y348950D01*
X453725Y356555D01*
X453725Y367345D01*
X461330Y374950D01*
X472120Y374950D01*
X479725Y367345D01*
X479725Y356555D01*
G37*
G36*
X454325Y356555D02*
X446720Y348950D01*
X435930Y348950D01*
X428325Y356555D01*
X428325Y367345D01*
X435930Y374950D01*
X446720Y374950D01*
X454325Y367345D01*
X454325Y356555D01*
G37*
G36*
X619425Y356555D02*
X611820Y348950D01*
X601030Y348950D01*
X593425Y356555D01*
X593425Y367345D01*
X601030Y374950D01*
X611820Y374950D01*
X619425Y367345D01*
X619425Y356555D01*
G37*
G36*
X594025Y356555D02*
X586420Y348950D01*
X575630Y348950D01*
X568025Y356555D01*
X568025Y367345D01*
X575630Y374950D01*
X586420Y374950D01*
X594025Y367345D01*
X594025Y356555D01*
G37*
G36*
X568625Y356555D02*
X561020Y348950D01*
X550230Y348950D01*
X542625Y356555D01*
X542625Y367345D01*
X550230Y374950D01*
X561020Y374950D01*
X568625Y367345D01*
X568625Y356555D01*
G37*
G36*
X479725Y356555D02*
X472120Y348950D01*
X461330Y348950D01*
X453725Y356555D01*
X453725Y367345D01*
X461330Y374950D01*
X472120Y374950D01*
X479725Y367345D01*
X479725Y356555D01*
G37*
G36*
X594025Y356555D02*
X586420Y348950D01*
X575630Y348950D01*
X568025Y356555D01*
X568025Y367345D01*
X575630Y374950D01*
X586420Y374950D01*
X594025Y367345D01*
X594025Y356555D01*
G37*
X467916Y403225D02*
G54D11*
D03*
X415925Y403225D02*
G54D11*
D03*
G36*
X402925Y408620D02*
X410530Y416225D01*
X421320Y416225D01*
X428925Y408620D01*
X428925Y397830D01*
X421320Y390225D01*
X410530Y390225D01*
X402925Y397830D01*
X402925Y408620D01*
G37*
G54D12*
X454025Y476250D02*
X454025Y450850D01*
X468312Y436562D01*
X468312Y403622D01*
X467916Y403225D01*
X606425Y393700D02*
G54D10*
D03*
X581422Y393700D02*
G54D10*
D03*
X561578Y393700D02*
G54D10*
D03*
X536575Y393700D02*
G54D10*
D03*
G36*
X661183Y410728D02*
X647143Y396688D01*
X627223Y396688D01*
X613183Y410728D01*
X613183Y430648D01*
X627223Y444688D01*
X647143Y444688D01*
X661183Y430648D01*
X661183Y410728D01*
G37*
G36*
X529619Y410727D02*
X515579Y396687D01*
X495659Y396687D01*
X481619Y410727D01*
X481619Y430647D01*
X495659Y444687D01*
X515579Y444687D01*
X529619Y430647D01*
X529619Y410727D01*
G37*
X492125Y501650D02*
G54D13*
D03*
X492125Y476250D02*
G54D13*
D03*
G54D12*
X454025Y476250D02*
X492125Y476250D01*
X517525Y88900D02*
G54D10*
D03*
X517525Y114300D02*
G54D10*
D03*
X517525Y114300D02*
G54D10*
D03*
X365125Y88900D02*
G54D10*
D03*
X365125Y114300D02*
G54D10*
D03*
X365125Y114300D02*
G54D10*
D03*
G54D12*
X365125Y88900D02*
X384175Y88900D01*
X396875Y101600D01*
X396875Y177800D01*
X365125Y177800D01*
G54D12*
X606425Y361950D02*
X606425Y393700D01*
G54D12*
X396875Y177800D02*
X396875Y228600D01*
X492125Y323850D01*
X492125Y361950D01*
G54D12*
X606425Y361950D02*
X606225Y146250D01*
X346075Y482600D02*
G54D14*
D03*
X365075Y482600D02*
G54D14*
D03*
X346075Y508000D02*
G54D14*
D03*
X365075Y508000D02*
G54D14*
D03*
G54D15*
X346075Y482600D02*
X346075Y508000D01*
G54D16*
X365125Y508000D02*
X365125Y520700D01*
X473075Y187325D02*
G54D14*
D03*
X492075Y187325D02*
G54D14*
D03*
X473075Y161925D02*
G54D14*
D03*
X492075Y161925D02*
G54D14*
D03*
X425450Y161925D02*
G54D14*
D03*
X444450Y161925D02*
G54D14*
D03*
X523875Y184150D02*
G54D13*
D03*
X549275Y184150D02*
G54D13*
D03*
X425450Y187325D02*
G54D14*
D03*
X444450Y187325D02*
G54D14*
D03*
G54D12*
X552450Y184150D02*
X606425Y184150D01*
G54D15*
X425450Y161925D02*
X400050Y161925D01*
X396875Y165100D01*
G54D15*
X425450Y187325D02*
X425450Y161925D01*
G54D15*
X492075Y161925D02*
X492075Y187325D01*
G54D16*
X444450Y187325D02*
X473075Y187325D01*
G54D16*
X444450Y161925D02*
X473075Y161925D01*
X647675Y361925D02*
G54D17*
D03*
X647675Y342925D02*
G54D17*
D03*
G54D16*
X647675Y342925D02*
X647675Y330225D01*
G54D15*
X647675Y361925D02*
X606450Y361925D01*
X606425Y361950D01*
X441325Y88900D02*
G54D10*
D03*
X441325Y114300D02*
G54D10*
D03*
X441325Y114300D02*
G54D10*
D03*
G54D12*
X441325Y88900D02*
X517525Y88900D01*
G54D15*
X492075Y161925D02*
X492075Y88950D01*
X492125Y88900D01*
X606307Y89695D02*
G54D18*
D03*
X606307Y143670D02*
G54D18*
D03*
X606307Y87314D02*
G54D19*
D03*
X606307Y146448D02*
G54D19*
D03*
G54D12*
X606307Y146448D02*
X606307Y145932D01*
X549275Y88900D01*
X517525Y88900D01*
G54D20*
X593725Y88900D02*
X619125Y88900D01*
G36*
X427038Y423862D02*
X457200Y423862D01*
X457200Y382588D01*
X427038Y382588D01*
X427038Y423862D01*
G37*
G54D21*
X427038Y423862D02*
X457200Y423862D01*
X457200Y382588D01*
X427038Y382588D01*
X427038Y423862D01*
X530225Y155575D02*
G54D14*
D03*
X549225Y155575D02*
G54D14*
D03*
G54D16*
X520650Y155575D02*
X530225Y155575D01*
G54D15*
X549275Y155575D02*
X549275Y184150D01*
X355600Y422275D02*
G54D22*
D03*
X355600Y456605D02*
G54D22*
D03*
G54D15*
X355600Y422275D02*
X396875Y422275D01*
X415925Y403225D01*
G54D15*
X365075Y482600D02*
X365125Y482600D01*
X377825Y469900D01*
X377825Y422275D01*
G54D16*
X346075Y457200D02*
X365125Y457200D01*
X606425Y184150D02*
G54D13*
D03*
X628655Y184150D02*
G54D13*
D03*
G36*
X803225Y468365D02*
X792110Y457250D01*
X776340Y457250D01*
X765225Y468365D01*
X765225Y484135D01*
X776340Y495250D01*
X792110Y495250D01*
X803225Y484135D01*
X803225Y468365D01*
G37*
G36*
X752425Y468365D02*
X741310Y457250D01*
X725540Y457250D01*
X714425Y468365D01*
X714425Y484135D01*
X725540Y495250D01*
X741310Y495250D01*
X752425Y484135D01*
X752425Y468365D01*
G37*
X695325Y355600D02*
G54D10*
D03*
X695325Y381000D02*
G54D10*
D03*
X695325Y266700D02*
G54D10*
D03*
X695325Y292100D02*
G54D10*
D03*
X695325Y177800D02*
G54D10*
D03*
X695325Y203200D02*
G54D10*
D03*
G36*
X714425Y484135D02*
X725540Y495250D01*
X741310Y495250D01*
X752425Y484135D01*
X752425Y468365D01*
X741310Y457250D01*
X725540Y457250D01*
X714425Y468365D01*
X714425Y484135D01*
G37*
X695325Y381000D02*
G54D10*
D03*
X695325Y292100D02*
G54D10*
D03*
X695325Y203200D02*
G54D10*
D03*
X866775Y393700D02*
G54D10*
D03*
G36*
X835325Y356555D02*
X827720Y348950D01*
X816930Y348950D01*
X809325Y356555D01*
X809325Y367345D01*
X816930Y374950D01*
X827720Y374950D01*
X835325Y367345D01*
X835325Y356555D01*
G37*
G36*
X809925Y356555D02*
X802320Y348950D01*
X791530Y348950D01*
X783925Y356555D01*
X783925Y367345D01*
X791530Y374950D01*
X802320Y374950D01*
X809925Y367345D01*
X809925Y356555D01*
G37*
G36*
X784525Y356555D02*
X776920Y348950D01*
X766130Y348950D01*
X758525Y356555D01*
X758525Y367345D01*
X766130Y374950D01*
X776920Y374950D01*
X784525Y367345D01*
X784525Y356555D01*
G37*
G36*
X949625Y356555D02*
X942020Y348950D01*
X931230Y348950D01*
X923625Y356555D01*
X923625Y367345D01*
X931230Y374950D01*
X942020Y374950D01*
X949625Y367345D01*
X949625Y356555D01*
G37*
G36*
X924225Y356555D02*
X916620Y348950D01*
X905830Y348950D01*
X898225Y356555D01*
X898225Y367345D01*
X905830Y374950D01*
X916620Y374950D01*
X924225Y367345D01*
X924225Y356555D01*
G37*
G36*
X898825Y356555D02*
X891220Y348950D01*
X880430Y348950D01*
X872825Y356555D01*
X872825Y367345D01*
X880430Y374950D01*
X891220Y374950D01*
X898825Y367345D01*
X898825Y356555D01*
G37*
G36*
X809925Y356555D02*
X802320Y348950D01*
X791530Y348950D01*
X783925Y356555D01*
X783925Y367345D01*
X791530Y374950D01*
X802320Y374950D01*
X809925Y367345D01*
X809925Y356555D01*
G37*
G36*
X924225Y356555D02*
X916620Y348950D01*
X905830Y348950D01*
X898225Y356555D01*
X898225Y367345D01*
X905830Y374950D01*
X916620Y374950D01*
X924225Y367345D01*
X924225Y356555D01*
G37*
X798116Y403225D02*
G54D11*
D03*
X746125Y403225D02*
G54D11*
D03*
G36*
X733125Y408620D02*
X740730Y416225D01*
X751520Y416225D01*
X759125Y408620D01*
X759125Y397830D01*
X751520Y390225D01*
X740730Y390225D01*
X733125Y397830D01*
X733125Y408620D01*
G37*
G54D12*
X784225Y476250D02*
X784225Y450850D01*
X798512Y436562D01*
X798512Y403622D01*
X798116Y403225D01*
X936625Y393700D02*
G54D10*
D03*
X911622Y393700D02*
G54D10*
D03*
X891778Y393700D02*
G54D10*
D03*
X866775Y393700D02*
G54D10*
D03*
G36*
X991383Y410728D02*
X977343Y396688D01*
X957423Y396688D01*
X943383Y410728D01*
X943383Y430648D01*
X957423Y444688D01*
X977343Y444688D01*
X991383Y430648D01*
X991383Y410728D01*
G37*
G36*
X859819Y410727D02*
X845779Y396687D01*
X825859Y396687D01*
X811819Y410727D01*
X811819Y430647D01*
X825859Y444687D01*
X845779Y444687D01*
X859819Y430647D01*
X859819Y410727D01*
G37*
X822325Y501650D02*
G54D13*
D03*
X822325Y476250D02*
G54D13*
D03*
G54D12*
X784225Y476250D02*
X822325Y476250D01*
X847725Y88900D02*
G54D10*
D03*
X847725Y114300D02*
G54D10*
D03*
X847725Y114300D02*
G54D10*
D03*
X695325Y88900D02*
G54D10*
D03*
X695325Y114300D02*
G54D10*
D03*
X695325Y114300D02*
G54D10*
D03*
G54D12*
X695325Y88900D02*
X714375Y88900D01*
X727075Y101600D01*
X727075Y177800D01*
X695325Y177800D01*
G54D12*
X936625Y361950D02*
X936625Y393700D01*
G54D12*
X727075Y177800D02*
X727075Y228600D01*
X822325Y323850D01*
X822325Y361950D01*
G54D12*
X936625Y361950D02*
X936425Y146250D01*
X676275Y482600D02*
G54D14*
D03*
X695275Y482600D02*
G54D14*
D03*
X676275Y508000D02*
G54D14*
D03*
X695275Y508000D02*
G54D14*
D03*
G54D15*
X676275Y482600D02*
X676275Y508000D01*
G54D16*
X695325Y508000D02*
X695325Y520700D01*
X803275Y187325D02*
G54D14*
D03*
X822275Y187325D02*
G54D14*
D03*
X803275Y161925D02*
G54D14*
D03*
X822275Y161925D02*
G54D14*
D03*
X755650Y161925D02*
G54D14*
D03*
X774650Y161925D02*
G54D14*
D03*
X854075Y184150D02*
G54D13*
D03*
X879475Y184150D02*
G54D13*
D03*
X755650Y187325D02*
G54D14*
D03*
X774650Y187325D02*
G54D14*
D03*
G54D12*
X882650Y184150D02*
X936625Y184150D01*
G54D15*
X755650Y161925D02*
X730250Y161925D01*
X727075Y165100D01*
G54D15*
X755650Y187325D02*
X755650Y161925D01*
G54D15*
X822275Y161925D02*
X822275Y187325D01*
G54D16*
X774650Y187325D02*
X803275Y187325D01*
G54D16*
X774650Y161925D02*
X803275Y161925D01*
X977875Y361925D02*
G54D17*
D03*
X977875Y342925D02*
G54D17*
D03*
G54D16*
X977875Y342925D02*
X977875Y330225D01*
G54D15*
X977875Y361925D02*
X936650Y361925D01*
X936625Y361950D01*
X771525Y88900D02*
G54D10*
D03*
X771525Y114300D02*
G54D10*
D03*
X771525Y114300D02*
G54D10*
D03*
G54D12*
X771525Y88900D02*
X847725Y88900D01*
G54D15*
X822275Y161925D02*
X822275Y88950D01*
X822325Y88900D01*
X936507Y89695D02*
G54D18*
D03*
X936507Y143670D02*
G54D18*
D03*
X936507Y87314D02*
G54D19*
D03*
X936507Y146448D02*
G54D19*
D03*
G54D12*
X936507Y146448D02*
X936507Y145932D01*
X879475Y88900D01*
X847725Y88900D01*
G54D20*
X923925Y88900D02*
X949325Y88900D01*
G36*
X757238Y423862D02*
X787400Y423862D01*
X787400Y382588D01*
X757238Y382588D01*
X757238Y423862D01*
G37*
G54D21*
X757238Y423862D02*
X787400Y423862D01*
X787400Y382588D01*
X757238Y382588D01*
X757238Y423862D01*
X860425Y155575D02*
G54D14*
D03*
X879425Y155575D02*
G54D14*
D03*
G54D16*
X850850Y155575D02*
X860425Y155575D01*
G54D15*
X879475Y155575D02*
X879475Y184150D01*
X685800Y422275D02*
G54D22*
D03*
X685800Y456605D02*
G54D22*
D03*
G54D15*
X685800Y422275D02*
X727075Y422275D01*
X746125Y403225D01*
G54D15*
X695275Y482600D02*
X695325Y482600D01*
X708025Y469900D01*
X708025Y422275D01*
G54D16*
X676275Y457200D02*
X695325Y457200D01*
X936625Y184150D02*
G54D13*
D03*
X958855Y184150D02*
G54D13*
D03*
%LPD*%
G54D23*
G36*
X69489Y949686D02*
X83278Y963474D01*
X90349Y956403D01*
X76561Y942614D01*
X69489Y949686D01*
G37*
G36*
X76561Y949686D02*
X90349Y935897D01*
X83278Y928826D01*
X69489Y942614D01*
X76561Y949686D01*
G37*
G36*
X76561Y942614D02*
X62772Y928826D01*
X55701Y935897D01*
X69489Y949686D01*
X76561Y942614D01*
G37*
G36*
X69489Y942614D02*
X55701Y956403D01*
X62772Y963474D01*
X76561Y949686D01*
X69489Y942614D01*
G37*
G54D24*
G36*
X31925Y850900D02*
X31925Y864400D01*
X37925Y864400D01*
X37925Y850900D01*
X31925Y850900D01*
G37*
G36*
X34925Y853900D02*
X48425Y853900D01*
X48425Y847900D01*
X34925Y847900D01*
X34925Y853900D01*
G37*
G36*
X34925Y847900D02*
X21425Y847900D01*
X21425Y853900D01*
X34925Y853900D01*
X34925Y847900D01*
G37*
G54D24*
G36*
X31925Y762000D02*
X31925Y775500D01*
X37925Y775500D01*
X37925Y762000D01*
X31925Y762000D01*
G37*
G36*
X34925Y765000D02*
X48425Y765000D01*
X48425Y759000D01*
X34925Y759000D01*
X34925Y765000D01*
G37*
G36*
X34925Y759000D02*
X21425Y759000D01*
X21425Y765000D01*
X34925Y765000D01*
X34925Y759000D01*
G37*
G54D24*
G36*
X31925Y673100D02*
X31925Y686600D01*
X37925Y686600D01*
X37925Y673100D01*
X31925Y673100D01*
G37*
G36*
X34925Y676100D02*
X48425Y676100D01*
X48425Y670100D01*
X34925Y670100D01*
X34925Y676100D01*
G37*
G36*
X34925Y670100D02*
X21425Y670100D01*
X21425Y676100D01*
X34925Y676100D01*
X34925Y670100D01*
G37*
G54D24*
G36*
X204254Y865721D02*
X213800Y875267D01*
X218042Y871025D01*
X208496Y861479D01*
X204254Y865721D01*
G37*
G36*
X208496Y865721D02*
X218042Y856175D01*
X213800Y851933D01*
X204254Y861479D01*
X208496Y865721D01*
G37*
G36*
X208496Y861479D02*
X198950Y851933D01*
X194708Y856175D01*
X204254Y865721D01*
X208496Y861479D01*
G37*
G36*
X204254Y861479D02*
X194708Y871025D01*
X198950Y875267D01*
X208496Y865721D01*
X204254Y861479D01*
G37*
G54D24*
G36*
X139525Y831850D02*
X139525Y818350D01*
X133525Y818350D01*
X133525Y831850D01*
X139525Y831850D01*
G37*
G36*
X133525Y831850D02*
X133525Y845350D01*
X139525Y845350D01*
X139525Y831850D01*
X133525Y831850D01*
G37*
G54D24*
G36*
X253825Y831850D02*
X253825Y818350D01*
X247825Y818350D01*
X247825Y831850D01*
X253825Y831850D01*
G37*
G36*
X247825Y831850D02*
X247825Y845350D01*
X253825Y845350D01*
X253825Y831850D01*
X247825Y831850D01*
G37*
G54D24*
G36*
X158925Y971550D02*
X158925Y985050D01*
X164925Y985050D01*
X164925Y971550D01*
X158925Y971550D01*
G37*
G36*
X161925Y974550D02*
X175425Y974550D01*
X175425Y968550D01*
X161925Y968550D01*
X161925Y974550D01*
G37*
G36*
X161925Y968550D02*
X148425Y968550D01*
X148425Y974550D01*
X161925Y974550D01*
X161925Y968550D01*
G37*
G54D24*
G36*
X184325Y584200D02*
X184325Y597700D01*
X190325Y597700D01*
X190325Y584200D01*
X184325Y584200D01*
G37*
G36*
X187325Y587200D02*
X200825Y587200D01*
X200825Y581200D01*
X187325Y581200D01*
X187325Y587200D01*
G37*
G36*
X187325Y581200D02*
X173825Y581200D01*
X173825Y587200D01*
X187325Y587200D01*
X187325Y581200D01*
G37*
G54D24*
G36*
X31925Y584200D02*
X31925Y597700D01*
X37925Y597700D01*
X37925Y584200D01*
X31925Y584200D01*
G37*
G36*
X34925Y587200D02*
X48425Y587200D01*
X48425Y581200D01*
X34925Y581200D01*
X34925Y587200D01*
G37*
G36*
X34925Y581200D02*
X21425Y581200D01*
X21425Y587200D01*
X34925Y587200D01*
X34925Y581200D01*
G37*
G54D24*
G36*
X190675Y654050D02*
X190675Y667550D01*
X196675Y667550D01*
X196675Y654050D01*
X190675Y654050D01*
G37*
G36*
X196675Y654050D02*
X196675Y640550D01*
X190675Y640550D01*
X190675Y654050D01*
X196675Y654050D01*
G37*
G36*
X193675Y651050D02*
X180175Y651050D01*
X180175Y657050D01*
X193675Y657050D01*
X193675Y651050D01*
G37*
G54D24*
G36*
X108125Y584200D02*
X108125Y597700D01*
X114125Y597700D01*
X114125Y584200D01*
X108125Y584200D01*
G37*
G36*
X111125Y587200D02*
X124625Y587200D01*
X124625Y581200D01*
X111125Y581200D01*
X111125Y587200D01*
G37*
G36*
X111125Y581200D02*
X97625Y581200D01*
X97625Y587200D01*
X111125Y587200D01*
X111125Y581200D01*
G37*
G54D24*
G36*
X295455Y654050D02*
X295455Y667550D01*
X301455Y667550D01*
X301455Y654050D01*
X295455Y654050D01*
G37*
G36*
X298455Y657050D02*
X311955Y657050D01*
X311955Y651050D01*
X298455Y651050D01*
X298455Y657050D01*
G37*
G36*
X301455Y654050D02*
X301455Y640550D01*
X295455Y640550D01*
X295455Y654050D01*
X301455Y654050D01*
G37*
G54D23*
G36*
X399689Y949686D02*
X413478Y963474D01*
X420549Y956403D01*
X406761Y942614D01*
X399689Y949686D01*
G37*
G36*
X406761Y949686D02*
X420549Y935897D01*
X413478Y928826D01*
X399689Y942614D01*
X406761Y949686D01*
G37*
G36*
X406761Y942614D02*
X392972Y928826D01*
X385901Y935897D01*
X399689Y949686D01*
X406761Y942614D01*
G37*
G36*
X399689Y942614D02*
X385901Y956403D01*
X392972Y963474D01*
X406761Y949686D01*
X399689Y942614D01*
G37*
G54D24*
G36*
X362125Y850900D02*
X362125Y864400D01*
X368125Y864400D01*
X368125Y850900D01*
X362125Y850900D01*
G37*
G36*
X365125Y853900D02*
X378625Y853900D01*
X378625Y847900D01*
X365125Y847900D01*
X365125Y853900D01*
G37*
G36*
X365125Y847900D02*
X351625Y847900D01*
X351625Y853900D01*
X365125Y853900D01*
X365125Y847900D01*
G37*
G54D24*
G36*
X362125Y762000D02*
X362125Y775500D01*
X368125Y775500D01*
X368125Y762000D01*
X362125Y762000D01*
G37*
G36*
X365125Y765000D02*
X378625Y765000D01*
X378625Y759000D01*
X365125Y759000D01*
X365125Y765000D01*
G37*
G36*
X365125Y759000D02*
X351625Y759000D01*
X351625Y765000D01*
X365125Y765000D01*
X365125Y759000D01*
G37*
G54D24*
G36*
X362125Y673100D02*
X362125Y686600D01*
X368125Y686600D01*
X368125Y673100D01*
X362125Y673100D01*
G37*
G36*
X365125Y676100D02*
X378625Y676100D01*
X378625Y670100D01*
X365125Y670100D01*
X365125Y676100D01*
G37*
G36*
X365125Y670100D02*
X351625Y670100D01*
X351625Y676100D01*
X365125Y676100D01*
X365125Y670100D01*
G37*
G54D24*
G36*
X534454Y865721D02*
X544000Y875267D01*
X548242Y871025D01*
X538696Y861479D01*
X534454Y865721D01*
G37*
G36*
X538696Y865721D02*
X548242Y856175D01*
X544000Y851933D01*
X534454Y861479D01*
X538696Y865721D01*
G37*
G36*
X538696Y861479D02*
X529150Y851933D01*
X524908Y856175D01*
X534454Y865721D01*
X538696Y861479D01*
G37*
G36*
X534454Y861479D02*
X524908Y871025D01*
X529150Y875267D01*
X538696Y865721D01*
X534454Y861479D01*
G37*
G54D24*
G36*
X469725Y831850D02*
X469725Y818350D01*
X463725Y818350D01*
X463725Y831850D01*
X469725Y831850D01*
G37*
G36*
X463725Y831850D02*
X463725Y845350D01*
X469725Y845350D01*
X469725Y831850D01*
X463725Y831850D01*
G37*
G54D24*
G36*
X584025Y831850D02*
X584025Y818350D01*
X578025Y818350D01*
X578025Y831850D01*
X584025Y831850D01*
G37*
G36*
X578025Y831850D02*
X578025Y845350D01*
X584025Y845350D01*
X584025Y831850D01*
X578025Y831850D01*
G37*
G54D24*
G36*
X489125Y971550D02*
X489125Y985050D01*
X495125Y985050D01*
X495125Y971550D01*
X489125Y971550D01*
G37*
G36*
X492125Y974550D02*
X505625Y974550D01*
X505625Y968550D01*
X492125Y968550D01*
X492125Y974550D01*
G37*
G36*
X492125Y968550D02*
X478625Y968550D01*
X478625Y974550D01*
X492125Y974550D01*
X492125Y968550D01*
G37*
G54D24*
G36*
X514525Y584200D02*
X514525Y597700D01*
X520525Y597700D01*
X520525Y584200D01*
X514525Y584200D01*
G37*
G36*
X517525Y587200D02*
X531025Y587200D01*
X531025Y581200D01*
X517525Y581200D01*
X517525Y587200D01*
G37*
G36*
X517525Y581200D02*
X504025Y581200D01*
X504025Y587200D01*
X517525Y587200D01*
X517525Y581200D01*
G37*
G54D24*
G36*
X362125Y584200D02*
X362125Y597700D01*
X368125Y597700D01*
X368125Y584200D01*
X362125Y584200D01*
G37*
G36*
X365125Y587200D02*
X378625Y587200D01*
X378625Y581200D01*
X365125Y581200D01*
X365125Y587200D01*
G37*
G36*
X365125Y581200D02*
X351625Y581200D01*
X351625Y587200D01*
X365125Y587200D01*
X365125Y581200D01*
G37*
G54D24*
G36*
X520875Y654050D02*
X520875Y667550D01*
X526875Y667550D01*
X526875Y654050D01*
X520875Y654050D01*
G37*
G36*
X526875Y654050D02*
X526875Y640550D01*
X520875Y640550D01*
X520875Y654050D01*
X526875Y654050D01*
G37*
G36*
X523875Y651050D02*
X510375Y651050D01*
X510375Y657050D01*
X523875Y657050D01*
X523875Y651050D01*
G37*
G54D24*
G36*
X438325Y584200D02*
X438325Y597700D01*
X444325Y597700D01*
X444325Y584200D01*
X438325Y584200D01*
G37*
G36*
X441325Y587200D02*
X454825Y587200D01*
X454825Y581200D01*
X441325Y581200D01*
X441325Y587200D01*
G37*
G36*
X441325Y581200D02*
X427825Y581200D01*
X427825Y587200D01*
X441325Y587200D01*
X441325Y581200D01*
G37*
G54D24*
G36*
X625655Y654050D02*
X625655Y667550D01*
X631655Y667550D01*
X631655Y654050D01*
X625655Y654050D01*
G37*
G36*
X628655Y657050D02*
X642155Y657050D01*
X642155Y651050D01*
X628655Y651050D01*
X628655Y657050D01*
G37*
G36*
X631655Y654050D02*
X631655Y640550D01*
X625655Y640550D01*
X625655Y654050D01*
X631655Y654050D01*
G37*
G54D23*
G36*
X729889Y949686D02*
X743678Y963474D01*
X750749Y956403D01*
X736961Y942614D01*
X729889Y949686D01*
G37*
G36*
X736961Y949686D02*
X750749Y935897D01*
X743678Y928826D01*
X729889Y942614D01*
X736961Y949686D01*
G37*
G36*
X736961Y942614D02*
X723172Y928826D01*
X716101Y935897D01*
X729889Y949686D01*
X736961Y942614D01*
G37*
G36*
X729889Y942614D02*
X716101Y956403D01*
X723172Y963474D01*
X736961Y949686D01*
X729889Y942614D01*
G37*
G54D24*
G36*
X692325Y850900D02*
X692325Y864400D01*
X698325Y864400D01*
X698325Y850900D01*
X692325Y850900D01*
G37*
G36*
X695325Y853900D02*
X708825Y853900D01*
X708825Y847900D01*
X695325Y847900D01*
X695325Y853900D01*
G37*
G36*
X695325Y847900D02*
X681825Y847900D01*
X681825Y853900D01*
X695325Y853900D01*
X695325Y847900D01*
G37*
G54D24*
G36*
X692325Y762000D02*
X692325Y775500D01*
X698325Y775500D01*
X698325Y762000D01*
X692325Y762000D01*
G37*
G36*
X695325Y765000D02*
X708825Y765000D01*
X708825Y759000D01*
X695325Y759000D01*
X695325Y765000D01*
G37*
G36*
X695325Y759000D02*
X681825Y759000D01*
X681825Y765000D01*
X695325Y765000D01*
X695325Y759000D01*
G37*
G54D24*
G36*
X692325Y673100D02*
X692325Y686600D01*
X698325Y686600D01*
X698325Y673100D01*
X692325Y673100D01*
G37*
G36*
X695325Y676100D02*
X708825Y676100D01*
X708825Y670100D01*
X695325Y670100D01*
X695325Y676100D01*
G37*
G36*
X695325Y670100D02*
X681825Y670100D01*
X681825Y676100D01*
X695325Y676100D01*
X695325Y670100D01*
G37*
G54D24*
G36*
X864654Y865721D02*
X874200Y875267D01*
X878442Y871025D01*
X868896Y861479D01*
X864654Y865721D01*
G37*
G36*
X868896Y865721D02*
X878442Y856175D01*
X874200Y851933D01*
X864654Y861479D01*
X868896Y865721D01*
G37*
G36*
X868896Y861479D02*
X859350Y851933D01*
X855108Y856175D01*
X864654Y865721D01*
X868896Y861479D01*
G37*
G36*
X864654Y861479D02*
X855108Y871025D01*
X859350Y875267D01*
X868896Y865721D01*
X864654Y861479D01*
G37*
G54D24*
G36*
X799925Y831850D02*
X799925Y818350D01*
X793925Y818350D01*
X793925Y831850D01*
X799925Y831850D01*
G37*
G36*
X793925Y831850D02*
X793925Y845350D01*
X799925Y845350D01*
X799925Y831850D01*
X793925Y831850D01*
G37*
G54D24*
G36*
X914225Y831850D02*
X914225Y818350D01*
X908225Y818350D01*
X908225Y831850D01*
X914225Y831850D01*
G37*
G36*
X908225Y831850D02*
X908225Y845350D01*
X914225Y845350D01*
X914225Y831850D01*
X908225Y831850D01*
G37*
G54D24*
G36*
X819325Y971550D02*
X819325Y985050D01*
X825325Y985050D01*
X825325Y971550D01*
X819325Y971550D01*
G37*
G36*
X822325Y974550D02*
X835825Y974550D01*
X835825Y968550D01*
X822325Y968550D01*
X822325Y974550D01*
G37*
G36*
X822325Y968550D02*
X808825Y968550D01*
X808825Y974550D01*
X822325Y974550D01*
X822325Y968550D01*
G37*
G54D24*
G36*
X844725Y584200D02*
X844725Y597700D01*
X850725Y597700D01*
X850725Y584200D01*
X844725Y584200D01*
G37*
G36*
X847725Y587200D02*
X861225Y587200D01*
X861225Y581200D01*
X847725Y581200D01*
X847725Y587200D01*
G37*
G36*
X847725Y581200D02*
X834225Y581200D01*
X834225Y587200D01*
X847725Y587200D01*
X847725Y581200D01*
G37*
G54D24*
G36*
X692325Y584200D02*
X692325Y597700D01*
X698325Y597700D01*
X698325Y584200D01*
X692325Y584200D01*
G37*
G36*
X695325Y587200D02*
X708825Y587200D01*
X708825Y581200D01*
X695325Y581200D01*
X695325Y587200D01*
G37*
G36*
X695325Y581200D02*
X681825Y581200D01*
X681825Y587200D01*
X695325Y587200D01*
X695325Y581200D01*
G37*
G54D24*
G36*
X851075Y654050D02*
X851075Y667550D01*
X857075Y667550D01*
X857075Y654050D01*
X851075Y654050D01*
G37*
G36*
X857075Y654050D02*
X857075Y640550D01*
X851075Y640550D01*
X851075Y654050D01*
X857075Y654050D01*
G37*
G36*
X854075Y651050D02*
X840575Y651050D01*
X840575Y657050D01*
X854075Y657050D01*
X854075Y651050D01*
G37*
G54D24*
G36*
X768525Y584200D02*
X768525Y597700D01*
X774525Y597700D01*
X774525Y584200D01*
X768525Y584200D01*
G37*
G36*
X771525Y587200D02*
X785025Y587200D01*
X785025Y581200D01*
X771525Y581200D01*
X771525Y587200D01*
G37*
G36*
X771525Y581200D02*
X758025Y581200D01*
X758025Y587200D01*
X771525Y587200D01*
X771525Y581200D01*
G37*
G54D24*
G36*
X955855Y654050D02*
X955855Y667550D01*
X961855Y667550D01*
X961855Y654050D01*
X955855Y654050D01*
G37*
G36*
X958855Y657050D02*
X972355Y657050D01*
X972355Y651050D01*
X958855Y651050D01*
X958855Y657050D01*
G37*
G36*
X961855Y654050D02*
X961855Y640550D01*
X955855Y640550D01*
X955855Y654050D01*
X961855Y654050D01*
G37*
G54D23*
G36*
X69489Y479786D02*
X83278Y493574D01*
X90349Y486503D01*
X76561Y472714D01*
X69489Y479786D01*
G37*
G36*
X76561Y479786D02*
X90349Y465997D01*
X83278Y458926D01*
X69489Y472714D01*
X76561Y479786D01*
G37*
G36*
X76561Y472714D02*
X62772Y458926D01*
X55701Y465997D01*
X69489Y479786D01*
X76561Y472714D01*
G37*
G36*
X69489Y472714D02*
X55701Y486503D01*
X62772Y493574D01*
X76561Y479786D01*
X69489Y472714D01*
G37*
G54D24*
G36*
X31925Y381000D02*
X31925Y394500D01*
X37925Y394500D01*
X37925Y381000D01*
X31925Y381000D01*
G37*
G36*
X34925Y384000D02*
X48425Y384000D01*
X48425Y378000D01*
X34925Y378000D01*
X34925Y384000D01*
G37*
G36*
X34925Y378000D02*
X21425Y378000D01*
X21425Y384000D01*
X34925Y384000D01*
X34925Y378000D01*
G37*
G54D24*
G36*
X31925Y292100D02*
X31925Y305600D01*
X37925Y305600D01*
X37925Y292100D01*
X31925Y292100D01*
G37*
G36*
X34925Y295100D02*
X48425Y295100D01*
X48425Y289100D01*
X34925Y289100D01*
X34925Y295100D01*
G37*
G36*
X34925Y289100D02*
X21425Y289100D01*
X21425Y295100D01*
X34925Y295100D01*
X34925Y289100D01*
G37*
G54D24*
G36*
X31925Y203200D02*
X31925Y216700D01*
X37925Y216700D01*
X37925Y203200D01*
X31925Y203200D01*
G37*
G36*
X34925Y206200D02*
X48425Y206200D01*
X48425Y200200D01*
X34925Y200200D01*
X34925Y206200D01*
G37*
G36*
X34925Y200200D02*
X21425Y200200D01*
X21425Y206200D01*
X34925Y206200D01*
X34925Y200200D01*
G37*
G54D24*
G36*
X204254Y395821D02*
X213800Y405367D01*
X218042Y401125D01*
X208496Y391579D01*
X204254Y395821D01*
G37*
G36*
X208496Y395821D02*
X218042Y386275D01*
X213800Y382033D01*
X204254Y391579D01*
X208496Y395821D01*
G37*
G36*
X208496Y391579D02*
X198950Y382033D01*
X194708Y386275D01*
X204254Y395821D01*
X208496Y391579D01*
G37*
G36*
X204254Y391579D02*
X194708Y401125D01*
X198950Y405367D01*
X208496Y395821D01*
X204254Y391579D01*
G37*
G54D24*
G36*
X139525Y361950D02*
X139525Y348450D01*
X133525Y348450D01*
X133525Y361950D01*
X139525Y361950D01*
G37*
G36*
X133525Y361950D02*
X133525Y375450D01*
X139525Y375450D01*
X139525Y361950D01*
X133525Y361950D01*
G37*
G54D24*
G36*
X253825Y361950D02*
X253825Y348450D01*
X247825Y348450D01*
X247825Y361950D01*
X253825Y361950D01*
G37*
G36*
X247825Y361950D02*
X247825Y375450D01*
X253825Y375450D01*
X253825Y361950D01*
X247825Y361950D01*
G37*
G54D24*
G36*
X158925Y501650D02*
X158925Y515150D01*
X164925Y515150D01*
X164925Y501650D01*
X158925Y501650D01*
G37*
G36*
X161925Y504650D02*
X175425Y504650D01*
X175425Y498650D01*
X161925Y498650D01*
X161925Y504650D01*
G37*
G36*
X161925Y498650D02*
X148425Y498650D01*
X148425Y504650D01*
X161925Y504650D01*
X161925Y498650D01*
G37*
G54D24*
G36*
X184325Y114300D02*
X184325Y127800D01*
X190325Y127800D01*
X190325Y114300D01*
X184325Y114300D01*
G37*
G36*
X187325Y117300D02*
X200825Y117300D01*
X200825Y111300D01*
X187325Y111300D01*
X187325Y117300D01*
G37*
G36*
X187325Y111300D02*
X173825Y111300D01*
X173825Y117300D01*
X187325Y117300D01*
X187325Y111300D01*
G37*
G54D24*
G36*
X31925Y114300D02*
X31925Y127800D01*
X37925Y127800D01*
X37925Y114300D01*
X31925Y114300D01*
G37*
G36*
X34925Y117300D02*
X48425Y117300D01*
X48425Y111300D01*
X34925Y111300D01*
X34925Y117300D01*
G37*
G36*
X34925Y111300D02*
X21425Y111300D01*
X21425Y117300D01*
X34925Y117300D01*
X34925Y111300D01*
G37*
G54D24*
G36*
X190675Y184150D02*
X190675Y197650D01*
X196675Y197650D01*
X196675Y184150D01*
X190675Y184150D01*
G37*
G36*
X196675Y184150D02*
X196675Y170650D01*
X190675Y170650D01*
X190675Y184150D01*
X196675Y184150D01*
G37*
G36*
X193675Y181150D02*
X180175Y181150D01*
X180175Y187150D01*
X193675Y187150D01*
X193675Y181150D01*
G37*
G54D24*
G36*
X108125Y114300D02*
X108125Y127800D01*
X114125Y127800D01*
X114125Y114300D01*
X108125Y114300D01*
G37*
G36*
X111125Y117300D02*
X124625Y117300D01*
X124625Y111300D01*
X111125Y111300D01*
X111125Y117300D01*
G37*
G36*
X111125Y111300D02*
X97625Y111300D01*
X97625Y117300D01*
X111125Y117300D01*
X111125Y111300D01*
G37*
G54D24*
G36*
X295455Y184150D02*
X295455Y197650D01*
X301455Y197650D01*
X301455Y184150D01*
X295455Y184150D01*
G37*
G36*
X298455Y187150D02*
X311955Y187150D01*
X311955Y181150D01*
X298455Y181150D01*
X298455Y187150D01*
G37*
G36*
X301455Y184150D02*
X301455Y170650D01*
X295455Y170650D01*
X295455Y184150D01*
X301455Y184150D01*
G37*
G54D23*
G36*
X399689Y479786D02*
X413478Y493574D01*
X420549Y486503D01*
X406761Y472714D01*
X399689Y479786D01*
G37*
G36*
X406761Y479786D02*
X420549Y465997D01*
X413478Y458926D01*
X399689Y472714D01*
X406761Y479786D01*
G37*
G36*
X406761Y472714D02*
X392972Y458926D01*
X385901Y465997D01*
X399689Y479786D01*
X406761Y472714D01*
G37*
G36*
X399689Y472714D02*
X385901Y486503D01*
X392972Y493574D01*
X406761Y479786D01*
X399689Y472714D01*
G37*
G54D24*
G36*
X362125Y381000D02*
X362125Y394500D01*
X368125Y394500D01*
X368125Y381000D01*
X362125Y381000D01*
G37*
G36*
X365125Y384000D02*
X378625Y384000D01*
X378625Y378000D01*
X365125Y378000D01*
X365125Y384000D01*
G37*
G36*
X365125Y378000D02*
X351625Y378000D01*
X351625Y384000D01*
X365125Y384000D01*
X365125Y378000D01*
G37*
G54D24*
G36*
X362125Y292100D02*
X362125Y305600D01*
X368125Y305600D01*
X368125Y292100D01*
X362125Y292100D01*
G37*
G36*
X365125Y295100D02*
X378625Y295100D01*
X378625Y289100D01*
X365125Y289100D01*
X365125Y295100D01*
G37*
G36*
X365125Y289100D02*
X351625Y289100D01*
X351625Y295100D01*
X365125Y295100D01*
X365125Y289100D01*
G37*
G54D24*
G36*
X362125Y203200D02*
X362125Y216700D01*
X368125Y216700D01*
X368125Y203200D01*
X362125Y203200D01*
G37*
G36*
X365125Y206200D02*
X378625Y206200D01*
X378625Y200200D01*
X365125Y200200D01*
X365125Y206200D01*
G37*
G36*
X365125Y200200D02*
X351625Y200200D01*
X351625Y206200D01*
X365125Y206200D01*
X365125Y200200D01*
G37*
G54D24*
G36*
X534454Y395821D02*
X544000Y405367D01*
X548242Y401125D01*
X538696Y391579D01*
X534454Y395821D01*
G37*
G36*
X538696Y395821D02*
X548242Y386275D01*
X544000Y382033D01*
X534454Y391579D01*
X538696Y395821D01*
G37*
G36*
X538696Y391579D02*
X529150Y382033D01*
X524908Y386275D01*
X534454Y395821D01*
X538696Y391579D01*
G37*
G36*
X534454Y391579D02*
X524908Y401125D01*
X529150Y405367D01*
X538696Y395821D01*
X534454Y391579D01*
G37*
G54D24*
G36*
X469725Y361950D02*
X469725Y348450D01*
X463725Y348450D01*
X463725Y361950D01*
X469725Y361950D01*
G37*
G36*
X463725Y361950D02*
X463725Y375450D01*
X469725Y375450D01*
X469725Y361950D01*
X463725Y361950D01*
G37*
G54D24*
G36*
X584025Y361950D02*
X584025Y348450D01*
X578025Y348450D01*
X578025Y361950D01*
X584025Y361950D01*
G37*
G36*
X578025Y361950D02*
X578025Y375450D01*
X584025Y375450D01*
X584025Y361950D01*
X578025Y361950D01*
G37*
G54D24*
G36*
X489125Y501650D02*
X489125Y515150D01*
X495125Y515150D01*
X495125Y501650D01*
X489125Y501650D01*
G37*
G36*
X492125Y504650D02*
X505625Y504650D01*
X505625Y498650D01*
X492125Y498650D01*
X492125Y504650D01*
G37*
G36*
X492125Y498650D02*
X478625Y498650D01*
X478625Y504650D01*
X492125Y504650D01*
X492125Y498650D01*
G37*
G54D24*
G36*
X514525Y114300D02*
X514525Y127800D01*
X520525Y127800D01*
X520525Y114300D01*
X514525Y114300D01*
G37*
G36*
X517525Y117300D02*
X531025Y117300D01*
X531025Y111300D01*
X517525Y111300D01*
X517525Y117300D01*
G37*
G36*
X517525Y111300D02*
X504025Y111300D01*
X504025Y117300D01*
X517525Y117300D01*
X517525Y111300D01*
G37*
G54D24*
G36*
X362125Y114300D02*
X362125Y127800D01*
X368125Y127800D01*
X368125Y114300D01*
X362125Y114300D01*
G37*
G36*
X365125Y117300D02*
X378625Y117300D01*
X378625Y111300D01*
X365125Y111300D01*
X365125Y117300D01*
G37*
G36*
X365125Y111300D02*
X351625Y111300D01*
X351625Y117300D01*
X365125Y117300D01*
X365125Y111300D01*
G37*
G54D24*
G36*
X520875Y184150D02*
X520875Y197650D01*
X526875Y197650D01*
X526875Y184150D01*
X520875Y184150D01*
G37*
G36*
X526875Y184150D02*
X526875Y170650D01*
X520875Y170650D01*
X520875Y184150D01*
X526875Y184150D01*
G37*
G36*
X523875Y181150D02*
X510375Y181150D01*
X510375Y187150D01*
X523875Y187150D01*
X523875Y181150D01*
G37*
G54D24*
G36*
X438325Y114300D02*
X438325Y127800D01*
X444325Y127800D01*
X444325Y114300D01*
X438325Y114300D01*
G37*
G36*
X441325Y117300D02*
X454825Y117300D01*
X454825Y111300D01*
X441325Y111300D01*
X441325Y117300D01*
G37*
G36*
X441325Y111300D02*
X427825Y111300D01*
X427825Y117300D01*
X441325Y117300D01*
X441325Y111300D01*
G37*
G54D24*
G36*
X625655Y184150D02*
X625655Y197650D01*
X631655Y197650D01*
X631655Y184150D01*
X625655Y184150D01*
G37*
G36*
X628655Y187150D02*
X642155Y187150D01*
X642155Y181150D01*
X628655Y181150D01*
X628655Y187150D01*
G37*
G36*
X631655Y184150D02*
X631655Y170650D01*
X625655Y170650D01*
X625655Y184150D01*
X631655Y184150D01*
G37*
G54D23*
G36*
X729889Y479786D02*
X743678Y493574D01*
X750749Y486503D01*
X736961Y472714D01*
X729889Y479786D01*
G37*
G36*
X736961Y479786D02*
X750749Y465997D01*
X743678Y458926D01*
X729889Y472714D01*
X736961Y479786D01*
G37*
G36*
X736961Y472714D02*
X723172Y458926D01*
X716101Y465997D01*
X729889Y479786D01*
X736961Y472714D01*
G37*
G36*
X729889Y472714D02*
X716101Y486503D01*
X723172Y493574D01*
X736961Y479786D01*
X729889Y472714D01*
G37*
G54D24*
G36*
X692325Y381000D02*
X692325Y394500D01*
X698325Y394500D01*
X698325Y381000D01*
X692325Y381000D01*
G37*
G36*
X695325Y384000D02*
X708825Y384000D01*
X708825Y378000D01*
X695325Y378000D01*
X695325Y384000D01*
G37*
G36*
X695325Y378000D02*
X681825Y378000D01*
X681825Y384000D01*
X695325Y384000D01*
X695325Y378000D01*
G37*
G54D24*
G36*
X692325Y292100D02*
X692325Y305600D01*
X698325Y305600D01*
X698325Y292100D01*
X692325Y292100D01*
G37*
G36*
X695325Y295100D02*
X708825Y295100D01*
X708825Y289100D01*
X695325Y289100D01*
X695325Y295100D01*
G37*
G36*
X695325Y289100D02*
X681825Y289100D01*
X681825Y295100D01*
X695325Y295100D01*
X695325Y289100D01*
G37*
G54D24*
G36*
X692325Y203200D02*
X692325Y216700D01*
X698325Y216700D01*
X698325Y203200D01*
X692325Y203200D01*
G37*
G36*
X695325Y206200D02*
X708825Y206200D01*
X708825Y200200D01*
X695325Y200200D01*
X695325Y206200D01*
G37*
G36*
X695325Y200200D02*
X681825Y200200D01*
X681825Y206200D01*
X695325Y206200D01*
X695325Y200200D01*
G37*
G54D24*
G36*
X864654Y395821D02*
X874200Y405367D01*
X878442Y401125D01*
X868896Y391579D01*
X864654Y395821D01*
G37*
G36*
X868896Y395821D02*
X878442Y386275D01*
X874200Y382033D01*
X864654Y391579D01*
X868896Y395821D01*
G37*
G36*
X868896Y391579D02*
X859350Y382033D01*
X855108Y386275D01*
X864654Y395821D01*
X868896Y391579D01*
G37*
G36*
X864654Y391579D02*
X855108Y401125D01*
X859350Y405367D01*
X868896Y395821D01*
X864654Y391579D01*
G37*
G54D24*
G36*
X799925Y361950D02*
X799925Y348450D01*
X793925Y348450D01*
X793925Y361950D01*
X799925Y361950D01*
G37*
G36*
X793925Y361950D02*
X793925Y375450D01*
X799925Y375450D01*
X799925Y361950D01*
X793925Y361950D01*
G37*
G54D24*
G36*
X914225Y361950D02*
X914225Y348450D01*
X908225Y348450D01*
X908225Y361950D01*
X914225Y361950D01*
G37*
G36*
X908225Y361950D02*
X908225Y375450D01*
X914225Y375450D01*
X914225Y361950D01*
X908225Y361950D01*
G37*
G54D24*
G36*
X819325Y501650D02*
X819325Y515150D01*
X825325Y515150D01*
X825325Y501650D01*
X819325Y501650D01*
G37*
G36*
X822325Y504650D02*
X835825Y504650D01*
X835825Y498650D01*
X822325Y498650D01*
X822325Y504650D01*
G37*
G36*
X822325Y498650D02*
X808825Y498650D01*
X808825Y504650D01*
X822325Y504650D01*
X822325Y498650D01*
G37*
G54D24*
G36*
X844725Y114300D02*
X844725Y127800D01*
X850725Y127800D01*
X850725Y114300D01*
X844725Y114300D01*
G37*
G36*
X847725Y117300D02*
X861225Y117300D01*
X861225Y111300D01*
X847725Y111300D01*
X847725Y117300D01*
G37*
G36*
X847725Y111300D02*
X834225Y111300D01*
X834225Y117300D01*
X847725Y117300D01*
X847725Y111300D01*
G37*
G54D24*
G36*
X692325Y114300D02*
X692325Y127800D01*
X698325Y127800D01*
X698325Y114300D01*
X692325Y114300D01*
G37*
G36*
X695325Y117300D02*
X708825Y117300D01*
X708825Y111300D01*
X695325Y111300D01*
X695325Y117300D01*
G37*
G36*
X695325Y111300D02*
X681825Y111300D01*
X681825Y117300D01*
X695325Y117300D01*
X695325Y111300D01*
G37*
G54D24*
G36*
X851075Y184150D02*
X851075Y197650D01*
X857075Y197650D01*
X857075Y184150D01*
X851075Y184150D01*
G37*
G36*
X857075Y184150D02*
X857075Y170650D01*
X851075Y170650D01*
X851075Y184150D01*
X857075Y184150D01*
G37*
G36*
X854075Y181150D02*
X840575Y181150D01*
X840575Y187150D01*
X854075Y187150D01*
X854075Y181150D01*
G37*
G54D24*
G36*
X768525Y114300D02*
X768525Y127800D01*
X774525Y127800D01*
X774525Y114300D01*
X768525Y114300D01*
G37*
G36*
X771525Y117300D02*
X785025Y117300D01*
X785025Y111300D01*
X771525Y111300D01*
X771525Y117300D01*
G37*
G36*
X771525Y111300D02*
X758025Y111300D01*
X758025Y117300D01*
X771525Y117300D01*
X771525Y111300D01*
G37*
G54D24*
G36*
X955855Y184150D02*
X955855Y197650D01*
X961855Y197650D01*
X961855Y184150D01*
X955855Y184150D01*
G37*
G36*
X958855Y187150D02*
X972355Y187150D01*
X972355Y181150D01*
X958855Y181150D01*
X958855Y187150D01*
G37*
G36*
X961855Y184150D02*
X961855Y170650D01*
X955855Y170650D01*
X955855Y184150D01*
X961855Y184150D01*
G37*
G36*
X138825Y939925D02*
X130050Y931150D01*
X117600Y931150D01*
X108825Y939925D01*
X108825Y952375D01*
X117600Y961150D01*
X130050Y961150D01*
X138825Y952375D01*
X138825Y939925D01*
G37*
G36*
X88025Y939925D02*
X79250Y931150D01*
X66800Y931150D01*
X58025Y939925D01*
X58025Y952375D01*
X66800Y961150D01*
X79250Y961150D01*
X88025Y952375D01*
X88025Y939925D01*
G37*
X34925Y825500D02*
G54D25*
D03*
X34925Y850900D02*
G54D25*
D03*
X34925Y736600D02*
G54D25*
D03*
X34925Y762000D02*
G54D25*
D03*
X34925Y647700D02*
G54D25*
D03*
X34925Y673100D02*
G54D25*
D03*
G36*
X58025Y952375D02*
X66800Y961150D01*
X79250Y961150D01*
X88025Y952375D01*
X88025Y939925D01*
X79250Y931150D01*
X66800Y931150D01*
X58025Y939925D01*
X58025Y952375D01*
G37*
X34925Y850900D02*
G54D25*
D03*
X34925Y762000D02*
G54D25*
D03*
X34925Y673100D02*
G54D25*
D03*
X206375Y863600D02*
G54D25*
D03*
G36*
X170925Y828115D02*
X165660Y822850D01*
X158190Y822850D01*
X152925Y828115D01*
X152925Y835585D01*
X158190Y840850D01*
X165660Y840850D01*
X170925Y835585D01*
X170925Y828115D01*
G37*
G36*
X145525Y828115D02*
X140260Y822850D01*
X132790Y822850D01*
X127525Y828115D01*
X127525Y835585D01*
X132790Y840850D01*
X140260Y840850D01*
X145525Y835585D01*
X145525Y828115D01*
G37*
G36*
X120125Y828115D02*
X114860Y822850D01*
X107390Y822850D01*
X102125Y828115D01*
X102125Y835585D01*
X107390Y840850D01*
X114860Y840850D01*
X120125Y835585D01*
X120125Y828115D01*
G37*
G36*
X285225Y828115D02*
X279960Y822850D01*
X272490Y822850D01*
X267225Y828115D01*
X267225Y835585D01*
X272490Y840850D01*
X279960Y840850D01*
X285225Y835585D01*
X285225Y828115D01*
G37*
G36*
X259825Y828115D02*
X254560Y822850D01*
X247090Y822850D01*
X241825Y828115D01*
X241825Y835585D01*
X247090Y840850D01*
X254560Y840850D01*
X259825Y835585D01*
X259825Y828115D01*
G37*
G36*
X234425Y828115D02*
X229160Y822850D01*
X221690Y822850D01*
X216425Y828115D01*
X216425Y835585D01*
X221690Y840850D01*
X229160Y840850D01*
X234425Y835585D01*
X234425Y828115D01*
G37*
G36*
X145525Y828115D02*
X140260Y822850D01*
X132790Y822850D01*
X127525Y828115D01*
X127525Y835585D01*
X132790Y840850D01*
X140260Y840850D01*
X145525Y835585D01*
X145525Y828115D01*
G37*
G36*
X259825Y828115D02*
X254560Y822850D01*
X247090Y822850D01*
X241825Y828115D01*
X241825Y835585D01*
X247090Y840850D01*
X254560Y840850D01*
X259825Y835585D01*
X259825Y828115D01*
G37*
X137716Y873125D02*
G54D26*
D03*
X85725Y873125D02*
G54D26*
D03*
G36*
X76725Y876860D02*
X81990Y882125D01*
X89460Y882125D01*
X94725Y876860D01*
X94725Y869390D01*
X89460Y864125D01*
X81990Y864125D01*
X76725Y869390D01*
X76725Y876860D01*
G37*
G54D20*
X123825Y946150D02*
X123825Y920750D01*
X138112Y906462D01*
X138112Y873522D01*
X137716Y873125D01*
X276225Y863600D02*
G54D25*
D03*
X251222Y863600D02*
G54D25*
D03*
X231378Y863600D02*
G54D25*
D03*
X206375Y863600D02*
G54D25*
D03*
G36*
X326983Y882287D02*
X315283Y870587D01*
X298683Y870587D01*
X286983Y882287D01*
X286983Y898887D01*
X298683Y910587D01*
X315283Y910587D01*
X326983Y898887D01*
X326983Y882287D01*
G37*
G36*
X195419Y882287D02*
X183719Y870587D01*
X167119Y870587D01*
X155419Y882287D01*
X155419Y898887D01*
X167119Y910587D01*
X183719Y910587D01*
X195419Y898887D01*
X195419Y882287D01*
G37*
X161925Y971550D02*
G54D27*
D03*
X161925Y946150D02*
G54D27*
D03*
G54D20*
X123825Y946150D02*
X161925Y946150D01*
X187325Y558800D02*
G54D25*
D03*
X187325Y584200D02*
G54D25*
D03*
X187325Y584200D02*
G54D25*
D03*
X34925Y558800D02*
G54D25*
D03*
X34925Y584200D02*
G54D25*
D03*
X34925Y584200D02*
G54D25*
D03*
G54D20*
X34925Y558800D02*
X53975Y558800D01*
X66675Y571500D01*
X66675Y647700D01*
X34925Y647700D01*
G54D20*
X276225Y831850D02*
X276225Y863600D01*
G54D20*
X66675Y647700D02*
X66675Y698500D01*
X161925Y793750D01*
X161925Y831850D01*
G54D20*
X276225Y831850D02*
X276025Y616150D01*
X15875Y952500D02*
G54D28*
D03*
X34875Y952500D02*
G54D28*
D03*
X15875Y977900D02*
G54D28*
D03*
X34875Y977900D02*
G54D28*
D03*
G54D16*
X15875Y952500D02*
X15875Y977900D01*
G54D16*
X34925Y977900D02*
X34925Y990600D01*
X142875Y657225D02*
G54D28*
D03*
X161875Y657225D02*
G54D28*
D03*
X142875Y631825D02*
G54D28*
D03*
X161875Y631825D02*
G54D28*
D03*
X95250Y631825D02*
G54D28*
D03*
X114250Y631825D02*
G54D28*
D03*
X193675Y654050D02*
G54D27*
D03*
X219075Y654050D02*
G54D27*
D03*
X95250Y657225D02*
G54D28*
D03*
X114250Y657225D02*
G54D28*
D03*
G54D20*
X222250Y654050D02*
X276225Y654050D01*
G54D16*
X95250Y631825D02*
X69850Y631825D01*
X66675Y635000D01*
G54D16*
X95250Y657225D02*
X95250Y631825D01*
G54D16*
X161875Y631825D02*
X161875Y657225D01*
G54D16*
X114250Y657225D02*
X142875Y657225D01*
G54D16*
X114250Y631825D02*
X142875Y631825D01*
X317475Y831825D02*
G54D29*
D03*
X317475Y812825D02*
G54D29*
D03*
G54D16*
X317475Y812825D02*
X317475Y800125D01*
G54D16*
X317475Y831825D02*
X276250Y831825D01*
X276225Y831850D01*
X111125Y558800D02*
G54D25*
D03*
X111125Y584200D02*
G54D25*
D03*
X111125Y584200D02*
G54D25*
D03*
G54D20*
X111125Y558800D02*
X187325Y558800D01*
G54D16*
X161875Y631825D02*
X161875Y558850D01*
X161925Y558800D01*
X276107Y559595D02*
G54D30*
D03*
X276107Y613570D02*
G54D30*
D03*
X276107Y557214D02*
G54D31*
D03*
X276107Y616348D02*
G54D31*
D03*
G54D20*
X276107Y616348D02*
X276107Y615832D01*
X219075Y558800D01*
X187325Y558800D01*
G54D20*
X263525Y558800D02*
X288925Y558800D01*
X200025Y625475D02*
G54D28*
D03*
X219025Y625475D02*
G54D28*
D03*
G54D16*
X190450Y625475D02*
X200025Y625475D01*
G54D16*
X219075Y625475D02*
X219075Y654050D01*
X25400Y892175D02*
G54D32*
D03*
X25400Y926505D02*
G54D32*
D03*
G54D16*
X25400Y892175D02*
X66675Y892175D01*
X85725Y873125D01*
G54D16*
X34875Y952500D02*
X34925Y952500D01*
X47625Y939800D01*
X47625Y892175D01*
G54D16*
X15875Y927100D02*
X34925Y927100D01*
X276225Y654050D02*
G54D27*
D03*
X298455Y654050D02*
G54D27*
D03*
G36*
X469025Y939925D02*
X460250Y931150D01*
X447800Y931150D01*
X439025Y939925D01*
X439025Y952375D01*
X447800Y961150D01*
X460250Y961150D01*
X469025Y952375D01*
X469025Y939925D01*
G37*
G36*
X418225Y939925D02*
X409450Y931150D01*
X397000Y931150D01*
X388225Y939925D01*
X388225Y952375D01*
X397000Y961150D01*
X409450Y961150D01*
X418225Y952375D01*
X418225Y939925D01*
G37*
X365125Y825500D02*
G54D25*
D03*
X365125Y850900D02*
G54D25*
D03*
X365125Y736600D02*
G54D25*
D03*
X365125Y762000D02*
G54D25*
D03*
X365125Y647700D02*
G54D25*
D03*
X365125Y673100D02*
G54D25*
D03*
G36*
X388225Y952375D02*
X397000Y961150D01*
X409450Y961150D01*
X418225Y952375D01*
X418225Y939925D01*
X409450Y931150D01*
X397000Y931150D01*
X388225Y939925D01*
X388225Y952375D01*
G37*
X365125Y850900D02*
G54D25*
D03*
X365125Y762000D02*
G54D25*
D03*
X365125Y673100D02*
G54D25*
D03*
X536575Y863600D02*
G54D25*
D03*
G36*
X501125Y828115D02*
X495860Y822850D01*
X488390Y822850D01*
X483125Y828115D01*
X483125Y835585D01*
X488390Y840850D01*
X495860Y840850D01*
X501125Y835585D01*
X501125Y828115D01*
G37*
G36*
X475725Y828115D02*
X470460Y822850D01*
X462990Y822850D01*
X457725Y828115D01*
X457725Y835585D01*
X462990Y840850D01*
X470460Y840850D01*
X475725Y835585D01*
X475725Y828115D01*
G37*
G36*
X450325Y828115D02*
X445060Y822850D01*
X437590Y822850D01*
X432325Y828115D01*
X432325Y835585D01*
X437590Y840850D01*
X445060Y840850D01*
X450325Y835585D01*
X450325Y828115D01*
G37*
G36*
X615425Y828115D02*
X610160Y822850D01*
X602690Y822850D01*
X597425Y828115D01*
X597425Y835585D01*
X602690Y840850D01*
X610160Y840850D01*
X615425Y835585D01*
X615425Y828115D01*
G37*
G36*
X590025Y828115D02*
X584760Y822850D01*
X577290Y822850D01*
X572025Y828115D01*
X572025Y835585D01*
X577290Y840850D01*
X584760Y840850D01*
X590025Y835585D01*
X590025Y828115D01*
G37*
G36*
X564625Y828115D02*
X559360Y822850D01*
X551890Y822850D01*
X546625Y828115D01*
X546625Y835585D01*
X551890Y840850D01*
X559360Y840850D01*
X564625Y835585D01*
X564625Y828115D01*
G37*
G36*
X475725Y828115D02*
X470460Y822850D01*
X462990Y822850D01*
X457725Y828115D01*
X457725Y835585D01*
X462990Y840850D01*
X470460Y840850D01*
X475725Y835585D01*
X475725Y828115D01*
G37*
G36*
X590025Y828115D02*
X584760Y822850D01*
X577290Y822850D01*
X572025Y828115D01*
X572025Y835585D01*
X577290Y840850D01*
X584760Y840850D01*
X590025Y835585D01*
X590025Y828115D01*
G37*
X467916Y873125D02*
G54D26*
D03*
X415925Y873125D02*
G54D26*
D03*
G36*
X406925Y876860D02*
X412190Y882125D01*
X419660Y882125D01*
X424925Y876860D01*
X424925Y869390D01*
X419660Y864125D01*
X412190Y864125D01*
X406925Y869390D01*
X406925Y876860D01*
G37*
G54D20*
X454025Y946150D02*
X454025Y920750D01*
X468312Y906462D01*
X468312Y873522D01*
X467916Y873125D01*
X606425Y863600D02*
G54D25*
D03*
X581422Y863600D02*
G54D25*
D03*
X561578Y863600D02*
G54D25*
D03*
X536575Y863600D02*
G54D25*
D03*
G36*
X657183Y882287D02*
X645483Y870587D01*
X628883Y870587D01*
X617183Y882287D01*
X617183Y898887D01*
X628883Y910587D01*
X645483Y910587D01*
X657183Y898887D01*
X657183Y882287D01*
G37*
G36*
X525619Y882287D02*
X513919Y870587D01*
X497319Y870587D01*
X485619Y882287D01*
X485619Y898887D01*
X497319Y910587D01*
X513919Y910587D01*
X525619Y898887D01*
X525619Y882287D01*
G37*
X492125Y971550D02*
G54D27*
D03*
X492125Y946150D02*
G54D27*
D03*
G54D20*
X454025Y946150D02*
X492125Y946150D01*
X517525Y558800D02*
G54D25*
D03*
X517525Y584200D02*
G54D25*
D03*
X517525Y584200D02*
G54D25*
D03*
X365125Y558800D02*
G54D25*
D03*
X365125Y584200D02*
G54D25*
D03*
X365125Y584200D02*
G54D25*
D03*
G54D20*
X365125Y558800D02*
X384175Y558800D01*
X396875Y571500D01*
X396875Y647700D01*
X365125Y647700D01*
G54D20*
X606425Y831850D02*
X606425Y863600D01*
G54D20*
X396875Y647700D02*
X396875Y698500D01*
X492125Y793750D01*
X492125Y831850D01*
G54D20*
X606425Y831850D02*
X606225Y616150D01*
X346075Y952500D02*
G54D28*
D03*
X365075Y952500D02*
G54D28*
D03*
X346075Y977900D02*
G54D28*
D03*
X365075Y977900D02*
G54D28*
D03*
G54D16*
X346075Y952500D02*
X346075Y977900D01*
G54D16*
X365125Y977900D02*
X365125Y990600D01*
X473075Y657225D02*
G54D28*
D03*
X492075Y657225D02*
G54D28*
D03*
X473075Y631825D02*
G54D28*
D03*
X492075Y631825D02*
G54D28*
D03*
X425450Y631825D02*
G54D28*
D03*
X444450Y631825D02*
G54D28*
D03*
X523875Y654050D02*
G54D27*
D03*
X549275Y654050D02*
G54D27*
D03*
X425450Y657225D02*
G54D28*
D03*
X444450Y657225D02*
G54D28*
D03*
G54D20*
X552450Y654050D02*
X606425Y654050D01*
G54D16*
X425450Y631825D02*
X400050Y631825D01*
X396875Y635000D01*
G54D16*
X425450Y657225D02*
X425450Y631825D01*
G54D16*
X492075Y631825D02*
X492075Y657225D01*
G54D16*
X444450Y657225D02*
X473075Y657225D01*
G54D16*
X444450Y631825D02*
X473075Y631825D01*
X647675Y831825D02*
G54D29*
D03*
X647675Y812825D02*
G54D29*
D03*
G54D16*
X647675Y812825D02*
X647675Y800125D01*
G54D16*
X647675Y831825D02*
X606450Y831825D01*
X606425Y831850D01*
X441325Y558800D02*
G54D25*
D03*
X441325Y584200D02*
G54D25*
D03*
X441325Y584200D02*
G54D25*
D03*
G54D20*
X441325Y558800D02*
X517525Y558800D01*
G54D16*
X492075Y631825D02*
X492075Y558850D01*
X492125Y558800D01*
X606307Y559595D02*
G54D30*
D03*
X606307Y613570D02*
G54D30*
D03*
X606307Y557214D02*
G54D31*
D03*
X606307Y616348D02*
G54D31*
D03*
G54D20*
X606307Y616348D02*
X606307Y615832D01*
X549275Y558800D01*
X517525Y558800D01*
G54D20*
X593725Y558800D02*
X619125Y558800D01*
X530225Y625475D02*
G54D28*
D03*
X549225Y625475D02*
G54D28*
D03*
G54D16*
X520650Y625475D02*
X530225Y625475D01*
G54D16*
X549275Y625475D02*
X549275Y654050D01*
X355600Y892175D02*
G54D32*
D03*
X355600Y926505D02*
G54D32*
D03*
G54D16*
X355600Y892175D02*
X396875Y892175D01*
X415925Y873125D01*
G54D16*
X365075Y952500D02*
X365125Y952500D01*
X377825Y939800D01*
X377825Y892175D01*
G54D16*
X346075Y927100D02*
X365125Y927100D01*
X606425Y654050D02*
G54D27*
D03*
X628655Y654050D02*
G54D27*
D03*
G36*
X799225Y939925D02*
X790450Y931150D01*
X778000Y931150D01*
X769225Y939925D01*
X769225Y952375D01*
X778000Y961150D01*
X790450Y961150D01*
X799225Y952375D01*
X799225Y939925D01*
G37*
G36*
X748425Y939925D02*
X739650Y931150D01*
X727200Y931150D01*
X718425Y939925D01*
X718425Y952375D01*
X727200Y961150D01*
X739650Y961150D01*
X748425Y952375D01*
X748425Y939925D01*
G37*
X695325Y825500D02*
G54D25*
D03*
X695325Y850900D02*
G54D25*
D03*
X695325Y736600D02*
G54D25*
D03*
X695325Y762000D02*
G54D25*
D03*
X695325Y647700D02*
G54D25*
D03*
X695325Y673100D02*
G54D25*
D03*
G36*
X718425Y952375D02*
X727200Y961150D01*
X739650Y961150D01*
X748425Y952375D01*
X748425Y939925D01*
X739650Y931150D01*
X727200Y931150D01*
X718425Y939925D01*
X718425Y952375D01*
G37*
X695325Y850900D02*
G54D25*
D03*
X695325Y762000D02*
G54D25*
D03*
X695325Y673100D02*
G54D25*
D03*
X866775Y863600D02*
G54D25*
D03*
G36*
X831325Y828115D02*
X826060Y822850D01*
X818590Y822850D01*
X813325Y828115D01*
X813325Y835585D01*
X818590Y840850D01*
X826060Y840850D01*
X831325Y835585D01*
X831325Y828115D01*
G37*
G36*
X805925Y828115D02*
X800660Y822850D01*
X793190Y822850D01*
X787925Y828115D01*
X787925Y835585D01*
X793190Y840850D01*
X800660Y840850D01*
X805925Y835585D01*
X805925Y828115D01*
G37*
G36*
X780525Y828115D02*
X775260Y822850D01*
X767790Y822850D01*
X762525Y828115D01*
X762525Y835585D01*
X767790Y840850D01*
X775260Y840850D01*
X780525Y835585D01*
X780525Y828115D01*
G37*
G36*
X945625Y828115D02*
X940360Y822850D01*
X932890Y822850D01*
X927625Y828115D01*
X927625Y835585D01*
X932890Y840850D01*
X940360Y840850D01*
X945625Y835585D01*
X945625Y828115D01*
G37*
G36*
X920225Y828115D02*
X914960Y822850D01*
X907490Y822850D01*
X902225Y828115D01*
X902225Y835585D01*
X907490Y840850D01*
X914960Y840850D01*
X920225Y835585D01*
X920225Y828115D01*
G37*
G36*
X894825Y828115D02*
X889560Y822850D01*
X882090Y822850D01*
X876825Y828115D01*
X876825Y835585D01*
X882090Y840850D01*
X889560Y840850D01*
X894825Y835585D01*
X894825Y828115D01*
G37*
G36*
X805925Y828115D02*
X800660Y822850D01*
X793190Y822850D01*
X787925Y828115D01*
X787925Y835585D01*
X793190Y840850D01*
X800660Y840850D01*
X805925Y835585D01*
X805925Y828115D01*
G37*
G36*
X920225Y828115D02*
X914960Y822850D01*
X907490Y822850D01*
X902225Y828115D01*
X902225Y835585D01*
X907490Y840850D01*
X914960Y840850D01*
X920225Y835585D01*
X920225Y828115D01*
G37*
X798116Y873125D02*
G54D26*
D03*
X746125Y873125D02*
G54D26*
D03*
G36*
X737125Y876860D02*
X742390Y882125D01*
X749860Y882125D01*
X755125Y876860D01*
X755125Y869390D01*
X749860Y864125D01*
X742390Y864125D01*
X737125Y869390D01*
X737125Y876860D01*
G37*
G54D20*
X784225Y946150D02*
X784225Y920750D01*
X798512Y906462D01*
X798512Y873522D01*
X798116Y873125D01*
X936625Y863600D02*
G54D25*
D03*
X911622Y863600D02*
G54D25*
D03*
X891778Y863600D02*
G54D25*
D03*
X866775Y863600D02*
G54D25*
D03*
G36*
X987383Y882287D02*
X975683Y870587D01*
X959083Y870587D01*
X947383Y882287D01*
X947383Y898887D01*
X959083Y910587D01*
X975683Y910587D01*
X987383Y898887D01*
X987383Y882287D01*
G37*
G36*
X855819Y882287D02*
X844119Y870587D01*
X827519Y870587D01*
X815819Y882287D01*
X815819Y898887D01*
X827519Y910587D01*
X844119Y910587D01*
X855819Y898887D01*
X855819Y882287D01*
G37*
X822325Y971550D02*
G54D27*
D03*
X822325Y946150D02*
G54D27*
D03*
G54D20*
X784225Y946150D02*
X822325Y946150D01*
X847725Y558800D02*
G54D25*
D03*
X847725Y584200D02*
G54D25*
D03*
X847725Y584200D02*
G54D25*
D03*
X695325Y558800D02*
G54D25*
D03*
X695325Y584200D02*
G54D25*
D03*
X695325Y584200D02*
G54D25*
D03*
G54D20*
X695325Y558800D02*
X714375Y558800D01*
X727075Y571500D01*
X727075Y647700D01*
X695325Y647700D01*
G54D20*
X936625Y831850D02*
X936625Y863600D01*
G54D20*
X727075Y647700D02*
X727075Y698500D01*
X822325Y793750D01*
X822325Y831850D01*
G54D20*
X936625Y831850D02*
X936425Y616150D01*
X676275Y952500D02*
G54D28*
D03*
X695275Y952500D02*
G54D28*
D03*
X676275Y977900D02*
G54D28*
D03*
X695275Y977900D02*
G54D28*
D03*
G54D16*
X676275Y952500D02*
X676275Y977900D01*
G54D16*
X695325Y977900D02*
X695325Y990600D01*
X803275Y657225D02*
G54D28*
D03*
X822275Y657225D02*
G54D28*
D03*
X803275Y631825D02*
G54D28*
D03*
X822275Y631825D02*
G54D28*
D03*
X755650Y631825D02*
G54D28*
D03*
X774650Y631825D02*
G54D28*
D03*
X854075Y654050D02*
G54D27*
D03*
X879475Y654050D02*
G54D27*
D03*
X755650Y657225D02*
G54D28*
D03*
X774650Y657225D02*
G54D28*
D03*
G54D20*
X882650Y654050D02*
X936625Y654050D01*
G54D16*
X755650Y631825D02*
X730250Y631825D01*
X727075Y635000D01*
G54D16*
X755650Y657225D02*
X755650Y631825D01*
G54D16*
X822275Y631825D02*
X822275Y657225D01*
G54D16*
X774650Y657225D02*
X803275Y657225D01*
G54D16*
X774650Y631825D02*
X803275Y631825D01*
X977875Y831825D02*
G54D29*
D03*
X977875Y812825D02*
G54D29*
D03*
G54D16*
X977875Y812825D02*
X977875Y800125D01*
G54D16*
X977875Y831825D02*
X936650Y831825D01*
X936625Y831850D01*
X771525Y558800D02*
G54D25*
D03*
X771525Y584200D02*
G54D25*
D03*
X771525Y584200D02*
G54D25*
D03*
G54D20*
X771525Y558800D02*
X847725Y558800D01*
G54D16*
X822275Y631825D02*
X822275Y558850D01*
X822325Y558800D01*
X936507Y559595D02*
G54D30*
D03*
X936507Y613570D02*
G54D30*
D03*
X936507Y557214D02*
G54D31*
D03*
X936507Y616348D02*
G54D31*
D03*
G54D20*
X936507Y616348D02*
X936507Y615832D01*
X879475Y558800D01*
X847725Y558800D01*
G54D20*
X923925Y558800D02*
X949325Y558800D01*
X860425Y625475D02*
G54D28*
D03*
X879425Y625475D02*
G54D28*
D03*
G54D16*
X850850Y625475D02*
X860425Y625475D01*
G54D16*
X879475Y625475D02*
X879475Y654050D01*
X685800Y892175D02*
G54D32*
D03*
X685800Y926505D02*
G54D32*
D03*
G54D16*
X685800Y892175D02*
X727075Y892175D01*
X746125Y873125D01*
G54D16*
X695275Y952500D02*
X695325Y952500D01*
X708025Y939800D01*
X708025Y892175D01*
G54D16*
X676275Y927100D02*
X695325Y927100D01*
X936625Y654050D02*
G54D27*
D03*
X958855Y654050D02*
G54D27*
D03*
G36*
X138825Y470025D02*
X130050Y461250D01*
X117600Y461250D01*
X108825Y470025D01*
X108825Y482475D01*
X117600Y491250D01*
X130050Y491250D01*
X138825Y482475D01*
X138825Y470025D01*
G37*
G36*
X88025Y470025D02*
X79250Y461250D01*
X66800Y461250D01*
X58025Y470025D01*
X58025Y482475D01*
X66800Y491250D01*
X79250Y491250D01*
X88025Y482475D01*
X88025Y470025D01*
G37*
X34925Y355600D02*
G54D25*
D03*
X34925Y381000D02*
G54D25*
D03*
X34925Y266700D02*
G54D25*
D03*
X34925Y292100D02*
G54D25*
D03*
X34925Y177800D02*
G54D25*
D03*
X34925Y203200D02*
G54D25*
D03*
G36*
X58025Y482475D02*
X66800Y491250D01*
X79250Y491250D01*
X88025Y482475D01*
X88025Y470025D01*
X79250Y461250D01*
X66800Y461250D01*
X58025Y470025D01*
X58025Y482475D01*
G37*
X34925Y381000D02*
G54D25*
D03*
X34925Y292100D02*
G54D25*
D03*
X34925Y203200D02*
G54D25*
D03*
X206375Y393700D02*
G54D25*
D03*
G36*
X170925Y358215D02*
X165660Y352950D01*
X158190Y352950D01*
X152925Y358215D01*
X152925Y365685D01*
X158190Y370950D01*
X165660Y370950D01*
X170925Y365685D01*
X170925Y358215D01*
G37*
G36*
X145525Y358215D02*
X140260Y352950D01*
X132790Y352950D01*
X127525Y358215D01*
X127525Y365685D01*
X132790Y370950D01*
X140260Y370950D01*
X145525Y365685D01*
X145525Y358215D01*
G37*
G36*
X120125Y358215D02*
X114860Y352950D01*
X107390Y352950D01*
X102125Y358215D01*
X102125Y365685D01*
X107390Y370950D01*
X114860Y370950D01*
X120125Y365685D01*
X120125Y358215D01*
G37*
G36*
X285225Y358215D02*
X279960Y352950D01*
X272490Y352950D01*
X267225Y358215D01*
X267225Y365685D01*
X272490Y370950D01*
X279960Y370950D01*
X285225Y365685D01*
X285225Y358215D01*
G37*
G36*
X259825Y358215D02*
X254560Y352950D01*
X247090Y352950D01*
X241825Y358215D01*
X241825Y365685D01*
X247090Y370950D01*
X254560Y370950D01*
X259825Y365685D01*
X259825Y358215D01*
G37*
G36*
X234425Y358215D02*
X229160Y352950D01*
X221690Y352950D01*
X216425Y358215D01*
X216425Y365685D01*
X221690Y370950D01*
X229160Y370950D01*
X234425Y365685D01*
X234425Y358215D01*
G37*
G36*
X145525Y358215D02*
X140260Y352950D01*
X132790Y352950D01*
X127525Y358215D01*
X127525Y365685D01*
X132790Y370950D01*
X140260Y370950D01*
X145525Y365685D01*
X145525Y358215D01*
G37*
G36*
X259825Y358215D02*
X254560Y352950D01*
X247090Y352950D01*
X241825Y358215D01*
X241825Y365685D01*
X247090Y370950D01*
X254560Y370950D01*
X259825Y365685D01*
X259825Y358215D01*
G37*
X137716Y403225D02*
G54D26*
D03*
X85725Y403225D02*
G54D26*
D03*
G36*
X76725Y406960D02*
X81990Y412225D01*
X89460Y412225D01*
X94725Y406960D01*
X94725Y399490D01*
X89460Y394225D01*
X81990Y394225D01*
X76725Y399490D01*
X76725Y406960D01*
G37*
G54D20*
X123825Y476250D02*
X123825Y450850D01*
X138112Y436562D01*
X138112Y403622D01*
X137716Y403225D01*
X276225Y393700D02*
G54D25*
D03*
X251222Y393700D02*
G54D25*
D03*
X231378Y393700D02*
G54D25*
D03*
X206375Y393700D02*
G54D25*
D03*
G36*
X326983Y412388D02*
X315283Y400688D01*
X298683Y400688D01*
X286983Y412388D01*
X286983Y428988D01*
X298683Y440688D01*
X315283Y440688D01*
X326983Y428988D01*
X326983Y412388D01*
G37*
G36*
X195419Y412387D02*
X183719Y400687D01*
X167119Y400687D01*
X155419Y412387D01*
X155419Y428987D01*
X167119Y440687D01*
X183719Y440687D01*
X195419Y428987D01*
X195419Y412387D01*
G37*
X161925Y501650D02*
G54D27*
D03*
X161925Y476250D02*
G54D27*
D03*
G54D20*
X123825Y476250D02*
X161925Y476250D01*
X187325Y88900D02*
G54D25*
D03*
X187325Y114300D02*
G54D25*
D03*
X187325Y114300D02*
G54D25*
D03*
X34925Y88900D02*
G54D25*
D03*
X34925Y114300D02*
G54D25*
D03*
X34925Y114300D02*
G54D25*
D03*
G54D20*
X34925Y88900D02*
X53975Y88900D01*
X66675Y101600D01*
X66675Y177800D01*
X34925Y177800D01*
G54D20*
X276225Y361950D02*
X276225Y393700D01*
G54D20*
X66675Y177800D02*
X66675Y228600D01*
X161925Y323850D01*
X161925Y361950D01*
G54D20*
X276225Y361950D02*
X276025Y146250D01*
X15875Y482600D02*
G54D28*
D03*
X34875Y482600D02*
G54D28*
D03*
X15875Y508000D02*
G54D28*
D03*
X34875Y508000D02*
G54D28*
D03*
G54D16*
X15875Y482600D02*
X15875Y508000D01*
G54D16*
X34925Y508000D02*
X34925Y520700D01*
X142875Y187325D02*
G54D28*
D03*
X161875Y187325D02*
G54D28*
D03*
X142875Y161925D02*
G54D28*
D03*
X161875Y161925D02*
G54D28*
D03*
X95250Y161925D02*
G54D28*
D03*
X114250Y161925D02*
G54D28*
D03*
X193675Y184150D02*
G54D27*
D03*
X219075Y184150D02*
G54D27*
D03*
X95250Y187325D02*
G54D28*
D03*
X114250Y187325D02*
G54D28*
D03*
G54D20*
X222250Y184150D02*
X276225Y184150D01*
G54D16*
X95250Y161925D02*
X69850Y161925D01*
X66675Y165100D01*
G54D16*
X95250Y187325D02*
X95250Y161925D01*
G54D16*
X161875Y161925D02*
X161875Y187325D01*
G54D16*
X114250Y187325D02*
X142875Y187325D01*
G54D16*
X114250Y161925D02*
X142875Y161925D01*
X317475Y361925D02*
G54D29*
D03*
X317475Y342925D02*
G54D29*
D03*
G54D16*
X317475Y342925D02*
X317475Y330225D01*
G54D16*
X317475Y361925D02*
X276250Y361925D01*
X276225Y361950D01*
X111125Y88900D02*
G54D25*
D03*
X111125Y114300D02*
G54D25*
D03*
X111125Y114300D02*
G54D25*
D03*
G54D20*
X111125Y88900D02*
X187325Y88900D01*
G54D16*
X161875Y161925D02*
X161875Y88950D01*
X161925Y88900D01*
X276107Y89695D02*
G54D30*
D03*
X276107Y143670D02*
G54D30*
D03*
X276107Y87314D02*
G54D31*
D03*
X276107Y146448D02*
G54D31*
D03*
G54D20*
X276107Y146448D02*
X276107Y145932D01*
X219075Y88900D01*
X187325Y88900D01*
G54D20*
X263525Y88900D02*
X288925Y88900D01*
X200025Y155575D02*
G54D28*
D03*
X219025Y155575D02*
G54D28*
D03*
G54D16*
X190450Y155575D02*
X200025Y155575D01*
G54D16*
X219075Y155575D02*
X219075Y184150D01*
X25400Y422275D02*
G54D32*
D03*
X25400Y456605D02*
G54D32*
D03*
G54D16*
X25400Y422275D02*
X66675Y422275D01*
X85725Y403225D01*
G54D16*
X34875Y482600D02*
X34925Y482600D01*
X47625Y469900D01*
X47625Y422275D01*
G54D16*
X15875Y457200D02*
X34925Y457200D01*
X276225Y184150D02*
G54D27*
D03*
X298455Y184150D02*
G54D27*
D03*
G36*
X469025Y470025D02*
X460250Y461250D01*
X447800Y461250D01*
X439025Y470025D01*
X439025Y482475D01*
X447800Y491250D01*
X460250Y491250D01*
X469025Y482475D01*
X469025Y470025D01*
G37*
G36*
X418225Y470025D02*
X409450Y461250D01*
X397000Y461250D01*
X388225Y470025D01*
X388225Y482475D01*
X397000Y491250D01*
X409450Y491250D01*
X418225Y482475D01*
X418225Y470025D01*
G37*
X365125Y355600D02*
G54D25*
D03*
X365125Y381000D02*
G54D25*
D03*
X365125Y266700D02*
G54D25*
D03*
X365125Y292100D02*
G54D25*
D03*
X365125Y177800D02*
G54D25*
D03*
X365125Y203200D02*
G54D25*
D03*
G36*
X388225Y482475D02*
X397000Y491250D01*
X409450Y491250D01*
X418225Y482475D01*
X418225Y470025D01*
X409450Y461250D01*
X397000Y461250D01*
X388225Y470025D01*
X388225Y482475D01*
G37*
X365125Y381000D02*
G54D25*
D03*
X365125Y292100D02*
G54D25*
D03*
X365125Y203200D02*
G54D25*
D03*
X536575Y393700D02*
G54D25*
D03*
G36*
X501125Y358215D02*
X495860Y352950D01*
X488390Y352950D01*
X483125Y358215D01*
X483125Y365685D01*
X488390Y370950D01*
X495860Y370950D01*
X501125Y365685D01*
X501125Y358215D01*
G37*
G36*
X475725Y358215D02*
X470460Y352950D01*
X462990Y352950D01*
X457725Y358215D01*
X457725Y365685D01*
X462990Y370950D01*
X470460Y370950D01*
X475725Y365685D01*
X475725Y358215D01*
G37*
G36*
X450325Y358215D02*
X445060Y352950D01*
X437590Y352950D01*
X432325Y358215D01*
X432325Y365685D01*
X437590Y370950D01*
X445060Y370950D01*
X450325Y365685D01*
X450325Y358215D01*
G37*
G36*
X615425Y358215D02*
X610160Y352950D01*
X602690Y352950D01*
X597425Y358215D01*
X597425Y365685D01*
X602690Y370950D01*
X610160Y370950D01*
X615425Y365685D01*
X615425Y358215D01*
G37*
G36*
X590025Y358215D02*
X584760Y352950D01*
X577290Y352950D01*
X572025Y358215D01*
X572025Y365685D01*
X577290Y370950D01*
X584760Y370950D01*
X590025Y365685D01*
X590025Y358215D01*
G37*
G36*
X564625Y358215D02*
X559360Y352950D01*
X551890Y352950D01*
X546625Y358215D01*
X546625Y365685D01*
X551890Y370950D01*
X559360Y370950D01*
X564625Y365685D01*
X564625Y358215D01*
G37*
G36*
X475725Y358215D02*
X470460Y352950D01*
X462990Y352950D01*
X457725Y358215D01*
X457725Y365685D01*
X462990Y370950D01*
X470460Y370950D01*
X475725Y365685D01*
X475725Y358215D01*
G37*
G36*
X590025Y358215D02*
X584760Y352950D01*
X577290Y352950D01*
X572025Y358215D01*
X572025Y365685D01*
X577290Y370950D01*
X584760Y370950D01*
X590025Y365685D01*
X590025Y358215D01*
G37*
X467916Y403225D02*
G54D26*
D03*
X415925Y403225D02*
G54D26*
D03*
G36*
X406925Y406960D02*
X412190Y412225D01*
X419660Y412225D01*
X424925Y406960D01*
X424925Y399490D01*
X419660Y394225D01*
X412190Y394225D01*
X406925Y399490D01*
X406925Y406960D01*
G37*
G54D20*
X454025Y476250D02*
X454025Y450850D01*
X468312Y436562D01*
X468312Y403622D01*
X467916Y403225D01*
X606425Y393700D02*
G54D25*
D03*
X581422Y393700D02*
G54D25*
D03*
X561578Y393700D02*
G54D25*
D03*
X536575Y393700D02*
G54D25*
D03*
G36*
X657183Y412388D02*
X645483Y400688D01*
X628883Y400688D01*
X617183Y412388D01*
X617183Y428988D01*
X628883Y440688D01*
X645483Y440688D01*
X657183Y428988D01*
X657183Y412388D01*
G37*
G36*
X525619Y412387D02*
X513919Y400687D01*
X497319Y400687D01*
X485619Y412387D01*
X485619Y428987D01*
X497319Y440687D01*
X513919Y440687D01*
X525619Y428987D01*
X525619Y412387D01*
G37*
X492125Y501650D02*
G54D27*
D03*
X492125Y476250D02*
G54D27*
D03*
G54D20*
X454025Y476250D02*
X492125Y476250D01*
X517525Y88900D02*
G54D25*
D03*
X517525Y114300D02*
G54D25*
D03*
X517525Y114300D02*
G54D25*
D03*
X365125Y88900D02*
G54D25*
D03*
X365125Y114300D02*
G54D25*
D03*
X365125Y114300D02*
G54D25*
D03*
G54D20*
X365125Y88900D02*
X384175Y88900D01*
X396875Y101600D01*
X396875Y177800D01*
X365125Y177800D01*
G54D20*
X606425Y361950D02*
X606425Y393700D01*
G54D20*
X396875Y177800D02*
X396875Y228600D01*
X492125Y323850D01*
X492125Y361950D01*
G54D20*
X606425Y361950D02*
X606225Y146250D01*
X346075Y482600D02*
G54D28*
D03*
X365075Y482600D02*
G54D28*
D03*
X346075Y508000D02*
G54D28*
D03*
X365075Y508000D02*
G54D28*
D03*
G54D16*
X346075Y482600D02*
X346075Y508000D01*
G54D16*
X365125Y508000D02*
X365125Y520700D01*
X473075Y187325D02*
G54D28*
D03*
X492075Y187325D02*
G54D28*
D03*
X473075Y161925D02*
G54D28*
D03*
X492075Y161925D02*
G54D28*
D03*
X425450Y161925D02*
G54D28*
D03*
X444450Y161925D02*
G54D28*
D03*
X523875Y184150D02*
G54D27*
D03*
X549275Y184150D02*
G54D27*
D03*
X425450Y187325D02*
G54D28*
D03*
X444450Y187325D02*
G54D28*
D03*
G54D20*
X552450Y184150D02*
X606425Y184150D01*
G54D16*
X425450Y161925D02*
X400050Y161925D01*
X396875Y165100D01*
G54D16*
X425450Y187325D02*
X425450Y161925D01*
G54D16*
X492075Y161925D02*
X492075Y187325D01*
G54D16*
X444450Y187325D02*
X473075Y187325D01*
G54D16*
X444450Y161925D02*
X473075Y161925D01*
X647675Y361925D02*
G54D29*
D03*
X647675Y342925D02*
G54D29*
D03*
G54D16*
X647675Y342925D02*
X647675Y330225D01*
G54D16*
X647675Y361925D02*
X606450Y361925D01*
X606425Y361950D01*
X441325Y88900D02*
G54D25*
D03*
X441325Y114300D02*
G54D25*
D03*
X441325Y114300D02*
G54D25*
D03*
G54D20*
X441325Y88900D02*
X517525Y88900D01*
G54D16*
X492075Y161925D02*
X492075Y88950D01*
X492125Y88900D01*
X606307Y89695D02*
G54D30*
D03*
X606307Y143670D02*
G54D30*
D03*
X606307Y87314D02*
G54D31*
D03*
X606307Y146448D02*
G54D31*
D03*
G54D20*
X606307Y146448D02*
X606307Y145932D01*
X549275Y88900D01*
X517525Y88900D01*
G54D20*
X593725Y88900D02*
X619125Y88900D01*
X530225Y155575D02*
G54D28*
D03*
X549225Y155575D02*
G54D28*
D03*
G54D16*
X520650Y155575D02*
X530225Y155575D01*
G54D16*
X549275Y155575D02*
X549275Y184150D01*
X355600Y422275D02*
G54D32*
D03*
X355600Y456605D02*
G54D32*
D03*
G54D16*
X355600Y422275D02*
X396875Y422275D01*
X415925Y403225D01*
G54D16*
X365075Y482600D02*
X365125Y482600D01*
X377825Y469900D01*
X377825Y422275D01*
G54D16*
X346075Y457200D02*
X365125Y457200D01*
X606425Y184150D02*
G54D27*
D03*
X628655Y184150D02*
G54D27*
D03*
G36*
X799225Y470025D02*
X790450Y461250D01*
X778000Y461250D01*
X769225Y470025D01*
X769225Y482475D01*
X778000Y491250D01*
X790450Y491250D01*
X799225Y482475D01*
X799225Y470025D01*
G37*
G36*
X748425Y470025D02*
X739650Y461250D01*
X727200Y461250D01*
X718425Y470025D01*
X718425Y482475D01*
X727200Y491250D01*
X739650Y491250D01*
X748425Y482475D01*
X748425Y470025D01*
G37*
X695325Y355600D02*
G54D25*
D03*
X695325Y381000D02*
G54D25*
D03*
X695325Y266700D02*
G54D25*
D03*
X695325Y292100D02*
G54D25*
D03*
X695325Y177800D02*
G54D25*
D03*
X695325Y203200D02*
G54D25*
D03*
G36*
X718425Y482475D02*
X727200Y491250D01*
X739650Y491250D01*
X748425Y482475D01*
X748425Y470025D01*
X739650Y461250D01*
X727200Y461250D01*
X718425Y470025D01*
X718425Y482475D01*
G37*
X695325Y381000D02*
G54D25*
D03*
X695325Y292100D02*
G54D25*
D03*
X695325Y203200D02*
G54D25*
D03*
X866775Y393700D02*
G54D25*
D03*
G36*
X831325Y358215D02*
X826060Y352950D01*
X818590Y352950D01*
X813325Y358215D01*
X813325Y365685D01*
X818590Y370950D01*
X826060Y370950D01*
X831325Y365685D01*
X831325Y358215D01*
G37*
G36*
X805925Y358215D02*
X800660Y352950D01*
X793190Y352950D01*
X787925Y358215D01*
X787925Y365685D01*
X793190Y370950D01*
X800660Y370950D01*
X805925Y365685D01*
X805925Y358215D01*
G37*
G36*
X780525Y358215D02*
X775260Y352950D01*
X767790Y352950D01*
X762525Y358215D01*
X762525Y365685D01*
X767790Y370950D01*
X775260Y370950D01*
X780525Y365685D01*
X780525Y358215D01*
G37*
G36*
X945625Y358215D02*
X940360Y352950D01*
X932890Y352950D01*
X927625Y358215D01*
X927625Y365685D01*
X932890Y370950D01*
X940360Y370950D01*
X945625Y365685D01*
X945625Y358215D01*
G37*
G36*
X920225Y358215D02*
X914960Y352950D01*
X907490Y352950D01*
X902225Y358215D01*
X902225Y365685D01*
X907490Y370950D01*
X914960Y370950D01*
X920225Y365685D01*
X920225Y358215D01*
G37*
G36*
X894825Y358215D02*
X889560Y352950D01*
X882090Y352950D01*
X876825Y358215D01*
X876825Y365685D01*
X882090Y370950D01*
X889560Y370950D01*
X894825Y365685D01*
X894825Y358215D01*
G37*
G36*
X805925Y358215D02*
X800660Y352950D01*
X793190Y352950D01*
X787925Y358215D01*
X787925Y365685D01*
X793190Y370950D01*
X800660Y370950D01*
X805925Y365685D01*
X805925Y358215D01*
G37*
G36*
X920225Y358215D02*
X914960Y352950D01*
X907490Y352950D01*
X902225Y358215D01*
X902225Y365685D01*
X907490Y370950D01*
X914960Y370950D01*
X920225Y365685D01*
X920225Y358215D01*
G37*
X798116Y403225D02*
G54D26*
D03*
X746125Y403225D02*
G54D26*
D03*
G36*
X737125Y406960D02*
X742390Y412225D01*
X749860Y412225D01*
X755125Y406960D01*
X755125Y399490D01*
X749860Y394225D01*
X742390Y394225D01*
X737125Y399490D01*
X737125Y406960D01*
G37*
G54D20*
X784225Y476250D02*
X784225Y450850D01*
X798512Y436562D01*
X798512Y403622D01*
X798116Y403225D01*
X936625Y393700D02*
G54D25*
D03*
X911622Y393700D02*
G54D25*
D03*
X891778Y393700D02*
G54D25*
D03*
X866775Y393700D02*
G54D25*
D03*
G36*
X987383Y412388D02*
X975683Y400688D01*
X959083Y400688D01*
X947383Y412388D01*
X947383Y428988D01*
X959083Y440688D01*
X975683Y440688D01*
X987383Y428988D01*
X987383Y412388D01*
G37*
G36*
X855819Y412387D02*
X844119Y400687D01*
X827519Y400687D01*
X815819Y412387D01*
X815819Y428987D01*
X827519Y440687D01*
X844119Y440687D01*
X855819Y428987D01*
X855819Y412387D01*
G37*
X822325Y501650D02*
G54D27*
D03*
X822325Y476250D02*
G54D27*
D03*
G54D20*
X784225Y476250D02*
X822325Y476250D01*
X847725Y88900D02*
G54D25*
D03*
X847725Y114300D02*
G54D25*
D03*
X847725Y114300D02*
G54D25*
D03*
X695325Y88900D02*
G54D25*
D03*
X695325Y114300D02*
G54D25*
D03*
X695325Y114300D02*
G54D25*
D03*
G54D20*
X695325Y88900D02*
X714375Y88900D01*
X727075Y101600D01*
X727075Y177800D01*
X695325Y177800D01*
G54D20*
X936625Y361950D02*
X936625Y393700D01*
G54D20*
X727075Y177800D02*
X727075Y228600D01*
X822325Y323850D01*
X822325Y361950D01*
G54D20*
X936625Y361950D02*
X936425Y146250D01*
X676275Y482600D02*
G54D28*
D03*
X695275Y482600D02*
G54D28*
D03*
X676275Y508000D02*
G54D28*
D03*
X695275Y508000D02*
G54D28*
D03*
G54D16*
X676275Y482600D02*
X676275Y508000D01*
G54D16*
X695325Y508000D02*
X695325Y520700D01*
X803275Y187325D02*
G54D28*
D03*
X822275Y187325D02*
G54D28*
D03*
X803275Y161925D02*
G54D28*
D03*
X822275Y161925D02*
G54D28*
D03*
X755650Y161925D02*
G54D28*
D03*
X774650Y161925D02*
G54D28*
D03*
X854075Y184150D02*
G54D27*
D03*
X879475Y184150D02*
G54D27*
D03*
X755650Y187325D02*
G54D28*
D03*
X774650Y187325D02*
G54D28*
D03*
G54D20*
X882650Y184150D02*
X936625Y184150D01*
G54D16*
X755650Y161925D02*
X730250Y161925D01*
X727075Y165100D01*
G54D16*
X755650Y187325D02*
X755650Y161925D01*
G54D16*
X822275Y161925D02*
X822275Y187325D01*
G54D16*
X774650Y187325D02*
X803275Y187325D01*
G54D16*
X774650Y161925D02*
X803275Y161925D01*
X977875Y361925D02*
G54D29*
D03*
X977875Y342925D02*
G54D29*
D03*
G54D16*
X977875Y342925D02*
X977875Y330225D01*
G54D16*
X977875Y361925D02*
X936650Y361925D01*
X936625Y361950D01*
X771525Y88900D02*
G54D25*
D03*
X771525Y114300D02*
G54D25*
D03*
X771525Y114300D02*
G54D25*
D03*
G54D20*
X771525Y88900D02*
X847725Y88900D01*
G54D16*
X822275Y161925D02*
X822275Y88950D01*
X822325Y88900D01*
X936507Y89695D02*
G54D30*
D03*
X936507Y143670D02*
G54D30*
D03*
X936507Y87314D02*
G54D31*
D03*
X936507Y146448D02*
G54D31*
D03*
G54D20*
X936507Y146448D02*
X936507Y145932D01*
X879475Y88900D01*
X847725Y88900D01*
G54D20*
X923925Y88900D02*
X949325Y88900D01*
X860425Y155575D02*
G54D28*
D03*
X879425Y155575D02*
G54D28*
D03*
G54D16*
X850850Y155575D02*
X860425Y155575D01*
G54D16*
X879475Y155575D02*
X879475Y184150D01*
X685800Y422275D02*
G54D32*
D03*
X685800Y456605D02*
G54D32*
D03*
G54D16*
X685800Y422275D02*
X727075Y422275D01*
X746125Y403225D01*
G54D16*
X695275Y482600D02*
X695325Y482600D01*
X708025Y469900D01*
X708025Y422275D01*
G54D16*
X676275Y457200D02*
X695325Y457200D01*
X936625Y184150D02*
G54D27*
D03*
X958855Y184150D02*
G54D27*
D03*
M02*
