%FSLAX34Y34*%
%MOMM*%
%LNCOPPER_BOTTOM*%
G71*
G01*
%ADD10C, 0.11*%
%ADD11C, 0.10*%
%ADD12C, 0.15*%
%LPD*%
G54D10*
X78403Y852167D02*
X78403Y846834D01*
G54D10*
X74514Y839057D02*
X74514Y844390D01*
X75069Y844390D01*
X76180Y843724D01*
X79514Y839724D01*
X80625Y839057D01*
X81736Y839057D01*
X82847Y839724D01*
X83403Y841057D01*
X83403Y842390D01*
X82847Y843724D01*
X81736Y844390D01*
G54D10*
X74514Y832613D02*
X83403Y832613D01*
X77847Y836613D01*
X76736Y836613D01*
X76736Y831280D01*
G54D10*
X83403Y828836D02*
X74514Y825503D01*
X83403Y822170D01*
G54D10*
X78403Y819725D02*
X78403Y814392D01*
G54D10*
X80625Y817059D02*
X76180Y817059D01*
G54D10*
X76914Y685800D02*
X76914Y680467D01*
G54D10*
X78580Y678023D02*
X81914Y674690D01*
X73025Y674690D01*
G54D10*
X73025Y666913D02*
X73025Y672246D01*
X73580Y672246D01*
X74692Y671579D01*
X78025Y667579D01*
X79136Y666913D01*
X80247Y666913D01*
X81358Y667579D01*
X81914Y668913D01*
X81914Y670246D01*
X81358Y671579D01*
X80247Y672246D01*
G54D10*
X81914Y664469D02*
X73025Y661136D01*
X81914Y657802D01*
G54D10*
X76914Y655358D02*
X76914Y650025D01*
G54D10*
X79136Y652691D02*
X74692Y652691D01*
G54D10*
X76019Y591497D02*
X76019Y586164D01*
G54D10*
X77685Y583720D02*
X81019Y580387D01*
X72130Y580387D01*
G54D10*
X72130Y572610D02*
X72130Y577943D01*
X72685Y577943D01*
X73796Y577277D01*
X77130Y573277D01*
X78241Y572610D01*
X79352Y572610D01*
X80463Y573277D01*
X81019Y574610D01*
X81019Y575943D01*
X80463Y577277D01*
X79352Y577943D01*
G54D10*
X81019Y570166D02*
X72130Y566833D01*
X81019Y563500D01*
G54D10*
X76019Y561055D02*
X76019Y555722D01*
G54D10*
X78241Y558389D02*
X73796Y558389D01*
G54D11*
X149225Y933450D02*
X149225Y984250D01*
X47625Y984250D01*
X47625Y933450D01*
G54D11*
X149225Y933450D02*
X149225Y895350D01*
X47625Y895350D01*
X47625Y933450D01*
G54D11*
X136525Y984250D02*
X136525Y971550D01*
X111125Y971550D01*
X111125Y984250D01*
G54D11*
X85725Y984250D02*
X85725Y971550D01*
X60325Y971550D01*
X60325Y984250D01*
G54D11*
X9525Y800100D02*
X69850Y800100D01*
G54D11*
X9525Y876300D02*
X69850Y876300D01*
X69850Y800100D01*
G54D11*
X9525Y800100D02*
X9525Y876300D01*
G54D11*
X9525Y825500D02*
X15875Y825500D01*
X15875Y850900D01*
X9525Y850900D01*
G54D11*
X9525Y711200D02*
X69850Y711200D01*
G54D11*
X9525Y787400D02*
X69850Y787400D01*
X69850Y711200D01*
G54D11*
X9525Y711200D02*
X9525Y787400D01*
G54D11*
X9525Y736600D02*
X15875Y736600D01*
X15875Y762000D01*
X9525Y762000D01*
G54D11*
X9525Y622300D02*
X69850Y622300D01*
G54D11*
X9525Y698500D02*
X69850Y698500D01*
X69850Y622300D01*
G54D11*
X9525Y622300D02*
X9525Y698500D01*
G54D11*
X9525Y647700D02*
X15875Y647700D01*
X15875Y673100D01*
X9525Y673100D01*
G54D11*
X188912Y844550D02*
X84138Y844550D01*
X84138Y679450D01*
X188912Y679450D01*
X188912Y844550D01*
G54D11*
X174625Y844550D02*
X174625Y819150D01*
X98425Y819150D01*
X98425Y844550D01*
G54D10*
X156592Y792878D02*
X156592Y798433D01*
X157258Y799544D01*
X158592Y800100D01*
X159925Y800100D01*
X161258Y799544D01*
X161925Y798433D01*
X161925Y792878D01*
X161258Y791767D01*
X159925Y791211D01*
X158592Y791211D01*
X157258Y791767D01*
X156592Y792878D01*
G54D10*
X154148Y800100D02*
X154148Y791211D01*
G54D10*
X154148Y797322D02*
X148815Y791211D01*
G54D10*
X152148Y795656D02*
X148815Y800100D01*
G54D10*
X146371Y800100D02*
X146371Y791211D01*
G54D10*
X143927Y796211D02*
X138594Y796211D01*
G54D10*
X136150Y791211D02*
X130817Y791211D01*
X131483Y792322D01*
X132817Y793989D01*
X134150Y796211D01*
X134817Y797878D01*
X134817Y800100D01*
G54D10*
X125040Y795656D02*
X126373Y795656D01*
X127706Y795100D01*
X128373Y793989D01*
X128373Y792878D01*
X127706Y791767D01*
X126373Y791211D01*
X125040Y791211D01*
X123706Y791767D01*
X123040Y792878D01*
X123040Y793989D01*
X123706Y795100D01*
X125040Y795656D01*
X123706Y796211D01*
X123040Y797322D01*
X123040Y798433D01*
X123706Y799544D01*
X125040Y800100D01*
X126373Y800100D01*
X127706Y799544D01*
X128373Y798433D01*
X128373Y797322D01*
X127706Y796211D01*
X126373Y795656D01*
G54D10*
X120596Y798433D02*
X119929Y799544D01*
X118596Y800100D01*
X117263Y800100D01*
X115929Y799544D01*
X115263Y798433D01*
X115263Y797322D01*
X115929Y796211D01*
X117263Y795656D01*
X118596Y795656D01*
X119929Y795100D01*
X120596Y793989D01*
X120596Y792878D01*
X119929Y791767D01*
X118596Y791211D01*
X117263Y791211D01*
X115929Y791767D01*
X115263Y792878D01*
G54D10*
X110152Y795656D02*
X108152Y796767D01*
X107486Y797878D01*
X107486Y800100D01*
G54D10*
X112819Y800100D02*
X112819Y791211D01*
X109486Y791211D01*
X108152Y791767D01*
X107486Y792878D01*
X107486Y793989D01*
X108152Y795100D01*
X109486Y795656D01*
X112819Y795656D01*
G54D10*
X156988Y805578D02*
X156988Y811133D01*
X157655Y812244D01*
X158988Y812800D01*
X160322Y812800D01*
X161655Y812244D01*
X162322Y811133D01*
X162322Y805578D01*
X161655Y804467D01*
X160322Y803911D01*
X158988Y803911D01*
X157655Y804467D01*
X156988Y805578D01*
G54D10*
X133858Y808356D02*
X131192Y808356D01*
X131192Y811133D01*
X131858Y812244D01*
X133192Y812800D01*
X134525Y812800D01*
X135858Y812244D01*
X136525Y811133D01*
X136525Y805578D01*
X135858Y804467D01*
X134525Y803911D01*
X133192Y803911D01*
X131858Y804467D01*
X131192Y805578D01*
G54D10*
X111125Y812800D02*
X111125Y803911D01*
G54D11*
X303212Y844550D02*
X198438Y844550D01*
X198438Y679450D01*
X303212Y679450D01*
X303212Y844550D01*
G54D11*
X288925Y844550D02*
X288925Y819150D01*
X212725Y819150D01*
X212725Y844550D01*
G54D10*
X270892Y792878D02*
X270892Y798433D01*
X271558Y799544D01*
X272892Y800100D01*
X274225Y800100D01*
X275558Y799544D01*
X276225Y798433D01*
X276225Y792878D01*
X275558Y791767D01*
X274225Y791211D01*
X272892Y791211D01*
X271558Y791767D01*
X270892Y792878D01*
G54D10*
X268448Y800100D02*
X268448Y791211D01*
G54D10*
X268448Y797322D02*
X263115Y791211D01*
G54D10*
X266448Y795656D02*
X263115Y800100D01*
G54D10*
X260671Y800100D02*
X260671Y791211D01*
G54D10*
X258227Y796211D02*
X252894Y796211D01*
G54D10*
X250450Y791211D02*
X245117Y791211D01*
X245783Y792322D01*
X247117Y793989D01*
X248450Y796211D01*
X249117Y797878D01*
X249117Y800100D01*
G54D10*
X239340Y795656D02*
X240673Y795656D01*
X242006Y795100D01*
X242673Y793989D01*
X242673Y792878D01*
X242006Y791767D01*
X240673Y791211D01*
X239340Y791211D01*
X238006Y791767D01*
X237340Y792878D01*
X237340Y793989D01*
X238006Y795100D01*
X239340Y795656D01*
X238006Y796211D01*
X237340Y797322D01*
X237340Y798433D01*
X238006Y799544D01*
X239340Y800100D01*
X240673Y800100D01*
X242006Y799544D01*
X242673Y798433D01*
X242673Y797322D01*
X242006Y796211D01*
X240673Y795656D01*
G54D10*
X234896Y798433D02*
X234229Y799544D01*
X232896Y800100D01*
X231563Y800100D01*
X230229Y799544D01*
X229563Y798433D01*
X229563Y797322D01*
X230229Y796211D01*
X231563Y795656D01*
X232896Y795656D01*
X234229Y795100D01*
X234896Y793989D01*
X234896Y792878D01*
X234229Y791767D01*
X232896Y791211D01*
X231563Y791211D01*
X230229Y791767D01*
X229563Y792878D01*
G54D10*
X224452Y795656D02*
X222452Y796767D01*
X221786Y797878D01*
X221786Y800100D01*
G54D10*
X227119Y800100D02*
X227119Y791211D01*
X223786Y791211D01*
X222452Y791767D01*
X221786Y792878D01*
X221786Y793989D01*
X222452Y795100D01*
X223786Y795656D01*
X227119Y795656D01*
G54D10*
X271288Y805578D02*
X271288Y811133D01*
X271955Y812244D01*
X273288Y812800D01*
X274622Y812800D01*
X275955Y812244D01*
X276622Y811133D01*
X276622Y805578D01*
X275955Y804467D01*
X274622Y803911D01*
X273288Y803911D01*
X271955Y804467D01*
X271288Y805578D01*
G54D10*
X248158Y808356D02*
X245492Y808356D01*
X245492Y811133D01*
X246158Y812244D01*
X247492Y812800D01*
X248825Y812800D01*
X250158Y812244D01*
X250825Y811133D01*
X250825Y805578D01*
X250158Y804467D01*
X248825Y803911D01*
X247492Y803911D01*
X246158Y804467D01*
X245492Y805578D01*
G54D10*
X225425Y812800D02*
X225425Y803911D01*
G54D11*
X75009Y889794D02*
X148034Y889794D01*
X148034Y856456D01*
X75009Y856456D01*
X75009Y889794D01*
G54D11*
X306983Y865981D02*
X306983Y853480D01*
X175419Y853480D01*
X175419Y865981D01*
G54D11*
X306983Y915194D02*
X306983Y993378D01*
X175419Y993378D01*
X175419Y915194D01*
G54D10*
X272099Y878681D02*
X280988Y882014D01*
X272099Y885348D01*
G54D10*
X279321Y893126D02*
X280432Y892459D01*
X280988Y891126D01*
X280988Y889792D01*
X280432Y888459D01*
X279321Y887792D01*
X273765Y887792D01*
X272654Y888459D01*
X272099Y889792D01*
X272099Y891126D01*
X272654Y892459D01*
X273765Y893126D01*
G54D10*
X279321Y900903D02*
X280432Y900236D01*
X280988Y898903D01*
X280988Y897569D01*
X280432Y896236D01*
X279321Y895569D01*
X273765Y895569D01*
X272654Y896236D01*
X272099Y897569D01*
X272099Y898903D01*
X272654Y900236D01*
X273765Y900903D01*
G54D10*
X255588Y878681D02*
X246699Y878681D01*
X246699Y882014D01*
X247254Y883348D01*
X248365Y884015D01*
X253921Y884015D01*
X255032Y883348D01*
X255588Y882015D01*
X255588Y878681D01*
G54D10*
X251699Y886458D02*
X251699Y891792D01*
G54D10*
X236538Y878681D02*
X227649Y878681D01*
X227649Y882014D01*
X228204Y883348D01*
X229315Y884015D01*
X234871Y884015D01*
X235982Y883348D01*
X236538Y882014D01*
X236538Y878681D01*
G54D10*
X232649Y886458D02*
X232649Y891792D01*
G54D10*
X230426Y889125D02*
X234871Y889125D01*
G54D10*
X206693Y881348D02*
X206693Y884015D01*
X209471Y884015D01*
X210582Y883348D01*
X211138Y882015D01*
X211138Y880681D01*
X210582Y879348D01*
X209471Y878681D01*
X203915Y878681D01*
X202804Y879348D01*
X202249Y880681D01*
X202249Y882014D01*
X202804Y883348D01*
X203915Y884015D01*
G54D10*
X211138Y886458D02*
X202249Y886458D01*
X211138Y891792D01*
X202249Y891792D01*
G54D10*
X211138Y894235D02*
X202249Y894235D01*
X202249Y897569D01*
X202804Y898902D01*
X203915Y899569D01*
X209471Y899569D01*
X210582Y898902D01*
X211138Y897569D01*
X211138Y894235D01*
G54D11*
X149225Y984250D02*
X174625Y984250D01*
X174625Y933450D01*
X149225Y933450D01*
X149225Y984250D01*
G54D10*
X229314Y577850D02*
X229314Y572517D01*
G54D10*
X234314Y564740D02*
X234314Y570073D01*
X230425Y570073D01*
X230425Y569406D01*
X230980Y568073D01*
X230980Y566740D01*
X230425Y565406D01*
X229314Y564740D01*
X227092Y564740D01*
X225980Y565406D01*
X225425Y566740D01*
X225425Y568073D01*
X225980Y569406D01*
X227092Y570073D01*
G54D10*
X234314Y562296D02*
X225425Y558963D01*
X234314Y555629D01*
G54D10*
X229314Y553185D02*
X229314Y547852D01*
G54D10*
X231536Y550518D02*
X227092Y550518D01*
G54D11*
X161925Y533400D02*
X222250Y533400D01*
G54D11*
X161925Y609600D02*
X222250Y609600D01*
X222250Y533400D01*
G54D11*
X161925Y533400D02*
X161925Y609600D01*
G54D11*
X161925Y558800D02*
X168275Y558800D01*
X168275Y584200D01*
X161925Y584200D01*
G54D11*
X9525Y533400D02*
X69850Y533400D01*
G54D11*
X9525Y609600D02*
X69850Y609600D01*
X69850Y533400D01*
G54D11*
X9525Y533400D02*
X9525Y609600D01*
G54D11*
X9525Y558800D02*
X15875Y558800D01*
X15875Y584200D01*
X9525Y584200D01*
G54D10*
X78403Y775967D02*
X78403Y770634D01*
G54D10*
X74514Y762857D02*
X74514Y768190D01*
X75069Y768190D01*
X76180Y767524D01*
X79514Y763524D01*
X80625Y762857D01*
X81736Y762857D01*
X82847Y763524D01*
X83403Y764857D01*
X83403Y766190D01*
X82847Y767524D01*
X81736Y768190D01*
G54D10*
X74514Y756413D02*
X83403Y756413D01*
X77847Y760413D01*
X76736Y760413D01*
X76736Y755080D01*
G54D10*
X83403Y752636D02*
X74514Y749303D01*
X83403Y745970D01*
G54D10*
X78403Y743525D02*
X78403Y738192D01*
G54D10*
X80625Y740859D02*
X76180Y740859D01*
G54D12*
X6375Y941500D02*
X6375Y963500D01*
X44375Y963500D01*
X44375Y941500D01*
X6375Y941500D01*
G54D12*
X6375Y966900D02*
X6375Y988900D01*
X44375Y988900D01*
X44375Y966900D01*
X6375Y966900D01*
G54D12*
X133375Y646225D02*
X133375Y668225D01*
X171375Y668225D01*
X171375Y646225D01*
X133375Y646225D01*
G54D12*
X133375Y620825D02*
X133375Y642825D01*
X171375Y642825D01*
X171375Y620825D01*
X133375Y620825D01*
G54D12*
X85750Y620825D02*
X85750Y642825D01*
X123750Y642825D01*
X123750Y620825D01*
X85750Y620825D01*
G54D12*
X85750Y646225D02*
X85750Y668225D01*
X123750Y668225D01*
X123750Y646225D01*
X85750Y646225D01*
G54D11*
X180975Y666750D02*
X231775Y666750D01*
X231775Y641350D01*
X180975Y641350D01*
X180975Y666750D01*
G54D12*
X306475Y841325D02*
X328475Y841325D01*
X328475Y803325D01*
X306475Y803325D01*
X306475Y841325D01*
G54D10*
X224408Y675639D02*
X219075Y675639D01*
X219075Y671750D01*
X219742Y671750D01*
X221075Y672306D01*
X222408Y672306D01*
X223742Y671750D01*
X224408Y670639D01*
X224408Y668417D01*
X223742Y667306D01*
X222408Y666750D01*
X221075Y666750D01*
X219742Y667306D01*
X219075Y668417D01*
G54D10*
X226852Y671750D02*
X229519Y666750D01*
X232185Y671750D01*
G54D10*
X189992Y671194D02*
X192658Y671194D01*
X192658Y668417D01*
X191992Y667306D01*
X190658Y666750D01*
X189325Y666750D01*
X187992Y667306D01*
X187325Y668417D01*
X187325Y673972D01*
X187992Y675083D01*
X189325Y675639D01*
X190658Y675639D01*
X191992Y675083D01*
X192658Y673972D01*
G54D10*
X195102Y666750D02*
X195102Y675639D01*
X200435Y666750D01*
X200435Y675639D01*
G54D10*
X202879Y666750D02*
X202879Y675639D01*
X206212Y675639D01*
X207546Y675083D01*
X208212Y673972D01*
X208212Y668417D01*
X207546Y667306D01*
X206212Y666750D01*
X202879Y666750D01*
G54D10*
X164464Y930275D02*
X155575Y926942D01*
X164464Y923608D01*
G54D10*
X160020Y991108D02*
X160020Y988442D01*
X157242Y988442D01*
X156130Y989108D01*
X155575Y990442D01*
X155575Y991775D01*
X156130Y993108D01*
X157242Y993775D01*
X162797Y993775D01*
X163908Y993108D01*
X164464Y991775D01*
X164464Y990442D01*
X163908Y989108D01*
X162797Y988442D01*
G54D11*
X85725Y533400D02*
X146050Y533400D01*
G54D11*
X85725Y609600D02*
X146050Y609600D01*
X146050Y533400D01*
G54D11*
X85725Y533400D02*
X85725Y609600D01*
G54D11*
X85725Y558800D02*
X92075Y558800D01*
X92075Y584200D01*
X85725Y584200D01*
G54D10*
X153114Y590550D02*
X153114Y585217D01*
G54D10*
X158114Y577440D02*
X158114Y582773D01*
X154225Y582773D01*
X154225Y582106D01*
X154780Y580773D01*
X154780Y579440D01*
X154225Y578106D01*
X153114Y577440D01*
X150892Y577440D01*
X149780Y578106D01*
X149225Y579440D01*
X149225Y580773D01*
X149780Y582106D01*
X150892Y582773D01*
G54D10*
X158114Y574996D02*
X149225Y571663D01*
X158114Y568329D01*
G54D10*
X153114Y565885D02*
X153114Y560552D01*
G54D10*
X155336Y563218D02*
X150892Y563218D01*
G54D11*
X234435Y544911D02*
X317779Y544911D01*
X317779Y628255D01*
X234435Y628255D01*
X234435Y544911D01*
G54D11*
G75*
G01X236107Y586583D02*
G03X236107Y586583I40000J0D01*
G01*
G54D10*
X256263Y568010D02*
X250930Y568010D01*
G54D10*
X253882Y606903D02*
X248549Y606903D01*
G54D10*
X251215Y604681D02*
X251215Y609125D01*
G54D12*
X190525Y614475D02*
X190525Y636475D01*
X228525Y636475D01*
X228525Y614475D01*
X190525Y614475D01*
G54D11*
X47030Y887611D02*
X3770Y887611D01*
X3770Y930870D01*
X47030Y930870D01*
X47030Y887611D01*
G54D11*
G75*
G01X5430Y909458D02*
G03X5430Y909458I20000J0D01*
G01*
G54D10*
X18455Y899597D02*
X13121Y899597D01*
G54D10*
X15788Y897375D02*
X15788Y901819D01*
G54D10*
X18058Y919838D02*
X12724Y919838D01*
G54D11*
X263525Y666750D02*
X314325Y666750D01*
X314325Y641350D01*
X263525Y641350D01*
X263525Y666750D01*
G54D10*
X294767Y671194D02*
X297433Y671194D01*
X297433Y668417D01*
X296767Y667306D01*
X295433Y666750D01*
X294100Y666750D01*
X292767Y667306D01*
X292100Y668417D01*
X292100Y673972D01*
X292767Y675083D01*
X294100Y675639D01*
X295433Y675639D01*
X296767Y675083D01*
X297433Y673972D01*
G54D10*
X299877Y666750D02*
X299877Y675639D01*
X305210Y666750D01*
X305210Y675639D01*
G54D10*
X307654Y666750D02*
X307654Y675639D01*
X310987Y675639D01*
X312321Y675083D01*
X312987Y673972D01*
X312987Y668417D01*
X312321Y667306D01*
X310987Y666750D01*
X307654Y666750D01*
G54D10*
X272033Y675639D02*
X266700Y675639D01*
X266700Y671750D01*
X267367Y671750D01*
X268700Y672306D01*
X270033Y672306D01*
X271367Y671750D01*
X272033Y670639D01*
X272033Y668417D01*
X271367Y667306D01*
X270033Y666750D01*
X268700Y666750D01*
X267367Y667306D01*
X266700Y668417D01*
G54D10*
X274477Y671750D02*
X277144Y666750D01*
X279810Y671750D01*
G54D10*
X408603Y852167D02*
X408603Y846834D01*
G54D10*
X404714Y839057D02*
X404714Y844390D01*
X405269Y844390D01*
X406380Y843724D01*
X409714Y839724D01*
X410825Y839057D01*
X411936Y839057D01*
X413047Y839724D01*
X413603Y841057D01*
X413603Y842390D01*
X413047Y843724D01*
X411936Y844390D01*
G54D10*
X404714Y832613D02*
X413603Y832613D01*
X408047Y836613D01*
X406936Y836613D01*
X406936Y831280D01*
G54D10*
X413603Y828836D02*
X404714Y825503D01*
X413603Y822170D01*
G54D10*
X408603Y819725D02*
X408603Y814392D01*
G54D10*
X410825Y817059D02*
X406380Y817059D01*
G54D10*
X407114Y685800D02*
X407114Y680467D01*
G54D10*
X408780Y678023D02*
X412114Y674690D01*
X403225Y674690D01*
G54D10*
X403225Y666913D02*
X403225Y672246D01*
X403780Y672246D01*
X404892Y671579D01*
X408225Y667579D01*
X409336Y666913D01*
X410447Y666913D01*
X411558Y667579D01*
X412114Y668913D01*
X412114Y670246D01*
X411558Y671579D01*
X410447Y672246D01*
G54D10*
X412114Y664469D02*
X403225Y661136D01*
X412114Y657802D01*
G54D10*
X407114Y655358D02*
X407114Y650025D01*
G54D10*
X409336Y652691D02*
X404892Y652691D01*
G54D10*
X406219Y591497D02*
X406219Y586164D01*
G54D10*
X407885Y583720D02*
X411219Y580387D01*
X402330Y580387D01*
G54D10*
X402330Y572610D02*
X402330Y577943D01*
X402885Y577943D01*
X403996Y577277D01*
X407330Y573277D01*
X408441Y572610D01*
X409552Y572610D01*
X410663Y573277D01*
X411219Y574610D01*
X411219Y575943D01*
X410663Y577277D01*
X409552Y577943D01*
G54D10*
X411219Y570166D02*
X402330Y566833D01*
X411219Y563500D01*
G54D10*
X406219Y561055D02*
X406219Y555722D01*
G54D10*
X408441Y558389D02*
X403996Y558389D01*
G54D11*
X479425Y933450D02*
X479425Y984250D01*
X377825Y984250D01*
X377825Y933450D01*
G54D11*
X479425Y933450D02*
X479425Y895350D01*
X377825Y895350D01*
X377825Y933450D01*
G54D11*
X466725Y984250D02*
X466725Y971550D01*
X441325Y971550D01*
X441325Y984250D01*
G54D11*
X415925Y984250D02*
X415925Y971550D01*
X390525Y971550D01*
X390525Y984250D01*
G54D11*
X339725Y800100D02*
X400050Y800100D01*
G54D11*
X339725Y876300D02*
X400050Y876300D01*
X400050Y800100D01*
G54D11*
X339725Y800100D02*
X339725Y876300D01*
G54D11*
X339725Y825500D02*
X346075Y825500D01*
X346075Y850900D01*
X339725Y850900D01*
G54D11*
X339725Y711200D02*
X400050Y711200D01*
G54D11*
X339725Y787400D02*
X400050Y787400D01*
X400050Y711200D01*
G54D11*
X339725Y711200D02*
X339725Y787400D01*
G54D11*
X339725Y736600D02*
X346075Y736600D01*
X346075Y762000D01*
X339725Y762000D01*
G54D11*
X339725Y622300D02*
X400050Y622300D01*
G54D11*
X339725Y698500D02*
X400050Y698500D01*
X400050Y622300D01*
G54D11*
X339725Y622300D02*
X339725Y698500D01*
G54D11*
X339725Y647700D02*
X346075Y647700D01*
X346075Y673100D01*
X339725Y673100D01*
G54D11*
X519112Y844550D02*
X414338Y844550D01*
X414338Y679450D01*
X519112Y679450D01*
X519112Y844550D01*
G54D11*
X504825Y844550D02*
X504825Y819150D01*
X428625Y819150D01*
X428625Y844550D01*
G54D10*
X486792Y792878D02*
X486792Y798433D01*
X487458Y799544D01*
X488792Y800100D01*
X490125Y800100D01*
X491458Y799544D01*
X492125Y798433D01*
X492125Y792878D01*
X491458Y791767D01*
X490125Y791211D01*
X488792Y791211D01*
X487458Y791767D01*
X486792Y792878D01*
G54D10*
X484348Y800100D02*
X484348Y791211D01*
G54D10*
X484348Y797322D02*
X479015Y791211D01*
G54D10*
X482348Y795656D02*
X479015Y800100D01*
G54D10*
X476571Y800100D02*
X476571Y791211D01*
G54D10*
X474127Y796211D02*
X468794Y796211D01*
G54D10*
X466350Y791211D02*
X461017Y791211D01*
X461683Y792322D01*
X463017Y793989D01*
X464350Y796211D01*
X465017Y797878D01*
X465017Y800100D01*
G54D10*
X455240Y795656D02*
X456573Y795656D01*
X457906Y795100D01*
X458573Y793989D01*
X458573Y792878D01*
X457906Y791767D01*
X456573Y791211D01*
X455240Y791211D01*
X453906Y791767D01*
X453240Y792878D01*
X453240Y793989D01*
X453906Y795100D01*
X455240Y795656D01*
X453906Y796211D01*
X453240Y797322D01*
X453240Y798433D01*
X453906Y799544D01*
X455240Y800100D01*
X456573Y800100D01*
X457906Y799544D01*
X458573Y798433D01*
X458573Y797322D01*
X457906Y796211D01*
X456573Y795656D01*
G54D10*
X450796Y798433D02*
X450129Y799544D01*
X448796Y800100D01*
X447463Y800100D01*
X446129Y799544D01*
X445463Y798433D01*
X445463Y797322D01*
X446129Y796211D01*
X447463Y795656D01*
X448796Y795656D01*
X450129Y795100D01*
X450796Y793989D01*
X450796Y792878D01*
X450129Y791767D01*
X448796Y791211D01*
X447463Y791211D01*
X446129Y791767D01*
X445463Y792878D01*
G54D10*
X440352Y795656D02*
X438352Y796767D01*
X437686Y797878D01*
X437686Y800100D01*
G54D10*
X443019Y800100D02*
X443019Y791211D01*
X439686Y791211D01*
X438352Y791767D01*
X437686Y792878D01*
X437686Y793989D01*
X438352Y795100D01*
X439686Y795656D01*
X443019Y795656D01*
G54D10*
X487188Y805578D02*
X487188Y811133D01*
X487855Y812244D01*
X489188Y812800D01*
X490522Y812800D01*
X491855Y812244D01*
X492522Y811133D01*
X492522Y805578D01*
X491855Y804467D01*
X490522Y803911D01*
X489188Y803911D01*
X487855Y804467D01*
X487188Y805578D01*
G54D10*
X464058Y808356D02*
X461392Y808356D01*
X461392Y811133D01*
X462058Y812244D01*
X463392Y812800D01*
X464725Y812800D01*
X466058Y812244D01*
X466725Y811133D01*
X466725Y805578D01*
X466058Y804467D01*
X464725Y803911D01*
X463392Y803911D01*
X462058Y804467D01*
X461392Y805578D01*
G54D10*
X441325Y812800D02*
X441325Y803911D01*
G54D11*
X633412Y844550D02*
X528638Y844550D01*
X528638Y679450D01*
X633412Y679450D01*
X633412Y844550D01*
G54D11*
X619125Y844550D02*
X619125Y819150D01*
X542925Y819150D01*
X542925Y844550D01*
G54D10*
X601092Y792878D02*
X601092Y798433D01*
X601758Y799544D01*
X603092Y800100D01*
X604425Y800100D01*
X605758Y799544D01*
X606425Y798433D01*
X606425Y792878D01*
X605758Y791767D01*
X604425Y791211D01*
X603092Y791211D01*
X601758Y791767D01*
X601092Y792878D01*
G54D10*
X598648Y800100D02*
X598648Y791211D01*
G54D10*
X598648Y797322D02*
X593315Y791211D01*
G54D10*
X596648Y795656D02*
X593315Y800100D01*
G54D10*
X590871Y800100D02*
X590871Y791211D01*
G54D10*
X588427Y796211D02*
X583094Y796211D01*
G54D10*
X580650Y791211D02*
X575317Y791211D01*
X575983Y792322D01*
X577317Y793989D01*
X578650Y796211D01*
X579317Y797878D01*
X579317Y800100D01*
G54D10*
X569540Y795656D02*
X570873Y795656D01*
X572206Y795100D01*
X572873Y793989D01*
X572873Y792878D01*
X572206Y791767D01*
X570873Y791211D01*
X569540Y791211D01*
X568206Y791767D01*
X567540Y792878D01*
X567540Y793989D01*
X568206Y795100D01*
X569540Y795656D01*
X568206Y796211D01*
X567540Y797322D01*
X567540Y798433D01*
X568206Y799544D01*
X569540Y800100D01*
X570873Y800100D01*
X572206Y799544D01*
X572873Y798433D01*
X572873Y797322D01*
X572206Y796211D01*
X570873Y795656D01*
G54D10*
X565096Y798433D02*
X564429Y799544D01*
X563096Y800100D01*
X561763Y800100D01*
X560429Y799544D01*
X559763Y798433D01*
X559763Y797322D01*
X560429Y796211D01*
X561763Y795656D01*
X563096Y795656D01*
X564429Y795100D01*
X565096Y793989D01*
X565096Y792878D01*
X564429Y791767D01*
X563096Y791211D01*
X561763Y791211D01*
X560429Y791767D01*
X559763Y792878D01*
G54D10*
X554652Y795656D02*
X552652Y796767D01*
X551986Y797878D01*
X551986Y800100D01*
G54D10*
X557319Y800100D02*
X557319Y791211D01*
X553986Y791211D01*
X552652Y791767D01*
X551986Y792878D01*
X551986Y793989D01*
X552652Y795100D01*
X553986Y795656D01*
X557319Y795656D01*
G54D10*
X601488Y805578D02*
X601488Y811133D01*
X602155Y812244D01*
X603488Y812800D01*
X604822Y812800D01*
X606155Y812244D01*
X606822Y811133D01*
X606822Y805578D01*
X606155Y804467D01*
X604822Y803911D01*
X603488Y803911D01*
X602155Y804467D01*
X601488Y805578D01*
G54D10*
X578358Y808356D02*
X575692Y808356D01*
X575692Y811133D01*
X576358Y812244D01*
X577692Y812800D01*
X579025Y812800D01*
X580358Y812244D01*
X581025Y811133D01*
X581025Y805578D01*
X580358Y804467D01*
X579025Y803911D01*
X577692Y803911D01*
X576358Y804467D01*
X575692Y805578D01*
G54D10*
X555625Y812800D02*
X555625Y803911D01*
G54D11*
X405209Y889794D02*
X478234Y889794D01*
X478234Y856456D01*
X405209Y856456D01*
X405209Y889794D01*
G54D11*
X637183Y865981D02*
X637183Y853480D01*
X505619Y853480D01*
X505619Y865981D01*
G54D11*
X637183Y915194D02*
X637183Y993378D01*
X505619Y993378D01*
X505619Y915194D01*
G54D10*
X602299Y878681D02*
X611188Y882014D01*
X602299Y885348D01*
G54D10*
X609521Y893126D02*
X610632Y892459D01*
X611188Y891126D01*
X611188Y889792D01*
X610632Y888459D01*
X609521Y887792D01*
X603965Y887792D01*
X602854Y888459D01*
X602299Y889792D01*
X602299Y891126D01*
X602854Y892459D01*
X603965Y893126D01*
G54D10*
X609521Y900903D02*
X610632Y900236D01*
X611188Y898903D01*
X611188Y897569D01*
X610632Y896236D01*
X609521Y895569D01*
X603965Y895569D01*
X602854Y896236D01*
X602299Y897569D01*
X602299Y898903D01*
X602854Y900236D01*
X603965Y900903D01*
G54D10*
X585788Y878681D02*
X576899Y878681D01*
X576899Y882014D01*
X577454Y883348D01*
X578565Y884015D01*
X584121Y884015D01*
X585232Y883348D01*
X585788Y882015D01*
X585788Y878681D01*
G54D10*
X581899Y886458D02*
X581899Y891792D01*
G54D10*
X566738Y878681D02*
X557849Y878681D01*
X557849Y882014D01*
X558404Y883348D01*
X559515Y884015D01*
X565071Y884015D01*
X566182Y883348D01*
X566738Y882014D01*
X566738Y878681D01*
G54D10*
X562849Y886458D02*
X562849Y891792D01*
G54D10*
X560626Y889125D02*
X565071Y889125D01*
G54D10*
X536893Y881348D02*
X536893Y884015D01*
X539671Y884015D01*
X540782Y883348D01*
X541338Y882015D01*
X541338Y880681D01*
X540782Y879348D01*
X539671Y878681D01*
X534115Y878681D01*
X533004Y879348D01*
X532449Y880681D01*
X532449Y882014D01*
X533004Y883348D01*
X534115Y884015D01*
G54D10*
X541338Y886458D02*
X532449Y886458D01*
X541338Y891792D01*
X532449Y891792D01*
G54D10*
X541338Y894235D02*
X532449Y894235D01*
X532449Y897569D01*
X533004Y898902D01*
X534115Y899569D01*
X539671Y899569D01*
X540782Y898902D01*
X541338Y897569D01*
X541338Y894235D01*
G54D11*
X479425Y984250D02*
X504825Y984250D01*
X504825Y933450D01*
X479425Y933450D01*
X479425Y984250D01*
G54D10*
X559514Y577850D02*
X559514Y572517D01*
G54D10*
X564514Y564740D02*
X564514Y570073D01*
X560625Y570073D01*
X560625Y569406D01*
X561180Y568073D01*
X561180Y566740D01*
X560625Y565406D01*
X559514Y564740D01*
X557292Y564740D01*
X556180Y565406D01*
X555625Y566740D01*
X555625Y568073D01*
X556180Y569406D01*
X557292Y570073D01*
G54D10*
X564514Y562296D02*
X555625Y558963D01*
X564514Y555629D01*
G54D10*
X559514Y553185D02*
X559514Y547852D01*
G54D10*
X561736Y550518D02*
X557292Y550518D01*
G54D11*
X492125Y533400D02*
X552450Y533400D01*
G54D11*
X492125Y609600D02*
X552450Y609600D01*
X552450Y533400D01*
G54D11*
X492125Y533400D02*
X492125Y609600D01*
G54D11*
X492125Y558800D02*
X498475Y558800D01*
X498475Y584200D01*
X492125Y584200D01*
G54D11*
X339725Y533400D02*
X400050Y533400D01*
G54D11*
X339725Y609600D02*
X400050Y609600D01*
X400050Y533400D01*
G54D11*
X339725Y533400D02*
X339725Y609600D01*
G54D11*
X339725Y558800D02*
X346075Y558800D01*
X346075Y584200D01*
X339725Y584200D01*
G54D10*
X408603Y775967D02*
X408603Y770634D01*
G54D10*
X404714Y762857D02*
X404714Y768190D01*
X405269Y768190D01*
X406380Y767524D01*
X409714Y763524D01*
X410825Y762857D01*
X411936Y762857D01*
X413047Y763524D01*
X413603Y764857D01*
X413603Y766190D01*
X413047Y767524D01*
X411936Y768190D01*
G54D10*
X404714Y756413D02*
X413603Y756413D01*
X408047Y760413D01*
X406936Y760413D01*
X406936Y755080D01*
G54D10*
X413603Y752636D02*
X404714Y749303D01*
X413603Y745970D01*
G54D10*
X408603Y743525D02*
X408603Y738192D01*
G54D10*
X410825Y740859D02*
X406380Y740859D01*
G54D12*
X336575Y941500D02*
X336575Y963500D01*
X374575Y963500D01*
X374575Y941500D01*
X336575Y941500D01*
G54D12*
X336575Y966900D02*
X336575Y988900D01*
X374575Y988900D01*
X374575Y966900D01*
X336575Y966900D01*
G54D12*
X463575Y646225D02*
X463575Y668225D01*
X501575Y668225D01*
X501575Y646225D01*
X463575Y646225D01*
G54D12*
X463575Y620825D02*
X463575Y642825D01*
X501575Y642825D01*
X501575Y620825D01*
X463575Y620825D01*
G54D12*
X415950Y620825D02*
X415950Y642825D01*
X453950Y642825D01*
X453950Y620825D01*
X415950Y620825D01*
G54D12*
X415950Y646225D02*
X415950Y668225D01*
X453950Y668225D01*
X453950Y646225D01*
X415950Y646225D01*
G54D11*
X511175Y666750D02*
X561975Y666750D01*
X561975Y641350D01*
X511175Y641350D01*
X511175Y666750D01*
G54D12*
X636675Y841325D02*
X658675Y841325D01*
X658675Y803325D01*
X636675Y803325D01*
X636675Y841325D01*
G54D10*
X554608Y675639D02*
X549275Y675639D01*
X549275Y671750D01*
X549942Y671750D01*
X551275Y672306D01*
X552608Y672306D01*
X553942Y671750D01*
X554608Y670639D01*
X554608Y668417D01*
X553942Y667306D01*
X552608Y666750D01*
X551275Y666750D01*
X549942Y667306D01*
X549275Y668417D01*
G54D10*
X557052Y671750D02*
X559719Y666750D01*
X562385Y671750D01*
G54D10*
X520192Y671194D02*
X522858Y671194D01*
X522858Y668417D01*
X522192Y667306D01*
X520858Y666750D01*
X519525Y666750D01*
X518192Y667306D01*
X517525Y668417D01*
X517525Y673972D01*
X518192Y675083D01*
X519525Y675639D01*
X520858Y675639D01*
X522192Y675083D01*
X522858Y673972D01*
G54D10*
X525302Y666750D02*
X525302Y675639D01*
X530635Y666750D01*
X530635Y675639D01*
G54D10*
X533079Y666750D02*
X533079Y675639D01*
X536412Y675639D01*
X537746Y675083D01*
X538412Y673972D01*
X538412Y668417D01*
X537746Y667306D01*
X536412Y666750D01*
X533079Y666750D01*
G54D10*
X494664Y930275D02*
X485775Y926942D01*
X494664Y923608D01*
G54D10*
X490220Y991108D02*
X490220Y988442D01*
X487442Y988442D01*
X486330Y989108D01*
X485775Y990442D01*
X485775Y991775D01*
X486330Y993108D01*
X487442Y993775D01*
X492997Y993775D01*
X494108Y993108D01*
X494664Y991775D01*
X494664Y990442D01*
X494108Y989108D01*
X492997Y988442D01*
G54D11*
X415925Y533400D02*
X476250Y533400D01*
G54D11*
X415925Y609600D02*
X476250Y609600D01*
X476250Y533400D01*
G54D11*
X415925Y533400D02*
X415925Y609600D01*
G54D11*
X415925Y558800D02*
X422275Y558800D01*
X422275Y584200D01*
X415925Y584200D01*
G54D10*
X483314Y590550D02*
X483314Y585217D01*
G54D10*
X488314Y577440D02*
X488314Y582773D01*
X484425Y582773D01*
X484425Y582106D01*
X484980Y580773D01*
X484980Y579440D01*
X484425Y578106D01*
X483314Y577440D01*
X481092Y577440D01*
X479980Y578106D01*
X479425Y579440D01*
X479425Y580773D01*
X479980Y582106D01*
X481092Y582773D01*
G54D10*
X488314Y574996D02*
X479425Y571663D01*
X488314Y568329D01*
G54D10*
X483314Y565885D02*
X483314Y560552D01*
G54D10*
X485536Y563218D02*
X481092Y563218D01*
G54D11*
X564635Y544911D02*
X647979Y544911D01*
X647979Y628255D01*
X564635Y628255D01*
X564635Y544911D01*
G54D11*
G75*
G01X566307Y586583D02*
G03X566307Y586583I40000J0D01*
G01*
G54D10*
X586463Y568010D02*
X581130Y568010D01*
G54D10*
X584082Y606903D02*
X578749Y606903D01*
G54D10*
X581415Y604681D02*
X581415Y609126D01*
G54D12*
X520725Y614475D02*
X520725Y636475D01*
X558725Y636475D01*
X558725Y614475D01*
X520725Y614475D01*
G54D11*
X377230Y887611D02*
X333970Y887611D01*
X333970Y930870D01*
X377230Y930870D01*
X377230Y887611D01*
G54D11*
G75*
G01X335630Y909458D02*
G03X335630Y909458I20000J0D01*
G01*
G54D10*
X348655Y899597D02*
X343321Y899597D01*
G54D10*
X345988Y897375D02*
X345988Y901819D01*
G54D10*
X348258Y919838D02*
X342924Y919838D01*
G54D11*
X593725Y666750D02*
X644525Y666750D01*
X644525Y641350D01*
X593725Y641350D01*
X593725Y666750D01*
G54D10*
X624967Y671194D02*
X627633Y671194D01*
X627633Y668417D01*
X626967Y667306D01*
X625633Y666750D01*
X624300Y666750D01*
X622967Y667306D01*
X622300Y668417D01*
X622300Y673972D01*
X622967Y675083D01*
X624300Y675639D01*
X625633Y675639D01*
X626967Y675083D01*
X627633Y673972D01*
G54D10*
X630077Y666750D02*
X630077Y675639D01*
X635410Y666750D01*
X635410Y675639D01*
G54D10*
X637854Y666750D02*
X637854Y675639D01*
X641187Y675639D01*
X642521Y675083D01*
X643187Y673972D01*
X643187Y668417D01*
X642521Y667306D01*
X641187Y666750D01*
X637854Y666750D01*
G54D10*
X602233Y675639D02*
X596900Y675639D01*
X596900Y671750D01*
X597567Y671750D01*
X598900Y672306D01*
X600233Y672306D01*
X601567Y671750D01*
X602233Y670639D01*
X602233Y668417D01*
X601567Y667306D01*
X600233Y666750D01*
X598900Y666750D01*
X597567Y667306D01*
X596900Y668417D01*
G54D10*
X604677Y671750D02*
X607344Y666750D01*
X610010Y671750D01*
G54D10*
X738803Y852167D02*
X738803Y846834D01*
G54D10*
X734914Y839057D02*
X734914Y844390D01*
X735469Y844390D01*
X736580Y843724D01*
X739914Y839724D01*
X741025Y839057D01*
X742136Y839057D01*
X743247Y839724D01*
X743803Y841057D01*
X743803Y842390D01*
X743247Y843724D01*
X742136Y844390D01*
G54D10*
X734914Y832613D02*
X743803Y832613D01*
X738247Y836613D01*
X737136Y836613D01*
X737136Y831280D01*
G54D10*
X743803Y828836D02*
X734914Y825503D01*
X743803Y822170D01*
G54D10*
X738803Y819725D02*
X738803Y814392D01*
G54D10*
X741025Y817059D02*
X736580Y817059D01*
G54D10*
X737314Y685800D02*
X737314Y680467D01*
G54D10*
X738980Y678023D02*
X742314Y674690D01*
X733425Y674690D01*
G54D10*
X733425Y666913D02*
X733425Y672246D01*
X733980Y672246D01*
X735092Y671579D01*
X738425Y667579D01*
X739536Y666913D01*
X740647Y666913D01*
X741758Y667579D01*
X742314Y668913D01*
X742314Y670246D01*
X741758Y671579D01*
X740647Y672246D01*
G54D10*
X742314Y664469D02*
X733425Y661136D01*
X742314Y657802D01*
G54D10*
X737314Y655358D02*
X737314Y650025D01*
G54D10*
X739536Y652691D02*
X735092Y652691D01*
G54D10*
X736419Y591497D02*
X736419Y586164D01*
G54D10*
X738085Y583720D02*
X741419Y580387D01*
X732530Y580387D01*
G54D10*
X732530Y572610D02*
X732530Y577943D01*
X733085Y577943D01*
X734196Y577277D01*
X737530Y573277D01*
X738641Y572610D01*
X739752Y572610D01*
X740863Y573277D01*
X741419Y574610D01*
X741419Y575943D01*
X740863Y577277D01*
X739752Y577943D01*
G54D10*
X741419Y570166D02*
X732530Y566833D01*
X741419Y563500D01*
G54D10*
X736419Y561055D02*
X736419Y555722D01*
G54D10*
X738641Y558389D02*
X734196Y558389D01*
G54D11*
X809625Y933450D02*
X809625Y984250D01*
X708025Y984250D01*
X708025Y933450D01*
G54D11*
X809625Y933450D02*
X809625Y895350D01*
X708025Y895350D01*
X708025Y933450D01*
G54D11*
X796925Y984250D02*
X796925Y971550D01*
X771525Y971550D01*
X771525Y984250D01*
G54D11*
X746125Y984250D02*
X746125Y971550D01*
X720725Y971550D01*
X720725Y984250D01*
G54D11*
X669925Y800100D02*
X730250Y800100D01*
G54D11*
X669925Y876300D02*
X730250Y876300D01*
X730250Y800100D01*
G54D11*
X669925Y800100D02*
X669925Y876300D01*
G54D11*
X669925Y825500D02*
X676275Y825500D01*
X676275Y850900D01*
X669925Y850900D01*
G54D11*
X669925Y711200D02*
X730250Y711200D01*
G54D11*
X669925Y787400D02*
X730250Y787400D01*
X730250Y711200D01*
G54D11*
X669925Y711200D02*
X669925Y787400D01*
G54D11*
X669925Y736600D02*
X676275Y736600D01*
X676275Y762000D01*
X669925Y762000D01*
G54D11*
X669925Y622300D02*
X730250Y622300D01*
G54D11*
X669925Y698500D02*
X730250Y698500D01*
X730250Y622300D01*
G54D11*
X669925Y622300D02*
X669925Y698500D01*
G54D11*
X669925Y647700D02*
X676275Y647700D01*
X676275Y673100D01*
X669925Y673100D01*
G54D11*
X849312Y844550D02*
X744538Y844550D01*
X744538Y679450D01*
X849312Y679450D01*
X849312Y844550D01*
G54D11*
X835025Y844550D02*
X835025Y819150D01*
X758825Y819150D01*
X758825Y844550D01*
G54D10*
X816992Y792878D02*
X816992Y798433D01*
X817658Y799544D01*
X818992Y800100D01*
X820325Y800100D01*
X821658Y799544D01*
X822325Y798433D01*
X822325Y792878D01*
X821658Y791767D01*
X820325Y791211D01*
X818992Y791211D01*
X817658Y791767D01*
X816992Y792878D01*
G54D10*
X814548Y800100D02*
X814548Y791211D01*
G54D10*
X814548Y797322D02*
X809215Y791211D01*
G54D10*
X812548Y795656D02*
X809215Y800100D01*
G54D10*
X806771Y800100D02*
X806771Y791211D01*
G54D10*
X804327Y796211D02*
X798994Y796211D01*
G54D10*
X796550Y791211D02*
X791217Y791211D01*
X791883Y792322D01*
X793217Y793989D01*
X794550Y796211D01*
X795217Y797878D01*
X795217Y800100D01*
G54D10*
X785440Y795656D02*
X786773Y795656D01*
X788106Y795100D01*
X788773Y793989D01*
X788773Y792878D01*
X788106Y791767D01*
X786773Y791211D01*
X785440Y791211D01*
X784106Y791767D01*
X783440Y792878D01*
X783440Y793989D01*
X784106Y795100D01*
X785440Y795656D01*
X784106Y796211D01*
X783440Y797322D01*
X783440Y798433D01*
X784106Y799544D01*
X785440Y800100D01*
X786773Y800100D01*
X788106Y799544D01*
X788773Y798433D01*
X788773Y797322D01*
X788106Y796211D01*
X786773Y795656D01*
G54D10*
X780996Y798433D02*
X780329Y799544D01*
X778996Y800100D01*
X777663Y800100D01*
X776329Y799544D01*
X775663Y798433D01*
X775663Y797322D01*
X776329Y796211D01*
X777663Y795656D01*
X778996Y795656D01*
X780329Y795100D01*
X780996Y793989D01*
X780996Y792878D01*
X780329Y791767D01*
X778996Y791211D01*
X777663Y791211D01*
X776329Y791767D01*
X775663Y792878D01*
G54D10*
X770552Y795656D02*
X768552Y796767D01*
X767886Y797878D01*
X767886Y800100D01*
G54D10*
X773219Y800100D02*
X773219Y791211D01*
X769886Y791211D01*
X768552Y791767D01*
X767886Y792878D01*
X767886Y793989D01*
X768552Y795100D01*
X769886Y795656D01*
X773219Y795656D01*
G54D10*
X817388Y805578D02*
X817388Y811133D01*
X818055Y812244D01*
X819388Y812800D01*
X820722Y812800D01*
X822055Y812244D01*
X822722Y811133D01*
X822722Y805578D01*
X822055Y804467D01*
X820722Y803911D01*
X819388Y803911D01*
X818055Y804467D01*
X817388Y805578D01*
G54D10*
X794258Y808356D02*
X791592Y808356D01*
X791592Y811133D01*
X792258Y812244D01*
X793592Y812800D01*
X794925Y812800D01*
X796258Y812244D01*
X796925Y811133D01*
X796925Y805578D01*
X796258Y804467D01*
X794925Y803911D01*
X793592Y803911D01*
X792258Y804467D01*
X791592Y805578D01*
G54D10*
X771525Y812800D02*
X771525Y803911D01*
G54D11*
X963612Y844550D02*
X858838Y844550D01*
X858838Y679450D01*
X963612Y679450D01*
X963612Y844550D01*
G54D11*
X949325Y844550D02*
X949325Y819150D01*
X873125Y819150D01*
X873125Y844550D01*
G54D10*
X931292Y792878D02*
X931292Y798433D01*
X931958Y799544D01*
X933292Y800100D01*
X934625Y800100D01*
X935958Y799544D01*
X936625Y798433D01*
X936625Y792878D01*
X935958Y791767D01*
X934625Y791211D01*
X933292Y791211D01*
X931958Y791767D01*
X931292Y792878D01*
G54D10*
X928848Y800100D02*
X928848Y791211D01*
G54D10*
X928848Y797322D02*
X923515Y791211D01*
G54D10*
X926848Y795656D02*
X923515Y800100D01*
G54D10*
X921071Y800100D02*
X921071Y791211D01*
G54D10*
X918627Y796211D02*
X913294Y796211D01*
G54D10*
X910850Y791211D02*
X905517Y791211D01*
X906183Y792322D01*
X907517Y793989D01*
X908850Y796211D01*
X909517Y797878D01*
X909517Y800100D01*
G54D10*
X899740Y795656D02*
X901073Y795656D01*
X902406Y795100D01*
X903073Y793989D01*
X903073Y792878D01*
X902406Y791767D01*
X901073Y791211D01*
X899740Y791211D01*
X898406Y791767D01*
X897740Y792878D01*
X897740Y793989D01*
X898406Y795100D01*
X899740Y795656D01*
X898406Y796211D01*
X897740Y797322D01*
X897740Y798433D01*
X898406Y799544D01*
X899740Y800100D01*
X901073Y800100D01*
X902406Y799544D01*
X903073Y798433D01*
X903073Y797322D01*
X902406Y796211D01*
X901073Y795656D01*
G54D10*
X895296Y798433D02*
X894629Y799544D01*
X893296Y800100D01*
X891963Y800100D01*
X890629Y799544D01*
X889963Y798433D01*
X889963Y797322D01*
X890629Y796211D01*
X891963Y795656D01*
X893296Y795656D01*
X894629Y795100D01*
X895296Y793989D01*
X895296Y792878D01*
X894629Y791767D01*
X893296Y791211D01*
X891963Y791211D01*
X890629Y791767D01*
X889963Y792878D01*
G54D10*
X884852Y795656D02*
X882852Y796767D01*
X882186Y797878D01*
X882186Y800100D01*
G54D10*
X887519Y800100D02*
X887519Y791211D01*
X884186Y791211D01*
X882852Y791767D01*
X882186Y792878D01*
X882186Y793989D01*
X882852Y795100D01*
X884186Y795656D01*
X887519Y795656D01*
G54D10*
X931688Y805578D02*
X931688Y811133D01*
X932355Y812244D01*
X933688Y812800D01*
X935022Y812800D01*
X936355Y812244D01*
X937022Y811133D01*
X937022Y805578D01*
X936355Y804467D01*
X935022Y803911D01*
X933688Y803911D01*
X932355Y804467D01*
X931688Y805578D01*
G54D10*
X908558Y808356D02*
X905892Y808356D01*
X905892Y811133D01*
X906558Y812244D01*
X907892Y812800D01*
X909225Y812800D01*
X910558Y812244D01*
X911225Y811133D01*
X911225Y805578D01*
X910558Y804467D01*
X909225Y803911D01*
X907892Y803911D01*
X906558Y804467D01*
X905892Y805578D01*
G54D10*
X885825Y812800D02*
X885825Y803911D01*
G54D11*
X735409Y889794D02*
X808434Y889794D01*
X808434Y856456D01*
X735409Y856456D01*
X735409Y889794D01*
G54D11*
X967383Y865981D02*
X967383Y853480D01*
X835819Y853480D01*
X835819Y865981D01*
G54D11*
X967383Y915194D02*
X967383Y993378D01*
X835819Y993378D01*
X835819Y915194D01*
G54D10*
X932499Y878681D02*
X941388Y882014D01*
X932499Y885348D01*
G54D10*
X939721Y893126D02*
X940832Y892459D01*
X941388Y891126D01*
X941388Y889792D01*
X940832Y888459D01*
X939721Y887792D01*
X934165Y887792D01*
X933054Y888459D01*
X932499Y889792D01*
X932499Y891126D01*
X933054Y892459D01*
X934165Y893126D01*
G54D10*
X939721Y900903D02*
X940832Y900236D01*
X941388Y898903D01*
X941388Y897569D01*
X940832Y896236D01*
X939721Y895569D01*
X934165Y895569D01*
X933054Y896236D01*
X932499Y897569D01*
X932499Y898903D01*
X933054Y900236D01*
X934165Y900903D01*
G54D10*
X915988Y878681D02*
X907099Y878681D01*
X907099Y882014D01*
X907654Y883348D01*
X908765Y884015D01*
X914321Y884015D01*
X915432Y883348D01*
X915988Y882015D01*
X915988Y878681D01*
G54D10*
X912099Y886458D02*
X912099Y891792D01*
G54D10*
X896938Y878681D02*
X888049Y878681D01*
X888049Y882014D01*
X888604Y883348D01*
X889715Y884015D01*
X895271Y884015D01*
X896382Y883348D01*
X896938Y882014D01*
X896938Y878681D01*
G54D10*
X893049Y886458D02*
X893049Y891792D01*
G54D10*
X890826Y889125D02*
X895271Y889125D01*
G54D10*
X867093Y881348D02*
X867093Y884015D01*
X869871Y884015D01*
X870982Y883348D01*
X871538Y882015D01*
X871538Y880681D01*
X870982Y879348D01*
X869871Y878681D01*
X864315Y878681D01*
X863204Y879348D01*
X862649Y880681D01*
X862649Y882014D01*
X863204Y883348D01*
X864315Y884015D01*
G54D10*
X871538Y886458D02*
X862649Y886458D01*
X871538Y891792D01*
X862649Y891792D01*
G54D10*
X871538Y894235D02*
X862649Y894235D01*
X862649Y897569D01*
X863204Y898902D01*
X864315Y899569D01*
X869871Y899569D01*
X870982Y898902D01*
X871538Y897569D01*
X871538Y894235D01*
G54D11*
X809625Y984250D02*
X835025Y984250D01*
X835025Y933450D01*
X809625Y933450D01*
X809625Y984250D01*
G54D10*
X889714Y577850D02*
X889714Y572517D01*
G54D10*
X894714Y564740D02*
X894714Y570073D01*
X890825Y570073D01*
X890825Y569406D01*
X891380Y568073D01*
X891380Y566740D01*
X890825Y565406D01*
X889714Y564740D01*
X887492Y564740D01*
X886380Y565406D01*
X885825Y566740D01*
X885825Y568073D01*
X886380Y569406D01*
X887492Y570073D01*
G54D10*
X894714Y562296D02*
X885825Y558963D01*
X894714Y555629D01*
G54D10*
X889714Y553185D02*
X889714Y547852D01*
G54D10*
X891936Y550518D02*
X887492Y550518D01*
G54D11*
X822325Y533400D02*
X882650Y533400D01*
G54D11*
X822325Y609600D02*
X882650Y609600D01*
X882650Y533400D01*
G54D11*
X822325Y533400D02*
X822325Y609600D01*
G54D11*
X822325Y558800D02*
X828675Y558800D01*
X828675Y584200D01*
X822325Y584200D01*
G54D11*
X669925Y533400D02*
X730250Y533400D01*
G54D11*
X669925Y609600D02*
X730250Y609600D01*
X730250Y533400D01*
G54D11*
X669925Y533400D02*
X669925Y609600D01*
G54D11*
X669925Y558800D02*
X676275Y558800D01*
X676275Y584200D01*
X669925Y584200D01*
G54D10*
X738803Y775967D02*
X738803Y770634D01*
G54D10*
X734914Y762857D02*
X734914Y768190D01*
X735469Y768190D01*
X736580Y767524D01*
X739914Y763524D01*
X741025Y762857D01*
X742136Y762857D01*
X743247Y763524D01*
X743803Y764857D01*
X743803Y766190D01*
X743247Y767524D01*
X742136Y768190D01*
G54D10*
X734914Y756413D02*
X743803Y756413D01*
X738247Y760413D01*
X737136Y760413D01*
X737136Y755080D01*
G54D10*
X743803Y752636D02*
X734914Y749303D01*
X743803Y745970D01*
G54D10*
X738803Y743525D02*
X738803Y738192D01*
G54D10*
X741025Y740858D02*
X736580Y740858D01*
G54D12*
X666775Y941500D02*
X666775Y963500D01*
X704775Y963500D01*
X704775Y941500D01*
X666775Y941500D01*
G54D12*
X666775Y966900D02*
X666775Y988900D01*
X704775Y988900D01*
X704775Y966900D01*
X666775Y966900D01*
G54D12*
X793775Y646225D02*
X793775Y668225D01*
X831775Y668225D01*
X831775Y646225D01*
X793775Y646225D01*
G54D12*
X793775Y620825D02*
X793775Y642825D01*
X831775Y642825D01*
X831775Y620825D01*
X793775Y620825D01*
G54D12*
X746150Y620825D02*
X746150Y642825D01*
X784150Y642825D01*
X784150Y620825D01*
X746150Y620825D01*
G54D12*
X746150Y646225D02*
X746150Y668225D01*
X784150Y668225D01*
X784150Y646225D01*
X746150Y646225D01*
G54D11*
X841375Y666750D02*
X892175Y666750D01*
X892175Y641350D01*
X841375Y641350D01*
X841375Y666750D01*
G54D12*
X966875Y841325D02*
X988875Y841325D01*
X988875Y803325D01*
X966875Y803325D01*
X966875Y841325D01*
G54D10*
X884808Y675639D02*
X879475Y675639D01*
X879475Y671750D01*
X880142Y671750D01*
X881475Y672306D01*
X882808Y672306D01*
X884142Y671750D01*
X884808Y670639D01*
X884808Y668417D01*
X884142Y667306D01*
X882808Y666750D01*
X881475Y666750D01*
X880142Y667306D01*
X879475Y668417D01*
G54D10*
X887252Y671750D02*
X889919Y666750D01*
X892585Y671750D01*
G54D10*
X850392Y671194D02*
X853058Y671194D01*
X853058Y668417D01*
X852392Y667306D01*
X851058Y666750D01*
X849725Y666750D01*
X848392Y667306D01*
X847725Y668417D01*
X847725Y673972D01*
X848392Y675083D01*
X849725Y675639D01*
X851058Y675639D01*
X852392Y675083D01*
X853058Y673972D01*
G54D10*
X855502Y666750D02*
X855502Y675639D01*
X860835Y666750D01*
X860835Y675639D01*
G54D10*
X863279Y666750D02*
X863279Y675639D01*
X866612Y675639D01*
X867946Y675083D01*
X868612Y673972D01*
X868612Y668417D01*
X867946Y667306D01*
X866612Y666750D01*
X863279Y666750D01*
G54D10*
X824864Y930275D02*
X815975Y926942D01*
X824864Y923608D01*
G54D10*
X820420Y991108D02*
X820420Y988442D01*
X817642Y988442D01*
X816530Y989108D01*
X815975Y990442D01*
X815975Y991775D01*
X816530Y993108D01*
X817642Y993775D01*
X823197Y993775D01*
X824308Y993108D01*
X824864Y991775D01*
X824864Y990442D01*
X824308Y989108D01*
X823197Y988442D01*
G54D11*
X746125Y533400D02*
X806450Y533400D01*
G54D11*
X746125Y609600D02*
X806450Y609600D01*
X806450Y533400D01*
G54D11*
X746125Y533400D02*
X746125Y609600D01*
G54D11*
X746125Y558800D02*
X752475Y558800D01*
X752475Y584200D01*
X746125Y584200D01*
G54D10*
X813514Y590550D02*
X813514Y585217D01*
G54D10*
X818514Y577440D02*
X818514Y582773D01*
X814625Y582773D01*
X814625Y582106D01*
X815180Y580773D01*
X815180Y579440D01*
X814625Y578106D01*
X813514Y577440D01*
X811292Y577440D01*
X810180Y578106D01*
X809625Y579440D01*
X809625Y580773D01*
X810180Y582106D01*
X811292Y582773D01*
G54D10*
X818514Y574996D02*
X809625Y571663D01*
X818514Y568329D01*
G54D10*
X813514Y565885D02*
X813514Y560552D01*
G54D10*
X815736Y563218D02*
X811292Y563218D01*
G54D11*
X894835Y544911D02*
X978179Y544911D01*
X978179Y628255D01*
X894835Y628255D01*
X894835Y544911D01*
G54D11*
G75*
G01X896507Y586583D02*
G03X896507Y586583I40000J0D01*
G01*
G54D10*
X916663Y568010D02*
X911330Y568010D01*
G54D10*
X914282Y606903D02*
X908949Y606903D01*
G54D10*
X911615Y604681D02*
X911615Y609126D01*
G54D12*
X850925Y614475D02*
X850925Y636475D01*
X888925Y636475D01*
X888925Y614475D01*
X850925Y614475D01*
G54D11*
X707430Y887611D02*
X664170Y887611D01*
X664170Y930870D01*
X707430Y930870D01*
X707430Y887611D01*
G54D11*
G75*
G01X665830Y909458D02*
G03X665830Y909458I20000J0D01*
G01*
G54D10*
X678855Y899597D02*
X673521Y899597D01*
G54D10*
X676188Y897375D02*
X676188Y901819D01*
G54D10*
X678458Y919838D02*
X673124Y919838D01*
G54D11*
X923925Y666750D02*
X974725Y666750D01*
X974725Y641350D01*
X923925Y641350D01*
X923925Y666750D01*
G54D10*
X955167Y671194D02*
X957833Y671194D01*
X957833Y668417D01*
X957167Y667306D01*
X955833Y666750D01*
X954500Y666750D01*
X953167Y667306D01*
X952500Y668417D01*
X952500Y673972D01*
X953167Y675083D01*
X954500Y675639D01*
X955833Y675639D01*
X957167Y675083D01*
X957833Y673972D01*
G54D10*
X960277Y666750D02*
X960277Y675639D01*
X965610Y666750D01*
X965610Y675639D01*
G54D10*
X968054Y666750D02*
X968054Y675639D01*
X971387Y675639D01*
X972721Y675083D01*
X973387Y673972D01*
X973387Y668417D01*
X972721Y667306D01*
X971387Y666750D01*
X968054Y666750D01*
G54D10*
X932433Y675639D02*
X927100Y675639D01*
X927100Y671750D01*
X927767Y671750D01*
X929100Y672306D01*
X930433Y672306D01*
X931767Y671750D01*
X932433Y670639D01*
X932433Y668417D01*
X931767Y667306D01*
X930433Y666750D01*
X929100Y666750D01*
X927767Y667306D01*
X927100Y668417D01*
G54D10*
X934877Y671750D02*
X937544Y666750D01*
X940210Y671750D01*
G54D10*
X78403Y382267D02*
X78403Y376934D01*
G54D10*
X74514Y369157D02*
X74514Y374490D01*
X75069Y374490D01*
X76180Y373824D01*
X79514Y369824D01*
X80625Y369157D01*
X81736Y369157D01*
X82847Y369824D01*
X83403Y371157D01*
X83403Y372490D01*
X82847Y373824D01*
X81736Y374490D01*
G54D10*
X74514Y362713D02*
X83403Y362713D01*
X77847Y366713D01*
X76736Y366713D01*
X76736Y361380D01*
G54D10*
X83403Y358936D02*
X74514Y355603D01*
X83403Y352270D01*
G54D10*
X78403Y349825D02*
X78403Y344492D01*
G54D10*
X80625Y347158D02*
X76180Y347158D01*
G54D10*
X76914Y215900D02*
X76914Y210567D01*
G54D10*
X78580Y208123D02*
X81914Y204790D01*
X73025Y204790D01*
G54D10*
X73025Y197013D02*
X73025Y202346D01*
X73580Y202346D01*
X74692Y201679D01*
X78025Y197679D01*
X79136Y197013D01*
X80247Y197013D01*
X81358Y197679D01*
X81914Y199013D01*
X81914Y200346D01*
X81358Y201679D01*
X80247Y202346D01*
G54D10*
X81914Y194569D02*
X73025Y191236D01*
X81914Y187902D01*
G54D10*
X76914Y185458D02*
X76914Y180125D01*
G54D10*
X79136Y182791D02*
X74692Y182791D01*
G54D10*
X76019Y121597D02*
X76019Y116264D01*
G54D10*
X77685Y113820D02*
X81019Y110487D01*
X72130Y110487D01*
G54D10*
X72130Y102710D02*
X72130Y108043D01*
X72685Y108043D01*
X73796Y107377D01*
X77130Y103377D01*
X78241Y102710D01*
X79352Y102710D01*
X80463Y103377D01*
X81019Y104710D01*
X81019Y106043D01*
X80463Y107377D01*
X79352Y108043D01*
G54D10*
X81019Y100266D02*
X72130Y96933D01*
X81019Y93600D01*
G54D10*
X76019Y91155D02*
X76019Y85822D01*
G54D10*
X78241Y88489D02*
X73796Y88489D01*
G54D11*
X149225Y463550D02*
X149225Y514350D01*
X47625Y514350D01*
X47625Y463550D01*
G54D11*
X149225Y463550D02*
X149225Y425450D01*
X47625Y425450D01*
X47625Y463550D01*
G54D11*
X136525Y514350D02*
X136525Y501650D01*
X111125Y501650D01*
X111125Y514350D01*
G54D11*
X85725Y514350D02*
X85725Y501650D01*
X60325Y501650D01*
X60325Y514350D01*
G54D11*
X9525Y330200D02*
X69850Y330200D01*
G54D11*
X9525Y406400D02*
X69850Y406400D01*
X69850Y330200D01*
G54D11*
X9525Y330200D02*
X9525Y406400D01*
G54D11*
X9525Y355600D02*
X15875Y355600D01*
X15875Y381000D01*
X9525Y381000D01*
G54D11*
X9525Y241300D02*
X69850Y241300D01*
G54D11*
X9525Y317500D02*
X69850Y317500D01*
X69850Y241300D01*
G54D11*
X9525Y241300D02*
X9525Y317500D01*
G54D11*
X9525Y266700D02*
X15875Y266700D01*
X15875Y292100D01*
X9525Y292100D01*
G54D11*
X9525Y152400D02*
X69850Y152400D01*
G54D11*
X9525Y228600D02*
X69850Y228600D01*
X69850Y152400D01*
G54D11*
X9525Y152400D02*
X9525Y228600D01*
G54D11*
X9525Y177800D02*
X15875Y177800D01*
X15875Y203200D01*
X9525Y203200D01*
G54D11*
X188912Y374650D02*
X84138Y374650D01*
X84138Y209550D01*
X188912Y209550D01*
X188912Y374650D01*
G54D11*
X174625Y374650D02*
X174625Y349250D01*
X98425Y349250D01*
X98425Y374650D01*
G54D10*
X156592Y322978D02*
X156592Y328533D01*
X157258Y329644D01*
X158592Y330200D01*
X159925Y330200D01*
X161258Y329644D01*
X161925Y328533D01*
X161925Y322978D01*
X161258Y321867D01*
X159925Y321311D01*
X158592Y321311D01*
X157258Y321867D01*
X156592Y322978D01*
G54D10*
X154148Y330200D02*
X154148Y321311D01*
G54D10*
X154148Y327422D02*
X148815Y321311D01*
G54D10*
X152148Y325756D02*
X148815Y330200D01*
G54D10*
X146371Y330200D02*
X146371Y321311D01*
G54D10*
X143927Y326311D02*
X138594Y326311D01*
G54D10*
X136150Y321311D02*
X130817Y321311D01*
X131483Y322422D01*
X132817Y324089D01*
X134150Y326311D01*
X134817Y327978D01*
X134817Y330200D01*
G54D10*
X125040Y325756D02*
X126373Y325756D01*
X127706Y325200D01*
X128373Y324089D01*
X128373Y322978D01*
X127706Y321867D01*
X126373Y321311D01*
X125040Y321311D01*
X123706Y321867D01*
X123040Y322978D01*
X123040Y324089D01*
X123706Y325200D01*
X125040Y325756D01*
X123706Y326311D01*
X123040Y327422D01*
X123040Y328533D01*
X123706Y329644D01*
X125040Y330200D01*
X126373Y330200D01*
X127706Y329644D01*
X128373Y328533D01*
X128373Y327422D01*
X127706Y326311D01*
X126373Y325756D01*
G54D10*
X120596Y328533D02*
X119929Y329644D01*
X118596Y330200D01*
X117263Y330200D01*
X115929Y329644D01*
X115263Y328533D01*
X115263Y327422D01*
X115929Y326311D01*
X117263Y325756D01*
X118596Y325756D01*
X119929Y325200D01*
X120596Y324089D01*
X120596Y322978D01*
X119929Y321867D01*
X118596Y321311D01*
X117263Y321311D01*
X115929Y321867D01*
X115263Y322978D01*
G54D10*
X110152Y325756D02*
X108152Y326867D01*
X107486Y327978D01*
X107486Y330200D01*
G54D10*
X112819Y330200D02*
X112819Y321311D01*
X109486Y321311D01*
X108152Y321867D01*
X107486Y322978D01*
X107486Y324089D01*
X108152Y325200D01*
X109486Y325756D01*
X112819Y325756D01*
G54D10*
X156988Y335678D02*
X156988Y341233D01*
X157655Y342344D01*
X158988Y342900D01*
X160322Y342900D01*
X161655Y342344D01*
X162322Y341233D01*
X162322Y335678D01*
X161655Y334567D01*
X160322Y334011D01*
X158988Y334011D01*
X157655Y334567D01*
X156988Y335678D01*
G54D10*
X133858Y338456D02*
X131192Y338456D01*
X131192Y341233D01*
X131858Y342344D01*
X133192Y342900D01*
X134525Y342900D01*
X135858Y342344D01*
X136525Y341233D01*
X136525Y335678D01*
X135858Y334567D01*
X134525Y334011D01*
X133192Y334011D01*
X131858Y334567D01*
X131192Y335678D01*
G54D10*
X111125Y342900D02*
X111125Y334011D01*
G54D11*
X303212Y374650D02*
X198438Y374650D01*
X198438Y209550D01*
X303212Y209550D01*
X303212Y374650D01*
G54D11*
X288925Y374650D02*
X288925Y349250D01*
X212725Y349250D01*
X212725Y374650D01*
G54D10*
X270892Y322978D02*
X270892Y328533D01*
X271558Y329644D01*
X272892Y330200D01*
X274225Y330200D01*
X275558Y329644D01*
X276225Y328533D01*
X276225Y322978D01*
X275558Y321867D01*
X274225Y321311D01*
X272892Y321311D01*
X271558Y321867D01*
X270892Y322978D01*
G54D10*
X268448Y330200D02*
X268448Y321311D01*
G54D10*
X268448Y327422D02*
X263115Y321311D01*
G54D10*
X266448Y325756D02*
X263115Y330200D01*
G54D10*
X260671Y330200D02*
X260671Y321311D01*
G54D10*
X258227Y326311D02*
X252894Y326311D01*
G54D10*
X250450Y321311D02*
X245117Y321311D01*
X245783Y322422D01*
X247117Y324089D01*
X248450Y326311D01*
X249117Y327978D01*
X249117Y330200D01*
G54D10*
X239340Y325756D02*
X240673Y325756D01*
X242006Y325200D01*
X242673Y324089D01*
X242673Y322978D01*
X242006Y321867D01*
X240673Y321311D01*
X239340Y321311D01*
X238006Y321867D01*
X237340Y322978D01*
X237340Y324089D01*
X238006Y325200D01*
X239340Y325756D01*
X238006Y326311D01*
X237340Y327422D01*
X237340Y328533D01*
X238006Y329644D01*
X239340Y330200D01*
X240673Y330200D01*
X242006Y329644D01*
X242673Y328533D01*
X242673Y327422D01*
X242006Y326311D01*
X240673Y325756D01*
G54D10*
X234896Y328533D02*
X234229Y329644D01*
X232896Y330200D01*
X231563Y330200D01*
X230229Y329644D01*
X229563Y328533D01*
X229563Y327422D01*
X230229Y326311D01*
X231563Y325756D01*
X232896Y325756D01*
X234229Y325200D01*
X234896Y324089D01*
X234896Y322978D01*
X234229Y321867D01*
X232896Y321311D01*
X231563Y321311D01*
X230229Y321867D01*
X229563Y322978D01*
G54D10*
X224452Y325756D02*
X222452Y326867D01*
X221786Y327978D01*
X221786Y330200D01*
G54D10*
X227119Y330200D02*
X227119Y321311D01*
X223786Y321311D01*
X222452Y321867D01*
X221786Y322978D01*
X221786Y324089D01*
X222452Y325200D01*
X223786Y325756D01*
X227119Y325756D01*
G54D10*
X271288Y335678D02*
X271288Y341233D01*
X271955Y342344D01*
X273288Y342900D01*
X274622Y342900D01*
X275955Y342344D01*
X276622Y341233D01*
X276622Y335678D01*
X275955Y334567D01*
X274622Y334011D01*
X273288Y334011D01*
X271955Y334567D01*
X271288Y335678D01*
G54D10*
X248158Y338456D02*
X245492Y338456D01*
X245492Y341233D01*
X246158Y342344D01*
X247492Y342900D01*
X248825Y342900D01*
X250158Y342344D01*
X250825Y341233D01*
X250825Y335678D01*
X250158Y334567D01*
X248825Y334011D01*
X247492Y334011D01*
X246158Y334567D01*
X245492Y335678D01*
G54D10*
X225425Y342900D02*
X225425Y334011D01*
G54D11*
X75009Y419894D02*
X148034Y419894D01*
X148034Y386556D01*
X75009Y386556D01*
X75009Y419894D01*
G54D11*
X306983Y396081D02*
X306983Y383580D01*
X175419Y383580D01*
X175419Y396081D01*
G54D11*
X306983Y445294D02*
X306983Y523478D01*
X175419Y523478D01*
X175419Y445294D01*
G54D10*
X272099Y408781D02*
X280988Y412114D01*
X272099Y415448D01*
G54D10*
X279321Y423226D02*
X280432Y422559D01*
X280988Y421226D01*
X280988Y419892D01*
X280432Y418559D01*
X279321Y417892D01*
X273765Y417892D01*
X272654Y418559D01*
X272099Y419892D01*
X272099Y421226D01*
X272654Y422559D01*
X273765Y423226D01*
G54D10*
X279321Y431002D02*
X280432Y430336D01*
X280988Y429003D01*
X280988Y427669D01*
X280432Y426336D01*
X279321Y425669D01*
X273765Y425669D01*
X272654Y426336D01*
X272099Y427669D01*
X272099Y429002D01*
X272654Y430336D01*
X273765Y431003D01*
G54D10*
X255588Y408781D02*
X246699Y408781D01*
X246699Y412114D01*
X247254Y413448D01*
X248365Y414115D01*
X253921Y414115D01*
X255032Y413448D01*
X255588Y412115D01*
X255588Y408781D01*
G54D10*
X251699Y416558D02*
X251699Y421892D01*
G54D10*
X236538Y408781D02*
X227649Y408781D01*
X227649Y412114D01*
X228204Y413448D01*
X229315Y414115D01*
X234871Y414115D01*
X235982Y413448D01*
X236538Y412114D01*
X236538Y408781D01*
G54D10*
X232649Y416558D02*
X232649Y421892D01*
G54D10*
X230426Y419225D02*
X234871Y419225D01*
G54D10*
X206693Y411448D02*
X206693Y414115D01*
X209471Y414115D01*
X210582Y413448D01*
X211138Y412115D01*
X211138Y410781D01*
X210582Y409448D01*
X209471Y408781D01*
X203915Y408781D01*
X202804Y409448D01*
X202249Y410781D01*
X202249Y412114D01*
X202804Y413448D01*
X203915Y414115D01*
G54D10*
X211138Y416558D02*
X202249Y416558D01*
X211138Y421892D01*
X202249Y421892D01*
G54D10*
X211138Y424335D02*
X202249Y424335D01*
X202249Y427668D01*
X202804Y429002D01*
X203915Y429668D01*
X209471Y429668D01*
X210582Y429002D01*
X211138Y427668D01*
X211138Y424335D01*
G54D11*
X149225Y514350D02*
X174625Y514350D01*
X174625Y463550D01*
X149225Y463550D01*
X149225Y514350D01*
G54D10*
X229314Y107950D02*
X229314Y102617D01*
G54D10*
X234314Y94840D02*
X234314Y100173D01*
X230425Y100173D01*
X230425Y99506D01*
X230980Y98173D01*
X230980Y96840D01*
X230425Y95506D01*
X229314Y94840D01*
X227092Y94840D01*
X225980Y95506D01*
X225425Y96840D01*
X225425Y98173D01*
X225980Y99506D01*
X227092Y100173D01*
G54D10*
X234314Y92396D02*
X225425Y89063D01*
X234314Y85729D01*
G54D10*
X229314Y83285D02*
X229314Y77952D01*
G54D10*
X231536Y80618D02*
X227092Y80618D01*
G54D11*
X161925Y63500D02*
X222250Y63500D01*
G54D11*
X161925Y139700D02*
X222250Y139700D01*
X222250Y63500D01*
G54D11*
X161925Y63500D02*
X161925Y139700D01*
G54D11*
X161925Y88900D02*
X168275Y88900D01*
X168275Y114300D01*
X161925Y114300D01*
G54D11*
X9525Y63500D02*
X69850Y63500D01*
G54D11*
X9525Y139700D02*
X69850Y139700D01*
X69850Y63500D01*
G54D11*
X9525Y63500D02*
X9525Y139700D01*
G54D11*
X9525Y88900D02*
X15875Y88900D01*
X15875Y114300D01*
X9525Y114300D01*
G54D10*
X78403Y306067D02*
X78403Y300734D01*
G54D10*
X74514Y292957D02*
X74514Y298290D01*
X75069Y298290D01*
X76180Y297624D01*
X79514Y293624D01*
X80625Y292957D01*
X81736Y292957D01*
X82847Y293624D01*
X83403Y294957D01*
X83403Y296290D01*
X82847Y297624D01*
X81736Y298290D01*
G54D10*
X74514Y286513D02*
X83403Y286513D01*
X77847Y290513D01*
X76736Y290513D01*
X76736Y285180D01*
G54D10*
X83403Y282736D02*
X74514Y279403D01*
X83403Y276070D01*
G54D10*
X78403Y273625D02*
X78403Y268292D01*
G54D10*
X80625Y270958D02*
X76180Y270958D01*
G54D12*
X6375Y471600D02*
X6375Y493600D01*
X44375Y493600D01*
X44375Y471600D01*
X6375Y471600D01*
G54D12*
X6375Y497000D02*
X6375Y519000D01*
X44375Y519000D01*
X44375Y497000D01*
X6375Y497000D01*
G54D12*
X133375Y176325D02*
X133375Y198325D01*
X171375Y198325D01*
X171375Y176325D01*
X133375Y176325D01*
G54D12*
X133375Y150925D02*
X133375Y172925D01*
X171375Y172925D01*
X171375Y150925D01*
X133375Y150925D01*
G54D12*
X85750Y150925D02*
X85750Y172925D01*
X123750Y172925D01*
X123750Y150925D01*
X85750Y150925D01*
G54D12*
X85750Y176325D02*
X85750Y198325D01*
X123750Y198325D01*
X123750Y176325D01*
X85750Y176325D01*
G54D11*
X180975Y196850D02*
X231775Y196850D01*
X231775Y171450D01*
X180975Y171450D01*
X180975Y196850D01*
G54D12*
X306475Y371425D02*
X328475Y371425D01*
X328475Y333425D01*
X306475Y333425D01*
X306475Y371425D01*
G54D10*
X224408Y205739D02*
X219075Y205739D01*
X219075Y201850D01*
X219742Y201850D01*
X221075Y202406D01*
X222408Y202406D01*
X223742Y201850D01*
X224408Y200739D01*
X224408Y198517D01*
X223742Y197406D01*
X222408Y196850D01*
X221075Y196850D01*
X219742Y197406D01*
X219075Y198517D01*
G54D10*
X226852Y201850D02*
X229519Y196850D01*
X232185Y201850D01*
G54D10*
X189992Y201294D02*
X192658Y201294D01*
X192658Y198517D01*
X191992Y197406D01*
X190658Y196850D01*
X189325Y196850D01*
X187992Y197406D01*
X187325Y198517D01*
X187325Y204072D01*
X187992Y205183D01*
X189325Y205739D01*
X190658Y205739D01*
X191992Y205183D01*
X192658Y204072D01*
G54D10*
X195102Y196850D02*
X195102Y205739D01*
X200435Y196850D01*
X200435Y205739D01*
G54D10*
X202879Y196850D02*
X202879Y205739D01*
X206212Y205739D01*
X207546Y205183D01*
X208212Y204072D01*
X208212Y198517D01*
X207546Y197406D01*
X206212Y196850D01*
X202879Y196850D01*
G54D10*
X164464Y460375D02*
X155575Y457042D01*
X164464Y453708D01*
G54D10*
X160020Y521208D02*
X160020Y518542D01*
X157242Y518542D01*
X156130Y519208D01*
X155575Y520542D01*
X155575Y521875D01*
X156130Y523208D01*
X157242Y523875D01*
X162797Y523875D01*
X163908Y523208D01*
X164464Y521875D01*
X164464Y520542D01*
X163908Y519208D01*
X162797Y518542D01*
G54D11*
X85725Y63500D02*
X146050Y63500D01*
G54D11*
X85725Y139700D02*
X146050Y139700D01*
X146050Y63500D01*
G54D11*
X85725Y63500D02*
X85725Y139700D01*
G54D11*
X85725Y88900D02*
X92075Y88900D01*
X92075Y114300D01*
X85725Y114300D01*
G54D10*
X153114Y120650D02*
X153114Y115317D01*
G54D10*
X158114Y107540D02*
X158114Y112873D01*
X154225Y112873D01*
X154225Y112206D01*
X154780Y110873D01*
X154780Y109540D01*
X154225Y108206D01*
X153114Y107540D01*
X150892Y107540D01*
X149780Y108206D01*
X149225Y109540D01*
X149225Y110873D01*
X149780Y112206D01*
X150892Y112873D01*
G54D10*
X158114Y105096D02*
X149225Y101763D01*
X158114Y98429D01*
G54D10*
X153114Y95985D02*
X153114Y90652D01*
G54D10*
X155336Y93318D02*
X150892Y93318D01*
G54D11*
X234435Y75011D02*
X317779Y75011D01*
X317779Y158355D01*
X234435Y158355D01*
X234435Y75011D01*
G54D11*
G75*
G01X236107Y116683D02*
G03X236107Y116683I40000J0D01*
G01*
G54D10*
X256263Y98110D02*
X250930Y98110D01*
G54D10*
X253882Y137003D02*
X248549Y137003D01*
G54D10*
X251215Y134781D02*
X251215Y139226D01*
G54D12*
X190525Y144575D02*
X190525Y166575D01*
X228525Y166575D01*
X228525Y144575D01*
X190525Y144575D01*
G54D11*
X47030Y417711D02*
X3770Y417711D01*
X3770Y460970D01*
X47030Y460970D01*
X47030Y417711D01*
G54D11*
G75*
G01X5430Y439558D02*
G03X5430Y439558I20000J0D01*
G01*
G54D10*
X18455Y429697D02*
X13121Y429697D01*
G54D10*
X15788Y427475D02*
X15788Y431919D01*
G54D10*
X18058Y449938D02*
X12724Y449938D01*
G54D11*
X263525Y196850D02*
X314325Y196850D01*
X314325Y171450D01*
X263525Y171450D01*
X263525Y196850D01*
G54D10*
X294767Y201294D02*
X297433Y201294D01*
X297433Y198517D01*
X296767Y197406D01*
X295433Y196850D01*
X294100Y196850D01*
X292767Y197406D01*
X292100Y198517D01*
X292100Y204072D01*
X292767Y205183D01*
X294100Y205739D01*
X295433Y205739D01*
X296767Y205183D01*
X297433Y204072D01*
G54D10*
X299877Y196850D02*
X299877Y205739D01*
X305210Y196850D01*
X305210Y205739D01*
G54D10*
X307654Y196850D02*
X307654Y205739D01*
X310987Y205739D01*
X312321Y205183D01*
X312987Y204072D01*
X312987Y198517D01*
X312321Y197406D01*
X310987Y196850D01*
X307654Y196850D01*
G54D10*
X272033Y205739D02*
X266700Y205739D01*
X266700Y201850D01*
X267367Y201850D01*
X268700Y202406D01*
X270033Y202406D01*
X271367Y201850D01*
X272033Y200739D01*
X272033Y198517D01*
X271367Y197406D01*
X270033Y196850D01*
X268700Y196850D01*
X267367Y197406D01*
X266700Y198517D01*
G54D10*
X274477Y201850D02*
X277144Y196850D01*
X279810Y201850D01*
G54D10*
X408603Y382267D02*
X408603Y376934D01*
G54D10*
X404714Y369157D02*
X404714Y374490D01*
X405269Y374490D01*
X406380Y373824D01*
X409714Y369824D01*
X410825Y369157D01*
X411936Y369157D01*
X413047Y369824D01*
X413603Y371157D01*
X413603Y372490D01*
X413047Y373824D01*
X411936Y374490D01*
G54D10*
X404714Y362713D02*
X413603Y362713D01*
X408047Y366713D01*
X406936Y366713D01*
X406936Y361380D01*
G54D10*
X413603Y358936D02*
X404714Y355603D01*
X413603Y352270D01*
G54D10*
X408603Y349825D02*
X408603Y344492D01*
G54D10*
X410825Y347158D02*
X406380Y347158D01*
G54D10*
X407114Y215900D02*
X407114Y210567D01*
G54D10*
X408780Y208123D02*
X412114Y204790D01*
X403225Y204790D01*
G54D10*
X403225Y197013D02*
X403225Y202346D01*
X403780Y202346D01*
X404892Y201679D01*
X408225Y197679D01*
X409336Y197013D01*
X410447Y197013D01*
X411558Y197679D01*
X412114Y199013D01*
X412114Y200346D01*
X411558Y201679D01*
X410447Y202346D01*
G54D10*
X412114Y194569D02*
X403225Y191236D01*
X412114Y187902D01*
G54D10*
X407114Y185458D02*
X407114Y180125D01*
G54D10*
X409336Y182791D02*
X404892Y182791D01*
G54D10*
X406219Y121597D02*
X406219Y116264D01*
G54D10*
X407885Y113820D02*
X411219Y110487D01*
X402330Y110487D01*
G54D10*
X402330Y102710D02*
X402330Y108043D01*
X402885Y108043D01*
X403996Y107377D01*
X407330Y103377D01*
X408441Y102710D01*
X409552Y102710D01*
X410663Y103377D01*
X411219Y104710D01*
X411219Y106043D01*
X410663Y107377D01*
X409552Y108043D01*
G54D10*
X411219Y100266D02*
X402330Y96933D01*
X411219Y93600D01*
G54D10*
X406219Y91155D02*
X406219Y85822D01*
G54D10*
X408441Y88489D02*
X403996Y88489D01*
G54D11*
X479425Y463550D02*
X479425Y514350D01*
X377825Y514350D01*
X377825Y463550D01*
G54D11*
X479425Y463550D02*
X479425Y425450D01*
X377825Y425450D01*
X377825Y463550D01*
G54D11*
X466725Y514350D02*
X466725Y501650D01*
X441325Y501650D01*
X441325Y514350D01*
G54D11*
X415925Y514350D02*
X415925Y501650D01*
X390525Y501650D01*
X390525Y514350D01*
G54D11*
X339725Y330200D02*
X400050Y330200D01*
G54D11*
X339725Y406400D02*
X400050Y406400D01*
X400050Y330200D01*
G54D11*
X339725Y330200D02*
X339725Y406400D01*
G54D11*
X339725Y355600D02*
X346075Y355600D01*
X346075Y381000D01*
X339725Y381000D01*
G54D11*
X339725Y241300D02*
X400050Y241300D01*
G54D11*
X339725Y317500D02*
X400050Y317500D01*
X400050Y241300D01*
G54D11*
X339725Y241300D02*
X339725Y317500D01*
G54D11*
X339725Y266700D02*
X346075Y266700D01*
X346075Y292100D01*
X339725Y292100D01*
G54D11*
X339725Y152400D02*
X400050Y152400D01*
G54D11*
X339725Y228600D02*
X400050Y228600D01*
X400050Y152400D01*
G54D11*
X339725Y152400D02*
X339725Y228600D01*
G54D11*
X339725Y177800D02*
X346075Y177800D01*
X346075Y203200D01*
X339725Y203200D01*
G54D11*
X519112Y374650D02*
X414338Y374650D01*
X414338Y209550D01*
X519112Y209550D01*
X519112Y374650D01*
G54D11*
X504825Y374650D02*
X504825Y349250D01*
X428625Y349250D01*
X428625Y374650D01*
G54D10*
X486792Y322978D02*
X486792Y328533D01*
X487458Y329644D01*
X488792Y330200D01*
X490125Y330200D01*
X491458Y329644D01*
X492125Y328533D01*
X492125Y322978D01*
X491458Y321867D01*
X490125Y321311D01*
X488792Y321311D01*
X487458Y321867D01*
X486792Y322978D01*
G54D10*
X484348Y330200D02*
X484348Y321311D01*
G54D10*
X484348Y327422D02*
X479015Y321311D01*
G54D10*
X482348Y325756D02*
X479015Y330200D01*
G54D10*
X476571Y330200D02*
X476571Y321311D01*
G54D10*
X474127Y326311D02*
X468794Y326311D01*
G54D10*
X466350Y321311D02*
X461017Y321311D01*
X461683Y322422D01*
X463017Y324089D01*
X464350Y326311D01*
X465017Y327978D01*
X465017Y330200D01*
G54D10*
X455240Y325756D02*
X456573Y325756D01*
X457906Y325200D01*
X458573Y324089D01*
X458573Y322978D01*
X457906Y321867D01*
X456573Y321311D01*
X455240Y321311D01*
X453906Y321867D01*
X453240Y322978D01*
X453240Y324089D01*
X453906Y325200D01*
X455240Y325756D01*
X453906Y326311D01*
X453240Y327422D01*
X453240Y328533D01*
X453906Y329644D01*
X455240Y330200D01*
X456573Y330200D01*
X457906Y329644D01*
X458573Y328533D01*
X458573Y327422D01*
X457906Y326311D01*
X456573Y325756D01*
G54D10*
X450796Y328533D02*
X450129Y329644D01*
X448796Y330200D01*
X447463Y330200D01*
X446129Y329644D01*
X445463Y328533D01*
X445463Y327422D01*
X446129Y326311D01*
X447463Y325756D01*
X448796Y325756D01*
X450129Y325200D01*
X450796Y324089D01*
X450796Y322978D01*
X450129Y321867D01*
X448796Y321311D01*
X447463Y321311D01*
X446129Y321867D01*
X445463Y322978D01*
G54D10*
X440352Y325756D02*
X438352Y326867D01*
X437686Y327978D01*
X437686Y330200D01*
G54D10*
X443019Y330200D02*
X443019Y321311D01*
X439686Y321311D01*
X438352Y321867D01*
X437686Y322978D01*
X437686Y324089D01*
X438352Y325200D01*
X439686Y325756D01*
X443019Y325756D01*
G54D10*
X487188Y335678D02*
X487188Y341233D01*
X487855Y342344D01*
X489188Y342900D01*
X490522Y342900D01*
X491855Y342344D01*
X492522Y341233D01*
X492522Y335678D01*
X491855Y334567D01*
X490522Y334011D01*
X489188Y334011D01*
X487855Y334567D01*
X487188Y335678D01*
G54D10*
X464058Y338456D02*
X461392Y338456D01*
X461392Y341233D01*
X462058Y342344D01*
X463392Y342900D01*
X464725Y342900D01*
X466058Y342344D01*
X466725Y341233D01*
X466725Y335678D01*
X466058Y334567D01*
X464725Y334011D01*
X463392Y334011D01*
X462058Y334567D01*
X461392Y335678D01*
G54D10*
X441325Y342900D02*
X441325Y334011D01*
G54D11*
X633412Y374650D02*
X528638Y374650D01*
X528638Y209550D01*
X633412Y209550D01*
X633412Y374650D01*
G54D11*
X619125Y374650D02*
X619125Y349250D01*
X542925Y349250D01*
X542925Y374650D01*
G54D10*
X601092Y322978D02*
X601092Y328533D01*
X601758Y329644D01*
X603092Y330200D01*
X604425Y330200D01*
X605758Y329644D01*
X606425Y328533D01*
X606425Y322978D01*
X605758Y321867D01*
X604425Y321311D01*
X603092Y321311D01*
X601758Y321867D01*
X601092Y322978D01*
G54D10*
X598648Y330200D02*
X598648Y321311D01*
G54D10*
X598648Y327422D02*
X593315Y321311D01*
G54D10*
X596648Y325756D02*
X593315Y330200D01*
G54D10*
X590871Y330200D02*
X590871Y321311D01*
G54D10*
X588427Y326311D02*
X583094Y326311D01*
G54D10*
X580650Y321311D02*
X575317Y321311D01*
X575983Y322422D01*
X577317Y324089D01*
X578650Y326311D01*
X579317Y327978D01*
X579317Y330200D01*
G54D10*
X569540Y325756D02*
X570873Y325756D01*
X572206Y325200D01*
X572873Y324089D01*
X572873Y322978D01*
X572206Y321867D01*
X570873Y321311D01*
X569540Y321311D01*
X568206Y321867D01*
X567540Y322978D01*
X567540Y324089D01*
X568206Y325200D01*
X569540Y325756D01*
X568206Y326311D01*
X567540Y327422D01*
X567540Y328533D01*
X568206Y329644D01*
X569540Y330200D01*
X570873Y330200D01*
X572206Y329644D01*
X572873Y328533D01*
X572873Y327422D01*
X572206Y326311D01*
X570873Y325756D01*
G54D10*
X565096Y328533D02*
X564429Y329644D01*
X563096Y330200D01*
X561763Y330200D01*
X560429Y329644D01*
X559763Y328533D01*
X559763Y327422D01*
X560429Y326311D01*
X561763Y325756D01*
X563096Y325756D01*
X564429Y325200D01*
X565096Y324089D01*
X565096Y322978D01*
X564429Y321867D01*
X563096Y321311D01*
X561763Y321311D01*
X560429Y321867D01*
X559763Y322978D01*
G54D10*
X554652Y325756D02*
X552652Y326867D01*
X551986Y327978D01*
X551986Y330200D01*
G54D10*
X557319Y330200D02*
X557319Y321311D01*
X553986Y321311D01*
X552652Y321867D01*
X551986Y322978D01*
X551986Y324089D01*
X552652Y325200D01*
X553986Y325756D01*
X557319Y325756D01*
G54D10*
X601488Y335678D02*
X601488Y341233D01*
X602155Y342344D01*
X603488Y342900D01*
X604822Y342900D01*
X606155Y342344D01*
X606822Y341233D01*
X606822Y335678D01*
X606155Y334567D01*
X604822Y334011D01*
X603488Y334011D01*
X602155Y334567D01*
X601488Y335678D01*
G54D10*
X578358Y338456D02*
X575692Y338456D01*
X575692Y341233D01*
X576358Y342344D01*
X577692Y342900D01*
X579025Y342900D01*
X580358Y342344D01*
X581025Y341233D01*
X581025Y335678D01*
X580358Y334567D01*
X579025Y334011D01*
X577692Y334011D01*
X576358Y334567D01*
X575692Y335678D01*
G54D10*
X555625Y342900D02*
X555625Y334011D01*
G54D11*
X405209Y419894D02*
X478234Y419894D01*
X478234Y386556D01*
X405209Y386556D01*
X405209Y419894D01*
G54D11*
X637183Y396081D02*
X637183Y383580D01*
X505619Y383580D01*
X505619Y396081D01*
G54D11*
X637183Y445294D02*
X637183Y523478D01*
X505619Y523478D01*
X505619Y445294D01*
G54D10*
X602299Y408781D02*
X611188Y412114D01*
X602299Y415448D01*
G54D10*
X609521Y423226D02*
X610632Y422559D01*
X611188Y421226D01*
X611188Y419892D01*
X610632Y418559D01*
X609521Y417892D01*
X603965Y417892D01*
X602854Y418559D01*
X602299Y419892D01*
X602299Y421226D01*
X602854Y422559D01*
X603965Y423226D01*
G54D10*
X609521Y431002D02*
X610632Y430336D01*
X611188Y429003D01*
X611188Y427669D01*
X610632Y426336D01*
X609521Y425669D01*
X603965Y425669D01*
X602854Y426336D01*
X602299Y427669D01*
X602299Y429002D01*
X602854Y430336D01*
X603965Y431003D01*
G54D10*
X585788Y408781D02*
X576899Y408781D01*
X576899Y412114D01*
X577454Y413448D01*
X578565Y414115D01*
X584121Y414115D01*
X585232Y413448D01*
X585788Y412115D01*
X585788Y408781D01*
G54D10*
X581899Y416558D02*
X581899Y421892D01*
G54D10*
X566738Y408781D02*
X557849Y408781D01*
X557849Y412114D01*
X558404Y413448D01*
X559515Y414115D01*
X565071Y414115D01*
X566182Y413448D01*
X566738Y412114D01*
X566738Y408781D01*
G54D10*
X562849Y416558D02*
X562849Y421892D01*
G54D10*
X560626Y419225D02*
X565071Y419225D01*
G54D10*
X536893Y411448D02*
X536893Y414115D01*
X539671Y414115D01*
X540782Y413448D01*
X541338Y412115D01*
X541338Y410781D01*
X540782Y409448D01*
X539671Y408781D01*
X534115Y408781D01*
X533004Y409448D01*
X532449Y410781D01*
X532449Y412114D01*
X533004Y413448D01*
X534115Y414115D01*
G54D10*
X541338Y416558D02*
X532449Y416558D01*
X541338Y421892D01*
X532449Y421892D01*
G54D10*
X541338Y424335D02*
X532449Y424335D01*
X532449Y427668D01*
X533004Y429002D01*
X534115Y429668D01*
X539671Y429668D01*
X540782Y429002D01*
X541338Y427668D01*
X541338Y424335D01*
G54D11*
X479425Y514350D02*
X504825Y514350D01*
X504825Y463550D01*
X479425Y463550D01*
X479425Y514350D01*
G54D10*
X559514Y107950D02*
X559514Y102617D01*
G54D10*
X564514Y94840D02*
X564514Y100173D01*
X560625Y100173D01*
X560625Y99506D01*
X561180Y98173D01*
X561180Y96840D01*
X560625Y95506D01*
X559514Y94840D01*
X557292Y94840D01*
X556180Y95506D01*
X555625Y96840D01*
X555625Y98173D01*
X556180Y99506D01*
X557292Y100173D01*
G54D10*
X564514Y92396D02*
X555625Y89063D01*
X564514Y85729D01*
G54D10*
X559514Y83285D02*
X559514Y77952D01*
G54D10*
X561736Y80618D02*
X557292Y80618D01*
G54D11*
X492125Y63500D02*
X552450Y63500D01*
G54D11*
X492125Y139700D02*
X552450Y139700D01*
X552450Y63500D01*
G54D11*
X492125Y63500D02*
X492125Y139700D01*
G54D11*
X492125Y88900D02*
X498475Y88900D01*
X498475Y114300D01*
X492125Y114300D01*
G54D11*
X339725Y63500D02*
X400050Y63500D01*
G54D11*
X339725Y139700D02*
X400050Y139700D01*
X400050Y63500D01*
G54D11*
X339725Y63500D02*
X339725Y139700D01*
G54D11*
X339725Y88900D02*
X346075Y88900D01*
X346075Y114300D01*
X339725Y114300D01*
G54D10*
X408603Y306067D02*
X408603Y300734D01*
G54D10*
X404714Y292957D02*
X404714Y298290D01*
X405269Y298290D01*
X406380Y297624D01*
X409714Y293624D01*
X410825Y292957D01*
X411936Y292957D01*
X413047Y293624D01*
X413603Y294957D01*
X413603Y296290D01*
X413047Y297624D01*
X411936Y298290D01*
G54D10*
X404714Y286513D02*
X413603Y286513D01*
X408047Y290513D01*
X406936Y290513D01*
X406936Y285180D01*
G54D10*
X413603Y282736D02*
X404714Y279403D01*
X413603Y276070D01*
G54D10*
X408603Y273625D02*
X408603Y268292D01*
G54D10*
X410825Y270958D02*
X406380Y270958D01*
G54D12*
X336575Y471600D02*
X336575Y493600D01*
X374575Y493600D01*
X374575Y471600D01*
X336575Y471600D01*
G54D12*
X336575Y497000D02*
X336575Y519000D01*
X374575Y519000D01*
X374575Y497000D01*
X336575Y497000D01*
G54D12*
X463575Y176325D02*
X463575Y198325D01*
X501575Y198325D01*
X501575Y176325D01*
X463575Y176325D01*
G54D12*
X463575Y150925D02*
X463575Y172925D01*
X501575Y172925D01*
X501575Y150925D01*
X463575Y150925D01*
G54D12*
X415950Y150925D02*
X415950Y172925D01*
X453950Y172925D01*
X453950Y150925D01*
X415950Y150925D01*
G54D12*
X415950Y176325D02*
X415950Y198325D01*
X453950Y198325D01*
X453950Y176325D01*
X415950Y176325D01*
G54D11*
X511175Y196850D02*
X561975Y196850D01*
X561975Y171450D01*
X511175Y171450D01*
X511175Y196850D01*
G54D12*
X636675Y371425D02*
X658675Y371425D01*
X658675Y333425D01*
X636675Y333425D01*
X636675Y371425D01*
G54D10*
X554608Y205739D02*
X549275Y205739D01*
X549275Y201850D01*
X549942Y201850D01*
X551275Y202406D01*
X552608Y202406D01*
X553942Y201850D01*
X554608Y200739D01*
X554608Y198517D01*
X553942Y197406D01*
X552608Y196850D01*
X551275Y196850D01*
X549942Y197406D01*
X549275Y198517D01*
G54D10*
X557052Y201850D02*
X559719Y196850D01*
X562385Y201850D01*
G54D10*
X520192Y201294D02*
X522858Y201294D01*
X522858Y198517D01*
X522192Y197406D01*
X520858Y196850D01*
X519525Y196850D01*
X518192Y197406D01*
X517525Y198517D01*
X517525Y204072D01*
X518192Y205183D01*
X519525Y205739D01*
X520858Y205739D01*
X522192Y205183D01*
X522858Y204072D01*
G54D10*
X525302Y196850D02*
X525302Y205739D01*
X530635Y196850D01*
X530635Y205739D01*
G54D10*
X533079Y196850D02*
X533079Y205739D01*
X536412Y205739D01*
X537746Y205183D01*
X538412Y204072D01*
X538412Y198517D01*
X537746Y197406D01*
X536412Y196850D01*
X533079Y196850D01*
G54D10*
X494664Y460375D02*
X485775Y457042D01*
X494664Y453708D01*
G54D10*
X490220Y521208D02*
X490220Y518542D01*
X487442Y518542D01*
X486330Y519208D01*
X485775Y520542D01*
X485775Y521875D01*
X486330Y523208D01*
X487442Y523875D01*
X492997Y523875D01*
X494108Y523208D01*
X494664Y521875D01*
X494664Y520542D01*
X494108Y519208D01*
X492997Y518542D01*
G54D11*
X415925Y63500D02*
X476250Y63500D01*
G54D11*
X415925Y139700D02*
X476250Y139700D01*
X476250Y63500D01*
G54D11*
X415925Y63500D02*
X415925Y139700D01*
G54D11*
X415925Y88900D02*
X422275Y88900D01*
X422275Y114300D01*
X415925Y114300D01*
G54D10*
X483314Y120650D02*
X483314Y115317D01*
G54D10*
X488314Y107540D02*
X488314Y112873D01*
X484425Y112873D01*
X484425Y112206D01*
X484980Y110873D01*
X484980Y109540D01*
X484425Y108206D01*
X483314Y107540D01*
X481092Y107540D01*
X479980Y108206D01*
X479425Y109540D01*
X479425Y110873D01*
X479980Y112206D01*
X481092Y112873D01*
G54D10*
X488314Y105096D02*
X479425Y101763D01*
X488314Y98429D01*
G54D10*
X483314Y95985D02*
X483314Y90652D01*
G54D10*
X485536Y93318D02*
X481092Y93318D01*
G54D11*
X564635Y75011D02*
X647979Y75011D01*
X647979Y158355D01*
X564635Y158355D01*
X564635Y75011D01*
G54D11*
G75*
G01X566307Y116683D02*
G03X566307Y116683I40000J0D01*
G01*
G54D10*
X586463Y98110D02*
X581130Y98110D01*
G54D10*
X584082Y137003D02*
X578749Y137003D01*
G54D10*
X581415Y134781D02*
X581415Y139226D01*
G54D12*
X520725Y144575D02*
X520725Y166575D01*
X558725Y166575D01*
X558725Y144575D01*
X520725Y144575D01*
G54D11*
X377230Y417711D02*
X333970Y417711D01*
X333970Y460970D01*
X377230Y460970D01*
X377230Y417711D01*
G54D11*
G75*
G01X335630Y439558D02*
G03X335630Y439558I20000J0D01*
G01*
G54D10*
X348655Y429697D02*
X343321Y429697D01*
G54D10*
X345988Y427475D02*
X345988Y431919D01*
G54D10*
X348258Y449938D02*
X342924Y449938D01*
G54D11*
X593725Y196850D02*
X644525Y196850D01*
X644525Y171450D01*
X593725Y171450D01*
X593725Y196850D01*
G54D10*
X624967Y201294D02*
X627633Y201294D01*
X627633Y198517D01*
X626967Y197406D01*
X625633Y196850D01*
X624300Y196850D01*
X622967Y197406D01*
X622300Y198517D01*
X622300Y204072D01*
X622967Y205183D01*
X624300Y205739D01*
X625633Y205739D01*
X626967Y205183D01*
X627633Y204072D01*
G54D10*
X630077Y196850D02*
X630077Y205739D01*
X635410Y196850D01*
X635410Y205739D01*
G54D10*
X637854Y196850D02*
X637854Y205739D01*
X641187Y205739D01*
X642521Y205183D01*
X643187Y204072D01*
X643187Y198517D01*
X642521Y197406D01*
X641187Y196850D01*
X637854Y196850D01*
G54D10*
X602233Y205739D02*
X596900Y205739D01*
X596900Y201850D01*
X597567Y201850D01*
X598900Y202406D01*
X600233Y202406D01*
X601567Y201850D01*
X602233Y200739D01*
X602233Y198517D01*
X601567Y197406D01*
X600233Y196850D01*
X598900Y196850D01*
X597567Y197406D01*
X596900Y198517D01*
G54D10*
X604677Y201850D02*
X607344Y196850D01*
X610010Y201850D01*
G54D10*
X738803Y382267D02*
X738803Y376934D01*
G54D10*
X734914Y369157D02*
X734914Y374490D01*
X735469Y374490D01*
X736580Y373824D01*
X739914Y369824D01*
X741025Y369157D01*
X742136Y369157D01*
X743247Y369824D01*
X743803Y371157D01*
X743803Y372490D01*
X743247Y373824D01*
X742136Y374490D01*
G54D10*
X734914Y362713D02*
X743803Y362713D01*
X738247Y366713D01*
X737136Y366713D01*
X737136Y361380D01*
G54D10*
X743803Y358936D02*
X734914Y355603D01*
X743803Y352270D01*
G54D10*
X738803Y349825D02*
X738803Y344492D01*
G54D10*
X741025Y347158D02*
X736580Y347158D01*
G54D10*
X737314Y215900D02*
X737314Y210567D01*
G54D10*
X738980Y208123D02*
X742314Y204790D01*
X733425Y204790D01*
G54D10*
X733425Y197013D02*
X733425Y202346D01*
X733980Y202346D01*
X735092Y201679D01*
X738425Y197679D01*
X739536Y197013D01*
X740647Y197013D01*
X741758Y197679D01*
X742314Y199013D01*
X742314Y200346D01*
X741758Y201679D01*
X740647Y202346D01*
G54D10*
X742314Y194569D02*
X733425Y191236D01*
X742314Y187902D01*
G54D10*
X737314Y185458D02*
X737314Y180125D01*
G54D10*
X739536Y182791D02*
X735092Y182791D01*
G54D10*
X736419Y121597D02*
X736419Y116264D01*
G54D10*
X738085Y113820D02*
X741419Y110487D01*
X732530Y110487D01*
G54D10*
X732530Y102710D02*
X732530Y108043D01*
X733085Y108043D01*
X734196Y107377D01*
X737530Y103377D01*
X738641Y102710D01*
X739752Y102710D01*
X740863Y103377D01*
X741419Y104710D01*
X741419Y106043D01*
X740863Y107377D01*
X739752Y108043D01*
G54D10*
X741419Y100266D02*
X732530Y96933D01*
X741419Y93600D01*
G54D10*
X736419Y91155D02*
X736419Y85822D01*
G54D10*
X738641Y88489D02*
X734196Y88489D01*
G54D11*
X809625Y463550D02*
X809625Y514350D01*
X708025Y514350D01*
X708025Y463550D01*
G54D11*
X809625Y463550D02*
X809625Y425450D01*
X708025Y425450D01*
X708025Y463550D01*
G54D11*
X796925Y514350D02*
X796925Y501650D01*
X771525Y501650D01*
X771525Y514350D01*
G54D11*
X746125Y514350D02*
X746125Y501650D01*
X720725Y501650D01*
X720725Y514350D01*
G54D11*
X669925Y330200D02*
X730250Y330200D01*
G54D11*
X669925Y406400D02*
X730250Y406400D01*
X730250Y330200D01*
G54D11*
X669925Y330200D02*
X669925Y406400D01*
G54D11*
X669925Y355600D02*
X676275Y355600D01*
X676275Y381000D01*
X669925Y381000D01*
G54D11*
X669925Y241300D02*
X730250Y241300D01*
G54D11*
X669925Y317500D02*
X730250Y317500D01*
X730250Y241300D01*
G54D11*
X669925Y241300D02*
X669925Y317500D01*
G54D11*
X669925Y266700D02*
X676275Y266700D01*
X676275Y292100D01*
X669925Y292100D01*
G54D11*
X669925Y152400D02*
X730250Y152400D01*
G54D11*
X669925Y228600D02*
X730250Y228600D01*
X730250Y152400D01*
G54D11*
X669925Y152400D02*
X669925Y228600D01*
G54D11*
X669925Y177800D02*
X676275Y177800D01*
X676275Y203200D01*
X669925Y203200D01*
G54D11*
X849312Y374650D02*
X744538Y374650D01*
X744538Y209550D01*
X849312Y209550D01*
X849312Y374650D01*
G54D11*
X835025Y374650D02*
X835025Y349250D01*
X758825Y349250D01*
X758825Y374650D01*
G54D10*
X816992Y322978D02*
X816992Y328533D01*
X817658Y329644D01*
X818992Y330200D01*
X820325Y330200D01*
X821658Y329644D01*
X822325Y328533D01*
X822325Y322978D01*
X821658Y321867D01*
X820325Y321311D01*
X818992Y321311D01*
X817658Y321867D01*
X816992Y322978D01*
G54D10*
X814548Y330200D02*
X814548Y321311D01*
G54D10*
X814548Y327422D02*
X809215Y321311D01*
G54D10*
X812548Y325756D02*
X809215Y330200D01*
G54D10*
X806771Y330200D02*
X806771Y321311D01*
G54D10*
X804327Y326311D02*
X798994Y326311D01*
G54D10*
X796550Y321311D02*
X791217Y321311D01*
X791883Y322422D01*
X793217Y324089D01*
X794550Y326311D01*
X795217Y327978D01*
X795217Y330200D01*
G54D10*
X785440Y325756D02*
X786773Y325756D01*
X788106Y325200D01*
X788773Y324089D01*
X788773Y322978D01*
X788106Y321867D01*
X786773Y321311D01*
X785440Y321311D01*
X784106Y321867D01*
X783440Y322978D01*
X783440Y324089D01*
X784106Y325200D01*
X785440Y325756D01*
X784106Y326311D01*
X783440Y327422D01*
X783440Y328533D01*
X784106Y329644D01*
X785440Y330200D01*
X786773Y330200D01*
X788106Y329644D01*
X788773Y328533D01*
X788773Y327422D01*
X788106Y326311D01*
X786773Y325756D01*
G54D10*
X780996Y328533D02*
X780329Y329644D01*
X778996Y330200D01*
X777663Y330200D01*
X776329Y329644D01*
X775663Y328533D01*
X775663Y327422D01*
X776329Y326311D01*
X777663Y325756D01*
X778996Y325756D01*
X780329Y325200D01*
X780996Y324089D01*
X780996Y322978D01*
X780329Y321867D01*
X778996Y321311D01*
X777663Y321311D01*
X776329Y321867D01*
X775663Y322978D01*
G54D10*
X770552Y325756D02*
X768552Y326867D01*
X767886Y327978D01*
X767886Y330200D01*
G54D10*
X773219Y330200D02*
X773219Y321311D01*
X769886Y321311D01*
X768552Y321867D01*
X767886Y322978D01*
X767886Y324089D01*
X768552Y325200D01*
X769886Y325756D01*
X773219Y325756D01*
G54D10*
X817388Y335678D02*
X817388Y341233D01*
X818055Y342344D01*
X819388Y342900D01*
X820722Y342900D01*
X822055Y342344D01*
X822722Y341233D01*
X822722Y335678D01*
X822055Y334567D01*
X820722Y334011D01*
X819388Y334011D01*
X818055Y334567D01*
X817388Y335678D01*
G54D10*
X794258Y338456D02*
X791592Y338456D01*
X791592Y341233D01*
X792258Y342344D01*
X793592Y342900D01*
X794925Y342900D01*
X796258Y342344D01*
X796925Y341233D01*
X796925Y335678D01*
X796258Y334567D01*
X794925Y334011D01*
X793592Y334011D01*
X792258Y334567D01*
X791592Y335678D01*
G54D10*
X771525Y342900D02*
X771525Y334011D01*
G54D11*
X963612Y374650D02*
X858838Y374650D01*
X858838Y209550D01*
X963612Y209550D01*
X963612Y374650D01*
G54D11*
X949325Y374650D02*
X949325Y349250D01*
X873125Y349250D01*
X873125Y374650D01*
G54D10*
X931292Y322978D02*
X931292Y328533D01*
X931958Y329644D01*
X933292Y330200D01*
X934625Y330200D01*
X935958Y329644D01*
X936625Y328533D01*
X936625Y322978D01*
X935958Y321867D01*
X934625Y321311D01*
X933292Y321311D01*
X931958Y321867D01*
X931292Y322978D01*
G54D10*
X928848Y330200D02*
X928848Y321311D01*
G54D10*
X928848Y327422D02*
X923515Y321311D01*
G54D10*
X926848Y325756D02*
X923515Y330200D01*
G54D10*
X921071Y330200D02*
X921071Y321311D01*
G54D10*
X918627Y326311D02*
X913294Y326311D01*
G54D10*
X910850Y321311D02*
X905517Y321311D01*
X906183Y322422D01*
X907517Y324089D01*
X908850Y326311D01*
X909517Y327978D01*
X909517Y330200D01*
G54D10*
X899740Y325756D02*
X901073Y325756D01*
X902406Y325200D01*
X903073Y324089D01*
X903073Y322978D01*
X902406Y321867D01*
X901073Y321311D01*
X899740Y321311D01*
X898406Y321867D01*
X897740Y322978D01*
X897740Y324089D01*
X898406Y325200D01*
X899740Y325756D01*
X898406Y326311D01*
X897740Y327422D01*
X897740Y328533D01*
X898406Y329644D01*
X899740Y330200D01*
X901073Y330200D01*
X902406Y329644D01*
X903073Y328533D01*
X903073Y327422D01*
X902406Y326311D01*
X901073Y325756D01*
G54D10*
X895296Y328533D02*
X894629Y329644D01*
X893296Y330200D01*
X891963Y330200D01*
X890629Y329644D01*
X889963Y328533D01*
X889963Y327422D01*
X890629Y326311D01*
X891963Y325756D01*
X893296Y325756D01*
X894629Y325200D01*
X895296Y324089D01*
X895296Y322978D01*
X894629Y321867D01*
X893296Y321311D01*
X891963Y321311D01*
X890629Y321867D01*
X889963Y322978D01*
G54D10*
X884852Y325756D02*
X882852Y326867D01*
X882186Y327978D01*
X882186Y330200D01*
G54D10*
X887519Y330200D02*
X887519Y321311D01*
X884186Y321311D01*
X882852Y321867D01*
X882186Y322978D01*
X882186Y324089D01*
X882852Y325200D01*
X884186Y325756D01*
X887519Y325756D01*
G54D10*
X931688Y335678D02*
X931688Y341233D01*
X932355Y342344D01*
X933688Y342900D01*
X935022Y342900D01*
X936355Y342344D01*
X937022Y341233D01*
X937022Y335678D01*
X936355Y334567D01*
X935022Y334011D01*
X933688Y334011D01*
X932355Y334567D01*
X931688Y335678D01*
G54D10*
X908558Y338456D02*
X905892Y338456D01*
X905892Y341233D01*
X906558Y342344D01*
X907892Y342900D01*
X909225Y342900D01*
X910558Y342344D01*
X911225Y341233D01*
X911225Y335678D01*
X910558Y334567D01*
X909225Y334011D01*
X907892Y334011D01*
X906558Y334567D01*
X905892Y335678D01*
G54D10*
X885825Y342900D02*
X885825Y334011D01*
G54D11*
X735409Y419894D02*
X808434Y419894D01*
X808434Y386556D01*
X735409Y386556D01*
X735409Y419894D01*
G54D11*
X967383Y396081D02*
X967383Y383580D01*
X835819Y383580D01*
X835819Y396081D01*
G54D11*
X967383Y445294D02*
X967383Y523478D01*
X835819Y523478D01*
X835819Y445294D01*
G54D10*
X932499Y408781D02*
X941388Y412114D01*
X932499Y415448D01*
G54D10*
X939721Y423226D02*
X940832Y422559D01*
X941388Y421226D01*
X941388Y419892D01*
X940832Y418559D01*
X939721Y417892D01*
X934165Y417892D01*
X933054Y418559D01*
X932499Y419892D01*
X932499Y421226D01*
X933054Y422559D01*
X934165Y423226D01*
G54D10*
X939721Y431002D02*
X940832Y430336D01*
X941388Y429003D01*
X941388Y427669D01*
X940832Y426336D01*
X939721Y425669D01*
X934165Y425669D01*
X933054Y426336D01*
X932499Y427669D01*
X932499Y429002D01*
X933054Y430336D01*
X934165Y431003D01*
G54D10*
X915988Y408781D02*
X907099Y408781D01*
X907099Y412114D01*
X907654Y413448D01*
X908765Y414115D01*
X914321Y414115D01*
X915432Y413448D01*
X915988Y412115D01*
X915988Y408781D01*
G54D10*
X912099Y416558D02*
X912099Y421892D01*
G54D10*
X896938Y408781D02*
X888049Y408781D01*
X888049Y412114D01*
X888604Y413448D01*
X889715Y414115D01*
X895271Y414115D01*
X896382Y413448D01*
X896938Y412114D01*
X896938Y408781D01*
G54D10*
X893049Y416558D02*
X893049Y421892D01*
G54D10*
X890826Y419225D02*
X895271Y419225D01*
G54D10*
X867093Y411448D02*
X867093Y414115D01*
X869871Y414115D01*
X870982Y413448D01*
X871538Y412115D01*
X871538Y410781D01*
X870982Y409448D01*
X869871Y408781D01*
X864315Y408781D01*
X863204Y409448D01*
X862649Y410781D01*
X862649Y412114D01*
X863204Y413448D01*
X864315Y414115D01*
G54D10*
X871538Y416558D02*
X862649Y416558D01*
X871538Y421892D01*
X862649Y421892D01*
G54D10*
X871538Y424335D02*
X862649Y424335D01*
X862649Y427668D01*
X863204Y429002D01*
X864315Y429668D01*
X869871Y429668D01*
X870982Y429002D01*
X871538Y427668D01*
X871538Y424335D01*
G54D11*
X809625Y514350D02*
X835025Y514350D01*
X835025Y463550D01*
X809625Y463550D01*
X809625Y514350D01*
G54D10*
X889714Y107950D02*
X889714Y102617D01*
G54D10*
X894714Y94840D02*
X894714Y100173D01*
X890825Y100173D01*
X890825Y99506D01*
X891380Y98173D01*
X891380Y96840D01*
X890825Y95506D01*
X889714Y94840D01*
X887492Y94840D01*
X886380Y95506D01*
X885825Y96840D01*
X885825Y98173D01*
X886380Y99506D01*
X887492Y100173D01*
G54D10*
X894714Y92396D02*
X885825Y89063D01*
X894714Y85729D01*
G54D10*
X889714Y83285D02*
X889714Y77952D01*
G54D10*
X891936Y80618D02*
X887492Y80618D01*
G54D11*
X822325Y63500D02*
X882650Y63500D01*
G54D11*
X822325Y139700D02*
X882650Y139700D01*
X882650Y63500D01*
G54D11*
X822325Y63500D02*
X822325Y139700D01*
G54D11*
X822325Y88900D02*
X828675Y88900D01*
X828675Y114300D01*
X822325Y114300D01*
G54D11*
X669925Y63500D02*
X730250Y63500D01*
G54D11*
X669925Y139700D02*
X730250Y139700D01*
X730250Y63500D01*
G54D11*
X669925Y63500D02*
X669925Y139700D01*
G54D11*
X669925Y88900D02*
X676275Y88900D01*
X676275Y114300D01*
X669925Y114300D01*
G54D10*
X738803Y306067D02*
X738803Y300734D01*
G54D10*
X734914Y292957D02*
X734914Y298290D01*
X735469Y298290D01*
X736580Y297624D01*
X739914Y293624D01*
X741025Y292957D01*
X742136Y292957D01*
X743247Y293624D01*
X743803Y294957D01*
X743803Y296290D01*
X743247Y297624D01*
X742136Y298290D01*
G54D10*
X734914Y286513D02*
X743803Y286513D01*
X738247Y290513D01*
X737136Y290513D01*
X737136Y285180D01*
G54D10*
X743803Y282736D02*
X734914Y279403D01*
X743803Y276070D01*
G54D10*
X738803Y273625D02*
X738803Y268292D01*
G54D10*
X741025Y270958D02*
X736580Y270958D01*
G54D12*
X666775Y471600D02*
X666775Y493600D01*
X704775Y493600D01*
X704775Y471600D01*
X666775Y471600D01*
G54D12*
X666775Y497000D02*
X666775Y519000D01*
X704775Y519000D01*
X704775Y497000D01*
X666775Y497000D01*
G54D12*
X793775Y176325D02*
X793775Y198325D01*
X831775Y198325D01*
X831775Y176325D01*
X793775Y176325D01*
G54D12*
X793775Y150925D02*
X793775Y172925D01*
X831775Y172925D01*
X831775Y150925D01*
X793775Y150925D01*
G54D12*
X746150Y150925D02*
X746150Y172925D01*
X784150Y172925D01*
X784150Y150925D01*
X746150Y150925D01*
G54D12*
X746150Y176325D02*
X746150Y198325D01*
X784150Y198325D01*
X784150Y176325D01*
X746150Y176325D01*
G54D11*
X841375Y196850D02*
X892175Y196850D01*
X892175Y171450D01*
X841375Y171450D01*
X841375Y196850D01*
G54D12*
X966875Y371425D02*
X988875Y371425D01*
X988875Y333425D01*
X966875Y333425D01*
X966875Y371425D01*
G54D10*
X884808Y205739D02*
X879475Y205739D01*
X879475Y201850D01*
X880142Y201850D01*
X881475Y202406D01*
X882808Y202406D01*
X884142Y201850D01*
X884808Y200739D01*
X884808Y198517D01*
X884142Y197406D01*
X882808Y196850D01*
X881475Y196850D01*
X880142Y197406D01*
X879475Y198517D01*
G54D10*
X887252Y201850D02*
X889919Y196850D01*
X892585Y201850D01*
G54D10*
X850392Y201294D02*
X853058Y201294D01*
X853058Y198517D01*
X852392Y197406D01*
X851058Y196850D01*
X849725Y196850D01*
X848392Y197406D01*
X847725Y198517D01*
X847725Y204072D01*
X848392Y205183D01*
X849725Y205739D01*
X851058Y205739D01*
X852392Y205183D01*
X853058Y204072D01*
G54D10*
X855502Y196850D02*
X855502Y205739D01*
X860835Y196850D01*
X860835Y205739D01*
G54D10*
X863279Y196850D02*
X863279Y205739D01*
X866612Y205739D01*
X867946Y205183D01*
X868612Y204072D01*
X868612Y198517D01*
X867946Y197406D01*
X866612Y196850D01*
X863279Y196850D01*
G54D10*
X824864Y460375D02*
X815975Y457042D01*
X824864Y453708D01*
G54D10*
X820420Y521208D02*
X820420Y518542D01*
X817642Y518542D01*
X816530Y519208D01*
X815975Y520542D01*
X815975Y521875D01*
X816530Y523208D01*
X817642Y523875D01*
X823197Y523875D01*
X824308Y523208D01*
X824864Y521875D01*
X824864Y520542D01*
X824308Y519208D01*
X823197Y518542D01*
G54D11*
X746125Y63500D02*
X806450Y63500D01*
G54D11*
X746125Y139700D02*
X806450Y139700D01*
X806450Y63500D01*
G54D11*
X746125Y63500D02*
X746125Y139700D01*
G54D11*
X746125Y88900D02*
X752475Y88900D01*
X752475Y114300D01*
X746125Y114300D01*
G54D10*
X813514Y120650D02*
X813514Y115317D01*
G54D10*
X818514Y107540D02*
X818514Y112873D01*
X814625Y112873D01*
X814625Y112206D01*
X815180Y110873D01*
X815180Y109540D01*
X814625Y108206D01*
X813514Y107540D01*
X811292Y107540D01*
X810180Y108206D01*
X809625Y109540D01*
X809625Y110873D01*
X810180Y112206D01*
X811292Y112873D01*
G54D10*
X818514Y105096D02*
X809625Y101763D01*
X818514Y98429D01*
G54D10*
X813514Y95985D02*
X813514Y90652D01*
G54D10*
X815736Y93318D02*
X811292Y93318D01*
G54D11*
X894835Y75011D02*
X978179Y75011D01*
X978179Y158355D01*
X894835Y158355D01*
X894835Y75011D01*
G54D11*
G75*
G01X896507Y116683D02*
G03X896507Y116683I40000J0D01*
G01*
G54D10*
X916663Y98110D02*
X911330Y98110D01*
G54D10*
X914282Y137003D02*
X908949Y137003D01*
G54D10*
X911615Y134781D02*
X911615Y139226D01*
G54D12*
X850925Y144575D02*
X850925Y166575D01*
X888925Y166575D01*
X888925Y144575D01*
X850925Y144575D01*
G54D11*
X707430Y417711D02*
X664170Y417711D01*
X664170Y460970D01*
X707430Y460970D01*
X707430Y417711D01*
G54D11*
G75*
G01X665830Y439558D02*
G03X665830Y439558I20000J0D01*
G01*
G54D10*
X678855Y429697D02*
X673521Y429697D01*
G54D10*
X676188Y427475D02*
X676188Y431919D01*
G54D10*
X678458Y449938D02*
X673124Y449938D01*
G54D11*
X923925Y196850D02*
X974725Y196850D01*
X974725Y171450D01*
X923925Y171450D01*
X923925Y196850D01*
G54D10*
X955167Y201294D02*
X957833Y201294D01*
X957833Y198517D01*
X957167Y197406D01*
X955833Y196850D01*
X954500Y196850D01*
X953167Y197406D01*
X952500Y198517D01*
X952500Y204072D01*
X953167Y205183D01*
X954500Y205739D01*
X955833Y205739D01*
X957167Y205183D01*
X957833Y204072D01*
G54D10*
X960277Y196850D02*
X960277Y205739D01*
X965610Y196850D01*
X965610Y205739D01*
G54D10*
X968054Y196850D02*
X968054Y205739D01*
X971387Y205739D01*
X972721Y205183D01*
X973387Y204072D01*
X973387Y198517D01*
X972721Y197406D01*
X971387Y196850D01*
X968054Y196850D01*
G54D10*
X932433Y205739D02*
X927100Y205739D01*
X927100Y201850D01*
X927767Y201850D01*
X929100Y202406D01*
X930433Y202406D01*
X931767Y201850D01*
X932433Y200739D01*
X932433Y198517D01*
X931767Y197406D01*
X930433Y196850D01*
X929100Y196850D01*
X927767Y197406D01*
X927100Y198517D01*
G54D10*
X934877Y201850D02*
X937544Y196850D01*
X940210Y201850D01*
M02*
