%FSLAX34Y34*%
%MOMM*%
%LNSOLDERMASK_TOP*%
G71*
G01*
%ADD10C, 2.40*%
%ADD11R, 1.98X3.35*%
%ADD12C, 2.40*%
%ADD13R, 1.50X1.80*%
%ADD14R, 1.80X1.50*%
%ADD15R, 2.20X4.20*%
%ADD16R, 2.20X4.70*%
%ADD17R, 1.00X2.20*%
%LPD*%
G36*
X141825Y938680D02*
X131295Y928150D01*
X116355Y928150D01*
X105825Y938680D01*
X105825Y953620D01*
X116355Y964150D01*
X131295Y964150D01*
X141825Y953620D01*
X141825Y938680D01*
G37*
G36*
X91025Y938680D02*
X80495Y928150D01*
X65555Y928150D01*
X55025Y938680D01*
X55025Y953620D01*
X65555Y964150D01*
X80495Y964150D01*
X91025Y953620D01*
X91025Y938680D01*
G37*
X34925Y825500D02*
G54D10*
D03*
X34925Y850900D02*
G54D10*
D03*
X34925Y736600D02*
G54D10*
D03*
X34925Y762000D02*
G54D10*
D03*
X34925Y647700D02*
G54D10*
D03*
X34925Y673100D02*
G54D10*
D03*
G36*
X55025Y953620D02*
X65555Y964150D01*
X80495Y964150D01*
X91025Y953620D01*
X91025Y938680D01*
X80495Y928150D01*
X65555Y928150D01*
X55025Y938680D01*
X55025Y953620D01*
G37*
X34925Y850900D02*
G54D10*
D03*
X34925Y762000D02*
G54D10*
D03*
X34925Y673100D02*
G54D10*
D03*
X206375Y863600D02*
G54D10*
D03*
G36*
X173925Y826870D02*
X166905Y819850D01*
X156945Y819850D01*
X149925Y826870D01*
X149925Y836830D01*
X156945Y843850D01*
X166905Y843850D01*
X173925Y836830D01*
X173925Y826870D01*
G37*
G36*
X148525Y826870D02*
X141505Y819850D01*
X131545Y819850D01*
X124525Y826870D01*
X124525Y836830D01*
X131545Y843850D01*
X141505Y843850D01*
X148525Y836830D01*
X148525Y826870D01*
G37*
G36*
X123125Y826870D02*
X116105Y819850D01*
X106145Y819850D01*
X99125Y826870D01*
X99125Y836830D01*
X106145Y843850D01*
X116105Y843850D01*
X123125Y836830D01*
X123125Y826870D01*
G37*
G36*
X288225Y826870D02*
X281205Y819850D01*
X271245Y819850D01*
X264225Y826870D01*
X264225Y836830D01*
X271245Y843850D01*
X281205Y843850D01*
X288225Y836830D01*
X288225Y826870D01*
G37*
G36*
X262825Y826870D02*
X255805Y819850D01*
X245845Y819850D01*
X238825Y826870D01*
X238825Y836830D01*
X245845Y843850D01*
X255805Y843850D01*
X262825Y836830D01*
X262825Y826870D01*
G37*
G36*
X237425Y826870D02*
X230405Y819850D01*
X220445Y819850D01*
X213425Y826870D01*
X213425Y836830D01*
X220445Y843850D01*
X230405Y843850D01*
X237425Y836830D01*
X237425Y826870D01*
G37*
G36*
X148525Y826870D02*
X141505Y819850D01*
X131545Y819850D01*
X124525Y826870D01*
X124525Y836830D01*
X131545Y843850D01*
X141505Y843850D01*
X148525Y836830D01*
X148525Y826870D01*
G37*
G36*
X262825Y826870D02*
X255805Y819850D01*
X245845Y819850D01*
X238825Y826870D01*
X238825Y836830D01*
X245845Y843850D01*
X255805Y843850D01*
X262825Y836830D01*
X262825Y826870D01*
G37*
X137716Y873125D02*
G54D11*
D03*
X85725Y873125D02*
G54D11*
D03*
G36*
X73725Y878105D02*
X80745Y885125D01*
X90705Y885125D01*
X97725Y878105D01*
X97725Y868145D01*
X90705Y861125D01*
X80745Y861125D01*
X73725Y868145D01*
X73725Y878105D01*
G37*
X276225Y863600D02*
G54D10*
D03*
X251222Y863600D02*
G54D10*
D03*
X231378Y863600D02*
G54D10*
D03*
X206375Y863600D02*
G54D10*
D03*
G36*
X329983Y881042D02*
X316528Y867587D01*
X297438Y867587D01*
X283983Y881042D01*
X283983Y900132D01*
X297438Y913587D01*
X316528Y913587D01*
X329983Y900132D01*
X329983Y881042D01*
G37*
G36*
X198419Y881042D02*
X184964Y867587D01*
X165874Y867587D01*
X152419Y881042D01*
X152419Y900132D01*
X165874Y913587D01*
X184964Y913587D01*
X198419Y900132D01*
X198419Y881042D01*
G37*
X161925Y971550D02*
G54D12*
D03*
X161925Y946150D02*
G54D12*
D03*
X187325Y558800D02*
G54D10*
D03*
X187325Y584200D02*
G54D10*
D03*
X187325Y584200D02*
G54D10*
D03*
X34925Y558800D02*
G54D10*
D03*
X34925Y584200D02*
G54D10*
D03*
X34925Y584200D02*
G54D10*
D03*
X15875Y952500D02*
G54D13*
D03*
X34875Y952500D02*
G54D13*
D03*
X15875Y977900D02*
G54D13*
D03*
X34875Y977900D02*
G54D13*
D03*
X142875Y657225D02*
G54D13*
D03*
X161875Y657225D02*
G54D13*
D03*
X142875Y631825D02*
G54D13*
D03*
X161875Y631825D02*
G54D13*
D03*
X95250Y631825D02*
G54D13*
D03*
X114250Y631825D02*
G54D13*
D03*
X193675Y654050D02*
G54D12*
D03*
X219075Y654050D02*
G54D12*
D03*
X95250Y657225D02*
G54D13*
D03*
X114250Y657225D02*
G54D13*
D03*
X317475Y831825D02*
G54D14*
D03*
X317475Y812825D02*
G54D14*
D03*
X111125Y558800D02*
G54D10*
D03*
X111125Y584200D02*
G54D10*
D03*
X111125Y584200D02*
G54D10*
D03*
X276107Y559595D02*
G54D15*
D03*
X276107Y613570D02*
G54D15*
D03*
X276107Y557214D02*
G54D16*
D03*
X276107Y616348D02*
G54D16*
D03*
X200025Y625475D02*
G54D13*
D03*
X219025Y625475D02*
G54D13*
D03*
X25400Y892175D02*
G54D17*
D03*
X25400Y926505D02*
G54D17*
D03*
X276225Y654050D02*
G54D12*
D03*
X298455Y654050D02*
G54D12*
D03*
G36*
X472025Y938680D02*
X461495Y928150D01*
X446555Y928150D01*
X436025Y938680D01*
X436025Y953620D01*
X446555Y964150D01*
X461495Y964150D01*
X472025Y953620D01*
X472025Y938680D01*
G37*
G36*
X421225Y938680D02*
X410695Y928150D01*
X395755Y928150D01*
X385225Y938680D01*
X385225Y953620D01*
X395755Y964150D01*
X410695Y964150D01*
X421225Y953620D01*
X421225Y938680D01*
G37*
X365125Y825500D02*
G54D10*
D03*
X365125Y850900D02*
G54D10*
D03*
X365125Y736600D02*
G54D10*
D03*
X365125Y762000D02*
G54D10*
D03*
X365125Y647700D02*
G54D10*
D03*
X365125Y673100D02*
G54D10*
D03*
G36*
X385225Y953620D02*
X395755Y964150D01*
X410695Y964150D01*
X421225Y953620D01*
X421225Y938680D01*
X410695Y928150D01*
X395755Y928150D01*
X385225Y938680D01*
X385225Y953620D01*
G37*
X365125Y850900D02*
G54D10*
D03*
X365125Y762000D02*
G54D10*
D03*
X365125Y673100D02*
G54D10*
D03*
X536575Y863600D02*
G54D10*
D03*
G36*
X504125Y826870D02*
X497105Y819850D01*
X487145Y819850D01*
X480125Y826870D01*
X480125Y836830D01*
X487145Y843850D01*
X497105Y843850D01*
X504125Y836830D01*
X504125Y826870D01*
G37*
G36*
X478725Y826870D02*
X471705Y819850D01*
X461745Y819850D01*
X454725Y826870D01*
X454725Y836830D01*
X461745Y843850D01*
X471705Y843850D01*
X478725Y836830D01*
X478725Y826870D01*
G37*
G36*
X453325Y826870D02*
X446305Y819850D01*
X436345Y819850D01*
X429325Y826870D01*
X429325Y836830D01*
X436345Y843850D01*
X446305Y843850D01*
X453325Y836830D01*
X453325Y826870D01*
G37*
G36*
X618425Y826870D02*
X611405Y819850D01*
X601445Y819850D01*
X594425Y826870D01*
X594425Y836830D01*
X601445Y843850D01*
X611405Y843850D01*
X618425Y836830D01*
X618425Y826870D01*
G37*
G36*
X593025Y826870D02*
X586005Y819850D01*
X576045Y819850D01*
X569025Y826870D01*
X569025Y836830D01*
X576045Y843850D01*
X586005Y843850D01*
X593025Y836830D01*
X593025Y826870D01*
G37*
G36*
X567625Y826870D02*
X560605Y819850D01*
X550645Y819850D01*
X543625Y826870D01*
X543625Y836830D01*
X550645Y843850D01*
X560605Y843850D01*
X567625Y836830D01*
X567625Y826870D01*
G37*
G36*
X478725Y826870D02*
X471705Y819850D01*
X461745Y819850D01*
X454725Y826870D01*
X454725Y836830D01*
X461745Y843850D01*
X471705Y843850D01*
X478725Y836830D01*
X478725Y826870D01*
G37*
G36*
X593025Y826870D02*
X586005Y819850D01*
X576045Y819850D01*
X569025Y826870D01*
X569025Y836830D01*
X576045Y843850D01*
X586005Y843850D01*
X593025Y836830D01*
X593025Y826870D01*
G37*
X467916Y873125D02*
G54D11*
D03*
X415925Y873125D02*
G54D11*
D03*
G36*
X403925Y878105D02*
X410945Y885125D01*
X420905Y885125D01*
X427925Y878105D01*
X427925Y868145D01*
X420905Y861125D01*
X410945Y861125D01*
X403925Y868145D01*
X403925Y878105D01*
G37*
X606425Y863600D02*
G54D10*
D03*
X581422Y863600D02*
G54D10*
D03*
X561578Y863600D02*
G54D10*
D03*
X536575Y863600D02*
G54D10*
D03*
G36*
X660183Y881042D02*
X646728Y867587D01*
X627638Y867587D01*
X614183Y881042D01*
X614183Y900132D01*
X627638Y913587D01*
X646728Y913587D01*
X660183Y900132D01*
X660183Y881042D01*
G37*
G36*
X528619Y881042D02*
X515164Y867587D01*
X496074Y867587D01*
X482619Y881042D01*
X482619Y900132D01*
X496074Y913587D01*
X515164Y913587D01*
X528619Y900132D01*
X528619Y881042D01*
G37*
X492125Y971550D02*
G54D12*
D03*
X492125Y946150D02*
G54D12*
D03*
X517525Y558800D02*
G54D10*
D03*
X517525Y584200D02*
G54D10*
D03*
X517525Y584200D02*
G54D10*
D03*
X365125Y558800D02*
G54D10*
D03*
X365125Y584200D02*
G54D10*
D03*
X365125Y584200D02*
G54D10*
D03*
X346075Y952500D02*
G54D13*
D03*
X365075Y952500D02*
G54D13*
D03*
X346075Y977900D02*
G54D13*
D03*
X365075Y977900D02*
G54D13*
D03*
X473075Y657225D02*
G54D13*
D03*
X492075Y657225D02*
G54D13*
D03*
X473075Y631825D02*
G54D13*
D03*
X492075Y631825D02*
G54D13*
D03*
X425450Y631825D02*
G54D13*
D03*
X444450Y631825D02*
G54D13*
D03*
X523875Y654050D02*
G54D12*
D03*
X549275Y654050D02*
G54D12*
D03*
X425450Y657225D02*
G54D13*
D03*
X444450Y657225D02*
G54D13*
D03*
X647675Y831825D02*
G54D14*
D03*
X647675Y812825D02*
G54D14*
D03*
X441325Y558800D02*
G54D10*
D03*
X441325Y584200D02*
G54D10*
D03*
X441325Y584200D02*
G54D10*
D03*
X606307Y559595D02*
G54D15*
D03*
X606307Y613570D02*
G54D15*
D03*
X606307Y557214D02*
G54D16*
D03*
X606307Y616348D02*
G54D16*
D03*
X530225Y625475D02*
G54D13*
D03*
X549225Y625475D02*
G54D13*
D03*
X355600Y892175D02*
G54D17*
D03*
X355600Y926505D02*
G54D17*
D03*
X606425Y654050D02*
G54D12*
D03*
X628655Y654050D02*
G54D12*
D03*
G36*
X802225Y938680D02*
X791695Y928150D01*
X776755Y928150D01*
X766225Y938680D01*
X766225Y953620D01*
X776755Y964150D01*
X791695Y964150D01*
X802225Y953620D01*
X802225Y938680D01*
G37*
G36*
X751425Y938680D02*
X740895Y928150D01*
X725955Y928150D01*
X715425Y938680D01*
X715425Y953620D01*
X725955Y964150D01*
X740895Y964150D01*
X751425Y953620D01*
X751425Y938680D01*
G37*
X695325Y825500D02*
G54D10*
D03*
X695325Y850900D02*
G54D10*
D03*
X695325Y736600D02*
G54D10*
D03*
X695325Y762000D02*
G54D10*
D03*
X695325Y647700D02*
G54D10*
D03*
X695325Y673100D02*
G54D10*
D03*
G36*
X715425Y953620D02*
X725955Y964150D01*
X740895Y964150D01*
X751425Y953620D01*
X751425Y938680D01*
X740895Y928150D01*
X725955Y928150D01*
X715425Y938680D01*
X715425Y953620D01*
G37*
X695325Y850900D02*
G54D10*
D03*
X695325Y762000D02*
G54D10*
D03*
X695325Y673100D02*
G54D10*
D03*
X866775Y863600D02*
G54D10*
D03*
G36*
X834325Y826870D02*
X827305Y819850D01*
X817345Y819850D01*
X810325Y826870D01*
X810325Y836830D01*
X817345Y843850D01*
X827305Y843850D01*
X834325Y836830D01*
X834325Y826870D01*
G37*
G36*
X808925Y826870D02*
X801905Y819850D01*
X791945Y819850D01*
X784925Y826870D01*
X784925Y836830D01*
X791945Y843850D01*
X801905Y843850D01*
X808925Y836830D01*
X808925Y826870D01*
G37*
G36*
X783525Y826870D02*
X776505Y819850D01*
X766545Y819850D01*
X759525Y826870D01*
X759525Y836830D01*
X766545Y843850D01*
X776505Y843850D01*
X783525Y836830D01*
X783525Y826870D01*
G37*
G36*
X948625Y826870D02*
X941605Y819850D01*
X931645Y819850D01*
X924625Y826870D01*
X924625Y836830D01*
X931645Y843850D01*
X941605Y843850D01*
X948625Y836830D01*
X948625Y826870D01*
G37*
G36*
X923225Y826870D02*
X916205Y819850D01*
X906245Y819850D01*
X899225Y826870D01*
X899225Y836830D01*
X906245Y843850D01*
X916205Y843850D01*
X923225Y836830D01*
X923225Y826870D01*
G37*
G36*
X897825Y826870D02*
X890805Y819850D01*
X880845Y819850D01*
X873825Y826870D01*
X873825Y836830D01*
X880845Y843850D01*
X890805Y843850D01*
X897825Y836830D01*
X897825Y826870D01*
G37*
G36*
X808925Y826870D02*
X801905Y819850D01*
X791945Y819850D01*
X784925Y826870D01*
X784925Y836830D01*
X791945Y843850D01*
X801905Y843850D01*
X808925Y836830D01*
X808925Y826870D01*
G37*
G36*
X923225Y826870D02*
X916205Y819850D01*
X906245Y819850D01*
X899225Y826870D01*
X899225Y836830D01*
X906245Y843850D01*
X916205Y843850D01*
X923225Y836830D01*
X923225Y826870D01*
G37*
X798116Y873125D02*
G54D11*
D03*
X746125Y873125D02*
G54D11*
D03*
G36*
X734125Y878105D02*
X741145Y885125D01*
X751105Y885125D01*
X758125Y878105D01*
X758125Y868145D01*
X751105Y861125D01*
X741145Y861125D01*
X734125Y868145D01*
X734125Y878105D01*
G37*
X936625Y863600D02*
G54D10*
D03*
X911622Y863600D02*
G54D10*
D03*
X891778Y863600D02*
G54D10*
D03*
X866775Y863600D02*
G54D10*
D03*
G36*
X990383Y881042D02*
X976928Y867587D01*
X957838Y867587D01*
X944383Y881042D01*
X944383Y900132D01*
X957838Y913587D01*
X976928Y913587D01*
X990383Y900132D01*
X990383Y881042D01*
G37*
G36*
X858819Y881042D02*
X845364Y867587D01*
X826274Y867587D01*
X812819Y881042D01*
X812819Y900132D01*
X826274Y913587D01*
X845364Y913587D01*
X858819Y900132D01*
X858819Y881042D01*
G37*
X822325Y971550D02*
G54D12*
D03*
X822325Y946150D02*
G54D12*
D03*
X847725Y558800D02*
G54D10*
D03*
X847725Y584200D02*
G54D10*
D03*
X847725Y584200D02*
G54D10*
D03*
X695325Y558800D02*
G54D10*
D03*
X695325Y584200D02*
G54D10*
D03*
X695325Y584200D02*
G54D10*
D03*
X676275Y952500D02*
G54D13*
D03*
X695275Y952500D02*
G54D13*
D03*
X676275Y977900D02*
G54D13*
D03*
X695275Y977900D02*
G54D13*
D03*
X803275Y657225D02*
G54D13*
D03*
X822275Y657225D02*
G54D13*
D03*
X803275Y631825D02*
G54D13*
D03*
X822275Y631825D02*
G54D13*
D03*
X755650Y631825D02*
G54D13*
D03*
X774650Y631825D02*
G54D13*
D03*
X854075Y654050D02*
G54D12*
D03*
X879475Y654050D02*
G54D12*
D03*
X755650Y657225D02*
G54D13*
D03*
X774650Y657225D02*
G54D13*
D03*
X977875Y831825D02*
G54D14*
D03*
X977875Y812825D02*
G54D14*
D03*
X771525Y558800D02*
G54D10*
D03*
X771525Y584200D02*
G54D10*
D03*
X771525Y584200D02*
G54D10*
D03*
X936507Y559595D02*
G54D15*
D03*
X936507Y613570D02*
G54D15*
D03*
X936507Y557214D02*
G54D16*
D03*
X936507Y616348D02*
G54D16*
D03*
X860425Y625475D02*
G54D13*
D03*
X879425Y625475D02*
G54D13*
D03*
X685800Y892175D02*
G54D17*
D03*
X685800Y926505D02*
G54D17*
D03*
X936625Y654050D02*
G54D12*
D03*
X958855Y654050D02*
G54D12*
D03*
G36*
X141825Y468780D02*
X131295Y458250D01*
X116355Y458250D01*
X105825Y468780D01*
X105825Y483720D01*
X116355Y494250D01*
X131295Y494250D01*
X141825Y483720D01*
X141825Y468780D01*
G37*
G36*
X91025Y468780D02*
X80495Y458250D01*
X65555Y458250D01*
X55025Y468780D01*
X55025Y483720D01*
X65555Y494250D01*
X80495Y494250D01*
X91025Y483720D01*
X91025Y468780D01*
G37*
X34925Y355600D02*
G54D10*
D03*
X34925Y381000D02*
G54D10*
D03*
X34925Y266700D02*
G54D10*
D03*
X34925Y292100D02*
G54D10*
D03*
X34925Y177800D02*
G54D10*
D03*
X34925Y203200D02*
G54D10*
D03*
G36*
X55025Y483720D02*
X65555Y494250D01*
X80495Y494250D01*
X91025Y483720D01*
X91025Y468780D01*
X80495Y458250D01*
X65555Y458250D01*
X55025Y468780D01*
X55025Y483720D01*
G37*
X34925Y381000D02*
G54D10*
D03*
X34925Y292100D02*
G54D10*
D03*
X34925Y203200D02*
G54D10*
D03*
X206375Y393700D02*
G54D10*
D03*
G36*
X173925Y356970D02*
X166905Y349950D01*
X156945Y349950D01*
X149925Y356970D01*
X149925Y366930D01*
X156945Y373950D01*
X166905Y373950D01*
X173925Y366930D01*
X173925Y356970D01*
G37*
G36*
X148525Y356970D02*
X141505Y349950D01*
X131545Y349950D01*
X124525Y356970D01*
X124525Y366930D01*
X131545Y373950D01*
X141505Y373950D01*
X148525Y366930D01*
X148525Y356970D01*
G37*
G36*
X123125Y356970D02*
X116105Y349950D01*
X106145Y349950D01*
X99125Y356970D01*
X99125Y366930D01*
X106145Y373950D01*
X116105Y373950D01*
X123125Y366930D01*
X123125Y356970D01*
G37*
G36*
X288225Y356970D02*
X281205Y349950D01*
X271245Y349950D01*
X264225Y356970D01*
X264225Y366930D01*
X271245Y373950D01*
X281205Y373950D01*
X288225Y366930D01*
X288225Y356970D01*
G37*
G36*
X262825Y356970D02*
X255805Y349950D01*
X245845Y349950D01*
X238825Y356970D01*
X238825Y366930D01*
X245845Y373950D01*
X255805Y373950D01*
X262825Y366930D01*
X262825Y356970D01*
G37*
G36*
X237425Y356970D02*
X230405Y349950D01*
X220445Y349950D01*
X213425Y356970D01*
X213425Y366930D01*
X220445Y373950D01*
X230405Y373950D01*
X237425Y366930D01*
X237425Y356970D01*
G37*
G36*
X148525Y356970D02*
X141505Y349950D01*
X131545Y349950D01*
X124525Y356970D01*
X124525Y366930D01*
X131545Y373950D01*
X141505Y373950D01*
X148525Y366930D01*
X148525Y356970D01*
G37*
G36*
X262825Y356970D02*
X255805Y349950D01*
X245845Y349950D01*
X238825Y356970D01*
X238825Y366930D01*
X245845Y373950D01*
X255805Y373950D01*
X262825Y366930D01*
X262825Y356970D01*
G37*
X137716Y403225D02*
G54D11*
D03*
X85725Y403225D02*
G54D11*
D03*
G36*
X73725Y408205D02*
X80745Y415225D01*
X90705Y415225D01*
X97725Y408205D01*
X97725Y398245D01*
X90705Y391225D01*
X80745Y391225D01*
X73725Y398245D01*
X73725Y408205D01*
G37*
X276225Y393700D02*
G54D10*
D03*
X251222Y393700D02*
G54D10*
D03*
X231378Y393700D02*
G54D10*
D03*
X206375Y393700D02*
G54D10*
D03*
G36*
X329983Y411142D02*
X316528Y397688D01*
X297438Y397688D01*
X283983Y411142D01*
X283983Y430232D01*
X297438Y443688D01*
X316528Y443688D01*
X329983Y430232D01*
X329983Y411142D01*
G37*
G36*
X198419Y411142D02*
X184964Y397687D01*
X165874Y397687D01*
X152419Y411142D01*
X152419Y430232D01*
X165874Y443687D01*
X184964Y443687D01*
X198419Y430232D01*
X198419Y411142D01*
G37*
X161925Y501650D02*
G54D12*
D03*
X161925Y476250D02*
G54D12*
D03*
X187325Y88900D02*
G54D10*
D03*
X187325Y114300D02*
G54D10*
D03*
X187325Y114300D02*
G54D10*
D03*
X34925Y88900D02*
G54D10*
D03*
X34925Y114300D02*
G54D10*
D03*
X34925Y114300D02*
G54D10*
D03*
X15875Y482600D02*
G54D13*
D03*
X34875Y482600D02*
G54D13*
D03*
X15875Y508000D02*
G54D13*
D03*
X34875Y508000D02*
G54D13*
D03*
X142875Y187325D02*
G54D13*
D03*
X161875Y187325D02*
G54D13*
D03*
X142875Y161925D02*
G54D13*
D03*
X161875Y161925D02*
G54D13*
D03*
X95250Y161925D02*
G54D13*
D03*
X114250Y161925D02*
G54D13*
D03*
X193675Y184150D02*
G54D12*
D03*
X219075Y184150D02*
G54D12*
D03*
X95250Y187325D02*
G54D13*
D03*
X114250Y187325D02*
G54D13*
D03*
X317475Y361925D02*
G54D14*
D03*
X317475Y342925D02*
G54D14*
D03*
X111125Y88900D02*
G54D10*
D03*
X111125Y114300D02*
G54D10*
D03*
X111125Y114300D02*
G54D10*
D03*
X276107Y89695D02*
G54D15*
D03*
X276107Y143670D02*
G54D15*
D03*
X276107Y87314D02*
G54D16*
D03*
X276107Y146448D02*
G54D16*
D03*
X200025Y155575D02*
G54D13*
D03*
X219025Y155575D02*
G54D13*
D03*
X25400Y422275D02*
G54D17*
D03*
X25400Y456605D02*
G54D17*
D03*
X276225Y184150D02*
G54D12*
D03*
X298455Y184150D02*
G54D12*
D03*
G36*
X472025Y468780D02*
X461495Y458250D01*
X446555Y458250D01*
X436025Y468780D01*
X436025Y483720D01*
X446555Y494250D01*
X461495Y494250D01*
X472025Y483720D01*
X472025Y468780D01*
G37*
G36*
X421225Y468780D02*
X410695Y458250D01*
X395755Y458250D01*
X385225Y468780D01*
X385225Y483720D01*
X395755Y494250D01*
X410695Y494250D01*
X421225Y483720D01*
X421225Y468780D01*
G37*
X365125Y355600D02*
G54D10*
D03*
X365125Y381000D02*
G54D10*
D03*
X365125Y266700D02*
G54D10*
D03*
X365125Y292100D02*
G54D10*
D03*
X365125Y177800D02*
G54D10*
D03*
X365125Y203200D02*
G54D10*
D03*
G36*
X385225Y483720D02*
X395755Y494250D01*
X410695Y494250D01*
X421225Y483720D01*
X421225Y468780D01*
X410695Y458250D01*
X395755Y458250D01*
X385225Y468780D01*
X385225Y483720D01*
G37*
X365125Y381000D02*
G54D10*
D03*
X365125Y292100D02*
G54D10*
D03*
X365125Y203200D02*
G54D10*
D03*
X536575Y393700D02*
G54D10*
D03*
G36*
X504125Y356970D02*
X497105Y349950D01*
X487145Y349950D01*
X480125Y356970D01*
X480125Y366930D01*
X487145Y373950D01*
X497105Y373950D01*
X504125Y366930D01*
X504125Y356970D01*
G37*
G36*
X478725Y356970D02*
X471705Y349950D01*
X461745Y349950D01*
X454725Y356970D01*
X454725Y366930D01*
X461745Y373950D01*
X471705Y373950D01*
X478725Y366930D01*
X478725Y356970D01*
G37*
G36*
X453325Y356970D02*
X446305Y349950D01*
X436345Y349950D01*
X429325Y356970D01*
X429325Y366930D01*
X436345Y373950D01*
X446305Y373950D01*
X453325Y366930D01*
X453325Y356970D01*
G37*
G36*
X618425Y356970D02*
X611405Y349950D01*
X601445Y349950D01*
X594425Y356970D01*
X594425Y366930D01*
X601445Y373950D01*
X611405Y373950D01*
X618425Y366930D01*
X618425Y356970D01*
G37*
G36*
X593025Y356970D02*
X586005Y349950D01*
X576045Y349950D01*
X569025Y356970D01*
X569025Y366930D01*
X576045Y373950D01*
X586005Y373950D01*
X593025Y366930D01*
X593025Y356970D01*
G37*
G36*
X567625Y356970D02*
X560605Y349950D01*
X550645Y349950D01*
X543625Y356970D01*
X543625Y366930D01*
X550645Y373950D01*
X560605Y373950D01*
X567625Y366930D01*
X567625Y356970D01*
G37*
G36*
X478725Y356970D02*
X471705Y349950D01*
X461745Y349950D01*
X454725Y356970D01*
X454725Y366930D01*
X461745Y373950D01*
X471705Y373950D01*
X478725Y366930D01*
X478725Y356970D01*
G37*
G36*
X593025Y356970D02*
X586005Y349950D01*
X576045Y349950D01*
X569025Y356970D01*
X569025Y366930D01*
X576045Y373950D01*
X586005Y373950D01*
X593025Y366930D01*
X593025Y356970D01*
G37*
X467916Y403225D02*
G54D11*
D03*
X415925Y403225D02*
G54D11*
D03*
G36*
X403925Y408205D02*
X410945Y415225D01*
X420905Y415225D01*
X427925Y408205D01*
X427925Y398245D01*
X420905Y391225D01*
X410945Y391225D01*
X403925Y398245D01*
X403925Y408205D01*
G37*
X606425Y393700D02*
G54D10*
D03*
X581422Y393700D02*
G54D10*
D03*
X561578Y393700D02*
G54D10*
D03*
X536575Y393700D02*
G54D10*
D03*
G36*
X660183Y411142D02*
X646728Y397688D01*
X627638Y397688D01*
X614183Y411142D01*
X614183Y430232D01*
X627638Y443688D01*
X646728Y443688D01*
X660183Y430232D01*
X660183Y411142D01*
G37*
G36*
X528619Y411142D02*
X515164Y397687D01*
X496074Y397687D01*
X482619Y411142D01*
X482619Y430232D01*
X496074Y443687D01*
X515164Y443687D01*
X528619Y430232D01*
X528619Y411142D01*
G37*
X492125Y501650D02*
G54D12*
D03*
X492125Y476250D02*
G54D12*
D03*
X517525Y88900D02*
G54D10*
D03*
X517525Y114300D02*
G54D10*
D03*
X517525Y114300D02*
G54D10*
D03*
X365125Y88900D02*
G54D10*
D03*
X365125Y114300D02*
G54D10*
D03*
X365125Y114300D02*
G54D10*
D03*
X346075Y482600D02*
G54D13*
D03*
X365075Y482600D02*
G54D13*
D03*
X346075Y508000D02*
G54D13*
D03*
X365075Y508000D02*
G54D13*
D03*
X473075Y187325D02*
G54D13*
D03*
X492075Y187325D02*
G54D13*
D03*
X473075Y161925D02*
G54D13*
D03*
X492075Y161925D02*
G54D13*
D03*
X425450Y161925D02*
G54D13*
D03*
X444450Y161925D02*
G54D13*
D03*
X523875Y184150D02*
G54D12*
D03*
X549275Y184150D02*
G54D12*
D03*
X425450Y187325D02*
G54D13*
D03*
X444450Y187325D02*
G54D13*
D03*
X647675Y361925D02*
G54D14*
D03*
X647675Y342925D02*
G54D14*
D03*
X441325Y88900D02*
G54D10*
D03*
X441325Y114300D02*
G54D10*
D03*
X441325Y114300D02*
G54D10*
D03*
X606307Y89695D02*
G54D15*
D03*
X606307Y143670D02*
G54D15*
D03*
X606307Y87314D02*
G54D16*
D03*
X606307Y146448D02*
G54D16*
D03*
X530225Y155575D02*
G54D13*
D03*
X549225Y155575D02*
G54D13*
D03*
X355600Y422275D02*
G54D17*
D03*
X355600Y456605D02*
G54D17*
D03*
X606425Y184150D02*
G54D12*
D03*
X628655Y184150D02*
G54D12*
D03*
G36*
X802225Y468780D02*
X791695Y458250D01*
X776755Y458250D01*
X766225Y468780D01*
X766225Y483720D01*
X776755Y494250D01*
X791695Y494250D01*
X802225Y483720D01*
X802225Y468780D01*
G37*
G36*
X751425Y468780D02*
X740895Y458250D01*
X725955Y458250D01*
X715425Y468780D01*
X715425Y483720D01*
X725955Y494250D01*
X740895Y494250D01*
X751425Y483720D01*
X751425Y468780D01*
G37*
X695325Y355600D02*
G54D10*
D03*
X695325Y381000D02*
G54D10*
D03*
X695325Y266700D02*
G54D10*
D03*
X695325Y292100D02*
G54D10*
D03*
X695325Y177800D02*
G54D10*
D03*
X695325Y203200D02*
G54D10*
D03*
G36*
X715425Y483720D02*
X725955Y494250D01*
X740895Y494250D01*
X751425Y483720D01*
X751425Y468780D01*
X740895Y458250D01*
X725955Y458250D01*
X715425Y468780D01*
X715425Y483720D01*
G37*
X695325Y381000D02*
G54D10*
D03*
X695325Y292100D02*
G54D10*
D03*
X695325Y203200D02*
G54D10*
D03*
X866775Y393700D02*
G54D10*
D03*
G36*
X834325Y356970D02*
X827305Y349950D01*
X817345Y349950D01*
X810325Y356970D01*
X810325Y366930D01*
X817345Y373950D01*
X827305Y373950D01*
X834325Y366930D01*
X834325Y356970D01*
G37*
G36*
X808925Y356970D02*
X801905Y349950D01*
X791945Y349950D01*
X784925Y356970D01*
X784925Y366930D01*
X791945Y373950D01*
X801905Y373950D01*
X808925Y366930D01*
X808925Y356970D01*
G37*
G36*
X783525Y356970D02*
X776505Y349950D01*
X766545Y349950D01*
X759525Y356970D01*
X759525Y366930D01*
X766545Y373950D01*
X776505Y373950D01*
X783525Y366930D01*
X783525Y356970D01*
G37*
G36*
X948625Y356970D02*
X941605Y349950D01*
X931645Y349950D01*
X924625Y356970D01*
X924625Y366930D01*
X931645Y373950D01*
X941605Y373950D01*
X948625Y366930D01*
X948625Y356970D01*
G37*
G36*
X923225Y356970D02*
X916205Y349950D01*
X906245Y349950D01*
X899225Y356970D01*
X899225Y366930D01*
X906245Y373950D01*
X916205Y373950D01*
X923225Y366930D01*
X923225Y356970D01*
G37*
G36*
X897825Y356970D02*
X890805Y349950D01*
X880845Y349950D01*
X873825Y356970D01*
X873825Y366930D01*
X880845Y373950D01*
X890805Y373950D01*
X897825Y366930D01*
X897825Y356970D01*
G37*
G36*
X808925Y356970D02*
X801905Y349950D01*
X791945Y349950D01*
X784925Y356970D01*
X784925Y366930D01*
X791945Y373950D01*
X801905Y373950D01*
X808925Y366930D01*
X808925Y356970D01*
G37*
G36*
X923225Y356970D02*
X916205Y349950D01*
X906245Y349950D01*
X899225Y356970D01*
X899225Y366930D01*
X906245Y373950D01*
X916205Y373950D01*
X923225Y366930D01*
X923225Y356970D01*
G37*
X798116Y403225D02*
G54D11*
D03*
X746125Y403225D02*
G54D11*
D03*
G36*
X734125Y408205D02*
X741145Y415225D01*
X751105Y415225D01*
X758125Y408205D01*
X758125Y398245D01*
X751105Y391225D01*
X741145Y391225D01*
X734125Y398245D01*
X734125Y408205D01*
G37*
X936625Y393700D02*
G54D10*
D03*
X911622Y393700D02*
G54D10*
D03*
X891778Y393700D02*
G54D10*
D03*
X866775Y393700D02*
G54D10*
D03*
G36*
X990383Y411142D02*
X976928Y397688D01*
X957838Y397688D01*
X944383Y411142D01*
X944383Y430232D01*
X957838Y443688D01*
X976928Y443688D01*
X990383Y430232D01*
X990383Y411142D01*
G37*
G36*
X858819Y411142D02*
X845364Y397687D01*
X826274Y397687D01*
X812819Y411142D01*
X812819Y430232D01*
X826274Y443687D01*
X845364Y443687D01*
X858819Y430232D01*
X858819Y411142D01*
G37*
X822325Y501650D02*
G54D12*
D03*
X822325Y476250D02*
G54D12*
D03*
X847725Y88900D02*
G54D10*
D03*
X847725Y114300D02*
G54D10*
D03*
X847725Y114300D02*
G54D10*
D03*
X695325Y88900D02*
G54D10*
D03*
X695325Y114300D02*
G54D10*
D03*
X695325Y114300D02*
G54D10*
D03*
X676275Y482600D02*
G54D13*
D03*
X695275Y482600D02*
G54D13*
D03*
X676275Y508000D02*
G54D13*
D03*
X695275Y508000D02*
G54D13*
D03*
X803275Y187325D02*
G54D13*
D03*
X822275Y187325D02*
G54D13*
D03*
X803275Y161925D02*
G54D13*
D03*
X822275Y161925D02*
G54D13*
D03*
X755650Y161925D02*
G54D13*
D03*
X774650Y161925D02*
G54D13*
D03*
X854075Y184150D02*
G54D12*
D03*
X879475Y184150D02*
G54D12*
D03*
X755650Y187325D02*
G54D13*
D03*
X774650Y187325D02*
G54D13*
D03*
X977875Y361925D02*
G54D14*
D03*
X977875Y342925D02*
G54D14*
D03*
X771525Y88900D02*
G54D10*
D03*
X771525Y114300D02*
G54D10*
D03*
X771525Y114300D02*
G54D10*
D03*
X936507Y89695D02*
G54D15*
D03*
X936507Y143670D02*
G54D15*
D03*
X936507Y87314D02*
G54D16*
D03*
X936507Y146448D02*
G54D16*
D03*
X860425Y155575D02*
G54D13*
D03*
X879425Y155575D02*
G54D13*
D03*
X685800Y422275D02*
G54D17*
D03*
X685800Y456605D02*
G54D17*
D03*
X936625Y184150D02*
G54D12*
D03*
X958855Y184150D02*
G54D12*
D03*
M02*
