%FSLAX34Y34*%
%MOMM*%
%LNSILK_BOTTOM_*%
G71*
G01*
%ADD10C, 0.10*%
%ADD11C, 0.19*%
%ADD12C, 0.22*%
%ADD13R, 0.27X0.27*%
%ADD14C, 0.11*%
%LPD*%
G54D10*
X270272Y634206D02*
X281384Y634206D01*
X283766Y623888D01*
X291306Y620712D01*
X300434Y626666D01*
X308372Y619522D01*
X302022Y611584D01*
X305594Y603647D01*
X316706Y602059D01*
X316706Y591344D01*
X306784Y590153D01*
X303212Y581819D01*
X308372Y574278D01*
X300831Y566738D01*
X292100Y572294D01*
X287734Y569516D01*
X280194Y586184D01*
G54D10*
X271462Y586184D02*
X263922Y569912D01*
X259556Y571897D01*
X251222Y566341D01*
X242888Y573881D01*
X248841Y581819D01*
X245269Y590153D01*
X234950Y591344D01*
X235347Y602059D01*
X246062Y604044D01*
X248841Y610394D01*
X242888Y618728D01*
X250825Y626269D01*
X259953Y620712D01*
X268684Y623888D01*
X270272Y634206D01*
G54D10*
G75*
G01X279925Y586869D02*
G03X271719Y586869I-4103J9665D01*
G01*
G36*
X235347Y602059D02*
X246062Y604044D01*
X248841Y610394D01*
X242888Y618728D01*
X250825Y626269D01*
X259953Y620712D01*
X268684Y623888D01*
X270272Y634206D01*
X281384Y634206D01*
X283766Y623888D01*
X291306Y620712D01*
X300434Y626666D01*
X308372Y619522D01*
X302022Y611584D01*
X305594Y603647D01*
X316706Y602059D01*
X316706Y591344D01*
X306784Y590153D01*
X303212Y581819D01*
X308372Y574278D01*
X300831Y566738D01*
X292100Y572294D01*
X287734Y569516D01*
X279797Y586978D01*
X280988Y587375D01*
X282178Y588169D01*
X284559Y590550D01*
X286147Y593725D01*
X286544Y595709D01*
X286544Y597297D01*
X286147Y599678D01*
X284956Y602456D01*
X282575Y605234D01*
X280591Y606425D01*
X278606Y607219D01*
X276225Y607616D01*
X273844Y607219D01*
X270669Y606425D01*
X267891Y604044D01*
X265112Y600075D01*
X265112Y593725D01*
X266303Y591344D01*
X267891Y588962D01*
X270272Y586978D01*
X271859Y586978D01*
X263922Y569912D01*
X259556Y571897D01*
X251222Y566341D01*
X242888Y573881D01*
X248841Y581819D01*
X235347Y602059D01*
G37*
G54D10*
X235347Y602059D02*
X246062Y604044D01*
X248841Y610394D01*
X242888Y618728D01*
X250825Y626269D01*
X259953Y620712D01*
X268684Y623888D01*
X270272Y634206D01*
X281384Y634206D01*
X283766Y623888D01*
X291306Y620712D01*
X300434Y626666D01*
X308372Y619522D01*
X302022Y611584D01*
X305594Y603647D01*
X316706Y602059D01*
X316706Y591344D01*
X306784Y590153D01*
X303212Y581819D01*
X308372Y574278D01*
X300831Y566738D01*
X292100Y572294D01*
X287734Y569516D01*
X279797Y586978D01*
X280988Y587375D01*
X282178Y588169D01*
X284559Y590550D01*
X286147Y593725D01*
X286544Y595709D01*
X286544Y597297D01*
X286147Y599678D01*
X284956Y602456D01*
X282575Y605234D01*
X280591Y606425D01*
X278606Y607219D01*
X276225Y607616D01*
X273844Y607219D01*
X270669Y606425D01*
X267891Y604044D01*
X265112Y600075D01*
X265112Y593725D01*
X266303Y591344D01*
X267891Y588962D01*
X270272Y586978D01*
X271859Y586978D01*
X263922Y569912D01*
X259556Y571897D01*
X251222Y566341D01*
X242888Y573881D01*
X248841Y581819D01*
X235347Y602059D01*
G36*
X235347Y602059D02*
X234950Y591344D01*
X245269Y590153D01*
X235347Y602059D01*
G37*
G54D10*
X235347Y602059D02*
X234950Y591344D01*
X245269Y590153D01*
X235347Y602059D01*
G54D11*
X320675Y781050D02*
X320675Y796161D01*
G54D11*
X320675Y787094D02*
X319542Y788983D01*
X317275Y789550D01*
X315008Y788983D01*
X313875Y787094D01*
X313875Y781050D01*
G54D11*
X307452Y796161D02*
X307452Y781994D01*
X306319Y781050D01*
X305186Y781428D01*
G54D11*
X309719Y789550D02*
X305186Y789550D01*
G54D11*
X298763Y796161D02*
X298763Y781994D01*
X297630Y781050D01*
X296497Y781428D01*
G54D11*
X301030Y789550D02*
X296497Y789550D01*
G54D11*
X292341Y789550D02*
X292341Y777272D01*
G54D11*
X292341Y783883D02*
X291208Y781428D01*
X288941Y781050D01*
X286674Y781428D01*
X285541Y783317D01*
X285541Y787094D01*
X286674Y788983D01*
X288941Y789550D01*
X291208Y788983D01*
X292341Y786717D01*
G54D11*
X281385Y781994D02*
X279118Y781050D01*
X276852Y781050D01*
X274585Y781994D01*
X274585Y783883D01*
X275718Y784828D01*
X280252Y785772D01*
X281385Y786717D01*
X281385Y788606D01*
X279118Y789550D01*
X276852Y789550D01*
X274585Y788606D01*
G54D11*
X270429Y781050D02*
X270429Y781050D01*
G54D11*
X270429Y789550D02*
X270429Y789550D01*
G54D11*
X266273Y781050D02*
X257206Y796161D01*
G54D11*
X253050Y781050D02*
X243983Y796161D01*
G54D11*
X239827Y778217D02*
X237560Y777272D01*
X235974Y777272D01*
X233707Y778217D01*
X233027Y780106D01*
X233027Y789550D01*
G54D11*
X233027Y787094D02*
X234160Y788983D01*
X236427Y789550D01*
X238694Y788983D01*
X239827Y787094D01*
X239827Y783317D01*
X238694Y781428D01*
X236427Y781050D01*
X234160Y781428D01*
X233027Y783317D01*
G54D11*
X228871Y781050D02*
X228871Y789550D01*
G54D11*
X228871Y792383D02*
X228871Y792383D01*
G54D11*
X222448Y796161D02*
X222448Y781994D01*
X221315Y781050D01*
X220182Y781428D01*
G54D11*
X224715Y789550D02*
X220182Y789550D01*
G54D11*
X216026Y781050D02*
X216026Y796161D01*
G54D11*
X216026Y787094D02*
X214893Y788983D01*
X212626Y789550D01*
X210359Y788983D01*
X209226Y787094D01*
X209226Y781050D01*
G54D11*
X198270Y789550D02*
X198270Y781050D01*
G54D11*
X198270Y782939D02*
X199403Y781428D01*
X201670Y781050D01*
X203937Y781428D01*
X205070Y782939D01*
X205070Y789550D01*
G54D11*
X194114Y781050D02*
X194114Y796161D01*
G54D11*
X194114Y787094D02*
X192981Y788983D01*
X190714Y789550D01*
X188447Y788983D01*
X187314Y787094D01*
X187314Y783317D01*
X188447Y781428D01*
X190714Y781050D01*
X192981Y781428D01*
X194114Y783317D01*
G54D11*
X183158Y781050D02*
X183158Y781050D01*
G54D11*
X173335Y788983D02*
X175602Y789550D01*
X177869Y788983D01*
X179002Y787094D01*
X179002Y783317D01*
X177869Y781428D01*
X175602Y781050D01*
X173335Y781428D01*
G54D11*
X162379Y783317D02*
X162379Y787094D01*
X163512Y788983D01*
X165779Y789550D01*
X168046Y788983D01*
X169179Y787094D01*
X169179Y783317D01*
X168046Y781428D01*
X165779Y781050D01*
X163512Y781428D01*
X162379Y783317D01*
G54D11*
X158223Y781050D02*
X158223Y789550D01*
G54D11*
X158223Y788039D02*
X155956Y789550D01*
X153690Y788983D01*
X152556Y787661D01*
X152556Y781050D01*
G54D11*
X152556Y788039D02*
X150290Y789550D01*
X148023Y788983D01*
X146890Y787661D01*
X146890Y781050D01*
G54D11*
X142734Y781050D02*
X133667Y796161D01*
G54D11*
X120444Y783883D02*
X121578Y781994D01*
X123844Y781050D01*
X126111Y781050D01*
X128378Y781994D01*
X129511Y783883D01*
X129511Y793328D01*
X128378Y795217D01*
X126111Y796161D01*
X123844Y796161D01*
X121578Y795217D01*
X120444Y793328D01*
G54D11*
X116288Y781050D02*
X116288Y796161D01*
G54D11*
X116288Y787094D02*
X115155Y788983D01*
X112888Y789550D01*
X110621Y788983D01*
X109488Y787094D01*
X109488Y781050D01*
G54D11*
X105332Y781050D02*
X105332Y789550D01*
G54D11*
X105332Y792383D02*
X105332Y792383D01*
G54D11*
X101176Y789550D02*
X101176Y777272D01*
G54D11*
X101176Y783883D02*
X100043Y781428D01*
X97776Y781050D01*
X95509Y781428D01*
X94376Y783317D01*
X94376Y787094D01*
X95509Y788983D01*
X97776Y789550D01*
X100043Y788983D01*
X101176Y786717D01*
G54D11*
X85687Y781050D02*
X85687Y796161D01*
G54D11*
X90220Y796161D02*
X81153Y796161D01*
G54D11*
X70197Y781994D02*
X72010Y781050D01*
X74277Y781050D01*
X76544Y781994D01*
X76997Y783883D01*
X76997Y787094D01*
X75864Y788983D01*
X73597Y789550D01*
X71330Y788983D01*
X70197Y787661D01*
X70197Y785772D01*
X76997Y785772D01*
G54D11*
X60374Y788983D02*
X62641Y789550D01*
X64908Y788983D01*
X66041Y787094D01*
X66041Y783317D01*
X64908Y781428D01*
X62641Y781050D01*
X60374Y781428D01*
G54D11*
X56218Y781050D02*
X56218Y796161D01*
G54D11*
X56218Y787094D02*
X55085Y788983D01*
X52818Y789550D01*
X50551Y788983D01*
X49418Y787094D01*
X49418Y781050D01*
G54D11*
X45262Y781050D02*
X45262Y789550D01*
G54D11*
X45262Y787661D02*
X44129Y788983D01*
X41862Y789550D01*
X39595Y788983D01*
X38462Y787661D01*
X38462Y781050D01*
G54D11*
X27506Y783317D02*
X27506Y787094D01*
X28639Y788983D01*
X30906Y789550D01*
X33173Y788983D01*
X34306Y787094D01*
X34306Y783317D01*
X33173Y781428D01*
X30906Y781050D01*
X28639Y781428D01*
X27506Y783317D01*
G54D11*
X23350Y781050D02*
X14283Y796161D01*
G54D11*
X271467Y758508D02*
X279400Y758508D01*
X279400Y773619D01*
X271467Y773619D01*
G54D11*
X279400Y766063D02*
X271467Y766063D01*
G54D11*
X267311Y758508D02*
X267311Y767008D01*
G54D11*
X267311Y765119D02*
X266178Y766441D01*
X263911Y767008D01*
X261644Y766441D01*
X260511Y765119D01*
X260511Y758508D01*
G54D11*
X249555Y758508D02*
X249555Y773619D01*
G54D11*
X249555Y764552D02*
X250688Y766441D01*
X252955Y767008D01*
X255222Y766441D01*
X256355Y764552D01*
X256355Y760774D01*
X255222Y758885D01*
X252955Y758508D01*
X250688Y758885D01*
X249555Y760774D01*
G54D11*
X238599Y759452D02*
X240412Y758508D01*
X242679Y758508D01*
X244946Y759452D01*
X245399Y761341D01*
X245399Y764552D01*
X244266Y766441D01*
X241999Y767008D01*
X239732Y766441D01*
X238599Y765119D01*
X238599Y763230D01*
X245399Y763230D01*
G54D11*
X234443Y758508D02*
X234443Y767008D01*
G54D11*
X234443Y765119D02*
X232176Y767008D01*
X229910Y767008D01*
G54D11*
X225754Y765119D02*
X216687Y765119D01*
G54D11*
X212531Y770785D02*
X211398Y772674D01*
X209131Y773619D01*
X206864Y773619D01*
X204598Y772674D01*
X203464Y770785D01*
X203464Y768896D01*
X204598Y767008D01*
X206864Y766063D01*
X204598Y765119D01*
X203464Y763230D01*
X203464Y761341D01*
X204598Y759452D01*
X206864Y758508D01*
X209131Y758508D01*
X211398Y759452D01*
X212531Y761341D01*
G54D11*
X199308Y765119D02*
X190241Y765119D01*
G54D11*
X179285Y759452D02*
X181098Y758508D01*
X183365Y758508D01*
X185632Y759452D01*
X186085Y761341D01*
X186085Y764552D01*
X184952Y766441D01*
X182685Y767008D01*
X180418Y766441D01*
X179285Y765119D01*
X179285Y763230D01*
X186085Y763230D01*
G54D11*
X175129Y767008D02*
X166062Y758508D01*
G54D11*
X175129Y758508D02*
X166062Y767008D01*
G54D11*
X159639Y773619D02*
X159639Y759452D01*
X158506Y758508D01*
X157373Y758885D01*
G54D11*
X161906Y767008D02*
X157373Y767008D01*
G54D11*
X146417Y759452D02*
X148230Y758508D01*
X150497Y758508D01*
X152764Y759452D01*
X153217Y761341D01*
X153217Y764552D01*
X152084Y766441D01*
X149817Y767008D01*
X147550Y766441D01*
X146417Y765119D01*
X146417Y763230D01*
X153217Y763230D01*
G54D11*
X142261Y758508D02*
X142261Y767008D01*
G54D11*
X142261Y765119D02*
X141128Y766441D01*
X138861Y767008D01*
X136594Y766441D01*
X135461Y765119D01*
X135461Y758508D01*
G54D11*
X131305Y759452D02*
X129038Y758508D01*
X126772Y758508D01*
X124505Y759452D01*
X124505Y761341D01*
X125638Y762285D01*
X130172Y763230D01*
X131305Y764174D01*
X131305Y766063D01*
X129038Y767008D01*
X126772Y767008D01*
X124505Y766063D01*
G54D11*
X120349Y758508D02*
X120349Y767008D01*
G54D11*
X120349Y769841D02*
X120349Y769841D01*
G54D11*
X109393Y760774D02*
X109393Y764552D01*
X110526Y766441D01*
X112793Y767008D01*
X115060Y766441D01*
X116193Y764552D01*
X116193Y760774D01*
X115060Y758885D01*
X112793Y758508D01*
X110526Y758885D01*
X109393Y760774D01*
G54D11*
X105237Y758508D02*
X105237Y767008D01*
G54D11*
X105237Y765119D02*
X104104Y766441D01*
X101837Y767008D01*
X99570Y766441D01*
X98437Y765119D01*
X98437Y758508D01*
G54D11*
X94281Y765119D02*
X85214Y765119D01*
G54D11*
X81058Y767008D02*
X81058Y754730D01*
G54D11*
X81058Y761341D02*
X79925Y758885D01*
X77658Y758508D01*
X75391Y758885D01*
X74258Y760774D01*
X74258Y764552D01*
X75391Y766441D01*
X77658Y767008D01*
X79925Y766441D01*
X81058Y764174D01*
G54D11*
X64435Y766441D02*
X66702Y767008D01*
X68969Y766441D01*
X70102Y764552D01*
X70102Y760774D01*
X68969Y758885D01*
X66702Y758508D01*
X64435Y758885D01*
G54D11*
X60279Y758508D02*
X60279Y773619D01*
G54D11*
X60279Y764552D02*
X59146Y766441D01*
X56879Y767008D01*
X54612Y766441D01*
X53479Y764552D01*
X53479Y760774D01*
X54612Y758885D01*
X56879Y758508D01*
X59146Y758885D01*
X60279Y760774D01*
G54D12*
X294927Y557369D02*
X294927Y546258D01*
X296260Y544036D01*
X298927Y542925D01*
X301594Y542925D01*
X304260Y544036D01*
X305594Y546258D01*
X305594Y557369D01*
X304260Y559592D01*
X301594Y560703D01*
X298927Y560703D01*
X296260Y559592D01*
X294927Y557369D01*
G54D12*
X290038Y546258D02*
X288704Y544036D01*
X286038Y542925D01*
X283371Y542925D01*
X280704Y544036D01*
X279371Y546258D01*
X279371Y548481D01*
X280704Y550703D01*
X283371Y551814D01*
X286038Y551814D01*
X288704Y552925D01*
X290038Y555147D01*
X290038Y557369D01*
X288704Y559592D01*
X286038Y560703D01*
X283371Y560703D01*
X280704Y559592D01*
X279371Y557369D01*
G54D12*
X274482Y542925D02*
X274482Y560703D01*
G54D12*
X263815Y542925D02*
X263815Y560703D01*
G54D12*
X274482Y551814D02*
X263815Y551814D01*
G54D12*
X258926Y560703D02*
X258926Y542925D01*
X252259Y554036D01*
X245592Y542925D01*
X245592Y560703D01*
X317500Y701675D02*
G54D13*
D03*
X314325Y698500D02*
G54D13*
D03*
X311150Y695325D02*
G54D13*
D03*
X307975Y692150D02*
G54D13*
D03*
X317500Y708025D02*
G54D13*
D03*
X314325Y711200D02*
G54D13*
D03*
X311150Y714375D02*
G54D13*
D03*
X307975Y717550D02*
G54D13*
D03*
X304800Y720725D02*
G54D13*
D03*
X304800Y688975D02*
G54D13*
D03*
X301625Y685800D02*
G54D13*
D03*
X298450Y682625D02*
G54D13*
D03*
X295275Y679450D02*
G54D13*
D03*
X288925Y679450D02*
G54D13*
D03*
X285750Y682625D02*
G54D13*
D03*
X282575Y685800D02*
G54D13*
D03*
X279400Y688975D02*
G54D13*
D03*
X276225Y692150D02*
G54D13*
D03*
X273050Y695325D02*
G54D13*
D03*
X269875Y698500D02*
G54D13*
D03*
X266700Y701675D02*
G54D13*
D03*
X263525Y704850D02*
G54D13*
D03*
X301625Y723900D02*
G54D13*
D03*
X298450Y727075D02*
G54D13*
D03*
X295275Y730250D02*
G54D13*
D03*
X292100Y733425D02*
G54D13*
D03*
X276225Y730250D02*
G54D13*
D03*
X266700Y720725D02*
G54D13*
D03*
X263525Y723900D02*
G54D13*
D03*
X273050Y733425D02*
G54D13*
D03*
X273050Y739775D02*
G54D13*
D03*
X269875Y742950D02*
G54D13*
D03*
X266700Y739775D02*
G54D13*
D03*
X263525Y736600D02*
G54D13*
D03*
X260350Y733425D02*
G54D13*
D03*
X257175Y730250D02*
G54D13*
D03*
X254000Y727075D02*
G54D13*
D03*
X257175Y723900D02*
G54D13*
D03*
X307975Y711200D02*
G54D13*
D03*
X304800Y711200D02*
G54D13*
D03*
X301625Y714375D02*
G54D13*
D03*
X298450Y711200D02*
G54D13*
D03*
X295275Y711200D02*
G54D13*
D03*
X292100Y711200D02*
G54D13*
D03*
X288925Y708025D02*
G54D13*
D03*
X285750Y708025D02*
G54D13*
D03*
X282575Y711200D02*
G54D13*
D03*
X279400Y711200D02*
G54D13*
D03*
X276225Y711200D02*
G54D13*
D03*
X273050Y711200D02*
G54D13*
D03*
X269875Y711200D02*
G54D13*
D03*
X266700Y708025D02*
G54D13*
D03*
X250825Y736600D02*
G54D13*
D03*
X250825Y733425D02*
G54D13*
D03*
X250825Y730250D02*
G54D13*
D03*
X247650Y730250D02*
G54D13*
D03*
X247650Y736600D02*
G54D13*
D03*
X244475Y736600D02*
G54D13*
D03*
X244475Y739775D02*
G54D13*
D03*
X244475Y742950D02*
G54D13*
D03*
X241300Y742950D02*
G54D13*
D03*
X238125Y742950D02*
G54D13*
D03*
X238125Y739775D02*
G54D13*
D03*
X238125Y736600D02*
G54D13*
D03*
X234950Y736600D02*
G54D13*
D03*
X231775Y736600D02*
G54D13*
D03*
X231775Y733425D02*
G54D13*
D03*
X231775Y730250D02*
G54D13*
D03*
X234950Y730250D02*
G54D13*
D03*
X238125Y730250D02*
G54D13*
D03*
X244475Y730250D02*
G54D13*
D03*
X244475Y727075D02*
G54D13*
D03*
X244475Y723900D02*
G54D13*
D03*
X241300Y723900D02*
G54D13*
D03*
X238125Y723900D02*
G54D13*
D03*
X238125Y727075D02*
G54D13*
D03*
X288925Y736600D02*
G54D13*
D03*
X282575Y736600D02*
G54D13*
D03*
X279400Y733425D02*
G54D13*
D03*
X263525Y717550D02*
G54D13*
D03*
X260350Y714375D02*
G54D13*
D03*
X260350Y708025D02*
G54D13*
D03*
X263525Y698500D02*
G54D13*
D03*
X260350Y698500D02*
G54D13*
D03*
X257175Y698500D02*
G54D13*
D03*
X254000Y698500D02*
G54D13*
D03*
X250825Y698500D02*
G54D13*
D03*
X257175Y695325D02*
G54D13*
D03*
X257175Y692150D02*
G54D13*
D03*
X257175Y688975D02*
G54D13*
D03*
X257175Y685800D02*
G54D13*
D03*
X257175Y682625D02*
G54D13*
D03*
X260350Y679450D02*
G54D13*
D03*
X263525Y679450D02*
G54D13*
D03*
X266700Y682625D02*
G54D13*
D03*
X247650Y679450D02*
G54D13*
D03*
X244475Y682625D02*
G54D13*
D03*
X244475Y685800D02*
G54D13*
D03*
X244475Y688975D02*
G54D13*
D03*
X244475Y692150D02*
G54D13*
D03*
X241300Y679450D02*
G54D13*
D03*
X238125Y679450D02*
G54D13*
D03*
X234950Y679450D02*
G54D13*
D03*
X234950Y682625D02*
G54D13*
D03*
X234950Y685800D02*
G54D13*
D03*
X234950Y688975D02*
G54D13*
D03*
X234950Y692150D02*
G54D13*
D03*
X228600Y695325D02*
G54D13*
D03*
X228600Y688975D02*
G54D13*
D03*
X228600Y685800D02*
G54D13*
D03*
X228600Y682625D02*
G54D13*
D03*
X228600Y679450D02*
G54D13*
D03*
X222250Y682625D02*
G54D13*
D03*
X222250Y685800D02*
G54D13*
D03*
X222250Y688975D02*
G54D13*
D03*
X219075Y692150D02*
G54D13*
D03*
X215900Y692150D02*
G54D13*
D03*
X219075Y679450D02*
G54D13*
D03*
X215900Y679450D02*
G54D13*
D03*
X212725Y679450D02*
G54D13*
D03*
X212725Y692150D02*
G54D13*
D03*
X206375Y682625D02*
G54D13*
D03*
X206375Y685800D02*
G54D13*
D03*
X206375Y688975D02*
G54D13*
D03*
X203200Y692150D02*
G54D13*
D03*
X200025Y692150D02*
G54D13*
D03*
X196850Y692150D02*
G54D13*
D03*
X203200Y679450D02*
G54D13*
D03*
X200025Y679450D02*
G54D13*
D03*
X196850Y679450D02*
G54D13*
D03*
X193675Y688975D02*
G54D13*
D03*
X193675Y685800D02*
G54D13*
D03*
X196850Y685800D02*
G54D13*
D03*
X200025Y685800D02*
G54D13*
D03*
X203200Y685800D02*
G54D13*
D03*
X295275Y698500D02*
G54D13*
D03*
X292100Y695325D02*
G54D13*
D03*
X288925Y698500D02*
G54D13*
D03*
X292100Y701675D02*
G54D13*
D03*
X282575Y695325D02*
G54D13*
D03*
X304800Y704850D02*
G54D13*
D03*
X276225Y704850D02*
G54D13*
D03*
X292100Y685800D02*
G54D13*
D03*
X307975Y701675D02*
G54D13*
D03*
X247650Y717550D02*
G54D13*
D03*
X244475Y717550D02*
G54D13*
D03*
X241300Y717550D02*
G54D13*
D03*
X238125Y717550D02*
G54D13*
D03*
X234950Y717550D02*
G54D13*
D03*
X234950Y714375D02*
G54D13*
D03*
X234950Y711200D02*
G54D13*
D03*
X238125Y708025D02*
G54D13*
D03*
X241300Y704850D02*
G54D13*
D03*
X244475Y701675D02*
G54D13*
D03*
X231775Y723900D02*
G54D13*
D03*
X231775Y720725D02*
G54D13*
D03*
X228600Y720725D02*
G54D13*
D03*
X228600Y723900D02*
G54D13*
D03*
X225425Y717550D02*
G54D13*
D03*
X222250Y717550D02*
G54D13*
D03*
X219075Y717550D02*
G54D13*
D03*
X215900Y717550D02*
G54D13*
D03*
X212725Y717550D02*
G54D13*
D03*
X225425Y711200D02*
G54D13*
D03*
X222250Y711200D02*
G54D13*
D03*
X219075Y711200D02*
G54D13*
D03*
X215900Y711200D02*
G54D13*
D03*
X212725Y711200D02*
G54D13*
D03*
X212725Y708025D02*
G54D13*
D03*
X215900Y704850D02*
G54D13*
D03*
X219075Y701675D02*
G54D13*
D03*
X225425Y701675D02*
G54D13*
D03*
X222250Y701675D02*
G54D13*
D03*
X206375Y717550D02*
G54D13*
D03*
X203200Y717550D02*
G54D13*
D03*
X200025Y717550D02*
G54D13*
D03*
X196850Y717550D02*
G54D13*
D03*
X193675Y717550D02*
G54D13*
D03*
X193675Y714375D02*
G54D13*
D03*
X196850Y711200D02*
G54D13*
D03*
X200025Y708025D02*
G54D13*
D03*
X203200Y704850D02*
G54D13*
D03*
X206375Y701675D02*
G54D13*
D03*
X196850Y704850D02*
G54D13*
D03*
X193675Y701675D02*
G54D13*
D03*
X285750Y730250D02*
G54D13*
D03*
X288925Y727075D02*
G54D13*
D03*
G54D14*
X219583Y731519D02*
X217583Y730408D01*
X216917Y729297D01*
X216917Y727075D01*
G54D14*
X222250Y727075D02*
X222250Y735964D01*
X218917Y735964D01*
X217583Y735408D01*
X216917Y734297D01*
X216917Y733186D01*
X217583Y732075D01*
X218917Y731519D01*
X222250Y731519D01*
G54D14*
X210473Y727631D02*
X211540Y727075D01*
X212873Y727075D01*
X214206Y727631D01*
X214473Y728742D01*
X214473Y730631D01*
X213806Y731742D01*
X212473Y732075D01*
X211140Y731742D01*
X210473Y730964D01*
X210473Y729853D01*
X214473Y729853D01*
G54D14*
X208029Y732075D02*
X205362Y727075D01*
X202696Y732075D01*
G54D14*
X200252Y727075D02*
X200252Y727075D01*
G54D14*
X197808Y732631D02*
X194475Y735964D01*
X194475Y727075D01*
G54D14*
X192031Y727075D02*
X192031Y727075D01*
G54D14*
X184254Y734297D02*
X184254Y728742D01*
X184920Y727631D01*
X186254Y727075D01*
X187587Y727075D01*
X188920Y727631D01*
X189587Y728742D01*
X189587Y734297D01*
X188920Y735408D01*
X187587Y735964D01*
X186254Y735964D01*
X184920Y735408D01*
X184254Y734297D01*
G54D10*
X600472Y634206D02*
X611584Y634206D01*
X613966Y623888D01*
X621506Y620712D01*
X630634Y626666D01*
X638572Y619522D01*
X632222Y611584D01*
X635794Y603647D01*
X646906Y602059D01*
X646906Y591344D01*
X636984Y590153D01*
X633412Y581819D01*
X638572Y574278D01*
X631031Y566738D01*
X622300Y572294D01*
X617934Y569516D01*
X610394Y586184D01*
G54D10*
X601662Y586184D02*
X594122Y569912D01*
X589756Y571897D01*
X581422Y566341D01*
X573088Y573881D01*
X579041Y581819D01*
X575469Y590153D01*
X565150Y591344D01*
X565547Y602059D01*
X576262Y604044D01*
X579041Y610394D01*
X573088Y618728D01*
X581025Y626269D01*
X590153Y620712D01*
X598884Y623888D01*
X600472Y634206D01*
G54D10*
G75*
G01X610125Y586869D02*
G03X601919Y586869I-4103J9665D01*
G01*
G36*
X565547Y602059D02*
X576262Y604044D01*
X579041Y610394D01*
X573088Y618728D01*
X581025Y626269D01*
X590153Y620712D01*
X598884Y623888D01*
X600472Y634206D01*
X611584Y634206D01*
X613966Y623888D01*
X621506Y620712D01*
X630634Y626666D01*
X638572Y619522D01*
X632222Y611584D01*
X635794Y603647D01*
X646906Y602059D01*
X646906Y591344D01*
X636984Y590153D01*
X633412Y581819D01*
X638572Y574278D01*
X631031Y566738D01*
X622300Y572294D01*
X617934Y569516D01*
X609997Y586978D01*
X611188Y587375D01*
X612378Y588169D01*
X614759Y590550D01*
X616347Y593725D01*
X616744Y595709D01*
X616744Y597297D01*
X616347Y599678D01*
X615156Y602456D01*
X612775Y605234D01*
X610791Y606425D01*
X608806Y607219D01*
X606425Y607616D01*
X604044Y607219D01*
X600869Y606425D01*
X598091Y604044D01*
X595312Y600075D01*
X595312Y593725D01*
X596503Y591344D01*
X598091Y588962D01*
X600472Y586978D01*
X602059Y586978D01*
X594122Y569912D01*
X589756Y571897D01*
X581422Y566341D01*
X573088Y573881D01*
X579041Y581819D01*
X565547Y602059D01*
G37*
G54D10*
X565547Y602059D02*
X576262Y604044D01*
X579041Y610394D01*
X573088Y618728D01*
X581025Y626269D01*
X590153Y620712D01*
X598884Y623888D01*
X600472Y634206D01*
X611584Y634206D01*
X613966Y623888D01*
X621506Y620712D01*
X630634Y626666D01*
X638572Y619522D01*
X632222Y611584D01*
X635794Y603647D01*
X646906Y602059D01*
X646906Y591344D01*
X636984Y590153D01*
X633412Y581819D01*
X638572Y574278D01*
X631031Y566738D01*
X622300Y572294D01*
X617934Y569516D01*
X609997Y586978D01*
X611188Y587375D01*
X612378Y588169D01*
X614759Y590550D01*
X616347Y593725D01*
X616744Y595709D01*
X616744Y597297D01*
X616347Y599678D01*
X615156Y602456D01*
X612775Y605234D01*
X610791Y606425D01*
X608806Y607219D01*
X606425Y607616D01*
X604044Y607219D01*
X600869Y606425D01*
X598091Y604044D01*
X595312Y600075D01*
X595312Y593725D01*
X596503Y591344D01*
X598091Y588962D01*
X600472Y586978D01*
X602059Y586978D01*
X594122Y569912D01*
X589756Y571897D01*
X581422Y566341D01*
X573088Y573881D01*
X579041Y581819D01*
X565547Y602059D01*
G36*
X565547Y602059D02*
X565150Y591344D01*
X575469Y590153D01*
X565547Y602059D01*
G37*
G54D10*
X565547Y602059D02*
X565150Y591344D01*
X575469Y590153D01*
X565547Y602059D01*
G54D11*
X650875Y781050D02*
X650875Y796161D01*
G54D11*
X650875Y787094D02*
X649742Y788983D01*
X647475Y789550D01*
X645208Y788983D01*
X644075Y787094D01*
X644075Y781050D01*
G54D11*
X637652Y796161D02*
X637652Y781994D01*
X636519Y781050D01*
X635386Y781428D01*
G54D11*
X639919Y789550D02*
X635386Y789550D01*
G54D11*
X628963Y796161D02*
X628963Y781994D01*
X627830Y781050D01*
X626697Y781428D01*
G54D11*
X631230Y789550D02*
X626697Y789550D01*
G54D11*
X622541Y789550D02*
X622541Y777272D01*
G54D11*
X622541Y783883D02*
X621408Y781428D01*
X619141Y781050D01*
X616874Y781428D01*
X615741Y783317D01*
X615741Y787094D01*
X616874Y788983D01*
X619141Y789550D01*
X621408Y788983D01*
X622541Y786717D01*
G54D11*
X611585Y781994D02*
X609318Y781050D01*
X607052Y781050D01*
X604785Y781994D01*
X604785Y783883D01*
X605918Y784828D01*
X610452Y785772D01*
X611585Y786717D01*
X611585Y788606D01*
X609318Y789550D01*
X607052Y789550D01*
X604785Y788606D01*
G54D11*
X600629Y781050D02*
X600629Y781050D01*
G54D11*
X600629Y789550D02*
X600629Y789550D01*
G54D11*
X596473Y781050D02*
X587406Y796161D01*
G54D11*
X583250Y781050D02*
X574183Y796161D01*
G54D11*
X570027Y778217D02*
X567760Y777272D01*
X566174Y777272D01*
X563907Y778217D01*
X563227Y780106D01*
X563227Y789550D01*
G54D11*
X563227Y787094D02*
X564360Y788983D01*
X566627Y789550D01*
X568894Y788983D01*
X570027Y787094D01*
X570027Y783317D01*
X568894Y781428D01*
X566627Y781050D01*
X564360Y781428D01*
X563227Y783317D01*
G54D11*
X559071Y781050D02*
X559071Y789550D01*
G54D11*
X559071Y792383D02*
X559071Y792383D01*
G54D11*
X552648Y796161D02*
X552648Y781994D01*
X551515Y781050D01*
X550382Y781428D01*
G54D11*
X554915Y789550D02*
X550382Y789550D01*
G54D11*
X546226Y781050D02*
X546226Y796161D01*
G54D11*
X546226Y787094D02*
X545093Y788983D01*
X542826Y789550D01*
X540559Y788983D01*
X539426Y787094D01*
X539426Y781050D01*
G54D11*
X528470Y789550D02*
X528470Y781050D01*
G54D11*
X528470Y782939D02*
X529603Y781428D01*
X531870Y781050D01*
X534137Y781428D01*
X535270Y782939D01*
X535270Y789550D01*
G54D11*
X524314Y781050D02*
X524314Y796161D01*
G54D11*
X524314Y787094D02*
X523181Y788983D01*
X520914Y789550D01*
X518647Y788983D01*
X517514Y787094D01*
X517514Y783317D01*
X518647Y781428D01*
X520914Y781050D01*
X523181Y781428D01*
X524314Y783317D01*
G54D11*
X513358Y781050D02*
X513358Y781050D01*
G54D11*
X503535Y788983D02*
X505802Y789550D01*
X508069Y788983D01*
X509202Y787094D01*
X509202Y783317D01*
X508069Y781428D01*
X505802Y781050D01*
X503535Y781428D01*
G54D11*
X492579Y783317D02*
X492579Y787094D01*
X493712Y788983D01*
X495979Y789550D01*
X498246Y788983D01*
X499379Y787094D01*
X499379Y783317D01*
X498246Y781428D01*
X495979Y781050D01*
X493712Y781428D01*
X492579Y783317D01*
G54D11*
X488423Y781050D02*
X488423Y789550D01*
G54D11*
X488423Y788039D02*
X486156Y789550D01*
X483890Y788983D01*
X482756Y787661D01*
X482756Y781050D01*
G54D11*
X482756Y788039D02*
X480490Y789550D01*
X478223Y788983D01*
X477090Y787661D01*
X477090Y781050D01*
G54D11*
X472934Y781050D02*
X463867Y796161D01*
G54D11*
X450644Y783883D02*
X451778Y781994D01*
X454044Y781050D01*
X456311Y781050D01*
X458578Y781994D01*
X459711Y783883D01*
X459711Y793328D01*
X458578Y795217D01*
X456311Y796161D01*
X454044Y796161D01*
X451778Y795217D01*
X450644Y793328D01*
G54D11*
X446488Y781050D02*
X446488Y796161D01*
G54D11*
X446488Y787094D02*
X445355Y788983D01*
X443088Y789550D01*
X440821Y788983D01*
X439688Y787094D01*
X439688Y781050D01*
G54D11*
X435532Y781050D02*
X435532Y789550D01*
G54D11*
X435532Y792383D02*
X435532Y792383D01*
G54D11*
X431376Y789550D02*
X431376Y777272D01*
G54D11*
X431376Y783883D02*
X430243Y781428D01*
X427976Y781050D01*
X425709Y781428D01*
X424576Y783317D01*
X424576Y787094D01*
X425709Y788983D01*
X427976Y789550D01*
X430243Y788983D01*
X431376Y786717D01*
G54D11*
X415887Y781050D02*
X415887Y796161D01*
G54D11*
X420420Y796161D02*
X411353Y796161D01*
G54D11*
X400397Y781994D02*
X402210Y781050D01*
X404477Y781050D01*
X406744Y781994D01*
X407197Y783883D01*
X407197Y787094D01*
X406064Y788983D01*
X403797Y789550D01*
X401530Y788983D01*
X400397Y787661D01*
X400397Y785772D01*
X407197Y785772D01*
G54D11*
X390574Y788983D02*
X392841Y789550D01*
X395108Y788983D01*
X396241Y787094D01*
X396241Y783317D01*
X395108Y781428D01*
X392841Y781050D01*
X390574Y781428D01*
G54D11*
X386418Y781050D02*
X386418Y796161D01*
G54D11*
X386418Y787094D02*
X385285Y788983D01*
X383018Y789550D01*
X380751Y788983D01*
X379618Y787094D01*
X379618Y781050D01*
G54D11*
X375462Y781050D02*
X375462Y789550D01*
G54D11*
X375462Y787661D02*
X374329Y788983D01*
X372062Y789550D01*
X369795Y788983D01*
X368662Y787661D01*
X368662Y781050D01*
G54D11*
X357706Y783317D02*
X357706Y787094D01*
X358839Y788983D01*
X361106Y789550D01*
X363373Y788983D01*
X364506Y787094D01*
X364506Y783317D01*
X363373Y781428D01*
X361106Y781050D01*
X358839Y781428D01*
X357706Y783317D01*
G54D11*
X353550Y781050D02*
X344483Y796161D01*
G54D11*
X601667Y758508D02*
X609600Y758508D01*
X609600Y773619D01*
X601667Y773619D01*
G54D11*
X609600Y766063D02*
X601667Y766063D01*
G54D11*
X597511Y758508D02*
X597511Y767008D01*
G54D11*
X597511Y765119D02*
X596378Y766441D01*
X594111Y767008D01*
X591844Y766441D01*
X590711Y765119D01*
X590711Y758508D01*
G54D11*
X579755Y758508D02*
X579755Y773619D01*
G54D11*
X579755Y764552D02*
X580888Y766441D01*
X583155Y767008D01*
X585422Y766441D01*
X586555Y764552D01*
X586555Y760774D01*
X585422Y758885D01*
X583155Y758508D01*
X580888Y758885D01*
X579755Y760774D01*
G54D11*
X568799Y759452D02*
X570612Y758508D01*
X572879Y758508D01*
X575146Y759452D01*
X575599Y761341D01*
X575599Y764552D01*
X574466Y766441D01*
X572199Y767008D01*
X569932Y766441D01*
X568799Y765119D01*
X568799Y763230D01*
X575599Y763230D01*
G54D11*
X564643Y758508D02*
X564643Y767008D01*
G54D11*
X564643Y765119D02*
X562376Y767008D01*
X560110Y767008D01*
G54D11*
X555954Y765119D02*
X546887Y765119D01*
G54D11*
X542731Y770785D02*
X541598Y772674D01*
X539331Y773619D01*
X537064Y773619D01*
X534798Y772674D01*
X533664Y770785D01*
X533664Y768896D01*
X534798Y767008D01*
X537064Y766063D01*
X534798Y765119D01*
X533664Y763230D01*
X533664Y761341D01*
X534798Y759452D01*
X537064Y758508D01*
X539331Y758508D01*
X541598Y759452D01*
X542731Y761341D01*
G54D11*
X529508Y765119D02*
X520441Y765119D01*
G54D11*
X509485Y759452D02*
X511298Y758508D01*
X513565Y758508D01*
X515832Y759452D01*
X516285Y761341D01*
X516285Y764552D01*
X515152Y766441D01*
X512885Y767008D01*
X510618Y766441D01*
X509485Y765119D01*
X509485Y763230D01*
X516285Y763230D01*
G54D11*
X505329Y767008D02*
X496262Y758508D01*
G54D11*
X505329Y758508D02*
X496262Y767008D01*
G54D11*
X489839Y773619D02*
X489839Y759452D01*
X488706Y758508D01*
X487573Y758885D01*
G54D11*
X492106Y767008D02*
X487573Y767008D01*
G54D11*
X476617Y759452D02*
X478430Y758508D01*
X480697Y758508D01*
X482964Y759452D01*
X483417Y761341D01*
X483417Y764552D01*
X482284Y766441D01*
X480017Y767008D01*
X477750Y766441D01*
X476617Y765119D01*
X476617Y763230D01*
X483417Y763230D01*
G54D11*
X472461Y758508D02*
X472461Y767008D01*
G54D11*
X472461Y765119D02*
X471328Y766441D01*
X469061Y767008D01*
X466794Y766441D01*
X465661Y765119D01*
X465661Y758508D01*
G54D11*
X461505Y759452D02*
X459238Y758508D01*
X456972Y758508D01*
X454705Y759452D01*
X454705Y761341D01*
X455838Y762285D01*
X460372Y763230D01*
X461505Y764174D01*
X461505Y766063D01*
X459238Y767008D01*
X456972Y767008D01*
X454705Y766063D01*
G54D11*
X450549Y758508D02*
X450549Y767008D01*
G54D11*
X450549Y769841D02*
X450549Y769841D01*
G54D11*
X439593Y760774D02*
X439593Y764552D01*
X440726Y766441D01*
X442993Y767008D01*
X445260Y766441D01*
X446393Y764552D01*
X446393Y760774D01*
X445260Y758885D01*
X442993Y758508D01*
X440726Y758885D01*
X439593Y760774D01*
G54D11*
X435437Y758508D02*
X435437Y767008D01*
G54D11*
X435437Y765119D02*
X434304Y766441D01*
X432037Y767008D01*
X429770Y766441D01*
X428637Y765119D01*
X428637Y758508D01*
G54D11*
X424481Y765119D02*
X415414Y765119D01*
G54D11*
X411258Y767008D02*
X411258Y754730D01*
G54D11*
X411258Y761341D02*
X410125Y758885D01*
X407858Y758508D01*
X405591Y758885D01*
X404458Y760774D01*
X404458Y764552D01*
X405591Y766441D01*
X407858Y767008D01*
X410125Y766441D01*
X411258Y764174D01*
G54D11*
X394635Y766441D02*
X396902Y767008D01*
X399169Y766441D01*
X400302Y764552D01*
X400302Y760774D01*
X399169Y758885D01*
X396902Y758508D01*
X394635Y758885D01*
G54D11*
X390479Y758508D02*
X390479Y773619D01*
G54D11*
X390479Y764552D02*
X389346Y766441D01*
X387079Y767008D01*
X384812Y766441D01*
X383679Y764552D01*
X383679Y760774D01*
X384812Y758885D01*
X387079Y758508D01*
X389346Y758885D01*
X390479Y760774D01*
G54D12*
X625127Y557369D02*
X625127Y546258D01*
X626460Y544036D01*
X629127Y542925D01*
X631794Y542925D01*
X634460Y544036D01*
X635794Y546258D01*
X635794Y557369D01*
X634460Y559592D01*
X631794Y560703D01*
X629127Y560703D01*
X626460Y559592D01*
X625127Y557369D01*
G54D12*
X620238Y546258D02*
X618904Y544036D01*
X616238Y542925D01*
X613571Y542925D01*
X610904Y544036D01*
X609571Y546258D01*
X609571Y548481D01*
X610904Y550703D01*
X613571Y551814D01*
X616238Y551814D01*
X618904Y552925D01*
X620238Y555147D01*
X620238Y557369D01*
X618904Y559592D01*
X616238Y560703D01*
X613571Y560703D01*
X610904Y559592D01*
X609571Y557369D01*
G54D12*
X604682Y542925D02*
X604682Y560703D01*
G54D12*
X594015Y542925D02*
X594015Y560703D01*
G54D12*
X604682Y551814D02*
X594015Y551814D01*
G54D12*
X589126Y560703D02*
X589126Y542925D01*
X582459Y554036D01*
X575792Y542925D01*
X575792Y560703D01*
X647700Y701675D02*
G54D13*
D03*
X644525Y698500D02*
G54D13*
D03*
X641350Y695325D02*
G54D13*
D03*
X638175Y692150D02*
G54D13*
D03*
X647700Y708025D02*
G54D13*
D03*
X644525Y711200D02*
G54D13*
D03*
X641350Y714375D02*
G54D13*
D03*
X638175Y717550D02*
G54D13*
D03*
X635000Y720725D02*
G54D13*
D03*
X635000Y688975D02*
G54D13*
D03*
X631825Y685800D02*
G54D13*
D03*
X628650Y682625D02*
G54D13*
D03*
X625475Y679450D02*
G54D13*
D03*
X619125Y679450D02*
G54D13*
D03*
X615950Y682625D02*
G54D13*
D03*
X612775Y685800D02*
G54D13*
D03*
X609600Y688975D02*
G54D13*
D03*
X606425Y692150D02*
G54D13*
D03*
X603250Y695325D02*
G54D13*
D03*
X600075Y698500D02*
G54D13*
D03*
X596900Y701675D02*
G54D13*
D03*
X593725Y704850D02*
G54D13*
D03*
X631825Y723900D02*
G54D13*
D03*
X628650Y727075D02*
G54D13*
D03*
X625475Y730250D02*
G54D13*
D03*
X622300Y733425D02*
G54D13*
D03*
X606425Y730250D02*
G54D13*
D03*
X596900Y720725D02*
G54D13*
D03*
X593725Y723900D02*
G54D13*
D03*
X603250Y733425D02*
G54D13*
D03*
X603250Y739775D02*
G54D13*
D03*
X600075Y742950D02*
G54D13*
D03*
X596900Y739775D02*
G54D13*
D03*
X593725Y736600D02*
G54D13*
D03*
X590550Y733425D02*
G54D13*
D03*
X587375Y730250D02*
G54D13*
D03*
X584200Y727075D02*
G54D13*
D03*
X587375Y723900D02*
G54D13*
D03*
X638175Y711200D02*
G54D13*
D03*
X635000Y711200D02*
G54D13*
D03*
X631825Y714375D02*
G54D13*
D03*
X628650Y711200D02*
G54D13*
D03*
X625475Y711200D02*
G54D13*
D03*
X622300Y711200D02*
G54D13*
D03*
X619125Y708025D02*
G54D13*
D03*
X615950Y708025D02*
G54D13*
D03*
X612775Y711200D02*
G54D13*
D03*
X609600Y711200D02*
G54D13*
D03*
X606425Y711200D02*
G54D13*
D03*
X603250Y711200D02*
G54D13*
D03*
X600075Y711200D02*
G54D13*
D03*
X596900Y708025D02*
G54D13*
D03*
X581025Y736600D02*
G54D13*
D03*
X581025Y733425D02*
G54D13*
D03*
X581025Y730250D02*
G54D13*
D03*
X577850Y730250D02*
G54D13*
D03*
X577850Y736600D02*
G54D13*
D03*
X574675Y736600D02*
G54D13*
D03*
X574675Y739775D02*
G54D13*
D03*
X574675Y742950D02*
G54D13*
D03*
X571500Y742950D02*
G54D13*
D03*
X568325Y742950D02*
G54D13*
D03*
X568325Y739775D02*
G54D13*
D03*
X568325Y736600D02*
G54D13*
D03*
X565150Y736600D02*
G54D13*
D03*
X561975Y736600D02*
G54D13*
D03*
X561975Y733425D02*
G54D13*
D03*
X561975Y730250D02*
G54D13*
D03*
X565150Y730250D02*
G54D13*
D03*
X568325Y730250D02*
G54D13*
D03*
X574675Y730250D02*
G54D13*
D03*
X574675Y727075D02*
G54D13*
D03*
X574675Y723900D02*
G54D13*
D03*
X571500Y723900D02*
G54D13*
D03*
X568325Y723900D02*
G54D13*
D03*
X568325Y727075D02*
G54D13*
D03*
X619125Y736600D02*
G54D13*
D03*
X612775Y736600D02*
G54D13*
D03*
X609600Y733425D02*
G54D13*
D03*
X593725Y717550D02*
G54D13*
D03*
X590550Y714375D02*
G54D13*
D03*
X590550Y708025D02*
G54D13*
D03*
X593725Y698500D02*
G54D13*
D03*
X590550Y698500D02*
G54D13*
D03*
X587375Y698500D02*
G54D13*
D03*
X584200Y698500D02*
G54D13*
D03*
X581025Y698500D02*
G54D13*
D03*
X587375Y695325D02*
G54D13*
D03*
X587375Y692150D02*
G54D13*
D03*
X587375Y688975D02*
G54D13*
D03*
X587375Y685800D02*
G54D13*
D03*
X587375Y682625D02*
G54D13*
D03*
X590550Y679450D02*
G54D13*
D03*
X593725Y679450D02*
G54D13*
D03*
X596900Y682625D02*
G54D13*
D03*
X577850Y679450D02*
G54D13*
D03*
X574675Y682625D02*
G54D13*
D03*
X574675Y685800D02*
G54D13*
D03*
X574675Y688975D02*
G54D13*
D03*
X574675Y692150D02*
G54D13*
D03*
X571500Y679450D02*
G54D13*
D03*
X568325Y679450D02*
G54D13*
D03*
X565150Y679450D02*
G54D13*
D03*
X565150Y682625D02*
G54D13*
D03*
X565150Y685800D02*
G54D13*
D03*
X565150Y688975D02*
G54D13*
D03*
X565150Y692150D02*
G54D13*
D03*
X558800Y695325D02*
G54D13*
D03*
X558800Y688975D02*
G54D13*
D03*
X558800Y685800D02*
G54D13*
D03*
X558800Y682625D02*
G54D13*
D03*
X558800Y679450D02*
G54D13*
D03*
X552450Y682625D02*
G54D13*
D03*
X552450Y685800D02*
G54D13*
D03*
X552450Y688975D02*
G54D13*
D03*
X549275Y692150D02*
G54D13*
D03*
X546100Y692150D02*
G54D13*
D03*
X549275Y679450D02*
G54D13*
D03*
X546100Y679450D02*
G54D13*
D03*
X542925Y679450D02*
G54D13*
D03*
X542925Y692150D02*
G54D13*
D03*
X536575Y682625D02*
G54D13*
D03*
X536575Y685800D02*
G54D13*
D03*
X536575Y688975D02*
G54D13*
D03*
X533400Y692150D02*
G54D13*
D03*
X530225Y692150D02*
G54D13*
D03*
X527050Y692150D02*
G54D13*
D03*
X533400Y679450D02*
G54D13*
D03*
X530225Y679450D02*
G54D13*
D03*
X527050Y679450D02*
G54D13*
D03*
X523875Y688975D02*
G54D13*
D03*
X523875Y685800D02*
G54D13*
D03*
X527050Y685800D02*
G54D13*
D03*
X530225Y685800D02*
G54D13*
D03*
X533400Y685800D02*
G54D13*
D03*
X625475Y698500D02*
G54D13*
D03*
X622300Y695325D02*
G54D13*
D03*
X619125Y698500D02*
G54D13*
D03*
X622300Y701675D02*
G54D13*
D03*
X612775Y695325D02*
G54D13*
D03*
X635000Y704850D02*
G54D13*
D03*
X606425Y704850D02*
G54D13*
D03*
X622300Y685800D02*
G54D13*
D03*
X638175Y701675D02*
G54D13*
D03*
X577850Y717550D02*
G54D13*
D03*
X574675Y717550D02*
G54D13*
D03*
X571500Y717550D02*
G54D13*
D03*
X568325Y717550D02*
G54D13*
D03*
X565150Y717550D02*
G54D13*
D03*
X565150Y714375D02*
G54D13*
D03*
X565150Y711200D02*
G54D13*
D03*
X568325Y708025D02*
G54D13*
D03*
X571500Y704850D02*
G54D13*
D03*
X574675Y701675D02*
G54D13*
D03*
X561975Y723900D02*
G54D13*
D03*
X561975Y720725D02*
G54D13*
D03*
X558800Y720725D02*
G54D13*
D03*
X558800Y723900D02*
G54D13*
D03*
X555625Y717550D02*
G54D13*
D03*
X552450Y717550D02*
G54D13*
D03*
X549275Y717550D02*
G54D13*
D03*
X546100Y717550D02*
G54D13*
D03*
X542925Y717550D02*
G54D13*
D03*
X555625Y711200D02*
G54D13*
D03*
X552450Y711200D02*
G54D13*
D03*
X549275Y711200D02*
G54D13*
D03*
X546100Y711200D02*
G54D13*
D03*
X542925Y711200D02*
G54D13*
D03*
X542925Y708025D02*
G54D13*
D03*
X546100Y704850D02*
G54D13*
D03*
X549275Y701675D02*
G54D13*
D03*
X555625Y701675D02*
G54D13*
D03*
X552450Y701675D02*
G54D13*
D03*
X536575Y717550D02*
G54D13*
D03*
X533400Y717550D02*
G54D13*
D03*
X530225Y717550D02*
G54D13*
D03*
X527050Y717550D02*
G54D13*
D03*
X523875Y717550D02*
G54D13*
D03*
X523875Y714375D02*
G54D13*
D03*
X527050Y711200D02*
G54D13*
D03*
X530225Y708025D02*
G54D13*
D03*
X533400Y704850D02*
G54D13*
D03*
X536575Y701675D02*
G54D13*
D03*
X527050Y704850D02*
G54D13*
D03*
X523875Y701675D02*
G54D13*
D03*
X615950Y730250D02*
G54D13*
D03*
X619125Y727075D02*
G54D13*
D03*
G54D14*
X549783Y731519D02*
X547783Y730408D01*
X547117Y729297D01*
X547117Y727075D01*
G54D14*
X552450Y727075D02*
X552450Y735964D01*
X549117Y735964D01*
X547783Y735408D01*
X547117Y734297D01*
X547117Y733186D01*
X547783Y732075D01*
X549117Y731519D01*
X552450Y731519D01*
G54D14*
X540673Y727631D02*
X541740Y727075D01*
X543073Y727075D01*
X544406Y727631D01*
X544673Y728742D01*
X544673Y730631D01*
X544006Y731742D01*
X542673Y732075D01*
X541340Y731742D01*
X540673Y730964D01*
X540673Y729853D01*
X544673Y729853D01*
G54D14*
X538229Y732075D02*
X535562Y727075D01*
X532896Y732075D01*
G54D14*
X530452Y727075D02*
X530452Y727075D01*
G54D14*
X528008Y732631D02*
X524675Y735964D01*
X524675Y727075D01*
G54D14*
X522231Y727075D02*
X522231Y727075D01*
G54D14*
X514454Y734297D02*
X514454Y728742D01*
X515120Y727631D01*
X516454Y727075D01*
X517787Y727075D01*
X519120Y727631D01*
X519787Y728742D01*
X519787Y734297D01*
X519120Y735408D01*
X517787Y735964D01*
X516454Y735964D01*
X515120Y735408D01*
X514454Y734297D01*
G54D10*
X930672Y634206D02*
X941784Y634206D01*
X944166Y623888D01*
X951706Y620712D01*
X960834Y626666D01*
X968772Y619522D01*
X962422Y611584D01*
X965994Y603647D01*
X977106Y602059D01*
X977106Y591344D01*
X967184Y590153D01*
X963612Y581819D01*
X968772Y574278D01*
X961231Y566738D01*
X952500Y572294D01*
X948134Y569516D01*
X940594Y586184D01*
G54D10*
X931862Y586184D02*
X924322Y569912D01*
X919956Y571897D01*
X911622Y566341D01*
X903288Y573881D01*
X909241Y581819D01*
X905669Y590153D01*
X895350Y591344D01*
X895747Y602059D01*
X906462Y604044D01*
X909241Y610394D01*
X903288Y618728D01*
X911225Y626269D01*
X920353Y620712D01*
X929084Y623888D01*
X930672Y634206D01*
G54D10*
G75*
G01X940325Y586869D02*
G03X932119Y586869I-4103J9665D01*
G01*
G36*
X895747Y602059D02*
X906462Y604044D01*
X909241Y610394D01*
X903288Y618728D01*
X911225Y626269D01*
X920353Y620712D01*
X929084Y623888D01*
X930672Y634206D01*
X941784Y634206D01*
X944166Y623888D01*
X951706Y620712D01*
X960834Y626666D01*
X968772Y619522D01*
X962422Y611584D01*
X965994Y603647D01*
X977106Y602059D01*
X977106Y591344D01*
X967184Y590153D01*
X963612Y581819D01*
X968772Y574278D01*
X961231Y566738D01*
X952500Y572294D01*
X948134Y569516D01*
X940197Y586978D01*
X941388Y587375D01*
X942578Y588169D01*
X944959Y590550D01*
X946547Y593725D01*
X946944Y595709D01*
X946944Y597297D01*
X946547Y599678D01*
X945356Y602456D01*
X942975Y605234D01*
X940991Y606425D01*
X939006Y607219D01*
X936625Y607616D01*
X934244Y607219D01*
X931069Y606425D01*
X928291Y604044D01*
X925512Y600075D01*
X925512Y593725D01*
X926703Y591344D01*
X928291Y588962D01*
X930672Y586978D01*
X932259Y586978D01*
X924322Y569912D01*
X919956Y571897D01*
X911622Y566341D01*
X903288Y573881D01*
X909241Y581819D01*
X895747Y602059D01*
G37*
G54D10*
X895747Y602059D02*
X906462Y604044D01*
X909241Y610394D01*
X903288Y618728D01*
X911225Y626269D01*
X920353Y620712D01*
X929084Y623888D01*
X930672Y634206D01*
X941784Y634206D01*
X944166Y623888D01*
X951706Y620712D01*
X960834Y626666D01*
X968772Y619522D01*
X962422Y611584D01*
X965994Y603647D01*
X977106Y602059D01*
X977106Y591344D01*
X967184Y590153D01*
X963612Y581819D01*
X968772Y574278D01*
X961231Y566738D01*
X952500Y572294D01*
X948134Y569516D01*
X940197Y586978D01*
X941388Y587375D01*
X942578Y588169D01*
X944959Y590550D01*
X946547Y593725D01*
X946944Y595709D01*
X946944Y597297D01*
X946547Y599678D01*
X945356Y602456D01*
X942975Y605234D01*
X940991Y606425D01*
X939006Y607219D01*
X936625Y607616D01*
X934244Y607219D01*
X931069Y606425D01*
X928291Y604044D01*
X925512Y600075D01*
X925512Y593725D01*
X926703Y591344D01*
X928291Y588962D01*
X930672Y586978D01*
X932259Y586978D01*
X924322Y569912D01*
X919956Y571897D01*
X911622Y566341D01*
X903288Y573881D01*
X909241Y581819D01*
X895747Y602059D01*
G36*
X895747Y602059D02*
X895350Y591344D01*
X905669Y590153D01*
X895747Y602059D01*
G37*
G54D10*
X895747Y602059D02*
X895350Y591344D01*
X905669Y590153D01*
X895747Y602059D01*
G54D11*
X981075Y781050D02*
X981075Y796161D01*
G54D11*
X981075Y787094D02*
X979942Y788983D01*
X977675Y789550D01*
X975408Y788983D01*
X974275Y787094D01*
X974275Y781050D01*
G54D11*
X967852Y796161D02*
X967852Y781994D01*
X966719Y781050D01*
X965586Y781428D01*
G54D11*
X970119Y789550D02*
X965586Y789550D01*
G54D11*
X959163Y796161D02*
X959163Y781994D01*
X958030Y781050D01*
X956897Y781428D01*
G54D11*
X961430Y789550D02*
X956897Y789550D01*
G54D11*
X952741Y789550D02*
X952741Y777272D01*
G54D11*
X952741Y783883D02*
X951608Y781428D01*
X949341Y781050D01*
X947074Y781428D01*
X945941Y783317D01*
X945941Y787094D01*
X947074Y788983D01*
X949341Y789550D01*
X951608Y788983D01*
X952741Y786717D01*
G54D11*
X941785Y781994D02*
X939518Y781050D01*
X937252Y781050D01*
X934985Y781994D01*
X934985Y783883D01*
X936118Y784828D01*
X940652Y785772D01*
X941785Y786717D01*
X941785Y788606D01*
X939518Y789550D01*
X937252Y789550D01*
X934985Y788606D01*
G54D11*
X930829Y781050D02*
X930829Y781050D01*
G54D11*
X930829Y789550D02*
X930829Y789550D01*
G54D11*
X926673Y781050D02*
X917606Y796161D01*
G54D11*
X913450Y781050D02*
X904383Y796161D01*
G54D11*
X900227Y778217D02*
X897960Y777272D01*
X896374Y777272D01*
X894107Y778217D01*
X893427Y780106D01*
X893427Y789550D01*
G54D11*
X893427Y787094D02*
X894560Y788983D01*
X896827Y789550D01*
X899094Y788983D01*
X900227Y787094D01*
X900227Y783317D01*
X899094Y781428D01*
X896827Y781050D01*
X894560Y781428D01*
X893427Y783317D01*
G54D11*
X889271Y781050D02*
X889271Y789550D01*
G54D11*
X889271Y792383D02*
X889271Y792383D01*
G54D11*
X882848Y796161D02*
X882848Y781994D01*
X881715Y781050D01*
X880582Y781428D01*
G54D11*
X885115Y789550D02*
X880582Y789550D01*
G54D11*
X876426Y781050D02*
X876426Y796161D01*
G54D11*
X876426Y787094D02*
X875293Y788983D01*
X873026Y789550D01*
X870759Y788983D01*
X869626Y787094D01*
X869626Y781050D01*
G54D11*
X858670Y789550D02*
X858670Y781050D01*
G54D11*
X858670Y782939D02*
X859803Y781428D01*
X862070Y781050D01*
X864337Y781428D01*
X865470Y782939D01*
X865470Y789550D01*
G54D11*
X854514Y781050D02*
X854514Y796161D01*
G54D11*
X854514Y787094D02*
X853381Y788983D01*
X851114Y789550D01*
X848847Y788983D01*
X847714Y787094D01*
X847714Y783317D01*
X848847Y781428D01*
X851114Y781050D01*
X853381Y781428D01*
X854514Y783317D01*
G54D11*
X843558Y781050D02*
X843558Y781050D01*
G54D11*
X833735Y788983D02*
X836002Y789550D01*
X838269Y788983D01*
X839402Y787094D01*
X839402Y783317D01*
X838269Y781428D01*
X836002Y781050D01*
X833735Y781428D01*
G54D11*
X822779Y783317D02*
X822779Y787094D01*
X823912Y788983D01*
X826179Y789550D01*
X828446Y788983D01*
X829579Y787094D01*
X829579Y783317D01*
X828446Y781428D01*
X826179Y781050D01*
X823912Y781428D01*
X822779Y783317D01*
G54D11*
X818623Y781050D02*
X818623Y789550D01*
G54D11*
X818623Y788039D02*
X816356Y789550D01*
X814090Y788983D01*
X812956Y787661D01*
X812956Y781050D01*
G54D11*
X812956Y788039D02*
X810690Y789550D01*
X808423Y788983D01*
X807290Y787661D01*
X807290Y781050D01*
G54D11*
X803134Y781050D02*
X794067Y796161D01*
G54D11*
X780844Y783883D02*
X781978Y781994D01*
X784244Y781050D01*
X786511Y781050D01*
X788778Y781994D01*
X789911Y783883D01*
X789911Y793328D01*
X788778Y795217D01*
X786511Y796161D01*
X784244Y796161D01*
X781978Y795217D01*
X780844Y793328D01*
G54D11*
X776688Y781050D02*
X776688Y796161D01*
G54D11*
X776688Y787094D02*
X775555Y788983D01*
X773288Y789550D01*
X771021Y788983D01*
X769888Y787094D01*
X769888Y781050D01*
G54D11*
X765732Y781050D02*
X765732Y789550D01*
G54D11*
X765732Y792383D02*
X765732Y792383D01*
G54D11*
X761576Y789550D02*
X761576Y777272D01*
G54D11*
X761576Y783883D02*
X760443Y781428D01*
X758176Y781050D01*
X755909Y781428D01*
X754776Y783317D01*
X754776Y787094D01*
X755909Y788983D01*
X758176Y789550D01*
X760443Y788983D01*
X761576Y786717D01*
G54D11*
X746087Y781050D02*
X746087Y796161D01*
G54D11*
X750620Y796161D02*
X741553Y796161D01*
G54D11*
X730597Y781994D02*
X732410Y781050D01*
X734677Y781050D01*
X736944Y781994D01*
X737397Y783883D01*
X737397Y787094D01*
X736264Y788983D01*
X733997Y789550D01*
X731730Y788983D01*
X730597Y787661D01*
X730597Y785772D01*
X737397Y785772D01*
G54D11*
X720774Y788983D02*
X723041Y789550D01*
X725308Y788983D01*
X726441Y787094D01*
X726441Y783317D01*
X725308Y781428D01*
X723041Y781050D01*
X720774Y781428D01*
G54D11*
X716618Y781050D02*
X716618Y796161D01*
G54D11*
X716618Y787094D02*
X715485Y788983D01*
X713218Y789550D01*
X710951Y788983D01*
X709818Y787094D01*
X709818Y781050D01*
G54D11*
X705662Y781050D02*
X705662Y789550D01*
G54D11*
X705662Y787661D02*
X704529Y788983D01*
X702262Y789550D01*
X699995Y788983D01*
X698862Y787661D01*
X698862Y781050D01*
G54D11*
X687906Y783317D02*
X687906Y787094D01*
X689039Y788983D01*
X691306Y789550D01*
X693573Y788983D01*
X694706Y787094D01*
X694706Y783317D01*
X693573Y781428D01*
X691306Y781050D01*
X689039Y781428D01*
X687906Y783317D01*
G54D11*
X683750Y781050D02*
X674683Y796161D01*
G54D11*
X931867Y758508D02*
X939800Y758508D01*
X939800Y773619D01*
X931867Y773619D01*
G54D11*
X939800Y766063D02*
X931867Y766063D01*
G54D11*
X927711Y758508D02*
X927711Y767008D01*
G54D11*
X927711Y765119D02*
X926578Y766441D01*
X924311Y767008D01*
X922044Y766441D01*
X920911Y765119D01*
X920911Y758508D01*
G54D11*
X909955Y758508D02*
X909955Y773619D01*
G54D11*
X909955Y764552D02*
X911088Y766441D01*
X913355Y767008D01*
X915622Y766441D01*
X916755Y764552D01*
X916755Y760774D01*
X915622Y758885D01*
X913355Y758508D01*
X911088Y758885D01*
X909955Y760774D01*
G54D11*
X898999Y759452D02*
X900812Y758508D01*
X903079Y758508D01*
X905346Y759452D01*
X905799Y761341D01*
X905799Y764552D01*
X904666Y766441D01*
X902399Y767008D01*
X900132Y766441D01*
X898999Y765119D01*
X898999Y763230D01*
X905799Y763230D01*
G54D11*
X894843Y758508D02*
X894843Y767008D01*
G54D11*
X894843Y765119D02*
X892576Y767008D01*
X890310Y767008D01*
G54D11*
X886154Y765119D02*
X877087Y765119D01*
G54D11*
X872931Y770785D02*
X871798Y772674D01*
X869531Y773619D01*
X867264Y773619D01*
X864998Y772674D01*
X863864Y770785D01*
X863864Y768896D01*
X864998Y767008D01*
X867264Y766063D01*
X864998Y765119D01*
X863864Y763230D01*
X863864Y761341D01*
X864998Y759452D01*
X867264Y758508D01*
X869531Y758508D01*
X871798Y759452D01*
X872931Y761341D01*
G54D11*
X859708Y765119D02*
X850641Y765119D01*
G54D11*
X839685Y759452D02*
X841498Y758508D01*
X843765Y758508D01*
X846032Y759452D01*
X846485Y761341D01*
X846485Y764552D01*
X845352Y766441D01*
X843085Y767008D01*
X840818Y766441D01*
X839685Y765119D01*
X839685Y763230D01*
X846485Y763230D01*
G54D11*
X835529Y767008D02*
X826462Y758508D01*
G54D11*
X835529Y758508D02*
X826462Y767008D01*
G54D11*
X820039Y773619D02*
X820039Y759452D01*
X818906Y758508D01*
X817773Y758885D01*
G54D11*
X822306Y767008D02*
X817773Y767008D01*
G54D11*
X806817Y759452D02*
X808630Y758508D01*
X810897Y758508D01*
X813164Y759452D01*
X813617Y761341D01*
X813617Y764552D01*
X812484Y766441D01*
X810217Y767008D01*
X807950Y766441D01*
X806817Y765119D01*
X806817Y763230D01*
X813617Y763230D01*
G54D11*
X802661Y758508D02*
X802661Y767008D01*
G54D11*
X802661Y765119D02*
X801528Y766441D01*
X799261Y767008D01*
X796994Y766441D01*
X795861Y765119D01*
X795861Y758508D01*
G54D11*
X791705Y759452D02*
X789438Y758508D01*
X787172Y758508D01*
X784905Y759452D01*
X784905Y761341D01*
X786038Y762285D01*
X790572Y763230D01*
X791705Y764174D01*
X791705Y766063D01*
X789438Y767008D01*
X787172Y767008D01*
X784905Y766063D01*
G54D11*
X780749Y758508D02*
X780749Y767008D01*
G54D11*
X780749Y769841D02*
X780749Y769841D01*
G54D11*
X769793Y760774D02*
X769793Y764552D01*
X770926Y766441D01*
X773193Y767008D01*
X775460Y766441D01*
X776593Y764552D01*
X776593Y760774D01*
X775460Y758885D01*
X773193Y758508D01*
X770926Y758885D01*
X769793Y760774D01*
G54D11*
X765637Y758508D02*
X765637Y767008D01*
G54D11*
X765637Y765119D02*
X764504Y766441D01*
X762237Y767008D01*
X759970Y766441D01*
X758837Y765119D01*
X758837Y758508D01*
G54D11*
X754681Y765119D02*
X745614Y765119D01*
G54D11*
X741458Y767008D02*
X741458Y754730D01*
G54D11*
X741458Y761341D02*
X740325Y758885D01*
X738058Y758508D01*
X735791Y758885D01*
X734658Y760774D01*
X734658Y764552D01*
X735791Y766441D01*
X738058Y767008D01*
X740325Y766441D01*
X741458Y764174D01*
G54D11*
X724835Y766441D02*
X727102Y767008D01*
X729369Y766441D01*
X730502Y764552D01*
X730502Y760774D01*
X729369Y758885D01*
X727102Y758508D01*
X724835Y758885D01*
G54D11*
X720679Y758508D02*
X720679Y773619D01*
G54D11*
X720679Y764552D02*
X719546Y766441D01*
X717279Y767008D01*
X715012Y766441D01*
X713879Y764552D01*
X713879Y760774D01*
X715012Y758885D01*
X717279Y758508D01*
X719546Y758885D01*
X720679Y760774D01*
G54D12*
X955327Y557369D02*
X955327Y546258D01*
X956660Y544036D01*
X959327Y542925D01*
X961994Y542925D01*
X964660Y544036D01*
X965994Y546258D01*
X965994Y557369D01*
X964660Y559592D01*
X961994Y560703D01*
X959327Y560703D01*
X956660Y559592D01*
X955327Y557369D01*
G54D12*
X950438Y546258D02*
X949104Y544036D01*
X946438Y542925D01*
X943771Y542925D01*
X941104Y544036D01*
X939771Y546258D01*
X939771Y548481D01*
X941104Y550703D01*
X943771Y551814D01*
X946438Y551814D01*
X949104Y552925D01*
X950438Y555147D01*
X950438Y557369D01*
X949104Y559592D01*
X946438Y560703D01*
X943771Y560703D01*
X941104Y559592D01*
X939771Y557369D01*
G54D12*
X934882Y542925D02*
X934882Y560703D01*
G54D12*
X924215Y542925D02*
X924215Y560703D01*
G54D12*
X934882Y551814D02*
X924215Y551814D01*
G54D12*
X919326Y560703D02*
X919326Y542925D01*
X912659Y554036D01*
X905992Y542925D01*
X905992Y560703D01*
X977900Y701675D02*
G54D13*
D03*
X974725Y698500D02*
G54D13*
D03*
X971550Y695325D02*
G54D13*
D03*
X968375Y692150D02*
G54D13*
D03*
X977900Y708025D02*
G54D13*
D03*
X974725Y711200D02*
G54D13*
D03*
X971550Y714375D02*
G54D13*
D03*
X968375Y717550D02*
G54D13*
D03*
X965200Y720725D02*
G54D13*
D03*
X965200Y688975D02*
G54D13*
D03*
X962025Y685800D02*
G54D13*
D03*
X958850Y682625D02*
G54D13*
D03*
X955675Y679450D02*
G54D13*
D03*
X949325Y679450D02*
G54D13*
D03*
X946150Y682625D02*
G54D13*
D03*
X942975Y685800D02*
G54D13*
D03*
X939800Y688975D02*
G54D13*
D03*
X936625Y692150D02*
G54D13*
D03*
X933450Y695325D02*
G54D13*
D03*
X930275Y698500D02*
G54D13*
D03*
X927100Y701675D02*
G54D13*
D03*
X923925Y704850D02*
G54D13*
D03*
X962025Y723900D02*
G54D13*
D03*
X958850Y727075D02*
G54D13*
D03*
X955675Y730250D02*
G54D13*
D03*
X952500Y733425D02*
G54D13*
D03*
X936625Y730250D02*
G54D13*
D03*
X927100Y720725D02*
G54D13*
D03*
X923925Y723900D02*
G54D13*
D03*
X933450Y733425D02*
G54D13*
D03*
X933450Y739775D02*
G54D13*
D03*
X930275Y742950D02*
G54D13*
D03*
X927100Y739775D02*
G54D13*
D03*
X923925Y736600D02*
G54D13*
D03*
X920750Y733425D02*
G54D13*
D03*
X917575Y730250D02*
G54D13*
D03*
X914400Y727075D02*
G54D13*
D03*
X917575Y723900D02*
G54D13*
D03*
X968375Y711200D02*
G54D13*
D03*
X965200Y711200D02*
G54D13*
D03*
X962025Y714375D02*
G54D13*
D03*
X958850Y711200D02*
G54D13*
D03*
X955675Y711200D02*
G54D13*
D03*
X952500Y711200D02*
G54D13*
D03*
X949325Y708025D02*
G54D13*
D03*
X946150Y708025D02*
G54D13*
D03*
X942975Y711200D02*
G54D13*
D03*
X939800Y711200D02*
G54D13*
D03*
X936625Y711200D02*
G54D13*
D03*
X933450Y711200D02*
G54D13*
D03*
X930275Y711200D02*
G54D13*
D03*
X927100Y708025D02*
G54D13*
D03*
X911225Y736600D02*
G54D13*
D03*
X911225Y733425D02*
G54D13*
D03*
X911225Y730250D02*
G54D13*
D03*
X908050Y730250D02*
G54D13*
D03*
X908050Y736600D02*
G54D13*
D03*
X904875Y736600D02*
G54D13*
D03*
X904875Y739775D02*
G54D13*
D03*
X904875Y742950D02*
G54D13*
D03*
X901700Y742950D02*
G54D13*
D03*
X898525Y742950D02*
G54D13*
D03*
X898525Y739775D02*
G54D13*
D03*
X898525Y736600D02*
G54D13*
D03*
X895350Y736600D02*
G54D13*
D03*
X892175Y736600D02*
G54D13*
D03*
X892175Y733425D02*
G54D13*
D03*
X892175Y730250D02*
G54D13*
D03*
X895350Y730250D02*
G54D13*
D03*
X898525Y730250D02*
G54D13*
D03*
X904875Y730250D02*
G54D13*
D03*
X904875Y727075D02*
G54D13*
D03*
X904875Y723900D02*
G54D13*
D03*
X901700Y723900D02*
G54D13*
D03*
X898525Y723900D02*
G54D13*
D03*
X898525Y727075D02*
G54D13*
D03*
X949325Y736600D02*
G54D13*
D03*
X942975Y736600D02*
G54D13*
D03*
X939800Y733425D02*
G54D13*
D03*
X923925Y717550D02*
G54D13*
D03*
X920750Y714375D02*
G54D13*
D03*
X920750Y708025D02*
G54D13*
D03*
X923925Y698500D02*
G54D13*
D03*
X920750Y698500D02*
G54D13*
D03*
X917575Y698500D02*
G54D13*
D03*
X914400Y698500D02*
G54D13*
D03*
X911225Y698500D02*
G54D13*
D03*
X917575Y695325D02*
G54D13*
D03*
X917575Y692150D02*
G54D13*
D03*
X917575Y688975D02*
G54D13*
D03*
X917575Y685800D02*
G54D13*
D03*
X917575Y682625D02*
G54D13*
D03*
X920750Y679450D02*
G54D13*
D03*
X923925Y679450D02*
G54D13*
D03*
X927100Y682625D02*
G54D13*
D03*
X908050Y679450D02*
G54D13*
D03*
X904875Y682625D02*
G54D13*
D03*
X904875Y685800D02*
G54D13*
D03*
X904875Y688975D02*
G54D13*
D03*
X904875Y692150D02*
G54D13*
D03*
X901700Y679450D02*
G54D13*
D03*
X898525Y679450D02*
G54D13*
D03*
X895350Y679450D02*
G54D13*
D03*
X895350Y682625D02*
G54D13*
D03*
X895350Y685800D02*
G54D13*
D03*
X895350Y688975D02*
G54D13*
D03*
X895350Y692150D02*
G54D13*
D03*
X889000Y695325D02*
G54D13*
D03*
X889000Y688975D02*
G54D13*
D03*
X889000Y685800D02*
G54D13*
D03*
X889000Y682625D02*
G54D13*
D03*
X889000Y679450D02*
G54D13*
D03*
X882650Y682625D02*
G54D13*
D03*
X882650Y685800D02*
G54D13*
D03*
X882650Y688975D02*
G54D13*
D03*
X879475Y692150D02*
G54D13*
D03*
X876300Y692150D02*
G54D13*
D03*
X879475Y679450D02*
G54D13*
D03*
X876300Y679450D02*
G54D13*
D03*
X873125Y679450D02*
G54D13*
D03*
X873125Y692150D02*
G54D13*
D03*
X866775Y682625D02*
G54D13*
D03*
X866775Y685800D02*
G54D13*
D03*
X866775Y688975D02*
G54D13*
D03*
X863600Y692150D02*
G54D13*
D03*
X860425Y692150D02*
G54D13*
D03*
X857250Y692150D02*
G54D13*
D03*
X863600Y679450D02*
G54D13*
D03*
X860425Y679450D02*
G54D13*
D03*
X857250Y679450D02*
G54D13*
D03*
X854075Y688975D02*
G54D13*
D03*
X854075Y685800D02*
G54D13*
D03*
X857250Y685800D02*
G54D13*
D03*
X860425Y685800D02*
G54D13*
D03*
X863600Y685800D02*
G54D13*
D03*
X955675Y698500D02*
G54D13*
D03*
X952500Y695325D02*
G54D13*
D03*
X949325Y698500D02*
G54D13*
D03*
X952500Y701675D02*
G54D13*
D03*
X942975Y695325D02*
G54D13*
D03*
X965200Y704850D02*
G54D13*
D03*
X936625Y704850D02*
G54D13*
D03*
X952500Y685800D02*
G54D13*
D03*
X968375Y701675D02*
G54D13*
D03*
X908050Y717550D02*
G54D13*
D03*
X904875Y717550D02*
G54D13*
D03*
X901700Y717550D02*
G54D13*
D03*
X898525Y717550D02*
G54D13*
D03*
X895350Y717550D02*
G54D13*
D03*
X895350Y714375D02*
G54D13*
D03*
X895350Y711200D02*
G54D13*
D03*
X898525Y708025D02*
G54D13*
D03*
X901700Y704850D02*
G54D13*
D03*
X904875Y701675D02*
G54D13*
D03*
X892175Y723900D02*
G54D13*
D03*
X892175Y720725D02*
G54D13*
D03*
X889000Y720725D02*
G54D13*
D03*
X889000Y723900D02*
G54D13*
D03*
X885825Y717550D02*
G54D13*
D03*
X882650Y717550D02*
G54D13*
D03*
X879475Y717550D02*
G54D13*
D03*
X876300Y717550D02*
G54D13*
D03*
X873125Y717550D02*
G54D13*
D03*
X885825Y711200D02*
G54D13*
D03*
X882650Y711200D02*
G54D13*
D03*
X879475Y711200D02*
G54D13*
D03*
X876300Y711200D02*
G54D13*
D03*
X873125Y711200D02*
G54D13*
D03*
X873125Y708025D02*
G54D13*
D03*
X876300Y704850D02*
G54D13*
D03*
X879475Y701675D02*
G54D13*
D03*
X885825Y701675D02*
G54D13*
D03*
X882650Y701675D02*
G54D13*
D03*
X866775Y717550D02*
G54D13*
D03*
X863600Y717550D02*
G54D13*
D03*
X860425Y717550D02*
G54D13*
D03*
X857250Y717550D02*
G54D13*
D03*
X854075Y717550D02*
G54D13*
D03*
X854075Y714375D02*
G54D13*
D03*
X857250Y711200D02*
G54D13*
D03*
X860425Y708025D02*
G54D13*
D03*
X863600Y704850D02*
G54D13*
D03*
X866775Y701675D02*
G54D13*
D03*
X857250Y704850D02*
G54D13*
D03*
X854075Y701675D02*
G54D13*
D03*
X946150Y730250D02*
G54D13*
D03*
X949325Y727075D02*
G54D13*
D03*
G54D14*
X879983Y731519D02*
X877983Y730408D01*
X877317Y729297D01*
X877317Y727075D01*
G54D14*
X882650Y727075D02*
X882650Y735964D01*
X879317Y735964D01*
X877983Y735408D01*
X877317Y734297D01*
X877317Y733186D01*
X877983Y732075D01*
X879317Y731519D01*
X882650Y731519D01*
G54D14*
X870873Y727631D02*
X871940Y727075D01*
X873273Y727075D01*
X874606Y727631D01*
X874873Y728742D01*
X874873Y730631D01*
X874206Y731742D01*
X872873Y732075D01*
X871540Y731742D01*
X870873Y730964D01*
X870873Y729853D01*
X874873Y729853D01*
G54D14*
X868429Y732075D02*
X865762Y727075D01*
X863096Y732075D01*
G54D14*
X860652Y727075D02*
X860652Y727075D01*
G54D14*
X858208Y732631D02*
X854875Y735964D01*
X854875Y727075D01*
G54D14*
X852431Y727075D02*
X852431Y727075D01*
G54D14*
X844654Y734297D02*
X844654Y728742D01*
X845320Y727631D01*
X846654Y727075D01*
X847987Y727075D01*
X849320Y727631D01*
X849987Y728742D01*
X849987Y734297D01*
X849320Y735408D01*
X847987Y735964D01*
X846654Y735964D01*
X845320Y735408D01*
X844654Y734297D01*
G54D10*
X270272Y164306D02*
X281384Y164306D01*
X283766Y153988D01*
X291306Y150812D01*
X300434Y156766D01*
X308372Y149622D01*
X302022Y141684D01*
X305594Y133747D01*
X316706Y132159D01*
X316706Y121444D01*
X306784Y120253D01*
X303212Y111919D01*
X308372Y104378D01*
X300831Y96838D01*
X292100Y102394D01*
X287734Y99616D01*
X280194Y116284D01*
G54D10*
X271462Y116284D02*
X263922Y100012D01*
X259556Y101997D01*
X251222Y96441D01*
X242888Y103981D01*
X248841Y111919D01*
X245269Y120253D01*
X234950Y121444D01*
X235347Y132159D01*
X246062Y134144D01*
X248841Y140494D01*
X242888Y148828D01*
X250825Y156369D01*
X259953Y150812D01*
X268684Y153988D01*
X270272Y164306D01*
G54D10*
G75*
G01X279925Y116969D02*
G03X271719Y116969I-4103J9665D01*
G01*
G36*
X235347Y132159D02*
X246062Y134144D01*
X248841Y140494D01*
X242888Y148828D01*
X250825Y156369D01*
X259953Y150812D01*
X268684Y153988D01*
X270272Y164306D01*
X281384Y164306D01*
X283766Y153988D01*
X291306Y150812D01*
X300434Y156766D01*
X308372Y149622D01*
X302022Y141684D01*
X305594Y133747D01*
X316706Y132159D01*
X316706Y121444D01*
X306784Y120253D01*
X303212Y111919D01*
X308372Y104378D01*
X300831Y96838D01*
X292100Y102394D01*
X287734Y99616D01*
X279797Y117078D01*
X280988Y117475D01*
X282178Y118269D01*
X284559Y120650D01*
X286147Y123825D01*
X286544Y125809D01*
X286544Y127397D01*
X286147Y129778D01*
X284956Y132556D01*
X282575Y135334D01*
X280591Y136525D01*
X278606Y137319D01*
X276225Y137716D01*
X273844Y137319D01*
X270669Y136525D01*
X267891Y134144D01*
X265112Y130175D01*
X265112Y123825D01*
X266303Y121444D01*
X267891Y119062D01*
X270272Y117078D01*
X271859Y117078D01*
X263922Y100012D01*
X259556Y101997D01*
X251222Y96441D01*
X242888Y103981D01*
X248841Y111919D01*
X235347Y132159D01*
G37*
G54D10*
X235347Y132159D02*
X246062Y134144D01*
X248841Y140494D01*
X242888Y148828D01*
X250825Y156369D01*
X259953Y150812D01*
X268684Y153988D01*
X270272Y164306D01*
X281384Y164306D01*
X283766Y153988D01*
X291306Y150812D01*
X300434Y156766D01*
X308372Y149622D01*
X302022Y141684D01*
X305594Y133747D01*
X316706Y132159D01*
X316706Y121444D01*
X306784Y120253D01*
X303212Y111919D01*
X308372Y104378D01*
X300831Y96838D01*
X292100Y102394D01*
X287734Y99616D01*
X279797Y117078D01*
X280988Y117475D01*
X282178Y118269D01*
X284559Y120650D01*
X286147Y123825D01*
X286544Y125809D01*
X286544Y127397D01*
X286147Y129778D01*
X284956Y132556D01*
X282575Y135334D01*
X280591Y136525D01*
X278606Y137319D01*
X276225Y137716D01*
X273844Y137319D01*
X270669Y136525D01*
X267891Y134144D01*
X265112Y130175D01*
X265112Y123825D01*
X266303Y121444D01*
X267891Y119062D01*
X270272Y117078D01*
X271859Y117078D01*
X263922Y100012D01*
X259556Y101997D01*
X251222Y96441D01*
X242888Y103981D01*
X248841Y111919D01*
X235347Y132159D01*
G36*
X235347Y132159D02*
X234950Y121444D01*
X245269Y120253D01*
X235347Y132159D01*
G37*
G54D10*
X235347Y132159D02*
X234950Y121444D01*
X245269Y120253D01*
X235347Y132159D01*
G54D11*
X320675Y311150D02*
X320675Y326261D01*
G54D11*
X320675Y317194D02*
X319542Y319083D01*
X317275Y319650D01*
X315008Y319083D01*
X313875Y317194D01*
X313875Y311150D01*
G54D11*
X307452Y326261D02*
X307452Y312094D01*
X306319Y311150D01*
X305186Y311528D01*
G54D11*
X309719Y319650D02*
X305186Y319650D01*
G54D11*
X298763Y326261D02*
X298763Y312094D01*
X297630Y311150D01*
X296497Y311528D01*
G54D11*
X301030Y319650D02*
X296497Y319650D01*
G54D11*
X292341Y319650D02*
X292341Y307372D01*
G54D11*
X292341Y313983D02*
X291208Y311528D01*
X288941Y311150D01*
X286674Y311528D01*
X285541Y313417D01*
X285541Y317194D01*
X286674Y319083D01*
X288941Y319650D01*
X291208Y319083D01*
X292341Y316817D01*
G54D11*
X281385Y312094D02*
X279118Y311150D01*
X276852Y311150D01*
X274585Y312094D01*
X274585Y313983D01*
X275718Y314928D01*
X280252Y315872D01*
X281385Y316817D01*
X281385Y318706D01*
X279118Y319650D01*
X276852Y319650D01*
X274585Y318706D01*
G54D11*
X270429Y311150D02*
X270429Y311150D01*
G54D11*
X270429Y319650D02*
X270429Y319650D01*
G54D11*
X266273Y311150D02*
X257206Y326261D01*
G54D11*
X253050Y311150D02*
X243983Y326261D01*
G54D11*
X239827Y308317D02*
X237560Y307372D01*
X235974Y307372D01*
X233707Y308317D01*
X233027Y310206D01*
X233027Y319650D01*
G54D11*
X233027Y317194D02*
X234160Y319083D01*
X236427Y319650D01*
X238694Y319083D01*
X239827Y317194D01*
X239827Y313417D01*
X238694Y311528D01*
X236427Y311150D01*
X234160Y311528D01*
X233027Y313417D01*
G54D11*
X228871Y311150D02*
X228871Y319650D01*
G54D11*
X228871Y322483D02*
X228871Y322483D01*
G54D11*
X222448Y326261D02*
X222448Y312094D01*
X221315Y311150D01*
X220182Y311528D01*
G54D11*
X224715Y319650D02*
X220182Y319650D01*
G54D11*
X216026Y311150D02*
X216026Y326261D01*
G54D11*
X216026Y317194D02*
X214893Y319083D01*
X212626Y319650D01*
X210359Y319083D01*
X209226Y317194D01*
X209226Y311150D01*
G54D11*
X198270Y319650D02*
X198270Y311150D01*
G54D11*
X198270Y313039D02*
X199403Y311528D01*
X201670Y311150D01*
X203937Y311528D01*
X205070Y313039D01*
X205070Y319650D01*
G54D11*
X194114Y311150D02*
X194114Y326261D01*
G54D11*
X194114Y317194D02*
X192981Y319083D01*
X190714Y319650D01*
X188447Y319083D01*
X187314Y317194D01*
X187314Y313417D01*
X188447Y311528D01*
X190714Y311150D01*
X192981Y311528D01*
X194114Y313417D01*
G54D11*
X183158Y311150D02*
X183158Y311150D01*
G54D11*
X173335Y319083D02*
X175602Y319650D01*
X177869Y319083D01*
X179002Y317194D01*
X179002Y313417D01*
X177869Y311528D01*
X175602Y311150D01*
X173335Y311528D01*
G54D11*
X162379Y313417D02*
X162379Y317194D01*
X163512Y319083D01*
X165779Y319650D01*
X168046Y319083D01*
X169179Y317194D01*
X169179Y313417D01*
X168046Y311528D01*
X165779Y311150D01*
X163512Y311528D01*
X162379Y313417D01*
G54D11*
X158223Y311150D02*
X158223Y319650D01*
G54D11*
X158223Y318139D02*
X155956Y319650D01*
X153690Y319083D01*
X152556Y317761D01*
X152556Y311150D01*
G54D11*
X152556Y318139D02*
X150290Y319650D01*
X148023Y319083D01*
X146890Y317761D01*
X146890Y311150D01*
G54D11*
X142734Y311150D02*
X133667Y326261D01*
G54D11*
X120444Y313983D02*
X121578Y312094D01*
X123844Y311150D01*
X126111Y311150D01*
X128378Y312094D01*
X129511Y313983D01*
X129511Y323428D01*
X128378Y325317D01*
X126111Y326261D01*
X123844Y326261D01*
X121578Y325317D01*
X120444Y323428D01*
G54D11*
X116288Y311150D02*
X116288Y326261D01*
G54D11*
X116288Y317194D02*
X115155Y319083D01*
X112888Y319650D01*
X110621Y319083D01*
X109488Y317194D01*
X109488Y311150D01*
G54D11*
X105332Y311150D02*
X105332Y319650D01*
G54D11*
X105332Y322483D02*
X105332Y322483D01*
G54D11*
X101176Y319650D02*
X101176Y307372D01*
G54D11*
X101176Y313983D02*
X100043Y311528D01*
X97776Y311150D01*
X95509Y311528D01*
X94376Y313417D01*
X94376Y317194D01*
X95509Y319083D01*
X97776Y319650D01*
X100043Y319083D01*
X101176Y316817D01*
G54D11*
X85687Y311150D02*
X85687Y326261D01*
G54D11*
X90220Y326261D02*
X81153Y326261D01*
G54D11*
X70197Y312094D02*
X72010Y311150D01*
X74277Y311150D01*
X76544Y312094D01*
X76997Y313983D01*
X76997Y317194D01*
X75864Y319083D01*
X73597Y319650D01*
X71330Y319083D01*
X70197Y317761D01*
X70197Y315872D01*
X76997Y315872D01*
G54D11*
X60374Y319083D02*
X62641Y319650D01*
X64908Y319083D01*
X66041Y317194D01*
X66041Y313417D01*
X64908Y311528D01*
X62641Y311150D01*
X60374Y311528D01*
G54D11*
X56218Y311150D02*
X56218Y326261D01*
G54D11*
X56218Y317194D02*
X55085Y319083D01*
X52818Y319650D01*
X50551Y319083D01*
X49418Y317194D01*
X49418Y311150D01*
G54D11*
X45262Y311150D02*
X45262Y319650D01*
G54D11*
X45262Y317761D02*
X44129Y319083D01*
X41862Y319650D01*
X39595Y319083D01*
X38462Y317761D01*
X38462Y311150D01*
G54D11*
X27506Y313417D02*
X27506Y317194D01*
X28639Y319083D01*
X30906Y319650D01*
X33173Y319083D01*
X34306Y317194D01*
X34306Y313417D01*
X33173Y311528D01*
X30906Y311150D01*
X28639Y311528D01*
X27506Y313417D01*
G54D11*
X23350Y311150D02*
X14283Y326261D01*
G54D11*
X271467Y288608D02*
X279400Y288608D01*
X279400Y303719D01*
X271467Y303719D01*
G54D11*
X279400Y296163D02*
X271467Y296163D01*
G54D11*
X267311Y288608D02*
X267311Y297108D01*
G54D11*
X267311Y295219D02*
X266178Y296541D01*
X263911Y297108D01*
X261644Y296541D01*
X260511Y295219D01*
X260511Y288608D01*
G54D11*
X249555Y288608D02*
X249555Y303719D01*
G54D11*
X249555Y294652D02*
X250688Y296541D01*
X252955Y297108D01*
X255222Y296541D01*
X256355Y294652D01*
X256355Y290874D01*
X255222Y288985D01*
X252955Y288608D01*
X250688Y288985D01*
X249555Y290874D01*
G54D11*
X238599Y289552D02*
X240412Y288608D01*
X242679Y288608D01*
X244946Y289552D01*
X245399Y291441D01*
X245399Y294652D01*
X244266Y296541D01*
X241999Y297108D01*
X239732Y296541D01*
X238599Y295219D01*
X238599Y293330D01*
X245399Y293330D01*
G54D11*
X234443Y288608D02*
X234443Y297108D01*
G54D11*
X234443Y295219D02*
X232176Y297108D01*
X229910Y297108D01*
G54D11*
X225754Y295219D02*
X216687Y295219D01*
G54D11*
X212531Y300885D02*
X211398Y302774D01*
X209131Y303719D01*
X206864Y303719D01*
X204598Y302774D01*
X203464Y300885D01*
X203464Y298996D01*
X204598Y297108D01*
X206864Y296163D01*
X204598Y295219D01*
X203464Y293330D01*
X203464Y291441D01*
X204598Y289552D01*
X206864Y288608D01*
X209131Y288608D01*
X211398Y289552D01*
X212531Y291441D01*
G54D11*
X199308Y295219D02*
X190241Y295219D01*
G54D11*
X179285Y289552D02*
X181098Y288608D01*
X183365Y288608D01*
X185632Y289552D01*
X186085Y291441D01*
X186085Y294652D01*
X184952Y296541D01*
X182685Y297108D01*
X180418Y296541D01*
X179285Y295219D01*
X179285Y293330D01*
X186085Y293330D01*
G54D11*
X175129Y297108D02*
X166062Y288608D01*
G54D11*
X175129Y288608D02*
X166062Y297108D01*
G54D11*
X159639Y303719D02*
X159639Y289552D01*
X158506Y288608D01*
X157373Y288985D01*
G54D11*
X161906Y297108D02*
X157373Y297108D01*
G54D11*
X146417Y289552D02*
X148230Y288608D01*
X150497Y288608D01*
X152764Y289552D01*
X153217Y291441D01*
X153217Y294652D01*
X152084Y296541D01*
X149817Y297108D01*
X147550Y296541D01*
X146417Y295219D01*
X146417Y293330D01*
X153217Y293330D01*
G54D11*
X142261Y288608D02*
X142261Y297108D01*
G54D11*
X142261Y295219D02*
X141128Y296541D01*
X138861Y297108D01*
X136594Y296541D01*
X135461Y295219D01*
X135461Y288608D01*
G54D11*
X131305Y289552D02*
X129038Y288608D01*
X126772Y288608D01*
X124505Y289552D01*
X124505Y291441D01*
X125638Y292385D01*
X130172Y293330D01*
X131305Y294274D01*
X131305Y296163D01*
X129038Y297108D01*
X126772Y297108D01*
X124505Y296163D01*
G54D11*
X120349Y288608D02*
X120349Y297108D01*
G54D11*
X120349Y299941D02*
X120349Y299941D01*
G54D11*
X109393Y290874D02*
X109393Y294652D01*
X110526Y296541D01*
X112793Y297108D01*
X115060Y296541D01*
X116193Y294652D01*
X116193Y290874D01*
X115060Y288985D01*
X112793Y288608D01*
X110526Y288985D01*
X109393Y290874D01*
G54D11*
X105237Y288608D02*
X105237Y297108D01*
G54D11*
X105237Y295219D02*
X104104Y296541D01*
X101837Y297108D01*
X99570Y296541D01*
X98437Y295219D01*
X98437Y288608D01*
G54D11*
X94281Y295219D02*
X85214Y295219D01*
G54D11*
X81058Y297108D02*
X81058Y284830D01*
G54D11*
X81058Y291441D02*
X79925Y288985D01*
X77658Y288608D01*
X75391Y288985D01*
X74258Y290874D01*
X74258Y294652D01*
X75391Y296541D01*
X77658Y297108D01*
X79925Y296541D01*
X81058Y294274D01*
G54D11*
X64435Y296541D02*
X66702Y297108D01*
X68969Y296541D01*
X70102Y294652D01*
X70102Y290874D01*
X68969Y288985D01*
X66702Y288608D01*
X64435Y288985D01*
G54D11*
X60279Y288608D02*
X60279Y303719D01*
G54D11*
X60279Y294652D02*
X59146Y296541D01*
X56879Y297108D01*
X54612Y296541D01*
X53479Y294652D01*
X53479Y290874D01*
X54612Y288985D01*
X56879Y288608D01*
X59146Y288985D01*
X60279Y290874D01*
G54D12*
X294927Y87469D02*
X294927Y76358D01*
X296260Y74136D01*
X298927Y73025D01*
X301594Y73025D01*
X304260Y74136D01*
X305594Y76358D01*
X305594Y87469D01*
X304260Y89692D01*
X301594Y90803D01*
X298927Y90803D01*
X296260Y89692D01*
X294927Y87469D01*
G54D12*
X290038Y76358D02*
X288704Y74136D01*
X286038Y73025D01*
X283371Y73025D01*
X280704Y74136D01*
X279371Y76358D01*
X279371Y78581D01*
X280704Y80803D01*
X283371Y81914D01*
X286038Y81914D01*
X288704Y83025D01*
X290038Y85247D01*
X290038Y87469D01*
X288704Y89692D01*
X286038Y90803D01*
X283371Y90803D01*
X280704Y89692D01*
X279371Y87469D01*
G54D12*
X274482Y73025D02*
X274482Y90803D01*
G54D12*
X263815Y73025D02*
X263815Y90803D01*
G54D12*
X274482Y81914D02*
X263815Y81914D01*
G54D12*
X258926Y90803D02*
X258926Y73025D01*
X252259Y84136D01*
X245592Y73025D01*
X245592Y90803D01*
X317500Y231775D02*
G54D13*
D03*
X314325Y228600D02*
G54D13*
D03*
X311150Y225425D02*
G54D13*
D03*
X307975Y222250D02*
G54D13*
D03*
X317500Y238125D02*
G54D13*
D03*
X314325Y241300D02*
G54D13*
D03*
X311150Y244475D02*
G54D13*
D03*
X307975Y247650D02*
G54D13*
D03*
X304800Y250825D02*
G54D13*
D03*
X304800Y219075D02*
G54D13*
D03*
X301625Y215900D02*
G54D13*
D03*
X298450Y212725D02*
G54D13*
D03*
X295275Y209550D02*
G54D13*
D03*
X288925Y209550D02*
G54D13*
D03*
X285750Y212725D02*
G54D13*
D03*
X282575Y215900D02*
G54D13*
D03*
X279400Y219075D02*
G54D13*
D03*
X276225Y222250D02*
G54D13*
D03*
X273050Y225425D02*
G54D13*
D03*
X269875Y228600D02*
G54D13*
D03*
X266700Y231775D02*
G54D13*
D03*
X263525Y234950D02*
G54D13*
D03*
X301625Y254000D02*
G54D13*
D03*
X298450Y257175D02*
G54D13*
D03*
X295275Y260350D02*
G54D13*
D03*
X292100Y263525D02*
G54D13*
D03*
X276225Y260350D02*
G54D13*
D03*
X266700Y250825D02*
G54D13*
D03*
X263525Y254000D02*
G54D13*
D03*
X273050Y263525D02*
G54D13*
D03*
X273050Y269875D02*
G54D13*
D03*
X269875Y273050D02*
G54D13*
D03*
X266700Y269875D02*
G54D13*
D03*
X263525Y266700D02*
G54D13*
D03*
X260350Y263525D02*
G54D13*
D03*
X257175Y260350D02*
G54D13*
D03*
X254000Y257175D02*
G54D13*
D03*
X257175Y254000D02*
G54D13*
D03*
X307975Y241300D02*
G54D13*
D03*
X304800Y241300D02*
G54D13*
D03*
X301625Y244475D02*
G54D13*
D03*
X298450Y241300D02*
G54D13*
D03*
X295275Y241300D02*
G54D13*
D03*
X292100Y241300D02*
G54D13*
D03*
X288925Y238125D02*
G54D13*
D03*
X285750Y238125D02*
G54D13*
D03*
X282575Y241300D02*
G54D13*
D03*
X279400Y241300D02*
G54D13*
D03*
X276225Y241300D02*
G54D13*
D03*
X273050Y241300D02*
G54D13*
D03*
X269875Y241300D02*
G54D13*
D03*
X266700Y238125D02*
G54D13*
D03*
X250825Y266700D02*
G54D13*
D03*
X250825Y263525D02*
G54D13*
D03*
X250825Y260350D02*
G54D13*
D03*
X247650Y260350D02*
G54D13*
D03*
X247650Y266700D02*
G54D13*
D03*
X244475Y266700D02*
G54D13*
D03*
X244475Y269875D02*
G54D13*
D03*
X244475Y273050D02*
G54D13*
D03*
X241300Y273050D02*
G54D13*
D03*
X238125Y273050D02*
G54D13*
D03*
X238125Y269875D02*
G54D13*
D03*
X238125Y266700D02*
G54D13*
D03*
X234950Y266700D02*
G54D13*
D03*
X231775Y266700D02*
G54D13*
D03*
X231775Y263525D02*
G54D13*
D03*
X231775Y260350D02*
G54D13*
D03*
X234950Y260350D02*
G54D13*
D03*
X238125Y260350D02*
G54D13*
D03*
X244475Y260350D02*
G54D13*
D03*
X244475Y257175D02*
G54D13*
D03*
X244475Y254000D02*
G54D13*
D03*
X241300Y254000D02*
G54D13*
D03*
X238125Y254000D02*
G54D13*
D03*
X238125Y257175D02*
G54D13*
D03*
X288925Y266700D02*
G54D13*
D03*
X282575Y266700D02*
G54D13*
D03*
X279400Y263525D02*
G54D13*
D03*
X263525Y247650D02*
G54D13*
D03*
X260350Y244475D02*
G54D13*
D03*
X260350Y238125D02*
G54D13*
D03*
X263525Y228600D02*
G54D13*
D03*
X260350Y228600D02*
G54D13*
D03*
X257175Y228600D02*
G54D13*
D03*
X254000Y228600D02*
G54D13*
D03*
X250825Y228600D02*
G54D13*
D03*
X257175Y225425D02*
G54D13*
D03*
X257175Y222250D02*
G54D13*
D03*
X257175Y219075D02*
G54D13*
D03*
X257175Y215900D02*
G54D13*
D03*
X257175Y212725D02*
G54D13*
D03*
X260350Y209550D02*
G54D13*
D03*
X263525Y209550D02*
G54D13*
D03*
X266700Y212725D02*
G54D13*
D03*
X247650Y209550D02*
G54D13*
D03*
X244475Y212725D02*
G54D13*
D03*
X244475Y215900D02*
G54D13*
D03*
X244475Y219075D02*
G54D13*
D03*
X244475Y222250D02*
G54D13*
D03*
X241300Y209550D02*
G54D13*
D03*
X238125Y209550D02*
G54D13*
D03*
X234950Y209550D02*
G54D13*
D03*
X234950Y212725D02*
G54D13*
D03*
X234950Y215900D02*
G54D13*
D03*
X234950Y219075D02*
G54D13*
D03*
X234950Y222250D02*
G54D13*
D03*
X228600Y225425D02*
G54D13*
D03*
X228600Y219075D02*
G54D13*
D03*
X228600Y215900D02*
G54D13*
D03*
X228600Y212725D02*
G54D13*
D03*
X228600Y209550D02*
G54D13*
D03*
X222250Y212725D02*
G54D13*
D03*
X222250Y215900D02*
G54D13*
D03*
X222250Y219075D02*
G54D13*
D03*
X219075Y222250D02*
G54D13*
D03*
X215900Y222250D02*
G54D13*
D03*
X219075Y209550D02*
G54D13*
D03*
X215900Y209550D02*
G54D13*
D03*
X212725Y209550D02*
G54D13*
D03*
X212725Y222250D02*
G54D13*
D03*
X206375Y212725D02*
G54D13*
D03*
X206375Y215900D02*
G54D13*
D03*
X206375Y219075D02*
G54D13*
D03*
X203200Y222250D02*
G54D13*
D03*
X200025Y222250D02*
G54D13*
D03*
X196850Y222250D02*
G54D13*
D03*
X203200Y209550D02*
G54D13*
D03*
X200025Y209550D02*
G54D13*
D03*
X196850Y209550D02*
G54D13*
D03*
X193675Y219075D02*
G54D13*
D03*
X193675Y215900D02*
G54D13*
D03*
X196850Y215900D02*
G54D13*
D03*
X200025Y215900D02*
G54D13*
D03*
X203200Y215900D02*
G54D13*
D03*
X295275Y228600D02*
G54D13*
D03*
X292100Y225425D02*
G54D13*
D03*
X288925Y228600D02*
G54D13*
D03*
X292100Y231775D02*
G54D13*
D03*
X282575Y225425D02*
G54D13*
D03*
X304800Y234950D02*
G54D13*
D03*
X276225Y234950D02*
G54D13*
D03*
X292100Y215900D02*
G54D13*
D03*
X307975Y231775D02*
G54D13*
D03*
X247650Y247650D02*
G54D13*
D03*
X244475Y247650D02*
G54D13*
D03*
X241300Y247650D02*
G54D13*
D03*
X238125Y247650D02*
G54D13*
D03*
X234950Y247650D02*
G54D13*
D03*
X234950Y244475D02*
G54D13*
D03*
X234950Y241300D02*
G54D13*
D03*
X238125Y238125D02*
G54D13*
D03*
X241300Y234950D02*
G54D13*
D03*
X244475Y231775D02*
G54D13*
D03*
X231775Y254000D02*
G54D13*
D03*
X231775Y250825D02*
G54D13*
D03*
X228600Y250825D02*
G54D13*
D03*
X228600Y254000D02*
G54D13*
D03*
X225425Y247650D02*
G54D13*
D03*
X222250Y247650D02*
G54D13*
D03*
X219075Y247650D02*
G54D13*
D03*
X215900Y247650D02*
G54D13*
D03*
X212725Y247650D02*
G54D13*
D03*
X225425Y241300D02*
G54D13*
D03*
X222250Y241300D02*
G54D13*
D03*
X219075Y241300D02*
G54D13*
D03*
X215900Y241300D02*
G54D13*
D03*
X212725Y241300D02*
G54D13*
D03*
X212725Y238125D02*
G54D13*
D03*
X215900Y234950D02*
G54D13*
D03*
X219075Y231775D02*
G54D13*
D03*
X225425Y231775D02*
G54D13*
D03*
X222250Y231775D02*
G54D13*
D03*
X206375Y247650D02*
G54D13*
D03*
X203200Y247650D02*
G54D13*
D03*
X200025Y247650D02*
G54D13*
D03*
X196850Y247650D02*
G54D13*
D03*
X193675Y247650D02*
G54D13*
D03*
X193675Y244475D02*
G54D13*
D03*
X196850Y241300D02*
G54D13*
D03*
X200025Y238125D02*
G54D13*
D03*
X203200Y234950D02*
G54D13*
D03*
X206375Y231775D02*
G54D13*
D03*
X196850Y234950D02*
G54D13*
D03*
X193675Y231775D02*
G54D13*
D03*
X285750Y260350D02*
G54D13*
D03*
X288925Y257175D02*
G54D13*
D03*
G54D14*
X219583Y261619D02*
X217583Y260508D01*
X216917Y259397D01*
X216917Y257175D01*
G54D14*
X222250Y257175D02*
X222250Y266064D01*
X218917Y266064D01*
X217583Y265508D01*
X216917Y264397D01*
X216917Y263286D01*
X217583Y262175D01*
X218917Y261619D01*
X222250Y261619D01*
G54D14*
X210473Y257731D02*
X211540Y257175D01*
X212873Y257175D01*
X214206Y257731D01*
X214473Y258842D01*
X214473Y260731D01*
X213806Y261842D01*
X212473Y262175D01*
X211140Y261842D01*
X210473Y261064D01*
X210473Y259953D01*
X214473Y259953D01*
G54D14*
X208029Y262175D02*
X205362Y257175D01*
X202696Y262175D01*
G54D14*
X200252Y257175D02*
X200252Y257175D01*
G54D14*
X197808Y262731D02*
X194475Y266064D01*
X194475Y257175D01*
G54D14*
X192031Y257175D02*
X192031Y257175D01*
G54D14*
X184254Y264397D02*
X184254Y258842D01*
X184920Y257731D01*
X186254Y257175D01*
X187587Y257175D01*
X188920Y257731D01*
X189587Y258842D01*
X189587Y264397D01*
X188920Y265508D01*
X187587Y266064D01*
X186254Y266064D01*
X184920Y265508D01*
X184254Y264397D01*
G54D10*
X600472Y164306D02*
X611584Y164306D01*
X613966Y153988D01*
X621506Y150812D01*
X630634Y156766D01*
X638572Y149622D01*
X632222Y141684D01*
X635794Y133747D01*
X646906Y132159D01*
X646906Y121444D01*
X636984Y120253D01*
X633412Y111919D01*
X638572Y104378D01*
X631031Y96838D01*
X622300Y102394D01*
X617934Y99616D01*
X610394Y116284D01*
G54D10*
X601662Y116284D02*
X594122Y100012D01*
X589756Y101997D01*
X581422Y96441D01*
X573088Y103981D01*
X579041Y111919D01*
X575469Y120253D01*
X565150Y121444D01*
X565547Y132159D01*
X576262Y134144D01*
X579041Y140494D01*
X573088Y148828D01*
X581025Y156369D01*
X590153Y150812D01*
X598884Y153988D01*
X600472Y164306D01*
G54D10*
G75*
G01X610125Y116969D02*
G03X601919Y116969I-4103J9665D01*
G01*
G36*
X565547Y132159D02*
X576262Y134144D01*
X579041Y140494D01*
X573088Y148828D01*
X581025Y156369D01*
X590153Y150812D01*
X598884Y153988D01*
X600472Y164306D01*
X611584Y164306D01*
X613966Y153988D01*
X621506Y150812D01*
X630634Y156766D01*
X638572Y149622D01*
X632222Y141684D01*
X635794Y133747D01*
X646906Y132159D01*
X646906Y121444D01*
X636984Y120253D01*
X633412Y111919D01*
X638572Y104378D01*
X631031Y96838D01*
X622300Y102394D01*
X617934Y99616D01*
X609997Y117078D01*
X611188Y117475D01*
X612378Y118269D01*
X614759Y120650D01*
X616347Y123825D01*
X616744Y125809D01*
X616744Y127397D01*
X616347Y129778D01*
X615156Y132556D01*
X612775Y135334D01*
X610791Y136525D01*
X608806Y137319D01*
X606425Y137716D01*
X604044Y137319D01*
X600869Y136525D01*
X598091Y134144D01*
X595312Y130175D01*
X595312Y123825D01*
X596503Y121444D01*
X598091Y119062D01*
X600472Y117078D01*
X602059Y117078D01*
X594122Y100012D01*
X589756Y101997D01*
X581422Y96441D01*
X573088Y103981D01*
X579041Y111919D01*
X565547Y132159D01*
G37*
G54D10*
X565547Y132159D02*
X576262Y134144D01*
X579041Y140494D01*
X573088Y148828D01*
X581025Y156369D01*
X590153Y150812D01*
X598884Y153988D01*
X600472Y164306D01*
X611584Y164306D01*
X613966Y153988D01*
X621506Y150812D01*
X630634Y156766D01*
X638572Y149622D01*
X632222Y141684D01*
X635794Y133747D01*
X646906Y132159D01*
X646906Y121444D01*
X636984Y120253D01*
X633412Y111919D01*
X638572Y104378D01*
X631031Y96838D01*
X622300Y102394D01*
X617934Y99616D01*
X609997Y117078D01*
X611188Y117475D01*
X612378Y118269D01*
X614759Y120650D01*
X616347Y123825D01*
X616744Y125809D01*
X616744Y127397D01*
X616347Y129778D01*
X615156Y132556D01*
X612775Y135334D01*
X610791Y136525D01*
X608806Y137319D01*
X606425Y137716D01*
X604044Y137319D01*
X600869Y136525D01*
X598091Y134144D01*
X595312Y130175D01*
X595312Y123825D01*
X596503Y121444D01*
X598091Y119062D01*
X600472Y117078D01*
X602059Y117078D01*
X594122Y100012D01*
X589756Y101997D01*
X581422Y96441D01*
X573088Y103981D01*
X579041Y111919D01*
X565547Y132159D01*
G36*
X565547Y132159D02*
X565150Y121444D01*
X575469Y120253D01*
X565547Y132159D01*
G37*
G54D10*
X565547Y132159D02*
X565150Y121444D01*
X575469Y120253D01*
X565547Y132159D01*
G54D11*
X650875Y311150D02*
X650875Y326261D01*
G54D11*
X650875Y317194D02*
X649742Y319083D01*
X647475Y319650D01*
X645208Y319083D01*
X644075Y317194D01*
X644075Y311150D01*
G54D11*
X637652Y326261D02*
X637652Y312094D01*
X636519Y311150D01*
X635386Y311528D01*
G54D11*
X639919Y319650D02*
X635386Y319650D01*
G54D11*
X628963Y326261D02*
X628963Y312094D01*
X627830Y311150D01*
X626697Y311528D01*
G54D11*
X631230Y319650D02*
X626697Y319650D01*
G54D11*
X622541Y319650D02*
X622541Y307372D01*
G54D11*
X622541Y313983D02*
X621408Y311528D01*
X619141Y311150D01*
X616874Y311528D01*
X615741Y313417D01*
X615741Y317194D01*
X616874Y319083D01*
X619141Y319650D01*
X621408Y319083D01*
X622541Y316817D01*
G54D11*
X611585Y312094D02*
X609318Y311150D01*
X607052Y311150D01*
X604785Y312094D01*
X604785Y313983D01*
X605918Y314928D01*
X610452Y315872D01*
X611585Y316817D01*
X611585Y318706D01*
X609318Y319650D01*
X607052Y319650D01*
X604785Y318706D01*
G54D11*
X600629Y311150D02*
X600629Y311150D01*
G54D11*
X600629Y319650D02*
X600629Y319650D01*
G54D11*
X596473Y311150D02*
X587406Y326261D01*
G54D11*
X583250Y311150D02*
X574183Y326261D01*
G54D11*
X570027Y308317D02*
X567760Y307372D01*
X566174Y307372D01*
X563907Y308317D01*
X563227Y310206D01*
X563227Y319650D01*
G54D11*
X563227Y317194D02*
X564360Y319083D01*
X566627Y319650D01*
X568894Y319083D01*
X570027Y317194D01*
X570027Y313417D01*
X568894Y311528D01*
X566627Y311150D01*
X564360Y311528D01*
X563227Y313417D01*
G54D11*
X559071Y311150D02*
X559071Y319650D01*
G54D11*
X559071Y322483D02*
X559071Y322483D01*
G54D11*
X552648Y326261D02*
X552648Y312094D01*
X551515Y311150D01*
X550382Y311528D01*
G54D11*
X554915Y319650D02*
X550382Y319650D01*
G54D11*
X546226Y311150D02*
X546226Y326261D01*
G54D11*
X546226Y317194D02*
X545093Y319083D01*
X542826Y319650D01*
X540559Y319083D01*
X539426Y317194D01*
X539426Y311150D01*
G54D11*
X528470Y319650D02*
X528470Y311150D01*
G54D11*
X528470Y313039D02*
X529603Y311528D01*
X531870Y311150D01*
X534137Y311528D01*
X535270Y313039D01*
X535270Y319650D01*
G54D11*
X524314Y311150D02*
X524314Y326261D01*
G54D11*
X524314Y317194D02*
X523181Y319083D01*
X520914Y319650D01*
X518647Y319083D01*
X517514Y317194D01*
X517514Y313417D01*
X518647Y311528D01*
X520914Y311150D01*
X523181Y311528D01*
X524314Y313417D01*
G54D11*
X513358Y311150D02*
X513358Y311150D01*
G54D11*
X503535Y319083D02*
X505802Y319650D01*
X508069Y319083D01*
X509202Y317194D01*
X509202Y313417D01*
X508069Y311528D01*
X505802Y311150D01*
X503535Y311528D01*
G54D11*
X492579Y313417D02*
X492579Y317194D01*
X493712Y319083D01*
X495979Y319650D01*
X498246Y319083D01*
X499379Y317194D01*
X499379Y313417D01*
X498246Y311528D01*
X495979Y311150D01*
X493712Y311528D01*
X492579Y313417D01*
G54D11*
X488423Y311150D02*
X488423Y319650D01*
G54D11*
X488423Y318139D02*
X486156Y319650D01*
X483890Y319083D01*
X482756Y317761D01*
X482756Y311150D01*
G54D11*
X482756Y318139D02*
X480490Y319650D01*
X478223Y319083D01*
X477090Y317761D01*
X477090Y311150D01*
G54D11*
X472934Y311150D02*
X463867Y326261D01*
G54D11*
X450644Y313983D02*
X451778Y312094D01*
X454044Y311150D01*
X456311Y311150D01*
X458578Y312094D01*
X459711Y313983D01*
X459711Y323428D01*
X458578Y325317D01*
X456311Y326261D01*
X454044Y326261D01*
X451778Y325317D01*
X450644Y323428D01*
G54D11*
X446488Y311150D02*
X446488Y326261D01*
G54D11*
X446488Y317194D02*
X445355Y319083D01*
X443088Y319650D01*
X440821Y319083D01*
X439688Y317194D01*
X439688Y311150D01*
G54D11*
X435532Y311150D02*
X435532Y319650D01*
G54D11*
X435532Y322483D02*
X435532Y322483D01*
G54D11*
X431376Y319650D02*
X431376Y307372D01*
G54D11*
X431376Y313983D02*
X430243Y311528D01*
X427976Y311150D01*
X425709Y311528D01*
X424576Y313417D01*
X424576Y317194D01*
X425709Y319083D01*
X427976Y319650D01*
X430243Y319083D01*
X431376Y316817D01*
G54D11*
X415887Y311150D02*
X415887Y326261D01*
G54D11*
X420420Y326261D02*
X411353Y326261D01*
G54D11*
X400397Y312094D02*
X402210Y311150D01*
X404477Y311150D01*
X406744Y312094D01*
X407197Y313983D01*
X407197Y317194D01*
X406064Y319083D01*
X403797Y319650D01*
X401530Y319083D01*
X400397Y317761D01*
X400397Y315872D01*
X407197Y315872D01*
G54D11*
X390574Y319083D02*
X392841Y319650D01*
X395108Y319083D01*
X396241Y317194D01*
X396241Y313417D01*
X395108Y311528D01*
X392841Y311150D01*
X390574Y311528D01*
G54D11*
X386418Y311150D02*
X386418Y326261D01*
G54D11*
X386418Y317194D02*
X385285Y319083D01*
X383018Y319650D01*
X380751Y319083D01*
X379618Y317194D01*
X379618Y311150D01*
G54D11*
X375462Y311150D02*
X375462Y319650D01*
G54D11*
X375462Y317761D02*
X374329Y319083D01*
X372062Y319650D01*
X369795Y319083D01*
X368662Y317761D01*
X368662Y311150D01*
G54D11*
X357706Y313417D02*
X357706Y317194D01*
X358839Y319083D01*
X361106Y319650D01*
X363373Y319083D01*
X364506Y317194D01*
X364506Y313417D01*
X363373Y311528D01*
X361106Y311150D01*
X358839Y311528D01*
X357706Y313417D01*
G54D11*
X353550Y311150D02*
X344483Y326261D01*
G54D11*
X601667Y288608D02*
X609600Y288608D01*
X609600Y303719D01*
X601667Y303719D01*
G54D11*
X609600Y296163D02*
X601667Y296163D01*
G54D11*
X597511Y288608D02*
X597511Y297108D01*
G54D11*
X597511Y295219D02*
X596378Y296541D01*
X594111Y297108D01*
X591844Y296541D01*
X590711Y295219D01*
X590711Y288608D01*
G54D11*
X579755Y288608D02*
X579755Y303719D01*
G54D11*
X579755Y294652D02*
X580888Y296541D01*
X583155Y297108D01*
X585422Y296541D01*
X586555Y294652D01*
X586555Y290874D01*
X585422Y288985D01*
X583155Y288608D01*
X580888Y288985D01*
X579755Y290874D01*
G54D11*
X568799Y289552D02*
X570612Y288608D01*
X572879Y288608D01*
X575146Y289552D01*
X575599Y291441D01*
X575599Y294652D01*
X574466Y296541D01*
X572199Y297108D01*
X569932Y296541D01*
X568799Y295219D01*
X568799Y293330D01*
X575599Y293330D01*
G54D11*
X564643Y288608D02*
X564643Y297108D01*
G54D11*
X564643Y295219D02*
X562376Y297108D01*
X560110Y297108D01*
G54D11*
X555954Y295219D02*
X546887Y295219D01*
G54D11*
X542731Y300885D02*
X541598Y302774D01*
X539331Y303719D01*
X537064Y303719D01*
X534798Y302774D01*
X533664Y300885D01*
X533664Y298996D01*
X534798Y297108D01*
X537064Y296163D01*
X534798Y295219D01*
X533664Y293330D01*
X533664Y291441D01*
X534798Y289552D01*
X537064Y288608D01*
X539331Y288608D01*
X541598Y289552D01*
X542731Y291441D01*
G54D11*
X529508Y295219D02*
X520441Y295219D01*
G54D11*
X509485Y289552D02*
X511298Y288608D01*
X513565Y288608D01*
X515832Y289552D01*
X516285Y291441D01*
X516285Y294652D01*
X515152Y296541D01*
X512885Y297108D01*
X510618Y296541D01*
X509485Y295219D01*
X509485Y293330D01*
X516285Y293330D01*
G54D11*
X505329Y297108D02*
X496262Y288608D01*
G54D11*
X505329Y288608D02*
X496262Y297108D01*
G54D11*
X489839Y303719D02*
X489839Y289552D01*
X488706Y288608D01*
X487573Y288985D01*
G54D11*
X492106Y297108D02*
X487573Y297108D01*
G54D11*
X476617Y289552D02*
X478430Y288608D01*
X480697Y288608D01*
X482964Y289552D01*
X483417Y291441D01*
X483417Y294652D01*
X482284Y296541D01*
X480017Y297108D01*
X477750Y296541D01*
X476617Y295219D01*
X476617Y293330D01*
X483417Y293330D01*
G54D11*
X472461Y288608D02*
X472461Y297108D01*
G54D11*
X472461Y295219D02*
X471328Y296541D01*
X469061Y297108D01*
X466794Y296541D01*
X465661Y295219D01*
X465661Y288608D01*
G54D11*
X461505Y289552D02*
X459238Y288608D01*
X456972Y288608D01*
X454705Y289552D01*
X454705Y291441D01*
X455838Y292385D01*
X460372Y293330D01*
X461505Y294274D01*
X461505Y296163D01*
X459238Y297108D01*
X456972Y297108D01*
X454705Y296163D01*
G54D11*
X450549Y288608D02*
X450549Y297108D01*
G54D11*
X450549Y299941D02*
X450549Y299941D01*
G54D11*
X439593Y290874D02*
X439593Y294652D01*
X440726Y296541D01*
X442993Y297108D01*
X445260Y296541D01*
X446393Y294652D01*
X446393Y290874D01*
X445260Y288985D01*
X442993Y288608D01*
X440726Y288985D01*
X439593Y290874D01*
G54D11*
X435437Y288608D02*
X435437Y297108D01*
G54D11*
X435437Y295219D02*
X434304Y296541D01*
X432037Y297108D01*
X429770Y296541D01*
X428637Y295219D01*
X428637Y288608D01*
G54D11*
X424481Y295219D02*
X415414Y295219D01*
G54D11*
X411258Y297108D02*
X411258Y284830D01*
G54D11*
X411258Y291441D02*
X410125Y288985D01*
X407858Y288608D01*
X405591Y288985D01*
X404458Y290874D01*
X404458Y294652D01*
X405591Y296541D01*
X407858Y297108D01*
X410125Y296541D01*
X411258Y294274D01*
G54D11*
X394635Y296541D02*
X396902Y297108D01*
X399169Y296541D01*
X400302Y294652D01*
X400302Y290874D01*
X399169Y288985D01*
X396902Y288608D01*
X394635Y288985D01*
G54D11*
X390479Y288608D02*
X390479Y303719D01*
G54D11*
X390479Y294652D02*
X389346Y296541D01*
X387079Y297108D01*
X384812Y296541D01*
X383679Y294652D01*
X383679Y290874D01*
X384812Y288985D01*
X387079Y288608D01*
X389346Y288985D01*
X390479Y290874D01*
G54D12*
X625127Y87469D02*
X625127Y76358D01*
X626460Y74136D01*
X629127Y73025D01*
X631794Y73025D01*
X634460Y74136D01*
X635794Y76358D01*
X635794Y87469D01*
X634460Y89692D01*
X631794Y90803D01*
X629127Y90803D01*
X626460Y89692D01*
X625127Y87469D01*
G54D12*
X620238Y76358D02*
X618904Y74136D01*
X616238Y73025D01*
X613571Y73025D01*
X610904Y74136D01*
X609571Y76358D01*
X609571Y78581D01*
X610904Y80803D01*
X613571Y81914D01*
X616238Y81914D01*
X618904Y83025D01*
X620238Y85247D01*
X620238Y87469D01*
X618904Y89692D01*
X616238Y90803D01*
X613571Y90803D01*
X610904Y89692D01*
X609571Y87469D01*
G54D12*
X604682Y73025D02*
X604682Y90803D01*
G54D12*
X594015Y73025D02*
X594015Y90803D01*
G54D12*
X604682Y81914D02*
X594015Y81914D01*
G54D12*
X589126Y90803D02*
X589126Y73025D01*
X582459Y84136D01*
X575792Y73025D01*
X575792Y90803D01*
X647700Y231775D02*
G54D13*
D03*
X644525Y228600D02*
G54D13*
D03*
X641350Y225425D02*
G54D13*
D03*
X638175Y222250D02*
G54D13*
D03*
X647700Y238125D02*
G54D13*
D03*
X644525Y241300D02*
G54D13*
D03*
X641350Y244475D02*
G54D13*
D03*
X638175Y247650D02*
G54D13*
D03*
X635000Y250825D02*
G54D13*
D03*
X635000Y219075D02*
G54D13*
D03*
X631825Y215900D02*
G54D13*
D03*
X628650Y212725D02*
G54D13*
D03*
X625475Y209550D02*
G54D13*
D03*
X619125Y209550D02*
G54D13*
D03*
X615950Y212725D02*
G54D13*
D03*
X612775Y215900D02*
G54D13*
D03*
X609600Y219075D02*
G54D13*
D03*
X606425Y222250D02*
G54D13*
D03*
X603250Y225425D02*
G54D13*
D03*
X600075Y228600D02*
G54D13*
D03*
X596900Y231775D02*
G54D13*
D03*
X593725Y234950D02*
G54D13*
D03*
X631825Y254000D02*
G54D13*
D03*
X628650Y257175D02*
G54D13*
D03*
X625475Y260350D02*
G54D13*
D03*
X622300Y263525D02*
G54D13*
D03*
X606425Y260350D02*
G54D13*
D03*
X596900Y250825D02*
G54D13*
D03*
X593725Y254000D02*
G54D13*
D03*
X603250Y263525D02*
G54D13*
D03*
X603250Y269875D02*
G54D13*
D03*
X600075Y273050D02*
G54D13*
D03*
X596900Y269875D02*
G54D13*
D03*
X593725Y266700D02*
G54D13*
D03*
X590550Y263525D02*
G54D13*
D03*
X587375Y260350D02*
G54D13*
D03*
X584200Y257175D02*
G54D13*
D03*
X587375Y254000D02*
G54D13*
D03*
X638175Y241300D02*
G54D13*
D03*
X635000Y241300D02*
G54D13*
D03*
X631825Y244475D02*
G54D13*
D03*
X628650Y241300D02*
G54D13*
D03*
X625475Y241300D02*
G54D13*
D03*
X622300Y241300D02*
G54D13*
D03*
X619125Y238125D02*
G54D13*
D03*
X615950Y238125D02*
G54D13*
D03*
X612775Y241300D02*
G54D13*
D03*
X609600Y241300D02*
G54D13*
D03*
X606425Y241300D02*
G54D13*
D03*
X603250Y241300D02*
G54D13*
D03*
X600075Y241300D02*
G54D13*
D03*
X596900Y238125D02*
G54D13*
D03*
X581025Y266700D02*
G54D13*
D03*
X581025Y263525D02*
G54D13*
D03*
X581025Y260350D02*
G54D13*
D03*
X577850Y260350D02*
G54D13*
D03*
X577850Y266700D02*
G54D13*
D03*
X574675Y266700D02*
G54D13*
D03*
X574675Y269875D02*
G54D13*
D03*
X574675Y273050D02*
G54D13*
D03*
X571500Y273050D02*
G54D13*
D03*
X568325Y273050D02*
G54D13*
D03*
X568325Y269875D02*
G54D13*
D03*
X568325Y266700D02*
G54D13*
D03*
X565150Y266700D02*
G54D13*
D03*
X561975Y266700D02*
G54D13*
D03*
X561975Y263525D02*
G54D13*
D03*
X561975Y260350D02*
G54D13*
D03*
X565150Y260350D02*
G54D13*
D03*
X568325Y260350D02*
G54D13*
D03*
X574675Y260350D02*
G54D13*
D03*
X574675Y257175D02*
G54D13*
D03*
X574675Y254000D02*
G54D13*
D03*
X571500Y254000D02*
G54D13*
D03*
X568325Y254000D02*
G54D13*
D03*
X568325Y257175D02*
G54D13*
D03*
X619125Y266700D02*
G54D13*
D03*
X612775Y266700D02*
G54D13*
D03*
X609600Y263525D02*
G54D13*
D03*
X593725Y247650D02*
G54D13*
D03*
X590550Y244475D02*
G54D13*
D03*
X590550Y238125D02*
G54D13*
D03*
X593725Y228600D02*
G54D13*
D03*
X590550Y228600D02*
G54D13*
D03*
X587375Y228600D02*
G54D13*
D03*
X584200Y228600D02*
G54D13*
D03*
X581025Y228600D02*
G54D13*
D03*
X587375Y225425D02*
G54D13*
D03*
X587375Y222250D02*
G54D13*
D03*
X587375Y219075D02*
G54D13*
D03*
X587375Y215900D02*
G54D13*
D03*
X587375Y212725D02*
G54D13*
D03*
X590550Y209550D02*
G54D13*
D03*
X593725Y209550D02*
G54D13*
D03*
X596900Y212725D02*
G54D13*
D03*
X577850Y209550D02*
G54D13*
D03*
X574675Y212725D02*
G54D13*
D03*
X574675Y215900D02*
G54D13*
D03*
X574675Y219075D02*
G54D13*
D03*
X574675Y222250D02*
G54D13*
D03*
X571500Y209550D02*
G54D13*
D03*
X568325Y209550D02*
G54D13*
D03*
X565150Y209550D02*
G54D13*
D03*
X565150Y212725D02*
G54D13*
D03*
X565150Y215900D02*
G54D13*
D03*
X565150Y219075D02*
G54D13*
D03*
X565150Y222250D02*
G54D13*
D03*
X558800Y225425D02*
G54D13*
D03*
X558800Y219075D02*
G54D13*
D03*
X558800Y215900D02*
G54D13*
D03*
X558800Y212725D02*
G54D13*
D03*
X558800Y209550D02*
G54D13*
D03*
X552450Y212725D02*
G54D13*
D03*
X552450Y215900D02*
G54D13*
D03*
X552450Y219075D02*
G54D13*
D03*
X549275Y222250D02*
G54D13*
D03*
X546100Y222250D02*
G54D13*
D03*
X549275Y209550D02*
G54D13*
D03*
X546100Y209550D02*
G54D13*
D03*
X542925Y209550D02*
G54D13*
D03*
X542925Y222250D02*
G54D13*
D03*
X536575Y212725D02*
G54D13*
D03*
X536575Y215900D02*
G54D13*
D03*
X536575Y219075D02*
G54D13*
D03*
X533400Y222250D02*
G54D13*
D03*
X530225Y222250D02*
G54D13*
D03*
X527050Y222250D02*
G54D13*
D03*
X533400Y209550D02*
G54D13*
D03*
X530225Y209550D02*
G54D13*
D03*
X527050Y209550D02*
G54D13*
D03*
X523875Y219075D02*
G54D13*
D03*
X523875Y215900D02*
G54D13*
D03*
X527050Y215900D02*
G54D13*
D03*
X530225Y215900D02*
G54D13*
D03*
X533400Y215900D02*
G54D13*
D03*
X625475Y228600D02*
G54D13*
D03*
X622300Y225425D02*
G54D13*
D03*
X619125Y228600D02*
G54D13*
D03*
X622300Y231775D02*
G54D13*
D03*
X612775Y225425D02*
G54D13*
D03*
X635000Y234950D02*
G54D13*
D03*
X606425Y234950D02*
G54D13*
D03*
X622300Y215900D02*
G54D13*
D03*
X638175Y231775D02*
G54D13*
D03*
X577850Y247650D02*
G54D13*
D03*
X574675Y247650D02*
G54D13*
D03*
X571500Y247650D02*
G54D13*
D03*
X568325Y247650D02*
G54D13*
D03*
X565150Y247650D02*
G54D13*
D03*
X565150Y244475D02*
G54D13*
D03*
X565150Y241300D02*
G54D13*
D03*
X568325Y238125D02*
G54D13*
D03*
X571500Y234950D02*
G54D13*
D03*
X574675Y231775D02*
G54D13*
D03*
X561975Y254000D02*
G54D13*
D03*
X561975Y250825D02*
G54D13*
D03*
X558800Y250825D02*
G54D13*
D03*
X558800Y254000D02*
G54D13*
D03*
X555625Y247650D02*
G54D13*
D03*
X552450Y247650D02*
G54D13*
D03*
X549275Y247650D02*
G54D13*
D03*
X546100Y247650D02*
G54D13*
D03*
X542925Y247650D02*
G54D13*
D03*
X555625Y241300D02*
G54D13*
D03*
X552450Y241300D02*
G54D13*
D03*
X549275Y241300D02*
G54D13*
D03*
X546100Y241300D02*
G54D13*
D03*
X542925Y241300D02*
G54D13*
D03*
X542925Y238125D02*
G54D13*
D03*
X546100Y234950D02*
G54D13*
D03*
X549275Y231775D02*
G54D13*
D03*
X555625Y231775D02*
G54D13*
D03*
X552450Y231775D02*
G54D13*
D03*
X536575Y247650D02*
G54D13*
D03*
X533400Y247650D02*
G54D13*
D03*
X530225Y247650D02*
G54D13*
D03*
X527050Y247650D02*
G54D13*
D03*
X523875Y247650D02*
G54D13*
D03*
X523875Y244475D02*
G54D13*
D03*
X527050Y241300D02*
G54D13*
D03*
X530225Y238125D02*
G54D13*
D03*
X533400Y234950D02*
G54D13*
D03*
X536575Y231775D02*
G54D13*
D03*
X527050Y234950D02*
G54D13*
D03*
X523875Y231775D02*
G54D13*
D03*
X615950Y260350D02*
G54D13*
D03*
X619125Y257175D02*
G54D13*
D03*
G54D14*
X549783Y261619D02*
X547783Y260508D01*
X547117Y259397D01*
X547117Y257175D01*
G54D14*
X552450Y257175D02*
X552450Y266064D01*
X549117Y266064D01*
X547783Y265508D01*
X547117Y264397D01*
X547117Y263286D01*
X547783Y262175D01*
X549117Y261619D01*
X552450Y261619D01*
G54D14*
X540673Y257731D02*
X541740Y257175D01*
X543073Y257175D01*
X544406Y257731D01*
X544673Y258842D01*
X544673Y260731D01*
X544006Y261842D01*
X542673Y262175D01*
X541340Y261842D01*
X540673Y261064D01*
X540673Y259953D01*
X544673Y259953D01*
G54D14*
X538229Y262175D02*
X535562Y257175D01*
X532896Y262175D01*
G54D14*
X530452Y257175D02*
X530452Y257175D01*
G54D14*
X528008Y262731D02*
X524675Y266064D01*
X524675Y257175D01*
G54D14*
X522231Y257175D02*
X522231Y257175D01*
G54D14*
X514454Y264397D02*
X514454Y258842D01*
X515120Y257731D01*
X516454Y257175D01*
X517787Y257175D01*
X519120Y257731D01*
X519787Y258842D01*
X519787Y264397D01*
X519120Y265508D01*
X517787Y266064D01*
X516454Y266064D01*
X515120Y265508D01*
X514454Y264397D01*
G54D10*
X930672Y164306D02*
X941784Y164306D01*
X944166Y153988D01*
X951706Y150812D01*
X960834Y156766D01*
X968772Y149622D01*
X962422Y141684D01*
X965994Y133747D01*
X977106Y132159D01*
X977106Y121444D01*
X967184Y120253D01*
X963612Y111919D01*
X968772Y104378D01*
X961231Y96838D01*
X952500Y102394D01*
X948134Y99616D01*
X940594Y116284D01*
G54D10*
X931862Y116284D02*
X924322Y100012D01*
X919956Y101997D01*
X911622Y96441D01*
X903288Y103981D01*
X909241Y111919D01*
X905669Y120253D01*
X895350Y121444D01*
X895747Y132159D01*
X906462Y134144D01*
X909241Y140494D01*
X903288Y148828D01*
X911225Y156369D01*
X920353Y150812D01*
X929084Y153988D01*
X930672Y164306D01*
G54D10*
G75*
G01X940325Y116969D02*
G03X932119Y116969I-4103J9665D01*
G01*
G36*
X895747Y132159D02*
X906462Y134144D01*
X909241Y140494D01*
X903288Y148828D01*
X911225Y156369D01*
X920353Y150812D01*
X929084Y153988D01*
X930672Y164306D01*
X941784Y164306D01*
X944166Y153988D01*
X951706Y150812D01*
X960834Y156766D01*
X968772Y149622D01*
X962422Y141684D01*
X965994Y133747D01*
X977106Y132159D01*
X977106Y121444D01*
X967184Y120253D01*
X963612Y111919D01*
X968772Y104378D01*
X961231Y96838D01*
X952500Y102394D01*
X948134Y99616D01*
X940197Y117078D01*
X941388Y117475D01*
X942578Y118269D01*
X944959Y120650D01*
X946547Y123825D01*
X946944Y125809D01*
X946944Y127397D01*
X946547Y129778D01*
X945356Y132556D01*
X942975Y135334D01*
X940991Y136525D01*
X939006Y137319D01*
X936625Y137716D01*
X934244Y137319D01*
X931069Y136525D01*
X928291Y134144D01*
X925512Y130175D01*
X925512Y123825D01*
X926703Y121444D01*
X928291Y119062D01*
X930672Y117078D01*
X932259Y117078D01*
X924322Y100012D01*
X919956Y101997D01*
X911622Y96441D01*
X903288Y103981D01*
X909241Y111919D01*
X895747Y132159D01*
G37*
G54D10*
X895747Y132159D02*
X906462Y134144D01*
X909241Y140494D01*
X903288Y148828D01*
X911225Y156369D01*
X920353Y150812D01*
X929084Y153988D01*
X930672Y164306D01*
X941784Y164306D01*
X944166Y153988D01*
X951706Y150812D01*
X960834Y156766D01*
X968772Y149622D01*
X962422Y141684D01*
X965994Y133747D01*
X977106Y132159D01*
X977106Y121444D01*
X967184Y120253D01*
X963612Y111919D01*
X968772Y104378D01*
X961231Y96838D01*
X952500Y102394D01*
X948134Y99616D01*
X940197Y117078D01*
X941388Y117475D01*
X942578Y118269D01*
X944959Y120650D01*
X946547Y123825D01*
X946944Y125809D01*
X946944Y127397D01*
X946547Y129778D01*
X945356Y132556D01*
X942975Y135334D01*
X940991Y136525D01*
X939006Y137319D01*
X936625Y137716D01*
X934244Y137319D01*
X931069Y136525D01*
X928291Y134144D01*
X925512Y130175D01*
X925512Y123825D01*
X926703Y121444D01*
X928291Y119062D01*
X930672Y117078D01*
X932259Y117078D01*
X924322Y100012D01*
X919956Y101997D01*
X911622Y96441D01*
X903288Y103981D01*
X909241Y111919D01*
X895747Y132159D01*
G36*
X895747Y132159D02*
X895350Y121444D01*
X905669Y120253D01*
X895747Y132159D01*
G37*
G54D10*
X895747Y132159D02*
X895350Y121444D01*
X905669Y120253D01*
X895747Y132159D01*
G54D11*
X981075Y311150D02*
X981075Y326261D01*
G54D11*
X981075Y317194D02*
X979942Y319083D01*
X977675Y319650D01*
X975408Y319083D01*
X974275Y317194D01*
X974275Y311150D01*
G54D11*
X967852Y326261D02*
X967852Y312094D01*
X966719Y311150D01*
X965586Y311528D01*
G54D11*
X970119Y319650D02*
X965586Y319650D01*
G54D11*
X959163Y326261D02*
X959163Y312094D01*
X958030Y311150D01*
X956897Y311528D01*
G54D11*
X961430Y319650D02*
X956897Y319650D01*
G54D11*
X952741Y319650D02*
X952741Y307372D01*
G54D11*
X952741Y313983D02*
X951608Y311528D01*
X949341Y311150D01*
X947074Y311528D01*
X945941Y313417D01*
X945941Y317194D01*
X947074Y319083D01*
X949341Y319650D01*
X951608Y319083D01*
X952741Y316817D01*
G54D11*
X941785Y312094D02*
X939518Y311150D01*
X937252Y311150D01*
X934985Y312094D01*
X934985Y313983D01*
X936118Y314928D01*
X940652Y315872D01*
X941785Y316817D01*
X941785Y318706D01*
X939518Y319650D01*
X937252Y319650D01*
X934985Y318706D01*
G54D11*
X930829Y311150D02*
X930829Y311150D01*
G54D11*
X930829Y319650D02*
X930829Y319650D01*
G54D11*
X926673Y311150D02*
X917606Y326261D01*
G54D11*
X913450Y311150D02*
X904383Y326261D01*
G54D11*
X900227Y308317D02*
X897960Y307372D01*
X896374Y307372D01*
X894107Y308317D01*
X893427Y310206D01*
X893427Y319650D01*
G54D11*
X893427Y317194D02*
X894560Y319083D01*
X896827Y319650D01*
X899094Y319083D01*
X900227Y317194D01*
X900227Y313417D01*
X899094Y311528D01*
X896827Y311150D01*
X894560Y311528D01*
X893427Y313417D01*
G54D11*
X889271Y311150D02*
X889271Y319650D01*
G54D11*
X889271Y322483D02*
X889271Y322483D01*
G54D11*
X882848Y326261D02*
X882848Y312094D01*
X881715Y311150D01*
X880582Y311528D01*
G54D11*
X885115Y319650D02*
X880582Y319650D01*
G54D11*
X876426Y311150D02*
X876426Y326261D01*
G54D11*
X876426Y317194D02*
X875293Y319083D01*
X873026Y319650D01*
X870759Y319083D01*
X869626Y317194D01*
X869626Y311150D01*
G54D11*
X858670Y319650D02*
X858670Y311150D01*
G54D11*
X858670Y313039D02*
X859803Y311528D01*
X862070Y311150D01*
X864337Y311528D01*
X865470Y313039D01*
X865470Y319650D01*
G54D11*
X854514Y311150D02*
X854514Y326261D01*
G54D11*
X854514Y317194D02*
X853381Y319083D01*
X851114Y319650D01*
X848847Y319083D01*
X847714Y317194D01*
X847714Y313417D01*
X848847Y311528D01*
X851114Y311150D01*
X853381Y311528D01*
X854514Y313417D01*
G54D11*
X843558Y311150D02*
X843558Y311150D01*
G54D11*
X833735Y319083D02*
X836002Y319650D01*
X838269Y319083D01*
X839402Y317194D01*
X839402Y313417D01*
X838269Y311528D01*
X836002Y311150D01*
X833735Y311528D01*
G54D11*
X822779Y313417D02*
X822779Y317194D01*
X823912Y319083D01*
X826179Y319650D01*
X828446Y319083D01*
X829579Y317194D01*
X829579Y313417D01*
X828446Y311528D01*
X826179Y311150D01*
X823912Y311528D01*
X822779Y313417D01*
G54D11*
X818623Y311150D02*
X818623Y319650D01*
G54D11*
X818623Y318139D02*
X816356Y319650D01*
X814090Y319083D01*
X812956Y317761D01*
X812956Y311150D01*
G54D11*
X812956Y318139D02*
X810690Y319650D01*
X808423Y319083D01*
X807290Y317761D01*
X807290Y311150D01*
G54D11*
X803134Y311150D02*
X794067Y326261D01*
G54D11*
X780844Y313983D02*
X781978Y312094D01*
X784244Y311150D01*
X786511Y311150D01*
X788778Y312094D01*
X789911Y313983D01*
X789911Y323428D01*
X788778Y325317D01*
X786511Y326261D01*
X784244Y326261D01*
X781978Y325317D01*
X780844Y323428D01*
G54D11*
X776688Y311150D02*
X776688Y326261D01*
G54D11*
X776688Y317194D02*
X775555Y319083D01*
X773288Y319650D01*
X771021Y319083D01*
X769888Y317194D01*
X769888Y311150D01*
G54D11*
X765732Y311150D02*
X765732Y319650D01*
G54D11*
X765732Y322483D02*
X765732Y322483D01*
G54D11*
X761576Y319650D02*
X761576Y307372D01*
G54D11*
X761576Y313983D02*
X760443Y311528D01*
X758176Y311150D01*
X755909Y311528D01*
X754776Y313417D01*
X754776Y317194D01*
X755909Y319083D01*
X758176Y319650D01*
X760443Y319083D01*
X761576Y316817D01*
G54D11*
X746087Y311150D02*
X746087Y326261D01*
G54D11*
X750620Y326261D02*
X741553Y326261D01*
G54D11*
X730597Y312094D02*
X732410Y311150D01*
X734677Y311150D01*
X736944Y312094D01*
X737397Y313983D01*
X737397Y317194D01*
X736264Y319083D01*
X733997Y319650D01*
X731730Y319083D01*
X730597Y317761D01*
X730597Y315872D01*
X737397Y315872D01*
G54D11*
X720774Y319083D02*
X723041Y319650D01*
X725308Y319083D01*
X726441Y317194D01*
X726441Y313417D01*
X725308Y311528D01*
X723041Y311150D01*
X720774Y311528D01*
G54D11*
X716618Y311150D02*
X716618Y326261D01*
G54D11*
X716618Y317194D02*
X715485Y319083D01*
X713218Y319650D01*
X710951Y319083D01*
X709818Y317194D01*
X709818Y311150D01*
G54D11*
X705662Y311150D02*
X705662Y319650D01*
G54D11*
X705662Y317761D02*
X704529Y319083D01*
X702262Y319650D01*
X699995Y319083D01*
X698862Y317761D01*
X698862Y311150D01*
G54D11*
X687906Y313417D02*
X687906Y317194D01*
X689039Y319083D01*
X691306Y319650D01*
X693573Y319083D01*
X694706Y317194D01*
X694706Y313417D01*
X693573Y311528D01*
X691306Y311150D01*
X689039Y311528D01*
X687906Y313417D01*
G54D11*
X683750Y311150D02*
X674683Y326261D01*
G54D11*
X931867Y288608D02*
X939800Y288608D01*
X939800Y303719D01*
X931867Y303719D01*
G54D11*
X939800Y296163D02*
X931867Y296163D01*
G54D11*
X927711Y288608D02*
X927711Y297108D01*
G54D11*
X927711Y295219D02*
X926578Y296541D01*
X924311Y297108D01*
X922044Y296541D01*
X920911Y295219D01*
X920911Y288608D01*
G54D11*
X909955Y288608D02*
X909955Y303719D01*
G54D11*
X909955Y294652D02*
X911088Y296541D01*
X913355Y297108D01*
X915622Y296541D01*
X916755Y294652D01*
X916755Y290874D01*
X915622Y288985D01*
X913355Y288608D01*
X911088Y288985D01*
X909955Y290874D01*
G54D11*
X898999Y289552D02*
X900812Y288608D01*
X903079Y288608D01*
X905346Y289552D01*
X905799Y291441D01*
X905799Y294652D01*
X904666Y296541D01*
X902399Y297108D01*
X900132Y296541D01*
X898999Y295219D01*
X898999Y293330D01*
X905799Y293330D01*
G54D11*
X894843Y288608D02*
X894843Y297108D01*
G54D11*
X894843Y295219D02*
X892576Y297108D01*
X890310Y297108D01*
G54D11*
X886154Y295219D02*
X877087Y295219D01*
G54D11*
X872931Y300885D02*
X871798Y302774D01*
X869531Y303719D01*
X867264Y303719D01*
X864998Y302774D01*
X863864Y300885D01*
X863864Y298996D01*
X864998Y297108D01*
X867264Y296163D01*
X864998Y295219D01*
X863864Y293330D01*
X863864Y291441D01*
X864998Y289552D01*
X867264Y288608D01*
X869531Y288608D01*
X871798Y289552D01*
X872931Y291441D01*
G54D11*
X859708Y295219D02*
X850641Y295219D01*
G54D11*
X839685Y289552D02*
X841498Y288608D01*
X843765Y288608D01*
X846032Y289552D01*
X846485Y291441D01*
X846485Y294652D01*
X845352Y296541D01*
X843085Y297108D01*
X840818Y296541D01*
X839685Y295219D01*
X839685Y293330D01*
X846485Y293330D01*
G54D11*
X835529Y297108D02*
X826462Y288608D01*
G54D11*
X835529Y288608D02*
X826462Y297108D01*
G54D11*
X820039Y303719D02*
X820039Y289552D01*
X818906Y288608D01*
X817773Y288985D01*
G54D11*
X822306Y297108D02*
X817773Y297108D01*
G54D11*
X806817Y289552D02*
X808630Y288608D01*
X810897Y288608D01*
X813164Y289552D01*
X813617Y291441D01*
X813617Y294652D01*
X812484Y296541D01*
X810217Y297108D01*
X807950Y296541D01*
X806817Y295219D01*
X806817Y293330D01*
X813617Y293330D01*
G54D11*
X802661Y288608D02*
X802661Y297108D01*
G54D11*
X802661Y295219D02*
X801528Y296541D01*
X799261Y297108D01*
X796994Y296541D01*
X795861Y295219D01*
X795861Y288608D01*
G54D11*
X791705Y289552D02*
X789438Y288608D01*
X787172Y288608D01*
X784905Y289552D01*
X784905Y291441D01*
X786038Y292385D01*
X790572Y293330D01*
X791705Y294274D01*
X791705Y296163D01*
X789438Y297108D01*
X787172Y297108D01*
X784905Y296163D01*
G54D11*
X780749Y288608D02*
X780749Y297108D01*
G54D11*
X780749Y299941D02*
X780749Y299941D01*
G54D11*
X769793Y290874D02*
X769793Y294652D01*
X770926Y296541D01*
X773193Y297108D01*
X775460Y296541D01*
X776593Y294652D01*
X776593Y290874D01*
X775460Y288985D01*
X773193Y288608D01*
X770926Y288985D01*
X769793Y290874D01*
G54D11*
X765637Y288608D02*
X765637Y297108D01*
G54D11*
X765637Y295219D02*
X764504Y296541D01*
X762237Y297108D01*
X759970Y296541D01*
X758837Y295219D01*
X758837Y288608D01*
G54D11*
X754681Y295219D02*
X745614Y295219D01*
G54D11*
X741458Y297108D02*
X741458Y284830D01*
G54D11*
X741458Y291441D02*
X740325Y288985D01*
X738058Y288608D01*
X735791Y288985D01*
X734658Y290874D01*
X734658Y294652D01*
X735791Y296541D01*
X738058Y297108D01*
X740325Y296541D01*
X741458Y294274D01*
G54D11*
X724835Y296541D02*
X727102Y297108D01*
X729369Y296541D01*
X730502Y294652D01*
X730502Y290874D01*
X729369Y288985D01*
X727102Y288608D01*
X724835Y288985D01*
G54D11*
X720679Y288608D02*
X720679Y303719D01*
G54D11*
X720679Y294652D02*
X719546Y296541D01*
X717279Y297108D01*
X715012Y296541D01*
X713879Y294652D01*
X713879Y290874D01*
X715012Y288985D01*
X717279Y288608D01*
X719546Y288985D01*
X720679Y290874D01*
G54D12*
X955327Y87469D02*
X955327Y76358D01*
X956660Y74136D01*
X959327Y73025D01*
X961994Y73025D01*
X964660Y74136D01*
X965994Y76358D01*
X965994Y87469D01*
X964660Y89692D01*
X961994Y90803D01*
X959327Y90803D01*
X956660Y89692D01*
X955327Y87469D01*
G54D12*
X950438Y76358D02*
X949104Y74136D01*
X946438Y73025D01*
X943771Y73025D01*
X941104Y74136D01*
X939771Y76358D01*
X939771Y78581D01*
X941104Y80803D01*
X943771Y81914D01*
X946438Y81914D01*
X949104Y83025D01*
X950438Y85247D01*
X950438Y87469D01*
X949104Y89692D01*
X946438Y90803D01*
X943771Y90803D01*
X941104Y89692D01*
X939771Y87469D01*
G54D12*
X934882Y73025D02*
X934882Y90803D01*
G54D12*
X924215Y73025D02*
X924215Y90803D01*
G54D12*
X934882Y81914D02*
X924215Y81914D01*
G54D12*
X919326Y90803D02*
X919326Y73025D01*
X912659Y84136D01*
X905992Y73025D01*
X905992Y90803D01*
X977900Y231775D02*
G54D13*
D03*
X974725Y228600D02*
G54D13*
D03*
X971550Y225425D02*
G54D13*
D03*
X968375Y222250D02*
G54D13*
D03*
X977900Y238125D02*
G54D13*
D03*
X974725Y241300D02*
G54D13*
D03*
X971550Y244475D02*
G54D13*
D03*
X968375Y247650D02*
G54D13*
D03*
X965200Y250825D02*
G54D13*
D03*
X965200Y219075D02*
G54D13*
D03*
X962025Y215900D02*
G54D13*
D03*
X958850Y212725D02*
G54D13*
D03*
X955675Y209550D02*
G54D13*
D03*
X949325Y209550D02*
G54D13*
D03*
X946150Y212725D02*
G54D13*
D03*
X942975Y215900D02*
G54D13*
D03*
X939800Y219075D02*
G54D13*
D03*
X936625Y222250D02*
G54D13*
D03*
X933450Y225425D02*
G54D13*
D03*
X930275Y228600D02*
G54D13*
D03*
X927100Y231775D02*
G54D13*
D03*
X923925Y234950D02*
G54D13*
D03*
X962025Y254000D02*
G54D13*
D03*
X958850Y257175D02*
G54D13*
D03*
X955675Y260350D02*
G54D13*
D03*
X952500Y263525D02*
G54D13*
D03*
X936625Y260350D02*
G54D13*
D03*
X927100Y250825D02*
G54D13*
D03*
X923925Y254000D02*
G54D13*
D03*
X933450Y263525D02*
G54D13*
D03*
X933450Y269875D02*
G54D13*
D03*
X930275Y273050D02*
G54D13*
D03*
X927100Y269875D02*
G54D13*
D03*
X923925Y266700D02*
G54D13*
D03*
X920750Y263525D02*
G54D13*
D03*
X917575Y260350D02*
G54D13*
D03*
X914400Y257175D02*
G54D13*
D03*
X917575Y254000D02*
G54D13*
D03*
X968375Y241300D02*
G54D13*
D03*
X965200Y241300D02*
G54D13*
D03*
X962025Y244475D02*
G54D13*
D03*
X958850Y241300D02*
G54D13*
D03*
X955675Y241300D02*
G54D13*
D03*
X952500Y241300D02*
G54D13*
D03*
X949325Y238125D02*
G54D13*
D03*
X946150Y238125D02*
G54D13*
D03*
X942975Y241300D02*
G54D13*
D03*
X939800Y241300D02*
G54D13*
D03*
X936625Y241300D02*
G54D13*
D03*
X933450Y241300D02*
G54D13*
D03*
X930275Y241300D02*
G54D13*
D03*
X927100Y238125D02*
G54D13*
D03*
X911225Y266700D02*
G54D13*
D03*
X911225Y263525D02*
G54D13*
D03*
X911225Y260350D02*
G54D13*
D03*
X908050Y260350D02*
G54D13*
D03*
X908050Y266700D02*
G54D13*
D03*
X904875Y266700D02*
G54D13*
D03*
X904875Y269875D02*
G54D13*
D03*
X904875Y273050D02*
G54D13*
D03*
X901700Y273050D02*
G54D13*
D03*
X898525Y273050D02*
G54D13*
D03*
X898525Y269875D02*
G54D13*
D03*
X898525Y266700D02*
G54D13*
D03*
X895350Y266700D02*
G54D13*
D03*
X892175Y266700D02*
G54D13*
D03*
X892175Y263525D02*
G54D13*
D03*
X892175Y260350D02*
G54D13*
D03*
X895350Y260350D02*
G54D13*
D03*
X898525Y260350D02*
G54D13*
D03*
X904875Y260350D02*
G54D13*
D03*
X904875Y257175D02*
G54D13*
D03*
X904875Y254000D02*
G54D13*
D03*
X901700Y254000D02*
G54D13*
D03*
X898525Y254000D02*
G54D13*
D03*
X898525Y257175D02*
G54D13*
D03*
X949325Y266700D02*
G54D13*
D03*
X942975Y266700D02*
G54D13*
D03*
X939800Y263525D02*
G54D13*
D03*
X923925Y247650D02*
G54D13*
D03*
X920750Y244475D02*
G54D13*
D03*
X920750Y238125D02*
G54D13*
D03*
X923925Y228600D02*
G54D13*
D03*
X920750Y228600D02*
G54D13*
D03*
X917575Y228600D02*
G54D13*
D03*
X914400Y228600D02*
G54D13*
D03*
X911225Y228600D02*
G54D13*
D03*
X917575Y225425D02*
G54D13*
D03*
X917575Y222250D02*
G54D13*
D03*
X917575Y219075D02*
G54D13*
D03*
X917575Y215900D02*
G54D13*
D03*
X917575Y212725D02*
G54D13*
D03*
X920750Y209550D02*
G54D13*
D03*
X923925Y209550D02*
G54D13*
D03*
X927100Y212725D02*
G54D13*
D03*
X908050Y209550D02*
G54D13*
D03*
X904875Y212725D02*
G54D13*
D03*
X904875Y215900D02*
G54D13*
D03*
X904875Y219075D02*
G54D13*
D03*
X904875Y222250D02*
G54D13*
D03*
X901700Y209550D02*
G54D13*
D03*
X898525Y209550D02*
G54D13*
D03*
X895350Y209550D02*
G54D13*
D03*
X895350Y212725D02*
G54D13*
D03*
X895350Y215900D02*
G54D13*
D03*
X895350Y219075D02*
G54D13*
D03*
X895350Y222250D02*
G54D13*
D03*
X889000Y225425D02*
G54D13*
D03*
X889000Y219075D02*
G54D13*
D03*
X889000Y215900D02*
G54D13*
D03*
X889000Y212725D02*
G54D13*
D03*
X889000Y209550D02*
G54D13*
D03*
X882650Y212725D02*
G54D13*
D03*
X882650Y215900D02*
G54D13*
D03*
X882650Y219075D02*
G54D13*
D03*
X879475Y222250D02*
G54D13*
D03*
X876300Y222250D02*
G54D13*
D03*
X879475Y209550D02*
G54D13*
D03*
X876300Y209550D02*
G54D13*
D03*
X873125Y209550D02*
G54D13*
D03*
X873125Y222250D02*
G54D13*
D03*
X866775Y212725D02*
G54D13*
D03*
X866775Y215900D02*
G54D13*
D03*
X866775Y219075D02*
G54D13*
D03*
X863600Y222250D02*
G54D13*
D03*
X860425Y222250D02*
G54D13*
D03*
X857250Y222250D02*
G54D13*
D03*
X863600Y209550D02*
G54D13*
D03*
X860425Y209550D02*
G54D13*
D03*
X857250Y209550D02*
G54D13*
D03*
X854075Y219075D02*
G54D13*
D03*
X854075Y215900D02*
G54D13*
D03*
X857250Y215900D02*
G54D13*
D03*
X860425Y215900D02*
G54D13*
D03*
X863600Y215900D02*
G54D13*
D03*
X955675Y228600D02*
G54D13*
D03*
X952500Y225425D02*
G54D13*
D03*
X949325Y228600D02*
G54D13*
D03*
X952500Y231775D02*
G54D13*
D03*
X942975Y225425D02*
G54D13*
D03*
X965200Y234950D02*
G54D13*
D03*
X936625Y234950D02*
G54D13*
D03*
X952500Y215900D02*
G54D13*
D03*
X968375Y231775D02*
G54D13*
D03*
X908050Y247650D02*
G54D13*
D03*
X904875Y247650D02*
G54D13*
D03*
X901700Y247650D02*
G54D13*
D03*
X898525Y247650D02*
G54D13*
D03*
X895350Y247650D02*
G54D13*
D03*
X895350Y244475D02*
G54D13*
D03*
X895350Y241300D02*
G54D13*
D03*
X898525Y238125D02*
G54D13*
D03*
X901700Y234950D02*
G54D13*
D03*
X904875Y231775D02*
G54D13*
D03*
X892175Y254000D02*
G54D13*
D03*
X892175Y250825D02*
G54D13*
D03*
X889000Y250825D02*
G54D13*
D03*
X889000Y254000D02*
G54D13*
D03*
X885825Y247650D02*
G54D13*
D03*
X882650Y247650D02*
G54D13*
D03*
X879475Y247650D02*
G54D13*
D03*
X876300Y247650D02*
G54D13*
D03*
X873125Y247650D02*
G54D13*
D03*
X885825Y241300D02*
G54D13*
D03*
X882650Y241300D02*
G54D13*
D03*
X879475Y241300D02*
G54D13*
D03*
X876300Y241300D02*
G54D13*
D03*
X873125Y241300D02*
G54D13*
D03*
X873125Y238125D02*
G54D13*
D03*
X876300Y234950D02*
G54D13*
D03*
X879475Y231775D02*
G54D13*
D03*
X885825Y231775D02*
G54D13*
D03*
X882650Y231775D02*
G54D13*
D03*
X866775Y247650D02*
G54D13*
D03*
X863600Y247650D02*
G54D13*
D03*
X860425Y247650D02*
G54D13*
D03*
X857250Y247650D02*
G54D13*
D03*
X854075Y247650D02*
G54D13*
D03*
X854075Y244475D02*
G54D13*
D03*
X857250Y241300D02*
G54D13*
D03*
X860425Y238125D02*
G54D13*
D03*
X863600Y234950D02*
G54D13*
D03*
X866775Y231775D02*
G54D13*
D03*
X857250Y234950D02*
G54D13*
D03*
X854075Y231775D02*
G54D13*
D03*
X946150Y260350D02*
G54D13*
D03*
X949325Y257175D02*
G54D13*
D03*
G54D14*
X879983Y261619D02*
X877983Y260508D01*
X877317Y259397D01*
X877317Y257175D01*
G54D14*
X882650Y257175D02*
X882650Y266064D01*
X879317Y266064D01*
X877983Y265508D01*
X877317Y264397D01*
X877317Y263286D01*
X877983Y262175D01*
X879317Y261619D01*
X882650Y261619D01*
G54D14*
X870873Y257731D02*
X871940Y257175D01*
X873273Y257175D01*
X874606Y257731D01*
X874873Y258842D01*
X874873Y260731D01*
X874206Y261842D01*
X872873Y262175D01*
X871540Y261842D01*
X870873Y261064D01*
X870873Y259953D01*
X874873Y259953D01*
G54D14*
X868429Y262175D02*
X865762Y257175D01*
X863096Y262175D01*
G54D14*
X860652Y257175D02*
X860652Y257175D01*
G54D14*
X858208Y262731D02*
X854875Y266064D01*
X854875Y257175D01*
G54D14*
X852431Y257175D02*
X852431Y257175D01*
G54D14*
X844654Y264397D02*
X844654Y258842D01*
X845320Y257731D01*
X846654Y257175D01*
X847987Y257175D01*
X849320Y257731D01*
X849987Y258842D01*
X849987Y264397D01*
X849320Y265508D01*
X847987Y266064D01*
X846654Y266064D01*
X845320Y265508D01*
X844654Y264397D01*
M02*
