%FSLAX34Y34*%
%MOMM*%
%LNSMDMASK_TOP*%
G71*
G01*
%ADD10R, 1.98X3.35*%
%ADD11R, 1.50X1.80*%
%ADD12R, 1.80X1.50*%
%ADD13R, 2.20X4.20*%
%ADD14R, 2.20X4.70*%
%ADD15R, 1.00X2.20*%
%LPD*%
X137716Y869950D02*
G54D10*
D03*
X85725Y869950D02*
G54D10*
D03*
X15875Y949325D02*
G54D11*
D03*
X34875Y949325D02*
G54D11*
D03*
X15875Y974725D02*
G54D11*
D03*
X34875Y974725D02*
G54D11*
D03*
X142875Y654050D02*
G54D11*
D03*
X161875Y654050D02*
G54D11*
D03*
X142875Y628650D02*
G54D11*
D03*
X161875Y628650D02*
G54D11*
D03*
X95250Y628650D02*
G54D11*
D03*
X114250Y628650D02*
G54D11*
D03*
X95250Y654050D02*
G54D11*
D03*
X114250Y654050D02*
G54D11*
D03*
X317475Y828650D02*
G54D12*
D03*
X317475Y809650D02*
G54D12*
D03*
X276107Y556420D02*
G54D13*
D03*
X276107Y610395D02*
G54D13*
D03*
X276107Y554039D02*
G54D14*
D03*
X276107Y613173D02*
G54D14*
D03*
X200025Y622300D02*
G54D11*
D03*
X219025Y622300D02*
G54D11*
D03*
X25400Y889000D02*
G54D15*
D03*
X25400Y923330D02*
G54D15*
D03*
X467916Y869950D02*
G54D10*
D03*
X415925Y869950D02*
G54D10*
D03*
X346075Y949325D02*
G54D11*
D03*
X365075Y949325D02*
G54D11*
D03*
X346075Y974725D02*
G54D11*
D03*
X365075Y974725D02*
G54D11*
D03*
X473075Y654050D02*
G54D11*
D03*
X492075Y654050D02*
G54D11*
D03*
X473075Y628650D02*
G54D11*
D03*
X492075Y628650D02*
G54D11*
D03*
X425450Y628650D02*
G54D11*
D03*
X444450Y628650D02*
G54D11*
D03*
X425450Y654050D02*
G54D11*
D03*
X444450Y654050D02*
G54D11*
D03*
X647675Y828650D02*
G54D12*
D03*
X647675Y809650D02*
G54D12*
D03*
X606307Y556420D02*
G54D13*
D03*
X606307Y610395D02*
G54D13*
D03*
X606307Y554039D02*
G54D14*
D03*
X606307Y613173D02*
G54D14*
D03*
X530225Y622300D02*
G54D11*
D03*
X549225Y622300D02*
G54D11*
D03*
X355600Y889000D02*
G54D15*
D03*
X355600Y923330D02*
G54D15*
D03*
X798116Y869950D02*
G54D10*
D03*
X746125Y869950D02*
G54D10*
D03*
X676275Y949325D02*
G54D11*
D03*
X695275Y949325D02*
G54D11*
D03*
X676275Y974725D02*
G54D11*
D03*
X695275Y974725D02*
G54D11*
D03*
X803275Y654050D02*
G54D11*
D03*
X822275Y654050D02*
G54D11*
D03*
X803275Y628650D02*
G54D11*
D03*
X822275Y628650D02*
G54D11*
D03*
X755650Y628650D02*
G54D11*
D03*
X774650Y628650D02*
G54D11*
D03*
X755650Y654050D02*
G54D11*
D03*
X774650Y654050D02*
G54D11*
D03*
X977875Y828650D02*
G54D12*
D03*
X977875Y809650D02*
G54D12*
D03*
X936507Y556420D02*
G54D13*
D03*
X936507Y610395D02*
G54D13*
D03*
X936507Y554039D02*
G54D14*
D03*
X936507Y613173D02*
G54D14*
D03*
X860425Y622300D02*
G54D11*
D03*
X879425Y622300D02*
G54D11*
D03*
X685800Y889000D02*
G54D15*
D03*
X685800Y923330D02*
G54D15*
D03*
X137716Y400050D02*
G54D10*
D03*
X85725Y400050D02*
G54D10*
D03*
X15875Y479425D02*
G54D11*
D03*
X34875Y479425D02*
G54D11*
D03*
X15875Y504825D02*
G54D11*
D03*
X34875Y504825D02*
G54D11*
D03*
X142875Y184150D02*
G54D11*
D03*
X161875Y184150D02*
G54D11*
D03*
X142875Y158750D02*
G54D11*
D03*
X161875Y158750D02*
G54D11*
D03*
X95250Y158750D02*
G54D11*
D03*
X114250Y158750D02*
G54D11*
D03*
X95250Y184150D02*
G54D11*
D03*
X114250Y184150D02*
G54D11*
D03*
X317475Y358750D02*
G54D12*
D03*
X317475Y339750D02*
G54D12*
D03*
X276107Y86520D02*
G54D13*
D03*
X276107Y140495D02*
G54D13*
D03*
X276107Y84139D02*
G54D14*
D03*
X276107Y143273D02*
G54D14*
D03*
X200025Y152400D02*
G54D11*
D03*
X219025Y152400D02*
G54D11*
D03*
X25400Y419100D02*
G54D15*
D03*
X25400Y453430D02*
G54D15*
D03*
X467916Y400050D02*
G54D10*
D03*
X415925Y400050D02*
G54D10*
D03*
X346075Y479425D02*
G54D11*
D03*
X365075Y479425D02*
G54D11*
D03*
X346075Y504825D02*
G54D11*
D03*
X365075Y504825D02*
G54D11*
D03*
X473075Y184150D02*
G54D11*
D03*
X492075Y184150D02*
G54D11*
D03*
X473075Y158750D02*
G54D11*
D03*
X492075Y158750D02*
G54D11*
D03*
X425450Y158750D02*
G54D11*
D03*
X444450Y158750D02*
G54D11*
D03*
X425450Y184150D02*
G54D11*
D03*
X444450Y184150D02*
G54D11*
D03*
X647675Y358750D02*
G54D12*
D03*
X647675Y339750D02*
G54D12*
D03*
X606307Y86520D02*
G54D13*
D03*
X606307Y140495D02*
G54D13*
D03*
X606307Y84139D02*
G54D14*
D03*
X606307Y143273D02*
G54D14*
D03*
X530225Y152400D02*
G54D11*
D03*
X549225Y152400D02*
G54D11*
D03*
X355600Y419100D02*
G54D15*
D03*
X355600Y453430D02*
G54D15*
D03*
X798116Y400050D02*
G54D10*
D03*
X746125Y400050D02*
G54D10*
D03*
X676275Y479425D02*
G54D11*
D03*
X695275Y479425D02*
G54D11*
D03*
X676275Y504825D02*
G54D11*
D03*
X695275Y504825D02*
G54D11*
D03*
X803275Y184150D02*
G54D11*
D03*
X822275Y184150D02*
G54D11*
D03*
X803275Y158750D02*
G54D11*
D03*
X822275Y158750D02*
G54D11*
D03*
X755650Y158750D02*
G54D11*
D03*
X774650Y158750D02*
G54D11*
D03*
X755650Y184150D02*
G54D11*
D03*
X774650Y184150D02*
G54D11*
D03*
X977875Y358750D02*
G54D12*
D03*
X977875Y339750D02*
G54D12*
D03*
X936507Y86520D02*
G54D13*
D03*
X936507Y140495D02*
G54D13*
D03*
X936507Y84139D02*
G54D14*
D03*
X936507Y143273D02*
G54D14*
D03*
X860425Y152400D02*
G54D11*
D03*
X879425Y152400D02*
G54D11*
D03*
X685800Y419100D02*
G54D15*
D03*
X685800Y453430D02*
G54D15*
D03*
M02*
