%FSLAX34Y34*%
%MOMM*%
%LNSILK_TOP*%
G71*
G01*
%ADD10C, 2.60*%
%ADD11C, 2.60*%
%ADD12C, 2.30*%
%ADD13R, 0.67X0.67*%
%ADD14C, 0.51*%
%ADD15C, 1.00*%
%ADD16C, 0.60*%
%ADD17C, 1.80*%
%ADD18C, 1.80*%
%ADD19C, 1.50*%
%ADD20R, 0.27X0.27*%
%ADD21C, 0.11*%
%LPD*%
G36*
X0Y1000000D02*
X1000000Y1000000D01*
X1000000Y50000D01*
X0Y50000D01*
X0Y1000000D01*
G37*
%LPC*%
G36*
X142825Y935090D02*
X131710Y923975D01*
X115940Y923975D01*
X104825Y935090D01*
X104825Y950860D01*
X115940Y961975D01*
X131710Y961975D01*
X142825Y950860D01*
X142825Y935090D01*
G37*
G36*
X92025Y935090D02*
X80910Y923975D01*
X65140Y923975D01*
X54025Y935090D01*
X54025Y950860D01*
X65140Y961975D01*
X80910Y961975D01*
X92025Y950860D01*
X92025Y935090D01*
G37*
X34925Y822325D02*
G54D10*
D03*
X34925Y847725D02*
G54D10*
D03*
X34925Y733425D02*
G54D10*
D03*
X34925Y758825D02*
G54D10*
D03*
X34925Y644525D02*
G54D10*
D03*
X34925Y669925D02*
G54D10*
D03*
G36*
X54025Y950860D02*
X65140Y961975D01*
X80910Y961975D01*
X92025Y950860D01*
X92025Y935090D01*
X80910Y923975D01*
X65140Y923975D01*
X54025Y935090D01*
X54025Y950860D01*
G37*
X34925Y847725D02*
G54D10*
D03*
X34925Y758825D02*
G54D10*
D03*
X34925Y669925D02*
G54D10*
D03*
X206375Y860425D02*
G54D10*
D03*
G36*
X174925Y823280D02*
X167320Y815675D01*
X156530Y815675D01*
X148925Y823280D01*
X148925Y834070D01*
X156530Y841675D01*
X167320Y841675D01*
X174925Y834070D01*
X174925Y823280D01*
G37*
G36*
X149525Y823280D02*
X141920Y815675D01*
X131130Y815675D01*
X123525Y823280D01*
X123525Y834070D01*
X131130Y841675D01*
X141920Y841675D01*
X149525Y834070D01*
X149525Y823280D01*
G37*
G36*
X124125Y823280D02*
X116520Y815675D01*
X105730Y815675D01*
X98125Y823280D01*
X98125Y834070D01*
X105730Y841675D01*
X116520Y841675D01*
X124125Y834070D01*
X124125Y823280D01*
G37*
G36*
X289225Y823280D02*
X281620Y815675D01*
X270830Y815675D01*
X263225Y823280D01*
X263225Y834070D01*
X270830Y841675D01*
X281620Y841675D01*
X289225Y834070D01*
X289225Y823280D01*
G37*
G36*
X263825Y823280D02*
X256220Y815675D01*
X245430Y815675D01*
X237825Y823280D01*
X237825Y834070D01*
X245430Y841675D01*
X256220Y841675D01*
X263825Y834070D01*
X263825Y823280D01*
G37*
G36*
X238425Y823280D02*
X230820Y815675D01*
X220030Y815675D01*
X212425Y823280D01*
X212425Y834070D01*
X220030Y841675D01*
X230820Y841675D01*
X238425Y834070D01*
X238425Y823280D01*
G37*
G36*
X149525Y823280D02*
X141920Y815675D01*
X131130Y815675D01*
X123525Y823280D01*
X123525Y834070D01*
X131130Y841675D01*
X141920Y841675D01*
X149525Y834070D01*
X149525Y823280D01*
G37*
G36*
X263825Y823280D02*
X256220Y815675D01*
X245430Y815675D01*
X237825Y823280D01*
X237825Y834070D01*
X245430Y841675D01*
X256220Y841675D01*
X263825Y834070D01*
X263825Y823280D01*
G37*
G36*
X72725Y875345D02*
X80330Y882950D01*
X91120Y882950D01*
X98725Y875345D01*
X98725Y864555D01*
X91120Y856950D01*
X80330Y856950D01*
X72725Y864555D01*
X72725Y875345D01*
G37*
X276225Y860425D02*
G54D10*
D03*
X251222Y860425D02*
G54D10*
D03*
X231378Y860425D02*
G54D10*
D03*
X206375Y860425D02*
G54D10*
D03*
G36*
X330983Y877452D02*
X316943Y863412D01*
X297023Y863412D01*
X282983Y877452D01*
X282983Y897372D01*
X297023Y911412D01*
X316943Y911412D01*
X330983Y897372D01*
X330983Y877452D01*
G37*
G36*
X199419Y877452D02*
X185379Y863412D01*
X165459Y863412D01*
X151419Y877452D01*
X151419Y897372D01*
X165459Y911412D01*
X185379Y911412D01*
X199419Y897372D01*
X199419Y877452D01*
G37*
X161925Y968375D02*
G54D11*
D03*
X161925Y942975D02*
G54D11*
D03*
X187325Y555625D02*
G54D10*
D03*
X187325Y581025D02*
G54D10*
D03*
X187325Y581025D02*
G54D10*
D03*
X34925Y555625D02*
G54D10*
D03*
X34925Y581025D02*
G54D10*
D03*
X34925Y581025D02*
G54D10*
D03*
G54D12*
X34925Y733425D02*
X66675Y733425D01*
X85725Y752475D01*
X85725Y869950D01*
G54D12*
X34925Y822325D02*
X85725Y822325D01*
X193675Y650875D02*
G54D11*
D03*
X219075Y650875D02*
G54D11*
D03*
G54D12*
X225425Y828675D02*
X225425Y803275D01*
X212725Y790575D01*
X88900Y790575D01*
X85725Y787400D01*
X111125Y555625D02*
G54D10*
D03*
X111125Y581025D02*
G54D10*
D03*
X111125Y581025D02*
G54D10*
D03*
X323850Y942975D02*
G54D13*
D03*
X320675Y939800D02*
G54D13*
D03*
X317500Y936625D02*
G54D13*
D03*
X314325Y933450D02*
G54D13*
D03*
X323850Y949325D02*
G54D13*
D03*
X320675Y952500D02*
G54D13*
D03*
X317500Y955675D02*
G54D13*
D03*
X314325Y958850D02*
G54D13*
D03*
X311150Y962025D02*
G54D13*
D03*
X311150Y930275D02*
G54D13*
D03*
X307975Y927100D02*
G54D13*
D03*
X304800Y923925D02*
G54D13*
D03*
X301625Y920750D02*
G54D13*
D03*
X295275Y920750D02*
G54D13*
D03*
X292100Y923925D02*
G54D13*
D03*
X288925Y927100D02*
G54D13*
D03*
X285750Y930275D02*
G54D13*
D03*
X282575Y933450D02*
G54D13*
D03*
X279400Y936625D02*
G54D13*
D03*
X276225Y939800D02*
G54D13*
D03*
X273050Y942975D02*
G54D13*
D03*
X269875Y946150D02*
G54D13*
D03*
X307975Y965200D02*
G54D13*
D03*
X304800Y968375D02*
G54D13*
D03*
X301625Y971550D02*
G54D13*
D03*
X298450Y974725D02*
G54D13*
D03*
X282575Y971550D02*
G54D13*
D03*
X273050Y962025D02*
G54D13*
D03*
X269875Y965200D02*
G54D13*
D03*
X279400Y974725D02*
G54D13*
D03*
X279400Y981075D02*
G54D13*
D03*
X276225Y984250D02*
G54D13*
D03*
X273050Y981075D02*
G54D13*
D03*
X269875Y977900D02*
G54D13*
D03*
X266700Y974725D02*
G54D13*
D03*
X263525Y971550D02*
G54D13*
D03*
X260350Y968375D02*
G54D13*
D03*
X263525Y965200D02*
G54D13*
D03*
X314325Y952500D02*
G54D13*
D03*
X311150Y952500D02*
G54D13*
D03*
X307975Y955675D02*
G54D13*
D03*
X304800Y952500D02*
G54D13*
D03*
X301625Y952500D02*
G54D13*
D03*
X298450Y952500D02*
G54D13*
D03*
X295275Y949325D02*
G54D13*
D03*
X292100Y949325D02*
G54D13*
D03*
X288925Y952500D02*
G54D13*
D03*
X285750Y952500D02*
G54D13*
D03*
X282575Y952500D02*
G54D13*
D03*
X279400Y952500D02*
G54D13*
D03*
X276225Y952500D02*
G54D13*
D03*
X273050Y949325D02*
G54D13*
D03*
X257175Y977900D02*
G54D13*
D03*
X257175Y974725D02*
G54D13*
D03*
X257175Y971550D02*
G54D13*
D03*
X254000Y971550D02*
G54D13*
D03*
X254000Y977900D02*
G54D13*
D03*
X250825Y977900D02*
G54D13*
D03*
X250825Y981075D02*
G54D13*
D03*
X250825Y984250D02*
G54D13*
D03*
X247650Y984250D02*
G54D13*
D03*
X244475Y984250D02*
G54D13*
D03*
X244475Y981075D02*
G54D13*
D03*
X244475Y977900D02*
G54D13*
D03*
X241300Y977900D02*
G54D13*
D03*
X238125Y977900D02*
G54D13*
D03*
X238125Y974725D02*
G54D13*
D03*
X238125Y971550D02*
G54D13*
D03*
X241300Y971550D02*
G54D13*
D03*
X244475Y971550D02*
G54D13*
D03*
X250825Y971550D02*
G54D13*
D03*
X250825Y968375D02*
G54D13*
D03*
X250825Y965200D02*
G54D13*
D03*
X247650Y965200D02*
G54D13*
D03*
X244475Y965200D02*
G54D13*
D03*
X244475Y968375D02*
G54D13*
D03*
X295275Y977900D02*
G54D13*
D03*
X288925Y977900D02*
G54D13*
D03*
X285750Y974725D02*
G54D13*
D03*
X269875Y958850D02*
G54D13*
D03*
X266700Y955675D02*
G54D13*
D03*
X266700Y949325D02*
G54D13*
D03*
X269875Y939800D02*
G54D13*
D03*
X266700Y939800D02*
G54D13*
D03*
X263525Y939800D02*
G54D13*
D03*
X260350Y939800D02*
G54D13*
D03*
X257175Y939800D02*
G54D13*
D03*
X263525Y936625D02*
G54D13*
D03*
X263525Y933450D02*
G54D13*
D03*
X263525Y930275D02*
G54D13*
D03*
X263525Y927100D02*
G54D13*
D03*
X263525Y923925D02*
G54D13*
D03*
X266700Y920750D02*
G54D13*
D03*
X269875Y920750D02*
G54D13*
D03*
X273050Y923925D02*
G54D13*
D03*
X254000Y920750D02*
G54D13*
D03*
X250825Y923925D02*
G54D13*
D03*
X250825Y927100D02*
G54D13*
D03*
X250825Y930275D02*
G54D13*
D03*
X250825Y933450D02*
G54D13*
D03*
X247650Y920750D02*
G54D13*
D03*
X244475Y920750D02*
G54D13*
D03*
X241300Y920750D02*
G54D13*
D03*
X241300Y923925D02*
G54D13*
D03*
X241300Y927100D02*
G54D13*
D03*
X241300Y930275D02*
G54D13*
D03*
X241300Y933450D02*
G54D13*
D03*
X234950Y936625D02*
G54D13*
D03*
X234950Y930275D02*
G54D13*
D03*
X234950Y927100D02*
G54D13*
D03*
X234950Y923925D02*
G54D13*
D03*
X234950Y920750D02*
G54D13*
D03*
X228600Y923925D02*
G54D13*
D03*
X228600Y927100D02*
G54D13*
D03*
X228600Y930275D02*
G54D13*
D03*
X225425Y933450D02*
G54D13*
D03*
X222250Y933450D02*
G54D13*
D03*
X225425Y920750D02*
G54D13*
D03*
X222250Y920750D02*
G54D13*
D03*
X219075Y920750D02*
G54D13*
D03*
X219075Y933450D02*
G54D13*
D03*
X212725Y923925D02*
G54D13*
D03*
X212725Y927100D02*
G54D13*
D03*
X212725Y930275D02*
G54D13*
D03*
X209550Y933450D02*
G54D13*
D03*
X206375Y933450D02*
G54D13*
D03*
X203200Y933450D02*
G54D13*
D03*
X209550Y920750D02*
G54D13*
D03*
X206375Y920750D02*
G54D13*
D03*
X203200Y920750D02*
G54D13*
D03*
X200025Y930275D02*
G54D13*
D03*
X200025Y927100D02*
G54D13*
D03*
X203200Y927100D02*
G54D13*
D03*
X206375Y927100D02*
G54D13*
D03*
X209550Y927100D02*
G54D13*
D03*
X301625Y939800D02*
G54D13*
D03*
X298450Y936625D02*
G54D13*
D03*
X295275Y939800D02*
G54D13*
D03*
X298450Y942975D02*
G54D13*
D03*
X288925Y936625D02*
G54D13*
D03*
X311150Y946150D02*
G54D13*
D03*
X282575Y946150D02*
G54D13*
D03*
X298450Y927100D02*
G54D13*
D03*
X314325Y942975D02*
G54D13*
D03*
X254000Y958850D02*
G54D13*
D03*
X250825Y958850D02*
G54D13*
D03*
X247650Y958850D02*
G54D13*
D03*
X244475Y958850D02*
G54D13*
D03*
X241300Y958850D02*
G54D13*
D03*
X241300Y955675D02*
G54D13*
D03*
X241300Y952500D02*
G54D13*
D03*
X244475Y949325D02*
G54D13*
D03*
X247650Y946150D02*
G54D13*
D03*
X250825Y942975D02*
G54D13*
D03*
X238125Y965200D02*
G54D13*
D03*
X238125Y962025D02*
G54D13*
D03*
X234950Y962025D02*
G54D13*
D03*
X234950Y965200D02*
G54D13*
D03*
X231775Y958850D02*
G54D13*
D03*
X228600Y958850D02*
G54D13*
D03*
X225425Y958850D02*
G54D13*
D03*
X222250Y958850D02*
G54D13*
D03*
X219075Y958850D02*
G54D13*
D03*
X231775Y952500D02*
G54D13*
D03*
X228600Y952500D02*
G54D13*
D03*
X225425Y952500D02*
G54D13*
D03*
X222250Y952500D02*
G54D13*
D03*
X219075Y952500D02*
G54D13*
D03*
X219075Y949325D02*
G54D13*
D03*
X222250Y946150D02*
G54D13*
D03*
X225425Y942975D02*
G54D13*
D03*
X231775Y942975D02*
G54D13*
D03*
X228600Y942975D02*
G54D13*
D03*
X212725Y958850D02*
G54D13*
D03*
X209550Y958850D02*
G54D13*
D03*
X206375Y958850D02*
G54D13*
D03*
X203200Y958850D02*
G54D13*
D03*
X200025Y958850D02*
G54D13*
D03*
X200025Y955675D02*
G54D13*
D03*
X203200Y952500D02*
G54D13*
D03*
X206375Y949325D02*
G54D13*
D03*
X209550Y946150D02*
G54D13*
D03*
X212725Y942975D02*
G54D13*
D03*
X203200Y946150D02*
G54D13*
D03*
X200025Y942975D02*
G54D13*
D03*
X292100Y971550D02*
G54D13*
D03*
X295275Y968375D02*
G54D13*
D03*
G54D14*
X225933Y972819D02*
X223933Y971708D01*
X223267Y970597D01*
X223267Y968375D01*
G54D14*
X228600Y968375D02*
X228600Y977264D01*
X225267Y977264D01*
X223933Y976708D01*
X223267Y975597D01*
X223267Y974486D01*
X223933Y973375D01*
X225267Y972819D01*
X228600Y972819D01*
G54D14*
X216823Y968931D02*
X217890Y968375D01*
X219223Y968375D01*
X220556Y968931D01*
X220823Y970042D01*
X220823Y971931D01*
X220156Y973042D01*
X218823Y973375D01*
X217490Y973042D01*
X216823Y972264D01*
X216823Y971153D01*
X220823Y971153D01*
G54D14*
X214379Y973375D02*
X211712Y968375D01*
X209046Y973375D01*
G54D14*
X206602Y968375D02*
X206602Y968375D01*
G54D14*
X204158Y973931D02*
X200825Y977264D01*
X200825Y968375D01*
G54D14*
X198381Y968375D02*
X198381Y968375D01*
G54D14*
X190604Y975597D02*
X190604Y970042D01*
X191270Y968931D01*
X192604Y968375D01*
X193937Y968375D01*
X195270Y968931D01*
X195937Y970042D01*
X195937Y975597D01*
X195270Y976708D01*
X193937Y977264D01*
X192604Y977264D01*
X191270Y976708D01*
X190604Y975597D01*
G54D12*
X111125Y828675D02*
X85725Y828675D01*
X276225Y650875D02*
G54D11*
D03*
X298455Y650875D02*
G54D11*
D03*
G36*
X473025Y935090D02*
X461910Y923975D01*
X446140Y923975D01*
X435025Y935090D01*
X435025Y950860D01*
X446140Y961975D01*
X461910Y961975D01*
X473025Y950860D01*
X473025Y935090D01*
G37*
G36*
X422225Y935090D02*
X411110Y923975D01*
X395340Y923975D01*
X384225Y935090D01*
X384225Y950860D01*
X395340Y961975D01*
X411110Y961975D01*
X422225Y950860D01*
X422225Y935090D01*
G37*
X365125Y822325D02*
G54D10*
D03*
X365125Y847725D02*
G54D10*
D03*
X365125Y733425D02*
G54D10*
D03*
X365125Y758825D02*
G54D10*
D03*
X365125Y644525D02*
G54D10*
D03*
X365125Y669925D02*
G54D10*
D03*
G36*
X384225Y950860D02*
X395340Y961975D01*
X411110Y961975D01*
X422225Y950860D01*
X422225Y935090D01*
X411110Y923975D01*
X395340Y923975D01*
X384225Y935090D01*
X384225Y950860D01*
G37*
X365125Y847725D02*
G54D10*
D03*
X365125Y758825D02*
G54D10*
D03*
X365125Y669925D02*
G54D10*
D03*
X536575Y860425D02*
G54D10*
D03*
G36*
X505125Y823280D02*
X497520Y815675D01*
X486730Y815675D01*
X479125Y823280D01*
X479125Y834070D01*
X486730Y841675D01*
X497520Y841675D01*
X505125Y834070D01*
X505125Y823280D01*
G37*
G36*
X479725Y823280D02*
X472120Y815675D01*
X461330Y815675D01*
X453725Y823280D01*
X453725Y834070D01*
X461330Y841675D01*
X472120Y841675D01*
X479725Y834070D01*
X479725Y823280D01*
G37*
G36*
X454325Y823280D02*
X446720Y815675D01*
X435930Y815675D01*
X428325Y823280D01*
X428325Y834070D01*
X435930Y841675D01*
X446720Y841675D01*
X454325Y834070D01*
X454325Y823280D01*
G37*
G36*
X619425Y823280D02*
X611820Y815675D01*
X601030Y815675D01*
X593425Y823280D01*
X593425Y834070D01*
X601030Y841675D01*
X611820Y841675D01*
X619425Y834070D01*
X619425Y823280D01*
G37*
G36*
X594025Y823280D02*
X586420Y815675D01*
X575630Y815675D01*
X568025Y823280D01*
X568025Y834070D01*
X575630Y841675D01*
X586420Y841675D01*
X594025Y834070D01*
X594025Y823280D01*
G37*
G36*
X568625Y823280D02*
X561020Y815675D01*
X550230Y815675D01*
X542625Y823280D01*
X542625Y834070D01*
X550230Y841675D01*
X561020Y841675D01*
X568625Y834070D01*
X568625Y823280D01*
G37*
G36*
X479725Y823280D02*
X472120Y815675D01*
X461330Y815675D01*
X453725Y823280D01*
X453725Y834070D01*
X461330Y841675D01*
X472120Y841675D01*
X479725Y834070D01*
X479725Y823280D01*
G37*
G36*
X594025Y823280D02*
X586420Y815675D01*
X575630Y815675D01*
X568025Y823280D01*
X568025Y834070D01*
X575630Y841675D01*
X586420Y841675D01*
X594025Y834070D01*
X594025Y823280D01*
G37*
G36*
X402925Y875345D02*
X410530Y882950D01*
X421320Y882950D01*
X428925Y875345D01*
X428925Y864555D01*
X421320Y856950D01*
X410530Y856950D01*
X402925Y864555D01*
X402925Y875345D01*
G37*
X606425Y860425D02*
G54D10*
D03*
X581422Y860425D02*
G54D10*
D03*
X561578Y860425D02*
G54D10*
D03*
X536575Y860425D02*
G54D10*
D03*
G36*
X661183Y877452D02*
X647143Y863412D01*
X627223Y863412D01*
X613183Y877452D01*
X613183Y897372D01*
X627223Y911412D01*
X647143Y911412D01*
X661183Y897372D01*
X661183Y877452D01*
G37*
G36*
X529619Y877452D02*
X515579Y863412D01*
X495659Y863412D01*
X481619Y877452D01*
X481619Y897372D01*
X495659Y911412D01*
X515579Y911412D01*
X529619Y897372D01*
X529619Y877452D01*
G37*
X492125Y968375D02*
G54D11*
D03*
X492125Y942975D02*
G54D11*
D03*
X517525Y555625D02*
G54D10*
D03*
X517525Y581025D02*
G54D10*
D03*
X517525Y581025D02*
G54D10*
D03*
X365125Y555625D02*
G54D10*
D03*
X365125Y581025D02*
G54D10*
D03*
X365125Y581025D02*
G54D10*
D03*
G54D12*
X365125Y733425D02*
X396875Y733425D01*
X415925Y752475D01*
X415925Y869950D01*
G54D12*
X365125Y822325D02*
X415925Y822325D01*
X523875Y650875D02*
G54D11*
D03*
X549275Y650875D02*
G54D11*
D03*
G54D12*
X555625Y828675D02*
X555625Y803275D01*
X542925Y790575D01*
X419100Y790575D01*
X415925Y787400D01*
X441325Y555625D02*
G54D10*
D03*
X441325Y581025D02*
G54D10*
D03*
X441325Y581025D02*
G54D10*
D03*
X654050Y942975D02*
G54D13*
D03*
X650875Y939800D02*
G54D13*
D03*
X647700Y936625D02*
G54D13*
D03*
X644525Y933450D02*
G54D13*
D03*
X654050Y949325D02*
G54D13*
D03*
X650875Y952500D02*
G54D13*
D03*
X647700Y955675D02*
G54D13*
D03*
X644525Y958850D02*
G54D13*
D03*
X641350Y962025D02*
G54D13*
D03*
X641350Y930275D02*
G54D13*
D03*
X638175Y927100D02*
G54D13*
D03*
X635000Y923925D02*
G54D13*
D03*
X631825Y920750D02*
G54D13*
D03*
X625475Y920750D02*
G54D13*
D03*
X622300Y923925D02*
G54D13*
D03*
X619125Y927100D02*
G54D13*
D03*
X615950Y930275D02*
G54D13*
D03*
X612775Y933450D02*
G54D13*
D03*
X609600Y936625D02*
G54D13*
D03*
X606425Y939800D02*
G54D13*
D03*
X603250Y942975D02*
G54D13*
D03*
X600075Y946150D02*
G54D13*
D03*
X638175Y965200D02*
G54D13*
D03*
X635000Y968375D02*
G54D13*
D03*
X631825Y971550D02*
G54D13*
D03*
X628650Y974725D02*
G54D13*
D03*
X612775Y971550D02*
G54D13*
D03*
X603250Y962025D02*
G54D13*
D03*
X600075Y965200D02*
G54D13*
D03*
X609600Y974725D02*
G54D13*
D03*
X609600Y981075D02*
G54D13*
D03*
X606425Y984250D02*
G54D13*
D03*
X603250Y981075D02*
G54D13*
D03*
X600075Y977900D02*
G54D13*
D03*
X596900Y974725D02*
G54D13*
D03*
X593725Y971550D02*
G54D13*
D03*
X590550Y968375D02*
G54D13*
D03*
X593725Y965200D02*
G54D13*
D03*
X644525Y952500D02*
G54D13*
D03*
X641350Y952500D02*
G54D13*
D03*
X638175Y955675D02*
G54D13*
D03*
X635000Y952500D02*
G54D13*
D03*
X631825Y952500D02*
G54D13*
D03*
X628650Y952500D02*
G54D13*
D03*
X625475Y949325D02*
G54D13*
D03*
X622300Y949325D02*
G54D13*
D03*
X619125Y952500D02*
G54D13*
D03*
X615950Y952500D02*
G54D13*
D03*
X612775Y952500D02*
G54D13*
D03*
X609600Y952500D02*
G54D13*
D03*
X606425Y952500D02*
G54D13*
D03*
X603250Y949325D02*
G54D13*
D03*
X587375Y977900D02*
G54D13*
D03*
X587375Y974725D02*
G54D13*
D03*
X587375Y971550D02*
G54D13*
D03*
X584200Y971550D02*
G54D13*
D03*
X584200Y977900D02*
G54D13*
D03*
X581025Y977900D02*
G54D13*
D03*
X581025Y981075D02*
G54D13*
D03*
X581025Y984250D02*
G54D13*
D03*
X577850Y984250D02*
G54D13*
D03*
X574675Y984250D02*
G54D13*
D03*
X574675Y981075D02*
G54D13*
D03*
X574675Y977900D02*
G54D13*
D03*
X571500Y977900D02*
G54D13*
D03*
X568325Y977900D02*
G54D13*
D03*
X568325Y974725D02*
G54D13*
D03*
X568325Y971550D02*
G54D13*
D03*
X571500Y971550D02*
G54D13*
D03*
X574675Y971550D02*
G54D13*
D03*
X581025Y971550D02*
G54D13*
D03*
X581025Y968375D02*
G54D13*
D03*
X581025Y965200D02*
G54D13*
D03*
X577850Y965200D02*
G54D13*
D03*
X574675Y965200D02*
G54D13*
D03*
X574675Y968375D02*
G54D13*
D03*
X625475Y977900D02*
G54D13*
D03*
X619125Y977900D02*
G54D13*
D03*
X615950Y974725D02*
G54D13*
D03*
X600075Y958850D02*
G54D13*
D03*
X596900Y955675D02*
G54D13*
D03*
X596900Y949325D02*
G54D13*
D03*
X600075Y939800D02*
G54D13*
D03*
X596900Y939800D02*
G54D13*
D03*
X593725Y939800D02*
G54D13*
D03*
X590550Y939800D02*
G54D13*
D03*
X587375Y939800D02*
G54D13*
D03*
X593725Y936625D02*
G54D13*
D03*
X593725Y933450D02*
G54D13*
D03*
X593725Y930275D02*
G54D13*
D03*
X593725Y927100D02*
G54D13*
D03*
X593725Y923925D02*
G54D13*
D03*
X596900Y920750D02*
G54D13*
D03*
X600075Y920750D02*
G54D13*
D03*
X603250Y923925D02*
G54D13*
D03*
X584200Y920750D02*
G54D13*
D03*
X581025Y923925D02*
G54D13*
D03*
X581025Y927100D02*
G54D13*
D03*
X581025Y930275D02*
G54D13*
D03*
X581025Y933450D02*
G54D13*
D03*
X577850Y920750D02*
G54D13*
D03*
X574675Y920750D02*
G54D13*
D03*
X571500Y920750D02*
G54D13*
D03*
X571500Y923925D02*
G54D13*
D03*
X571500Y927100D02*
G54D13*
D03*
X571500Y930275D02*
G54D13*
D03*
X571500Y933450D02*
G54D13*
D03*
X565150Y936625D02*
G54D13*
D03*
X565150Y930275D02*
G54D13*
D03*
X565150Y927100D02*
G54D13*
D03*
X565150Y923925D02*
G54D13*
D03*
X565150Y920750D02*
G54D13*
D03*
X558800Y923925D02*
G54D13*
D03*
X558800Y927100D02*
G54D13*
D03*
X558800Y930275D02*
G54D13*
D03*
X555625Y933450D02*
G54D13*
D03*
X552450Y933450D02*
G54D13*
D03*
X555625Y920750D02*
G54D13*
D03*
X552450Y920750D02*
G54D13*
D03*
X549275Y920750D02*
G54D13*
D03*
X549275Y933450D02*
G54D13*
D03*
X542925Y923925D02*
G54D13*
D03*
X542925Y927100D02*
G54D13*
D03*
X542925Y930275D02*
G54D13*
D03*
X539750Y933450D02*
G54D13*
D03*
X536575Y933450D02*
G54D13*
D03*
X533400Y933450D02*
G54D13*
D03*
X539750Y920750D02*
G54D13*
D03*
X536575Y920750D02*
G54D13*
D03*
X533400Y920750D02*
G54D13*
D03*
X530225Y930275D02*
G54D13*
D03*
X530225Y927100D02*
G54D13*
D03*
X533400Y927100D02*
G54D13*
D03*
X536575Y927100D02*
G54D13*
D03*
X539750Y927100D02*
G54D13*
D03*
X631825Y939800D02*
G54D13*
D03*
X628650Y936625D02*
G54D13*
D03*
X625475Y939800D02*
G54D13*
D03*
X628650Y942975D02*
G54D13*
D03*
X619125Y936625D02*
G54D13*
D03*
X641350Y946150D02*
G54D13*
D03*
X612775Y946150D02*
G54D13*
D03*
X628650Y927100D02*
G54D13*
D03*
X644525Y942975D02*
G54D13*
D03*
X584200Y958850D02*
G54D13*
D03*
X581025Y958850D02*
G54D13*
D03*
X577850Y958850D02*
G54D13*
D03*
X574675Y958850D02*
G54D13*
D03*
X571500Y958850D02*
G54D13*
D03*
X571500Y955675D02*
G54D13*
D03*
X571500Y952500D02*
G54D13*
D03*
X574675Y949325D02*
G54D13*
D03*
X577850Y946150D02*
G54D13*
D03*
X581025Y942975D02*
G54D13*
D03*
X568325Y965200D02*
G54D13*
D03*
X568325Y962025D02*
G54D13*
D03*
X565150Y962025D02*
G54D13*
D03*
X565150Y965200D02*
G54D13*
D03*
X561975Y958850D02*
G54D13*
D03*
X558800Y958850D02*
G54D13*
D03*
X555625Y958850D02*
G54D13*
D03*
X552450Y958850D02*
G54D13*
D03*
X549275Y958850D02*
G54D13*
D03*
X561975Y952500D02*
G54D13*
D03*
X558800Y952500D02*
G54D13*
D03*
X555625Y952500D02*
G54D13*
D03*
X552450Y952500D02*
G54D13*
D03*
X549275Y952500D02*
G54D13*
D03*
X549275Y949325D02*
G54D13*
D03*
X552450Y946150D02*
G54D13*
D03*
X555625Y942975D02*
G54D13*
D03*
X561975Y942975D02*
G54D13*
D03*
X558800Y942975D02*
G54D13*
D03*
X542925Y958850D02*
G54D13*
D03*
X539750Y958850D02*
G54D13*
D03*
X536575Y958850D02*
G54D13*
D03*
X533400Y958850D02*
G54D13*
D03*
X530225Y958850D02*
G54D13*
D03*
X530225Y955675D02*
G54D13*
D03*
X533400Y952500D02*
G54D13*
D03*
X536575Y949325D02*
G54D13*
D03*
X539750Y946150D02*
G54D13*
D03*
X542925Y942975D02*
G54D13*
D03*
X533400Y946150D02*
G54D13*
D03*
X530225Y942975D02*
G54D13*
D03*
X622300Y971550D02*
G54D13*
D03*
X625475Y968375D02*
G54D13*
D03*
G54D14*
X556133Y972819D02*
X554133Y971708D01*
X553467Y970597D01*
X553467Y968375D01*
G54D14*
X558800Y968375D02*
X558800Y977264D01*
X555467Y977264D01*
X554133Y976708D01*
X553467Y975597D01*
X553467Y974486D01*
X554133Y973375D01*
X555467Y972819D01*
X558800Y972819D01*
G54D14*
X547023Y968931D02*
X548090Y968375D01*
X549423Y968375D01*
X550756Y968931D01*
X551023Y970042D01*
X551023Y971931D01*
X550356Y973042D01*
X549023Y973375D01*
X547690Y973042D01*
X547023Y972264D01*
X547023Y971153D01*
X551023Y971153D01*
G54D14*
X544579Y973375D02*
X541912Y968375D01*
X539246Y973375D01*
G54D14*
X536802Y968375D02*
X536802Y968375D01*
G54D14*
X534358Y973931D02*
X531025Y977264D01*
X531025Y968375D01*
G54D14*
X528581Y968375D02*
X528581Y968375D01*
G54D14*
X520804Y975597D02*
X520804Y970042D01*
X521470Y968931D01*
X522804Y968375D01*
X524137Y968375D01*
X525470Y968931D01*
X526137Y970042D01*
X526137Y975597D01*
X525470Y976708D01*
X524137Y977264D01*
X522804Y977264D01*
X521470Y976708D01*
X520804Y975597D01*
G54D12*
X441325Y828675D02*
X415925Y828675D01*
X606425Y650875D02*
G54D11*
D03*
X628655Y650875D02*
G54D11*
D03*
G36*
X803225Y935090D02*
X792110Y923975D01*
X776340Y923975D01*
X765225Y935090D01*
X765225Y950860D01*
X776340Y961975D01*
X792110Y961975D01*
X803225Y950860D01*
X803225Y935090D01*
G37*
G36*
X752425Y935090D02*
X741310Y923975D01*
X725540Y923975D01*
X714425Y935090D01*
X714425Y950860D01*
X725540Y961975D01*
X741310Y961975D01*
X752425Y950860D01*
X752425Y935090D01*
G37*
X695325Y822325D02*
G54D10*
D03*
X695325Y847725D02*
G54D10*
D03*
X695325Y733425D02*
G54D10*
D03*
X695325Y758825D02*
G54D10*
D03*
X695325Y644525D02*
G54D10*
D03*
X695325Y669925D02*
G54D10*
D03*
G36*
X714425Y950860D02*
X725540Y961975D01*
X741310Y961975D01*
X752425Y950860D01*
X752425Y935090D01*
X741310Y923975D01*
X725540Y923975D01*
X714425Y935090D01*
X714425Y950860D01*
G37*
X695325Y847725D02*
G54D10*
D03*
X695325Y758825D02*
G54D10*
D03*
X695325Y669925D02*
G54D10*
D03*
X866775Y860425D02*
G54D10*
D03*
G36*
X835325Y823280D02*
X827720Y815675D01*
X816930Y815675D01*
X809325Y823280D01*
X809325Y834070D01*
X816930Y841675D01*
X827720Y841675D01*
X835325Y834070D01*
X835325Y823280D01*
G37*
G36*
X809925Y823280D02*
X802320Y815675D01*
X791530Y815675D01*
X783925Y823280D01*
X783925Y834070D01*
X791530Y841675D01*
X802320Y841675D01*
X809925Y834070D01*
X809925Y823280D01*
G37*
G36*
X784525Y823280D02*
X776920Y815675D01*
X766130Y815675D01*
X758525Y823280D01*
X758525Y834070D01*
X766130Y841675D01*
X776920Y841675D01*
X784525Y834070D01*
X784525Y823280D01*
G37*
G36*
X949625Y823280D02*
X942020Y815675D01*
X931230Y815675D01*
X923625Y823280D01*
X923625Y834070D01*
X931230Y841675D01*
X942020Y841675D01*
X949625Y834070D01*
X949625Y823280D01*
G37*
G36*
X924225Y823280D02*
X916620Y815675D01*
X905830Y815675D01*
X898225Y823280D01*
X898225Y834070D01*
X905830Y841675D01*
X916620Y841675D01*
X924225Y834070D01*
X924225Y823280D01*
G37*
G36*
X898825Y823280D02*
X891220Y815675D01*
X880430Y815675D01*
X872825Y823280D01*
X872825Y834070D01*
X880430Y841675D01*
X891220Y841675D01*
X898825Y834070D01*
X898825Y823280D01*
G37*
G36*
X809925Y823280D02*
X802320Y815675D01*
X791530Y815675D01*
X783925Y823280D01*
X783925Y834070D01*
X791530Y841675D01*
X802320Y841675D01*
X809925Y834070D01*
X809925Y823280D01*
G37*
G36*
X924225Y823280D02*
X916620Y815675D01*
X905830Y815675D01*
X898225Y823280D01*
X898225Y834070D01*
X905830Y841675D01*
X916620Y841675D01*
X924225Y834070D01*
X924225Y823280D01*
G37*
G36*
X733125Y875345D02*
X740730Y882950D01*
X751520Y882950D01*
X759125Y875345D01*
X759125Y864555D01*
X751520Y856950D01*
X740730Y856950D01*
X733125Y864555D01*
X733125Y875345D01*
G37*
X936625Y860425D02*
G54D10*
D03*
X911622Y860425D02*
G54D10*
D03*
X891778Y860425D02*
G54D10*
D03*
X866775Y860425D02*
G54D10*
D03*
G36*
X991383Y877452D02*
X977343Y863412D01*
X957423Y863412D01*
X943383Y877452D01*
X943383Y897372D01*
X957423Y911412D01*
X977343Y911412D01*
X991383Y897372D01*
X991383Y877452D01*
G37*
G36*
X859819Y877452D02*
X845779Y863412D01*
X825859Y863412D01*
X811819Y877452D01*
X811819Y897372D01*
X825859Y911412D01*
X845779Y911412D01*
X859819Y897372D01*
X859819Y877452D01*
G37*
X822325Y968375D02*
G54D11*
D03*
X822325Y942975D02*
G54D11*
D03*
X847725Y555625D02*
G54D10*
D03*
X847725Y581025D02*
G54D10*
D03*
X847725Y581025D02*
G54D10*
D03*
X695325Y555625D02*
G54D10*
D03*
X695325Y581025D02*
G54D10*
D03*
X695325Y581025D02*
G54D10*
D03*
G54D12*
X695325Y733425D02*
X727075Y733425D01*
X746125Y752475D01*
X746125Y869950D01*
G54D12*
X695325Y822325D02*
X746125Y822325D01*
X854075Y650875D02*
G54D11*
D03*
X879475Y650875D02*
G54D11*
D03*
G54D12*
X885825Y828675D02*
X885825Y803275D01*
X873125Y790575D01*
X749300Y790575D01*
X746125Y787400D01*
X771525Y555625D02*
G54D10*
D03*
X771525Y581025D02*
G54D10*
D03*
X771525Y581025D02*
G54D10*
D03*
X984250Y942975D02*
G54D13*
D03*
X981075Y939800D02*
G54D13*
D03*
X977900Y936625D02*
G54D13*
D03*
X974725Y933450D02*
G54D13*
D03*
X984250Y949325D02*
G54D13*
D03*
X981075Y952500D02*
G54D13*
D03*
X977900Y955675D02*
G54D13*
D03*
X974725Y958850D02*
G54D13*
D03*
X971550Y962025D02*
G54D13*
D03*
X971550Y930275D02*
G54D13*
D03*
X968375Y927100D02*
G54D13*
D03*
X965200Y923925D02*
G54D13*
D03*
X962025Y920750D02*
G54D13*
D03*
X955675Y920750D02*
G54D13*
D03*
X952500Y923925D02*
G54D13*
D03*
X949325Y927100D02*
G54D13*
D03*
X946150Y930275D02*
G54D13*
D03*
X942975Y933450D02*
G54D13*
D03*
X939800Y936625D02*
G54D13*
D03*
X936625Y939800D02*
G54D13*
D03*
X933450Y942975D02*
G54D13*
D03*
X930275Y946150D02*
G54D13*
D03*
X968375Y965200D02*
G54D13*
D03*
X965200Y968375D02*
G54D13*
D03*
X962025Y971550D02*
G54D13*
D03*
X958850Y974725D02*
G54D13*
D03*
X942975Y971550D02*
G54D13*
D03*
X933450Y962025D02*
G54D13*
D03*
X930275Y965200D02*
G54D13*
D03*
X939800Y974725D02*
G54D13*
D03*
X939800Y981075D02*
G54D13*
D03*
X936625Y984250D02*
G54D13*
D03*
X933450Y981075D02*
G54D13*
D03*
X930275Y977900D02*
G54D13*
D03*
X927100Y974725D02*
G54D13*
D03*
X923925Y971550D02*
G54D13*
D03*
X920750Y968375D02*
G54D13*
D03*
X923925Y965200D02*
G54D13*
D03*
X974725Y952500D02*
G54D13*
D03*
X971550Y952500D02*
G54D13*
D03*
X968375Y955675D02*
G54D13*
D03*
X965200Y952500D02*
G54D13*
D03*
X962025Y952500D02*
G54D13*
D03*
X958850Y952500D02*
G54D13*
D03*
X955675Y949325D02*
G54D13*
D03*
X952500Y949325D02*
G54D13*
D03*
X949325Y952500D02*
G54D13*
D03*
X946150Y952500D02*
G54D13*
D03*
X942975Y952500D02*
G54D13*
D03*
X939800Y952500D02*
G54D13*
D03*
X936625Y952500D02*
G54D13*
D03*
X933450Y949325D02*
G54D13*
D03*
X917575Y977900D02*
G54D13*
D03*
X917575Y974725D02*
G54D13*
D03*
X917575Y971550D02*
G54D13*
D03*
X914400Y971550D02*
G54D13*
D03*
X914400Y977900D02*
G54D13*
D03*
X911225Y977900D02*
G54D13*
D03*
X911225Y981075D02*
G54D13*
D03*
X911225Y984250D02*
G54D13*
D03*
X908050Y984250D02*
G54D13*
D03*
X904875Y984250D02*
G54D13*
D03*
X904875Y981075D02*
G54D13*
D03*
X904875Y977900D02*
G54D13*
D03*
X901700Y977900D02*
G54D13*
D03*
X898525Y977900D02*
G54D13*
D03*
X898525Y974725D02*
G54D13*
D03*
X898525Y971550D02*
G54D13*
D03*
X901700Y971550D02*
G54D13*
D03*
X904875Y971550D02*
G54D13*
D03*
X911225Y971550D02*
G54D13*
D03*
X911225Y968375D02*
G54D13*
D03*
X911225Y965200D02*
G54D13*
D03*
X908050Y965200D02*
G54D13*
D03*
X904875Y965200D02*
G54D13*
D03*
X904875Y968375D02*
G54D13*
D03*
X955675Y977900D02*
G54D13*
D03*
X949325Y977900D02*
G54D13*
D03*
X946150Y974725D02*
G54D13*
D03*
X930275Y958850D02*
G54D13*
D03*
X927100Y955675D02*
G54D13*
D03*
X927100Y949325D02*
G54D13*
D03*
X930275Y939800D02*
G54D13*
D03*
X927100Y939800D02*
G54D13*
D03*
X923925Y939800D02*
G54D13*
D03*
X920750Y939800D02*
G54D13*
D03*
X917575Y939800D02*
G54D13*
D03*
X923925Y936625D02*
G54D13*
D03*
X923925Y933450D02*
G54D13*
D03*
X923925Y930275D02*
G54D13*
D03*
X923925Y927100D02*
G54D13*
D03*
X923925Y923925D02*
G54D13*
D03*
X927100Y920750D02*
G54D13*
D03*
X930275Y920750D02*
G54D13*
D03*
X933450Y923925D02*
G54D13*
D03*
X914400Y920750D02*
G54D13*
D03*
X911225Y923925D02*
G54D13*
D03*
X911225Y927100D02*
G54D13*
D03*
X911225Y930275D02*
G54D13*
D03*
X911225Y933450D02*
G54D13*
D03*
X908050Y920750D02*
G54D13*
D03*
X904875Y920750D02*
G54D13*
D03*
X901700Y920750D02*
G54D13*
D03*
X901700Y923925D02*
G54D13*
D03*
X901700Y927100D02*
G54D13*
D03*
X901700Y930275D02*
G54D13*
D03*
X901700Y933450D02*
G54D13*
D03*
X895350Y936625D02*
G54D13*
D03*
X895350Y930275D02*
G54D13*
D03*
X895350Y927100D02*
G54D13*
D03*
X895350Y923925D02*
G54D13*
D03*
X895350Y920750D02*
G54D13*
D03*
X889000Y923925D02*
G54D13*
D03*
X889000Y927100D02*
G54D13*
D03*
X889000Y930275D02*
G54D13*
D03*
X885825Y933450D02*
G54D13*
D03*
X882650Y933450D02*
G54D13*
D03*
X885825Y920750D02*
G54D13*
D03*
X882650Y920750D02*
G54D13*
D03*
X879475Y920750D02*
G54D13*
D03*
X879475Y933450D02*
G54D13*
D03*
X873125Y923925D02*
G54D13*
D03*
X873125Y927100D02*
G54D13*
D03*
X873125Y930275D02*
G54D13*
D03*
X869950Y933450D02*
G54D13*
D03*
X866775Y933450D02*
G54D13*
D03*
X863600Y933450D02*
G54D13*
D03*
X869950Y920750D02*
G54D13*
D03*
X866775Y920750D02*
G54D13*
D03*
X863600Y920750D02*
G54D13*
D03*
X860425Y930275D02*
G54D13*
D03*
X860425Y927100D02*
G54D13*
D03*
X863600Y927100D02*
G54D13*
D03*
X866775Y927100D02*
G54D13*
D03*
X869950Y927100D02*
G54D13*
D03*
X962025Y939800D02*
G54D13*
D03*
X958850Y936625D02*
G54D13*
D03*
X955675Y939800D02*
G54D13*
D03*
X958850Y942975D02*
G54D13*
D03*
X949325Y936625D02*
G54D13*
D03*
X971550Y946150D02*
G54D13*
D03*
X942975Y946150D02*
G54D13*
D03*
X958850Y927100D02*
G54D13*
D03*
X974725Y942975D02*
G54D13*
D03*
X914400Y958850D02*
G54D13*
D03*
X911225Y958850D02*
G54D13*
D03*
X908050Y958850D02*
G54D13*
D03*
X904875Y958850D02*
G54D13*
D03*
X901700Y958850D02*
G54D13*
D03*
X901700Y955675D02*
G54D13*
D03*
X901700Y952500D02*
G54D13*
D03*
X904875Y949325D02*
G54D13*
D03*
X908050Y946150D02*
G54D13*
D03*
X911225Y942975D02*
G54D13*
D03*
X898525Y965200D02*
G54D13*
D03*
X898525Y962025D02*
G54D13*
D03*
X895350Y962025D02*
G54D13*
D03*
X895350Y965200D02*
G54D13*
D03*
X892175Y958850D02*
G54D13*
D03*
X889000Y958850D02*
G54D13*
D03*
X885825Y958850D02*
G54D13*
D03*
X882650Y958850D02*
G54D13*
D03*
X879475Y958850D02*
G54D13*
D03*
X892175Y952500D02*
G54D13*
D03*
X889000Y952500D02*
G54D13*
D03*
X885825Y952500D02*
G54D13*
D03*
X882650Y952500D02*
G54D13*
D03*
X879475Y952500D02*
G54D13*
D03*
X879475Y949325D02*
G54D13*
D03*
X882650Y946150D02*
G54D13*
D03*
X885825Y942975D02*
G54D13*
D03*
X892175Y942975D02*
G54D13*
D03*
X889000Y942975D02*
G54D13*
D03*
X873125Y958850D02*
G54D13*
D03*
X869950Y958850D02*
G54D13*
D03*
X866775Y958850D02*
G54D13*
D03*
X863600Y958850D02*
G54D13*
D03*
X860425Y958850D02*
G54D13*
D03*
X860425Y955675D02*
G54D13*
D03*
X863600Y952500D02*
G54D13*
D03*
X866775Y949325D02*
G54D13*
D03*
X869950Y946150D02*
G54D13*
D03*
X873125Y942975D02*
G54D13*
D03*
X863600Y946150D02*
G54D13*
D03*
X860425Y942975D02*
G54D13*
D03*
X952500Y971550D02*
G54D13*
D03*
X955675Y968375D02*
G54D13*
D03*
G54D14*
X886333Y972819D02*
X884333Y971708D01*
X883667Y970597D01*
X883667Y968375D01*
G54D14*
X889000Y968375D02*
X889000Y977264D01*
X885667Y977264D01*
X884333Y976708D01*
X883667Y975597D01*
X883667Y974486D01*
X884333Y973375D01*
X885667Y972819D01*
X889000Y972819D01*
G54D14*
X877223Y968931D02*
X878290Y968375D01*
X879623Y968375D01*
X880956Y968931D01*
X881223Y970042D01*
X881223Y971931D01*
X880556Y973042D01*
X879223Y973375D01*
X877890Y973042D01*
X877223Y972264D01*
X877223Y971153D01*
X881223Y971153D01*
G54D14*
X874779Y973375D02*
X872112Y968375D01*
X869446Y973375D01*
G54D14*
X867002Y968375D02*
X867002Y968375D01*
G54D14*
X864558Y973931D02*
X861225Y977264D01*
X861225Y968375D01*
G54D14*
X858781Y968375D02*
X858781Y968375D01*
G54D14*
X851004Y975597D02*
X851004Y970042D01*
X851670Y968931D01*
X853004Y968375D01*
X854337Y968375D01*
X855670Y968931D01*
X856337Y970042D01*
X856337Y975597D01*
X855670Y976708D01*
X854337Y977264D01*
X853004Y977264D01*
X851670Y976708D01*
X851004Y975597D01*
G54D12*
X771525Y828675D02*
X746125Y828675D01*
X936625Y650875D02*
G54D11*
D03*
X958855Y650875D02*
G54D11*
D03*
G36*
X142825Y465190D02*
X131710Y454075D01*
X115940Y454075D01*
X104825Y465190D01*
X104825Y480960D01*
X115940Y492075D01*
X131710Y492075D01*
X142825Y480960D01*
X142825Y465190D01*
G37*
G36*
X92025Y465190D02*
X80910Y454075D01*
X65140Y454075D01*
X54025Y465190D01*
X54025Y480960D01*
X65140Y492075D01*
X80910Y492075D01*
X92025Y480960D01*
X92025Y465190D01*
G37*
X34925Y352425D02*
G54D10*
D03*
X34925Y377825D02*
G54D10*
D03*
X34925Y263525D02*
G54D10*
D03*
X34925Y288925D02*
G54D10*
D03*
X34925Y174625D02*
G54D10*
D03*
X34925Y200025D02*
G54D10*
D03*
G36*
X54025Y480960D02*
X65140Y492075D01*
X80910Y492075D01*
X92025Y480960D01*
X92025Y465190D01*
X80910Y454075D01*
X65140Y454075D01*
X54025Y465190D01*
X54025Y480960D01*
G37*
X34925Y377825D02*
G54D10*
D03*
X34925Y288925D02*
G54D10*
D03*
X34925Y200025D02*
G54D10*
D03*
X206375Y390525D02*
G54D10*
D03*
G36*
X174925Y353380D02*
X167320Y345775D01*
X156530Y345775D01*
X148925Y353380D01*
X148925Y364170D01*
X156530Y371775D01*
X167320Y371775D01*
X174925Y364170D01*
X174925Y353380D01*
G37*
G36*
X149525Y353380D02*
X141920Y345775D01*
X131130Y345775D01*
X123525Y353380D01*
X123525Y364170D01*
X131130Y371775D01*
X141920Y371775D01*
X149525Y364170D01*
X149525Y353380D01*
G37*
G36*
X124125Y353380D02*
X116520Y345775D01*
X105730Y345775D01*
X98125Y353380D01*
X98125Y364170D01*
X105730Y371775D01*
X116520Y371775D01*
X124125Y364170D01*
X124125Y353380D01*
G37*
G36*
X289225Y353380D02*
X281620Y345775D01*
X270830Y345775D01*
X263225Y353380D01*
X263225Y364170D01*
X270830Y371775D01*
X281620Y371775D01*
X289225Y364170D01*
X289225Y353380D01*
G37*
G36*
X263825Y353380D02*
X256220Y345775D01*
X245430Y345775D01*
X237825Y353380D01*
X237825Y364170D01*
X245430Y371775D01*
X256220Y371775D01*
X263825Y364170D01*
X263825Y353380D01*
G37*
G36*
X238425Y353380D02*
X230820Y345775D01*
X220030Y345775D01*
X212425Y353380D01*
X212425Y364170D01*
X220030Y371775D01*
X230820Y371775D01*
X238425Y364170D01*
X238425Y353380D01*
G37*
G36*
X149525Y353380D02*
X141920Y345775D01*
X131130Y345775D01*
X123525Y353380D01*
X123525Y364170D01*
X131130Y371775D01*
X141920Y371775D01*
X149525Y364170D01*
X149525Y353380D01*
G37*
G36*
X263825Y353380D02*
X256220Y345775D01*
X245430Y345775D01*
X237825Y353380D01*
X237825Y364170D01*
X245430Y371775D01*
X256220Y371775D01*
X263825Y364170D01*
X263825Y353380D01*
G37*
G36*
X72725Y405445D02*
X80330Y413050D01*
X91120Y413050D01*
X98725Y405445D01*
X98725Y394655D01*
X91120Y387050D01*
X80330Y387050D01*
X72725Y394655D01*
X72725Y405445D01*
G37*
X276225Y390525D02*
G54D10*
D03*
X251222Y390525D02*
G54D10*
D03*
X231378Y390525D02*
G54D10*
D03*
X206375Y390525D02*
G54D10*
D03*
G36*
X330983Y407552D02*
X316943Y393512D01*
X297023Y393512D01*
X282983Y407552D01*
X282983Y427472D01*
X297023Y441512D01*
X316943Y441512D01*
X330983Y427472D01*
X330983Y407552D01*
G37*
G36*
X199419Y407552D02*
X185379Y393512D01*
X165459Y393512D01*
X151419Y407552D01*
X151419Y427472D01*
X165459Y441512D01*
X185379Y441512D01*
X199419Y427472D01*
X199419Y407552D01*
G37*
X161925Y498475D02*
G54D11*
D03*
X161925Y473075D02*
G54D11*
D03*
X187325Y85725D02*
G54D10*
D03*
X187325Y111125D02*
G54D10*
D03*
X187325Y111125D02*
G54D10*
D03*
X34925Y85725D02*
G54D10*
D03*
X34925Y111125D02*
G54D10*
D03*
X34925Y111125D02*
G54D10*
D03*
G54D12*
X34925Y263525D02*
X66675Y263525D01*
X85725Y282575D01*
X85725Y400050D01*
G54D12*
X34925Y352425D02*
X85725Y352425D01*
X193675Y180975D02*
G54D11*
D03*
X219075Y180975D02*
G54D11*
D03*
G54D12*
X225425Y358775D02*
X225425Y333375D01*
X212725Y320675D01*
X88900Y320675D01*
X85725Y317500D01*
X111125Y85725D02*
G54D10*
D03*
X111125Y111125D02*
G54D10*
D03*
X111125Y111125D02*
G54D10*
D03*
X323850Y473075D02*
G54D13*
D03*
X320675Y469900D02*
G54D13*
D03*
X317500Y466725D02*
G54D13*
D03*
X314325Y463550D02*
G54D13*
D03*
X323850Y479425D02*
G54D13*
D03*
X320675Y482600D02*
G54D13*
D03*
X317500Y485775D02*
G54D13*
D03*
X314325Y488950D02*
G54D13*
D03*
X311150Y492125D02*
G54D13*
D03*
X311150Y460375D02*
G54D13*
D03*
X307975Y457200D02*
G54D13*
D03*
X304800Y454025D02*
G54D13*
D03*
X301625Y450850D02*
G54D13*
D03*
X295275Y450850D02*
G54D13*
D03*
X292100Y454025D02*
G54D13*
D03*
X288925Y457200D02*
G54D13*
D03*
X285750Y460375D02*
G54D13*
D03*
X282575Y463550D02*
G54D13*
D03*
X279400Y466725D02*
G54D13*
D03*
X276225Y469900D02*
G54D13*
D03*
X273050Y473075D02*
G54D13*
D03*
X269875Y476250D02*
G54D13*
D03*
X307975Y495300D02*
G54D13*
D03*
X304800Y498475D02*
G54D13*
D03*
X301625Y501650D02*
G54D13*
D03*
X298450Y504825D02*
G54D13*
D03*
X282575Y501650D02*
G54D13*
D03*
X273050Y492125D02*
G54D13*
D03*
X269875Y495300D02*
G54D13*
D03*
X279400Y504825D02*
G54D13*
D03*
X279400Y511175D02*
G54D13*
D03*
X276225Y514350D02*
G54D13*
D03*
X273050Y511175D02*
G54D13*
D03*
X269875Y508000D02*
G54D13*
D03*
X266700Y504825D02*
G54D13*
D03*
X263525Y501650D02*
G54D13*
D03*
X260350Y498475D02*
G54D13*
D03*
X263525Y495300D02*
G54D13*
D03*
X314325Y482600D02*
G54D13*
D03*
X311150Y482600D02*
G54D13*
D03*
X307975Y485775D02*
G54D13*
D03*
X304800Y482600D02*
G54D13*
D03*
X301625Y482600D02*
G54D13*
D03*
X298450Y482600D02*
G54D13*
D03*
X295275Y479425D02*
G54D13*
D03*
X292100Y479425D02*
G54D13*
D03*
X288925Y482600D02*
G54D13*
D03*
X285750Y482600D02*
G54D13*
D03*
X282575Y482600D02*
G54D13*
D03*
X279400Y482600D02*
G54D13*
D03*
X276225Y482600D02*
G54D13*
D03*
X273050Y479425D02*
G54D13*
D03*
X257175Y508000D02*
G54D13*
D03*
X257175Y504825D02*
G54D13*
D03*
X257175Y501650D02*
G54D13*
D03*
X254000Y501650D02*
G54D13*
D03*
X254000Y508000D02*
G54D13*
D03*
X250825Y508000D02*
G54D13*
D03*
X250825Y511175D02*
G54D13*
D03*
X250825Y514350D02*
G54D13*
D03*
X247650Y514350D02*
G54D13*
D03*
X244475Y514350D02*
G54D13*
D03*
X244475Y511175D02*
G54D13*
D03*
X244475Y508000D02*
G54D13*
D03*
X241300Y508000D02*
G54D13*
D03*
X238125Y508000D02*
G54D13*
D03*
X238125Y504825D02*
G54D13*
D03*
X238125Y501650D02*
G54D13*
D03*
X241300Y501650D02*
G54D13*
D03*
X244475Y501650D02*
G54D13*
D03*
X250825Y501650D02*
G54D13*
D03*
X250825Y498475D02*
G54D13*
D03*
X250825Y495300D02*
G54D13*
D03*
X247650Y495300D02*
G54D13*
D03*
X244475Y495300D02*
G54D13*
D03*
X244475Y498475D02*
G54D13*
D03*
X295275Y508000D02*
G54D13*
D03*
X288925Y508000D02*
G54D13*
D03*
X285750Y504825D02*
G54D13*
D03*
X269875Y488950D02*
G54D13*
D03*
X266700Y485775D02*
G54D13*
D03*
X266700Y479425D02*
G54D13*
D03*
X269875Y469900D02*
G54D13*
D03*
X266700Y469900D02*
G54D13*
D03*
X263525Y469900D02*
G54D13*
D03*
X260350Y469900D02*
G54D13*
D03*
X257175Y469900D02*
G54D13*
D03*
X263525Y466725D02*
G54D13*
D03*
X263525Y463550D02*
G54D13*
D03*
X263525Y460375D02*
G54D13*
D03*
X263525Y457200D02*
G54D13*
D03*
X263525Y454025D02*
G54D13*
D03*
X266700Y450850D02*
G54D13*
D03*
X269875Y450850D02*
G54D13*
D03*
X273050Y454025D02*
G54D13*
D03*
X254000Y450850D02*
G54D13*
D03*
X250825Y454025D02*
G54D13*
D03*
X250825Y457200D02*
G54D13*
D03*
X250825Y460375D02*
G54D13*
D03*
X250825Y463550D02*
G54D13*
D03*
X247650Y450850D02*
G54D13*
D03*
X244475Y450850D02*
G54D13*
D03*
X241300Y450850D02*
G54D13*
D03*
X241300Y454025D02*
G54D13*
D03*
X241300Y457200D02*
G54D13*
D03*
X241300Y460375D02*
G54D13*
D03*
X241300Y463550D02*
G54D13*
D03*
X234950Y466725D02*
G54D13*
D03*
X234950Y460375D02*
G54D13*
D03*
X234950Y457200D02*
G54D13*
D03*
X234950Y454025D02*
G54D13*
D03*
X234950Y450850D02*
G54D13*
D03*
X228600Y454025D02*
G54D13*
D03*
X228600Y457200D02*
G54D13*
D03*
X228600Y460375D02*
G54D13*
D03*
X225425Y463550D02*
G54D13*
D03*
X222250Y463550D02*
G54D13*
D03*
X225425Y450850D02*
G54D13*
D03*
X222250Y450850D02*
G54D13*
D03*
X219075Y450850D02*
G54D13*
D03*
X219075Y463550D02*
G54D13*
D03*
X212725Y454025D02*
G54D13*
D03*
X212725Y457200D02*
G54D13*
D03*
X212725Y460375D02*
G54D13*
D03*
X209550Y463550D02*
G54D13*
D03*
X206375Y463550D02*
G54D13*
D03*
X203200Y463550D02*
G54D13*
D03*
X209550Y450850D02*
G54D13*
D03*
X206375Y450850D02*
G54D13*
D03*
X203200Y450850D02*
G54D13*
D03*
X200025Y460375D02*
G54D13*
D03*
X200025Y457200D02*
G54D13*
D03*
X203200Y457200D02*
G54D13*
D03*
X206375Y457200D02*
G54D13*
D03*
X209550Y457200D02*
G54D13*
D03*
X301625Y469900D02*
G54D13*
D03*
X298450Y466725D02*
G54D13*
D03*
X295275Y469900D02*
G54D13*
D03*
X298450Y473075D02*
G54D13*
D03*
X288925Y466725D02*
G54D13*
D03*
X311150Y476250D02*
G54D13*
D03*
X282575Y476250D02*
G54D13*
D03*
X298450Y457200D02*
G54D13*
D03*
X314325Y473075D02*
G54D13*
D03*
X254000Y488950D02*
G54D13*
D03*
X250825Y488950D02*
G54D13*
D03*
X247650Y488950D02*
G54D13*
D03*
X244475Y488950D02*
G54D13*
D03*
X241300Y488950D02*
G54D13*
D03*
X241300Y485775D02*
G54D13*
D03*
X241300Y482600D02*
G54D13*
D03*
X244475Y479425D02*
G54D13*
D03*
X247650Y476250D02*
G54D13*
D03*
X250825Y473075D02*
G54D13*
D03*
X238125Y495300D02*
G54D13*
D03*
X238125Y492125D02*
G54D13*
D03*
X234950Y492125D02*
G54D13*
D03*
X234950Y495300D02*
G54D13*
D03*
X231775Y488950D02*
G54D13*
D03*
X228600Y488950D02*
G54D13*
D03*
X225425Y488950D02*
G54D13*
D03*
X222250Y488950D02*
G54D13*
D03*
X219075Y488950D02*
G54D13*
D03*
X231775Y482600D02*
G54D13*
D03*
X228600Y482600D02*
G54D13*
D03*
X225425Y482600D02*
G54D13*
D03*
X222250Y482600D02*
G54D13*
D03*
X219075Y482600D02*
G54D13*
D03*
X219075Y479425D02*
G54D13*
D03*
X222250Y476250D02*
G54D13*
D03*
X225425Y473075D02*
G54D13*
D03*
X231775Y473075D02*
G54D13*
D03*
X228600Y473075D02*
G54D13*
D03*
X212725Y488950D02*
G54D13*
D03*
X209550Y488950D02*
G54D13*
D03*
X206375Y488950D02*
G54D13*
D03*
X203200Y488950D02*
G54D13*
D03*
X200025Y488950D02*
G54D13*
D03*
X200025Y485775D02*
G54D13*
D03*
X203200Y482600D02*
G54D13*
D03*
X206375Y479425D02*
G54D13*
D03*
X209550Y476250D02*
G54D13*
D03*
X212725Y473075D02*
G54D13*
D03*
X203200Y476250D02*
G54D13*
D03*
X200025Y473075D02*
G54D13*
D03*
X292100Y501650D02*
G54D13*
D03*
X295275Y498475D02*
G54D13*
D03*
G54D14*
X225933Y502919D02*
X223933Y501808D01*
X223267Y500697D01*
X223267Y498475D01*
G54D14*
X228600Y498475D02*
X228600Y507364D01*
X225267Y507364D01*
X223933Y506808D01*
X223267Y505697D01*
X223267Y504586D01*
X223933Y503475D01*
X225267Y502919D01*
X228600Y502919D01*
G54D14*
X216823Y499031D02*
X217890Y498475D01*
X219223Y498475D01*
X220556Y499031D01*
X220823Y500142D01*
X220823Y502031D01*
X220156Y503142D01*
X218823Y503475D01*
X217490Y503142D01*
X216823Y502364D01*
X216823Y501253D01*
X220823Y501253D01*
G54D14*
X214379Y503475D02*
X211712Y498475D01*
X209046Y503475D01*
G54D14*
X206602Y498475D02*
X206602Y498475D01*
G54D14*
X204158Y504031D02*
X200825Y507364D01*
X200825Y498475D01*
G54D14*
X198381Y498475D02*
X198381Y498475D01*
G54D14*
X190604Y505697D02*
X190604Y500142D01*
X191270Y499031D01*
X192604Y498475D01*
X193937Y498475D01*
X195270Y499031D01*
X195937Y500142D01*
X195937Y505697D01*
X195270Y506808D01*
X193937Y507364D01*
X192604Y507364D01*
X191270Y506808D01*
X190604Y505697D01*
G54D12*
X111125Y358775D02*
X85725Y358775D01*
X276225Y180975D02*
G54D11*
D03*
X298455Y180975D02*
G54D11*
D03*
G36*
X473025Y465190D02*
X461910Y454075D01*
X446140Y454075D01*
X435025Y465190D01*
X435025Y480960D01*
X446140Y492075D01*
X461910Y492075D01*
X473025Y480960D01*
X473025Y465190D01*
G37*
G36*
X422225Y465190D02*
X411110Y454075D01*
X395340Y454075D01*
X384225Y465190D01*
X384225Y480960D01*
X395340Y492075D01*
X411110Y492075D01*
X422225Y480960D01*
X422225Y465190D01*
G37*
X365125Y352425D02*
G54D10*
D03*
X365125Y377825D02*
G54D10*
D03*
X365125Y263525D02*
G54D10*
D03*
X365125Y288925D02*
G54D10*
D03*
X365125Y174625D02*
G54D10*
D03*
X365125Y200025D02*
G54D10*
D03*
G36*
X384225Y480960D02*
X395340Y492075D01*
X411110Y492075D01*
X422225Y480960D01*
X422225Y465190D01*
X411110Y454075D01*
X395340Y454075D01*
X384225Y465190D01*
X384225Y480960D01*
G37*
X365125Y377825D02*
G54D10*
D03*
X365125Y288925D02*
G54D10*
D03*
X365125Y200025D02*
G54D10*
D03*
X536575Y390525D02*
G54D10*
D03*
G36*
X505125Y353380D02*
X497520Y345775D01*
X486730Y345775D01*
X479125Y353380D01*
X479125Y364170D01*
X486730Y371775D01*
X497520Y371775D01*
X505125Y364170D01*
X505125Y353380D01*
G37*
G36*
X479725Y353380D02*
X472120Y345775D01*
X461330Y345775D01*
X453725Y353380D01*
X453725Y364170D01*
X461330Y371775D01*
X472120Y371775D01*
X479725Y364170D01*
X479725Y353380D01*
G37*
G36*
X454325Y353380D02*
X446720Y345775D01*
X435930Y345775D01*
X428325Y353380D01*
X428325Y364170D01*
X435930Y371775D01*
X446720Y371775D01*
X454325Y364170D01*
X454325Y353380D01*
G37*
G36*
X619425Y353380D02*
X611820Y345775D01*
X601030Y345775D01*
X593425Y353380D01*
X593425Y364170D01*
X601030Y371775D01*
X611820Y371775D01*
X619425Y364170D01*
X619425Y353380D01*
G37*
G36*
X594025Y353380D02*
X586420Y345775D01*
X575630Y345775D01*
X568025Y353380D01*
X568025Y364170D01*
X575630Y371775D01*
X586420Y371775D01*
X594025Y364170D01*
X594025Y353380D01*
G37*
G36*
X568625Y353380D02*
X561020Y345775D01*
X550230Y345775D01*
X542625Y353380D01*
X542625Y364170D01*
X550230Y371775D01*
X561020Y371775D01*
X568625Y364170D01*
X568625Y353380D01*
G37*
G36*
X479725Y353380D02*
X472120Y345775D01*
X461330Y345775D01*
X453725Y353380D01*
X453725Y364170D01*
X461330Y371775D01*
X472120Y371775D01*
X479725Y364170D01*
X479725Y353380D01*
G37*
G36*
X594025Y353380D02*
X586420Y345775D01*
X575630Y345775D01*
X568025Y353380D01*
X568025Y364170D01*
X575630Y371775D01*
X586420Y371775D01*
X594025Y364170D01*
X594025Y353380D01*
G37*
G36*
X402925Y405445D02*
X410530Y413050D01*
X421320Y413050D01*
X428925Y405445D01*
X428925Y394655D01*
X421320Y387050D01*
X410530Y387050D01*
X402925Y394655D01*
X402925Y405445D01*
G37*
X606425Y390525D02*
G54D10*
D03*
X581422Y390525D02*
G54D10*
D03*
X561578Y390525D02*
G54D10*
D03*
X536575Y390525D02*
G54D10*
D03*
G36*
X661183Y407552D02*
X647143Y393512D01*
X627223Y393512D01*
X613183Y407552D01*
X613183Y427472D01*
X627223Y441512D01*
X647143Y441512D01*
X661183Y427472D01*
X661183Y407552D01*
G37*
G36*
X529619Y407552D02*
X515579Y393512D01*
X495659Y393512D01*
X481619Y407552D01*
X481619Y427472D01*
X495659Y441512D01*
X515579Y441512D01*
X529619Y427472D01*
X529619Y407552D01*
G37*
X492125Y498475D02*
G54D11*
D03*
X492125Y473075D02*
G54D11*
D03*
X517525Y85725D02*
G54D10*
D03*
X517525Y111125D02*
G54D10*
D03*
X517525Y111125D02*
G54D10*
D03*
X365125Y85725D02*
G54D10*
D03*
X365125Y111125D02*
G54D10*
D03*
X365125Y111125D02*
G54D10*
D03*
G54D12*
X365125Y263525D02*
X396875Y263525D01*
X415925Y282575D01*
X415925Y400050D01*
G54D12*
X365125Y352425D02*
X415925Y352425D01*
X523875Y180975D02*
G54D11*
D03*
X549275Y180975D02*
G54D11*
D03*
G54D12*
X555625Y358775D02*
X555625Y333375D01*
X542925Y320675D01*
X419100Y320675D01*
X415925Y317500D01*
X441325Y85725D02*
G54D10*
D03*
X441325Y111125D02*
G54D10*
D03*
X441325Y111125D02*
G54D10*
D03*
X654050Y473075D02*
G54D13*
D03*
X650875Y469900D02*
G54D13*
D03*
X647700Y466725D02*
G54D13*
D03*
X644525Y463550D02*
G54D13*
D03*
X654050Y479425D02*
G54D13*
D03*
X650875Y482600D02*
G54D13*
D03*
X647700Y485775D02*
G54D13*
D03*
X644525Y488950D02*
G54D13*
D03*
X641350Y492125D02*
G54D13*
D03*
X641350Y460375D02*
G54D13*
D03*
X638175Y457200D02*
G54D13*
D03*
X635000Y454025D02*
G54D13*
D03*
X631825Y450850D02*
G54D13*
D03*
X625475Y450850D02*
G54D13*
D03*
X622300Y454025D02*
G54D13*
D03*
X619125Y457200D02*
G54D13*
D03*
X615950Y460375D02*
G54D13*
D03*
X612775Y463550D02*
G54D13*
D03*
X609600Y466725D02*
G54D13*
D03*
X606425Y469900D02*
G54D13*
D03*
X603250Y473075D02*
G54D13*
D03*
X600075Y476250D02*
G54D13*
D03*
X638175Y495300D02*
G54D13*
D03*
X635000Y498475D02*
G54D13*
D03*
X631825Y501650D02*
G54D13*
D03*
X628650Y504825D02*
G54D13*
D03*
X612775Y501650D02*
G54D13*
D03*
X603250Y492125D02*
G54D13*
D03*
X600075Y495300D02*
G54D13*
D03*
X609600Y504825D02*
G54D13*
D03*
X609600Y511175D02*
G54D13*
D03*
X606425Y514350D02*
G54D13*
D03*
X603250Y511175D02*
G54D13*
D03*
X600075Y508000D02*
G54D13*
D03*
X596900Y504825D02*
G54D13*
D03*
X593725Y501650D02*
G54D13*
D03*
X590550Y498475D02*
G54D13*
D03*
X593725Y495300D02*
G54D13*
D03*
X644525Y482600D02*
G54D13*
D03*
X641350Y482600D02*
G54D13*
D03*
X638175Y485775D02*
G54D13*
D03*
X635000Y482600D02*
G54D13*
D03*
X631825Y482600D02*
G54D13*
D03*
X628650Y482600D02*
G54D13*
D03*
X625475Y479425D02*
G54D13*
D03*
X622300Y479425D02*
G54D13*
D03*
X619125Y482600D02*
G54D13*
D03*
X615950Y482600D02*
G54D13*
D03*
X612775Y482600D02*
G54D13*
D03*
X609600Y482600D02*
G54D13*
D03*
X606425Y482600D02*
G54D13*
D03*
X603250Y479425D02*
G54D13*
D03*
X587375Y508000D02*
G54D13*
D03*
X587375Y504825D02*
G54D13*
D03*
X587375Y501650D02*
G54D13*
D03*
X584200Y501650D02*
G54D13*
D03*
X584200Y508000D02*
G54D13*
D03*
X581025Y508000D02*
G54D13*
D03*
X581025Y511175D02*
G54D13*
D03*
X581025Y514350D02*
G54D13*
D03*
X577850Y514350D02*
G54D13*
D03*
X574675Y514350D02*
G54D13*
D03*
X574675Y511175D02*
G54D13*
D03*
X574675Y508000D02*
G54D13*
D03*
X571500Y508000D02*
G54D13*
D03*
X568325Y508000D02*
G54D13*
D03*
X568325Y504825D02*
G54D13*
D03*
X568325Y501650D02*
G54D13*
D03*
X571500Y501650D02*
G54D13*
D03*
X574675Y501650D02*
G54D13*
D03*
X581025Y501650D02*
G54D13*
D03*
X581025Y498475D02*
G54D13*
D03*
X581025Y495300D02*
G54D13*
D03*
X577850Y495300D02*
G54D13*
D03*
X574675Y495300D02*
G54D13*
D03*
X574675Y498475D02*
G54D13*
D03*
X625475Y508000D02*
G54D13*
D03*
X619125Y508000D02*
G54D13*
D03*
X615950Y504825D02*
G54D13*
D03*
X600075Y488950D02*
G54D13*
D03*
X596900Y485775D02*
G54D13*
D03*
X596900Y479425D02*
G54D13*
D03*
X600075Y469900D02*
G54D13*
D03*
X596900Y469900D02*
G54D13*
D03*
X593725Y469900D02*
G54D13*
D03*
X590550Y469900D02*
G54D13*
D03*
X587375Y469900D02*
G54D13*
D03*
X593725Y466725D02*
G54D13*
D03*
X593725Y463550D02*
G54D13*
D03*
X593725Y460375D02*
G54D13*
D03*
X593725Y457200D02*
G54D13*
D03*
X593725Y454025D02*
G54D13*
D03*
X596900Y450850D02*
G54D13*
D03*
X600075Y450850D02*
G54D13*
D03*
X603250Y454025D02*
G54D13*
D03*
X584200Y450850D02*
G54D13*
D03*
X581025Y454025D02*
G54D13*
D03*
X581025Y457200D02*
G54D13*
D03*
X581025Y460375D02*
G54D13*
D03*
X581025Y463550D02*
G54D13*
D03*
X577850Y450850D02*
G54D13*
D03*
X574675Y450850D02*
G54D13*
D03*
X571500Y450850D02*
G54D13*
D03*
X571500Y454025D02*
G54D13*
D03*
X571500Y457200D02*
G54D13*
D03*
X571500Y460375D02*
G54D13*
D03*
X571500Y463550D02*
G54D13*
D03*
X565150Y466725D02*
G54D13*
D03*
X565150Y460375D02*
G54D13*
D03*
X565150Y457200D02*
G54D13*
D03*
X565150Y454025D02*
G54D13*
D03*
X565150Y450850D02*
G54D13*
D03*
X558800Y454025D02*
G54D13*
D03*
X558800Y457200D02*
G54D13*
D03*
X558800Y460375D02*
G54D13*
D03*
X555625Y463550D02*
G54D13*
D03*
X552450Y463550D02*
G54D13*
D03*
X555625Y450850D02*
G54D13*
D03*
X552450Y450850D02*
G54D13*
D03*
X549275Y450850D02*
G54D13*
D03*
X549275Y463550D02*
G54D13*
D03*
X542925Y454025D02*
G54D13*
D03*
X542925Y457200D02*
G54D13*
D03*
X542925Y460375D02*
G54D13*
D03*
X539750Y463550D02*
G54D13*
D03*
X536575Y463550D02*
G54D13*
D03*
X533400Y463550D02*
G54D13*
D03*
X539750Y450850D02*
G54D13*
D03*
X536575Y450850D02*
G54D13*
D03*
X533400Y450850D02*
G54D13*
D03*
X530225Y460375D02*
G54D13*
D03*
X530225Y457200D02*
G54D13*
D03*
X533400Y457200D02*
G54D13*
D03*
X536575Y457200D02*
G54D13*
D03*
X539750Y457200D02*
G54D13*
D03*
X631825Y469900D02*
G54D13*
D03*
X628650Y466725D02*
G54D13*
D03*
X625475Y469900D02*
G54D13*
D03*
X628650Y473075D02*
G54D13*
D03*
X619125Y466725D02*
G54D13*
D03*
X641350Y476250D02*
G54D13*
D03*
X612775Y476250D02*
G54D13*
D03*
X628650Y457200D02*
G54D13*
D03*
X644525Y473075D02*
G54D13*
D03*
X584200Y488950D02*
G54D13*
D03*
X581025Y488950D02*
G54D13*
D03*
X577850Y488950D02*
G54D13*
D03*
X574675Y488950D02*
G54D13*
D03*
X571500Y488950D02*
G54D13*
D03*
X571500Y485775D02*
G54D13*
D03*
X571500Y482600D02*
G54D13*
D03*
X574675Y479425D02*
G54D13*
D03*
X577850Y476250D02*
G54D13*
D03*
X581025Y473075D02*
G54D13*
D03*
X568325Y495300D02*
G54D13*
D03*
X568325Y492125D02*
G54D13*
D03*
X565150Y492125D02*
G54D13*
D03*
X565150Y495300D02*
G54D13*
D03*
X561975Y488950D02*
G54D13*
D03*
X558800Y488950D02*
G54D13*
D03*
X555625Y488950D02*
G54D13*
D03*
X552450Y488950D02*
G54D13*
D03*
X549275Y488950D02*
G54D13*
D03*
X561975Y482600D02*
G54D13*
D03*
X558800Y482600D02*
G54D13*
D03*
X555625Y482600D02*
G54D13*
D03*
X552450Y482600D02*
G54D13*
D03*
X549275Y482600D02*
G54D13*
D03*
X549275Y479425D02*
G54D13*
D03*
X552450Y476250D02*
G54D13*
D03*
X555625Y473075D02*
G54D13*
D03*
X561975Y473075D02*
G54D13*
D03*
X558800Y473075D02*
G54D13*
D03*
X542925Y488950D02*
G54D13*
D03*
X539750Y488950D02*
G54D13*
D03*
X536575Y488950D02*
G54D13*
D03*
X533400Y488950D02*
G54D13*
D03*
X530225Y488950D02*
G54D13*
D03*
X530225Y485775D02*
G54D13*
D03*
X533400Y482600D02*
G54D13*
D03*
X536575Y479425D02*
G54D13*
D03*
X539750Y476250D02*
G54D13*
D03*
X542925Y473075D02*
G54D13*
D03*
X533400Y476250D02*
G54D13*
D03*
X530225Y473075D02*
G54D13*
D03*
X622300Y501650D02*
G54D13*
D03*
X625475Y498475D02*
G54D13*
D03*
G54D14*
X556133Y502919D02*
X554133Y501808D01*
X553467Y500697D01*
X553467Y498475D01*
G54D14*
X558800Y498475D02*
X558800Y507364D01*
X555467Y507364D01*
X554133Y506808D01*
X553467Y505697D01*
X553467Y504586D01*
X554133Y503475D01*
X555467Y502919D01*
X558800Y502919D01*
G54D14*
X547023Y499031D02*
X548090Y498475D01*
X549423Y498475D01*
X550756Y499031D01*
X551023Y500142D01*
X551023Y502031D01*
X550356Y503142D01*
X549023Y503475D01*
X547690Y503142D01*
X547023Y502364D01*
X547023Y501253D01*
X551023Y501253D01*
G54D14*
X544579Y503475D02*
X541912Y498475D01*
X539246Y503475D01*
G54D14*
X536802Y498475D02*
X536802Y498475D01*
G54D14*
X534358Y504031D02*
X531025Y507364D01*
X531025Y498475D01*
G54D14*
X528581Y498475D02*
X528581Y498475D01*
G54D14*
X520804Y505697D02*
X520804Y500142D01*
X521470Y499031D01*
X522804Y498475D01*
X524137Y498475D01*
X525470Y499031D01*
X526137Y500142D01*
X526137Y505697D01*
X525470Y506808D01*
X524137Y507364D01*
X522804Y507364D01*
X521470Y506808D01*
X520804Y505697D01*
G54D12*
X441325Y358775D02*
X415925Y358775D01*
X606425Y180975D02*
G54D11*
D03*
X628655Y180975D02*
G54D11*
D03*
G36*
X803225Y465190D02*
X792110Y454075D01*
X776340Y454075D01*
X765225Y465190D01*
X765225Y480960D01*
X776340Y492075D01*
X792110Y492075D01*
X803225Y480960D01*
X803225Y465190D01*
G37*
G36*
X752425Y465190D02*
X741310Y454075D01*
X725540Y454075D01*
X714425Y465190D01*
X714425Y480960D01*
X725540Y492075D01*
X741310Y492075D01*
X752425Y480960D01*
X752425Y465190D01*
G37*
X695325Y352425D02*
G54D10*
D03*
X695325Y377825D02*
G54D10*
D03*
X695325Y263525D02*
G54D10*
D03*
X695325Y288925D02*
G54D10*
D03*
X695325Y174625D02*
G54D10*
D03*
X695325Y200025D02*
G54D10*
D03*
G36*
X714425Y480960D02*
X725540Y492075D01*
X741310Y492075D01*
X752425Y480960D01*
X752425Y465190D01*
X741310Y454075D01*
X725540Y454075D01*
X714425Y465190D01*
X714425Y480960D01*
G37*
X695325Y377825D02*
G54D10*
D03*
X695325Y288925D02*
G54D10*
D03*
X695325Y200025D02*
G54D10*
D03*
X866775Y390525D02*
G54D10*
D03*
G36*
X835325Y353380D02*
X827720Y345775D01*
X816930Y345775D01*
X809325Y353380D01*
X809325Y364170D01*
X816930Y371775D01*
X827720Y371775D01*
X835325Y364170D01*
X835325Y353380D01*
G37*
G36*
X809925Y353380D02*
X802320Y345775D01*
X791530Y345775D01*
X783925Y353380D01*
X783925Y364170D01*
X791530Y371775D01*
X802320Y371775D01*
X809925Y364170D01*
X809925Y353380D01*
G37*
G36*
X784525Y353380D02*
X776920Y345775D01*
X766130Y345775D01*
X758525Y353380D01*
X758525Y364170D01*
X766130Y371775D01*
X776920Y371775D01*
X784525Y364170D01*
X784525Y353380D01*
G37*
G36*
X949625Y353380D02*
X942020Y345775D01*
X931230Y345775D01*
X923625Y353380D01*
X923625Y364170D01*
X931230Y371775D01*
X942020Y371775D01*
X949625Y364170D01*
X949625Y353380D01*
G37*
G36*
X924225Y353380D02*
X916620Y345775D01*
X905830Y345775D01*
X898225Y353380D01*
X898225Y364170D01*
X905830Y371775D01*
X916620Y371775D01*
X924225Y364170D01*
X924225Y353380D01*
G37*
G36*
X898825Y353380D02*
X891220Y345775D01*
X880430Y345775D01*
X872825Y353380D01*
X872825Y364170D01*
X880430Y371775D01*
X891220Y371775D01*
X898825Y364170D01*
X898825Y353380D01*
G37*
G36*
X809925Y353380D02*
X802320Y345775D01*
X791530Y345775D01*
X783925Y353380D01*
X783925Y364170D01*
X791530Y371775D01*
X802320Y371775D01*
X809925Y364170D01*
X809925Y353380D01*
G37*
G36*
X924225Y353380D02*
X916620Y345775D01*
X905830Y345775D01*
X898225Y353380D01*
X898225Y364170D01*
X905830Y371775D01*
X916620Y371775D01*
X924225Y364170D01*
X924225Y353380D01*
G37*
G36*
X733125Y405445D02*
X740730Y413050D01*
X751520Y413050D01*
X759125Y405445D01*
X759125Y394655D01*
X751520Y387050D01*
X740730Y387050D01*
X733125Y394655D01*
X733125Y405445D01*
G37*
X936625Y390525D02*
G54D10*
D03*
X911622Y390525D02*
G54D10*
D03*
X891778Y390525D02*
G54D10*
D03*
X866775Y390525D02*
G54D10*
D03*
G36*
X991383Y407552D02*
X977343Y393512D01*
X957423Y393512D01*
X943383Y407552D01*
X943383Y427472D01*
X957423Y441512D01*
X977343Y441512D01*
X991383Y427472D01*
X991383Y407552D01*
G37*
G36*
X859819Y407552D02*
X845779Y393512D01*
X825859Y393512D01*
X811819Y407552D01*
X811819Y427472D01*
X825859Y441512D01*
X845779Y441512D01*
X859819Y427472D01*
X859819Y407552D01*
G37*
X822325Y498475D02*
G54D11*
D03*
X822325Y473075D02*
G54D11*
D03*
X847725Y85725D02*
G54D10*
D03*
X847725Y111125D02*
G54D10*
D03*
X847725Y111125D02*
G54D10*
D03*
X695325Y85725D02*
G54D10*
D03*
X695325Y111125D02*
G54D10*
D03*
X695325Y111125D02*
G54D10*
D03*
G54D12*
X695325Y263525D02*
X727075Y263525D01*
X746125Y282575D01*
X746125Y400050D01*
G54D12*
X695325Y352425D02*
X746125Y352425D01*
X854075Y180975D02*
G54D11*
D03*
X879475Y180975D02*
G54D11*
D03*
G54D12*
X885825Y358775D02*
X885825Y333375D01*
X873125Y320675D01*
X749300Y320675D01*
X746125Y317500D01*
X771525Y85725D02*
G54D10*
D03*
X771525Y111125D02*
G54D10*
D03*
X771525Y111125D02*
G54D10*
D03*
X984250Y473075D02*
G54D13*
D03*
X981075Y469900D02*
G54D13*
D03*
X977900Y466725D02*
G54D13*
D03*
X974725Y463550D02*
G54D13*
D03*
X984250Y479425D02*
G54D13*
D03*
X981075Y482600D02*
G54D13*
D03*
X977900Y485775D02*
G54D13*
D03*
X974725Y488950D02*
G54D13*
D03*
X971550Y492125D02*
G54D13*
D03*
X971550Y460375D02*
G54D13*
D03*
X968375Y457200D02*
G54D13*
D03*
X965200Y454025D02*
G54D13*
D03*
X962025Y450850D02*
G54D13*
D03*
X955675Y450850D02*
G54D13*
D03*
X952500Y454025D02*
G54D13*
D03*
X949325Y457200D02*
G54D13*
D03*
X946150Y460375D02*
G54D13*
D03*
X942975Y463550D02*
G54D13*
D03*
X939800Y466725D02*
G54D13*
D03*
X936625Y469900D02*
G54D13*
D03*
X933450Y473075D02*
G54D13*
D03*
X930275Y476250D02*
G54D13*
D03*
X968375Y495300D02*
G54D13*
D03*
X965200Y498475D02*
G54D13*
D03*
X962025Y501650D02*
G54D13*
D03*
X958850Y504825D02*
G54D13*
D03*
X942975Y501650D02*
G54D13*
D03*
X933450Y492125D02*
G54D13*
D03*
X930275Y495300D02*
G54D13*
D03*
X939800Y504825D02*
G54D13*
D03*
X939800Y511175D02*
G54D13*
D03*
X936625Y514350D02*
G54D13*
D03*
X933450Y511175D02*
G54D13*
D03*
X930275Y508000D02*
G54D13*
D03*
X927100Y504825D02*
G54D13*
D03*
X923925Y501650D02*
G54D13*
D03*
X920750Y498475D02*
G54D13*
D03*
X923925Y495300D02*
G54D13*
D03*
X974725Y482600D02*
G54D13*
D03*
X971550Y482600D02*
G54D13*
D03*
X968375Y485775D02*
G54D13*
D03*
X965200Y482600D02*
G54D13*
D03*
X962025Y482600D02*
G54D13*
D03*
X958850Y482600D02*
G54D13*
D03*
X955675Y479425D02*
G54D13*
D03*
X952500Y479425D02*
G54D13*
D03*
X949325Y482600D02*
G54D13*
D03*
X946150Y482600D02*
G54D13*
D03*
X942975Y482600D02*
G54D13*
D03*
X939800Y482600D02*
G54D13*
D03*
X936625Y482600D02*
G54D13*
D03*
X933450Y479425D02*
G54D13*
D03*
X917575Y508000D02*
G54D13*
D03*
X917575Y504825D02*
G54D13*
D03*
X917575Y501650D02*
G54D13*
D03*
X914400Y501650D02*
G54D13*
D03*
X914400Y508000D02*
G54D13*
D03*
X911225Y508000D02*
G54D13*
D03*
X911225Y511175D02*
G54D13*
D03*
X911225Y514350D02*
G54D13*
D03*
X908050Y514350D02*
G54D13*
D03*
X904875Y514350D02*
G54D13*
D03*
X904875Y511175D02*
G54D13*
D03*
X904875Y508000D02*
G54D13*
D03*
X901700Y508000D02*
G54D13*
D03*
X898525Y508000D02*
G54D13*
D03*
X898525Y504825D02*
G54D13*
D03*
X898525Y501650D02*
G54D13*
D03*
X901700Y501650D02*
G54D13*
D03*
X904875Y501650D02*
G54D13*
D03*
X911225Y501650D02*
G54D13*
D03*
X911225Y498475D02*
G54D13*
D03*
X911225Y495300D02*
G54D13*
D03*
X908050Y495300D02*
G54D13*
D03*
X904875Y495300D02*
G54D13*
D03*
X904875Y498475D02*
G54D13*
D03*
X955675Y508000D02*
G54D13*
D03*
X949325Y508000D02*
G54D13*
D03*
X946150Y504825D02*
G54D13*
D03*
X930275Y488950D02*
G54D13*
D03*
X927100Y485775D02*
G54D13*
D03*
X927100Y479425D02*
G54D13*
D03*
X930275Y469900D02*
G54D13*
D03*
X927100Y469900D02*
G54D13*
D03*
X923925Y469900D02*
G54D13*
D03*
X920750Y469900D02*
G54D13*
D03*
X917575Y469900D02*
G54D13*
D03*
X923925Y466725D02*
G54D13*
D03*
X923925Y463550D02*
G54D13*
D03*
X923925Y460375D02*
G54D13*
D03*
X923925Y457200D02*
G54D13*
D03*
X923925Y454025D02*
G54D13*
D03*
X927100Y450850D02*
G54D13*
D03*
X930275Y450850D02*
G54D13*
D03*
X933450Y454025D02*
G54D13*
D03*
X914400Y450850D02*
G54D13*
D03*
X911225Y454025D02*
G54D13*
D03*
X911225Y457200D02*
G54D13*
D03*
X911225Y460375D02*
G54D13*
D03*
X911225Y463550D02*
G54D13*
D03*
X908050Y450850D02*
G54D13*
D03*
X904875Y450850D02*
G54D13*
D03*
X901700Y450850D02*
G54D13*
D03*
X901700Y454025D02*
G54D13*
D03*
X901700Y457200D02*
G54D13*
D03*
X901700Y460375D02*
G54D13*
D03*
X901700Y463550D02*
G54D13*
D03*
X895350Y466725D02*
G54D13*
D03*
X895350Y460375D02*
G54D13*
D03*
X895350Y457200D02*
G54D13*
D03*
X895350Y454025D02*
G54D13*
D03*
X895350Y450850D02*
G54D13*
D03*
X889000Y454025D02*
G54D13*
D03*
X889000Y457200D02*
G54D13*
D03*
X889000Y460375D02*
G54D13*
D03*
X885825Y463550D02*
G54D13*
D03*
X882650Y463550D02*
G54D13*
D03*
X885825Y450850D02*
G54D13*
D03*
X882650Y450850D02*
G54D13*
D03*
X879475Y450850D02*
G54D13*
D03*
X879475Y463550D02*
G54D13*
D03*
X873125Y454025D02*
G54D13*
D03*
X873125Y457200D02*
G54D13*
D03*
X873125Y460375D02*
G54D13*
D03*
X869950Y463550D02*
G54D13*
D03*
X866775Y463550D02*
G54D13*
D03*
X863600Y463550D02*
G54D13*
D03*
X869950Y450850D02*
G54D13*
D03*
X866775Y450850D02*
G54D13*
D03*
X863600Y450850D02*
G54D13*
D03*
X860425Y460375D02*
G54D13*
D03*
X860425Y457200D02*
G54D13*
D03*
X863600Y457200D02*
G54D13*
D03*
X866775Y457200D02*
G54D13*
D03*
X869950Y457200D02*
G54D13*
D03*
X962025Y469900D02*
G54D13*
D03*
X958850Y466725D02*
G54D13*
D03*
X955675Y469900D02*
G54D13*
D03*
X958850Y473075D02*
G54D13*
D03*
X949325Y466725D02*
G54D13*
D03*
X971550Y476250D02*
G54D13*
D03*
X942975Y476250D02*
G54D13*
D03*
X958850Y457200D02*
G54D13*
D03*
X974725Y473075D02*
G54D13*
D03*
X914400Y488950D02*
G54D13*
D03*
X911225Y488950D02*
G54D13*
D03*
X908050Y488950D02*
G54D13*
D03*
X904875Y488950D02*
G54D13*
D03*
X901700Y488950D02*
G54D13*
D03*
X901700Y485775D02*
G54D13*
D03*
X901700Y482600D02*
G54D13*
D03*
X904875Y479425D02*
G54D13*
D03*
X908050Y476250D02*
G54D13*
D03*
X911225Y473075D02*
G54D13*
D03*
X898525Y495300D02*
G54D13*
D03*
X898525Y492125D02*
G54D13*
D03*
X895350Y492125D02*
G54D13*
D03*
X895350Y495300D02*
G54D13*
D03*
X892175Y488950D02*
G54D13*
D03*
X889000Y488950D02*
G54D13*
D03*
X885825Y488950D02*
G54D13*
D03*
X882650Y488950D02*
G54D13*
D03*
X879475Y488950D02*
G54D13*
D03*
X892175Y482600D02*
G54D13*
D03*
X889000Y482600D02*
G54D13*
D03*
X885825Y482600D02*
G54D13*
D03*
X882650Y482600D02*
G54D13*
D03*
X879475Y482600D02*
G54D13*
D03*
X879475Y479425D02*
G54D13*
D03*
X882650Y476250D02*
G54D13*
D03*
X885825Y473075D02*
G54D13*
D03*
X892175Y473075D02*
G54D13*
D03*
X889000Y473075D02*
G54D13*
D03*
X873125Y488950D02*
G54D13*
D03*
X869950Y488950D02*
G54D13*
D03*
X866775Y488950D02*
G54D13*
D03*
X863600Y488950D02*
G54D13*
D03*
X860425Y488950D02*
G54D13*
D03*
X860425Y485775D02*
G54D13*
D03*
X863600Y482600D02*
G54D13*
D03*
X866775Y479425D02*
G54D13*
D03*
X869950Y476250D02*
G54D13*
D03*
X873125Y473075D02*
G54D13*
D03*
X863600Y476250D02*
G54D13*
D03*
X860425Y473075D02*
G54D13*
D03*
X952500Y501650D02*
G54D13*
D03*
X955675Y498475D02*
G54D13*
D03*
G54D14*
X886333Y502919D02*
X884333Y501808D01*
X883667Y500697D01*
X883667Y498475D01*
G54D14*
X889000Y498475D02*
X889000Y507364D01*
X885667Y507364D01*
X884333Y506808D01*
X883667Y505697D01*
X883667Y504586D01*
X884333Y503475D01*
X885667Y502919D01*
X889000Y502919D01*
G54D14*
X877223Y499031D02*
X878290Y498475D01*
X879623Y498475D01*
X880956Y499031D01*
X881223Y500142D01*
X881223Y502031D01*
X880556Y503142D01*
X879223Y503475D01*
X877890Y503142D01*
X877223Y502364D01*
X877223Y501253D01*
X881223Y501253D01*
G54D14*
X874779Y503475D02*
X872112Y498475D01*
X869446Y503475D01*
G54D14*
X867002Y498475D02*
X867002Y498475D01*
G54D14*
X864558Y504031D02*
X861225Y507364D01*
X861225Y498475D01*
G54D14*
X858781Y498475D02*
X858781Y498475D01*
G54D14*
X851004Y505697D02*
X851004Y500142D01*
X851670Y499031D01*
X853004Y498475D01*
X854337Y498475D01*
X855670Y499031D01*
X856337Y500142D01*
X856337Y505697D01*
X855670Y506808D01*
X854337Y507364D01*
X853004Y507364D01*
X851670Y506808D01*
X851004Y505697D01*
G54D12*
X771525Y358775D02*
X746125Y358775D01*
X936625Y180975D02*
G54D11*
D03*
X958855Y180975D02*
G54D11*
D03*
%LPD*%
G54D15*
G36*
X69489Y946511D02*
X83278Y960299D01*
X90349Y953228D01*
X76561Y939439D01*
X69489Y946511D01*
G37*
G36*
X76561Y946511D02*
X90349Y932722D01*
X83278Y925651D01*
X69489Y939439D01*
X76561Y946511D01*
G37*
G36*
X76561Y939439D02*
X62772Y925651D01*
X55701Y932722D01*
X69489Y946511D01*
X76561Y939439D01*
G37*
G36*
X69489Y939439D02*
X55701Y953228D01*
X62772Y960299D01*
X76561Y946511D01*
X69489Y939439D01*
G37*
G54D16*
G36*
X31925Y847725D02*
X31925Y861225D01*
X37925Y861225D01*
X37925Y847725D01*
X31925Y847725D01*
G37*
G36*
X34925Y850725D02*
X48425Y850725D01*
X48425Y844725D01*
X34925Y844725D01*
X34925Y850725D01*
G37*
G36*
X34925Y844725D02*
X21425Y844725D01*
X21425Y850725D01*
X34925Y850725D01*
X34925Y844725D01*
G37*
G54D16*
G36*
X31925Y758825D02*
X31925Y772325D01*
X37925Y772325D01*
X37925Y758825D01*
X31925Y758825D01*
G37*
G36*
X34925Y761825D02*
X48425Y761825D01*
X48425Y755825D01*
X34925Y755825D01*
X34925Y761825D01*
G37*
G36*
X34925Y755825D02*
X21425Y755825D01*
X21425Y761825D01*
X34925Y761825D01*
X34925Y755825D01*
G37*
G54D16*
G36*
X31925Y669925D02*
X31925Y683425D01*
X37925Y683425D01*
X37925Y669925D01*
X31925Y669925D01*
G37*
G36*
X34925Y672925D02*
X48425Y672925D01*
X48425Y666925D01*
X34925Y666925D01*
X34925Y672925D01*
G37*
G36*
X34925Y666925D02*
X21425Y666925D01*
X21425Y672925D01*
X34925Y672925D01*
X34925Y666925D01*
G37*
G54D16*
G36*
X204254Y862546D02*
X213800Y872092D01*
X218042Y867850D01*
X208496Y858304D01*
X204254Y862546D01*
G37*
G36*
X208496Y862546D02*
X218042Y853000D01*
X213800Y848758D01*
X204254Y858304D01*
X208496Y862546D01*
G37*
G36*
X208496Y858304D02*
X198950Y848758D01*
X194708Y853000D01*
X204254Y862546D01*
X208496Y858304D01*
G37*
G36*
X204254Y858304D02*
X194708Y867850D01*
X198950Y872092D01*
X208496Y862546D01*
X204254Y858304D01*
G37*
G54D16*
G36*
X139525Y828675D02*
X139525Y815175D01*
X133525Y815175D01*
X133525Y828675D01*
X139525Y828675D01*
G37*
G36*
X133525Y828675D02*
X133525Y842175D01*
X139525Y842175D01*
X139525Y828675D01*
X133525Y828675D01*
G37*
G54D16*
G36*
X253825Y828675D02*
X253825Y815175D01*
X247825Y815175D01*
X247825Y828675D01*
X253825Y828675D01*
G37*
G36*
X247825Y828675D02*
X247825Y842175D01*
X253825Y842175D01*
X253825Y828675D01*
X247825Y828675D01*
G37*
G54D16*
G36*
X158925Y968375D02*
X158925Y981875D01*
X164925Y981875D01*
X164925Y968375D01*
X158925Y968375D01*
G37*
G36*
X161925Y971375D02*
X175425Y971375D01*
X175425Y965375D01*
X161925Y965375D01*
X161925Y971375D01*
G37*
G36*
X161925Y965375D02*
X148425Y965375D01*
X148425Y971375D01*
X161925Y971375D01*
X161925Y965375D01*
G37*
G54D16*
G36*
X184325Y581025D02*
X184325Y594525D01*
X190325Y594525D01*
X190325Y581025D01*
X184325Y581025D01*
G37*
G36*
X187325Y584025D02*
X200825Y584025D01*
X200825Y578025D01*
X187325Y578025D01*
X187325Y584025D01*
G37*
G36*
X187325Y578025D02*
X173825Y578025D01*
X173825Y584025D01*
X187325Y584025D01*
X187325Y578025D01*
G37*
G54D16*
G36*
X31925Y581025D02*
X31925Y594525D01*
X37925Y594525D01*
X37925Y581025D01*
X31925Y581025D01*
G37*
G36*
X34925Y584025D02*
X48425Y584025D01*
X48425Y578025D01*
X34925Y578025D01*
X34925Y584025D01*
G37*
G36*
X34925Y578025D02*
X21425Y578025D01*
X21425Y584025D01*
X34925Y584025D01*
X34925Y578025D01*
G37*
G54D16*
G36*
X190675Y650875D02*
X190675Y664375D01*
X196675Y664375D01*
X196675Y650875D01*
X190675Y650875D01*
G37*
G36*
X196675Y650875D02*
X196675Y637375D01*
X190675Y637375D01*
X190675Y650875D01*
X196675Y650875D01*
G37*
G36*
X193675Y647875D02*
X180175Y647875D01*
X180175Y653875D01*
X193675Y653875D01*
X193675Y647875D01*
G37*
G54D16*
G36*
X108125Y581025D02*
X108125Y594525D01*
X114125Y594525D01*
X114125Y581025D01*
X108125Y581025D01*
G37*
G36*
X111125Y584025D02*
X124625Y584025D01*
X124625Y578025D01*
X111125Y578025D01*
X111125Y584025D01*
G37*
G36*
X111125Y578025D02*
X97625Y578025D01*
X97625Y584025D01*
X111125Y584025D01*
X111125Y578025D01*
G37*
G54D16*
G36*
X295455Y650875D02*
X295455Y664375D01*
X301455Y664375D01*
X301455Y650875D01*
X295455Y650875D01*
G37*
G36*
X298455Y653875D02*
X311955Y653875D01*
X311955Y647875D01*
X298455Y647875D01*
X298455Y653875D01*
G37*
G36*
X301455Y650875D02*
X301455Y637375D01*
X295455Y637375D01*
X295455Y650875D01*
X301455Y650875D01*
G37*
G54D15*
G36*
X399689Y946511D02*
X413478Y960299D01*
X420549Y953228D01*
X406761Y939439D01*
X399689Y946511D01*
G37*
G36*
X406761Y946511D02*
X420549Y932722D01*
X413478Y925651D01*
X399689Y939439D01*
X406761Y946511D01*
G37*
G36*
X406761Y939439D02*
X392972Y925651D01*
X385901Y932722D01*
X399689Y946511D01*
X406761Y939439D01*
G37*
G36*
X399689Y939439D02*
X385901Y953228D01*
X392972Y960299D01*
X406761Y946511D01*
X399689Y939439D01*
G37*
G54D16*
G36*
X362125Y847725D02*
X362125Y861225D01*
X368125Y861225D01*
X368125Y847725D01*
X362125Y847725D01*
G37*
G36*
X365125Y850725D02*
X378625Y850725D01*
X378625Y844725D01*
X365125Y844725D01*
X365125Y850725D01*
G37*
G36*
X365125Y844725D02*
X351625Y844725D01*
X351625Y850725D01*
X365125Y850725D01*
X365125Y844725D01*
G37*
G54D16*
G36*
X362125Y758825D02*
X362125Y772325D01*
X368125Y772325D01*
X368125Y758825D01*
X362125Y758825D01*
G37*
G36*
X365125Y761825D02*
X378625Y761825D01*
X378625Y755825D01*
X365125Y755825D01*
X365125Y761825D01*
G37*
G36*
X365125Y755825D02*
X351625Y755825D01*
X351625Y761825D01*
X365125Y761825D01*
X365125Y755825D01*
G37*
G54D16*
G36*
X362125Y669925D02*
X362125Y683425D01*
X368125Y683425D01*
X368125Y669925D01*
X362125Y669925D01*
G37*
G36*
X365125Y672925D02*
X378625Y672925D01*
X378625Y666925D01*
X365125Y666925D01*
X365125Y672925D01*
G37*
G36*
X365125Y666925D02*
X351625Y666925D01*
X351625Y672925D01*
X365125Y672925D01*
X365125Y666925D01*
G37*
G54D16*
G36*
X534454Y862546D02*
X544000Y872092D01*
X548242Y867850D01*
X538696Y858304D01*
X534454Y862546D01*
G37*
G36*
X538696Y862546D02*
X548242Y853000D01*
X544000Y848758D01*
X534454Y858304D01*
X538696Y862546D01*
G37*
G36*
X538696Y858304D02*
X529150Y848758D01*
X524908Y853000D01*
X534454Y862546D01*
X538696Y858304D01*
G37*
G36*
X534454Y858304D02*
X524908Y867850D01*
X529150Y872092D01*
X538696Y862546D01*
X534454Y858304D01*
G37*
G54D16*
G36*
X469725Y828675D02*
X469725Y815175D01*
X463725Y815175D01*
X463725Y828675D01*
X469725Y828675D01*
G37*
G36*
X463725Y828675D02*
X463725Y842175D01*
X469725Y842175D01*
X469725Y828675D01*
X463725Y828675D01*
G37*
G54D16*
G36*
X584025Y828675D02*
X584025Y815175D01*
X578025Y815175D01*
X578025Y828675D01*
X584025Y828675D01*
G37*
G36*
X578025Y828675D02*
X578025Y842175D01*
X584025Y842175D01*
X584025Y828675D01*
X578025Y828675D01*
G37*
G54D16*
G36*
X489125Y968375D02*
X489125Y981875D01*
X495125Y981875D01*
X495125Y968375D01*
X489125Y968375D01*
G37*
G36*
X492125Y971375D02*
X505625Y971375D01*
X505625Y965375D01*
X492125Y965375D01*
X492125Y971375D01*
G37*
G36*
X492125Y965375D02*
X478625Y965375D01*
X478625Y971375D01*
X492125Y971375D01*
X492125Y965375D01*
G37*
G54D16*
G36*
X514525Y581025D02*
X514525Y594525D01*
X520525Y594525D01*
X520525Y581025D01*
X514525Y581025D01*
G37*
G36*
X517525Y584025D02*
X531025Y584025D01*
X531025Y578025D01*
X517525Y578025D01*
X517525Y584025D01*
G37*
G36*
X517525Y578025D02*
X504025Y578025D01*
X504025Y584025D01*
X517525Y584025D01*
X517525Y578025D01*
G37*
G54D16*
G36*
X362125Y581025D02*
X362125Y594525D01*
X368125Y594525D01*
X368125Y581025D01*
X362125Y581025D01*
G37*
G36*
X365125Y584025D02*
X378625Y584025D01*
X378625Y578025D01*
X365125Y578025D01*
X365125Y584025D01*
G37*
G36*
X365125Y578025D02*
X351625Y578025D01*
X351625Y584025D01*
X365125Y584025D01*
X365125Y578025D01*
G37*
G54D16*
G36*
X520875Y650875D02*
X520875Y664375D01*
X526875Y664375D01*
X526875Y650875D01*
X520875Y650875D01*
G37*
G36*
X526875Y650875D02*
X526875Y637375D01*
X520875Y637375D01*
X520875Y650875D01*
X526875Y650875D01*
G37*
G36*
X523875Y647875D02*
X510375Y647875D01*
X510375Y653875D01*
X523875Y653875D01*
X523875Y647875D01*
G37*
G54D16*
G36*
X438325Y581025D02*
X438325Y594525D01*
X444325Y594525D01*
X444325Y581025D01*
X438325Y581025D01*
G37*
G36*
X441325Y584025D02*
X454825Y584025D01*
X454825Y578025D01*
X441325Y578025D01*
X441325Y584025D01*
G37*
G36*
X441325Y578025D02*
X427825Y578025D01*
X427825Y584025D01*
X441325Y584025D01*
X441325Y578025D01*
G37*
G54D16*
G36*
X625655Y650875D02*
X625655Y664375D01*
X631655Y664375D01*
X631655Y650875D01*
X625655Y650875D01*
G37*
G36*
X628655Y653875D02*
X642155Y653875D01*
X642155Y647875D01*
X628655Y647875D01*
X628655Y653875D01*
G37*
G36*
X631655Y650875D02*
X631655Y637375D01*
X625655Y637375D01*
X625655Y650875D01*
X631655Y650875D01*
G37*
G54D15*
G36*
X729889Y946511D02*
X743678Y960299D01*
X750749Y953228D01*
X736961Y939439D01*
X729889Y946511D01*
G37*
G36*
X736961Y946511D02*
X750749Y932722D01*
X743678Y925651D01*
X729889Y939439D01*
X736961Y946511D01*
G37*
G36*
X736961Y939439D02*
X723172Y925651D01*
X716101Y932722D01*
X729889Y946511D01*
X736961Y939439D01*
G37*
G36*
X729889Y939439D02*
X716101Y953228D01*
X723172Y960299D01*
X736961Y946511D01*
X729889Y939439D01*
G37*
G54D16*
G36*
X692325Y847725D02*
X692325Y861225D01*
X698325Y861225D01*
X698325Y847725D01*
X692325Y847725D01*
G37*
G36*
X695325Y850725D02*
X708825Y850725D01*
X708825Y844725D01*
X695325Y844725D01*
X695325Y850725D01*
G37*
G36*
X695325Y844725D02*
X681825Y844725D01*
X681825Y850725D01*
X695325Y850725D01*
X695325Y844725D01*
G37*
G54D16*
G36*
X692325Y758825D02*
X692325Y772325D01*
X698325Y772325D01*
X698325Y758825D01*
X692325Y758825D01*
G37*
G36*
X695325Y761825D02*
X708825Y761825D01*
X708825Y755825D01*
X695325Y755825D01*
X695325Y761825D01*
G37*
G36*
X695325Y755825D02*
X681825Y755825D01*
X681825Y761825D01*
X695325Y761825D01*
X695325Y755825D01*
G37*
G54D16*
G36*
X692325Y669925D02*
X692325Y683425D01*
X698325Y683425D01*
X698325Y669925D01*
X692325Y669925D01*
G37*
G36*
X695325Y672925D02*
X708825Y672925D01*
X708825Y666925D01*
X695325Y666925D01*
X695325Y672925D01*
G37*
G36*
X695325Y666925D02*
X681825Y666925D01*
X681825Y672925D01*
X695325Y672925D01*
X695325Y666925D01*
G37*
G54D16*
G36*
X864654Y862546D02*
X874200Y872092D01*
X878442Y867850D01*
X868896Y858304D01*
X864654Y862546D01*
G37*
G36*
X868896Y862546D02*
X878442Y853000D01*
X874200Y848758D01*
X864654Y858304D01*
X868896Y862546D01*
G37*
G36*
X868896Y858304D02*
X859350Y848758D01*
X855108Y853000D01*
X864654Y862546D01*
X868896Y858304D01*
G37*
G36*
X864654Y858304D02*
X855108Y867850D01*
X859350Y872092D01*
X868896Y862546D01*
X864654Y858304D01*
G37*
G54D16*
G36*
X799925Y828675D02*
X799925Y815175D01*
X793925Y815175D01*
X793925Y828675D01*
X799925Y828675D01*
G37*
G36*
X793925Y828675D02*
X793925Y842175D01*
X799925Y842175D01*
X799925Y828675D01*
X793925Y828675D01*
G37*
G54D16*
G36*
X914225Y828675D02*
X914225Y815175D01*
X908225Y815175D01*
X908225Y828675D01*
X914225Y828675D01*
G37*
G36*
X908225Y828675D02*
X908225Y842175D01*
X914225Y842175D01*
X914225Y828675D01*
X908225Y828675D01*
G37*
G54D16*
G36*
X819325Y968375D02*
X819325Y981875D01*
X825325Y981875D01*
X825325Y968375D01*
X819325Y968375D01*
G37*
G36*
X822325Y971375D02*
X835825Y971375D01*
X835825Y965375D01*
X822325Y965375D01*
X822325Y971375D01*
G37*
G36*
X822325Y965375D02*
X808825Y965375D01*
X808825Y971375D01*
X822325Y971375D01*
X822325Y965375D01*
G37*
G54D16*
G36*
X844725Y581025D02*
X844725Y594525D01*
X850725Y594525D01*
X850725Y581025D01*
X844725Y581025D01*
G37*
G36*
X847725Y584025D02*
X861225Y584025D01*
X861225Y578025D01*
X847725Y578025D01*
X847725Y584025D01*
G37*
G36*
X847725Y578025D02*
X834225Y578025D01*
X834225Y584025D01*
X847725Y584025D01*
X847725Y578025D01*
G37*
G54D16*
G36*
X692325Y581025D02*
X692325Y594525D01*
X698325Y594525D01*
X698325Y581025D01*
X692325Y581025D01*
G37*
G36*
X695325Y584025D02*
X708825Y584025D01*
X708825Y578025D01*
X695325Y578025D01*
X695325Y584025D01*
G37*
G36*
X695325Y578025D02*
X681825Y578025D01*
X681825Y584025D01*
X695325Y584025D01*
X695325Y578025D01*
G37*
G54D16*
G36*
X851075Y650875D02*
X851075Y664375D01*
X857075Y664375D01*
X857075Y650875D01*
X851075Y650875D01*
G37*
G36*
X857075Y650875D02*
X857075Y637375D01*
X851075Y637375D01*
X851075Y650875D01*
X857075Y650875D01*
G37*
G36*
X854075Y647875D02*
X840575Y647875D01*
X840575Y653875D01*
X854075Y653875D01*
X854075Y647875D01*
G37*
G54D16*
G36*
X768525Y581025D02*
X768525Y594525D01*
X774525Y594525D01*
X774525Y581025D01*
X768525Y581025D01*
G37*
G36*
X771525Y584025D02*
X785025Y584025D01*
X785025Y578025D01*
X771525Y578025D01*
X771525Y584025D01*
G37*
G36*
X771525Y578025D02*
X758025Y578025D01*
X758025Y584025D01*
X771525Y584025D01*
X771525Y578025D01*
G37*
G54D16*
G36*
X955855Y650875D02*
X955855Y664375D01*
X961855Y664375D01*
X961855Y650875D01*
X955855Y650875D01*
G37*
G36*
X958855Y653875D02*
X972355Y653875D01*
X972355Y647875D01*
X958855Y647875D01*
X958855Y653875D01*
G37*
G36*
X961855Y650875D02*
X961855Y637375D01*
X955855Y637375D01*
X955855Y650875D01*
X961855Y650875D01*
G37*
G54D15*
G36*
X69489Y476611D02*
X83278Y490399D01*
X90349Y483328D01*
X76561Y469539D01*
X69489Y476611D01*
G37*
G36*
X76561Y476611D02*
X90349Y462822D01*
X83278Y455751D01*
X69489Y469539D01*
X76561Y476611D01*
G37*
G36*
X76561Y469539D02*
X62772Y455751D01*
X55701Y462822D01*
X69489Y476611D01*
X76561Y469539D01*
G37*
G36*
X69489Y469539D02*
X55701Y483328D01*
X62772Y490399D01*
X76561Y476611D01*
X69489Y469539D01*
G37*
G54D16*
G36*
X31925Y377825D02*
X31925Y391325D01*
X37925Y391325D01*
X37925Y377825D01*
X31925Y377825D01*
G37*
G36*
X34925Y380825D02*
X48425Y380825D01*
X48425Y374825D01*
X34925Y374825D01*
X34925Y380825D01*
G37*
G36*
X34925Y374825D02*
X21425Y374825D01*
X21425Y380825D01*
X34925Y380825D01*
X34925Y374825D01*
G37*
G54D16*
G36*
X31925Y288925D02*
X31925Y302425D01*
X37925Y302425D01*
X37925Y288925D01*
X31925Y288925D01*
G37*
G36*
X34925Y291925D02*
X48425Y291925D01*
X48425Y285925D01*
X34925Y285925D01*
X34925Y291925D01*
G37*
G36*
X34925Y285925D02*
X21425Y285925D01*
X21425Y291925D01*
X34925Y291925D01*
X34925Y285925D01*
G37*
G54D16*
G36*
X31925Y200025D02*
X31925Y213525D01*
X37925Y213525D01*
X37925Y200025D01*
X31925Y200025D01*
G37*
G36*
X34925Y203025D02*
X48425Y203025D01*
X48425Y197025D01*
X34925Y197025D01*
X34925Y203025D01*
G37*
G36*
X34925Y197025D02*
X21425Y197025D01*
X21425Y203025D01*
X34925Y203025D01*
X34925Y197025D01*
G37*
G54D16*
G36*
X204254Y392646D02*
X213800Y402192D01*
X218042Y397950D01*
X208496Y388404D01*
X204254Y392646D01*
G37*
G36*
X208496Y392646D02*
X218042Y383100D01*
X213800Y378858D01*
X204254Y388404D01*
X208496Y392646D01*
G37*
G36*
X208496Y388404D02*
X198950Y378858D01*
X194708Y383100D01*
X204254Y392646D01*
X208496Y388404D01*
G37*
G36*
X204254Y388404D02*
X194708Y397950D01*
X198950Y402192D01*
X208496Y392646D01*
X204254Y388404D01*
G37*
G54D16*
G36*
X139525Y358775D02*
X139525Y345275D01*
X133525Y345275D01*
X133525Y358775D01*
X139525Y358775D01*
G37*
G36*
X133525Y358775D02*
X133525Y372275D01*
X139525Y372275D01*
X139525Y358775D01*
X133525Y358775D01*
G37*
G54D16*
G36*
X253825Y358775D02*
X253825Y345275D01*
X247825Y345275D01*
X247825Y358775D01*
X253825Y358775D01*
G37*
G36*
X247825Y358775D02*
X247825Y372275D01*
X253825Y372275D01*
X253825Y358775D01*
X247825Y358775D01*
G37*
G54D16*
G36*
X158925Y498475D02*
X158925Y511975D01*
X164925Y511975D01*
X164925Y498475D01*
X158925Y498475D01*
G37*
G36*
X161925Y501475D02*
X175425Y501475D01*
X175425Y495475D01*
X161925Y495475D01*
X161925Y501475D01*
G37*
G36*
X161925Y495475D02*
X148425Y495475D01*
X148425Y501475D01*
X161925Y501475D01*
X161925Y495475D01*
G37*
G54D16*
G36*
X184325Y111125D02*
X184325Y124625D01*
X190325Y124625D01*
X190325Y111125D01*
X184325Y111125D01*
G37*
G36*
X187325Y114125D02*
X200825Y114125D01*
X200825Y108125D01*
X187325Y108125D01*
X187325Y114125D01*
G37*
G36*
X187325Y108125D02*
X173825Y108125D01*
X173825Y114125D01*
X187325Y114125D01*
X187325Y108125D01*
G37*
G54D16*
G36*
X31925Y111125D02*
X31925Y124625D01*
X37925Y124625D01*
X37925Y111125D01*
X31925Y111125D01*
G37*
G36*
X34925Y114125D02*
X48425Y114125D01*
X48425Y108125D01*
X34925Y108125D01*
X34925Y114125D01*
G37*
G36*
X34925Y108125D02*
X21425Y108125D01*
X21425Y114125D01*
X34925Y114125D01*
X34925Y108125D01*
G37*
G54D16*
G36*
X190675Y180975D02*
X190675Y194475D01*
X196675Y194475D01*
X196675Y180975D01*
X190675Y180975D01*
G37*
G36*
X196675Y180975D02*
X196675Y167475D01*
X190675Y167475D01*
X190675Y180975D01*
X196675Y180975D01*
G37*
G36*
X193675Y177975D02*
X180175Y177975D01*
X180175Y183975D01*
X193675Y183975D01*
X193675Y177975D01*
G37*
G54D16*
G36*
X108125Y111125D02*
X108125Y124625D01*
X114125Y124625D01*
X114125Y111125D01*
X108125Y111125D01*
G37*
G36*
X111125Y114125D02*
X124625Y114125D01*
X124625Y108125D01*
X111125Y108125D01*
X111125Y114125D01*
G37*
G36*
X111125Y108125D02*
X97625Y108125D01*
X97625Y114125D01*
X111125Y114125D01*
X111125Y108125D01*
G37*
G54D16*
G36*
X295455Y180975D02*
X295455Y194475D01*
X301455Y194475D01*
X301455Y180975D01*
X295455Y180975D01*
G37*
G36*
X298455Y183975D02*
X311955Y183975D01*
X311955Y177975D01*
X298455Y177975D01*
X298455Y183975D01*
G37*
G36*
X301455Y180975D02*
X301455Y167475D01*
X295455Y167475D01*
X295455Y180975D01*
X301455Y180975D01*
G37*
G54D15*
G36*
X399689Y476611D02*
X413478Y490399D01*
X420549Y483328D01*
X406761Y469539D01*
X399689Y476611D01*
G37*
G36*
X406761Y476611D02*
X420549Y462822D01*
X413478Y455751D01*
X399689Y469539D01*
X406761Y476611D01*
G37*
G36*
X406761Y469539D02*
X392972Y455751D01*
X385901Y462822D01*
X399689Y476611D01*
X406761Y469539D01*
G37*
G36*
X399689Y469539D02*
X385901Y483328D01*
X392972Y490399D01*
X406761Y476611D01*
X399689Y469539D01*
G37*
G54D16*
G36*
X362125Y377825D02*
X362125Y391325D01*
X368125Y391325D01*
X368125Y377825D01*
X362125Y377825D01*
G37*
G36*
X365125Y380825D02*
X378625Y380825D01*
X378625Y374825D01*
X365125Y374825D01*
X365125Y380825D01*
G37*
G36*
X365125Y374825D02*
X351625Y374825D01*
X351625Y380825D01*
X365125Y380825D01*
X365125Y374825D01*
G37*
G54D16*
G36*
X362125Y288925D02*
X362125Y302425D01*
X368125Y302425D01*
X368125Y288925D01*
X362125Y288925D01*
G37*
G36*
X365125Y291925D02*
X378625Y291925D01*
X378625Y285925D01*
X365125Y285925D01*
X365125Y291925D01*
G37*
G36*
X365125Y285925D02*
X351625Y285925D01*
X351625Y291925D01*
X365125Y291925D01*
X365125Y285925D01*
G37*
G54D16*
G36*
X362125Y200025D02*
X362125Y213525D01*
X368125Y213525D01*
X368125Y200025D01*
X362125Y200025D01*
G37*
G36*
X365125Y203025D02*
X378625Y203025D01*
X378625Y197025D01*
X365125Y197025D01*
X365125Y203025D01*
G37*
G36*
X365125Y197025D02*
X351625Y197025D01*
X351625Y203025D01*
X365125Y203025D01*
X365125Y197025D01*
G37*
G54D16*
G36*
X534454Y392646D02*
X544000Y402192D01*
X548242Y397950D01*
X538696Y388404D01*
X534454Y392646D01*
G37*
G36*
X538696Y392646D02*
X548242Y383100D01*
X544000Y378858D01*
X534454Y388404D01*
X538696Y392646D01*
G37*
G36*
X538696Y388404D02*
X529150Y378858D01*
X524908Y383100D01*
X534454Y392646D01*
X538696Y388404D01*
G37*
G36*
X534454Y388404D02*
X524908Y397950D01*
X529150Y402192D01*
X538696Y392646D01*
X534454Y388404D01*
G37*
G54D16*
G36*
X469725Y358775D02*
X469725Y345275D01*
X463725Y345275D01*
X463725Y358775D01*
X469725Y358775D01*
G37*
G36*
X463725Y358775D02*
X463725Y372275D01*
X469725Y372275D01*
X469725Y358775D01*
X463725Y358775D01*
G37*
G54D16*
G36*
X584025Y358775D02*
X584025Y345275D01*
X578025Y345275D01*
X578025Y358775D01*
X584025Y358775D01*
G37*
G36*
X578025Y358775D02*
X578025Y372275D01*
X584025Y372275D01*
X584025Y358775D01*
X578025Y358775D01*
G37*
G54D16*
G36*
X489125Y498475D02*
X489125Y511975D01*
X495125Y511975D01*
X495125Y498475D01*
X489125Y498475D01*
G37*
G36*
X492125Y501475D02*
X505625Y501475D01*
X505625Y495475D01*
X492125Y495475D01*
X492125Y501475D01*
G37*
G36*
X492125Y495475D02*
X478625Y495475D01*
X478625Y501475D01*
X492125Y501475D01*
X492125Y495475D01*
G37*
G54D16*
G36*
X514525Y111125D02*
X514525Y124625D01*
X520525Y124625D01*
X520525Y111125D01*
X514525Y111125D01*
G37*
G36*
X517525Y114125D02*
X531025Y114125D01*
X531025Y108125D01*
X517525Y108125D01*
X517525Y114125D01*
G37*
G36*
X517525Y108125D02*
X504025Y108125D01*
X504025Y114125D01*
X517525Y114125D01*
X517525Y108125D01*
G37*
G54D16*
G36*
X362125Y111125D02*
X362125Y124625D01*
X368125Y124625D01*
X368125Y111125D01*
X362125Y111125D01*
G37*
G36*
X365125Y114125D02*
X378625Y114125D01*
X378625Y108125D01*
X365125Y108125D01*
X365125Y114125D01*
G37*
G36*
X365125Y108125D02*
X351625Y108125D01*
X351625Y114125D01*
X365125Y114125D01*
X365125Y108125D01*
G37*
G54D16*
G36*
X520875Y180975D02*
X520875Y194475D01*
X526875Y194475D01*
X526875Y180975D01*
X520875Y180975D01*
G37*
G36*
X526875Y180975D02*
X526875Y167475D01*
X520875Y167475D01*
X520875Y180975D01*
X526875Y180975D01*
G37*
G36*
X523875Y177975D02*
X510375Y177975D01*
X510375Y183975D01*
X523875Y183975D01*
X523875Y177975D01*
G37*
G54D16*
G36*
X438325Y111125D02*
X438325Y124625D01*
X444325Y124625D01*
X444325Y111125D01*
X438325Y111125D01*
G37*
G36*
X441325Y114125D02*
X454825Y114125D01*
X454825Y108125D01*
X441325Y108125D01*
X441325Y114125D01*
G37*
G36*
X441325Y108125D02*
X427825Y108125D01*
X427825Y114125D01*
X441325Y114125D01*
X441325Y108125D01*
G37*
G54D16*
G36*
X625655Y180975D02*
X625655Y194475D01*
X631655Y194475D01*
X631655Y180975D01*
X625655Y180975D01*
G37*
G36*
X628655Y183975D02*
X642155Y183975D01*
X642155Y177975D01*
X628655Y177975D01*
X628655Y183975D01*
G37*
G36*
X631655Y180975D02*
X631655Y167475D01*
X625655Y167475D01*
X625655Y180975D01*
X631655Y180975D01*
G37*
G54D15*
G36*
X729889Y476611D02*
X743678Y490399D01*
X750749Y483328D01*
X736961Y469539D01*
X729889Y476611D01*
G37*
G36*
X736961Y476611D02*
X750749Y462822D01*
X743678Y455751D01*
X729889Y469539D01*
X736961Y476611D01*
G37*
G36*
X736961Y469539D02*
X723172Y455751D01*
X716101Y462822D01*
X729889Y476611D01*
X736961Y469539D01*
G37*
G36*
X729889Y469539D02*
X716101Y483328D01*
X723172Y490399D01*
X736961Y476611D01*
X729889Y469539D01*
G37*
G54D16*
G36*
X692325Y377825D02*
X692325Y391325D01*
X698325Y391325D01*
X698325Y377825D01*
X692325Y377825D01*
G37*
G36*
X695325Y380825D02*
X708825Y380825D01*
X708825Y374825D01*
X695325Y374825D01*
X695325Y380825D01*
G37*
G36*
X695325Y374825D02*
X681825Y374825D01*
X681825Y380825D01*
X695325Y380825D01*
X695325Y374825D01*
G37*
G54D16*
G36*
X692325Y288925D02*
X692325Y302425D01*
X698325Y302425D01*
X698325Y288925D01*
X692325Y288925D01*
G37*
G36*
X695325Y291925D02*
X708825Y291925D01*
X708825Y285925D01*
X695325Y285925D01*
X695325Y291925D01*
G37*
G36*
X695325Y285925D02*
X681825Y285925D01*
X681825Y291925D01*
X695325Y291925D01*
X695325Y285925D01*
G37*
G54D16*
G36*
X692325Y200025D02*
X692325Y213525D01*
X698325Y213525D01*
X698325Y200025D01*
X692325Y200025D01*
G37*
G36*
X695325Y203025D02*
X708825Y203025D01*
X708825Y197025D01*
X695325Y197025D01*
X695325Y203025D01*
G37*
G36*
X695325Y197025D02*
X681825Y197025D01*
X681825Y203025D01*
X695325Y203025D01*
X695325Y197025D01*
G37*
G54D16*
G36*
X864654Y392646D02*
X874200Y402192D01*
X878442Y397950D01*
X868896Y388404D01*
X864654Y392646D01*
G37*
G36*
X868896Y392646D02*
X878442Y383100D01*
X874200Y378858D01*
X864654Y388404D01*
X868896Y392646D01*
G37*
G36*
X868896Y388404D02*
X859350Y378858D01*
X855108Y383100D01*
X864654Y392646D01*
X868896Y388404D01*
G37*
G36*
X864654Y388404D02*
X855108Y397950D01*
X859350Y402192D01*
X868896Y392646D01*
X864654Y388404D01*
G37*
G54D16*
G36*
X799925Y358775D02*
X799925Y345275D01*
X793925Y345275D01*
X793925Y358775D01*
X799925Y358775D01*
G37*
G36*
X793925Y358775D02*
X793925Y372275D01*
X799925Y372275D01*
X799925Y358775D01*
X793925Y358775D01*
G37*
G54D16*
G36*
X914225Y358775D02*
X914225Y345275D01*
X908225Y345275D01*
X908225Y358775D01*
X914225Y358775D01*
G37*
G36*
X908225Y358775D02*
X908225Y372275D01*
X914225Y372275D01*
X914225Y358775D01*
X908225Y358775D01*
G37*
G54D16*
G36*
X819325Y498475D02*
X819325Y511975D01*
X825325Y511975D01*
X825325Y498475D01*
X819325Y498475D01*
G37*
G36*
X822325Y501475D02*
X835825Y501475D01*
X835825Y495475D01*
X822325Y495475D01*
X822325Y501475D01*
G37*
G36*
X822325Y495475D02*
X808825Y495475D01*
X808825Y501475D01*
X822325Y501475D01*
X822325Y495475D01*
G37*
G54D16*
G36*
X844725Y111125D02*
X844725Y124625D01*
X850725Y124625D01*
X850725Y111125D01*
X844725Y111125D01*
G37*
G36*
X847725Y114125D02*
X861225Y114125D01*
X861225Y108125D01*
X847725Y108125D01*
X847725Y114125D01*
G37*
G36*
X847725Y108125D02*
X834225Y108125D01*
X834225Y114125D01*
X847725Y114125D01*
X847725Y108125D01*
G37*
G54D16*
G36*
X692325Y111125D02*
X692325Y124625D01*
X698325Y124625D01*
X698325Y111125D01*
X692325Y111125D01*
G37*
G36*
X695325Y114125D02*
X708825Y114125D01*
X708825Y108125D01*
X695325Y108125D01*
X695325Y114125D01*
G37*
G36*
X695325Y108125D02*
X681825Y108125D01*
X681825Y114125D01*
X695325Y114125D01*
X695325Y108125D01*
G37*
G54D16*
G36*
X851075Y180975D02*
X851075Y194475D01*
X857075Y194475D01*
X857075Y180975D01*
X851075Y180975D01*
G37*
G36*
X857075Y180975D02*
X857075Y167475D01*
X851075Y167475D01*
X851075Y180975D01*
X857075Y180975D01*
G37*
G36*
X854075Y177975D02*
X840575Y177975D01*
X840575Y183975D01*
X854075Y183975D01*
X854075Y177975D01*
G37*
G54D16*
G36*
X768525Y111125D02*
X768525Y124625D01*
X774525Y124625D01*
X774525Y111125D01*
X768525Y111125D01*
G37*
G36*
X771525Y114125D02*
X785025Y114125D01*
X785025Y108125D01*
X771525Y108125D01*
X771525Y114125D01*
G37*
G36*
X771525Y108125D02*
X758025Y108125D01*
X758025Y114125D01*
X771525Y114125D01*
X771525Y108125D01*
G37*
G54D16*
G36*
X955855Y180975D02*
X955855Y194475D01*
X961855Y194475D01*
X961855Y180975D01*
X955855Y180975D01*
G37*
G36*
X958855Y183975D02*
X972355Y183975D01*
X972355Y177975D01*
X958855Y177975D01*
X958855Y183975D01*
G37*
G36*
X961855Y180975D02*
X961855Y167475D01*
X955855Y167475D01*
X955855Y180975D01*
X961855Y180975D01*
G37*
G36*
X138825Y936750D02*
X130050Y927975D01*
X117600Y927975D01*
X108825Y936750D01*
X108825Y949200D01*
X117600Y957975D01*
X130050Y957975D01*
X138825Y949200D01*
X138825Y936750D01*
G37*
G36*
X88025Y936750D02*
X79250Y927975D01*
X66800Y927975D01*
X58025Y936750D01*
X58025Y949200D01*
X66800Y957975D01*
X79250Y957975D01*
X88025Y949200D01*
X88025Y936750D01*
G37*
X34925Y822325D02*
G54D17*
D03*
X34925Y847725D02*
G54D17*
D03*
X34925Y733425D02*
G54D17*
D03*
X34925Y758825D02*
G54D17*
D03*
X34925Y644525D02*
G54D17*
D03*
X34925Y669925D02*
G54D17*
D03*
G36*
X58025Y949200D02*
X66800Y957975D01*
X79250Y957975D01*
X88025Y949200D01*
X88025Y936750D01*
X79250Y927975D01*
X66800Y927975D01*
X58025Y936750D01*
X58025Y949200D01*
G37*
X34925Y847725D02*
G54D17*
D03*
X34925Y758825D02*
G54D17*
D03*
X34925Y669925D02*
G54D17*
D03*
X206375Y860425D02*
G54D17*
D03*
G36*
X170925Y824940D02*
X165660Y819675D01*
X158190Y819675D01*
X152925Y824940D01*
X152925Y832410D01*
X158190Y837675D01*
X165660Y837675D01*
X170925Y832410D01*
X170925Y824940D01*
G37*
G36*
X145525Y824940D02*
X140260Y819675D01*
X132790Y819675D01*
X127525Y824940D01*
X127525Y832410D01*
X132790Y837675D01*
X140260Y837675D01*
X145525Y832410D01*
X145525Y824940D01*
G37*
G36*
X120125Y824940D02*
X114860Y819675D01*
X107390Y819675D01*
X102125Y824940D01*
X102125Y832410D01*
X107390Y837675D01*
X114860Y837675D01*
X120125Y832410D01*
X120125Y824940D01*
G37*
G36*
X285225Y824940D02*
X279960Y819675D01*
X272490Y819675D01*
X267225Y824940D01*
X267225Y832410D01*
X272490Y837675D01*
X279960Y837675D01*
X285225Y832410D01*
X285225Y824940D01*
G37*
G36*
X259825Y824940D02*
X254560Y819675D01*
X247090Y819675D01*
X241825Y824940D01*
X241825Y832410D01*
X247090Y837675D01*
X254560Y837675D01*
X259825Y832410D01*
X259825Y824940D01*
G37*
G36*
X234425Y824940D02*
X229160Y819675D01*
X221690Y819675D01*
X216425Y824940D01*
X216425Y832410D01*
X221690Y837675D01*
X229160Y837675D01*
X234425Y832410D01*
X234425Y824940D01*
G37*
G36*
X145525Y824940D02*
X140260Y819675D01*
X132790Y819675D01*
X127525Y824940D01*
X127525Y832410D01*
X132790Y837675D01*
X140260Y837675D01*
X145525Y832410D01*
X145525Y824940D01*
G37*
G36*
X259825Y824940D02*
X254560Y819675D01*
X247090Y819675D01*
X241825Y824940D01*
X241825Y832410D01*
X247090Y837675D01*
X254560Y837675D01*
X259825Y832410D01*
X259825Y824940D01*
G37*
G36*
X76725Y873685D02*
X81990Y878950D01*
X89460Y878950D01*
X94725Y873685D01*
X94725Y866215D01*
X89460Y860950D01*
X81990Y860950D01*
X76725Y866215D01*
X76725Y873685D01*
G37*
X276225Y860425D02*
G54D17*
D03*
X251222Y860425D02*
G54D17*
D03*
X231378Y860425D02*
G54D17*
D03*
X206375Y860425D02*
G54D17*
D03*
G36*
X326983Y879112D02*
X315283Y867412D01*
X298683Y867412D01*
X286983Y879112D01*
X286983Y895712D01*
X298683Y907412D01*
X315283Y907412D01*
X326983Y895712D01*
X326983Y879112D01*
G37*
G36*
X195419Y879112D02*
X183719Y867412D01*
X167119Y867412D01*
X155419Y879112D01*
X155419Y895712D01*
X167119Y907412D01*
X183719Y907412D01*
X195419Y895712D01*
X195419Y879112D01*
G37*
X161925Y968375D02*
G54D18*
D03*
X161925Y942975D02*
G54D18*
D03*
X187325Y555625D02*
G54D17*
D03*
X187325Y581025D02*
G54D17*
D03*
X187325Y581025D02*
G54D17*
D03*
X34925Y555625D02*
G54D17*
D03*
X34925Y581025D02*
G54D17*
D03*
X34925Y581025D02*
G54D17*
D03*
G54D19*
X34925Y733425D02*
X66675Y733425D01*
X85725Y752475D01*
X85725Y869950D01*
G54D19*
X34925Y822325D02*
X85725Y822325D01*
X193675Y650875D02*
G54D18*
D03*
X219075Y650875D02*
G54D18*
D03*
G54D19*
X225425Y828675D02*
X225425Y803275D01*
X212725Y790575D01*
X88900Y790575D01*
X85725Y787400D01*
X111125Y555625D02*
G54D17*
D03*
X111125Y581025D02*
G54D17*
D03*
X111125Y581025D02*
G54D17*
D03*
X323850Y942975D02*
G54D20*
D03*
X320675Y939800D02*
G54D20*
D03*
X317500Y936625D02*
G54D20*
D03*
X314325Y933450D02*
G54D20*
D03*
X323850Y949325D02*
G54D20*
D03*
X320675Y952500D02*
G54D20*
D03*
X317500Y955675D02*
G54D20*
D03*
X314325Y958850D02*
G54D20*
D03*
X311150Y962025D02*
G54D20*
D03*
X311150Y930275D02*
G54D20*
D03*
X307975Y927100D02*
G54D20*
D03*
X304800Y923925D02*
G54D20*
D03*
X301625Y920750D02*
G54D20*
D03*
X295275Y920750D02*
G54D20*
D03*
X292100Y923925D02*
G54D20*
D03*
X288925Y927100D02*
G54D20*
D03*
X285750Y930275D02*
G54D20*
D03*
X282575Y933450D02*
G54D20*
D03*
X279400Y936625D02*
G54D20*
D03*
X276225Y939800D02*
G54D20*
D03*
X273050Y942975D02*
G54D20*
D03*
X269875Y946150D02*
G54D20*
D03*
X307975Y965200D02*
G54D20*
D03*
X304800Y968375D02*
G54D20*
D03*
X301625Y971550D02*
G54D20*
D03*
X298450Y974725D02*
G54D20*
D03*
X282575Y971550D02*
G54D20*
D03*
X273050Y962025D02*
G54D20*
D03*
X269875Y965200D02*
G54D20*
D03*
X279400Y974725D02*
G54D20*
D03*
X279400Y981075D02*
G54D20*
D03*
X276225Y984250D02*
G54D20*
D03*
X273050Y981075D02*
G54D20*
D03*
X269875Y977900D02*
G54D20*
D03*
X266700Y974725D02*
G54D20*
D03*
X263525Y971550D02*
G54D20*
D03*
X260350Y968375D02*
G54D20*
D03*
X263525Y965200D02*
G54D20*
D03*
X314325Y952500D02*
G54D20*
D03*
X311150Y952500D02*
G54D20*
D03*
X307975Y955675D02*
G54D20*
D03*
X304800Y952500D02*
G54D20*
D03*
X301625Y952500D02*
G54D20*
D03*
X298450Y952500D02*
G54D20*
D03*
X295275Y949325D02*
G54D20*
D03*
X292100Y949325D02*
G54D20*
D03*
X288925Y952500D02*
G54D20*
D03*
X285750Y952500D02*
G54D20*
D03*
X282575Y952500D02*
G54D20*
D03*
X279400Y952500D02*
G54D20*
D03*
X276225Y952500D02*
G54D20*
D03*
X273050Y949325D02*
G54D20*
D03*
X257175Y977900D02*
G54D20*
D03*
X257175Y974725D02*
G54D20*
D03*
X257175Y971550D02*
G54D20*
D03*
X254000Y971550D02*
G54D20*
D03*
X254000Y977900D02*
G54D20*
D03*
X250825Y977900D02*
G54D20*
D03*
X250825Y981075D02*
G54D20*
D03*
X250825Y984250D02*
G54D20*
D03*
X247650Y984250D02*
G54D20*
D03*
X244475Y984250D02*
G54D20*
D03*
X244475Y981075D02*
G54D20*
D03*
X244475Y977900D02*
G54D20*
D03*
X241300Y977900D02*
G54D20*
D03*
X238125Y977900D02*
G54D20*
D03*
X238125Y974725D02*
G54D20*
D03*
X238125Y971550D02*
G54D20*
D03*
X241300Y971550D02*
G54D20*
D03*
X244475Y971550D02*
G54D20*
D03*
X250825Y971550D02*
G54D20*
D03*
X250825Y968375D02*
G54D20*
D03*
X250825Y965200D02*
G54D20*
D03*
X247650Y965200D02*
G54D20*
D03*
X244475Y965200D02*
G54D20*
D03*
X244475Y968375D02*
G54D20*
D03*
X295275Y977900D02*
G54D20*
D03*
X288925Y977900D02*
G54D20*
D03*
X285750Y974725D02*
G54D20*
D03*
X269875Y958850D02*
G54D20*
D03*
X266700Y955675D02*
G54D20*
D03*
X266700Y949325D02*
G54D20*
D03*
X269875Y939800D02*
G54D20*
D03*
X266700Y939800D02*
G54D20*
D03*
X263525Y939800D02*
G54D20*
D03*
X260350Y939800D02*
G54D20*
D03*
X257175Y939800D02*
G54D20*
D03*
X263525Y936625D02*
G54D20*
D03*
X263525Y933450D02*
G54D20*
D03*
X263525Y930275D02*
G54D20*
D03*
X263525Y927100D02*
G54D20*
D03*
X263525Y923925D02*
G54D20*
D03*
X266700Y920750D02*
G54D20*
D03*
X269875Y920750D02*
G54D20*
D03*
X273050Y923925D02*
G54D20*
D03*
X254000Y920750D02*
G54D20*
D03*
X250825Y923925D02*
G54D20*
D03*
X250825Y927100D02*
G54D20*
D03*
X250825Y930275D02*
G54D20*
D03*
X250825Y933450D02*
G54D20*
D03*
X247650Y920750D02*
G54D20*
D03*
X244475Y920750D02*
G54D20*
D03*
X241300Y920750D02*
G54D20*
D03*
X241300Y923925D02*
G54D20*
D03*
X241300Y927100D02*
G54D20*
D03*
X241300Y930275D02*
G54D20*
D03*
X241300Y933450D02*
G54D20*
D03*
X234950Y936625D02*
G54D20*
D03*
X234950Y930275D02*
G54D20*
D03*
X234950Y927100D02*
G54D20*
D03*
X234950Y923925D02*
G54D20*
D03*
X234950Y920750D02*
G54D20*
D03*
X228600Y923925D02*
G54D20*
D03*
X228600Y927100D02*
G54D20*
D03*
X228600Y930275D02*
G54D20*
D03*
X225425Y933450D02*
G54D20*
D03*
X222250Y933450D02*
G54D20*
D03*
X225425Y920750D02*
G54D20*
D03*
X222250Y920750D02*
G54D20*
D03*
X219075Y920750D02*
G54D20*
D03*
X219075Y933450D02*
G54D20*
D03*
X212725Y923925D02*
G54D20*
D03*
X212725Y927100D02*
G54D20*
D03*
X212725Y930275D02*
G54D20*
D03*
X209550Y933450D02*
G54D20*
D03*
X206375Y933450D02*
G54D20*
D03*
X203200Y933450D02*
G54D20*
D03*
X209550Y920750D02*
G54D20*
D03*
X206375Y920750D02*
G54D20*
D03*
X203200Y920750D02*
G54D20*
D03*
X200025Y930275D02*
G54D20*
D03*
X200025Y927100D02*
G54D20*
D03*
X203200Y927100D02*
G54D20*
D03*
X206375Y927100D02*
G54D20*
D03*
X209550Y927100D02*
G54D20*
D03*
X301625Y939800D02*
G54D20*
D03*
X298450Y936625D02*
G54D20*
D03*
X295275Y939800D02*
G54D20*
D03*
X298450Y942975D02*
G54D20*
D03*
X288925Y936625D02*
G54D20*
D03*
X311150Y946150D02*
G54D20*
D03*
X282575Y946150D02*
G54D20*
D03*
X298450Y927100D02*
G54D20*
D03*
X314325Y942975D02*
G54D20*
D03*
X254000Y958850D02*
G54D20*
D03*
X250825Y958850D02*
G54D20*
D03*
X247650Y958850D02*
G54D20*
D03*
X244475Y958850D02*
G54D20*
D03*
X241300Y958850D02*
G54D20*
D03*
X241300Y955675D02*
G54D20*
D03*
X241300Y952500D02*
G54D20*
D03*
X244475Y949325D02*
G54D20*
D03*
X247650Y946150D02*
G54D20*
D03*
X250825Y942975D02*
G54D20*
D03*
X238125Y965200D02*
G54D20*
D03*
X238125Y962025D02*
G54D20*
D03*
X234950Y962025D02*
G54D20*
D03*
X234950Y965200D02*
G54D20*
D03*
X231775Y958850D02*
G54D20*
D03*
X228600Y958850D02*
G54D20*
D03*
X225425Y958850D02*
G54D20*
D03*
X222250Y958850D02*
G54D20*
D03*
X219075Y958850D02*
G54D20*
D03*
X231775Y952500D02*
G54D20*
D03*
X228600Y952500D02*
G54D20*
D03*
X225425Y952500D02*
G54D20*
D03*
X222250Y952500D02*
G54D20*
D03*
X219075Y952500D02*
G54D20*
D03*
X219075Y949325D02*
G54D20*
D03*
X222250Y946150D02*
G54D20*
D03*
X225425Y942975D02*
G54D20*
D03*
X231775Y942975D02*
G54D20*
D03*
X228600Y942975D02*
G54D20*
D03*
X212725Y958850D02*
G54D20*
D03*
X209550Y958850D02*
G54D20*
D03*
X206375Y958850D02*
G54D20*
D03*
X203200Y958850D02*
G54D20*
D03*
X200025Y958850D02*
G54D20*
D03*
X200025Y955675D02*
G54D20*
D03*
X203200Y952500D02*
G54D20*
D03*
X206375Y949325D02*
G54D20*
D03*
X209550Y946150D02*
G54D20*
D03*
X212725Y942975D02*
G54D20*
D03*
X203200Y946150D02*
G54D20*
D03*
X200025Y942975D02*
G54D20*
D03*
X292100Y971550D02*
G54D20*
D03*
X295275Y968375D02*
G54D20*
D03*
G54D21*
X225933Y972819D02*
X223933Y971708D01*
X223267Y970597D01*
X223267Y968375D01*
G54D21*
X228600Y968375D02*
X228600Y977264D01*
X225267Y977264D01*
X223933Y976708D01*
X223267Y975597D01*
X223267Y974486D01*
X223933Y973375D01*
X225267Y972819D01*
X228600Y972819D01*
G54D21*
X216823Y968931D02*
X217890Y968375D01*
X219223Y968375D01*
X220556Y968931D01*
X220823Y970042D01*
X220823Y971931D01*
X220156Y973042D01*
X218823Y973375D01*
X217490Y973042D01*
X216823Y972264D01*
X216823Y971153D01*
X220823Y971153D01*
G54D21*
X214379Y973375D02*
X211712Y968375D01*
X209046Y973375D01*
G54D21*
X206602Y968375D02*
X206602Y968375D01*
G54D21*
X204158Y973931D02*
X200825Y977264D01*
X200825Y968375D01*
G54D21*
X198381Y968375D02*
X198381Y968375D01*
G54D21*
X190604Y975597D02*
X190604Y970042D01*
X191270Y968931D01*
X192604Y968375D01*
X193937Y968375D01*
X195270Y968931D01*
X195937Y970042D01*
X195937Y975597D01*
X195270Y976708D01*
X193937Y977264D01*
X192604Y977264D01*
X191270Y976708D01*
X190604Y975597D01*
G54D19*
X111125Y828675D02*
X85725Y828675D01*
X276225Y650875D02*
G54D18*
D03*
X298455Y650875D02*
G54D18*
D03*
G36*
X469025Y936750D02*
X460250Y927975D01*
X447800Y927975D01*
X439025Y936750D01*
X439025Y949200D01*
X447800Y957975D01*
X460250Y957975D01*
X469025Y949200D01*
X469025Y936750D01*
G37*
G36*
X418225Y936750D02*
X409450Y927975D01*
X397000Y927975D01*
X388225Y936750D01*
X388225Y949200D01*
X397000Y957975D01*
X409450Y957975D01*
X418225Y949200D01*
X418225Y936750D01*
G37*
X365125Y822325D02*
G54D17*
D03*
X365125Y847725D02*
G54D17*
D03*
X365125Y733425D02*
G54D17*
D03*
X365125Y758825D02*
G54D17*
D03*
X365125Y644525D02*
G54D17*
D03*
X365125Y669925D02*
G54D17*
D03*
G36*
X388225Y949200D02*
X397000Y957975D01*
X409450Y957975D01*
X418225Y949200D01*
X418225Y936750D01*
X409450Y927975D01*
X397000Y927975D01*
X388225Y936750D01*
X388225Y949200D01*
G37*
X365125Y847725D02*
G54D17*
D03*
X365125Y758825D02*
G54D17*
D03*
X365125Y669925D02*
G54D17*
D03*
X536575Y860425D02*
G54D17*
D03*
G36*
X501125Y824940D02*
X495860Y819675D01*
X488390Y819675D01*
X483125Y824940D01*
X483125Y832410D01*
X488390Y837675D01*
X495860Y837675D01*
X501125Y832410D01*
X501125Y824940D01*
G37*
G36*
X475725Y824940D02*
X470460Y819675D01*
X462990Y819675D01*
X457725Y824940D01*
X457725Y832410D01*
X462990Y837675D01*
X470460Y837675D01*
X475725Y832410D01*
X475725Y824940D01*
G37*
G36*
X450325Y824940D02*
X445060Y819675D01*
X437590Y819675D01*
X432325Y824940D01*
X432325Y832410D01*
X437590Y837675D01*
X445060Y837675D01*
X450325Y832410D01*
X450325Y824940D01*
G37*
G36*
X615425Y824940D02*
X610160Y819675D01*
X602690Y819675D01*
X597425Y824940D01*
X597425Y832410D01*
X602690Y837675D01*
X610160Y837675D01*
X615425Y832410D01*
X615425Y824940D01*
G37*
G36*
X590025Y824940D02*
X584760Y819675D01*
X577290Y819675D01*
X572025Y824940D01*
X572025Y832410D01*
X577290Y837675D01*
X584760Y837675D01*
X590025Y832410D01*
X590025Y824940D01*
G37*
G36*
X564625Y824940D02*
X559360Y819675D01*
X551890Y819675D01*
X546625Y824940D01*
X546625Y832410D01*
X551890Y837675D01*
X559360Y837675D01*
X564625Y832410D01*
X564625Y824940D01*
G37*
G36*
X475725Y824940D02*
X470460Y819675D01*
X462990Y819675D01*
X457725Y824940D01*
X457725Y832410D01*
X462990Y837675D01*
X470460Y837675D01*
X475725Y832410D01*
X475725Y824940D01*
G37*
G36*
X590025Y824940D02*
X584760Y819675D01*
X577290Y819675D01*
X572025Y824940D01*
X572025Y832410D01*
X577290Y837675D01*
X584760Y837675D01*
X590025Y832410D01*
X590025Y824940D01*
G37*
G36*
X406925Y873685D02*
X412190Y878950D01*
X419660Y878950D01*
X424925Y873685D01*
X424925Y866215D01*
X419660Y860950D01*
X412190Y860950D01*
X406925Y866215D01*
X406925Y873685D01*
G37*
X606425Y860425D02*
G54D17*
D03*
X581422Y860425D02*
G54D17*
D03*
X561578Y860425D02*
G54D17*
D03*
X536575Y860425D02*
G54D17*
D03*
G36*
X657183Y879112D02*
X645483Y867412D01*
X628883Y867412D01*
X617183Y879112D01*
X617183Y895712D01*
X628883Y907412D01*
X645483Y907412D01*
X657183Y895712D01*
X657183Y879112D01*
G37*
G36*
X525619Y879112D02*
X513919Y867412D01*
X497319Y867412D01*
X485619Y879112D01*
X485619Y895712D01*
X497319Y907412D01*
X513919Y907412D01*
X525619Y895712D01*
X525619Y879112D01*
G37*
X492125Y968375D02*
G54D18*
D03*
X492125Y942975D02*
G54D18*
D03*
X517525Y555625D02*
G54D17*
D03*
X517525Y581025D02*
G54D17*
D03*
X517525Y581025D02*
G54D17*
D03*
X365125Y555625D02*
G54D17*
D03*
X365125Y581025D02*
G54D17*
D03*
X365125Y581025D02*
G54D17*
D03*
G54D19*
X365125Y733425D02*
X396875Y733425D01*
X415925Y752475D01*
X415925Y869950D01*
G54D19*
X365125Y822325D02*
X415925Y822325D01*
X523875Y650875D02*
G54D18*
D03*
X549275Y650875D02*
G54D18*
D03*
G54D19*
X555625Y828675D02*
X555625Y803275D01*
X542925Y790575D01*
X419100Y790575D01*
X415925Y787400D01*
X441325Y555625D02*
G54D17*
D03*
X441325Y581025D02*
G54D17*
D03*
X441325Y581025D02*
G54D17*
D03*
X654050Y942975D02*
G54D20*
D03*
X650875Y939800D02*
G54D20*
D03*
X647700Y936625D02*
G54D20*
D03*
X644525Y933450D02*
G54D20*
D03*
X654050Y949325D02*
G54D20*
D03*
X650875Y952500D02*
G54D20*
D03*
X647700Y955675D02*
G54D20*
D03*
X644525Y958850D02*
G54D20*
D03*
X641350Y962025D02*
G54D20*
D03*
X641350Y930275D02*
G54D20*
D03*
X638175Y927100D02*
G54D20*
D03*
X635000Y923925D02*
G54D20*
D03*
X631825Y920750D02*
G54D20*
D03*
X625475Y920750D02*
G54D20*
D03*
X622300Y923925D02*
G54D20*
D03*
X619125Y927100D02*
G54D20*
D03*
X615950Y930275D02*
G54D20*
D03*
X612775Y933450D02*
G54D20*
D03*
X609600Y936625D02*
G54D20*
D03*
X606425Y939800D02*
G54D20*
D03*
X603250Y942975D02*
G54D20*
D03*
X600075Y946150D02*
G54D20*
D03*
X638175Y965200D02*
G54D20*
D03*
X635000Y968375D02*
G54D20*
D03*
X631825Y971550D02*
G54D20*
D03*
X628650Y974725D02*
G54D20*
D03*
X612775Y971550D02*
G54D20*
D03*
X603250Y962025D02*
G54D20*
D03*
X600075Y965200D02*
G54D20*
D03*
X609600Y974725D02*
G54D20*
D03*
X609600Y981075D02*
G54D20*
D03*
X606425Y984250D02*
G54D20*
D03*
X603250Y981075D02*
G54D20*
D03*
X600075Y977900D02*
G54D20*
D03*
X596900Y974725D02*
G54D20*
D03*
X593725Y971550D02*
G54D20*
D03*
X590550Y968375D02*
G54D20*
D03*
X593725Y965200D02*
G54D20*
D03*
X644525Y952500D02*
G54D20*
D03*
X641350Y952500D02*
G54D20*
D03*
X638175Y955675D02*
G54D20*
D03*
X635000Y952500D02*
G54D20*
D03*
X631825Y952500D02*
G54D20*
D03*
X628650Y952500D02*
G54D20*
D03*
X625475Y949325D02*
G54D20*
D03*
X622300Y949325D02*
G54D20*
D03*
X619125Y952500D02*
G54D20*
D03*
X615950Y952500D02*
G54D20*
D03*
X612775Y952500D02*
G54D20*
D03*
X609600Y952500D02*
G54D20*
D03*
X606425Y952500D02*
G54D20*
D03*
X603250Y949325D02*
G54D20*
D03*
X587375Y977900D02*
G54D20*
D03*
X587375Y974725D02*
G54D20*
D03*
X587375Y971550D02*
G54D20*
D03*
X584200Y971550D02*
G54D20*
D03*
X584200Y977900D02*
G54D20*
D03*
X581025Y977900D02*
G54D20*
D03*
X581025Y981075D02*
G54D20*
D03*
X581025Y984250D02*
G54D20*
D03*
X577850Y984250D02*
G54D20*
D03*
X574675Y984250D02*
G54D20*
D03*
X574675Y981075D02*
G54D20*
D03*
X574675Y977900D02*
G54D20*
D03*
X571500Y977900D02*
G54D20*
D03*
X568325Y977900D02*
G54D20*
D03*
X568325Y974725D02*
G54D20*
D03*
X568325Y971550D02*
G54D20*
D03*
X571500Y971550D02*
G54D20*
D03*
X574675Y971550D02*
G54D20*
D03*
X581025Y971550D02*
G54D20*
D03*
X581025Y968375D02*
G54D20*
D03*
X581025Y965200D02*
G54D20*
D03*
X577850Y965200D02*
G54D20*
D03*
X574675Y965200D02*
G54D20*
D03*
X574675Y968375D02*
G54D20*
D03*
X625475Y977900D02*
G54D20*
D03*
X619125Y977900D02*
G54D20*
D03*
X615950Y974725D02*
G54D20*
D03*
X600075Y958850D02*
G54D20*
D03*
X596900Y955675D02*
G54D20*
D03*
X596900Y949325D02*
G54D20*
D03*
X600075Y939800D02*
G54D20*
D03*
X596900Y939800D02*
G54D20*
D03*
X593725Y939800D02*
G54D20*
D03*
X590550Y939800D02*
G54D20*
D03*
X587375Y939800D02*
G54D20*
D03*
X593725Y936625D02*
G54D20*
D03*
X593725Y933450D02*
G54D20*
D03*
X593725Y930275D02*
G54D20*
D03*
X593725Y927100D02*
G54D20*
D03*
X593725Y923925D02*
G54D20*
D03*
X596900Y920750D02*
G54D20*
D03*
X600075Y920750D02*
G54D20*
D03*
X603250Y923925D02*
G54D20*
D03*
X584200Y920750D02*
G54D20*
D03*
X581025Y923925D02*
G54D20*
D03*
X581025Y927100D02*
G54D20*
D03*
X581025Y930275D02*
G54D20*
D03*
X581025Y933450D02*
G54D20*
D03*
X577850Y920750D02*
G54D20*
D03*
X574675Y920750D02*
G54D20*
D03*
X571500Y920750D02*
G54D20*
D03*
X571500Y923925D02*
G54D20*
D03*
X571500Y927100D02*
G54D20*
D03*
X571500Y930275D02*
G54D20*
D03*
X571500Y933450D02*
G54D20*
D03*
X565150Y936625D02*
G54D20*
D03*
X565150Y930275D02*
G54D20*
D03*
X565150Y927100D02*
G54D20*
D03*
X565150Y923925D02*
G54D20*
D03*
X565150Y920750D02*
G54D20*
D03*
X558800Y923925D02*
G54D20*
D03*
X558800Y927100D02*
G54D20*
D03*
X558800Y930275D02*
G54D20*
D03*
X555625Y933450D02*
G54D20*
D03*
X552450Y933450D02*
G54D20*
D03*
X555625Y920750D02*
G54D20*
D03*
X552450Y920750D02*
G54D20*
D03*
X549275Y920750D02*
G54D20*
D03*
X549275Y933450D02*
G54D20*
D03*
X542925Y923925D02*
G54D20*
D03*
X542925Y927100D02*
G54D20*
D03*
X542925Y930275D02*
G54D20*
D03*
X539750Y933450D02*
G54D20*
D03*
X536575Y933450D02*
G54D20*
D03*
X533400Y933450D02*
G54D20*
D03*
X539750Y920750D02*
G54D20*
D03*
X536575Y920750D02*
G54D20*
D03*
X533400Y920750D02*
G54D20*
D03*
X530225Y930275D02*
G54D20*
D03*
X530225Y927100D02*
G54D20*
D03*
X533400Y927100D02*
G54D20*
D03*
X536575Y927100D02*
G54D20*
D03*
X539750Y927100D02*
G54D20*
D03*
X631825Y939800D02*
G54D20*
D03*
X628650Y936625D02*
G54D20*
D03*
X625475Y939800D02*
G54D20*
D03*
X628650Y942975D02*
G54D20*
D03*
X619125Y936625D02*
G54D20*
D03*
X641350Y946150D02*
G54D20*
D03*
X612775Y946150D02*
G54D20*
D03*
X628650Y927100D02*
G54D20*
D03*
X644525Y942975D02*
G54D20*
D03*
X584200Y958850D02*
G54D20*
D03*
X581025Y958850D02*
G54D20*
D03*
X577850Y958850D02*
G54D20*
D03*
X574675Y958850D02*
G54D20*
D03*
X571500Y958850D02*
G54D20*
D03*
X571500Y955675D02*
G54D20*
D03*
X571500Y952500D02*
G54D20*
D03*
X574675Y949325D02*
G54D20*
D03*
X577850Y946150D02*
G54D20*
D03*
X581025Y942975D02*
G54D20*
D03*
X568325Y965200D02*
G54D20*
D03*
X568325Y962025D02*
G54D20*
D03*
X565150Y962025D02*
G54D20*
D03*
X565150Y965200D02*
G54D20*
D03*
X561975Y958850D02*
G54D20*
D03*
X558800Y958850D02*
G54D20*
D03*
X555625Y958850D02*
G54D20*
D03*
X552450Y958850D02*
G54D20*
D03*
X549275Y958850D02*
G54D20*
D03*
X561975Y952500D02*
G54D20*
D03*
X558800Y952500D02*
G54D20*
D03*
X555625Y952500D02*
G54D20*
D03*
X552450Y952500D02*
G54D20*
D03*
X549275Y952500D02*
G54D20*
D03*
X549275Y949325D02*
G54D20*
D03*
X552450Y946150D02*
G54D20*
D03*
X555625Y942975D02*
G54D20*
D03*
X561975Y942975D02*
G54D20*
D03*
X558800Y942975D02*
G54D20*
D03*
X542925Y958850D02*
G54D20*
D03*
X539750Y958850D02*
G54D20*
D03*
X536575Y958850D02*
G54D20*
D03*
X533400Y958850D02*
G54D20*
D03*
X530225Y958850D02*
G54D20*
D03*
X530225Y955675D02*
G54D20*
D03*
X533400Y952500D02*
G54D20*
D03*
X536575Y949325D02*
G54D20*
D03*
X539750Y946150D02*
G54D20*
D03*
X542925Y942975D02*
G54D20*
D03*
X533400Y946150D02*
G54D20*
D03*
X530225Y942975D02*
G54D20*
D03*
X622300Y971550D02*
G54D20*
D03*
X625475Y968375D02*
G54D20*
D03*
G54D21*
X556133Y972819D02*
X554133Y971708D01*
X553467Y970597D01*
X553467Y968375D01*
G54D21*
X558800Y968375D02*
X558800Y977264D01*
X555467Y977264D01*
X554133Y976708D01*
X553467Y975597D01*
X553467Y974486D01*
X554133Y973375D01*
X555467Y972819D01*
X558800Y972819D01*
G54D21*
X547023Y968931D02*
X548090Y968375D01*
X549423Y968375D01*
X550756Y968931D01*
X551023Y970042D01*
X551023Y971931D01*
X550356Y973042D01*
X549023Y973375D01*
X547690Y973042D01*
X547023Y972264D01*
X547023Y971153D01*
X551023Y971153D01*
G54D21*
X544579Y973375D02*
X541912Y968375D01*
X539246Y973375D01*
G54D21*
X536802Y968375D02*
X536802Y968375D01*
G54D21*
X534358Y973931D02*
X531025Y977264D01*
X531025Y968375D01*
G54D21*
X528581Y968375D02*
X528581Y968375D01*
G54D21*
X520804Y975597D02*
X520804Y970042D01*
X521470Y968931D01*
X522804Y968375D01*
X524137Y968375D01*
X525470Y968931D01*
X526137Y970042D01*
X526137Y975597D01*
X525470Y976708D01*
X524137Y977264D01*
X522804Y977264D01*
X521470Y976708D01*
X520804Y975597D01*
G54D19*
X441325Y828675D02*
X415925Y828675D01*
X606425Y650875D02*
G54D18*
D03*
X628655Y650875D02*
G54D18*
D03*
G36*
X799225Y936750D02*
X790450Y927975D01*
X778000Y927975D01*
X769225Y936750D01*
X769225Y949200D01*
X778000Y957975D01*
X790450Y957975D01*
X799225Y949200D01*
X799225Y936750D01*
G37*
G36*
X748425Y936750D02*
X739650Y927975D01*
X727200Y927975D01*
X718425Y936750D01*
X718425Y949200D01*
X727200Y957975D01*
X739650Y957975D01*
X748425Y949200D01*
X748425Y936750D01*
G37*
X695325Y822325D02*
G54D17*
D03*
X695325Y847725D02*
G54D17*
D03*
X695325Y733425D02*
G54D17*
D03*
X695325Y758825D02*
G54D17*
D03*
X695325Y644525D02*
G54D17*
D03*
X695325Y669925D02*
G54D17*
D03*
G36*
X718425Y949200D02*
X727200Y957975D01*
X739650Y957975D01*
X748425Y949200D01*
X748425Y936750D01*
X739650Y927975D01*
X727200Y927975D01*
X718425Y936750D01*
X718425Y949200D01*
G37*
X695325Y847725D02*
G54D17*
D03*
X695325Y758825D02*
G54D17*
D03*
X695325Y669925D02*
G54D17*
D03*
X866775Y860425D02*
G54D17*
D03*
G36*
X831325Y824940D02*
X826060Y819675D01*
X818590Y819675D01*
X813325Y824940D01*
X813325Y832410D01*
X818590Y837675D01*
X826060Y837675D01*
X831325Y832410D01*
X831325Y824940D01*
G37*
G36*
X805925Y824940D02*
X800660Y819675D01*
X793190Y819675D01*
X787925Y824940D01*
X787925Y832410D01*
X793190Y837675D01*
X800660Y837675D01*
X805925Y832410D01*
X805925Y824940D01*
G37*
G36*
X780525Y824940D02*
X775260Y819675D01*
X767790Y819675D01*
X762525Y824940D01*
X762525Y832410D01*
X767790Y837675D01*
X775260Y837675D01*
X780525Y832410D01*
X780525Y824940D01*
G37*
G36*
X945625Y824940D02*
X940360Y819675D01*
X932890Y819675D01*
X927625Y824940D01*
X927625Y832410D01*
X932890Y837675D01*
X940360Y837675D01*
X945625Y832410D01*
X945625Y824940D01*
G37*
G36*
X920225Y824940D02*
X914960Y819675D01*
X907490Y819675D01*
X902225Y824940D01*
X902225Y832410D01*
X907490Y837675D01*
X914960Y837675D01*
X920225Y832410D01*
X920225Y824940D01*
G37*
G36*
X894825Y824940D02*
X889560Y819675D01*
X882090Y819675D01*
X876825Y824940D01*
X876825Y832410D01*
X882090Y837675D01*
X889560Y837675D01*
X894825Y832410D01*
X894825Y824940D01*
G37*
G36*
X805925Y824940D02*
X800660Y819675D01*
X793190Y819675D01*
X787925Y824940D01*
X787925Y832410D01*
X793190Y837675D01*
X800660Y837675D01*
X805925Y832410D01*
X805925Y824940D01*
G37*
G36*
X920225Y824940D02*
X914960Y819675D01*
X907490Y819675D01*
X902225Y824940D01*
X902225Y832410D01*
X907490Y837675D01*
X914960Y837675D01*
X920225Y832410D01*
X920225Y824940D01*
G37*
G36*
X737125Y873685D02*
X742390Y878950D01*
X749860Y878950D01*
X755125Y873685D01*
X755125Y866215D01*
X749860Y860950D01*
X742390Y860950D01*
X737125Y866215D01*
X737125Y873685D01*
G37*
X936625Y860425D02*
G54D17*
D03*
X911622Y860425D02*
G54D17*
D03*
X891778Y860425D02*
G54D17*
D03*
X866775Y860425D02*
G54D17*
D03*
G36*
X987383Y879112D02*
X975683Y867412D01*
X959083Y867412D01*
X947383Y879112D01*
X947383Y895712D01*
X959083Y907412D01*
X975683Y907412D01*
X987383Y895712D01*
X987383Y879112D01*
G37*
G36*
X855819Y879112D02*
X844119Y867412D01*
X827519Y867412D01*
X815819Y879112D01*
X815819Y895712D01*
X827519Y907412D01*
X844119Y907412D01*
X855819Y895712D01*
X855819Y879112D01*
G37*
X822325Y968375D02*
G54D18*
D03*
X822325Y942975D02*
G54D18*
D03*
X847725Y555625D02*
G54D17*
D03*
X847725Y581025D02*
G54D17*
D03*
X847725Y581025D02*
G54D17*
D03*
X695325Y555625D02*
G54D17*
D03*
X695325Y581025D02*
G54D17*
D03*
X695325Y581025D02*
G54D17*
D03*
G54D19*
X695325Y733425D02*
X727075Y733425D01*
X746125Y752475D01*
X746125Y869950D01*
G54D19*
X695325Y822325D02*
X746125Y822325D01*
X854075Y650875D02*
G54D18*
D03*
X879475Y650875D02*
G54D18*
D03*
G54D19*
X885825Y828675D02*
X885825Y803275D01*
X873125Y790575D01*
X749300Y790575D01*
X746125Y787400D01*
X771525Y555625D02*
G54D17*
D03*
X771525Y581025D02*
G54D17*
D03*
X771525Y581025D02*
G54D17*
D03*
X984250Y942975D02*
G54D20*
D03*
X981075Y939800D02*
G54D20*
D03*
X977900Y936625D02*
G54D20*
D03*
X974725Y933450D02*
G54D20*
D03*
X984250Y949325D02*
G54D20*
D03*
X981075Y952500D02*
G54D20*
D03*
X977900Y955675D02*
G54D20*
D03*
X974725Y958850D02*
G54D20*
D03*
X971550Y962025D02*
G54D20*
D03*
X971550Y930275D02*
G54D20*
D03*
X968375Y927100D02*
G54D20*
D03*
X965200Y923925D02*
G54D20*
D03*
X962025Y920750D02*
G54D20*
D03*
X955675Y920750D02*
G54D20*
D03*
X952500Y923925D02*
G54D20*
D03*
X949325Y927100D02*
G54D20*
D03*
X946150Y930275D02*
G54D20*
D03*
X942975Y933450D02*
G54D20*
D03*
X939800Y936625D02*
G54D20*
D03*
X936625Y939800D02*
G54D20*
D03*
X933450Y942975D02*
G54D20*
D03*
X930275Y946150D02*
G54D20*
D03*
X968375Y965200D02*
G54D20*
D03*
X965200Y968375D02*
G54D20*
D03*
X962025Y971550D02*
G54D20*
D03*
X958850Y974725D02*
G54D20*
D03*
X942975Y971550D02*
G54D20*
D03*
X933450Y962025D02*
G54D20*
D03*
X930275Y965200D02*
G54D20*
D03*
X939800Y974725D02*
G54D20*
D03*
X939800Y981075D02*
G54D20*
D03*
X936625Y984250D02*
G54D20*
D03*
X933450Y981075D02*
G54D20*
D03*
X930275Y977900D02*
G54D20*
D03*
X927100Y974725D02*
G54D20*
D03*
X923925Y971550D02*
G54D20*
D03*
X920750Y968375D02*
G54D20*
D03*
X923925Y965200D02*
G54D20*
D03*
X974725Y952500D02*
G54D20*
D03*
X971550Y952500D02*
G54D20*
D03*
X968375Y955675D02*
G54D20*
D03*
X965200Y952500D02*
G54D20*
D03*
X962025Y952500D02*
G54D20*
D03*
X958850Y952500D02*
G54D20*
D03*
X955675Y949325D02*
G54D20*
D03*
X952500Y949325D02*
G54D20*
D03*
X949325Y952500D02*
G54D20*
D03*
X946150Y952500D02*
G54D20*
D03*
X942975Y952500D02*
G54D20*
D03*
X939800Y952500D02*
G54D20*
D03*
X936625Y952500D02*
G54D20*
D03*
X933450Y949325D02*
G54D20*
D03*
X917575Y977900D02*
G54D20*
D03*
X917575Y974725D02*
G54D20*
D03*
X917575Y971550D02*
G54D20*
D03*
X914400Y971550D02*
G54D20*
D03*
X914400Y977900D02*
G54D20*
D03*
X911225Y977900D02*
G54D20*
D03*
X911225Y981075D02*
G54D20*
D03*
X911225Y984250D02*
G54D20*
D03*
X908050Y984250D02*
G54D20*
D03*
X904875Y984250D02*
G54D20*
D03*
X904875Y981075D02*
G54D20*
D03*
X904875Y977900D02*
G54D20*
D03*
X901700Y977900D02*
G54D20*
D03*
X898525Y977900D02*
G54D20*
D03*
X898525Y974725D02*
G54D20*
D03*
X898525Y971550D02*
G54D20*
D03*
X901700Y971550D02*
G54D20*
D03*
X904875Y971550D02*
G54D20*
D03*
X911225Y971550D02*
G54D20*
D03*
X911225Y968375D02*
G54D20*
D03*
X911225Y965200D02*
G54D20*
D03*
X908050Y965200D02*
G54D20*
D03*
X904875Y965200D02*
G54D20*
D03*
X904875Y968375D02*
G54D20*
D03*
X955675Y977900D02*
G54D20*
D03*
X949325Y977900D02*
G54D20*
D03*
X946150Y974725D02*
G54D20*
D03*
X930275Y958850D02*
G54D20*
D03*
X927100Y955675D02*
G54D20*
D03*
X927100Y949325D02*
G54D20*
D03*
X930275Y939800D02*
G54D20*
D03*
X927100Y939800D02*
G54D20*
D03*
X923925Y939800D02*
G54D20*
D03*
X920750Y939800D02*
G54D20*
D03*
X917575Y939800D02*
G54D20*
D03*
X923925Y936625D02*
G54D20*
D03*
X923925Y933450D02*
G54D20*
D03*
X923925Y930275D02*
G54D20*
D03*
X923925Y927100D02*
G54D20*
D03*
X923925Y923925D02*
G54D20*
D03*
X927100Y920750D02*
G54D20*
D03*
X930275Y920750D02*
G54D20*
D03*
X933450Y923925D02*
G54D20*
D03*
X914400Y920750D02*
G54D20*
D03*
X911225Y923925D02*
G54D20*
D03*
X911225Y927100D02*
G54D20*
D03*
X911225Y930275D02*
G54D20*
D03*
X911225Y933450D02*
G54D20*
D03*
X908050Y920750D02*
G54D20*
D03*
X904875Y920750D02*
G54D20*
D03*
X901700Y920750D02*
G54D20*
D03*
X901700Y923925D02*
G54D20*
D03*
X901700Y927100D02*
G54D20*
D03*
X901700Y930275D02*
G54D20*
D03*
X901700Y933450D02*
G54D20*
D03*
X895350Y936625D02*
G54D20*
D03*
X895350Y930275D02*
G54D20*
D03*
X895350Y927100D02*
G54D20*
D03*
X895350Y923925D02*
G54D20*
D03*
X895350Y920750D02*
G54D20*
D03*
X889000Y923925D02*
G54D20*
D03*
X889000Y927100D02*
G54D20*
D03*
X889000Y930275D02*
G54D20*
D03*
X885825Y933450D02*
G54D20*
D03*
X882650Y933450D02*
G54D20*
D03*
X885825Y920750D02*
G54D20*
D03*
X882650Y920750D02*
G54D20*
D03*
X879475Y920750D02*
G54D20*
D03*
X879475Y933450D02*
G54D20*
D03*
X873125Y923925D02*
G54D20*
D03*
X873125Y927100D02*
G54D20*
D03*
X873125Y930275D02*
G54D20*
D03*
X869950Y933450D02*
G54D20*
D03*
X866775Y933450D02*
G54D20*
D03*
X863600Y933450D02*
G54D20*
D03*
X869950Y920750D02*
G54D20*
D03*
X866775Y920750D02*
G54D20*
D03*
X863600Y920750D02*
G54D20*
D03*
X860425Y930275D02*
G54D20*
D03*
X860425Y927100D02*
G54D20*
D03*
X863600Y927100D02*
G54D20*
D03*
X866775Y927100D02*
G54D20*
D03*
X869950Y927100D02*
G54D20*
D03*
X962025Y939800D02*
G54D20*
D03*
X958850Y936625D02*
G54D20*
D03*
X955675Y939800D02*
G54D20*
D03*
X958850Y942975D02*
G54D20*
D03*
X949325Y936625D02*
G54D20*
D03*
X971550Y946150D02*
G54D20*
D03*
X942975Y946150D02*
G54D20*
D03*
X958850Y927100D02*
G54D20*
D03*
X974725Y942975D02*
G54D20*
D03*
X914400Y958850D02*
G54D20*
D03*
X911225Y958850D02*
G54D20*
D03*
X908050Y958850D02*
G54D20*
D03*
X904875Y958850D02*
G54D20*
D03*
X901700Y958850D02*
G54D20*
D03*
X901700Y955675D02*
G54D20*
D03*
X901700Y952500D02*
G54D20*
D03*
X904875Y949325D02*
G54D20*
D03*
X908050Y946150D02*
G54D20*
D03*
X911225Y942975D02*
G54D20*
D03*
X898525Y965200D02*
G54D20*
D03*
X898525Y962025D02*
G54D20*
D03*
X895350Y962025D02*
G54D20*
D03*
X895350Y965200D02*
G54D20*
D03*
X892175Y958850D02*
G54D20*
D03*
X889000Y958850D02*
G54D20*
D03*
X885825Y958850D02*
G54D20*
D03*
X882650Y958850D02*
G54D20*
D03*
X879475Y958850D02*
G54D20*
D03*
X892175Y952500D02*
G54D20*
D03*
X889000Y952500D02*
G54D20*
D03*
X885825Y952500D02*
G54D20*
D03*
X882650Y952500D02*
G54D20*
D03*
X879475Y952500D02*
G54D20*
D03*
X879475Y949325D02*
G54D20*
D03*
X882650Y946150D02*
G54D20*
D03*
X885825Y942975D02*
G54D20*
D03*
X892175Y942975D02*
G54D20*
D03*
X889000Y942975D02*
G54D20*
D03*
X873125Y958850D02*
G54D20*
D03*
X869950Y958850D02*
G54D20*
D03*
X866775Y958850D02*
G54D20*
D03*
X863600Y958850D02*
G54D20*
D03*
X860425Y958850D02*
G54D20*
D03*
X860425Y955675D02*
G54D20*
D03*
X863600Y952500D02*
G54D20*
D03*
X866775Y949325D02*
G54D20*
D03*
X869950Y946150D02*
G54D20*
D03*
X873125Y942975D02*
G54D20*
D03*
X863600Y946150D02*
G54D20*
D03*
X860425Y942975D02*
G54D20*
D03*
X952500Y971550D02*
G54D20*
D03*
X955675Y968375D02*
G54D20*
D03*
G54D21*
X886333Y972819D02*
X884333Y971708D01*
X883667Y970597D01*
X883667Y968375D01*
G54D21*
X889000Y968375D02*
X889000Y977264D01*
X885667Y977264D01*
X884333Y976708D01*
X883667Y975597D01*
X883667Y974486D01*
X884333Y973375D01*
X885667Y972819D01*
X889000Y972819D01*
G54D21*
X877223Y968931D02*
X878290Y968375D01*
X879623Y968375D01*
X880956Y968931D01*
X881223Y970042D01*
X881223Y971931D01*
X880556Y973042D01*
X879223Y973375D01*
X877890Y973042D01*
X877223Y972264D01*
X877223Y971153D01*
X881223Y971153D01*
G54D21*
X874779Y973375D02*
X872112Y968375D01*
X869446Y973375D01*
G54D21*
X867002Y968375D02*
X867002Y968375D01*
G54D21*
X864558Y973931D02*
X861225Y977264D01*
X861225Y968375D01*
G54D21*
X858781Y968375D02*
X858781Y968375D01*
G54D21*
X851004Y975597D02*
X851004Y970042D01*
X851670Y968931D01*
X853004Y968375D01*
X854337Y968375D01*
X855670Y968931D01*
X856337Y970042D01*
X856337Y975597D01*
X855670Y976708D01*
X854337Y977264D01*
X853004Y977264D01*
X851670Y976708D01*
X851004Y975597D01*
G54D19*
X771525Y828675D02*
X746125Y828675D01*
X936625Y650875D02*
G54D18*
D03*
X958855Y650875D02*
G54D18*
D03*
G36*
X138825Y466850D02*
X130050Y458075D01*
X117600Y458075D01*
X108825Y466850D01*
X108825Y479300D01*
X117600Y488075D01*
X130050Y488075D01*
X138825Y479300D01*
X138825Y466850D01*
G37*
G36*
X88025Y466850D02*
X79250Y458075D01*
X66800Y458075D01*
X58025Y466850D01*
X58025Y479300D01*
X66800Y488075D01*
X79250Y488075D01*
X88025Y479300D01*
X88025Y466850D01*
G37*
X34925Y352425D02*
G54D17*
D03*
X34925Y377825D02*
G54D17*
D03*
X34925Y263525D02*
G54D17*
D03*
X34925Y288925D02*
G54D17*
D03*
X34925Y174625D02*
G54D17*
D03*
X34925Y200025D02*
G54D17*
D03*
G36*
X58025Y479300D02*
X66800Y488075D01*
X79250Y488075D01*
X88025Y479300D01*
X88025Y466850D01*
X79250Y458075D01*
X66800Y458075D01*
X58025Y466850D01*
X58025Y479300D01*
G37*
X34925Y377825D02*
G54D17*
D03*
X34925Y288925D02*
G54D17*
D03*
X34925Y200025D02*
G54D17*
D03*
X206375Y390525D02*
G54D17*
D03*
G36*
X170925Y355040D02*
X165660Y349775D01*
X158190Y349775D01*
X152925Y355040D01*
X152925Y362510D01*
X158190Y367775D01*
X165660Y367775D01*
X170925Y362510D01*
X170925Y355040D01*
G37*
G36*
X145525Y355040D02*
X140260Y349775D01*
X132790Y349775D01*
X127525Y355040D01*
X127525Y362510D01*
X132790Y367775D01*
X140260Y367775D01*
X145525Y362510D01*
X145525Y355040D01*
G37*
G36*
X120125Y355040D02*
X114860Y349775D01*
X107390Y349775D01*
X102125Y355040D01*
X102125Y362510D01*
X107390Y367775D01*
X114860Y367775D01*
X120125Y362510D01*
X120125Y355040D01*
G37*
G36*
X285225Y355040D02*
X279960Y349775D01*
X272490Y349775D01*
X267225Y355040D01*
X267225Y362510D01*
X272490Y367775D01*
X279960Y367775D01*
X285225Y362510D01*
X285225Y355040D01*
G37*
G36*
X259825Y355040D02*
X254560Y349775D01*
X247090Y349775D01*
X241825Y355040D01*
X241825Y362510D01*
X247090Y367775D01*
X254560Y367775D01*
X259825Y362510D01*
X259825Y355040D01*
G37*
G36*
X234425Y355040D02*
X229160Y349775D01*
X221690Y349775D01*
X216425Y355040D01*
X216425Y362510D01*
X221690Y367775D01*
X229160Y367775D01*
X234425Y362510D01*
X234425Y355040D01*
G37*
G36*
X145525Y355040D02*
X140260Y349775D01*
X132790Y349775D01*
X127525Y355040D01*
X127525Y362510D01*
X132790Y367775D01*
X140260Y367775D01*
X145525Y362510D01*
X145525Y355040D01*
G37*
G36*
X259825Y355040D02*
X254560Y349775D01*
X247090Y349775D01*
X241825Y355040D01*
X241825Y362510D01*
X247090Y367775D01*
X254560Y367775D01*
X259825Y362510D01*
X259825Y355040D01*
G37*
G36*
X76725Y403785D02*
X81990Y409050D01*
X89460Y409050D01*
X94725Y403785D01*
X94725Y396315D01*
X89460Y391050D01*
X81990Y391050D01*
X76725Y396315D01*
X76725Y403785D01*
G37*
X276225Y390525D02*
G54D17*
D03*
X251222Y390525D02*
G54D17*
D03*
X231378Y390525D02*
G54D17*
D03*
X206375Y390525D02*
G54D17*
D03*
G36*
X326983Y409212D02*
X315283Y397512D01*
X298683Y397512D01*
X286983Y409212D01*
X286983Y425812D01*
X298683Y437512D01*
X315283Y437512D01*
X326983Y425812D01*
X326983Y409212D01*
G37*
G36*
X195419Y409212D02*
X183719Y397512D01*
X167119Y397512D01*
X155419Y409212D01*
X155419Y425812D01*
X167119Y437512D01*
X183719Y437512D01*
X195419Y425812D01*
X195419Y409212D01*
G37*
X161925Y498475D02*
G54D18*
D03*
X161925Y473075D02*
G54D18*
D03*
X187325Y85725D02*
G54D17*
D03*
X187325Y111125D02*
G54D17*
D03*
X187325Y111125D02*
G54D17*
D03*
X34925Y85725D02*
G54D17*
D03*
X34925Y111125D02*
G54D17*
D03*
X34925Y111125D02*
G54D17*
D03*
G54D19*
X34925Y263525D02*
X66675Y263525D01*
X85725Y282575D01*
X85725Y400050D01*
G54D19*
X34925Y352425D02*
X85725Y352425D01*
X193675Y180975D02*
G54D18*
D03*
X219075Y180975D02*
G54D18*
D03*
G54D19*
X225425Y358775D02*
X225425Y333375D01*
X212725Y320675D01*
X88900Y320675D01*
X85725Y317500D01*
X111125Y85725D02*
G54D17*
D03*
X111125Y111125D02*
G54D17*
D03*
X111125Y111125D02*
G54D17*
D03*
X323850Y473075D02*
G54D20*
D03*
X320675Y469900D02*
G54D20*
D03*
X317500Y466725D02*
G54D20*
D03*
X314325Y463550D02*
G54D20*
D03*
X323850Y479425D02*
G54D20*
D03*
X320675Y482600D02*
G54D20*
D03*
X317500Y485775D02*
G54D20*
D03*
X314325Y488950D02*
G54D20*
D03*
X311150Y492125D02*
G54D20*
D03*
X311150Y460375D02*
G54D20*
D03*
X307975Y457200D02*
G54D20*
D03*
X304800Y454025D02*
G54D20*
D03*
X301625Y450850D02*
G54D20*
D03*
X295275Y450850D02*
G54D20*
D03*
X292100Y454025D02*
G54D20*
D03*
X288925Y457200D02*
G54D20*
D03*
X285750Y460375D02*
G54D20*
D03*
X282575Y463550D02*
G54D20*
D03*
X279400Y466725D02*
G54D20*
D03*
X276225Y469900D02*
G54D20*
D03*
X273050Y473075D02*
G54D20*
D03*
X269875Y476250D02*
G54D20*
D03*
X307975Y495300D02*
G54D20*
D03*
X304800Y498475D02*
G54D20*
D03*
X301625Y501650D02*
G54D20*
D03*
X298450Y504825D02*
G54D20*
D03*
X282575Y501650D02*
G54D20*
D03*
X273050Y492125D02*
G54D20*
D03*
X269875Y495300D02*
G54D20*
D03*
X279400Y504825D02*
G54D20*
D03*
X279400Y511175D02*
G54D20*
D03*
X276225Y514350D02*
G54D20*
D03*
X273050Y511175D02*
G54D20*
D03*
X269875Y508000D02*
G54D20*
D03*
X266700Y504825D02*
G54D20*
D03*
X263525Y501650D02*
G54D20*
D03*
X260350Y498475D02*
G54D20*
D03*
X263525Y495300D02*
G54D20*
D03*
X314325Y482600D02*
G54D20*
D03*
X311150Y482600D02*
G54D20*
D03*
X307975Y485775D02*
G54D20*
D03*
X304800Y482600D02*
G54D20*
D03*
X301625Y482600D02*
G54D20*
D03*
X298450Y482600D02*
G54D20*
D03*
X295275Y479425D02*
G54D20*
D03*
X292100Y479425D02*
G54D20*
D03*
X288925Y482600D02*
G54D20*
D03*
X285750Y482600D02*
G54D20*
D03*
X282575Y482600D02*
G54D20*
D03*
X279400Y482600D02*
G54D20*
D03*
X276225Y482600D02*
G54D20*
D03*
X273050Y479425D02*
G54D20*
D03*
X257175Y508000D02*
G54D20*
D03*
X257175Y504825D02*
G54D20*
D03*
X257175Y501650D02*
G54D20*
D03*
X254000Y501650D02*
G54D20*
D03*
X254000Y508000D02*
G54D20*
D03*
X250825Y508000D02*
G54D20*
D03*
X250825Y511175D02*
G54D20*
D03*
X250825Y514350D02*
G54D20*
D03*
X247650Y514350D02*
G54D20*
D03*
X244475Y514350D02*
G54D20*
D03*
X244475Y511175D02*
G54D20*
D03*
X244475Y508000D02*
G54D20*
D03*
X241300Y508000D02*
G54D20*
D03*
X238125Y508000D02*
G54D20*
D03*
X238125Y504825D02*
G54D20*
D03*
X238125Y501650D02*
G54D20*
D03*
X241300Y501650D02*
G54D20*
D03*
X244475Y501650D02*
G54D20*
D03*
X250825Y501650D02*
G54D20*
D03*
X250825Y498475D02*
G54D20*
D03*
X250825Y495300D02*
G54D20*
D03*
X247650Y495300D02*
G54D20*
D03*
X244475Y495300D02*
G54D20*
D03*
X244475Y498475D02*
G54D20*
D03*
X295275Y508000D02*
G54D20*
D03*
X288925Y508000D02*
G54D20*
D03*
X285750Y504825D02*
G54D20*
D03*
X269875Y488950D02*
G54D20*
D03*
X266700Y485775D02*
G54D20*
D03*
X266700Y479425D02*
G54D20*
D03*
X269875Y469900D02*
G54D20*
D03*
X266700Y469900D02*
G54D20*
D03*
X263525Y469900D02*
G54D20*
D03*
X260350Y469900D02*
G54D20*
D03*
X257175Y469900D02*
G54D20*
D03*
X263525Y466725D02*
G54D20*
D03*
X263525Y463550D02*
G54D20*
D03*
X263525Y460375D02*
G54D20*
D03*
X263525Y457200D02*
G54D20*
D03*
X263525Y454025D02*
G54D20*
D03*
X266700Y450850D02*
G54D20*
D03*
X269875Y450850D02*
G54D20*
D03*
X273050Y454025D02*
G54D20*
D03*
X254000Y450850D02*
G54D20*
D03*
X250825Y454025D02*
G54D20*
D03*
X250825Y457200D02*
G54D20*
D03*
X250825Y460375D02*
G54D20*
D03*
X250825Y463550D02*
G54D20*
D03*
X247650Y450850D02*
G54D20*
D03*
X244475Y450850D02*
G54D20*
D03*
X241300Y450850D02*
G54D20*
D03*
X241300Y454025D02*
G54D20*
D03*
X241300Y457200D02*
G54D20*
D03*
X241300Y460375D02*
G54D20*
D03*
X241300Y463550D02*
G54D20*
D03*
X234950Y466725D02*
G54D20*
D03*
X234950Y460375D02*
G54D20*
D03*
X234950Y457200D02*
G54D20*
D03*
X234950Y454025D02*
G54D20*
D03*
X234950Y450850D02*
G54D20*
D03*
X228600Y454025D02*
G54D20*
D03*
X228600Y457200D02*
G54D20*
D03*
X228600Y460375D02*
G54D20*
D03*
X225425Y463550D02*
G54D20*
D03*
X222250Y463550D02*
G54D20*
D03*
X225425Y450850D02*
G54D20*
D03*
X222250Y450850D02*
G54D20*
D03*
X219075Y450850D02*
G54D20*
D03*
X219075Y463550D02*
G54D20*
D03*
X212725Y454025D02*
G54D20*
D03*
X212725Y457200D02*
G54D20*
D03*
X212725Y460375D02*
G54D20*
D03*
X209550Y463550D02*
G54D20*
D03*
X206375Y463550D02*
G54D20*
D03*
X203200Y463550D02*
G54D20*
D03*
X209550Y450850D02*
G54D20*
D03*
X206375Y450850D02*
G54D20*
D03*
X203200Y450850D02*
G54D20*
D03*
X200025Y460375D02*
G54D20*
D03*
X200025Y457200D02*
G54D20*
D03*
X203200Y457200D02*
G54D20*
D03*
X206375Y457200D02*
G54D20*
D03*
X209550Y457200D02*
G54D20*
D03*
X301625Y469900D02*
G54D20*
D03*
X298450Y466725D02*
G54D20*
D03*
X295275Y469900D02*
G54D20*
D03*
X298450Y473075D02*
G54D20*
D03*
X288925Y466725D02*
G54D20*
D03*
X311150Y476250D02*
G54D20*
D03*
X282575Y476250D02*
G54D20*
D03*
X298450Y457200D02*
G54D20*
D03*
X314325Y473075D02*
G54D20*
D03*
X254000Y488950D02*
G54D20*
D03*
X250825Y488950D02*
G54D20*
D03*
X247650Y488950D02*
G54D20*
D03*
X244475Y488950D02*
G54D20*
D03*
X241300Y488950D02*
G54D20*
D03*
X241300Y485775D02*
G54D20*
D03*
X241300Y482600D02*
G54D20*
D03*
X244475Y479425D02*
G54D20*
D03*
X247650Y476250D02*
G54D20*
D03*
X250825Y473075D02*
G54D20*
D03*
X238125Y495300D02*
G54D20*
D03*
X238125Y492125D02*
G54D20*
D03*
X234950Y492125D02*
G54D20*
D03*
X234950Y495300D02*
G54D20*
D03*
X231775Y488950D02*
G54D20*
D03*
X228600Y488950D02*
G54D20*
D03*
X225425Y488950D02*
G54D20*
D03*
X222250Y488950D02*
G54D20*
D03*
X219075Y488950D02*
G54D20*
D03*
X231775Y482600D02*
G54D20*
D03*
X228600Y482600D02*
G54D20*
D03*
X225425Y482600D02*
G54D20*
D03*
X222250Y482600D02*
G54D20*
D03*
X219075Y482600D02*
G54D20*
D03*
X219075Y479425D02*
G54D20*
D03*
X222250Y476250D02*
G54D20*
D03*
X225425Y473075D02*
G54D20*
D03*
X231775Y473075D02*
G54D20*
D03*
X228600Y473075D02*
G54D20*
D03*
X212725Y488950D02*
G54D20*
D03*
X209550Y488950D02*
G54D20*
D03*
X206375Y488950D02*
G54D20*
D03*
X203200Y488950D02*
G54D20*
D03*
X200025Y488950D02*
G54D20*
D03*
X200025Y485775D02*
G54D20*
D03*
X203200Y482600D02*
G54D20*
D03*
X206375Y479425D02*
G54D20*
D03*
X209550Y476250D02*
G54D20*
D03*
X212725Y473075D02*
G54D20*
D03*
X203200Y476250D02*
G54D20*
D03*
X200025Y473075D02*
G54D20*
D03*
X292100Y501650D02*
G54D20*
D03*
X295275Y498475D02*
G54D20*
D03*
G54D21*
X225933Y502919D02*
X223933Y501808D01*
X223267Y500697D01*
X223267Y498475D01*
G54D21*
X228600Y498475D02*
X228600Y507364D01*
X225267Y507364D01*
X223933Y506808D01*
X223267Y505697D01*
X223267Y504586D01*
X223933Y503475D01*
X225267Y502919D01*
X228600Y502919D01*
G54D21*
X216823Y499031D02*
X217890Y498475D01*
X219223Y498475D01*
X220556Y499031D01*
X220823Y500142D01*
X220823Y502031D01*
X220156Y503142D01*
X218823Y503475D01*
X217490Y503142D01*
X216823Y502364D01*
X216823Y501253D01*
X220823Y501253D01*
G54D21*
X214379Y503475D02*
X211712Y498475D01*
X209046Y503475D01*
G54D21*
X206602Y498475D02*
X206602Y498475D01*
G54D21*
X204158Y504031D02*
X200825Y507364D01*
X200825Y498475D01*
G54D21*
X198381Y498475D02*
X198381Y498475D01*
G54D21*
X190604Y505697D02*
X190604Y500142D01*
X191270Y499031D01*
X192604Y498475D01*
X193937Y498475D01*
X195270Y499031D01*
X195937Y500142D01*
X195937Y505697D01*
X195270Y506808D01*
X193937Y507364D01*
X192604Y507364D01*
X191270Y506808D01*
X190604Y505697D01*
G54D19*
X111125Y358775D02*
X85725Y358775D01*
X276225Y180975D02*
G54D18*
D03*
X298455Y180975D02*
G54D18*
D03*
G36*
X469025Y466850D02*
X460250Y458075D01*
X447800Y458075D01*
X439025Y466850D01*
X439025Y479300D01*
X447800Y488075D01*
X460250Y488075D01*
X469025Y479300D01*
X469025Y466850D01*
G37*
G36*
X418225Y466850D02*
X409450Y458075D01*
X397000Y458075D01*
X388225Y466850D01*
X388225Y479300D01*
X397000Y488075D01*
X409450Y488075D01*
X418225Y479300D01*
X418225Y466850D01*
G37*
X365125Y352425D02*
G54D17*
D03*
X365125Y377825D02*
G54D17*
D03*
X365125Y263525D02*
G54D17*
D03*
X365125Y288925D02*
G54D17*
D03*
X365125Y174625D02*
G54D17*
D03*
X365125Y200025D02*
G54D17*
D03*
G36*
X388225Y479300D02*
X397000Y488075D01*
X409450Y488075D01*
X418225Y479300D01*
X418225Y466850D01*
X409450Y458075D01*
X397000Y458075D01*
X388225Y466850D01*
X388225Y479300D01*
G37*
X365125Y377825D02*
G54D17*
D03*
X365125Y288925D02*
G54D17*
D03*
X365125Y200025D02*
G54D17*
D03*
X536575Y390525D02*
G54D17*
D03*
G36*
X501125Y355040D02*
X495860Y349775D01*
X488390Y349775D01*
X483125Y355040D01*
X483125Y362510D01*
X488390Y367775D01*
X495860Y367775D01*
X501125Y362510D01*
X501125Y355040D01*
G37*
G36*
X475725Y355040D02*
X470460Y349775D01*
X462990Y349775D01*
X457725Y355040D01*
X457725Y362510D01*
X462990Y367775D01*
X470460Y367775D01*
X475725Y362510D01*
X475725Y355040D01*
G37*
G36*
X450325Y355040D02*
X445060Y349775D01*
X437590Y349775D01*
X432325Y355040D01*
X432325Y362510D01*
X437590Y367775D01*
X445060Y367775D01*
X450325Y362510D01*
X450325Y355040D01*
G37*
G36*
X615425Y355040D02*
X610160Y349775D01*
X602690Y349775D01*
X597425Y355040D01*
X597425Y362510D01*
X602690Y367775D01*
X610160Y367775D01*
X615425Y362510D01*
X615425Y355040D01*
G37*
G36*
X590025Y355040D02*
X584760Y349775D01*
X577290Y349775D01*
X572025Y355040D01*
X572025Y362510D01*
X577290Y367775D01*
X584760Y367775D01*
X590025Y362510D01*
X590025Y355040D01*
G37*
G36*
X564625Y355040D02*
X559360Y349775D01*
X551890Y349775D01*
X546625Y355040D01*
X546625Y362510D01*
X551890Y367775D01*
X559360Y367775D01*
X564625Y362510D01*
X564625Y355040D01*
G37*
G36*
X475725Y355040D02*
X470460Y349775D01*
X462990Y349775D01*
X457725Y355040D01*
X457725Y362510D01*
X462990Y367775D01*
X470460Y367775D01*
X475725Y362510D01*
X475725Y355040D01*
G37*
G36*
X590025Y355040D02*
X584760Y349775D01*
X577290Y349775D01*
X572025Y355040D01*
X572025Y362510D01*
X577290Y367775D01*
X584760Y367775D01*
X590025Y362510D01*
X590025Y355040D01*
G37*
G36*
X406925Y403785D02*
X412190Y409050D01*
X419660Y409050D01*
X424925Y403785D01*
X424925Y396315D01*
X419660Y391050D01*
X412190Y391050D01*
X406925Y396315D01*
X406925Y403785D01*
G37*
X606425Y390525D02*
G54D17*
D03*
X581422Y390525D02*
G54D17*
D03*
X561578Y390525D02*
G54D17*
D03*
X536575Y390525D02*
G54D17*
D03*
G36*
X657183Y409212D02*
X645483Y397512D01*
X628883Y397512D01*
X617183Y409212D01*
X617183Y425812D01*
X628883Y437512D01*
X645483Y437512D01*
X657183Y425812D01*
X657183Y409212D01*
G37*
G36*
X525619Y409212D02*
X513919Y397512D01*
X497319Y397512D01*
X485619Y409212D01*
X485619Y425812D01*
X497319Y437512D01*
X513919Y437512D01*
X525619Y425812D01*
X525619Y409212D01*
G37*
X492125Y498475D02*
G54D18*
D03*
X492125Y473075D02*
G54D18*
D03*
X517525Y85725D02*
G54D17*
D03*
X517525Y111125D02*
G54D17*
D03*
X517525Y111125D02*
G54D17*
D03*
X365125Y85725D02*
G54D17*
D03*
X365125Y111125D02*
G54D17*
D03*
X365125Y111125D02*
G54D17*
D03*
G54D19*
X365125Y263525D02*
X396875Y263525D01*
X415925Y282575D01*
X415925Y400050D01*
G54D19*
X365125Y352425D02*
X415925Y352425D01*
X523875Y180975D02*
G54D18*
D03*
X549275Y180975D02*
G54D18*
D03*
G54D19*
X555625Y358775D02*
X555625Y333375D01*
X542925Y320675D01*
X419100Y320675D01*
X415925Y317500D01*
X441325Y85725D02*
G54D17*
D03*
X441325Y111125D02*
G54D17*
D03*
X441325Y111125D02*
G54D17*
D03*
X654050Y473075D02*
G54D20*
D03*
X650875Y469900D02*
G54D20*
D03*
X647700Y466725D02*
G54D20*
D03*
X644525Y463550D02*
G54D20*
D03*
X654050Y479425D02*
G54D20*
D03*
X650875Y482600D02*
G54D20*
D03*
X647700Y485775D02*
G54D20*
D03*
X644525Y488950D02*
G54D20*
D03*
X641350Y492125D02*
G54D20*
D03*
X641350Y460375D02*
G54D20*
D03*
X638175Y457200D02*
G54D20*
D03*
X635000Y454025D02*
G54D20*
D03*
X631825Y450850D02*
G54D20*
D03*
X625475Y450850D02*
G54D20*
D03*
X622300Y454025D02*
G54D20*
D03*
X619125Y457200D02*
G54D20*
D03*
X615950Y460375D02*
G54D20*
D03*
X612775Y463550D02*
G54D20*
D03*
X609600Y466725D02*
G54D20*
D03*
X606425Y469900D02*
G54D20*
D03*
X603250Y473075D02*
G54D20*
D03*
X600075Y476250D02*
G54D20*
D03*
X638175Y495300D02*
G54D20*
D03*
X635000Y498475D02*
G54D20*
D03*
X631825Y501650D02*
G54D20*
D03*
X628650Y504825D02*
G54D20*
D03*
X612775Y501650D02*
G54D20*
D03*
X603250Y492125D02*
G54D20*
D03*
X600075Y495300D02*
G54D20*
D03*
X609600Y504825D02*
G54D20*
D03*
X609600Y511175D02*
G54D20*
D03*
X606425Y514350D02*
G54D20*
D03*
X603250Y511175D02*
G54D20*
D03*
X600075Y508000D02*
G54D20*
D03*
X596900Y504825D02*
G54D20*
D03*
X593725Y501650D02*
G54D20*
D03*
X590550Y498475D02*
G54D20*
D03*
X593725Y495300D02*
G54D20*
D03*
X644525Y482600D02*
G54D20*
D03*
X641350Y482600D02*
G54D20*
D03*
X638175Y485775D02*
G54D20*
D03*
X635000Y482600D02*
G54D20*
D03*
X631825Y482600D02*
G54D20*
D03*
X628650Y482600D02*
G54D20*
D03*
X625475Y479425D02*
G54D20*
D03*
X622300Y479425D02*
G54D20*
D03*
X619125Y482600D02*
G54D20*
D03*
X615950Y482600D02*
G54D20*
D03*
X612775Y482600D02*
G54D20*
D03*
X609600Y482600D02*
G54D20*
D03*
X606425Y482600D02*
G54D20*
D03*
X603250Y479425D02*
G54D20*
D03*
X587375Y508000D02*
G54D20*
D03*
X587375Y504825D02*
G54D20*
D03*
X587375Y501650D02*
G54D20*
D03*
X584200Y501650D02*
G54D20*
D03*
X584200Y508000D02*
G54D20*
D03*
X581025Y508000D02*
G54D20*
D03*
X581025Y511175D02*
G54D20*
D03*
X581025Y514350D02*
G54D20*
D03*
X577850Y514350D02*
G54D20*
D03*
X574675Y514350D02*
G54D20*
D03*
X574675Y511175D02*
G54D20*
D03*
X574675Y508000D02*
G54D20*
D03*
X571500Y508000D02*
G54D20*
D03*
X568325Y508000D02*
G54D20*
D03*
X568325Y504825D02*
G54D20*
D03*
X568325Y501650D02*
G54D20*
D03*
X571500Y501650D02*
G54D20*
D03*
X574675Y501650D02*
G54D20*
D03*
X581025Y501650D02*
G54D20*
D03*
X581025Y498475D02*
G54D20*
D03*
X581025Y495300D02*
G54D20*
D03*
X577850Y495300D02*
G54D20*
D03*
X574675Y495300D02*
G54D20*
D03*
X574675Y498475D02*
G54D20*
D03*
X625475Y508000D02*
G54D20*
D03*
X619125Y508000D02*
G54D20*
D03*
X615950Y504825D02*
G54D20*
D03*
X600075Y488950D02*
G54D20*
D03*
X596900Y485775D02*
G54D20*
D03*
X596900Y479425D02*
G54D20*
D03*
X600075Y469900D02*
G54D20*
D03*
X596900Y469900D02*
G54D20*
D03*
X593725Y469900D02*
G54D20*
D03*
X590550Y469900D02*
G54D20*
D03*
X587375Y469900D02*
G54D20*
D03*
X593725Y466725D02*
G54D20*
D03*
X593725Y463550D02*
G54D20*
D03*
X593725Y460375D02*
G54D20*
D03*
X593725Y457200D02*
G54D20*
D03*
X593725Y454025D02*
G54D20*
D03*
X596900Y450850D02*
G54D20*
D03*
X600075Y450850D02*
G54D20*
D03*
X603250Y454025D02*
G54D20*
D03*
X584200Y450850D02*
G54D20*
D03*
X581025Y454025D02*
G54D20*
D03*
X581025Y457200D02*
G54D20*
D03*
X581025Y460375D02*
G54D20*
D03*
X581025Y463550D02*
G54D20*
D03*
X577850Y450850D02*
G54D20*
D03*
X574675Y450850D02*
G54D20*
D03*
X571500Y450850D02*
G54D20*
D03*
X571500Y454025D02*
G54D20*
D03*
X571500Y457200D02*
G54D20*
D03*
X571500Y460375D02*
G54D20*
D03*
X571500Y463550D02*
G54D20*
D03*
X565150Y466725D02*
G54D20*
D03*
X565150Y460375D02*
G54D20*
D03*
X565150Y457200D02*
G54D20*
D03*
X565150Y454025D02*
G54D20*
D03*
X565150Y450850D02*
G54D20*
D03*
X558800Y454025D02*
G54D20*
D03*
X558800Y457200D02*
G54D20*
D03*
X558800Y460375D02*
G54D20*
D03*
X555625Y463550D02*
G54D20*
D03*
X552450Y463550D02*
G54D20*
D03*
X555625Y450850D02*
G54D20*
D03*
X552450Y450850D02*
G54D20*
D03*
X549275Y450850D02*
G54D20*
D03*
X549275Y463550D02*
G54D20*
D03*
X542925Y454025D02*
G54D20*
D03*
X542925Y457200D02*
G54D20*
D03*
X542925Y460375D02*
G54D20*
D03*
X539750Y463550D02*
G54D20*
D03*
X536575Y463550D02*
G54D20*
D03*
X533400Y463550D02*
G54D20*
D03*
X539750Y450850D02*
G54D20*
D03*
X536575Y450850D02*
G54D20*
D03*
X533400Y450850D02*
G54D20*
D03*
X530225Y460375D02*
G54D20*
D03*
X530225Y457200D02*
G54D20*
D03*
X533400Y457200D02*
G54D20*
D03*
X536575Y457200D02*
G54D20*
D03*
X539750Y457200D02*
G54D20*
D03*
X631825Y469900D02*
G54D20*
D03*
X628650Y466725D02*
G54D20*
D03*
X625475Y469900D02*
G54D20*
D03*
X628650Y473075D02*
G54D20*
D03*
X619125Y466725D02*
G54D20*
D03*
X641350Y476250D02*
G54D20*
D03*
X612775Y476250D02*
G54D20*
D03*
X628650Y457200D02*
G54D20*
D03*
X644525Y473075D02*
G54D20*
D03*
X584200Y488950D02*
G54D20*
D03*
X581025Y488950D02*
G54D20*
D03*
X577850Y488950D02*
G54D20*
D03*
X574675Y488950D02*
G54D20*
D03*
X571500Y488950D02*
G54D20*
D03*
X571500Y485775D02*
G54D20*
D03*
X571500Y482600D02*
G54D20*
D03*
X574675Y479425D02*
G54D20*
D03*
X577850Y476250D02*
G54D20*
D03*
X581025Y473075D02*
G54D20*
D03*
X568325Y495300D02*
G54D20*
D03*
X568325Y492125D02*
G54D20*
D03*
X565150Y492125D02*
G54D20*
D03*
X565150Y495300D02*
G54D20*
D03*
X561975Y488950D02*
G54D20*
D03*
X558800Y488950D02*
G54D20*
D03*
X555625Y488950D02*
G54D20*
D03*
X552450Y488950D02*
G54D20*
D03*
X549275Y488950D02*
G54D20*
D03*
X561975Y482600D02*
G54D20*
D03*
X558800Y482600D02*
G54D20*
D03*
X555625Y482600D02*
G54D20*
D03*
X552450Y482600D02*
G54D20*
D03*
X549275Y482600D02*
G54D20*
D03*
X549275Y479425D02*
G54D20*
D03*
X552450Y476250D02*
G54D20*
D03*
X555625Y473075D02*
G54D20*
D03*
X561975Y473075D02*
G54D20*
D03*
X558800Y473075D02*
G54D20*
D03*
X542925Y488950D02*
G54D20*
D03*
X539750Y488950D02*
G54D20*
D03*
X536575Y488950D02*
G54D20*
D03*
X533400Y488950D02*
G54D20*
D03*
X530225Y488950D02*
G54D20*
D03*
X530225Y485775D02*
G54D20*
D03*
X533400Y482600D02*
G54D20*
D03*
X536575Y479425D02*
G54D20*
D03*
X539750Y476250D02*
G54D20*
D03*
X542925Y473075D02*
G54D20*
D03*
X533400Y476250D02*
G54D20*
D03*
X530225Y473075D02*
G54D20*
D03*
X622300Y501650D02*
G54D20*
D03*
X625475Y498475D02*
G54D20*
D03*
G54D21*
X556133Y502919D02*
X554133Y501808D01*
X553467Y500697D01*
X553467Y498475D01*
G54D21*
X558800Y498475D02*
X558800Y507364D01*
X555467Y507364D01*
X554133Y506808D01*
X553467Y505697D01*
X553467Y504586D01*
X554133Y503475D01*
X555467Y502919D01*
X558800Y502919D01*
G54D21*
X547023Y499031D02*
X548090Y498475D01*
X549423Y498475D01*
X550756Y499031D01*
X551023Y500142D01*
X551023Y502031D01*
X550356Y503142D01*
X549023Y503475D01*
X547690Y503142D01*
X547023Y502364D01*
X547023Y501253D01*
X551023Y501253D01*
G54D21*
X544579Y503475D02*
X541912Y498475D01*
X539246Y503475D01*
G54D21*
X536802Y498475D02*
X536802Y498475D01*
G54D21*
X534358Y504031D02*
X531025Y507364D01*
X531025Y498475D01*
G54D21*
X528581Y498475D02*
X528581Y498475D01*
G54D21*
X520804Y505697D02*
X520804Y500142D01*
X521470Y499031D01*
X522804Y498475D01*
X524137Y498475D01*
X525470Y499031D01*
X526137Y500142D01*
X526137Y505697D01*
X525470Y506808D01*
X524137Y507364D01*
X522804Y507364D01*
X521470Y506808D01*
X520804Y505697D01*
G54D19*
X441325Y358775D02*
X415925Y358775D01*
X606425Y180975D02*
G54D18*
D03*
X628655Y180975D02*
G54D18*
D03*
G36*
X799225Y466850D02*
X790450Y458075D01*
X778000Y458075D01*
X769225Y466850D01*
X769225Y479300D01*
X778000Y488075D01*
X790450Y488075D01*
X799225Y479300D01*
X799225Y466850D01*
G37*
G36*
X748425Y466850D02*
X739650Y458075D01*
X727200Y458075D01*
X718425Y466850D01*
X718425Y479300D01*
X727200Y488075D01*
X739650Y488075D01*
X748425Y479300D01*
X748425Y466850D01*
G37*
X695325Y352425D02*
G54D17*
D03*
X695325Y377825D02*
G54D17*
D03*
X695325Y263525D02*
G54D17*
D03*
X695325Y288925D02*
G54D17*
D03*
X695325Y174625D02*
G54D17*
D03*
X695325Y200025D02*
G54D17*
D03*
G36*
X718425Y479300D02*
X727200Y488075D01*
X739650Y488075D01*
X748425Y479300D01*
X748425Y466850D01*
X739650Y458075D01*
X727200Y458075D01*
X718425Y466850D01*
X718425Y479300D01*
G37*
X695325Y377825D02*
G54D17*
D03*
X695325Y288925D02*
G54D17*
D03*
X695325Y200025D02*
G54D17*
D03*
X866775Y390525D02*
G54D17*
D03*
G36*
X831325Y355040D02*
X826060Y349775D01*
X818590Y349775D01*
X813325Y355040D01*
X813325Y362510D01*
X818590Y367775D01*
X826060Y367775D01*
X831325Y362510D01*
X831325Y355040D01*
G37*
G36*
X805925Y355040D02*
X800660Y349775D01*
X793190Y349775D01*
X787925Y355040D01*
X787925Y362510D01*
X793190Y367775D01*
X800660Y367775D01*
X805925Y362510D01*
X805925Y355040D01*
G37*
G36*
X780525Y355040D02*
X775260Y349775D01*
X767790Y349775D01*
X762525Y355040D01*
X762525Y362510D01*
X767790Y367775D01*
X775260Y367775D01*
X780525Y362510D01*
X780525Y355040D01*
G37*
G36*
X945625Y355040D02*
X940360Y349775D01*
X932890Y349775D01*
X927625Y355040D01*
X927625Y362510D01*
X932890Y367775D01*
X940360Y367775D01*
X945625Y362510D01*
X945625Y355040D01*
G37*
G36*
X920225Y355040D02*
X914960Y349775D01*
X907490Y349775D01*
X902225Y355040D01*
X902225Y362510D01*
X907490Y367775D01*
X914960Y367775D01*
X920225Y362510D01*
X920225Y355040D01*
G37*
G36*
X894825Y355040D02*
X889560Y349775D01*
X882090Y349775D01*
X876825Y355040D01*
X876825Y362510D01*
X882090Y367775D01*
X889560Y367775D01*
X894825Y362510D01*
X894825Y355040D01*
G37*
G36*
X805925Y355040D02*
X800660Y349775D01*
X793190Y349775D01*
X787925Y355040D01*
X787925Y362510D01*
X793190Y367775D01*
X800660Y367775D01*
X805925Y362510D01*
X805925Y355040D01*
G37*
G36*
X920225Y355040D02*
X914960Y349775D01*
X907490Y349775D01*
X902225Y355040D01*
X902225Y362510D01*
X907490Y367775D01*
X914960Y367775D01*
X920225Y362510D01*
X920225Y355040D01*
G37*
G36*
X737125Y403785D02*
X742390Y409050D01*
X749860Y409050D01*
X755125Y403785D01*
X755125Y396315D01*
X749860Y391050D01*
X742390Y391050D01*
X737125Y396315D01*
X737125Y403785D01*
G37*
X936625Y390525D02*
G54D17*
D03*
X911622Y390525D02*
G54D17*
D03*
X891778Y390525D02*
G54D17*
D03*
X866775Y390525D02*
G54D17*
D03*
G36*
X987383Y409212D02*
X975683Y397512D01*
X959083Y397512D01*
X947383Y409212D01*
X947383Y425812D01*
X959083Y437512D01*
X975683Y437512D01*
X987383Y425812D01*
X987383Y409212D01*
G37*
G36*
X855819Y409212D02*
X844119Y397512D01*
X827519Y397512D01*
X815819Y409212D01*
X815819Y425812D01*
X827519Y437512D01*
X844119Y437512D01*
X855819Y425812D01*
X855819Y409212D01*
G37*
X822325Y498475D02*
G54D18*
D03*
X822325Y473075D02*
G54D18*
D03*
X847725Y85725D02*
G54D17*
D03*
X847725Y111125D02*
G54D17*
D03*
X847725Y111125D02*
G54D17*
D03*
X695325Y85725D02*
G54D17*
D03*
X695325Y111125D02*
G54D17*
D03*
X695325Y111125D02*
G54D17*
D03*
G54D19*
X695325Y263525D02*
X727075Y263525D01*
X746125Y282575D01*
X746125Y400050D01*
G54D19*
X695325Y352425D02*
X746125Y352425D01*
X854075Y180975D02*
G54D18*
D03*
X879475Y180975D02*
G54D18*
D03*
G54D19*
X885825Y358775D02*
X885825Y333375D01*
X873125Y320675D01*
X749300Y320675D01*
X746125Y317500D01*
X771525Y85725D02*
G54D17*
D03*
X771525Y111125D02*
G54D17*
D03*
X771525Y111125D02*
G54D17*
D03*
X984250Y473075D02*
G54D20*
D03*
X981075Y469900D02*
G54D20*
D03*
X977900Y466725D02*
G54D20*
D03*
X974725Y463550D02*
G54D20*
D03*
X984250Y479425D02*
G54D20*
D03*
X981075Y482600D02*
G54D20*
D03*
X977900Y485775D02*
G54D20*
D03*
X974725Y488950D02*
G54D20*
D03*
X971550Y492125D02*
G54D20*
D03*
X971550Y460375D02*
G54D20*
D03*
X968375Y457200D02*
G54D20*
D03*
X965200Y454025D02*
G54D20*
D03*
X962025Y450850D02*
G54D20*
D03*
X955675Y450850D02*
G54D20*
D03*
X952500Y454025D02*
G54D20*
D03*
X949325Y457200D02*
G54D20*
D03*
X946150Y460375D02*
G54D20*
D03*
X942975Y463550D02*
G54D20*
D03*
X939800Y466725D02*
G54D20*
D03*
X936625Y469900D02*
G54D20*
D03*
X933450Y473075D02*
G54D20*
D03*
X930275Y476250D02*
G54D20*
D03*
X968375Y495300D02*
G54D20*
D03*
X965200Y498475D02*
G54D20*
D03*
X962025Y501650D02*
G54D20*
D03*
X958850Y504825D02*
G54D20*
D03*
X942975Y501650D02*
G54D20*
D03*
X933450Y492125D02*
G54D20*
D03*
X930275Y495300D02*
G54D20*
D03*
X939800Y504825D02*
G54D20*
D03*
X939800Y511175D02*
G54D20*
D03*
X936625Y514350D02*
G54D20*
D03*
X933450Y511175D02*
G54D20*
D03*
X930275Y508000D02*
G54D20*
D03*
X927100Y504825D02*
G54D20*
D03*
X923925Y501650D02*
G54D20*
D03*
X920750Y498475D02*
G54D20*
D03*
X923925Y495300D02*
G54D20*
D03*
X974725Y482600D02*
G54D20*
D03*
X971550Y482600D02*
G54D20*
D03*
X968375Y485775D02*
G54D20*
D03*
X965200Y482600D02*
G54D20*
D03*
X962025Y482600D02*
G54D20*
D03*
X958850Y482600D02*
G54D20*
D03*
X955675Y479425D02*
G54D20*
D03*
X952500Y479425D02*
G54D20*
D03*
X949325Y482600D02*
G54D20*
D03*
X946150Y482600D02*
G54D20*
D03*
X942975Y482600D02*
G54D20*
D03*
X939800Y482600D02*
G54D20*
D03*
X936625Y482600D02*
G54D20*
D03*
X933450Y479425D02*
G54D20*
D03*
X917575Y508000D02*
G54D20*
D03*
X917575Y504825D02*
G54D20*
D03*
X917575Y501650D02*
G54D20*
D03*
X914400Y501650D02*
G54D20*
D03*
X914400Y508000D02*
G54D20*
D03*
X911225Y508000D02*
G54D20*
D03*
X911225Y511175D02*
G54D20*
D03*
X911225Y514350D02*
G54D20*
D03*
X908050Y514350D02*
G54D20*
D03*
X904875Y514350D02*
G54D20*
D03*
X904875Y511175D02*
G54D20*
D03*
X904875Y508000D02*
G54D20*
D03*
X901700Y508000D02*
G54D20*
D03*
X898525Y508000D02*
G54D20*
D03*
X898525Y504825D02*
G54D20*
D03*
X898525Y501650D02*
G54D20*
D03*
X901700Y501650D02*
G54D20*
D03*
X904875Y501650D02*
G54D20*
D03*
X911225Y501650D02*
G54D20*
D03*
X911225Y498475D02*
G54D20*
D03*
X911225Y495300D02*
G54D20*
D03*
X908050Y495300D02*
G54D20*
D03*
X904875Y495300D02*
G54D20*
D03*
X904875Y498475D02*
G54D20*
D03*
X955675Y508000D02*
G54D20*
D03*
X949325Y508000D02*
G54D20*
D03*
X946150Y504825D02*
G54D20*
D03*
X930275Y488950D02*
G54D20*
D03*
X927100Y485775D02*
G54D20*
D03*
X927100Y479425D02*
G54D20*
D03*
X930275Y469900D02*
G54D20*
D03*
X927100Y469900D02*
G54D20*
D03*
X923925Y469900D02*
G54D20*
D03*
X920750Y469900D02*
G54D20*
D03*
X917575Y469900D02*
G54D20*
D03*
X923925Y466725D02*
G54D20*
D03*
X923925Y463550D02*
G54D20*
D03*
X923925Y460375D02*
G54D20*
D03*
X923925Y457200D02*
G54D20*
D03*
X923925Y454025D02*
G54D20*
D03*
X927100Y450850D02*
G54D20*
D03*
X930275Y450850D02*
G54D20*
D03*
X933450Y454025D02*
G54D20*
D03*
X914400Y450850D02*
G54D20*
D03*
X911225Y454025D02*
G54D20*
D03*
X911225Y457200D02*
G54D20*
D03*
X911225Y460375D02*
G54D20*
D03*
X911225Y463550D02*
G54D20*
D03*
X908050Y450850D02*
G54D20*
D03*
X904875Y450850D02*
G54D20*
D03*
X901700Y450850D02*
G54D20*
D03*
X901700Y454025D02*
G54D20*
D03*
X901700Y457200D02*
G54D20*
D03*
X901700Y460375D02*
G54D20*
D03*
X901700Y463550D02*
G54D20*
D03*
X895350Y466725D02*
G54D20*
D03*
X895350Y460375D02*
G54D20*
D03*
X895350Y457200D02*
G54D20*
D03*
X895350Y454025D02*
G54D20*
D03*
X895350Y450850D02*
G54D20*
D03*
X889000Y454025D02*
G54D20*
D03*
X889000Y457200D02*
G54D20*
D03*
X889000Y460375D02*
G54D20*
D03*
X885825Y463550D02*
G54D20*
D03*
X882650Y463550D02*
G54D20*
D03*
X885825Y450850D02*
G54D20*
D03*
X882650Y450850D02*
G54D20*
D03*
X879475Y450850D02*
G54D20*
D03*
X879475Y463550D02*
G54D20*
D03*
X873125Y454025D02*
G54D20*
D03*
X873125Y457200D02*
G54D20*
D03*
X873125Y460375D02*
G54D20*
D03*
X869950Y463550D02*
G54D20*
D03*
X866775Y463550D02*
G54D20*
D03*
X863600Y463550D02*
G54D20*
D03*
X869950Y450850D02*
G54D20*
D03*
X866775Y450850D02*
G54D20*
D03*
X863600Y450850D02*
G54D20*
D03*
X860425Y460375D02*
G54D20*
D03*
X860425Y457200D02*
G54D20*
D03*
X863600Y457200D02*
G54D20*
D03*
X866775Y457200D02*
G54D20*
D03*
X869950Y457200D02*
G54D20*
D03*
X962025Y469900D02*
G54D20*
D03*
X958850Y466725D02*
G54D20*
D03*
X955675Y469900D02*
G54D20*
D03*
X958850Y473075D02*
G54D20*
D03*
X949325Y466725D02*
G54D20*
D03*
X971550Y476250D02*
G54D20*
D03*
X942975Y476250D02*
G54D20*
D03*
X958850Y457200D02*
G54D20*
D03*
X974725Y473075D02*
G54D20*
D03*
X914400Y488950D02*
G54D20*
D03*
X911225Y488950D02*
G54D20*
D03*
X908050Y488950D02*
G54D20*
D03*
X904875Y488950D02*
G54D20*
D03*
X901700Y488950D02*
G54D20*
D03*
X901700Y485775D02*
G54D20*
D03*
X901700Y482600D02*
G54D20*
D03*
X904875Y479425D02*
G54D20*
D03*
X908050Y476250D02*
G54D20*
D03*
X911225Y473075D02*
G54D20*
D03*
X898525Y495300D02*
G54D20*
D03*
X898525Y492125D02*
G54D20*
D03*
X895350Y492125D02*
G54D20*
D03*
X895350Y495300D02*
G54D20*
D03*
X892175Y488950D02*
G54D20*
D03*
X889000Y488950D02*
G54D20*
D03*
X885825Y488950D02*
G54D20*
D03*
X882650Y488950D02*
G54D20*
D03*
X879475Y488950D02*
G54D20*
D03*
X892175Y482600D02*
G54D20*
D03*
X889000Y482600D02*
G54D20*
D03*
X885825Y482600D02*
G54D20*
D03*
X882650Y482600D02*
G54D20*
D03*
X879475Y482600D02*
G54D20*
D03*
X879475Y479425D02*
G54D20*
D03*
X882650Y476250D02*
G54D20*
D03*
X885825Y473075D02*
G54D20*
D03*
X892175Y473075D02*
G54D20*
D03*
X889000Y473075D02*
G54D20*
D03*
X873125Y488950D02*
G54D20*
D03*
X869950Y488950D02*
G54D20*
D03*
X866775Y488950D02*
G54D20*
D03*
X863600Y488950D02*
G54D20*
D03*
X860425Y488950D02*
G54D20*
D03*
X860425Y485775D02*
G54D20*
D03*
X863600Y482600D02*
G54D20*
D03*
X866775Y479425D02*
G54D20*
D03*
X869950Y476250D02*
G54D20*
D03*
X873125Y473075D02*
G54D20*
D03*
X863600Y476250D02*
G54D20*
D03*
X860425Y473075D02*
G54D20*
D03*
X952500Y501650D02*
G54D20*
D03*
X955675Y498475D02*
G54D20*
D03*
G54D21*
X886333Y502919D02*
X884333Y501808D01*
X883667Y500697D01*
X883667Y498475D01*
G54D21*
X889000Y498475D02*
X889000Y507364D01*
X885667Y507364D01*
X884333Y506808D01*
X883667Y505697D01*
X883667Y504586D01*
X884333Y503475D01*
X885667Y502919D01*
X889000Y502919D01*
G54D21*
X877223Y499031D02*
X878290Y498475D01*
X879623Y498475D01*
X880956Y499031D01*
X881223Y500142D01*
X881223Y502031D01*
X880556Y503142D01*
X879223Y503475D01*
X877890Y503142D01*
X877223Y502364D01*
X877223Y501253D01*
X881223Y501253D01*
G54D21*
X874779Y503475D02*
X872112Y498475D01*
X869446Y503475D01*
G54D21*
X867002Y498475D02*
X867002Y498475D01*
G54D21*
X864558Y504031D02*
X861225Y507364D01*
X861225Y498475D01*
G54D21*
X858781Y498475D02*
X858781Y498475D01*
G54D21*
X851004Y505697D02*
X851004Y500142D01*
X851670Y499031D01*
X853004Y498475D01*
X854337Y498475D01*
X855670Y499031D01*
X856337Y500142D01*
X856337Y505697D01*
X855670Y506808D01*
X854337Y507364D01*
X853004Y507364D01*
X851670Y506808D01*
X851004Y505697D01*
G54D19*
X771525Y358775D02*
X746125Y358775D01*
X936625Y180975D02*
G54D18*
D03*
X958855Y180975D02*
G54D18*
D03*
M02*
