; Drill file
; Format: 2.4 (00.0000)
M48
INCH
T01C0.0315
T02C0.0394
T03C0.126
%
G05
G90
T01
X001440Y-028940
X002440Y-028940
X003440Y-028940
X004440Y-028940
X006690Y-028940
X007690Y-028940
X009940Y-028940
X010940Y-028940
X013190Y-028940
X014190Y-028940
X016440Y-028940
X017440Y-028940
X018190Y-027510
X018190Y-025940
X018690Y-024440
X017690Y-024440
X016690Y-024440
X014440Y-024440
X013440Y-024440
X013190Y-018440
X014190Y-018440
X016440Y-018440
X017440Y-018440
X018190Y-017010
X018190Y-015440
X018690Y-013940
X017690Y-013940
X016690Y-013940
X014440Y-013940
X013440Y-013940
X010940Y-018440
X009940Y-018440
X007690Y-018440
X006690Y-018440
X004440Y-018440
X003440Y-018440
X002440Y-018440
X001440Y-018440
X001440Y-007940
X002440Y-007940
X003440Y-007940
X004440Y-007940
X006690Y-007940
X007690Y-007940
X009940Y-007940
X010940Y-007940
X013190Y-007940
X014190Y-007940
X016440Y-007940
X017440Y-007940
X018190Y-006510
X018190Y-004940
X017690Y-003440
X018690Y-003440
X016690Y-003440
X014440Y-003440
X013440Y-003440
X020940Y-003440
X021940Y-003440
X022940Y-007940
X023940Y-007940
X024940Y-007940
X025940Y-007940
X027690Y-007810
X027690Y-006810
X027690Y-008810
X027690Y-009810
X027690Y-012060
X027690Y-013060
X027690Y-014060
X027690Y-015060
X027690Y-017310
X027690Y-018310
X027690Y-019310
X027690Y-020310
X027690Y-022560
X027690Y-023560
X027690Y-024560
X027690Y-025560
X027690Y-027810
X027690Y-028810
X027690Y-029810
X027690Y-030810
X025940Y-028940
X024940Y-028940
X023940Y-028940
X022940Y-028940
X020690Y-028940
X019690Y-028940
X020940Y-024440
X021940Y-024440
X022940Y-018440
X023940Y-018440
X024940Y-018440
X025940Y-018440
X020690Y-018440
X019690Y-018440
X020940Y-013940
X021940Y-013940
X020690Y-007940
X019690Y-007940
X027690Y-004560
X027690Y-003560
X027690Y-002560
X027690Y-001560
T02
X004940Y-027560
X005940Y-027560
X006940Y-027560
X009190Y-027560
X010190Y-027560
X011190Y-027560
X011190Y-017060
X010190Y-017060
X009190Y-017060
X006940Y-017060
X005940Y-017060
X004940Y-017060
X004940Y-006560
X005940Y-006560
X006940Y-006560
X009190Y-006560
X010190Y-006560
X011190Y-006560
T03
X002060Y-024940
X002060Y-014440
X002060Y-003940
X024560Y-003940
X024560Y-014440
X024560Y-024940
M30
