%FSLAX34Y34*%
%MOMM*%
%LNSILK_TOP*%
G71*
G01*
%ADD10C, 2.80*%
%ADD11C, 8.00*%
%ADD12C, 2.50*%
%ADD13C, 2.60*%
%ADD14C, 2.00*%
%ADD15C, 0.60*%
%ADD16C, 1.80*%
%ADD17C, 7.00*%
%ADD18C, 1.50*%
%ADD19C, 1.00*%
%LPD*%
G36*
X0Y0D02*
X800000Y0D01*
X800000Y-850000D01*
X0Y-850000D01*
X0Y0D01*
G37*
%LPC*%
X703262Y-39688D02*
G54D10*
D03*
X703262Y-65088D02*
G54D10*
D03*
X703262Y-90488D02*
G54D10*
D03*
X703262Y-115888D02*
G54D10*
D03*
X703262Y-173038D02*
G54D10*
D03*
X703262Y-198438D02*
G54D10*
D03*
X703262Y-223838D02*
G54D10*
D03*
X703262Y-249238D02*
G54D10*
D03*
X525462Y-201612D02*
G54D10*
D03*
X500062Y-201612D02*
G54D10*
D03*
X531812Y-87312D02*
G54D10*
D03*
X557212Y-87312D02*
G54D10*
D03*
X658812Y-201612D02*
G54D10*
D03*
X633412Y-201612D02*
G54D10*
D03*
X608012Y-201612D02*
G54D10*
D03*
X582612Y-201612D02*
G54D10*
D03*
X341313Y-87312D02*
G54D10*
D03*
X366712Y-87312D02*
G54D10*
D03*
X623888Y-100012D02*
G54D11*
D03*
X52388Y-100012D02*
G54D11*
D03*
X500062Y-201612D02*
G54D10*
D03*
X112712Y-201612D02*
G54D10*
D03*
X87312Y-201612D02*
G54D10*
D03*
X61912Y-201612D02*
G54D10*
D03*
X36512Y-201612D02*
G54D10*
D03*
G54D12*
X703262Y-65088D02*
X687388Y-65088D01*
X677862Y-74612D01*
X677862Y-188912D01*
X687388Y-198438D01*
X703262Y-198438D01*
G54D12*
X703262Y-115888D02*
X719138Y-115888D01*
X731838Y-128588D01*
X731838Y-236538D01*
X719138Y-249238D01*
X703262Y-249238D01*
G36*
X220362Y-161292D02*
X227968Y-153688D01*
X238758Y-153688D01*
X246362Y-161292D01*
X246362Y-172082D01*
X238758Y-179688D01*
X227968Y-179688D01*
X220362Y-172082D01*
X220362Y-161292D01*
G37*
G36*
X245762Y-161292D02*
X253368Y-153688D01*
X264158Y-153688D01*
X271762Y-161292D01*
X271762Y-172082D01*
X264158Y-179688D01*
X253368Y-179688D01*
X245762Y-172082D01*
X245762Y-161292D01*
G37*
G36*
X271162Y-161292D02*
X278767Y-153688D01*
X289557Y-153688D01*
X297162Y-161292D01*
X297162Y-172082D01*
X289557Y-179688D01*
X278767Y-179688D01*
X271162Y-172082D01*
X271162Y-161292D01*
G37*
G36*
X245762Y-161292D02*
X253368Y-153688D01*
X264158Y-153688D01*
X271762Y-161292D01*
X271762Y-172082D01*
X264158Y-179688D01*
X253368Y-179688D01*
X245762Y-172082D01*
X245762Y-161292D01*
G37*
X442912Y-201612D02*
G54D10*
D03*
X417512Y-201612D02*
G54D10*
D03*
G36*
X112412Y-161292D02*
X120018Y-153688D01*
X130808Y-153688D01*
X138412Y-161292D01*
X138412Y-172082D01*
X130808Y-179688D01*
X120018Y-179688D01*
X112412Y-172082D01*
X112412Y-161292D01*
G37*
G36*
X137812Y-161292D02*
X145418Y-153688D01*
X156208Y-153688D01*
X163812Y-161292D01*
X163812Y-172082D01*
X156208Y-179688D01*
X145418Y-179688D01*
X137812Y-172082D01*
X137812Y-161292D01*
G37*
G36*
X163212Y-161293D02*
X170817Y-153688D01*
X181607Y-153688D01*
X189212Y-161293D01*
X189212Y-172083D01*
X181607Y-179688D01*
X170817Y-179688D01*
X163212Y-172083D01*
X163212Y-161293D01*
G37*
G36*
X137812Y-161292D02*
X145418Y-153688D01*
X156208Y-153688D01*
X163812Y-161292D01*
X163812Y-172082D01*
X156208Y-179688D01*
X145418Y-179688D01*
X137812Y-172082D01*
X137812Y-161292D01*
G37*
X423862Y-87312D02*
G54D13*
D03*
X449262Y-87312D02*
G54D13*
D03*
X474662Y-87312D02*
G54D13*
D03*
X417512Y-201612D02*
G54D10*
D03*
X366712Y-87312D02*
G54D10*
D03*
G54D12*
X633412Y-201612D02*
X633412Y-182562D01*
X642938Y-173038D01*
X677862Y-173038D01*
G54D12*
X582612Y-201612D02*
X582612Y-230188D01*
X601662Y-249238D01*
X703262Y-249238D01*
X531812Y-87312D02*
G54D10*
D03*
X449262Y-87312D02*
G54D10*
D03*
X360362Y-201612D02*
G54D10*
D03*
X334962Y-201612D02*
G54D10*
D03*
X36512Y-201612D02*
G54D10*
D03*
X461962Y-125412D02*
G54D10*
D03*
X461962Y-165412D02*
G54D10*
D03*
G54D14*
X461962Y-125412D02*
X249238Y-125412D01*
X233362Y-141288D01*
X233362Y-166688D01*
X195262Y-201612D02*
G54D10*
D03*
X169862Y-201612D02*
G54D10*
D03*
X277812Y-201612D02*
G54D10*
D03*
X252412Y-201612D02*
G54D10*
D03*
G54D14*
X442912Y-201612D02*
X442912Y-188912D01*
X420688Y-166688D01*
X284162Y-166688D01*
G54D14*
X195262Y-201612D02*
X195262Y-220662D01*
X182562Y-233362D01*
X125412Y-233362D01*
X112712Y-220662D01*
X112712Y-201612D01*
G54D14*
X474662Y-87312D02*
X474662Y-112713D01*
X461962Y-125412D01*
X277812Y-201612D02*
G54D10*
D03*
X703262Y-306388D02*
G54D10*
D03*
X703262Y-331788D02*
G54D10*
D03*
X703262Y-357188D02*
G54D10*
D03*
X703262Y-382588D02*
G54D10*
D03*
X703262Y-439738D02*
G54D10*
D03*
X703262Y-465138D02*
G54D10*
D03*
X703262Y-490538D02*
G54D10*
D03*
X703262Y-515938D02*
G54D10*
D03*
X525462Y-468312D02*
G54D10*
D03*
X500062Y-468312D02*
G54D10*
D03*
X531812Y-354012D02*
G54D10*
D03*
X557212Y-354012D02*
G54D10*
D03*
X658812Y-468312D02*
G54D10*
D03*
X633412Y-468312D02*
G54D10*
D03*
X608012Y-468312D02*
G54D10*
D03*
X582612Y-468312D02*
G54D10*
D03*
X341313Y-354012D02*
G54D10*
D03*
X366712Y-354012D02*
G54D10*
D03*
X623888Y-366712D02*
G54D11*
D03*
X52388Y-366712D02*
G54D11*
D03*
X500062Y-468312D02*
G54D10*
D03*
X112712Y-468312D02*
G54D10*
D03*
X87312Y-468312D02*
G54D10*
D03*
X61912Y-468312D02*
G54D10*
D03*
X36512Y-468312D02*
G54D10*
D03*
G54D12*
X703262Y-331788D02*
X687388Y-331788D01*
X677862Y-341312D01*
X677862Y-455612D01*
X687388Y-465138D01*
X703262Y-465138D01*
G54D12*
X703262Y-382588D02*
X719138Y-382588D01*
X731838Y-395288D01*
X731838Y-503238D01*
X719138Y-515938D01*
X703262Y-515938D01*
G36*
X220362Y-427992D02*
X227968Y-420388D01*
X238758Y-420388D01*
X246362Y-427992D01*
X246362Y-438782D01*
X238758Y-446388D01*
X227968Y-446388D01*
X220362Y-438782D01*
X220362Y-427992D01*
G37*
G36*
X245762Y-427992D02*
X253368Y-420388D01*
X264158Y-420388D01*
X271762Y-427992D01*
X271762Y-438782D01*
X264158Y-446388D01*
X253368Y-446388D01*
X245762Y-438782D01*
X245762Y-427992D01*
G37*
G36*
X271162Y-427992D02*
X278767Y-420388D01*
X289557Y-420388D01*
X297162Y-427992D01*
X297162Y-438782D01*
X289557Y-446388D01*
X278767Y-446388D01*
X271162Y-438782D01*
X271162Y-427992D01*
G37*
G36*
X245762Y-427992D02*
X253368Y-420388D01*
X264158Y-420388D01*
X271762Y-427992D01*
X271762Y-438782D01*
X264158Y-446388D01*
X253368Y-446388D01*
X245762Y-438782D01*
X245762Y-427992D01*
G37*
X442912Y-468312D02*
G54D10*
D03*
X417512Y-468312D02*
G54D10*
D03*
G36*
X112412Y-427992D02*
X120018Y-420388D01*
X130808Y-420388D01*
X138412Y-427992D01*
X138412Y-438782D01*
X130808Y-446388D01*
X120018Y-446388D01*
X112412Y-438782D01*
X112412Y-427992D01*
G37*
G36*
X137812Y-427992D02*
X145418Y-420388D01*
X156208Y-420388D01*
X163812Y-427992D01*
X163812Y-438782D01*
X156208Y-446388D01*
X145418Y-446388D01*
X137812Y-438782D01*
X137812Y-427992D01*
G37*
G36*
X163212Y-427992D02*
X170817Y-420388D01*
X181607Y-420388D01*
X189212Y-427992D01*
X189212Y-438782D01*
X181607Y-446388D01*
X170817Y-446388D01*
X163212Y-438782D01*
X163212Y-427992D01*
G37*
G36*
X137812Y-427992D02*
X145418Y-420388D01*
X156208Y-420388D01*
X163812Y-427992D01*
X163812Y-438782D01*
X156208Y-446388D01*
X145418Y-446388D01*
X137812Y-438782D01*
X137812Y-427992D01*
G37*
X423862Y-354012D02*
G54D13*
D03*
X449262Y-354012D02*
G54D13*
D03*
X474662Y-354012D02*
G54D13*
D03*
X417512Y-468312D02*
G54D10*
D03*
X366712Y-354012D02*
G54D10*
D03*
G54D12*
X633412Y-468312D02*
X633412Y-449262D01*
X642938Y-439738D01*
X677862Y-439738D01*
G54D12*
X582612Y-468312D02*
X582612Y-496888D01*
X601662Y-515938D01*
X703262Y-515938D01*
X531812Y-354012D02*
G54D10*
D03*
X449262Y-354012D02*
G54D10*
D03*
X360362Y-468312D02*
G54D10*
D03*
X334962Y-468312D02*
G54D10*
D03*
X36512Y-468312D02*
G54D10*
D03*
X461962Y-392112D02*
G54D10*
D03*
X461962Y-432112D02*
G54D10*
D03*
G54D14*
X461962Y-392112D02*
X249238Y-392112D01*
X233362Y-407988D01*
X233362Y-433388D01*
X195262Y-468312D02*
G54D10*
D03*
X169862Y-468312D02*
G54D10*
D03*
X277812Y-468312D02*
G54D10*
D03*
X252412Y-468312D02*
G54D10*
D03*
G54D14*
X442912Y-468312D02*
X442912Y-455612D01*
X420688Y-433388D01*
X284162Y-433388D01*
G54D14*
X195262Y-468312D02*
X195262Y-487362D01*
X182562Y-500062D01*
X125412Y-500062D01*
X112712Y-487362D01*
X112712Y-468312D01*
G54D14*
X474662Y-354012D02*
X474662Y-379413D01*
X461962Y-392112D01*
X277812Y-468312D02*
G54D10*
D03*
X703262Y-573088D02*
G54D10*
D03*
X703262Y-598488D02*
G54D10*
D03*
X703262Y-623888D02*
G54D10*
D03*
X703262Y-649288D02*
G54D10*
D03*
X703262Y-706438D02*
G54D10*
D03*
X703262Y-731838D02*
G54D10*
D03*
X703262Y-757238D02*
G54D10*
D03*
X703262Y-782638D02*
G54D10*
D03*
X525462Y-735012D02*
G54D10*
D03*
X500062Y-735012D02*
G54D10*
D03*
X531812Y-620712D02*
G54D10*
D03*
X557212Y-620712D02*
G54D10*
D03*
X658812Y-735012D02*
G54D10*
D03*
X633412Y-735012D02*
G54D10*
D03*
X608012Y-735012D02*
G54D10*
D03*
X582612Y-735012D02*
G54D10*
D03*
X341313Y-620712D02*
G54D10*
D03*
X366712Y-620712D02*
G54D10*
D03*
X623888Y-633412D02*
G54D11*
D03*
X52388Y-633412D02*
G54D11*
D03*
X500062Y-735012D02*
G54D10*
D03*
X112712Y-735012D02*
G54D10*
D03*
X87312Y-735012D02*
G54D10*
D03*
X61912Y-735012D02*
G54D10*
D03*
X36512Y-735012D02*
G54D10*
D03*
G54D12*
X703262Y-598488D02*
X687388Y-598488D01*
X677862Y-608012D01*
X677862Y-722312D01*
X687388Y-731838D01*
X703262Y-731838D01*
G54D12*
X703262Y-649288D02*
X719138Y-649288D01*
X731838Y-661988D01*
X731838Y-769938D01*
X719138Y-782638D01*
X703262Y-782638D01*
G36*
X220362Y-694692D02*
X227968Y-687088D01*
X238758Y-687088D01*
X246362Y-694692D01*
X246362Y-705482D01*
X238758Y-713088D01*
X227968Y-713088D01*
X220362Y-705482D01*
X220362Y-694692D01*
G37*
G36*
X245762Y-694692D02*
X253368Y-687088D01*
X264158Y-687088D01*
X271762Y-694692D01*
X271762Y-705482D01*
X264158Y-713088D01*
X253368Y-713088D01*
X245762Y-705482D01*
X245762Y-694692D01*
G37*
G36*
X271162Y-694692D02*
X278767Y-687088D01*
X289557Y-687088D01*
X297162Y-694692D01*
X297162Y-705482D01*
X289557Y-713088D01*
X278767Y-713088D01*
X271162Y-705482D01*
X271162Y-694692D01*
G37*
G36*
X245762Y-694692D02*
X253368Y-687088D01*
X264158Y-687088D01*
X271762Y-694692D01*
X271762Y-705482D01*
X264158Y-713088D01*
X253368Y-713088D01*
X245762Y-705482D01*
X245762Y-694692D01*
G37*
X442912Y-735012D02*
G54D10*
D03*
X417512Y-735012D02*
G54D10*
D03*
G36*
X112412Y-694692D02*
X120018Y-687088D01*
X130808Y-687088D01*
X138412Y-694692D01*
X138412Y-705482D01*
X130808Y-713088D01*
X120018Y-713088D01*
X112412Y-705482D01*
X112412Y-694692D01*
G37*
G36*
X137812Y-694692D02*
X145418Y-687088D01*
X156208Y-687088D01*
X163812Y-694692D01*
X163812Y-705482D01*
X156208Y-713088D01*
X145418Y-713088D01*
X137812Y-705482D01*
X137812Y-694692D01*
G37*
G36*
X163212Y-694692D02*
X170817Y-687088D01*
X181607Y-687088D01*
X189212Y-694692D01*
X189212Y-705482D01*
X181607Y-713088D01*
X170817Y-713088D01*
X163212Y-705482D01*
X163212Y-694692D01*
G37*
G36*
X137812Y-694692D02*
X145418Y-687088D01*
X156208Y-687088D01*
X163812Y-694692D01*
X163812Y-705482D01*
X156208Y-713088D01*
X145418Y-713088D01*
X137812Y-705482D01*
X137812Y-694692D01*
G37*
X423862Y-620712D02*
G54D13*
D03*
X449262Y-620712D02*
G54D13*
D03*
X474662Y-620712D02*
G54D13*
D03*
X417512Y-735012D02*
G54D10*
D03*
X366712Y-620712D02*
G54D10*
D03*
G54D12*
X633412Y-735012D02*
X633412Y-715962D01*
X642938Y-706438D01*
X677862Y-706438D01*
G54D12*
X582612Y-735012D02*
X582612Y-763588D01*
X601662Y-782638D01*
X703262Y-782638D01*
X531812Y-620712D02*
G54D10*
D03*
X449262Y-620712D02*
G54D10*
D03*
X360362Y-735012D02*
G54D10*
D03*
X334962Y-735012D02*
G54D10*
D03*
X36512Y-735012D02*
G54D10*
D03*
X461962Y-658812D02*
G54D10*
D03*
X461962Y-698812D02*
G54D10*
D03*
G54D14*
X461962Y-658812D02*
X249238Y-658812D01*
X233362Y-674688D01*
X233362Y-700088D01*
X195262Y-735012D02*
G54D10*
D03*
X169862Y-735012D02*
G54D10*
D03*
X277812Y-735012D02*
G54D10*
D03*
X252412Y-735012D02*
G54D10*
D03*
G54D14*
X442912Y-735012D02*
X442912Y-722312D01*
X420688Y-700088D01*
X284162Y-700088D01*
G54D14*
X195262Y-735012D02*
X195262Y-754062D01*
X182562Y-766762D01*
X125412Y-766762D01*
X112712Y-754062D01*
X112712Y-735012D01*
G54D14*
X474662Y-620712D02*
X474662Y-646113D01*
X461962Y-658812D01*
X277812Y-735012D02*
G54D10*
D03*
%LPD*%
G54D15*
G36*
X503062Y-201612D02*
X503062Y-216112D01*
X497062Y-216112D01*
X497062Y-201612D01*
X503062Y-201612D01*
G37*
G36*
X497062Y-201612D02*
X497062Y-187112D01*
X503062Y-187112D01*
X503062Y-201612D01*
X497062Y-201612D01*
G37*
G54D15*
G36*
X255762Y-166688D02*
X255762Y-153188D01*
X261762Y-153188D01*
X261762Y-166688D01*
X255762Y-166688D01*
G37*
G36*
X261762Y-166688D02*
X261762Y-180188D01*
X255762Y-180188D01*
X255762Y-166688D01*
X261762Y-166688D01*
G37*
G54D15*
G36*
X147812Y-166688D02*
X147812Y-153188D01*
X153812Y-153188D01*
X153812Y-166688D01*
X147812Y-166688D01*
G37*
G36*
X153812Y-166688D02*
X153812Y-180188D01*
X147812Y-180188D01*
X147812Y-166688D01*
X153812Y-166688D01*
G37*
G54D15*
G36*
X420512Y-201612D02*
X420512Y-216112D01*
X414512Y-216112D01*
X414512Y-201612D01*
X420512Y-201612D01*
G37*
G36*
X414512Y-201612D02*
X414512Y-187112D01*
X420512Y-187112D01*
X420512Y-201612D01*
X414512Y-201612D01*
G37*
G54D15*
G36*
X369712Y-87312D02*
X369712Y-101812D01*
X363712Y-101812D01*
X363712Y-87312D01*
X369712Y-87312D01*
G37*
G36*
X363712Y-87312D02*
X363712Y-72812D01*
X369712Y-72812D01*
X369712Y-87312D01*
X363712Y-87312D01*
G37*
G54D15*
G36*
X534812Y-87312D02*
X534812Y-101812D01*
X528812Y-101812D01*
X528812Y-87312D01*
X534812Y-87312D01*
G37*
G36*
X528812Y-87312D02*
X528812Y-72812D01*
X534812Y-72812D01*
X534812Y-87312D01*
X528812Y-87312D01*
G37*
G54D15*
G36*
X452262Y-87312D02*
X452262Y-101812D01*
X446262Y-101812D01*
X446262Y-87312D01*
X452262Y-87312D01*
G37*
G36*
X446262Y-87312D02*
X446262Y-72812D01*
X452262Y-72812D01*
X452262Y-87312D01*
X446262Y-87312D01*
G37*
G54D15*
G36*
X39512Y-201612D02*
X39512Y-216112D01*
X33512Y-216112D01*
X33512Y-201612D01*
X39512Y-201612D01*
G37*
G36*
X33512Y-201612D02*
X33512Y-187112D01*
X39512Y-187112D01*
X39512Y-201612D01*
X33512Y-201612D01*
G37*
G54D15*
G36*
X464084Y-167534D02*
X453831Y-177787D01*
X449588Y-173544D01*
X459841Y-163291D01*
X464084Y-167534D01*
G37*
G36*
X459841Y-167534D02*
X449588Y-157281D01*
X453831Y-153038D01*
X464084Y-163291D01*
X459841Y-167534D01*
G37*
G36*
X459841Y-163291D02*
X470094Y-153038D01*
X474337Y-157281D01*
X464084Y-167534D01*
X459841Y-163291D01*
G37*
G54D15*
G36*
X280812Y-201612D02*
X280812Y-216112D01*
X274812Y-216112D01*
X274812Y-201612D01*
X280812Y-201612D01*
G37*
G36*
X274812Y-201612D02*
X274812Y-187112D01*
X280812Y-187112D01*
X280812Y-201612D01*
X274812Y-201612D01*
G37*
G54D15*
G36*
X503062Y-468312D02*
X503062Y-482812D01*
X497062Y-482812D01*
X497062Y-468312D01*
X503062Y-468312D01*
G37*
G36*
X497062Y-468312D02*
X497062Y-453812D01*
X503062Y-453812D01*
X503062Y-468312D01*
X497062Y-468312D01*
G37*
G54D15*
G36*
X255762Y-433388D02*
X255762Y-419888D01*
X261762Y-419888D01*
X261762Y-433388D01*
X255762Y-433388D01*
G37*
G36*
X261762Y-433388D02*
X261762Y-446888D01*
X255762Y-446888D01*
X255762Y-433388D01*
X261762Y-433388D01*
G37*
G54D15*
G36*
X147812Y-433388D02*
X147812Y-419888D01*
X153812Y-419888D01*
X153812Y-433388D01*
X147812Y-433388D01*
G37*
G36*
X153812Y-433388D02*
X153812Y-446888D01*
X147812Y-446888D01*
X147812Y-433388D01*
X153812Y-433388D01*
G37*
G54D15*
G36*
X420512Y-468312D02*
X420512Y-482812D01*
X414512Y-482812D01*
X414512Y-468312D01*
X420512Y-468312D01*
G37*
G36*
X414512Y-468312D02*
X414512Y-453812D01*
X420512Y-453812D01*
X420512Y-468312D01*
X414512Y-468312D01*
G37*
G54D15*
G36*
X369712Y-354012D02*
X369712Y-368512D01*
X363712Y-368512D01*
X363712Y-354012D01*
X369712Y-354012D01*
G37*
G36*
X363712Y-354012D02*
X363712Y-339512D01*
X369712Y-339512D01*
X369712Y-354012D01*
X363712Y-354012D01*
G37*
G54D15*
G36*
X534812Y-354012D02*
X534812Y-368512D01*
X528812Y-368512D01*
X528812Y-354012D01*
X534812Y-354012D01*
G37*
G36*
X528812Y-354012D02*
X528812Y-339512D01*
X534812Y-339512D01*
X534812Y-354012D01*
X528812Y-354012D01*
G37*
G54D15*
G36*
X452262Y-354012D02*
X452262Y-368512D01*
X446262Y-368512D01*
X446262Y-354012D01*
X452262Y-354012D01*
G37*
G36*
X446262Y-354012D02*
X446262Y-339512D01*
X452262Y-339512D01*
X452262Y-354012D01*
X446262Y-354012D01*
G37*
G54D15*
G36*
X39512Y-468312D02*
X39512Y-482812D01*
X33512Y-482812D01*
X33512Y-468312D01*
X39512Y-468312D01*
G37*
G36*
X33512Y-468312D02*
X33512Y-453812D01*
X39512Y-453812D01*
X39512Y-468312D01*
X33512Y-468312D01*
G37*
G54D15*
G36*
X464084Y-434234D02*
X453831Y-444487D01*
X449588Y-440244D01*
X459841Y-429991D01*
X464084Y-434234D01*
G37*
G36*
X459841Y-434234D02*
X449588Y-423981D01*
X453831Y-419738D01*
X464084Y-429991D01*
X459841Y-434234D01*
G37*
G36*
X459841Y-429991D02*
X470094Y-419738D01*
X474337Y-423981D01*
X464084Y-434234D01*
X459841Y-429991D01*
G37*
G54D15*
G36*
X280812Y-468312D02*
X280812Y-482812D01*
X274812Y-482812D01*
X274812Y-468312D01*
X280812Y-468312D01*
G37*
G36*
X274812Y-468312D02*
X274812Y-453812D01*
X280812Y-453812D01*
X280812Y-468312D01*
X274812Y-468312D01*
G37*
G54D15*
G36*
X503062Y-735012D02*
X503062Y-749512D01*
X497062Y-749512D01*
X497062Y-735012D01*
X503062Y-735012D01*
G37*
G36*
X497062Y-735012D02*
X497062Y-720512D01*
X503062Y-720512D01*
X503062Y-735012D01*
X497062Y-735012D01*
G37*
G54D15*
G36*
X255762Y-700088D02*
X255762Y-686588D01*
X261762Y-686588D01*
X261762Y-700088D01*
X255762Y-700088D01*
G37*
G36*
X261762Y-700088D02*
X261762Y-713588D01*
X255762Y-713588D01*
X255762Y-700088D01*
X261762Y-700088D01*
G37*
G54D15*
G36*
X147812Y-700088D02*
X147812Y-686588D01*
X153812Y-686588D01*
X153812Y-700088D01*
X147812Y-700088D01*
G37*
G36*
X153812Y-700088D02*
X153812Y-713588D01*
X147812Y-713588D01*
X147812Y-700088D01*
X153812Y-700088D01*
G37*
G54D15*
G36*
X420512Y-735012D02*
X420512Y-749512D01*
X414512Y-749512D01*
X414512Y-735012D01*
X420512Y-735012D01*
G37*
G36*
X414512Y-735012D02*
X414512Y-720512D01*
X420512Y-720512D01*
X420512Y-735012D01*
X414512Y-735012D01*
G37*
G54D15*
G36*
X369712Y-620712D02*
X369712Y-635212D01*
X363712Y-635212D01*
X363712Y-620712D01*
X369712Y-620712D01*
G37*
G36*
X363712Y-620712D02*
X363712Y-606212D01*
X369712Y-606212D01*
X369712Y-620712D01*
X363712Y-620712D01*
G37*
G54D15*
G36*
X534812Y-620712D02*
X534812Y-635212D01*
X528812Y-635212D01*
X528812Y-620712D01*
X534812Y-620712D01*
G37*
G36*
X528812Y-620712D02*
X528812Y-606212D01*
X534812Y-606212D01*
X534812Y-620712D01*
X528812Y-620712D01*
G37*
G54D15*
G36*
X452262Y-620712D02*
X452262Y-635212D01*
X446262Y-635212D01*
X446262Y-620712D01*
X452262Y-620712D01*
G37*
G36*
X446262Y-620712D02*
X446262Y-606212D01*
X452262Y-606212D01*
X452262Y-620712D01*
X446262Y-620712D01*
G37*
G54D15*
G36*
X39512Y-735012D02*
X39512Y-749512D01*
X33512Y-749512D01*
X33512Y-735012D01*
X39512Y-735012D01*
G37*
G36*
X33512Y-735012D02*
X33512Y-720512D01*
X39512Y-720512D01*
X39512Y-735012D01*
X33512Y-735012D01*
G37*
G54D15*
G36*
X464084Y-700934D02*
X453831Y-711187D01*
X449588Y-706944D01*
X459841Y-696691D01*
X464084Y-700934D01*
G37*
G36*
X459841Y-700934D02*
X449588Y-690681D01*
X453831Y-686438D01*
X464084Y-696691D01*
X459841Y-700934D01*
G37*
G36*
X459841Y-696691D02*
X470094Y-686438D01*
X474337Y-690681D01*
X464084Y-700934D01*
X459841Y-696691D01*
G37*
G54D15*
G36*
X280812Y-735012D02*
X280812Y-749512D01*
X274812Y-749512D01*
X274812Y-735012D01*
X280812Y-735012D01*
G37*
G36*
X274812Y-735012D02*
X274812Y-720512D01*
X280812Y-720512D01*
X280812Y-735012D01*
X274812Y-735012D01*
G37*
X703262Y-39688D02*
G54D16*
D03*
X703262Y-65088D02*
G54D16*
D03*
X703262Y-90488D02*
G54D16*
D03*
X703262Y-115888D02*
G54D16*
D03*
X703262Y-173038D02*
G54D16*
D03*
X703262Y-198438D02*
G54D16*
D03*
X703262Y-223838D02*
G54D16*
D03*
X703262Y-249238D02*
G54D16*
D03*
X525462Y-201612D02*
G54D16*
D03*
X500062Y-201612D02*
G54D16*
D03*
X531812Y-87312D02*
G54D16*
D03*
X557212Y-87312D02*
G54D16*
D03*
X658812Y-201612D02*
G54D16*
D03*
X633412Y-201612D02*
G54D16*
D03*
X608012Y-201612D02*
G54D16*
D03*
X582612Y-201612D02*
G54D16*
D03*
X341313Y-87312D02*
G54D16*
D03*
X366712Y-87312D02*
G54D16*
D03*
X623888Y-100012D02*
G54D17*
D03*
X52388Y-100012D02*
G54D17*
D03*
X500062Y-201612D02*
G54D16*
D03*
X112712Y-201612D02*
G54D16*
D03*
X87312Y-201612D02*
G54D16*
D03*
X61912Y-201612D02*
G54D16*
D03*
X36512Y-201612D02*
G54D16*
D03*
G54D18*
X703262Y-65088D02*
X687388Y-65088D01*
X677862Y-74612D01*
X677862Y-188912D01*
X687388Y-198438D01*
X703262Y-198438D01*
G54D18*
X703262Y-115888D02*
X719138Y-115888D01*
X731838Y-128588D01*
X731838Y-236538D01*
X719138Y-249238D01*
X703262Y-249238D01*
G36*
X224362Y-162952D02*
X229628Y-157688D01*
X237098Y-157688D01*
X242362Y-162952D01*
X242362Y-170422D01*
X237098Y-175688D01*
X229628Y-175688D01*
X224362Y-170422D01*
X224362Y-162952D01*
G37*
G36*
X249762Y-162952D02*
X255028Y-157688D01*
X262498Y-157688D01*
X267762Y-162952D01*
X267762Y-170422D01*
X262498Y-175688D01*
X255028Y-175688D01*
X249762Y-170422D01*
X249762Y-162952D01*
G37*
G36*
X275162Y-162952D02*
X280427Y-157688D01*
X287897Y-157688D01*
X293162Y-162952D01*
X293162Y-170422D01*
X287897Y-175688D01*
X280427Y-175688D01*
X275162Y-170422D01*
X275162Y-162952D01*
G37*
G36*
X249762Y-162952D02*
X255028Y-157688D01*
X262498Y-157688D01*
X267762Y-162952D01*
X267762Y-170422D01*
X262498Y-175688D01*
X255028Y-175688D01*
X249762Y-170422D01*
X249762Y-162952D01*
G37*
X442912Y-201612D02*
G54D16*
D03*
X417512Y-201612D02*
G54D16*
D03*
G36*
X116412Y-162952D02*
X121678Y-157688D01*
X129148Y-157688D01*
X134412Y-162952D01*
X134412Y-170422D01*
X129148Y-175688D01*
X121678Y-175688D01*
X116412Y-170422D01*
X116412Y-162952D01*
G37*
G36*
X141812Y-162952D02*
X147078Y-157688D01*
X154548Y-157688D01*
X159812Y-162952D01*
X159812Y-170422D01*
X154548Y-175688D01*
X147078Y-175688D01*
X141812Y-170422D01*
X141812Y-162952D01*
G37*
G36*
X167212Y-162953D02*
X172477Y-157688D01*
X179947Y-157688D01*
X185212Y-162953D01*
X185212Y-170423D01*
X179947Y-175688D01*
X172477Y-175688D01*
X167212Y-170423D01*
X167212Y-162953D01*
G37*
G36*
X141812Y-162952D02*
X147078Y-157688D01*
X154548Y-157688D01*
X159812Y-162952D01*
X159812Y-170422D01*
X154548Y-175688D01*
X147078Y-175688D01*
X141812Y-170422D01*
X141812Y-162952D01*
G37*
X423862Y-87312D02*
G54D16*
D03*
X449262Y-87312D02*
G54D16*
D03*
X474662Y-87312D02*
G54D16*
D03*
X417512Y-201612D02*
G54D16*
D03*
X366712Y-87312D02*
G54D16*
D03*
G54D18*
X633412Y-201612D02*
X633412Y-182562D01*
X642938Y-173038D01*
X677862Y-173038D01*
G54D18*
X582612Y-201612D02*
X582612Y-230188D01*
X601662Y-249238D01*
X703262Y-249238D01*
X531812Y-87312D02*
G54D16*
D03*
X449262Y-87312D02*
G54D16*
D03*
X360362Y-201612D02*
G54D16*
D03*
X334962Y-201612D02*
G54D16*
D03*
X36512Y-201612D02*
G54D16*
D03*
X461962Y-125412D02*
G54D16*
D03*
X461962Y-165412D02*
G54D16*
D03*
G54D19*
X461962Y-125412D02*
X249238Y-125412D01*
X233362Y-141288D01*
X233362Y-166688D01*
X195262Y-201612D02*
G54D16*
D03*
X169862Y-201612D02*
G54D16*
D03*
X277812Y-201612D02*
G54D16*
D03*
X252412Y-201612D02*
G54D16*
D03*
G54D19*
X442912Y-201612D02*
X442912Y-188912D01*
X420688Y-166688D01*
X284162Y-166688D01*
G54D19*
X195262Y-201612D02*
X195262Y-220662D01*
X182562Y-233362D01*
X125412Y-233362D01*
X112712Y-220662D01*
X112712Y-201612D01*
G54D19*
X474662Y-87312D02*
X474662Y-112713D01*
X461962Y-125412D01*
X277812Y-201612D02*
G54D16*
D03*
X703262Y-306388D02*
G54D16*
D03*
X703262Y-331788D02*
G54D16*
D03*
X703262Y-357188D02*
G54D16*
D03*
X703262Y-382588D02*
G54D16*
D03*
X703262Y-439738D02*
G54D16*
D03*
X703262Y-465138D02*
G54D16*
D03*
X703262Y-490538D02*
G54D16*
D03*
X703262Y-515938D02*
G54D16*
D03*
X525462Y-468312D02*
G54D16*
D03*
X500062Y-468312D02*
G54D16*
D03*
X531812Y-354012D02*
G54D16*
D03*
X557212Y-354012D02*
G54D16*
D03*
X658812Y-468312D02*
G54D16*
D03*
X633412Y-468312D02*
G54D16*
D03*
X608012Y-468312D02*
G54D16*
D03*
X582612Y-468312D02*
G54D16*
D03*
X341313Y-354012D02*
G54D16*
D03*
X366712Y-354012D02*
G54D16*
D03*
X623888Y-366712D02*
G54D17*
D03*
X52388Y-366712D02*
G54D17*
D03*
X500062Y-468312D02*
G54D16*
D03*
X112712Y-468312D02*
G54D16*
D03*
X87312Y-468312D02*
G54D16*
D03*
X61912Y-468312D02*
G54D16*
D03*
X36512Y-468312D02*
G54D16*
D03*
G54D18*
X703262Y-331788D02*
X687388Y-331788D01*
X677862Y-341312D01*
X677862Y-455612D01*
X687388Y-465138D01*
X703262Y-465138D01*
G54D18*
X703262Y-382588D02*
X719138Y-382588D01*
X731838Y-395288D01*
X731838Y-503238D01*
X719138Y-515938D01*
X703262Y-515938D01*
G36*
X224362Y-429652D02*
X229628Y-424388D01*
X237098Y-424388D01*
X242362Y-429652D01*
X242362Y-437122D01*
X237098Y-442388D01*
X229628Y-442388D01*
X224362Y-437122D01*
X224362Y-429652D01*
G37*
G36*
X249762Y-429652D02*
X255028Y-424388D01*
X262498Y-424388D01*
X267762Y-429652D01*
X267762Y-437122D01*
X262498Y-442388D01*
X255028Y-442388D01*
X249762Y-437122D01*
X249762Y-429652D01*
G37*
G36*
X275162Y-429652D02*
X280427Y-424388D01*
X287897Y-424388D01*
X293162Y-429652D01*
X293162Y-437122D01*
X287897Y-442388D01*
X280427Y-442388D01*
X275162Y-437122D01*
X275162Y-429652D01*
G37*
G36*
X249762Y-429652D02*
X255028Y-424388D01*
X262498Y-424388D01*
X267762Y-429652D01*
X267762Y-437122D01*
X262498Y-442388D01*
X255028Y-442388D01*
X249762Y-437122D01*
X249762Y-429652D01*
G37*
X442912Y-468312D02*
G54D16*
D03*
X417512Y-468312D02*
G54D16*
D03*
G36*
X116412Y-429652D02*
X121678Y-424388D01*
X129148Y-424388D01*
X134412Y-429652D01*
X134412Y-437122D01*
X129148Y-442388D01*
X121678Y-442388D01*
X116412Y-437122D01*
X116412Y-429652D01*
G37*
G36*
X141812Y-429652D02*
X147078Y-424388D01*
X154548Y-424388D01*
X159812Y-429652D01*
X159812Y-437122D01*
X154548Y-442388D01*
X147078Y-442388D01*
X141812Y-437122D01*
X141812Y-429652D01*
G37*
G36*
X167212Y-429652D02*
X172477Y-424388D01*
X179947Y-424388D01*
X185212Y-429652D01*
X185212Y-437122D01*
X179947Y-442388D01*
X172477Y-442388D01*
X167212Y-437122D01*
X167212Y-429652D01*
G37*
G36*
X141812Y-429652D02*
X147078Y-424388D01*
X154548Y-424388D01*
X159812Y-429652D01*
X159812Y-437122D01*
X154548Y-442388D01*
X147078Y-442388D01*
X141812Y-437122D01*
X141812Y-429652D01*
G37*
X423862Y-354012D02*
G54D16*
D03*
X449262Y-354012D02*
G54D16*
D03*
X474662Y-354012D02*
G54D16*
D03*
X417512Y-468312D02*
G54D16*
D03*
X366712Y-354012D02*
G54D16*
D03*
G54D18*
X633412Y-468312D02*
X633412Y-449262D01*
X642938Y-439738D01*
X677862Y-439738D01*
G54D18*
X582612Y-468312D02*
X582612Y-496888D01*
X601662Y-515938D01*
X703262Y-515938D01*
X531812Y-354012D02*
G54D16*
D03*
X449262Y-354012D02*
G54D16*
D03*
X360362Y-468312D02*
G54D16*
D03*
X334962Y-468312D02*
G54D16*
D03*
X36512Y-468312D02*
G54D16*
D03*
X461962Y-392112D02*
G54D16*
D03*
X461962Y-432112D02*
G54D16*
D03*
G54D19*
X461962Y-392112D02*
X249238Y-392112D01*
X233362Y-407988D01*
X233362Y-433388D01*
X195262Y-468312D02*
G54D16*
D03*
X169862Y-468312D02*
G54D16*
D03*
X277812Y-468312D02*
G54D16*
D03*
X252412Y-468312D02*
G54D16*
D03*
G54D19*
X442912Y-468312D02*
X442912Y-455612D01*
X420688Y-433388D01*
X284162Y-433388D01*
G54D19*
X195262Y-468312D02*
X195262Y-487362D01*
X182562Y-500062D01*
X125412Y-500062D01*
X112712Y-487362D01*
X112712Y-468312D01*
G54D19*
X474662Y-354012D02*
X474662Y-379413D01*
X461962Y-392112D01*
X277812Y-468312D02*
G54D16*
D03*
X703262Y-573088D02*
G54D16*
D03*
X703262Y-598488D02*
G54D16*
D03*
X703262Y-623888D02*
G54D16*
D03*
X703262Y-649288D02*
G54D16*
D03*
X703262Y-706438D02*
G54D16*
D03*
X703262Y-731838D02*
G54D16*
D03*
X703262Y-757238D02*
G54D16*
D03*
X703262Y-782638D02*
G54D16*
D03*
X525462Y-735012D02*
G54D16*
D03*
X500062Y-735012D02*
G54D16*
D03*
X531812Y-620712D02*
G54D16*
D03*
X557212Y-620712D02*
G54D16*
D03*
X658812Y-735012D02*
G54D16*
D03*
X633412Y-735012D02*
G54D16*
D03*
X608012Y-735012D02*
G54D16*
D03*
X582612Y-735012D02*
G54D16*
D03*
X341313Y-620712D02*
G54D16*
D03*
X366712Y-620712D02*
G54D16*
D03*
X623888Y-633412D02*
G54D17*
D03*
X52388Y-633412D02*
G54D17*
D03*
X500062Y-735012D02*
G54D16*
D03*
X112712Y-735012D02*
G54D16*
D03*
X87312Y-735012D02*
G54D16*
D03*
X61912Y-735012D02*
G54D16*
D03*
X36512Y-735012D02*
G54D16*
D03*
G54D18*
X703262Y-598488D02*
X687388Y-598488D01*
X677862Y-608012D01*
X677862Y-722312D01*
X687388Y-731838D01*
X703262Y-731838D01*
G54D18*
X703262Y-649288D02*
X719138Y-649288D01*
X731838Y-661988D01*
X731838Y-769938D01*
X719138Y-782638D01*
X703262Y-782638D01*
G36*
X224362Y-696352D02*
X229628Y-691088D01*
X237098Y-691088D01*
X242362Y-696352D01*
X242362Y-703822D01*
X237098Y-709088D01*
X229628Y-709088D01*
X224362Y-703822D01*
X224362Y-696352D01*
G37*
G36*
X249762Y-696352D02*
X255028Y-691088D01*
X262498Y-691088D01*
X267762Y-696352D01*
X267762Y-703822D01*
X262498Y-709088D01*
X255028Y-709088D01*
X249762Y-703822D01*
X249762Y-696352D01*
G37*
G36*
X275162Y-696352D02*
X280427Y-691088D01*
X287897Y-691088D01*
X293162Y-696352D01*
X293162Y-703822D01*
X287897Y-709088D01*
X280427Y-709088D01*
X275162Y-703822D01*
X275162Y-696352D01*
G37*
G36*
X249762Y-696352D02*
X255028Y-691088D01*
X262498Y-691088D01*
X267762Y-696352D01*
X267762Y-703822D01*
X262498Y-709088D01*
X255028Y-709088D01*
X249762Y-703822D01*
X249762Y-696352D01*
G37*
X442912Y-735012D02*
G54D16*
D03*
X417512Y-735012D02*
G54D16*
D03*
G36*
X116412Y-696352D02*
X121678Y-691088D01*
X129148Y-691088D01*
X134412Y-696352D01*
X134412Y-703822D01*
X129148Y-709088D01*
X121678Y-709088D01*
X116412Y-703822D01*
X116412Y-696352D01*
G37*
G36*
X141812Y-696352D02*
X147078Y-691088D01*
X154548Y-691088D01*
X159812Y-696352D01*
X159812Y-703822D01*
X154548Y-709088D01*
X147078Y-709088D01*
X141812Y-703822D01*
X141812Y-696352D01*
G37*
G36*
X167212Y-696352D02*
X172477Y-691088D01*
X179947Y-691088D01*
X185212Y-696352D01*
X185212Y-703822D01*
X179947Y-709088D01*
X172477Y-709088D01*
X167212Y-703822D01*
X167212Y-696352D01*
G37*
G36*
X141812Y-696352D02*
X147078Y-691088D01*
X154548Y-691088D01*
X159812Y-696352D01*
X159812Y-703822D01*
X154548Y-709088D01*
X147078Y-709088D01*
X141812Y-703822D01*
X141812Y-696352D01*
G37*
X423862Y-620712D02*
G54D16*
D03*
X449262Y-620712D02*
G54D16*
D03*
X474662Y-620712D02*
G54D16*
D03*
X417512Y-735012D02*
G54D16*
D03*
X366712Y-620712D02*
G54D16*
D03*
G54D18*
X633412Y-735012D02*
X633412Y-715962D01*
X642938Y-706438D01*
X677862Y-706438D01*
G54D18*
X582612Y-735012D02*
X582612Y-763588D01*
X601662Y-782638D01*
X703262Y-782638D01*
X531812Y-620712D02*
G54D16*
D03*
X449262Y-620712D02*
G54D16*
D03*
X360362Y-735012D02*
G54D16*
D03*
X334962Y-735012D02*
G54D16*
D03*
X36512Y-735012D02*
G54D16*
D03*
X461962Y-658812D02*
G54D16*
D03*
X461962Y-698812D02*
G54D16*
D03*
G54D19*
X461962Y-658812D02*
X249238Y-658812D01*
X233362Y-674688D01*
X233362Y-700088D01*
X195262Y-735012D02*
G54D16*
D03*
X169862Y-735012D02*
G54D16*
D03*
X277812Y-735012D02*
G54D16*
D03*
X252412Y-735012D02*
G54D16*
D03*
G54D19*
X442912Y-735012D02*
X442912Y-722312D01*
X420688Y-700088D01*
X284162Y-700088D01*
G54D19*
X195262Y-735012D02*
X195262Y-754062D01*
X182562Y-766762D01*
X125412Y-766762D01*
X112712Y-754062D01*
X112712Y-735012D01*
G54D19*
X474662Y-620712D02*
X474662Y-646113D01*
X461962Y-658812D01*
X277812Y-735012D02*
G54D16*
D03*
M02*
