%FSLAX34Y34*%
%MOMM*%
%LNCOPPER_TOP*%
G71*
G01*
%ADD10C, 2.80*%
%ADD11C, 8.00*%
%ADD12C, 2.50*%
%ADD13R, 2.00X3.50*%
%ADD14R, 2.10X2.40*%
%ADD15C, 2.60*%
%ADD16C, 2.00*%
%ADD17R, 2.00X3.00*%
%ADD18C, 0.60*%
%ADD19C, 0.33*%
%ADD20C, 1.80*%
%ADD21C, 7.00*%
%ADD22C, 1.50*%
%ADD23R, 1.00X2.50*%
%ADD24R, 1.30X1.60*%
%ADD25C, 1.00*%
%ADD26R, 1.00X2.00*%
%LPD*%
G36*
X0Y0D02*
X800000Y0D01*
X800000Y-850000D01*
X0Y-850000D01*
X0Y0D01*
G37*
%LPC*%
X703262Y-39688D02*
G54D10*
D03*
X703262Y-65088D02*
G54D10*
D03*
X703262Y-90488D02*
G54D10*
D03*
X703262Y-115888D02*
G54D10*
D03*
X703262Y-173038D02*
G54D10*
D03*
X703262Y-198438D02*
G54D10*
D03*
X703262Y-223838D02*
G54D10*
D03*
X703262Y-249238D02*
G54D10*
D03*
X525462Y-201612D02*
G54D10*
D03*
X500062Y-201612D02*
G54D10*
D03*
X531812Y-87312D02*
G54D10*
D03*
X557212Y-87312D02*
G54D10*
D03*
X658812Y-201612D02*
G54D10*
D03*
X633412Y-201612D02*
G54D10*
D03*
X608012Y-201612D02*
G54D10*
D03*
X582612Y-201612D02*
G54D10*
D03*
X341313Y-87312D02*
G54D10*
D03*
X366712Y-87312D02*
G54D10*
D03*
X623888Y-100012D02*
G54D11*
D03*
X52388Y-100012D02*
G54D11*
D03*
X500062Y-201612D02*
G54D10*
D03*
X112712Y-201612D02*
G54D10*
D03*
X87312Y-201612D02*
G54D10*
D03*
X61912Y-201612D02*
G54D10*
D03*
X36512Y-201612D02*
G54D10*
D03*
G54D12*
X703262Y-39688D02*
X687388Y-39688D01*
X677862Y-49212D01*
X677862Y-173038D01*
X703262Y-173038D01*
G54D12*
X703262Y-90488D02*
X719138Y-90488D01*
X731838Y-103188D01*
X731838Y-211138D01*
X719138Y-223838D01*
X703262Y-223838D01*
X494903Y-163512D02*
G54D13*
D03*
G36*
X515462Y-146013D02*
X535462Y-146012D01*
X535463Y-181012D01*
X515463Y-181013D01*
X515462Y-146013D01*
G37*
G36*
X220362Y-161292D02*
X227968Y-153688D01*
X238758Y-153688D01*
X246362Y-161292D01*
X246362Y-172082D01*
X238758Y-179688D01*
X227968Y-179688D01*
X220362Y-172082D01*
X220362Y-161292D01*
G37*
G36*
X245762Y-161292D02*
X253368Y-153688D01*
X264158Y-153688D01*
X271762Y-161292D01*
X271762Y-172082D01*
X264158Y-179688D01*
X253368Y-179688D01*
X245762Y-172082D01*
X245762Y-161292D01*
G37*
G36*
X271162Y-161292D02*
X278767Y-153688D01*
X289557Y-153688D01*
X297162Y-161292D01*
X297162Y-172082D01*
X289557Y-179688D01*
X278767Y-179688D01*
X271162Y-172082D01*
X271162Y-161292D01*
G37*
G36*
X245762Y-161292D02*
X253368Y-153688D01*
X264158Y-153688D01*
X271762Y-161292D01*
X271762Y-172082D01*
X264158Y-179688D01*
X253368Y-179688D01*
X245762Y-172082D01*
X245762Y-161292D01*
G37*
X442912Y-201612D02*
G54D10*
D03*
X417512Y-201612D02*
G54D10*
D03*
X401612Y-115912D02*
G54D14*
D03*
X382612Y-115912D02*
G54D14*
D03*
G36*
X112412Y-161292D02*
X120018Y-153688D01*
X130808Y-153688D01*
X138412Y-161292D01*
X138412Y-172082D01*
X130808Y-179688D01*
X120018Y-179688D01*
X112412Y-172082D01*
X112412Y-161292D01*
G37*
G36*
X137812Y-161292D02*
X145418Y-153688D01*
X156208Y-153688D01*
X163812Y-161292D01*
X163812Y-172082D01*
X156208Y-179688D01*
X145418Y-179688D01*
X137812Y-172082D01*
X137812Y-161292D01*
G37*
G36*
X163212Y-161293D02*
X170817Y-153688D01*
X181607Y-153688D01*
X189212Y-161293D01*
X189212Y-172083D01*
X181607Y-179688D01*
X170817Y-179688D01*
X163212Y-172083D01*
X163212Y-161293D01*
G37*
G36*
X137812Y-161292D02*
X145418Y-153688D01*
X156208Y-153688D01*
X163812Y-161292D01*
X163812Y-172082D01*
X156208Y-179688D01*
X145418Y-179688D01*
X137812Y-172082D01*
X137812Y-161292D01*
G37*
X423862Y-87312D02*
G54D15*
D03*
X449262Y-87312D02*
G54D15*
D03*
X474662Y-87312D02*
G54D15*
D03*
X417512Y-201612D02*
G54D10*
D03*
X366712Y-87312D02*
G54D10*
D03*
G54D12*
X608012Y-201612D02*
X608012Y-230188D01*
X627062Y-249238D01*
X658812Y-249238D01*
X684212Y-223838D01*
X709612Y-223838D01*
G54D16*
X525462Y-163512D02*
X525462Y-201612D01*
X531812Y-87312D02*
G54D10*
D03*
X449262Y-87312D02*
G54D10*
D03*
X360362Y-201612D02*
G54D10*
D03*
X334962Y-201612D02*
G54D10*
D03*
X36512Y-201612D02*
G54D10*
D03*
G54D16*
X125412Y-166688D02*
X74612Y-166688D01*
X61912Y-179388D01*
X61912Y-201612D01*
G54D16*
X341313Y-87312D02*
X147638Y-87312D01*
X125412Y-109538D01*
X125412Y-166688D01*
X526653Y-125412D02*
G54D13*
D03*
G36*
X547212Y-107913D02*
X567212Y-107912D01*
X567213Y-142912D01*
X547213Y-142913D01*
X547212Y-107913D01*
G37*
G54D16*
X284162Y-166688D02*
X284162Y-144462D01*
X271462Y-131762D01*
X188912Y-131762D01*
X176212Y-144462D01*
X176212Y-166688D01*
G54D16*
X557212Y-87312D02*
X557212Y-125412D01*
G54D16*
X526653Y-125412D02*
X506413Y-125412D01*
X493712Y-138112D01*
X493712Y-162322D01*
X494903Y-163512D01*
G54D16*
X423862Y-87312D02*
X423862Y-103188D01*
X411162Y-115888D01*
X401612Y-115912D01*
X461962Y-125412D02*
G54D10*
D03*
X461962Y-165412D02*
G54D10*
D03*
X195262Y-201612D02*
G54D10*
D03*
X169862Y-201612D02*
G54D10*
D03*
X277812Y-201612D02*
G54D10*
D03*
X252412Y-201612D02*
G54D10*
D03*
G54D12*
X677862Y-173038D02*
X668338Y-173038D01*
X658812Y-182562D01*
X658812Y-201612D01*
G54D16*
X494903Y-163512D02*
X494903Y-168672D01*
X461962Y-201612D01*
X442912Y-201612D01*
G54D16*
X169862Y-201612D02*
X169862Y-220662D01*
X157162Y-233362D01*
X100012Y-233362D01*
X87312Y-220662D01*
X87312Y-201612D01*
X277812Y-201612D02*
G54D10*
D03*
G54D16*
X252412Y-201612D02*
X252412Y-239712D01*
X236538Y-255588D01*
X77788Y-255588D01*
X61912Y-239712D01*
X61912Y-201612D01*
G54D16*
X382612Y-115912D02*
X353988Y-115912D01*
X334962Y-134938D01*
X334962Y-201612D01*
X381000Y-184150D02*
G54D17*
D03*
X393700Y-184150D02*
G54D17*
D03*
G54D16*
X360362Y-201612D02*
X360362Y-192088D01*
X368300Y-184150D01*
X381000Y-184150D01*
X703262Y-306388D02*
G54D10*
D03*
X703262Y-331788D02*
G54D10*
D03*
X703262Y-357188D02*
G54D10*
D03*
X703262Y-382588D02*
G54D10*
D03*
X703262Y-439738D02*
G54D10*
D03*
X703262Y-465138D02*
G54D10*
D03*
X703262Y-490538D02*
G54D10*
D03*
X703262Y-515938D02*
G54D10*
D03*
X525462Y-468312D02*
G54D10*
D03*
X500062Y-468312D02*
G54D10*
D03*
X531812Y-354012D02*
G54D10*
D03*
X557212Y-354012D02*
G54D10*
D03*
X658812Y-468312D02*
G54D10*
D03*
X633412Y-468312D02*
G54D10*
D03*
X608012Y-468312D02*
G54D10*
D03*
X582612Y-468312D02*
G54D10*
D03*
X341313Y-354012D02*
G54D10*
D03*
X366712Y-354012D02*
G54D10*
D03*
X623888Y-366712D02*
G54D11*
D03*
X52388Y-366712D02*
G54D11*
D03*
X500062Y-468312D02*
G54D10*
D03*
X112712Y-468312D02*
G54D10*
D03*
X87312Y-468312D02*
G54D10*
D03*
X61912Y-468312D02*
G54D10*
D03*
X36512Y-468312D02*
G54D10*
D03*
G54D12*
X703262Y-306388D02*
X687388Y-306388D01*
X677862Y-315912D01*
X677862Y-439738D01*
X703262Y-439738D01*
G54D12*
X703262Y-357188D02*
X719138Y-357188D01*
X731838Y-369888D01*
X731838Y-477838D01*
X719138Y-490538D01*
X703262Y-490538D01*
X494903Y-430212D02*
G54D13*
D03*
X525462Y-430212D02*
G54D13*
D03*
G36*
X220362Y-427992D02*
X227968Y-420388D01*
X238758Y-420388D01*
X246362Y-427992D01*
X246362Y-438782D01*
X238758Y-446388D01*
X227968Y-446388D01*
X220362Y-438782D01*
X220362Y-427992D01*
G37*
G36*
X245762Y-427992D02*
X253368Y-420388D01*
X264158Y-420388D01*
X271762Y-427992D01*
X271762Y-438782D01*
X264158Y-446388D01*
X253368Y-446388D01*
X245762Y-438782D01*
X245762Y-427992D01*
G37*
G36*
X271162Y-427992D02*
X278767Y-420388D01*
X289557Y-420388D01*
X297162Y-427992D01*
X297162Y-438782D01*
X289557Y-446388D01*
X278767Y-446388D01*
X271162Y-438782D01*
X271162Y-427992D01*
G37*
G36*
X245762Y-427992D02*
X253368Y-420388D01*
X264158Y-420388D01*
X271762Y-427992D01*
X271762Y-438782D01*
X264158Y-446388D01*
X253368Y-446388D01*
X245762Y-438782D01*
X245762Y-427992D01*
G37*
X442912Y-468312D02*
G54D10*
D03*
X417512Y-468312D02*
G54D10*
D03*
X401612Y-382612D02*
G54D14*
D03*
X382612Y-382612D02*
G54D14*
D03*
G36*
X112412Y-427992D02*
X120018Y-420388D01*
X130808Y-420388D01*
X138412Y-427992D01*
X138412Y-438782D01*
X130808Y-446388D01*
X120018Y-446388D01*
X112412Y-438782D01*
X112412Y-427992D01*
G37*
G36*
X137812Y-427992D02*
X145418Y-420388D01*
X156208Y-420388D01*
X163812Y-427992D01*
X163812Y-438782D01*
X156208Y-446388D01*
X145418Y-446388D01*
X137812Y-438782D01*
X137812Y-427992D01*
G37*
G36*
X163212Y-427992D02*
X170817Y-420388D01*
X181607Y-420388D01*
X189212Y-427992D01*
X189212Y-438782D01*
X181607Y-446388D01*
X170817Y-446388D01*
X163212Y-438782D01*
X163212Y-427992D01*
G37*
G36*
X137812Y-427992D02*
X145418Y-420388D01*
X156208Y-420388D01*
X163812Y-427992D01*
X163812Y-438782D01*
X156208Y-446388D01*
X145418Y-446388D01*
X137812Y-438782D01*
X137812Y-427992D01*
G37*
X423862Y-354012D02*
G54D15*
D03*
X449262Y-354012D02*
G54D15*
D03*
X474662Y-354012D02*
G54D15*
D03*
X417512Y-468312D02*
G54D10*
D03*
X366712Y-354012D02*
G54D10*
D03*
G54D12*
X608012Y-468312D02*
X608012Y-496888D01*
X627062Y-515938D01*
X658812Y-515938D01*
X684212Y-490538D01*
X709612Y-490538D01*
G54D16*
X525462Y-430212D02*
X525462Y-468312D01*
X531812Y-354012D02*
G54D10*
D03*
X449262Y-354012D02*
G54D10*
D03*
X360362Y-468312D02*
G54D10*
D03*
X334962Y-468312D02*
G54D10*
D03*
X36512Y-468312D02*
G54D10*
D03*
G54D16*
X125412Y-433388D02*
X74612Y-433388D01*
X61912Y-446088D01*
X61912Y-468312D01*
G54D16*
X341313Y-354012D02*
X147638Y-354012D01*
X125412Y-376238D01*
X125412Y-433388D01*
X526653Y-392112D02*
G54D13*
D03*
X557212Y-392112D02*
G54D13*
D03*
G54D16*
X284162Y-433388D02*
X284162Y-411162D01*
X271462Y-398462D01*
X188912Y-398462D01*
X176212Y-411162D01*
X176212Y-433388D01*
G54D16*
X557212Y-354012D02*
X557212Y-392112D01*
G54D16*
X526653Y-392112D02*
X506413Y-392112D01*
X493712Y-404812D01*
X493712Y-429022D01*
X494903Y-430212D01*
G54D16*
X423862Y-354012D02*
X423862Y-369888D01*
X411162Y-382588D01*
X401612Y-382612D01*
X461962Y-392112D02*
G54D10*
D03*
X461962Y-432112D02*
G54D10*
D03*
X195262Y-468312D02*
G54D10*
D03*
X169862Y-468312D02*
G54D10*
D03*
X277812Y-468312D02*
G54D10*
D03*
X252412Y-468312D02*
G54D10*
D03*
G54D12*
X677862Y-439738D02*
X668338Y-439738D01*
X658812Y-449262D01*
X658812Y-468312D01*
G54D16*
X494903Y-430212D02*
X494903Y-435372D01*
X461962Y-468312D01*
X442912Y-468312D01*
G54D16*
X169862Y-468312D02*
X169862Y-487362D01*
X157162Y-500062D01*
X100012Y-500062D01*
X87312Y-487362D01*
X87312Y-468312D01*
X277812Y-468312D02*
G54D10*
D03*
G54D16*
X252412Y-468312D02*
X252412Y-506412D01*
X236538Y-522288D01*
X77788Y-522288D01*
X61912Y-506412D01*
X61912Y-468312D01*
G54D16*
X382612Y-382612D02*
X353988Y-382612D01*
X334962Y-401638D01*
X334962Y-468312D01*
X381000Y-450850D02*
G54D17*
D03*
X393700Y-450850D02*
G54D17*
D03*
G54D16*
X360362Y-468312D02*
X360362Y-458788D01*
X368300Y-450850D01*
X381000Y-450850D01*
X703262Y-573088D02*
G54D10*
D03*
X703262Y-598488D02*
G54D10*
D03*
X703262Y-623888D02*
G54D10*
D03*
X703262Y-649288D02*
G54D10*
D03*
X703262Y-706438D02*
G54D10*
D03*
X703262Y-731838D02*
G54D10*
D03*
X703262Y-757238D02*
G54D10*
D03*
X703262Y-782638D02*
G54D10*
D03*
X525462Y-735012D02*
G54D10*
D03*
X500062Y-735012D02*
G54D10*
D03*
X531812Y-620712D02*
G54D10*
D03*
X557212Y-620712D02*
G54D10*
D03*
X658812Y-735012D02*
G54D10*
D03*
X633412Y-735012D02*
G54D10*
D03*
X608012Y-735012D02*
G54D10*
D03*
X582612Y-735012D02*
G54D10*
D03*
X341313Y-620712D02*
G54D10*
D03*
X366712Y-620712D02*
G54D10*
D03*
X623888Y-633412D02*
G54D11*
D03*
X52388Y-633412D02*
G54D11*
D03*
X500062Y-735012D02*
G54D10*
D03*
X112712Y-735012D02*
G54D10*
D03*
X87312Y-735012D02*
G54D10*
D03*
X61912Y-735012D02*
G54D10*
D03*
X36512Y-735012D02*
G54D10*
D03*
G54D12*
X703262Y-573088D02*
X687388Y-573088D01*
X677862Y-582612D01*
X677862Y-706438D01*
X703262Y-706438D01*
G54D12*
X703262Y-623888D02*
X719138Y-623888D01*
X731838Y-636588D01*
X731838Y-744538D01*
X719138Y-757238D01*
X703262Y-757238D01*
X494903Y-696912D02*
G54D13*
D03*
X525462Y-696912D02*
G54D13*
D03*
G36*
X220362Y-694692D02*
X227968Y-687088D01*
X238758Y-687088D01*
X246362Y-694692D01*
X246362Y-705482D01*
X238758Y-713088D01*
X227968Y-713088D01*
X220362Y-705482D01*
X220362Y-694692D01*
G37*
G36*
X245762Y-694692D02*
X253368Y-687088D01*
X264158Y-687088D01*
X271762Y-694692D01*
X271762Y-705482D01*
X264158Y-713088D01*
X253368Y-713088D01*
X245762Y-705482D01*
X245762Y-694692D01*
G37*
G36*
X271162Y-694692D02*
X278767Y-687088D01*
X289557Y-687088D01*
X297162Y-694692D01*
X297162Y-705482D01*
X289557Y-713088D01*
X278767Y-713088D01*
X271162Y-705482D01*
X271162Y-694692D01*
G37*
G36*
X245762Y-694692D02*
X253368Y-687088D01*
X264158Y-687088D01*
X271762Y-694692D01*
X271762Y-705482D01*
X264158Y-713088D01*
X253368Y-713088D01*
X245762Y-705482D01*
X245762Y-694692D01*
G37*
X442912Y-735012D02*
G54D10*
D03*
X417512Y-735012D02*
G54D10*
D03*
X401612Y-649312D02*
G54D14*
D03*
X382612Y-649312D02*
G54D14*
D03*
G36*
X112412Y-694692D02*
X120018Y-687088D01*
X130808Y-687088D01*
X138412Y-694692D01*
X138412Y-705482D01*
X130808Y-713088D01*
X120018Y-713088D01*
X112412Y-705482D01*
X112412Y-694692D01*
G37*
G36*
X137812Y-694692D02*
X145418Y-687088D01*
X156208Y-687088D01*
X163812Y-694692D01*
X163812Y-705482D01*
X156208Y-713088D01*
X145418Y-713088D01*
X137812Y-705482D01*
X137812Y-694692D01*
G37*
G36*
X163212Y-694692D02*
X170817Y-687088D01*
X181607Y-687088D01*
X189212Y-694692D01*
X189212Y-705482D01*
X181607Y-713088D01*
X170817Y-713088D01*
X163212Y-705482D01*
X163212Y-694692D01*
G37*
G36*
X137812Y-694692D02*
X145418Y-687088D01*
X156208Y-687088D01*
X163812Y-694692D01*
X163812Y-705482D01*
X156208Y-713088D01*
X145418Y-713088D01*
X137812Y-705482D01*
X137812Y-694692D01*
G37*
X423862Y-620712D02*
G54D15*
D03*
X449262Y-620712D02*
G54D15*
D03*
X474662Y-620712D02*
G54D15*
D03*
X417512Y-735012D02*
G54D10*
D03*
X366712Y-620712D02*
G54D10*
D03*
G54D12*
X608012Y-735012D02*
X608012Y-763588D01*
X627062Y-782638D01*
X658812Y-782638D01*
X684212Y-757238D01*
X709612Y-757238D01*
G54D16*
X525462Y-696912D02*
X525462Y-735012D01*
X531812Y-620712D02*
G54D10*
D03*
X449262Y-620712D02*
G54D10*
D03*
X360362Y-735012D02*
G54D10*
D03*
X334962Y-735012D02*
G54D10*
D03*
X36512Y-735012D02*
G54D10*
D03*
G54D16*
X125412Y-700088D02*
X74612Y-700088D01*
X61912Y-712788D01*
X61912Y-735012D01*
G54D16*
X341313Y-620712D02*
X147638Y-620712D01*
X125412Y-642938D01*
X125412Y-700088D01*
X526653Y-658812D02*
G54D13*
D03*
X557212Y-658812D02*
G54D13*
D03*
G54D16*
X284162Y-700088D02*
X284162Y-677862D01*
X271462Y-665162D01*
X188912Y-665162D01*
X176212Y-677862D01*
X176212Y-700088D01*
G54D16*
X557212Y-620712D02*
X557212Y-658812D01*
G54D16*
X526653Y-658812D02*
X506413Y-658812D01*
X493712Y-671512D01*
X493712Y-695722D01*
X494903Y-696912D01*
G54D16*
X423862Y-620712D02*
X423862Y-636588D01*
X411162Y-649288D01*
X401612Y-649312D01*
X461962Y-658812D02*
G54D10*
D03*
X461962Y-698812D02*
G54D10*
D03*
X195262Y-735012D02*
G54D10*
D03*
X169862Y-735012D02*
G54D10*
D03*
X277812Y-735012D02*
G54D10*
D03*
X252412Y-735012D02*
G54D10*
D03*
G54D12*
X677862Y-706438D02*
X668338Y-706438D01*
X658812Y-715962D01*
X658812Y-735012D01*
G54D16*
X494903Y-696912D02*
X494903Y-702072D01*
X461962Y-735012D01*
X442912Y-735012D01*
G54D16*
X169862Y-735012D02*
X169862Y-754062D01*
X157162Y-766762D01*
X100012Y-766762D01*
X87312Y-754062D01*
X87312Y-735012D01*
X277812Y-735012D02*
G54D10*
D03*
G54D16*
X252412Y-735012D02*
X252412Y-773112D01*
X236538Y-788988D01*
X77788Y-788988D01*
X61912Y-773112D01*
X61912Y-735012D01*
G54D16*
X382612Y-649312D02*
X353988Y-649312D01*
X334962Y-668338D01*
X334962Y-735012D01*
X381000Y-717550D02*
G54D17*
D03*
X393700Y-717550D02*
G54D17*
D03*
G54D16*
X360362Y-735012D02*
X360362Y-725488D01*
X368300Y-717550D01*
X381000Y-717550D01*
%LPD*%
G54D18*
G36*
X503062Y-201612D02*
X503062Y-216112D01*
X497062Y-216112D01*
X497062Y-201612D01*
X503062Y-201612D01*
G37*
G36*
X497062Y-201612D02*
X497062Y-187112D01*
X503062Y-187112D01*
X503062Y-201612D01*
X497062Y-201612D01*
G37*
G54D18*
G36*
X255762Y-166688D02*
X255762Y-153188D01*
X261762Y-153188D01*
X261762Y-166688D01*
X255762Y-166688D01*
G37*
G36*
X261762Y-166688D02*
X261762Y-180188D01*
X255762Y-180188D01*
X255762Y-166688D01*
X261762Y-166688D01*
G37*
G54D18*
G36*
X147812Y-166688D02*
X147812Y-153188D01*
X153812Y-153188D01*
X153812Y-166688D01*
X147812Y-166688D01*
G37*
G36*
X153812Y-166688D02*
X153812Y-180188D01*
X147812Y-180188D01*
X147812Y-166688D01*
X153812Y-166688D01*
G37*
G54D18*
G36*
X420512Y-201612D02*
X420512Y-216112D01*
X414512Y-216112D01*
X414512Y-201612D01*
X420512Y-201612D01*
G37*
G36*
X414512Y-201612D02*
X414512Y-187112D01*
X420512Y-187112D01*
X420512Y-201612D01*
X414512Y-201612D01*
G37*
G54D18*
G36*
X369712Y-87312D02*
X369712Y-101812D01*
X363712Y-101812D01*
X363712Y-87312D01*
X369712Y-87312D01*
G37*
G36*
X363712Y-87312D02*
X363712Y-72812D01*
X369712Y-72812D01*
X369712Y-87312D01*
X363712Y-87312D01*
G37*
G54D18*
G36*
X534812Y-87312D02*
X534812Y-101812D01*
X528812Y-101812D01*
X528812Y-87312D01*
X534812Y-87312D01*
G37*
G36*
X528812Y-87312D02*
X528812Y-72812D01*
X534812Y-72812D01*
X534812Y-87312D01*
X528812Y-87312D01*
G37*
G54D18*
G36*
X452262Y-87312D02*
X452262Y-101812D01*
X446262Y-101812D01*
X446262Y-87312D01*
X452262Y-87312D01*
G37*
G36*
X446262Y-87312D02*
X446262Y-72812D01*
X452262Y-72812D01*
X452262Y-87312D01*
X446262Y-87312D01*
G37*
G54D18*
G36*
X39512Y-201612D02*
X39512Y-216112D01*
X33512Y-216112D01*
X33512Y-201612D01*
X39512Y-201612D01*
G37*
G36*
X33512Y-201612D02*
X33512Y-187112D01*
X39512Y-187112D01*
X39512Y-201612D01*
X33512Y-201612D01*
G37*
G54D18*
G36*
X464084Y-167534D02*
X453831Y-177787D01*
X449588Y-173544D01*
X459841Y-163291D01*
X464084Y-167534D01*
G37*
G36*
X459841Y-167534D02*
X449588Y-157281D01*
X453831Y-153038D01*
X464084Y-163291D01*
X459841Y-167534D01*
G37*
G36*
X459841Y-163291D02*
X470094Y-153038D01*
X474337Y-157281D01*
X464084Y-167534D01*
X459841Y-163291D01*
G37*
G54D18*
G36*
X280812Y-201612D02*
X280812Y-216112D01*
X274812Y-216112D01*
X274812Y-201612D01*
X280812Y-201612D01*
G37*
G36*
X274812Y-201612D02*
X274812Y-187112D01*
X280812Y-187112D01*
X280812Y-201612D01*
X274812Y-201612D01*
G37*
G54D19*
G36*
X392034Y-184150D02*
X392034Y-168650D01*
X395366Y-168650D01*
X395366Y-184150D01*
X392034Y-184150D01*
G37*
G36*
X393700Y-182484D02*
X404200Y-182484D01*
X404200Y-185816D01*
X393700Y-185816D01*
X393700Y-182484D01*
G37*
G36*
X395366Y-184150D02*
X395366Y-199650D01*
X392034Y-199650D01*
X392034Y-184150D01*
X395366Y-184150D01*
G37*
G54D18*
G36*
X503062Y-468312D02*
X503062Y-482812D01*
X497062Y-482812D01*
X497062Y-468312D01*
X503062Y-468312D01*
G37*
G36*
X497062Y-468312D02*
X497062Y-453812D01*
X503062Y-453812D01*
X503062Y-468312D01*
X497062Y-468312D01*
G37*
G54D18*
G36*
X255762Y-433388D02*
X255762Y-419888D01*
X261762Y-419888D01*
X261762Y-433388D01*
X255762Y-433388D01*
G37*
G36*
X261762Y-433388D02*
X261762Y-446888D01*
X255762Y-446888D01*
X255762Y-433388D01*
X261762Y-433388D01*
G37*
G54D18*
G36*
X147812Y-433388D02*
X147812Y-419888D01*
X153812Y-419888D01*
X153812Y-433388D01*
X147812Y-433388D01*
G37*
G36*
X153812Y-433388D02*
X153812Y-446888D01*
X147812Y-446888D01*
X147812Y-433388D01*
X153812Y-433388D01*
G37*
G54D18*
G36*
X420512Y-468312D02*
X420512Y-482812D01*
X414512Y-482812D01*
X414512Y-468312D01*
X420512Y-468312D01*
G37*
G36*
X414512Y-468312D02*
X414512Y-453812D01*
X420512Y-453812D01*
X420512Y-468312D01*
X414512Y-468312D01*
G37*
G54D18*
G36*
X369712Y-354012D02*
X369712Y-368512D01*
X363712Y-368512D01*
X363712Y-354012D01*
X369712Y-354012D01*
G37*
G36*
X363712Y-354012D02*
X363712Y-339512D01*
X369712Y-339512D01*
X369712Y-354012D01*
X363712Y-354012D01*
G37*
G54D18*
G36*
X534812Y-354012D02*
X534812Y-368512D01*
X528812Y-368512D01*
X528812Y-354012D01*
X534812Y-354012D01*
G37*
G36*
X528812Y-354012D02*
X528812Y-339512D01*
X534812Y-339512D01*
X534812Y-354012D01*
X528812Y-354012D01*
G37*
G54D18*
G36*
X452262Y-354012D02*
X452262Y-368512D01*
X446262Y-368512D01*
X446262Y-354012D01*
X452262Y-354012D01*
G37*
G36*
X446262Y-354012D02*
X446262Y-339512D01*
X452262Y-339512D01*
X452262Y-354012D01*
X446262Y-354012D01*
G37*
G54D18*
G36*
X39512Y-468312D02*
X39512Y-482812D01*
X33512Y-482812D01*
X33512Y-468312D01*
X39512Y-468312D01*
G37*
G36*
X33512Y-468312D02*
X33512Y-453812D01*
X39512Y-453812D01*
X39512Y-468312D01*
X33512Y-468312D01*
G37*
G54D18*
G36*
X464084Y-434234D02*
X453831Y-444487D01*
X449588Y-440244D01*
X459841Y-429991D01*
X464084Y-434234D01*
G37*
G36*
X459841Y-434234D02*
X449588Y-423981D01*
X453831Y-419738D01*
X464084Y-429991D01*
X459841Y-434234D01*
G37*
G36*
X459841Y-429991D02*
X470094Y-419738D01*
X474337Y-423981D01*
X464084Y-434234D01*
X459841Y-429991D01*
G37*
G54D18*
G36*
X280812Y-468312D02*
X280812Y-482812D01*
X274812Y-482812D01*
X274812Y-468312D01*
X280812Y-468312D01*
G37*
G36*
X274812Y-468312D02*
X274812Y-453812D01*
X280812Y-453812D01*
X280812Y-468312D01*
X274812Y-468312D01*
G37*
G54D19*
G36*
X392034Y-450850D02*
X392034Y-435350D01*
X395366Y-435350D01*
X395366Y-450850D01*
X392034Y-450850D01*
G37*
G36*
X393700Y-449184D02*
X404200Y-449184D01*
X404200Y-452516D01*
X393700Y-452516D01*
X393700Y-449184D01*
G37*
G36*
X395366Y-450850D02*
X395366Y-466350D01*
X392034Y-466350D01*
X392034Y-450850D01*
X395366Y-450850D01*
G37*
G54D18*
G36*
X503062Y-735012D02*
X503062Y-749512D01*
X497062Y-749512D01*
X497062Y-735012D01*
X503062Y-735012D01*
G37*
G36*
X497062Y-735012D02*
X497062Y-720512D01*
X503062Y-720512D01*
X503062Y-735012D01*
X497062Y-735012D01*
G37*
G54D18*
G36*
X255762Y-700088D02*
X255762Y-686588D01*
X261762Y-686588D01*
X261762Y-700088D01*
X255762Y-700088D01*
G37*
G36*
X261762Y-700088D02*
X261762Y-713588D01*
X255762Y-713588D01*
X255762Y-700088D01*
X261762Y-700088D01*
G37*
G54D18*
G36*
X147812Y-700088D02*
X147812Y-686588D01*
X153812Y-686588D01*
X153812Y-700088D01*
X147812Y-700088D01*
G37*
G36*
X153812Y-700088D02*
X153812Y-713588D01*
X147812Y-713588D01*
X147812Y-700088D01*
X153812Y-700088D01*
G37*
G54D18*
G36*
X420512Y-735012D02*
X420512Y-749512D01*
X414512Y-749512D01*
X414512Y-735012D01*
X420512Y-735012D01*
G37*
G36*
X414512Y-735012D02*
X414512Y-720512D01*
X420512Y-720512D01*
X420512Y-735012D01*
X414512Y-735012D01*
G37*
G54D18*
G36*
X369712Y-620712D02*
X369712Y-635212D01*
X363712Y-635212D01*
X363712Y-620712D01*
X369712Y-620712D01*
G37*
G36*
X363712Y-620712D02*
X363712Y-606212D01*
X369712Y-606212D01*
X369712Y-620712D01*
X363712Y-620712D01*
G37*
G54D18*
G36*
X534812Y-620712D02*
X534812Y-635212D01*
X528812Y-635212D01*
X528812Y-620712D01*
X534812Y-620712D01*
G37*
G36*
X528812Y-620712D02*
X528812Y-606212D01*
X534812Y-606212D01*
X534812Y-620712D01*
X528812Y-620712D01*
G37*
G54D18*
G36*
X452262Y-620712D02*
X452262Y-635212D01*
X446262Y-635212D01*
X446262Y-620712D01*
X452262Y-620712D01*
G37*
G36*
X446262Y-620712D02*
X446262Y-606212D01*
X452262Y-606212D01*
X452262Y-620712D01*
X446262Y-620712D01*
G37*
G54D18*
G36*
X39512Y-735012D02*
X39512Y-749512D01*
X33512Y-749512D01*
X33512Y-735012D01*
X39512Y-735012D01*
G37*
G36*
X33512Y-735012D02*
X33512Y-720512D01*
X39512Y-720512D01*
X39512Y-735012D01*
X33512Y-735012D01*
G37*
G54D18*
G36*
X464084Y-700934D02*
X453831Y-711187D01*
X449588Y-706944D01*
X459841Y-696691D01*
X464084Y-700934D01*
G37*
G36*
X459841Y-700934D02*
X449588Y-690681D01*
X453831Y-686438D01*
X464084Y-696691D01*
X459841Y-700934D01*
G37*
G36*
X459841Y-696691D02*
X470094Y-686438D01*
X474337Y-690681D01*
X464084Y-700934D01*
X459841Y-696691D01*
G37*
G54D18*
G36*
X280812Y-735012D02*
X280812Y-749512D01*
X274812Y-749512D01*
X274812Y-735012D01*
X280812Y-735012D01*
G37*
G36*
X274812Y-735012D02*
X274812Y-720512D01*
X280812Y-720512D01*
X280812Y-735012D01*
X274812Y-735012D01*
G37*
G54D19*
G36*
X392034Y-717550D02*
X392034Y-702050D01*
X395366Y-702050D01*
X395366Y-717550D01*
X392034Y-717550D01*
G37*
G36*
X393700Y-715884D02*
X404200Y-715884D01*
X404200Y-719216D01*
X393700Y-719216D01*
X393700Y-715884D01*
G37*
G36*
X395366Y-717550D02*
X395366Y-733050D01*
X392034Y-733050D01*
X392034Y-717550D01*
X395366Y-717550D01*
G37*
X703262Y-39688D02*
G54D20*
D03*
X703262Y-65088D02*
G54D20*
D03*
X703262Y-90488D02*
G54D20*
D03*
X703262Y-115888D02*
G54D20*
D03*
X703262Y-173038D02*
G54D20*
D03*
X703262Y-198438D02*
G54D20*
D03*
X703262Y-223838D02*
G54D20*
D03*
X703262Y-249238D02*
G54D20*
D03*
X525462Y-201612D02*
G54D20*
D03*
X500062Y-201612D02*
G54D20*
D03*
X531812Y-87312D02*
G54D20*
D03*
X557212Y-87312D02*
G54D20*
D03*
X658812Y-201612D02*
G54D20*
D03*
X633412Y-201612D02*
G54D20*
D03*
X608012Y-201612D02*
G54D20*
D03*
X582612Y-201612D02*
G54D20*
D03*
X341313Y-87312D02*
G54D20*
D03*
X366712Y-87312D02*
G54D20*
D03*
X623888Y-100012D02*
G54D21*
D03*
X52388Y-100012D02*
G54D21*
D03*
X500062Y-201612D02*
G54D20*
D03*
X112712Y-201612D02*
G54D20*
D03*
X87312Y-201612D02*
G54D20*
D03*
X61912Y-201612D02*
G54D20*
D03*
X36512Y-201612D02*
G54D20*
D03*
G54D22*
X703262Y-39688D02*
X687388Y-39688D01*
X677862Y-49212D01*
X677862Y-173038D01*
X703262Y-173038D01*
G54D22*
X703262Y-90488D02*
X719138Y-90488D01*
X731838Y-103188D01*
X731838Y-211138D01*
X719138Y-223838D01*
X703262Y-223838D01*
X494903Y-163512D02*
G54D23*
D03*
G36*
X520462Y-151013D02*
X530462Y-151012D01*
X530463Y-176012D01*
X520463Y-176013D01*
X520462Y-151013D01*
G37*
G36*
X224362Y-162952D02*
X229628Y-157688D01*
X237098Y-157688D01*
X242362Y-162952D01*
X242362Y-170422D01*
X237098Y-175688D01*
X229628Y-175688D01*
X224362Y-170422D01*
X224362Y-162952D01*
G37*
G36*
X249762Y-162952D02*
X255028Y-157688D01*
X262498Y-157688D01*
X267762Y-162952D01*
X267762Y-170422D01*
X262498Y-175688D01*
X255028Y-175688D01*
X249762Y-170422D01*
X249762Y-162952D01*
G37*
G36*
X275162Y-162952D02*
X280427Y-157688D01*
X287897Y-157688D01*
X293162Y-162952D01*
X293162Y-170422D01*
X287897Y-175688D01*
X280427Y-175688D01*
X275162Y-170422D01*
X275162Y-162952D01*
G37*
G36*
X249762Y-162952D02*
X255028Y-157688D01*
X262498Y-157688D01*
X267762Y-162952D01*
X267762Y-170422D01*
X262498Y-175688D01*
X255028Y-175688D01*
X249762Y-170422D01*
X249762Y-162952D01*
G37*
X442912Y-201612D02*
G54D20*
D03*
X417512Y-201612D02*
G54D20*
D03*
X401612Y-115912D02*
G54D24*
D03*
X382612Y-115912D02*
G54D24*
D03*
G36*
X116412Y-162952D02*
X121678Y-157688D01*
X129148Y-157688D01*
X134412Y-162952D01*
X134412Y-170422D01*
X129148Y-175688D01*
X121678Y-175688D01*
X116412Y-170422D01*
X116412Y-162952D01*
G37*
G36*
X141812Y-162952D02*
X147078Y-157688D01*
X154548Y-157688D01*
X159812Y-162952D01*
X159812Y-170422D01*
X154548Y-175688D01*
X147078Y-175688D01*
X141812Y-170422D01*
X141812Y-162952D01*
G37*
G36*
X167212Y-162953D02*
X172477Y-157688D01*
X179947Y-157688D01*
X185212Y-162953D01*
X185212Y-170423D01*
X179947Y-175688D01*
X172477Y-175688D01*
X167212Y-170423D01*
X167212Y-162953D01*
G37*
G36*
X141812Y-162952D02*
X147078Y-157688D01*
X154548Y-157688D01*
X159812Y-162952D01*
X159812Y-170422D01*
X154548Y-175688D01*
X147078Y-175688D01*
X141812Y-170422D01*
X141812Y-162952D01*
G37*
X423862Y-87312D02*
G54D20*
D03*
X449262Y-87312D02*
G54D20*
D03*
X474662Y-87312D02*
G54D20*
D03*
X417512Y-201612D02*
G54D20*
D03*
X366712Y-87312D02*
G54D20*
D03*
G54D22*
X608012Y-201612D02*
X608012Y-230188D01*
X627062Y-249238D01*
X658812Y-249238D01*
X684212Y-223838D01*
X709612Y-223838D01*
G54D25*
X525462Y-163512D02*
X525462Y-201612D01*
X531812Y-87312D02*
G54D20*
D03*
X449262Y-87312D02*
G54D20*
D03*
X360362Y-201612D02*
G54D20*
D03*
X334962Y-201612D02*
G54D20*
D03*
X36512Y-201612D02*
G54D20*
D03*
G54D25*
X125412Y-166688D02*
X74612Y-166688D01*
X61912Y-179388D01*
X61912Y-201612D01*
G54D25*
X341313Y-87312D02*
X147638Y-87312D01*
X125412Y-109538D01*
X125412Y-166688D01*
X526653Y-125412D02*
G54D23*
D03*
G36*
X552212Y-112913D02*
X562212Y-112912D01*
X562213Y-137912D01*
X552213Y-137913D01*
X552212Y-112913D01*
G37*
G54D25*
X284162Y-166688D02*
X284162Y-144462D01*
X271462Y-131762D01*
X188912Y-131762D01*
X176212Y-144462D01*
X176212Y-166688D01*
G54D25*
X557212Y-87312D02*
X557212Y-125412D01*
G54D25*
X526653Y-125412D02*
X506413Y-125412D01*
X493712Y-138112D01*
X493712Y-162322D01*
X494903Y-163512D01*
G54D25*
X423862Y-87312D02*
X423862Y-103188D01*
X411162Y-115888D01*
X401612Y-115912D01*
X461962Y-125412D02*
G54D20*
D03*
X461962Y-165412D02*
G54D20*
D03*
X195262Y-201612D02*
G54D20*
D03*
X169862Y-201612D02*
G54D20*
D03*
X277812Y-201612D02*
G54D20*
D03*
X252412Y-201612D02*
G54D20*
D03*
G54D22*
X677862Y-173038D02*
X668338Y-173038D01*
X658812Y-182562D01*
X658812Y-201612D01*
G54D25*
X494903Y-163512D02*
X494903Y-168672D01*
X461962Y-201612D01*
X442912Y-201612D01*
G54D25*
X169862Y-201612D02*
X169862Y-220662D01*
X157162Y-233362D01*
X100012Y-233362D01*
X87312Y-220662D01*
X87312Y-201612D01*
X277812Y-201612D02*
G54D20*
D03*
G54D25*
X252412Y-201612D02*
X252412Y-239712D01*
X236538Y-255588D01*
X77788Y-255588D01*
X61912Y-239712D01*
X61912Y-201612D01*
G54D25*
X382612Y-115912D02*
X353988Y-115912D01*
X334962Y-134938D01*
X334962Y-201612D01*
X381000Y-184150D02*
G54D26*
D03*
X393700Y-184150D02*
G54D26*
D03*
G54D25*
X360362Y-201612D02*
X360362Y-192088D01*
X368300Y-184150D01*
X381000Y-184150D01*
X703262Y-306388D02*
G54D20*
D03*
X703262Y-331788D02*
G54D20*
D03*
X703262Y-357188D02*
G54D20*
D03*
X703262Y-382588D02*
G54D20*
D03*
X703262Y-439738D02*
G54D20*
D03*
X703262Y-465138D02*
G54D20*
D03*
X703262Y-490538D02*
G54D20*
D03*
X703262Y-515938D02*
G54D20*
D03*
X525462Y-468312D02*
G54D20*
D03*
X500062Y-468312D02*
G54D20*
D03*
X531812Y-354012D02*
G54D20*
D03*
X557212Y-354012D02*
G54D20*
D03*
X658812Y-468312D02*
G54D20*
D03*
X633412Y-468312D02*
G54D20*
D03*
X608012Y-468312D02*
G54D20*
D03*
X582612Y-468312D02*
G54D20*
D03*
X341313Y-354012D02*
G54D20*
D03*
X366712Y-354012D02*
G54D20*
D03*
X623888Y-366712D02*
G54D21*
D03*
X52388Y-366712D02*
G54D21*
D03*
X500062Y-468312D02*
G54D20*
D03*
X112712Y-468312D02*
G54D20*
D03*
X87312Y-468312D02*
G54D20*
D03*
X61912Y-468312D02*
G54D20*
D03*
X36512Y-468312D02*
G54D20*
D03*
G54D22*
X703262Y-306388D02*
X687388Y-306388D01*
X677862Y-315912D01*
X677862Y-439738D01*
X703262Y-439738D01*
G54D22*
X703262Y-357188D02*
X719138Y-357188D01*
X731838Y-369888D01*
X731838Y-477838D01*
X719138Y-490538D01*
X703262Y-490538D01*
X494903Y-430212D02*
G54D23*
D03*
X525462Y-430212D02*
G54D23*
D03*
G36*
X224362Y-429652D02*
X229628Y-424388D01*
X237098Y-424388D01*
X242362Y-429652D01*
X242362Y-437122D01*
X237098Y-442388D01*
X229628Y-442388D01*
X224362Y-437122D01*
X224362Y-429652D01*
G37*
G36*
X249762Y-429652D02*
X255028Y-424388D01*
X262498Y-424388D01*
X267762Y-429652D01*
X267762Y-437122D01*
X262498Y-442388D01*
X255028Y-442388D01*
X249762Y-437122D01*
X249762Y-429652D01*
G37*
G36*
X275162Y-429652D02*
X280427Y-424388D01*
X287897Y-424388D01*
X293162Y-429652D01*
X293162Y-437122D01*
X287897Y-442388D01*
X280427Y-442388D01*
X275162Y-437122D01*
X275162Y-429652D01*
G37*
G36*
X249762Y-429652D02*
X255028Y-424388D01*
X262498Y-424388D01*
X267762Y-429652D01*
X267762Y-437122D01*
X262498Y-442388D01*
X255028Y-442388D01*
X249762Y-437122D01*
X249762Y-429652D01*
G37*
X442912Y-468312D02*
G54D20*
D03*
X417512Y-468312D02*
G54D20*
D03*
X401612Y-382612D02*
G54D24*
D03*
X382612Y-382612D02*
G54D24*
D03*
G36*
X116412Y-429652D02*
X121678Y-424388D01*
X129148Y-424388D01*
X134412Y-429652D01*
X134412Y-437122D01*
X129148Y-442388D01*
X121678Y-442388D01*
X116412Y-437122D01*
X116412Y-429652D01*
G37*
G36*
X141812Y-429652D02*
X147078Y-424388D01*
X154548Y-424388D01*
X159812Y-429652D01*
X159812Y-437122D01*
X154548Y-442388D01*
X147078Y-442388D01*
X141812Y-437122D01*
X141812Y-429652D01*
G37*
G36*
X167212Y-429652D02*
X172477Y-424388D01*
X179947Y-424388D01*
X185212Y-429652D01*
X185212Y-437122D01*
X179947Y-442388D01*
X172477Y-442388D01*
X167212Y-437122D01*
X167212Y-429652D01*
G37*
G36*
X141812Y-429652D02*
X147078Y-424388D01*
X154548Y-424388D01*
X159812Y-429652D01*
X159812Y-437122D01*
X154548Y-442388D01*
X147078Y-442388D01*
X141812Y-437122D01*
X141812Y-429652D01*
G37*
X423862Y-354012D02*
G54D20*
D03*
X449262Y-354012D02*
G54D20*
D03*
X474662Y-354012D02*
G54D20*
D03*
X417512Y-468312D02*
G54D20*
D03*
X366712Y-354012D02*
G54D20*
D03*
G54D22*
X608012Y-468312D02*
X608012Y-496888D01*
X627062Y-515938D01*
X658812Y-515938D01*
X684212Y-490538D01*
X709612Y-490538D01*
G54D25*
X525462Y-430212D02*
X525462Y-468312D01*
X531812Y-354012D02*
G54D20*
D03*
X449262Y-354012D02*
G54D20*
D03*
X360362Y-468312D02*
G54D20*
D03*
X334962Y-468312D02*
G54D20*
D03*
X36512Y-468312D02*
G54D20*
D03*
G54D25*
X125412Y-433388D02*
X74612Y-433388D01*
X61912Y-446088D01*
X61912Y-468312D01*
G54D25*
X341313Y-354012D02*
X147638Y-354012D01*
X125412Y-376238D01*
X125412Y-433388D01*
X526653Y-392112D02*
G54D23*
D03*
X557212Y-392112D02*
G54D23*
D03*
G54D25*
X284162Y-433388D02*
X284162Y-411162D01*
X271462Y-398462D01*
X188912Y-398462D01*
X176212Y-411162D01*
X176212Y-433388D01*
G54D25*
X557212Y-354012D02*
X557212Y-392112D01*
G54D25*
X526653Y-392112D02*
X506413Y-392112D01*
X493712Y-404812D01*
X493712Y-429022D01*
X494903Y-430212D01*
G54D25*
X423862Y-354012D02*
X423862Y-369888D01*
X411162Y-382588D01*
X401612Y-382612D01*
X461962Y-392112D02*
G54D20*
D03*
X461962Y-432112D02*
G54D20*
D03*
X195262Y-468312D02*
G54D20*
D03*
X169862Y-468312D02*
G54D20*
D03*
X277812Y-468312D02*
G54D20*
D03*
X252412Y-468312D02*
G54D20*
D03*
G54D22*
X677862Y-439738D02*
X668338Y-439738D01*
X658812Y-449262D01*
X658812Y-468312D01*
G54D25*
X494903Y-430212D02*
X494903Y-435372D01*
X461962Y-468312D01*
X442912Y-468312D01*
G54D25*
X169862Y-468312D02*
X169862Y-487362D01*
X157162Y-500062D01*
X100012Y-500062D01*
X87312Y-487362D01*
X87312Y-468312D01*
X277812Y-468312D02*
G54D20*
D03*
G54D25*
X252412Y-468312D02*
X252412Y-506412D01*
X236538Y-522288D01*
X77788Y-522288D01*
X61912Y-506412D01*
X61912Y-468312D01*
G54D25*
X382612Y-382612D02*
X353988Y-382612D01*
X334962Y-401638D01*
X334962Y-468312D01*
X381000Y-450850D02*
G54D26*
D03*
X393700Y-450850D02*
G54D26*
D03*
G54D25*
X360362Y-468312D02*
X360362Y-458788D01*
X368300Y-450850D01*
X381000Y-450850D01*
X703262Y-573088D02*
G54D20*
D03*
X703262Y-598488D02*
G54D20*
D03*
X703262Y-623888D02*
G54D20*
D03*
X703262Y-649288D02*
G54D20*
D03*
X703262Y-706438D02*
G54D20*
D03*
X703262Y-731838D02*
G54D20*
D03*
X703262Y-757238D02*
G54D20*
D03*
X703262Y-782638D02*
G54D20*
D03*
X525462Y-735012D02*
G54D20*
D03*
X500062Y-735012D02*
G54D20*
D03*
X531812Y-620712D02*
G54D20*
D03*
X557212Y-620712D02*
G54D20*
D03*
X658812Y-735012D02*
G54D20*
D03*
X633412Y-735012D02*
G54D20*
D03*
X608012Y-735012D02*
G54D20*
D03*
X582612Y-735012D02*
G54D20*
D03*
X341313Y-620712D02*
G54D20*
D03*
X366712Y-620712D02*
G54D20*
D03*
X623888Y-633412D02*
G54D21*
D03*
X52388Y-633412D02*
G54D21*
D03*
X500062Y-735012D02*
G54D20*
D03*
X112712Y-735012D02*
G54D20*
D03*
X87312Y-735012D02*
G54D20*
D03*
X61912Y-735012D02*
G54D20*
D03*
X36512Y-735012D02*
G54D20*
D03*
G54D22*
X703262Y-573088D02*
X687388Y-573088D01*
X677862Y-582612D01*
X677862Y-706438D01*
X703262Y-706438D01*
G54D22*
X703262Y-623888D02*
X719138Y-623888D01*
X731838Y-636588D01*
X731838Y-744538D01*
X719138Y-757238D01*
X703262Y-757238D01*
X494903Y-696912D02*
G54D23*
D03*
X525462Y-696912D02*
G54D23*
D03*
G36*
X224362Y-696352D02*
X229628Y-691088D01*
X237098Y-691088D01*
X242362Y-696352D01*
X242362Y-703822D01*
X237098Y-709088D01*
X229628Y-709088D01*
X224362Y-703822D01*
X224362Y-696352D01*
G37*
G36*
X249762Y-696352D02*
X255028Y-691088D01*
X262498Y-691088D01*
X267762Y-696352D01*
X267762Y-703822D01*
X262498Y-709088D01*
X255028Y-709088D01*
X249762Y-703822D01*
X249762Y-696352D01*
G37*
G36*
X275162Y-696352D02*
X280427Y-691088D01*
X287897Y-691088D01*
X293162Y-696352D01*
X293162Y-703822D01*
X287897Y-709088D01*
X280427Y-709088D01*
X275162Y-703822D01*
X275162Y-696352D01*
G37*
G36*
X249762Y-696352D02*
X255028Y-691088D01*
X262498Y-691088D01*
X267762Y-696352D01*
X267762Y-703822D01*
X262498Y-709088D01*
X255028Y-709088D01*
X249762Y-703822D01*
X249762Y-696352D01*
G37*
X442912Y-735012D02*
G54D20*
D03*
X417512Y-735012D02*
G54D20*
D03*
X401612Y-649312D02*
G54D24*
D03*
X382612Y-649312D02*
G54D24*
D03*
G36*
X116412Y-696352D02*
X121678Y-691088D01*
X129148Y-691088D01*
X134412Y-696352D01*
X134412Y-703822D01*
X129148Y-709088D01*
X121678Y-709088D01*
X116412Y-703822D01*
X116412Y-696352D01*
G37*
G36*
X141812Y-696352D02*
X147078Y-691088D01*
X154548Y-691088D01*
X159812Y-696352D01*
X159812Y-703822D01*
X154548Y-709088D01*
X147078Y-709088D01*
X141812Y-703822D01*
X141812Y-696352D01*
G37*
G36*
X167212Y-696352D02*
X172477Y-691088D01*
X179947Y-691088D01*
X185212Y-696352D01*
X185212Y-703822D01*
X179947Y-709088D01*
X172477Y-709088D01*
X167212Y-703822D01*
X167212Y-696352D01*
G37*
G36*
X141812Y-696352D02*
X147078Y-691088D01*
X154548Y-691088D01*
X159812Y-696352D01*
X159812Y-703822D01*
X154548Y-709088D01*
X147078Y-709088D01*
X141812Y-703822D01*
X141812Y-696352D01*
G37*
X423862Y-620712D02*
G54D20*
D03*
X449262Y-620712D02*
G54D20*
D03*
X474662Y-620712D02*
G54D20*
D03*
X417512Y-735012D02*
G54D20*
D03*
X366712Y-620712D02*
G54D20*
D03*
G54D22*
X608012Y-735012D02*
X608012Y-763588D01*
X627062Y-782638D01*
X658812Y-782638D01*
X684212Y-757238D01*
X709612Y-757238D01*
G54D25*
X525462Y-696912D02*
X525462Y-735012D01*
X531812Y-620712D02*
G54D20*
D03*
X449262Y-620712D02*
G54D20*
D03*
X360362Y-735012D02*
G54D20*
D03*
X334962Y-735012D02*
G54D20*
D03*
X36512Y-735012D02*
G54D20*
D03*
G54D25*
X125412Y-700088D02*
X74612Y-700088D01*
X61912Y-712788D01*
X61912Y-735012D01*
G54D25*
X341313Y-620712D02*
X147638Y-620712D01*
X125412Y-642938D01*
X125412Y-700088D01*
X526653Y-658812D02*
G54D23*
D03*
X557212Y-658812D02*
G54D23*
D03*
G54D25*
X284162Y-700088D02*
X284162Y-677862D01*
X271462Y-665162D01*
X188912Y-665162D01*
X176212Y-677862D01*
X176212Y-700088D01*
G54D25*
X557212Y-620712D02*
X557212Y-658812D01*
G54D25*
X526653Y-658812D02*
X506413Y-658812D01*
X493712Y-671512D01*
X493712Y-695722D01*
X494903Y-696912D01*
G54D25*
X423862Y-620712D02*
X423862Y-636588D01*
X411162Y-649288D01*
X401612Y-649312D01*
X461962Y-658812D02*
G54D20*
D03*
X461962Y-698812D02*
G54D20*
D03*
X195262Y-735012D02*
G54D20*
D03*
X169862Y-735012D02*
G54D20*
D03*
X277812Y-735012D02*
G54D20*
D03*
X252412Y-735012D02*
G54D20*
D03*
G54D22*
X677862Y-706438D02*
X668338Y-706438D01*
X658812Y-715962D01*
X658812Y-735012D01*
G54D25*
X494903Y-696912D02*
X494903Y-702072D01*
X461962Y-735012D01*
X442912Y-735012D01*
G54D25*
X169862Y-735012D02*
X169862Y-754062D01*
X157162Y-766762D01*
X100012Y-766762D01*
X87312Y-754062D01*
X87312Y-735012D01*
X277812Y-735012D02*
G54D20*
D03*
G54D25*
X252412Y-735012D02*
X252412Y-773112D01*
X236538Y-788988D01*
X77788Y-788988D01*
X61912Y-773112D01*
X61912Y-735012D01*
G54D25*
X382612Y-649312D02*
X353988Y-649312D01*
X334962Y-668338D01*
X334962Y-735012D01*
X381000Y-717550D02*
G54D26*
D03*
X393700Y-717550D02*
G54D26*
D03*
G54D25*
X360362Y-735012D02*
X360362Y-725488D01*
X368300Y-717550D01*
X381000Y-717550D01*
M02*
