%FSLAX34Y34*%
%MOMM*%
%LNSILK_BOTTOM_*%
G71*
G01*
%ADD10R, 0.27X0.27*%
%ADD11R, 0.40X0.40*%
%ADD12C, 0.10*%
%ADD13C, 0.11*%
%LPD*%
X227919Y-67934D02*
G54D10*
D03*
X224744Y-71109D02*
G54D10*
D03*
X221569Y-74284D02*
G54D10*
D03*
X218394Y-77459D02*
G54D10*
D03*
X227919Y-61584D02*
G54D10*
D03*
X224744Y-58409D02*
G54D10*
D03*
X221569Y-55234D02*
G54D10*
D03*
X218394Y-52059D02*
G54D10*
D03*
X215219Y-48884D02*
G54D10*
D03*
X215219Y-80634D02*
G54D10*
D03*
X212044Y-83809D02*
G54D10*
D03*
X208869Y-86984D02*
G54D10*
D03*
X205694Y-90159D02*
G54D10*
D03*
X199344Y-90159D02*
G54D10*
D03*
X196169Y-86984D02*
G54D10*
D03*
X192994Y-83809D02*
G54D10*
D03*
X189819Y-80634D02*
G54D10*
D03*
X186644Y-77459D02*
G54D10*
D03*
X183469Y-74284D02*
G54D10*
D03*
X180294Y-71109D02*
G54D10*
D03*
X177119Y-67934D02*
G54D10*
D03*
X173944Y-64759D02*
G54D10*
D03*
X212044Y-45709D02*
G54D10*
D03*
X208869Y-42534D02*
G54D10*
D03*
X205694Y-39359D02*
G54D10*
D03*
X202519Y-36184D02*
G54D10*
D03*
X186644Y-39359D02*
G54D10*
D03*
X177119Y-48884D02*
G54D10*
D03*
X173944Y-45709D02*
G54D10*
D03*
X183469Y-36184D02*
G54D10*
D03*
X183469Y-29834D02*
G54D10*
D03*
X180294Y-26659D02*
G54D10*
D03*
X177119Y-29834D02*
G54D10*
D03*
X173944Y-33009D02*
G54D10*
D03*
X170769Y-36184D02*
G54D10*
D03*
X167594Y-39359D02*
G54D10*
D03*
X164419Y-42534D02*
G54D10*
D03*
X167594Y-45709D02*
G54D10*
D03*
X218394Y-58409D02*
G54D10*
D03*
X215219Y-58409D02*
G54D10*
D03*
X212044Y-55234D02*
G54D10*
D03*
X208869Y-58409D02*
G54D10*
D03*
X205694Y-58409D02*
G54D10*
D03*
X202519Y-58409D02*
G54D10*
D03*
X199344Y-61584D02*
G54D10*
D03*
X196169Y-61584D02*
G54D10*
D03*
X192994Y-58409D02*
G54D10*
D03*
X189819Y-58409D02*
G54D10*
D03*
X186644Y-58409D02*
G54D10*
D03*
X183469Y-58409D02*
G54D10*
D03*
X180294Y-58409D02*
G54D10*
D03*
X177119Y-61584D02*
G54D10*
D03*
X161244Y-33009D02*
G54D10*
D03*
X161244Y-36184D02*
G54D10*
D03*
X161244Y-39359D02*
G54D10*
D03*
X158069Y-39359D02*
G54D10*
D03*
X158069Y-33009D02*
G54D10*
D03*
X154894Y-33009D02*
G54D10*
D03*
X154894Y-29834D02*
G54D10*
D03*
X154894Y-26659D02*
G54D10*
D03*
X151719Y-26659D02*
G54D10*
D03*
X148544Y-26659D02*
G54D10*
D03*
X148544Y-29834D02*
G54D10*
D03*
X148544Y-33009D02*
G54D10*
D03*
X145369Y-33009D02*
G54D10*
D03*
X142194Y-33009D02*
G54D10*
D03*
X142194Y-36184D02*
G54D10*
D03*
X142194Y-39359D02*
G54D10*
D03*
X145369Y-39359D02*
G54D10*
D03*
X148544Y-39359D02*
G54D10*
D03*
X154894Y-39359D02*
G54D10*
D03*
X154894Y-42534D02*
G54D10*
D03*
X154894Y-45709D02*
G54D10*
D03*
X151719Y-45709D02*
G54D10*
D03*
X148544Y-45709D02*
G54D10*
D03*
X148544Y-42534D02*
G54D10*
D03*
X199344Y-33009D02*
G54D10*
D03*
X192994Y-33009D02*
G54D10*
D03*
X189819Y-36184D02*
G54D10*
D03*
X173944Y-52059D02*
G54D10*
D03*
X170769Y-55234D02*
G54D10*
D03*
X170769Y-61584D02*
G54D10*
D03*
X173944Y-71109D02*
G54D10*
D03*
X170769Y-71109D02*
G54D10*
D03*
X167594Y-71109D02*
G54D10*
D03*
X164419Y-71109D02*
G54D10*
D03*
X161244Y-71109D02*
G54D10*
D03*
X167594Y-74284D02*
G54D10*
D03*
X167594Y-77459D02*
G54D10*
D03*
X167594Y-80634D02*
G54D10*
D03*
X167594Y-83809D02*
G54D10*
D03*
X167594Y-86984D02*
G54D10*
D03*
X170769Y-90159D02*
G54D10*
D03*
X173944Y-90159D02*
G54D10*
D03*
X177119Y-86984D02*
G54D10*
D03*
X158069Y-90159D02*
G54D10*
D03*
X154894Y-86984D02*
G54D10*
D03*
X154894Y-83809D02*
G54D10*
D03*
X154894Y-80634D02*
G54D10*
D03*
X154894Y-77459D02*
G54D10*
D03*
X151719Y-90159D02*
G54D10*
D03*
X148544Y-90159D02*
G54D10*
D03*
X145369Y-90159D02*
G54D10*
D03*
X145369Y-86984D02*
G54D10*
D03*
X145369Y-83809D02*
G54D10*
D03*
X145369Y-80634D02*
G54D10*
D03*
X145369Y-77459D02*
G54D10*
D03*
X139019Y-74284D02*
G54D10*
D03*
X139019Y-80634D02*
G54D10*
D03*
X139019Y-83809D02*
G54D10*
D03*
X139019Y-86984D02*
G54D10*
D03*
X139019Y-90159D02*
G54D10*
D03*
X132669Y-86984D02*
G54D10*
D03*
X132669Y-83809D02*
G54D10*
D03*
X132669Y-80634D02*
G54D10*
D03*
X129494Y-77459D02*
G54D10*
D03*
X126319Y-77459D02*
G54D10*
D03*
X129494Y-90159D02*
G54D10*
D03*
X126319Y-90159D02*
G54D10*
D03*
X123144Y-90159D02*
G54D10*
D03*
X123144Y-77459D02*
G54D10*
D03*
X116794Y-86984D02*
G54D10*
D03*
X116794Y-83809D02*
G54D10*
D03*
X116794Y-80634D02*
G54D10*
D03*
X113619Y-77459D02*
G54D10*
D03*
X110444Y-77459D02*
G54D10*
D03*
X107269Y-77459D02*
G54D10*
D03*
X113619Y-90159D02*
G54D10*
D03*
X110444Y-90159D02*
G54D10*
D03*
X107269Y-90159D02*
G54D10*
D03*
X104094Y-80634D02*
G54D10*
D03*
X104094Y-83809D02*
G54D10*
D03*
X107269Y-83809D02*
G54D10*
D03*
X110444Y-83809D02*
G54D10*
D03*
X113619Y-83809D02*
G54D10*
D03*
X205694Y-71109D02*
G54D10*
D03*
X202519Y-74284D02*
G54D10*
D03*
X199344Y-71109D02*
G54D10*
D03*
X202519Y-67934D02*
G54D10*
D03*
X192994Y-74284D02*
G54D10*
D03*
X215219Y-64759D02*
G54D10*
D03*
X186644Y-64759D02*
G54D10*
D03*
X202519Y-83809D02*
G54D10*
D03*
X218394Y-67934D02*
G54D10*
D03*
X158069Y-52059D02*
G54D10*
D03*
X154894Y-52059D02*
G54D10*
D03*
X151719Y-52059D02*
G54D10*
D03*
X148544Y-52059D02*
G54D10*
D03*
X145369Y-52059D02*
G54D10*
D03*
X145369Y-55234D02*
G54D10*
D03*
X145369Y-58409D02*
G54D10*
D03*
X148544Y-61584D02*
G54D10*
D03*
X151719Y-64759D02*
G54D10*
D03*
X154894Y-67934D02*
G54D10*
D03*
X142194Y-45709D02*
G54D10*
D03*
X142194Y-48884D02*
G54D10*
D03*
X139019Y-48884D02*
G54D10*
D03*
X139019Y-45709D02*
G54D10*
D03*
X135844Y-52059D02*
G54D10*
D03*
X132669Y-52059D02*
G54D10*
D03*
X129494Y-52059D02*
G54D10*
D03*
X126319Y-52059D02*
G54D10*
D03*
X123144Y-52059D02*
G54D10*
D03*
X135844Y-58409D02*
G54D10*
D03*
X132669Y-58409D02*
G54D10*
D03*
X129494Y-58409D02*
G54D10*
D03*
X126319Y-58409D02*
G54D10*
D03*
X123144Y-58409D02*
G54D10*
D03*
X123144Y-61584D02*
G54D10*
D03*
X126319Y-64759D02*
G54D10*
D03*
X129494Y-67934D02*
G54D10*
D03*
X135844Y-67934D02*
G54D10*
D03*
X132669Y-67934D02*
G54D10*
D03*
X116794Y-52059D02*
G54D10*
D03*
X113619Y-52059D02*
G54D10*
D03*
X110444Y-52059D02*
G54D10*
D03*
X107269Y-52059D02*
G54D10*
D03*
X104094Y-52059D02*
G54D10*
D03*
X104094Y-55234D02*
G54D10*
D03*
X107269Y-58409D02*
G54D10*
D03*
X110444Y-61584D02*
G54D10*
D03*
X113619Y-64759D02*
G54D10*
D03*
X116794Y-67934D02*
G54D10*
D03*
X107269Y-64759D02*
G54D10*
D03*
X104094Y-67934D02*
G54D10*
D03*
X196169Y-39359D02*
G54D10*
D03*
X199344Y-42534D02*
G54D10*
D03*
X288244Y-20309D02*
G54D11*
D03*
X283481Y-20309D02*
G54D11*
D03*
X278719Y-20309D02*
G54D11*
D03*
X273956Y-20309D02*
G54D11*
D03*
X269194Y-20309D02*
G54D11*
D03*
X264431Y-20309D02*
G54D11*
D03*
X259669Y-20309D02*
G54D11*
D03*
X254906Y-20309D02*
G54D11*
D03*
X302531Y-34596D02*
G54D11*
D03*
X302531Y-39359D02*
G54D11*
D03*
X302531Y-44121D02*
G54D11*
D03*
X302531Y-48884D02*
G54D11*
D03*
X302531Y-53646D02*
G54D11*
D03*
X302531Y-58409D02*
G54D11*
D03*
X302531Y-63171D02*
G54D11*
D03*
X302531Y-67934D02*
G54D11*
D03*
X302531Y-72696D02*
G54D11*
D03*
X302531Y-77459D02*
G54D11*
D03*
X307294Y-82221D02*
G54D11*
D03*
X307294Y-86984D02*
G54D11*
D03*
X307294Y-91746D02*
G54D11*
D03*
X312056Y-91746D02*
G54D11*
D03*
X297769Y-86984D02*
G54D11*
D03*
X297769Y-91746D02*
G54D11*
D03*
X293006Y-91746D02*
G54D11*
D03*
X288244Y-86984D02*
G54D11*
D03*
X283481Y-86984D02*
G54D11*
D03*
X278719Y-86984D02*
G54D11*
D03*
X278719Y-91746D02*
G54D11*
D03*
X273956Y-91746D02*
G54D11*
D03*
X245381Y-44121D02*
G54D11*
D03*
X245381Y-39359D02*
G54D11*
D03*
X245381Y-34596D02*
G54D11*
D03*
X245381Y-29834D02*
G54D11*
D03*
X250144Y-25071D02*
G54D11*
D03*
X288244Y-34596D02*
G54D11*
D03*
X283481Y-29834D02*
G54D11*
D03*
X278719Y-29834D02*
G54D11*
D03*
X273956Y-29834D02*
G54D11*
D03*
X269194Y-29834D02*
G54D11*
D03*
X264431Y-34596D02*
G54D11*
D03*
X283481Y-39359D02*
G54D11*
D03*
X278719Y-39359D02*
G54D11*
D03*
X273956Y-39359D02*
G54D11*
D03*
X269194Y-39359D02*
G54D11*
D03*
X278719Y-34596D02*
G54D11*
D03*
X273956Y-34596D02*
G54D11*
D03*
X302531Y-86984D02*
G54D11*
D03*
X250144Y-48884D02*
G54D11*
D03*
X254906Y-48884D02*
G54D11*
D03*
X264431Y-53646D02*
G54D11*
D03*
X259669Y-53646D02*
G54D11*
D03*
X269194Y-53646D02*
G54D11*
D03*
X269194Y-58409D02*
G54D11*
D03*
X269194Y-63171D02*
G54D11*
D03*
X269194Y-67934D02*
G54D11*
D03*
X269194Y-72696D02*
G54D11*
D03*
X269194Y-77459D02*
G54D11*
D03*
X269194Y-82221D02*
G54D11*
D03*
X269194Y-86984D02*
G54D11*
D03*
X293006Y-20309D02*
G54D11*
D03*
X297769Y-25071D02*
G54D11*
D03*
X302531Y-29834D02*
G54D11*
D03*
G54D12*
X540398Y-110348D02*
X529286Y-110348D01*
X526905Y-120666D01*
X519364Y-123841D01*
X510236Y-117888D01*
X502298Y-125032D01*
X508648Y-132970D01*
X505077Y-140907D01*
X493964Y-142494D01*
X493964Y-153210D01*
X503886Y-154401D01*
X507458Y-162735D01*
X502298Y-170276D01*
X509839Y-177816D01*
X518570Y-172260D01*
X522936Y-175038D01*
X530476Y-158370D01*
G54D12*
X539208Y-158370D02*
X546748Y-174641D01*
X551114Y-172657D01*
X559448Y-178213D01*
X567783Y-170673D01*
X561830Y-162735D01*
X565402Y-154401D01*
X575720Y-153210D01*
X575324Y-142494D01*
X564608Y-140510D01*
X561830Y-134160D01*
X567783Y-125826D01*
X559845Y-118285D01*
X550717Y-123841D01*
X541986Y-120666D01*
X540398Y-110348D01*
G54D12*
G75*
G01X538951Y-157685D02*
G03X530746Y-157685I-4103J9665D01*
G01*
G36*
X575324Y-142494D02*
X564608Y-140510D01*
X561830Y-134160D01*
X567783Y-125826D01*
X559845Y-118285D01*
X550717Y-123841D01*
X541986Y-120666D01*
X540398Y-110348D01*
X529286Y-110348D01*
X526905Y-120666D01*
X519364Y-123841D01*
X510236Y-117888D01*
X502298Y-125032D01*
X508648Y-132970D01*
X505077Y-140907D01*
X493964Y-142494D01*
X493964Y-153210D01*
X503886Y-154401D01*
X507458Y-162735D01*
X502298Y-170276D01*
X509839Y-177816D01*
X518570Y-172260D01*
X522936Y-175038D01*
X530874Y-157576D01*
X529683Y-157179D01*
X528492Y-156385D01*
X526111Y-154004D01*
X524523Y-150829D01*
X524127Y-148844D01*
X524127Y-147257D01*
X524524Y-144876D01*
X525714Y-142098D01*
X528095Y-139320D01*
X530080Y-138129D01*
X532064Y-137335D01*
X534445Y-136938D01*
X536827Y-137335D01*
X540002Y-138129D01*
X542780Y-140510D01*
X545558Y-144479D01*
X545558Y-150829D01*
X544367Y-153210D01*
X542780Y-155591D01*
X540398Y-157576D01*
X538811Y-157576D01*
X546748Y-174641D01*
X551114Y-172657D01*
X559448Y-178213D01*
X567783Y-170673D01*
X561830Y-162735D01*
X575324Y-142494D01*
G37*
G54D12*
X575324Y-142494D02*
X564608Y-140510D01*
X561830Y-134160D01*
X567783Y-125826D01*
X559845Y-118285D01*
X550717Y-123841D01*
X541986Y-120666D01*
X540398Y-110348D01*
X529286Y-110348D01*
X526905Y-120666D01*
X519364Y-123841D01*
X510236Y-117888D01*
X502298Y-125032D01*
X508648Y-132970D01*
X505077Y-140907D01*
X493964Y-142494D01*
X493964Y-153210D01*
X503886Y-154401D01*
X507458Y-162735D01*
X502298Y-170276D01*
X509839Y-177816D01*
X518570Y-172260D01*
X522936Y-175038D01*
X530874Y-157576D01*
X529683Y-157179D01*
X528492Y-156385D01*
X526111Y-154004D01*
X524523Y-150829D01*
X524127Y-148844D01*
X524127Y-147257D01*
X524524Y-144876D01*
X525714Y-142098D01*
X528095Y-139320D01*
X530080Y-138129D01*
X532064Y-137335D01*
X534445Y-136938D01*
X536827Y-137335D01*
X540002Y-138129D01*
X542780Y-140510D01*
X545558Y-144479D01*
X545558Y-150829D01*
X544367Y-153210D01*
X542780Y-155591D01*
X540398Y-157576D01*
X538811Y-157576D01*
X546748Y-174641D01*
X551114Y-172657D01*
X559448Y-178213D01*
X567783Y-170673D01*
X561830Y-162735D01*
X575324Y-142494D01*
G36*
X575324Y-142494D02*
X575720Y-153210D01*
X565402Y-154401D01*
X575324Y-142494D01*
G37*
G54D12*
X575324Y-142494D02*
X575720Y-153210D01*
X565402Y-154401D01*
X575324Y-142494D01*
G54D13*
X330943Y-113483D02*
X330943Y-104594D01*
G54D13*
X330943Y-109928D02*
X330276Y-108816D01*
X328942Y-108483D01*
X327609Y-108816D01*
X326943Y-109928D01*
X326943Y-113483D01*
G54D13*
X323165Y-104594D02*
X323165Y-112928D01*
X322498Y-113483D01*
X321832Y-113261D01*
G54D13*
X324499Y-108483D02*
X321832Y-108483D01*
G54D13*
X318054Y-104594D02*
X318054Y-112928D01*
X317388Y-113483D01*
X316721Y-113261D01*
G54D13*
X319388Y-108483D02*
X316721Y-108483D01*
G54D13*
X314277Y-108483D02*
X314277Y-115705D01*
G54D13*
X314277Y-111816D02*
X313610Y-113261D01*
X312276Y-113483D01*
X310943Y-113261D01*
X310277Y-112150D01*
X310277Y-109928D01*
X310943Y-108816D01*
X312277Y-108483D01*
X313610Y-108816D01*
X314277Y-110150D01*
G54D13*
X307833Y-112928D02*
X306499Y-113483D01*
X305166Y-113483D01*
X303832Y-112928D01*
X303833Y-111816D01*
X304499Y-111261D01*
X307166Y-110705D01*
X307833Y-110150D01*
X307833Y-109039D01*
X306499Y-108483D01*
X305166Y-108483D01*
X303833Y-109039D01*
G54D13*
X301389Y-113483D02*
X301389Y-113483D01*
G54D13*
X301389Y-108483D02*
X301389Y-108483D01*
G54D13*
X298945Y-113483D02*
X293611Y-104594D01*
G54D13*
X291168Y-113483D02*
X285834Y-104594D01*
G54D13*
X283391Y-115150D02*
X282057Y-115705D01*
X281124Y-115705D01*
X279791Y-115150D01*
X279391Y-114039D01*
X279391Y-108483D01*
G54D13*
X279391Y-109928D02*
X280057Y-108816D01*
X281391Y-108483D01*
X282724Y-108816D01*
X283391Y-109928D01*
X283391Y-112150D01*
X282724Y-113261D01*
X281391Y-113483D01*
X280057Y-113261D01*
X279391Y-112150D01*
G54D13*
X276947Y-113483D02*
X276947Y-108483D01*
G54D13*
X276947Y-106816D02*
X276947Y-106816D01*
G54D13*
X273169Y-104594D02*
X273169Y-112928D01*
X272503Y-113483D01*
X271836Y-113261D01*
G54D13*
X274502Y-108483D02*
X271836Y-108483D01*
G54D13*
X269392Y-113483D02*
X269392Y-104594D01*
G54D13*
X269392Y-109928D02*
X268725Y-108816D01*
X267392Y-108483D01*
X266058Y-108816D01*
X265392Y-109928D01*
X265392Y-113483D01*
G54D13*
X258948Y-108483D02*
X258948Y-113483D01*
G54D13*
X258948Y-112372D02*
X259614Y-113261D01*
X260948Y-113483D01*
X262281Y-113261D01*
X262948Y-112372D01*
X262948Y-108483D01*
G54D13*
X256504Y-113483D02*
X256504Y-104594D01*
G54D13*
X256504Y-109928D02*
X255837Y-108816D01*
X254504Y-108483D01*
X253170Y-108816D01*
X252504Y-109928D01*
X252504Y-112150D01*
X253170Y-113261D01*
X254504Y-113483D01*
X255837Y-113261D01*
X256504Y-112150D01*
G54D13*
X250060Y-113483D02*
X250060Y-113483D01*
G54D13*
X244282Y-108816D02*
X245616Y-108483D01*
X246949Y-108816D01*
X247616Y-109928D01*
X247616Y-112150D01*
X246949Y-113261D01*
X245616Y-113483D01*
X244282Y-113261D01*
G54D13*
X237839Y-112150D02*
X237839Y-109928D01*
X238505Y-108816D01*
X239839Y-108483D01*
X241172Y-108816D01*
X241839Y-109928D01*
X241839Y-112150D01*
X241172Y-113261D01*
X239839Y-113483D01*
X238505Y-113261D01*
X237839Y-112150D01*
G54D13*
X235395Y-113483D02*
X235395Y-108483D01*
G54D13*
X235395Y-109372D02*
X234061Y-108483D01*
X232728Y-108816D01*
X232061Y-109594D01*
X232061Y-113483D01*
G54D13*
X232061Y-109372D02*
X230728Y-108483D01*
X229395Y-108816D01*
X228728Y-109594D01*
X228728Y-113483D01*
G54D13*
X226284Y-113483D02*
X220950Y-104594D01*
G54D13*
X213173Y-111816D02*
X213840Y-112928D01*
X215173Y-113483D01*
X216507Y-113483D01*
X217840Y-112928D01*
X218507Y-111816D01*
X218507Y-106261D01*
X217840Y-105150D01*
X216507Y-104594D01*
X215173Y-104594D01*
X213840Y-105150D01*
X213173Y-106261D01*
G54D13*
X210730Y-113483D02*
X210730Y-104594D01*
G54D13*
X210730Y-109928D02*
X210063Y-108816D01*
X208730Y-108483D01*
X207396Y-108816D01*
X206730Y-109928D01*
X206730Y-113483D01*
G54D13*
X204286Y-113483D02*
X204286Y-108483D01*
G54D13*
X204286Y-106816D02*
X204286Y-106816D01*
G54D13*
X201842Y-108483D02*
X201841Y-115705D01*
G54D13*
X201842Y-111816D02*
X201175Y-113261D01*
X199842Y-113483D01*
X198508Y-113261D01*
X197842Y-112150D01*
X197842Y-109928D01*
X198508Y-108816D01*
X199842Y-108483D01*
X201175Y-108816D01*
X201841Y-110150D01*
G54D13*
X192731Y-113483D02*
X192731Y-104594D01*
G54D13*
X195398Y-104594D02*
X190064Y-104594D01*
G54D13*
X183621Y-112928D02*
X184687Y-113483D01*
X186021Y-113483D01*
X187354Y-112928D01*
X187620Y-111816D01*
X187621Y-109928D01*
X186954Y-108816D01*
X185621Y-108483D01*
X184287Y-108816D01*
X183621Y-109594D01*
X183621Y-110705D01*
X187621Y-110705D01*
G54D13*
X177843Y-108816D02*
X179177Y-108483D01*
X180510Y-108816D01*
X181177Y-109928D01*
X181176Y-112150D01*
X180510Y-113261D01*
X179177Y-113483D01*
X177843Y-113261D01*
G54D13*
X175400Y-113483D02*
X175400Y-104594D01*
G54D13*
X175400Y-109928D02*
X174733Y-108816D01*
X173400Y-108483D01*
X172066Y-108816D01*
X171400Y-109928D01*
X171400Y-113483D01*
G54D13*
X168956Y-113483D02*
X168956Y-108483D01*
G54D13*
X168956Y-109594D02*
X168289Y-108816D01*
X166956Y-108483D01*
X165622Y-108816D01*
X164956Y-109594D01*
X164956Y-113483D01*
G54D13*
X158512Y-112150D02*
X158512Y-109928D01*
X159178Y-108816D01*
X160512Y-108483D01*
X161845Y-108816D01*
X162512Y-109928D01*
X162512Y-112150D01*
X161845Y-113261D01*
X160512Y-113483D01*
X159178Y-113261D01*
X158512Y-112150D01*
G54D13*
X156068Y-113483D02*
X150734Y-104594D01*
G54D13*
X146957Y-106816D02*
X146957Y-106816D01*
G54D13*
X148291Y-115705D02*
X147624Y-115705D01*
X146957Y-114816D01*
X146957Y-108483D01*
G54D13*
X140514Y-108483D02*
X140514Y-113483D01*
G54D13*
X140514Y-112372D02*
X141180Y-113261D01*
X142514Y-113483D01*
X143847Y-113261D01*
X144514Y-112372D01*
X144514Y-108483D01*
G54D13*
X138070Y-113483D02*
X138070Y-108483D01*
G54D13*
X138070Y-106816D02*
X138070Y-106816D01*
G54D13*
X132292Y-108816D02*
X133626Y-108483D01*
X134959Y-108816D01*
X135626Y-109928D01*
X135626Y-112150D01*
X134959Y-113261D01*
X133626Y-113483D01*
X132292Y-113261D01*
G54D13*
X125849Y-112928D02*
X126915Y-113483D01*
X128249Y-113483D01*
X129582Y-112928D01*
X129848Y-111816D01*
X129849Y-109928D01*
X129182Y-108816D01*
X127849Y-108483D01*
X126515Y-108816D01*
X125849Y-109594D01*
X125849Y-110705D01*
X129848Y-110705D01*
G54D13*
X123405Y-109594D02*
X118071Y-109594D01*
G54D13*
X115628Y-108483D02*
X115628Y-115705D01*
G54D13*
X115628Y-111816D02*
X114961Y-113261D01*
X113628Y-113483D01*
X112294Y-113261D01*
X111628Y-112150D01*
X111628Y-109928D01*
X112294Y-108816D01*
X113628Y-108483D01*
X114961Y-108816D01*
X115628Y-110150D01*
G54D13*
X109184Y-113483D02*
X109184Y-104594D01*
G54D13*
X102740Y-108483D02*
X102740Y-113483D01*
G54D13*
X102740Y-112372D02*
X103406Y-113261D01*
X104740Y-113483D01*
X106073Y-113261D01*
X106740Y-112372D01*
X106740Y-108483D01*
G54D13*
X100296Y-112928D02*
X98962Y-113483D01*
X97629Y-113483D01*
X96296Y-112928D01*
X96296Y-111816D01*
X96962Y-111261D01*
X99629Y-110705D01*
X100296Y-110150D01*
X100296Y-109039D01*
X98962Y-108483D01*
X97629Y-108483D01*
X96296Y-109039D01*
G54D13*
X129775Y-36739D02*
X127775Y-37850D01*
X127108Y-38962D01*
X127108Y-41184D01*
G54D13*
X132442Y-41184D02*
X132442Y-32295D01*
X129108Y-32295D01*
X127775Y-32850D01*
X127108Y-33962D01*
X127108Y-35073D01*
X127775Y-36184D01*
X129108Y-36739D01*
X132442Y-36739D01*
G54D13*
X120665Y-40628D02*
X121731Y-41184D01*
X123065Y-41184D01*
X124398Y-40628D01*
X124665Y-39517D01*
X124665Y-37628D01*
X123998Y-36517D01*
X122665Y-36184D01*
X121331Y-36517D01*
X120665Y-37295D01*
X120665Y-38406D01*
X124665Y-38406D01*
G54D13*
X118221Y-36184D02*
X115554Y-41184D01*
X112887Y-36184D01*
G54D13*
X105110Y-32295D02*
X110444Y-32295D01*
X110444Y-36184D01*
X109777Y-36184D01*
X108444Y-35628D01*
X107110Y-35628D01*
X105777Y-36184D01*
X105110Y-37295D01*
X105110Y-39517D01*
X105777Y-40628D01*
X107110Y-41184D01*
X108444Y-41184D01*
X109777Y-40628D01*
X110444Y-39517D01*
G54D13*
X556642Y-228600D02*
X561975Y-228600D01*
X561975Y-228044D01*
X561308Y-226933D01*
X557308Y-223600D01*
X556642Y-222489D01*
X556642Y-221378D01*
X557308Y-220267D01*
X558642Y-219711D01*
X559975Y-219711D01*
X561308Y-220267D01*
X561975Y-221378D01*
G54D13*
X550198Y-228600D02*
X550198Y-219711D01*
X554198Y-225267D01*
X554198Y-226378D01*
X548865Y-226378D01*
G54D13*
X546421Y-219711D02*
X543088Y-228600D01*
X539754Y-219711D01*
G54D13*
X530733Y-227267D02*
X530733Y-225044D01*
X531400Y-223933D01*
X532733Y-223600D01*
X534066Y-223933D01*
X534733Y-225044D01*
X534733Y-227267D01*
X534066Y-228378D01*
X532733Y-228600D01*
X531400Y-228378D01*
X530733Y-227267D01*
G54D13*
X524289Y-223600D02*
X524289Y-228600D01*
G54D13*
X524289Y-227489D02*
X524956Y-228378D01*
X526289Y-228600D01*
X527622Y-228378D01*
X528289Y-227489D01*
X528289Y-223600D01*
G54D13*
X520512Y-219711D02*
X520512Y-228044D01*
X519845Y-228600D01*
X519178Y-228378D01*
G54D13*
X521845Y-223600D02*
X519178Y-223600D01*
G54D13*
X516734Y-223600D02*
X516734Y-230822D01*
G54D13*
X516734Y-226933D02*
X516067Y-228378D01*
X514734Y-228600D01*
X513401Y-228378D01*
X512734Y-227267D01*
X512734Y-225044D01*
X513401Y-223933D01*
X514734Y-223600D01*
X516067Y-223933D01*
X516734Y-225267D01*
G54D13*
X506290Y-223600D02*
X506290Y-228600D01*
G54D13*
X506290Y-227489D02*
X506957Y-228378D01*
X508290Y-228600D01*
X509623Y-228378D01*
X510290Y-227489D01*
X510290Y-223600D01*
G54D13*
X502513Y-219711D02*
X502513Y-228044D01*
X501846Y-228600D01*
X501179Y-228378D01*
G54D13*
X503846Y-223600D02*
X501179Y-223600D01*
G54D13*
X496158Y-228600D02*
X496158Y-228600D01*
G54D13*
X496158Y-223600D02*
X496158Y-223600D01*
G54D13*
X491137Y-228600D02*
X491137Y-223600D01*
G54D13*
X491137Y-224489D02*
X489804Y-223600D01*
X488470Y-223933D01*
X487804Y-224711D01*
X487804Y-228600D01*
G54D13*
X487804Y-224489D02*
X486470Y-223600D01*
X485137Y-223933D01*
X484470Y-224711D01*
X484470Y-228600D01*
G54D13*
X482026Y-224156D02*
X480693Y-223600D01*
X479093Y-223600D01*
X478026Y-224711D01*
X478026Y-228600D01*
G54D13*
X478026Y-226933D02*
X478693Y-225822D01*
X480026Y-225600D01*
X481359Y-225822D01*
X482026Y-226933D01*
X481759Y-228044D01*
X480693Y-228600D01*
X480026Y-228600D01*
X479759Y-228600D01*
X478693Y-228044D01*
X478026Y-226933D01*
G54D13*
X475582Y-223600D02*
X470249Y-228600D01*
G54D13*
X475582Y-228600D02*
X470249Y-223600D01*
G54D13*
X465228Y-221378D02*
X464561Y-220267D01*
X463228Y-219711D01*
X461895Y-219711D01*
X460561Y-220267D01*
X459895Y-221378D01*
X459895Y-222489D01*
X460561Y-223600D01*
X461895Y-224156D01*
X460561Y-224711D01*
X459895Y-225822D01*
X459895Y-226933D01*
X460561Y-228044D01*
X461895Y-228600D01*
X463228Y-228600D01*
X464561Y-228044D01*
X465228Y-226933D01*
G54D13*
X452118Y-219711D02*
X457451Y-219711D01*
X457451Y-223600D01*
X456784Y-223600D01*
X455451Y-223044D01*
X454118Y-223044D01*
X452784Y-223600D01*
X452118Y-224711D01*
X452118Y-226933D01*
X452784Y-228044D01*
X454118Y-228600D01*
X455451Y-228600D01*
X456784Y-228044D01*
X457451Y-226933D01*
G54D13*
X444341Y-221378D02*
X444341Y-226933D01*
X445007Y-228044D01*
X446341Y-228600D01*
X447674Y-228600D01*
X449007Y-228044D01*
X449674Y-226933D01*
X449674Y-221378D01*
X449007Y-220267D01*
X447674Y-219711D01*
X446341Y-219711D01*
X445007Y-220267D01*
X444341Y-221378D01*
G54D13*
X441897Y-228600D02*
X441897Y-223600D01*
G54D13*
X441897Y-224489D02*
X440564Y-223600D01*
X439230Y-223933D01*
X438564Y-224711D01*
X438564Y-228600D01*
G54D13*
X438564Y-224489D02*
X437230Y-223600D01*
X435897Y-223933D01*
X435230Y-224711D01*
X435230Y-228600D01*
G54D13*
X432786Y-228600D02*
X429453Y-219711D01*
X426119Y-228600D01*
G54D13*
X431453Y-225267D02*
X427453Y-225267D01*
G54D13*
X419098Y-219711D02*
X420431Y-220267D01*
X421098Y-221378D01*
X421098Y-226933D01*
X420431Y-228044D01*
X419098Y-228600D01*
G54D13*
X416654Y-223600D02*
X411321Y-228600D01*
G54D13*
X416654Y-228600D02*
X411321Y-223600D01*
G54D13*
X403544Y-228600D02*
X408877Y-228600D01*
X408877Y-228044D01*
X408210Y-226933D01*
X404210Y-223600D01*
X403544Y-222489D01*
X403544Y-221378D01*
X404210Y-220267D01*
X405544Y-219711D01*
X406877Y-219711D01*
X408210Y-220267D01*
X408877Y-221378D01*
G54D13*
X401100Y-219711D02*
X399767Y-220267D01*
X399100Y-221378D01*
X399100Y-226933D01*
X399767Y-228044D01*
X401100Y-228600D01*
G54D13*
X556642Y-235586D02*
X561975Y-235586D01*
X561975Y-239475D01*
X561308Y-239475D01*
X559975Y-238920D01*
X558642Y-238920D01*
X557308Y-239475D01*
X556642Y-240586D01*
X556642Y-242808D01*
X557308Y-243920D01*
X558642Y-244475D01*
X559975Y-244475D01*
X561308Y-243920D01*
X561975Y-242808D01*
G54D13*
X554198Y-235586D02*
X550865Y-244475D01*
X547531Y-235586D01*
G54D13*
X538510Y-243142D02*
X538510Y-240920D01*
X539177Y-239808D01*
X540510Y-239475D01*
X541843Y-239808D01*
X542510Y-240920D01*
X542510Y-243142D01*
X541843Y-244253D01*
X540510Y-244475D01*
X539177Y-244253D01*
X538510Y-243142D01*
G54D13*
X532066Y-239475D02*
X532066Y-244475D01*
G54D13*
X532066Y-243364D02*
X532733Y-244253D01*
X534066Y-244475D01*
X535399Y-244253D01*
X536066Y-243364D01*
X536066Y-239475D01*
G54D13*
X528289Y-235586D02*
X528289Y-243920D01*
X527622Y-244475D01*
X526955Y-244253D01*
G54D13*
X529622Y-239475D02*
X526955Y-239475D01*
G54D13*
X524511Y-239475D02*
X524511Y-246697D01*
G54D13*
X524511Y-242808D02*
X523844Y-244253D01*
X522511Y-244475D01*
X521178Y-244253D01*
X520511Y-243142D01*
X520511Y-240920D01*
X521178Y-239808D01*
X522511Y-239475D01*
X523844Y-239808D01*
X524511Y-241142D01*
G54D13*
X514067Y-239475D02*
X514067Y-244475D01*
G54D13*
X514067Y-243364D02*
X514734Y-244253D01*
X516067Y-244475D01*
X517400Y-244253D01*
X518067Y-243364D01*
X518067Y-239475D01*
G54D13*
X510290Y-235586D02*
X510290Y-243920D01*
X509623Y-244475D01*
X508956Y-244253D01*
G54D13*
X511623Y-239475D02*
X508956Y-239475D01*
G54D13*
X503935Y-244475D02*
X503935Y-244475D01*
G54D13*
X503935Y-239475D02*
X503935Y-239475D01*
G54D13*
X498914Y-244475D02*
X498914Y-239475D01*
G54D13*
X498914Y-240364D02*
X497581Y-239475D01*
X496247Y-239808D01*
X495581Y-240586D01*
X495581Y-244475D01*
G54D13*
X495581Y-240364D02*
X494247Y-239475D01*
X492914Y-239808D01*
X492247Y-240586D01*
X492247Y-244475D01*
G54D13*
X489803Y-240030D02*
X488470Y-239475D01*
X486870Y-239475D01*
X485803Y-240586D01*
X485803Y-244475D01*
G54D13*
X485803Y-242808D02*
X486470Y-241697D01*
X487803Y-241475D01*
X489136Y-241697D01*
X489803Y-242808D01*
X489536Y-243920D01*
X488470Y-244475D01*
X487803Y-244475D01*
X487536Y-244475D01*
X486470Y-243920D01*
X485803Y-242808D01*
G54D13*
X483359Y-239475D02*
X478026Y-244475D01*
G54D13*
X483359Y-244475D02*
X478026Y-239475D01*
G54D13*
X473005Y-238920D02*
X469672Y-235586D01*
X469672Y-244475D01*
G54D13*
X461895Y-235586D02*
X467228Y-235586D01*
X467228Y-239475D01*
X466561Y-239475D01*
X465228Y-238920D01*
X463895Y-238920D01*
X462561Y-239475D01*
X461895Y-240586D01*
X461895Y-242808D01*
X462561Y-243920D01*
X463895Y-244475D01*
X465228Y-244475D01*
X466561Y-243920D01*
X467228Y-242808D01*
G54D13*
X454118Y-237253D02*
X454118Y-242808D01*
X454784Y-243920D01*
X456118Y-244475D01*
X457451Y-244475D01*
X458784Y-243920D01*
X459451Y-242808D01*
X459451Y-237253D01*
X458784Y-236142D01*
X457451Y-235586D01*
X456118Y-235586D01*
X454784Y-236142D01*
X454118Y-237253D01*
G54D13*
X446341Y-237253D02*
X446341Y-242808D01*
X447007Y-243920D01*
X448341Y-244475D01*
X449674Y-244475D01*
X451007Y-243920D01*
X451674Y-242808D01*
X451674Y-237253D01*
X451007Y-236142D01*
X449674Y-235586D01*
X448341Y-235586D01*
X447007Y-236142D01*
X446341Y-237253D01*
G54D13*
X443897Y-244475D02*
X443897Y-239475D01*
G54D13*
X443897Y-240364D02*
X442564Y-239475D01*
X441230Y-239808D01*
X440564Y-240586D01*
X440564Y-244475D01*
G54D13*
X440564Y-240364D02*
X439230Y-239475D01*
X437897Y-239808D01*
X437230Y-240586D01*
X437230Y-244475D01*
G54D13*
X434786Y-244475D02*
X431453Y-235586D01*
X428119Y-244475D01*
G54D13*
X433453Y-241142D02*
X429453Y-241142D01*
G54D13*
X421098Y-235586D02*
X422431Y-236142D01*
X423098Y-237253D01*
X423098Y-242808D01*
X422431Y-243920D01*
X421098Y-244475D01*
G54D13*
X418654Y-243920D02*
X417321Y-244475D01*
X415987Y-244475D01*
X414654Y-243920D01*
X414654Y-242808D01*
X415321Y-242253D01*
X417987Y-241697D01*
X418654Y-241142D01*
X418654Y-240030D01*
X417321Y-239475D01*
X415987Y-239475D01*
X414654Y-240030D01*
G54D13*
X412210Y-244475D02*
X412210Y-235586D01*
G54D13*
X412210Y-240920D02*
X411543Y-239808D01*
X410210Y-239475D01*
X408877Y-239808D01*
X408210Y-240920D01*
X408210Y-244475D01*
G54D13*
X405766Y-240030D02*
X404433Y-239475D01*
X402833Y-239475D01*
X401766Y-240586D01*
X401766Y-244475D01*
G54D13*
X401766Y-242808D02*
X402433Y-241697D01*
X403766Y-241475D01*
X405099Y-241697D01*
X405766Y-242808D01*
X405499Y-243920D01*
X404433Y-244475D01*
X403766Y-244475D01*
X403499Y-244475D01*
X402433Y-243920D01*
X401766Y-242808D01*
G54D13*
X399322Y-244475D02*
X399322Y-239475D01*
G54D13*
X399322Y-240586D02*
X397989Y-239475D01*
X396655Y-239475D01*
G54D13*
X390211Y-243920D02*
X391278Y-244475D01*
X392611Y-244475D01*
X393944Y-243920D01*
X394211Y-242808D01*
X394211Y-240920D01*
X393544Y-239808D01*
X392211Y-239475D01*
X390878Y-239808D01*
X390211Y-240586D01*
X390211Y-241697D01*
X394211Y-241697D01*
G54D13*
X383767Y-244475D02*
X383767Y-235586D01*
G54D13*
X383767Y-240920D02*
X384434Y-239808D01*
X385767Y-239475D01*
X387100Y-239808D01*
X387767Y-240920D01*
X387767Y-243142D01*
X387100Y-244253D01*
X385767Y-244475D01*
X384434Y-244253D01*
X383767Y-243142D01*
G54D13*
X378746Y-239475D02*
X376746Y-244475D01*
X374746Y-239475D01*
X372746Y-244475D01*
X371413Y-239475D01*
G54D13*
X368969Y-244475D02*
X368969Y-239475D01*
G54D13*
X368969Y-237808D02*
X368969Y-237808D01*
G54D13*
X365192Y-235586D02*
X365192Y-243920D01*
X364525Y-244475D01*
X363858Y-244253D01*
G54D13*
X366525Y-239475D02*
X363858Y-239475D01*
G54D13*
X361414Y-244475D02*
X361414Y-235586D01*
G54D13*
X361414Y-240920D02*
X360747Y-239808D01*
X359414Y-239475D01*
X358081Y-239808D01*
X357414Y-240920D01*
X357414Y-244475D01*
G54D13*
X352393Y-243920D02*
X351060Y-244475D01*
X349726Y-244475D01*
X348393Y-243920D01*
X348393Y-242808D01*
X349060Y-242253D01*
X351726Y-241697D01*
X352393Y-241142D01*
X352393Y-240030D01*
X351060Y-239475D01*
X349726Y-239475D01*
X348393Y-240030D01*
G54D13*
X341949Y-243920D02*
X343016Y-244475D01*
X344349Y-244475D01*
X345682Y-243920D01*
X345949Y-242808D01*
X345949Y-240920D01*
X345282Y-239808D01*
X343949Y-239475D01*
X342616Y-239808D01*
X341949Y-240586D01*
X341949Y-241697D01*
X345949Y-241697D01*
G54D13*
X339505Y-244475D02*
X339505Y-239475D01*
G54D13*
X339505Y-240586D02*
X338172Y-239475D01*
X336838Y-239475D01*
G54D13*
X334394Y-244475D02*
X334394Y-239475D01*
G54D13*
X334394Y-237808D02*
X334394Y-237808D01*
G54D13*
X331950Y-240030D02*
X330617Y-239475D01*
X329017Y-239475D01*
X327950Y-240586D01*
X327950Y-244475D01*
G54D13*
X327950Y-242808D02*
X328617Y-241697D01*
X329950Y-241475D01*
X331283Y-241697D01*
X331950Y-242808D01*
X331683Y-243920D01*
X330617Y-244475D01*
X329950Y-244475D01*
X329683Y-244475D01*
X328617Y-243920D01*
X327950Y-242808D01*
G54D13*
X325506Y-244475D02*
X325506Y-235586D01*
G54D13*
X316485Y-243142D02*
X316485Y-240920D01*
X317152Y-239808D01*
X318485Y-239475D01*
X319818Y-239808D01*
X320485Y-240920D01*
X320485Y-243142D01*
X319818Y-244253D01*
X318485Y-244475D01*
X317152Y-244253D01*
X316485Y-243142D01*
G54D13*
X310041Y-239475D02*
X310041Y-244475D01*
G54D13*
X310041Y-243364D02*
X310708Y-244253D01*
X312041Y-244475D01*
X313374Y-244253D01*
X314041Y-243364D01*
X314041Y-239475D01*
G54D13*
X306264Y-235586D02*
X306264Y-243920D01*
X305597Y-244475D01*
X304930Y-244253D01*
G54D13*
X307597Y-239475D02*
X304930Y-239475D01*
G54D13*
X302486Y-239475D02*
X302486Y-246697D01*
G54D13*
X302486Y-242808D02*
X301819Y-244253D01*
X300486Y-244475D01*
X299153Y-244253D01*
X298486Y-243142D01*
X298486Y-240920D01*
X299153Y-239808D01*
X300486Y-239475D01*
X301819Y-239808D01*
X302486Y-241142D01*
G54D13*
X292042Y-239475D02*
X292042Y-244475D01*
G54D13*
X292042Y-243364D02*
X292709Y-244253D01*
X294042Y-244475D01*
X295375Y-244253D01*
X296042Y-243364D01*
X296042Y-239475D01*
G54D13*
X288265Y-235586D02*
X288265Y-243920D01*
X287598Y-244475D01*
X286931Y-244253D01*
G54D13*
X289598Y-239475D02*
X286931Y-239475D01*
G54D13*
X284487Y-235586D02*
X283154Y-236142D01*
X282487Y-237253D01*
X282487Y-242808D01*
X283154Y-243920D01*
X284487Y-244475D01*
G54D13*
X561975Y-260350D02*
X561975Y-251461D01*
X556642Y-260350D01*
X556642Y-251461D01*
G54D13*
X550198Y-259794D02*
X551265Y-260350D01*
X552598Y-260350D01*
X553931Y-259794D01*
X554198Y-258683D01*
X554198Y-256794D01*
X553531Y-255683D01*
X552198Y-255350D01*
X550865Y-255683D01*
X550198Y-256461D01*
X550198Y-257572D01*
X554198Y-257572D01*
G54D13*
X543754Y-259017D02*
X543754Y-256794D01*
X544421Y-255683D01*
X545754Y-255350D01*
X547087Y-255683D01*
X547754Y-256794D01*
X547754Y-259017D01*
X547087Y-260128D01*
X545754Y-260350D01*
X544421Y-260128D01*
X543754Y-259017D01*
G54D13*
X541310Y-255350D02*
X541310Y-262572D01*
G54D13*
X541310Y-258683D02*
X540643Y-260128D01*
X539310Y-260350D01*
X537977Y-260128D01*
X537310Y-259017D01*
X537310Y-256794D01*
X537977Y-255683D01*
X539310Y-255350D01*
X540643Y-255683D01*
X541310Y-257017D01*
G54D13*
X534866Y-260350D02*
X534866Y-255350D01*
G54D13*
X534866Y-253683D02*
X534866Y-253683D01*
G54D13*
X532422Y-255350D02*
X527089Y-260350D01*
G54D13*
X532422Y-260350D02*
X527089Y-255350D01*
G54D13*
X520645Y-259794D02*
X521712Y-260350D01*
X523045Y-260350D01*
X524378Y-259794D01*
X524645Y-258683D01*
X524645Y-256794D01*
X523978Y-255683D01*
X522645Y-255350D01*
X521312Y-255683D01*
X520645Y-256461D01*
X520645Y-257572D01*
X524645Y-257572D01*
G54D13*
X518201Y-260350D02*
X518201Y-251461D01*
G54D13*
X513180Y-255350D02*
X513180Y-262572D01*
G54D13*
X513180Y-258683D02*
X512513Y-260128D01*
X511180Y-260350D01*
X509847Y-260128D01*
X509180Y-259017D01*
X509180Y-256794D01*
X509847Y-255683D01*
X511180Y-255350D01*
X512513Y-255683D01*
X513180Y-257017D01*
G54D13*
X502736Y-259017D02*
X502736Y-256794D01*
X503403Y-255683D01*
X504736Y-255350D01*
X506069Y-255683D01*
X506736Y-256794D01*
X506736Y-259017D01*
X506069Y-260128D01*
X504736Y-260350D01*
X503403Y-260128D01*
X502736Y-259017D01*
G54D13*
X500292Y-255350D02*
X498292Y-260350D01*
X496292Y-255350D01*
X494292Y-260350D01*
X492959Y-255350D01*
G54D13*
X486515Y-259794D02*
X487582Y-260350D01*
X488915Y-260350D01*
X490248Y-259794D01*
X490515Y-258683D01*
X490515Y-256794D01*
X489848Y-255683D01*
X488515Y-255350D01*
X487182Y-255683D01*
X486515Y-256461D01*
X486515Y-257572D01*
X490515Y-257572D01*
G54D13*
X484071Y-260350D02*
X484071Y-255350D01*
G54D13*
X484071Y-256461D02*
X482738Y-255350D01*
X481404Y-255350D01*
G54D13*
X472383Y-259017D02*
X472383Y-256794D01*
X473050Y-255683D01*
X474383Y-255350D01*
X475716Y-255683D01*
X476383Y-256794D01*
X476383Y-259017D01*
X475716Y-260128D01*
X474383Y-260350D01*
X473050Y-260128D01*
X472383Y-259017D01*
G54D13*
X465939Y-255350D02*
X465939Y-260350D01*
G54D13*
X465939Y-259239D02*
X466606Y-260128D01*
X467939Y-260350D01*
X469272Y-260128D01*
X469939Y-259239D01*
X469939Y-255350D01*
G54D13*
X462162Y-251461D02*
X462162Y-259794D01*
X461495Y-260350D01*
X460828Y-260128D01*
G54D13*
X463495Y-255350D02*
X460828Y-255350D01*
G54D13*
X458384Y-255350D02*
X458384Y-262572D01*
G54D13*
X458384Y-258683D02*
X457717Y-260128D01*
X456384Y-260350D01*
X455051Y-260128D01*
X454384Y-259017D01*
X454384Y-256794D01*
X455051Y-255683D01*
X456384Y-255350D01*
X457717Y-255683D01*
X458384Y-257017D01*
G54D13*
X447940Y-255350D02*
X447940Y-260350D01*
G54D13*
X447940Y-259239D02*
X448607Y-260128D01*
X449940Y-260350D01*
X451273Y-260128D01*
X451940Y-259239D01*
X451940Y-255350D01*
G54D13*
X444163Y-251461D02*
X444163Y-259794D01*
X443496Y-260350D01*
X442829Y-260128D01*
G54D13*
X445496Y-255350D02*
X442829Y-255350D01*
G54D13*
X437808Y-260350D02*
X437808Y-260350D01*
G54D13*
X437808Y-255350D02*
X437808Y-255350D01*
G54D13*
X427454Y-251461D02*
X432787Y-251461D01*
X432787Y-255350D01*
X432120Y-255350D01*
X430787Y-254794D01*
X429454Y-254794D01*
X428120Y-255350D01*
X427454Y-256461D01*
X427454Y-258683D01*
X428120Y-259794D01*
X429454Y-260350D01*
X430787Y-260350D01*
X432120Y-259794D01*
X432787Y-258683D01*
G54D13*
X425010Y-251461D02*
X421677Y-260350D01*
X418343Y-251461D01*
G54D13*
X413322Y-260350D02*
X413322Y-255350D01*
G54D13*
X413322Y-256239D02*
X411989Y-255350D01*
X410655Y-255683D01*
X409989Y-256461D01*
X409989Y-260350D01*
G54D13*
X409989Y-256239D02*
X408655Y-255350D01*
X407322Y-255683D01*
X406655Y-256461D01*
X406655Y-260350D01*
G54D13*
X404211Y-255906D02*
X402878Y-255350D01*
X401278Y-255350D01*
X400211Y-256461D01*
X400211Y-260350D01*
G54D13*
X400211Y-258683D02*
X400878Y-257572D01*
X402211Y-257350D01*
X403544Y-257572D01*
X404211Y-258683D01*
X403944Y-259794D01*
X402878Y-260350D01*
X402211Y-260350D01*
X401944Y-260350D01*
X400878Y-259794D01*
X400211Y-258683D01*
G54D13*
X397767Y-255350D02*
X392434Y-260350D01*
G54D13*
X397767Y-260350D02*
X392434Y-255350D01*
G54D13*
X387413Y-254794D02*
X384080Y-251461D01*
X384080Y-260350D01*
G54D13*
X376303Y-251461D02*
X381636Y-251461D01*
X381636Y-255350D01*
X380969Y-255350D01*
X379636Y-254794D01*
X378303Y-254794D01*
X376969Y-255350D01*
X376303Y-256461D01*
X376303Y-258683D01*
X376969Y-259794D01*
X378303Y-260350D01*
X379636Y-260350D01*
X380969Y-259794D01*
X381636Y-258683D01*
G54D13*
X368526Y-253128D02*
X368526Y-258683D01*
X369192Y-259794D01*
X370526Y-260350D01*
X371859Y-260350D01*
X373192Y-259794D01*
X373859Y-258683D01*
X373859Y-253128D01*
X373192Y-252017D01*
X371859Y-251461D01*
X370526Y-251461D01*
X369192Y-252017D01*
X368526Y-253128D01*
G54D13*
X360749Y-253128D02*
X360749Y-258683D01*
X361415Y-259794D01*
X362749Y-260350D01*
X364082Y-260350D01*
X365415Y-259794D01*
X366082Y-258683D01*
X366082Y-253128D01*
X365415Y-252017D01*
X364082Y-251461D01*
X362749Y-251461D01*
X361415Y-252017D01*
X360749Y-253128D01*
G54D13*
X358305Y-260350D02*
X358305Y-255350D01*
G54D13*
X358305Y-256239D02*
X356972Y-255350D01*
X355638Y-255683D01*
X354972Y-256461D01*
X354972Y-260350D01*
G54D13*
X354972Y-256239D02*
X353638Y-255350D01*
X352305Y-255683D01*
X351638Y-256461D01*
X351638Y-260350D01*
G54D13*
X349194Y-260350D02*
X345861Y-251461D01*
X342527Y-260350D01*
G54D13*
X347861Y-257017D02*
X343861Y-257017D01*
X227919Y-334634D02*
G54D10*
D03*
X224744Y-337809D02*
G54D10*
D03*
X221569Y-340984D02*
G54D10*
D03*
X218394Y-344159D02*
G54D10*
D03*
X227919Y-328284D02*
G54D10*
D03*
X224744Y-325109D02*
G54D10*
D03*
X221569Y-321934D02*
G54D10*
D03*
X218394Y-318759D02*
G54D10*
D03*
X215219Y-315584D02*
G54D10*
D03*
X215219Y-347334D02*
G54D10*
D03*
X212044Y-350509D02*
G54D10*
D03*
X208869Y-353684D02*
G54D10*
D03*
X205694Y-356859D02*
G54D10*
D03*
X199344Y-356859D02*
G54D10*
D03*
X196169Y-353684D02*
G54D10*
D03*
X192994Y-350509D02*
G54D10*
D03*
X189819Y-347334D02*
G54D10*
D03*
X186644Y-344159D02*
G54D10*
D03*
X183469Y-340984D02*
G54D10*
D03*
X180294Y-337809D02*
G54D10*
D03*
X177119Y-334634D02*
G54D10*
D03*
X173944Y-331459D02*
G54D10*
D03*
X212044Y-312409D02*
G54D10*
D03*
X208869Y-309234D02*
G54D10*
D03*
X205694Y-306059D02*
G54D10*
D03*
X202519Y-302884D02*
G54D10*
D03*
X186644Y-306059D02*
G54D10*
D03*
X177119Y-315584D02*
G54D10*
D03*
X173944Y-312409D02*
G54D10*
D03*
X183469Y-302884D02*
G54D10*
D03*
X183469Y-296534D02*
G54D10*
D03*
X180294Y-293359D02*
G54D10*
D03*
X177119Y-296534D02*
G54D10*
D03*
X173944Y-299709D02*
G54D10*
D03*
X170769Y-302884D02*
G54D10*
D03*
X167594Y-306059D02*
G54D10*
D03*
X164419Y-309234D02*
G54D10*
D03*
X167594Y-312409D02*
G54D10*
D03*
X218394Y-325109D02*
G54D10*
D03*
X215219Y-325109D02*
G54D10*
D03*
X212044Y-321934D02*
G54D10*
D03*
X208869Y-325109D02*
G54D10*
D03*
X205694Y-325109D02*
G54D10*
D03*
X202519Y-325109D02*
G54D10*
D03*
X199344Y-328284D02*
G54D10*
D03*
X196169Y-328284D02*
G54D10*
D03*
X192994Y-325109D02*
G54D10*
D03*
X189819Y-325109D02*
G54D10*
D03*
X186644Y-325109D02*
G54D10*
D03*
X183469Y-325109D02*
G54D10*
D03*
X180294Y-325109D02*
G54D10*
D03*
X177119Y-328284D02*
G54D10*
D03*
X161244Y-299709D02*
G54D10*
D03*
X161244Y-302884D02*
G54D10*
D03*
X161244Y-306059D02*
G54D10*
D03*
X158069Y-306059D02*
G54D10*
D03*
X158069Y-299709D02*
G54D10*
D03*
X154894Y-299709D02*
G54D10*
D03*
X154894Y-296534D02*
G54D10*
D03*
X154894Y-293359D02*
G54D10*
D03*
X151719Y-293359D02*
G54D10*
D03*
X148544Y-293359D02*
G54D10*
D03*
X148544Y-296534D02*
G54D10*
D03*
X148544Y-299709D02*
G54D10*
D03*
X145369Y-299709D02*
G54D10*
D03*
X142194Y-299709D02*
G54D10*
D03*
X142194Y-302884D02*
G54D10*
D03*
X142194Y-306059D02*
G54D10*
D03*
X145369Y-306059D02*
G54D10*
D03*
X148544Y-306059D02*
G54D10*
D03*
X154894Y-306059D02*
G54D10*
D03*
X154894Y-309234D02*
G54D10*
D03*
X154894Y-312409D02*
G54D10*
D03*
X151719Y-312409D02*
G54D10*
D03*
X148544Y-312409D02*
G54D10*
D03*
X148544Y-309234D02*
G54D10*
D03*
X199344Y-299709D02*
G54D10*
D03*
X192994Y-299709D02*
G54D10*
D03*
X189819Y-302884D02*
G54D10*
D03*
X173944Y-318759D02*
G54D10*
D03*
X170769Y-321934D02*
G54D10*
D03*
X170769Y-328284D02*
G54D10*
D03*
X173944Y-337809D02*
G54D10*
D03*
X170769Y-337809D02*
G54D10*
D03*
X167594Y-337809D02*
G54D10*
D03*
X164419Y-337809D02*
G54D10*
D03*
X161244Y-337809D02*
G54D10*
D03*
X167594Y-340984D02*
G54D10*
D03*
X167594Y-344159D02*
G54D10*
D03*
X167594Y-347334D02*
G54D10*
D03*
X167594Y-350509D02*
G54D10*
D03*
X167594Y-353684D02*
G54D10*
D03*
X170769Y-356859D02*
G54D10*
D03*
X173944Y-356859D02*
G54D10*
D03*
X177119Y-353684D02*
G54D10*
D03*
X158069Y-356859D02*
G54D10*
D03*
X154894Y-353684D02*
G54D10*
D03*
X154894Y-350509D02*
G54D10*
D03*
X154894Y-347334D02*
G54D10*
D03*
X154894Y-344159D02*
G54D10*
D03*
X151719Y-356859D02*
G54D10*
D03*
X148544Y-356859D02*
G54D10*
D03*
X145369Y-356859D02*
G54D10*
D03*
X145369Y-353684D02*
G54D10*
D03*
X145369Y-350509D02*
G54D10*
D03*
X145369Y-347334D02*
G54D10*
D03*
X145369Y-344159D02*
G54D10*
D03*
X139019Y-340984D02*
G54D10*
D03*
X139019Y-347334D02*
G54D10*
D03*
X139019Y-350509D02*
G54D10*
D03*
X139019Y-353684D02*
G54D10*
D03*
X139019Y-356859D02*
G54D10*
D03*
X132669Y-353684D02*
G54D10*
D03*
X132669Y-350509D02*
G54D10*
D03*
X132669Y-347334D02*
G54D10*
D03*
X129494Y-344159D02*
G54D10*
D03*
X126319Y-344159D02*
G54D10*
D03*
X129494Y-356859D02*
G54D10*
D03*
X126319Y-356859D02*
G54D10*
D03*
X123144Y-356859D02*
G54D10*
D03*
X123144Y-344159D02*
G54D10*
D03*
X116794Y-353684D02*
G54D10*
D03*
X116794Y-350509D02*
G54D10*
D03*
X116794Y-347334D02*
G54D10*
D03*
X113619Y-344159D02*
G54D10*
D03*
X110444Y-344159D02*
G54D10*
D03*
X107269Y-344159D02*
G54D10*
D03*
X113619Y-356859D02*
G54D10*
D03*
X110444Y-356859D02*
G54D10*
D03*
X107269Y-356859D02*
G54D10*
D03*
X104094Y-347334D02*
G54D10*
D03*
X104094Y-350509D02*
G54D10*
D03*
X107269Y-350509D02*
G54D10*
D03*
X110444Y-350509D02*
G54D10*
D03*
X113619Y-350509D02*
G54D10*
D03*
X205694Y-337809D02*
G54D10*
D03*
X202519Y-340984D02*
G54D10*
D03*
X199344Y-337809D02*
G54D10*
D03*
X202519Y-334634D02*
G54D10*
D03*
X192994Y-340984D02*
G54D10*
D03*
X215219Y-331459D02*
G54D10*
D03*
X186644Y-331459D02*
G54D10*
D03*
X202519Y-350509D02*
G54D10*
D03*
X218394Y-334634D02*
G54D10*
D03*
X158069Y-318759D02*
G54D10*
D03*
X154894Y-318759D02*
G54D10*
D03*
X151719Y-318759D02*
G54D10*
D03*
X148544Y-318759D02*
G54D10*
D03*
X145369Y-318759D02*
G54D10*
D03*
X145369Y-321934D02*
G54D10*
D03*
X145369Y-325109D02*
G54D10*
D03*
X148544Y-328284D02*
G54D10*
D03*
X151719Y-331459D02*
G54D10*
D03*
X154894Y-334634D02*
G54D10*
D03*
X142194Y-312409D02*
G54D10*
D03*
X142194Y-315584D02*
G54D10*
D03*
X139019Y-315584D02*
G54D10*
D03*
X139019Y-312409D02*
G54D10*
D03*
X135844Y-318759D02*
G54D10*
D03*
X132669Y-318759D02*
G54D10*
D03*
X129494Y-318759D02*
G54D10*
D03*
X126319Y-318759D02*
G54D10*
D03*
X123144Y-318759D02*
G54D10*
D03*
X135844Y-325109D02*
G54D10*
D03*
X132669Y-325109D02*
G54D10*
D03*
X129494Y-325109D02*
G54D10*
D03*
X126319Y-325109D02*
G54D10*
D03*
X123144Y-325109D02*
G54D10*
D03*
X123144Y-328284D02*
G54D10*
D03*
X126319Y-331459D02*
G54D10*
D03*
X129494Y-334634D02*
G54D10*
D03*
X135844Y-334634D02*
G54D10*
D03*
X132669Y-334634D02*
G54D10*
D03*
X116794Y-318759D02*
G54D10*
D03*
X113619Y-318759D02*
G54D10*
D03*
X110444Y-318759D02*
G54D10*
D03*
X107269Y-318759D02*
G54D10*
D03*
X104094Y-318759D02*
G54D10*
D03*
X104094Y-321934D02*
G54D10*
D03*
X107269Y-325109D02*
G54D10*
D03*
X110444Y-328284D02*
G54D10*
D03*
X113619Y-331459D02*
G54D10*
D03*
X116794Y-334634D02*
G54D10*
D03*
X107269Y-331459D02*
G54D10*
D03*
X104094Y-334634D02*
G54D10*
D03*
X196169Y-306059D02*
G54D10*
D03*
X199344Y-309234D02*
G54D10*
D03*
X288244Y-287009D02*
G54D11*
D03*
X283481Y-287009D02*
G54D11*
D03*
X278719Y-287009D02*
G54D11*
D03*
X273956Y-287009D02*
G54D11*
D03*
X269194Y-287009D02*
G54D11*
D03*
X264431Y-287009D02*
G54D11*
D03*
X259669Y-287009D02*
G54D11*
D03*
X254906Y-287009D02*
G54D11*
D03*
X302531Y-301296D02*
G54D11*
D03*
X302531Y-306059D02*
G54D11*
D03*
X302531Y-310821D02*
G54D11*
D03*
X302531Y-315584D02*
G54D11*
D03*
X302531Y-320346D02*
G54D11*
D03*
X302531Y-325109D02*
G54D11*
D03*
X302531Y-329871D02*
G54D11*
D03*
X302531Y-334634D02*
G54D11*
D03*
X302531Y-339396D02*
G54D11*
D03*
X302531Y-344159D02*
G54D11*
D03*
X307294Y-348921D02*
G54D11*
D03*
X307294Y-353684D02*
G54D11*
D03*
X307294Y-358446D02*
G54D11*
D03*
X312056Y-358446D02*
G54D11*
D03*
X297769Y-353684D02*
G54D11*
D03*
X297769Y-358446D02*
G54D11*
D03*
X293006Y-358446D02*
G54D11*
D03*
X288244Y-353684D02*
G54D11*
D03*
X283481Y-353684D02*
G54D11*
D03*
X278719Y-353684D02*
G54D11*
D03*
X278719Y-358446D02*
G54D11*
D03*
X273956Y-358446D02*
G54D11*
D03*
X245381Y-310821D02*
G54D11*
D03*
X245381Y-306059D02*
G54D11*
D03*
X245381Y-301296D02*
G54D11*
D03*
X245381Y-296534D02*
G54D11*
D03*
X250144Y-291771D02*
G54D11*
D03*
X288244Y-301296D02*
G54D11*
D03*
X283481Y-296534D02*
G54D11*
D03*
X278719Y-296534D02*
G54D11*
D03*
X273956Y-296534D02*
G54D11*
D03*
X269194Y-296534D02*
G54D11*
D03*
X264431Y-301296D02*
G54D11*
D03*
X283481Y-306059D02*
G54D11*
D03*
X278719Y-306059D02*
G54D11*
D03*
X273956Y-306059D02*
G54D11*
D03*
X269194Y-306059D02*
G54D11*
D03*
X278719Y-301296D02*
G54D11*
D03*
X273956Y-301296D02*
G54D11*
D03*
X302531Y-353684D02*
G54D11*
D03*
X250144Y-315584D02*
G54D11*
D03*
X254906Y-315584D02*
G54D11*
D03*
X264431Y-320346D02*
G54D11*
D03*
X259669Y-320346D02*
G54D11*
D03*
X269194Y-320346D02*
G54D11*
D03*
X269194Y-325109D02*
G54D11*
D03*
X269194Y-329871D02*
G54D11*
D03*
X269194Y-334634D02*
G54D11*
D03*
X269194Y-339396D02*
G54D11*
D03*
X269194Y-344159D02*
G54D11*
D03*
X269194Y-348921D02*
G54D11*
D03*
X269194Y-353684D02*
G54D11*
D03*
X293006Y-287009D02*
G54D11*
D03*
X297769Y-291771D02*
G54D11*
D03*
X302531Y-296534D02*
G54D11*
D03*
G54D12*
X540398Y-377048D02*
X529286Y-377048D01*
X526905Y-387366D01*
X519364Y-390541D01*
X510236Y-384588D01*
X502298Y-391732D01*
X508648Y-399670D01*
X505077Y-407607D01*
X493964Y-409194D01*
X493964Y-419910D01*
X503886Y-421101D01*
X507458Y-429435D01*
X502298Y-436976D01*
X509839Y-444516D01*
X518570Y-438960D01*
X522936Y-441738D01*
X530476Y-425070D01*
G54D12*
X539208Y-425070D02*
X546748Y-441341D01*
X551114Y-439357D01*
X559448Y-444913D01*
X567783Y-437373D01*
X561830Y-429435D01*
X565402Y-421101D01*
X575720Y-419910D01*
X575324Y-409194D01*
X564608Y-407210D01*
X561830Y-400860D01*
X567783Y-392526D01*
X559845Y-384985D01*
X550717Y-390541D01*
X541986Y-387366D01*
X540398Y-377048D01*
G54D12*
G75*
G01X538951Y-424385D02*
G03X530746Y-424385I-4103J9665D01*
G01*
G36*
X575324Y-409194D02*
X564608Y-407210D01*
X561830Y-400860D01*
X567783Y-392526D01*
X559845Y-384985D01*
X550717Y-390541D01*
X541986Y-387366D01*
X540398Y-377048D01*
X529286Y-377048D01*
X526905Y-387366D01*
X519364Y-390541D01*
X510236Y-384588D01*
X502298Y-391732D01*
X508648Y-399670D01*
X505077Y-407607D01*
X493964Y-409194D01*
X493964Y-419910D01*
X503886Y-421101D01*
X507458Y-429435D01*
X502298Y-436976D01*
X509839Y-444516D01*
X518570Y-438960D01*
X522936Y-441738D01*
X530874Y-424276D01*
X529683Y-423879D01*
X528492Y-423085D01*
X526111Y-420704D01*
X524523Y-417529D01*
X524127Y-415544D01*
X524127Y-413957D01*
X524524Y-411576D01*
X525714Y-408798D01*
X528095Y-406020D01*
X530080Y-404829D01*
X532064Y-404035D01*
X534445Y-403638D01*
X536827Y-404035D01*
X540002Y-404829D01*
X542780Y-407210D01*
X545558Y-411179D01*
X545558Y-417529D01*
X544367Y-419910D01*
X542780Y-422291D01*
X540398Y-424276D01*
X538811Y-424276D01*
X546748Y-441341D01*
X551114Y-439357D01*
X559448Y-444913D01*
X567783Y-437373D01*
X561830Y-429435D01*
X575324Y-409194D01*
G37*
G54D12*
X575324Y-409194D02*
X564608Y-407210D01*
X561830Y-400860D01*
X567783Y-392526D01*
X559845Y-384985D01*
X550717Y-390541D01*
X541986Y-387366D01*
X540398Y-377048D01*
X529286Y-377048D01*
X526905Y-387366D01*
X519364Y-390541D01*
X510236Y-384588D01*
X502298Y-391732D01*
X508648Y-399670D01*
X505077Y-407607D01*
X493964Y-409194D01*
X493964Y-419910D01*
X503886Y-421101D01*
X507458Y-429435D01*
X502298Y-436976D01*
X509839Y-444516D01*
X518570Y-438960D01*
X522936Y-441738D01*
X530874Y-424276D01*
X529683Y-423879D01*
X528492Y-423085D01*
X526111Y-420704D01*
X524523Y-417529D01*
X524127Y-415544D01*
X524127Y-413957D01*
X524524Y-411576D01*
X525714Y-408798D01*
X528095Y-406020D01*
X530080Y-404829D01*
X532064Y-404035D01*
X534445Y-403638D01*
X536827Y-404035D01*
X540002Y-404829D01*
X542780Y-407210D01*
X545558Y-411179D01*
X545558Y-417529D01*
X544367Y-419910D01*
X542780Y-422291D01*
X540398Y-424276D01*
X538811Y-424276D01*
X546748Y-441341D01*
X551114Y-439357D01*
X559448Y-444913D01*
X567783Y-437373D01*
X561830Y-429435D01*
X575324Y-409194D01*
G36*
X575324Y-409194D02*
X575720Y-419910D01*
X565402Y-421101D01*
X575324Y-409194D01*
G37*
G54D12*
X575324Y-409194D02*
X575720Y-419910D01*
X565402Y-421101D01*
X575324Y-409194D01*
G54D13*
X330943Y-380183D02*
X330943Y-371294D01*
G54D13*
X330943Y-376628D02*
X330276Y-375516D01*
X328942Y-375183D01*
X327609Y-375516D01*
X326943Y-376628D01*
X326943Y-380183D01*
G54D13*
X323165Y-371294D02*
X323165Y-379628D01*
X322498Y-380183D01*
X321832Y-379961D01*
G54D13*
X324499Y-375183D02*
X321832Y-375183D01*
G54D13*
X318054Y-371294D02*
X318054Y-379628D01*
X317388Y-380183D01*
X316721Y-379961D01*
G54D13*
X319388Y-375183D02*
X316721Y-375183D01*
G54D13*
X314277Y-375183D02*
X314277Y-382405D01*
G54D13*
X314277Y-378516D02*
X313610Y-379961D01*
X312276Y-380183D01*
X310943Y-379961D01*
X310277Y-378850D01*
X310277Y-376628D01*
X310943Y-375516D01*
X312277Y-375183D01*
X313610Y-375516D01*
X314277Y-376850D01*
G54D13*
X307833Y-379628D02*
X306499Y-380183D01*
X305166Y-380183D01*
X303832Y-379628D01*
X303833Y-378516D01*
X304499Y-377961D01*
X307166Y-377405D01*
X307833Y-376850D01*
X307833Y-375739D01*
X306499Y-375183D01*
X305166Y-375183D01*
X303833Y-375739D01*
G54D13*
X301389Y-380183D02*
X301389Y-380183D01*
G54D13*
X301389Y-375183D02*
X301389Y-375183D01*
G54D13*
X298945Y-380183D02*
X293611Y-371294D01*
G54D13*
X291168Y-380183D02*
X285834Y-371294D01*
G54D13*
X283391Y-381850D02*
X282057Y-382405D01*
X281124Y-382405D01*
X279791Y-381850D01*
X279391Y-380739D01*
X279391Y-375183D01*
G54D13*
X279391Y-376628D02*
X280057Y-375516D01*
X281391Y-375183D01*
X282724Y-375516D01*
X283391Y-376628D01*
X283391Y-378850D01*
X282724Y-379961D01*
X281391Y-380183D01*
X280057Y-379961D01*
X279391Y-378850D01*
G54D13*
X276947Y-380183D02*
X276947Y-375183D01*
G54D13*
X276947Y-373516D02*
X276947Y-373516D01*
G54D13*
X273169Y-371294D02*
X273169Y-379628D01*
X272503Y-380183D01*
X271836Y-379961D01*
G54D13*
X274502Y-375183D02*
X271836Y-375183D01*
G54D13*
X269392Y-380183D02*
X269392Y-371294D01*
G54D13*
X269392Y-376628D02*
X268725Y-375516D01*
X267392Y-375183D01*
X266058Y-375516D01*
X265392Y-376628D01*
X265392Y-380183D01*
G54D13*
X258948Y-375183D02*
X258948Y-380183D01*
G54D13*
X258948Y-379072D02*
X259614Y-379961D01*
X260948Y-380183D01*
X262281Y-379961D01*
X262948Y-379072D01*
X262948Y-375183D01*
G54D13*
X256504Y-380183D02*
X256504Y-371294D01*
G54D13*
X256504Y-376628D02*
X255837Y-375516D01*
X254504Y-375183D01*
X253170Y-375516D01*
X252504Y-376628D01*
X252504Y-378850D01*
X253170Y-379961D01*
X254504Y-380183D01*
X255837Y-379961D01*
X256504Y-378850D01*
G54D13*
X250060Y-380183D02*
X250060Y-380183D01*
G54D13*
X244282Y-375516D02*
X245616Y-375183D01*
X246949Y-375516D01*
X247616Y-376628D01*
X247616Y-378850D01*
X246949Y-379961D01*
X245616Y-380183D01*
X244282Y-379961D01*
G54D13*
X237839Y-378850D02*
X237839Y-376628D01*
X238505Y-375516D01*
X239839Y-375183D01*
X241172Y-375516D01*
X241839Y-376628D01*
X241839Y-378850D01*
X241172Y-379961D01*
X239839Y-380183D01*
X238505Y-379961D01*
X237839Y-378850D01*
G54D13*
X235395Y-380183D02*
X235395Y-375183D01*
G54D13*
X235395Y-376072D02*
X234061Y-375183D01*
X232728Y-375516D01*
X232061Y-376294D01*
X232061Y-380183D01*
G54D13*
X232061Y-376072D02*
X230728Y-375183D01*
X229395Y-375516D01*
X228728Y-376294D01*
X228728Y-380183D01*
G54D13*
X226284Y-380183D02*
X220950Y-371294D01*
G54D13*
X213173Y-378516D02*
X213840Y-379628D01*
X215173Y-380183D01*
X216507Y-380183D01*
X217840Y-379628D01*
X218507Y-378516D01*
X218507Y-372961D01*
X217840Y-371850D01*
X216507Y-371294D01*
X215173Y-371294D01*
X213840Y-371850D01*
X213173Y-372961D01*
G54D13*
X210730Y-380183D02*
X210730Y-371294D01*
G54D13*
X210730Y-376628D02*
X210063Y-375516D01*
X208730Y-375183D01*
X207396Y-375516D01*
X206730Y-376628D01*
X206730Y-380183D01*
G54D13*
X204286Y-380183D02*
X204286Y-375183D01*
G54D13*
X204286Y-373516D02*
X204286Y-373516D01*
G54D13*
X201842Y-375183D02*
X201841Y-382405D01*
G54D13*
X201842Y-378516D02*
X201175Y-379961D01*
X199842Y-380183D01*
X198508Y-379961D01*
X197842Y-378850D01*
X197842Y-376628D01*
X198508Y-375516D01*
X199842Y-375183D01*
X201175Y-375516D01*
X201841Y-376850D01*
G54D13*
X192731Y-380183D02*
X192731Y-371294D01*
G54D13*
X195398Y-371294D02*
X190064Y-371294D01*
G54D13*
X183621Y-379628D02*
X184687Y-380183D01*
X186021Y-380183D01*
X187354Y-379628D01*
X187620Y-378516D01*
X187621Y-376628D01*
X186954Y-375516D01*
X185621Y-375183D01*
X184287Y-375516D01*
X183621Y-376294D01*
X183621Y-377405D01*
X187621Y-377405D01*
G54D13*
X177843Y-375516D02*
X179177Y-375183D01*
X180510Y-375516D01*
X181177Y-376628D01*
X181176Y-378850D01*
X180510Y-379961D01*
X179177Y-380183D01*
X177843Y-379961D01*
G54D13*
X175400Y-380183D02*
X175400Y-371294D01*
G54D13*
X175400Y-376628D02*
X174733Y-375516D01*
X173400Y-375183D01*
X172066Y-375516D01*
X171400Y-376628D01*
X171400Y-380183D01*
G54D13*
X168956Y-380183D02*
X168956Y-375183D01*
G54D13*
X168956Y-376294D02*
X168289Y-375516D01*
X166956Y-375183D01*
X165622Y-375516D01*
X164956Y-376294D01*
X164956Y-380183D01*
G54D13*
X158512Y-378850D02*
X158512Y-376628D01*
X159178Y-375516D01*
X160512Y-375183D01*
X161845Y-375516D01*
X162512Y-376628D01*
X162512Y-378850D01*
X161845Y-379961D01*
X160512Y-380183D01*
X159178Y-379961D01*
X158512Y-378850D01*
G54D13*
X156068Y-380183D02*
X150734Y-371294D01*
G54D13*
X146957Y-373516D02*
X146957Y-373516D01*
G54D13*
X148291Y-382405D02*
X147624Y-382405D01*
X146957Y-381516D01*
X146957Y-375183D01*
G54D13*
X140514Y-375183D02*
X140514Y-380183D01*
G54D13*
X140514Y-379072D02*
X141180Y-379961D01*
X142514Y-380183D01*
X143847Y-379961D01*
X144514Y-379072D01*
X144514Y-375183D01*
G54D13*
X138070Y-380183D02*
X138070Y-375183D01*
G54D13*
X138070Y-373516D02*
X138070Y-373516D01*
G54D13*
X132292Y-375516D02*
X133626Y-375183D01*
X134959Y-375516D01*
X135626Y-376628D01*
X135626Y-378850D01*
X134959Y-379961D01*
X133626Y-380183D01*
X132292Y-379961D01*
G54D13*
X125849Y-379628D02*
X126915Y-380183D01*
X128249Y-380183D01*
X129582Y-379628D01*
X129848Y-378516D01*
X129849Y-376628D01*
X129182Y-375516D01*
X127849Y-375183D01*
X126515Y-375516D01*
X125849Y-376294D01*
X125849Y-377405D01*
X129848Y-377405D01*
G54D13*
X123405Y-376294D02*
X118071Y-376294D01*
G54D13*
X115628Y-375183D02*
X115628Y-382405D01*
G54D13*
X115628Y-378516D02*
X114961Y-379961D01*
X113628Y-380183D01*
X112294Y-379961D01*
X111628Y-378850D01*
X111628Y-376628D01*
X112294Y-375516D01*
X113628Y-375183D01*
X114961Y-375516D01*
X115628Y-376850D01*
G54D13*
X109184Y-380183D02*
X109184Y-371294D01*
G54D13*
X102740Y-375183D02*
X102740Y-380183D01*
G54D13*
X102740Y-379072D02*
X103406Y-379961D01*
X104740Y-380183D01*
X106073Y-379961D01*
X106740Y-379072D01*
X106740Y-375183D01*
G54D13*
X100296Y-379628D02*
X98962Y-380183D01*
X97629Y-380183D01*
X96296Y-379628D01*
X96296Y-378516D01*
X96962Y-377961D01*
X99629Y-377405D01*
X100296Y-376850D01*
X100296Y-375739D01*
X98962Y-375183D01*
X97629Y-375183D01*
X96296Y-375739D01*
G54D13*
X129775Y-303439D02*
X127775Y-304550D01*
X127108Y-305662D01*
X127108Y-307884D01*
G54D13*
X132442Y-307884D02*
X132442Y-298995D01*
X129108Y-298995D01*
X127775Y-299550D01*
X127108Y-300662D01*
X127108Y-301773D01*
X127775Y-302884D01*
X129108Y-303439D01*
X132442Y-303439D01*
G54D13*
X120665Y-307328D02*
X121731Y-307884D01*
X123065Y-307884D01*
X124398Y-307328D01*
X124665Y-306217D01*
X124665Y-304328D01*
X123998Y-303217D01*
X122665Y-302884D01*
X121331Y-303217D01*
X120665Y-303995D01*
X120665Y-305106D01*
X124665Y-305106D01*
G54D13*
X118221Y-302884D02*
X115554Y-307884D01*
X112887Y-302884D01*
G54D13*
X105110Y-298995D02*
X110444Y-298995D01*
X110444Y-302884D01*
X109777Y-302884D01*
X108444Y-302328D01*
X107110Y-302328D01*
X105777Y-302884D01*
X105110Y-303995D01*
X105110Y-306217D01*
X105777Y-307328D01*
X107110Y-307884D01*
X108444Y-307884D01*
X109777Y-307328D01*
X110444Y-306217D01*
G54D13*
X556642Y-495300D02*
X561975Y-495300D01*
X561975Y-494744D01*
X561308Y-493633D01*
X557308Y-490300D01*
X556642Y-489189D01*
X556642Y-488078D01*
X557308Y-486967D01*
X558642Y-486411D01*
X559975Y-486411D01*
X561308Y-486967D01*
X561975Y-488078D01*
G54D13*
X550198Y-495300D02*
X550198Y-486411D01*
X554198Y-491967D01*
X554198Y-493078D01*
X548865Y-493078D01*
G54D13*
X546421Y-486411D02*
X543088Y-495300D01*
X539754Y-486411D01*
G54D13*
X530733Y-493967D02*
X530733Y-491744D01*
X531400Y-490633D01*
X532733Y-490300D01*
X534066Y-490633D01*
X534733Y-491744D01*
X534733Y-493967D01*
X534066Y-495078D01*
X532733Y-495300D01*
X531400Y-495078D01*
X530733Y-493967D01*
G54D13*
X524289Y-490300D02*
X524289Y-495300D01*
G54D13*
X524289Y-494189D02*
X524956Y-495078D01*
X526289Y-495300D01*
X527622Y-495078D01*
X528289Y-494189D01*
X528289Y-490300D01*
G54D13*
X520512Y-486411D02*
X520512Y-494744D01*
X519845Y-495300D01*
X519178Y-495078D01*
G54D13*
X521845Y-490300D02*
X519178Y-490300D01*
G54D13*
X516734Y-490300D02*
X516734Y-497522D01*
G54D13*
X516734Y-493633D02*
X516067Y-495078D01*
X514734Y-495300D01*
X513401Y-495078D01*
X512734Y-493967D01*
X512734Y-491744D01*
X513401Y-490633D01*
X514734Y-490300D01*
X516067Y-490633D01*
X516734Y-491967D01*
G54D13*
X506290Y-490300D02*
X506290Y-495300D01*
G54D13*
X506290Y-494189D02*
X506957Y-495078D01*
X508290Y-495300D01*
X509623Y-495078D01*
X510290Y-494189D01*
X510290Y-490300D01*
G54D13*
X502513Y-486411D02*
X502513Y-494744D01*
X501846Y-495300D01*
X501179Y-495078D01*
G54D13*
X503846Y-490300D02*
X501179Y-490300D01*
G54D13*
X496158Y-495300D02*
X496158Y-495300D01*
G54D13*
X496158Y-490300D02*
X496158Y-490300D01*
G54D13*
X491137Y-495300D02*
X491137Y-490300D01*
G54D13*
X491137Y-491189D02*
X489804Y-490300D01*
X488470Y-490633D01*
X487804Y-491411D01*
X487804Y-495300D01*
G54D13*
X487804Y-491189D02*
X486470Y-490300D01*
X485137Y-490633D01*
X484470Y-491411D01*
X484470Y-495300D01*
G54D13*
X482026Y-490856D02*
X480693Y-490300D01*
X479093Y-490300D01*
X478026Y-491411D01*
X478026Y-495300D01*
G54D13*
X478026Y-493633D02*
X478693Y-492522D01*
X480026Y-492300D01*
X481359Y-492522D01*
X482026Y-493633D01*
X481759Y-494744D01*
X480693Y-495300D01*
X480026Y-495300D01*
X479759Y-495300D01*
X478693Y-494744D01*
X478026Y-493633D01*
G54D13*
X475582Y-490300D02*
X470249Y-495300D01*
G54D13*
X475582Y-495300D02*
X470249Y-490300D01*
G54D13*
X465228Y-488078D02*
X464561Y-486967D01*
X463228Y-486411D01*
X461895Y-486411D01*
X460561Y-486967D01*
X459895Y-488078D01*
X459895Y-489189D01*
X460561Y-490300D01*
X461895Y-490856D01*
X460561Y-491411D01*
X459895Y-492522D01*
X459895Y-493633D01*
X460561Y-494744D01*
X461895Y-495300D01*
X463228Y-495300D01*
X464561Y-494744D01*
X465228Y-493633D01*
G54D13*
X452118Y-486411D02*
X457451Y-486411D01*
X457451Y-490300D01*
X456784Y-490300D01*
X455451Y-489744D01*
X454118Y-489744D01*
X452784Y-490300D01*
X452118Y-491411D01*
X452118Y-493633D01*
X452784Y-494744D01*
X454118Y-495300D01*
X455451Y-495300D01*
X456784Y-494744D01*
X457451Y-493633D01*
G54D13*
X444341Y-488078D02*
X444341Y-493633D01*
X445007Y-494744D01*
X446341Y-495300D01*
X447674Y-495300D01*
X449007Y-494744D01*
X449674Y-493633D01*
X449674Y-488078D01*
X449007Y-486967D01*
X447674Y-486411D01*
X446341Y-486411D01*
X445007Y-486967D01*
X444341Y-488078D01*
G54D13*
X441897Y-495300D02*
X441897Y-490300D01*
G54D13*
X441897Y-491189D02*
X440564Y-490300D01*
X439230Y-490633D01*
X438564Y-491411D01*
X438564Y-495300D01*
G54D13*
X438564Y-491189D02*
X437230Y-490300D01*
X435897Y-490633D01*
X435230Y-491411D01*
X435230Y-495300D01*
G54D13*
X432786Y-495300D02*
X429453Y-486411D01*
X426119Y-495300D01*
G54D13*
X431453Y-491967D02*
X427453Y-491967D01*
G54D13*
X419098Y-486411D02*
X420431Y-486967D01*
X421098Y-488078D01*
X421098Y-493633D01*
X420431Y-494744D01*
X419098Y-495300D01*
G54D13*
X416654Y-490300D02*
X411321Y-495300D01*
G54D13*
X416654Y-495300D02*
X411321Y-490300D01*
G54D13*
X403544Y-495300D02*
X408877Y-495300D01*
X408877Y-494744D01*
X408210Y-493633D01*
X404210Y-490300D01*
X403544Y-489189D01*
X403544Y-488078D01*
X404210Y-486967D01*
X405544Y-486411D01*
X406877Y-486411D01*
X408210Y-486967D01*
X408877Y-488078D01*
G54D13*
X401100Y-486411D02*
X399767Y-486967D01*
X399100Y-488078D01*
X399100Y-493633D01*
X399767Y-494744D01*
X401100Y-495300D01*
G54D13*
X556642Y-502286D02*
X561975Y-502286D01*
X561975Y-506175D01*
X561308Y-506175D01*
X559975Y-505620D01*
X558642Y-505620D01*
X557308Y-506175D01*
X556642Y-507286D01*
X556642Y-509508D01*
X557308Y-510620D01*
X558642Y-511175D01*
X559975Y-511175D01*
X561308Y-510620D01*
X561975Y-509508D01*
G54D13*
X554198Y-502286D02*
X550865Y-511175D01*
X547531Y-502286D01*
G54D13*
X538510Y-509842D02*
X538510Y-507620D01*
X539177Y-506508D01*
X540510Y-506175D01*
X541843Y-506508D01*
X542510Y-507620D01*
X542510Y-509842D01*
X541843Y-510953D01*
X540510Y-511175D01*
X539177Y-510953D01*
X538510Y-509842D01*
G54D13*
X532066Y-506175D02*
X532066Y-511175D01*
G54D13*
X532066Y-510064D02*
X532733Y-510953D01*
X534066Y-511175D01*
X535399Y-510953D01*
X536066Y-510064D01*
X536066Y-506175D01*
G54D13*
X528289Y-502286D02*
X528289Y-510620D01*
X527622Y-511175D01*
X526955Y-510953D01*
G54D13*
X529622Y-506175D02*
X526955Y-506175D01*
G54D13*
X524511Y-506175D02*
X524511Y-513397D01*
G54D13*
X524511Y-509508D02*
X523844Y-510953D01*
X522511Y-511175D01*
X521178Y-510953D01*
X520511Y-509842D01*
X520511Y-507620D01*
X521178Y-506508D01*
X522511Y-506175D01*
X523844Y-506508D01*
X524511Y-507842D01*
G54D13*
X514067Y-506175D02*
X514067Y-511175D01*
G54D13*
X514067Y-510064D02*
X514734Y-510953D01*
X516067Y-511175D01*
X517400Y-510953D01*
X518067Y-510064D01*
X518067Y-506175D01*
G54D13*
X510290Y-502286D02*
X510290Y-510620D01*
X509623Y-511175D01*
X508956Y-510953D01*
G54D13*
X511623Y-506175D02*
X508956Y-506175D01*
G54D13*
X503935Y-511175D02*
X503935Y-511175D01*
G54D13*
X503935Y-506175D02*
X503935Y-506175D01*
G54D13*
X498914Y-511175D02*
X498914Y-506175D01*
G54D13*
X498914Y-507064D02*
X497581Y-506175D01*
X496247Y-506508D01*
X495581Y-507286D01*
X495581Y-511175D01*
G54D13*
X495581Y-507064D02*
X494247Y-506175D01*
X492914Y-506508D01*
X492247Y-507286D01*
X492247Y-511175D01*
G54D13*
X489803Y-506730D02*
X488470Y-506175D01*
X486870Y-506175D01*
X485803Y-507286D01*
X485803Y-511175D01*
G54D13*
X485803Y-509508D02*
X486470Y-508397D01*
X487803Y-508175D01*
X489136Y-508397D01*
X489803Y-509508D01*
X489536Y-510620D01*
X488470Y-511175D01*
X487803Y-511175D01*
X487536Y-511175D01*
X486470Y-510620D01*
X485803Y-509508D01*
G54D13*
X483359Y-506175D02*
X478026Y-511175D01*
G54D13*
X483359Y-511175D02*
X478026Y-506175D01*
G54D13*
X473005Y-505620D02*
X469672Y-502286D01*
X469672Y-511175D01*
G54D13*
X461895Y-502286D02*
X467228Y-502286D01*
X467228Y-506175D01*
X466561Y-506175D01*
X465228Y-505620D01*
X463895Y-505620D01*
X462561Y-506175D01*
X461895Y-507286D01*
X461895Y-509508D01*
X462561Y-510620D01*
X463895Y-511175D01*
X465228Y-511175D01*
X466561Y-510620D01*
X467228Y-509508D01*
G54D13*
X454118Y-503953D02*
X454118Y-509508D01*
X454784Y-510620D01*
X456118Y-511175D01*
X457451Y-511175D01*
X458784Y-510620D01*
X459451Y-509508D01*
X459451Y-503953D01*
X458784Y-502842D01*
X457451Y-502286D01*
X456118Y-502286D01*
X454784Y-502842D01*
X454118Y-503953D01*
G54D13*
X446341Y-503953D02*
X446341Y-509508D01*
X447007Y-510620D01*
X448341Y-511175D01*
X449674Y-511175D01*
X451007Y-510620D01*
X451674Y-509508D01*
X451674Y-503953D01*
X451007Y-502842D01*
X449674Y-502286D01*
X448341Y-502286D01*
X447007Y-502842D01*
X446341Y-503953D01*
G54D13*
X443897Y-511175D02*
X443897Y-506175D01*
G54D13*
X443897Y-507064D02*
X442564Y-506175D01*
X441230Y-506508D01*
X440564Y-507286D01*
X440564Y-511175D01*
G54D13*
X440564Y-507064D02*
X439230Y-506175D01*
X437897Y-506508D01*
X437230Y-507286D01*
X437230Y-511175D01*
G54D13*
X434786Y-511175D02*
X431453Y-502286D01*
X428119Y-511175D01*
G54D13*
X433453Y-507842D02*
X429453Y-507842D01*
G54D13*
X421098Y-502286D02*
X422431Y-502842D01*
X423098Y-503953D01*
X423098Y-509508D01*
X422431Y-510620D01*
X421098Y-511175D01*
G54D13*
X418654Y-510620D02*
X417321Y-511175D01*
X415987Y-511175D01*
X414654Y-510620D01*
X414654Y-509508D01*
X415321Y-508953D01*
X417987Y-508397D01*
X418654Y-507842D01*
X418654Y-506730D01*
X417321Y-506175D01*
X415987Y-506175D01*
X414654Y-506730D01*
G54D13*
X412210Y-511175D02*
X412210Y-502286D01*
G54D13*
X412210Y-507620D02*
X411543Y-506508D01*
X410210Y-506175D01*
X408877Y-506508D01*
X408210Y-507620D01*
X408210Y-511175D01*
G54D13*
X405766Y-506730D02*
X404433Y-506175D01*
X402833Y-506175D01*
X401766Y-507286D01*
X401766Y-511175D01*
G54D13*
X401766Y-509508D02*
X402433Y-508397D01*
X403766Y-508175D01*
X405099Y-508397D01*
X405766Y-509508D01*
X405499Y-510620D01*
X404433Y-511175D01*
X403766Y-511175D01*
X403499Y-511175D01*
X402433Y-510620D01*
X401766Y-509508D01*
G54D13*
X399322Y-511175D02*
X399322Y-506175D01*
G54D13*
X399322Y-507286D02*
X397989Y-506175D01*
X396655Y-506175D01*
G54D13*
X390211Y-510620D02*
X391278Y-511175D01*
X392611Y-511175D01*
X393944Y-510620D01*
X394211Y-509508D01*
X394211Y-507620D01*
X393544Y-506508D01*
X392211Y-506175D01*
X390878Y-506508D01*
X390211Y-507286D01*
X390211Y-508397D01*
X394211Y-508397D01*
G54D13*
X383767Y-511175D02*
X383767Y-502286D01*
G54D13*
X383767Y-507620D02*
X384434Y-506508D01*
X385767Y-506175D01*
X387100Y-506508D01*
X387767Y-507620D01*
X387767Y-509842D01*
X387100Y-510953D01*
X385767Y-511175D01*
X384434Y-510953D01*
X383767Y-509842D01*
G54D13*
X378746Y-506175D02*
X376746Y-511175D01*
X374746Y-506175D01*
X372746Y-511175D01*
X371413Y-506175D01*
G54D13*
X368969Y-511175D02*
X368969Y-506175D01*
G54D13*
X368969Y-504508D02*
X368969Y-504508D01*
G54D13*
X365192Y-502286D02*
X365192Y-510620D01*
X364525Y-511175D01*
X363858Y-510953D01*
G54D13*
X366525Y-506175D02*
X363858Y-506175D01*
G54D13*
X361414Y-511175D02*
X361414Y-502286D01*
G54D13*
X361414Y-507620D02*
X360747Y-506508D01*
X359414Y-506175D01*
X358081Y-506508D01*
X357414Y-507620D01*
X357414Y-511175D01*
G54D13*
X352393Y-510620D02*
X351060Y-511175D01*
X349726Y-511175D01*
X348393Y-510620D01*
X348393Y-509508D01*
X349060Y-508953D01*
X351726Y-508397D01*
X352393Y-507842D01*
X352393Y-506730D01*
X351060Y-506175D01*
X349726Y-506175D01*
X348393Y-506730D01*
G54D13*
X341949Y-510620D02*
X343016Y-511175D01*
X344349Y-511175D01*
X345682Y-510620D01*
X345949Y-509508D01*
X345949Y-507620D01*
X345282Y-506508D01*
X343949Y-506175D01*
X342616Y-506508D01*
X341949Y-507286D01*
X341949Y-508397D01*
X345949Y-508397D01*
G54D13*
X339505Y-511175D02*
X339505Y-506175D01*
G54D13*
X339505Y-507286D02*
X338172Y-506175D01*
X336838Y-506175D01*
G54D13*
X334394Y-511175D02*
X334394Y-506175D01*
G54D13*
X334394Y-504508D02*
X334394Y-504508D01*
G54D13*
X331950Y-506730D02*
X330617Y-506175D01*
X329017Y-506175D01*
X327950Y-507286D01*
X327950Y-511175D01*
G54D13*
X327950Y-509508D02*
X328617Y-508397D01*
X329950Y-508175D01*
X331283Y-508397D01*
X331950Y-509508D01*
X331683Y-510620D01*
X330617Y-511175D01*
X329950Y-511175D01*
X329683Y-511175D01*
X328617Y-510620D01*
X327950Y-509508D01*
G54D13*
X325506Y-511175D02*
X325506Y-502286D01*
G54D13*
X316485Y-509842D02*
X316485Y-507620D01*
X317152Y-506508D01*
X318485Y-506175D01*
X319818Y-506508D01*
X320485Y-507620D01*
X320485Y-509842D01*
X319818Y-510953D01*
X318485Y-511175D01*
X317152Y-510953D01*
X316485Y-509842D01*
G54D13*
X310041Y-506175D02*
X310041Y-511175D01*
G54D13*
X310041Y-510064D02*
X310708Y-510953D01*
X312041Y-511175D01*
X313374Y-510953D01*
X314041Y-510064D01*
X314041Y-506175D01*
G54D13*
X306264Y-502286D02*
X306264Y-510620D01*
X305597Y-511175D01*
X304930Y-510953D01*
G54D13*
X307597Y-506175D02*
X304930Y-506175D01*
G54D13*
X302486Y-506175D02*
X302486Y-513397D01*
G54D13*
X302486Y-509508D02*
X301819Y-510953D01*
X300486Y-511175D01*
X299153Y-510953D01*
X298486Y-509842D01*
X298486Y-507620D01*
X299153Y-506508D01*
X300486Y-506175D01*
X301819Y-506508D01*
X302486Y-507842D01*
G54D13*
X292042Y-506175D02*
X292042Y-511175D01*
G54D13*
X292042Y-510064D02*
X292709Y-510953D01*
X294042Y-511175D01*
X295375Y-510953D01*
X296042Y-510064D01*
X296042Y-506175D01*
G54D13*
X288265Y-502286D02*
X288265Y-510620D01*
X287598Y-511175D01*
X286931Y-510953D01*
G54D13*
X289598Y-506175D02*
X286931Y-506175D01*
G54D13*
X284487Y-502286D02*
X283154Y-502842D01*
X282487Y-503953D01*
X282487Y-509508D01*
X283154Y-510620D01*
X284487Y-511175D01*
G54D13*
X561975Y-527050D02*
X561975Y-518161D01*
X556642Y-527050D01*
X556642Y-518161D01*
G54D13*
X550198Y-526494D02*
X551265Y-527050D01*
X552598Y-527050D01*
X553931Y-526494D01*
X554198Y-525383D01*
X554198Y-523494D01*
X553531Y-522383D01*
X552198Y-522050D01*
X550865Y-522383D01*
X550198Y-523161D01*
X550198Y-524272D01*
X554198Y-524272D01*
G54D13*
X543754Y-525717D02*
X543754Y-523494D01*
X544421Y-522383D01*
X545754Y-522050D01*
X547087Y-522383D01*
X547754Y-523494D01*
X547754Y-525717D01*
X547087Y-526828D01*
X545754Y-527050D01*
X544421Y-526828D01*
X543754Y-525717D01*
G54D13*
X541310Y-522050D02*
X541310Y-529272D01*
G54D13*
X541310Y-525383D02*
X540643Y-526828D01*
X539310Y-527050D01*
X537977Y-526828D01*
X537310Y-525717D01*
X537310Y-523494D01*
X537977Y-522383D01*
X539310Y-522050D01*
X540643Y-522383D01*
X541310Y-523717D01*
G54D13*
X534866Y-527050D02*
X534866Y-522050D01*
G54D13*
X534866Y-520383D02*
X534866Y-520383D01*
G54D13*
X532422Y-522050D02*
X527089Y-527050D01*
G54D13*
X532422Y-527050D02*
X527089Y-522050D01*
G54D13*
X520645Y-526494D02*
X521712Y-527050D01*
X523045Y-527050D01*
X524378Y-526494D01*
X524645Y-525383D01*
X524645Y-523494D01*
X523978Y-522383D01*
X522645Y-522050D01*
X521312Y-522383D01*
X520645Y-523161D01*
X520645Y-524272D01*
X524645Y-524272D01*
G54D13*
X518201Y-527050D02*
X518201Y-518161D01*
G54D13*
X513180Y-522050D02*
X513180Y-529272D01*
G54D13*
X513180Y-525383D02*
X512513Y-526828D01*
X511180Y-527050D01*
X509847Y-526828D01*
X509180Y-525717D01*
X509180Y-523494D01*
X509847Y-522383D01*
X511180Y-522050D01*
X512513Y-522383D01*
X513180Y-523717D01*
G54D13*
X502736Y-525717D02*
X502736Y-523494D01*
X503403Y-522383D01*
X504736Y-522050D01*
X506069Y-522383D01*
X506736Y-523494D01*
X506736Y-525717D01*
X506069Y-526828D01*
X504736Y-527050D01*
X503403Y-526828D01*
X502736Y-525717D01*
G54D13*
X500292Y-522050D02*
X498292Y-527050D01*
X496292Y-522050D01*
X494292Y-527050D01*
X492959Y-522050D01*
G54D13*
X486515Y-526494D02*
X487582Y-527050D01*
X488915Y-527050D01*
X490248Y-526494D01*
X490515Y-525383D01*
X490515Y-523494D01*
X489848Y-522383D01*
X488515Y-522050D01*
X487182Y-522383D01*
X486515Y-523161D01*
X486515Y-524272D01*
X490515Y-524272D01*
G54D13*
X484071Y-527050D02*
X484071Y-522050D01*
G54D13*
X484071Y-523161D02*
X482738Y-522050D01*
X481404Y-522050D01*
G54D13*
X472383Y-525717D02*
X472383Y-523494D01*
X473050Y-522383D01*
X474383Y-522050D01*
X475716Y-522383D01*
X476383Y-523494D01*
X476383Y-525717D01*
X475716Y-526828D01*
X474383Y-527050D01*
X473050Y-526828D01*
X472383Y-525717D01*
G54D13*
X465939Y-522050D02*
X465939Y-527050D01*
G54D13*
X465939Y-525939D02*
X466606Y-526828D01*
X467939Y-527050D01*
X469272Y-526828D01*
X469939Y-525939D01*
X469939Y-522050D01*
G54D13*
X462162Y-518161D02*
X462162Y-526494D01*
X461495Y-527050D01*
X460828Y-526828D01*
G54D13*
X463495Y-522050D02*
X460828Y-522050D01*
G54D13*
X458384Y-522050D02*
X458384Y-529272D01*
G54D13*
X458384Y-525383D02*
X457717Y-526828D01*
X456384Y-527050D01*
X455051Y-526828D01*
X454384Y-525717D01*
X454384Y-523494D01*
X455051Y-522383D01*
X456384Y-522050D01*
X457717Y-522383D01*
X458384Y-523717D01*
G54D13*
X447940Y-522050D02*
X447940Y-527050D01*
G54D13*
X447940Y-525939D02*
X448607Y-526828D01*
X449940Y-527050D01*
X451273Y-526828D01*
X451940Y-525939D01*
X451940Y-522050D01*
G54D13*
X444163Y-518161D02*
X444163Y-526494D01*
X443496Y-527050D01*
X442829Y-526828D01*
G54D13*
X445496Y-522050D02*
X442829Y-522050D01*
G54D13*
X437808Y-527050D02*
X437808Y-527050D01*
G54D13*
X437808Y-522050D02*
X437808Y-522050D01*
G54D13*
X427454Y-518161D02*
X432787Y-518161D01*
X432787Y-522050D01*
X432120Y-522050D01*
X430787Y-521494D01*
X429454Y-521494D01*
X428120Y-522050D01*
X427454Y-523161D01*
X427454Y-525383D01*
X428120Y-526494D01*
X429454Y-527050D01*
X430787Y-527050D01*
X432120Y-526494D01*
X432787Y-525383D01*
G54D13*
X425010Y-518161D02*
X421677Y-527050D01*
X418343Y-518161D01*
G54D13*
X413322Y-527050D02*
X413322Y-522050D01*
G54D13*
X413322Y-522939D02*
X411989Y-522050D01*
X410655Y-522383D01*
X409989Y-523161D01*
X409989Y-527050D01*
G54D13*
X409989Y-522939D02*
X408655Y-522050D01*
X407322Y-522383D01*
X406655Y-523161D01*
X406655Y-527050D01*
G54D13*
X404211Y-522606D02*
X402878Y-522050D01*
X401278Y-522050D01*
X400211Y-523161D01*
X400211Y-527050D01*
G54D13*
X400211Y-525383D02*
X400878Y-524272D01*
X402211Y-524050D01*
X403544Y-524272D01*
X404211Y-525383D01*
X403944Y-526494D01*
X402878Y-527050D01*
X402211Y-527050D01*
X401944Y-527050D01*
X400878Y-526494D01*
X400211Y-525383D01*
G54D13*
X397767Y-522050D02*
X392434Y-527050D01*
G54D13*
X397767Y-527050D02*
X392434Y-522050D01*
G54D13*
X387413Y-521494D02*
X384080Y-518161D01*
X384080Y-527050D01*
G54D13*
X376303Y-518161D02*
X381636Y-518161D01*
X381636Y-522050D01*
X380969Y-522050D01*
X379636Y-521494D01*
X378303Y-521494D01*
X376969Y-522050D01*
X376303Y-523161D01*
X376303Y-525383D01*
X376969Y-526494D01*
X378303Y-527050D01*
X379636Y-527050D01*
X380969Y-526494D01*
X381636Y-525383D01*
G54D13*
X368526Y-519828D02*
X368526Y-525383D01*
X369192Y-526494D01*
X370526Y-527050D01*
X371859Y-527050D01*
X373192Y-526494D01*
X373859Y-525383D01*
X373859Y-519828D01*
X373192Y-518717D01*
X371859Y-518161D01*
X370526Y-518161D01*
X369192Y-518717D01*
X368526Y-519828D01*
G54D13*
X360749Y-519828D02*
X360749Y-525383D01*
X361415Y-526494D01*
X362749Y-527050D01*
X364082Y-527050D01*
X365415Y-526494D01*
X366082Y-525383D01*
X366082Y-519828D01*
X365415Y-518717D01*
X364082Y-518161D01*
X362749Y-518161D01*
X361415Y-518717D01*
X360749Y-519828D01*
G54D13*
X358305Y-527050D02*
X358305Y-522050D01*
G54D13*
X358305Y-522939D02*
X356972Y-522050D01*
X355638Y-522383D01*
X354972Y-523161D01*
X354972Y-527050D01*
G54D13*
X354972Y-522939D02*
X353638Y-522050D01*
X352305Y-522383D01*
X351638Y-523161D01*
X351638Y-527050D01*
G54D13*
X349194Y-527050D02*
X345861Y-518161D01*
X342527Y-527050D01*
G54D13*
X347861Y-523717D02*
X343861Y-523717D01*
X227919Y-601334D02*
G54D10*
D03*
X224744Y-604509D02*
G54D10*
D03*
X221569Y-607684D02*
G54D10*
D03*
X218394Y-610859D02*
G54D10*
D03*
X227919Y-594984D02*
G54D10*
D03*
X224744Y-591809D02*
G54D10*
D03*
X221569Y-588634D02*
G54D10*
D03*
X218394Y-585459D02*
G54D10*
D03*
X215219Y-582284D02*
G54D10*
D03*
X215219Y-614034D02*
G54D10*
D03*
X212044Y-617209D02*
G54D10*
D03*
X208869Y-620384D02*
G54D10*
D03*
X205694Y-623559D02*
G54D10*
D03*
X199344Y-623559D02*
G54D10*
D03*
X196169Y-620384D02*
G54D10*
D03*
X192994Y-617209D02*
G54D10*
D03*
X189819Y-614034D02*
G54D10*
D03*
X186644Y-610859D02*
G54D10*
D03*
X183469Y-607684D02*
G54D10*
D03*
X180294Y-604509D02*
G54D10*
D03*
X177119Y-601334D02*
G54D10*
D03*
X173944Y-598159D02*
G54D10*
D03*
X212044Y-579109D02*
G54D10*
D03*
X208869Y-575934D02*
G54D10*
D03*
X205694Y-572759D02*
G54D10*
D03*
X202519Y-569584D02*
G54D10*
D03*
X186644Y-572759D02*
G54D10*
D03*
X177119Y-582284D02*
G54D10*
D03*
X173944Y-579109D02*
G54D10*
D03*
X183469Y-569584D02*
G54D10*
D03*
X183469Y-563234D02*
G54D10*
D03*
X180294Y-560059D02*
G54D10*
D03*
X177119Y-563234D02*
G54D10*
D03*
X173944Y-566409D02*
G54D10*
D03*
X170769Y-569584D02*
G54D10*
D03*
X167594Y-572759D02*
G54D10*
D03*
X164419Y-575934D02*
G54D10*
D03*
X167594Y-579109D02*
G54D10*
D03*
X218394Y-591809D02*
G54D10*
D03*
X215219Y-591809D02*
G54D10*
D03*
X212044Y-588634D02*
G54D10*
D03*
X208869Y-591809D02*
G54D10*
D03*
X205694Y-591809D02*
G54D10*
D03*
X202519Y-591809D02*
G54D10*
D03*
X199344Y-594984D02*
G54D10*
D03*
X196169Y-594984D02*
G54D10*
D03*
X192994Y-591809D02*
G54D10*
D03*
X189819Y-591809D02*
G54D10*
D03*
X186644Y-591809D02*
G54D10*
D03*
X183469Y-591809D02*
G54D10*
D03*
X180294Y-591809D02*
G54D10*
D03*
X177119Y-594984D02*
G54D10*
D03*
X161244Y-566409D02*
G54D10*
D03*
X161244Y-569584D02*
G54D10*
D03*
X161244Y-572759D02*
G54D10*
D03*
X158069Y-572759D02*
G54D10*
D03*
X158069Y-566409D02*
G54D10*
D03*
X154894Y-566409D02*
G54D10*
D03*
X154894Y-563234D02*
G54D10*
D03*
X154894Y-560059D02*
G54D10*
D03*
X151719Y-560059D02*
G54D10*
D03*
X148544Y-560059D02*
G54D10*
D03*
X148544Y-563234D02*
G54D10*
D03*
X148544Y-566409D02*
G54D10*
D03*
X145369Y-566409D02*
G54D10*
D03*
X142194Y-566409D02*
G54D10*
D03*
X142194Y-569584D02*
G54D10*
D03*
X142194Y-572759D02*
G54D10*
D03*
X145369Y-572759D02*
G54D10*
D03*
X148544Y-572759D02*
G54D10*
D03*
X154894Y-572759D02*
G54D10*
D03*
X154894Y-575934D02*
G54D10*
D03*
X154894Y-579109D02*
G54D10*
D03*
X151719Y-579109D02*
G54D10*
D03*
X148544Y-579109D02*
G54D10*
D03*
X148544Y-575934D02*
G54D10*
D03*
X199344Y-566409D02*
G54D10*
D03*
X192994Y-566409D02*
G54D10*
D03*
X189819Y-569584D02*
G54D10*
D03*
X173944Y-585459D02*
G54D10*
D03*
X170769Y-588634D02*
G54D10*
D03*
X170769Y-594984D02*
G54D10*
D03*
X173944Y-604509D02*
G54D10*
D03*
X170769Y-604509D02*
G54D10*
D03*
X167594Y-604509D02*
G54D10*
D03*
X164419Y-604509D02*
G54D10*
D03*
X161244Y-604509D02*
G54D10*
D03*
X167594Y-607684D02*
G54D10*
D03*
X167594Y-610859D02*
G54D10*
D03*
X167594Y-614034D02*
G54D10*
D03*
X167594Y-617209D02*
G54D10*
D03*
X167594Y-620384D02*
G54D10*
D03*
X170769Y-623559D02*
G54D10*
D03*
X173944Y-623559D02*
G54D10*
D03*
X177119Y-620384D02*
G54D10*
D03*
X158069Y-623559D02*
G54D10*
D03*
X154894Y-620384D02*
G54D10*
D03*
X154894Y-617209D02*
G54D10*
D03*
X154894Y-614034D02*
G54D10*
D03*
X154894Y-610859D02*
G54D10*
D03*
X151719Y-623559D02*
G54D10*
D03*
X148544Y-623559D02*
G54D10*
D03*
X145369Y-623559D02*
G54D10*
D03*
X145369Y-620384D02*
G54D10*
D03*
X145369Y-617209D02*
G54D10*
D03*
X145369Y-614034D02*
G54D10*
D03*
X145369Y-610859D02*
G54D10*
D03*
X139019Y-607684D02*
G54D10*
D03*
X139019Y-614034D02*
G54D10*
D03*
X139019Y-617209D02*
G54D10*
D03*
X139019Y-620384D02*
G54D10*
D03*
X139019Y-623559D02*
G54D10*
D03*
X132669Y-620384D02*
G54D10*
D03*
X132669Y-617209D02*
G54D10*
D03*
X132669Y-614034D02*
G54D10*
D03*
X129494Y-610859D02*
G54D10*
D03*
X126319Y-610859D02*
G54D10*
D03*
X129494Y-623559D02*
G54D10*
D03*
X126319Y-623559D02*
G54D10*
D03*
X123144Y-623559D02*
G54D10*
D03*
X123144Y-610859D02*
G54D10*
D03*
X116794Y-620384D02*
G54D10*
D03*
X116794Y-617209D02*
G54D10*
D03*
X116794Y-614034D02*
G54D10*
D03*
X113619Y-610859D02*
G54D10*
D03*
X110444Y-610859D02*
G54D10*
D03*
X107269Y-610859D02*
G54D10*
D03*
X113619Y-623559D02*
G54D10*
D03*
X110444Y-623559D02*
G54D10*
D03*
X107269Y-623559D02*
G54D10*
D03*
X104094Y-614034D02*
G54D10*
D03*
X104094Y-617209D02*
G54D10*
D03*
X107269Y-617209D02*
G54D10*
D03*
X110444Y-617209D02*
G54D10*
D03*
X113619Y-617209D02*
G54D10*
D03*
X205694Y-604509D02*
G54D10*
D03*
X202519Y-607684D02*
G54D10*
D03*
X199344Y-604509D02*
G54D10*
D03*
X202519Y-601334D02*
G54D10*
D03*
X192994Y-607684D02*
G54D10*
D03*
X215219Y-598159D02*
G54D10*
D03*
X186644Y-598159D02*
G54D10*
D03*
X202519Y-617209D02*
G54D10*
D03*
X218394Y-601334D02*
G54D10*
D03*
X158069Y-585459D02*
G54D10*
D03*
X154894Y-585459D02*
G54D10*
D03*
X151719Y-585459D02*
G54D10*
D03*
X148544Y-585459D02*
G54D10*
D03*
X145369Y-585459D02*
G54D10*
D03*
X145369Y-588634D02*
G54D10*
D03*
X145369Y-591809D02*
G54D10*
D03*
X148544Y-594984D02*
G54D10*
D03*
X151719Y-598159D02*
G54D10*
D03*
X154894Y-601334D02*
G54D10*
D03*
X142194Y-579109D02*
G54D10*
D03*
X142194Y-582284D02*
G54D10*
D03*
X139019Y-582284D02*
G54D10*
D03*
X139019Y-579109D02*
G54D10*
D03*
X135844Y-585459D02*
G54D10*
D03*
X132669Y-585459D02*
G54D10*
D03*
X129494Y-585459D02*
G54D10*
D03*
X126319Y-585459D02*
G54D10*
D03*
X123144Y-585459D02*
G54D10*
D03*
X135844Y-591809D02*
G54D10*
D03*
X132669Y-591809D02*
G54D10*
D03*
X129494Y-591809D02*
G54D10*
D03*
X126319Y-591809D02*
G54D10*
D03*
X123144Y-591809D02*
G54D10*
D03*
X123144Y-594984D02*
G54D10*
D03*
X126319Y-598159D02*
G54D10*
D03*
X129494Y-601334D02*
G54D10*
D03*
X135844Y-601334D02*
G54D10*
D03*
X132669Y-601334D02*
G54D10*
D03*
X116794Y-585459D02*
G54D10*
D03*
X113619Y-585459D02*
G54D10*
D03*
X110444Y-585459D02*
G54D10*
D03*
X107269Y-585459D02*
G54D10*
D03*
X104094Y-585459D02*
G54D10*
D03*
X104094Y-588634D02*
G54D10*
D03*
X107269Y-591809D02*
G54D10*
D03*
X110444Y-594984D02*
G54D10*
D03*
X113619Y-598159D02*
G54D10*
D03*
X116794Y-601334D02*
G54D10*
D03*
X107269Y-598159D02*
G54D10*
D03*
X104094Y-601334D02*
G54D10*
D03*
X196169Y-572759D02*
G54D10*
D03*
X199344Y-575934D02*
G54D10*
D03*
X288244Y-553709D02*
G54D11*
D03*
X283481Y-553709D02*
G54D11*
D03*
X278719Y-553709D02*
G54D11*
D03*
X273956Y-553709D02*
G54D11*
D03*
X269194Y-553709D02*
G54D11*
D03*
X264431Y-553709D02*
G54D11*
D03*
X259669Y-553709D02*
G54D11*
D03*
X254906Y-553709D02*
G54D11*
D03*
X302531Y-567996D02*
G54D11*
D03*
X302531Y-572759D02*
G54D11*
D03*
X302531Y-577521D02*
G54D11*
D03*
X302531Y-582284D02*
G54D11*
D03*
X302531Y-587046D02*
G54D11*
D03*
X302531Y-591809D02*
G54D11*
D03*
X302531Y-596571D02*
G54D11*
D03*
X302531Y-601334D02*
G54D11*
D03*
X302531Y-606096D02*
G54D11*
D03*
X302531Y-610859D02*
G54D11*
D03*
X307294Y-615621D02*
G54D11*
D03*
X307294Y-620384D02*
G54D11*
D03*
X307294Y-625146D02*
G54D11*
D03*
X312056Y-625146D02*
G54D11*
D03*
X297769Y-620384D02*
G54D11*
D03*
X297769Y-625146D02*
G54D11*
D03*
X293006Y-625146D02*
G54D11*
D03*
X288244Y-620384D02*
G54D11*
D03*
X283481Y-620384D02*
G54D11*
D03*
X278719Y-620384D02*
G54D11*
D03*
X278719Y-625146D02*
G54D11*
D03*
X273956Y-625146D02*
G54D11*
D03*
X245381Y-577521D02*
G54D11*
D03*
X245381Y-572759D02*
G54D11*
D03*
X245381Y-567996D02*
G54D11*
D03*
X245381Y-563234D02*
G54D11*
D03*
X250144Y-558471D02*
G54D11*
D03*
X288244Y-567996D02*
G54D11*
D03*
X283481Y-563234D02*
G54D11*
D03*
X278719Y-563234D02*
G54D11*
D03*
X273956Y-563234D02*
G54D11*
D03*
X269194Y-563234D02*
G54D11*
D03*
X264431Y-567996D02*
G54D11*
D03*
X283481Y-572759D02*
G54D11*
D03*
X278719Y-572759D02*
G54D11*
D03*
X273956Y-572759D02*
G54D11*
D03*
X269194Y-572759D02*
G54D11*
D03*
X278719Y-567996D02*
G54D11*
D03*
X273956Y-567996D02*
G54D11*
D03*
X302531Y-620384D02*
G54D11*
D03*
X250144Y-582284D02*
G54D11*
D03*
X254906Y-582284D02*
G54D11*
D03*
X264431Y-587046D02*
G54D11*
D03*
X259669Y-587046D02*
G54D11*
D03*
X269194Y-587046D02*
G54D11*
D03*
X269194Y-591809D02*
G54D11*
D03*
X269194Y-596571D02*
G54D11*
D03*
X269194Y-601334D02*
G54D11*
D03*
X269194Y-606096D02*
G54D11*
D03*
X269194Y-610859D02*
G54D11*
D03*
X269194Y-615621D02*
G54D11*
D03*
X269194Y-620384D02*
G54D11*
D03*
X293006Y-553709D02*
G54D11*
D03*
X297769Y-558471D02*
G54D11*
D03*
X302531Y-563234D02*
G54D11*
D03*
G54D12*
X540398Y-643748D02*
X529286Y-643748D01*
X526905Y-654066D01*
X519364Y-657241D01*
X510236Y-651288D01*
X502298Y-658432D01*
X508648Y-666370D01*
X505077Y-674307D01*
X493964Y-675894D01*
X493964Y-686610D01*
X503886Y-687801D01*
X507458Y-696135D01*
X502298Y-703676D01*
X509839Y-711216D01*
X518570Y-705660D01*
X522936Y-708438D01*
X530476Y-691770D01*
G54D12*
X539208Y-691770D02*
X546748Y-708041D01*
X551114Y-706057D01*
X559448Y-711613D01*
X567783Y-704073D01*
X561830Y-696135D01*
X565402Y-687801D01*
X575720Y-686610D01*
X575324Y-675894D01*
X564608Y-673910D01*
X561830Y-667560D01*
X567783Y-659226D01*
X559845Y-651685D01*
X550717Y-657241D01*
X541986Y-654066D01*
X540398Y-643748D01*
G54D12*
G75*
G01X538951Y-691085D02*
G03X530746Y-691085I-4103J9665D01*
G01*
G36*
X575324Y-675894D02*
X564608Y-673910D01*
X561830Y-667560D01*
X567783Y-659226D01*
X559845Y-651685D01*
X550717Y-657241D01*
X541986Y-654066D01*
X540398Y-643748D01*
X529286Y-643748D01*
X526905Y-654066D01*
X519364Y-657241D01*
X510236Y-651288D01*
X502298Y-658432D01*
X508648Y-666370D01*
X505077Y-674307D01*
X493964Y-675894D01*
X493964Y-686610D01*
X503886Y-687801D01*
X507458Y-696135D01*
X502298Y-703676D01*
X509839Y-711216D01*
X518570Y-705660D01*
X522936Y-708438D01*
X530874Y-690976D01*
X529683Y-690579D01*
X528492Y-689785D01*
X526111Y-687404D01*
X524523Y-684229D01*
X524127Y-682244D01*
X524127Y-680657D01*
X524524Y-678276D01*
X525714Y-675498D01*
X528095Y-672720D01*
X530080Y-671529D01*
X532064Y-670735D01*
X534445Y-670338D01*
X536827Y-670735D01*
X540002Y-671529D01*
X542780Y-673910D01*
X545558Y-677879D01*
X545558Y-684229D01*
X544367Y-686610D01*
X542780Y-688991D01*
X540398Y-690976D01*
X538811Y-690976D01*
X546748Y-708041D01*
X551114Y-706057D01*
X559448Y-711613D01*
X567783Y-704073D01*
X561830Y-696135D01*
X575324Y-675894D01*
G37*
G54D12*
X575324Y-675894D02*
X564608Y-673910D01*
X561830Y-667560D01*
X567783Y-659226D01*
X559845Y-651685D01*
X550717Y-657241D01*
X541986Y-654066D01*
X540398Y-643748D01*
X529286Y-643748D01*
X526905Y-654066D01*
X519364Y-657241D01*
X510236Y-651288D01*
X502298Y-658432D01*
X508648Y-666370D01*
X505077Y-674307D01*
X493964Y-675894D01*
X493964Y-686610D01*
X503886Y-687801D01*
X507458Y-696135D01*
X502298Y-703676D01*
X509839Y-711216D01*
X518570Y-705660D01*
X522936Y-708438D01*
X530874Y-690976D01*
X529683Y-690579D01*
X528492Y-689785D01*
X526111Y-687404D01*
X524523Y-684229D01*
X524127Y-682244D01*
X524127Y-680657D01*
X524524Y-678276D01*
X525714Y-675498D01*
X528095Y-672720D01*
X530080Y-671529D01*
X532064Y-670735D01*
X534445Y-670338D01*
X536827Y-670735D01*
X540002Y-671529D01*
X542780Y-673910D01*
X545558Y-677879D01*
X545558Y-684229D01*
X544367Y-686610D01*
X542780Y-688991D01*
X540398Y-690976D01*
X538811Y-690976D01*
X546748Y-708041D01*
X551114Y-706057D01*
X559448Y-711613D01*
X567783Y-704073D01*
X561830Y-696135D01*
X575324Y-675894D01*
G36*
X575324Y-675894D02*
X575720Y-686610D01*
X565402Y-687801D01*
X575324Y-675894D01*
G37*
G54D12*
X575324Y-675894D02*
X575720Y-686610D01*
X565402Y-687801D01*
X575324Y-675894D01*
G54D13*
X330943Y-646883D02*
X330943Y-637994D01*
G54D13*
X330943Y-643328D02*
X330276Y-642216D01*
X328942Y-641883D01*
X327609Y-642216D01*
X326943Y-643328D01*
X326943Y-646883D01*
G54D13*
X323165Y-637994D02*
X323165Y-646328D01*
X322498Y-646883D01*
X321832Y-646661D01*
G54D13*
X324499Y-641883D02*
X321832Y-641883D01*
G54D13*
X318054Y-637994D02*
X318054Y-646328D01*
X317388Y-646883D01*
X316721Y-646661D01*
G54D13*
X319388Y-641883D02*
X316721Y-641883D01*
G54D13*
X314277Y-641883D02*
X314277Y-649105D01*
G54D13*
X314277Y-645216D02*
X313610Y-646661D01*
X312276Y-646883D01*
X310943Y-646661D01*
X310277Y-645550D01*
X310277Y-643328D01*
X310943Y-642216D01*
X312277Y-641883D01*
X313610Y-642216D01*
X314277Y-643550D01*
G54D13*
X307833Y-646328D02*
X306499Y-646883D01*
X305166Y-646883D01*
X303832Y-646328D01*
X303833Y-645216D01*
X304499Y-644661D01*
X307166Y-644105D01*
X307833Y-643550D01*
X307833Y-642439D01*
X306499Y-641883D01*
X305166Y-641883D01*
X303833Y-642439D01*
G54D13*
X301389Y-646883D02*
X301389Y-646883D01*
G54D13*
X301389Y-641883D02*
X301389Y-641883D01*
G54D13*
X298945Y-646883D02*
X293611Y-637994D01*
G54D13*
X291168Y-646883D02*
X285834Y-637994D01*
G54D13*
X283391Y-648550D02*
X282057Y-649105D01*
X281124Y-649105D01*
X279791Y-648550D01*
X279391Y-647439D01*
X279391Y-641883D01*
G54D13*
X279391Y-643328D02*
X280057Y-642216D01*
X281391Y-641883D01*
X282724Y-642216D01*
X283391Y-643328D01*
X283391Y-645550D01*
X282724Y-646661D01*
X281391Y-646883D01*
X280057Y-646661D01*
X279391Y-645550D01*
G54D13*
X276947Y-646883D02*
X276947Y-641883D01*
G54D13*
X276947Y-640216D02*
X276947Y-640216D01*
G54D13*
X273169Y-637994D02*
X273169Y-646328D01*
X272503Y-646883D01*
X271836Y-646661D01*
G54D13*
X274502Y-641883D02*
X271836Y-641883D01*
G54D13*
X269392Y-646883D02*
X269392Y-637994D01*
G54D13*
X269392Y-643328D02*
X268725Y-642216D01*
X267392Y-641883D01*
X266058Y-642216D01*
X265392Y-643328D01*
X265392Y-646883D01*
G54D13*
X258948Y-641883D02*
X258948Y-646883D01*
G54D13*
X258948Y-645772D02*
X259614Y-646661D01*
X260948Y-646883D01*
X262281Y-646661D01*
X262948Y-645772D01*
X262948Y-641883D01*
G54D13*
X256504Y-646883D02*
X256504Y-637994D01*
G54D13*
X256504Y-643328D02*
X255837Y-642216D01*
X254504Y-641883D01*
X253170Y-642216D01*
X252504Y-643328D01*
X252504Y-645550D01*
X253170Y-646661D01*
X254504Y-646883D01*
X255837Y-646661D01*
X256504Y-645550D01*
G54D13*
X250060Y-646883D02*
X250060Y-646883D01*
G54D13*
X244282Y-642216D02*
X245616Y-641883D01*
X246949Y-642216D01*
X247616Y-643328D01*
X247616Y-645550D01*
X246949Y-646661D01*
X245616Y-646883D01*
X244282Y-646661D01*
G54D13*
X237839Y-645550D02*
X237839Y-643328D01*
X238505Y-642216D01*
X239839Y-641883D01*
X241172Y-642216D01*
X241839Y-643328D01*
X241839Y-645550D01*
X241172Y-646661D01*
X239839Y-646883D01*
X238505Y-646661D01*
X237839Y-645550D01*
G54D13*
X235395Y-646883D02*
X235395Y-641883D01*
G54D13*
X235395Y-642772D02*
X234061Y-641883D01*
X232728Y-642216D01*
X232061Y-642994D01*
X232061Y-646883D01*
G54D13*
X232061Y-642772D02*
X230728Y-641883D01*
X229395Y-642216D01*
X228728Y-642994D01*
X228728Y-646883D01*
G54D13*
X226284Y-646883D02*
X220950Y-637994D01*
G54D13*
X213173Y-645216D02*
X213840Y-646328D01*
X215173Y-646883D01*
X216507Y-646883D01*
X217840Y-646328D01*
X218507Y-645216D01*
X218507Y-639661D01*
X217840Y-638550D01*
X216507Y-637994D01*
X215173Y-637994D01*
X213840Y-638550D01*
X213173Y-639661D01*
G54D13*
X210730Y-646883D02*
X210730Y-637994D01*
G54D13*
X210730Y-643328D02*
X210063Y-642216D01*
X208730Y-641883D01*
X207396Y-642216D01*
X206730Y-643328D01*
X206730Y-646883D01*
G54D13*
X204286Y-646883D02*
X204286Y-641883D01*
G54D13*
X204286Y-640216D02*
X204286Y-640216D01*
G54D13*
X201842Y-641883D02*
X201841Y-649105D01*
G54D13*
X201842Y-645216D02*
X201175Y-646661D01*
X199842Y-646883D01*
X198508Y-646661D01*
X197842Y-645550D01*
X197842Y-643328D01*
X198508Y-642216D01*
X199842Y-641883D01*
X201175Y-642216D01*
X201841Y-643550D01*
G54D13*
X192731Y-646883D02*
X192731Y-637994D01*
G54D13*
X195398Y-637994D02*
X190064Y-637994D01*
G54D13*
X183621Y-646328D02*
X184687Y-646883D01*
X186021Y-646883D01*
X187354Y-646328D01*
X187620Y-645216D01*
X187621Y-643328D01*
X186954Y-642216D01*
X185621Y-641883D01*
X184287Y-642216D01*
X183621Y-642994D01*
X183621Y-644105D01*
X187621Y-644105D01*
G54D13*
X177843Y-642216D02*
X179177Y-641883D01*
X180510Y-642216D01*
X181177Y-643328D01*
X181176Y-645550D01*
X180510Y-646661D01*
X179177Y-646883D01*
X177843Y-646661D01*
G54D13*
X175400Y-646883D02*
X175400Y-637994D01*
G54D13*
X175400Y-643328D02*
X174733Y-642216D01*
X173400Y-641883D01*
X172066Y-642216D01*
X171400Y-643328D01*
X171400Y-646883D01*
G54D13*
X168956Y-646883D02*
X168956Y-641883D01*
G54D13*
X168956Y-642994D02*
X168289Y-642216D01*
X166956Y-641883D01*
X165622Y-642216D01*
X164956Y-642994D01*
X164956Y-646883D01*
G54D13*
X158512Y-645550D02*
X158512Y-643328D01*
X159178Y-642216D01*
X160512Y-641883D01*
X161845Y-642216D01*
X162512Y-643328D01*
X162512Y-645550D01*
X161845Y-646661D01*
X160512Y-646883D01*
X159178Y-646661D01*
X158512Y-645550D01*
G54D13*
X156068Y-646883D02*
X150734Y-637994D01*
G54D13*
X146957Y-640216D02*
X146957Y-640216D01*
G54D13*
X148291Y-649105D02*
X147624Y-649105D01*
X146957Y-648216D01*
X146957Y-641883D01*
G54D13*
X140514Y-641883D02*
X140514Y-646883D01*
G54D13*
X140514Y-645772D02*
X141180Y-646661D01*
X142514Y-646883D01*
X143847Y-646661D01*
X144514Y-645772D01*
X144514Y-641883D01*
G54D13*
X138070Y-646883D02*
X138070Y-641883D01*
G54D13*
X138070Y-640216D02*
X138070Y-640216D01*
G54D13*
X132292Y-642216D02*
X133626Y-641883D01*
X134959Y-642216D01*
X135626Y-643328D01*
X135626Y-645550D01*
X134959Y-646661D01*
X133626Y-646883D01*
X132292Y-646661D01*
G54D13*
X125849Y-646328D02*
X126915Y-646883D01*
X128249Y-646883D01*
X129582Y-646328D01*
X129848Y-645216D01*
X129849Y-643328D01*
X129182Y-642216D01*
X127849Y-641883D01*
X126515Y-642216D01*
X125849Y-642994D01*
X125849Y-644105D01*
X129848Y-644105D01*
G54D13*
X123405Y-642994D02*
X118071Y-642994D01*
G54D13*
X115628Y-641883D02*
X115628Y-649105D01*
G54D13*
X115628Y-645216D02*
X114961Y-646661D01*
X113628Y-646883D01*
X112294Y-646661D01*
X111628Y-645550D01*
X111628Y-643328D01*
X112294Y-642216D01*
X113628Y-641883D01*
X114961Y-642216D01*
X115628Y-643550D01*
G54D13*
X109184Y-646883D02*
X109184Y-637994D01*
G54D13*
X102740Y-641883D02*
X102740Y-646883D01*
G54D13*
X102740Y-645772D02*
X103406Y-646661D01*
X104740Y-646883D01*
X106073Y-646661D01*
X106740Y-645772D01*
X106740Y-641883D01*
G54D13*
X100296Y-646328D02*
X98962Y-646883D01*
X97629Y-646883D01*
X96296Y-646328D01*
X96296Y-645216D01*
X96962Y-644661D01*
X99629Y-644105D01*
X100296Y-643550D01*
X100296Y-642439D01*
X98962Y-641883D01*
X97629Y-641883D01*
X96296Y-642439D01*
G54D13*
X129775Y-570139D02*
X127775Y-571250D01*
X127108Y-572362D01*
X127108Y-574584D01*
G54D13*
X132442Y-574584D02*
X132442Y-565695D01*
X129108Y-565695D01*
X127775Y-566250D01*
X127108Y-567362D01*
X127108Y-568473D01*
X127775Y-569584D01*
X129108Y-570139D01*
X132442Y-570139D01*
G54D13*
X120665Y-574028D02*
X121731Y-574584D01*
X123065Y-574584D01*
X124398Y-574028D01*
X124665Y-572917D01*
X124665Y-571028D01*
X123998Y-569917D01*
X122665Y-569584D01*
X121331Y-569917D01*
X120665Y-570695D01*
X120665Y-571806D01*
X124665Y-571806D01*
G54D13*
X118221Y-569584D02*
X115554Y-574584D01*
X112887Y-569584D01*
G54D13*
X105110Y-565695D02*
X110444Y-565695D01*
X110444Y-569584D01*
X109777Y-569584D01*
X108444Y-569028D01*
X107110Y-569028D01*
X105777Y-569584D01*
X105110Y-570695D01*
X105110Y-572917D01*
X105777Y-574028D01*
X107110Y-574584D01*
X108444Y-574584D01*
X109777Y-574028D01*
X110444Y-572917D01*
G54D13*
X556642Y-762000D02*
X561975Y-762000D01*
X561975Y-761444D01*
X561308Y-760333D01*
X557308Y-757000D01*
X556642Y-755889D01*
X556642Y-754778D01*
X557308Y-753667D01*
X558642Y-753111D01*
X559975Y-753111D01*
X561308Y-753667D01*
X561975Y-754778D01*
G54D13*
X550198Y-762000D02*
X550198Y-753111D01*
X554198Y-758667D01*
X554198Y-759778D01*
X548865Y-759778D01*
G54D13*
X546421Y-753111D02*
X543088Y-762000D01*
X539754Y-753111D01*
G54D13*
X530733Y-760667D02*
X530733Y-758444D01*
X531400Y-757333D01*
X532733Y-757000D01*
X534066Y-757333D01*
X534733Y-758444D01*
X534733Y-760667D01*
X534066Y-761778D01*
X532733Y-762000D01*
X531400Y-761778D01*
X530733Y-760667D01*
G54D13*
X524289Y-757000D02*
X524289Y-762000D01*
G54D13*
X524289Y-760889D02*
X524956Y-761778D01*
X526289Y-762000D01*
X527622Y-761778D01*
X528289Y-760889D01*
X528289Y-757000D01*
G54D13*
X520512Y-753111D02*
X520512Y-761444D01*
X519845Y-762000D01*
X519178Y-761778D01*
G54D13*
X521845Y-757000D02*
X519178Y-757000D01*
G54D13*
X516734Y-757000D02*
X516734Y-764222D01*
G54D13*
X516734Y-760333D02*
X516067Y-761778D01*
X514734Y-762000D01*
X513401Y-761778D01*
X512734Y-760667D01*
X512734Y-758444D01*
X513401Y-757333D01*
X514734Y-757000D01*
X516067Y-757333D01*
X516734Y-758667D01*
G54D13*
X506290Y-757000D02*
X506290Y-762000D01*
G54D13*
X506290Y-760889D02*
X506957Y-761778D01*
X508290Y-762000D01*
X509623Y-761778D01*
X510290Y-760889D01*
X510290Y-757000D01*
G54D13*
X502513Y-753111D02*
X502513Y-761444D01*
X501846Y-762000D01*
X501179Y-761778D01*
G54D13*
X503846Y-757000D02*
X501179Y-757000D01*
G54D13*
X496158Y-762000D02*
X496158Y-762000D01*
G54D13*
X496158Y-757000D02*
X496158Y-757000D01*
G54D13*
X491137Y-762000D02*
X491137Y-757000D01*
G54D13*
X491137Y-757889D02*
X489804Y-757000D01*
X488470Y-757333D01*
X487804Y-758111D01*
X487804Y-762000D01*
G54D13*
X487804Y-757889D02*
X486470Y-757000D01*
X485137Y-757333D01*
X484470Y-758111D01*
X484470Y-762000D01*
G54D13*
X482026Y-757556D02*
X480693Y-757000D01*
X479093Y-757000D01*
X478026Y-758111D01*
X478026Y-762000D01*
G54D13*
X478026Y-760333D02*
X478693Y-759222D01*
X480026Y-759000D01*
X481359Y-759222D01*
X482026Y-760333D01*
X481759Y-761444D01*
X480693Y-762000D01*
X480026Y-762000D01*
X479759Y-762000D01*
X478693Y-761444D01*
X478026Y-760333D01*
G54D13*
X475582Y-757000D02*
X470249Y-762000D01*
G54D13*
X475582Y-762000D02*
X470249Y-757000D01*
G54D13*
X465228Y-754778D02*
X464561Y-753667D01*
X463228Y-753111D01*
X461895Y-753111D01*
X460561Y-753667D01*
X459895Y-754778D01*
X459895Y-755889D01*
X460561Y-757000D01*
X461895Y-757556D01*
X460561Y-758111D01*
X459895Y-759222D01*
X459895Y-760333D01*
X460561Y-761444D01*
X461895Y-762000D01*
X463228Y-762000D01*
X464561Y-761444D01*
X465228Y-760333D01*
G54D13*
X452118Y-753111D02*
X457451Y-753111D01*
X457451Y-757000D01*
X456784Y-757000D01*
X455451Y-756444D01*
X454118Y-756444D01*
X452784Y-757000D01*
X452118Y-758111D01*
X452118Y-760333D01*
X452784Y-761444D01*
X454118Y-762000D01*
X455451Y-762000D01*
X456784Y-761444D01*
X457451Y-760333D01*
G54D13*
X444341Y-754778D02*
X444341Y-760333D01*
X445007Y-761444D01*
X446341Y-762000D01*
X447674Y-762000D01*
X449007Y-761444D01*
X449674Y-760333D01*
X449674Y-754778D01*
X449007Y-753667D01*
X447674Y-753111D01*
X446341Y-753111D01*
X445007Y-753667D01*
X444341Y-754778D01*
G54D13*
X441897Y-762000D02*
X441897Y-757000D01*
G54D13*
X441897Y-757889D02*
X440564Y-757000D01*
X439230Y-757333D01*
X438564Y-758111D01*
X438564Y-762000D01*
G54D13*
X438564Y-757889D02*
X437230Y-757000D01*
X435897Y-757333D01*
X435230Y-758111D01*
X435230Y-762000D01*
G54D13*
X432786Y-762000D02*
X429453Y-753111D01*
X426119Y-762000D01*
G54D13*
X431453Y-758667D02*
X427453Y-758667D01*
G54D13*
X419098Y-753111D02*
X420431Y-753667D01*
X421098Y-754778D01*
X421098Y-760333D01*
X420431Y-761444D01*
X419098Y-762000D01*
G54D13*
X416654Y-757000D02*
X411321Y-762000D01*
G54D13*
X416654Y-762000D02*
X411321Y-757000D01*
G54D13*
X403544Y-762000D02*
X408877Y-762000D01*
X408877Y-761444D01*
X408210Y-760333D01*
X404210Y-757000D01*
X403544Y-755889D01*
X403544Y-754778D01*
X404210Y-753667D01*
X405544Y-753111D01*
X406877Y-753111D01*
X408210Y-753667D01*
X408877Y-754778D01*
G54D13*
X401100Y-753111D02*
X399767Y-753667D01*
X399100Y-754778D01*
X399100Y-760333D01*
X399767Y-761444D01*
X401100Y-762000D01*
G54D13*
X556642Y-768986D02*
X561975Y-768986D01*
X561975Y-772875D01*
X561308Y-772875D01*
X559975Y-772320D01*
X558642Y-772320D01*
X557308Y-772875D01*
X556642Y-773986D01*
X556642Y-776208D01*
X557308Y-777320D01*
X558642Y-777875D01*
X559975Y-777875D01*
X561308Y-777320D01*
X561975Y-776208D01*
G54D13*
X554198Y-768986D02*
X550865Y-777875D01*
X547531Y-768986D01*
G54D13*
X538510Y-776542D02*
X538510Y-774320D01*
X539177Y-773208D01*
X540510Y-772875D01*
X541843Y-773208D01*
X542510Y-774320D01*
X542510Y-776542D01*
X541843Y-777653D01*
X540510Y-777875D01*
X539177Y-777653D01*
X538510Y-776542D01*
G54D13*
X532066Y-772875D02*
X532066Y-777875D01*
G54D13*
X532066Y-776764D02*
X532733Y-777653D01*
X534066Y-777875D01*
X535399Y-777653D01*
X536066Y-776764D01*
X536066Y-772875D01*
G54D13*
X528289Y-768986D02*
X528289Y-777320D01*
X527622Y-777875D01*
X526955Y-777653D01*
G54D13*
X529622Y-772875D02*
X526955Y-772875D01*
G54D13*
X524511Y-772875D02*
X524511Y-780097D01*
G54D13*
X524511Y-776208D02*
X523844Y-777653D01*
X522511Y-777875D01*
X521178Y-777653D01*
X520511Y-776542D01*
X520511Y-774320D01*
X521178Y-773208D01*
X522511Y-772875D01*
X523844Y-773208D01*
X524511Y-774542D01*
G54D13*
X514067Y-772875D02*
X514067Y-777875D01*
G54D13*
X514067Y-776764D02*
X514734Y-777653D01*
X516067Y-777875D01*
X517400Y-777653D01*
X518067Y-776764D01*
X518067Y-772875D01*
G54D13*
X510290Y-768986D02*
X510290Y-777320D01*
X509623Y-777875D01*
X508956Y-777653D01*
G54D13*
X511623Y-772875D02*
X508956Y-772875D01*
G54D13*
X503935Y-777875D02*
X503935Y-777875D01*
G54D13*
X503935Y-772875D02*
X503935Y-772875D01*
G54D13*
X498914Y-777875D02*
X498914Y-772875D01*
G54D13*
X498914Y-773764D02*
X497581Y-772875D01*
X496247Y-773208D01*
X495581Y-773986D01*
X495581Y-777875D01*
G54D13*
X495581Y-773764D02*
X494247Y-772875D01*
X492914Y-773208D01*
X492247Y-773986D01*
X492247Y-777875D01*
G54D13*
X489803Y-773430D02*
X488470Y-772875D01*
X486870Y-772875D01*
X485803Y-773986D01*
X485803Y-777875D01*
G54D13*
X485803Y-776208D02*
X486470Y-775097D01*
X487803Y-774875D01*
X489136Y-775097D01*
X489803Y-776208D01*
X489536Y-777320D01*
X488470Y-777875D01*
X487803Y-777875D01*
X487536Y-777875D01*
X486470Y-777320D01*
X485803Y-776208D01*
G54D13*
X483359Y-772875D02*
X478026Y-777875D01*
G54D13*
X483359Y-777875D02*
X478026Y-772875D01*
G54D13*
X473005Y-772320D02*
X469672Y-768986D01*
X469672Y-777875D01*
G54D13*
X461895Y-768986D02*
X467228Y-768986D01*
X467228Y-772875D01*
X466561Y-772875D01*
X465228Y-772320D01*
X463895Y-772320D01*
X462561Y-772875D01*
X461895Y-773986D01*
X461895Y-776208D01*
X462561Y-777320D01*
X463895Y-777875D01*
X465228Y-777875D01*
X466561Y-777320D01*
X467228Y-776208D01*
G54D13*
X454118Y-770653D02*
X454118Y-776208D01*
X454784Y-777320D01*
X456118Y-777875D01*
X457451Y-777875D01*
X458784Y-777320D01*
X459451Y-776208D01*
X459451Y-770653D01*
X458784Y-769542D01*
X457451Y-768986D01*
X456118Y-768986D01*
X454784Y-769542D01*
X454118Y-770653D01*
G54D13*
X446341Y-770653D02*
X446341Y-776208D01*
X447007Y-777320D01*
X448341Y-777875D01*
X449674Y-777875D01*
X451007Y-777320D01*
X451674Y-776208D01*
X451674Y-770653D01*
X451007Y-769542D01*
X449674Y-768986D01*
X448341Y-768986D01*
X447007Y-769542D01*
X446341Y-770653D01*
G54D13*
X443897Y-777875D02*
X443897Y-772875D01*
G54D13*
X443897Y-773764D02*
X442564Y-772875D01*
X441230Y-773208D01*
X440564Y-773986D01*
X440564Y-777875D01*
G54D13*
X440564Y-773764D02*
X439230Y-772875D01*
X437897Y-773208D01*
X437230Y-773986D01*
X437230Y-777875D01*
G54D13*
X434786Y-777875D02*
X431453Y-768986D01*
X428119Y-777875D01*
G54D13*
X433453Y-774542D02*
X429453Y-774542D01*
G54D13*
X421098Y-768986D02*
X422431Y-769542D01*
X423098Y-770653D01*
X423098Y-776208D01*
X422431Y-777320D01*
X421098Y-777875D01*
G54D13*
X418654Y-777320D02*
X417321Y-777875D01*
X415987Y-777875D01*
X414654Y-777320D01*
X414654Y-776208D01*
X415321Y-775653D01*
X417987Y-775097D01*
X418654Y-774542D01*
X418654Y-773430D01*
X417321Y-772875D01*
X415987Y-772875D01*
X414654Y-773430D01*
G54D13*
X412210Y-777875D02*
X412210Y-768986D01*
G54D13*
X412210Y-774320D02*
X411543Y-773208D01*
X410210Y-772875D01*
X408877Y-773208D01*
X408210Y-774320D01*
X408210Y-777875D01*
G54D13*
X405766Y-773430D02*
X404433Y-772875D01*
X402833Y-772875D01*
X401766Y-773986D01*
X401766Y-777875D01*
G54D13*
X401766Y-776208D02*
X402433Y-775097D01*
X403766Y-774875D01*
X405099Y-775097D01*
X405766Y-776208D01*
X405499Y-777320D01*
X404433Y-777875D01*
X403766Y-777875D01*
X403499Y-777875D01*
X402433Y-777320D01*
X401766Y-776208D01*
G54D13*
X399322Y-777875D02*
X399322Y-772875D01*
G54D13*
X399322Y-773986D02*
X397989Y-772875D01*
X396655Y-772875D01*
G54D13*
X390211Y-777320D02*
X391278Y-777875D01*
X392611Y-777875D01*
X393944Y-777320D01*
X394211Y-776208D01*
X394211Y-774320D01*
X393544Y-773208D01*
X392211Y-772875D01*
X390878Y-773208D01*
X390211Y-773986D01*
X390211Y-775097D01*
X394211Y-775097D01*
G54D13*
X383767Y-777875D02*
X383767Y-768986D01*
G54D13*
X383767Y-774320D02*
X384434Y-773208D01*
X385767Y-772875D01*
X387100Y-773208D01*
X387767Y-774320D01*
X387767Y-776542D01*
X387100Y-777653D01*
X385767Y-777875D01*
X384434Y-777653D01*
X383767Y-776542D01*
G54D13*
X378746Y-772875D02*
X376746Y-777875D01*
X374746Y-772875D01*
X372746Y-777875D01*
X371413Y-772875D01*
G54D13*
X368969Y-777875D02*
X368969Y-772875D01*
G54D13*
X368969Y-771208D02*
X368969Y-771208D01*
G54D13*
X365192Y-768986D02*
X365192Y-777320D01*
X364525Y-777875D01*
X363858Y-777653D01*
G54D13*
X366525Y-772875D02*
X363858Y-772875D01*
G54D13*
X361414Y-777875D02*
X361414Y-768986D01*
G54D13*
X361414Y-774320D02*
X360747Y-773208D01*
X359414Y-772875D01*
X358081Y-773208D01*
X357414Y-774320D01*
X357414Y-777875D01*
G54D13*
X352393Y-777320D02*
X351060Y-777875D01*
X349726Y-777875D01*
X348393Y-777320D01*
X348393Y-776208D01*
X349060Y-775653D01*
X351726Y-775097D01*
X352393Y-774542D01*
X352393Y-773430D01*
X351060Y-772875D01*
X349726Y-772875D01*
X348393Y-773430D01*
G54D13*
X341949Y-777320D02*
X343016Y-777875D01*
X344349Y-777875D01*
X345682Y-777320D01*
X345949Y-776208D01*
X345949Y-774320D01*
X345282Y-773208D01*
X343949Y-772875D01*
X342616Y-773208D01*
X341949Y-773986D01*
X341949Y-775097D01*
X345949Y-775097D01*
G54D13*
X339505Y-777875D02*
X339505Y-772875D01*
G54D13*
X339505Y-773986D02*
X338172Y-772875D01*
X336838Y-772875D01*
G54D13*
X334394Y-777875D02*
X334394Y-772875D01*
G54D13*
X334394Y-771208D02*
X334394Y-771208D01*
G54D13*
X331950Y-773430D02*
X330617Y-772875D01*
X329017Y-772875D01*
X327950Y-773986D01*
X327950Y-777875D01*
G54D13*
X327950Y-776208D02*
X328617Y-775097D01*
X329950Y-774875D01*
X331283Y-775097D01*
X331950Y-776208D01*
X331683Y-777320D01*
X330617Y-777875D01*
X329950Y-777875D01*
X329683Y-777875D01*
X328617Y-777320D01*
X327950Y-776208D01*
G54D13*
X325506Y-777875D02*
X325506Y-768986D01*
G54D13*
X316485Y-776542D02*
X316485Y-774320D01*
X317152Y-773208D01*
X318485Y-772875D01*
X319818Y-773208D01*
X320485Y-774320D01*
X320485Y-776542D01*
X319818Y-777653D01*
X318485Y-777875D01*
X317152Y-777653D01*
X316485Y-776542D01*
G54D13*
X310041Y-772875D02*
X310041Y-777875D01*
G54D13*
X310041Y-776764D02*
X310708Y-777653D01*
X312041Y-777875D01*
X313374Y-777653D01*
X314041Y-776764D01*
X314041Y-772875D01*
G54D13*
X306264Y-768986D02*
X306264Y-777320D01*
X305597Y-777875D01*
X304930Y-777653D01*
G54D13*
X307597Y-772875D02*
X304930Y-772875D01*
G54D13*
X302486Y-772875D02*
X302486Y-780097D01*
G54D13*
X302486Y-776208D02*
X301819Y-777653D01*
X300486Y-777875D01*
X299153Y-777653D01*
X298486Y-776542D01*
X298486Y-774320D01*
X299153Y-773208D01*
X300486Y-772875D01*
X301819Y-773208D01*
X302486Y-774542D01*
G54D13*
X292042Y-772875D02*
X292042Y-777875D01*
G54D13*
X292042Y-776764D02*
X292709Y-777653D01*
X294042Y-777875D01*
X295375Y-777653D01*
X296042Y-776764D01*
X296042Y-772875D01*
G54D13*
X288265Y-768986D02*
X288265Y-777320D01*
X287598Y-777875D01*
X286931Y-777653D01*
G54D13*
X289598Y-772875D02*
X286931Y-772875D01*
G54D13*
X284487Y-768986D02*
X283154Y-769542D01*
X282487Y-770653D01*
X282487Y-776208D01*
X283154Y-777320D01*
X284487Y-777875D01*
G54D13*
X561975Y-793750D02*
X561975Y-784861D01*
X556642Y-793750D01*
X556642Y-784861D01*
G54D13*
X550198Y-793194D02*
X551265Y-793750D01*
X552598Y-793750D01*
X553931Y-793194D01*
X554198Y-792083D01*
X554198Y-790194D01*
X553531Y-789083D01*
X552198Y-788750D01*
X550865Y-789083D01*
X550198Y-789861D01*
X550198Y-790972D01*
X554198Y-790972D01*
G54D13*
X543754Y-792417D02*
X543754Y-790194D01*
X544421Y-789083D01*
X545754Y-788750D01*
X547087Y-789083D01*
X547754Y-790194D01*
X547754Y-792417D01*
X547087Y-793528D01*
X545754Y-793750D01*
X544421Y-793528D01*
X543754Y-792417D01*
G54D13*
X541310Y-788750D02*
X541310Y-795972D01*
G54D13*
X541310Y-792083D02*
X540643Y-793528D01*
X539310Y-793750D01*
X537977Y-793528D01*
X537310Y-792417D01*
X537310Y-790194D01*
X537977Y-789083D01*
X539310Y-788750D01*
X540643Y-789083D01*
X541310Y-790417D01*
G54D13*
X534866Y-793750D02*
X534866Y-788750D01*
G54D13*
X534866Y-787083D02*
X534866Y-787083D01*
G54D13*
X532422Y-788750D02*
X527089Y-793750D01*
G54D13*
X532422Y-793750D02*
X527089Y-788750D01*
G54D13*
X520645Y-793194D02*
X521712Y-793750D01*
X523045Y-793750D01*
X524378Y-793194D01*
X524645Y-792083D01*
X524645Y-790194D01*
X523978Y-789083D01*
X522645Y-788750D01*
X521312Y-789083D01*
X520645Y-789861D01*
X520645Y-790972D01*
X524645Y-790972D01*
G54D13*
X518201Y-793750D02*
X518201Y-784861D01*
G54D13*
X513180Y-788750D02*
X513180Y-795972D01*
G54D13*
X513180Y-792083D02*
X512513Y-793528D01*
X511180Y-793750D01*
X509847Y-793528D01*
X509180Y-792417D01*
X509180Y-790194D01*
X509847Y-789083D01*
X511180Y-788750D01*
X512513Y-789083D01*
X513180Y-790417D01*
G54D13*
X502736Y-792417D02*
X502736Y-790194D01*
X503403Y-789083D01*
X504736Y-788750D01*
X506069Y-789083D01*
X506736Y-790194D01*
X506736Y-792417D01*
X506069Y-793528D01*
X504736Y-793750D01*
X503403Y-793528D01*
X502736Y-792417D01*
G54D13*
X500292Y-788750D02*
X498292Y-793750D01*
X496292Y-788750D01*
X494292Y-793750D01*
X492959Y-788750D01*
G54D13*
X486515Y-793194D02*
X487582Y-793750D01*
X488915Y-793750D01*
X490248Y-793194D01*
X490515Y-792083D01*
X490515Y-790194D01*
X489848Y-789083D01*
X488515Y-788750D01*
X487182Y-789083D01*
X486515Y-789861D01*
X486515Y-790972D01*
X490515Y-790972D01*
G54D13*
X484071Y-793750D02*
X484071Y-788750D01*
G54D13*
X484071Y-789861D02*
X482738Y-788750D01*
X481404Y-788750D01*
G54D13*
X472383Y-792417D02*
X472383Y-790194D01*
X473050Y-789083D01*
X474383Y-788750D01*
X475716Y-789083D01*
X476383Y-790194D01*
X476383Y-792417D01*
X475716Y-793528D01*
X474383Y-793750D01*
X473050Y-793528D01*
X472383Y-792417D01*
G54D13*
X465939Y-788750D02*
X465939Y-793750D01*
G54D13*
X465939Y-792639D02*
X466606Y-793528D01*
X467939Y-793750D01*
X469272Y-793528D01*
X469939Y-792639D01*
X469939Y-788750D01*
G54D13*
X462162Y-784861D02*
X462162Y-793194D01*
X461495Y-793750D01*
X460828Y-793528D01*
G54D13*
X463495Y-788750D02*
X460828Y-788750D01*
G54D13*
X458384Y-788750D02*
X458384Y-795972D01*
G54D13*
X458384Y-792083D02*
X457717Y-793528D01*
X456384Y-793750D01*
X455051Y-793528D01*
X454384Y-792417D01*
X454384Y-790194D01*
X455051Y-789083D01*
X456384Y-788750D01*
X457717Y-789083D01*
X458384Y-790417D01*
G54D13*
X447940Y-788750D02*
X447940Y-793750D01*
G54D13*
X447940Y-792639D02*
X448607Y-793528D01*
X449940Y-793750D01*
X451273Y-793528D01*
X451940Y-792639D01*
X451940Y-788750D01*
G54D13*
X444163Y-784861D02*
X444163Y-793194D01*
X443496Y-793750D01*
X442829Y-793528D01*
G54D13*
X445496Y-788750D02*
X442829Y-788750D01*
G54D13*
X437808Y-793750D02*
X437808Y-793750D01*
G54D13*
X437808Y-788750D02*
X437808Y-788750D01*
G54D13*
X427454Y-784861D02*
X432787Y-784861D01*
X432787Y-788750D01*
X432120Y-788750D01*
X430787Y-788194D01*
X429454Y-788194D01*
X428120Y-788750D01*
X427454Y-789861D01*
X427454Y-792083D01*
X428120Y-793194D01*
X429454Y-793750D01*
X430787Y-793750D01*
X432120Y-793194D01*
X432787Y-792083D01*
G54D13*
X425010Y-784861D02*
X421677Y-793750D01*
X418343Y-784861D01*
G54D13*
X413322Y-793750D02*
X413322Y-788750D01*
G54D13*
X413322Y-789639D02*
X411989Y-788750D01*
X410655Y-789083D01*
X409989Y-789861D01*
X409989Y-793750D01*
G54D13*
X409989Y-789639D02*
X408655Y-788750D01*
X407322Y-789083D01*
X406655Y-789861D01*
X406655Y-793750D01*
G54D13*
X404211Y-789306D02*
X402878Y-788750D01*
X401278Y-788750D01*
X400211Y-789861D01*
X400211Y-793750D01*
G54D13*
X400211Y-792083D02*
X400878Y-790972D01*
X402211Y-790750D01*
X403544Y-790972D01*
X404211Y-792083D01*
X403944Y-793194D01*
X402878Y-793750D01*
X402211Y-793750D01*
X401944Y-793750D01*
X400878Y-793194D01*
X400211Y-792083D01*
G54D13*
X397767Y-788750D02*
X392434Y-793750D01*
G54D13*
X397767Y-793750D02*
X392434Y-788750D01*
G54D13*
X387413Y-788194D02*
X384080Y-784861D01*
X384080Y-793750D01*
G54D13*
X376303Y-784861D02*
X381636Y-784861D01*
X381636Y-788750D01*
X380969Y-788750D01*
X379636Y-788194D01*
X378303Y-788194D01*
X376969Y-788750D01*
X376303Y-789861D01*
X376303Y-792083D01*
X376969Y-793194D01*
X378303Y-793750D01*
X379636Y-793750D01*
X380969Y-793194D01*
X381636Y-792083D01*
G54D13*
X368526Y-786528D02*
X368526Y-792083D01*
X369192Y-793194D01*
X370526Y-793750D01*
X371859Y-793750D01*
X373192Y-793194D01*
X373859Y-792083D01*
X373859Y-786528D01*
X373192Y-785417D01*
X371859Y-784861D01*
X370526Y-784861D01*
X369192Y-785417D01*
X368526Y-786528D01*
G54D13*
X360749Y-786528D02*
X360749Y-792083D01*
X361415Y-793194D01*
X362749Y-793750D01*
X364082Y-793750D01*
X365415Y-793194D01*
X366082Y-792083D01*
X366082Y-786528D01*
X365415Y-785417D01*
X364082Y-784861D01*
X362749Y-784861D01*
X361415Y-785417D01*
X360749Y-786528D01*
G54D13*
X358305Y-793750D02*
X358305Y-788750D01*
G54D13*
X358305Y-789639D02*
X356972Y-788750D01*
X355638Y-789083D01*
X354972Y-789861D01*
X354972Y-793750D01*
G54D13*
X354972Y-789639D02*
X353638Y-788750D01*
X352305Y-789083D01*
X351638Y-789861D01*
X351638Y-793750D01*
G54D13*
X349194Y-793750D02*
X345861Y-784861D01*
X342527Y-793750D01*
G54D13*
X347861Y-790417D02*
X343861Y-790417D01*
M02*
