%FSLAX34Y34*%
%MOMM*%
%LNSOLDERMASK_BOTTOM*%
G71*
G01*
%ADD10C, 2.40*%
%ADD11C, 7.60*%
%LPD*%
X703262Y-39688D02*
G54D10*
D03*
X703262Y-65088D02*
G54D10*
D03*
X703262Y-90488D02*
G54D10*
D03*
X703262Y-115888D02*
G54D10*
D03*
X703262Y-173038D02*
G54D10*
D03*
X703262Y-198438D02*
G54D10*
D03*
X703262Y-223838D02*
G54D10*
D03*
X703262Y-249238D02*
G54D10*
D03*
X525462Y-201612D02*
G54D10*
D03*
X500062Y-201612D02*
G54D10*
D03*
X531812Y-87312D02*
G54D10*
D03*
X557212Y-87312D02*
G54D10*
D03*
X658812Y-201612D02*
G54D10*
D03*
X633412Y-201612D02*
G54D10*
D03*
X608012Y-201612D02*
G54D10*
D03*
X582612Y-201612D02*
G54D10*
D03*
X341313Y-87312D02*
G54D10*
D03*
X366712Y-87312D02*
G54D10*
D03*
X623888Y-100012D02*
G54D11*
D03*
X52388Y-100012D02*
G54D11*
D03*
X500062Y-201612D02*
G54D10*
D03*
X112712Y-201612D02*
G54D10*
D03*
X87312Y-201612D02*
G54D10*
D03*
X61912Y-201612D02*
G54D10*
D03*
X36512Y-201612D02*
G54D10*
D03*
G36*
X221362Y-161708D02*
X228382Y-154688D01*
X238342Y-154688D01*
X245362Y-161708D01*
X245362Y-171668D01*
X238342Y-178688D01*
X228382Y-178688D01*
X221362Y-171668D01*
X221362Y-161708D01*
G37*
G36*
X246762Y-161708D02*
X253782Y-154688D01*
X263742Y-154688D01*
X270762Y-161708D01*
X270762Y-171668D01*
X263742Y-178688D01*
X253782Y-178688D01*
X246762Y-171668D01*
X246762Y-161708D01*
G37*
G36*
X272162Y-161708D02*
X279182Y-154688D01*
X289142Y-154688D01*
X296162Y-161708D01*
X296162Y-171668D01*
X289142Y-178688D01*
X279182Y-178688D01*
X272162Y-171668D01*
X272162Y-161708D01*
G37*
G36*
X246762Y-161708D02*
X253782Y-154688D01*
X263742Y-154688D01*
X270762Y-161708D01*
X270762Y-171668D01*
X263742Y-178688D01*
X253782Y-178688D01*
X246762Y-171668D01*
X246762Y-161708D01*
G37*
X442912Y-201612D02*
G54D10*
D03*
X417512Y-201612D02*
G54D10*
D03*
G36*
X113412Y-161708D02*
X120432Y-154688D01*
X130392Y-154688D01*
X137412Y-161708D01*
X137412Y-171668D01*
X130392Y-178688D01*
X120432Y-178688D01*
X113412Y-171668D01*
X113412Y-161708D01*
G37*
G36*
X138812Y-161708D02*
X145832Y-154688D01*
X155792Y-154688D01*
X162812Y-161708D01*
X162812Y-171668D01*
X155792Y-178688D01*
X145832Y-178688D01*
X138812Y-171668D01*
X138812Y-161708D01*
G37*
G36*
X164212Y-161708D02*
X171232Y-154688D01*
X181192Y-154688D01*
X188212Y-161708D01*
X188212Y-171668D01*
X181192Y-178688D01*
X171232Y-178688D01*
X164212Y-171668D01*
X164212Y-161708D01*
G37*
G36*
X138812Y-161708D02*
X145832Y-154688D01*
X155792Y-154688D01*
X162812Y-161708D01*
X162812Y-171668D01*
X155792Y-178688D01*
X145832Y-178688D01*
X138812Y-171668D01*
X138812Y-161708D01*
G37*
X423862Y-87312D02*
G54D10*
D03*
X449262Y-87312D02*
G54D10*
D03*
X474662Y-87312D02*
G54D10*
D03*
X417512Y-201612D02*
G54D10*
D03*
X366712Y-87312D02*
G54D10*
D03*
X531812Y-87312D02*
G54D10*
D03*
X449262Y-87312D02*
G54D10*
D03*
X360362Y-201612D02*
G54D10*
D03*
X334962Y-201612D02*
G54D10*
D03*
X36512Y-201612D02*
G54D10*
D03*
X461962Y-125412D02*
G54D10*
D03*
X461962Y-165412D02*
G54D10*
D03*
X195262Y-201612D02*
G54D10*
D03*
X169862Y-201612D02*
G54D10*
D03*
X277812Y-201612D02*
G54D10*
D03*
X252412Y-201612D02*
G54D10*
D03*
X277812Y-201612D02*
G54D10*
D03*
X703262Y-306388D02*
G54D10*
D03*
X703262Y-331788D02*
G54D10*
D03*
X703262Y-357188D02*
G54D10*
D03*
X703262Y-382588D02*
G54D10*
D03*
X703262Y-439738D02*
G54D10*
D03*
X703262Y-465138D02*
G54D10*
D03*
X703262Y-490538D02*
G54D10*
D03*
X703262Y-515938D02*
G54D10*
D03*
X525462Y-468312D02*
G54D10*
D03*
X500062Y-468312D02*
G54D10*
D03*
X531812Y-354012D02*
G54D10*
D03*
X557212Y-354012D02*
G54D10*
D03*
X658812Y-468312D02*
G54D10*
D03*
X633412Y-468312D02*
G54D10*
D03*
X608012Y-468312D02*
G54D10*
D03*
X582612Y-468312D02*
G54D10*
D03*
X341313Y-354012D02*
G54D10*
D03*
X366712Y-354012D02*
G54D10*
D03*
X623888Y-366712D02*
G54D11*
D03*
X52388Y-366712D02*
G54D11*
D03*
X500062Y-468312D02*
G54D10*
D03*
X112712Y-468312D02*
G54D10*
D03*
X87312Y-468312D02*
G54D10*
D03*
X61912Y-468312D02*
G54D10*
D03*
X36512Y-468312D02*
G54D10*
D03*
G36*
X221362Y-428408D02*
X228382Y-421388D01*
X238342Y-421388D01*
X245362Y-428408D01*
X245362Y-438368D01*
X238342Y-445388D01*
X228382Y-445388D01*
X221362Y-438368D01*
X221362Y-428408D01*
G37*
G36*
X246762Y-428408D02*
X253782Y-421388D01*
X263742Y-421388D01*
X270762Y-428408D01*
X270762Y-438368D01*
X263742Y-445388D01*
X253782Y-445388D01*
X246762Y-438368D01*
X246762Y-428408D01*
G37*
G36*
X272162Y-428408D02*
X279182Y-421388D01*
X289142Y-421388D01*
X296162Y-428408D01*
X296162Y-438368D01*
X289142Y-445388D01*
X279182Y-445388D01*
X272162Y-438368D01*
X272162Y-428408D01*
G37*
G36*
X246762Y-428408D02*
X253782Y-421388D01*
X263742Y-421388D01*
X270762Y-428408D01*
X270762Y-438368D01*
X263742Y-445388D01*
X253782Y-445388D01*
X246762Y-438368D01*
X246762Y-428408D01*
G37*
X442912Y-468312D02*
G54D10*
D03*
X417512Y-468312D02*
G54D10*
D03*
G36*
X113412Y-428408D02*
X120432Y-421388D01*
X130392Y-421388D01*
X137412Y-428408D01*
X137412Y-438368D01*
X130392Y-445388D01*
X120432Y-445388D01*
X113412Y-438368D01*
X113412Y-428408D01*
G37*
G36*
X138812Y-428408D02*
X145832Y-421388D01*
X155792Y-421388D01*
X162812Y-428408D01*
X162812Y-438368D01*
X155792Y-445388D01*
X145832Y-445388D01*
X138812Y-438368D01*
X138812Y-428408D01*
G37*
G36*
X164212Y-428408D02*
X171232Y-421388D01*
X181192Y-421388D01*
X188212Y-428408D01*
X188212Y-438368D01*
X181192Y-445388D01*
X171232Y-445388D01*
X164212Y-438368D01*
X164212Y-428408D01*
G37*
G36*
X138812Y-428408D02*
X145832Y-421388D01*
X155792Y-421388D01*
X162812Y-428408D01*
X162812Y-438368D01*
X155792Y-445388D01*
X145832Y-445388D01*
X138812Y-438368D01*
X138812Y-428408D01*
G37*
X423862Y-354012D02*
G54D10*
D03*
X449262Y-354012D02*
G54D10*
D03*
X474662Y-354012D02*
G54D10*
D03*
X417512Y-468312D02*
G54D10*
D03*
X366712Y-354012D02*
G54D10*
D03*
X531812Y-354012D02*
G54D10*
D03*
X449262Y-354012D02*
G54D10*
D03*
X360362Y-468312D02*
G54D10*
D03*
X334962Y-468312D02*
G54D10*
D03*
X36512Y-468312D02*
G54D10*
D03*
X461962Y-392112D02*
G54D10*
D03*
X461962Y-432112D02*
G54D10*
D03*
X195262Y-468312D02*
G54D10*
D03*
X169862Y-468312D02*
G54D10*
D03*
X277812Y-468312D02*
G54D10*
D03*
X252412Y-468312D02*
G54D10*
D03*
X277812Y-468312D02*
G54D10*
D03*
X703262Y-573088D02*
G54D10*
D03*
X703262Y-598488D02*
G54D10*
D03*
X703262Y-623888D02*
G54D10*
D03*
X703262Y-649288D02*
G54D10*
D03*
X703262Y-706438D02*
G54D10*
D03*
X703262Y-731838D02*
G54D10*
D03*
X703262Y-757238D02*
G54D10*
D03*
X703262Y-782638D02*
G54D10*
D03*
X525462Y-735012D02*
G54D10*
D03*
X500062Y-735012D02*
G54D10*
D03*
X531812Y-620712D02*
G54D10*
D03*
X557212Y-620712D02*
G54D10*
D03*
X658812Y-735012D02*
G54D10*
D03*
X633412Y-735012D02*
G54D10*
D03*
X608012Y-735012D02*
G54D10*
D03*
X582612Y-735012D02*
G54D10*
D03*
X341313Y-620712D02*
G54D10*
D03*
X366712Y-620712D02*
G54D10*
D03*
X623888Y-633412D02*
G54D11*
D03*
X52388Y-633412D02*
G54D11*
D03*
X500062Y-735012D02*
G54D10*
D03*
X112712Y-735012D02*
G54D10*
D03*
X87312Y-735012D02*
G54D10*
D03*
X61912Y-735012D02*
G54D10*
D03*
X36512Y-735012D02*
G54D10*
D03*
G36*
X221362Y-695108D02*
X228382Y-688088D01*
X238342Y-688088D01*
X245362Y-695108D01*
X245362Y-705068D01*
X238342Y-712088D01*
X228382Y-712088D01*
X221362Y-705068D01*
X221362Y-695108D01*
G37*
G36*
X246762Y-695108D02*
X253782Y-688088D01*
X263742Y-688088D01*
X270762Y-695108D01*
X270762Y-705068D01*
X263742Y-712088D01*
X253782Y-712088D01*
X246762Y-705068D01*
X246762Y-695108D01*
G37*
G36*
X272162Y-695108D02*
X279182Y-688088D01*
X289142Y-688088D01*
X296162Y-695108D01*
X296162Y-705068D01*
X289142Y-712088D01*
X279182Y-712088D01*
X272162Y-705068D01*
X272162Y-695108D01*
G37*
G36*
X246762Y-695108D02*
X253782Y-688088D01*
X263742Y-688088D01*
X270762Y-695108D01*
X270762Y-705068D01*
X263742Y-712088D01*
X253782Y-712088D01*
X246762Y-705068D01*
X246762Y-695108D01*
G37*
X442912Y-735012D02*
G54D10*
D03*
X417512Y-735012D02*
G54D10*
D03*
G36*
X113412Y-695108D02*
X120432Y-688088D01*
X130392Y-688088D01*
X137412Y-695108D01*
X137412Y-705068D01*
X130392Y-712088D01*
X120432Y-712088D01*
X113412Y-705068D01*
X113412Y-695108D01*
G37*
G36*
X138812Y-695108D02*
X145832Y-688088D01*
X155792Y-688088D01*
X162812Y-695108D01*
X162812Y-705068D01*
X155792Y-712088D01*
X145832Y-712088D01*
X138812Y-705068D01*
X138812Y-695108D01*
G37*
G36*
X164212Y-695108D02*
X171232Y-688088D01*
X181192Y-688088D01*
X188212Y-695108D01*
X188212Y-705068D01*
X181192Y-712088D01*
X171232Y-712088D01*
X164212Y-705068D01*
X164212Y-695108D01*
G37*
G36*
X138812Y-695108D02*
X145832Y-688088D01*
X155792Y-688088D01*
X162812Y-695108D01*
X162812Y-705068D01*
X155792Y-712088D01*
X145832Y-712088D01*
X138812Y-705068D01*
X138812Y-695108D01*
G37*
X423862Y-620712D02*
G54D10*
D03*
X449262Y-620712D02*
G54D10*
D03*
X474662Y-620712D02*
G54D10*
D03*
X417512Y-735012D02*
G54D10*
D03*
X366712Y-620712D02*
G54D10*
D03*
X531812Y-620712D02*
G54D10*
D03*
X449262Y-620712D02*
G54D10*
D03*
X360362Y-735012D02*
G54D10*
D03*
X334962Y-735012D02*
G54D10*
D03*
X36512Y-735012D02*
G54D10*
D03*
X461962Y-658812D02*
G54D10*
D03*
X461962Y-698812D02*
G54D10*
D03*
X195262Y-735012D02*
G54D10*
D03*
X169862Y-735012D02*
G54D10*
D03*
X277812Y-735012D02*
G54D10*
D03*
X252412Y-735012D02*
G54D10*
D03*
X277812Y-735012D02*
G54D10*
D03*
M02*
