; Drill file
; Format: 2.4 (00.0000)
M48
INCH
T01C0.0315
T02C0.0354
T03C0.0394
T04C0.126
%
G05
G90
T01
X001750Y017620
X002750Y017620
X013370Y020000
X014380Y020000
X014380Y034380
X013370Y034380
X002750Y032000
X001750Y032000
T02
X001750Y016500
X002750Y016500
X005120Y016500
X006130Y016500
X007130Y016500
X008120Y016500
X010500Y016500
X011500Y016500
X013870Y016500
X014880Y016500
X017250Y016500
X018250Y016500
X019250Y016500
X021630Y016500
X022630Y016500
X025000Y016500
X026000Y016500
X027000Y016500
X028000Y016500
X030750Y017000
X030750Y018000
X030750Y016000
X030750Y015000
X030750Y012500
X030750Y011500
X030750Y020380
X030750Y021380
X030750Y022370
X030750Y023370
X030750Y025870
X030750Y026880
X030750Y029380
X030750Y030380
X030750Y031380
X030750Y032370
X030750Y034750
X030750Y035750
X030750Y036750
X030750Y037750
X027000Y034000
X026000Y034000
X026000Y030870
X027000Y030870
X028000Y030870
X025000Y030870
X022630Y030870
X021630Y030870
X019250Y030870
X018250Y030870
X017250Y030870
X014880Y030870
X013870Y030870
X011500Y030870
X010500Y030870
X008120Y030870
X007130Y030870
X006130Y030870
X005120Y030870
X002750Y030870
X001750Y030870
X016130Y034000
X017120Y034000
X019500Y034000
X020500Y034000
X020500Y019620
X019500Y019620
X017120Y019620
X016130Y019620
X026000Y019620
X027000Y019620
T03
X005120Y018630
X006130Y018630
X007130Y018630
X009500Y018630
X010500Y018630
X011500Y018630
X011500Y033000
X010500Y033000
X009500Y033000
X007130Y033000
X006130Y033000
X005120Y033000
T04
X002370Y021380
X002370Y035750
X023250Y035750
X023250Y021380
M30
