%FSLAX34Y34*%
%MOMM*%
%LNCOPPER_BOTTOM*%
G71*
G01*
%ADD10C, 0.10*%
%ADD11C, 0.11*%
%ADD12C, 0.15*%
%LPD*%
G54D10*
X787400Y981075D02*
X781050Y981075D01*
X781050Y984250D01*
X857250Y984250D01*
X857250Y857250D01*
X781050Y857250D01*
X781050Y860425D01*
X787400Y860425D01*
G54D10*
X787400Y981075D02*
X793750Y981075D01*
X793750Y860425D01*
X787400Y860425D01*
G54D10*
X781050Y984250D02*
X742950Y984250D01*
X742950Y981075D01*
X781050Y981075D01*
G54D10*
X781050Y860425D02*
X742950Y860425D01*
X742950Y857250D01*
X781050Y857250D01*
G54D10*
X787400Y844550D02*
X781050Y844550D01*
X781050Y847725D01*
X857250Y847725D01*
X857250Y720725D01*
X781050Y720725D01*
X781050Y723900D01*
X787400Y723900D01*
G54D10*
X787400Y844550D02*
X793750Y844550D01*
X793750Y723900D01*
X787400Y723900D01*
G54D10*
X781050Y847725D02*
X742950Y847725D01*
X742950Y844550D01*
X781050Y844550D01*
G54D10*
X781050Y723900D02*
X742950Y723900D01*
X742950Y720725D01*
X781050Y720725D01*
G54D10*
X787400Y704850D02*
X781050Y704850D01*
X781050Y708025D01*
X857250Y708025D01*
X857250Y631825D01*
X781050Y631825D01*
X781050Y635000D01*
X787400Y635000D01*
G54D10*
X787400Y704850D02*
X793750Y704850D01*
X793750Y635000D01*
X787400Y635000D01*
G54D10*
X781050Y708025D02*
X742950Y708025D01*
X742950Y704850D01*
X781050Y704850D01*
G54D10*
X781050Y635000D02*
X742950Y635000D01*
X742950Y631825D01*
X781050Y631825D01*
G54D10*
X733425Y777875D02*
X733425Y784225D01*
X736600Y784225D01*
X736600Y708025D01*
X609600Y708025D01*
X609600Y784225D01*
X612775Y784225D01*
X612775Y777875D01*
G54D10*
X733425Y777875D02*
X733425Y771525D01*
X612775Y771525D01*
X612775Y777875D01*
G54D10*
X736600Y784225D02*
X736600Y822325D01*
X733425Y822325D01*
X733425Y784225D01*
G54D10*
X612775Y784225D02*
X612775Y822325D01*
X609600Y822325D01*
X609600Y784225D01*
G54D10*
X596900Y777875D02*
X596900Y784225D01*
X600075Y784225D01*
X600075Y708025D01*
X523875Y708025D01*
X523875Y784225D01*
X527050Y784225D01*
X527050Y777875D01*
G54D10*
X596900Y777875D02*
X596900Y771525D01*
X527050Y771525D01*
X527050Y777875D01*
G54D10*
X600075Y784225D02*
X600075Y822325D01*
X596900Y822325D01*
X596900Y784225D01*
G54D10*
X527050Y784225D02*
X527050Y822325D01*
X523875Y822325D01*
X523875Y784225D01*
G54D10*
X400050Y777875D02*
X400050Y784225D01*
X403225Y784225D01*
X403225Y708025D01*
X327025Y708025D01*
X327025Y784225D01*
X330200Y784225D01*
X330200Y777875D01*
G54D10*
X400050Y777875D02*
X400050Y771525D01*
X330200Y771525D01*
X330200Y777875D01*
G54D10*
X403225Y784225D02*
X403225Y822325D01*
X400050Y822325D01*
X400050Y784225D01*
G54D10*
X330200Y784225D02*
X330200Y822325D01*
X327025Y822325D01*
X327025Y784225D01*
G54D10*
X638175Y869950D02*
X638175Y863600D01*
X635000Y863600D01*
X635000Y939800D01*
X711200Y939800D01*
X711200Y863600D01*
X708025Y863600D01*
X708025Y869950D01*
G54D10*
X638175Y869950D02*
X638175Y876300D01*
X708025Y876300D01*
X708025Y869950D01*
G54D10*
X635000Y863600D02*
X635000Y825500D01*
X638175Y825500D01*
X638175Y863600D01*
G54D10*
X708025Y863600D02*
X708025Y825500D01*
X711200Y825500D01*
X711200Y863600D01*
G54D10*
X511175Y777875D02*
X511175Y784225D01*
X514350Y784225D01*
X514350Y708025D01*
X412750Y708025D01*
X412750Y784225D01*
X415925Y784225D01*
X415925Y777875D01*
G54D10*
X511175Y777875D02*
X511175Y771525D01*
X415925Y771525D01*
X415925Y777875D01*
G54D10*
X514350Y784225D02*
X514350Y822325D01*
X511175Y822325D01*
X511175Y784225D01*
G54D10*
X415925Y784225D02*
X415925Y822325D01*
X412750Y822325D01*
X412750Y784225D01*
G54D10*
X103188Y825500D02*
X207962Y825500D01*
X207963Y990600D01*
X103188Y990600D01*
X103188Y825500D01*
G54D10*
X117475Y825500D02*
X117475Y850900D01*
X193675Y850900D01*
X193675Y825500D01*
G54D11*
X135508Y877172D02*
X135508Y871616D01*
X134842Y870505D01*
X133508Y869950D01*
X132175Y869950D01*
X130842Y870505D01*
X130175Y871616D01*
X130175Y877172D01*
X130842Y878283D01*
X132175Y878839D01*
X133508Y878839D01*
X134842Y878283D01*
X135508Y877172D01*
G54D11*
X137952Y869950D02*
X137952Y878839D01*
G54D11*
X137952Y872727D02*
X143285Y878839D01*
G54D11*
X139952Y874394D02*
X143285Y869950D01*
G54D11*
X145729Y869950D02*
X145729Y878839D01*
G54D11*
X148173Y873839D02*
X153506Y873839D01*
G54D11*
X155950Y878839D02*
X161284Y878839D01*
X160617Y877728D01*
X159283Y876061D01*
X157950Y873839D01*
X157283Y872172D01*
X157283Y869950D01*
G54D11*
X167060Y874394D02*
X165727Y874394D01*
X164394Y874950D01*
X163727Y876061D01*
X163727Y877172D01*
X164394Y878283D01*
X165727Y878839D01*
X167060Y878839D01*
X168394Y878283D01*
X169060Y877172D01*
X169060Y876061D01*
X168394Y874950D01*
X167060Y874394D01*
X168394Y873839D01*
X169060Y872728D01*
X169060Y871616D01*
X168394Y870505D01*
X167060Y869950D01*
X165727Y869950D01*
X164394Y870505D01*
X163727Y871616D01*
X163727Y872728D01*
X164394Y873839D01*
X165727Y874394D01*
G54D11*
X171504Y871616D02*
X172171Y870505D01*
X173504Y869950D01*
X174837Y869950D01*
X176171Y870505D01*
X176837Y871616D01*
X176837Y872727D01*
X176171Y873839D01*
X174837Y874394D01*
X173504Y874394D01*
X172171Y874950D01*
X171504Y876061D01*
X171504Y877172D01*
X172171Y878283D01*
X173504Y878839D01*
X174838Y878839D01*
X176171Y878283D01*
X176837Y877172D01*
G54D11*
X181948Y874394D02*
X183948Y873283D01*
X184614Y872172D01*
X184614Y869950D01*
G54D11*
X179281Y869950D02*
X179281Y878839D01*
X182614Y878839D01*
X183948Y878283D01*
X184614Y877172D01*
X184614Y876061D01*
X183948Y874950D01*
X182614Y874394D01*
X179281Y874394D01*
G54D11*
X135112Y864472D02*
X135112Y858916D01*
X134445Y857805D01*
X133112Y857250D01*
X131778Y857250D01*
X130445Y857805D01*
X129778Y858916D01*
X129778Y864472D01*
X130445Y865583D01*
X131778Y866139D01*
X133112Y866139D01*
X134445Y865583D01*
X135112Y864472D01*
G54D11*
X158242Y861694D02*
X160908Y861694D01*
X160908Y858916D01*
X160242Y857805D01*
X158908Y857250D01*
X157575Y857250D01*
X156242Y857805D01*
X155575Y858916D01*
X155575Y864472D01*
X156242Y865583D01*
X157575Y866139D01*
X158908Y866139D01*
X160242Y865583D01*
X160908Y864472D01*
G54D11*
X180975Y857250D02*
X180975Y866139D01*
G54D10*
X473075Y869950D02*
X473075Y863600D01*
X469900Y863600D01*
X469900Y939800D01*
X546100Y939800D01*
X546100Y863600D01*
X542925Y863600D01*
X542925Y869950D01*
G54D10*
X473075Y869950D02*
X473075Y876300D01*
X542925Y876300D01*
X542925Y869950D01*
G54D10*
X469900Y863600D02*
X469900Y825500D01*
X473075Y825500D01*
X473075Y863600D01*
G54D10*
X542925Y863600D02*
X542925Y825500D01*
X546100Y825500D01*
X546100Y863600D01*
G54D10*
X214313Y825500D02*
X319088Y825500D01*
X319088Y990600D01*
X214312Y990600D01*
X214313Y825500D01*
G54D10*
X228600Y825500D02*
X228600Y850900D01*
X304800Y850900D01*
X304800Y825500D01*
G54D11*
X246633Y877172D02*
X246633Y871616D01*
X245967Y870505D01*
X244633Y869950D01*
X243300Y869950D01*
X241967Y870505D01*
X241300Y871616D01*
X241300Y877172D01*
X241967Y878283D01*
X243300Y878839D01*
X244633Y878839D01*
X245967Y878283D01*
X246633Y877172D01*
G54D11*
X249077Y869950D02*
X249077Y878839D01*
G54D11*
X249077Y872727D02*
X254410Y878839D01*
G54D11*
X251077Y874394D02*
X254410Y869950D01*
G54D11*
X256854Y869950D02*
X256854Y878839D01*
G54D11*
X259298Y873839D02*
X264631Y873839D01*
G54D11*
X267075Y878839D02*
X272408Y878839D01*
X271742Y877728D01*
X270408Y876061D01*
X269075Y873839D01*
X268408Y872172D01*
X268408Y869950D01*
G54D11*
X278185Y874394D02*
X276852Y874394D01*
X275519Y874950D01*
X274852Y876061D01*
X274852Y877172D01*
X275519Y878283D01*
X276852Y878839D01*
X278185Y878839D01*
X279519Y878283D01*
X280185Y877172D01*
X280185Y876061D01*
X279519Y874950D01*
X278185Y874394D01*
X279519Y873839D01*
X280185Y872728D01*
X280185Y871616D01*
X279519Y870505D01*
X278186Y869950D01*
X276852Y869950D01*
X275519Y870505D01*
X274852Y871616D01*
X274852Y872728D01*
X275519Y873839D01*
X276852Y874394D01*
G54D11*
X282629Y871616D02*
X283296Y870505D01*
X284629Y869950D01*
X285962Y869950D01*
X287296Y870505D01*
X287962Y871616D01*
X287962Y872727D01*
X287296Y873839D01*
X285962Y874394D01*
X284629Y874394D01*
X283296Y874950D01*
X282629Y876061D01*
X282629Y877172D01*
X283296Y878283D01*
X284629Y878839D01*
X285962Y878839D01*
X287296Y878283D01*
X287962Y877172D01*
G54D11*
X293073Y874394D02*
X295073Y873283D01*
X295739Y872172D01*
X295739Y869950D01*
G54D11*
X290406Y869950D02*
X290406Y878839D01*
X293739Y878839D01*
X295073Y878283D01*
X295739Y877172D01*
X295739Y876061D01*
X295073Y874950D01*
X293739Y874394D01*
X290406Y874394D01*
G54D11*
X246237Y864472D02*
X246237Y858916D01*
X245570Y857805D01*
X244237Y857250D01*
X242903Y857250D01*
X241570Y857805D01*
X240903Y858916D01*
X240903Y864472D01*
X241570Y865583D01*
X242903Y866139D01*
X244237Y866139D01*
X245570Y865583D01*
X246237Y864472D01*
G54D11*
X269367Y861694D02*
X272033Y861694D01*
X272033Y858916D01*
X271367Y857805D01*
X270033Y857250D01*
X268700Y857250D01*
X267367Y857805D01*
X266700Y858916D01*
X266700Y864472D01*
X267367Y865583D01*
X268700Y866139D01*
X270033Y866139D01*
X271367Y865583D01*
X272033Y864472D01*
G54D11*
X292100Y857250D02*
X292100Y866139D01*
G54D11*
X753111Y908050D02*
X753111Y913383D01*
X762000Y908050D01*
X762000Y913383D01*
G54D11*
X758111Y915827D02*
X758111Y921160D01*
G54D11*
X756444Y923604D02*
X753111Y926937D01*
X762000Y926937D01*
G54D11*
X753111Y774700D02*
X753111Y780033D01*
X762000Y774700D01*
X762000Y780033D01*
G54D11*
X758111Y782477D02*
X758111Y787810D01*
G54D11*
X762000Y795587D02*
X762000Y790254D01*
X761445Y790254D01*
X760333Y790921D01*
X757000Y794921D01*
X755889Y795587D01*
X754778Y795587D01*
X753667Y794921D01*
X753111Y793587D01*
X753111Y792254D01*
X753667Y790921D01*
X754778Y790254D01*
G54D11*
X663575Y701039D02*
X668908Y701039D01*
X663575Y692150D01*
X668908Y692150D01*
G54D11*
X671352Y696039D02*
X676685Y696039D01*
G54D11*
X679129Y692150D02*
X679129Y701039D01*
G54D11*
X681573Y692150D02*
X681573Y701039D01*
X686906Y692150D01*
X686906Y701039D01*
G54D11*
X752475Y657225D02*
X743586Y657225D01*
X743586Y661892D01*
G54D11*
X748031Y657225D02*
X748031Y661892D01*
G54D11*
X752475Y664336D02*
X743586Y667669D01*
X752475Y671003D01*
G54D11*
X749142Y665669D02*
X749142Y669669D01*
G54D11*
X752475Y673447D02*
X743586Y673447D01*
X752475Y678780D01*
X743586Y678780D01*
G54D11*
X663575Y958850D02*
X663575Y967739D01*
X668242Y967739D01*
G54D11*
X663575Y963294D02*
X668242Y963294D01*
G54D11*
X670686Y958850D02*
X674019Y967739D01*
X677353Y958850D01*
G54D11*
X672019Y962183D02*
X676019Y962183D01*
G54D11*
X679797Y958850D02*
X679797Y967739D01*
X685130Y958850D01*
X685130Y967739D01*
G54D11*
X555625Y699214D02*
X560958Y699214D01*
G54D11*
X558292Y701436D02*
X558292Y696992D01*
G54D11*
X571133Y699214D02*
X576466Y699214D01*
G54D11*
X434467Y699769D02*
X437133Y699769D01*
X437133Y696992D01*
X436467Y695881D01*
X435133Y695325D01*
X433800Y695325D01*
X432467Y695881D01*
X431800Y696992D01*
X431800Y702547D01*
X432467Y703658D01*
X433800Y704214D01*
X435133Y704214D01*
X436467Y703658D01*
X437133Y702547D01*
G54D11*
X439577Y695325D02*
X439577Y704214D01*
X444910Y695325D01*
X444910Y704214D01*
G54D11*
X447354Y695325D02*
X447354Y704214D01*
X450687Y704214D01*
X452021Y703658D01*
X452687Y702547D01*
X452687Y696992D01*
X452021Y695881D01*
X450687Y695325D01*
X447354Y695325D01*
G54D11*
X462862Y696992D02*
X463529Y695881D01*
X464862Y695325D01*
X466195Y695325D01*
X467529Y695881D01*
X468195Y696992D01*
X468195Y698103D01*
X467529Y699214D01*
X466195Y699769D01*
X464862Y699769D01*
X463529Y700325D01*
X462862Y701436D01*
X462862Y702547D01*
X463529Y703658D01*
X464862Y704214D01*
X466195Y704214D01*
X467529Y703658D01*
X468195Y702547D01*
G54D11*
X470639Y695325D02*
X470639Y704214D01*
G54D11*
X475750Y699769D02*
X478416Y699769D01*
X478416Y696992D01*
X477750Y695881D01*
X476416Y695325D01*
X475083Y695325D01*
X473750Y695881D01*
X473083Y696992D01*
X473083Y702547D01*
X473750Y703658D01*
X475083Y704214D01*
X476416Y704214D01*
X477750Y703658D01*
X478416Y702547D01*
G54D11*
X493924Y704214D02*
X488591Y704214D01*
X488591Y700325D01*
X489258Y700325D01*
X490591Y700881D01*
X491924Y700881D01*
X493258Y700325D01*
X493924Y699214D01*
X493924Y696992D01*
X493258Y695881D01*
X491924Y695325D01*
X490591Y695325D01*
X489258Y695881D01*
X488591Y696992D01*
G54D11*
X496368Y704214D02*
X499701Y695325D01*
X503035Y704214D01*
G54D11*
X491108Y951864D02*
X485775Y951864D01*
X485775Y947975D01*
X486442Y947975D01*
X487775Y948531D01*
X489108Y948531D01*
X490442Y947975D01*
X491108Y946864D01*
X491108Y944642D01*
X490442Y943531D01*
X489108Y942975D01*
X487775Y942975D01*
X486442Y943531D01*
X485775Y944642D01*
G54D11*
X493552Y951864D02*
X496885Y942975D01*
X500219Y951864D01*
G54D11*
X513061Y947419D02*
X515727Y947419D01*
X515727Y944642D01*
X515061Y943531D01*
X513727Y942975D01*
X512394Y942975D01*
X511061Y943531D01*
X510394Y944642D01*
X510394Y950197D01*
X511061Y951308D01*
X512394Y951864D01*
X513727Y951864D01*
X515061Y951308D01*
X515727Y950197D01*
G54D11*
X518171Y942975D02*
X518171Y951864D01*
X523504Y942975D01*
X523504Y951864D01*
G54D11*
X525948Y942975D02*
X525948Y951864D01*
X529281Y951864D01*
X530615Y951308D01*
X531281Y950197D01*
X531281Y944642D01*
X530615Y943531D01*
X529281Y942975D01*
X525948Y942975D01*
G54D11*
X346075Y695325D02*
X346075Y704214D01*
X351408Y695325D01*
X351408Y704214D01*
G54D11*
X359185Y696992D02*
X358519Y695881D01*
X357185Y695325D01*
X355852Y695325D01*
X354519Y695881D01*
X353852Y696992D01*
X353852Y702547D01*
X354519Y703658D01*
X355852Y704214D01*
X357185Y704214D01*
X358519Y703658D01*
X359185Y702547D01*
G54D11*
X369360Y696992D02*
X370027Y695881D01*
X371360Y695325D01*
X372693Y695325D01*
X374027Y695881D01*
X374693Y696992D01*
X374693Y698103D01*
X374027Y699214D01*
X372693Y699769D01*
X371360Y699769D01*
X370027Y700325D01*
X369360Y701436D01*
X369360Y702547D01*
X370027Y703658D01*
X371360Y704214D01*
X372693Y704214D01*
X374027Y703658D01*
X374693Y702547D01*
G54D11*
X377137Y695325D02*
X377137Y704214D01*
G54D11*
X382248Y699769D02*
X384914Y699769D01*
X384914Y696992D01*
X384248Y695881D01*
X382914Y695325D01*
X381581Y695325D01*
X380248Y695881D01*
X379581Y696992D01*
X379581Y702547D01*
X380248Y703658D01*
X381581Y704214D01*
X382914Y704214D01*
X384248Y703658D01*
X384914Y702547D01*
G54D11*
X253492Y699769D02*
X256158Y699769D01*
X256158Y696992D01*
X255492Y695881D01*
X254158Y695325D01*
X252825Y695325D01*
X251492Y695881D01*
X250825Y696992D01*
X250825Y702547D01*
X251492Y703658D01*
X252825Y704214D01*
X254158Y704214D01*
X255492Y703658D01*
X256158Y702547D01*
G54D11*
X258602Y695325D02*
X258602Y704214D01*
X263935Y695325D01*
X263935Y704214D01*
G54D11*
X266379Y695325D02*
X266379Y704214D01*
X269712Y704214D01*
X271046Y703658D01*
X271712Y702547D01*
X271712Y696992D01*
X271046Y695881D01*
X269712Y695325D01*
X266379Y695325D01*
G54D11*
X281887Y704214D02*
X285220Y695325D01*
X288554Y704214D01*
G54D11*
X296331Y696992D02*
X295665Y695881D01*
X294331Y695325D01*
X292998Y695325D01*
X291665Y695881D01*
X290998Y696992D01*
X290998Y702547D01*
X291665Y703658D01*
X292998Y704214D01*
X294331Y704214D01*
X295665Y703658D01*
X296331Y702547D01*
G54D11*
X304108Y696992D02*
X303442Y695881D01*
X302108Y695325D01*
X300775Y695325D01*
X299442Y695881D01*
X298775Y696992D01*
X298775Y702547D01*
X299442Y703658D01*
X300775Y704214D01*
X302108Y704214D01*
X303442Y703658D01*
X304108Y702547D01*
G54D11*
X129667Y699769D02*
X131667Y698658D01*
X132333Y697547D01*
X132333Y695325D01*
G54D11*
X127000Y695325D02*
X127000Y704214D01*
X130333Y704214D01*
X131667Y703658D01*
X132333Y702547D01*
X132333Y701436D01*
X131667Y700325D01*
X130333Y699769D01*
X127000Y699769D01*
G54D11*
X134777Y704214D02*
X141444Y695325D01*
G54D11*
X134777Y695325D02*
X141444Y704214D01*
G54D11*
X151709Y695325D02*
X151709Y704214D01*
G54D11*
X149042Y704214D02*
X154375Y704214D01*
G54D11*
X156819Y704214D02*
X163486Y695325D01*
G54D11*
X156819Y695325D02*
X163486Y704214D01*
G54D11*
X176417Y704214D02*
X171084Y704214D01*
X171084Y700325D01*
X171751Y700325D01*
X173084Y700881D01*
X174417Y700881D01*
X175751Y700325D01*
X176417Y699214D01*
X176417Y696992D01*
X175751Y695881D01*
X174417Y695325D01*
X173084Y695325D01*
X171751Y695881D01*
X171084Y696992D01*
G54D11*
X178861Y704214D02*
X182194Y695325D01*
X185528Y704214D01*
G54D11*
X195793Y699769D02*
X198459Y699769D01*
X198459Y696992D01*
X197793Y695881D01*
X196459Y695325D01*
X195126Y695325D01*
X193793Y695881D01*
X193126Y696992D01*
X193126Y702547D01*
X193793Y703658D01*
X195126Y704214D01*
X196459Y704214D01*
X197793Y703658D01*
X198459Y702547D01*
G54D11*
X200903Y695325D02*
X200903Y704214D01*
X206236Y695325D01*
X206236Y704214D01*
G54D11*
X208680Y695325D02*
X208680Y704214D01*
X212013Y704214D01*
X213347Y703658D01*
X214013Y702547D01*
X214013Y696992D01*
X213347Y695881D01*
X212013Y695325D01*
X208680Y695325D01*
G54D10*
X228600Y777875D02*
X228600Y784225D01*
X231775Y784225D01*
X231775Y708025D01*
X104775Y708025D01*
X104775Y784225D01*
X107950Y784225D01*
X107950Y777875D01*
G54D10*
X228600Y777875D02*
X228600Y771525D01*
X107950Y771525D01*
X107950Y777875D01*
G54D10*
X231775Y784225D02*
X231775Y822325D01*
X228600Y822325D01*
X228600Y784225D01*
G54D10*
X107950Y784225D02*
X107950Y822325D01*
X104775Y822325D01*
X104775Y784225D01*
G54D10*
X314325Y777875D02*
X314325Y784225D01*
X317500Y784225D01*
X317500Y708025D01*
X241300Y708025D01*
X241300Y784225D01*
X244475Y784225D01*
X244475Y777875D01*
G54D10*
X314325Y777875D02*
X314325Y771525D01*
X244475Y771525D01*
X244475Y777875D01*
G54D10*
X317500Y784225D02*
X317500Y822325D01*
X314325Y822325D01*
X314325Y784225D01*
G54D10*
X244475Y784225D02*
X244475Y822325D01*
X241300Y822325D01*
X241300Y784225D01*
G54D10*
X92075Y777875D02*
X92075Y784225D01*
X95250Y784225D01*
X95250Y708025D01*
X19050Y708025D01*
X19050Y784225D01*
X22225Y784225D01*
X22225Y777875D01*
G54D10*
X92075Y777875D02*
X92075Y771525D01*
X22225Y771525D01*
X22225Y777875D01*
G54D10*
X95250Y784225D02*
X95250Y822325D01*
X92075Y822325D01*
X92075Y784225D01*
G54D10*
X22225Y784225D02*
X22225Y822325D01*
X19050Y822325D01*
X19050Y784225D01*
G54D10*
X584200Y858838D02*
X627459Y858838D01*
X627459Y830262D01*
X584200Y830262D01*
X584200Y858838D01*
G54D10*
X387350Y869950D02*
X387350Y863600D01*
X384175Y863600D01*
X384175Y939800D01*
X460375Y939800D01*
X460375Y863600D01*
X457200Y863600D01*
X457200Y869950D01*
G54D10*
X387350Y869950D02*
X387350Y876300D01*
X457200Y876300D01*
X457200Y869950D01*
G54D10*
X384175Y863600D02*
X384175Y825500D01*
X387350Y825500D01*
X387350Y863600D01*
G54D10*
X457200Y863600D02*
X457200Y825500D01*
X460375Y825500D01*
X460375Y863600D01*
G54D11*
X393700Y951864D02*
X397033Y942975D01*
X400367Y951864D01*
G54D11*
X408144Y944642D02*
X407478Y943531D01*
X406144Y942975D01*
X404811Y942975D01*
X403478Y943531D01*
X402811Y944642D01*
X402811Y950197D01*
X403478Y951308D01*
X404811Y951864D01*
X406144Y951864D01*
X407478Y951308D01*
X408144Y950197D01*
G54D11*
X415921Y944642D02*
X415255Y943531D01*
X413921Y942975D01*
X412588Y942975D01*
X411255Y943531D01*
X410588Y944642D01*
X410588Y950197D01*
X411255Y951308D01*
X412588Y951864D01*
X413921Y951864D01*
X415255Y951308D01*
X415921Y950197D01*
G54D11*
X428763Y947419D02*
X431429Y947419D01*
X431429Y944642D01*
X430763Y943531D01*
X429429Y942975D01*
X428096Y942975D01*
X426763Y943531D01*
X426096Y944642D01*
X426096Y950197D01*
X426763Y951308D01*
X428096Y951864D01*
X429429Y951864D01*
X430763Y951308D01*
X431429Y950197D01*
G54D11*
X433873Y942975D02*
X433873Y951864D01*
X439206Y942975D01*
X439206Y951864D01*
G54D11*
X441650Y942975D02*
X441650Y951864D01*
X444983Y951864D01*
X446317Y951308D01*
X446983Y950197D01*
X446983Y944642D01*
X446317Y943531D01*
X444983Y942975D01*
X441650Y942975D01*
G54D11*
X37592Y699769D02*
X39592Y698658D01*
X40258Y697547D01*
X40258Y695325D01*
G54D11*
X34925Y695325D02*
X34925Y704214D01*
X38258Y704214D01*
X39592Y703658D01*
X40258Y702547D01*
X40258Y701436D01*
X39592Y700325D01*
X38258Y699769D01*
X34925Y699769D01*
G54D11*
X42702Y704214D02*
X49369Y695325D01*
G54D11*
X42702Y695325D02*
X49369Y704214D01*
G54D11*
X59634Y695325D02*
X59634Y704214D01*
G54D11*
X56967Y704214D02*
X62300Y704214D01*
G54D11*
X64744Y704214D02*
X71411Y695325D01*
G54D11*
X64744Y695325D02*
X71411Y704214D01*
G54D12*
X427150Y841350D02*
X449150Y841350D01*
X449150Y803350D01*
X427150Y803350D01*
X427150Y841350D01*
G54D10*
X333375Y852488D02*
X376634Y852488D01*
X376634Y823912D01*
X333375Y823912D01*
X333375Y852488D01*
G54D10*
X323850Y889000D02*
X377825Y889000D01*
X377825Y984250D01*
X323850Y984250D01*
X323850Y889000D01*
G54D11*
X34925Y681117D02*
X35592Y680006D01*
X36925Y679450D01*
X38258Y679450D01*
X39592Y680006D01*
X40258Y681117D01*
X40258Y682228D01*
X39592Y683339D01*
X38258Y683894D01*
X36925Y683894D01*
X35592Y684450D01*
X34925Y685561D01*
X34925Y686672D01*
X35592Y687783D01*
X36925Y688339D01*
X38258Y688339D01*
X39592Y687783D01*
X40258Y686672D01*
G54D11*
X47369Y679450D02*
X42702Y679450D01*
X42702Y688339D01*
X47369Y688339D01*
G54D11*
X42702Y683894D02*
X47369Y683894D01*
G54D11*
X52480Y683894D02*
X54480Y682783D01*
X55146Y681672D01*
X55146Y679450D01*
G54D11*
X49813Y679450D02*
X49813Y688339D01*
X53146Y688339D01*
X54480Y687783D01*
X55146Y686672D01*
X55146Y685561D01*
X54480Y684450D01*
X53146Y683894D01*
X49813Y683894D01*
G54D11*
X57590Y679450D02*
X57590Y688339D01*
G54D11*
X60034Y679450D02*
X63367Y688339D01*
X66701Y679450D01*
G54D11*
X61367Y682783D02*
X65367Y682783D01*
G54D11*
X69145Y688339D02*
X69145Y679450D01*
X73812Y679450D01*
G54D11*
X149225Y681117D02*
X149892Y680006D01*
X151225Y679450D01*
X152558Y679450D01*
X153892Y680006D01*
X154558Y681117D01*
X154558Y682228D01*
X153892Y683339D01*
X152558Y683894D01*
X151225Y683894D01*
X149892Y684450D01*
X149225Y685561D01*
X149225Y686672D01*
X149892Y687783D01*
X151225Y688339D01*
X152558Y688339D01*
X153892Y687783D01*
X154558Y686672D01*
G54D11*
X161669Y679450D02*
X157002Y679450D01*
X157002Y688339D01*
X161669Y688339D01*
G54D11*
X157002Y683894D02*
X161669Y683894D01*
G54D11*
X166780Y683894D02*
X168780Y682783D01*
X169446Y681672D01*
X169446Y679450D01*
G54D11*
X164113Y679450D02*
X164113Y688339D01*
X167446Y688339D01*
X168780Y687783D01*
X169446Y686672D01*
X169446Y685561D01*
X168780Y684450D01*
X167446Y683894D01*
X164113Y683894D01*
G54D11*
X171890Y679450D02*
X171890Y688339D01*
G54D11*
X174334Y679450D02*
X177667Y688339D01*
X181001Y679450D01*
G54D11*
X175667Y682783D02*
X179667Y682783D01*
G54D11*
X183445Y688339D02*
X183445Y679450D01*
X188112Y679450D01*
G54D11*
X263525Y688339D02*
X266858Y679450D01*
X270192Y688339D01*
G54D11*
X272636Y683339D02*
X277969Y683339D01*
G54D11*
X280413Y679450D02*
X280413Y688339D01*
G54D11*
X282857Y679450D02*
X282857Y688339D01*
X288190Y679450D01*
X288190Y688339D01*
G54D11*
X346075Y679450D02*
X346075Y688339D01*
X350742Y688339D01*
G54D11*
X346075Y683894D02*
X350742Y683894D01*
G54D11*
X353186Y679450D02*
X353186Y688339D01*
G54D11*
X355630Y688339D02*
X355630Y679450D01*
X360297Y679450D01*
G54D11*
X362741Y683339D02*
X368074Y683339D01*
G54D11*
X370518Y679450D02*
X370518Y688339D01*
G54D11*
X372962Y679450D02*
X372962Y688339D01*
X378295Y679450D01*
X378295Y688339D01*
G54D11*
X438150Y679450D02*
X438150Y688339D01*
X443483Y679450D01*
X443483Y688339D01*
G54D11*
X450594Y679450D02*
X445927Y679450D01*
X445927Y688339D01*
X450594Y688339D01*
G54D11*
X445927Y683894D02*
X450594Y683894D01*
G54D11*
X458371Y686672D02*
X458371Y681117D01*
X457705Y680006D01*
X456371Y679450D01*
X455038Y679450D01*
X453705Y680006D01*
X453038Y681117D01*
X453038Y686672D01*
X453705Y687783D01*
X455038Y688339D01*
X456371Y688339D01*
X457705Y687783D01*
X458371Y686672D01*
G54D11*
X460815Y679450D02*
X460815Y688339D01*
X464148Y688339D01*
X465482Y687783D01*
X466148Y686672D01*
X466148Y685561D01*
X465482Y684450D01*
X464148Y683894D01*
X460815Y683894D01*
G54D11*
X468592Y679450D02*
X468592Y688339D01*
G54D11*
X471036Y688339D02*
X477703Y679450D01*
G54D11*
X471036Y679450D02*
X477703Y688339D01*
G54D11*
X484814Y679450D02*
X480147Y679450D01*
X480147Y688339D01*
X484814Y688339D01*
G54D11*
X480147Y683894D02*
X484814Y683894D01*
G54D11*
X487258Y688339D02*
X487258Y679450D01*
X491925Y679450D01*
G54D11*
X546100Y679450D02*
X546100Y688339D01*
X550767Y688339D01*
G54D11*
X546100Y683894D02*
X550767Y683894D01*
G54D11*
X553211Y679450D02*
X556544Y688339D01*
X559878Y679450D01*
G54D11*
X554544Y682783D02*
X558544Y682783D01*
G54D11*
X562322Y679450D02*
X562322Y688339D01*
X567655Y679450D01*
X567655Y688339D01*
G54D11*
X570099Y683339D02*
X575432Y683339D01*
G54D11*
X577876Y679450D02*
X577876Y688339D01*
G54D11*
X580320Y679450D02*
X580320Y688339D01*
X585653Y679450D01*
X585653Y688339D01*
G54D11*
X761286Y657225D02*
X761286Y662558D01*
G54D11*
X759064Y659892D02*
X763508Y659892D01*
G54D11*
X761286Y672733D02*
X761286Y678066D01*
G54D11*
X663575Y950039D02*
X668908Y950039D01*
G54D11*
X679083Y950039D02*
X684416Y950039D01*
G54D11*
X681750Y952261D02*
X681750Y947817D01*
G54D11*
X491108Y964564D02*
X485775Y964564D01*
X485775Y960675D01*
X486442Y960675D01*
X487775Y961231D01*
X489108Y961231D01*
X490442Y960675D01*
X491108Y959564D01*
X491108Y957342D01*
X490442Y956231D01*
X489108Y955675D01*
X487775Y955675D01*
X486442Y956231D01*
X485775Y957342D01*
G54D11*
X493552Y964564D02*
X496885Y955675D01*
X500219Y964564D01*
G54D11*
X502663Y959564D02*
X507996Y959564D01*
G54D11*
X515773Y962897D02*
X515773Y957342D01*
X515107Y956231D01*
X513773Y955675D01*
X512440Y955675D01*
X511107Y956231D01*
X510440Y957342D01*
X510440Y962897D01*
X511107Y964008D01*
X512440Y964564D01*
X513773Y964564D01*
X515107Y964008D01*
X515773Y962897D01*
G54D11*
X518217Y964564D02*
X518217Y957342D01*
X518884Y956231D01*
X520217Y955675D01*
X521550Y955675D01*
X522884Y956231D01*
X523550Y957342D01*
X523550Y964564D01*
G54D11*
X528661Y955675D02*
X528661Y964564D01*
G54D11*
X525994Y964564D02*
X531327Y964564D01*
G54D11*
X403225Y964564D02*
X406558Y955675D01*
X409892Y964564D01*
G54D11*
X412336Y959564D02*
X417669Y959564D01*
G54D11*
X425446Y962897D02*
X425446Y957342D01*
X424780Y956231D01*
X423446Y955675D01*
X422113Y955675D01*
X420780Y956231D01*
X420113Y957342D01*
X420113Y962897D01*
X420780Y964008D01*
X422113Y964564D01*
X423446Y964564D01*
X424780Y964008D01*
X425446Y962897D01*
G54D11*
X427890Y964564D02*
X427890Y957342D01*
X428557Y956231D01*
X429890Y955675D01*
X431223Y955675D01*
X432557Y956231D01*
X433223Y957342D01*
X433223Y964564D01*
G54D11*
X438334Y955675D02*
X438334Y964564D01*
G54D11*
X435667Y964564D02*
X441000Y964564D01*
G54D10*
X31750Y828675D02*
X82550Y828675D01*
X82550Y863600D01*
X31750Y863600D01*
X31750Y828675D01*
G54D11*
X341291Y896246D02*
X346624Y896246D01*
G54D11*
X343957Y898468D02*
X343957Y894024D01*
G54D11*
X356799Y896246D02*
X362132Y896246D01*
G54D11*
X46016Y835921D02*
X51349Y835921D01*
G54D11*
X61524Y835921D02*
X66857Y835921D01*
G54D11*
X64190Y838143D02*
X64190Y833699D01*
G54D11*
X50800Y952500D02*
X50800Y961389D01*
X54133Y955833D01*
X57467Y961389D01*
X57467Y952500D01*
G54D11*
X59911Y959722D02*
X60578Y960833D01*
X61911Y961389D01*
X63244Y961389D01*
X64578Y960833D01*
X65244Y959722D01*
X65244Y958611D01*
X64578Y957500D01*
X63244Y956944D01*
X64578Y956389D01*
X65244Y955278D01*
X65244Y954167D01*
X64578Y953056D01*
X63244Y952500D01*
X61911Y952500D01*
X60578Y953056D01*
X59911Y954167D01*
G54D11*
X584200Y952500D02*
X584200Y961389D01*
X587533Y955833D01*
X590867Y961389D01*
X590867Y952500D01*
G54D11*
X593311Y959722D02*
X593978Y960833D01*
X595311Y961389D01*
X596644Y961389D01*
X597978Y960833D01*
X598644Y959722D01*
X598644Y958611D01*
X597978Y957500D01*
X596644Y956944D01*
X597978Y956389D01*
X598644Y955278D01*
X598644Y954167D01*
X597978Y953056D01*
X596644Y952500D01*
X595311Y952500D01*
X593978Y953056D01*
X593311Y954167D01*
G54D10*
X787400Y615950D02*
X781050Y615950D01*
X781050Y619125D01*
X857250Y619125D01*
X857250Y492125D01*
X781050Y492125D01*
X781050Y495300D01*
X787400Y495300D01*
G54D10*
X787400Y615950D02*
X793750Y615950D01*
X793750Y495300D01*
X787400Y495300D01*
G54D10*
X781050Y619125D02*
X742950Y619125D01*
X742950Y615950D01*
X781050Y615950D01*
G54D10*
X781050Y495300D02*
X742950Y495300D01*
X742950Y492125D01*
X781050Y492125D01*
G54D10*
X787400Y479425D02*
X781050Y479425D01*
X781050Y482600D01*
X857250Y482600D01*
X857250Y355600D01*
X781050Y355600D01*
X781050Y358775D01*
X787400Y358775D01*
G54D10*
X787400Y479425D02*
X793750Y479425D01*
X793750Y358775D01*
X787400Y358775D01*
G54D10*
X781050Y482600D02*
X742950Y482600D01*
X742950Y479425D01*
X781050Y479425D01*
G54D10*
X781050Y358775D02*
X742950Y358775D01*
X742950Y355600D01*
X781050Y355600D01*
G54D10*
X787400Y339725D02*
X781050Y339725D01*
X781050Y342900D01*
X857250Y342900D01*
X857250Y266700D01*
X781050Y266700D01*
X781050Y269875D01*
X787400Y269875D01*
G54D10*
X787400Y339725D02*
X793750Y339725D01*
X793750Y269875D01*
X787400Y269875D01*
G54D10*
X781050Y342900D02*
X742950Y342900D01*
X742950Y339725D01*
X781050Y339725D01*
G54D10*
X781050Y269875D02*
X742950Y269875D01*
X742950Y266700D01*
X781050Y266700D01*
G54D10*
X733425Y412750D02*
X733425Y419100D01*
X736600Y419100D01*
X736600Y342900D01*
X609600Y342900D01*
X609600Y419100D01*
X612775Y419100D01*
X612775Y412750D01*
G54D10*
X733425Y412750D02*
X733425Y406400D01*
X612775Y406400D01*
X612775Y412750D01*
G54D10*
X736600Y419100D02*
X736600Y457200D01*
X733425Y457200D01*
X733425Y419100D01*
G54D10*
X612775Y419100D02*
X612775Y457200D01*
X609600Y457200D01*
X609600Y419100D01*
G54D10*
X596900Y412750D02*
X596900Y419100D01*
X600075Y419100D01*
X600075Y342900D01*
X523875Y342900D01*
X523875Y419100D01*
X527050Y419100D01*
X527050Y412750D01*
G54D10*
X596900Y412750D02*
X596900Y406400D01*
X527050Y406400D01*
X527050Y412750D01*
G54D10*
X600075Y419100D02*
X600075Y457200D01*
X596900Y457200D01*
X596900Y419100D01*
G54D10*
X527050Y419100D02*
X527050Y457200D01*
X523875Y457200D01*
X523875Y419100D01*
G54D10*
X400050Y412750D02*
X400050Y419100D01*
X403225Y419100D01*
X403225Y342900D01*
X327025Y342900D01*
X327025Y419100D01*
X330200Y419100D01*
X330200Y412750D01*
G54D10*
X400050Y412750D02*
X400050Y406400D01*
X330200Y406400D01*
X330200Y412750D01*
G54D10*
X403225Y419100D02*
X403225Y457200D01*
X400050Y457200D01*
X400050Y419100D01*
G54D10*
X330200Y419100D02*
X330200Y457200D01*
X327025Y457200D01*
X327025Y419100D01*
G54D10*
X638175Y504825D02*
X638175Y498475D01*
X635000Y498475D01*
X635000Y574675D01*
X711200Y574675D01*
X711200Y498475D01*
X708025Y498475D01*
X708025Y504825D01*
G54D10*
X638175Y504825D02*
X638175Y511175D01*
X708025Y511175D01*
X708025Y504825D01*
G54D10*
X635000Y498475D02*
X635000Y460375D01*
X638175Y460375D01*
X638175Y498475D01*
G54D10*
X708025Y498475D02*
X708025Y460375D01*
X711200Y460375D01*
X711200Y498475D01*
G54D10*
X511175Y412750D02*
X511175Y419100D01*
X514350Y419100D01*
X514350Y342900D01*
X412750Y342900D01*
X412750Y419100D01*
X415925Y419100D01*
X415925Y412750D01*
G54D10*
X511175Y412750D02*
X511175Y406400D01*
X415925Y406400D01*
X415925Y412750D01*
G54D10*
X514350Y419100D02*
X514350Y457200D01*
X511175Y457200D01*
X511175Y419100D01*
G54D10*
X415925Y419100D02*
X415925Y457200D01*
X412750Y457200D01*
X412750Y419100D01*
G54D10*
X103188Y460375D02*
X207962Y460375D01*
X207963Y625475D01*
X103188Y625475D01*
X103188Y460375D01*
G54D10*
X117475Y460375D02*
X117475Y485775D01*
X193675Y485775D01*
X193675Y460375D01*
G54D11*
X135508Y512047D02*
X135508Y506491D01*
X134842Y505380D01*
X133508Y504825D01*
X132175Y504825D01*
X130842Y505380D01*
X130175Y506491D01*
X130175Y512047D01*
X130842Y513158D01*
X132175Y513714D01*
X133508Y513714D01*
X134842Y513158D01*
X135508Y512047D01*
G54D11*
X137952Y504825D02*
X137952Y513714D01*
G54D11*
X137952Y507602D02*
X143285Y513714D01*
G54D11*
X139952Y509269D02*
X143285Y504825D01*
G54D11*
X145729Y504825D02*
X145729Y513714D01*
G54D11*
X148173Y508714D02*
X153506Y508714D01*
G54D11*
X155950Y513714D02*
X161284Y513714D01*
X160617Y512603D01*
X159283Y510936D01*
X157950Y508714D01*
X157283Y507047D01*
X157283Y504825D01*
G54D11*
X167060Y509269D02*
X165727Y509269D01*
X164394Y509825D01*
X163727Y510936D01*
X163727Y512047D01*
X164394Y513158D01*
X165727Y513714D01*
X167060Y513714D01*
X168394Y513158D01*
X169060Y512047D01*
X169060Y510936D01*
X168394Y509825D01*
X167060Y509269D01*
X168394Y508714D01*
X169060Y507602D01*
X169060Y506491D01*
X168394Y505380D01*
X167060Y504825D01*
X165727Y504825D01*
X164394Y505380D01*
X163727Y506491D01*
X163727Y507602D01*
X164394Y508714D01*
X165727Y509269D01*
G54D11*
X171504Y506491D02*
X172171Y505380D01*
X173504Y504825D01*
X174837Y504825D01*
X176171Y505380D01*
X176837Y506491D01*
X176837Y507602D01*
X176171Y508714D01*
X174837Y509269D01*
X173504Y509269D01*
X172171Y509825D01*
X171504Y510936D01*
X171504Y512047D01*
X172171Y513158D01*
X173504Y513714D01*
X174838Y513714D01*
X176171Y513158D01*
X176837Y512047D01*
G54D11*
X181948Y509269D02*
X183948Y508158D01*
X184614Y507047D01*
X184614Y504825D01*
G54D11*
X179281Y504825D02*
X179281Y513714D01*
X182614Y513714D01*
X183948Y513158D01*
X184614Y512047D01*
X184614Y510936D01*
X183948Y509825D01*
X182614Y509269D01*
X179281Y509269D01*
G54D11*
X135112Y499347D02*
X135112Y493791D01*
X134445Y492680D01*
X133112Y492125D01*
X131778Y492125D01*
X130445Y492680D01*
X129778Y493791D01*
X129778Y499347D01*
X130445Y500458D01*
X131778Y501014D01*
X133112Y501014D01*
X134445Y500458D01*
X135112Y499347D01*
G54D11*
X158242Y496569D02*
X160908Y496569D01*
X160908Y493791D01*
X160242Y492680D01*
X158908Y492125D01*
X157575Y492125D01*
X156242Y492680D01*
X155575Y493791D01*
X155575Y499347D01*
X156242Y500458D01*
X157575Y501014D01*
X158908Y501014D01*
X160242Y500458D01*
X160908Y499347D01*
G54D11*
X180975Y492125D02*
X180975Y501014D01*
G54D10*
X473075Y504825D02*
X473075Y498475D01*
X469900Y498475D01*
X469900Y574675D01*
X546100Y574675D01*
X546100Y498475D01*
X542925Y498475D01*
X542925Y504825D01*
G54D10*
X473075Y504825D02*
X473075Y511175D01*
X542925Y511175D01*
X542925Y504825D01*
G54D10*
X469900Y498475D02*
X469900Y460375D01*
X473075Y460375D01*
X473075Y498475D01*
G54D10*
X542925Y498475D02*
X542925Y460375D01*
X546100Y460375D01*
X546100Y498475D01*
G54D10*
X214313Y460375D02*
X319088Y460375D01*
X319088Y625475D01*
X214312Y625475D01*
X214313Y460375D01*
G54D10*
X228600Y460375D02*
X228600Y485775D01*
X304800Y485775D01*
X304800Y460375D01*
G54D11*
X246633Y512047D02*
X246633Y506491D01*
X245967Y505380D01*
X244633Y504825D01*
X243300Y504825D01*
X241967Y505380D01*
X241300Y506491D01*
X241300Y512047D01*
X241967Y513158D01*
X243300Y513714D01*
X244633Y513714D01*
X245967Y513158D01*
X246633Y512047D01*
G54D11*
X249077Y504825D02*
X249077Y513714D01*
G54D11*
X249077Y507602D02*
X254410Y513714D01*
G54D11*
X251077Y509269D02*
X254410Y504825D01*
G54D11*
X256854Y504825D02*
X256854Y513714D01*
G54D11*
X259298Y508714D02*
X264631Y508714D01*
G54D11*
X267075Y513714D02*
X272408Y513714D01*
X271742Y512603D01*
X270408Y510936D01*
X269075Y508714D01*
X268408Y507047D01*
X268408Y504825D01*
G54D11*
X278185Y509269D02*
X276852Y509269D01*
X275519Y509825D01*
X274852Y510936D01*
X274852Y512047D01*
X275519Y513158D01*
X276852Y513714D01*
X278185Y513714D01*
X279519Y513158D01*
X280185Y512047D01*
X280185Y510936D01*
X279519Y509825D01*
X278185Y509269D01*
X279519Y508714D01*
X280185Y507603D01*
X280185Y506491D01*
X279519Y505380D01*
X278186Y504825D01*
X276852Y504825D01*
X275519Y505380D01*
X274852Y506491D01*
X274852Y507603D01*
X275519Y508714D01*
X276852Y509269D01*
G54D11*
X282629Y506491D02*
X283296Y505380D01*
X284629Y504825D01*
X285962Y504825D01*
X287296Y505380D01*
X287962Y506491D01*
X287962Y507602D01*
X287296Y508714D01*
X285962Y509269D01*
X284629Y509269D01*
X283296Y509825D01*
X282629Y510936D01*
X282629Y512047D01*
X283296Y513158D01*
X284629Y513714D01*
X285962Y513714D01*
X287296Y513158D01*
X287962Y512047D01*
G54D11*
X293073Y509269D02*
X295073Y508158D01*
X295739Y507047D01*
X295739Y504825D01*
G54D11*
X290406Y504825D02*
X290406Y513714D01*
X293739Y513714D01*
X295073Y513158D01*
X295739Y512047D01*
X295739Y510936D01*
X295073Y509825D01*
X293739Y509269D01*
X290406Y509269D01*
G54D11*
X246237Y499347D02*
X246237Y493791D01*
X245570Y492680D01*
X244237Y492125D01*
X242903Y492125D01*
X241570Y492680D01*
X240903Y493791D01*
X240903Y499347D01*
X241570Y500458D01*
X242903Y501014D01*
X244237Y501014D01*
X245570Y500458D01*
X246237Y499347D01*
G54D11*
X269367Y496569D02*
X272033Y496569D01*
X272033Y493791D01*
X271367Y492680D01*
X270033Y492125D01*
X268700Y492125D01*
X267367Y492680D01*
X266700Y493791D01*
X266700Y499347D01*
X267367Y500458D01*
X268700Y501014D01*
X270033Y501014D01*
X271367Y500458D01*
X272033Y499347D01*
G54D11*
X292100Y492125D02*
X292100Y501014D01*
G54D11*
X753111Y542925D02*
X753111Y548258D01*
X762000Y542925D01*
X762000Y548258D01*
G54D11*
X758111Y550702D02*
X758111Y556035D01*
G54D11*
X756444Y558479D02*
X753111Y561812D01*
X762000Y561812D01*
G54D11*
X753111Y409575D02*
X753111Y414908D01*
X762000Y409575D01*
X762000Y414908D01*
G54D11*
X758111Y417352D02*
X758111Y422685D01*
G54D11*
X762000Y430462D02*
X762000Y425129D01*
X761445Y425129D01*
X760333Y425796D01*
X757000Y429796D01*
X755889Y430462D01*
X754778Y430462D01*
X753667Y429796D01*
X753111Y428462D01*
X753111Y427129D01*
X753667Y425796D01*
X754778Y425129D01*
G54D11*
X663575Y335914D02*
X668908Y335914D01*
X663575Y327025D01*
X668908Y327025D01*
G54D11*
X671352Y330914D02*
X676685Y330914D01*
G54D11*
X679129Y327025D02*
X679129Y335914D01*
G54D11*
X681573Y327025D02*
X681573Y335914D01*
X686906Y327025D01*
X686906Y335914D01*
G54D11*
X752475Y292100D02*
X743586Y292100D01*
X743586Y296767D01*
G54D11*
X748031Y292100D02*
X748031Y296767D01*
G54D11*
X752475Y299211D02*
X743586Y302544D01*
X752475Y305878D01*
G54D11*
X749142Y300544D02*
X749142Y304544D01*
G54D11*
X752475Y308322D02*
X743586Y308322D01*
X752475Y313655D01*
X743586Y313655D01*
G54D11*
X663575Y593725D02*
X663575Y602614D01*
X668242Y602614D01*
G54D11*
X663575Y598169D02*
X668242Y598169D01*
G54D11*
X670686Y593725D02*
X674019Y602614D01*
X677353Y593725D01*
G54D11*
X672019Y597058D02*
X676019Y597058D01*
G54D11*
X679797Y593725D02*
X679797Y602614D01*
X685130Y593725D01*
X685130Y602614D01*
G54D11*
X555625Y334089D02*
X560958Y334089D01*
G54D11*
X558292Y336311D02*
X558292Y331867D01*
G54D11*
X571133Y334089D02*
X576466Y334089D01*
G54D11*
X434467Y334644D02*
X437133Y334644D01*
X437133Y331867D01*
X436467Y330756D01*
X435133Y330200D01*
X433800Y330200D01*
X432467Y330756D01*
X431800Y331867D01*
X431800Y337422D01*
X432467Y338533D01*
X433800Y339089D01*
X435133Y339089D01*
X436467Y338533D01*
X437133Y337422D01*
G54D11*
X439577Y330200D02*
X439577Y339089D01*
X444910Y330200D01*
X444910Y339089D01*
G54D11*
X447354Y330200D02*
X447354Y339089D01*
X450687Y339089D01*
X452021Y338533D01*
X452687Y337422D01*
X452687Y331867D01*
X452021Y330756D01*
X450687Y330200D01*
X447354Y330200D01*
G54D11*
X462862Y331867D02*
X463529Y330756D01*
X464862Y330200D01*
X466195Y330200D01*
X467529Y330756D01*
X468195Y331867D01*
X468195Y332978D01*
X467529Y334089D01*
X466195Y334644D01*
X464862Y334644D01*
X463529Y335200D01*
X462862Y336311D01*
X462862Y337422D01*
X463529Y338533D01*
X464862Y339089D01*
X466195Y339089D01*
X467529Y338533D01*
X468195Y337422D01*
G54D11*
X470639Y330200D02*
X470639Y339089D01*
G54D11*
X475750Y334644D02*
X478416Y334644D01*
X478416Y331867D01*
X477750Y330756D01*
X476416Y330200D01*
X475083Y330200D01*
X473750Y330756D01*
X473083Y331867D01*
X473083Y337422D01*
X473750Y338533D01*
X475083Y339089D01*
X476416Y339089D01*
X477750Y338533D01*
X478416Y337422D01*
G54D11*
X493924Y339089D02*
X488591Y339089D01*
X488591Y335200D01*
X489258Y335200D01*
X490591Y335756D01*
X491924Y335756D01*
X493258Y335200D01*
X493924Y334089D01*
X493924Y331867D01*
X493258Y330756D01*
X491924Y330200D01*
X490591Y330200D01*
X489258Y330756D01*
X488591Y331867D01*
G54D11*
X496368Y339089D02*
X499701Y330200D01*
X503035Y339089D01*
G54D11*
X491108Y586739D02*
X485775Y586739D01*
X485775Y582850D01*
X486442Y582850D01*
X487775Y583406D01*
X489108Y583406D01*
X490442Y582850D01*
X491108Y581739D01*
X491108Y579517D01*
X490442Y578406D01*
X489108Y577850D01*
X487775Y577850D01*
X486442Y578406D01*
X485775Y579517D01*
G54D11*
X493552Y586739D02*
X496885Y577850D01*
X500219Y586739D01*
G54D11*
X513061Y582294D02*
X515727Y582294D01*
X515727Y579517D01*
X515061Y578406D01*
X513727Y577850D01*
X512394Y577850D01*
X511061Y578406D01*
X510394Y579517D01*
X510394Y585072D01*
X511061Y586183D01*
X512394Y586739D01*
X513727Y586739D01*
X515061Y586183D01*
X515727Y585072D01*
G54D11*
X518171Y577850D02*
X518171Y586739D01*
X523504Y577850D01*
X523504Y586739D01*
G54D11*
X525948Y577850D02*
X525948Y586739D01*
X529281Y586739D01*
X530615Y586183D01*
X531281Y585072D01*
X531281Y579517D01*
X530615Y578406D01*
X529281Y577850D01*
X525948Y577850D01*
G54D11*
X346075Y330200D02*
X346075Y339089D01*
X351408Y330200D01*
X351408Y339089D01*
G54D11*
X359185Y331867D02*
X358519Y330756D01*
X357185Y330200D01*
X355852Y330200D01*
X354519Y330756D01*
X353852Y331867D01*
X353852Y337422D01*
X354519Y338533D01*
X355852Y339089D01*
X357185Y339089D01*
X358519Y338533D01*
X359185Y337422D01*
G54D11*
X369360Y331867D02*
X370027Y330756D01*
X371360Y330200D01*
X372693Y330200D01*
X374027Y330756D01*
X374693Y331867D01*
X374693Y332978D01*
X374027Y334089D01*
X372693Y334644D01*
X371360Y334644D01*
X370027Y335200D01*
X369360Y336311D01*
X369360Y337422D01*
X370027Y338533D01*
X371360Y339089D01*
X372693Y339089D01*
X374027Y338533D01*
X374693Y337422D01*
G54D11*
X377137Y330200D02*
X377137Y339089D01*
G54D11*
X382248Y334644D02*
X384914Y334644D01*
X384914Y331867D01*
X384248Y330756D01*
X382914Y330200D01*
X381581Y330200D01*
X380248Y330756D01*
X379581Y331867D01*
X379581Y337422D01*
X380248Y338533D01*
X381581Y339089D01*
X382914Y339089D01*
X384248Y338533D01*
X384914Y337422D01*
G54D11*
X253492Y334644D02*
X256158Y334644D01*
X256158Y331867D01*
X255492Y330756D01*
X254158Y330200D01*
X252825Y330200D01*
X251492Y330756D01*
X250825Y331867D01*
X250825Y337422D01*
X251492Y338533D01*
X252825Y339089D01*
X254158Y339089D01*
X255492Y338533D01*
X256158Y337422D01*
G54D11*
X258602Y330200D02*
X258602Y339089D01*
X263935Y330200D01*
X263935Y339089D01*
G54D11*
X266379Y330200D02*
X266379Y339089D01*
X269712Y339089D01*
X271046Y338533D01*
X271712Y337422D01*
X271712Y331867D01*
X271046Y330756D01*
X269712Y330200D01*
X266379Y330200D01*
G54D11*
X281887Y339089D02*
X285220Y330200D01*
X288554Y339089D01*
G54D11*
X296331Y331867D02*
X295665Y330756D01*
X294331Y330200D01*
X292998Y330200D01*
X291665Y330756D01*
X290998Y331867D01*
X290998Y337422D01*
X291665Y338533D01*
X292998Y339089D01*
X294331Y339089D01*
X295665Y338533D01*
X296331Y337422D01*
G54D11*
X304108Y331867D02*
X303442Y330756D01*
X302108Y330200D01*
X300775Y330200D01*
X299442Y330756D01*
X298775Y331867D01*
X298775Y337422D01*
X299442Y338533D01*
X300775Y339089D01*
X302108Y339089D01*
X303442Y338533D01*
X304108Y337422D01*
G54D11*
X129667Y334644D02*
X131667Y333533D01*
X132333Y332422D01*
X132333Y330200D01*
G54D11*
X127000Y330200D02*
X127000Y339089D01*
X130333Y339089D01*
X131667Y338533D01*
X132333Y337422D01*
X132333Y336311D01*
X131667Y335200D01*
X130333Y334644D01*
X127000Y334644D01*
G54D11*
X134777Y339089D02*
X141444Y330200D01*
G54D11*
X134777Y330200D02*
X141444Y339089D01*
G54D11*
X151709Y330200D02*
X151709Y339089D01*
G54D11*
X149042Y339089D02*
X154375Y339089D01*
G54D11*
X156819Y339089D02*
X163486Y330200D01*
G54D11*
X156819Y330200D02*
X163486Y339089D01*
G54D11*
X176417Y339089D02*
X171084Y339089D01*
X171084Y335200D01*
X171751Y335200D01*
X173084Y335756D01*
X174417Y335756D01*
X175751Y335200D01*
X176417Y334089D01*
X176417Y331867D01*
X175751Y330756D01*
X174417Y330200D01*
X173084Y330200D01*
X171751Y330756D01*
X171084Y331867D01*
G54D11*
X178861Y339089D02*
X182194Y330200D01*
X185528Y339089D01*
G54D11*
X195793Y334644D02*
X198459Y334644D01*
X198459Y331867D01*
X197793Y330756D01*
X196459Y330200D01*
X195126Y330200D01*
X193793Y330756D01*
X193126Y331867D01*
X193126Y337422D01*
X193793Y338533D01*
X195126Y339089D01*
X196459Y339089D01*
X197793Y338533D01*
X198459Y337422D01*
G54D11*
X200903Y330200D02*
X200903Y339089D01*
X206236Y330200D01*
X206236Y339089D01*
G54D11*
X208680Y330200D02*
X208680Y339089D01*
X212013Y339089D01*
X213347Y338533D01*
X214013Y337422D01*
X214013Y331867D01*
X213347Y330756D01*
X212013Y330200D01*
X208680Y330200D01*
G54D10*
X228600Y412750D02*
X228600Y419100D01*
X231775Y419100D01*
X231775Y342900D01*
X104775Y342900D01*
X104775Y419100D01*
X107950Y419100D01*
X107950Y412750D01*
G54D10*
X228600Y412750D02*
X228600Y406400D01*
X107950Y406400D01*
X107950Y412750D01*
G54D10*
X231775Y419100D02*
X231775Y457200D01*
X228600Y457200D01*
X228600Y419100D01*
G54D10*
X107950Y419100D02*
X107950Y457200D01*
X104775Y457200D01*
X104775Y419100D01*
G54D10*
X314325Y412750D02*
X314325Y419100D01*
X317500Y419100D01*
X317500Y342900D01*
X241300Y342900D01*
X241300Y419100D01*
X244475Y419100D01*
X244475Y412750D01*
G54D10*
X314325Y412750D02*
X314325Y406400D01*
X244475Y406400D01*
X244475Y412750D01*
G54D10*
X317500Y419100D02*
X317500Y457200D01*
X314325Y457200D01*
X314325Y419100D01*
G54D10*
X244475Y419100D02*
X244475Y457200D01*
X241300Y457200D01*
X241300Y419100D01*
G54D10*
X92075Y412750D02*
X92075Y419100D01*
X95250Y419100D01*
X95250Y342900D01*
X19050Y342900D01*
X19050Y419100D01*
X22225Y419100D01*
X22225Y412750D01*
G54D10*
X92075Y412750D02*
X92075Y406400D01*
X22225Y406400D01*
X22225Y412750D01*
G54D10*
X95250Y419100D02*
X95250Y457200D01*
X92075Y457200D01*
X92075Y419100D01*
G54D10*
X22225Y419100D02*
X22225Y457200D01*
X19050Y457200D01*
X19050Y419100D01*
G54D10*
X584200Y493712D02*
X627459Y493712D01*
X627459Y465138D01*
X584200Y465138D01*
X584200Y493712D01*
G54D10*
X387350Y504825D02*
X387350Y498475D01*
X384175Y498475D01*
X384175Y574675D01*
X460375Y574675D01*
X460375Y498475D01*
X457200Y498475D01*
X457200Y504825D01*
G54D10*
X387350Y504825D02*
X387350Y511175D01*
X457200Y511175D01*
X457200Y504825D01*
G54D10*
X384175Y498475D02*
X384175Y460375D01*
X387350Y460375D01*
X387350Y498475D01*
G54D10*
X457200Y498475D02*
X457200Y460375D01*
X460375Y460375D01*
X460375Y498475D01*
G54D11*
X393700Y586739D02*
X397033Y577850D01*
X400367Y586739D01*
G54D11*
X408144Y579517D02*
X407478Y578406D01*
X406144Y577850D01*
X404811Y577850D01*
X403478Y578406D01*
X402811Y579517D01*
X402811Y585072D01*
X403478Y586183D01*
X404811Y586739D01*
X406144Y586739D01*
X407478Y586183D01*
X408144Y585072D01*
G54D11*
X415921Y579517D02*
X415255Y578406D01*
X413921Y577850D01*
X412588Y577850D01*
X411255Y578406D01*
X410588Y579517D01*
X410588Y585072D01*
X411255Y586183D01*
X412588Y586739D01*
X413921Y586739D01*
X415255Y586183D01*
X415921Y585072D01*
G54D11*
X428763Y582294D02*
X431429Y582294D01*
X431429Y579517D01*
X430763Y578406D01*
X429429Y577850D01*
X428096Y577850D01*
X426763Y578406D01*
X426096Y579517D01*
X426096Y585072D01*
X426763Y586183D01*
X428096Y586739D01*
X429429Y586739D01*
X430763Y586183D01*
X431429Y585072D01*
G54D11*
X433873Y577850D02*
X433873Y586739D01*
X439206Y577850D01*
X439206Y586739D01*
G54D11*
X441650Y577850D02*
X441650Y586739D01*
X444983Y586739D01*
X446317Y586183D01*
X446983Y585072D01*
X446983Y579517D01*
X446317Y578406D01*
X444983Y577850D01*
X441650Y577850D01*
G54D11*
X37592Y334644D02*
X39592Y333533D01*
X40258Y332422D01*
X40258Y330200D01*
G54D11*
X34925Y330200D02*
X34925Y339089D01*
X38258Y339089D01*
X39592Y338533D01*
X40258Y337422D01*
X40258Y336311D01*
X39592Y335200D01*
X38258Y334644D01*
X34925Y334644D01*
G54D11*
X42702Y339089D02*
X49369Y330200D01*
G54D11*
X42702Y330200D02*
X49369Y339089D01*
G54D11*
X59634Y330200D02*
X59634Y339089D01*
G54D11*
X56967Y339089D02*
X62300Y339089D01*
G54D11*
X64744Y339089D02*
X71411Y330200D01*
G54D11*
X64744Y330200D02*
X71411Y339089D01*
G54D12*
X427150Y476225D02*
X449150Y476225D01*
X449150Y438225D01*
X427150Y438225D01*
X427150Y476225D01*
G54D10*
X333375Y487362D02*
X376634Y487362D01*
X376634Y458788D01*
X333375Y458788D01*
X333375Y487362D01*
G54D10*
X323850Y523875D02*
X377825Y523875D01*
X377825Y619125D01*
X323850Y619125D01*
X323850Y523875D01*
G54D11*
X34925Y315992D02*
X35592Y314881D01*
X36925Y314325D01*
X38258Y314325D01*
X39592Y314881D01*
X40258Y315992D01*
X40258Y317103D01*
X39592Y318214D01*
X38258Y318769D01*
X36925Y318769D01*
X35592Y319325D01*
X34925Y320436D01*
X34925Y321547D01*
X35592Y322658D01*
X36925Y323214D01*
X38258Y323214D01*
X39592Y322658D01*
X40258Y321547D01*
G54D11*
X47369Y314325D02*
X42702Y314325D01*
X42702Y323214D01*
X47369Y323214D01*
G54D11*
X42702Y318769D02*
X47369Y318769D01*
G54D11*
X52480Y318769D02*
X54480Y317658D01*
X55146Y316547D01*
X55146Y314325D01*
G54D11*
X49813Y314325D02*
X49813Y323214D01*
X53146Y323214D01*
X54480Y322658D01*
X55146Y321547D01*
X55146Y320436D01*
X54480Y319325D01*
X53146Y318769D01*
X49813Y318769D01*
G54D11*
X57590Y314325D02*
X57590Y323214D01*
G54D11*
X60034Y314325D02*
X63367Y323214D01*
X66701Y314325D01*
G54D11*
X61367Y317658D02*
X65367Y317658D01*
G54D11*
X69145Y323214D02*
X69145Y314325D01*
X73812Y314325D01*
G54D11*
X149225Y315992D02*
X149892Y314881D01*
X151225Y314325D01*
X152558Y314325D01*
X153892Y314881D01*
X154558Y315992D01*
X154558Y317103D01*
X153892Y318214D01*
X152558Y318769D01*
X151225Y318769D01*
X149892Y319325D01*
X149225Y320436D01*
X149225Y321547D01*
X149892Y322658D01*
X151225Y323214D01*
X152558Y323214D01*
X153892Y322658D01*
X154558Y321547D01*
G54D11*
X161669Y314325D02*
X157002Y314325D01*
X157002Y323214D01*
X161669Y323214D01*
G54D11*
X157002Y318769D02*
X161669Y318769D01*
G54D11*
X166780Y318769D02*
X168780Y317658D01*
X169446Y316547D01*
X169446Y314325D01*
G54D11*
X164113Y314325D02*
X164113Y323214D01*
X167446Y323214D01*
X168780Y322658D01*
X169446Y321547D01*
X169446Y320436D01*
X168780Y319325D01*
X167446Y318769D01*
X164113Y318769D01*
G54D11*
X171890Y314325D02*
X171890Y323214D01*
G54D11*
X174334Y314325D02*
X177667Y323214D01*
X181001Y314325D01*
G54D11*
X175667Y317658D02*
X179667Y317658D01*
G54D11*
X183445Y323214D02*
X183445Y314325D01*
X188112Y314325D01*
G54D11*
X263525Y323214D02*
X266858Y314325D01*
X270192Y323214D01*
G54D11*
X272636Y318214D02*
X277969Y318214D01*
G54D11*
X280413Y314325D02*
X280413Y323214D01*
G54D11*
X282857Y314325D02*
X282857Y323214D01*
X288190Y314325D01*
X288190Y323214D01*
G54D11*
X346075Y314325D02*
X346075Y323214D01*
X350742Y323214D01*
G54D11*
X346075Y318769D02*
X350742Y318769D01*
G54D11*
X353186Y314325D02*
X353186Y323214D01*
G54D11*
X355630Y323214D02*
X355630Y314325D01*
X360297Y314325D01*
G54D11*
X362741Y318214D02*
X368074Y318214D01*
G54D11*
X370518Y314325D02*
X370518Y323214D01*
G54D11*
X372962Y314325D02*
X372962Y323214D01*
X378295Y314325D01*
X378295Y323214D01*
G54D11*
X438150Y314325D02*
X438150Y323214D01*
X443483Y314325D01*
X443483Y323214D01*
G54D11*
X450594Y314325D02*
X445927Y314325D01*
X445927Y323214D01*
X450594Y323214D01*
G54D11*
X445927Y318769D02*
X450594Y318769D01*
G54D11*
X458371Y321547D02*
X458371Y315992D01*
X457705Y314881D01*
X456371Y314325D01*
X455038Y314325D01*
X453705Y314881D01*
X453038Y315992D01*
X453038Y321547D01*
X453705Y322658D01*
X455038Y323214D01*
X456371Y323214D01*
X457705Y322658D01*
X458371Y321547D01*
G54D11*
X460815Y314325D02*
X460815Y323214D01*
X464148Y323214D01*
X465482Y322658D01*
X466148Y321547D01*
X466148Y320436D01*
X465482Y319325D01*
X464148Y318769D01*
X460815Y318769D01*
G54D11*
X468592Y314325D02*
X468592Y323214D01*
G54D11*
X471036Y323214D02*
X477703Y314325D01*
G54D11*
X471036Y314325D02*
X477703Y323214D01*
G54D11*
X484814Y314325D02*
X480147Y314325D01*
X480147Y323214D01*
X484814Y323214D01*
G54D11*
X480147Y318769D02*
X484814Y318769D01*
G54D11*
X487258Y323214D02*
X487258Y314325D01*
X491925Y314325D01*
G54D11*
X546100Y314325D02*
X546100Y323214D01*
X550767Y323214D01*
G54D11*
X546100Y318769D02*
X550767Y318769D01*
G54D11*
X553211Y314325D02*
X556544Y323214D01*
X559878Y314325D01*
G54D11*
X554544Y317658D02*
X558544Y317658D01*
G54D11*
X562322Y314325D02*
X562322Y323214D01*
X567655Y314325D01*
X567655Y323214D01*
G54D11*
X570099Y318214D02*
X575432Y318214D01*
G54D11*
X577876Y314325D02*
X577876Y323214D01*
G54D11*
X580320Y314325D02*
X580320Y323214D01*
X585653Y314325D01*
X585653Y323214D01*
G54D11*
X761286Y292100D02*
X761286Y297433D01*
G54D11*
X759064Y294767D02*
X763508Y294767D01*
G54D11*
X761286Y307608D02*
X761286Y312941D01*
G54D11*
X663575Y584914D02*
X668908Y584914D01*
G54D11*
X679083Y584914D02*
X684416Y584914D01*
G54D11*
X681750Y587136D02*
X681750Y582692D01*
G54D11*
X491108Y599439D02*
X485775Y599439D01*
X485775Y595550D01*
X486442Y595550D01*
X487775Y596106D01*
X489108Y596106D01*
X490442Y595550D01*
X491108Y594439D01*
X491108Y592217D01*
X490442Y591106D01*
X489108Y590550D01*
X487775Y590550D01*
X486442Y591106D01*
X485775Y592217D01*
G54D11*
X493552Y599439D02*
X496885Y590550D01*
X500219Y599439D01*
G54D11*
X502663Y594439D02*
X507996Y594439D01*
G54D11*
X515773Y597772D02*
X515773Y592217D01*
X515107Y591106D01*
X513773Y590550D01*
X512440Y590550D01*
X511107Y591106D01*
X510440Y592217D01*
X510440Y597772D01*
X511107Y598883D01*
X512440Y599439D01*
X513773Y599439D01*
X515107Y598883D01*
X515773Y597772D01*
G54D11*
X518217Y599439D02*
X518217Y592217D01*
X518884Y591106D01*
X520217Y590550D01*
X521550Y590550D01*
X522884Y591106D01*
X523550Y592217D01*
X523550Y599439D01*
G54D11*
X528661Y590550D02*
X528661Y599439D01*
G54D11*
X525994Y599439D02*
X531327Y599439D01*
G54D11*
X403225Y599439D02*
X406558Y590550D01*
X409892Y599439D01*
G54D11*
X412336Y594439D02*
X417669Y594439D01*
G54D11*
X425446Y597772D02*
X425446Y592217D01*
X424780Y591106D01*
X423446Y590550D01*
X422113Y590550D01*
X420780Y591106D01*
X420113Y592217D01*
X420113Y597772D01*
X420780Y598883D01*
X422113Y599439D01*
X423446Y599439D01*
X424780Y598883D01*
X425446Y597772D01*
G54D11*
X427890Y599439D02*
X427890Y592217D01*
X428557Y591106D01*
X429890Y590550D01*
X431223Y590550D01*
X432557Y591106D01*
X433223Y592217D01*
X433223Y599439D01*
G54D11*
X438334Y590550D02*
X438334Y599439D01*
G54D11*
X435667Y599439D02*
X441000Y599439D01*
G54D10*
X31750Y463550D02*
X82550Y463550D01*
X82550Y498475D01*
X31750Y498475D01*
X31750Y463550D01*
G54D11*
X341291Y531121D02*
X346624Y531121D01*
G54D11*
X343957Y533343D02*
X343957Y528898D01*
G54D11*
X356799Y531121D02*
X362132Y531121D01*
G54D11*
X46016Y470796D02*
X51349Y470796D01*
G54D11*
X61524Y470796D02*
X66857Y470796D01*
G54D11*
X64190Y473018D02*
X64190Y468574D01*
G54D11*
X50800Y587375D02*
X50800Y596264D01*
X54133Y590708D01*
X57467Y596264D01*
X57467Y587375D01*
G54D11*
X59911Y594597D02*
X60578Y595708D01*
X61911Y596264D01*
X63244Y596264D01*
X64578Y595708D01*
X65244Y594597D01*
X65244Y593486D01*
X64578Y592375D01*
X63244Y591819D01*
X64578Y591264D01*
X65244Y590153D01*
X65244Y589042D01*
X64578Y587931D01*
X63244Y587375D01*
X61911Y587375D01*
X60578Y587931D01*
X59911Y589042D01*
G54D11*
X584200Y587375D02*
X584200Y596264D01*
X587533Y590708D01*
X590867Y596264D01*
X590867Y587375D01*
G54D11*
X593311Y594597D02*
X593978Y595708D01*
X595311Y596264D01*
X596644Y596264D01*
X597978Y595708D01*
X598644Y594597D01*
X598644Y593486D01*
X597978Y592375D01*
X596644Y591819D01*
X597978Y591264D01*
X598644Y590153D01*
X598644Y589042D01*
X597978Y587931D01*
X596644Y587375D01*
X595311Y587375D01*
X593978Y587931D01*
X593311Y589042D01*
M02*
