%FSLAX34Y34*%
%MOMM*%
%LNSOLDERMASK_TOP*%
G71*
G01*
%ADD10C, 7.60*%
%ADD11C, 2.40*%
%ADD12R, 1.20X2.70*%
%ADD13R, 1.80X1.50*%
%ADD14C, 2.40*%
%LPD*%
X60325Y908050D02*
G54D10*
D03*
X590550Y908050D02*
G54D10*
D03*
X781050Y958850D02*
G54D11*
D03*
X781050Y933450D02*
G54D11*
D03*
X781050Y908050D02*
G54D11*
D03*
X781050Y882650D02*
G54D11*
D03*
X781050Y822325D02*
G54D11*
D03*
X781050Y796925D02*
G54D11*
D03*
X781050Y771525D02*
G54D11*
D03*
X781050Y746125D02*
G54D11*
D03*
X781050Y682625D02*
G54D11*
D03*
X781050Y657225D02*
G54D11*
D03*
X711200Y784225D02*
G54D11*
D03*
X685800Y784225D02*
G54D11*
D03*
X660400Y784225D02*
G54D11*
D03*
X635000Y784225D02*
G54D11*
D03*
X574675Y784225D02*
G54D11*
D03*
X549275Y784225D02*
G54D11*
D03*
X377825Y784225D02*
G54D11*
D03*
X352425Y784225D02*
G54D11*
D03*
X660400Y863600D02*
G54D11*
D03*
X685800Y863600D02*
G54D11*
D03*
X488950Y784225D02*
G54D11*
D03*
X463550Y784225D02*
G54D11*
D03*
X438150Y784225D02*
G54D11*
D03*
G36*
X118175Y843180D02*
X125195Y850200D01*
X135155Y850200D01*
X142175Y843180D01*
X142175Y833220D01*
X135155Y826200D01*
X125195Y826200D01*
X118175Y833220D01*
X118175Y843180D01*
G37*
G36*
X143575Y843180D02*
X150595Y850200D01*
X160555Y850200D01*
X167575Y843180D01*
X167575Y833220D01*
X160555Y826200D01*
X150595Y826200D01*
X143575Y833220D01*
X143575Y843180D01*
G37*
G36*
X168975Y843180D02*
X175995Y850200D01*
X185955Y850200D01*
X192975Y843180D01*
X192975Y833220D01*
X185955Y826200D01*
X175995Y826200D01*
X168975Y833220D01*
X168975Y843180D01*
G37*
G36*
X143575Y843180D02*
X150595Y850200D01*
X160555Y850200D01*
X167575Y843180D01*
X167575Y833220D01*
X160555Y826200D01*
X150595Y826200D01*
X143575Y833220D01*
X143575Y843180D01*
G37*
X495300Y863600D02*
G54D11*
D03*
X520700Y863600D02*
G54D11*
D03*
G36*
X229300Y843180D02*
X236320Y850200D01*
X246280Y850200D01*
X253300Y843180D01*
X253300Y833220D01*
X246280Y826200D01*
X236320Y826200D01*
X229300Y833220D01*
X229300Y843180D01*
G37*
G36*
X254700Y843180D02*
X261720Y850200D01*
X271680Y850200D01*
X278700Y843180D01*
X278700Y833220D01*
X271680Y826200D01*
X261720Y826200D01*
X254700Y833220D01*
X254700Y843180D01*
G37*
G36*
X280100Y843180D02*
X287120Y850200D01*
X297080Y850200D01*
X304100Y843180D01*
X304100Y833220D01*
X297080Y826200D01*
X287120Y826200D01*
X280100Y833220D01*
X280100Y843180D01*
G37*
G36*
X254700Y843180D02*
X261720Y850200D01*
X271680Y850200D01*
X278700Y843180D01*
X278700Y833220D01*
X271680Y826200D01*
X261720Y826200D01*
X254700Y833220D01*
X254700Y843180D01*
G37*
X206375Y784225D02*
G54D11*
D03*
X180975Y784225D02*
G54D11*
D03*
X155575Y784225D02*
G54D11*
D03*
X130175Y784225D02*
G54D11*
D03*
X292100Y784225D02*
G54D11*
D03*
X266700Y784225D02*
G54D11*
D03*
X69850Y784225D02*
G54D11*
D03*
X44450Y784225D02*
G54D11*
D03*
X590550Y844550D02*
G54D12*
D03*
X621109Y844550D02*
G54D12*
D03*
X409575Y863600D02*
G54D11*
D03*
X434975Y863600D02*
G54D11*
D03*
X438150Y831850D02*
G54D13*
D03*
X438150Y812850D02*
G54D13*
D03*
X206380Y784230D02*
G54D14*
D03*
X266705Y784230D02*
G54D14*
D03*
X438155Y784230D02*
G54D14*
D03*
X434980Y863605D02*
G54D14*
D03*
X520705Y863605D02*
G54D14*
D03*
X339725Y838200D02*
G54D12*
D03*
X370284Y838200D02*
G54D12*
D03*
X339725Y873125D02*
G54D14*
D03*
X365130Y873130D02*
G54D14*
D03*
X69850Y812800D02*
G54D14*
D03*
X44450Y812800D02*
G54D14*
D03*
X60325Y542925D02*
G54D10*
D03*
X590550Y542925D02*
G54D10*
D03*
X781050Y593725D02*
G54D11*
D03*
X781050Y568325D02*
G54D11*
D03*
X781050Y542925D02*
G54D11*
D03*
X781050Y517525D02*
G54D11*
D03*
X781050Y457200D02*
G54D11*
D03*
X781050Y431800D02*
G54D11*
D03*
X781050Y406400D02*
G54D11*
D03*
X781050Y381000D02*
G54D11*
D03*
X781050Y317500D02*
G54D11*
D03*
X781050Y292100D02*
G54D11*
D03*
X711200Y419100D02*
G54D11*
D03*
X685800Y419100D02*
G54D11*
D03*
X660400Y419100D02*
G54D11*
D03*
X635000Y419100D02*
G54D11*
D03*
X574675Y419100D02*
G54D11*
D03*
X549275Y419100D02*
G54D11*
D03*
X377825Y419100D02*
G54D11*
D03*
X352425Y419100D02*
G54D11*
D03*
X660400Y498475D02*
G54D11*
D03*
X685800Y498475D02*
G54D11*
D03*
X488950Y419100D02*
G54D11*
D03*
X463550Y419100D02*
G54D11*
D03*
X438150Y419100D02*
G54D11*
D03*
G36*
X118175Y478055D02*
X125195Y485075D01*
X135155Y485075D01*
X142175Y478055D01*
X142175Y468095D01*
X135155Y461075D01*
X125195Y461075D01*
X118175Y468095D01*
X118175Y478055D01*
G37*
G36*
X143575Y478055D02*
X150595Y485075D01*
X160555Y485075D01*
X167575Y478055D01*
X167575Y468095D01*
X160555Y461075D01*
X150595Y461075D01*
X143575Y468095D01*
X143575Y478055D01*
G37*
G36*
X168975Y478055D02*
X175995Y485075D01*
X185955Y485075D01*
X192975Y478055D01*
X192975Y468095D01*
X185955Y461075D01*
X175995Y461075D01*
X168975Y468095D01*
X168975Y478055D01*
G37*
G36*
X143575Y478055D02*
X150595Y485075D01*
X160555Y485075D01*
X167575Y478055D01*
X167575Y468095D01*
X160555Y461075D01*
X150595Y461075D01*
X143575Y468095D01*
X143575Y478055D01*
G37*
X495300Y498475D02*
G54D11*
D03*
X520700Y498475D02*
G54D11*
D03*
G36*
X229300Y478055D02*
X236320Y485075D01*
X246280Y485075D01*
X253300Y478055D01*
X253300Y468095D01*
X246280Y461075D01*
X236320Y461075D01*
X229300Y468095D01*
X229300Y478055D01*
G37*
G36*
X254700Y478055D02*
X261720Y485075D01*
X271680Y485075D01*
X278700Y478055D01*
X278700Y468095D01*
X271680Y461075D01*
X261720Y461075D01*
X254700Y468095D01*
X254700Y478055D01*
G37*
G36*
X280100Y478055D02*
X287120Y485075D01*
X297080Y485075D01*
X304100Y478055D01*
X304100Y468095D01*
X297080Y461075D01*
X287120Y461075D01*
X280100Y468095D01*
X280100Y478055D01*
G37*
G36*
X254700Y478055D02*
X261720Y485075D01*
X271680Y485075D01*
X278700Y478055D01*
X278700Y468095D01*
X271680Y461075D01*
X261720Y461075D01*
X254700Y468095D01*
X254700Y478055D01*
G37*
X206375Y419100D02*
G54D11*
D03*
X180975Y419100D02*
G54D11*
D03*
X155575Y419100D02*
G54D11*
D03*
X130175Y419100D02*
G54D11*
D03*
X292100Y419100D02*
G54D11*
D03*
X266700Y419100D02*
G54D11*
D03*
X69850Y419100D02*
G54D11*
D03*
X44450Y419100D02*
G54D11*
D03*
X590550Y479425D02*
G54D12*
D03*
X621109Y479425D02*
G54D12*
D03*
X409575Y498475D02*
G54D11*
D03*
X434975Y498475D02*
G54D11*
D03*
X438150Y466725D02*
G54D13*
D03*
X438150Y447725D02*
G54D13*
D03*
X206380Y419105D02*
G54D14*
D03*
X266705Y419105D02*
G54D14*
D03*
X438155Y419105D02*
G54D14*
D03*
X434980Y498480D02*
G54D14*
D03*
X520705Y498480D02*
G54D14*
D03*
X339725Y473075D02*
G54D12*
D03*
X370284Y473075D02*
G54D12*
D03*
X339725Y508000D02*
G54D14*
D03*
X365130Y508005D02*
G54D14*
D03*
X69850Y447675D02*
G54D14*
D03*
X44450Y447675D02*
G54D14*
D03*
M02*
