; Drill file
; Format: 2.4 (00.0000)
M48
INCH
T01C0.0354
T02C0.126
%
G05
G90
T01
X004250Y012250
X004250Y013500
X007250Y014500
X008250Y014500
X009250Y014500
X010250Y014500
X011250Y014500
X012250Y014500
X013250Y014500
X014250Y014500
X015250Y014500
X016250Y014500
X017250Y014500
X018250Y014500
X019250Y014500
X020250Y014500
X021250Y014500
X021250Y013500
X021250Y012250
X016250Y012500
X015250Y012500
X014250Y012500
X013250Y012500
X011250Y017000
X011250Y018000
X011250Y019000
X011250Y020000
X011250Y024500
X012250Y024500
X013250Y024500
X014250Y024500
X015250Y024500
X016250Y024500
X017250Y024500
X018250Y024500
X019250Y024500
X020250Y024500
X021250Y024500
X021250Y025750
X021250Y027000
X021250Y028000
X020250Y028000
X019250Y028000
X018250Y028000
X017250Y028000
X016250Y028000
X015250Y028000
X014250Y028000
X013250Y028000
X012250Y028000
X011250Y028000
X010250Y028000
X009250Y028000
X008250Y028000
X007250Y028000
X004250Y027000
X004250Y025750
X004250Y024500
X005750Y024500
X007250Y024500
X008250Y024500
X009250Y024500
X010250Y024500
X013250Y026000
X014250Y026000
X015250Y026000
X016250Y026000
X016250Y030500
X016250Y031500
X016250Y032500
X016250Y033500
X016250Y038000
X017250Y038000
X018250Y038000
X019250Y038000
X020250Y038000
X021250Y038000
X015250Y038000
X014250Y038000
X013250Y038000
X012250Y038000
X011250Y038000
X010250Y038000
X009250Y038000
X008250Y038000
X007250Y038000
X005750Y038000
X004250Y038000
X011250Y033500
X011250Y032500
X011250Y031500
X011250Y030500
X016250Y020000
X016250Y019000
X016250Y018000
X016250Y017000
T02
X002250Y014560
X002250Y022440
X002250Y028060
X002250Y035940
X025250Y035940
X025250Y028060
X025250Y022440
X025250Y014560
M30
