%FSLAX34Y34*%
%MOMM*%
%LNSILK_BOTTOM_*%
G71*
G01*
%ADD10R, 0.27X0.27*%
%ADD11R, 0.40X0.40*%
%ADD12C, 0.11*%
%LPD*%
X257175Y815975D02*
G54D10*
D03*
X254000Y812800D02*
G54D10*
D03*
X250825Y809625D02*
G54D10*
D03*
X247650Y806450D02*
G54D10*
D03*
X257175Y822325D02*
G54D10*
D03*
X254000Y825500D02*
G54D10*
D03*
X250825Y828675D02*
G54D10*
D03*
X247650Y831850D02*
G54D10*
D03*
X244475Y835025D02*
G54D10*
D03*
X244475Y803275D02*
G54D10*
D03*
X241300Y800100D02*
G54D10*
D03*
X238125Y796925D02*
G54D10*
D03*
X234950Y793750D02*
G54D10*
D03*
X228600Y793750D02*
G54D10*
D03*
X225425Y796925D02*
G54D10*
D03*
X222250Y800100D02*
G54D10*
D03*
X219075Y803275D02*
G54D10*
D03*
X215900Y806450D02*
G54D10*
D03*
X212725Y809625D02*
G54D10*
D03*
X209550Y812800D02*
G54D10*
D03*
X206375Y815975D02*
G54D10*
D03*
X203200Y819150D02*
G54D10*
D03*
X241300Y838200D02*
G54D10*
D03*
X238125Y841375D02*
G54D10*
D03*
X234950Y844550D02*
G54D10*
D03*
X231775Y847725D02*
G54D10*
D03*
X215900Y844550D02*
G54D10*
D03*
X206375Y835025D02*
G54D10*
D03*
X203200Y838200D02*
G54D10*
D03*
X212725Y847725D02*
G54D10*
D03*
X212725Y854075D02*
G54D10*
D03*
X209550Y857250D02*
G54D10*
D03*
X206375Y854075D02*
G54D10*
D03*
X203200Y850900D02*
G54D10*
D03*
X200025Y847725D02*
G54D10*
D03*
X196850Y844550D02*
G54D10*
D03*
X193675Y841375D02*
G54D10*
D03*
X196850Y838200D02*
G54D10*
D03*
X247650Y825500D02*
G54D10*
D03*
X244475Y825500D02*
G54D10*
D03*
X241300Y828675D02*
G54D10*
D03*
X238125Y825500D02*
G54D10*
D03*
X234950Y825500D02*
G54D10*
D03*
X231775Y825500D02*
G54D10*
D03*
X228600Y822325D02*
G54D10*
D03*
X225425Y822325D02*
G54D10*
D03*
X222250Y825500D02*
G54D10*
D03*
X219075Y825500D02*
G54D10*
D03*
X215900Y825500D02*
G54D10*
D03*
X212725Y825500D02*
G54D10*
D03*
X209550Y825500D02*
G54D10*
D03*
X206375Y822325D02*
G54D10*
D03*
X190500Y850900D02*
G54D10*
D03*
X190500Y847725D02*
G54D10*
D03*
X190500Y844550D02*
G54D10*
D03*
X187325Y844550D02*
G54D10*
D03*
X187325Y850900D02*
G54D10*
D03*
X184150Y850900D02*
G54D10*
D03*
X184150Y854075D02*
G54D10*
D03*
X184150Y857250D02*
G54D10*
D03*
X180975Y857250D02*
G54D10*
D03*
X177800Y857250D02*
G54D10*
D03*
X177800Y854075D02*
G54D10*
D03*
X177800Y850900D02*
G54D10*
D03*
X174625Y850900D02*
G54D10*
D03*
X171450Y850900D02*
G54D10*
D03*
X171450Y847725D02*
G54D10*
D03*
X171450Y844550D02*
G54D10*
D03*
X174625Y844550D02*
G54D10*
D03*
X177800Y844550D02*
G54D10*
D03*
X184150Y844550D02*
G54D10*
D03*
X184150Y841375D02*
G54D10*
D03*
X184150Y838200D02*
G54D10*
D03*
X180975Y838200D02*
G54D10*
D03*
X177800Y838200D02*
G54D10*
D03*
X177800Y841375D02*
G54D10*
D03*
X228600Y850900D02*
G54D10*
D03*
X222250Y850900D02*
G54D10*
D03*
X219075Y847725D02*
G54D10*
D03*
X203200Y831850D02*
G54D10*
D03*
X200025Y828675D02*
G54D10*
D03*
X200025Y822325D02*
G54D10*
D03*
X203200Y812800D02*
G54D10*
D03*
X200025Y812800D02*
G54D10*
D03*
X196850Y812800D02*
G54D10*
D03*
X193675Y812800D02*
G54D10*
D03*
X190500Y812800D02*
G54D10*
D03*
X196850Y809625D02*
G54D10*
D03*
X196850Y806450D02*
G54D10*
D03*
X196850Y803275D02*
G54D10*
D03*
X196850Y800100D02*
G54D10*
D03*
X196850Y796925D02*
G54D10*
D03*
X200025Y793750D02*
G54D10*
D03*
X203200Y793750D02*
G54D10*
D03*
X206375Y796925D02*
G54D10*
D03*
X187325Y793750D02*
G54D10*
D03*
X184150Y796925D02*
G54D10*
D03*
X184150Y800100D02*
G54D10*
D03*
X184150Y803275D02*
G54D10*
D03*
X184150Y806450D02*
G54D10*
D03*
X180975Y793750D02*
G54D10*
D03*
X177800Y793750D02*
G54D10*
D03*
X174625Y793750D02*
G54D10*
D03*
X174625Y796925D02*
G54D10*
D03*
X174625Y800100D02*
G54D10*
D03*
X174625Y803275D02*
G54D10*
D03*
X174625Y806450D02*
G54D10*
D03*
X168275Y809625D02*
G54D10*
D03*
X168275Y803275D02*
G54D10*
D03*
X168275Y800100D02*
G54D10*
D03*
X168275Y796925D02*
G54D10*
D03*
X168275Y793750D02*
G54D10*
D03*
X161925Y796925D02*
G54D10*
D03*
X161925Y800100D02*
G54D10*
D03*
X161925Y803275D02*
G54D10*
D03*
X158750Y806450D02*
G54D10*
D03*
X155575Y806450D02*
G54D10*
D03*
X158750Y793750D02*
G54D10*
D03*
X155575Y793750D02*
G54D10*
D03*
X152400Y793750D02*
G54D10*
D03*
X152400Y806450D02*
G54D10*
D03*
X146050Y796925D02*
G54D10*
D03*
X146050Y800100D02*
G54D10*
D03*
X146050Y803275D02*
G54D10*
D03*
X142875Y806450D02*
G54D10*
D03*
X139700Y806450D02*
G54D10*
D03*
X136525Y806450D02*
G54D10*
D03*
X142875Y793750D02*
G54D10*
D03*
X139700Y793750D02*
G54D10*
D03*
X136525Y793750D02*
G54D10*
D03*
X133350Y803275D02*
G54D10*
D03*
X133350Y800100D02*
G54D10*
D03*
X136525Y800100D02*
G54D10*
D03*
X139700Y800100D02*
G54D10*
D03*
X142875Y800100D02*
G54D10*
D03*
X234950Y812800D02*
G54D10*
D03*
X231775Y809625D02*
G54D10*
D03*
X228600Y812800D02*
G54D10*
D03*
X231775Y815975D02*
G54D10*
D03*
X222250Y809625D02*
G54D10*
D03*
X244475Y819150D02*
G54D10*
D03*
X215900Y819150D02*
G54D10*
D03*
X231775Y800100D02*
G54D10*
D03*
X247650Y815975D02*
G54D10*
D03*
X187325Y831850D02*
G54D10*
D03*
X184150Y831850D02*
G54D10*
D03*
X180975Y831850D02*
G54D10*
D03*
X177800Y831850D02*
G54D10*
D03*
X174625Y831850D02*
G54D10*
D03*
X174625Y828675D02*
G54D10*
D03*
X174625Y825500D02*
G54D10*
D03*
X177800Y822325D02*
G54D10*
D03*
X180975Y819150D02*
G54D10*
D03*
X184150Y815975D02*
G54D10*
D03*
X171450Y838200D02*
G54D10*
D03*
X171450Y835025D02*
G54D10*
D03*
X168275Y835025D02*
G54D10*
D03*
X168275Y838200D02*
G54D10*
D03*
X165100Y831850D02*
G54D10*
D03*
X161925Y831850D02*
G54D10*
D03*
X158750Y831850D02*
G54D10*
D03*
X155575Y831850D02*
G54D10*
D03*
X152400Y831850D02*
G54D10*
D03*
X165100Y825500D02*
G54D10*
D03*
X161925Y825500D02*
G54D10*
D03*
X158750Y825500D02*
G54D10*
D03*
X155575Y825500D02*
G54D10*
D03*
X152400Y825500D02*
G54D10*
D03*
X152400Y822325D02*
G54D10*
D03*
X155575Y819150D02*
G54D10*
D03*
X158750Y815975D02*
G54D10*
D03*
X165100Y815975D02*
G54D10*
D03*
X161925Y815975D02*
G54D10*
D03*
X146050Y831850D02*
G54D10*
D03*
X142875Y831850D02*
G54D10*
D03*
X139700Y831850D02*
G54D10*
D03*
X136525Y831850D02*
G54D10*
D03*
X133350Y831850D02*
G54D10*
D03*
X133350Y828675D02*
G54D10*
D03*
X136525Y825500D02*
G54D10*
D03*
X139700Y822325D02*
G54D10*
D03*
X142875Y819150D02*
G54D10*
D03*
X146050Y815975D02*
G54D10*
D03*
X136525Y819150D02*
G54D10*
D03*
X133350Y815975D02*
G54D10*
D03*
X225425Y844550D02*
G54D10*
D03*
X228600Y841375D02*
G54D10*
D03*
X515938Y850900D02*
G54D11*
D03*
X511175Y850900D02*
G54D11*
D03*
X506412Y850900D02*
G54D11*
D03*
X501650Y850900D02*
G54D11*
D03*
X496888Y850900D02*
G54D11*
D03*
X492125Y850900D02*
G54D11*
D03*
X487362Y850900D02*
G54D11*
D03*
X482600Y850900D02*
G54D11*
D03*
X530225Y836612D02*
G54D11*
D03*
X530225Y831850D02*
G54D11*
D03*
X530225Y827088D02*
G54D11*
D03*
X530225Y822325D02*
G54D11*
D03*
X530225Y817562D02*
G54D11*
D03*
X530225Y812800D02*
G54D11*
D03*
X530225Y808038D02*
G54D11*
D03*
X530225Y803275D02*
G54D11*
D03*
X530225Y798512D02*
G54D11*
D03*
X530225Y793750D02*
G54D11*
D03*
X534988Y788988D02*
G54D11*
D03*
X534988Y784225D02*
G54D11*
D03*
X534988Y779462D02*
G54D11*
D03*
X539750Y779462D02*
G54D11*
D03*
X525462Y784225D02*
G54D11*
D03*
X525462Y779462D02*
G54D11*
D03*
X520700Y779462D02*
G54D11*
D03*
X515938Y784225D02*
G54D11*
D03*
X511175Y784225D02*
G54D11*
D03*
X506412Y784225D02*
G54D11*
D03*
X506412Y779462D02*
G54D11*
D03*
X501650Y779462D02*
G54D11*
D03*
X473075Y827088D02*
G54D11*
D03*
X473075Y831850D02*
G54D11*
D03*
X473075Y836612D02*
G54D11*
D03*
X473075Y841375D02*
G54D11*
D03*
X477838Y846138D02*
G54D11*
D03*
X515938Y836612D02*
G54D11*
D03*
X511175Y841375D02*
G54D11*
D03*
X506412Y841375D02*
G54D11*
D03*
X501650Y841375D02*
G54D11*
D03*
X496888Y841375D02*
G54D11*
D03*
X492125Y836612D02*
G54D11*
D03*
X511175Y831850D02*
G54D11*
D03*
X506412Y831850D02*
G54D11*
D03*
X501650Y831850D02*
G54D11*
D03*
X496888Y831850D02*
G54D11*
D03*
X506412Y836612D02*
G54D11*
D03*
X501650Y836612D02*
G54D11*
D03*
X530225Y784225D02*
G54D11*
D03*
X477838Y822325D02*
G54D11*
D03*
X482600Y822325D02*
G54D11*
D03*
X492125Y817562D02*
G54D11*
D03*
X487362Y817562D02*
G54D11*
D03*
X496888Y817562D02*
G54D11*
D03*
X496888Y812800D02*
G54D11*
D03*
X496888Y808038D02*
G54D11*
D03*
X496888Y803275D02*
G54D11*
D03*
X496888Y798512D02*
G54D11*
D03*
X496888Y793750D02*
G54D11*
D03*
X496888Y788988D02*
G54D11*
D03*
X496888Y784225D02*
G54D11*
D03*
X520700Y850900D02*
G54D11*
D03*
X525462Y846138D02*
G54D11*
D03*
X530225Y841375D02*
G54D11*
D03*
G54D12*
X260350Y783589D02*
X260350Y774700D01*
X257017Y780256D01*
X253683Y774700D01*
X253683Y783589D01*
G54D12*
X251239Y774700D02*
X251239Y779700D01*
G54D12*
X251239Y781367D02*
X251239Y781367D01*
G54D12*
X248795Y774700D02*
X248795Y783589D01*
X244128Y783589D01*
G54D12*
X248795Y779144D02*
X244128Y779144D01*
G54D12*
X241684Y774700D02*
X241684Y779700D01*
G54D12*
X241684Y781367D02*
X241684Y781367D01*
G54D12*
X239240Y778589D02*
X233907Y778589D01*
G54D12*
X231463Y776367D02*
X230796Y775256D01*
X229463Y774700D01*
X228130Y774700D01*
X226796Y775256D01*
X226130Y776367D01*
X226130Y777478D01*
X226796Y778589D01*
X228130Y779144D01*
X229463Y779144D01*
X230796Y779700D01*
X231463Y780811D01*
X231463Y781922D01*
X230796Y783033D01*
X229463Y783589D01*
X228130Y783589D01*
X226796Y783033D01*
X226130Y781922D01*
G54D12*
X219686Y775256D02*
X220753Y774700D01*
X222086Y774700D01*
X223419Y775256D01*
X223686Y776367D01*
X223686Y778256D01*
X223019Y779367D01*
X221686Y779700D01*
X220353Y779367D01*
X219686Y778589D01*
X219686Y777478D01*
X223686Y777478D01*
G54D12*
X217242Y774700D02*
X217242Y779700D01*
G54D12*
X217242Y778589D02*
X215909Y779700D01*
X214575Y779700D01*
G54D12*
X212131Y774700D02*
X212131Y779700D01*
G54D12*
X212131Y781367D02*
X212131Y781367D01*
G54D12*
X209687Y779144D02*
X208354Y779700D01*
X206754Y779700D01*
X205687Y778589D01*
X205687Y774700D01*
G54D12*
X205687Y776367D02*
X206354Y777478D01*
X207687Y777700D01*
X209020Y777478D01*
X209687Y776367D01*
X209420Y775256D01*
X208354Y774700D01*
X207687Y774700D01*
X207420Y774700D01*
X206354Y775256D01*
X205687Y776367D01*
G54D12*
X203243Y774700D02*
X203243Y783589D01*
G54D12*
X198222Y774700D02*
X198222Y783589D01*
G54D12*
X198222Y778256D02*
X197555Y779367D01*
X196222Y779700D01*
X194889Y779367D01*
X194222Y778256D01*
X194222Y776033D01*
X194889Y774922D01*
X196222Y774700D01*
X197555Y774922D01*
X198222Y776033D01*
G54D12*
X191778Y774700D02*
X191778Y779700D01*
G54D12*
X191778Y778589D02*
X190445Y779700D01*
X189111Y779700D01*
G54D12*
X186667Y774700D02*
X186667Y779700D01*
G54D12*
X186667Y781367D02*
X186667Y781367D01*
G54D12*
X180223Y774700D02*
X180223Y783589D01*
G54D12*
X180223Y778256D02*
X180890Y779367D01*
X182223Y779700D01*
X183556Y779367D01*
X184223Y778256D01*
X184223Y776033D01*
X183556Y774922D01*
X182223Y774700D01*
X180890Y774922D01*
X180223Y776033D01*
G54D12*
X177779Y773033D02*
X176446Y772478D01*
X175512Y772478D01*
X174179Y773033D01*
X173779Y774144D01*
X173779Y779700D01*
G54D12*
X173779Y778256D02*
X174446Y779367D01*
X175779Y779700D01*
X177112Y779367D01*
X177779Y778256D01*
X177779Y776033D01*
X177112Y774922D01*
X175779Y774700D01*
X174446Y774922D01*
X173779Y776033D01*
G54D12*
X167335Y775256D02*
X168402Y774700D01*
X169735Y774700D01*
X171068Y775256D01*
X171335Y776367D01*
X171335Y778256D01*
X170668Y779367D01*
X169335Y779700D01*
X168002Y779367D01*
X167335Y778589D01*
X167335Y777478D01*
X171335Y777478D01*
G54D12*
X162314Y774700D02*
X162314Y779700D01*
G54D12*
X162314Y778811D02*
X160981Y779700D01*
X159647Y779367D01*
X158981Y778589D01*
X158981Y774700D01*
G54D12*
X158981Y778811D02*
X157647Y779700D01*
X156314Y779367D01*
X155647Y778589D01*
X155647Y774700D01*
G54D12*
X149203Y776033D02*
X149203Y778256D01*
X149870Y779367D01*
X151203Y779700D01*
X152536Y779367D01*
X153203Y778256D01*
X153203Y776033D01*
X152536Y774922D01*
X151203Y774700D01*
X149870Y774922D01*
X149203Y776033D01*
G54D12*
X142759Y774700D02*
X142759Y783589D01*
G54D12*
X142759Y778256D02*
X143426Y779367D01*
X144759Y779700D01*
X146092Y779367D01*
X146759Y778256D01*
X146759Y776033D01*
X146092Y774922D01*
X144759Y774700D01*
X143426Y774922D01*
X142759Y776033D01*
G54D12*
X136315Y779700D02*
X136315Y774700D01*
G54D12*
X136315Y775811D02*
X136982Y774922D01*
X138315Y774700D01*
X139648Y774922D01*
X140315Y775811D01*
X140315Y779700D01*
G54D12*
X133871Y774700D02*
X133871Y783589D01*
G54D12*
X127427Y775256D02*
X128494Y774700D01*
X129827Y774700D01*
X131160Y775256D01*
X131427Y776367D01*
X131427Y778256D01*
X130760Y779367D01*
X129427Y779700D01*
X128094Y779367D01*
X127427Y778589D01*
X127427Y777478D01*
X131427Y777478D01*
G54D12*
X476250Y742950D02*
X476250Y751839D01*
G54D12*
X476250Y746506D02*
X475583Y747617D01*
X474250Y747950D01*
X472917Y747617D01*
X472250Y746506D01*
X472250Y742950D01*
G54D12*
X468473Y751839D02*
X468473Y743506D01*
X467806Y742950D01*
X467139Y743172D01*
G54D12*
X469806Y747950D02*
X467139Y747950D01*
G54D12*
X463362Y751839D02*
X463362Y743506D01*
X462695Y742950D01*
X462028Y743172D01*
G54D12*
X464695Y747950D02*
X462028Y747950D01*
G54D12*
X459584Y747950D02*
X459584Y740728D01*
G54D12*
X459584Y744617D02*
X458917Y743172D01*
X457584Y742950D01*
X456251Y743172D01*
X455584Y744283D01*
X455584Y746506D01*
X456251Y747617D01*
X457584Y747950D01*
X458917Y747617D01*
X459584Y746283D01*
G54D12*
X453140Y743506D02*
X451807Y742950D01*
X450473Y742950D01*
X449140Y743506D01*
X449140Y744617D01*
X449807Y745172D01*
X452473Y745728D01*
X453140Y746283D01*
X453140Y747394D01*
X451807Y747950D01*
X450473Y747950D01*
X449140Y747394D01*
G54D12*
X446696Y742950D02*
X446696Y742950D01*
G54D12*
X446696Y747950D02*
X446696Y747950D01*
G54D12*
X444252Y742950D02*
X438919Y751839D01*
G54D12*
X436475Y742950D02*
X431142Y751839D01*
G54D12*
X428698Y741283D02*
X427365Y740728D01*
X426431Y740728D01*
X425098Y741283D01*
X424698Y742394D01*
X424698Y747950D01*
G54D12*
X424698Y746506D02*
X425365Y747617D01*
X426698Y747950D01*
X428031Y747617D01*
X428698Y746506D01*
X428698Y744283D01*
X428031Y743172D01*
X426698Y742950D01*
X425365Y743172D01*
X424698Y744283D01*
G54D12*
X422254Y742950D02*
X422254Y747950D01*
G54D12*
X422254Y749617D02*
X422254Y749617D01*
G54D12*
X418477Y751839D02*
X418477Y743506D01*
X417810Y742950D01*
X417143Y743172D01*
G54D12*
X419810Y747950D02*
X417143Y747950D01*
G54D12*
X414699Y742950D02*
X414699Y751839D01*
G54D12*
X414699Y746506D02*
X414032Y747617D01*
X412699Y747950D01*
X411366Y747617D01*
X410699Y746506D01*
X410699Y742950D01*
G54D12*
X404255Y747950D02*
X404255Y742950D01*
G54D12*
X404255Y744061D02*
X404922Y743172D01*
X406255Y742950D01*
X407588Y743172D01*
X408255Y744061D01*
X408255Y747950D01*
G54D12*
X401811Y742950D02*
X401811Y751839D01*
G54D12*
X401811Y746506D02*
X401144Y747617D01*
X399811Y747950D01*
X398478Y747617D01*
X397811Y746506D01*
X397811Y744283D01*
X398478Y743172D01*
X399811Y742950D01*
X401144Y743172D01*
X401811Y744283D01*
G54D12*
X395367Y742950D02*
X395367Y742950D01*
G54D12*
X389590Y747617D02*
X390923Y747950D01*
X392256Y747617D01*
X392923Y746506D01*
X392923Y744283D01*
X392256Y743172D01*
X390923Y742950D01*
X389590Y743172D01*
G54D12*
X383146Y744283D02*
X383146Y746506D01*
X383813Y747617D01*
X385146Y747950D01*
X386479Y747617D01*
X387146Y746506D01*
X387146Y744283D01*
X386479Y743172D01*
X385146Y742950D01*
X383813Y743172D01*
X383146Y744283D01*
G54D12*
X380702Y742950D02*
X380702Y747950D01*
G54D12*
X380702Y747061D02*
X379369Y747950D01*
X378035Y747617D01*
X377369Y746839D01*
X377369Y742950D01*
G54D12*
X377369Y747061D02*
X376035Y747950D01*
X374702Y747617D01*
X374035Y746839D01*
X374035Y742950D01*
G54D12*
X371591Y742950D02*
X366258Y751839D01*
G54D12*
X358481Y744617D02*
X359147Y743506D01*
X360481Y742950D01*
X361814Y742950D01*
X363147Y743506D01*
X363814Y744617D01*
X363814Y750172D01*
X363147Y751283D01*
X361814Y751839D01*
X360481Y751839D01*
X359147Y751283D01*
X358481Y750172D01*
G54D12*
X356037Y742950D02*
X356037Y751839D01*
G54D12*
X356037Y746506D02*
X355370Y747617D01*
X354037Y747950D01*
X352704Y747617D01*
X352037Y746506D01*
X352037Y742950D01*
G54D12*
X349593Y742950D02*
X349593Y747950D01*
G54D12*
X349593Y749617D02*
X349593Y749617D01*
G54D12*
X347149Y747950D02*
X347149Y740728D01*
G54D12*
X347149Y744617D02*
X346482Y743172D01*
X345149Y742950D01*
X343816Y743172D01*
X343149Y744283D01*
X343149Y746506D01*
X343816Y747617D01*
X345149Y747950D01*
X346482Y747617D01*
X347149Y746283D01*
G54D12*
X338038Y742950D02*
X338038Y751839D01*
G54D12*
X340705Y751839D02*
X335372Y751839D01*
G54D12*
X328928Y743506D02*
X329995Y742950D01*
X331328Y742950D01*
X332661Y743506D01*
X332928Y744617D01*
X332928Y746506D01*
X332261Y747617D01*
X330928Y747950D01*
X329595Y747617D01*
X328928Y746839D01*
X328928Y745728D01*
X332928Y745728D01*
G54D12*
X323151Y747617D02*
X324484Y747950D01*
X325817Y747617D01*
X326484Y746506D01*
X326484Y744283D01*
X325817Y743172D01*
X324484Y742950D01*
X323151Y743172D01*
G54D12*
X320707Y742950D02*
X320707Y751839D01*
G54D12*
X320707Y746506D02*
X320040Y747617D01*
X318707Y747950D01*
X317374Y747617D01*
X316707Y746506D01*
X316707Y742950D01*
G54D12*
X314263Y742950D02*
X314263Y747950D01*
G54D12*
X314263Y746839D02*
X313596Y747617D01*
X312263Y747950D01*
X310930Y747617D01*
X310263Y746839D01*
X310263Y742950D01*
G54D12*
X303819Y744283D02*
X303819Y746506D01*
X304486Y747617D01*
X305819Y747950D01*
X307152Y747617D01*
X307819Y746506D01*
X307819Y744283D01*
X307152Y743172D01*
X305819Y742950D01*
X304486Y743172D01*
X303819Y744283D01*
G54D12*
X301375Y742950D02*
X296042Y751839D01*
G54D12*
X288265Y751839D02*
X288265Y744617D01*
X288931Y743506D01*
X290265Y742950D01*
X291598Y742950D01*
X292931Y743506D01*
X293598Y744617D01*
G54D12*
X281821Y747950D02*
X281821Y742950D01*
G54D12*
X281821Y744061D02*
X282488Y743172D01*
X283821Y742950D01*
X285154Y743172D01*
X285821Y744061D01*
X285821Y747950D01*
G54D12*
X279377Y742950D02*
X279377Y747950D01*
G54D12*
X279377Y749617D02*
X279377Y749617D01*
G54D12*
X273600Y747617D02*
X274933Y747950D01*
X276266Y747617D01*
X276933Y746506D01*
X276933Y744283D01*
X276266Y743172D01*
X274933Y742950D01*
X273600Y743172D01*
G54D12*
X267156Y743506D02*
X268223Y742950D01*
X269556Y742950D01*
X270889Y743506D01*
X271156Y744617D01*
X271156Y746506D01*
X270489Y747617D01*
X269156Y747950D01*
X267823Y747617D01*
X267156Y746839D01*
X267156Y745728D01*
X271156Y745728D01*
G54D12*
X264712Y746839D02*
X259379Y746839D01*
G54D12*
X256935Y747950D02*
X256935Y740728D01*
G54D12*
X256935Y744617D02*
X256268Y743172D01*
X254935Y742950D01*
X253602Y743172D01*
X252935Y744283D01*
X252935Y746506D01*
X253602Y747617D01*
X254935Y747950D01*
X256268Y747617D01*
X256935Y746283D01*
G54D12*
X250491Y742950D02*
X250491Y751839D01*
G54D12*
X244047Y747950D02*
X244047Y742950D01*
G54D12*
X244047Y744061D02*
X244714Y743172D01*
X246047Y742950D01*
X247380Y743172D01*
X248047Y744061D01*
X248047Y747950D01*
G54D12*
X241603Y743506D02*
X240270Y742950D01*
X238936Y742950D01*
X237603Y743506D01*
X237603Y744617D01*
X238270Y745172D01*
X240936Y745728D01*
X241603Y746283D01*
X241603Y747394D01*
X240270Y747950D01*
X238936Y747950D01*
X237603Y747394D01*
X257175Y473075D02*
G54D10*
D03*
X254000Y469900D02*
G54D10*
D03*
X250825Y466725D02*
G54D10*
D03*
X247650Y463550D02*
G54D10*
D03*
X257175Y479425D02*
G54D10*
D03*
X254000Y482600D02*
G54D10*
D03*
X250825Y485775D02*
G54D10*
D03*
X247650Y488950D02*
G54D10*
D03*
X244475Y492125D02*
G54D10*
D03*
X244475Y460375D02*
G54D10*
D03*
X241300Y457200D02*
G54D10*
D03*
X238125Y454025D02*
G54D10*
D03*
X234950Y450850D02*
G54D10*
D03*
X228600Y450850D02*
G54D10*
D03*
X225425Y454025D02*
G54D10*
D03*
X222250Y457200D02*
G54D10*
D03*
X219075Y460375D02*
G54D10*
D03*
X215900Y463550D02*
G54D10*
D03*
X212725Y466725D02*
G54D10*
D03*
X209550Y469900D02*
G54D10*
D03*
X206375Y473075D02*
G54D10*
D03*
X203200Y476250D02*
G54D10*
D03*
X241300Y495300D02*
G54D10*
D03*
X238125Y498475D02*
G54D10*
D03*
X234950Y501650D02*
G54D10*
D03*
X231775Y504825D02*
G54D10*
D03*
X215900Y501650D02*
G54D10*
D03*
X206375Y492125D02*
G54D10*
D03*
X203200Y495300D02*
G54D10*
D03*
X212725Y504825D02*
G54D10*
D03*
X212725Y511175D02*
G54D10*
D03*
X209550Y514350D02*
G54D10*
D03*
X206375Y511175D02*
G54D10*
D03*
X203200Y508000D02*
G54D10*
D03*
X200025Y504825D02*
G54D10*
D03*
X196850Y501650D02*
G54D10*
D03*
X193675Y498475D02*
G54D10*
D03*
X196850Y495300D02*
G54D10*
D03*
X247650Y482600D02*
G54D10*
D03*
X244475Y482600D02*
G54D10*
D03*
X241300Y485775D02*
G54D10*
D03*
X238125Y482600D02*
G54D10*
D03*
X234950Y482600D02*
G54D10*
D03*
X231775Y482600D02*
G54D10*
D03*
X228600Y479425D02*
G54D10*
D03*
X225425Y479425D02*
G54D10*
D03*
X222250Y482600D02*
G54D10*
D03*
X219075Y482600D02*
G54D10*
D03*
X215900Y482600D02*
G54D10*
D03*
X212725Y482600D02*
G54D10*
D03*
X209550Y482600D02*
G54D10*
D03*
X206375Y479425D02*
G54D10*
D03*
X190500Y508000D02*
G54D10*
D03*
X190500Y504825D02*
G54D10*
D03*
X190500Y501650D02*
G54D10*
D03*
X187325Y501650D02*
G54D10*
D03*
X187325Y508000D02*
G54D10*
D03*
X184150Y508000D02*
G54D10*
D03*
X184150Y511175D02*
G54D10*
D03*
X184150Y514350D02*
G54D10*
D03*
X180975Y514350D02*
G54D10*
D03*
X177800Y514350D02*
G54D10*
D03*
X177800Y511175D02*
G54D10*
D03*
X177800Y508000D02*
G54D10*
D03*
X174625Y508000D02*
G54D10*
D03*
X171450Y508000D02*
G54D10*
D03*
X171450Y504825D02*
G54D10*
D03*
X171450Y501650D02*
G54D10*
D03*
X174625Y501650D02*
G54D10*
D03*
X177800Y501650D02*
G54D10*
D03*
X184150Y501650D02*
G54D10*
D03*
X184150Y498475D02*
G54D10*
D03*
X184150Y495300D02*
G54D10*
D03*
X180975Y495300D02*
G54D10*
D03*
X177800Y495300D02*
G54D10*
D03*
X177800Y498475D02*
G54D10*
D03*
X228600Y508000D02*
G54D10*
D03*
X222250Y508000D02*
G54D10*
D03*
X219075Y504825D02*
G54D10*
D03*
X203200Y488950D02*
G54D10*
D03*
X200025Y485775D02*
G54D10*
D03*
X200025Y479425D02*
G54D10*
D03*
X203200Y469900D02*
G54D10*
D03*
X200025Y469900D02*
G54D10*
D03*
X196850Y469900D02*
G54D10*
D03*
X193675Y469900D02*
G54D10*
D03*
X190500Y469900D02*
G54D10*
D03*
X196850Y466725D02*
G54D10*
D03*
X196850Y463550D02*
G54D10*
D03*
X196850Y460375D02*
G54D10*
D03*
X196850Y457200D02*
G54D10*
D03*
X196850Y454025D02*
G54D10*
D03*
X200025Y450850D02*
G54D10*
D03*
X203200Y450850D02*
G54D10*
D03*
X206375Y454025D02*
G54D10*
D03*
X187325Y450850D02*
G54D10*
D03*
X184150Y454025D02*
G54D10*
D03*
X184150Y457200D02*
G54D10*
D03*
X184150Y460375D02*
G54D10*
D03*
X184150Y463550D02*
G54D10*
D03*
X180975Y450850D02*
G54D10*
D03*
X177800Y450850D02*
G54D10*
D03*
X174625Y450850D02*
G54D10*
D03*
X174625Y454025D02*
G54D10*
D03*
X174625Y457200D02*
G54D10*
D03*
X174625Y460375D02*
G54D10*
D03*
X174625Y463550D02*
G54D10*
D03*
X168275Y466725D02*
G54D10*
D03*
X168275Y460375D02*
G54D10*
D03*
X168275Y457200D02*
G54D10*
D03*
X168275Y454025D02*
G54D10*
D03*
X168275Y450850D02*
G54D10*
D03*
X161925Y454025D02*
G54D10*
D03*
X161925Y457200D02*
G54D10*
D03*
X161925Y460375D02*
G54D10*
D03*
X158750Y463550D02*
G54D10*
D03*
X155575Y463550D02*
G54D10*
D03*
X158750Y450850D02*
G54D10*
D03*
X155575Y450850D02*
G54D10*
D03*
X152400Y450850D02*
G54D10*
D03*
X152400Y463550D02*
G54D10*
D03*
X146050Y454025D02*
G54D10*
D03*
X146050Y457200D02*
G54D10*
D03*
X146050Y460375D02*
G54D10*
D03*
X142875Y463550D02*
G54D10*
D03*
X139700Y463550D02*
G54D10*
D03*
X136525Y463550D02*
G54D10*
D03*
X142875Y450850D02*
G54D10*
D03*
X139700Y450850D02*
G54D10*
D03*
X136525Y450850D02*
G54D10*
D03*
X133350Y460375D02*
G54D10*
D03*
X133350Y457200D02*
G54D10*
D03*
X136525Y457200D02*
G54D10*
D03*
X139700Y457200D02*
G54D10*
D03*
X142875Y457200D02*
G54D10*
D03*
X234950Y469900D02*
G54D10*
D03*
X231775Y466725D02*
G54D10*
D03*
X228600Y469900D02*
G54D10*
D03*
X231775Y473075D02*
G54D10*
D03*
X222250Y466725D02*
G54D10*
D03*
X244475Y476250D02*
G54D10*
D03*
X215900Y476250D02*
G54D10*
D03*
X231775Y457200D02*
G54D10*
D03*
X247650Y473075D02*
G54D10*
D03*
X187325Y488950D02*
G54D10*
D03*
X184150Y488950D02*
G54D10*
D03*
X180975Y488950D02*
G54D10*
D03*
X177800Y488950D02*
G54D10*
D03*
X174625Y488950D02*
G54D10*
D03*
X174625Y485775D02*
G54D10*
D03*
X174625Y482600D02*
G54D10*
D03*
X177800Y479425D02*
G54D10*
D03*
X180975Y476250D02*
G54D10*
D03*
X184150Y473075D02*
G54D10*
D03*
X171450Y495300D02*
G54D10*
D03*
X171450Y492125D02*
G54D10*
D03*
X168275Y492125D02*
G54D10*
D03*
X168275Y495300D02*
G54D10*
D03*
X165100Y488950D02*
G54D10*
D03*
X161925Y488950D02*
G54D10*
D03*
X158750Y488950D02*
G54D10*
D03*
X155575Y488950D02*
G54D10*
D03*
X152400Y488950D02*
G54D10*
D03*
X165100Y482600D02*
G54D10*
D03*
X161925Y482600D02*
G54D10*
D03*
X158750Y482600D02*
G54D10*
D03*
X155575Y482600D02*
G54D10*
D03*
X152400Y482600D02*
G54D10*
D03*
X152400Y479425D02*
G54D10*
D03*
X155575Y476250D02*
G54D10*
D03*
X158750Y473075D02*
G54D10*
D03*
X165100Y473075D02*
G54D10*
D03*
X161925Y473075D02*
G54D10*
D03*
X146050Y488950D02*
G54D10*
D03*
X142875Y488950D02*
G54D10*
D03*
X139700Y488950D02*
G54D10*
D03*
X136525Y488950D02*
G54D10*
D03*
X133350Y488950D02*
G54D10*
D03*
X133350Y485775D02*
G54D10*
D03*
X136525Y482600D02*
G54D10*
D03*
X139700Y479425D02*
G54D10*
D03*
X142875Y476250D02*
G54D10*
D03*
X146050Y473075D02*
G54D10*
D03*
X136525Y476250D02*
G54D10*
D03*
X133350Y473075D02*
G54D10*
D03*
X225425Y501650D02*
G54D10*
D03*
X228600Y498475D02*
G54D10*
D03*
X515938Y508000D02*
G54D11*
D03*
X511175Y508000D02*
G54D11*
D03*
X506412Y508000D02*
G54D11*
D03*
X501650Y508000D02*
G54D11*
D03*
X496888Y508000D02*
G54D11*
D03*
X492125Y508000D02*
G54D11*
D03*
X487362Y508000D02*
G54D11*
D03*
X482600Y508000D02*
G54D11*
D03*
X530225Y493712D02*
G54D11*
D03*
X530225Y488950D02*
G54D11*
D03*
X530225Y484188D02*
G54D11*
D03*
X530225Y479425D02*
G54D11*
D03*
X530225Y474662D02*
G54D11*
D03*
X530225Y469900D02*
G54D11*
D03*
X530225Y465138D02*
G54D11*
D03*
X530225Y460375D02*
G54D11*
D03*
X530225Y455612D02*
G54D11*
D03*
X530225Y450850D02*
G54D11*
D03*
X534988Y446088D02*
G54D11*
D03*
X534988Y441325D02*
G54D11*
D03*
X534988Y436562D02*
G54D11*
D03*
X539750Y436562D02*
G54D11*
D03*
X525462Y441325D02*
G54D11*
D03*
X525462Y436562D02*
G54D11*
D03*
X520700Y436562D02*
G54D11*
D03*
X515938Y441325D02*
G54D11*
D03*
X511175Y441325D02*
G54D11*
D03*
X506412Y441325D02*
G54D11*
D03*
X506412Y436562D02*
G54D11*
D03*
X501650Y436562D02*
G54D11*
D03*
X473075Y484188D02*
G54D11*
D03*
X473075Y488950D02*
G54D11*
D03*
X473075Y493712D02*
G54D11*
D03*
X473075Y498475D02*
G54D11*
D03*
X477838Y503238D02*
G54D11*
D03*
X515938Y493712D02*
G54D11*
D03*
X511175Y498475D02*
G54D11*
D03*
X506412Y498475D02*
G54D11*
D03*
X501650Y498475D02*
G54D11*
D03*
X496888Y498475D02*
G54D11*
D03*
X492125Y493712D02*
G54D11*
D03*
X511175Y488950D02*
G54D11*
D03*
X506412Y488950D02*
G54D11*
D03*
X501650Y488950D02*
G54D11*
D03*
X496888Y488950D02*
G54D11*
D03*
X506412Y493712D02*
G54D11*
D03*
X501650Y493712D02*
G54D11*
D03*
X530225Y441325D02*
G54D11*
D03*
X477838Y479425D02*
G54D11*
D03*
X482600Y479425D02*
G54D11*
D03*
X492125Y474662D02*
G54D11*
D03*
X487362Y474662D02*
G54D11*
D03*
X496888Y474662D02*
G54D11*
D03*
X496888Y469900D02*
G54D11*
D03*
X496888Y465138D02*
G54D11*
D03*
X496888Y460375D02*
G54D11*
D03*
X496888Y455612D02*
G54D11*
D03*
X496888Y450850D02*
G54D11*
D03*
X496888Y446088D02*
G54D11*
D03*
X496888Y441325D02*
G54D11*
D03*
X520700Y508000D02*
G54D11*
D03*
X525462Y503238D02*
G54D11*
D03*
X530225Y498475D02*
G54D11*
D03*
G54D12*
X260350Y440689D02*
X260350Y431800D01*
X257017Y437356D01*
X253683Y431800D01*
X253683Y440689D01*
G54D12*
X251239Y431800D02*
X251239Y436800D01*
G54D12*
X251239Y438467D02*
X251239Y438467D01*
G54D12*
X248795Y431800D02*
X248795Y440689D01*
X244128Y440689D01*
G54D12*
X248795Y436244D02*
X244128Y436244D01*
G54D12*
X241684Y431800D02*
X241684Y436800D01*
G54D12*
X241684Y438467D02*
X241684Y438467D01*
G54D12*
X239240Y435689D02*
X233907Y435689D01*
G54D12*
X231463Y433467D02*
X230796Y432356D01*
X229463Y431800D01*
X228130Y431800D01*
X226796Y432356D01*
X226130Y433467D01*
X226130Y434578D01*
X226796Y435689D01*
X228130Y436244D01*
X229463Y436244D01*
X230796Y436800D01*
X231463Y437911D01*
X231463Y439022D01*
X230796Y440133D01*
X229463Y440689D01*
X228130Y440689D01*
X226796Y440133D01*
X226130Y439022D01*
G54D12*
X219686Y432356D02*
X220753Y431800D01*
X222086Y431800D01*
X223419Y432356D01*
X223686Y433467D01*
X223686Y435356D01*
X223019Y436467D01*
X221686Y436800D01*
X220353Y436467D01*
X219686Y435689D01*
X219686Y434578D01*
X223686Y434578D01*
G54D12*
X217242Y431800D02*
X217242Y436800D01*
G54D12*
X217242Y435689D02*
X215909Y436800D01*
X214575Y436800D01*
G54D12*
X212131Y431800D02*
X212131Y436800D01*
G54D12*
X212131Y438467D02*
X212131Y438467D01*
G54D12*
X209687Y436244D02*
X208354Y436800D01*
X206754Y436800D01*
X205687Y435689D01*
X205687Y431800D01*
G54D12*
X205687Y433467D02*
X206354Y434578D01*
X207687Y434800D01*
X209020Y434578D01*
X209687Y433467D01*
X209420Y432356D01*
X208354Y431800D01*
X207687Y431800D01*
X207420Y431800D01*
X206354Y432356D01*
X205687Y433467D01*
G54D12*
X203243Y431800D02*
X203243Y440689D01*
G54D12*
X198222Y431800D02*
X198222Y440689D01*
G54D12*
X198222Y435356D02*
X197555Y436467D01*
X196222Y436800D01*
X194889Y436467D01*
X194222Y435356D01*
X194222Y433133D01*
X194889Y432022D01*
X196222Y431800D01*
X197555Y432022D01*
X198222Y433133D01*
G54D12*
X191778Y431800D02*
X191778Y436800D01*
G54D12*
X191778Y435689D02*
X190445Y436800D01*
X189111Y436800D01*
G54D12*
X186667Y431800D02*
X186667Y436800D01*
G54D12*
X186667Y438467D02*
X186667Y438467D01*
G54D12*
X180223Y431800D02*
X180223Y440689D01*
G54D12*
X180223Y435356D02*
X180890Y436467D01*
X182223Y436800D01*
X183556Y436467D01*
X184223Y435356D01*
X184223Y433133D01*
X183556Y432022D01*
X182223Y431800D01*
X180890Y432022D01*
X180223Y433133D01*
G54D12*
X177779Y430133D02*
X176446Y429578D01*
X175512Y429578D01*
X174179Y430133D01*
X173779Y431244D01*
X173779Y436800D01*
G54D12*
X173779Y435356D02*
X174446Y436467D01*
X175779Y436800D01*
X177112Y436467D01*
X177779Y435356D01*
X177779Y433133D01*
X177112Y432022D01*
X175779Y431800D01*
X174446Y432022D01*
X173779Y433133D01*
G54D12*
X167335Y432356D02*
X168402Y431800D01*
X169735Y431800D01*
X171068Y432356D01*
X171335Y433467D01*
X171335Y435356D01*
X170668Y436467D01*
X169335Y436800D01*
X168002Y436467D01*
X167335Y435689D01*
X167335Y434578D01*
X171335Y434578D01*
G54D12*
X162314Y431800D02*
X162314Y436800D01*
G54D12*
X162314Y435911D02*
X160981Y436800D01*
X159647Y436467D01*
X158981Y435689D01*
X158981Y431800D01*
G54D12*
X158981Y435911D02*
X157647Y436800D01*
X156314Y436467D01*
X155647Y435689D01*
X155647Y431800D01*
G54D12*
X149203Y433133D02*
X149203Y435356D01*
X149870Y436467D01*
X151203Y436800D01*
X152536Y436467D01*
X153203Y435356D01*
X153203Y433133D01*
X152536Y432022D01*
X151203Y431800D01*
X149870Y432022D01*
X149203Y433133D01*
G54D12*
X142759Y431800D02*
X142759Y440689D01*
G54D12*
X142759Y435356D02*
X143426Y436467D01*
X144759Y436800D01*
X146092Y436467D01*
X146759Y435356D01*
X146759Y433133D01*
X146092Y432022D01*
X144759Y431800D01*
X143426Y432022D01*
X142759Y433133D01*
G54D12*
X136315Y436800D02*
X136315Y431800D01*
G54D12*
X136315Y432911D02*
X136982Y432022D01*
X138315Y431800D01*
X139648Y432022D01*
X140315Y432911D01*
X140315Y436800D01*
G54D12*
X133871Y431800D02*
X133871Y440689D01*
G54D12*
X127427Y432356D02*
X128494Y431800D01*
X129827Y431800D01*
X131160Y432356D01*
X131427Y433467D01*
X131427Y435356D01*
X130760Y436467D01*
X129427Y436800D01*
X128094Y436467D01*
X127427Y435689D01*
X127427Y434578D01*
X131427Y434578D01*
G54D12*
X476250Y400050D02*
X476250Y408939D01*
G54D12*
X476250Y403606D02*
X475583Y404717D01*
X474250Y405050D01*
X472917Y404717D01*
X472250Y403606D01*
X472250Y400050D01*
G54D12*
X468473Y408939D02*
X468473Y400606D01*
X467806Y400050D01*
X467139Y400272D01*
G54D12*
X469806Y405050D02*
X467139Y405050D01*
G54D12*
X463362Y408939D02*
X463362Y400606D01*
X462695Y400050D01*
X462028Y400272D01*
G54D12*
X464695Y405050D02*
X462028Y405050D01*
G54D12*
X459584Y405050D02*
X459584Y397828D01*
G54D12*
X459584Y401717D02*
X458917Y400272D01*
X457584Y400050D01*
X456251Y400272D01*
X455584Y401383D01*
X455584Y403606D01*
X456251Y404717D01*
X457584Y405050D01*
X458917Y404717D01*
X459584Y403383D01*
G54D12*
X453140Y400606D02*
X451807Y400050D01*
X450473Y400050D01*
X449140Y400606D01*
X449140Y401717D01*
X449807Y402272D01*
X452473Y402828D01*
X453140Y403383D01*
X453140Y404494D01*
X451807Y405050D01*
X450473Y405050D01*
X449140Y404494D01*
G54D12*
X446696Y400050D02*
X446696Y400050D01*
G54D12*
X446696Y405050D02*
X446696Y405050D01*
G54D12*
X444252Y400050D02*
X438919Y408939D01*
G54D12*
X436475Y400050D02*
X431142Y408939D01*
G54D12*
X428698Y398383D02*
X427365Y397828D01*
X426431Y397828D01*
X425098Y398383D01*
X424698Y399494D01*
X424698Y405050D01*
G54D12*
X424698Y403606D02*
X425365Y404717D01*
X426698Y405050D01*
X428031Y404717D01*
X428698Y403606D01*
X428698Y401383D01*
X428031Y400272D01*
X426698Y400050D01*
X425365Y400272D01*
X424698Y401383D01*
G54D12*
X422254Y400050D02*
X422254Y405050D01*
G54D12*
X422254Y406717D02*
X422254Y406717D01*
G54D12*
X418477Y408939D02*
X418477Y400606D01*
X417810Y400050D01*
X417143Y400272D01*
G54D12*
X419810Y405050D02*
X417143Y405050D01*
G54D12*
X414699Y400050D02*
X414699Y408939D01*
G54D12*
X414699Y403606D02*
X414032Y404717D01*
X412699Y405050D01*
X411366Y404717D01*
X410699Y403606D01*
X410699Y400050D01*
G54D12*
X404255Y405050D02*
X404255Y400050D01*
G54D12*
X404255Y401161D02*
X404922Y400272D01*
X406255Y400050D01*
X407588Y400272D01*
X408255Y401161D01*
X408255Y405050D01*
G54D12*
X401811Y400050D02*
X401811Y408939D01*
G54D12*
X401811Y403606D02*
X401144Y404717D01*
X399811Y405050D01*
X398478Y404717D01*
X397811Y403606D01*
X397811Y401383D01*
X398478Y400272D01*
X399811Y400050D01*
X401144Y400272D01*
X401811Y401383D01*
G54D12*
X395367Y400050D02*
X395367Y400050D01*
G54D12*
X389590Y404717D02*
X390923Y405050D01*
X392256Y404717D01*
X392923Y403606D01*
X392923Y401383D01*
X392256Y400272D01*
X390923Y400050D01*
X389590Y400272D01*
G54D12*
X383146Y401383D02*
X383146Y403606D01*
X383813Y404717D01*
X385146Y405050D01*
X386479Y404717D01*
X387146Y403606D01*
X387146Y401383D01*
X386479Y400272D01*
X385146Y400050D01*
X383813Y400272D01*
X383146Y401383D01*
G54D12*
X380702Y400050D02*
X380702Y405050D01*
G54D12*
X380702Y404161D02*
X379369Y405050D01*
X378035Y404717D01*
X377369Y403939D01*
X377369Y400050D01*
G54D12*
X377369Y404161D02*
X376035Y405050D01*
X374702Y404717D01*
X374035Y403939D01*
X374035Y400050D01*
G54D12*
X371591Y400050D02*
X366258Y408939D01*
G54D12*
X358481Y401717D02*
X359147Y400606D01*
X360481Y400050D01*
X361814Y400050D01*
X363147Y400606D01*
X363814Y401717D01*
X363814Y407272D01*
X363147Y408383D01*
X361814Y408939D01*
X360481Y408939D01*
X359147Y408383D01*
X358481Y407272D01*
G54D12*
X356037Y400050D02*
X356037Y408939D01*
G54D12*
X356037Y403606D02*
X355370Y404717D01*
X354037Y405050D01*
X352704Y404717D01*
X352037Y403606D01*
X352037Y400050D01*
G54D12*
X349593Y400050D02*
X349593Y405050D01*
G54D12*
X349593Y406717D02*
X349593Y406717D01*
G54D12*
X347149Y405050D02*
X347149Y397828D01*
G54D12*
X347149Y401717D02*
X346482Y400272D01*
X345149Y400050D01*
X343816Y400272D01*
X343149Y401383D01*
X343149Y403606D01*
X343816Y404717D01*
X345149Y405050D01*
X346482Y404717D01*
X347149Y403383D01*
G54D12*
X338038Y400050D02*
X338038Y408939D01*
G54D12*
X340705Y408939D02*
X335372Y408939D01*
G54D12*
X328928Y400606D02*
X329995Y400050D01*
X331328Y400050D01*
X332661Y400606D01*
X332928Y401717D01*
X332928Y403606D01*
X332261Y404717D01*
X330928Y405050D01*
X329595Y404717D01*
X328928Y403939D01*
X328928Y402828D01*
X332928Y402828D01*
G54D12*
X323151Y404717D02*
X324484Y405050D01*
X325817Y404717D01*
X326484Y403606D01*
X326484Y401383D01*
X325817Y400272D01*
X324484Y400050D01*
X323151Y400272D01*
G54D12*
X320707Y400050D02*
X320707Y408939D01*
G54D12*
X320707Y403606D02*
X320040Y404717D01*
X318707Y405050D01*
X317374Y404717D01*
X316707Y403606D01*
X316707Y400050D01*
G54D12*
X314263Y400050D02*
X314263Y405050D01*
G54D12*
X314263Y403939D02*
X313596Y404717D01*
X312263Y405050D01*
X310930Y404717D01*
X310263Y403939D01*
X310263Y400050D01*
G54D12*
X303819Y401383D02*
X303819Y403606D01*
X304486Y404717D01*
X305819Y405050D01*
X307152Y404717D01*
X307819Y403606D01*
X307819Y401383D01*
X307152Y400272D01*
X305819Y400050D01*
X304486Y400272D01*
X303819Y401383D01*
G54D12*
X301375Y400050D02*
X296042Y408939D01*
G54D12*
X288265Y408939D02*
X288265Y401717D01*
X288931Y400606D01*
X290265Y400050D01*
X291598Y400050D01*
X292931Y400606D01*
X293598Y401717D01*
G54D12*
X281821Y405050D02*
X281821Y400050D01*
G54D12*
X281821Y401161D02*
X282488Y400272D01*
X283821Y400050D01*
X285154Y400272D01*
X285821Y401161D01*
X285821Y405050D01*
G54D12*
X279377Y400050D02*
X279377Y405050D01*
G54D12*
X279377Y406717D02*
X279377Y406717D01*
G54D12*
X273600Y404717D02*
X274933Y405050D01*
X276266Y404717D01*
X276933Y403606D01*
X276933Y401383D01*
X276266Y400272D01*
X274933Y400050D01*
X273600Y400272D01*
G54D12*
X267156Y400606D02*
X268223Y400050D01*
X269556Y400050D01*
X270889Y400606D01*
X271156Y401717D01*
X271156Y403606D01*
X270489Y404717D01*
X269156Y405050D01*
X267823Y404717D01*
X267156Y403939D01*
X267156Y402828D01*
X271156Y402828D01*
G54D12*
X264712Y403939D02*
X259379Y403939D01*
G54D12*
X256935Y405050D02*
X256935Y397828D01*
G54D12*
X256935Y401717D02*
X256268Y400272D01*
X254935Y400050D01*
X253602Y400272D01*
X252935Y401383D01*
X252935Y403606D01*
X253602Y404717D01*
X254935Y405050D01*
X256268Y404717D01*
X256935Y403383D01*
G54D12*
X250491Y400050D02*
X250491Y408939D01*
G54D12*
X244047Y405050D02*
X244047Y400050D01*
G54D12*
X244047Y401161D02*
X244714Y400272D01*
X246047Y400050D01*
X247380Y400272D01*
X248047Y401161D01*
X248047Y405050D01*
G54D12*
X241603Y400606D02*
X240270Y400050D01*
X238936Y400050D01*
X237603Y400606D01*
X237603Y401717D01*
X238270Y402272D01*
X240936Y402828D01*
X241603Y403383D01*
X241603Y404494D01*
X240270Y405050D01*
X238936Y405050D01*
X237603Y404494D01*
M02*
