%FSLAX34Y34*%
%MOMM*%
%LNCOPPER_BOTTOM*%
G71*
G01*
%ADD10C, 0.10*%
%ADD11C, 0.50*%
%ADD12C, 0.11*%
%LPD*%
G54D10*
X95250Y977900D02*
X603250Y977900D01*
X603250Y698500D01*
X95250Y698500D01*
X95250Y977900D01*
G54D10*
X603250Y927100D02*
X323850Y927100D01*
X323850Y749300D01*
X603250Y749300D01*
G54D10*
X527050Y927100D02*
X527050Y749300D01*
G54D11*
X533400Y774700D02*
X596900Y774700D01*
X596900Y819150D01*
X571500Y819150D01*
X571500Y844550D01*
X596900Y844550D01*
X596900Y869950D01*
X571500Y869950D01*
X571500Y895350D01*
X596900Y895350D01*
X596900Y920750D01*
X533400Y920750D01*
G54D11*
X533400Y793750D02*
X596900Y793750D01*
G54D12*
X186689Y946150D02*
X177800Y942817D01*
X186689Y939483D01*
G54D12*
X177800Y937039D02*
X186689Y937039D01*
G54D12*
X177800Y934595D02*
X186689Y934595D01*
X177800Y929262D01*
X186689Y929262D01*
G54D12*
X207644Y943483D02*
X207644Y940817D01*
X204867Y940817D01*
X203756Y941483D01*
X203200Y942817D01*
X203200Y944150D01*
X203756Y945483D01*
X204867Y946150D01*
X210422Y946150D01*
X211533Y945483D01*
X212089Y944150D01*
X212089Y942817D01*
X211533Y941483D01*
X210422Y940817D01*
G54D12*
X203200Y938373D02*
X212089Y938373D01*
X203200Y933040D01*
X212089Y933040D01*
G54D12*
X203200Y930596D02*
X212089Y930596D01*
X212089Y927263D01*
X211533Y925929D01*
X210422Y925263D01*
X204867Y925263D01*
X203756Y925929D01*
X203200Y927263D01*
X203200Y930596D01*
G54D12*
X228600Y946150D02*
X237489Y946150D01*
X237489Y942817D01*
X236933Y941483D01*
X235822Y940817D01*
X230267Y940817D01*
X229156Y941483D01*
X228600Y942817D01*
X228600Y946150D01*
G54D12*
X234156Y938373D02*
X237489Y935040D01*
X228600Y935040D01*
G54D12*
X235822Y932596D02*
X236933Y931929D01*
X237489Y930596D01*
X237489Y929263D01*
X236933Y927929D01*
X235822Y927263D01*
X234711Y927263D01*
X233600Y927929D01*
X233044Y929263D01*
X232489Y927929D01*
X231378Y927263D01*
X230267Y927263D01*
X229156Y927929D01*
X228600Y929263D01*
X228600Y930596D01*
X229156Y931929D01*
X230267Y932596D01*
G54D12*
X254000Y946150D02*
X262889Y946150D01*
X262889Y942817D01*
X262333Y941483D01*
X261222Y940817D01*
X255667Y940817D01*
X254556Y941483D01*
X254000Y942817D01*
X254000Y946150D01*
G54D12*
X259556Y938373D02*
X262889Y935040D01*
X254000Y935040D01*
G54D12*
X254000Y927263D02*
X254000Y932596D01*
X254556Y932596D01*
X255667Y931929D01*
X259000Y927929D01*
X260111Y927263D01*
X261222Y927263D01*
X262333Y927929D01*
X262889Y929263D01*
X262889Y930596D01*
X262333Y931929D01*
X261222Y932596D01*
G54D12*
X279400Y946150D02*
X288289Y946150D01*
X288289Y942817D01*
X287733Y941483D01*
X286622Y940817D01*
X281067Y940817D01*
X279956Y941483D01*
X279400Y942817D01*
X279400Y946150D01*
G54D12*
X284956Y938373D02*
X288289Y935040D01*
X279400Y935040D01*
G54D12*
X279400Y928596D02*
X288289Y928596D01*
X282733Y932596D01*
X281622Y932596D01*
X281622Y927263D01*
G54D12*
X304800Y946150D02*
X313689Y946150D01*
X313689Y942817D01*
X313133Y941483D01*
X312022Y940817D01*
X306467Y940817D01*
X305356Y941483D01*
X304800Y942817D01*
X304800Y946150D01*
G54D12*
X304800Y933040D02*
X304800Y938373D01*
X305356Y938373D01*
X306467Y937706D01*
X309800Y933706D01*
X310911Y933040D01*
X312022Y933040D01*
X313133Y933706D01*
X313689Y935040D01*
X313689Y936373D01*
X313133Y937706D01*
X312022Y938373D01*
G54D12*
X313689Y930596D02*
X313689Y925263D01*
X312578Y925929D01*
X310911Y927263D01*
X308689Y928596D01*
X307022Y929263D01*
X304800Y929263D01*
G54D12*
X330200Y946150D02*
X339089Y946150D01*
X339089Y942817D01*
X338533Y941483D01*
X337422Y940817D01*
X331867Y940817D01*
X330756Y941483D01*
X330200Y942817D01*
X330200Y946150D01*
G54D12*
X330200Y933040D02*
X330200Y938373D01*
X330756Y938373D01*
X331867Y937706D01*
X335200Y933706D01*
X336311Y933040D01*
X337422Y933040D01*
X338533Y933706D01*
X339089Y935040D01*
X339089Y936373D01*
X338533Y937706D01*
X337422Y938373D01*
G54D12*
X337422Y925263D02*
X338533Y925929D01*
X339089Y927263D01*
X339089Y928596D01*
X338533Y929929D01*
X337422Y930596D01*
X334644Y930596D01*
X334089Y930596D01*
X335200Y928596D01*
X335200Y927263D01*
X334644Y925929D01*
X333533Y925263D01*
X331867Y925263D01*
X330756Y925929D01*
X330200Y927263D01*
X330200Y928596D01*
X330756Y929929D01*
X331867Y930596D01*
X334644Y930596D01*
G54D12*
X355600Y946150D02*
X364489Y946150D01*
X364489Y942817D01*
X363933Y941483D01*
X362822Y940817D01*
X357267Y940817D01*
X356156Y941483D01*
X355600Y942817D01*
X355600Y946150D01*
G54D12*
X355600Y933040D02*
X355600Y938373D01*
X356156Y938373D01*
X357267Y937706D01*
X360600Y933706D01*
X361711Y933040D01*
X362822Y933040D01*
X363933Y933706D01*
X364489Y935040D01*
X364489Y936373D01*
X363933Y937706D01*
X362822Y938373D01*
G54D12*
X364489Y925263D02*
X364489Y930596D01*
X360600Y930596D01*
X360600Y929929D01*
X361156Y928596D01*
X361156Y927263D01*
X360600Y925929D01*
X359489Y925263D01*
X357267Y925263D01*
X356156Y925929D01*
X355600Y927263D01*
X355600Y928596D01*
X356156Y929929D01*
X357267Y930596D01*
G54D12*
X381000Y946150D02*
X389889Y946150D01*
X389889Y942817D01*
X389333Y941483D01*
X388222Y940817D01*
X382667Y940817D01*
X381556Y941483D01*
X381000Y942817D01*
X381000Y946150D01*
G54D12*
X388222Y938373D02*
X389333Y937706D01*
X389889Y936373D01*
X389889Y935040D01*
X389333Y933706D01*
X388222Y933040D01*
X387111Y933040D01*
X386000Y933706D01*
X385444Y935040D01*
X384889Y933706D01*
X383778Y933040D01*
X382667Y933040D01*
X381556Y933706D01*
X381000Y935040D01*
X381000Y936373D01*
X381556Y937706D01*
X382667Y938373D01*
G54D12*
X388222Y930596D02*
X389333Y929929D01*
X389889Y928596D01*
X389889Y927263D01*
X389333Y925929D01*
X388222Y925263D01*
X387111Y925263D01*
X386000Y925929D01*
X385444Y927263D01*
X384889Y925929D01*
X383778Y925263D01*
X382667Y925263D01*
X381556Y925929D01*
X381000Y927263D01*
X381000Y928596D01*
X381556Y929929D01*
X382667Y930596D01*
G54D12*
X406400Y946150D02*
X415289Y946150D01*
X415289Y942817D01*
X414733Y941483D01*
X413622Y940817D01*
X408067Y940817D01*
X406956Y941483D01*
X406400Y942817D01*
X406400Y946150D01*
G54D12*
X413622Y938373D02*
X414733Y937706D01*
X415289Y936373D01*
X415289Y935040D01*
X414733Y933706D01*
X413622Y933040D01*
X412511Y933040D01*
X411400Y933706D01*
X410844Y935040D01*
X410289Y933706D01*
X409178Y933040D01*
X408067Y933040D01*
X406956Y933706D01*
X406400Y935040D01*
X406400Y936373D01*
X406956Y937706D01*
X408067Y938373D01*
G54D12*
X406400Y925263D02*
X406400Y930596D01*
X406956Y930596D01*
X408067Y929929D01*
X411400Y925929D01*
X412511Y925263D01*
X413622Y925263D01*
X414733Y925929D01*
X415289Y927263D01*
X415289Y928596D01*
X414733Y929929D01*
X413622Y930596D01*
G54D12*
X431800Y946150D02*
X440689Y946150D01*
X440689Y942817D01*
X440133Y941483D01*
X439022Y940817D01*
X433467Y940817D01*
X432356Y941483D01*
X431800Y942817D01*
X431800Y946150D01*
G54D12*
X439022Y938373D02*
X440133Y937706D01*
X440689Y936373D01*
X440689Y935040D01*
X440133Y933706D01*
X439022Y933040D01*
X437911Y933040D01*
X436800Y933706D01*
X436244Y935040D01*
X435689Y933706D01*
X434578Y933040D01*
X433467Y933040D01*
X432356Y933706D01*
X431800Y935040D01*
X431800Y936373D01*
X432356Y937706D01*
X433467Y938373D01*
G54D12*
X440689Y925263D02*
X440689Y930596D01*
X436800Y930596D01*
X436800Y929929D01*
X437356Y928596D01*
X437356Y927263D01*
X436800Y925929D01*
X435689Y925263D01*
X433467Y925263D01*
X432356Y925929D01*
X431800Y927263D01*
X431800Y928596D01*
X432356Y929929D01*
X433467Y930596D01*
G54D12*
X457200Y946150D02*
X466089Y946150D01*
X466089Y942817D01*
X465533Y941483D01*
X464422Y940817D01*
X458867Y940817D01*
X457756Y941483D01*
X457200Y942817D01*
X457200Y946150D01*
G54D12*
X464422Y938373D02*
X465533Y937706D01*
X466089Y936373D01*
X466089Y935040D01*
X465533Y933706D01*
X464422Y933040D01*
X463311Y933040D01*
X462200Y933706D01*
X461644Y935040D01*
X461089Y933706D01*
X459978Y933040D01*
X458867Y933040D01*
X457756Y933706D01*
X457200Y935040D01*
X457200Y936373D01*
X457756Y937706D01*
X458867Y938373D01*
G54D12*
X457200Y926596D02*
X466089Y926596D01*
X460533Y930596D01*
X459422Y930596D01*
X459422Y925263D01*
G54D12*
X482600Y946150D02*
X491489Y946150D01*
X491489Y942817D01*
X490933Y941483D01*
X489822Y940817D01*
X484267Y940817D01*
X483156Y941483D01*
X482600Y942817D01*
X482600Y946150D01*
G54D12*
X489822Y938373D02*
X490933Y937706D01*
X491489Y936373D01*
X491489Y935040D01*
X490933Y933706D01*
X489822Y933040D01*
X488711Y933040D01*
X487600Y933706D01*
X487044Y935040D01*
X486489Y933706D01*
X485378Y933040D01*
X484267Y933040D01*
X483156Y933706D01*
X482600Y935040D01*
X482600Y936373D01*
X483156Y937706D01*
X484267Y938373D01*
G54D12*
X484267Y930596D02*
X483156Y929929D01*
X482600Y928596D01*
X482600Y927263D01*
X483156Y925929D01*
X484267Y925263D01*
X487044Y925263D01*
X487600Y925263D01*
X486489Y927263D01*
X486489Y928596D01*
X487044Y929929D01*
X488156Y930596D01*
X489822Y930596D01*
X490933Y929929D01*
X491489Y928596D01*
X491489Y927263D01*
X490933Y925929D01*
X489822Y925263D01*
X487044Y925263D01*
G54D12*
X508000Y946150D02*
X516889Y946150D01*
X516889Y942817D01*
X516333Y941483D01*
X515222Y940817D01*
X509667Y940817D01*
X508556Y941483D01*
X508000Y942817D01*
X508000Y946150D01*
G54D12*
X515222Y938373D02*
X516333Y937706D01*
X516889Y936373D01*
X516889Y935040D01*
X516333Y933706D01*
X515222Y933040D01*
X514111Y933040D01*
X513000Y933706D01*
X512444Y935040D01*
X511889Y933706D01*
X510778Y933040D01*
X509667Y933040D01*
X508556Y933706D01*
X508000Y935040D01*
X508000Y936373D01*
X508556Y937706D01*
X509667Y938373D01*
G54D12*
X515222Y925263D02*
X516333Y925929D01*
X516889Y927263D01*
X516889Y928596D01*
X516333Y929929D01*
X515222Y930596D01*
X512444Y930596D01*
X511889Y930596D01*
X513000Y928596D01*
X513000Y927263D01*
X512444Y925929D01*
X511333Y925263D01*
X509667Y925263D01*
X508556Y925929D01*
X508000Y927263D01*
X508000Y928596D01*
X508556Y929929D01*
X509667Y930596D01*
X512444Y930596D01*
G54D12*
X533400Y941483D02*
X533400Y946150D01*
X542289Y946150D01*
X542289Y941483D01*
G54D12*
X537844Y946150D02*
X537844Y941483D01*
G54D12*
X533400Y939039D02*
X542289Y939039D01*
X533400Y933706D01*
X542289Y933706D01*
G54D12*
X533400Y749300D02*
X542289Y749300D01*
X542289Y745967D01*
X541733Y744633D01*
X540622Y743967D01*
X535067Y743967D01*
X533956Y744633D01*
X533400Y745967D01*
X533400Y749300D01*
G54D12*
X533400Y736190D02*
X533400Y741523D01*
X533956Y741523D01*
X535067Y740856D01*
X538400Y736856D01*
X539511Y736190D01*
X540622Y736190D01*
X541733Y736856D01*
X542289Y738190D01*
X542289Y739523D01*
X541733Y740856D01*
X540622Y741523D01*
G54D12*
X540622Y733746D02*
X541733Y733079D01*
X542289Y731746D01*
X542289Y730413D01*
X541733Y729079D01*
X540622Y728413D01*
X539511Y728413D01*
X538400Y729079D01*
X537844Y730413D01*
X537289Y729079D01*
X536178Y728413D01*
X535067Y728413D01*
X533956Y729079D01*
X533400Y730413D01*
X533400Y731746D01*
X533956Y733079D01*
X535067Y733746D01*
G54D12*
X508000Y749300D02*
X516889Y749300D01*
X516889Y745967D01*
X516333Y744633D01*
X515222Y743967D01*
X509667Y743967D01*
X508556Y744633D01*
X508000Y745967D01*
X508000Y749300D01*
G54D12*
X508000Y736190D02*
X508000Y741523D01*
X508556Y741523D01*
X509667Y740856D01*
X513000Y736856D01*
X514111Y736190D01*
X515222Y736190D01*
X516333Y736856D01*
X516889Y738190D01*
X516889Y739523D01*
X516333Y740856D01*
X515222Y741523D01*
G54D12*
X508000Y728413D02*
X508000Y733746D01*
X508556Y733746D01*
X509667Y733079D01*
X513000Y729079D01*
X514111Y728413D01*
X515222Y728413D01*
X516333Y729079D01*
X516889Y730413D01*
X516889Y731746D01*
X516333Y733079D01*
X515222Y733746D01*
G54D12*
X482600Y742950D02*
X491489Y742950D01*
X491489Y739617D01*
X490933Y738283D01*
X489822Y737617D01*
X484267Y737617D01*
X483156Y738283D01*
X482600Y739617D01*
X482600Y742950D01*
G54D12*
X488156Y735173D02*
X491489Y731840D01*
X482600Y731840D01*
G54D12*
X457200Y742950D02*
X466089Y742950D01*
X466089Y739617D01*
X465533Y738283D01*
X464422Y737617D01*
X458867Y737617D01*
X457756Y738283D01*
X457200Y739617D01*
X457200Y742950D01*
G54D12*
X464422Y735173D02*
X465533Y734506D01*
X466089Y733173D01*
X466089Y731840D01*
X465533Y730506D01*
X464422Y729840D01*
X463311Y729840D01*
X462200Y730506D01*
X461644Y731840D01*
X461089Y730506D01*
X459978Y729840D01*
X458867Y729840D01*
X457756Y730506D01*
X457200Y731840D01*
X457200Y733173D01*
X457756Y734506D01*
X458867Y735173D01*
G54D12*
X431800Y749300D02*
X440689Y749300D01*
X440689Y745967D01*
X440133Y744633D01*
X439022Y743967D01*
X433467Y743967D01*
X432356Y744633D01*
X431800Y745967D01*
X431800Y749300D01*
G54D12*
X431800Y736190D02*
X431800Y741523D01*
X432356Y741523D01*
X433467Y740856D01*
X436800Y736856D01*
X437911Y736190D01*
X439022Y736190D01*
X440133Y736856D01*
X440689Y738190D01*
X440689Y739523D01*
X440133Y740856D01*
X439022Y741523D01*
G54D12*
X437356Y733746D02*
X440689Y730413D01*
X431800Y730413D01*
G54D12*
X406400Y749300D02*
X415289Y749300D01*
X415289Y745967D01*
X414733Y744633D01*
X413622Y743967D01*
X408067Y743967D01*
X406956Y744633D01*
X406400Y745967D01*
X406400Y749300D01*
G54D12*
X411956Y741523D02*
X415289Y738190D01*
X406400Y738190D01*
G54D12*
X408067Y735746D02*
X406956Y735079D01*
X406400Y733746D01*
X406400Y732413D01*
X406956Y731079D01*
X408067Y730413D01*
X410844Y730413D01*
X411400Y730413D01*
X410289Y732413D01*
X410289Y733746D01*
X410844Y735079D01*
X411956Y735746D01*
X413622Y735746D01*
X414733Y735079D01*
X415289Y733746D01*
X415289Y732413D01*
X414733Y731079D01*
X413622Y730413D01*
X410844Y730413D01*
G54D12*
X381000Y749300D02*
X389889Y749300D01*
X389889Y745967D01*
X389333Y744633D01*
X388222Y743967D01*
X382667Y743967D01*
X381556Y744633D01*
X381000Y745967D01*
X381000Y749300D01*
G54D12*
X386556Y741523D02*
X389889Y738190D01*
X381000Y738190D01*
G54D12*
X385444Y732413D02*
X385444Y733746D01*
X386000Y735079D01*
X387111Y735746D01*
X388222Y735746D01*
X389333Y735079D01*
X389889Y733746D01*
X389889Y732413D01*
X389333Y731079D01*
X388222Y730413D01*
X387111Y730413D01*
X386000Y731079D01*
X385444Y732413D01*
X384889Y731079D01*
X383778Y730413D01*
X382667Y730413D01*
X381556Y731079D01*
X381000Y732413D01*
X381000Y733746D01*
X381556Y735079D01*
X382667Y735746D01*
X383778Y735746D01*
X384889Y735079D01*
X385444Y733746D01*
G54D12*
X355600Y749300D02*
X364489Y749300D01*
X364489Y745967D01*
X363933Y744633D01*
X362822Y743967D01*
X357267Y743967D01*
X356156Y744633D01*
X355600Y745967D01*
X355600Y749300D01*
G54D12*
X364489Y736190D02*
X364489Y741523D01*
X360600Y741523D01*
X360600Y740856D01*
X361156Y739523D01*
X361156Y738190D01*
X360600Y736856D01*
X359489Y736190D01*
X357267Y736190D01*
X356156Y736856D01*
X355600Y738190D01*
X355600Y739523D01*
X356156Y740856D01*
X357267Y741523D01*
G54D12*
X330200Y749300D02*
X339089Y749300D01*
X339089Y745967D01*
X338533Y744633D01*
X337422Y743967D01*
X331867Y743967D01*
X330756Y744633D01*
X330200Y745967D01*
X330200Y749300D01*
G54D12*
X335756Y741523D02*
X339089Y738190D01*
X330200Y738190D01*
G54D12*
X339089Y735746D02*
X339089Y730413D01*
X337978Y731079D01*
X336311Y732413D01*
X334089Y733746D01*
X332422Y734413D01*
X330200Y734413D01*
G54D12*
X304800Y749300D02*
X313689Y749300D01*
X313689Y745967D01*
X313133Y744633D01*
X312022Y743967D01*
X306467Y743967D01*
X305356Y744633D01*
X304800Y745967D01*
X304800Y749300D01*
G54D12*
X310356Y741523D02*
X313689Y738190D01*
X304800Y738190D01*
G54D12*
X312022Y730413D02*
X313133Y731079D01*
X313689Y732413D01*
X313689Y733746D01*
X313133Y735079D01*
X312022Y735746D01*
X309244Y735746D01*
X308689Y735746D01*
X309800Y733746D01*
X309800Y732413D01*
X309244Y731079D01*
X308133Y730413D01*
X306467Y730413D01*
X305356Y731079D01*
X304800Y732413D01*
X304800Y733746D01*
X305356Y735079D01*
X306467Y735746D01*
X309244Y735746D01*
G54D12*
X279400Y749300D02*
X288289Y749300D01*
X288289Y745967D01*
X287733Y744633D01*
X286622Y743967D01*
X281067Y743967D01*
X279956Y744633D01*
X279400Y745967D01*
X279400Y749300D01*
G54D12*
X279400Y737523D02*
X288289Y737523D01*
X282733Y741523D01*
X281622Y741523D01*
X281622Y736190D01*
G54D12*
X254000Y749300D02*
X262889Y749300D01*
X262889Y745967D01*
X262333Y744633D01*
X261222Y743967D01*
X255667Y743967D01*
X254556Y744633D01*
X254000Y745967D01*
X254000Y749300D01*
G54D12*
X254000Y736190D02*
X254000Y741523D01*
X254556Y741523D01*
X255667Y740856D01*
X259000Y736856D01*
X260111Y736190D01*
X261222Y736190D01*
X262333Y736856D01*
X262889Y738190D01*
X262889Y739523D01*
X262333Y740856D01*
X261222Y741523D01*
G54D12*
X228600Y749300D02*
X237489Y749300D01*
X237489Y745967D01*
X236933Y744633D01*
X235822Y743967D01*
X230267Y743967D01*
X229156Y744633D01*
X228600Y745967D01*
X228600Y749300D01*
G54D12*
X234156Y741523D02*
X237489Y738190D01*
X228600Y738190D01*
G54D12*
X237489Y730413D02*
X237489Y735746D01*
X233600Y735746D01*
X233600Y735079D01*
X234156Y733746D01*
X234156Y732413D01*
X233600Y731079D01*
X232489Y730413D01*
X230267Y730413D01*
X229156Y731079D01*
X228600Y732413D01*
X228600Y733746D01*
X229156Y735079D01*
X230267Y735746D01*
G54D12*
X207644Y746633D02*
X207644Y743967D01*
X204867Y743967D01*
X203756Y744633D01*
X203200Y745967D01*
X203200Y747300D01*
X203756Y748633D01*
X204867Y749300D01*
X210422Y749300D01*
X211533Y748633D01*
X212089Y747300D01*
X212089Y745967D01*
X211533Y744633D01*
X210422Y743967D01*
G54D12*
X203200Y741523D02*
X212089Y741523D01*
X203200Y736190D01*
X212089Y736190D01*
G54D12*
X203200Y733746D02*
X212089Y733746D01*
X212089Y730413D01*
X211533Y729079D01*
X210422Y728413D01*
X204867Y728413D01*
X203756Y729079D01*
X203200Y730413D01*
X203200Y733746D01*
G54D12*
X185022Y749300D02*
X186133Y748633D01*
X186689Y747300D01*
X186689Y745967D01*
X186133Y744633D01*
X185022Y743967D01*
X183911Y743967D01*
X182800Y744633D01*
X182244Y745967D01*
X181689Y744633D01*
X180578Y743967D01*
X179467Y743967D01*
X178356Y744633D01*
X177800Y745967D01*
X177800Y747300D01*
X178356Y748633D01*
X179467Y749300D01*
G54D12*
X186689Y741523D02*
X177800Y738190D01*
X186689Y734856D01*
G54D12*
X185022Y732412D02*
X186133Y731745D01*
X186689Y730412D01*
X186689Y729079D01*
X186133Y727745D01*
X185022Y727079D01*
X183911Y727079D01*
X182800Y727745D01*
X182244Y729079D01*
X181689Y727745D01*
X180578Y727079D01*
X179467Y727079D01*
X178356Y727745D01*
X177800Y729079D01*
X177800Y730412D01*
X178356Y731745D01*
X179467Y732412D01*
G54D12*
X516889Y914400D02*
X508000Y911067D01*
X516889Y907733D01*
G54D12*
X508000Y905289D02*
X516889Y905289D01*
X516889Y901956D01*
X516333Y900622D01*
X515222Y899956D01*
X514111Y899956D01*
X513000Y900622D01*
X512444Y901956D01*
X512444Y905289D01*
G54D12*
X491489Y914400D02*
X482600Y911067D01*
X491489Y907733D01*
G54D12*
X482600Y905289D02*
X491489Y905289D01*
X482600Y899956D01*
X491489Y899956D01*
G54D12*
X461644Y784733D02*
X460533Y782733D01*
X459422Y782067D01*
X457200Y782067D01*
G54D12*
X457200Y787400D02*
X466089Y787400D01*
X466089Y784067D01*
X465533Y782733D01*
X464422Y782067D01*
X463311Y782067D01*
X462200Y782733D01*
X461644Y784067D01*
X461644Y787400D01*
G54D12*
X466089Y779623D02*
X457200Y772956D01*
G54D12*
X457200Y779623D02*
X466089Y772956D01*
G54D12*
X461089Y770512D02*
X461089Y765179D01*
G54D12*
X464422Y757402D02*
X458867Y757402D01*
X457756Y758068D01*
X457200Y759402D01*
X457200Y760735D01*
X457756Y762068D01*
X458867Y762735D01*
X464422Y762735D01*
X465533Y762068D01*
X466089Y760735D01*
X466089Y759402D01*
X465533Y758068D01*
X464422Y757402D01*
G54D12*
X482600Y784733D02*
X491489Y784733D01*
G54D12*
X491489Y787400D02*
X491489Y782067D01*
G54D12*
X491489Y779623D02*
X482600Y772956D01*
G54D12*
X482600Y779623D02*
X491489Y772956D01*
G54D12*
X486489Y770512D02*
X486489Y765179D01*
G54D12*
X489822Y757402D02*
X484267Y757402D01*
X483156Y758068D01*
X482600Y759402D01*
X482600Y760735D01*
X483156Y762068D01*
X484267Y762735D01*
X489822Y762735D01*
X490933Y762068D01*
X491489Y760735D01*
X491489Y759402D01*
X490933Y758068D01*
X489822Y757402D01*
G54D12*
X509667Y774700D02*
X508556Y774033D01*
X508000Y772700D01*
X508000Y771367D01*
X508556Y770033D01*
X509667Y769367D01*
X510778Y769367D01*
X511889Y770033D01*
X512444Y771367D01*
X512444Y772700D01*
X513000Y774033D01*
X514111Y774700D01*
X515222Y774700D01*
X516333Y774033D01*
X516889Y772700D01*
X516889Y771367D01*
X516333Y770033D01*
X515222Y769367D01*
G54D12*
X509667Y761590D02*
X508556Y762256D01*
X508000Y763590D01*
X508000Y764923D01*
X508556Y766256D01*
X509667Y766923D01*
X515222Y766923D01*
X516333Y766256D01*
X516889Y764923D01*
X516889Y763590D01*
X516333Y762256D01*
X515222Y761590D01*
G54D12*
X516889Y759146D02*
X508000Y759146D01*
X508000Y754479D01*
G54D12*
X433467Y781050D02*
X432356Y780383D01*
X431800Y779050D01*
X431800Y777717D01*
X432356Y776383D01*
X433467Y775717D01*
X434578Y775717D01*
X435689Y776383D01*
X436244Y777717D01*
X436244Y779050D01*
X436800Y780383D01*
X437911Y781050D01*
X439022Y781050D01*
X440133Y780383D01*
X440689Y779050D01*
X440689Y777717D01*
X440133Y776383D01*
X439022Y775717D01*
G54D12*
X431800Y773273D02*
X440689Y773273D01*
X440689Y769940D01*
X440133Y768606D01*
X439022Y767940D01*
X433467Y767940D01*
X432356Y768606D01*
X431800Y769940D01*
X431800Y773273D01*
G54D12*
X431800Y765496D02*
X440689Y762163D01*
X431800Y758829D01*
G54D12*
X435133Y764163D02*
X435133Y760163D01*
G54D10*
X425450Y647700D02*
X323850Y647700D01*
X323850Y673100D01*
X425450Y673100D01*
X425450Y647700D01*
G54D10*
X425450Y647700D02*
X514350Y647700D01*
X514350Y952500D01*
X234950Y952500D01*
X234950Y647700D01*
X323850Y647700D01*
G54D10*
X425450Y863600D02*
X425450Y762000D01*
X400050Y762000D01*
X400050Y863600D01*
X425450Y863600D01*
G54D12*
X509906Y656717D02*
X509906Y659383D01*
X512683Y659383D01*
X513794Y658717D01*
X514350Y657383D01*
X514350Y656050D01*
X513794Y654717D01*
X512683Y654050D01*
X507128Y654050D01*
X506017Y654717D01*
X505461Y656050D01*
X505461Y657383D01*
X506017Y658717D01*
X507128Y659383D01*
G54D12*
X514350Y661827D02*
X505461Y661827D01*
X514350Y667160D01*
X505461Y667160D01*
G54D12*
X514350Y669604D02*
X505461Y669604D01*
X505461Y672937D01*
X506017Y674271D01*
X507128Y674937D01*
X512683Y674937D01*
X513794Y674271D01*
X514350Y672937D01*
X514350Y669604D01*
G54D12*
X480061Y654050D02*
X488950Y657383D01*
X480061Y660717D01*
G54D12*
X487283Y668494D02*
X488394Y667828D01*
X488950Y666494D01*
X488950Y665161D01*
X488394Y663828D01*
X487283Y663161D01*
X481728Y663161D01*
X480617Y663828D01*
X480061Y665161D01*
X480061Y666494D01*
X480617Y667828D01*
X481728Y668494D01*
G54D12*
X487283Y676271D02*
X488394Y675605D01*
X488950Y674271D01*
X488950Y672938D01*
X488394Y671605D01*
X487283Y670938D01*
X481728Y670938D01*
X480617Y671605D01*
X480061Y672938D01*
X480061Y674271D01*
X480617Y675605D01*
X481728Y676271D01*
G54D12*
X461883Y654050D02*
X462994Y654717D01*
X463550Y656050D01*
X463550Y657383D01*
X462994Y658717D01*
X461883Y659383D01*
X460772Y659383D01*
X459661Y658717D01*
X459106Y657383D01*
X459106Y656050D01*
X458550Y654717D01*
X457439Y654050D01*
X456328Y654050D01*
X455217Y654717D01*
X454661Y656050D01*
X454661Y657383D01*
X455217Y658717D01*
X456328Y659383D01*
G54D12*
X461883Y667160D02*
X462994Y666494D01*
X463550Y665160D01*
X463550Y663827D01*
X462994Y662494D01*
X461883Y661827D01*
X456328Y661827D01*
X455217Y662494D01*
X454661Y663827D01*
X454661Y665160D01*
X455217Y666494D01*
X456328Y667160D01*
G54D12*
X454661Y669604D02*
X463550Y669604D01*
X463550Y674271D01*
G54D12*
X436483Y654050D02*
X437594Y654717D01*
X438150Y656050D01*
X438150Y657383D01*
X437594Y658717D01*
X436483Y659383D01*
X435372Y659383D01*
X434261Y658717D01*
X433706Y657383D01*
X433706Y656050D01*
X433150Y654717D01*
X432039Y654050D01*
X430928Y654050D01*
X429817Y654717D01*
X429261Y656050D01*
X429261Y657383D01*
X429817Y658717D01*
X430928Y659383D01*
G54D12*
X438150Y661827D02*
X429261Y661827D01*
X429261Y665160D01*
X429817Y666494D01*
X430928Y667160D01*
X436483Y667160D01*
X437594Y666494D01*
X438150Y665160D01*
X438150Y661827D01*
G54D12*
X438150Y669604D02*
X429261Y672937D01*
X438150Y676271D01*
G54D12*
X434817Y670937D02*
X434817Y674937D01*
G54D12*
X663067Y772794D02*
X665067Y771683D01*
X665733Y770572D01*
X665733Y768350D01*
G54D12*
X660400Y768350D02*
X660400Y777239D01*
X663733Y777239D01*
X665067Y776683D01*
X665733Y775572D01*
X665733Y774461D01*
X665067Y773350D01*
X663733Y772794D01*
X660400Y772794D01*
G54D12*
X668177Y777239D02*
X674844Y768350D01*
G54D12*
X668177Y768350D02*
X674844Y777239D01*
G54D12*
X663067Y793750D02*
X663067Y802639D01*
G54D12*
X660400Y802639D02*
X665733Y802639D01*
G54D12*
X668177Y802639D02*
X674844Y793750D01*
G54D12*
X668177Y793750D02*
X674844Y802639D01*
G54D12*
X654050Y853439D02*
X657383Y844550D01*
X660717Y853439D01*
G54D12*
X668494Y846217D02*
X667828Y845106D01*
X666494Y844550D01*
X665161Y844550D01*
X663828Y845106D01*
X663161Y846217D01*
X663161Y851772D01*
X663828Y852883D01*
X665161Y853439D01*
X666494Y853439D01*
X667828Y852883D01*
X668494Y851772D01*
G54D12*
X676271Y846217D02*
X675605Y845106D01*
X674271Y844550D01*
X672938Y844550D01*
X671605Y845106D01*
X670938Y846217D01*
X670938Y851772D01*
X671605Y852883D01*
X672938Y853439D01*
X674271Y853439D01*
X675605Y852883D01*
X676271Y851772D01*
G54D12*
X656717Y823594D02*
X659383Y823594D01*
X659383Y820817D01*
X658717Y819706D01*
X657383Y819150D01*
X656050Y819150D01*
X654717Y819706D01*
X654050Y820817D01*
X654050Y826372D01*
X654717Y827483D01*
X656050Y828039D01*
X657383Y828039D01*
X658717Y827483D01*
X659383Y826372D01*
G54D12*
X661827Y819150D02*
X661827Y828039D01*
X667160Y819150D01*
X667160Y828039D01*
G54D12*
X669604Y819150D02*
X669604Y828039D01*
X672937Y828039D01*
X674271Y827483D01*
X674937Y826372D01*
X674937Y820817D01*
X674271Y819706D01*
X672937Y819150D01*
X669604Y819150D01*
G54D12*
X50800Y958850D02*
X50800Y967739D01*
X54133Y962183D01*
X57467Y967739D01*
X57467Y958850D01*
G54D12*
X59911Y966072D02*
X60578Y967183D01*
X61911Y967739D01*
X63244Y967739D01*
X64578Y967183D01*
X65244Y966072D01*
X65244Y964961D01*
X64578Y963850D01*
X63244Y963294D01*
X64578Y962739D01*
X65244Y961628D01*
X65244Y960517D01*
X64578Y959406D01*
X63244Y958850D01*
X61911Y958850D01*
X60578Y959406D01*
X59911Y960517D01*
G54D12*
X50800Y660400D02*
X50800Y669289D01*
X54133Y663733D01*
X57467Y669289D01*
X57467Y660400D01*
G54D12*
X59911Y667622D02*
X60578Y668733D01*
X61911Y669289D01*
X63244Y669289D01*
X64578Y668733D01*
X65244Y667622D01*
X65244Y666511D01*
X64578Y665400D01*
X63244Y664844D01*
X64578Y664289D01*
X65244Y663178D01*
X65244Y662067D01*
X64578Y660956D01*
X63244Y660400D01*
X61911Y660400D01*
X60578Y660956D01*
X59911Y662067D01*
G54D12*
X635000Y958850D02*
X635000Y967739D01*
X638333Y962183D01*
X641667Y967739D01*
X641667Y958850D01*
G54D12*
X644111Y966072D02*
X644778Y967183D01*
X646111Y967739D01*
X647444Y967739D01*
X648778Y967183D01*
X649444Y966072D01*
X649444Y964961D01*
X648778Y963850D01*
X647444Y963294D01*
X648778Y962739D01*
X649444Y961628D01*
X649444Y960517D01*
X648778Y959406D01*
X647444Y958850D01*
X646111Y958850D01*
X644778Y959406D01*
X644111Y960517D01*
G54D12*
X635000Y660400D02*
X635000Y669289D01*
X638333Y663733D01*
X641667Y669289D01*
X641667Y660400D01*
G54D12*
X644111Y667622D02*
X644778Y668733D01*
X646111Y669289D01*
X647444Y669289D01*
X648778Y668733D01*
X649444Y667622D01*
X649444Y666511D01*
X648778Y665400D01*
X647444Y664844D01*
X648778Y664289D01*
X649444Y663178D01*
X649444Y662067D01*
X648778Y660956D01*
X647444Y660400D01*
X646111Y660400D01*
X644778Y660956D01*
X644111Y662067D01*
G54D10*
X298450Y863600D02*
X298450Y762000D01*
X273050Y762000D01*
X273050Y863600D01*
X298450Y863600D01*
G54D12*
X21717Y772794D02*
X23717Y771683D01*
X24383Y770572D01*
X24383Y768350D01*
G54D12*
X19050Y768350D02*
X19050Y777239D01*
X22383Y777239D01*
X23717Y776683D01*
X24383Y775572D01*
X24383Y774461D01*
X23717Y773350D01*
X22383Y772794D01*
X19050Y772794D01*
G54D12*
X26827Y777239D02*
X33494Y768350D01*
G54D12*
X26827Y768350D02*
X33494Y777239D01*
G54D12*
X21717Y793750D02*
X21717Y802639D01*
G54D12*
X19050Y802639D02*
X24383Y802639D01*
G54D12*
X26827Y802639D02*
X33494Y793750D01*
G54D12*
X26827Y793750D02*
X33494Y802639D01*
G54D12*
X19050Y853439D02*
X22383Y844550D01*
X25717Y853439D01*
G54D12*
X33494Y846217D02*
X32828Y845106D01*
X31494Y844550D01*
X30161Y844550D01*
X28828Y845106D01*
X28161Y846217D01*
X28161Y851772D01*
X28828Y852883D01*
X30161Y853439D01*
X31494Y853439D01*
X32828Y852883D01*
X33494Y851772D01*
G54D12*
X41271Y846217D02*
X40605Y845106D01*
X39271Y844550D01*
X37938Y844550D01*
X36605Y845106D01*
X35938Y846217D01*
X35938Y851772D01*
X36605Y852883D01*
X37938Y853439D01*
X39271Y853439D01*
X40605Y852883D01*
X41271Y851772D01*
G54D12*
X21717Y823594D02*
X24383Y823594D01*
X24383Y820817D01*
X23717Y819706D01*
X22383Y819150D01*
X21050Y819150D01*
X19717Y819706D01*
X19050Y820817D01*
X19050Y826372D01*
X19717Y827483D01*
X21050Y828039D01*
X22383Y828039D01*
X23717Y827483D01*
X24383Y826372D01*
G54D12*
X26827Y819150D02*
X26827Y828039D01*
X32160Y819150D01*
X32160Y828039D01*
G54D12*
X34604Y819150D02*
X34604Y828039D01*
X37937Y828039D01*
X39271Y827483D01*
X39937Y826372D01*
X39937Y820817D01*
X39271Y819706D01*
X37937Y819150D01*
X34604Y819150D01*
G54D10*
X285750Y863600D02*
X44450Y863600D01*
G54D10*
X285750Y762000D02*
X44450Y762000D01*
G54D10*
X431800Y863600D02*
X647700Y863600D01*
G54D10*
X527050Y762000D02*
X647700Y762000D01*
G54D10*
X95250Y635000D02*
X603250Y635000D01*
X603250Y355600D01*
X95250Y355600D01*
X95250Y635000D01*
G54D10*
X603250Y584200D02*
X323850Y584200D01*
X323850Y406400D01*
X603250Y406400D01*
G54D10*
X527050Y584200D02*
X527050Y406400D01*
G54D11*
X533400Y431800D02*
X596900Y431800D01*
X596900Y476250D01*
X571500Y476250D01*
X571500Y501650D01*
X596900Y501650D01*
X596900Y527050D01*
X571500Y527050D01*
X571500Y552450D01*
X596900Y552450D01*
X596900Y577850D01*
X533400Y577850D01*
G54D11*
X533400Y450850D02*
X596900Y450850D01*
G54D12*
X186689Y603250D02*
X177800Y599917D01*
X186689Y596583D01*
G54D12*
X177800Y594139D02*
X186689Y594139D01*
G54D12*
X177800Y591695D02*
X186689Y591695D01*
X177800Y586362D01*
X186689Y586362D01*
G54D12*
X207644Y600583D02*
X207644Y597917D01*
X204867Y597917D01*
X203756Y598583D01*
X203200Y599917D01*
X203200Y601250D01*
X203756Y602583D01*
X204867Y603250D01*
X210422Y603250D01*
X211533Y602583D01*
X212089Y601250D01*
X212089Y599917D01*
X211533Y598583D01*
X210422Y597917D01*
G54D12*
X203200Y595473D02*
X212089Y595473D01*
X203200Y590140D01*
X212089Y590140D01*
G54D12*
X203200Y587696D02*
X212089Y587696D01*
X212089Y584363D01*
X211533Y583029D01*
X210422Y582363D01*
X204867Y582363D01*
X203756Y583029D01*
X203200Y584363D01*
X203200Y587696D01*
G54D12*
X228600Y603250D02*
X237489Y603250D01*
X237489Y599917D01*
X236933Y598583D01*
X235822Y597917D01*
X230267Y597917D01*
X229156Y598583D01*
X228600Y599917D01*
X228600Y603250D01*
G54D12*
X234156Y595473D02*
X237489Y592140D01*
X228600Y592140D01*
G54D12*
X235822Y589696D02*
X236933Y589029D01*
X237489Y587696D01*
X237489Y586363D01*
X236933Y585029D01*
X235822Y584363D01*
X234711Y584363D01*
X233600Y585029D01*
X233044Y586363D01*
X232489Y585029D01*
X231378Y584363D01*
X230267Y584363D01*
X229156Y585029D01*
X228600Y586363D01*
X228600Y587696D01*
X229156Y589029D01*
X230267Y589696D01*
G54D12*
X254000Y603250D02*
X262889Y603250D01*
X262889Y599917D01*
X262333Y598583D01*
X261222Y597917D01*
X255667Y597917D01*
X254556Y598583D01*
X254000Y599917D01*
X254000Y603250D01*
G54D12*
X259556Y595473D02*
X262889Y592140D01*
X254000Y592140D01*
G54D12*
X254000Y584363D02*
X254000Y589696D01*
X254556Y589696D01*
X255667Y589029D01*
X259000Y585029D01*
X260111Y584363D01*
X261222Y584363D01*
X262333Y585029D01*
X262889Y586363D01*
X262889Y587696D01*
X262333Y589029D01*
X261222Y589696D01*
G54D12*
X279400Y603250D02*
X288289Y603250D01*
X288289Y599917D01*
X287733Y598583D01*
X286622Y597917D01*
X281067Y597917D01*
X279956Y598583D01*
X279400Y599917D01*
X279400Y603250D01*
G54D12*
X284956Y595473D02*
X288289Y592140D01*
X279400Y592140D01*
G54D12*
X279400Y585696D02*
X288289Y585696D01*
X282733Y589696D01*
X281622Y589696D01*
X281622Y584363D01*
G54D12*
X304800Y603250D02*
X313689Y603250D01*
X313689Y599917D01*
X313133Y598583D01*
X312022Y597917D01*
X306467Y597917D01*
X305356Y598583D01*
X304800Y599917D01*
X304800Y603250D01*
G54D12*
X304800Y590140D02*
X304800Y595473D01*
X305356Y595473D01*
X306467Y594806D01*
X309800Y590806D01*
X310911Y590140D01*
X312022Y590140D01*
X313133Y590806D01*
X313689Y592140D01*
X313689Y593473D01*
X313133Y594806D01*
X312022Y595473D01*
G54D12*
X313689Y587696D02*
X313689Y582363D01*
X312578Y583029D01*
X310911Y584363D01*
X308689Y585696D01*
X307022Y586363D01*
X304800Y586363D01*
G54D12*
X330200Y603250D02*
X339089Y603250D01*
X339089Y599917D01*
X338533Y598583D01*
X337422Y597917D01*
X331867Y597917D01*
X330756Y598583D01*
X330200Y599917D01*
X330200Y603250D01*
G54D12*
X330200Y590140D02*
X330200Y595473D01*
X330756Y595473D01*
X331867Y594806D01*
X335200Y590806D01*
X336311Y590140D01*
X337422Y590140D01*
X338533Y590806D01*
X339089Y592140D01*
X339089Y593473D01*
X338533Y594806D01*
X337422Y595473D01*
G54D12*
X337422Y582363D02*
X338533Y583029D01*
X339089Y584363D01*
X339089Y585696D01*
X338533Y587029D01*
X337422Y587696D01*
X334644Y587696D01*
X334089Y587696D01*
X335200Y585696D01*
X335200Y584363D01*
X334644Y583029D01*
X333533Y582363D01*
X331867Y582363D01*
X330756Y583029D01*
X330200Y584363D01*
X330200Y585696D01*
X330756Y587029D01*
X331867Y587696D01*
X334644Y587696D01*
G54D12*
X355600Y603250D02*
X364489Y603250D01*
X364489Y599917D01*
X363933Y598583D01*
X362822Y597917D01*
X357267Y597917D01*
X356156Y598583D01*
X355600Y599917D01*
X355600Y603250D01*
G54D12*
X355600Y590140D02*
X355600Y595473D01*
X356156Y595473D01*
X357267Y594806D01*
X360600Y590806D01*
X361711Y590140D01*
X362822Y590140D01*
X363933Y590806D01*
X364489Y592140D01*
X364489Y593473D01*
X363933Y594806D01*
X362822Y595473D01*
G54D12*
X364489Y582363D02*
X364489Y587696D01*
X360600Y587696D01*
X360600Y587029D01*
X361156Y585696D01*
X361156Y584363D01*
X360600Y583029D01*
X359489Y582363D01*
X357267Y582363D01*
X356156Y583029D01*
X355600Y584363D01*
X355600Y585696D01*
X356156Y587029D01*
X357267Y587696D01*
G54D12*
X381000Y603250D02*
X389889Y603250D01*
X389889Y599917D01*
X389333Y598583D01*
X388222Y597917D01*
X382667Y597917D01*
X381556Y598583D01*
X381000Y599917D01*
X381000Y603250D01*
G54D12*
X388222Y595473D02*
X389333Y594806D01*
X389889Y593473D01*
X389889Y592140D01*
X389333Y590806D01*
X388222Y590140D01*
X387111Y590140D01*
X386000Y590806D01*
X385444Y592140D01*
X384889Y590806D01*
X383778Y590140D01*
X382667Y590140D01*
X381556Y590806D01*
X381000Y592140D01*
X381000Y593473D01*
X381556Y594806D01*
X382667Y595473D01*
G54D12*
X388222Y587696D02*
X389333Y587029D01*
X389889Y585696D01*
X389889Y584363D01*
X389333Y583029D01*
X388222Y582363D01*
X387111Y582363D01*
X386000Y583029D01*
X385444Y584363D01*
X384889Y583029D01*
X383778Y582363D01*
X382667Y582363D01*
X381556Y583029D01*
X381000Y584363D01*
X381000Y585696D01*
X381556Y587029D01*
X382667Y587696D01*
G54D12*
X406400Y603250D02*
X415289Y603250D01*
X415289Y599917D01*
X414733Y598583D01*
X413622Y597917D01*
X408067Y597917D01*
X406956Y598583D01*
X406400Y599917D01*
X406400Y603250D01*
G54D12*
X413622Y595473D02*
X414733Y594806D01*
X415289Y593473D01*
X415289Y592140D01*
X414733Y590806D01*
X413622Y590140D01*
X412511Y590140D01*
X411400Y590806D01*
X410844Y592140D01*
X410289Y590806D01*
X409178Y590140D01*
X408067Y590140D01*
X406956Y590806D01*
X406400Y592140D01*
X406400Y593473D01*
X406956Y594806D01*
X408067Y595473D01*
G54D12*
X406400Y582363D02*
X406400Y587696D01*
X406956Y587696D01*
X408067Y587029D01*
X411400Y583029D01*
X412511Y582363D01*
X413622Y582363D01*
X414733Y583029D01*
X415289Y584363D01*
X415289Y585696D01*
X414733Y587029D01*
X413622Y587696D01*
G54D12*
X431800Y603250D02*
X440689Y603250D01*
X440689Y599917D01*
X440133Y598583D01*
X439022Y597917D01*
X433467Y597917D01*
X432356Y598583D01*
X431800Y599917D01*
X431800Y603250D01*
G54D12*
X439022Y595473D02*
X440133Y594806D01*
X440689Y593473D01*
X440689Y592140D01*
X440133Y590806D01*
X439022Y590140D01*
X437911Y590140D01*
X436800Y590806D01*
X436244Y592140D01*
X435689Y590806D01*
X434578Y590140D01*
X433467Y590140D01*
X432356Y590806D01*
X431800Y592140D01*
X431800Y593473D01*
X432356Y594806D01*
X433467Y595473D01*
G54D12*
X440689Y582363D02*
X440689Y587696D01*
X436800Y587696D01*
X436800Y587029D01*
X437356Y585696D01*
X437356Y584363D01*
X436800Y583029D01*
X435689Y582363D01*
X433467Y582363D01*
X432356Y583029D01*
X431800Y584363D01*
X431800Y585696D01*
X432356Y587029D01*
X433467Y587696D01*
G54D12*
X457200Y603250D02*
X466089Y603250D01*
X466089Y599917D01*
X465533Y598583D01*
X464422Y597917D01*
X458867Y597917D01*
X457756Y598583D01*
X457200Y599917D01*
X457200Y603250D01*
G54D12*
X464422Y595473D02*
X465533Y594806D01*
X466089Y593473D01*
X466089Y592140D01*
X465533Y590806D01*
X464422Y590140D01*
X463311Y590140D01*
X462200Y590806D01*
X461644Y592140D01*
X461089Y590806D01*
X459978Y590140D01*
X458867Y590140D01*
X457756Y590806D01*
X457200Y592140D01*
X457200Y593473D01*
X457756Y594806D01*
X458867Y595473D01*
G54D12*
X457200Y583696D02*
X466089Y583696D01*
X460533Y587696D01*
X459422Y587696D01*
X459422Y582363D01*
G54D12*
X482600Y603250D02*
X491489Y603250D01*
X491489Y599917D01*
X490933Y598583D01*
X489822Y597917D01*
X484267Y597917D01*
X483156Y598583D01*
X482600Y599917D01*
X482600Y603250D01*
G54D12*
X489822Y595473D02*
X490933Y594806D01*
X491489Y593473D01*
X491489Y592140D01*
X490933Y590806D01*
X489822Y590140D01*
X488711Y590140D01*
X487600Y590806D01*
X487044Y592140D01*
X486489Y590806D01*
X485378Y590140D01*
X484267Y590140D01*
X483156Y590806D01*
X482600Y592140D01*
X482600Y593473D01*
X483156Y594806D01*
X484267Y595473D01*
G54D12*
X484267Y587696D02*
X483156Y587029D01*
X482600Y585696D01*
X482600Y584363D01*
X483156Y583029D01*
X484267Y582363D01*
X487044Y582363D01*
X487600Y582363D01*
X486489Y584363D01*
X486489Y585696D01*
X487044Y587029D01*
X488156Y587696D01*
X489822Y587696D01*
X490933Y587029D01*
X491489Y585696D01*
X491489Y584363D01*
X490933Y583029D01*
X489822Y582363D01*
X487044Y582363D01*
G54D12*
X508000Y603250D02*
X516889Y603250D01*
X516889Y599917D01*
X516333Y598583D01*
X515222Y597917D01*
X509667Y597917D01*
X508556Y598583D01*
X508000Y599917D01*
X508000Y603250D01*
G54D12*
X515222Y595473D02*
X516333Y594806D01*
X516889Y593473D01*
X516889Y592140D01*
X516333Y590806D01*
X515222Y590140D01*
X514111Y590140D01*
X513000Y590806D01*
X512444Y592140D01*
X511889Y590806D01*
X510778Y590140D01*
X509667Y590140D01*
X508556Y590806D01*
X508000Y592140D01*
X508000Y593473D01*
X508556Y594806D01*
X509667Y595473D01*
G54D12*
X515222Y582363D02*
X516333Y583029D01*
X516889Y584363D01*
X516889Y585696D01*
X516333Y587029D01*
X515222Y587696D01*
X512444Y587696D01*
X511889Y587696D01*
X513000Y585696D01*
X513000Y584363D01*
X512444Y583029D01*
X511333Y582363D01*
X509667Y582363D01*
X508556Y583029D01*
X508000Y584363D01*
X508000Y585696D01*
X508556Y587029D01*
X509667Y587696D01*
X512444Y587696D01*
G54D12*
X533400Y598583D02*
X533400Y603250D01*
X542289Y603250D01*
X542289Y598583D01*
G54D12*
X537844Y603250D02*
X537844Y598583D01*
G54D12*
X533400Y596139D02*
X542289Y596139D01*
X533400Y590806D01*
X542289Y590806D01*
G54D12*
X533400Y406400D02*
X542289Y406400D01*
X542289Y403067D01*
X541733Y401733D01*
X540622Y401067D01*
X535067Y401067D01*
X533956Y401733D01*
X533400Y403067D01*
X533400Y406400D01*
G54D12*
X533400Y393290D02*
X533400Y398623D01*
X533956Y398623D01*
X535067Y397956D01*
X538400Y393956D01*
X539511Y393290D01*
X540622Y393290D01*
X541733Y393956D01*
X542289Y395290D01*
X542289Y396623D01*
X541733Y397956D01*
X540622Y398623D01*
G54D12*
X540622Y390846D02*
X541733Y390179D01*
X542289Y388846D01*
X542289Y387513D01*
X541733Y386179D01*
X540622Y385513D01*
X539511Y385513D01*
X538400Y386179D01*
X537844Y387513D01*
X537289Y386179D01*
X536178Y385513D01*
X535067Y385513D01*
X533956Y386179D01*
X533400Y387513D01*
X533400Y388846D01*
X533956Y390179D01*
X535067Y390846D01*
G54D12*
X508000Y406400D02*
X516889Y406400D01*
X516889Y403067D01*
X516333Y401733D01*
X515222Y401067D01*
X509667Y401067D01*
X508556Y401733D01*
X508000Y403067D01*
X508000Y406400D01*
G54D12*
X508000Y393290D02*
X508000Y398623D01*
X508556Y398623D01*
X509667Y397956D01*
X513000Y393956D01*
X514111Y393290D01*
X515222Y393290D01*
X516333Y393956D01*
X516889Y395290D01*
X516889Y396623D01*
X516333Y397956D01*
X515222Y398623D01*
G54D12*
X508000Y385513D02*
X508000Y390846D01*
X508556Y390846D01*
X509667Y390179D01*
X513000Y386179D01*
X514111Y385513D01*
X515222Y385513D01*
X516333Y386179D01*
X516889Y387513D01*
X516889Y388846D01*
X516333Y390179D01*
X515222Y390846D01*
G54D12*
X482600Y400050D02*
X491489Y400050D01*
X491489Y396717D01*
X490933Y395383D01*
X489822Y394717D01*
X484267Y394717D01*
X483156Y395383D01*
X482600Y396717D01*
X482600Y400050D01*
G54D12*
X488156Y392273D02*
X491489Y388940D01*
X482600Y388940D01*
G54D12*
X457200Y400050D02*
X466089Y400050D01*
X466089Y396717D01*
X465533Y395383D01*
X464422Y394717D01*
X458867Y394717D01*
X457756Y395383D01*
X457200Y396717D01*
X457200Y400050D01*
G54D12*
X464422Y392273D02*
X465533Y391606D01*
X466089Y390273D01*
X466089Y388940D01*
X465533Y387606D01*
X464422Y386940D01*
X463311Y386940D01*
X462200Y387606D01*
X461644Y388940D01*
X461089Y387606D01*
X459978Y386940D01*
X458867Y386940D01*
X457756Y387606D01*
X457200Y388940D01*
X457200Y390273D01*
X457756Y391606D01*
X458867Y392273D01*
G54D12*
X431800Y406400D02*
X440689Y406400D01*
X440689Y403067D01*
X440133Y401733D01*
X439022Y401067D01*
X433467Y401067D01*
X432356Y401733D01*
X431800Y403067D01*
X431800Y406400D01*
G54D12*
X431800Y393290D02*
X431800Y398623D01*
X432356Y398623D01*
X433467Y397956D01*
X436800Y393956D01*
X437911Y393290D01*
X439022Y393290D01*
X440133Y393956D01*
X440689Y395290D01*
X440689Y396623D01*
X440133Y397956D01*
X439022Y398623D01*
G54D12*
X437356Y390846D02*
X440689Y387513D01*
X431800Y387513D01*
G54D12*
X406400Y406400D02*
X415289Y406400D01*
X415289Y403067D01*
X414733Y401733D01*
X413622Y401067D01*
X408067Y401067D01*
X406956Y401733D01*
X406400Y403067D01*
X406400Y406400D01*
G54D12*
X411956Y398623D02*
X415289Y395290D01*
X406400Y395290D01*
G54D12*
X408067Y392846D02*
X406956Y392179D01*
X406400Y390846D01*
X406400Y389513D01*
X406956Y388179D01*
X408067Y387513D01*
X410844Y387513D01*
X411400Y387513D01*
X410289Y389513D01*
X410289Y390846D01*
X410844Y392179D01*
X411956Y392846D01*
X413622Y392846D01*
X414733Y392179D01*
X415289Y390846D01*
X415289Y389513D01*
X414733Y388179D01*
X413622Y387513D01*
X410844Y387513D01*
G54D12*
X381000Y406400D02*
X389889Y406400D01*
X389889Y403067D01*
X389333Y401733D01*
X388222Y401067D01*
X382667Y401067D01*
X381556Y401733D01*
X381000Y403067D01*
X381000Y406400D01*
G54D12*
X386556Y398623D02*
X389889Y395290D01*
X381000Y395290D01*
G54D12*
X385444Y389513D02*
X385444Y390846D01*
X386000Y392179D01*
X387111Y392846D01*
X388222Y392846D01*
X389333Y392179D01*
X389889Y390846D01*
X389889Y389513D01*
X389333Y388179D01*
X388222Y387513D01*
X387111Y387513D01*
X386000Y388179D01*
X385444Y389513D01*
X384889Y388179D01*
X383778Y387513D01*
X382667Y387513D01*
X381556Y388179D01*
X381000Y389513D01*
X381000Y390846D01*
X381556Y392179D01*
X382667Y392846D01*
X383778Y392846D01*
X384889Y392179D01*
X385444Y390846D01*
G54D12*
X355600Y406400D02*
X364489Y406400D01*
X364489Y403067D01*
X363933Y401733D01*
X362822Y401067D01*
X357267Y401067D01*
X356156Y401733D01*
X355600Y403067D01*
X355600Y406400D01*
G54D12*
X364489Y393290D02*
X364489Y398623D01*
X360600Y398623D01*
X360600Y397956D01*
X361156Y396623D01*
X361156Y395290D01*
X360600Y393956D01*
X359489Y393290D01*
X357267Y393290D01*
X356156Y393956D01*
X355600Y395290D01*
X355600Y396623D01*
X356156Y397956D01*
X357267Y398623D01*
G54D12*
X330200Y406400D02*
X339089Y406400D01*
X339089Y403067D01*
X338533Y401733D01*
X337422Y401067D01*
X331867Y401067D01*
X330756Y401733D01*
X330200Y403067D01*
X330200Y406400D01*
G54D12*
X335756Y398623D02*
X339089Y395290D01*
X330200Y395290D01*
G54D12*
X339089Y392846D02*
X339089Y387513D01*
X337978Y388179D01*
X336311Y389513D01*
X334089Y390846D01*
X332422Y391513D01*
X330200Y391513D01*
G54D12*
X304800Y406400D02*
X313689Y406400D01*
X313689Y403067D01*
X313133Y401733D01*
X312022Y401067D01*
X306467Y401067D01*
X305356Y401733D01*
X304800Y403067D01*
X304800Y406400D01*
G54D12*
X310356Y398623D02*
X313689Y395290D01*
X304800Y395290D01*
G54D12*
X312022Y387513D02*
X313133Y388179D01*
X313689Y389513D01*
X313689Y390846D01*
X313133Y392179D01*
X312022Y392846D01*
X309244Y392846D01*
X308689Y392846D01*
X309800Y390846D01*
X309800Y389513D01*
X309244Y388179D01*
X308133Y387513D01*
X306467Y387513D01*
X305356Y388179D01*
X304800Y389513D01*
X304800Y390846D01*
X305356Y392179D01*
X306467Y392846D01*
X309244Y392846D01*
G54D12*
X279400Y406400D02*
X288289Y406400D01*
X288289Y403067D01*
X287733Y401733D01*
X286622Y401067D01*
X281067Y401067D01*
X279956Y401733D01*
X279400Y403067D01*
X279400Y406400D01*
G54D12*
X279400Y394623D02*
X288289Y394623D01*
X282733Y398623D01*
X281622Y398623D01*
X281622Y393290D01*
G54D12*
X254000Y406400D02*
X262889Y406400D01*
X262889Y403067D01*
X262333Y401733D01*
X261222Y401067D01*
X255667Y401067D01*
X254556Y401733D01*
X254000Y403067D01*
X254000Y406400D01*
G54D12*
X254000Y393290D02*
X254000Y398623D01*
X254556Y398623D01*
X255667Y397956D01*
X259000Y393956D01*
X260111Y393290D01*
X261222Y393290D01*
X262333Y393956D01*
X262889Y395290D01*
X262889Y396623D01*
X262333Y397956D01*
X261222Y398623D01*
G54D12*
X228600Y406400D02*
X237489Y406400D01*
X237489Y403067D01*
X236933Y401733D01*
X235822Y401067D01*
X230267Y401067D01*
X229156Y401733D01*
X228600Y403067D01*
X228600Y406400D01*
G54D12*
X234156Y398623D02*
X237489Y395290D01*
X228600Y395290D01*
G54D12*
X237489Y387513D02*
X237489Y392846D01*
X233600Y392846D01*
X233600Y392179D01*
X234156Y390846D01*
X234156Y389513D01*
X233600Y388179D01*
X232489Y387513D01*
X230267Y387513D01*
X229156Y388179D01*
X228600Y389513D01*
X228600Y390846D01*
X229156Y392179D01*
X230267Y392846D01*
G54D12*
X207644Y403733D02*
X207644Y401067D01*
X204867Y401067D01*
X203756Y401733D01*
X203200Y403067D01*
X203200Y404400D01*
X203756Y405733D01*
X204867Y406400D01*
X210422Y406400D01*
X211533Y405733D01*
X212089Y404400D01*
X212089Y403067D01*
X211533Y401733D01*
X210422Y401067D01*
G54D12*
X203200Y398623D02*
X212089Y398623D01*
X203200Y393290D01*
X212089Y393290D01*
G54D12*
X203200Y390846D02*
X212089Y390846D01*
X212089Y387513D01*
X211533Y386179D01*
X210422Y385513D01*
X204867Y385513D01*
X203756Y386179D01*
X203200Y387513D01*
X203200Y390846D01*
G54D12*
X185022Y406400D02*
X186133Y405733D01*
X186689Y404400D01*
X186689Y403067D01*
X186133Y401733D01*
X185022Y401067D01*
X183911Y401067D01*
X182800Y401733D01*
X182244Y403067D01*
X181689Y401733D01*
X180578Y401067D01*
X179467Y401067D01*
X178356Y401733D01*
X177800Y403067D01*
X177800Y404400D01*
X178356Y405733D01*
X179467Y406400D01*
G54D12*
X186689Y398623D02*
X177800Y395290D01*
X186689Y391956D01*
G54D12*
X185022Y389512D02*
X186133Y388845D01*
X186689Y387512D01*
X186689Y386179D01*
X186133Y384845D01*
X185022Y384179D01*
X183911Y384179D01*
X182800Y384845D01*
X182244Y386179D01*
X181689Y384845D01*
X180578Y384179D01*
X179467Y384179D01*
X178356Y384845D01*
X177800Y386179D01*
X177800Y387512D01*
X178356Y388845D01*
X179467Y389512D01*
G54D12*
X516889Y571500D02*
X508000Y568167D01*
X516889Y564833D01*
G54D12*
X508000Y562389D02*
X516889Y562389D01*
X516889Y559056D01*
X516333Y557722D01*
X515222Y557056D01*
X514111Y557056D01*
X513000Y557722D01*
X512444Y559056D01*
X512444Y562389D01*
G54D12*
X491489Y571500D02*
X482600Y568167D01*
X491489Y564833D01*
G54D12*
X482600Y562389D02*
X491489Y562389D01*
X482600Y557056D01*
X491489Y557056D01*
G54D12*
X461644Y441833D02*
X460533Y439833D01*
X459422Y439167D01*
X457200Y439167D01*
G54D12*
X457200Y444500D02*
X466089Y444500D01*
X466089Y441167D01*
X465533Y439833D01*
X464422Y439167D01*
X463311Y439167D01*
X462200Y439833D01*
X461644Y441167D01*
X461644Y444500D01*
G54D12*
X466089Y436723D02*
X457200Y430056D01*
G54D12*
X457200Y436723D02*
X466089Y430056D01*
G54D12*
X461089Y427612D02*
X461089Y422279D01*
G54D12*
X464422Y414502D02*
X458867Y414502D01*
X457756Y415168D01*
X457200Y416502D01*
X457200Y417835D01*
X457756Y419168D01*
X458867Y419835D01*
X464422Y419835D01*
X465533Y419168D01*
X466089Y417835D01*
X466089Y416502D01*
X465533Y415168D01*
X464422Y414502D01*
G54D12*
X482600Y441833D02*
X491489Y441833D01*
G54D12*
X491489Y444500D02*
X491489Y439167D01*
G54D12*
X491489Y436723D02*
X482600Y430056D01*
G54D12*
X482600Y436723D02*
X491489Y430056D01*
G54D12*
X486489Y427612D02*
X486489Y422279D01*
G54D12*
X489822Y414502D02*
X484267Y414502D01*
X483156Y415168D01*
X482600Y416502D01*
X482600Y417835D01*
X483156Y419168D01*
X484267Y419835D01*
X489822Y419835D01*
X490933Y419168D01*
X491489Y417835D01*
X491489Y416502D01*
X490933Y415168D01*
X489822Y414502D01*
G54D12*
X509667Y431800D02*
X508556Y431133D01*
X508000Y429800D01*
X508000Y428467D01*
X508556Y427133D01*
X509667Y426467D01*
X510778Y426467D01*
X511889Y427133D01*
X512444Y428467D01*
X512444Y429800D01*
X513000Y431133D01*
X514111Y431800D01*
X515222Y431800D01*
X516333Y431133D01*
X516889Y429800D01*
X516889Y428467D01*
X516333Y427133D01*
X515222Y426467D01*
G54D12*
X509667Y418690D02*
X508556Y419356D01*
X508000Y420690D01*
X508000Y422023D01*
X508556Y423356D01*
X509667Y424023D01*
X515222Y424023D01*
X516333Y423356D01*
X516889Y422023D01*
X516889Y420690D01*
X516333Y419356D01*
X515222Y418690D01*
G54D12*
X516889Y416246D02*
X508000Y416246D01*
X508000Y411579D01*
G54D12*
X433467Y438150D02*
X432356Y437483D01*
X431800Y436150D01*
X431800Y434817D01*
X432356Y433483D01*
X433467Y432817D01*
X434578Y432817D01*
X435689Y433483D01*
X436244Y434817D01*
X436244Y436150D01*
X436800Y437483D01*
X437911Y438150D01*
X439022Y438150D01*
X440133Y437483D01*
X440689Y436150D01*
X440689Y434817D01*
X440133Y433483D01*
X439022Y432817D01*
G54D12*
X431800Y430373D02*
X440689Y430373D01*
X440689Y427040D01*
X440133Y425706D01*
X439022Y425040D01*
X433467Y425040D01*
X432356Y425706D01*
X431800Y427040D01*
X431800Y430373D01*
G54D12*
X431800Y422596D02*
X440689Y419263D01*
X431800Y415929D01*
G54D12*
X435133Y421263D02*
X435133Y417263D01*
G54D10*
X425450Y304800D02*
X323850Y304800D01*
X323850Y330200D01*
X425450Y330200D01*
X425450Y304800D01*
G54D10*
X425450Y304800D02*
X514350Y304800D01*
X514350Y609600D01*
X234950Y609600D01*
X234950Y304800D01*
X323850Y304800D01*
G54D10*
X425450Y520700D02*
X425450Y419100D01*
X400050Y419100D01*
X400050Y520700D01*
X425450Y520700D01*
G54D12*
X509906Y313817D02*
X509906Y316483D01*
X512683Y316483D01*
X513794Y315817D01*
X514350Y314483D01*
X514350Y313150D01*
X513794Y311817D01*
X512683Y311150D01*
X507128Y311150D01*
X506017Y311817D01*
X505461Y313150D01*
X505461Y314483D01*
X506017Y315817D01*
X507128Y316483D01*
G54D12*
X514350Y318927D02*
X505461Y318927D01*
X514350Y324260D01*
X505461Y324260D01*
G54D12*
X514350Y326704D02*
X505461Y326704D01*
X505461Y330037D01*
X506017Y331371D01*
X507128Y332037D01*
X512683Y332037D01*
X513794Y331371D01*
X514350Y330037D01*
X514350Y326704D01*
G54D12*
X480061Y311150D02*
X488950Y314483D01*
X480061Y317817D01*
G54D12*
X487283Y325594D02*
X488394Y324928D01*
X488950Y323594D01*
X488950Y322261D01*
X488394Y320928D01*
X487283Y320261D01*
X481728Y320261D01*
X480617Y320928D01*
X480061Y322261D01*
X480061Y323594D01*
X480617Y324928D01*
X481728Y325594D01*
G54D12*
X487283Y333371D02*
X488394Y332705D01*
X488950Y331371D01*
X488950Y330038D01*
X488394Y328705D01*
X487283Y328038D01*
X481728Y328038D01*
X480617Y328705D01*
X480061Y330038D01*
X480061Y331371D01*
X480617Y332705D01*
X481728Y333371D01*
G54D12*
X461883Y311150D02*
X462994Y311817D01*
X463550Y313150D01*
X463550Y314483D01*
X462994Y315817D01*
X461883Y316483D01*
X460772Y316483D01*
X459661Y315817D01*
X459106Y314483D01*
X459106Y313150D01*
X458550Y311817D01*
X457439Y311150D01*
X456328Y311150D01*
X455217Y311817D01*
X454661Y313150D01*
X454661Y314483D01*
X455217Y315817D01*
X456328Y316483D01*
G54D12*
X461883Y324260D02*
X462994Y323594D01*
X463550Y322260D01*
X463550Y320927D01*
X462994Y319594D01*
X461883Y318927D01*
X456328Y318927D01*
X455217Y319594D01*
X454661Y320927D01*
X454661Y322260D01*
X455217Y323594D01*
X456328Y324260D01*
G54D12*
X454661Y326704D02*
X463550Y326704D01*
X463550Y331371D01*
G54D12*
X436483Y311150D02*
X437594Y311817D01*
X438150Y313150D01*
X438150Y314483D01*
X437594Y315817D01*
X436483Y316483D01*
X435372Y316483D01*
X434261Y315817D01*
X433706Y314483D01*
X433706Y313150D01*
X433150Y311817D01*
X432039Y311150D01*
X430928Y311150D01*
X429817Y311817D01*
X429261Y313150D01*
X429261Y314483D01*
X429817Y315817D01*
X430928Y316483D01*
G54D12*
X438150Y318927D02*
X429261Y318927D01*
X429261Y322260D01*
X429817Y323594D01*
X430928Y324260D01*
X436483Y324260D01*
X437594Y323594D01*
X438150Y322260D01*
X438150Y318927D01*
G54D12*
X438150Y326704D02*
X429261Y330037D01*
X438150Y333371D01*
G54D12*
X434817Y328037D02*
X434817Y332037D01*
G54D12*
X663067Y429894D02*
X665067Y428783D01*
X665733Y427672D01*
X665733Y425450D01*
G54D12*
X660400Y425450D02*
X660400Y434339D01*
X663733Y434339D01*
X665067Y433783D01*
X665733Y432672D01*
X665733Y431561D01*
X665067Y430450D01*
X663733Y429894D01*
X660400Y429894D01*
G54D12*
X668177Y434339D02*
X674844Y425450D01*
G54D12*
X668177Y425450D02*
X674844Y434339D01*
G54D12*
X663067Y450850D02*
X663067Y459739D01*
G54D12*
X660400Y459739D02*
X665733Y459739D01*
G54D12*
X668177Y459739D02*
X674844Y450850D01*
G54D12*
X668177Y450850D02*
X674844Y459739D01*
G54D12*
X654050Y510539D02*
X657383Y501650D01*
X660717Y510539D01*
G54D12*
X668494Y503317D02*
X667828Y502206D01*
X666494Y501650D01*
X665161Y501650D01*
X663828Y502206D01*
X663161Y503317D01*
X663161Y508872D01*
X663828Y509983D01*
X665161Y510539D01*
X666494Y510539D01*
X667828Y509983D01*
X668494Y508872D01*
G54D12*
X676271Y503317D02*
X675605Y502206D01*
X674271Y501650D01*
X672938Y501650D01*
X671605Y502206D01*
X670938Y503317D01*
X670938Y508872D01*
X671605Y509983D01*
X672938Y510539D01*
X674271Y510539D01*
X675605Y509983D01*
X676271Y508872D01*
G54D12*
X656717Y480694D02*
X659383Y480694D01*
X659383Y477917D01*
X658717Y476806D01*
X657383Y476250D01*
X656050Y476250D01*
X654717Y476806D01*
X654050Y477917D01*
X654050Y483472D01*
X654717Y484583D01*
X656050Y485139D01*
X657383Y485139D01*
X658717Y484583D01*
X659383Y483472D01*
G54D12*
X661827Y476250D02*
X661827Y485139D01*
X667160Y476250D01*
X667160Y485139D01*
G54D12*
X669604Y476250D02*
X669604Y485139D01*
X672937Y485139D01*
X674271Y484583D01*
X674937Y483472D01*
X674937Y477917D01*
X674271Y476806D01*
X672937Y476250D01*
X669604Y476250D01*
G54D12*
X50800Y615950D02*
X50800Y624839D01*
X54133Y619283D01*
X57467Y624839D01*
X57467Y615950D01*
G54D12*
X59911Y623172D02*
X60578Y624283D01*
X61911Y624839D01*
X63244Y624839D01*
X64578Y624283D01*
X65244Y623172D01*
X65244Y622061D01*
X64578Y620950D01*
X63244Y620394D01*
X64578Y619839D01*
X65244Y618728D01*
X65244Y617617D01*
X64578Y616506D01*
X63244Y615950D01*
X61911Y615950D01*
X60578Y616506D01*
X59911Y617617D01*
G54D12*
X50800Y317500D02*
X50800Y326389D01*
X54133Y320833D01*
X57467Y326389D01*
X57467Y317500D01*
G54D12*
X59911Y324722D02*
X60578Y325833D01*
X61911Y326389D01*
X63244Y326389D01*
X64578Y325833D01*
X65244Y324722D01*
X65244Y323611D01*
X64578Y322500D01*
X63244Y321944D01*
X64578Y321389D01*
X65244Y320278D01*
X65244Y319167D01*
X64578Y318056D01*
X63244Y317500D01*
X61911Y317500D01*
X60578Y318056D01*
X59911Y319167D01*
G54D12*
X635000Y615950D02*
X635000Y624839D01*
X638333Y619283D01*
X641667Y624839D01*
X641667Y615950D01*
G54D12*
X644111Y623172D02*
X644778Y624283D01*
X646111Y624839D01*
X647444Y624839D01*
X648778Y624283D01*
X649444Y623172D01*
X649444Y622061D01*
X648778Y620950D01*
X647444Y620394D01*
X648778Y619839D01*
X649444Y618728D01*
X649444Y617617D01*
X648778Y616506D01*
X647444Y615950D01*
X646111Y615950D01*
X644778Y616506D01*
X644111Y617617D01*
G54D12*
X635000Y317500D02*
X635000Y326389D01*
X638333Y320833D01*
X641667Y326389D01*
X641667Y317500D01*
G54D12*
X644111Y324722D02*
X644778Y325833D01*
X646111Y326389D01*
X647444Y326389D01*
X648778Y325833D01*
X649444Y324722D01*
X649444Y323611D01*
X648778Y322500D01*
X647444Y321944D01*
X648778Y321389D01*
X649444Y320278D01*
X649444Y319167D01*
X648778Y318056D01*
X647444Y317500D01*
X646111Y317500D01*
X644778Y318056D01*
X644111Y319167D01*
G54D10*
X298450Y520700D02*
X298450Y419100D01*
X273050Y419100D01*
X273050Y520700D01*
X298450Y520700D01*
G54D12*
X21717Y429894D02*
X23717Y428783D01*
X24383Y427672D01*
X24383Y425450D01*
G54D12*
X19050Y425450D02*
X19050Y434339D01*
X22383Y434339D01*
X23717Y433783D01*
X24383Y432672D01*
X24383Y431561D01*
X23717Y430450D01*
X22383Y429894D01*
X19050Y429894D01*
G54D12*
X26827Y434339D02*
X33494Y425450D01*
G54D12*
X26827Y425450D02*
X33494Y434339D01*
G54D12*
X21717Y450850D02*
X21717Y459739D01*
G54D12*
X19050Y459739D02*
X24383Y459739D01*
G54D12*
X26827Y459739D02*
X33494Y450850D01*
G54D12*
X26827Y450850D02*
X33494Y459739D01*
G54D12*
X19050Y510539D02*
X22383Y501650D01*
X25717Y510539D01*
G54D12*
X33494Y503317D02*
X32828Y502206D01*
X31494Y501650D01*
X30161Y501650D01*
X28828Y502206D01*
X28161Y503317D01*
X28161Y508872D01*
X28828Y509983D01*
X30161Y510539D01*
X31494Y510539D01*
X32828Y509983D01*
X33494Y508872D01*
G54D12*
X41271Y503317D02*
X40605Y502206D01*
X39271Y501650D01*
X37938Y501650D01*
X36605Y502206D01*
X35938Y503317D01*
X35938Y508872D01*
X36605Y509983D01*
X37938Y510539D01*
X39271Y510539D01*
X40605Y509983D01*
X41271Y508872D01*
G54D12*
X21717Y480694D02*
X24383Y480694D01*
X24383Y477917D01*
X23717Y476806D01*
X22383Y476250D01*
X21050Y476250D01*
X19717Y476806D01*
X19050Y477917D01*
X19050Y483472D01*
X19717Y484583D01*
X21050Y485139D01*
X22383Y485139D01*
X23717Y484583D01*
X24383Y483472D01*
G54D12*
X26827Y476250D02*
X26827Y485139D01*
X32160Y476250D01*
X32160Y485139D01*
G54D12*
X34604Y476250D02*
X34604Y485139D01*
X37937Y485139D01*
X39271Y484583D01*
X39937Y483472D01*
X39937Y477917D01*
X39271Y476806D01*
X37937Y476250D01*
X34604Y476250D01*
G54D10*
X285750Y520700D02*
X44450Y520700D01*
G54D10*
X285750Y419100D02*
X44450Y419100D01*
G54D10*
X431800Y520700D02*
X647700Y520700D01*
G54D10*
X527050Y419100D02*
X647700Y419100D01*
M02*
