%FSLAX34Y34*%
%MOMM*%
%LNSOLDERMASK_TOP*%
G71*
G01*
%ADD10C, 2.40*%
%ADD11C, 7.60*%
%LPD*%
X539750Y965200D02*
G54D10*
D03*
X514350Y965200D02*
G54D10*
D03*
X488950Y965200D02*
G54D10*
D03*
X463550Y965200D02*
G54D10*
D03*
X438150Y965200D02*
G54D10*
D03*
X412750Y965200D02*
G54D10*
D03*
X387350Y965200D02*
G54D10*
D03*
X361950Y965200D02*
G54D10*
D03*
X336550Y965200D02*
G54D10*
D03*
X311150Y965200D02*
G54D10*
D03*
X285750Y965200D02*
G54D10*
D03*
X260350Y965200D02*
G54D10*
D03*
X234950Y965200D02*
G54D10*
D03*
X209550Y965200D02*
G54D10*
D03*
X184150Y965200D02*
G54D10*
D03*
X184150Y711200D02*
G54D10*
D03*
X209550Y711200D02*
G54D10*
D03*
X234950Y711200D02*
G54D10*
D03*
X260350Y711200D02*
G54D10*
D03*
X285750Y711200D02*
G54D10*
D03*
X311150Y711200D02*
G54D10*
D03*
X336550Y711200D02*
G54D10*
D03*
X361950Y711200D02*
G54D10*
D03*
X387350Y711200D02*
G54D10*
D03*
X412750Y711200D02*
G54D10*
D03*
X438150Y711200D02*
G54D10*
D03*
X463550Y711200D02*
G54D10*
D03*
X488950Y711200D02*
G54D10*
D03*
X514350Y711200D02*
G54D10*
D03*
X539750Y711200D02*
G54D10*
D03*
X412750Y660400D02*
G54D10*
D03*
X387350Y660400D02*
G54D10*
D03*
X361950Y660400D02*
G54D10*
D03*
X336550Y660400D02*
G54D10*
D03*
X412750Y850900D02*
G54D10*
D03*
X412750Y825500D02*
G54D10*
D03*
X412750Y800100D02*
G54D10*
D03*
X412750Y774700D02*
G54D10*
D03*
X57150Y912812D02*
G54D11*
D03*
X57150Y712788D02*
G54D11*
D03*
X641350Y712788D02*
G54D11*
D03*
X641350Y912812D02*
G54D11*
D03*
X209550Y965200D02*
G54D10*
D03*
X412750Y660400D02*
G54D10*
D03*
X412750Y825500D02*
G54D10*
D03*
X209550Y711200D02*
G54D10*
D03*
X285750Y850900D02*
G54D10*
D03*
X285750Y825500D02*
G54D10*
D03*
X285750Y800100D02*
G54D10*
D03*
X285750Y774700D02*
G54D10*
D03*
X285750Y825500D02*
G54D10*
D03*
X107950Y685800D02*
G54D10*
D03*
X107950Y654050D02*
G54D10*
D03*
X107950Y965200D02*
G54D10*
D03*
X146050Y965200D02*
G54D10*
D03*
X539750Y685800D02*
G54D10*
D03*
X539750Y654050D02*
G54D10*
D03*
X539750Y622300D02*
G54D10*
D03*
X514350Y622300D02*
G54D10*
D03*
X488950Y622300D02*
G54D10*
D03*
X463550Y622300D02*
G54D10*
D03*
X438150Y622300D02*
G54D10*
D03*
X412750Y622300D02*
G54D10*
D03*
X387350Y622300D02*
G54D10*
D03*
X361950Y622300D02*
G54D10*
D03*
X336550Y622300D02*
G54D10*
D03*
X311150Y622300D02*
G54D10*
D03*
X285750Y622300D02*
G54D10*
D03*
X260350Y622300D02*
G54D10*
D03*
X234950Y622300D02*
G54D10*
D03*
X209550Y622300D02*
G54D10*
D03*
X184150Y622300D02*
G54D10*
D03*
X184150Y368300D02*
G54D10*
D03*
X209550Y368300D02*
G54D10*
D03*
X234950Y368300D02*
G54D10*
D03*
X260350Y368300D02*
G54D10*
D03*
X285750Y368300D02*
G54D10*
D03*
X311150Y368300D02*
G54D10*
D03*
X336550Y368300D02*
G54D10*
D03*
X361950Y368300D02*
G54D10*
D03*
X387350Y368300D02*
G54D10*
D03*
X412750Y368300D02*
G54D10*
D03*
X438150Y368300D02*
G54D10*
D03*
X463550Y368300D02*
G54D10*
D03*
X488950Y368300D02*
G54D10*
D03*
X514350Y368300D02*
G54D10*
D03*
X539750Y368300D02*
G54D10*
D03*
X412750Y317500D02*
G54D10*
D03*
X387350Y317500D02*
G54D10*
D03*
X361950Y317500D02*
G54D10*
D03*
X336550Y317500D02*
G54D10*
D03*
X412750Y508000D02*
G54D10*
D03*
X412750Y482600D02*
G54D10*
D03*
X412750Y457200D02*
G54D10*
D03*
X412750Y431800D02*
G54D10*
D03*
X57150Y569912D02*
G54D11*
D03*
X57150Y369888D02*
G54D11*
D03*
X641350Y369888D02*
G54D11*
D03*
X641350Y569912D02*
G54D11*
D03*
X209550Y622300D02*
G54D10*
D03*
X412750Y317500D02*
G54D10*
D03*
X412750Y482600D02*
G54D10*
D03*
X209550Y368300D02*
G54D10*
D03*
X285750Y508000D02*
G54D10*
D03*
X285750Y482600D02*
G54D10*
D03*
X285750Y457200D02*
G54D10*
D03*
X285750Y431800D02*
G54D10*
D03*
X285750Y482600D02*
G54D10*
D03*
X107950Y342900D02*
G54D10*
D03*
X107950Y311150D02*
G54D10*
D03*
X107950Y622300D02*
G54D10*
D03*
X146050Y622300D02*
G54D10*
D03*
X539750Y342900D02*
G54D10*
D03*
X539750Y311150D02*
G54D10*
D03*
M02*
