%FSLAX34Y34*%
%MOMM*%
%LNCOPPER_TOP*%
G71*
G01*
%ADD10C, 2.60*%
%ADD11C, 7.80*%
%ADD12C, 1.30*%
%ADD13C, 0.60*%
%ADD14C, 1.80*%
%ADD15C, 7.00*%
%ADD16C, 0.50*%
%LPD*%
G36*
X0Y1000000D02*
X700000Y1000000D01*
X700000Y280000D01*
X0Y280000D01*
X0Y1000000D01*
G37*
%LPC*%
X539750Y965200D02*
G54D10*
D03*
X514350Y965200D02*
G54D10*
D03*
X488950Y965200D02*
G54D10*
D03*
X463550Y965200D02*
G54D10*
D03*
X438150Y965200D02*
G54D10*
D03*
X412750Y965200D02*
G54D10*
D03*
X387350Y965200D02*
G54D10*
D03*
X361950Y965200D02*
G54D10*
D03*
X336550Y965200D02*
G54D10*
D03*
X311150Y965200D02*
G54D10*
D03*
X285750Y965200D02*
G54D10*
D03*
X260350Y965200D02*
G54D10*
D03*
X234950Y965200D02*
G54D10*
D03*
X209550Y965200D02*
G54D10*
D03*
X184150Y965200D02*
G54D10*
D03*
X184150Y711200D02*
G54D10*
D03*
X209550Y711200D02*
G54D10*
D03*
X234950Y711200D02*
G54D10*
D03*
X260350Y711200D02*
G54D10*
D03*
X285750Y711200D02*
G54D10*
D03*
X311150Y711200D02*
G54D10*
D03*
X336550Y711200D02*
G54D10*
D03*
X361950Y711200D02*
G54D10*
D03*
X387350Y711200D02*
G54D10*
D03*
X412750Y711200D02*
G54D10*
D03*
X438150Y711200D02*
G54D10*
D03*
X463550Y711200D02*
G54D10*
D03*
X488950Y711200D02*
G54D10*
D03*
X514350Y711200D02*
G54D10*
D03*
X539750Y711200D02*
G54D10*
D03*
X412750Y660400D02*
G54D10*
D03*
X387350Y660400D02*
G54D10*
D03*
X361950Y660400D02*
G54D10*
D03*
X336550Y660400D02*
G54D10*
D03*
X412750Y850900D02*
G54D10*
D03*
X412750Y825500D02*
G54D10*
D03*
X412750Y800100D02*
G54D10*
D03*
X412750Y774700D02*
G54D10*
D03*
X57150Y912812D02*
G54D11*
D03*
X57150Y712788D02*
G54D11*
D03*
X641350Y712788D02*
G54D11*
D03*
X641350Y912812D02*
G54D11*
D03*
X209550Y965200D02*
G54D10*
D03*
X412750Y660400D02*
G54D10*
D03*
X412750Y825500D02*
G54D10*
D03*
X209550Y711200D02*
G54D10*
D03*
G54D12*
X184150Y965200D02*
X184150Y850900D01*
X412750Y850900D01*
G54D12*
X412750Y774700D02*
X450850Y774700D01*
X463550Y762000D01*
X463550Y711200D01*
G54D12*
X412750Y800100D02*
X463550Y800100D01*
X488950Y774700D01*
X488950Y711200D01*
X285750Y850900D02*
G54D10*
D03*
X285750Y825500D02*
G54D10*
D03*
X285750Y800100D02*
G54D10*
D03*
X285750Y774700D02*
G54D10*
D03*
G54D12*
X285750Y800100D02*
X412750Y800100D01*
G54D12*
X285750Y774700D02*
X412750Y774700D01*
G54D12*
X336550Y660400D02*
X336550Y685800D01*
X342900Y692150D01*
X431800Y692150D01*
X438150Y698500D01*
X438150Y711200D01*
G54D12*
X361950Y660400D02*
X361950Y673100D01*
X368300Y679450D01*
X501650Y679450D01*
X514350Y692150D01*
X514350Y711200D01*
X285750Y825500D02*
G54D10*
D03*
X107950Y685800D02*
G54D10*
D03*
X107950Y654050D02*
G54D10*
D03*
G54D12*
X107950Y685800D02*
X107950Y819150D01*
X139700Y850900D01*
X184150Y850900D01*
X107950Y965200D02*
G54D10*
D03*
X146050Y965200D02*
G54D10*
D03*
G54D12*
X146050Y965200D02*
X184150Y965200D01*
X539750Y685800D02*
G54D10*
D03*
X539750Y654050D02*
G54D10*
D03*
X539750Y622300D02*
G54D10*
D03*
X514350Y622300D02*
G54D10*
D03*
X488950Y622300D02*
G54D10*
D03*
X463550Y622300D02*
G54D10*
D03*
X438150Y622300D02*
G54D10*
D03*
X412750Y622300D02*
G54D10*
D03*
X387350Y622300D02*
G54D10*
D03*
X361950Y622300D02*
G54D10*
D03*
X336550Y622300D02*
G54D10*
D03*
X311150Y622300D02*
G54D10*
D03*
X285750Y622300D02*
G54D10*
D03*
X260350Y622300D02*
G54D10*
D03*
X234950Y622300D02*
G54D10*
D03*
X209550Y622300D02*
G54D10*
D03*
X184150Y622300D02*
G54D10*
D03*
X184150Y368300D02*
G54D10*
D03*
X209550Y368300D02*
G54D10*
D03*
X234950Y368300D02*
G54D10*
D03*
X260350Y368300D02*
G54D10*
D03*
X285750Y368300D02*
G54D10*
D03*
X311150Y368300D02*
G54D10*
D03*
X336550Y368300D02*
G54D10*
D03*
X361950Y368300D02*
G54D10*
D03*
X387350Y368300D02*
G54D10*
D03*
X412750Y368300D02*
G54D10*
D03*
X438150Y368300D02*
G54D10*
D03*
X463550Y368300D02*
G54D10*
D03*
X488950Y368300D02*
G54D10*
D03*
X514350Y368300D02*
G54D10*
D03*
X539750Y368300D02*
G54D10*
D03*
X412750Y317500D02*
G54D10*
D03*
X387350Y317500D02*
G54D10*
D03*
X361950Y317500D02*
G54D10*
D03*
X336550Y317500D02*
G54D10*
D03*
X412750Y508000D02*
G54D10*
D03*
X412750Y482600D02*
G54D10*
D03*
X412750Y457200D02*
G54D10*
D03*
X412750Y431800D02*
G54D10*
D03*
X57150Y569912D02*
G54D11*
D03*
X57150Y369888D02*
G54D11*
D03*
X641350Y369888D02*
G54D11*
D03*
X641350Y569912D02*
G54D11*
D03*
X209550Y622300D02*
G54D10*
D03*
X412750Y317500D02*
G54D10*
D03*
X412750Y482600D02*
G54D10*
D03*
X209550Y368300D02*
G54D10*
D03*
G54D12*
X184150Y622300D02*
X184150Y508000D01*
X412750Y508000D01*
G54D12*
X412750Y431800D02*
X450850Y431800D01*
X463550Y419100D01*
X463550Y368300D01*
G54D12*
X412750Y457200D02*
X463550Y457200D01*
X488950Y431800D01*
X488950Y368300D01*
X285750Y508000D02*
G54D10*
D03*
X285750Y482600D02*
G54D10*
D03*
X285750Y457200D02*
G54D10*
D03*
X285750Y431800D02*
G54D10*
D03*
G54D12*
X285750Y457200D02*
X412750Y457200D01*
G54D12*
X285750Y431800D02*
X412750Y431800D01*
G54D12*
X336550Y317500D02*
X336550Y342900D01*
X342900Y349250D01*
X431800Y349250D01*
X438150Y355600D01*
X438150Y368300D01*
G54D12*
X361950Y317500D02*
X361950Y330200D01*
X368300Y336550D01*
X501650Y336550D01*
X514350Y349250D01*
X514350Y368300D01*
X285750Y482600D02*
G54D10*
D03*
X107950Y342900D02*
G54D10*
D03*
X107950Y311150D02*
G54D10*
D03*
G54D12*
X107950Y342900D02*
X107950Y476250D01*
X139700Y508000D01*
X184150Y508000D01*
X107950Y622300D02*
G54D10*
D03*
X146050Y622300D02*
G54D10*
D03*
G54D12*
X146050Y622300D02*
X184150Y622300D01*
X539750Y342900D02*
G54D10*
D03*
X539750Y311150D02*
G54D10*
D03*
%LPD*%
G54D13*
G36*
X206550Y965200D02*
X206550Y978700D01*
X212550Y978700D01*
X212550Y965200D01*
X206550Y965200D01*
G37*
G36*
X212550Y965200D02*
X212550Y951700D01*
X206550Y951700D01*
X206550Y965200D01*
X212550Y965200D01*
G37*
G54D13*
G36*
X415750Y660400D02*
X415750Y646900D01*
X409750Y646900D01*
X409750Y660400D01*
X415750Y660400D01*
G37*
G36*
X409750Y660400D02*
X409750Y673900D01*
X415750Y673900D01*
X415750Y660400D01*
X409750Y660400D01*
G37*
G54D13*
G36*
X412750Y828500D02*
X426250Y828500D01*
X426250Y822500D01*
X412750Y822500D01*
X412750Y828500D01*
G37*
G36*
X412750Y822500D02*
X399250Y822500D01*
X399250Y828500D01*
X412750Y828500D01*
X412750Y822500D01*
G37*
G54D13*
G36*
X206550Y711200D02*
X206550Y724700D01*
X212550Y724700D01*
X212550Y711200D01*
X206550Y711200D01*
G37*
G36*
X212550Y711200D02*
X212550Y697700D01*
X206550Y697700D01*
X206550Y711200D01*
X212550Y711200D01*
G37*
G54D13*
G36*
X285750Y828500D02*
X299250Y828500D01*
X299250Y822500D01*
X285750Y822500D01*
X285750Y828500D01*
G37*
G36*
X285750Y822500D02*
X272250Y822500D01*
X272250Y828500D01*
X285750Y828500D01*
X285750Y822500D01*
G37*
G54D13*
G36*
X107950Y657050D02*
X121450Y657050D01*
X121450Y651050D01*
X107950Y651050D01*
X107950Y657050D01*
G37*
G36*
X107950Y651050D02*
X94450Y651050D01*
X94450Y657050D01*
X107950Y657050D01*
X107950Y651050D01*
G37*
G54D13*
G36*
X104950Y965200D02*
X104950Y978700D01*
X110950Y978700D01*
X110950Y965200D01*
X104950Y965200D01*
G37*
G36*
X107950Y968200D02*
X121450Y968200D01*
X121450Y962200D01*
X107950Y962200D01*
X107950Y968200D01*
G37*
G36*
X110950Y965200D02*
X110950Y951700D01*
X104950Y951700D01*
X104950Y965200D01*
X110950Y965200D01*
G37*
G36*
X107950Y962200D02*
X94450Y962200D01*
X94450Y968200D01*
X107950Y968200D01*
X107950Y962200D01*
G37*
G54D13*
G36*
X539750Y657050D02*
X553250Y657050D01*
X553250Y651050D01*
X539750Y651050D01*
X539750Y657050D01*
G37*
G36*
X539750Y651050D02*
X526250Y651050D01*
X526250Y657050D01*
X539750Y657050D01*
X539750Y651050D01*
G37*
G54D13*
G36*
X206550Y622300D02*
X206550Y635800D01*
X212550Y635800D01*
X212550Y622300D01*
X206550Y622300D01*
G37*
G36*
X212550Y622300D02*
X212550Y608800D01*
X206550Y608800D01*
X206550Y622300D01*
X212550Y622300D01*
G37*
G54D13*
G36*
X415750Y317500D02*
X415750Y304000D01*
X409750Y304000D01*
X409750Y317500D01*
X415750Y317500D01*
G37*
G36*
X409750Y317500D02*
X409750Y331000D01*
X415750Y331000D01*
X415750Y317500D01*
X409750Y317500D01*
G37*
G54D13*
G36*
X412750Y485600D02*
X426250Y485600D01*
X426250Y479600D01*
X412750Y479600D01*
X412750Y485600D01*
G37*
G36*
X412750Y479600D02*
X399250Y479600D01*
X399250Y485600D01*
X412750Y485600D01*
X412750Y479600D01*
G37*
G54D13*
G36*
X206550Y368300D02*
X206550Y381800D01*
X212550Y381800D01*
X212550Y368300D01*
X206550Y368300D01*
G37*
G36*
X212550Y368300D02*
X212550Y354800D01*
X206550Y354800D01*
X206550Y368300D01*
X212550Y368300D01*
G37*
G54D13*
G36*
X285750Y485600D02*
X299250Y485600D01*
X299250Y479600D01*
X285750Y479600D01*
X285750Y485600D01*
G37*
G36*
X285750Y479600D02*
X272250Y479600D01*
X272250Y485600D01*
X285750Y485600D01*
X285750Y479600D01*
G37*
G54D13*
G36*
X107950Y314150D02*
X121450Y314150D01*
X121450Y308150D01*
X107950Y308150D01*
X107950Y314150D01*
G37*
G36*
X107950Y308150D02*
X94450Y308150D01*
X94450Y314150D01*
X107950Y314150D01*
X107950Y308150D01*
G37*
G54D13*
G36*
X104950Y622300D02*
X104950Y635800D01*
X110950Y635800D01*
X110950Y622300D01*
X104950Y622300D01*
G37*
G36*
X107950Y625300D02*
X121450Y625300D01*
X121450Y619300D01*
X107950Y619300D01*
X107950Y625300D01*
G37*
G36*
X110950Y622300D02*
X110950Y608800D01*
X104950Y608800D01*
X104950Y622300D01*
X110950Y622300D01*
G37*
G36*
X107950Y619300D02*
X94450Y619300D01*
X94450Y625300D01*
X107950Y625300D01*
X107950Y619300D01*
G37*
G54D13*
G36*
X539750Y314150D02*
X553250Y314150D01*
X553250Y308150D01*
X539750Y308150D01*
X539750Y314150D01*
G37*
G36*
X539750Y308150D02*
X526250Y308150D01*
X526250Y314150D01*
X539750Y314150D01*
X539750Y308150D01*
G37*
X539750Y965200D02*
G54D14*
D03*
X514350Y965200D02*
G54D14*
D03*
X488950Y965200D02*
G54D14*
D03*
X463550Y965200D02*
G54D14*
D03*
X438150Y965200D02*
G54D14*
D03*
X412750Y965200D02*
G54D14*
D03*
X387350Y965200D02*
G54D14*
D03*
X361950Y965200D02*
G54D14*
D03*
X336550Y965200D02*
G54D14*
D03*
X311150Y965200D02*
G54D14*
D03*
X285750Y965200D02*
G54D14*
D03*
X260350Y965200D02*
G54D14*
D03*
X234950Y965200D02*
G54D14*
D03*
X209550Y965200D02*
G54D14*
D03*
X184150Y965200D02*
G54D14*
D03*
X184150Y711200D02*
G54D14*
D03*
X209550Y711200D02*
G54D14*
D03*
X234950Y711200D02*
G54D14*
D03*
X260350Y711200D02*
G54D14*
D03*
X285750Y711200D02*
G54D14*
D03*
X311150Y711200D02*
G54D14*
D03*
X336550Y711200D02*
G54D14*
D03*
X361950Y711200D02*
G54D14*
D03*
X387350Y711200D02*
G54D14*
D03*
X412750Y711200D02*
G54D14*
D03*
X438150Y711200D02*
G54D14*
D03*
X463550Y711200D02*
G54D14*
D03*
X488950Y711200D02*
G54D14*
D03*
X514350Y711200D02*
G54D14*
D03*
X539750Y711200D02*
G54D14*
D03*
X412750Y660400D02*
G54D14*
D03*
X387350Y660400D02*
G54D14*
D03*
X361950Y660400D02*
G54D14*
D03*
X336550Y660400D02*
G54D14*
D03*
X412750Y850900D02*
G54D14*
D03*
X412750Y825500D02*
G54D14*
D03*
X412750Y800100D02*
G54D14*
D03*
X412750Y774700D02*
G54D14*
D03*
X57150Y912812D02*
G54D15*
D03*
X57150Y712788D02*
G54D15*
D03*
X641350Y712788D02*
G54D15*
D03*
X641350Y912812D02*
G54D15*
D03*
X209550Y965200D02*
G54D14*
D03*
X412750Y660400D02*
G54D14*
D03*
X412750Y825500D02*
G54D14*
D03*
X209550Y711200D02*
G54D14*
D03*
G54D16*
X184150Y965200D02*
X184150Y850900D01*
X412750Y850900D01*
G54D16*
X412750Y774700D02*
X450850Y774700D01*
X463550Y762000D01*
X463550Y711200D01*
G54D16*
X412750Y800100D02*
X463550Y800100D01*
X488950Y774700D01*
X488950Y711200D01*
X285750Y850900D02*
G54D14*
D03*
X285750Y825500D02*
G54D14*
D03*
X285750Y800100D02*
G54D14*
D03*
X285750Y774700D02*
G54D14*
D03*
G54D16*
X285750Y800100D02*
X412750Y800100D01*
G54D16*
X285750Y774700D02*
X412750Y774700D01*
G54D16*
X336550Y660400D02*
X336550Y685800D01*
X342900Y692150D01*
X431800Y692150D01*
X438150Y698500D01*
X438150Y711200D01*
G54D16*
X361950Y660400D02*
X361950Y673100D01*
X368300Y679450D01*
X501650Y679450D01*
X514350Y692150D01*
X514350Y711200D01*
X285750Y825500D02*
G54D14*
D03*
X107950Y685800D02*
G54D14*
D03*
X107950Y654050D02*
G54D14*
D03*
G54D16*
X107950Y685800D02*
X107950Y819150D01*
X139700Y850900D01*
X184150Y850900D01*
X107950Y965200D02*
G54D14*
D03*
X146050Y965200D02*
G54D14*
D03*
G54D16*
X146050Y965200D02*
X184150Y965200D01*
X539750Y685800D02*
G54D14*
D03*
X539750Y654050D02*
G54D14*
D03*
X539750Y622300D02*
G54D14*
D03*
X514350Y622300D02*
G54D14*
D03*
X488950Y622300D02*
G54D14*
D03*
X463550Y622300D02*
G54D14*
D03*
X438150Y622300D02*
G54D14*
D03*
X412750Y622300D02*
G54D14*
D03*
X387350Y622300D02*
G54D14*
D03*
X361950Y622300D02*
G54D14*
D03*
X336550Y622300D02*
G54D14*
D03*
X311150Y622300D02*
G54D14*
D03*
X285750Y622300D02*
G54D14*
D03*
X260350Y622300D02*
G54D14*
D03*
X234950Y622300D02*
G54D14*
D03*
X209550Y622300D02*
G54D14*
D03*
X184150Y622300D02*
G54D14*
D03*
X184150Y368300D02*
G54D14*
D03*
X209550Y368300D02*
G54D14*
D03*
X234950Y368300D02*
G54D14*
D03*
X260350Y368300D02*
G54D14*
D03*
X285750Y368300D02*
G54D14*
D03*
X311150Y368300D02*
G54D14*
D03*
X336550Y368300D02*
G54D14*
D03*
X361950Y368300D02*
G54D14*
D03*
X387350Y368300D02*
G54D14*
D03*
X412750Y368300D02*
G54D14*
D03*
X438150Y368300D02*
G54D14*
D03*
X463550Y368300D02*
G54D14*
D03*
X488950Y368300D02*
G54D14*
D03*
X514350Y368300D02*
G54D14*
D03*
X539750Y368300D02*
G54D14*
D03*
X412750Y317500D02*
G54D14*
D03*
X387350Y317500D02*
G54D14*
D03*
X361950Y317500D02*
G54D14*
D03*
X336550Y317500D02*
G54D14*
D03*
X412750Y508000D02*
G54D14*
D03*
X412750Y482600D02*
G54D14*
D03*
X412750Y457200D02*
G54D14*
D03*
X412750Y431800D02*
G54D14*
D03*
X57150Y569912D02*
G54D15*
D03*
X57150Y369888D02*
G54D15*
D03*
X641350Y369888D02*
G54D15*
D03*
X641350Y569912D02*
G54D15*
D03*
X209550Y622300D02*
G54D14*
D03*
X412750Y317500D02*
G54D14*
D03*
X412750Y482600D02*
G54D14*
D03*
X209550Y368300D02*
G54D14*
D03*
G54D16*
X184150Y622300D02*
X184150Y508000D01*
X412750Y508000D01*
G54D16*
X412750Y431800D02*
X450850Y431800D01*
X463550Y419100D01*
X463550Y368300D01*
G54D16*
X412750Y457200D02*
X463550Y457200D01*
X488950Y431800D01*
X488950Y368300D01*
X285750Y508000D02*
G54D14*
D03*
X285750Y482600D02*
G54D14*
D03*
X285750Y457200D02*
G54D14*
D03*
X285750Y431800D02*
G54D14*
D03*
G54D16*
X285750Y457200D02*
X412750Y457200D01*
G54D16*
X285750Y431800D02*
X412750Y431800D01*
G54D16*
X336550Y317500D02*
X336550Y342900D01*
X342900Y349250D01*
X431800Y349250D01*
X438150Y355600D01*
X438150Y368300D01*
G54D16*
X361950Y317500D02*
X361950Y330200D01*
X368300Y336550D01*
X501650Y336550D01*
X514350Y349250D01*
X514350Y368300D01*
X285750Y482600D02*
G54D14*
D03*
X107950Y342900D02*
G54D14*
D03*
X107950Y311150D02*
G54D14*
D03*
G54D16*
X107950Y342900D02*
X107950Y476250D01*
X139700Y508000D01*
X184150Y508000D01*
X107950Y622300D02*
G54D14*
D03*
X146050Y622300D02*
G54D14*
D03*
G54D16*
X146050Y622300D02*
X184150Y622300D01*
X539750Y342900D02*
G54D14*
D03*
X539750Y311150D02*
G54D14*
D03*
M02*
