; Drill file
; Format: 2.4 (00.0000)
M48
INCH
T01C0.0197
T02C0.0394
T03C0.0433
T04C0.0945
%
G05
G90
T01
X012300Y025000
X025300Y025000
X038300Y025000
T02
X001500Y017250
X002500Y017250
X003500Y017250
X004500Y017250
X004500Y020000
X003500Y020000
X002500Y020000
X001500Y020000
X001500Y022500
X001500Y023500
X001500Y026000
X001500Y027000
X001500Y029500
X001500Y030500
X004750Y029250
X004750Y028250
X004750Y027250
X008250Y031000
X009230Y031000
X010020Y031000
X011000Y031000
X014500Y030500
X014500Y029500
X014500Y027000
X014500Y026000
X014500Y023500
X014500Y022500
X014500Y020000
X015500Y020000
X016500Y020000
X017500Y020000
X017500Y017250
X016500Y017250
X015500Y017250
X014500Y017250
X012000Y017250
X011000Y017250
X010000Y017250
X009000Y017250
X009000Y020000
X010000Y020000
X011000Y020000
X012000Y020000
X012000Y022750
X011000Y022750
X010000Y022750
X009000Y022750
X017750Y027250
X017750Y028250
X017750Y029250
X021250Y031000
X022230Y031000
X023020Y031000
X024000Y031000
X027500Y030500
X027500Y029500
X027500Y027000
X027500Y026000
X027500Y023500
X027500Y022500
X027500Y020000
X028500Y020000
X029500Y020000
X030500Y020000
X030500Y017250
X029500Y017250
X028500Y017250
X027500Y017250
X025000Y017250
X024000Y017250
X023000Y017250
X022000Y017250
X022000Y020000
X023000Y020000
X024000Y020000
X025000Y020000
X025000Y022750
X024000Y022750
X023000Y022750
X022000Y022750
X030750Y027250
X030750Y028250
X030750Y029250
X034250Y031000
X035230Y031000
X036020Y031000
X037000Y031000
X037000Y022750
X038000Y022750
X036000Y022750
X035000Y022750
X035000Y020000
X036000Y020000
X037000Y020000
X038000Y020000
X038000Y017250
X037000Y017250
X036000Y017250
X035000Y017250
T03
X003000Y034250
X005000Y034250
X016000Y034250
X018000Y034250
X029000Y034250
X031000Y034250
T04
X006750Y019750
X007030Y032060
X012210Y032060
X020030Y032060
X025210Y032060
X033030Y032060
X038210Y032060
X032750Y019750
X019750Y019750
M30
