; Drill file
; Format: 2.4 (00.0000)
M48
INCH
T01C0.0197
T02C0.0394
T03C0.0433
T04C0.0945
%
G05
G90
T01
X012300Y027750
X025300Y027750
X038300Y027750
T02
X001500Y020000
X002500Y020000
X003500Y020000
X004500Y020000
X004500Y022750
X003500Y022750
X002500Y022750
X001500Y022750
X001500Y025250
X001500Y026250
X001500Y028750
X001500Y029750
X001500Y032250
X001500Y033250
X004750Y032000
X004750Y031000
X004750Y030000
X008250Y033750
X009230Y033750
X010020Y033750
X011000Y033750
X014500Y033250
X014500Y032250
X014500Y029750
X014500Y028750
X014500Y026250
X014500Y025250
X014500Y022750
X015500Y022750
X016500Y022750
X017500Y022750
X017500Y020000
X016500Y020000
X015500Y020000
X014500Y020000
X012000Y020000
X011000Y020000
X010000Y020000
X009000Y020000
X009000Y022750
X010000Y022750
X011000Y022750
X012000Y022750
X012000Y025500
X011000Y025500
X010000Y025500
X009000Y025500
X017750Y030000
X017750Y031000
X017750Y032000
X021250Y033750
X022230Y033750
X023020Y033750
X024000Y033750
X027500Y033250
X027500Y032250
X027500Y029750
X027500Y028750
X027500Y026250
X027500Y025250
X027500Y022750
X028500Y022750
X029500Y022750
X030500Y022750
X030500Y020000
X029500Y020000
X028500Y020000
X027500Y020000
X025000Y020000
X024000Y020000
X023000Y020000
X022000Y020000
X022000Y022750
X023000Y022750
X024000Y022750
X025000Y022750
X025000Y025500
X024000Y025500
X023000Y025500
X022000Y025500
X030750Y030000
X030750Y031000
X030750Y032000
X034250Y033750
X035230Y033750
X036020Y033750
X037000Y033750
X037000Y025500
X038000Y025500
X036000Y025500
X035000Y025500
X035000Y022750
X036000Y022750
X037000Y022750
X038000Y022750
X038000Y020000
X037000Y020000
X036000Y020000
X035000Y020000
T03
X003000Y037000
X005000Y037000
X016000Y037000
X018000Y037000
X029000Y037000
X031000Y037000
T04
X006750Y022500
X007030Y034810
X012210Y034810
X020030Y034810
X025210Y034810
X033030Y034810
X038210Y034810
X032750Y022500
X019750Y022500
M30
