%FSLAX34Y34*%
%MOMM*%
%LNCOPPER_TOP*%
G71*
G01*
%ADD10C, 2.60*%
%ADD11R, 2.58X3.95*%
%ADD12C, 2.30*%
%ADD13R, 2.10X2.40*%
%ADD14C, 1.30*%
%ADD15C, 0.10*%
%ADD16R, 1.60X2.80*%
%ADD17R, 2.80X4.80*%
%ADD18R, 2.80X5.30*%
%ADD19C, 1.80*%
%ADD20C, 3.80*%
%ADD21R, 2.40X2.10*%
%ADD22C, 1.00*%
%ADD23C, 0.60*%
%ADD24C, 0.67*%
%ADD25C, 0.27*%
%ADD26C, 0.43*%
%ADD27C, 1.80*%
%ADD28R, 1.78X3.15*%
%ADD29C, 1.50*%
%ADD30R, 1.30X1.60*%
%ADD31C, 0.50*%
%ADD32R, 0.80X2.00*%
%ADD33R, 2.00X4.00*%
%ADD34R, 2.00X4.50*%
%ADD35C, 3.00*%
%ADD36R, 1.60X1.30*%
%LPD*%
G36*
X0Y1000000D02*
X1000000Y1000000D01*
X1000000Y290000D01*
X0Y290000D01*
X0Y1000000D01*
G37*
%LPC*%
G36*
X146000Y862065D02*
X134885Y850950D01*
X119115Y850950D01*
X108000Y862065D01*
X108000Y877835D01*
X119115Y888950D01*
X134885Y888950D01*
X146000Y877835D01*
X146000Y862065D01*
G37*
G36*
X95200Y862065D02*
X84085Y850950D01*
X68315Y850950D01*
X57200Y862065D01*
X57200Y877835D01*
X68315Y888950D01*
X84085Y888950D01*
X95200Y877835D01*
X95200Y862065D01*
G37*
X38100Y749300D02*
G54D10*
D03*
X38100Y774700D02*
G54D10*
D03*
X38100Y660400D02*
G54D10*
D03*
X38100Y685800D02*
G54D10*
D03*
G36*
X57200Y877835D02*
X68315Y888950D01*
X84085Y888950D01*
X95200Y877835D01*
X95200Y862065D01*
X84085Y850950D01*
X68315Y850950D01*
X57200Y862065D01*
X57200Y877835D01*
G37*
X38100Y774700D02*
G54D10*
D03*
X38100Y685800D02*
G54D10*
D03*
X209550Y787400D02*
G54D10*
D03*
G36*
X126045Y755950D02*
X133650Y748345D01*
X133650Y737555D01*
X126045Y729950D01*
X115255Y729950D01*
X107650Y737555D01*
X107650Y748345D01*
X115255Y755950D01*
X126045Y755950D01*
G37*
G36*
X126045Y730550D02*
X133650Y722945D01*
X133650Y712155D01*
X126045Y704550D01*
X115255Y704550D01*
X107650Y712155D01*
X107650Y722945D01*
X115255Y730550D01*
X126045Y730550D01*
G37*
G36*
X126045Y705150D02*
X133650Y697545D01*
X133650Y686755D01*
X126045Y679150D01*
X115255Y679150D01*
X107650Y686755D01*
X107650Y697545D01*
X115255Y705150D01*
X126045Y705150D01*
G37*
G36*
X126045Y730550D02*
X133650Y722945D01*
X133650Y712155D01*
X126045Y704550D01*
X115255Y704550D01*
X107650Y712155D01*
X107650Y722945D01*
X115255Y730550D01*
X126045Y730550D01*
G37*
X140891Y796925D02*
G54D11*
D03*
X88900Y796925D02*
G54D11*
D03*
G54D12*
X127000Y869950D02*
X127000Y844550D01*
X141288Y830262D01*
X141288Y797322D01*
X140891Y796925D01*
X279400Y787400D02*
G54D10*
D03*
X254397Y787400D02*
G54D10*
D03*
X234553Y787400D02*
G54D10*
D03*
X209550Y787400D02*
G54D10*
D03*
G36*
X334158Y804427D02*
X320118Y790387D01*
X300198Y790387D01*
X286158Y804427D01*
X286158Y824347D01*
X300198Y838387D01*
X320118Y838387D01*
X334158Y824347D01*
X334158Y804427D01*
G37*
G36*
X202594Y804427D02*
X188554Y790387D01*
X168634Y790387D01*
X154594Y804427D01*
X154594Y824347D01*
X168634Y838387D01*
X188554Y838387D01*
X202594Y824347D01*
X202594Y804427D01*
G37*
G54D12*
X38100Y660400D02*
X69850Y660400D01*
X88900Y679450D01*
X88900Y796925D01*
G54D12*
X38100Y749300D02*
X88900Y749300D01*
X19050Y876300D02*
G54D13*
D03*
X38050Y876300D02*
G54D13*
D03*
X19050Y901700D02*
G54D13*
D03*
X38050Y901700D02*
G54D13*
D03*
G54D14*
X19050Y876300D02*
X19050Y901700D01*
G36*
X100012Y817562D02*
X130175Y817562D01*
X130175Y776288D01*
X100012Y776288D01*
X100012Y817562D01*
G37*
G54D15*
X100012Y817562D02*
X130175Y817562D01*
X130175Y776288D01*
X100012Y776288D01*
X100012Y817562D01*
X28575Y815975D02*
G54D16*
D03*
X28575Y850305D02*
G54D16*
D03*
G54D12*
X34925Y815975D02*
X69850Y815975D01*
X85725Y800100D01*
G54D14*
X38050Y876300D02*
X38100Y876300D01*
X50800Y863600D01*
X50800Y815975D01*
X139700Y628650D02*
G54D17*
D03*
X139700Y574675D02*
G54D17*
D03*
X139700Y631031D02*
G54D18*
D03*
G36*
X125700Y598397D02*
X153700Y598397D01*
X153700Y545397D01*
X125700Y545397D01*
X125700Y598397D01*
G37*
X228600Y577850D02*
G54D10*
D03*
X254000Y577850D02*
G54D10*
D03*
X279400Y577850D02*
G54D10*
D03*
X304800Y577850D02*
G54D10*
D03*
X228600Y508000D02*
G54D10*
D03*
X254000Y508000D02*
G54D10*
D03*
X279400Y508000D02*
G54D10*
D03*
X304800Y508000D02*
G54D10*
D03*
X38100Y508000D02*
G54D10*
D03*
X63500Y508000D02*
G54D10*
D03*
X88900Y508000D02*
G54D10*
D03*
X114300Y508000D02*
G54D10*
D03*
X38100Y438150D02*
G54D10*
D03*
X63500Y438150D02*
G54D10*
D03*
X88900Y438150D02*
G54D10*
D03*
X114300Y438150D02*
G54D10*
D03*
X228600Y438150D02*
G54D10*
D03*
X254000Y438150D02*
G54D10*
D03*
X279400Y438150D02*
G54D10*
D03*
X304800Y438150D02*
G54D10*
D03*
X38100Y571500D02*
G54D10*
D03*
X38100Y596900D02*
G54D10*
D03*
X38100Y596900D02*
G54D10*
D03*
G36*
X291800Y451150D02*
X317800Y451150D01*
X317800Y425150D01*
X291800Y425150D01*
X291800Y451150D01*
G37*
G36*
X101300Y521000D02*
X127300Y521000D01*
X127300Y495000D01*
X101300Y495000D01*
X101300Y521000D01*
G37*
G36*
X101300Y451150D02*
X127300Y451150D01*
X127300Y425150D01*
X101300Y425150D01*
X101300Y451150D01*
G37*
G36*
X291800Y521000D02*
X317800Y521000D01*
X317800Y495000D01*
X291800Y495000D01*
X291800Y521000D01*
G37*
G36*
X291800Y590850D02*
X317800Y590850D01*
X317800Y564850D01*
X291800Y564850D01*
X291800Y590850D01*
G37*
G54D19*
X114300Y438150D02*
X114300Y419100D01*
X120650Y412750D01*
X298450Y412750D01*
X304800Y419100D01*
X304800Y438150D01*
G54D19*
X88900Y438150D02*
X88900Y457200D01*
X114300Y482600D01*
X114300Y508000D01*
G54D19*
X88900Y508000D02*
X88900Y520700D01*
X101600Y533400D01*
X266700Y533400D01*
X279400Y520700D01*
X279400Y508000D01*
G54D19*
X38100Y438150D02*
X38100Y457200D01*
X63500Y482600D01*
X63500Y508000D01*
X171450Y501650D02*
G54D20*
D03*
G54D12*
X120650Y692150D02*
X88900Y692150D01*
X260350Y635000D02*
G54D11*
D03*
X312341Y635000D02*
G54D11*
D03*
G54D12*
X38100Y571500D02*
X139700Y571500D01*
G54D12*
X139700Y571500D02*
X165100Y571500D01*
X228600Y635000D01*
X260350Y635000D01*
G36*
X299341Y657000D02*
X325341Y657000D01*
X325341Y613000D01*
X299341Y613000D01*
X299341Y657000D01*
G37*
G54D12*
X260350Y635000D02*
X279400Y654050D01*
X279400Y787400D01*
X139700Y631030D02*
G54D18*
D03*
X28580Y850300D02*
G54D16*
D03*
X38050Y901700D02*
G54D13*
D03*
X311150Y749300D02*
G54D21*
D03*
X311150Y730300D02*
G54D21*
D03*
X311150Y698500D02*
G54D21*
D03*
X311150Y679500D02*
G54D21*
D03*
X311150Y749300D02*
G54D21*
D03*
G54D14*
X311150Y698500D02*
X311150Y730300D01*
G54D14*
X311150Y679500D02*
X279450Y679500D01*
X279400Y679450D01*
G36*
X476200Y862065D02*
X465085Y850950D01*
X449315Y850950D01*
X438200Y862065D01*
X438200Y877835D01*
X449315Y888950D01*
X465085Y888950D01*
X476200Y877835D01*
X476200Y862065D01*
G37*
G36*
X425400Y862065D02*
X414285Y850950D01*
X398515Y850950D01*
X387400Y862065D01*
X387400Y877835D01*
X398515Y888950D01*
X414285Y888950D01*
X425400Y877835D01*
X425400Y862065D01*
G37*
X368300Y749300D02*
G54D10*
D03*
X368300Y774700D02*
G54D10*
D03*
X368300Y660400D02*
G54D10*
D03*
X368300Y685800D02*
G54D10*
D03*
G36*
X387400Y877835D02*
X398515Y888950D01*
X414285Y888950D01*
X425400Y877835D01*
X425400Y862065D01*
X414285Y850950D01*
X398515Y850950D01*
X387400Y862065D01*
X387400Y877835D01*
G37*
X368300Y774700D02*
G54D10*
D03*
X368300Y685800D02*
G54D10*
D03*
X539750Y787400D02*
G54D10*
D03*
G36*
X456245Y755950D02*
X463850Y748345D01*
X463850Y737555D01*
X456245Y729950D01*
X445455Y729950D01*
X437850Y737555D01*
X437850Y748345D01*
X445455Y755950D01*
X456245Y755950D01*
G37*
G36*
X456245Y730550D02*
X463850Y722945D01*
X463850Y712155D01*
X456245Y704550D01*
X445455Y704550D01*
X437850Y712155D01*
X437850Y722945D01*
X445455Y730550D01*
X456245Y730550D01*
G37*
G36*
X456245Y705150D02*
X463850Y697545D01*
X463850Y686755D01*
X456245Y679150D01*
X445455Y679150D01*
X437850Y686755D01*
X437850Y697545D01*
X445455Y705150D01*
X456245Y705150D01*
G37*
G36*
X456245Y730550D02*
X463850Y722945D01*
X463850Y712155D01*
X456245Y704550D01*
X445455Y704550D01*
X437850Y712155D01*
X437850Y722945D01*
X445455Y730550D01*
X456245Y730550D01*
G37*
X471091Y796925D02*
G54D11*
D03*
X419100Y796925D02*
G54D11*
D03*
G54D12*
X457200Y869950D02*
X457200Y844550D01*
X471488Y830262D01*
X471488Y797322D01*
X471091Y796925D01*
X609600Y787400D02*
G54D10*
D03*
X584597Y787400D02*
G54D10*
D03*
X564753Y787400D02*
G54D10*
D03*
X539750Y787400D02*
G54D10*
D03*
G36*
X664358Y804428D02*
X650318Y790388D01*
X630398Y790388D01*
X616358Y804428D01*
X616358Y824348D01*
X630398Y838388D01*
X650318Y838388D01*
X664358Y824348D01*
X664358Y804428D01*
G37*
G36*
X532794Y804427D02*
X518754Y790387D01*
X498834Y790387D01*
X484794Y804427D01*
X484794Y824347D01*
X498834Y838387D01*
X518754Y838387D01*
X532794Y824347D01*
X532794Y804427D01*
G37*
G54D12*
X368300Y660400D02*
X400050Y660400D01*
X419100Y679450D01*
X419100Y796925D01*
G54D12*
X368300Y749300D02*
X419100Y749300D01*
X349250Y876300D02*
G54D13*
D03*
X368250Y876300D02*
G54D13*
D03*
X349250Y901700D02*
G54D13*
D03*
X368250Y901700D02*
G54D13*
D03*
G54D14*
X349250Y876300D02*
X349250Y901700D01*
G36*
X430212Y817562D02*
X460375Y817562D01*
X460375Y776288D01*
X430212Y776288D01*
X430212Y817562D01*
G37*
G54D15*
X430212Y817562D02*
X460375Y817562D01*
X460375Y776288D01*
X430212Y776288D01*
X430212Y817562D01*
X358775Y815975D02*
G54D16*
D03*
X358775Y850305D02*
G54D16*
D03*
G54D12*
X365125Y815975D02*
X400050Y815975D01*
X415925Y800100D01*
G54D14*
X368250Y876300D02*
X368300Y876300D01*
X381000Y863600D01*
X381000Y815975D01*
X469900Y628650D02*
G54D17*
D03*
X469900Y574675D02*
G54D17*
D03*
X469900Y631031D02*
G54D18*
D03*
G36*
X455900Y598397D02*
X483900Y598397D01*
X483900Y545397D01*
X455900Y545397D01*
X455900Y598397D01*
G37*
X558800Y577850D02*
G54D10*
D03*
X584200Y577850D02*
G54D10*
D03*
X609600Y577850D02*
G54D10*
D03*
X635000Y577850D02*
G54D10*
D03*
X558800Y508000D02*
G54D10*
D03*
X584200Y508000D02*
G54D10*
D03*
X609600Y508000D02*
G54D10*
D03*
X635000Y508000D02*
G54D10*
D03*
X368300Y508000D02*
G54D10*
D03*
X393700Y508000D02*
G54D10*
D03*
X419100Y508000D02*
G54D10*
D03*
X444500Y508000D02*
G54D10*
D03*
X368300Y438150D02*
G54D10*
D03*
X393700Y438150D02*
G54D10*
D03*
X419100Y438150D02*
G54D10*
D03*
X444500Y438150D02*
G54D10*
D03*
X558800Y438150D02*
G54D10*
D03*
X584200Y438150D02*
G54D10*
D03*
X609600Y438150D02*
G54D10*
D03*
X635000Y438150D02*
G54D10*
D03*
X368300Y571500D02*
G54D10*
D03*
X368300Y596900D02*
G54D10*
D03*
X368300Y596900D02*
G54D10*
D03*
G36*
X622000Y451150D02*
X648000Y451150D01*
X648000Y425150D01*
X622000Y425150D01*
X622000Y451150D01*
G37*
G36*
X431500Y521000D02*
X457500Y521000D01*
X457500Y495000D01*
X431500Y495000D01*
X431500Y521000D01*
G37*
G36*
X431500Y451150D02*
X457500Y451150D01*
X457500Y425150D01*
X431500Y425150D01*
X431500Y451150D01*
G37*
G36*
X622000Y521000D02*
X648000Y521000D01*
X648000Y495000D01*
X622000Y495000D01*
X622000Y521000D01*
G37*
G36*
X622000Y590850D02*
X648000Y590850D01*
X648000Y564850D01*
X622000Y564850D01*
X622000Y590850D01*
G37*
G54D19*
X444500Y438150D02*
X444500Y419100D01*
X450850Y412750D01*
X628650Y412750D01*
X635000Y419100D01*
X635000Y438150D01*
G54D19*
X419100Y438150D02*
X419100Y457200D01*
X444500Y482600D01*
X444500Y508000D01*
G54D19*
X419100Y508000D02*
X419100Y520700D01*
X431800Y533400D01*
X596900Y533400D01*
X609600Y520700D01*
X609600Y508000D01*
G54D19*
X368300Y438150D02*
X368300Y457200D01*
X393700Y482600D01*
X393700Y508000D01*
X501650Y501650D02*
G54D20*
D03*
G54D12*
X450850Y692150D02*
X419100Y692150D01*
X590550Y635000D02*
G54D11*
D03*
X642541Y635000D02*
G54D11*
D03*
G54D12*
X368300Y571500D02*
X469900Y571500D01*
G54D12*
X469900Y571500D02*
X495300Y571500D01*
X558800Y635000D01*
X590550Y635000D01*
G36*
X629541Y657000D02*
X655541Y657000D01*
X655541Y613000D01*
X629541Y613000D01*
X629541Y657000D01*
G37*
G54D12*
X590550Y635000D02*
X609600Y654050D01*
X609600Y787400D01*
X469900Y631030D02*
G54D18*
D03*
X358780Y850300D02*
G54D16*
D03*
X368250Y901700D02*
G54D13*
D03*
X641350Y749300D02*
G54D21*
D03*
X641350Y730300D02*
G54D21*
D03*
X641350Y698500D02*
G54D21*
D03*
X641350Y679500D02*
G54D21*
D03*
X641350Y749300D02*
G54D21*
D03*
G54D14*
X641350Y698500D02*
X641350Y730300D01*
G54D14*
X641350Y679500D02*
X609650Y679500D01*
X609600Y679450D01*
G36*
X806400Y862065D02*
X795285Y850950D01*
X779515Y850950D01*
X768400Y862065D01*
X768400Y877835D01*
X779515Y888950D01*
X795285Y888950D01*
X806400Y877835D01*
X806400Y862065D01*
G37*
G36*
X755600Y862065D02*
X744485Y850950D01*
X728715Y850950D01*
X717600Y862065D01*
X717600Y877835D01*
X728715Y888950D01*
X744485Y888950D01*
X755600Y877835D01*
X755600Y862065D01*
G37*
X698500Y749300D02*
G54D10*
D03*
X698500Y774700D02*
G54D10*
D03*
X698500Y660400D02*
G54D10*
D03*
X698500Y685800D02*
G54D10*
D03*
G36*
X717600Y877835D02*
X728715Y888950D01*
X744485Y888950D01*
X755600Y877835D01*
X755600Y862065D01*
X744485Y850950D01*
X728715Y850950D01*
X717600Y862065D01*
X717600Y877835D01*
G37*
X698500Y774700D02*
G54D10*
D03*
X698500Y685800D02*
G54D10*
D03*
X869950Y787400D02*
G54D10*
D03*
G36*
X786445Y755950D02*
X794050Y748345D01*
X794050Y737555D01*
X786445Y729950D01*
X775655Y729950D01*
X768050Y737555D01*
X768050Y748345D01*
X775655Y755950D01*
X786445Y755950D01*
G37*
G36*
X786445Y730550D02*
X794050Y722945D01*
X794050Y712155D01*
X786445Y704550D01*
X775655Y704550D01*
X768050Y712155D01*
X768050Y722945D01*
X775655Y730550D01*
X786445Y730550D01*
G37*
G36*
X786445Y705150D02*
X794050Y697545D01*
X794050Y686755D01*
X786445Y679150D01*
X775655Y679150D01*
X768050Y686755D01*
X768050Y697545D01*
X775655Y705150D01*
X786445Y705150D01*
G37*
G36*
X786445Y730550D02*
X794050Y722945D01*
X794050Y712155D01*
X786445Y704550D01*
X775655Y704550D01*
X768050Y712155D01*
X768050Y722945D01*
X775655Y730550D01*
X786445Y730550D01*
G37*
X801291Y796925D02*
G54D11*
D03*
X749300Y796925D02*
G54D11*
D03*
G54D12*
X787400Y869950D02*
X787400Y844550D01*
X801688Y830262D01*
X801688Y797322D01*
X801291Y796925D01*
X939800Y787400D02*
G54D10*
D03*
X914797Y787400D02*
G54D10*
D03*
X894953Y787400D02*
G54D10*
D03*
X869950Y787400D02*
G54D10*
D03*
G36*
X994558Y804428D02*
X980518Y790388D01*
X960598Y790388D01*
X946558Y804428D01*
X946558Y824348D01*
X960598Y838388D01*
X980518Y838388D01*
X994558Y824348D01*
X994558Y804428D01*
G37*
G36*
X862994Y804427D02*
X848954Y790387D01*
X829034Y790387D01*
X814994Y804427D01*
X814994Y824347D01*
X829034Y838387D01*
X848954Y838387D01*
X862994Y824347D01*
X862994Y804427D01*
G37*
G54D12*
X698500Y660400D02*
X730250Y660400D01*
X749300Y679450D01*
X749300Y796925D01*
G54D12*
X698500Y749300D02*
X749300Y749300D01*
X679450Y876300D02*
G54D13*
D03*
X698450Y876300D02*
G54D13*
D03*
X679450Y901700D02*
G54D13*
D03*
X698450Y901700D02*
G54D13*
D03*
G54D14*
X679450Y876300D02*
X679450Y901700D01*
G36*
X760412Y817562D02*
X790575Y817562D01*
X790575Y776288D01*
X760412Y776288D01*
X760412Y817562D01*
G37*
G54D15*
X760412Y817562D02*
X790575Y817562D01*
X790575Y776288D01*
X760412Y776288D01*
X760412Y817562D01*
X688975Y815975D02*
G54D16*
D03*
X688975Y850305D02*
G54D16*
D03*
G54D12*
X695325Y815975D02*
X730250Y815975D01*
X746125Y800100D01*
G54D14*
X698450Y876300D02*
X698500Y876300D01*
X711200Y863600D01*
X711200Y815975D01*
X800100Y628650D02*
G54D17*
D03*
X800100Y574675D02*
G54D17*
D03*
X800100Y631031D02*
G54D18*
D03*
G36*
X786100Y598397D02*
X814100Y598397D01*
X814100Y545397D01*
X786100Y545397D01*
X786100Y598397D01*
G37*
X889000Y577850D02*
G54D10*
D03*
X914400Y577850D02*
G54D10*
D03*
X939800Y577850D02*
G54D10*
D03*
X965200Y577850D02*
G54D10*
D03*
X889000Y508000D02*
G54D10*
D03*
X914400Y508000D02*
G54D10*
D03*
X939800Y508000D02*
G54D10*
D03*
X965200Y508000D02*
G54D10*
D03*
X698500Y508000D02*
G54D10*
D03*
X723900Y508000D02*
G54D10*
D03*
X749300Y508000D02*
G54D10*
D03*
X774700Y508000D02*
G54D10*
D03*
X698500Y438150D02*
G54D10*
D03*
X723900Y438150D02*
G54D10*
D03*
X749300Y438150D02*
G54D10*
D03*
X774700Y438150D02*
G54D10*
D03*
X889000Y438150D02*
G54D10*
D03*
X914400Y438150D02*
G54D10*
D03*
X939800Y438150D02*
G54D10*
D03*
X965200Y438150D02*
G54D10*
D03*
X698500Y571500D02*
G54D10*
D03*
X698500Y596900D02*
G54D10*
D03*
X698500Y596900D02*
G54D10*
D03*
G36*
X952200Y451150D02*
X978200Y451150D01*
X978200Y425150D01*
X952200Y425150D01*
X952200Y451150D01*
G37*
G36*
X761700Y521000D02*
X787700Y521000D01*
X787700Y495000D01*
X761700Y495000D01*
X761700Y521000D01*
G37*
G36*
X761700Y451150D02*
X787700Y451150D01*
X787700Y425150D01*
X761700Y425150D01*
X761700Y451150D01*
G37*
G36*
X952200Y521000D02*
X978200Y521000D01*
X978200Y495000D01*
X952200Y495000D01*
X952200Y521000D01*
G37*
G36*
X952200Y590850D02*
X978200Y590850D01*
X978200Y564850D01*
X952200Y564850D01*
X952200Y590850D01*
G37*
G54D19*
X774700Y438150D02*
X774700Y419100D01*
X781050Y412750D01*
X958850Y412750D01*
X965200Y419100D01*
X965200Y438150D01*
G54D19*
X749300Y438150D02*
X749300Y457200D01*
X774700Y482600D01*
X774700Y508000D01*
G54D19*
X749300Y508000D02*
X749300Y520700D01*
X762000Y533400D01*
X927100Y533400D01*
X939800Y520700D01*
X939800Y508000D01*
G54D19*
X698500Y438150D02*
X698500Y457200D01*
X723900Y482600D01*
X723900Y508000D01*
X831850Y501650D02*
G54D20*
D03*
G54D12*
X781050Y692150D02*
X749300Y692150D01*
X920750Y635000D02*
G54D11*
D03*
X972741Y635000D02*
G54D11*
D03*
G54D12*
X698500Y571500D02*
X800100Y571500D01*
G54D12*
X800100Y571500D02*
X825500Y571500D01*
X889000Y635000D01*
X920750Y635000D01*
G36*
X959741Y657000D02*
X985741Y657000D01*
X985741Y613000D01*
X959741Y613000D01*
X959741Y657000D01*
G37*
G54D12*
X920750Y635000D02*
X939800Y654050D01*
X939800Y787400D01*
X800100Y631030D02*
G54D18*
D03*
X688980Y850300D02*
G54D16*
D03*
X698450Y901700D02*
G54D13*
D03*
X971550Y749300D02*
G54D21*
D03*
X971550Y730300D02*
G54D21*
D03*
X971550Y698500D02*
G54D21*
D03*
X971550Y679500D02*
G54D21*
D03*
X971550Y749300D02*
G54D21*
D03*
G54D14*
X971550Y698500D02*
X971550Y730300D01*
G54D14*
X971550Y679500D02*
X939850Y679500D01*
X939800Y679450D01*
%LPD*%
G54D22*
G36*
X72664Y873486D02*
X86453Y887274D01*
X93524Y880203D01*
X79736Y866414D01*
X72664Y873486D01*
G37*
G36*
X79736Y873486D02*
X93524Y859697D01*
X86453Y852626D01*
X72664Y866414D01*
X79736Y873486D01*
G37*
G36*
X79736Y866414D02*
X65947Y852626D01*
X58876Y859697D01*
X72664Y873486D01*
X79736Y866414D01*
G37*
G36*
X72664Y866414D02*
X58876Y880203D01*
X65947Y887274D01*
X79736Y873486D01*
X72664Y866414D01*
G37*
G54D23*
G36*
X35100Y774700D02*
X35100Y788200D01*
X41100Y788200D01*
X41100Y774700D01*
X35100Y774700D01*
G37*
G36*
X38100Y777700D02*
X51600Y777700D01*
X51600Y771700D01*
X38100Y771700D01*
X38100Y777700D01*
G37*
G36*
X38100Y771700D02*
X24600Y771700D01*
X24600Y777700D01*
X38100Y777700D01*
X38100Y771700D01*
G37*
G54D23*
G36*
X35100Y685800D02*
X35100Y699300D01*
X41100Y699300D01*
X41100Y685800D01*
X35100Y685800D01*
G37*
G36*
X38100Y688800D02*
X51600Y688800D01*
X51600Y682800D01*
X38100Y682800D01*
X38100Y688800D01*
G37*
G36*
X38100Y682800D02*
X24600Y682800D01*
X24600Y688800D01*
X38100Y688800D01*
X38100Y682800D01*
G37*
G54D23*
G36*
X207429Y789521D02*
X216975Y799067D01*
X221217Y794825D01*
X211671Y785279D01*
X207429Y789521D01*
G37*
G36*
X211671Y789521D02*
X221217Y779975D01*
X216975Y775733D01*
X207429Y785279D01*
X211671Y789521D01*
G37*
G36*
X211671Y785279D02*
X202125Y775733D01*
X197883Y779975D01*
X207429Y789521D01*
X211671Y785279D01*
G37*
G36*
X207429Y785279D02*
X197883Y794825D01*
X202125Y799067D01*
X211671Y789521D01*
X207429Y785279D01*
G37*
G54D23*
G36*
X120650Y720550D02*
X134150Y720550D01*
X134150Y714550D01*
X120650Y714550D01*
X120650Y720550D01*
G37*
G36*
X120650Y714550D02*
X107150Y714550D01*
X107150Y720550D01*
X120650Y720550D01*
X120650Y714550D01*
G37*
G54D23*
G36*
X35100Y596900D02*
X35100Y610400D01*
X41100Y610400D01*
X41100Y596900D01*
X35100Y596900D01*
G37*
G36*
X38100Y599900D02*
X51600Y599900D01*
X51600Y593900D01*
X38100Y593900D01*
X38100Y599900D01*
G37*
G36*
X38100Y593900D02*
X24600Y593900D01*
X24600Y599900D01*
X38100Y599900D01*
X38100Y593900D01*
G37*
G54D24*
G36*
X136366Y631030D02*
X136366Y658030D01*
X143034Y658030D01*
X143034Y631030D01*
X136366Y631030D01*
G37*
G36*
X139700Y634364D02*
X154200Y634364D01*
X154200Y627696D01*
X139700Y627696D01*
X139700Y634364D01*
G37*
G36*
X143034Y631030D02*
X143034Y604030D01*
X136366Y604030D01*
X136366Y631030D01*
X143034Y631030D01*
G37*
G36*
X139700Y627696D02*
X125200Y627696D01*
X125200Y634364D01*
X139700Y634364D01*
X139700Y627696D01*
G37*
G54D25*
G36*
X28580Y851634D02*
X37080Y851634D01*
X37080Y848966D01*
X28580Y848966D01*
X28580Y851634D01*
G37*
G36*
X29914Y850300D02*
X29914Y835800D01*
X27246Y835800D01*
X27246Y850300D01*
X29914Y850300D01*
G37*
G36*
X28580Y848966D02*
X20080Y848966D01*
X20080Y851634D01*
X28580Y851634D01*
X28580Y848966D01*
G37*
G54D26*
G36*
X35884Y901700D02*
X35884Y914200D01*
X40216Y914200D01*
X40216Y901700D01*
X35884Y901700D01*
G37*
G36*
X38050Y903866D02*
X49050Y903866D01*
X49050Y899534D01*
X38050Y899534D01*
X38050Y903866D01*
G37*
G36*
X40216Y901700D02*
X40216Y889200D01*
X35884Y889200D01*
X35884Y901700D01*
X40216Y901700D01*
G37*
G54D26*
G36*
X311150Y747134D02*
X298650Y747134D01*
X298650Y751466D01*
X311150Y751466D01*
X311150Y747134D01*
G37*
G36*
X308984Y749300D02*
X308984Y760300D01*
X313316Y760300D01*
X313316Y749300D01*
X308984Y749300D01*
G37*
G36*
X311150Y751466D02*
X323650Y751466D01*
X323650Y747134D01*
X311150Y747134D01*
X311150Y751466D01*
G37*
G54D22*
G36*
X402864Y873486D02*
X416653Y887274D01*
X423724Y880203D01*
X409936Y866414D01*
X402864Y873486D01*
G37*
G36*
X409936Y873486D02*
X423724Y859697D01*
X416653Y852626D01*
X402864Y866414D01*
X409936Y873486D01*
G37*
G36*
X409936Y866414D02*
X396147Y852626D01*
X389076Y859697D01*
X402864Y873486D01*
X409936Y866414D01*
G37*
G36*
X402864Y866414D02*
X389076Y880203D01*
X396147Y887274D01*
X409936Y873486D01*
X402864Y866414D01*
G37*
G54D23*
G36*
X365300Y774700D02*
X365300Y788200D01*
X371300Y788200D01*
X371300Y774700D01*
X365300Y774700D01*
G37*
G36*
X368300Y777700D02*
X381800Y777700D01*
X381800Y771700D01*
X368300Y771700D01*
X368300Y777700D01*
G37*
G36*
X368300Y771700D02*
X354800Y771700D01*
X354800Y777700D01*
X368300Y777700D01*
X368300Y771700D01*
G37*
G54D23*
G36*
X365300Y685800D02*
X365300Y699300D01*
X371300Y699300D01*
X371300Y685800D01*
X365300Y685800D01*
G37*
G36*
X368300Y688800D02*
X381800Y688800D01*
X381800Y682800D01*
X368300Y682800D01*
X368300Y688800D01*
G37*
G36*
X368300Y682800D02*
X354800Y682800D01*
X354800Y688800D01*
X368300Y688800D01*
X368300Y682800D01*
G37*
G54D23*
G36*
X537629Y789521D02*
X547175Y799067D01*
X551417Y794825D01*
X541871Y785279D01*
X537629Y789521D01*
G37*
G36*
X541871Y789521D02*
X551417Y779975D01*
X547175Y775733D01*
X537629Y785279D01*
X541871Y789521D01*
G37*
G36*
X541871Y785279D02*
X532325Y775733D01*
X528083Y779975D01*
X537629Y789521D01*
X541871Y785279D01*
G37*
G36*
X537629Y785279D02*
X528083Y794825D01*
X532325Y799067D01*
X541871Y789521D01*
X537629Y785279D01*
G37*
G54D23*
G36*
X450850Y720550D02*
X464350Y720550D01*
X464350Y714550D01*
X450850Y714550D01*
X450850Y720550D01*
G37*
G36*
X450850Y714550D02*
X437350Y714550D01*
X437350Y720550D01*
X450850Y720550D01*
X450850Y714550D01*
G37*
G54D23*
G36*
X365300Y596900D02*
X365300Y610400D01*
X371300Y610400D01*
X371300Y596900D01*
X365300Y596900D01*
G37*
G36*
X368300Y599900D02*
X381800Y599900D01*
X381800Y593900D01*
X368300Y593900D01*
X368300Y599900D01*
G37*
G36*
X368300Y593900D02*
X354800Y593900D01*
X354800Y599900D01*
X368300Y599900D01*
X368300Y593900D01*
G37*
G54D24*
G36*
X466566Y631030D02*
X466566Y658030D01*
X473234Y658030D01*
X473234Y631030D01*
X466566Y631030D01*
G37*
G36*
X469900Y634364D02*
X484400Y634364D01*
X484400Y627696D01*
X469900Y627696D01*
X469900Y634364D01*
G37*
G36*
X473234Y631030D02*
X473234Y604030D01*
X466566Y604030D01*
X466566Y631030D01*
X473234Y631030D01*
G37*
G36*
X469900Y627696D02*
X455400Y627696D01*
X455400Y634364D01*
X469900Y634364D01*
X469900Y627696D01*
G37*
G54D25*
G36*
X358780Y851634D02*
X367280Y851634D01*
X367280Y848966D01*
X358780Y848966D01*
X358780Y851634D01*
G37*
G36*
X360114Y850300D02*
X360114Y835800D01*
X357446Y835800D01*
X357446Y850300D01*
X360114Y850300D01*
G37*
G36*
X358780Y848966D02*
X350280Y848966D01*
X350280Y851634D01*
X358780Y851634D01*
X358780Y848966D01*
G37*
G54D26*
G36*
X366084Y901700D02*
X366084Y914200D01*
X370416Y914200D01*
X370416Y901700D01*
X366084Y901700D01*
G37*
G36*
X368250Y903866D02*
X379250Y903866D01*
X379250Y899534D01*
X368250Y899534D01*
X368250Y903866D01*
G37*
G36*
X370416Y901700D02*
X370416Y889200D01*
X366084Y889200D01*
X366084Y901700D01*
X370416Y901700D01*
G37*
G54D26*
G36*
X641350Y747134D02*
X628850Y747134D01*
X628850Y751466D01*
X641350Y751466D01*
X641350Y747134D01*
G37*
G36*
X639184Y749300D02*
X639184Y760300D01*
X643516Y760300D01*
X643516Y749300D01*
X639184Y749300D01*
G37*
G36*
X641350Y751466D02*
X653850Y751466D01*
X653850Y747134D01*
X641350Y747134D01*
X641350Y751466D01*
G37*
G54D22*
G36*
X733064Y873486D02*
X746853Y887274D01*
X753924Y880203D01*
X740136Y866414D01*
X733064Y873486D01*
G37*
G36*
X740136Y873486D02*
X753924Y859697D01*
X746853Y852626D01*
X733064Y866414D01*
X740136Y873486D01*
G37*
G36*
X740136Y866414D02*
X726347Y852626D01*
X719276Y859697D01*
X733064Y873486D01*
X740136Y866414D01*
G37*
G36*
X733064Y866414D02*
X719276Y880203D01*
X726347Y887274D01*
X740136Y873486D01*
X733064Y866414D01*
G37*
G54D23*
G36*
X695500Y774700D02*
X695500Y788200D01*
X701500Y788200D01*
X701500Y774700D01*
X695500Y774700D01*
G37*
G36*
X698500Y777700D02*
X712000Y777700D01*
X712000Y771700D01*
X698500Y771700D01*
X698500Y777700D01*
G37*
G36*
X698500Y771700D02*
X685000Y771700D01*
X685000Y777700D01*
X698500Y777700D01*
X698500Y771700D01*
G37*
G54D23*
G36*
X695500Y685800D02*
X695500Y699300D01*
X701500Y699300D01*
X701500Y685800D01*
X695500Y685800D01*
G37*
G36*
X698500Y688800D02*
X712000Y688800D01*
X712000Y682800D01*
X698500Y682800D01*
X698500Y688800D01*
G37*
G36*
X698500Y682800D02*
X685000Y682800D01*
X685000Y688800D01*
X698500Y688800D01*
X698500Y682800D01*
G37*
G54D23*
G36*
X867829Y789521D02*
X877375Y799067D01*
X881617Y794825D01*
X872071Y785279D01*
X867829Y789521D01*
G37*
G36*
X872071Y789521D02*
X881617Y779975D01*
X877375Y775733D01*
X867829Y785279D01*
X872071Y789521D01*
G37*
G36*
X872071Y785279D02*
X862525Y775733D01*
X858283Y779975D01*
X867829Y789521D01*
X872071Y785279D01*
G37*
G36*
X867829Y785279D02*
X858283Y794825D01*
X862525Y799067D01*
X872071Y789521D01*
X867829Y785279D01*
G37*
G54D23*
G36*
X781050Y720550D02*
X794550Y720550D01*
X794550Y714550D01*
X781050Y714550D01*
X781050Y720550D01*
G37*
G36*
X781050Y714550D02*
X767550Y714550D01*
X767550Y720550D01*
X781050Y720550D01*
X781050Y714550D01*
G37*
G54D23*
G36*
X695500Y596900D02*
X695500Y610400D01*
X701500Y610400D01*
X701500Y596900D01*
X695500Y596900D01*
G37*
G36*
X698500Y599900D02*
X712000Y599900D01*
X712000Y593900D01*
X698500Y593900D01*
X698500Y599900D01*
G37*
G36*
X698500Y593900D02*
X685000Y593900D01*
X685000Y599900D01*
X698500Y599900D01*
X698500Y593900D01*
G37*
G54D24*
G36*
X796766Y631030D02*
X796766Y658030D01*
X803434Y658030D01*
X803434Y631030D01*
X796766Y631030D01*
G37*
G36*
X800100Y634364D02*
X814600Y634364D01*
X814600Y627696D01*
X800100Y627696D01*
X800100Y634364D01*
G37*
G36*
X803434Y631030D02*
X803434Y604030D01*
X796766Y604030D01*
X796766Y631030D01*
X803434Y631030D01*
G37*
G36*
X800100Y627696D02*
X785600Y627696D01*
X785600Y634364D01*
X800100Y634364D01*
X800100Y627696D01*
G37*
G54D25*
G36*
X688980Y851634D02*
X697480Y851634D01*
X697480Y848966D01*
X688980Y848966D01*
X688980Y851634D01*
G37*
G36*
X690314Y850300D02*
X690314Y835800D01*
X687646Y835800D01*
X687646Y850300D01*
X690314Y850300D01*
G37*
G36*
X688980Y848966D02*
X680480Y848966D01*
X680480Y851634D01*
X688980Y851634D01*
X688980Y848966D01*
G37*
G54D26*
G36*
X696284Y901700D02*
X696284Y914200D01*
X700616Y914200D01*
X700616Y901700D01*
X696284Y901700D01*
G37*
G36*
X698450Y903866D02*
X709450Y903866D01*
X709450Y899534D01*
X698450Y899534D01*
X698450Y903866D01*
G37*
G36*
X700616Y901700D02*
X700616Y889200D01*
X696284Y889200D01*
X696284Y901700D01*
X700616Y901700D01*
G37*
G54D26*
G36*
X971550Y747134D02*
X959050Y747134D01*
X959050Y751466D01*
X971550Y751466D01*
X971550Y747134D01*
G37*
G36*
X969384Y749300D02*
X969384Y760300D01*
X973716Y760300D01*
X973716Y749300D01*
X969384Y749300D01*
G37*
G36*
X971550Y751466D02*
X984050Y751466D01*
X984050Y747134D01*
X971550Y747134D01*
X971550Y751466D01*
G37*
G36*
X142000Y863725D02*
X133225Y854950D01*
X120775Y854950D01*
X112000Y863725D01*
X112000Y876175D01*
X120775Y884950D01*
X133225Y884950D01*
X142000Y876175D01*
X142000Y863725D01*
G37*
G36*
X91200Y863725D02*
X82425Y854950D01*
X69975Y854950D01*
X61200Y863725D01*
X61200Y876175D01*
X69975Y884950D01*
X82425Y884950D01*
X91200Y876175D01*
X91200Y863725D01*
G37*
X38100Y749300D02*
G54D27*
D03*
X38100Y774700D02*
G54D27*
D03*
X38100Y660400D02*
G54D27*
D03*
X38100Y685800D02*
G54D27*
D03*
G36*
X61200Y876175D02*
X69975Y884950D01*
X82425Y884950D01*
X91200Y876175D01*
X91200Y863725D01*
X82425Y854950D01*
X69975Y854950D01*
X61200Y863725D01*
X61200Y876175D01*
G37*
X38100Y774700D02*
G54D27*
D03*
X38100Y685800D02*
G54D27*
D03*
X209550Y787400D02*
G54D27*
D03*
G36*
X124385Y751950D02*
X129650Y746685D01*
X129650Y739215D01*
X124385Y733950D01*
X116915Y733950D01*
X111650Y739215D01*
X111650Y746685D01*
X116915Y751950D01*
X124385Y751950D01*
G37*
G36*
X124385Y726550D02*
X129650Y721285D01*
X129650Y713815D01*
X124385Y708550D01*
X116915Y708550D01*
X111650Y713815D01*
X111650Y721285D01*
X116915Y726550D01*
X124385Y726550D01*
G37*
G36*
X124385Y701150D02*
X129650Y695885D01*
X129650Y688415D01*
X124385Y683150D01*
X116915Y683150D01*
X111650Y688415D01*
X111650Y695885D01*
X116915Y701150D01*
X124385Y701150D01*
G37*
G36*
X124385Y726550D02*
X129650Y721285D01*
X129650Y713815D01*
X124385Y708550D01*
X116915Y708550D01*
X111650Y713815D01*
X111650Y721285D01*
X116915Y726550D01*
X124385Y726550D01*
G37*
X140891Y796925D02*
G54D28*
D03*
X88900Y796925D02*
G54D28*
D03*
G54D29*
X127000Y869950D02*
X127000Y844550D01*
X141288Y830262D01*
X141288Y797322D01*
X140891Y796925D01*
X279400Y787400D02*
G54D27*
D03*
X254397Y787400D02*
G54D27*
D03*
X234553Y787400D02*
G54D27*
D03*
X209550Y787400D02*
G54D27*
D03*
G36*
X330158Y806087D02*
X318458Y794387D01*
X301858Y794387D01*
X290158Y806087D01*
X290158Y822687D01*
X301858Y834387D01*
X318458Y834387D01*
X330158Y822687D01*
X330158Y806087D01*
G37*
G36*
X198594Y806087D02*
X186894Y794387D01*
X170294Y794387D01*
X158594Y806087D01*
X158594Y822687D01*
X170294Y834387D01*
X186894Y834387D01*
X198594Y822687D01*
X198594Y806087D01*
G37*
G54D29*
X38100Y660400D02*
X69850Y660400D01*
X88900Y679450D01*
X88900Y796925D01*
G54D29*
X38100Y749300D02*
X88900Y749300D01*
X19050Y876300D02*
G54D30*
D03*
X38050Y876300D02*
G54D30*
D03*
X19050Y901700D02*
G54D30*
D03*
X38050Y901700D02*
G54D30*
D03*
G54D31*
X19050Y876300D02*
X19050Y901700D01*
X28575Y815975D02*
G54D32*
D03*
X28575Y850305D02*
G54D32*
D03*
G54D29*
X34925Y815975D02*
X69850Y815975D01*
X85725Y800100D01*
G54D31*
X38050Y876300D02*
X38100Y876300D01*
X50800Y863600D01*
X50800Y815975D01*
X139700Y628650D02*
G54D33*
D03*
X139700Y574675D02*
G54D33*
D03*
X139700Y631031D02*
G54D34*
D03*
G36*
X129700Y594397D02*
X149700Y594397D01*
X149700Y549397D01*
X129700Y549397D01*
X129700Y594397D01*
G37*
X228600Y577850D02*
G54D27*
D03*
X254000Y577850D02*
G54D27*
D03*
X279400Y577850D02*
G54D27*
D03*
X304800Y577850D02*
G54D27*
D03*
X228600Y508000D02*
G54D27*
D03*
X254000Y508000D02*
G54D27*
D03*
X279400Y508000D02*
G54D27*
D03*
X304800Y508000D02*
G54D27*
D03*
X38100Y508000D02*
G54D27*
D03*
X63500Y508000D02*
G54D27*
D03*
X88900Y508000D02*
G54D27*
D03*
X114300Y508000D02*
G54D27*
D03*
X38100Y438150D02*
G54D27*
D03*
X63500Y438150D02*
G54D27*
D03*
X88900Y438150D02*
G54D27*
D03*
X114300Y438150D02*
G54D27*
D03*
X228600Y438150D02*
G54D27*
D03*
X254000Y438150D02*
G54D27*
D03*
X279400Y438150D02*
G54D27*
D03*
X304800Y438150D02*
G54D27*
D03*
X38100Y571500D02*
G54D27*
D03*
X38100Y596900D02*
G54D27*
D03*
X38100Y596900D02*
G54D27*
D03*
G36*
X295800Y447150D02*
X313800Y447150D01*
X313800Y429150D01*
X295800Y429150D01*
X295800Y447150D01*
G37*
G36*
X105300Y517000D02*
X123300Y517000D01*
X123300Y499000D01*
X105300Y499000D01*
X105300Y517000D01*
G37*
G36*
X105300Y447150D02*
X123300Y447150D01*
X123300Y429150D01*
X105300Y429150D01*
X105300Y447150D01*
G37*
G36*
X295800Y517000D02*
X313800Y517000D01*
X313800Y499000D01*
X295800Y499000D01*
X295800Y517000D01*
G37*
G36*
X295800Y586850D02*
X313800Y586850D01*
X313800Y568850D01*
X295800Y568850D01*
X295800Y586850D01*
G37*
G54D22*
X114300Y438150D02*
X114300Y419100D01*
X120650Y412750D01*
X298450Y412750D01*
X304800Y419100D01*
X304800Y438150D01*
G54D22*
X88900Y438150D02*
X88900Y457200D01*
X114300Y482600D01*
X114300Y508000D01*
G54D22*
X88900Y508000D02*
X88900Y520700D01*
X101600Y533400D01*
X266700Y533400D01*
X279400Y520700D01*
X279400Y508000D01*
G54D22*
X38100Y438150D02*
X38100Y457200D01*
X63500Y482600D01*
X63500Y508000D01*
X171450Y501650D02*
G54D35*
D03*
G54D29*
X120650Y692150D02*
X88900Y692150D01*
X260350Y635000D02*
G54D28*
D03*
X312341Y635000D02*
G54D28*
D03*
G54D29*
X38100Y571500D02*
X139700Y571500D01*
G54D29*
X139700Y571500D02*
X165100Y571500D01*
X228600Y635000D01*
X260350Y635000D01*
G36*
X303341Y653000D02*
X321341Y653000D01*
X321341Y617000D01*
X303341Y617000D01*
X303341Y653000D01*
G37*
G54D29*
X260350Y635000D02*
X279400Y654050D01*
X279400Y787400D01*
X139700Y631030D02*
G54D34*
D03*
X28580Y850300D02*
G54D32*
D03*
X38050Y901700D02*
G54D30*
D03*
X311150Y749300D02*
G54D36*
D03*
X311150Y730300D02*
G54D36*
D03*
X311150Y698500D02*
G54D36*
D03*
X311150Y679500D02*
G54D36*
D03*
X311150Y749300D02*
G54D36*
D03*
G54D31*
X311150Y698500D02*
X311150Y730300D01*
G54D31*
X311150Y679500D02*
X279450Y679500D01*
X279400Y679450D01*
G36*
X472200Y863725D02*
X463425Y854950D01*
X450975Y854950D01*
X442200Y863725D01*
X442200Y876175D01*
X450975Y884950D01*
X463425Y884950D01*
X472200Y876175D01*
X472200Y863725D01*
G37*
G36*
X421400Y863725D02*
X412625Y854950D01*
X400175Y854950D01*
X391400Y863725D01*
X391400Y876175D01*
X400175Y884950D01*
X412625Y884950D01*
X421400Y876175D01*
X421400Y863725D01*
G37*
X368300Y749300D02*
G54D27*
D03*
X368300Y774700D02*
G54D27*
D03*
X368300Y660400D02*
G54D27*
D03*
X368300Y685800D02*
G54D27*
D03*
G36*
X391400Y876175D02*
X400175Y884950D01*
X412625Y884950D01*
X421400Y876175D01*
X421400Y863725D01*
X412625Y854950D01*
X400175Y854950D01*
X391400Y863725D01*
X391400Y876175D01*
G37*
X368300Y774700D02*
G54D27*
D03*
X368300Y685800D02*
G54D27*
D03*
X539750Y787400D02*
G54D27*
D03*
G36*
X454585Y751950D02*
X459850Y746685D01*
X459850Y739215D01*
X454585Y733950D01*
X447115Y733950D01*
X441850Y739215D01*
X441850Y746685D01*
X447115Y751950D01*
X454585Y751950D01*
G37*
G36*
X454585Y726550D02*
X459850Y721285D01*
X459850Y713815D01*
X454585Y708550D01*
X447115Y708550D01*
X441850Y713815D01*
X441850Y721285D01*
X447115Y726550D01*
X454585Y726550D01*
G37*
G36*
X454585Y701150D02*
X459850Y695885D01*
X459850Y688415D01*
X454585Y683150D01*
X447115Y683150D01*
X441850Y688415D01*
X441850Y695885D01*
X447115Y701150D01*
X454585Y701150D01*
G37*
G36*
X454585Y726550D02*
X459850Y721285D01*
X459850Y713815D01*
X454585Y708550D01*
X447115Y708550D01*
X441850Y713815D01*
X441850Y721285D01*
X447115Y726550D01*
X454585Y726550D01*
G37*
X471091Y796925D02*
G54D28*
D03*
X419100Y796925D02*
G54D28*
D03*
G54D29*
X457200Y869950D02*
X457200Y844550D01*
X471488Y830262D01*
X471488Y797322D01*
X471091Y796925D01*
X609600Y787400D02*
G54D27*
D03*
X584597Y787400D02*
G54D27*
D03*
X564753Y787400D02*
G54D27*
D03*
X539750Y787400D02*
G54D27*
D03*
G36*
X660358Y806088D02*
X648658Y794388D01*
X632058Y794388D01*
X620358Y806088D01*
X620358Y822688D01*
X632058Y834388D01*
X648658Y834388D01*
X660358Y822688D01*
X660358Y806088D01*
G37*
G36*
X528794Y806087D02*
X517094Y794387D01*
X500494Y794387D01*
X488794Y806087D01*
X488794Y822687D01*
X500494Y834387D01*
X517094Y834387D01*
X528794Y822687D01*
X528794Y806087D01*
G37*
G54D29*
X368300Y660400D02*
X400050Y660400D01*
X419100Y679450D01*
X419100Y796925D01*
G54D29*
X368300Y749300D02*
X419100Y749300D01*
X349250Y876300D02*
G54D30*
D03*
X368250Y876300D02*
G54D30*
D03*
X349250Y901700D02*
G54D30*
D03*
X368250Y901700D02*
G54D30*
D03*
G54D31*
X349250Y876300D02*
X349250Y901700D01*
X358775Y815975D02*
G54D32*
D03*
X358775Y850305D02*
G54D32*
D03*
G54D29*
X365125Y815975D02*
X400050Y815975D01*
X415925Y800100D01*
G54D31*
X368250Y876300D02*
X368300Y876300D01*
X381000Y863600D01*
X381000Y815975D01*
X469900Y628650D02*
G54D33*
D03*
X469900Y574675D02*
G54D33*
D03*
X469900Y631031D02*
G54D34*
D03*
G36*
X459900Y594397D02*
X479900Y594397D01*
X479900Y549397D01*
X459900Y549397D01*
X459900Y594397D01*
G37*
X558800Y577850D02*
G54D27*
D03*
X584200Y577850D02*
G54D27*
D03*
X609600Y577850D02*
G54D27*
D03*
X635000Y577850D02*
G54D27*
D03*
X558800Y508000D02*
G54D27*
D03*
X584200Y508000D02*
G54D27*
D03*
X609600Y508000D02*
G54D27*
D03*
X635000Y508000D02*
G54D27*
D03*
X368300Y508000D02*
G54D27*
D03*
X393700Y508000D02*
G54D27*
D03*
X419100Y508000D02*
G54D27*
D03*
X444500Y508000D02*
G54D27*
D03*
X368300Y438150D02*
G54D27*
D03*
X393700Y438150D02*
G54D27*
D03*
X419100Y438150D02*
G54D27*
D03*
X444500Y438150D02*
G54D27*
D03*
X558800Y438150D02*
G54D27*
D03*
X584200Y438150D02*
G54D27*
D03*
X609600Y438150D02*
G54D27*
D03*
X635000Y438150D02*
G54D27*
D03*
X368300Y571500D02*
G54D27*
D03*
X368300Y596900D02*
G54D27*
D03*
X368300Y596900D02*
G54D27*
D03*
G36*
X626000Y447150D02*
X644000Y447150D01*
X644000Y429150D01*
X626000Y429150D01*
X626000Y447150D01*
G37*
G36*
X435500Y517000D02*
X453500Y517000D01*
X453500Y499000D01*
X435500Y499000D01*
X435500Y517000D01*
G37*
G36*
X435500Y447150D02*
X453500Y447150D01*
X453500Y429150D01*
X435500Y429150D01*
X435500Y447150D01*
G37*
G36*
X626000Y517000D02*
X644000Y517000D01*
X644000Y499000D01*
X626000Y499000D01*
X626000Y517000D01*
G37*
G36*
X626000Y586850D02*
X644000Y586850D01*
X644000Y568850D01*
X626000Y568850D01*
X626000Y586850D01*
G37*
G54D22*
X444500Y438150D02*
X444500Y419100D01*
X450850Y412750D01*
X628650Y412750D01*
X635000Y419100D01*
X635000Y438150D01*
G54D22*
X419100Y438150D02*
X419100Y457200D01*
X444500Y482600D01*
X444500Y508000D01*
G54D22*
X419100Y508000D02*
X419100Y520700D01*
X431800Y533400D01*
X596900Y533400D01*
X609600Y520700D01*
X609600Y508000D01*
G54D22*
X368300Y438150D02*
X368300Y457200D01*
X393700Y482600D01*
X393700Y508000D01*
X501650Y501650D02*
G54D35*
D03*
G54D29*
X450850Y692150D02*
X419100Y692150D01*
X590550Y635000D02*
G54D28*
D03*
X642541Y635000D02*
G54D28*
D03*
G54D29*
X368300Y571500D02*
X469900Y571500D01*
G54D29*
X469900Y571500D02*
X495300Y571500D01*
X558800Y635000D01*
X590550Y635000D01*
G36*
X633541Y653000D02*
X651541Y653000D01*
X651541Y617000D01*
X633541Y617000D01*
X633541Y653000D01*
G37*
G54D29*
X590550Y635000D02*
X609600Y654050D01*
X609600Y787400D01*
X469900Y631030D02*
G54D34*
D03*
X358780Y850300D02*
G54D32*
D03*
X368250Y901700D02*
G54D30*
D03*
X641350Y749300D02*
G54D36*
D03*
X641350Y730300D02*
G54D36*
D03*
X641350Y698500D02*
G54D36*
D03*
X641350Y679500D02*
G54D36*
D03*
X641350Y749300D02*
G54D36*
D03*
G54D31*
X641350Y698500D02*
X641350Y730300D01*
G54D31*
X641350Y679500D02*
X609650Y679500D01*
X609600Y679450D01*
G36*
X802400Y863725D02*
X793625Y854950D01*
X781175Y854950D01*
X772400Y863725D01*
X772400Y876175D01*
X781175Y884950D01*
X793625Y884950D01*
X802400Y876175D01*
X802400Y863725D01*
G37*
G36*
X751600Y863725D02*
X742825Y854950D01*
X730375Y854950D01*
X721600Y863725D01*
X721600Y876175D01*
X730375Y884950D01*
X742825Y884950D01*
X751600Y876175D01*
X751600Y863725D01*
G37*
X698500Y749300D02*
G54D27*
D03*
X698500Y774700D02*
G54D27*
D03*
X698500Y660400D02*
G54D27*
D03*
X698500Y685800D02*
G54D27*
D03*
G36*
X721600Y876175D02*
X730375Y884950D01*
X742825Y884950D01*
X751600Y876175D01*
X751600Y863725D01*
X742825Y854950D01*
X730375Y854950D01*
X721600Y863725D01*
X721600Y876175D01*
G37*
X698500Y774700D02*
G54D27*
D03*
X698500Y685800D02*
G54D27*
D03*
X869950Y787400D02*
G54D27*
D03*
G36*
X784785Y751950D02*
X790050Y746685D01*
X790050Y739215D01*
X784785Y733950D01*
X777315Y733950D01*
X772050Y739215D01*
X772050Y746685D01*
X777315Y751950D01*
X784785Y751950D01*
G37*
G36*
X784785Y726550D02*
X790050Y721285D01*
X790050Y713815D01*
X784785Y708550D01*
X777315Y708550D01*
X772050Y713815D01*
X772050Y721285D01*
X777315Y726550D01*
X784785Y726550D01*
G37*
G36*
X784785Y701150D02*
X790050Y695885D01*
X790050Y688415D01*
X784785Y683150D01*
X777315Y683150D01*
X772050Y688415D01*
X772050Y695885D01*
X777315Y701150D01*
X784785Y701150D01*
G37*
G36*
X784785Y726550D02*
X790050Y721285D01*
X790050Y713815D01*
X784785Y708550D01*
X777315Y708550D01*
X772050Y713815D01*
X772050Y721285D01*
X777315Y726550D01*
X784785Y726550D01*
G37*
X801291Y796925D02*
G54D28*
D03*
X749300Y796925D02*
G54D28*
D03*
G54D29*
X787400Y869950D02*
X787400Y844550D01*
X801688Y830262D01*
X801688Y797322D01*
X801291Y796925D01*
X939800Y787400D02*
G54D27*
D03*
X914797Y787400D02*
G54D27*
D03*
X894953Y787400D02*
G54D27*
D03*
X869950Y787400D02*
G54D27*
D03*
G36*
X990558Y806088D02*
X978858Y794388D01*
X962258Y794388D01*
X950558Y806088D01*
X950558Y822688D01*
X962258Y834388D01*
X978858Y834388D01*
X990558Y822688D01*
X990558Y806088D01*
G37*
G36*
X858994Y806087D02*
X847294Y794387D01*
X830694Y794387D01*
X818994Y806087D01*
X818994Y822687D01*
X830694Y834387D01*
X847294Y834387D01*
X858994Y822687D01*
X858994Y806087D01*
G37*
G54D29*
X698500Y660400D02*
X730250Y660400D01*
X749300Y679450D01*
X749300Y796925D01*
G54D29*
X698500Y749300D02*
X749300Y749300D01*
X679450Y876300D02*
G54D30*
D03*
X698450Y876300D02*
G54D30*
D03*
X679450Y901700D02*
G54D30*
D03*
X698450Y901700D02*
G54D30*
D03*
G54D31*
X679450Y876300D02*
X679450Y901700D01*
X688975Y815975D02*
G54D32*
D03*
X688975Y850305D02*
G54D32*
D03*
G54D29*
X695325Y815975D02*
X730250Y815975D01*
X746125Y800100D01*
G54D31*
X698450Y876300D02*
X698500Y876300D01*
X711200Y863600D01*
X711200Y815975D01*
X800100Y628650D02*
G54D33*
D03*
X800100Y574675D02*
G54D33*
D03*
X800100Y631031D02*
G54D34*
D03*
G36*
X790100Y594397D02*
X810100Y594397D01*
X810100Y549397D01*
X790100Y549397D01*
X790100Y594397D01*
G37*
X889000Y577850D02*
G54D27*
D03*
X914400Y577850D02*
G54D27*
D03*
X939800Y577850D02*
G54D27*
D03*
X965200Y577850D02*
G54D27*
D03*
X889000Y508000D02*
G54D27*
D03*
X914400Y508000D02*
G54D27*
D03*
X939800Y508000D02*
G54D27*
D03*
X965200Y508000D02*
G54D27*
D03*
X698500Y508000D02*
G54D27*
D03*
X723900Y508000D02*
G54D27*
D03*
X749300Y508000D02*
G54D27*
D03*
X774700Y508000D02*
G54D27*
D03*
X698500Y438150D02*
G54D27*
D03*
X723900Y438150D02*
G54D27*
D03*
X749300Y438150D02*
G54D27*
D03*
X774700Y438150D02*
G54D27*
D03*
X889000Y438150D02*
G54D27*
D03*
X914400Y438150D02*
G54D27*
D03*
X939800Y438150D02*
G54D27*
D03*
X965200Y438150D02*
G54D27*
D03*
X698500Y571500D02*
G54D27*
D03*
X698500Y596900D02*
G54D27*
D03*
X698500Y596900D02*
G54D27*
D03*
G36*
X956200Y447150D02*
X974200Y447150D01*
X974200Y429150D01*
X956200Y429150D01*
X956200Y447150D01*
G37*
G36*
X765700Y517000D02*
X783700Y517000D01*
X783700Y499000D01*
X765700Y499000D01*
X765700Y517000D01*
G37*
G36*
X765700Y447150D02*
X783700Y447150D01*
X783700Y429150D01*
X765700Y429150D01*
X765700Y447150D01*
G37*
G36*
X956200Y517000D02*
X974200Y517000D01*
X974200Y499000D01*
X956200Y499000D01*
X956200Y517000D01*
G37*
G36*
X956200Y586850D02*
X974200Y586850D01*
X974200Y568850D01*
X956200Y568850D01*
X956200Y586850D01*
G37*
G54D22*
X774700Y438150D02*
X774700Y419100D01*
X781050Y412750D01*
X958850Y412750D01*
X965200Y419100D01*
X965200Y438150D01*
G54D22*
X749300Y438150D02*
X749300Y457200D01*
X774700Y482600D01*
X774700Y508000D01*
G54D22*
X749300Y508000D02*
X749300Y520700D01*
X762000Y533400D01*
X927100Y533400D01*
X939800Y520700D01*
X939800Y508000D01*
G54D22*
X698500Y438150D02*
X698500Y457200D01*
X723900Y482600D01*
X723900Y508000D01*
X831850Y501650D02*
G54D35*
D03*
G54D29*
X781050Y692150D02*
X749300Y692150D01*
X920750Y635000D02*
G54D28*
D03*
X972741Y635000D02*
G54D28*
D03*
G54D29*
X698500Y571500D02*
X800100Y571500D01*
G54D29*
X800100Y571500D02*
X825500Y571500D01*
X889000Y635000D01*
X920750Y635000D01*
G36*
X963741Y653000D02*
X981741Y653000D01*
X981741Y617000D01*
X963741Y617000D01*
X963741Y653000D01*
G37*
G54D29*
X920750Y635000D02*
X939800Y654050D01*
X939800Y787400D01*
X800100Y631030D02*
G54D34*
D03*
X688980Y850300D02*
G54D32*
D03*
X698450Y901700D02*
G54D30*
D03*
X971550Y749300D02*
G54D36*
D03*
X971550Y730300D02*
G54D36*
D03*
X971550Y698500D02*
G54D36*
D03*
X971550Y679500D02*
G54D36*
D03*
X971550Y749300D02*
G54D36*
D03*
G54D31*
X971550Y698500D02*
X971550Y730300D01*
G54D31*
X971550Y679500D02*
X939850Y679500D01*
X939800Y679450D01*
M02*
