%FSLAX34Y34*%
%MOMM*%
%LNSOLDERMASK_TOP*%
G71*
G01*
%ADD10C, 2.40*%
%ADD11R, 1.98X3.35*%
%ADD12R, 1.50X1.80*%
%ADD13R, 1.00X2.20*%
%ADD14R, 2.20X4.20*%
%ADD15R, 2.20X4.70*%
%ADD16C, 3.60*%
%ADD17R, 1.80X1.50*%
%LPD*%
G36*
X145000Y862480D02*
X134470Y851950D01*
X119530Y851950D01*
X109000Y862480D01*
X109000Y877420D01*
X119530Y887950D01*
X134470Y887950D01*
X145000Y877420D01*
X145000Y862480D01*
G37*
G36*
X94200Y862480D02*
X83670Y851950D01*
X68730Y851950D01*
X58200Y862480D01*
X58200Y877420D01*
X68730Y887950D01*
X83670Y887950D01*
X94200Y877420D01*
X94200Y862480D01*
G37*
X38100Y749300D02*
G54D10*
D03*
X38100Y774700D02*
G54D10*
D03*
X38100Y660400D02*
G54D10*
D03*
X38100Y685800D02*
G54D10*
D03*
G36*
X58200Y877420D02*
X68730Y887950D01*
X83670Y887950D01*
X94200Y877420D01*
X94200Y862480D01*
X83670Y851950D01*
X68730Y851950D01*
X58200Y862480D01*
X58200Y877420D01*
G37*
X38100Y774700D02*
G54D10*
D03*
X38100Y685800D02*
G54D10*
D03*
X209550Y787400D02*
G54D10*
D03*
G36*
X125630Y754950D02*
X132650Y747930D01*
X132650Y737970D01*
X125630Y730950D01*
X115670Y730950D01*
X108650Y737970D01*
X108650Y747930D01*
X115670Y754950D01*
X125630Y754950D01*
G37*
G36*
X125630Y729550D02*
X132650Y722530D01*
X132650Y712570D01*
X125630Y705550D01*
X115670Y705550D01*
X108650Y712570D01*
X108650Y722530D01*
X115670Y729550D01*
X125630Y729550D01*
G37*
G36*
X125630Y704150D02*
X132650Y697130D01*
X132650Y687170D01*
X125630Y680150D01*
X115670Y680150D01*
X108650Y687170D01*
X108650Y697130D01*
X115670Y704150D01*
X125630Y704150D01*
G37*
G36*
X125630Y729550D02*
X132650Y722530D01*
X132650Y712570D01*
X125630Y705550D01*
X115670Y705550D01*
X108650Y712570D01*
X108650Y722530D01*
X115670Y729550D01*
X125630Y729550D01*
G37*
X140891Y796925D02*
G54D11*
D03*
X88900Y796925D02*
G54D11*
D03*
X279400Y787400D02*
G54D10*
D03*
X254397Y787400D02*
G54D10*
D03*
X234553Y787400D02*
G54D10*
D03*
X209550Y787400D02*
G54D10*
D03*
G36*
X333158Y804842D02*
X319703Y791387D01*
X300613Y791387D01*
X287158Y804842D01*
X287158Y823932D01*
X300613Y837387D01*
X319703Y837387D01*
X333158Y823932D01*
X333158Y804842D01*
G37*
G36*
X201594Y804842D02*
X188139Y791387D01*
X169049Y791387D01*
X155594Y804842D01*
X155594Y823932D01*
X169049Y837387D01*
X188139Y837387D01*
X201594Y823932D01*
X201594Y804842D01*
G37*
X19050Y876300D02*
G54D12*
D03*
X38050Y876300D02*
G54D12*
D03*
X19050Y901700D02*
G54D12*
D03*
X38050Y901700D02*
G54D12*
D03*
X28575Y815975D02*
G54D13*
D03*
X28575Y850305D02*
G54D13*
D03*
X139700Y628650D02*
G54D14*
D03*
X139700Y574675D02*
G54D14*
D03*
X139700Y631031D02*
G54D15*
D03*
G36*
X128700Y595397D02*
X150700Y595397D01*
X150700Y548397D01*
X128700Y548397D01*
X128700Y595397D01*
G37*
X228600Y577850D02*
G54D10*
D03*
X254000Y577850D02*
G54D10*
D03*
X279400Y577850D02*
G54D10*
D03*
X304800Y577850D02*
G54D10*
D03*
X228600Y508000D02*
G54D10*
D03*
X254000Y508000D02*
G54D10*
D03*
X279400Y508000D02*
G54D10*
D03*
X304800Y508000D02*
G54D10*
D03*
X38100Y508000D02*
G54D10*
D03*
X63500Y508000D02*
G54D10*
D03*
X88900Y508000D02*
G54D10*
D03*
X114300Y508000D02*
G54D10*
D03*
X38100Y438150D02*
G54D10*
D03*
X63500Y438150D02*
G54D10*
D03*
X88900Y438150D02*
G54D10*
D03*
X114300Y438150D02*
G54D10*
D03*
X228600Y438150D02*
G54D10*
D03*
X254000Y438150D02*
G54D10*
D03*
X279400Y438150D02*
G54D10*
D03*
X304800Y438150D02*
G54D10*
D03*
X38100Y571500D02*
G54D10*
D03*
X38100Y596900D02*
G54D10*
D03*
X38100Y596900D02*
G54D10*
D03*
G36*
X292800Y450150D02*
X316800Y450150D01*
X316800Y426150D01*
X292800Y426150D01*
X292800Y450150D01*
G37*
G36*
X102300Y520000D02*
X126300Y520000D01*
X126300Y496000D01*
X102300Y496000D01*
X102300Y520000D01*
G37*
G36*
X102300Y450150D02*
X126300Y450150D01*
X126300Y426150D01*
X102300Y426150D01*
X102300Y450150D01*
G37*
G36*
X292800Y520000D02*
X316800Y520000D01*
X316800Y496000D01*
X292800Y496000D01*
X292800Y520000D01*
G37*
G36*
X292800Y589850D02*
X316800Y589850D01*
X316800Y565850D01*
X292800Y565850D01*
X292800Y589850D01*
G37*
X171450Y501650D02*
G54D16*
D03*
X260350Y635000D02*
G54D11*
D03*
X312341Y635000D02*
G54D11*
D03*
G36*
X300341Y656000D02*
X324341Y656000D01*
X324341Y614000D01*
X300341Y614000D01*
X300341Y656000D01*
G37*
X139700Y631030D02*
G54D15*
D03*
X28580Y850300D02*
G54D13*
D03*
X38050Y901700D02*
G54D12*
D03*
X311150Y749300D02*
G54D17*
D03*
X311150Y730300D02*
G54D17*
D03*
X311150Y698500D02*
G54D17*
D03*
X311150Y679500D02*
G54D17*
D03*
X311150Y749300D02*
G54D17*
D03*
G36*
X475200Y862480D02*
X464670Y851950D01*
X449730Y851950D01*
X439200Y862480D01*
X439200Y877420D01*
X449730Y887950D01*
X464670Y887950D01*
X475200Y877420D01*
X475200Y862480D01*
G37*
G36*
X424400Y862480D02*
X413870Y851950D01*
X398930Y851950D01*
X388400Y862480D01*
X388400Y877420D01*
X398930Y887950D01*
X413870Y887950D01*
X424400Y877420D01*
X424400Y862480D01*
G37*
X368300Y749300D02*
G54D10*
D03*
X368300Y774700D02*
G54D10*
D03*
X368300Y660400D02*
G54D10*
D03*
X368300Y685800D02*
G54D10*
D03*
G36*
X388400Y877420D02*
X398930Y887950D01*
X413870Y887950D01*
X424400Y877420D01*
X424400Y862480D01*
X413870Y851950D01*
X398930Y851950D01*
X388400Y862480D01*
X388400Y877420D01*
G37*
X368300Y774700D02*
G54D10*
D03*
X368300Y685800D02*
G54D10*
D03*
X539750Y787400D02*
G54D10*
D03*
G36*
X455830Y754950D02*
X462850Y747930D01*
X462850Y737970D01*
X455830Y730950D01*
X445870Y730950D01*
X438850Y737970D01*
X438850Y747930D01*
X445870Y754950D01*
X455830Y754950D01*
G37*
G36*
X455830Y729550D02*
X462850Y722530D01*
X462850Y712570D01*
X455830Y705550D01*
X445870Y705550D01*
X438850Y712570D01*
X438850Y722530D01*
X445870Y729550D01*
X455830Y729550D01*
G37*
G36*
X455830Y704150D02*
X462850Y697130D01*
X462850Y687170D01*
X455830Y680150D01*
X445870Y680150D01*
X438850Y687170D01*
X438850Y697130D01*
X445870Y704150D01*
X455830Y704150D01*
G37*
G36*
X455830Y729550D02*
X462850Y722530D01*
X462850Y712570D01*
X455830Y705550D01*
X445870Y705550D01*
X438850Y712570D01*
X438850Y722530D01*
X445870Y729550D01*
X455830Y729550D01*
G37*
X471091Y796925D02*
G54D11*
D03*
X419100Y796925D02*
G54D11*
D03*
X609600Y787400D02*
G54D10*
D03*
X584597Y787400D02*
G54D10*
D03*
X564753Y787400D02*
G54D10*
D03*
X539750Y787400D02*
G54D10*
D03*
G36*
X663358Y804842D02*
X649903Y791388D01*
X630813Y791388D01*
X617358Y804842D01*
X617358Y823932D01*
X630813Y837388D01*
X649903Y837388D01*
X663358Y823932D01*
X663358Y804842D01*
G37*
G36*
X531794Y804842D02*
X518339Y791387D01*
X499249Y791387D01*
X485794Y804842D01*
X485794Y823932D01*
X499249Y837387D01*
X518339Y837387D01*
X531794Y823932D01*
X531794Y804842D01*
G37*
X349250Y876300D02*
G54D12*
D03*
X368250Y876300D02*
G54D12*
D03*
X349250Y901700D02*
G54D12*
D03*
X368250Y901700D02*
G54D12*
D03*
X358775Y815975D02*
G54D13*
D03*
X358775Y850305D02*
G54D13*
D03*
X469900Y628650D02*
G54D14*
D03*
X469900Y574675D02*
G54D14*
D03*
X469900Y631031D02*
G54D15*
D03*
G36*
X458900Y595397D02*
X480900Y595397D01*
X480900Y548397D01*
X458900Y548397D01*
X458900Y595397D01*
G37*
X558800Y577850D02*
G54D10*
D03*
X584200Y577850D02*
G54D10*
D03*
X609600Y577850D02*
G54D10*
D03*
X635000Y577850D02*
G54D10*
D03*
X558800Y508000D02*
G54D10*
D03*
X584200Y508000D02*
G54D10*
D03*
X609600Y508000D02*
G54D10*
D03*
X635000Y508000D02*
G54D10*
D03*
X368300Y508000D02*
G54D10*
D03*
X393700Y508000D02*
G54D10*
D03*
X419100Y508000D02*
G54D10*
D03*
X444500Y508000D02*
G54D10*
D03*
X368300Y438150D02*
G54D10*
D03*
X393700Y438150D02*
G54D10*
D03*
X419100Y438150D02*
G54D10*
D03*
X444500Y438150D02*
G54D10*
D03*
X558800Y438150D02*
G54D10*
D03*
X584200Y438150D02*
G54D10*
D03*
X609600Y438150D02*
G54D10*
D03*
X635000Y438150D02*
G54D10*
D03*
X368300Y571500D02*
G54D10*
D03*
X368300Y596900D02*
G54D10*
D03*
X368300Y596900D02*
G54D10*
D03*
G36*
X623000Y450150D02*
X647000Y450150D01*
X647000Y426150D01*
X623000Y426150D01*
X623000Y450150D01*
G37*
G36*
X432500Y520000D02*
X456500Y520000D01*
X456500Y496000D01*
X432500Y496000D01*
X432500Y520000D01*
G37*
G36*
X432500Y450150D02*
X456500Y450150D01*
X456500Y426150D01*
X432500Y426150D01*
X432500Y450150D01*
G37*
G36*
X623000Y520000D02*
X647000Y520000D01*
X647000Y496000D01*
X623000Y496000D01*
X623000Y520000D01*
G37*
G36*
X623000Y589850D02*
X647000Y589850D01*
X647000Y565850D01*
X623000Y565850D01*
X623000Y589850D01*
G37*
X501650Y501650D02*
G54D16*
D03*
X590550Y635000D02*
G54D11*
D03*
X642541Y635000D02*
G54D11*
D03*
G36*
X630541Y656000D02*
X654541Y656000D01*
X654541Y614000D01*
X630541Y614000D01*
X630541Y656000D01*
G37*
X469900Y631030D02*
G54D15*
D03*
X358780Y850300D02*
G54D13*
D03*
X368250Y901700D02*
G54D12*
D03*
X641350Y749300D02*
G54D17*
D03*
X641350Y730300D02*
G54D17*
D03*
X641350Y698500D02*
G54D17*
D03*
X641350Y679500D02*
G54D17*
D03*
X641350Y749300D02*
G54D17*
D03*
G36*
X805400Y862480D02*
X794870Y851950D01*
X779930Y851950D01*
X769400Y862480D01*
X769400Y877420D01*
X779930Y887950D01*
X794870Y887950D01*
X805400Y877420D01*
X805400Y862480D01*
G37*
G36*
X754600Y862480D02*
X744070Y851950D01*
X729130Y851950D01*
X718600Y862480D01*
X718600Y877420D01*
X729130Y887950D01*
X744070Y887950D01*
X754600Y877420D01*
X754600Y862480D01*
G37*
X698500Y749300D02*
G54D10*
D03*
X698500Y774700D02*
G54D10*
D03*
X698500Y660400D02*
G54D10*
D03*
X698500Y685800D02*
G54D10*
D03*
G36*
X718600Y877420D02*
X729130Y887950D01*
X744070Y887950D01*
X754600Y877420D01*
X754600Y862480D01*
X744070Y851950D01*
X729130Y851950D01*
X718600Y862480D01*
X718600Y877420D01*
G37*
X698500Y774700D02*
G54D10*
D03*
X698500Y685800D02*
G54D10*
D03*
X869950Y787400D02*
G54D10*
D03*
G36*
X786030Y754950D02*
X793050Y747930D01*
X793050Y737970D01*
X786030Y730950D01*
X776070Y730950D01*
X769050Y737970D01*
X769050Y747930D01*
X776070Y754950D01*
X786030Y754950D01*
G37*
G36*
X786030Y729550D02*
X793050Y722530D01*
X793050Y712570D01*
X786030Y705550D01*
X776070Y705550D01*
X769050Y712570D01*
X769050Y722530D01*
X776070Y729550D01*
X786030Y729550D01*
G37*
G36*
X786030Y704150D02*
X793050Y697130D01*
X793050Y687170D01*
X786030Y680150D01*
X776070Y680150D01*
X769050Y687170D01*
X769050Y697130D01*
X776070Y704150D01*
X786030Y704150D01*
G37*
G36*
X786030Y729550D02*
X793050Y722530D01*
X793050Y712570D01*
X786030Y705550D01*
X776070Y705550D01*
X769050Y712570D01*
X769050Y722530D01*
X776070Y729550D01*
X786030Y729550D01*
G37*
X801291Y796925D02*
G54D11*
D03*
X749300Y796925D02*
G54D11*
D03*
X939800Y787400D02*
G54D10*
D03*
X914797Y787400D02*
G54D10*
D03*
X894953Y787400D02*
G54D10*
D03*
X869950Y787400D02*
G54D10*
D03*
G36*
X993558Y804842D02*
X980103Y791388D01*
X961013Y791388D01*
X947558Y804842D01*
X947558Y823932D01*
X961013Y837388D01*
X980103Y837388D01*
X993558Y823932D01*
X993558Y804842D01*
G37*
G36*
X861994Y804842D02*
X848539Y791387D01*
X829449Y791387D01*
X815994Y804842D01*
X815994Y823932D01*
X829449Y837387D01*
X848539Y837387D01*
X861994Y823932D01*
X861994Y804842D01*
G37*
X679450Y876300D02*
G54D12*
D03*
X698450Y876300D02*
G54D12*
D03*
X679450Y901700D02*
G54D12*
D03*
X698450Y901700D02*
G54D12*
D03*
X688975Y815975D02*
G54D13*
D03*
X688975Y850305D02*
G54D13*
D03*
X800100Y628650D02*
G54D14*
D03*
X800100Y574675D02*
G54D14*
D03*
X800100Y631031D02*
G54D15*
D03*
G36*
X789100Y595397D02*
X811100Y595397D01*
X811100Y548397D01*
X789100Y548397D01*
X789100Y595397D01*
G37*
X889000Y577850D02*
G54D10*
D03*
X914400Y577850D02*
G54D10*
D03*
X939800Y577850D02*
G54D10*
D03*
X965200Y577850D02*
G54D10*
D03*
X889000Y508000D02*
G54D10*
D03*
X914400Y508000D02*
G54D10*
D03*
X939800Y508000D02*
G54D10*
D03*
X965200Y508000D02*
G54D10*
D03*
X698500Y508000D02*
G54D10*
D03*
X723900Y508000D02*
G54D10*
D03*
X749300Y508000D02*
G54D10*
D03*
X774700Y508000D02*
G54D10*
D03*
X698500Y438150D02*
G54D10*
D03*
X723900Y438150D02*
G54D10*
D03*
X749300Y438150D02*
G54D10*
D03*
X774700Y438150D02*
G54D10*
D03*
X889000Y438150D02*
G54D10*
D03*
X914400Y438150D02*
G54D10*
D03*
X939800Y438150D02*
G54D10*
D03*
X965200Y438150D02*
G54D10*
D03*
X698500Y571500D02*
G54D10*
D03*
X698500Y596900D02*
G54D10*
D03*
X698500Y596900D02*
G54D10*
D03*
G36*
X953200Y450150D02*
X977200Y450150D01*
X977200Y426150D01*
X953200Y426150D01*
X953200Y450150D01*
G37*
G36*
X762700Y520000D02*
X786700Y520000D01*
X786700Y496000D01*
X762700Y496000D01*
X762700Y520000D01*
G37*
G36*
X762700Y450150D02*
X786700Y450150D01*
X786700Y426150D01*
X762700Y426150D01*
X762700Y450150D01*
G37*
G36*
X953200Y520000D02*
X977200Y520000D01*
X977200Y496000D01*
X953200Y496000D01*
X953200Y520000D01*
G37*
G36*
X953200Y589850D02*
X977200Y589850D01*
X977200Y565850D01*
X953200Y565850D01*
X953200Y589850D01*
G37*
X831850Y501650D02*
G54D16*
D03*
X920750Y635000D02*
G54D11*
D03*
X972741Y635000D02*
G54D11*
D03*
G36*
X960741Y656000D02*
X984741Y656000D01*
X984741Y614000D01*
X960741Y614000D01*
X960741Y656000D01*
G37*
X800100Y631030D02*
G54D15*
D03*
X688980Y850300D02*
G54D13*
D03*
X698450Y901700D02*
G54D12*
D03*
X971550Y749300D02*
G54D17*
D03*
X971550Y730300D02*
G54D17*
D03*
X971550Y698500D02*
G54D17*
D03*
X971550Y679500D02*
G54D17*
D03*
X971550Y749300D02*
G54D17*
D03*
M02*
