%FSLAX34Y34*%
%MOMM*%
%LNCOPPER_BOTTOM*%
G71*
G01*
%ADD10C, 0.11*%
%ADD11C, 0.10*%
%ADD12C, 0.15*%
%LPD*%
G54D10*
X81578Y775967D02*
X81578Y770634D01*
G54D10*
X77689Y762857D02*
X77689Y768190D01*
X78244Y768190D01*
X79355Y767524D01*
X82689Y763524D01*
X83800Y762857D01*
X84911Y762857D01*
X86022Y763524D01*
X86578Y764857D01*
X86578Y766190D01*
X86022Y767524D01*
X84911Y768190D01*
G54D10*
X77689Y756413D02*
X86578Y756413D01*
X81022Y760413D01*
X79911Y760413D01*
X79911Y755080D01*
G54D10*
X86578Y752636D02*
X77689Y749303D01*
X86578Y745970D01*
G54D10*
X81578Y743525D02*
X81578Y738192D01*
G54D10*
X83800Y740859D02*
X79355Y740859D01*
G54D11*
X152400Y857250D02*
X152400Y908050D01*
X50800Y908050D01*
X50800Y857250D01*
G54D11*
X152400Y857250D02*
X152400Y819150D01*
X50800Y819150D01*
X50800Y857250D01*
G54D11*
X139700Y908050D02*
X139700Y895350D01*
X114300Y895350D01*
X114300Y908050D01*
G54D11*
X88900Y908050D02*
X88900Y895350D01*
X63500Y895350D01*
X63500Y908050D01*
G54D11*
X12700Y723900D02*
X73025Y723900D01*
G54D11*
X12700Y800100D02*
X73025Y800100D01*
X73025Y723900D01*
G54D11*
X12700Y723900D02*
X12700Y800100D01*
G54D11*
X12700Y749300D02*
X19050Y749300D01*
X19050Y774700D01*
X12700Y774700D01*
G54D11*
X12700Y635000D02*
X73025Y635000D01*
G54D11*
X12700Y711200D02*
X73025Y711200D01*
X73025Y635000D01*
G54D11*
X12700Y635000D02*
X12700Y711200D01*
G54D11*
X12700Y660400D02*
X19050Y660400D01*
X19050Y685800D01*
X12700Y685800D01*
G54D11*
X107950Y769938D02*
X107950Y665163D01*
X273050Y665163D01*
X273050Y769938D01*
X107950Y769938D01*
G54D11*
X107950Y755650D02*
X133350Y755650D01*
X133350Y679450D01*
X107950Y679450D01*
G54D10*
X159622Y737617D02*
X154067Y737617D01*
X152956Y738283D01*
X152400Y739617D01*
X152400Y740950D01*
X152956Y742283D01*
X154067Y742950D01*
X159622Y742950D01*
X160734Y742283D01*
X161289Y740950D01*
X161289Y739617D01*
X160733Y738283D01*
X159622Y737617D01*
G54D10*
X152400Y735173D02*
X161289Y735173D01*
G54D10*
X155178Y735173D02*
X161289Y729840D01*
G54D10*
X156845Y733173D02*
X152400Y729840D01*
G54D10*
X152400Y727396D02*
X161289Y727396D01*
G54D10*
X156289Y724952D02*
X156289Y719619D01*
G54D10*
X161289Y717175D02*
X161289Y711842D01*
X160178Y712508D01*
X158511Y713842D01*
X156289Y715175D01*
X154622Y715842D01*
X152400Y715842D01*
G54D10*
X156845Y706065D02*
X156845Y707398D01*
X157400Y708731D01*
X158511Y709398D01*
X159622Y709398D01*
X160734Y708731D01*
X161289Y707398D01*
X161289Y706065D01*
X160733Y704731D01*
X159622Y704065D01*
X158511Y704065D01*
X157400Y704731D01*
X156845Y706065D01*
X156289Y704731D01*
X155178Y704065D01*
X154067Y704065D01*
X152956Y704731D01*
X152400Y706065D01*
X152400Y707398D01*
X152956Y708731D01*
X154067Y709398D01*
X155178Y709398D01*
X156289Y708731D01*
X156845Y707398D01*
G54D10*
X154067Y701621D02*
X152956Y700954D01*
X152400Y699621D01*
X152400Y698288D01*
X152956Y696954D01*
X154067Y696288D01*
X155178Y696288D01*
X156289Y696954D01*
X156845Y698288D01*
X156845Y699621D01*
X157400Y700954D01*
X158511Y701621D01*
X159622Y701621D01*
X160733Y700954D01*
X161289Y699621D01*
X161289Y698288D01*
X160734Y696954D01*
X159622Y696288D01*
G54D10*
X156845Y691177D02*
X155733Y689177D01*
X154622Y688511D01*
X152400Y688511D01*
G54D10*
X152400Y693844D02*
X161289Y693844D01*
X161289Y690511D01*
X160733Y689177D01*
X159622Y688511D01*
X158511Y688511D01*
X157400Y689177D01*
X156845Y690511D01*
X156845Y693844D01*
G54D10*
X146922Y738014D02*
X141367Y738014D01*
X140256Y738680D01*
X139700Y740014D01*
X139700Y741347D01*
X140256Y742680D01*
X141367Y743347D01*
X146922Y743347D01*
X148034Y742680D01*
X148589Y741347D01*
X148589Y740014D01*
X148034Y738680D01*
X146922Y738014D01*
G54D10*
X144145Y714883D02*
X144145Y712217D01*
X141367Y712217D01*
X140256Y712883D01*
X139700Y714217D01*
X139700Y715550D01*
X140256Y716883D01*
X141367Y717550D01*
X146922Y717550D01*
X148034Y716883D01*
X148589Y715550D01*
X148589Y714217D01*
X148034Y712883D01*
X146922Y712217D01*
G54D10*
X139700Y692150D02*
X148589Y692150D01*
G54D11*
X78184Y813594D02*
X151209Y813594D01*
X151209Y780256D01*
X78184Y780256D01*
X78184Y813594D01*
G54D11*
X310158Y789781D02*
X310158Y777280D01*
X178594Y777280D01*
X178594Y789781D01*
G54D11*
X310158Y838994D02*
X310158Y917178D01*
X178594Y917178D01*
X178594Y838994D01*
G54D10*
X275274Y802481D02*
X284162Y805814D01*
X275274Y809148D01*
G54D10*
X282496Y816926D02*
X283607Y816259D01*
X284162Y814926D01*
X284162Y813592D01*
X283607Y812259D01*
X282496Y811592D01*
X276940Y811592D01*
X275829Y812259D01*
X275274Y813592D01*
X275274Y814926D01*
X275829Y816259D01*
X276940Y816926D01*
G54D10*
X282496Y824703D02*
X283607Y824036D01*
X284162Y822703D01*
X284162Y821369D01*
X283607Y820036D01*
X282496Y819369D01*
X276940Y819369D01*
X275829Y820036D01*
X275274Y821369D01*
X275274Y822703D01*
X275829Y824036D01*
X276940Y824703D01*
G54D10*
X258762Y802481D02*
X249874Y802481D01*
X249874Y805814D01*
X250429Y807148D01*
X251540Y807815D01*
X257096Y807815D01*
X258207Y807148D01*
X258762Y805815D01*
X258762Y802481D01*
G54D10*
X254874Y810258D02*
X254874Y815592D01*
G54D10*
X239712Y802481D02*
X230824Y802481D01*
X230824Y805814D01*
X231379Y807148D01*
X232490Y807815D01*
X238046Y807815D01*
X239157Y807148D01*
X239712Y805814D01*
X239712Y802481D01*
G54D10*
X235824Y810258D02*
X235824Y815592D01*
G54D10*
X233602Y812925D02*
X238046Y812925D01*
G54D10*
X209868Y805148D02*
X209868Y807815D01*
X212646Y807815D01*
X213757Y807148D01*
X214312Y805815D01*
X214312Y804481D01*
X213757Y803148D01*
X212646Y802481D01*
X207090Y802481D01*
X205979Y803148D01*
X205424Y804481D01*
X205424Y805814D01*
X205979Y807148D01*
X207090Y807815D01*
G54D10*
X214312Y810258D02*
X205424Y810258D01*
X214312Y815592D01*
X205424Y815592D01*
G54D10*
X214312Y818035D02*
X205424Y818035D01*
X205424Y821369D01*
X205979Y822702D01*
X207090Y823369D01*
X212646Y823369D01*
X213757Y822702D01*
X214312Y821369D01*
X214312Y818035D01*
G54D10*
X81578Y699767D02*
X81578Y694434D01*
G54D10*
X77689Y686657D02*
X77689Y691990D01*
X78244Y691990D01*
X79355Y691324D01*
X82689Y687324D01*
X83800Y686657D01*
X84911Y686657D01*
X86022Y687324D01*
X86578Y688657D01*
X86578Y689990D01*
X86022Y691324D01*
X84911Y691990D01*
G54D10*
X77689Y680213D02*
X86578Y680213D01*
X81022Y684213D01*
X79911Y684213D01*
X79911Y678880D01*
G54D10*
X86578Y676436D02*
X77689Y673103D01*
X86578Y669770D01*
G54D10*
X81578Y667325D02*
X81578Y661992D01*
G54D10*
X83800Y664659D02*
X79355Y664659D01*
G54D12*
X9550Y865300D02*
X9550Y887300D01*
X47550Y887300D01*
X47550Y865300D01*
X9550Y865300D01*
G54D12*
X9550Y890700D02*
X9550Y912700D01*
X47550Y912700D01*
X47550Y890700D01*
X9550Y890700D01*
G54D11*
X50205Y811411D02*
X6945Y811411D01*
X6945Y854670D01*
X50205Y854670D01*
X50205Y811411D01*
G54D11*
G75*
G01X8605Y833258D02*
G03X8605Y833258I20000J0D01*
G01*
G54D10*
X21630Y823397D02*
X16296Y823397D01*
G54D10*
X18963Y821175D02*
X18963Y825619D01*
G54D10*
X21233Y843638D02*
X15900Y843638D01*
G54D11*
X181372Y643334D02*
X98028Y643334D01*
X98028Y559991D01*
X181372Y559991D01*
X181372Y643334D01*
G54D11*
G75*
G01X179700Y601662D02*
G03X179700Y601662I-40000J0D01*
G01*
G54D10*
X159544Y620236D02*
X164877Y620236D01*
G54D10*
X161925Y581342D02*
X167258Y581342D01*
G54D10*
X164592Y583564D02*
X164592Y579120D01*
G54D11*
X203200Y603250D02*
X203200Y542925D01*
G54D11*
X330200Y603250D02*
X330200Y542925D01*
X203200Y542925D01*
G54D11*
X203200Y603250D02*
X330200Y603250D01*
G54D11*
X228600Y603250D02*
X228600Y596900D01*
X304800Y596900D01*
X304800Y603250D01*
G54D11*
X203200Y533400D02*
X203200Y473075D01*
G54D11*
X330200Y533400D02*
X330200Y473075D01*
X203200Y473075D01*
G54D11*
X203200Y533400D02*
X330200Y533400D01*
G54D11*
X228600Y533400D02*
X228600Y527050D01*
X304800Y527050D01*
X304800Y533400D01*
G54D11*
X12700Y533400D02*
X12700Y473075D01*
G54D11*
X139700Y533400D02*
X139700Y473075D01*
X12700Y473075D01*
G54D11*
X12700Y533400D02*
X139700Y533400D01*
G54D11*
X38100Y533400D02*
X38100Y527050D01*
X114300Y527050D01*
X114300Y533400D01*
G54D11*
X12700Y463550D02*
X12700Y403225D01*
G54D11*
X139700Y463550D02*
X139700Y403225D01*
X12700Y403225D01*
G54D11*
X12700Y463550D02*
X139700Y463550D01*
G54D11*
X38100Y463550D02*
X38100Y457200D01*
X114300Y457200D01*
X114300Y463550D01*
G54D11*
X203200Y463550D02*
X203200Y403225D01*
G54D11*
X330200Y463550D02*
X330200Y403225D01*
X203200Y403225D01*
G54D11*
X203200Y463550D02*
X330200Y463550D01*
G54D11*
X228600Y463550D02*
X228600Y457200D01*
X304800Y457200D01*
X304800Y463550D01*
G54D11*
X12700Y546100D02*
X73025Y546100D01*
G54D11*
X12700Y622300D02*
X73025Y622300D01*
X73025Y546100D01*
G54D11*
X12700Y546100D02*
X12700Y622300D01*
G54D11*
X12700Y571500D02*
X19050Y571500D01*
X19050Y596900D01*
X12700Y596900D01*
G54D10*
X81281Y600076D02*
X81281Y594742D01*
G54D10*
X86281Y586965D02*
X86281Y592299D01*
X82392Y592299D01*
X82392Y591632D01*
X82948Y590299D01*
X82948Y588965D01*
X82392Y587632D01*
X81281Y586965D01*
X79059Y586965D01*
X77948Y587632D01*
X77392Y588965D01*
X77392Y590299D01*
X77948Y591632D01*
X79059Y592299D01*
G54D10*
X86281Y584522D02*
X77392Y581188D01*
X86281Y577855D01*
G54D10*
X81281Y575411D02*
X81281Y570077D01*
G54D10*
X83503Y572744D02*
X79059Y572744D01*
G54D10*
X187961Y552450D02*
X187961Y557783D01*
X196850Y552450D01*
X196850Y557783D01*
G54D10*
X192961Y560227D02*
X192961Y565560D01*
G54D10*
X196850Y568004D02*
X187961Y568004D01*
G54D10*
X196850Y570448D02*
X191850Y570448D01*
G54D10*
X192961Y570448D02*
X192183Y571115D01*
X191850Y572448D01*
X192183Y573781D01*
X192961Y574448D01*
X196850Y574448D01*
G54D10*
X191850Y576892D02*
X199072Y576892D01*
G54D10*
X195183Y576892D02*
X196628Y577559D01*
X196850Y578892D01*
X196628Y580225D01*
X195517Y580892D01*
X193294Y580892D01*
X192183Y580225D01*
X191850Y578892D01*
X192183Y577559D01*
X193517Y576892D01*
G54D10*
X191850Y587336D02*
X196850Y587336D01*
G54D10*
X195739Y587336D02*
X196628Y586669D01*
X196850Y585336D01*
X196628Y584003D01*
X195739Y583336D01*
X191850Y583336D01*
G54D10*
X187961Y591113D02*
X196294Y591113D01*
X196850Y591780D01*
X196628Y592447D01*
G54D10*
X191850Y589780D02*
X191850Y592447D01*
G54D10*
X196850Y450850D02*
X187961Y450850D01*
X187961Y454183D01*
X188517Y455517D01*
X189628Y456183D01*
X190739Y456183D01*
X191850Y455517D01*
X192406Y454183D01*
X192406Y450850D01*
G54D10*
X192406Y458627D02*
X191850Y459960D01*
X191850Y461560D01*
X192961Y462627D01*
X196850Y462627D01*
G54D10*
X195183Y462627D02*
X194072Y461960D01*
X193850Y460627D01*
X194072Y459294D01*
X195183Y458627D01*
X196294Y458894D01*
X196850Y459960D01*
X196850Y460627D01*
X196850Y460894D01*
X196294Y461960D01*
X195183Y462627D01*
G54D10*
X196850Y465071D02*
X191850Y465071D01*
G54D10*
X192961Y465071D02*
X191850Y466404D01*
X191850Y467738D01*
G54D10*
X192406Y470182D02*
X191850Y471515D01*
X191850Y473115D01*
X192961Y474182D01*
X196850Y474182D01*
G54D10*
X195183Y474182D02*
X194072Y473515D01*
X193850Y472182D01*
X194072Y470849D01*
X195183Y470182D01*
X196294Y470449D01*
X196850Y471515D01*
X196850Y472182D01*
X196850Y472449D01*
X196294Y473515D01*
X195183Y474182D01*
G54D10*
X196850Y476626D02*
X187961Y476626D01*
G54D10*
X196850Y479070D02*
X187961Y479070D01*
G54D10*
X196294Y485514D02*
X196850Y484447D01*
X196850Y483114D01*
X196294Y481781D01*
X195183Y481514D01*
X193294Y481514D01*
X192183Y482181D01*
X191850Y483514D01*
X192183Y484847D01*
X192961Y485514D01*
X194072Y485514D01*
X194072Y481514D01*
G54D10*
X196850Y487958D02*
X187961Y487958D01*
G54D10*
X147717Y484188D02*
X146606Y483521D01*
X146050Y482188D01*
X146050Y480854D01*
X146606Y479521D01*
X147717Y478854D01*
X148828Y478854D01*
X149939Y479521D01*
X150494Y480854D01*
X150494Y482188D01*
X151050Y483521D01*
X152161Y484188D01*
X153272Y484188D01*
X154383Y483521D01*
X154939Y482188D01*
X154939Y480854D01*
X154383Y479521D01*
X153272Y478854D01*
G54D10*
X146606Y472410D02*
X146050Y473477D01*
X146050Y474810D01*
X146606Y476144D01*
X147717Y476410D01*
X149606Y476410D01*
X150717Y475744D01*
X151050Y474410D01*
X150717Y473077D01*
X149939Y472410D01*
X148828Y472410D01*
X148828Y476410D01*
G54D10*
X146050Y469966D02*
X151050Y469966D01*
G54D10*
X149939Y469966D02*
X151050Y468633D01*
X151050Y467300D01*
G54D10*
X146050Y464856D02*
X151050Y464856D01*
G54D10*
X152717Y464856D02*
X152717Y464856D01*
G54D10*
X150494Y462412D02*
X151050Y461078D01*
X151050Y459478D01*
X149939Y458412D01*
X146050Y458412D01*
G54D10*
X147717Y458412D02*
X148828Y459078D01*
X149050Y460412D01*
X148828Y461745D01*
X147717Y462412D01*
X146606Y462145D01*
X146050Y461078D01*
X146050Y460412D01*
X146050Y460145D01*
X146606Y459078D01*
X147717Y458412D01*
G54D10*
X146050Y455968D02*
X154939Y455968D01*
G54D11*
X193675Y492125D02*
X193675Y498475D01*
X200025Y498475D01*
G54D11*
X193675Y447675D02*
X193675Y441325D01*
X200025Y441325D01*
G54D11*
X149225Y492125D02*
X149225Y498475D01*
X142875Y498475D01*
G54D11*
X149225Y447675D02*
X149225Y441325D01*
X142875Y441325D01*
G54D11*
X323056Y618331D02*
X250031Y618331D01*
X250031Y651669D01*
X323056Y651669D01*
X323056Y618331D01*
G54D12*
X300150Y758800D02*
X322150Y758800D01*
X322150Y720800D01*
X300150Y720800D01*
X300150Y758800D01*
G54D12*
X300150Y708000D02*
X322150Y708000D01*
X322150Y670000D01*
X300150Y670000D01*
X300150Y708000D01*
G54D10*
X411778Y775967D02*
X411778Y770634D01*
G54D10*
X407889Y762857D02*
X407889Y768190D01*
X408444Y768190D01*
X409555Y767524D01*
X412889Y763524D01*
X414000Y762857D01*
X415111Y762857D01*
X416222Y763524D01*
X416778Y764857D01*
X416778Y766190D01*
X416222Y767524D01*
X415111Y768190D01*
G54D10*
X407889Y756413D02*
X416778Y756413D01*
X411222Y760413D01*
X410111Y760413D01*
X410111Y755080D01*
G54D10*
X416778Y752636D02*
X407889Y749303D01*
X416778Y745970D01*
G54D10*
X411778Y743525D02*
X411778Y738192D01*
G54D10*
X414000Y740858D02*
X409555Y740858D01*
G54D11*
X482600Y857250D02*
X482600Y908050D01*
X381000Y908050D01*
X381000Y857250D01*
G54D11*
X482600Y857250D02*
X482600Y819150D01*
X381000Y819150D01*
X381000Y857250D01*
G54D11*
X469900Y908050D02*
X469900Y895350D01*
X444500Y895350D01*
X444500Y908050D01*
G54D11*
X419100Y908050D02*
X419100Y895350D01*
X393700Y895350D01*
X393700Y908050D01*
G54D11*
X342900Y723900D02*
X403225Y723900D01*
G54D11*
X342900Y800100D02*
X403225Y800100D01*
X403225Y723900D01*
G54D11*
X342900Y723900D02*
X342900Y800100D01*
G54D11*
X342900Y749300D02*
X349250Y749300D01*
X349250Y774700D01*
X342900Y774700D01*
G54D11*
X342900Y635000D02*
X403225Y635000D01*
G54D11*
X342900Y711200D02*
X403225Y711200D01*
X403225Y635000D01*
G54D11*
X342900Y635000D02*
X342900Y711200D01*
G54D11*
X342900Y660400D02*
X349250Y660400D01*
X349250Y685800D01*
X342900Y685800D01*
G54D11*
X438150Y769938D02*
X438150Y665163D01*
X603250Y665163D01*
X603250Y769938D01*
X438150Y769938D01*
G54D11*
X438150Y755650D02*
X463550Y755650D01*
X463550Y679450D01*
X438150Y679450D01*
G54D10*
X489822Y737617D02*
X484267Y737617D01*
X483156Y738283D01*
X482600Y739617D01*
X482600Y740950D01*
X483156Y742283D01*
X484267Y742950D01*
X489822Y742950D01*
X490934Y742283D01*
X491489Y740950D01*
X491489Y739617D01*
X490933Y738283D01*
X489822Y737617D01*
G54D10*
X482600Y735173D02*
X491489Y735173D01*
G54D10*
X485378Y735173D02*
X491489Y729840D01*
G54D10*
X487045Y733173D02*
X482600Y729840D01*
G54D10*
X482600Y727396D02*
X491489Y727396D01*
G54D10*
X486489Y724952D02*
X486489Y719619D01*
G54D10*
X491489Y717175D02*
X491489Y711842D01*
X490378Y712508D01*
X488711Y713842D01*
X486489Y715175D01*
X484822Y715842D01*
X482600Y715842D01*
G54D10*
X487045Y706065D02*
X487045Y707398D01*
X487600Y708731D01*
X488711Y709398D01*
X489822Y709398D01*
X490934Y708731D01*
X491489Y707398D01*
X491489Y706065D01*
X490933Y704731D01*
X489822Y704065D01*
X488711Y704065D01*
X487600Y704731D01*
X487045Y706065D01*
X486489Y704731D01*
X485378Y704065D01*
X484267Y704065D01*
X483156Y704731D01*
X482600Y706065D01*
X482600Y707398D01*
X483156Y708731D01*
X484267Y709398D01*
X485378Y709398D01*
X486489Y708731D01*
X487045Y707398D01*
G54D10*
X484267Y701621D02*
X483156Y700954D01*
X482600Y699621D01*
X482600Y698288D01*
X483156Y696954D01*
X484267Y696288D01*
X485378Y696288D01*
X486489Y696954D01*
X487045Y698288D01*
X487045Y699621D01*
X487600Y700954D01*
X488711Y701621D01*
X489822Y701621D01*
X490933Y700954D01*
X491489Y699621D01*
X491489Y698288D01*
X490934Y696954D01*
X489822Y696288D01*
G54D10*
X487045Y691177D02*
X485933Y689177D01*
X484822Y688511D01*
X482600Y688511D01*
G54D10*
X482600Y693844D02*
X491489Y693844D01*
X491489Y690511D01*
X490933Y689177D01*
X489822Y688511D01*
X488711Y688511D01*
X487600Y689177D01*
X487045Y690511D01*
X487045Y693844D01*
G54D10*
X477122Y738014D02*
X471567Y738014D01*
X470456Y738680D01*
X469900Y740014D01*
X469900Y741347D01*
X470456Y742680D01*
X471567Y743347D01*
X477122Y743347D01*
X478234Y742680D01*
X478789Y741347D01*
X478789Y740014D01*
X478234Y738680D01*
X477122Y738014D01*
G54D10*
X474345Y714883D02*
X474345Y712217D01*
X471567Y712217D01*
X470456Y712883D01*
X469900Y714217D01*
X469900Y715550D01*
X470456Y716883D01*
X471567Y717550D01*
X477122Y717550D01*
X478234Y716883D01*
X478789Y715550D01*
X478789Y714217D01*
X478234Y712883D01*
X477122Y712217D01*
G54D10*
X469900Y692150D02*
X478789Y692150D01*
G54D11*
X408384Y813594D02*
X481409Y813594D01*
X481409Y780256D01*
X408384Y780256D01*
X408384Y813594D01*
G54D11*
X640358Y789781D02*
X640358Y777280D01*
X508794Y777280D01*
X508794Y789781D01*
G54D11*
X640358Y838994D02*
X640358Y917178D01*
X508794Y917178D01*
X508794Y838994D01*
G54D10*
X605474Y802481D02*
X614362Y805814D01*
X605474Y809148D01*
G54D10*
X612696Y816926D02*
X613807Y816259D01*
X614362Y814926D01*
X614362Y813592D01*
X613807Y812259D01*
X612696Y811592D01*
X607140Y811592D01*
X606029Y812259D01*
X605474Y813592D01*
X605474Y814926D01*
X606029Y816259D01*
X607140Y816926D01*
G54D10*
X612696Y824702D02*
X613807Y824036D01*
X614362Y822703D01*
X614362Y821369D01*
X613807Y820036D01*
X612696Y819369D01*
X607140Y819369D01*
X606029Y820036D01*
X605474Y821369D01*
X605474Y822702D01*
X606029Y824036D01*
X607140Y824703D01*
G54D10*
X588962Y802481D02*
X580074Y802481D01*
X580074Y805814D01*
X580629Y807148D01*
X581740Y807815D01*
X587296Y807815D01*
X588407Y807148D01*
X588962Y805815D01*
X588962Y802481D01*
G54D10*
X585074Y810258D02*
X585074Y815592D01*
G54D10*
X569912Y802481D02*
X561024Y802481D01*
X561024Y805814D01*
X561579Y807148D01*
X562690Y807815D01*
X568246Y807815D01*
X569357Y807148D01*
X569912Y805814D01*
X569912Y802481D01*
G54D10*
X566024Y810258D02*
X566024Y815592D01*
G54D10*
X563802Y812925D02*
X568246Y812925D01*
G54D10*
X540068Y805148D02*
X540068Y807815D01*
X542846Y807815D01*
X543957Y807148D01*
X544512Y805815D01*
X544512Y804481D01*
X543957Y803148D01*
X542846Y802481D01*
X537290Y802481D01*
X536179Y803148D01*
X535624Y804481D01*
X535624Y805814D01*
X536179Y807148D01*
X537290Y807815D01*
G54D10*
X544512Y810258D02*
X535624Y810258D01*
X544512Y815592D01*
X535624Y815592D01*
G54D10*
X544512Y818035D02*
X535624Y818035D01*
X535624Y821368D01*
X536179Y822702D01*
X537290Y823368D01*
X542846Y823368D01*
X543957Y822702D01*
X544512Y821368D01*
X544512Y818035D01*
G54D10*
X411778Y699767D02*
X411778Y694434D01*
G54D10*
X407889Y686657D02*
X407889Y691990D01*
X408444Y691990D01*
X409555Y691324D01*
X412889Y687324D01*
X414000Y686657D01*
X415111Y686657D01*
X416222Y687324D01*
X416778Y688657D01*
X416778Y689990D01*
X416222Y691324D01*
X415111Y691990D01*
G54D10*
X407889Y680213D02*
X416778Y680213D01*
X411222Y684213D01*
X410111Y684213D01*
X410111Y678880D01*
G54D10*
X416778Y676436D02*
X407889Y673103D01*
X416778Y669770D01*
G54D10*
X411778Y667325D02*
X411778Y661992D01*
G54D10*
X414000Y664658D02*
X409555Y664658D01*
G54D12*
X339750Y865300D02*
X339750Y887300D01*
X377750Y887300D01*
X377750Y865300D01*
X339750Y865300D01*
G54D12*
X339750Y890700D02*
X339750Y912700D01*
X377750Y912700D01*
X377750Y890700D01*
X339750Y890700D01*
G54D11*
X380405Y811411D02*
X337145Y811411D01*
X337145Y854670D01*
X380405Y854670D01*
X380405Y811411D01*
G54D11*
G75*
G01X338805Y833258D02*
G03X338805Y833258I20000J0D01*
G01*
G54D10*
X351830Y823397D02*
X346496Y823397D01*
G54D10*
X349163Y821175D02*
X349163Y825619D01*
G54D10*
X351433Y843638D02*
X346100Y843638D01*
G54D11*
X511572Y643334D02*
X428228Y643334D01*
X428228Y559991D01*
X511572Y559991D01*
X511572Y643334D01*
G54D11*
G75*
G01X509900Y601662D02*
G03X509900Y601662I-40000J0D01*
G01*
G54D10*
X489744Y620236D02*
X495077Y620236D01*
G54D10*
X492125Y581342D02*
X497458Y581342D01*
G54D10*
X494792Y583564D02*
X494792Y579120D01*
G54D11*
X533400Y603250D02*
X533400Y542925D01*
G54D11*
X660400Y603250D02*
X660400Y542925D01*
X533400Y542925D01*
G54D11*
X533400Y603250D02*
X660400Y603250D01*
G54D11*
X558800Y603250D02*
X558800Y596900D01*
X635000Y596900D01*
X635000Y603250D01*
G54D11*
X533400Y533400D02*
X533400Y473075D01*
G54D11*
X660400Y533400D02*
X660400Y473075D01*
X533400Y473075D01*
G54D11*
X533400Y533400D02*
X660400Y533400D01*
G54D11*
X558800Y533400D02*
X558800Y527050D01*
X635000Y527050D01*
X635000Y533400D01*
G54D11*
X342900Y533400D02*
X342900Y473075D01*
G54D11*
X469900Y533400D02*
X469900Y473075D01*
X342900Y473075D01*
G54D11*
X342900Y533400D02*
X469900Y533400D01*
G54D11*
X368300Y533400D02*
X368300Y527050D01*
X444500Y527050D01*
X444500Y533400D01*
G54D11*
X342900Y463550D02*
X342900Y403225D01*
G54D11*
X469900Y463550D02*
X469900Y403225D01*
X342900Y403225D01*
G54D11*
X342900Y463550D02*
X469900Y463550D01*
G54D11*
X368300Y463550D02*
X368300Y457200D01*
X444500Y457200D01*
X444500Y463550D01*
G54D11*
X533400Y463550D02*
X533400Y403225D01*
G54D11*
X660400Y463550D02*
X660400Y403225D01*
X533400Y403225D01*
G54D11*
X533400Y463550D02*
X660400Y463550D01*
G54D11*
X558800Y463550D02*
X558800Y457200D01*
X635000Y457200D01*
X635000Y463550D01*
G54D11*
X342900Y546100D02*
X403225Y546100D01*
G54D11*
X342900Y622300D02*
X403225Y622300D01*
X403225Y546100D01*
G54D11*
X342900Y546100D02*
X342900Y622300D01*
G54D11*
X342900Y571500D02*
X349250Y571500D01*
X349250Y596900D01*
X342900Y596900D01*
G54D10*
X411481Y600076D02*
X411481Y594742D01*
G54D10*
X416481Y586965D02*
X416481Y592299D01*
X412592Y592299D01*
X412592Y591632D01*
X413148Y590299D01*
X413148Y588965D01*
X412592Y587632D01*
X411481Y586965D01*
X409259Y586965D01*
X408148Y587632D01*
X407592Y588965D01*
X407592Y590299D01*
X408148Y591632D01*
X409259Y592299D01*
G54D10*
X416481Y584522D02*
X407592Y581188D01*
X416481Y577855D01*
G54D10*
X411481Y575411D02*
X411481Y570077D01*
G54D10*
X413703Y572744D02*
X409259Y572744D01*
G54D10*
X518161Y552450D02*
X518161Y557783D01*
X527050Y552450D01*
X527050Y557783D01*
G54D10*
X523161Y560227D02*
X523161Y565560D01*
G54D10*
X527050Y568004D02*
X518161Y568004D01*
G54D10*
X527050Y570448D02*
X522050Y570448D01*
G54D10*
X523161Y570448D02*
X522383Y571115D01*
X522050Y572448D01*
X522383Y573781D01*
X523161Y574448D01*
X527050Y574448D01*
G54D10*
X522050Y576892D02*
X529272Y576892D01*
G54D10*
X525383Y576892D02*
X526828Y577559D01*
X527050Y578892D01*
X526828Y580225D01*
X525717Y580892D01*
X523494Y580892D01*
X522383Y580225D01*
X522050Y578892D01*
X522383Y577559D01*
X523717Y576892D01*
G54D10*
X522050Y587336D02*
X527050Y587336D01*
G54D10*
X525939Y587336D02*
X526828Y586669D01*
X527050Y585336D01*
X526828Y584003D01*
X525939Y583336D01*
X522050Y583336D01*
G54D10*
X518161Y591113D02*
X526494Y591113D01*
X527050Y591780D01*
X526828Y592447D01*
G54D10*
X522050Y589780D02*
X522050Y592447D01*
G54D10*
X527050Y450850D02*
X518161Y450850D01*
X518161Y454183D01*
X518717Y455517D01*
X519828Y456183D01*
X520939Y456183D01*
X522050Y455517D01*
X522606Y454183D01*
X522606Y450850D01*
G54D10*
X522606Y458627D02*
X522050Y459960D01*
X522050Y461560D01*
X523161Y462627D01*
X527050Y462627D01*
G54D10*
X525383Y462627D02*
X524272Y461960D01*
X524050Y460627D01*
X524272Y459294D01*
X525383Y458627D01*
X526494Y458894D01*
X527050Y459960D01*
X527050Y460627D01*
X527050Y460894D01*
X526494Y461960D01*
X525383Y462627D01*
G54D10*
X527050Y465071D02*
X522050Y465071D01*
G54D10*
X523161Y465071D02*
X522050Y466404D01*
X522050Y467738D01*
G54D10*
X522606Y470182D02*
X522050Y471515D01*
X522050Y473115D01*
X523161Y474182D01*
X527050Y474182D01*
G54D10*
X525383Y474182D02*
X524272Y473515D01*
X524050Y472182D01*
X524272Y470849D01*
X525383Y470182D01*
X526494Y470449D01*
X527050Y471515D01*
X527050Y472182D01*
X527050Y472449D01*
X526494Y473515D01*
X525383Y474182D01*
G54D10*
X527050Y476626D02*
X518161Y476626D01*
G54D10*
X527050Y479070D02*
X518161Y479070D01*
G54D10*
X526494Y485514D02*
X527050Y484447D01*
X527050Y483114D01*
X526494Y481781D01*
X525383Y481514D01*
X523494Y481514D01*
X522383Y482181D01*
X522050Y483514D01*
X522383Y484847D01*
X523161Y485514D01*
X524272Y485514D01*
X524272Y481514D01*
G54D10*
X527050Y487958D02*
X518161Y487958D01*
G54D10*
X477917Y484188D02*
X476806Y483521D01*
X476250Y482188D01*
X476250Y480854D01*
X476806Y479521D01*
X477917Y478854D01*
X479028Y478854D01*
X480139Y479521D01*
X480694Y480854D01*
X480694Y482188D01*
X481250Y483521D01*
X482361Y484188D01*
X483472Y484188D01*
X484583Y483521D01*
X485139Y482188D01*
X485139Y480854D01*
X484583Y479521D01*
X483472Y478854D01*
G54D10*
X476806Y472410D02*
X476250Y473477D01*
X476250Y474810D01*
X476806Y476144D01*
X477917Y476410D01*
X479806Y476410D01*
X480917Y475744D01*
X481250Y474410D01*
X480917Y473077D01*
X480139Y472410D01*
X479028Y472410D01*
X479028Y476410D01*
G54D10*
X476250Y469966D02*
X481250Y469966D01*
G54D10*
X480139Y469966D02*
X481250Y468633D01*
X481250Y467300D01*
G54D10*
X476250Y464856D02*
X481250Y464856D01*
G54D10*
X482917Y464856D02*
X482917Y464856D01*
G54D10*
X480694Y462412D02*
X481250Y461078D01*
X481250Y459478D01*
X480139Y458412D01*
X476250Y458412D01*
G54D10*
X477917Y458412D02*
X479028Y459078D01*
X479250Y460412D01*
X479028Y461745D01*
X477917Y462412D01*
X476806Y462145D01*
X476250Y461078D01*
X476250Y460412D01*
X476250Y460145D01*
X476806Y459078D01*
X477917Y458412D01*
G54D10*
X476250Y455968D02*
X485139Y455968D01*
G54D11*
X523875Y492125D02*
X523875Y498475D01*
X530225Y498475D01*
G54D11*
X523875Y447675D02*
X523875Y441325D01*
X530225Y441325D01*
G54D11*
X479425Y492125D02*
X479425Y498475D01*
X473075Y498475D01*
G54D11*
X479425Y447675D02*
X479425Y441325D01*
X473075Y441325D01*
G54D11*
X653256Y618331D02*
X580231Y618331D01*
X580231Y651669D01*
X653256Y651669D01*
X653256Y618331D01*
G54D12*
X630350Y758800D02*
X652350Y758800D01*
X652350Y720800D01*
X630350Y720800D01*
X630350Y758800D01*
G54D12*
X630350Y708000D02*
X652350Y708000D01*
X652350Y670000D01*
X630350Y670000D01*
X630350Y708000D01*
G54D10*
X741978Y775967D02*
X741978Y770634D01*
G54D10*
X738089Y762857D02*
X738089Y768190D01*
X738644Y768190D01*
X739755Y767524D01*
X743089Y763524D01*
X744200Y762857D01*
X745311Y762857D01*
X746422Y763524D01*
X746978Y764857D01*
X746978Y766190D01*
X746422Y767524D01*
X745311Y768190D01*
G54D10*
X738089Y756413D02*
X746978Y756413D01*
X741422Y760413D01*
X740311Y760413D01*
X740311Y755080D01*
G54D10*
X746978Y752636D02*
X738089Y749303D01*
X746978Y745970D01*
G54D10*
X741978Y743525D02*
X741978Y738192D01*
G54D10*
X744200Y740858D02*
X739755Y740858D01*
G54D11*
X812800Y857250D02*
X812800Y908050D01*
X711200Y908050D01*
X711200Y857250D01*
G54D11*
X812800Y857250D02*
X812800Y819150D01*
X711200Y819150D01*
X711200Y857250D01*
G54D11*
X800100Y908050D02*
X800100Y895350D01*
X774700Y895350D01*
X774700Y908050D01*
G54D11*
X749300Y908050D02*
X749300Y895350D01*
X723900Y895350D01*
X723900Y908050D01*
G54D11*
X673100Y723900D02*
X733425Y723900D01*
G54D11*
X673100Y800100D02*
X733425Y800100D01*
X733425Y723900D01*
G54D11*
X673100Y723900D02*
X673100Y800100D01*
G54D11*
X673100Y749300D02*
X679450Y749300D01*
X679450Y774700D01*
X673100Y774700D01*
G54D11*
X673100Y635000D02*
X733425Y635000D01*
G54D11*
X673100Y711200D02*
X733425Y711200D01*
X733425Y635000D01*
G54D11*
X673100Y635000D02*
X673100Y711200D01*
G54D11*
X673100Y660400D02*
X679450Y660400D01*
X679450Y685800D01*
X673100Y685800D01*
G54D11*
X768350Y769938D02*
X768350Y665163D01*
X933450Y665163D01*
X933450Y769938D01*
X768350Y769938D01*
G54D11*
X768350Y755650D02*
X793750Y755650D01*
X793750Y679450D01*
X768350Y679450D01*
G54D10*
X820022Y737617D02*
X814467Y737617D01*
X813356Y738283D01*
X812800Y739617D01*
X812800Y740950D01*
X813356Y742283D01*
X814467Y742950D01*
X820022Y742950D01*
X821134Y742283D01*
X821689Y740950D01*
X821689Y739617D01*
X821133Y738283D01*
X820022Y737617D01*
G54D10*
X812800Y735173D02*
X821689Y735173D01*
G54D10*
X815578Y735173D02*
X821689Y729840D01*
G54D10*
X817245Y733173D02*
X812800Y729840D01*
G54D10*
X812800Y727396D02*
X821689Y727396D01*
G54D10*
X816689Y724952D02*
X816689Y719619D01*
G54D10*
X821689Y717175D02*
X821689Y711842D01*
X820578Y712508D01*
X818911Y713842D01*
X816689Y715175D01*
X815022Y715842D01*
X812800Y715842D01*
G54D10*
X817245Y706065D02*
X817245Y707398D01*
X817800Y708731D01*
X818911Y709398D01*
X820022Y709398D01*
X821134Y708731D01*
X821689Y707398D01*
X821689Y706065D01*
X821133Y704731D01*
X820022Y704065D01*
X818911Y704065D01*
X817800Y704731D01*
X817245Y706065D01*
X816689Y704731D01*
X815578Y704065D01*
X814467Y704065D01*
X813356Y704731D01*
X812800Y706065D01*
X812800Y707398D01*
X813356Y708731D01*
X814467Y709398D01*
X815578Y709398D01*
X816689Y708731D01*
X817245Y707398D01*
G54D10*
X814467Y701621D02*
X813356Y700954D01*
X812800Y699621D01*
X812800Y698288D01*
X813356Y696954D01*
X814467Y696288D01*
X815578Y696288D01*
X816689Y696954D01*
X817245Y698288D01*
X817245Y699621D01*
X817800Y700954D01*
X818911Y701621D01*
X820022Y701621D01*
X821133Y700954D01*
X821689Y699621D01*
X821689Y698288D01*
X821134Y696954D01*
X820022Y696288D01*
G54D10*
X817245Y691177D02*
X816133Y689177D01*
X815022Y688511D01*
X812800Y688511D01*
G54D10*
X812800Y693844D02*
X821689Y693844D01*
X821689Y690511D01*
X821133Y689177D01*
X820022Y688511D01*
X818911Y688511D01*
X817800Y689177D01*
X817245Y690511D01*
X817245Y693844D01*
G54D10*
X807322Y738014D02*
X801767Y738014D01*
X800656Y738680D01*
X800100Y740014D01*
X800100Y741347D01*
X800656Y742680D01*
X801767Y743347D01*
X807322Y743347D01*
X808434Y742680D01*
X808989Y741347D01*
X808989Y740014D01*
X808434Y738680D01*
X807322Y738014D01*
G54D10*
X804545Y714883D02*
X804545Y712217D01*
X801767Y712217D01*
X800656Y712883D01*
X800100Y714217D01*
X800100Y715550D01*
X800656Y716883D01*
X801767Y717550D01*
X807322Y717550D01*
X808434Y716883D01*
X808989Y715550D01*
X808989Y714217D01*
X808434Y712883D01*
X807322Y712217D01*
G54D10*
X800100Y692150D02*
X808989Y692150D01*
G54D11*
X738584Y813594D02*
X811609Y813594D01*
X811609Y780256D01*
X738584Y780256D01*
X738584Y813594D01*
G54D11*
X970558Y789781D02*
X970558Y777280D01*
X838994Y777280D01*
X838994Y789781D01*
G54D11*
X970558Y838994D02*
X970558Y917178D01*
X838994Y917178D01*
X838994Y838994D01*
G54D10*
X935674Y802481D02*
X944562Y805814D01*
X935674Y809148D01*
G54D10*
X942896Y816926D02*
X944007Y816259D01*
X944562Y814926D01*
X944562Y813592D01*
X944007Y812259D01*
X942896Y811592D01*
X937340Y811592D01*
X936229Y812259D01*
X935674Y813592D01*
X935674Y814926D01*
X936229Y816259D01*
X937340Y816926D01*
G54D10*
X942896Y824702D02*
X944007Y824036D01*
X944562Y822703D01*
X944562Y821369D01*
X944007Y820036D01*
X942896Y819369D01*
X937340Y819369D01*
X936229Y820036D01*
X935674Y821369D01*
X935674Y822702D01*
X936229Y824036D01*
X937340Y824703D01*
G54D10*
X919162Y802481D02*
X910274Y802481D01*
X910274Y805814D01*
X910829Y807148D01*
X911940Y807815D01*
X917496Y807815D01*
X918607Y807148D01*
X919162Y805815D01*
X919162Y802481D01*
G54D10*
X915274Y810258D02*
X915274Y815592D01*
G54D10*
X900112Y802481D02*
X891224Y802481D01*
X891224Y805814D01*
X891779Y807148D01*
X892890Y807815D01*
X898446Y807815D01*
X899557Y807148D01*
X900112Y805814D01*
X900112Y802481D01*
G54D10*
X896224Y810258D02*
X896224Y815592D01*
G54D10*
X894002Y812925D02*
X898446Y812925D01*
G54D10*
X870268Y805148D02*
X870268Y807815D01*
X873046Y807815D01*
X874157Y807148D01*
X874712Y805815D01*
X874712Y804481D01*
X874157Y803148D01*
X873046Y802481D01*
X867490Y802481D01*
X866379Y803148D01*
X865824Y804481D01*
X865824Y805814D01*
X866379Y807148D01*
X867490Y807815D01*
G54D10*
X874712Y810258D02*
X865824Y810258D01*
X874712Y815592D01*
X865824Y815592D01*
G54D10*
X874712Y818035D02*
X865824Y818035D01*
X865824Y821368D01*
X866379Y822702D01*
X867490Y823368D01*
X873046Y823368D01*
X874157Y822702D01*
X874712Y821368D01*
X874712Y818035D01*
G54D10*
X741978Y699767D02*
X741978Y694434D01*
G54D10*
X738089Y686657D02*
X738089Y691990D01*
X738644Y691990D01*
X739755Y691324D01*
X743089Y687324D01*
X744200Y686657D01*
X745311Y686657D01*
X746422Y687324D01*
X746978Y688657D01*
X746978Y689990D01*
X746422Y691324D01*
X745311Y691990D01*
G54D10*
X738089Y680213D02*
X746978Y680213D01*
X741422Y684213D01*
X740311Y684213D01*
X740311Y678880D01*
G54D10*
X746978Y676436D02*
X738089Y673103D01*
X746978Y669770D01*
G54D10*
X741978Y667325D02*
X741978Y661992D01*
G54D10*
X744200Y664658D02*
X739755Y664658D01*
G54D12*
X669950Y865300D02*
X669950Y887300D01*
X707950Y887300D01*
X707950Y865300D01*
X669950Y865300D01*
G54D12*
X669950Y890700D02*
X669950Y912700D01*
X707950Y912700D01*
X707950Y890700D01*
X669950Y890700D01*
G54D11*
X710605Y811411D02*
X667345Y811411D01*
X667345Y854670D01*
X710605Y854670D01*
X710605Y811411D01*
G54D11*
G75*
G01X669005Y833258D02*
G03X669005Y833258I20000J0D01*
G01*
G54D10*
X682030Y823397D02*
X676696Y823397D01*
G54D10*
X679363Y821175D02*
X679363Y825619D01*
G54D10*
X681633Y843638D02*
X676300Y843638D01*
G54D11*
X841772Y643334D02*
X758428Y643334D01*
X758428Y559991D01*
X841772Y559991D01*
X841772Y643334D01*
G54D11*
G75*
G01X840100Y601662D02*
G03X840100Y601662I-40000J0D01*
G01*
G54D10*
X819944Y620236D02*
X825277Y620236D01*
G54D10*
X822325Y581342D02*
X827658Y581342D01*
G54D10*
X824992Y583564D02*
X824992Y579120D01*
G54D11*
X863600Y603250D02*
X863600Y542925D01*
G54D11*
X990600Y603250D02*
X990600Y542925D01*
X863600Y542925D01*
G54D11*
X863600Y603250D02*
X990600Y603250D01*
G54D11*
X889000Y603250D02*
X889000Y596900D01*
X965200Y596900D01*
X965200Y603250D01*
G54D11*
X863600Y533400D02*
X863600Y473075D01*
G54D11*
X990600Y533400D02*
X990600Y473075D01*
X863600Y473075D01*
G54D11*
X863600Y533400D02*
X990600Y533400D01*
G54D11*
X889000Y533400D02*
X889000Y527050D01*
X965200Y527050D01*
X965200Y533400D01*
G54D11*
X673100Y533400D02*
X673100Y473075D01*
G54D11*
X800100Y533400D02*
X800100Y473075D01*
X673100Y473075D01*
G54D11*
X673100Y533400D02*
X800100Y533400D01*
G54D11*
X698500Y533400D02*
X698500Y527050D01*
X774700Y527050D01*
X774700Y533400D01*
G54D11*
X673100Y463550D02*
X673100Y403225D01*
G54D11*
X800100Y463550D02*
X800100Y403225D01*
X673100Y403225D01*
G54D11*
X673100Y463550D02*
X800100Y463550D01*
G54D11*
X698500Y463550D02*
X698500Y457200D01*
X774700Y457200D01*
X774700Y463550D01*
G54D11*
X863600Y463550D02*
X863600Y403225D01*
G54D11*
X990600Y463550D02*
X990600Y403225D01*
X863600Y403225D01*
G54D11*
X863600Y463550D02*
X990600Y463550D01*
G54D11*
X889000Y463550D02*
X889000Y457200D01*
X965200Y457200D01*
X965200Y463550D01*
G54D11*
X673100Y546100D02*
X733425Y546100D01*
G54D11*
X673100Y622300D02*
X733425Y622300D01*
X733425Y546100D01*
G54D11*
X673100Y546100D02*
X673100Y622300D01*
G54D11*
X673100Y571500D02*
X679450Y571500D01*
X679450Y596900D01*
X673100Y596900D01*
G54D10*
X741681Y600076D02*
X741681Y594742D01*
G54D10*
X746681Y586965D02*
X746681Y592299D01*
X742792Y592299D01*
X742792Y591632D01*
X743348Y590299D01*
X743348Y588965D01*
X742792Y587632D01*
X741681Y586965D01*
X739459Y586965D01*
X738348Y587632D01*
X737792Y588965D01*
X737792Y590299D01*
X738348Y591632D01*
X739459Y592299D01*
G54D10*
X746681Y584522D02*
X737792Y581188D01*
X746681Y577855D01*
G54D10*
X741681Y575411D02*
X741681Y570077D01*
G54D10*
X743903Y572744D02*
X739459Y572744D01*
G54D10*
X848361Y552450D02*
X848361Y557783D01*
X857250Y552450D01*
X857250Y557783D01*
G54D10*
X853361Y560227D02*
X853361Y565560D01*
G54D10*
X857250Y568004D02*
X848361Y568004D01*
G54D10*
X857250Y570448D02*
X852250Y570448D01*
G54D10*
X853361Y570448D02*
X852583Y571115D01*
X852250Y572448D01*
X852583Y573781D01*
X853361Y574448D01*
X857250Y574448D01*
G54D10*
X852250Y576892D02*
X859472Y576892D01*
G54D10*
X855583Y576892D02*
X857028Y577559D01*
X857250Y578892D01*
X857028Y580225D01*
X855917Y580892D01*
X853694Y580892D01*
X852583Y580225D01*
X852250Y578892D01*
X852583Y577559D01*
X853917Y576892D01*
G54D10*
X852250Y587336D02*
X857250Y587336D01*
G54D10*
X856139Y587336D02*
X857028Y586669D01*
X857250Y585336D01*
X857028Y584003D01*
X856139Y583336D01*
X852250Y583336D01*
G54D10*
X848361Y591113D02*
X856694Y591113D01*
X857250Y591780D01*
X857028Y592447D01*
G54D10*
X852250Y589780D02*
X852250Y592447D01*
G54D10*
X857250Y450850D02*
X848361Y450850D01*
X848361Y454183D01*
X848917Y455517D01*
X850028Y456183D01*
X851139Y456183D01*
X852250Y455517D01*
X852806Y454183D01*
X852806Y450850D01*
G54D10*
X852806Y458627D02*
X852250Y459960D01*
X852250Y461560D01*
X853361Y462627D01*
X857250Y462627D01*
G54D10*
X855583Y462627D02*
X854472Y461960D01*
X854250Y460627D01*
X854472Y459294D01*
X855583Y458627D01*
X856694Y458894D01*
X857250Y459960D01*
X857250Y460627D01*
X857250Y460894D01*
X856694Y461960D01*
X855583Y462627D01*
G54D10*
X857250Y465071D02*
X852250Y465071D01*
G54D10*
X853361Y465071D02*
X852250Y466404D01*
X852250Y467738D01*
G54D10*
X852806Y470182D02*
X852250Y471515D01*
X852250Y473115D01*
X853361Y474182D01*
X857250Y474182D01*
G54D10*
X855583Y474182D02*
X854472Y473515D01*
X854250Y472182D01*
X854472Y470849D01*
X855583Y470182D01*
X856694Y470449D01*
X857250Y471515D01*
X857250Y472182D01*
X857250Y472449D01*
X856694Y473515D01*
X855583Y474182D01*
G54D10*
X857250Y476626D02*
X848361Y476626D01*
G54D10*
X857250Y479070D02*
X848361Y479070D01*
G54D10*
X856694Y485514D02*
X857250Y484447D01*
X857250Y483114D01*
X856694Y481781D01*
X855583Y481514D01*
X853694Y481514D01*
X852583Y482181D01*
X852250Y483514D01*
X852583Y484847D01*
X853361Y485514D01*
X854472Y485514D01*
X854472Y481514D01*
G54D10*
X857250Y487958D02*
X848361Y487958D01*
G54D10*
X808117Y484188D02*
X807006Y483521D01*
X806450Y482188D01*
X806450Y480854D01*
X807006Y479521D01*
X808117Y478854D01*
X809228Y478854D01*
X810339Y479521D01*
X810894Y480854D01*
X810894Y482188D01*
X811450Y483521D01*
X812561Y484188D01*
X813672Y484188D01*
X814783Y483521D01*
X815339Y482188D01*
X815339Y480854D01*
X814783Y479521D01*
X813672Y478854D01*
G54D10*
X807006Y472410D02*
X806450Y473477D01*
X806450Y474810D01*
X807006Y476144D01*
X808117Y476410D01*
X810006Y476410D01*
X811117Y475744D01*
X811450Y474410D01*
X811117Y473077D01*
X810339Y472410D01*
X809228Y472410D01*
X809228Y476410D01*
G54D10*
X806450Y469966D02*
X811450Y469966D01*
G54D10*
X810339Y469966D02*
X811450Y468633D01*
X811450Y467300D01*
G54D10*
X806450Y464856D02*
X811450Y464856D01*
G54D10*
X813117Y464856D02*
X813117Y464856D01*
G54D10*
X810894Y462412D02*
X811450Y461078D01*
X811450Y459478D01*
X810339Y458412D01*
X806450Y458412D01*
G54D10*
X808117Y458412D02*
X809228Y459078D01*
X809450Y460412D01*
X809228Y461745D01*
X808117Y462412D01*
X807006Y462145D01*
X806450Y461078D01*
X806450Y460412D01*
X806450Y460145D01*
X807006Y459078D01*
X808117Y458412D01*
G54D10*
X806450Y455968D02*
X815339Y455968D01*
G54D11*
X854075Y492125D02*
X854075Y498475D01*
X860425Y498475D01*
G54D11*
X854075Y447675D02*
X854075Y441325D01*
X860425Y441325D01*
G54D11*
X809625Y492125D02*
X809625Y498475D01*
X803275Y498475D01*
G54D11*
X809625Y447675D02*
X809625Y441325D01*
X803275Y441325D01*
G54D11*
X983456Y618331D02*
X910431Y618331D01*
X910431Y651669D01*
X983456Y651669D01*
X983456Y618331D01*
G54D12*
X960550Y758800D02*
X982550Y758800D01*
X982550Y720800D01*
X960550Y720800D01*
X960550Y758800D01*
G54D12*
X960550Y708000D02*
X982550Y708000D01*
X982550Y670000D01*
X960550Y670000D01*
X960550Y708000D01*
M02*
