%FSLAX34Y34*%
%MOMM*%
%LNSOLDERMASK_BOTTOM*%
G71*
G01*
%ADD10C, 2.40*%
%ADD11R, 0.47X0.47*%
%ADD12C, 3.60*%
%LPD*%
G36*
X145000Y862480D02*
X134470Y851950D01*
X119530Y851950D01*
X109000Y862480D01*
X109000Y877420D01*
X119530Y887950D01*
X134470Y887950D01*
X145000Y877420D01*
X145000Y862480D01*
G37*
G36*
X94200Y862480D02*
X83670Y851950D01*
X68730Y851950D01*
X58200Y862480D01*
X58200Y877420D01*
X68730Y887950D01*
X83670Y887950D01*
X94200Y877420D01*
X94200Y862480D01*
G37*
X38100Y749300D02*
G54D10*
D03*
X38100Y774700D02*
G54D10*
D03*
X38100Y660400D02*
G54D10*
D03*
X38100Y685800D02*
G54D10*
D03*
G36*
X58200Y877420D02*
X68730Y887950D01*
X83670Y887950D01*
X94200Y877420D01*
X94200Y862480D01*
X83670Y851950D01*
X68730Y851950D01*
X58200Y862480D01*
X58200Y877420D01*
G37*
X38100Y774700D02*
G54D10*
D03*
X38100Y685800D02*
G54D10*
D03*
X209550Y787400D02*
G54D10*
D03*
G36*
X125630Y754950D02*
X132650Y747930D01*
X132650Y737970D01*
X125630Y730950D01*
X115670Y730950D01*
X108650Y737970D01*
X108650Y747930D01*
X115670Y754950D01*
X125630Y754950D01*
G37*
G36*
X125630Y729550D02*
X132650Y722530D01*
X132650Y712570D01*
X125630Y705550D01*
X115670Y705550D01*
X108650Y712570D01*
X108650Y722530D01*
X115670Y729550D01*
X125630Y729550D01*
G37*
G36*
X125630Y704150D02*
X132650Y697130D01*
X132650Y687170D01*
X125630Y680150D01*
X115670Y680150D01*
X108650Y687170D01*
X108650Y697130D01*
X115670Y704150D01*
X125630Y704150D01*
G37*
G36*
X125630Y729550D02*
X132650Y722530D01*
X132650Y712570D01*
X125630Y705550D01*
X115670Y705550D01*
X108650Y712570D01*
X108650Y722530D01*
X115670Y729550D01*
X125630Y729550D01*
G37*
X279400Y787400D02*
G54D10*
D03*
X254397Y787400D02*
G54D10*
D03*
X234553Y787400D02*
G54D10*
D03*
X209550Y787400D02*
G54D10*
D03*
G36*
X333158Y804842D02*
X319703Y791387D01*
X300613Y791387D01*
X287158Y804842D01*
X287158Y823932D01*
X300613Y837387D01*
X319703Y837387D01*
X333158Y823932D01*
X333158Y804842D01*
G37*
G36*
X201594Y804842D02*
X188139Y791387D01*
X169049Y791387D01*
X155594Y804842D01*
X155594Y823932D01*
X169049Y837387D01*
X188139Y837387D01*
X201594Y823932D01*
X201594Y804842D01*
G37*
X314325Y869950D02*
G54D11*
D03*
X311150Y866775D02*
G54D11*
D03*
X307975Y863600D02*
G54D11*
D03*
X304800Y860425D02*
G54D11*
D03*
X314325Y876300D02*
G54D11*
D03*
X311150Y879475D02*
G54D11*
D03*
X307975Y882650D02*
G54D11*
D03*
X304800Y885825D02*
G54D11*
D03*
X301625Y889000D02*
G54D11*
D03*
X301625Y857250D02*
G54D11*
D03*
X298450Y854075D02*
G54D11*
D03*
X295275Y850900D02*
G54D11*
D03*
X292100Y847725D02*
G54D11*
D03*
X285750Y847725D02*
G54D11*
D03*
X282575Y850900D02*
G54D11*
D03*
X279400Y854075D02*
G54D11*
D03*
X276225Y857250D02*
G54D11*
D03*
X273050Y860425D02*
G54D11*
D03*
X269875Y863600D02*
G54D11*
D03*
X266700Y866775D02*
G54D11*
D03*
X263525Y869950D02*
G54D11*
D03*
X260350Y873125D02*
G54D11*
D03*
X298450Y892175D02*
G54D11*
D03*
X295275Y895350D02*
G54D11*
D03*
X292100Y898525D02*
G54D11*
D03*
X288925Y901700D02*
G54D11*
D03*
X273050Y898525D02*
G54D11*
D03*
X263525Y889000D02*
G54D11*
D03*
X260350Y892175D02*
G54D11*
D03*
X269875Y901700D02*
G54D11*
D03*
X269875Y908050D02*
G54D11*
D03*
X266700Y911225D02*
G54D11*
D03*
X263525Y908050D02*
G54D11*
D03*
X260350Y904875D02*
G54D11*
D03*
X257175Y901700D02*
G54D11*
D03*
X254000Y898525D02*
G54D11*
D03*
X250825Y895350D02*
G54D11*
D03*
X254000Y892175D02*
G54D11*
D03*
X304800Y879475D02*
G54D11*
D03*
X301625Y879475D02*
G54D11*
D03*
X298450Y882650D02*
G54D11*
D03*
X295275Y879475D02*
G54D11*
D03*
X292100Y879475D02*
G54D11*
D03*
X288925Y879475D02*
G54D11*
D03*
X285750Y876300D02*
G54D11*
D03*
X282575Y876300D02*
G54D11*
D03*
X279400Y879475D02*
G54D11*
D03*
X276225Y879475D02*
G54D11*
D03*
X273050Y879475D02*
G54D11*
D03*
X269875Y879475D02*
G54D11*
D03*
X266700Y879475D02*
G54D11*
D03*
X263525Y876300D02*
G54D11*
D03*
X247650Y904875D02*
G54D11*
D03*
X247650Y901700D02*
G54D11*
D03*
X247650Y898525D02*
G54D11*
D03*
X244475Y898525D02*
G54D11*
D03*
X244475Y904875D02*
G54D11*
D03*
X241300Y904875D02*
G54D11*
D03*
X241300Y908050D02*
G54D11*
D03*
X241300Y911225D02*
G54D11*
D03*
X238125Y911225D02*
G54D11*
D03*
X234950Y911225D02*
G54D11*
D03*
X234950Y908050D02*
G54D11*
D03*
X234950Y904875D02*
G54D11*
D03*
X231775Y904875D02*
G54D11*
D03*
X228600Y904875D02*
G54D11*
D03*
X228600Y901700D02*
G54D11*
D03*
X228600Y898525D02*
G54D11*
D03*
X231775Y898525D02*
G54D11*
D03*
X234950Y898525D02*
G54D11*
D03*
X241300Y898525D02*
G54D11*
D03*
X241300Y895350D02*
G54D11*
D03*
X241300Y892175D02*
G54D11*
D03*
X238125Y892175D02*
G54D11*
D03*
X234950Y892175D02*
G54D11*
D03*
X234950Y895350D02*
G54D11*
D03*
X285750Y904875D02*
G54D11*
D03*
X279400Y904875D02*
G54D11*
D03*
X276225Y901700D02*
G54D11*
D03*
X260350Y885825D02*
G54D11*
D03*
X257175Y882650D02*
G54D11*
D03*
X257175Y876300D02*
G54D11*
D03*
X260350Y866775D02*
G54D11*
D03*
X257175Y866775D02*
G54D11*
D03*
X254000Y866775D02*
G54D11*
D03*
X250825Y866775D02*
G54D11*
D03*
X247650Y866775D02*
G54D11*
D03*
X254000Y863600D02*
G54D11*
D03*
X254000Y860425D02*
G54D11*
D03*
X254000Y857250D02*
G54D11*
D03*
X254000Y854075D02*
G54D11*
D03*
X254000Y850900D02*
G54D11*
D03*
X257175Y847725D02*
G54D11*
D03*
X260350Y847725D02*
G54D11*
D03*
X263525Y850900D02*
G54D11*
D03*
X244475Y847725D02*
G54D11*
D03*
X241300Y850900D02*
G54D11*
D03*
X241300Y854075D02*
G54D11*
D03*
X241300Y857250D02*
G54D11*
D03*
X241300Y860425D02*
G54D11*
D03*
X238125Y847725D02*
G54D11*
D03*
X234950Y847725D02*
G54D11*
D03*
X231775Y847725D02*
G54D11*
D03*
X231775Y850900D02*
G54D11*
D03*
X231775Y854075D02*
G54D11*
D03*
X231775Y857250D02*
G54D11*
D03*
X231775Y860425D02*
G54D11*
D03*
X225425Y863600D02*
G54D11*
D03*
X225425Y857250D02*
G54D11*
D03*
X225425Y854075D02*
G54D11*
D03*
X225425Y850900D02*
G54D11*
D03*
X225425Y847725D02*
G54D11*
D03*
X219075Y850900D02*
G54D11*
D03*
X219075Y854075D02*
G54D11*
D03*
X219075Y857250D02*
G54D11*
D03*
X215900Y860425D02*
G54D11*
D03*
X212725Y860425D02*
G54D11*
D03*
X215900Y847725D02*
G54D11*
D03*
X212725Y847725D02*
G54D11*
D03*
X209550Y847725D02*
G54D11*
D03*
X209550Y860425D02*
G54D11*
D03*
X203200Y850900D02*
G54D11*
D03*
X203200Y854075D02*
G54D11*
D03*
X203200Y857250D02*
G54D11*
D03*
X200025Y860425D02*
G54D11*
D03*
X196850Y860425D02*
G54D11*
D03*
X193675Y860425D02*
G54D11*
D03*
X200025Y847725D02*
G54D11*
D03*
X196850Y847725D02*
G54D11*
D03*
X193675Y847725D02*
G54D11*
D03*
X190500Y857250D02*
G54D11*
D03*
X190500Y854075D02*
G54D11*
D03*
X193675Y854075D02*
G54D11*
D03*
X196850Y854075D02*
G54D11*
D03*
X200025Y854075D02*
G54D11*
D03*
X292100Y866775D02*
G54D11*
D03*
X288925Y863600D02*
G54D11*
D03*
X285750Y866775D02*
G54D11*
D03*
X288925Y869950D02*
G54D11*
D03*
X279400Y863600D02*
G54D11*
D03*
X301625Y873125D02*
G54D11*
D03*
X273050Y873125D02*
G54D11*
D03*
X288925Y854075D02*
G54D11*
D03*
X304800Y869950D02*
G54D11*
D03*
X244475Y885825D02*
G54D11*
D03*
X241300Y885825D02*
G54D11*
D03*
X238125Y885825D02*
G54D11*
D03*
X234950Y885825D02*
G54D11*
D03*
X231775Y885825D02*
G54D11*
D03*
X231775Y882650D02*
G54D11*
D03*
X231775Y879475D02*
G54D11*
D03*
X234950Y876300D02*
G54D11*
D03*
X238125Y873125D02*
G54D11*
D03*
X241300Y869950D02*
G54D11*
D03*
X228600Y892175D02*
G54D11*
D03*
X228600Y889000D02*
G54D11*
D03*
X225425Y889000D02*
G54D11*
D03*
X225425Y892175D02*
G54D11*
D03*
X222250Y885825D02*
G54D11*
D03*
X219075Y885825D02*
G54D11*
D03*
X215900Y885825D02*
G54D11*
D03*
X212725Y885825D02*
G54D11*
D03*
X209550Y885825D02*
G54D11*
D03*
X222250Y879475D02*
G54D11*
D03*
X219075Y879475D02*
G54D11*
D03*
X215900Y879475D02*
G54D11*
D03*
X212725Y879475D02*
G54D11*
D03*
X209550Y879475D02*
G54D11*
D03*
X209550Y876300D02*
G54D11*
D03*
X212725Y873125D02*
G54D11*
D03*
X215900Y869950D02*
G54D11*
D03*
X222250Y869950D02*
G54D11*
D03*
X219075Y869950D02*
G54D11*
D03*
X203200Y885825D02*
G54D11*
D03*
X200025Y885825D02*
G54D11*
D03*
X196850Y885825D02*
G54D11*
D03*
X193675Y885825D02*
G54D11*
D03*
X190500Y885825D02*
G54D11*
D03*
X190500Y882650D02*
G54D11*
D03*
X193675Y879475D02*
G54D11*
D03*
X196850Y876300D02*
G54D11*
D03*
X200025Y873125D02*
G54D11*
D03*
X203200Y869950D02*
G54D11*
D03*
X193675Y873125D02*
G54D11*
D03*
X190500Y869950D02*
G54D11*
D03*
X282575Y898525D02*
G54D11*
D03*
X285750Y895350D02*
G54D11*
D03*
X228600Y577850D02*
G54D10*
D03*
X254000Y577850D02*
G54D10*
D03*
X279400Y577850D02*
G54D10*
D03*
X304800Y577850D02*
G54D10*
D03*
X228600Y508000D02*
G54D10*
D03*
X254000Y508000D02*
G54D10*
D03*
X279400Y508000D02*
G54D10*
D03*
X304800Y508000D02*
G54D10*
D03*
X38100Y508000D02*
G54D10*
D03*
X63500Y508000D02*
G54D10*
D03*
X88900Y508000D02*
G54D10*
D03*
X114300Y508000D02*
G54D10*
D03*
X38100Y438150D02*
G54D10*
D03*
X63500Y438150D02*
G54D10*
D03*
X88900Y438150D02*
G54D10*
D03*
X114300Y438150D02*
G54D10*
D03*
X228600Y438150D02*
G54D10*
D03*
X254000Y438150D02*
G54D10*
D03*
X279400Y438150D02*
G54D10*
D03*
X304800Y438150D02*
G54D10*
D03*
X38100Y571500D02*
G54D10*
D03*
X38100Y596900D02*
G54D10*
D03*
X38100Y596900D02*
G54D10*
D03*
X288925Y847725D02*
G54D11*
D03*
X314325Y873125D02*
G54D11*
D03*
G36*
X292800Y450150D02*
X316800Y450150D01*
X316800Y426150D01*
X292800Y426150D01*
X292800Y450150D01*
G37*
G36*
X102300Y520000D02*
X126300Y520000D01*
X126300Y496000D01*
X102300Y496000D01*
X102300Y520000D01*
G37*
G36*
X102300Y450150D02*
X126300Y450150D01*
X126300Y426150D01*
X102300Y426150D01*
X102300Y450150D01*
G37*
G36*
X292800Y520000D02*
X316800Y520000D01*
X316800Y496000D01*
X292800Y496000D01*
X292800Y520000D01*
G37*
G36*
X292800Y589850D02*
X316800Y589850D01*
X316800Y565850D01*
X292800Y565850D01*
X292800Y589850D01*
G37*
X171450Y501650D02*
G54D12*
D03*
G36*
X300341Y656000D02*
X324341Y656000D01*
X324341Y614000D01*
X300341Y614000D01*
X300341Y656000D01*
G37*
G36*
X475200Y862480D02*
X464670Y851950D01*
X449730Y851950D01*
X439200Y862480D01*
X439200Y877420D01*
X449730Y887950D01*
X464670Y887950D01*
X475200Y877420D01*
X475200Y862480D01*
G37*
G36*
X424400Y862480D02*
X413870Y851950D01*
X398930Y851950D01*
X388400Y862480D01*
X388400Y877420D01*
X398930Y887950D01*
X413870Y887950D01*
X424400Y877420D01*
X424400Y862480D01*
G37*
X368300Y749300D02*
G54D10*
D03*
X368300Y774700D02*
G54D10*
D03*
X368300Y660400D02*
G54D10*
D03*
X368300Y685800D02*
G54D10*
D03*
G36*
X388400Y877420D02*
X398930Y887950D01*
X413870Y887950D01*
X424400Y877420D01*
X424400Y862480D01*
X413870Y851950D01*
X398930Y851950D01*
X388400Y862480D01*
X388400Y877420D01*
G37*
X368300Y774700D02*
G54D10*
D03*
X368300Y685800D02*
G54D10*
D03*
X539750Y787400D02*
G54D10*
D03*
G36*
X455830Y754950D02*
X462850Y747930D01*
X462850Y737970D01*
X455830Y730950D01*
X445870Y730950D01*
X438850Y737970D01*
X438850Y747930D01*
X445870Y754950D01*
X455830Y754950D01*
G37*
G36*
X455830Y729550D02*
X462850Y722530D01*
X462850Y712570D01*
X455830Y705550D01*
X445870Y705550D01*
X438850Y712570D01*
X438850Y722530D01*
X445870Y729550D01*
X455830Y729550D01*
G37*
G36*
X455830Y704150D02*
X462850Y697130D01*
X462850Y687170D01*
X455830Y680150D01*
X445870Y680150D01*
X438850Y687170D01*
X438850Y697130D01*
X445870Y704150D01*
X455830Y704150D01*
G37*
G36*
X455830Y729550D02*
X462850Y722530D01*
X462850Y712570D01*
X455830Y705550D01*
X445870Y705550D01*
X438850Y712570D01*
X438850Y722530D01*
X445870Y729550D01*
X455830Y729550D01*
G37*
X609600Y787400D02*
G54D10*
D03*
X584597Y787400D02*
G54D10*
D03*
X564753Y787400D02*
G54D10*
D03*
X539750Y787400D02*
G54D10*
D03*
G36*
X663358Y804842D02*
X649903Y791388D01*
X630813Y791388D01*
X617358Y804842D01*
X617358Y823932D01*
X630813Y837388D01*
X649903Y837388D01*
X663358Y823932D01*
X663358Y804842D01*
G37*
G36*
X531794Y804842D02*
X518339Y791387D01*
X499249Y791387D01*
X485794Y804842D01*
X485794Y823932D01*
X499249Y837387D01*
X518339Y837387D01*
X531794Y823932D01*
X531794Y804842D01*
G37*
X644525Y869950D02*
G54D11*
D03*
X641350Y866775D02*
G54D11*
D03*
X638175Y863600D02*
G54D11*
D03*
X635000Y860425D02*
G54D11*
D03*
X644525Y876300D02*
G54D11*
D03*
X641350Y879475D02*
G54D11*
D03*
X638175Y882650D02*
G54D11*
D03*
X635000Y885825D02*
G54D11*
D03*
X631825Y889000D02*
G54D11*
D03*
X631825Y857250D02*
G54D11*
D03*
X628650Y854075D02*
G54D11*
D03*
X625475Y850900D02*
G54D11*
D03*
X622300Y847725D02*
G54D11*
D03*
X615950Y847725D02*
G54D11*
D03*
X612775Y850900D02*
G54D11*
D03*
X609600Y854075D02*
G54D11*
D03*
X606425Y857250D02*
G54D11*
D03*
X603250Y860425D02*
G54D11*
D03*
X600075Y863600D02*
G54D11*
D03*
X596900Y866775D02*
G54D11*
D03*
X593725Y869950D02*
G54D11*
D03*
X590550Y873125D02*
G54D11*
D03*
X628650Y892175D02*
G54D11*
D03*
X625475Y895350D02*
G54D11*
D03*
X622300Y898525D02*
G54D11*
D03*
X619125Y901700D02*
G54D11*
D03*
X603250Y898525D02*
G54D11*
D03*
X593725Y889000D02*
G54D11*
D03*
X590550Y892175D02*
G54D11*
D03*
X600075Y901700D02*
G54D11*
D03*
X600075Y908050D02*
G54D11*
D03*
X596900Y911225D02*
G54D11*
D03*
X593725Y908050D02*
G54D11*
D03*
X590550Y904875D02*
G54D11*
D03*
X587375Y901700D02*
G54D11*
D03*
X584200Y898525D02*
G54D11*
D03*
X581025Y895350D02*
G54D11*
D03*
X584200Y892175D02*
G54D11*
D03*
X635000Y879475D02*
G54D11*
D03*
X631825Y879475D02*
G54D11*
D03*
X628650Y882650D02*
G54D11*
D03*
X625475Y879475D02*
G54D11*
D03*
X622300Y879475D02*
G54D11*
D03*
X619125Y879475D02*
G54D11*
D03*
X615950Y876300D02*
G54D11*
D03*
X612775Y876300D02*
G54D11*
D03*
X609600Y879475D02*
G54D11*
D03*
X606425Y879475D02*
G54D11*
D03*
X603250Y879475D02*
G54D11*
D03*
X600075Y879475D02*
G54D11*
D03*
X596900Y879475D02*
G54D11*
D03*
X593725Y876300D02*
G54D11*
D03*
X577850Y904875D02*
G54D11*
D03*
X577850Y901700D02*
G54D11*
D03*
X577850Y898525D02*
G54D11*
D03*
X574675Y898525D02*
G54D11*
D03*
X574675Y904875D02*
G54D11*
D03*
X571500Y904875D02*
G54D11*
D03*
X571500Y908050D02*
G54D11*
D03*
X571500Y911225D02*
G54D11*
D03*
X568325Y911225D02*
G54D11*
D03*
X565150Y911225D02*
G54D11*
D03*
X565150Y908050D02*
G54D11*
D03*
X565150Y904875D02*
G54D11*
D03*
X561975Y904875D02*
G54D11*
D03*
X558800Y904875D02*
G54D11*
D03*
X558800Y901700D02*
G54D11*
D03*
X558800Y898525D02*
G54D11*
D03*
X561975Y898525D02*
G54D11*
D03*
X565150Y898525D02*
G54D11*
D03*
X571500Y898525D02*
G54D11*
D03*
X571500Y895350D02*
G54D11*
D03*
X571500Y892175D02*
G54D11*
D03*
X568325Y892175D02*
G54D11*
D03*
X565150Y892175D02*
G54D11*
D03*
X565150Y895350D02*
G54D11*
D03*
X615950Y904875D02*
G54D11*
D03*
X609600Y904875D02*
G54D11*
D03*
X606425Y901700D02*
G54D11*
D03*
X590550Y885825D02*
G54D11*
D03*
X587375Y882650D02*
G54D11*
D03*
X587375Y876300D02*
G54D11*
D03*
X590550Y866775D02*
G54D11*
D03*
X587375Y866775D02*
G54D11*
D03*
X584200Y866775D02*
G54D11*
D03*
X581025Y866775D02*
G54D11*
D03*
X577850Y866775D02*
G54D11*
D03*
X584200Y863600D02*
G54D11*
D03*
X584200Y860425D02*
G54D11*
D03*
X584200Y857250D02*
G54D11*
D03*
X584200Y854075D02*
G54D11*
D03*
X584200Y850900D02*
G54D11*
D03*
X587375Y847725D02*
G54D11*
D03*
X590550Y847725D02*
G54D11*
D03*
X593725Y850900D02*
G54D11*
D03*
X574675Y847725D02*
G54D11*
D03*
X571500Y850900D02*
G54D11*
D03*
X571500Y854075D02*
G54D11*
D03*
X571500Y857250D02*
G54D11*
D03*
X571500Y860425D02*
G54D11*
D03*
X568325Y847725D02*
G54D11*
D03*
X565150Y847725D02*
G54D11*
D03*
X561975Y847725D02*
G54D11*
D03*
X561975Y850900D02*
G54D11*
D03*
X561975Y854075D02*
G54D11*
D03*
X561975Y857250D02*
G54D11*
D03*
X561975Y860425D02*
G54D11*
D03*
X555625Y863600D02*
G54D11*
D03*
X555625Y857250D02*
G54D11*
D03*
X555625Y854075D02*
G54D11*
D03*
X555625Y850900D02*
G54D11*
D03*
X555625Y847725D02*
G54D11*
D03*
X549275Y850900D02*
G54D11*
D03*
X549275Y854075D02*
G54D11*
D03*
X549275Y857250D02*
G54D11*
D03*
X546100Y860425D02*
G54D11*
D03*
X542925Y860425D02*
G54D11*
D03*
X546100Y847725D02*
G54D11*
D03*
X542925Y847725D02*
G54D11*
D03*
X539750Y847725D02*
G54D11*
D03*
X539750Y860425D02*
G54D11*
D03*
X533400Y850900D02*
G54D11*
D03*
X533400Y854075D02*
G54D11*
D03*
X533400Y857250D02*
G54D11*
D03*
X530225Y860425D02*
G54D11*
D03*
X527050Y860425D02*
G54D11*
D03*
X523875Y860425D02*
G54D11*
D03*
X530225Y847725D02*
G54D11*
D03*
X527050Y847725D02*
G54D11*
D03*
X523875Y847725D02*
G54D11*
D03*
X520700Y857250D02*
G54D11*
D03*
X520700Y854075D02*
G54D11*
D03*
X523875Y854075D02*
G54D11*
D03*
X527050Y854075D02*
G54D11*
D03*
X530225Y854075D02*
G54D11*
D03*
X622300Y866775D02*
G54D11*
D03*
X619125Y863600D02*
G54D11*
D03*
X615950Y866775D02*
G54D11*
D03*
X619125Y869950D02*
G54D11*
D03*
X609600Y863600D02*
G54D11*
D03*
X631825Y873125D02*
G54D11*
D03*
X603250Y873125D02*
G54D11*
D03*
X619125Y854075D02*
G54D11*
D03*
X635000Y869950D02*
G54D11*
D03*
X574675Y885825D02*
G54D11*
D03*
X571500Y885825D02*
G54D11*
D03*
X568325Y885825D02*
G54D11*
D03*
X565150Y885825D02*
G54D11*
D03*
X561975Y885825D02*
G54D11*
D03*
X561975Y882650D02*
G54D11*
D03*
X561975Y879475D02*
G54D11*
D03*
X565150Y876300D02*
G54D11*
D03*
X568325Y873125D02*
G54D11*
D03*
X571500Y869950D02*
G54D11*
D03*
X558800Y892175D02*
G54D11*
D03*
X558800Y889000D02*
G54D11*
D03*
X555625Y889000D02*
G54D11*
D03*
X555625Y892175D02*
G54D11*
D03*
X552450Y885825D02*
G54D11*
D03*
X549275Y885825D02*
G54D11*
D03*
X546100Y885825D02*
G54D11*
D03*
X542925Y885825D02*
G54D11*
D03*
X539750Y885825D02*
G54D11*
D03*
X552450Y879475D02*
G54D11*
D03*
X549275Y879475D02*
G54D11*
D03*
X546100Y879475D02*
G54D11*
D03*
X542925Y879475D02*
G54D11*
D03*
X539750Y879475D02*
G54D11*
D03*
X539750Y876300D02*
G54D11*
D03*
X542925Y873125D02*
G54D11*
D03*
X546100Y869950D02*
G54D11*
D03*
X552450Y869950D02*
G54D11*
D03*
X549275Y869950D02*
G54D11*
D03*
X533400Y885825D02*
G54D11*
D03*
X530225Y885825D02*
G54D11*
D03*
X527050Y885825D02*
G54D11*
D03*
X523875Y885825D02*
G54D11*
D03*
X520700Y885825D02*
G54D11*
D03*
X520700Y882650D02*
G54D11*
D03*
X523875Y879475D02*
G54D11*
D03*
X527050Y876300D02*
G54D11*
D03*
X530225Y873125D02*
G54D11*
D03*
X533400Y869950D02*
G54D11*
D03*
X523875Y873125D02*
G54D11*
D03*
X520700Y869950D02*
G54D11*
D03*
X612775Y898525D02*
G54D11*
D03*
X615950Y895350D02*
G54D11*
D03*
X558800Y577850D02*
G54D10*
D03*
X584200Y577850D02*
G54D10*
D03*
X609600Y577850D02*
G54D10*
D03*
X635000Y577850D02*
G54D10*
D03*
X558800Y508000D02*
G54D10*
D03*
X584200Y508000D02*
G54D10*
D03*
X609600Y508000D02*
G54D10*
D03*
X635000Y508000D02*
G54D10*
D03*
X368300Y508000D02*
G54D10*
D03*
X393700Y508000D02*
G54D10*
D03*
X419100Y508000D02*
G54D10*
D03*
X444500Y508000D02*
G54D10*
D03*
X368300Y438150D02*
G54D10*
D03*
X393700Y438150D02*
G54D10*
D03*
X419100Y438150D02*
G54D10*
D03*
X444500Y438150D02*
G54D10*
D03*
X558800Y438150D02*
G54D10*
D03*
X584200Y438150D02*
G54D10*
D03*
X609600Y438150D02*
G54D10*
D03*
X635000Y438150D02*
G54D10*
D03*
X368300Y571500D02*
G54D10*
D03*
X368300Y596900D02*
G54D10*
D03*
X368300Y596900D02*
G54D10*
D03*
X619125Y847725D02*
G54D11*
D03*
X644525Y873125D02*
G54D11*
D03*
G36*
X623000Y450150D02*
X647000Y450150D01*
X647000Y426150D01*
X623000Y426150D01*
X623000Y450150D01*
G37*
G36*
X432500Y520000D02*
X456500Y520000D01*
X456500Y496000D01*
X432500Y496000D01*
X432500Y520000D01*
G37*
G36*
X432500Y450150D02*
X456500Y450150D01*
X456500Y426150D01*
X432500Y426150D01*
X432500Y450150D01*
G37*
G36*
X623000Y520000D02*
X647000Y520000D01*
X647000Y496000D01*
X623000Y496000D01*
X623000Y520000D01*
G37*
G36*
X623000Y589850D02*
X647000Y589850D01*
X647000Y565850D01*
X623000Y565850D01*
X623000Y589850D01*
G37*
X501650Y501650D02*
G54D12*
D03*
G36*
X630541Y656000D02*
X654541Y656000D01*
X654541Y614000D01*
X630541Y614000D01*
X630541Y656000D01*
G37*
G36*
X805400Y862480D02*
X794870Y851950D01*
X779930Y851950D01*
X769400Y862480D01*
X769400Y877420D01*
X779930Y887950D01*
X794870Y887950D01*
X805400Y877420D01*
X805400Y862480D01*
G37*
G36*
X754600Y862480D02*
X744070Y851950D01*
X729130Y851950D01*
X718600Y862480D01*
X718600Y877420D01*
X729130Y887950D01*
X744070Y887950D01*
X754600Y877420D01*
X754600Y862480D01*
G37*
X698500Y749300D02*
G54D10*
D03*
X698500Y774700D02*
G54D10*
D03*
X698500Y660400D02*
G54D10*
D03*
X698500Y685800D02*
G54D10*
D03*
G36*
X718600Y877420D02*
X729130Y887950D01*
X744070Y887950D01*
X754600Y877420D01*
X754600Y862480D01*
X744070Y851950D01*
X729130Y851950D01*
X718600Y862480D01*
X718600Y877420D01*
G37*
X698500Y774700D02*
G54D10*
D03*
X698500Y685800D02*
G54D10*
D03*
X869950Y787400D02*
G54D10*
D03*
G36*
X786030Y754950D02*
X793050Y747930D01*
X793050Y737970D01*
X786030Y730950D01*
X776070Y730950D01*
X769050Y737970D01*
X769050Y747930D01*
X776070Y754950D01*
X786030Y754950D01*
G37*
G36*
X786030Y729550D02*
X793050Y722530D01*
X793050Y712570D01*
X786030Y705550D01*
X776070Y705550D01*
X769050Y712570D01*
X769050Y722530D01*
X776070Y729550D01*
X786030Y729550D01*
G37*
G36*
X786030Y704150D02*
X793050Y697130D01*
X793050Y687170D01*
X786030Y680150D01*
X776070Y680150D01*
X769050Y687170D01*
X769050Y697130D01*
X776070Y704150D01*
X786030Y704150D01*
G37*
G36*
X786030Y729550D02*
X793050Y722530D01*
X793050Y712570D01*
X786030Y705550D01*
X776070Y705550D01*
X769050Y712570D01*
X769050Y722530D01*
X776070Y729550D01*
X786030Y729550D01*
G37*
X939800Y787400D02*
G54D10*
D03*
X914797Y787400D02*
G54D10*
D03*
X894953Y787400D02*
G54D10*
D03*
X869950Y787400D02*
G54D10*
D03*
G36*
X993558Y804842D02*
X980103Y791388D01*
X961013Y791388D01*
X947558Y804842D01*
X947558Y823932D01*
X961013Y837388D01*
X980103Y837388D01*
X993558Y823932D01*
X993558Y804842D01*
G37*
G36*
X861994Y804842D02*
X848539Y791387D01*
X829449Y791387D01*
X815994Y804842D01*
X815994Y823932D01*
X829449Y837387D01*
X848539Y837387D01*
X861994Y823932D01*
X861994Y804842D01*
G37*
X974725Y869950D02*
G54D11*
D03*
X971550Y866775D02*
G54D11*
D03*
X968375Y863600D02*
G54D11*
D03*
X965200Y860425D02*
G54D11*
D03*
X974725Y876300D02*
G54D11*
D03*
X971550Y879475D02*
G54D11*
D03*
X968375Y882650D02*
G54D11*
D03*
X965200Y885825D02*
G54D11*
D03*
X962025Y889000D02*
G54D11*
D03*
X962025Y857250D02*
G54D11*
D03*
X958850Y854075D02*
G54D11*
D03*
X955675Y850900D02*
G54D11*
D03*
X952500Y847725D02*
G54D11*
D03*
X946150Y847725D02*
G54D11*
D03*
X942975Y850900D02*
G54D11*
D03*
X939800Y854075D02*
G54D11*
D03*
X936625Y857250D02*
G54D11*
D03*
X933450Y860425D02*
G54D11*
D03*
X930275Y863600D02*
G54D11*
D03*
X927100Y866775D02*
G54D11*
D03*
X923925Y869950D02*
G54D11*
D03*
X920750Y873125D02*
G54D11*
D03*
X958850Y892175D02*
G54D11*
D03*
X955675Y895350D02*
G54D11*
D03*
X952500Y898525D02*
G54D11*
D03*
X949325Y901700D02*
G54D11*
D03*
X933450Y898525D02*
G54D11*
D03*
X923925Y889000D02*
G54D11*
D03*
X920750Y892175D02*
G54D11*
D03*
X930275Y901700D02*
G54D11*
D03*
X930275Y908050D02*
G54D11*
D03*
X927100Y911225D02*
G54D11*
D03*
X923925Y908050D02*
G54D11*
D03*
X920750Y904875D02*
G54D11*
D03*
X917575Y901700D02*
G54D11*
D03*
X914400Y898525D02*
G54D11*
D03*
X911225Y895350D02*
G54D11*
D03*
X914400Y892175D02*
G54D11*
D03*
X965200Y879475D02*
G54D11*
D03*
X962025Y879475D02*
G54D11*
D03*
X958850Y882650D02*
G54D11*
D03*
X955675Y879475D02*
G54D11*
D03*
X952500Y879475D02*
G54D11*
D03*
X949325Y879475D02*
G54D11*
D03*
X946150Y876300D02*
G54D11*
D03*
X942975Y876300D02*
G54D11*
D03*
X939800Y879475D02*
G54D11*
D03*
X936625Y879475D02*
G54D11*
D03*
X933450Y879475D02*
G54D11*
D03*
X930275Y879475D02*
G54D11*
D03*
X927100Y879475D02*
G54D11*
D03*
X923925Y876300D02*
G54D11*
D03*
X908050Y904875D02*
G54D11*
D03*
X908050Y901700D02*
G54D11*
D03*
X908050Y898525D02*
G54D11*
D03*
X904875Y898525D02*
G54D11*
D03*
X904875Y904875D02*
G54D11*
D03*
X901700Y904875D02*
G54D11*
D03*
X901700Y908050D02*
G54D11*
D03*
X901700Y911225D02*
G54D11*
D03*
X898525Y911225D02*
G54D11*
D03*
X895350Y911225D02*
G54D11*
D03*
X895350Y908050D02*
G54D11*
D03*
X895350Y904875D02*
G54D11*
D03*
X892175Y904875D02*
G54D11*
D03*
X889000Y904875D02*
G54D11*
D03*
X889000Y901700D02*
G54D11*
D03*
X889000Y898525D02*
G54D11*
D03*
X892175Y898525D02*
G54D11*
D03*
X895350Y898525D02*
G54D11*
D03*
X901700Y898525D02*
G54D11*
D03*
X901700Y895350D02*
G54D11*
D03*
X901700Y892175D02*
G54D11*
D03*
X898525Y892175D02*
G54D11*
D03*
X895350Y892175D02*
G54D11*
D03*
X895350Y895350D02*
G54D11*
D03*
X946150Y904875D02*
G54D11*
D03*
X939800Y904875D02*
G54D11*
D03*
X936625Y901700D02*
G54D11*
D03*
X920750Y885825D02*
G54D11*
D03*
X917575Y882650D02*
G54D11*
D03*
X917575Y876300D02*
G54D11*
D03*
X920750Y866775D02*
G54D11*
D03*
X917575Y866775D02*
G54D11*
D03*
X914400Y866775D02*
G54D11*
D03*
X911225Y866775D02*
G54D11*
D03*
X908050Y866775D02*
G54D11*
D03*
X914400Y863600D02*
G54D11*
D03*
X914400Y860425D02*
G54D11*
D03*
X914400Y857250D02*
G54D11*
D03*
X914400Y854075D02*
G54D11*
D03*
X914400Y850900D02*
G54D11*
D03*
X917575Y847725D02*
G54D11*
D03*
X920750Y847725D02*
G54D11*
D03*
X923925Y850900D02*
G54D11*
D03*
X904875Y847725D02*
G54D11*
D03*
X901700Y850900D02*
G54D11*
D03*
X901700Y854075D02*
G54D11*
D03*
X901700Y857250D02*
G54D11*
D03*
X901700Y860425D02*
G54D11*
D03*
X898525Y847725D02*
G54D11*
D03*
X895350Y847725D02*
G54D11*
D03*
X892175Y847725D02*
G54D11*
D03*
X892175Y850900D02*
G54D11*
D03*
X892175Y854075D02*
G54D11*
D03*
X892175Y857250D02*
G54D11*
D03*
X892175Y860425D02*
G54D11*
D03*
X885825Y863600D02*
G54D11*
D03*
X885825Y857250D02*
G54D11*
D03*
X885825Y854075D02*
G54D11*
D03*
X885825Y850900D02*
G54D11*
D03*
X885825Y847725D02*
G54D11*
D03*
X879475Y850900D02*
G54D11*
D03*
X879475Y854075D02*
G54D11*
D03*
X879475Y857250D02*
G54D11*
D03*
X876300Y860425D02*
G54D11*
D03*
X873125Y860425D02*
G54D11*
D03*
X876300Y847725D02*
G54D11*
D03*
X873125Y847725D02*
G54D11*
D03*
X869950Y847725D02*
G54D11*
D03*
X869950Y860425D02*
G54D11*
D03*
X863600Y850900D02*
G54D11*
D03*
X863600Y854075D02*
G54D11*
D03*
X863600Y857250D02*
G54D11*
D03*
X860425Y860425D02*
G54D11*
D03*
X857250Y860425D02*
G54D11*
D03*
X854075Y860425D02*
G54D11*
D03*
X860425Y847725D02*
G54D11*
D03*
X857250Y847725D02*
G54D11*
D03*
X854075Y847725D02*
G54D11*
D03*
X850900Y857250D02*
G54D11*
D03*
X850900Y854075D02*
G54D11*
D03*
X854075Y854075D02*
G54D11*
D03*
X857250Y854075D02*
G54D11*
D03*
X860425Y854075D02*
G54D11*
D03*
X952500Y866775D02*
G54D11*
D03*
X949325Y863600D02*
G54D11*
D03*
X946150Y866775D02*
G54D11*
D03*
X949325Y869950D02*
G54D11*
D03*
X939800Y863600D02*
G54D11*
D03*
X962025Y873125D02*
G54D11*
D03*
X933450Y873125D02*
G54D11*
D03*
X949325Y854075D02*
G54D11*
D03*
X965200Y869950D02*
G54D11*
D03*
X904875Y885825D02*
G54D11*
D03*
X901700Y885825D02*
G54D11*
D03*
X898525Y885825D02*
G54D11*
D03*
X895350Y885825D02*
G54D11*
D03*
X892175Y885825D02*
G54D11*
D03*
X892175Y882650D02*
G54D11*
D03*
X892175Y879475D02*
G54D11*
D03*
X895350Y876300D02*
G54D11*
D03*
X898525Y873125D02*
G54D11*
D03*
X901700Y869950D02*
G54D11*
D03*
X889000Y892175D02*
G54D11*
D03*
X889000Y889000D02*
G54D11*
D03*
X885825Y889000D02*
G54D11*
D03*
X885825Y892175D02*
G54D11*
D03*
X882650Y885825D02*
G54D11*
D03*
X879475Y885825D02*
G54D11*
D03*
X876300Y885825D02*
G54D11*
D03*
X873125Y885825D02*
G54D11*
D03*
X869950Y885825D02*
G54D11*
D03*
X882650Y879475D02*
G54D11*
D03*
X879475Y879475D02*
G54D11*
D03*
X876300Y879475D02*
G54D11*
D03*
X873125Y879475D02*
G54D11*
D03*
X869950Y879475D02*
G54D11*
D03*
X869950Y876300D02*
G54D11*
D03*
X873125Y873125D02*
G54D11*
D03*
X876300Y869950D02*
G54D11*
D03*
X882650Y869950D02*
G54D11*
D03*
X879475Y869950D02*
G54D11*
D03*
X863600Y885825D02*
G54D11*
D03*
X860425Y885825D02*
G54D11*
D03*
X857250Y885825D02*
G54D11*
D03*
X854075Y885825D02*
G54D11*
D03*
X850900Y885825D02*
G54D11*
D03*
X850900Y882650D02*
G54D11*
D03*
X854075Y879475D02*
G54D11*
D03*
X857250Y876300D02*
G54D11*
D03*
X860425Y873125D02*
G54D11*
D03*
X863600Y869950D02*
G54D11*
D03*
X854075Y873125D02*
G54D11*
D03*
X850900Y869950D02*
G54D11*
D03*
X942975Y898525D02*
G54D11*
D03*
X946150Y895350D02*
G54D11*
D03*
X889000Y577850D02*
G54D10*
D03*
X914400Y577850D02*
G54D10*
D03*
X939800Y577850D02*
G54D10*
D03*
X965200Y577850D02*
G54D10*
D03*
X889000Y508000D02*
G54D10*
D03*
X914400Y508000D02*
G54D10*
D03*
X939800Y508000D02*
G54D10*
D03*
X965200Y508000D02*
G54D10*
D03*
X698500Y508000D02*
G54D10*
D03*
X723900Y508000D02*
G54D10*
D03*
X749300Y508000D02*
G54D10*
D03*
X774700Y508000D02*
G54D10*
D03*
X698500Y438150D02*
G54D10*
D03*
X723900Y438150D02*
G54D10*
D03*
X749300Y438150D02*
G54D10*
D03*
X774700Y438150D02*
G54D10*
D03*
X889000Y438150D02*
G54D10*
D03*
X914400Y438150D02*
G54D10*
D03*
X939800Y438150D02*
G54D10*
D03*
X965200Y438150D02*
G54D10*
D03*
X698500Y571500D02*
G54D10*
D03*
X698500Y596900D02*
G54D10*
D03*
X698500Y596900D02*
G54D10*
D03*
X949325Y847725D02*
G54D11*
D03*
X974725Y873125D02*
G54D11*
D03*
G36*
X953200Y450150D02*
X977200Y450150D01*
X977200Y426150D01*
X953200Y426150D01*
X953200Y450150D01*
G37*
G36*
X762700Y520000D02*
X786700Y520000D01*
X786700Y496000D01*
X762700Y496000D01*
X762700Y520000D01*
G37*
G36*
X762700Y450150D02*
X786700Y450150D01*
X786700Y426150D01*
X762700Y426150D01*
X762700Y450150D01*
G37*
G36*
X953200Y520000D02*
X977200Y520000D01*
X977200Y496000D01*
X953200Y496000D01*
X953200Y520000D01*
G37*
G36*
X953200Y589850D02*
X977200Y589850D01*
X977200Y565850D01*
X953200Y565850D01*
X953200Y589850D01*
G37*
X831850Y501650D02*
G54D12*
D03*
G36*
X960741Y656000D02*
X984741Y656000D01*
X984741Y614000D01*
X960741Y614000D01*
X960741Y656000D01*
G37*
M02*
