%FSLAX34Y34*%
%MOMM*%
%LNSILK_BOTTOM_*%
G71*
G01*
%ADD10C, 0.19*%
%ADD11C, 0.10*%
%ADD12R, 0.27X0.27*%
%ADD13C, 0.11*%
%LPD*%
G54D10*
X197142Y462538D02*
X212253Y462538D01*
G54D10*
X203186Y462538D02*
X205075Y463671D01*
X205642Y465938D01*
X205075Y468204D01*
X203186Y469338D01*
X197142Y469338D01*
G54D10*
X212253Y475760D02*
X198086Y475760D01*
X197142Y476894D01*
X197520Y478027D01*
G54D10*
X205642Y473494D02*
X205642Y478027D01*
G54D10*
X212253Y484449D02*
X198086Y484449D01*
X197142Y485583D01*
X197520Y486716D01*
G54D10*
X205642Y482183D02*
X205642Y486716D01*
G54D10*
X205642Y490872D02*
X193364Y490872D01*
G54D10*
X199975Y490872D02*
X197520Y492005D01*
X197142Y494272D01*
X197520Y496538D01*
X199408Y497672D01*
X203186Y497672D01*
X205075Y496538D01*
X205642Y494272D01*
X205075Y492005D01*
X202808Y490872D01*
G54D10*
X198086Y501828D02*
X197142Y504094D01*
X197142Y506361D01*
X198086Y508628D01*
X199975Y508628D01*
X200920Y507494D01*
X201864Y502961D01*
X202808Y501828D01*
X204697Y501828D01*
X205642Y504094D01*
X205642Y506361D01*
X204697Y508628D01*
G54D10*
X197142Y512784D02*
X197142Y512784D01*
G54D10*
X205642Y512784D02*
X205642Y512784D01*
G54D10*
X197142Y516940D02*
X212253Y526006D01*
G54D10*
X197142Y530163D02*
X212253Y539229D01*
G54D10*
X194308Y543386D02*
X193364Y545652D01*
X193364Y547239D01*
X194308Y549506D01*
X196197Y550186D01*
X205642Y550186D01*
G54D10*
X203186Y550186D02*
X205075Y549052D01*
X205642Y546786D01*
X205075Y544519D01*
X203186Y543386D01*
X199408Y543386D01*
X197520Y544519D01*
X197142Y546786D01*
X197520Y549052D01*
X199408Y550186D01*
G54D10*
X197142Y554342D02*
X205642Y554342D01*
G54D10*
X208475Y554342D02*
X208475Y554342D01*
G54D10*
X212253Y560764D02*
X198086Y560764D01*
X197142Y561898D01*
X197520Y563031D01*
G54D10*
X205642Y558498D02*
X205642Y563031D01*
G54D10*
X197142Y567187D02*
X212253Y567187D01*
G54D10*
X203186Y567187D02*
X205075Y568320D01*
X205642Y570587D01*
X205075Y572853D01*
X203186Y573987D01*
X197142Y573987D01*
G54D10*
X205642Y584943D02*
X197142Y584943D01*
G54D10*
X199030Y584943D02*
X197520Y583809D01*
X197142Y581543D01*
X197520Y579276D01*
X199030Y578143D01*
X205642Y578143D01*
G54D10*
X197142Y589099D02*
X212253Y589099D01*
G54D10*
X203186Y589099D02*
X205075Y590232D01*
X205642Y592499D01*
X205075Y594765D01*
X203186Y595899D01*
X199408Y595899D01*
X197520Y594765D01*
X197142Y592499D01*
X197520Y590232D01*
X199408Y589099D01*
G54D10*
X197142Y600055D02*
X197142Y600055D01*
G54D10*
X205075Y609877D02*
X205642Y607611D01*
X205075Y605344D01*
X203186Y604211D01*
X199408Y604211D01*
X197520Y605344D01*
X197142Y607611D01*
X197520Y609877D01*
G54D10*
X199408Y620834D02*
X203186Y620834D01*
X205075Y619700D01*
X205642Y617434D01*
X205075Y615167D01*
X203186Y614034D01*
X199408Y614034D01*
X197520Y615167D01*
X197142Y617434D01*
X197520Y619700D01*
X199408Y620834D01*
G54D10*
X197142Y624990D02*
X205642Y624990D01*
G54D10*
X204130Y624990D02*
X205642Y627256D01*
X205075Y629523D01*
X203753Y630656D01*
X197142Y630656D01*
G54D10*
X204130Y630656D02*
X205642Y632923D01*
X205075Y635190D01*
X203753Y636323D01*
X197142Y636323D01*
G54D10*
X197142Y640479D02*
X212253Y649545D01*
G54D10*
X199975Y662769D02*
X198086Y661635D01*
X197142Y659369D01*
X197142Y657102D01*
X198086Y654835D01*
X199975Y653702D01*
X209420Y653702D01*
X211308Y654835D01*
X212253Y657102D01*
X212253Y659369D01*
X211308Y661635D01*
X209420Y662769D01*
G54D10*
X197142Y666925D02*
X212253Y666925D01*
G54D10*
X203186Y666925D02*
X205075Y668058D01*
X205642Y670325D01*
X205075Y672592D01*
X203186Y673725D01*
X197142Y673725D01*
G54D10*
X197142Y677881D02*
X205642Y677881D01*
G54D10*
X208475Y677881D02*
X208475Y677881D01*
G54D10*
X205642Y682037D02*
X193364Y682037D01*
G54D10*
X199975Y682037D02*
X197520Y683170D01*
X197142Y685437D01*
X197520Y687704D01*
X199408Y688837D01*
X203186Y688837D01*
X205075Y687704D01*
X205642Y685437D01*
X205075Y683170D01*
X202808Y682037D01*
G54D10*
X197142Y697526D02*
X212253Y697526D01*
G54D10*
X212253Y692993D02*
X212253Y702060D01*
G54D10*
X198086Y713016D02*
X197142Y711203D01*
X197142Y708936D01*
X198086Y706669D01*
X199975Y706216D01*
X203186Y706216D01*
X205075Y707349D01*
X205642Y709616D01*
X205075Y711883D01*
X203753Y713016D01*
X201864Y713016D01*
X201864Y706216D01*
G54D10*
X205075Y722839D02*
X205642Y720572D01*
X205075Y718305D01*
X203186Y717172D01*
X199408Y717172D01*
X197520Y718305D01*
X197142Y720572D01*
X197520Y722839D01*
G54D10*
X197142Y726995D02*
X212253Y726995D01*
G54D10*
X203186Y726995D02*
X205075Y728128D01*
X205642Y730395D01*
X205075Y732662D01*
X203186Y733795D01*
X197142Y733795D01*
G54D10*
X197142Y737951D02*
X205642Y737951D01*
G54D10*
X203753Y737951D02*
X205075Y739084D01*
X205642Y741351D01*
X205075Y743618D01*
X203753Y744751D01*
X197142Y744751D01*
G54D10*
X199408Y755707D02*
X203186Y755707D01*
X205075Y754574D01*
X205642Y752307D01*
X205075Y750040D01*
X203186Y748907D01*
X199408Y748907D01*
X197520Y750040D01*
X197142Y752307D01*
X197520Y754574D01*
X199408Y755707D01*
G54D10*
X197142Y759863D02*
X212253Y768930D01*
G54D10*
X189842Y699407D02*
X177564Y699407D01*
X175675Y698273D01*
X174730Y696007D01*
X174730Y693740D01*
X175675Y691473D01*
X177564Y690340D01*
G54D10*
X183230Y710363D02*
X174730Y710363D01*
G54D10*
X176619Y710363D02*
X175108Y709230D01*
X174730Y706963D01*
X175108Y704696D01*
X176619Y703563D01*
X183230Y703563D01*
G54D10*
X174730Y714519D02*
X183230Y714519D01*
G54D10*
X186064Y714519D02*
X186064Y714519D01*
G54D10*
X182664Y724342D02*
X183230Y722075D01*
X182664Y719808D01*
X180775Y718675D01*
X176997Y718675D01*
X175108Y719808D01*
X174730Y722075D01*
X175108Y724342D01*
G54D10*
X175675Y735298D02*
X174730Y733485D01*
X174730Y731218D01*
X175675Y728951D01*
X177564Y728498D01*
X180775Y728498D01*
X182664Y729631D01*
X183230Y731898D01*
X182664Y734165D01*
X181342Y735298D01*
X179453Y735298D01*
X179453Y728498D01*
G54D10*
X181342Y739454D02*
X181342Y748521D01*
G54D10*
X183230Y752677D02*
X170953Y752677D01*
G54D10*
X177564Y752677D02*
X175108Y753810D01*
X174730Y756077D01*
X175108Y758344D01*
X176997Y759477D01*
X180775Y759477D01*
X182664Y758344D01*
X183230Y756077D01*
X182664Y753810D01*
X180397Y752677D01*
G54D10*
X174730Y763633D02*
X189842Y763633D01*
G54D10*
X183230Y774589D02*
X174730Y774589D01*
G54D10*
X176619Y774589D02*
X175108Y773456D01*
X174730Y771189D01*
X175108Y768922D01*
X176619Y767789D01*
X183230Y767789D01*
G54D10*
X175675Y778745D02*
X174730Y781012D01*
X174730Y783278D01*
X175675Y785545D01*
X177564Y785545D01*
X178508Y784412D01*
X179453Y779878D01*
X180397Y778745D01*
X182286Y778745D01*
X183230Y781012D01*
X183230Y783278D01*
X182286Y785545D01*
G54D11*
X147642Y810376D02*
X147642Y799264D01*
X137323Y796883D01*
X134148Y789342D01*
X140102Y780214D01*
X132958Y772276D01*
X125020Y778626D01*
X117083Y775055D01*
X115495Y763942D01*
X104780Y763942D01*
X103589Y773864D01*
X95255Y777436D01*
X87714Y772276D01*
X80173Y779817D01*
X85730Y788548D01*
X82952Y792914D01*
X99620Y800455D01*
G54D11*
X99620Y809186D02*
X83348Y816726D01*
X85333Y821092D01*
X79776Y829426D01*
X87317Y837761D01*
X95255Y831808D01*
X103589Y835380D01*
X104780Y845698D01*
X115495Y845302D01*
X117480Y834586D01*
X123830Y831808D01*
X132164Y837761D01*
X139704Y829823D01*
X134148Y820695D01*
X137323Y811964D01*
X147642Y810376D01*
G54D11*
G75*
G01X100305Y800724D02*
G03X100305Y808929I9665J4102D01*
G01*
G36*
X115495Y845302D02*
X117480Y834586D01*
X123830Y831808D01*
X132164Y837761D01*
X139704Y829823D01*
X134148Y820695D01*
X137323Y811964D01*
X147642Y810376D01*
X147642Y799264D01*
X137323Y796883D01*
X134148Y789342D01*
X140102Y780214D01*
X132958Y772276D01*
X125020Y778626D01*
X117083Y775055D01*
X115495Y763942D01*
X104780Y763942D01*
X103589Y773864D01*
X95255Y777436D01*
X87714Y772276D01*
X80173Y779817D01*
X85730Y788548D01*
X82952Y792914D01*
X100414Y800852D01*
X100811Y799661D01*
X101605Y798470D01*
X103986Y796089D01*
X107161Y794502D01*
X109145Y794105D01*
X110733Y794105D01*
X113114Y794502D01*
X115892Y795692D01*
X118670Y798073D01*
X119861Y800058D01*
X120654Y802042D01*
X121052Y804423D01*
X120654Y806805D01*
X119861Y809980D01*
X117480Y812758D01*
X113511Y815536D01*
X107161Y815536D01*
X104780Y814345D01*
X102398Y812758D01*
X100414Y810376D01*
X100414Y808789D01*
X83348Y816726D01*
X85333Y821092D01*
X79776Y829426D01*
X87317Y837761D01*
X95255Y831808D01*
X115495Y845302D01*
G37*
G54D11*
X115495Y845302D02*
X117480Y834586D01*
X123830Y831808D01*
X132164Y837761D01*
X139704Y829823D01*
X134148Y820695D01*
X137323Y811964D01*
X147642Y810376D01*
X147642Y799264D01*
X137323Y796883D01*
X134148Y789342D01*
X140102Y780214D01*
X132958Y772276D01*
X125020Y778626D01*
X117083Y775055D01*
X115495Y763942D01*
X104780Y763942D01*
X103589Y773864D01*
X95255Y777436D01*
X87714Y772276D01*
X80173Y779817D01*
X85730Y788548D01*
X82952Y792914D01*
X100414Y800852D01*
X100811Y799661D01*
X101605Y798470D01*
X103986Y796089D01*
X107161Y794502D01*
X109145Y794105D01*
X110733Y794105D01*
X113114Y794502D01*
X115892Y795692D01*
X118670Y798073D01*
X119861Y800058D01*
X120654Y802042D01*
X121052Y804423D01*
X120654Y806805D01*
X119861Y809980D01*
X117480Y812758D01*
X113511Y815536D01*
X107161Y815536D01*
X104780Y814345D01*
X102398Y812758D01*
X100414Y810376D01*
X100414Y808789D01*
X83348Y816726D01*
X85333Y821092D01*
X79776Y829426D01*
X87317Y837761D01*
X95255Y831808D01*
X115495Y845302D01*
G36*
X115495Y845302D02*
X104780Y845698D01*
X103589Y835380D01*
X115495Y845302D01*
G37*
G54D11*
X115495Y845302D02*
X104780Y845698D01*
X103589Y835380D01*
X115495Y845302D01*
G54D10*
X68969Y788084D02*
X59524Y788084D01*
X57636Y786951D01*
X56691Y784684D01*
X56691Y782418D01*
X57636Y780151D01*
X59524Y779018D01*
X68969Y779018D01*
X70858Y780151D01*
X71802Y782418D01*
X71802Y784684D01*
X70858Y786951D01*
X68969Y788084D01*
G54D10*
X59524Y792241D02*
X57636Y793374D01*
X56691Y795641D01*
X56691Y797907D01*
X57636Y800174D01*
X59524Y801307D01*
X61413Y801307D01*
X63302Y800174D01*
X64246Y797907D01*
X64246Y795641D01*
X65191Y793374D01*
X67080Y792241D01*
X68969Y792241D01*
X70858Y793374D01*
X71802Y795641D01*
X71802Y797907D01*
X70858Y800174D01*
X68969Y801307D01*
G54D10*
X56691Y805464D02*
X71802Y805464D01*
G54D10*
X56691Y814530D02*
X71802Y814530D01*
G54D10*
X64246Y805464D02*
X64246Y814530D01*
G54D10*
X71802Y818687D02*
X56691Y818687D01*
X66136Y824353D01*
X56691Y830020D01*
X71802Y830020D01*
X123825Y541338D02*
G54D12*
D03*
X120650Y544512D02*
G54D12*
D03*
X117475Y547688D02*
G54D12*
D03*
X114300Y550863D02*
G54D12*
D03*
X130175Y541338D02*
G54D12*
D03*
X133350Y544512D02*
G54D12*
D03*
X136525Y547688D02*
G54D12*
D03*
X139700Y550862D02*
G54D12*
D03*
X142875Y554038D02*
G54D12*
D03*
X111125Y554038D02*
G54D12*
D03*
X107950Y557213D02*
G54D12*
D03*
X104775Y560388D02*
G54D12*
D03*
X101600Y563563D02*
G54D12*
D03*
X101600Y569912D02*
G54D12*
D03*
X104775Y573088D02*
G54D12*
D03*
X107950Y576262D02*
G54D12*
D03*
X111125Y579438D02*
G54D12*
D03*
X114300Y582613D02*
G54D12*
D03*
X117475Y585788D02*
G54D12*
D03*
X120650Y588963D02*
G54D12*
D03*
X123825Y592138D02*
G54D12*
D03*
X127000Y595313D02*
G54D12*
D03*
X146050Y557213D02*
G54D12*
D03*
X149225Y560388D02*
G54D12*
D03*
X152400Y563563D02*
G54D12*
D03*
X155575Y566738D02*
G54D12*
D03*
X152400Y582613D02*
G54D12*
D03*
X142875Y592138D02*
G54D12*
D03*
X146050Y595313D02*
G54D12*
D03*
X155575Y585788D02*
G54D12*
D03*
X161925Y585788D02*
G54D12*
D03*
X165100Y588962D02*
G54D12*
D03*
X161925Y592138D02*
G54D12*
D03*
X158750Y595313D02*
G54D12*
D03*
X155575Y598488D02*
G54D12*
D03*
X152400Y601662D02*
G54D12*
D03*
X149225Y604838D02*
G54D12*
D03*
X146050Y601662D02*
G54D12*
D03*
X133350Y550862D02*
G54D12*
D03*
X133350Y554038D02*
G54D12*
D03*
X136525Y557213D02*
G54D12*
D03*
X133350Y560388D02*
G54D12*
D03*
X133350Y563563D02*
G54D12*
D03*
X133350Y566738D02*
G54D12*
D03*
X130175Y569913D02*
G54D12*
D03*
X130175Y573088D02*
G54D12*
D03*
X133350Y576263D02*
G54D12*
D03*
X133350Y579438D02*
G54D12*
D03*
X133350Y582613D02*
G54D12*
D03*
X133350Y585788D02*
G54D12*
D03*
X133350Y588963D02*
G54D12*
D03*
X130175Y592138D02*
G54D12*
D03*
X158750Y608013D02*
G54D12*
D03*
X155575Y608013D02*
G54D12*
D03*
X152400Y608013D02*
G54D12*
D03*
X152400Y611188D02*
G54D12*
D03*
X158750Y611188D02*
G54D12*
D03*
X158750Y614363D02*
G54D12*
D03*
X161925Y614363D02*
G54D12*
D03*
X165100Y614363D02*
G54D12*
D03*
X165100Y617538D02*
G54D12*
D03*
X165100Y620713D02*
G54D12*
D03*
X161925Y620713D02*
G54D12*
D03*
X158750Y620713D02*
G54D12*
D03*
X158750Y623888D02*
G54D12*
D03*
X158750Y627063D02*
G54D12*
D03*
X155575Y627063D02*
G54D12*
D03*
X152400Y627063D02*
G54D12*
D03*
X152400Y623888D02*
G54D12*
D03*
X152400Y620713D02*
G54D12*
D03*
X152400Y614363D02*
G54D12*
D03*
X149225Y614363D02*
G54D12*
D03*
X146050Y614363D02*
G54D12*
D03*
X146050Y617538D02*
G54D12*
D03*
X146050Y620713D02*
G54D12*
D03*
X149225Y620713D02*
G54D12*
D03*
X158750Y569912D02*
G54D12*
D03*
X158750Y576262D02*
G54D12*
D03*
X155575Y579438D02*
G54D12*
D03*
X139700Y595313D02*
G54D12*
D03*
X136525Y598488D02*
G54D12*
D03*
X130175Y598488D02*
G54D12*
D03*
X120650Y595313D02*
G54D12*
D03*
X120650Y598488D02*
G54D12*
D03*
X120650Y601662D02*
G54D12*
D03*
X120650Y604838D02*
G54D12*
D03*
X120650Y608012D02*
G54D12*
D03*
X117475Y601662D02*
G54D12*
D03*
X114300Y601662D02*
G54D12*
D03*
X111125Y601663D02*
G54D12*
D03*
X107950Y601663D02*
G54D12*
D03*
X104775Y601663D02*
G54D12*
D03*
X101600Y598488D02*
G54D12*
D03*
X101600Y595313D02*
G54D12*
D03*
X104775Y592138D02*
G54D12*
D03*
X101600Y611188D02*
G54D12*
D03*
X104775Y614363D02*
G54D12*
D03*
X107950Y614363D02*
G54D12*
D03*
X111125Y614363D02*
G54D12*
D03*
X114300Y614363D02*
G54D12*
D03*
X101600Y617538D02*
G54D12*
D03*
X101600Y620713D02*
G54D12*
D03*
X101600Y623888D02*
G54D12*
D03*
X104775Y623888D02*
G54D12*
D03*
X107950Y623888D02*
G54D12*
D03*
X111125Y623888D02*
G54D12*
D03*
X114300Y623888D02*
G54D12*
D03*
X117475Y630238D02*
G54D12*
D03*
X111125Y630238D02*
G54D12*
D03*
X107950Y630238D02*
G54D12*
D03*
X104775Y630238D02*
G54D12*
D03*
X101600Y630238D02*
G54D12*
D03*
X104775Y636588D02*
G54D12*
D03*
X107950Y636588D02*
G54D12*
D03*
X111125Y636588D02*
G54D12*
D03*
X114300Y639762D02*
G54D12*
D03*
X114300Y642938D02*
G54D12*
D03*
X101600Y639762D02*
G54D12*
D03*
X101600Y642938D02*
G54D12*
D03*
X101600Y646112D02*
G54D12*
D03*
X114300Y646113D02*
G54D12*
D03*
X104775Y652463D02*
G54D12*
D03*
X107950Y652463D02*
G54D12*
D03*
X111125Y652463D02*
G54D12*
D03*
X114300Y655638D02*
G54D12*
D03*
X114300Y658812D02*
G54D12*
D03*
X114300Y661988D02*
G54D12*
D03*
X101600Y655638D02*
G54D12*
D03*
X101600Y658813D02*
G54D12*
D03*
X101600Y661988D02*
G54D12*
D03*
X111125Y665163D02*
G54D12*
D03*
X107950Y665163D02*
G54D12*
D03*
X107950Y661988D02*
G54D12*
D03*
X107950Y658812D02*
G54D12*
D03*
X107950Y655638D02*
G54D12*
D03*
X120650Y563563D02*
G54D12*
D03*
X117475Y566738D02*
G54D12*
D03*
X120650Y569912D02*
G54D12*
D03*
X123825Y566738D02*
G54D12*
D03*
X117475Y576263D02*
G54D12*
D03*
X127000Y554038D02*
G54D12*
D03*
X127000Y582613D02*
G54D12*
D03*
X107950Y566738D02*
G54D12*
D03*
X123825Y550863D02*
G54D12*
D03*
X139700Y611188D02*
G54D12*
D03*
X139700Y614363D02*
G54D12*
D03*
X139700Y617538D02*
G54D12*
D03*
X139700Y620713D02*
G54D12*
D03*
X139700Y623888D02*
G54D12*
D03*
X136525Y623888D02*
G54D12*
D03*
X133350Y623888D02*
G54D12*
D03*
X130175Y620713D02*
G54D12*
D03*
X127000Y617538D02*
G54D12*
D03*
X123825Y614363D02*
G54D12*
D03*
X146050Y627063D02*
G54D12*
D03*
X142875Y627063D02*
G54D12*
D03*
X142875Y630238D02*
G54D12*
D03*
X146050Y630238D02*
G54D12*
D03*
X139700Y633413D02*
G54D12*
D03*
X139700Y636588D02*
G54D12*
D03*
X139700Y639763D02*
G54D12*
D03*
X139700Y642938D02*
G54D12*
D03*
X139700Y646113D02*
G54D12*
D03*
X133350Y633413D02*
G54D12*
D03*
X133350Y636588D02*
G54D12*
D03*
X133350Y639763D02*
G54D12*
D03*
X133350Y642938D02*
G54D12*
D03*
X133350Y646113D02*
G54D12*
D03*
X130175Y646113D02*
G54D12*
D03*
X127000Y642938D02*
G54D12*
D03*
X123825Y639763D02*
G54D12*
D03*
X123825Y633413D02*
G54D12*
D03*
X123825Y636588D02*
G54D12*
D03*
X139700Y652463D02*
G54D12*
D03*
X139700Y655638D02*
G54D12*
D03*
X139700Y658812D02*
G54D12*
D03*
X139700Y661988D02*
G54D12*
D03*
X139700Y665163D02*
G54D12*
D03*
X136525Y665162D02*
G54D12*
D03*
X133350Y661988D02*
G54D12*
D03*
X130175Y658812D02*
G54D12*
D03*
X127000Y655638D02*
G54D12*
D03*
X123825Y652463D02*
G54D12*
D03*
X127000Y661988D02*
G54D12*
D03*
X123825Y665162D02*
G54D12*
D03*
X152400Y573088D02*
G54D12*
D03*
X149225Y569912D02*
G54D12*
D03*
G54D13*
X153670Y639254D02*
X152558Y641254D01*
X151447Y641921D01*
X149225Y641921D01*
G54D13*
X149225Y636588D02*
X158114Y636588D01*
X158114Y639921D01*
X157558Y641254D01*
X156447Y641921D01*
X155336Y641921D01*
X154225Y641254D01*
X153670Y639921D01*
X153670Y636588D01*
G54D13*
X149780Y648365D02*
X149225Y647298D01*
X149225Y645965D01*
X149780Y644631D01*
X150892Y644365D01*
X152780Y644365D01*
X153892Y645031D01*
X154225Y646365D01*
X153892Y647698D01*
X153114Y648365D01*
X152003Y648365D01*
X152003Y644365D01*
G54D13*
X154225Y650809D02*
X149225Y653475D01*
X154225Y656142D01*
G54D13*
X149225Y658586D02*
X149225Y658586D01*
G54D13*
X149225Y666363D02*
X149225Y661030D01*
X149780Y661030D01*
X150892Y661696D01*
X154225Y665696D01*
X155336Y666363D01*
X156447Y666363D01*
X157558Y665696D01*
X158114Y664363D01*
X158114Y663030D01*
X157558Y661696D01*
X156447Y661030D01*
G54D13*
X149225Y668806D02*
X149225Y668806D01*
G54D13*
X156447Y676584D02*
X150892Y676584D01*
X149780Y675917D01*
X149225Y674584D01*
X149225Y673250D01*
X149780Y671917D01*
X150892Y671251D01*
X156447Y671250D01*
X157558Y671917D01*
X158114Y673250D01*
X158114Y674584D01*
X157558Y675917D01*
X156447Y676584D01*
X127000Y541338D02*
G54D12*
D03*
X101600Y566738D02*
G54D12*
D03*
G54D10*
X527342Y462538D02*
X542453Y462538D01*
G54D10*
X533386Y462538D02*
X535275Y463671D01*
X535842Y465938D01*
X535275Y468204D01*
X533386Y469338D01*
X527342Y469338D01*
G54D10*
X542453Y475760D02*
X528286Y475760D01*
X527342Y476894D01*
X527720Y478027D01*
G54D10*
X535842Y473494D02*
X535842Y478027D01*
G54D10*
X542453Y484449D02*
X528286Y484449D01*
X527342Y485583D01*
X527720Y486716D01*
G54D10*
X535842Y482183D02*
X535842Y486716D01*
G54D10*
X535842Y490872D02*
X523564Y490872D01*
G54D10*
X530175Y490872D02*
X527720Y492005D01*
X527342Y494272D01*
X527720Y496538D01*
X529608Y497672D01*
X533386Y497672D01*
X535275Y496538D01*
X535842Y494272D01*
X535275Y492005D01*
X533008Y490872D01*
G54D10*
X528286Y501828D02*
X527342Y504094D01*
X527342Y506361D01*
X528286Y508628D01*
X530175Y508628D01*
X531120Y507494D01*
X532064Y502961D01*
X533008Y501828D01*
X534897Y501828D01*
X535842Y504094D01*
X535842Y506361D01*
X534897Y508628D01*
G54D10*
X527342Y512784D02*
X527342Y512784D01*
G54D10*
X535842Y512784D02*
X535842Y512784D01*
G54D10*
X527342Y516940D02*
X542453Y526006D01*
G54D10*
X527342Y530163D02*
X542453Y539229D01*
G54D10*
X524508Y543386D02*
X523564Y545652D01*
X523564Y547239D01*
X524508Y549506D01*
X526397Y550186D01*
X535842Y550186D01*
G54D10*
X533386Y550186D02*
X535275Y549052D01*
X535842Y546786D01*
X535275Y544519D01*
X533386Y543386D01*
X529608Y543386D01*
X527720Y544519D01*
X527342Y546786D01*
X527720Y549052D01*
X529608Y550186D01*
G54D10*
X527342Y554342D02*
X535842Y554342D01*
G54D10*
X538675Y554342D02*
X538675Y554342D01*
G54D10*
X542453Y560764D02*
X528286Y560764D01*
X527342Y561898D01*
X527720Y563031D01*
G54D10*
X535842Y558498D02*
X535842Y563031D01*
G54D10*
X527342Y567187D02*
X542453Y567187D01*
G54D10*
X533386Y567187D02*
X535275Y568320D01*
X535842Y570587D01*
X535275Y572853D01*
X533386Y573987D01*
X527342Y573987D01*
G54D10*
X535842Y584943D02*
X527342Y584943D01*
G54D10*
X529230Y584943D02*
X527720Y583809D01*
X527342Y581543D01*
X527720Y579276D01*
X529230Y578143D01*
X535842Y578143D01*
G54D10*
X527342Y589099D02*
X542453Y589099D01*
G54D10*
X533386Y589099D02*
X535275Y590232D01*
X535842Y592499D01*
X535275Y594765D01*
X533386Y595899D01*
X529608Y595899D01*
X527720Y594765D01*
X527342Y592499D01*
X527720Y590232D01*
X529608Y589099D01*
G54D10*
X527342Y600055D02*
X527342Y600055D01*
G54D10*
X535275Y609877D02*
X535842Y607611D01*
X535275Y605344D01*
X533386Y604211D01*
X529608Y604211D01*
X527720Y605344D01*
X527342Y607611D01*
X527720Y609877D01*
G54D10*
X529608Y620834D02*
X533386Y620834D01*
X535275Y619700D01*
X535842Y617434D01*
X535275Y615167D01*
X533386Y614034D01*
X529608Y614034D01*
X527720Y615167D01*
X527342Y617434D01*
X527720Y619700D01*
X529608Y620834D01*
G54D10*
X527342Y624990D02*
X535842Y624990D01*
G54D10*
X534330Y624990D02*
X535842Y627256D01*
X535275Y629523D01*
X533953Y630656D01*
X527342Y630656D01*
G54D10*
X534330Y630656D02*
X535842Y632923D01*
X535275Y635190D01*
X533953Y636323D01*
X527342Y636323D01*
G54D10*
X527342Y640479D02*
X542453Y649545D01*
G54D10*
X530175Y662769D02*
X528286Y661635D01*
X527342Y659369D01*
X527342Y657102D01*
X528286Y654835D01*
X530175Y653702D01*
X539620Y653702D01*
X541508Y654835D01*
X542453Y657102D01*
X542453Y659369D01*
X541508Y661635D01*
X539620Y662769D01*
G54D10*
X527342Y666925D02*
X542453Y666925D01*
G54D10*
X533386Y666925D02*
X535275Y668058D01*
X535842Y670325D01*
X535275Y672592D01*
X533386Y673725D01*
X527342Y673725D01*
G54D10*
X527342Y677881D02*
X535842Y677881D01*
G54D10*
X538675Y677881D02*
X538675Y677881D01*
G54D10*
X535842Y682037D02*
X523564Y682037D01*
G54D10*
X530175Y682037D02*
X527720Y683170D01*
X527342Y685437D01*
X527720Y687704D01*
X529608Y688837D01*
X533386Y688837D01*
X535275Y687704D01*
X535842Y685437D01*
X535275Y683170D01*
X533008Y682037D01*
G54D10*
X527342Y697526D02*
X542453Y697526D01*
G54D10*
X542453Y692993D02*
X542453Y702060D01*
G54D10*
X528286Y713016D02*
X527342Y711203D01*
X527342Y708936D01*
X528286Y706669D01*
X530175Y706216D01*
X533386Y706216D01*
X535275Y707349D01*
X535842Y709616D01*
X535275Y711883D01*
X533953Y713016D01*
X532064Y713016D01*
X532064Y706216D01*
G54D10*
X535275Y722839D02*
X535842Y720572D01*
X535275Y718305D01*
X533386Y717172D01*
X529608Y717172D01*
X527720Y718305D01*
X527342Y720572D01*
X527720Y722839D01*
G54D10*
X527342Y726995D02*
X542453Y726995D01*
G54D10*
X533386Y726995D02*
X535275Y728128D01*
X535842Y730395D01*
X535275Y732662D01*
X533386Y733795D01*
X527342Y733795D01*
G54D10*
X527342Y737951D02*
X535842Y737951D01*
G54D10*
X533953Y737951D02*
X535275Y739084D01*
X535842Y741351D01*
X535275Y743618D01*
X533953Y744751D01*
X527342Y744751D01*
G54D10*
X529608Y755707D02*
X533386Y755707D01*
X535275Y754574D01*
X535842Y752307D01*
X535275Y750040D01*
X533386Y748907D01*
X529608Y748907D01*
X527720Y750040D01*
X527342Y752307D01*
X527720Y754574D01*
X529608Y755707D01*
G54D10*
X527342Y759863D02*
X542453Y768930D01*
G54D10*
X520042Y699407D02*
X507764Y699407D01*
X505875Y698273D01*
X504930Y696007D01*
X504930Y693740D01*
X505875Y691473D01*
X507764Y690340D01*
G54D10*
X513430Y710363D02*
X504930Y710363D01*
G54D10*
X506819Y710363D02*
X505308Y709230D01*
X504930Y706963D01*
X505308Y704696D01*
X506819Y703563D01*
X513430Y703563D01*
G54D10*
X504930Y714519D02*
X513430Y714519D01*
G54D10*
X516264Y714519D02*
X516264Y714519D01*
G54D10*
X512864Y724342D02*
X513430Y722075D01*
X512864Y719808D01*
X510975Y718675D01*
X507197Y718675D01*
X505308Y719808D01*
X504930Y722075D01*
X505308Y724342D01*
G54D10*
X505875Y735298D02*
X504930Y733485D01*
X504930Y731218D01*
X505875Y728951D01*
X507764Y728498D01*
X510975Y728498D01*
X512864Y729631D01*
X513430Y731898D01*
X512864Y734165D01*
X511542Y735298D01*
X509653Y735298D01*
X509653Y728498D01*
G54D10*
X511542Y739454D02*
X511542Y748521D01*
G54D10*
X513430Y752677D02*
X501153Y752677D01*
G54D10*
X507764Y752677D02*
X505308Y753810D01*
X504930Y756077D01*
X505308Y758344D01*
X507197Y759477D01*
X510975Y759477D01*
X512864Y758344D01*
X513430Y756077D01*
X512864Y753810D01*
X510597Y752677D01*
G54D10*
X504930Y763633D02*
X520042Y763633D01*
G54D10*
X513430Y774589D02*
X504930Y774589D01*
G54D10*
X506819Y774589D02*
X505308Y773456D01*
X504930Y771189D01*
X505308Y768922D01*
X506819Y767789D01*
X513430Y767789D01*
G54D10*
X505875Y778745D02*
X504930Y781012D01*
X504930Y783278D01*
X505875Y785545D01*
X507764Y785545D01*
X508708Y784412D01*
X509653Y779878D01*
X510597Y778745D01*
X512486Y778745D01*
X513430Y781012D01*
X513430Y783278D01*
X512486Y785545D01*
G54D11*
X477842Y810376D02*
X477842Y799264D01*
X467523Y796883D01*
X464348Y789342D01*
X470302Y780214D01*
X463158Y772276D01*
X455220Y778626D01*
X447283Y775055D01*
X445695Y763942D01*
X434980Y763942D01*
X433789Y773864D01*
X425455Y777436D01*
X417914Y772276D01*
X410373Y779817D01*
X415930Y788548D01*
X413152Y792914D01*
X429820Y800455D01*
G54D11*
X429820Y809186D02*
X413548Y816726D01*
X415533Y821092D01*
X409976Y829426D01*
X417517Y837761D01*
X425455Y831808D01*
X433789Y835380D01*
X434980Y845698D01*
X445695Y845302D01*
X447680Y834586D01*
X454030Y831808D01*
X462364Y837761D01*
X469904Y829823D01*
X464348Y820695D01*
X467523Y811964D01*
X477842Y810376D01*
G54D11*
G75*
G01X430505Y800724D02*
G03X430505Y808929I9665J4102D01*
G01*
G36*
X445695Y845302D02*
X447680Y834586D01*
X454030Y831808D01*
X462364Y837761D01*
X469904Y829823D01*
X464348Y820695D01*
X467523Y811964D01*
X477842Y810376D01*
X477842Y799264D01*
X467523Y796883D01*
X464348Y789342D01*
X470302Y780214D01*
X463158Y772276D01*
X455220Y778626D01*
X447283Y775055D01*
X445695Y763942D01*
X434980Y763942D01*
X433789Y773864D01*
X425455Y777436D01*
X417914Y772276D01*
X410373Y779817D01*
X415930Y788548D01*
X413152Y792914D01*
X430614Y800852D01*
X431011Y799661D01*
X431805Y798470D01*
X434186Y796089D01*
X437361Y794502D01*
X439345Y794105D01*
X440933Y794105D01*
X443314Y794502D01*
X446092Y795692D01*
X448870Y798073D01*
X450061Y800058D01*
X450854Y802042D01*
X451252Y804423D01*
X450854Y806805D01*
X450061Y809980D01*
X447680Y812758D01*
X443711Y815536D01*
X437361Y815536D01*
X434980Y814345D01*
X432598Y812758D01*
X430614Y810376D01*
X430614Y808789D01*
X413548Y816726D01*
X415533Y821092D01*
X409976Y829426D01*
X417517Y837761D01*
X425455Y831808D01*
X445695Y845302D01*
G37*
G54D11*
X445695Y845302D02*
X447680Y834586D01*
X454030Y831808D01*
X462364Y837761D01*
X469904Y829823D01*
X464348Y820695D01*
X467523Y811964D01*
X477842Y810376D01*
X477842Y799264D01*
X467523Y796883D01*
X464348Y789342D01*
X470302Y780214D01*
X463158Y772276D01*
X455220Y778626D01*
X447283Y775055D01*
X445695Y763942D01*
X434980Y763942D01*
X433789Y773864D01*
X425455Y777436D01*
X417914Y772276D01*
X410373Y779817D01*
X415930Y788548D01*
X413152Y792914D01*
X430614Y800852D01*
X431011Y799661D01*
X431805Y798470D01*
X434186Y796089D01*
X437361Y794502D01*
X439345Y794105D01*
X440933Y794105D01*
X443314Y794502D01*
X446092Y795692D01*
X448870Y798073D01*
X450061Y800058D01*
X450854Y802042D01*
X451252Y804423D01*
X450854Y806805D01*
X450061Y809980D01*
X447680Y812758D01*
X443711Y815536D01*
X437361Y815536D01*
X434980Y814345D01*
X432598Y812758D01*
X430614Y810376D01*
X430614Y808789D01*
X413548Y816726D01*
X415533Y821092D01*
X409976Y829426D01*
X417517Y837761D01*
X425455Y831808D01*
X445695Y845302D01*
G36*
X445695Y845302D02*
X434980Y845698D01*
X433789Y835380D01*
X445695Y845302D01*
G37*
G54D11*
X445695Y845302D02*
X434980Y845698D01*
X433789Y835380D01*
X445695Y845302D01*
G54D10*
X399169Y788084D02*
X389724Y788084D01*
X387836Y786951D01*
X386891Y784684D01*
X386891Y782418D01*
X387836Y780151D01*
X389724Y779018D01*
X399169Y779018D01*
X401058Y780151D01*
X402002Y782418D01*
X402002Y784684D01*
X401058Y786951D01*
X399169Y788084D01*
G54D10*
X389724Y792241D02*
X387836Y793374D01*
X386891Y795641D01*
X386891Y797907D01*
X387836Y800174D01*
X389724Y801307D01*
X391613Y801307D01*
X393502Y800174D01*
X394446Y797907D01*
X394446Y795641D01*
X395391Y793374D01*
X397280Y792241D01*
X399169Y792241D01*
X401058Y793374D01*
X402002Y795641D01*
X402002Y797907D01*
X401058Y800174D01*
X399169Y801307D01*
G54D10*
X386891Y805464D02*
X402002Y805464D01*
G54D10*
X386891Y814530D02*
X402002Y814530D01*
G54D10*
X394446Y805464D02*
X394446Y814530D01*
G54D10*
X402002Y818687D02*
X386891Y818687D01*
X396336Y824353D01*
X386891Y830020D01*
X402002Y830020D01*
X454025Y541338D02*
G54D12*
D03*
X450850Y544512D02*
G54D12*
D03*
X447675Y547688D02*
G54D12*
D03*
X444500Y550862D02*
G54D12*
D03*
X460375Y541338D02*
G54D12*
D03*
X463550Y544512D02*
G54D12*
D03*
X466725Y547688D02*
G54D12*
D03*
X469900Y550862D02*
G54D12*
D03*
X473075Y554038D02*
G54D12*
D03*
X441325Y554038D02*
G54D12*
D03*
X438150Y557212D02*
G54D12*
D03*
X434975Y560388D02*
G54D12*
D03*
X431800Y563562D02*
G54D12*
D03*
X431800Y569912D02*
G54D12*
D03*
X434975Y573088D02*
G54D12*
D03*
X438150Y576262D02*
G54D12*
D03*
X441325Y579438D02*
G54D12*
D03*
X444500Y582612D02*
G54D12*
D03*
X447675Y585788D02*
G54D12*
D03*
X450850Y588962D02*
G54D12*
D03*
X454025Y592138D02*
G54D12*
D03*
X457200Y595312D02*
G54D12*
D03*
X476250Y557212D02*
G54D12*
D03*
X479425Y560388D02*
G54D12*
D03*
X482600Y563562D02*
G54D12*
D03*
X485775Y566738D02*
G54D12*
D03*
X482600Y582612D02*
G54D12*
D03*
X473075Y592138D02*
G54D12*
D03*
X476250Y595312D02*
G54D12*
D03*
X485775Y585788D02*
G54D12*
D03*
X492125Y585788D02*
G54D12*
D03*
X495300Y588962D02*
G54D12*
D03*
X492125Y592138D02*
G54D12*
D03*
X488950Y595312D02*
G54D12*
D03*
X485775Y598488D02*
G54D12*
D03*
X482600Y601662D02*
G54D12*
D03*
X479425Y604838D02*
G54D12*
D03*
X476250Y601662D02*
G54D12*
D03*
X463550Y550862D02*
G54D12*
D03*
X463550Y554038D02*
G54D12*
D03*
X466725Y557212D02*
G54D12*
D03*
X463550Y560388D02*
G54D12*
D03*
X463550Y563562D02*
G54D12*
D03*
X463550Y566738D02*
G54D12*
D03*
X460375Y569912D02*
G54D12*
D03*
X460375Y573088D02*
G54D12*
D03*
X463550Y576262D02*
G54D12*
D03*
X463550Y579438D02*
G54D12*
D03*
X463550Y582612D02*
G54D12*
D03*
X463550Y585788D02*
G54D12*
D03*
X463550Y588962D02*
G54D12*
D03*
X460375Y592138D02*
G54D12*
D03*
X488950Y608012D02*
G54D12*
D03*
X485775Y608012D02*
G54D12*
D03*
X482600Y608012D02*
G54D12*
D03*
X482600Y611188D02*
G54D12*
D03*
X488950Y611188D02*
G54D12*
D03*
X488950Y614362D02*
G54D12*
D03*
X492125Y614362D02*
G54D12*
D03*
X495300Y614362D02*
G54D12*
D03*
X495300Y617538D02*
G54D12*
D03*
X495300Y620712D02*
G54D12*
D03*
X492125Y620712D02*
G54D12*
D03*
X488950Y620712D02*
G54D12*
D03*
X488950Y623888D02*
G54D12*
D03*
X488950Y627062D02*
G54D12*
D03*
X485775Y627062D02*
G54D12*
D03*
X482600Y627062D02*
G54D12*
D03*
X482600Y623888D02*
G54D12*
D03*
X482600Y620712D02*
G54D12*
D03*
X482600Y614362D02*
G54D12*
D03*
X479425Y614362D02*
G54D12*
D03*
X476250Y614362D02*
G54D12*
D03*
X476250Y617538D02*
G54D12*
D03*
X476250Y620712D02*
G54D12*
D03*
X479425Y620712D02*
G54D12*
D03*
X488950Y569912D02*
G54D12*
D03*
X488950Y576262D02*
G54D12*
D03*
X485775Y579438D02*
G54D12*
D03*
X469900Y595312D02*
G54D12*
D03*
X466725Y598488D02*
G54D12*
D03*
X460375Y598488D02*
G54D12*
D03*
X450850Y595312D02*
G54D12*
D03*
X450850Y598488D02*
G54D12*
D03*
X450850Y601662D02*
G54D12*
D03*
X450850Y604838D02*
G54D12*
D03*
X450850Y608012D02*
G54D12*
D03*
X447675Y601662D02*
G54D12*
D03*
X444500Y601662D02*
G54D12*
D03*
X441325Y601662D02*
G54D12*
D03*
X438150Y601662D02*
G54D12*
D03*
X434975Y601662D02*
G54D12*
D03*
X431800Y598488D02*
G54D12*
D03*
X431800Y595312D02*
G54D12*
D03*
X434975Y592138D02*
G54D12*
D03*
X431800Y611188D02*
G54D12*
D03*
X434975Y614362D02*
G54D12*
D03*
X438150Y614362D02*
G54D12*
D03*
X441325Y614362D02*
G54D12*
D03*
X444500Y614362D02*
G54D12*
D03*
X431800Y617538D02*
G54D12*
D03*
X431800Y620712D02*
G54D12*
D03*
X431800Y623888D02*
G54D12*
D03*
X434975Y623888D02*
G54D12*
D03*
X438150Y623888D02*
G54D12*
D03*
X441325Y623888D02*
G54D12*
D03*
X444500Y623888D02*
G54D12*
D03*
X447675Y630238D02*
G54D12*
D03*
X441325Y630238D02*
G54D12*
D03*
X438150Y630238D02*
G54D12*
D03*
X434975Y630238D02*
G54D12*
D03*
X431800Y630238D02*
G54D12*
D03*
X434975Y636588D02*
G54D12*
D03*
X438150Y636588D02*
G54D12*
D03*
X441325Y636588D02*
G54D12*
D03*
X444500Y639762D02*
G54D12*
D03*
X444500Y642938D02*
G54D12*
D03*
X431800Y639762D02*
G54D12*
D03*
X431800Y642938D02*
G54D12*
D03*
X431800Y646112D02*
G54D12*
D03*
X444500Y646112D02*
G54D12*
D03*
X434975Y652462D02*
G54D12*
D03*
X438150Y652462D02*
G54D12*
D03*
X441325Y652462D02*
G54D12*
D03*
X444500Y655638D02*
G54D12*
D03*
X444500Y658812D02*
G54D12*
D03*
X444500Y661988D02*
G54D12*
D03*
X431800Y655638D02*
G54D12*
D03*
X431800Y658813D02*
G54D12*
D03*
X431800Y661988D02*
G54D12*
D03*
X441325Y665162D02*
G54D12*
D03*
X438150Y665162D02*
G54D12*
D03*
X438150Y661988D02*
G54D12*
D03*
X438150Y658812D02*
G54D12*
D03*
X438150Y655638D02*
G54D12*
D03*
X450850Y563562D02*
G54D12*
D03*
X447675Y566738D02*
G54D12*
D03*
X450850Y569912D02*
G54D12*
D03*
X454025Y566738D02*
G54D12*
D03*
X447675Y576262D02*
G54D12*
D03*
X457200Y554038D02*
G54D12*
D03*
X457200Y582612D02*
G54D12*
D03*
X438150Y566738D02*
G54D12*
D03*
X454025Y550862D02*
G54D12*
D03*
X469900Y611188D02*
G54D12*
D03*
X469900Y614362D02*
G54D12*
D03*
X469900Y617538D02*
G54D12*
D03*
X469900Y620712D02*
G54D12*
D03*
X469900Y623888D02*
G54D12*
D03*
X466725Y623888D02*
G54D12*
D03*
X463550Y623888D02*
G54D12*
D03*
X460375Y620712D02*
G54D12*
D03*
X457200Y617538D02*
G54D12*
D03*
X454025Y614362D02*
G54D12*
D03*
X476250Y627062D02*
G54D12*
D03*
X473075Y627062D02*
G54D12*
D03*
X473075Y630238D02*
G54D12*
D03*
X476250Y630238D02*
G54D12*
D03*
X469900Y633412D02*
G54D12*
D03*
X469900Y636588D02*
G54D12*
D03*
X469900Y639762D02*
G54D12*
D03*
X469900Y642938D02*
G54D12*
D03*
X469900Y646112D02*
G54D12*
D03*
X463550Y633412D02*
G54D12*
D03*
X463550Y636588D02*
G54D12*
D03*
X463550Y639762D02*
G54D12*
D03*
X463550Y642938D02*
G54D12*
D03*
X463550Y646112D02*
G54D12*
D03*
X460375Y646112D02*
G54D12*
D03*
X457200Y642938D02*
G54D12*
D03*
X454025Y639762D02*
G54D12*
D03*
X454025Y633412D02*
G54D12*
D03*
X454025Y636588D02*
G54D12*
D03*
X469900Y652462D02*
G54D12*
D03*
X469900Y655638D02*
G54D12*
D03*
X469900Y658812D02*
G54D12*
D03*
X469900Y661988D02*
G54D12*
D03*
X469900Y665162D02*
G54D12*
D03*
X466725Y665162D02*
G54D12*
D03*
X463550Y661988D02*
G54D12*
D03*
X460375Y658812D02*
G54D12*
D03*
X457200Y655638D02*
G54D12*
D03*
X454025Y652462D02*
G54D12*
D03*
X457200Y661988D02*
G54D12*
D03*
X454025Y665162D02*
G54D12*
D03*
X482600Y573088D02*
G54D12*
D03*
X479425Y569912D02*
G54D12*
D03*
G54D13*
X483870Y639254D02*
X482758Y641254D01*
X481647Y641921D01*
X479425Y641921D01*
G54D13*
X479425Y636588D02*
X488314Y636588D01*
X488314Y639921D01*
X487758Y641254D01*
X486647Y641921D01*
X485536Y641921D01*
X484425Y641254D01*
X483870Y639921D01*
X483870Y636588D01*
G54D13*
X479980Y648364D02*
X479425Y647298D01*
X479425Y645964D01*
X479980Y644631D01*
X481092Y644364D01*
X482980Y644364D01*
X484092Y645031D01*
X484425Y646364D01*
X484092Y647698D01*
X483314Y648364D01*
X482203Y648364D01*
X482203Y644364D01*
G54D13*
X484425Y650808D02*
X479425Y653475D01*
X484425Y656142D01*
G54D13*
X479425Y658586D02*
X479425Y658586D01*
G54D13*
X479425Y666363D02*
X479425Y661030D01*
X479980Y661030D01*
X481092Y661696D01*
X484425Y665696D01*
X485536Y666363D01*
X486647Y666363D01*
X487758Y665696D01*
X488314Y664363D01*
X488314Y663030D01*
X487758Y661696D01*
X486647Y661030D01*
G54D13*
X479425Y668806D02*
X479425Y668806D01*
G54D13*
X486647Y676584D02*
X481092Y676584D01*
X479980Y675917D01*
X479425Y674584D01*
X479425Y673250D01*
X479980Y671917D01*
X481092Y671250D01*
X486647Y671250D01*
X487758Y671917D01*
X488314Y673250D01*
X488314Y674584D01*
X487758Y675917D01*
X486647Y676584D01*
X457200Y541338D02*
G54D12*
D03*
X431800Y566738D02*
G54D12*
D03*
G54D10*
X857542Y462538D02*
X872653Y462538D01*
G54D10*
X863586Y462538D02*
X865475Y463671D01*
X866042Y465938D01*
X865475Y468204D01*
X863586Y469338D01*
X857542Y469338D01*
G54D10*
X872653Y475760D02*
X858486Y475760D01*
X857542Y476894D01*
X857920Y478027D01*
G54D10*
X866042Y473494D02*
X866042Y478027D01*
G54D10*
X872653Y484449D02*
X858486Y484449D01*
X857542Y485583D01*
X857920Y486716D01*
G54D10*
X866042Y482183D02*
X866042Y486716D01*
G54D10*
X866042Y490872D02*
X853764Y490872D01*
G54D10*
X860375Y490872D02*
X857920Y492005D01*
X857542Y494272D01*
X857920Y496538D01*
X859808Y497672D01*
X863586Y497672D01*
X865475Y496538D01*
X866042Y494272D01*
X865475Y492005D01*
X863208Y490872D01*
G54D10*
X858486Y501828D02*
X857542Y504094D01*
X857542Y506361D01*
X858486Y508628D01*
X860375Y508628D01*
X861320Y507494D01*
X862264Y502961D01*
X863208Y501828D01*
X865097Y501828D01*
X866042Y504094D01*
X866042Y506361D01*
X865097Y508628D01*
G54D10*
X857542Y512784D02*
X857542Y512784D01*
G54D10*
X866042Y512784D02*
X866042Y512784D01*
G54D10*
X857542Y516940D02*
X872653Y526006D01*
G54D10*
X857542Y530163D02*
X872653Y539229D01*
G54D10*
X854708Y543386D02*
X853764Y545652D01*
X853764Y547239D01*
X854708Y549506D01*
X856597Y550186D01*
X866042Y550186D01*
G54D10*
X863586Y550186D02*
X865475Y549052D01*
X866042Y546786D01*
X865475Y544519D01*
X863586Y543386D01*
X859808Y543386D01*
X857920Y544519D01*
X857542Y546786D01*
X857920Y549052D01*
X859808Y550186D01*
G54D10*
X857542Y554342D02*
X866042Y554342D01*
G54D10*
X868875Y554342D02*
X868875Y554342D01*
G54D10*
X872653Y560764D02*
X858486Y560764D01*
X857542Y561898D01*
X857920Y563031D01*
G54D10*
X866042Y558498D02*
X866042Y563031D01*
G54D10*
X857542Y567187D02*
X872653Y567187D01*
G54D10*
X863586Y567187D02*
X865475Y568320D01*
X866042Y570587D01*
X865475Y572853D01*
X863586Y573987D01*
X857542Y573987D01*
G54D10*
X866042Y584943D02*
X857542Y584943D01*
G54D10*
X859430Y584943D02*
X857920Y583809D01*
X857542Y581543D01*
X857920Y579276D01*
X859430Y578143D01*
X866042Y578143D01*
G54D10*
X857542Y589099D02*
X872653Y589099D01*
G54D10*
X863586Y589099D02*
X865475Y590232D01*
X866042Y592499D01*
X865475Y594765D01*
X863586Y595899D01*
X859808Y595899D01*
X857920Y594765D01*
X857542Y592499D01*
X857920Y590232D01*
X859808Y589099D01*
G54D10*
X857542Y600055D02*
X857542Y600055D01*
G54D10*
X865475Y609877D02*
X866042Y607611D01*
X865475Y605344D01*
X863586Y604211D01*
X859808Y604211D01*
X857920Y605344D01*
X857542Y607611D01*
X857920Y609877D01*
G54D10*
X859808Y620834D02*
X863586Y620834D01*
X865475Y619700D01*
X866042Y617434D01*
X865475Y615167D01*
X863586Y614034D01*
X859808Y614034D01*
X857920Y615167D01*
X857542Y617434D01*
X857920Y619700D01*
X859808Y620834D01*
G54D10*
X857542Y624990D02*
X866042Y624990D01*
G54D10*
X864530Y624990D02*
X866042Y627256D01*
X865475Y629523D01*
X864153Y630656D01*
X857542Y630656D01*
G54D10*
X864530Y630656D02*
X866042Y632923D01*
X865475Y635190D01*
X864153Y636323D01*
X857542Y636323D01*
G54D10*
X857542Y640479D02*
X872653Y649545D01*
G54D10*
X860375Y662769D02*
X858486Y661635D01*
X857542Y659369D01*
X857542Y657102D01*
X858486Y654835D01*
X860375Y653702D01*
X869820Y653702D01*
X871708Y654835D01*
X872653Y657102D01*
X872653Y659369D01*
X871708Y661635D01*
X869820Y662769D01*
G54D10*
X857542Y666925D02*
X872653Y666925D01*
G54D10*
X863586Y666925D02*
X865475Y668058D01*
X866042Y670325D01*
X865475Y672592D01*
X863586Y673725D01*
X857542Y673725D01*
G54D10*
X857542Y677881D02*
X866042Y677881D01*
G54D10*
X868875Y677881D02*
X868875Y677881D01*
G54D10*
X866042Y682037D02*
X853764Y682037D01*
G54D10*
X860375Y682037D02*
X857920Y683170D01*
X857542Y685437D01*
X857920Y687704D01*
X859808Y688837D01*
X863586Y688837D01*
X865475Y687704D01*
X866042Y685437D01*
X865475Y683170D01*
X863208Y682037D01*
G54D10*
X857542Y697526D02*
X872653Y697526D01*
G54D10*
X872653Y692993D02*
X872653Y702060D01*
G54D10*
X858486Y713016D02*
X857542Y711203D01*
X857542Y708936D01*
X858486Y706669D01*
X860375Y706216D01*
X863586Y706216D01*
X865475Y707349D01*
X866042Y709616D01*
X865475Y711883D01*
X864153Y713016D01*
X862264Y713016D01*
X862264Y706216D01*
G54D10*
X865475Y722839D02*
X866042Y720572D01*
X865475Y718305D01*
X863586Y717172D01*
X859808Y717172D01*
X857920Y718305D01*
X857542Y720572D01*
X857920Y722839D01*
G54D10*
X857542Y726995D02*
X872653Y726995D01*
G54D10*
X863586Y726995D02*
X865475Y728128D01*
X866042Y730395D01*
X865475Y732662D01*
X863586Y733795D01*
X857542Y733795D01*
G54D10*
X857542Y737951D02*
X866042Y737951D01*
G54D10*
X864153Y737951D02*
X865475Y739084D01*
X866042Y741351D01*
X865475Y743618D01*
X864153Y744751D01*
X857542Y744751D01*
G54D10*
X859808Y755707D02*
X863586Y755707D01*
X865475Y754574D01*
X866042Y752307D01*
X865475Y750040D01*
X863586Y748907D01*
X859808Y748907D01*
X857920Y750040D01*
X857542Y752307D01*
X857920Y754574D01*
X859808Y755707D01*
G54D10*
X857542Y759863D02*
X872653Y768930D01*
G54D10*
X850242Y699407D02*
X837964Y699407D01*
X836075Y698273D01*
X835130Y696007D01*
X835130Y693740D01*
X836075Y691473D01*
X837964Y690340D01*
G54D10*
X843630Y710363D02*
X835130Y710363D01*
G54D10*
X837019Y710363D02*
X835508Y709230D01*
X835130Y706963D01*
X835508Y704696D01*
X837019Y703563D01*
X843630Y703563D01*
G54D10*
X835130Y714519D02*
X843630Y714519D01*
G54D10*
X846464Y714519D02*
X846464Y714519D01*
G54D10*
X843064Y724342D02*
X843630Y722075D01*
X843064Y719808D01*
X841175Y718675D01*
X837397Y718675D01*
X835508Y719808D01*
X835130Y722075D01*
X835508Y724342D01*
G54D10*
X836075Y735298D02*
X835130Y733485D01*
X835130Y731218D01*
X836075Y728951D01*
X837964Y728498D01*
X841175Y728498D01*
X843064Y729631D01*
X843630Y731898D01*
X843064Y734165D01*
X841742Y735298D01*
X839853Y735298D01*
X839853Y728498D01*
G54D10*
X841742Y739454D02*
X841742Y748521D01*
G54D10*
X843630Y752677D02*
X831353Y752677D01*
G54D10*
X837964Y752677D02*
X835508Y753810D01*
X835130Y756077D01*
X835508Y758344D01*
X837397Y759477D01*
X841175Y759477D01*
X843064Y758344D01*
X843630Y756077D01*
X843064Y753810D01*
X840797Y752677D01*
G54D10*
X835130Y763633D02*
X850242Y763633D01*
G54D10*
X843630Y774589D02*
X835130Y774589D01*
G54D10*
X837019Y774589D02*
X835508Y773456D01*
X835130Y771189D01*
X835508Y768922D01*
X837019Y767789D01*
X843630Y767789D01*
G54D10*
X836075Y778745D02*
X835130Y781012D01*
X835130Y783278D01*
X836075Y785545D01*
X837964Y785545D01*
X838908Y784412D01*
X839853Y779878D01*
X840797Y778745D01*
X842686Y778745D01*
X843630Y781012D01*
X843630Y783278D01*
X842686Y785545D01*
G54D11*
X808042Y810376D02*
X808042Y799264D01*
X797723Y796883D01*
X794548Y789342D01*
X800502Y780214D01*
X793358Y772276D01*
X785420Y778626D01*
X777483Y775055D01*
X775895Y763942D01*
X765180Y763942D01*
X763989Y773864D01*
X755655Y777436D01*
X748114Y772276D01*
X740573Y779817D01*
X746130Y788548D01*
X743352Y792914D01*
X760020Y800455D01*
G54D11*
X760020Y809186D02*
X743748Y816726D01*
X745733Y821092D01*
X740176Y829426D01*
X747717Y837761D01*
X755655Y831808D01*
X763989Y835380D01*
X765180Y845698D01*
X775895Y845302D01*
X777880Y834586D01*
X784230Y831808D01*
X792564Y837761D01*
X800104Y829823D01*
X794548Y820695D01*
X797723Y811964D01*
X808042Y810376D01*
G54D11*
G75*
G01X760705Y800724D02*
G03X760705Y808929I9665J4102D01*
G01*
G36*
X775895Y845302D02*
X777880Y834586D01*
X784230Y831808D01*
X792564Y837761D01*
X800104Y829823D01*
X794548Y820695D01*
X797723Y811964D01*
X808042Y810376D01*
X808042Y799264D01*
X797723Y796883D01*
X794548Y789342D01*
X800502Y780214D01*
X793358Y772276D01*
X785420Y778626D01*
X777483Y775055D01*
X775895Y763942D01*
X765180Y763942D01*
X763989Y773864D01*
X755655Y777436D01*
X748114Y772276D01*
X740573Y779817D01*
X746130Y788548D01*
X743352Y792914D01*
X760814Y800852D01*
X761211Y799661D01*
X762005Y798470D01*
X764386Y796089D01*
X767561Y794502D01*
X769545Y794105D01*
X771133Y794105D01*
X773514Y794502D01*
X776292Y795692D01*
X779070Y798073D01*
X780261Y800058D01*
X781054Y802042D01*
X781452Y804423D01*
X781054Y806805D01*
X780261Y809980D01*
X777880Y812758D01*
X773911Y815536D01*
X767561Y815536D01*
X765180Y814345D01*
X762798Y812758D01*
X760814Y810376D01*
X760814Y808789D01*
X743748Y816726D01*
X745733Y821092D01*
X740176Y829426D01*
X747717Y837761D01*
X755655Y831808D01*
X775895Y845302D01*
G37*
G54D11*
X775895Y845302D02*
X777880Y834586D01*
X784230Y831808D01*
X792564Y837761D01*
X800104Y829823D01*
X794548Y820695D01*
X797723Y811964D01*
X808042Y810376D01*
X808042Y799264D01*
X797723Y796883D01*
X794548Y789342D01*
X800502Y780214D01*
X793358Y772276D01*
X785420Y778626D01*
X777483Y775055D01*
X775895Y763942D01*
X765180Y763942D01*
X763989Y773864D01*
X755655Y777436D01*
X748114Y772276D01*
X740573Y779817D01*
X746130Y788548D01*
X743352Y792914D01*
X760814Y800852D01*
X761211Y799661D01*
X762005Y798470D01*
X764386Y796089D01*
X767561Y794502D01*
X769545Y794105D01*
X771133Y794105D01*
X773514Y794502D01*
X776292Y795692D01*
X779070Y798073D01*
X780261Y800058D01*
X781054Y802042D01*
X781452Y804423D01*
X781054Y806805D01*
X780261Y809980D01*
X777880Y812758D01*
X773911Y815536D01*
X767561Y815536D01*
X765180Y814345D01*
X762798Y812758D01*
X760814Y810376D01*
X760814Y808789D01*
X743748Y816726D01*
X745733Y821092D01*
X740176Y829426D01*
X747717Y837761D01*
X755655Y831808D01*
X775895Y845302D01*
G36*
X775895Y845302D02*
X765180Y845698D01*
X763989Y835380D01*
X775895Y845302D01*
G37*
G54D11*
X775895Y845302D02*
X765180Y845698D01*
X763989Y835380D01*
X775895Y845302D01*
G54D10*
X729369Y788084D02*
X719924Y788084D01*
X718036Y786951D01*
X717091Y784684D01*
X717091Y782418D01*
X718036Y780151D01*
X719924Y779018D01*
X729369Y779018D01*
X731258Y780151D01*
X732202Y782418D01*
X732202Y784684D01*
X731258Y786951D01*
X729369Y788084D01*
G54D10*
X719924Y792241D02*
X718036Y793374D01*
X717091Y795641D01*
X717091Y797907D01*
X718036Y800174D01*
X719924Y801307D01*
X721813Y801307D01*
X723702Y800174D01*
X724646Y797907D01*
X724646Y795641D01*
X725591Y793374D01*
X727480Y792241D01*
X729369Y792241D01*
X731258Y793374D01*
X732202Y795641D01*
X732202Y797907D01*
X731258Y800174D01*
X729369Y801307D01*
G54D10*
X717091Y805464D02*
X732202Y805464D01*
G54D10*
X717091Y814530D02*
X732202Y814530D01*
G54D10*
X724646Y805464D02*
X724646Y814530D01*
G54D10*
X732202Y818687D02*
X717091Y818687D01*
X726536Y824353D01*
X717091Y830020D01*
X732202Y830020D01*
X784225Y541338D02*
G54D12*
D03*
X781050Y544512D02*
G54D12*
D03*
X777875Y547688D02*
G54D12*
D03*
X774700Y550862D02*
G54D12*
D03*
X790575Y541338D02*
G54D12*
D03*
X793750Y544512D02*
G54D12*
D03*
X796925Y547688D02*
G54D12*
D03*
X800100Y550862D02*
G54D12*
D03*
X803275Y554038D02*
G54D12*
D03*
X771525Y554038D02*
G54D12*
D03*
X768350Y557212D02*
G54D12*
D03*
X765175Y560388D02*
G54D12*
D03*
X762000Y563562D02*
G54D12*
D03*
X762000Y569912D02*
G54D12*
D03*
X765175Y573088D02*
G54D12*
D03*
X768350Y576262D02*
G54D12*
D03*
X771525Y579438D02*
G54D12*
D03*
X774700Y582612D02*
G54D12*
D03*
X777875Y585788D02*
G54D12*
D03*
X781050Y588962D02*
G54D12*
D03*
X784225Y592138D02*
G54D12*
D03*
X787400Y595312D02*
G54D12*
D03*
X806450Y557212D02*
G54D12*
D03*
X809625Y560388D02*
G54D12*
D03*
X812800Y563562D02*
G54D12*
D03*
X815975Y566738D02*
G54D12*
D03*
X812800Y582612D02*
G54D12*
D03*
X803275Y592138D02*
G54D12*
D03*
X806450Y595312D02*
G54D12*
D03*
X815975Y585788D02*
G54D12*
D03*
X822325Y585788D02*
G54D12*
D03*
X825500Y588962D02*
G54D12*
D03*
X822325Y592138D02*
G54D12*
D03*
X819150Y595312D02*
G54D12*
D03*
X815975Y598488D02*
G54D12*
D03*
X812800Y601662D02*
G54D12*
D03*
X809625Y604838D02*
G54D12*
D03*
X806450Y601662D02*
G54D12*
D03*
X793750Y550862D02*
G54D12*
D03*
X793750Y554038D02*
G54D12*
D03*
X796925Y557212D02*
G54D12*
D03*
X793750Y560388D02*
G54D12*
D03*
X793750Y563562D02*
G54D12*
D03*
X793750Y566738D02*
G54D12*
D03*
X790575Y569912D02*
G54D12*
D03*
X790575Y573088D02*
G54D12*
D03*
X793750Y576262D02*
G54D12*
D03*
X793750Y579438D02*
G54D12*
D03*
X793750Y582612D02*
G54D12*
D03*
X793750Y585788D02*
G54D12*
D03*
X793750Y588962D02*
G54D12*
D03*
X790575Y592138D02*
G54D12*
D03*
X819150Y608012D02*
G54D12*
D03*
X815975Y608012D02*
G54D12*
D03*
X812800Y608012D02*
G54D12*
D03*
X812800Y611188D02*
G54D12*
D03*
X819150Y611188D02*
G54D12*
D03*
X819150Y614362D02*
G54D12*
D03*
X822325Y614362D02*
G54D12*
D03*
X825500Y614362D02*
G54D12*
D03*
X825500Y617538D02*
G54D12*
D03*
X825500Y620712D02*
G54D12*
D03*
X822325Y620712D02*
G54D12*
D03*
X819150Y620712D02*
G54D12*
D03*
X819150Y623888D02*
G54D12*
D03*
X819150Y627062D02*
G54D12*
D03*
X815975Y627062D02*
G54D12*
D03*
X812800Y627062D02*
G54D12*
D03*
X812800Y623888D02*
G54D12*
D03*
X812800Y620712D02*
G54D12*
D03*
X812800Y614362D02*
G54D12*
D03*
X809625Y614362D02*
G54D12*
D03*
X806450Y614362D02*
G54D12*
D03*
X806450Y617538D02*
G54D12*
D03*
X806450Y620712D02*
G54D12*
D03*
X809625Y620712D02*
G54D12*
D03*
X819150Y569912D02*
G54D12*
D03*
X819150Y576262D02*
G54D12*
D03*
X815975Y579438D02*
G54D12*
D03*
X800100Y595312D02*
G54D12*
D03*
X796925Y598488D02*
G54D12*
D03*
X790575Y598488D02*
G54D12*
D03*
X781050Y595312D02*
G54D12*
D03*
X781050Y598488D02*
G54D12*
D03*
X781050Y601662D02*
G54D12*
D03*
X781050Y604838D02*
G54D12*
D03*
X781050Y608012D02*
G54D12*
D03*
X777875Y601662D02*
G54D12*
D03*
X774700Y601662D02*
G54D12*
D03*
X771525Y601662D02*
G54D12*
D03*
X768350Y601662D02*
G54D12*
D03*
X765175Y601662D02*
G54D12*
D03*
X762000Y598488D02*
G54D12*
D03*
X762000Y595312D02*
G54D12*
D03*
X765175Y592138D02*
G54D12*
D03*
X762000Y611188D02*
G54D12*
D03*
X765175Y614362D02*
G54D12*
D03*
X768350Y614362D02*
G54D12*
D03*
X771525Y614362D02*
G54D12*
D03*
X774700Y614362D02*
G54D12*
D03*
X762000Y617538D02*
G54D12*
D03*
X762000Y620712D02*
G54D12*
D03*
X762000Y623888D02*
G54D12*
D03*
X765175Y623888D02*
G54D12*
D03*
X768350Y623888D02*
G54D12*
D03*
X771525Y623888D02*
G54D12*
D03*
X774700Y623888D02*
G54D12*
D03*
X777875Y630238D02*
G54D12*
D03*
X771525Y630238D02*
G54D12*
D03*
X768350Y630238D02*
G54D12*
D03*
X765175Y630238D02*
G54D12*
D03*
X762000Y630238D02*
G54D12*
D03*
X765175Y636588D02*
G54D12*
D03*
X768350Y636588D02*
G54D12*
D03*
X771525Y636588D02*
G54D12*
D03*
X774700Y639762D02*
G54D12*
D03*
X774700Y642938D02*
G54D12*
D03*
X762000Y639762D02*
G54D12*
D03*
X762000Y642938D02*
G54D12*
D03*
X762000Y646112D02*
G54D12*
D03*
X774700Y646112D02*
G54D12*
D03*
X765175Y652462D02*
G54D12*
D03*
X768350Y652462D02*
G54D12*
D03*
X771525Y652462D02*
G54D12*
D03*
X774700Y655638D02*
G54D12*
D03*
X774700Y658812D02*
G54D12*
D03*
X774700Y661988D02*
G54D12*
D03*
X762000Y655638D02*
G54D12*
D03*
X762000Y658813D02*
G54D12*
D03*
X762000Y661988D02*
G54D12*
D03*
X771525Y665162D02*
G54D12*
D03*
X768350Y665162D02*
G54D12*
D03*
X768350Y661988D02*
G54D12*
D03*
X768350Y658812D02*
G54D12*
D03*
X768350Y655638D02*
G54D12*
D03*
X781050Y563562D02*
G54D12*
D03*
X777875Y566738D02*
G54D12*
D03*
X781050Y569912D02*
G54D12*
D03*
X784225Y566738D02*
G54D12*
D03*
X777875Y576262D02*
G54D12*
D03*
X787400Y554038D02*
G54D12*
D03*
X787400Y582612D02*
G54D12*
D03*
X768350Y566738D02*
G54D12*
D03*
X784225Y550862D02*
G54D12*
D03*
X800100Y611188D02*
G54D12*
D03*
X800100Y614362D02*
G54D12*
D03*
X800100Y617538D02*
G54D12*
D03*
X800100Y620712D02*
G54D12*
D03*
X800100Y623888D02*
G54D12*
D03*
X796925Y623888D02*
G54D12*
D03*
X793750Y623888D02*
G54D12*
D03*
X790575Y620712D02*
G54D12*
D03*
X787400Y617538D02*
G54D12*
D03*
X784225Y614362D02*
G54D12*
D03*
X806450Y627062D02*
G54D12*
D03*
X803275Y627062D02*
G54D12*
D03*
X803275Y630238D02*
G54D12*
D03*
X806450Y630238D02*
G54D12*
D03*
X800100Y633412D02*
G54D12*
D03*
X800100Y636588D02*
G54D12*
D03*
X800100Y639762D02*
G54D12*
D03*
X800100Y642938D02*
G54D12*
D03*
X800100Y646112D02*
G54D12*
D03*
X793750Y633412D02*
G54D12*
D03*
X793750Y636588D02*
G54D12*
D03*
X793750Y639762D02*
G54D12*
D03*
X793750Y642938D02*
G54D12*
D03*
X793750Y646112D02*
G54D12*
D03*
X790575Y646112D02*
G54D12*
D03*
X787400Y642938D02*
G54D12*
D03*
X784225Y639762D02*
G54D12*
D03*
X784225Y633412D02*
G54D12*
D03*
X784225Y636588D02*
G54D12*
D03*
X800100Y652462D02*
G54D12*
D03*
X800100Y655638D02*
G54D12*
D03*
X800100Y658812D02*
G54D12*
D03*
X800100Y661988D02*
G54D12*
D03*
X800100Y665162D02*
G54D12*
D03*
X796925Y665162D02*
G54D12*
D03*
X793750Y661988D02*
G54D12*
D03*
X790575Y658812D02*
G54D12*
D03*
X787400Y655638D02*
G54D12*
D03*
X784225Y652462D02*
G54D12*
D03*
X787400Y661988D02*
G54D12*
D03*
X784225Y665162D02*
G54D12*
D03*
X812800Y573088D02*
G54D12*
D03*
X809625Y569912D02*
G54D12*
D03*
G54D13*
X814070Y639254D02*
X812958Y641254D01*
X811847Y641921D01*
X809625Y641921D01*
G54D13*
X809625Y636588D02*
X818514Y636588D01*
X818514Y639921D01*
X817958Y641254D01*
X816847Y641921D01*
X815736Y641921D01*
X814625Y641254D01*
X814070Y639921D01*
X814070Y636588D01*
G54D13*
X810180Y648364D02*
X809625Y647298D01*
X809625Y645964D01*
X810180Y644631D01*
X811292Y644364D01*
X813180Y644364D01*
X814292Y645031D01*
X814625Y646364D01*
X814292Y647698D01*
X813514Y648364D01*
X812403Y648364D01*
X812403Y644364D01*
G54D13*
X814625Y650808D02*
X809625Y653475D01*
X814625Y656142D01*
G54D13*
X809625Y658586D02*
X809625Y658586D01*
G54D13*
X809625Y666363D02*
X809625Y661030D01*
X810180Y661030D01*
X811292Y661696D01*
X814625Y665696D01*
X815736Y666363D01*
X816847Y666363D01*
X817958Y665696D01*
X818514Y664363D01*
X818514Y663030D01*
X817958Y661696D01*
X816847Y661030D01*
G54D13*
X809625Y668806D02*
X809625Y668806D01*
G54D13*
X816847Y676584D02*
X811292Y676584D01*
X810180Y675917D01*
X809625Y674584D01*
X809625Y673250D01*
X810180Y671917D01*
X811292Y671250D01*
X816847Y671250D01*
X817958Y671917D01*
X818514Y673250D01*
X818514Y674584D01*
X817958Y675917D01*
X816847Y676584D01*
X787400Y541338D02*
G54D12*
D03*
X762000Y566738D02*
G54D12*
D03*
M02*
