%FSLAX34Y34*%
%MOMM*%
%LNSILK_TOP*%
G71*
G01*
%ADD10C, 2.60*%
%ADD11R, 0.67X0.67*%
%ADD12C, 0.51*%
%ADD13C, 2.30*%
%ADD14C, 1.80*%
%ADD15C, 3.80*%
%ADD16C, 1.00*%
%ADD17C, 0.60*%
%ADD18C, 1.80*%
%ADD19R, 0.27X0.27*%
%ADD20C, 0.11*%
%ADD21C, 1.50*%
%ADD22C, 3.00*%
%LPD*%
G36*
X0Y1000000D02*
X1000000Y1000000D01*
X1000000Y290000D01*
X0Y290000D01*
X0Y1000000D01*
G37*
%LPC*%
G36*
X146000Y862065D02*
X134885Y850950D01*
X119115Y850950D01*
X108000Y862065D01*
X108000Y877835D01*
X119115Y888950D01*
X134885Y888950D01*
X146000Y877835D01*
X146000Y862065D01*
G37*
G36*
X95200Y862065D02*
X84085Y850950D01*
X68315Y850950D01*
X57200Y862065D01*
X57200Y877835D01*
X68315Y888950D01*
X84085Y888950D01*
X95200Y877835D01*
X95200Y862065D01*
G37*
X38100Y749300D02*
G54D10*
D03*
X38100Y774700D02*
G54D10*
D03*
X38100Y660400D02*
G54D10*
D03*
X38100Y685800D02*
G54D10*
D03*
G36*
X57200Y877835D02*
X68315Y888950D01*
X84085Y888950D01*
X95200Y877835D01*
X95200Y862065D01*
X84085Y850950D01*
X68315Y850950D01*
X57200Y862065D01*
X57200Y877835D01*
G37*
X38100Y774700D02*
G54D10*
D03*
X38100Y685800D02*
G54D10*
D03*
X209550Y787400D02*
G54D10*
D03*
G36*
X126045Y755950D02*
X133650Y748345D01*
X133650Y737555D01*
X126045Y729950D01*
X115255Y729950D01*
X107650Y737555D01*
X107650Y748345D01*
X115255Y755950D01*
X126045Y755950D01*
G37*
G36*
X126045Y730550D02*
X133650Y722945D01*
X133650Y712155D01*
X126045Y704550D01*
X115255Y704550D01*
X107650Y712155D01*
X107650Y722945D01*
X115255Y730550D01*
X126045Y730550D01*
G37*
G36*
X126045Y705150D02*
X133650Y697545D01*
X133650Y686755D01*
X126045Y679150D01*
X115255Y679150D01*
X107650Y686755D01*
X107650Y697545D01*
X115255Y705150D01*
X126045Y705150D01*
G37*
G36*
X126045Y730550D02*
X133650Y722945D01*
X133650Y712155D01*
X126045Y704550D01*
X115255Y704550D01*
X107650Y712155D01*
X107650Y722945D01*
X115255Y730550D01*
X126045Y730550D01*
G37*
X279400Y787400D02*
G54D10*
D03*
X254397Y787400D02*
G54D10*
D03*
X234553Y787400D02*
G54D10*
D03*
X209550Y787400D02*
G54D10*
D03*
G36*
X334158Y804427D02*
X320118Y790387D01*
X300198Y790387D01*
X286158Y804427D01*
X286158Y824347D01*
X300198Y838387D01*
X320118Y838387D01*
X334158Y824347D01*
X334158Y804427D01*
G37*
G36*
X202594Y804427D02*
X188554Y790387D01*
X168634Y790387D01*
X154594Y804427D01*
X154594Y824347D01*
X168634Y838387D01*
X188554Y838387D01*
X202594Y824347D01*
X202594Y804427D01*
G37*
X314325Y869950D02*
G54D11*
D03*
X311150Y866775D02*
G54D11*
D03*
X307975Y863600D02*
G54D11*
D03*
X304800Y860425D02*
G54D11*
D03*
X314325Y876300D02*
G54D11*
D03*
X311150Y879475D02*
G54D11*
D03*
X307975Y882650D02*
G54D11*
D03*
X304800Y885825D02*
G54D11*
D03*
X301625Y889000D02*
G54D11*
D03*
X301625Y857250D02*
G54D11*
D03*
X298450Y854075D02*
G54D11*
D03*
X295275Y850900D02*
G54D11*
D03*
X292100Y847725D02*
G54D11*
D03*
X285750Y847725D02*
G54D11*
D03*
X282575Y850900D02*
G54D11*
D03*
X279400Y854075D02*
G54D11*
D03*
X276225Y857250D02*
G54D11*
D03*
X273050Y860425D02*
G54D11*
D03*
X269875Y863600D02*
G54D11*
D03*
X266700Y866775D02*
G54D11*
D03*
X263525Y869950D02*
G54D11*
D03*
X260350Y873125D02*
G54D11*
D03*
X298450Y892175D02*
G54D11*
D03*
X295275Y895350D02*
G54D11*
D03*
X292100Y898525D02*
G54D11*
D03*
X288925Y901700D02*
G54D11*
D03*
X273050Y898525D02*
G54D11*
D03*
X263525Y889000D02*
G54D11*
D03*
X260350Y892175D02*
G54D11*
D03*
X269875Y901700D02*
G54D11*
D03*
X269875Y908050D02*
G54D11*
D03*
X266700Y911225D02*
G54D11*
D03*
X263525Y908050D02*
G54D11*
D03*
X260350Y904875D02*
G54D11*
D03*
X257175Y901700D02*
G54D11*
D03*
X254000Y898525D02*
G54D11*
D03*
X250825Y895350D02*
G54D11*
D03*
X254000Y892175D02*
G54D11*
D03*
X304800Y879475D02*
G54D11*
D03*
X301625Y879475D02*
G54D11*
D03*
X298450Y882650D02*
G54D11*
D03*
X295275Y879475D02*
G54D11*
D03*
X292100Y879475D02*
G54D11*
D03*
X288925Y879475D02*
G54D11*
D03*
X285750Y876300D02*
G54D11*
D03*
X282575Y876300D02*
G54D11*
D03*
X279400Y879475D02*
G54D11*
D03*
X276225Y879475D02*
G54D11*
D03*
X273050Y879475D02*
G54D11*
D03*
X269875Y879475D02*
G54D11*
D03*
X266700Y879475D02*
G54D11*
D03*
X263525Y876300D02*
G54D11*
D03*
X247650Y904875D02*
G54D11*
D03*
X247650Y901700D02*
G54D11*
D03*
X247650Y898525D02*
G54D11*
D03*
X244475Y898525D02*
G54D11*
D03*
X244475Y904875D02*
G54D11*
D03*
X241300Y904875D02*
G54D11*
D03*
X241300Y908050D02*
G54D11*
D03*
X241300Y911225D02*
G54D11*
D03*
X238125Y911225D02*
G54D11*
D03*
X234950Y911225D02*
G54D11*
D03*
X234950Y908050D02*
G54D11*
D03*
X234950Y904875D02*
G54D11*
D03*
X231775Y904875D02*
G54D11*
D03*
X228600Y904875D02*
G54D11*
D03*
X228600Y901700D02*
G54D11*
D03*
X228600Y898525D02*
G54D11*
D03*
X231775Y898525D02*
G54D11*
D03*
X234950Y898525D02*
G54D11*
D03*
X241300Y898525D02*
G54D11*
D03*
X241300Y895350D02*
G54D11*
D03*
X241300Y892175D02*
G54D11*
D03*
X238125Y892175D02*
G54D11*
D03*
X234950Y892175D02*
G54D11*
D03*
X234950Y895350D02*
G54D11*
D03*
X285750Y904875D02*
G54D11*
D03*
X279400Y904875D02*
G54D11*
D03*
X276225Y901700D02*
G54D11*
D03*
X260350Y885825D02*
G54D11*
D03*
X257175Y882650D02*
G54D11*
D03*
X257175Y876300D02*
G54D11*
D03*
X260350Y866775D02*
G54D11*
D03*
X257175Y866775D02*
G54D11*
D03*
X254000Y866775D02*
G54D11*
D03*
X250825Y866775D02*
G54D11*
D03*
X247650Y866775D02*
G54D11*
D03*
X254000Y863600D02*
G54D11*
D03*
X254000Y860425D02*
G54D11*
D03*
X254000Y857250D02*
G54D11*
D03*
X254000Y854075D02*
G54D11*
D03*
X254000Y850900D02*
G54D11*
D03*
X257175Y847725D02*
G54D11*
D03*
X260350Y847725D02*
G54D11*
D03*
X263525Y850900D02*
G54D11*
D03*
X244475Y847725D02*
G54D11*
D03*
X241300Y850900D02*
G54D11*
D03*
X241300Y854075D02*
G54D11*
D03*
X241300Y857250D02*
G54D11*
D03*
X241300Y860425D02*
G54D11*
D03*
X238125Y847725D02*
G54D11*
D03*
X234950Y847725D02*
G54D11*
D03*
X231775Y847725D02*
G54D11*
D03*
X231775Y850900D02*
G54D11*
D03*
X231775Y854075D02*
G54D11*
D03*
X231775Y857250D02*
G54D11*
D03*
X231775Y860425D02*
G54D11*
D03*
X225425Y863600D02*
G54D11*
D03*
X225425Y857250D02*
G54D11*
D03*
X225425Y854075D02*
G54D11*
D03*
X225425Y850900D02*
G54D11*
D03*
X225425Y847725D02*
G54D11*
D03*
X219075Y850900D02*
G54D11*
D03*
X219075Y854075D02*
G54D11*
D03*
X219075Y857250D02*
G54D11*
D03*
X215900Y860425D02*
G54D11*
D03*
X212725Y860425D02*
G54D11*
D03*
X215900Y847725D02*
G54D11*
D03*
X212725Y847725D02*
G54D11*
D03*
X209550Y847725D02*
G54D11*
D03*
X209550Y860425D02*
G54D11*
D03*
X203200Y850900D02*
G54D11*
D03*
X203200Y854075D02*
G54D11*
D03*
X203200Y857250D02*
G54D11*
D03*
X200025Y860425D02*
G54D11*
D03*
X196850Y860425D02*
G54D11*
D03*
X193675Y860425D02*
G54D11*
D03*
X200025Y847725D02*
G54D11*
D03*
X196850Y847725D02*
G54D11*
D03*
X193675Y847725D02*
G54D11*
D03*
X190500Y857250D02*
G54D11*
D03*
X190500Y854075D02*
G54D11*
D03*
X193675Y854075D02*
G54D11*
D03*
X196850Y854075D02*
G54D11*
D03*
X200025Y854075D02*
G54D11*
D03*
X292100Y866775D02*
G54D11*
D03*
X288925Y863600D02*
G54D11*
D03*
X285750Y866775D02*
G54D11*
D03*
X288925Y869950D02*
G54D11*
D03*
X279400Y863600D02*
G54D11*
D03*
X301625Y873125D02*
G54D11*
D03*
X273050Y873125D02*
G54D11*
D03*
X288925Y854075D02*
G54D11*
D03*
X304800Y869950D02*
G54D11*
D03*
X244475Y885825D02*
G54D11*
D03*
X241300Y885825D02*
G54D11*
D03*
X238125Y885825D02*
G54D11*
D03*
X234950Y885825D02*
G54D11*
D03*
X231775Y885825D02*
G54D11*
D03*
X231775Y882650D02*
G54D11*
D03*
X231775Y879475D02*
G54D11*
D03*
X234950Y876300D02*
G54D11*
D03*
X238125Y873125D02*
G54D11*
D03*
X241300Y869950D02*
G54D11*
D03*
X228600Y892175D02*
G54D11*
D03*
X228600Y889000D02*
G54D11*
D03*
X225425Y889000D02*
G54D11*
D03*
X225425Y892175D02*
G54D11*
D03*
X222250Y885825D02*
G54D11*
D03*
X219075Y885825D02*
G54D11*
D03*
X215900Y885825D02*
G54D11*
D03*
X212725Y885825D02*
G54D11*
D03*
X209550Y885825D02*
G54D11*
D03*
X222250Y879475D02*
G54D11*
D03*
X219075Y879475D02*
G54D11*
D03*
X215900Y879475D02*
G54D11*
D03*
X212725Y879475D02*
G54D11*
D03*
X209550Y879475D02*
G54D11*
D03*
X209550Y876300D02*
G54D11*
D03*
X212725Y873125D02*
G54D11*
D03*
X215900Y869950D02*
G54D11*
D03*
X222250Y869950D02*
G54D11*
D03*
X219075Y869950D02*
G54D11*
D03*
X203200Y885825D02*
G54D11*
D03*
X200025Y885825D02*
G54D11*
D03*
X196850Y885825D02*
G54D11*
D03*
X193675Y885825D02*
G54D11*
D03*
X190500Y885825D02*
G54D11*
D03*
X190500Y882650D02*
G54D11*
D03*
X193675Y879475D02*
G54D11*
D03*
X196850Y876300D02*
G54D11*
D03*
X200025Y873125D02*
G54D11*
D03*
X203200Y869950D02*
G54D11*
D03*
X193675Y873125D02*
G54D11*
D03*
X190500Y869950D02*
G54D11*
D03*
X282575Y898525D02*
G54D11*
D03*
X285750Y895350D02*
G54D11*
D03*
G54D12*
X216408Y899794D02*
X214408Y898683D01*
X213742Y897572D01*
X213742Y895350D01*
G54D12*
X219075Y895350D02*
X219075Y904239D01*
X215742Y904239D01*
X214408Y903683D01*
X213742Y902572D01*
X213742Y901461D01*
X214408Y900350D01*
X215742Y899794D01*
X219075Y899794D01*
G54D12*
X207298Y895906D02*
X208365Y895350D01*
X209698Y895350D01*
X211031Y895906D01*
X211298Y897017D01*
X211298Y898906D01*
X210631Y900017D01*
X209298Y900350D01*
X207965Y900017D01*
X207298Y899239D01*
X207298Y898128D01*
X211298Y898128D01*
G54D12*
X204854Y900350D02*
X202187Y895350D01*
X199521Y900350D01*
G54D12*
X197077Y895350D02*
X197077Y895350D01*
G54D12*
X189300Y895350D02*
X194633Y895350D01*
X194633Y895906D01*
X193966Y897017D01*
X189966Y900350D01*
X189300Y901461D01*
X189300Y902572D01*
X189966Y903683D01*
X191300Y904239D01*
X192633Y904239D01*
X193966Y903683D01*
X194633Y902572D01*
G54D12*
X186856Y895350D02*
X186856Y895350D01*
G54D12*
X179079Y902572D02*
X179079Y897017D01*
X179745Y895906D01*
X181079Y895350D01*
X182412Y895350D01*
X183745Y895906D01*
X184412Y897017D01*
X184412Y902572D01*
X183745Y903683D01*
X182412Y904239D01*
X181079Y904239D01*
X179745Y903683D01*
X179079Y902572D01*
X228600Y577850D02*
G54D10*
D03*
X254000Y577850D02*
G54D10*
D03*
X279400Y577850D02*
G54D10*
D03*
X304800Y577850D02*
G54D10*
D03*
X228600Y508000D02*
G54D10*
D03*
X254000Y508000D02*
G54D10*
D03*
X279400Y508000D02*
G54D10*
D03*
X304800Y508000D02*
G54D10*
D03*
X38100Y508000D02*
G54D10*
D03*
X63500Y508000D02*
G54D10*
D03*
X88900Y508000D02*
G54D10*
D03*
X114300Y508000D02*
G54D10*
D03*
X38100Y438150D02*
G54D10*
D03*
X63500Y438150D02*
G54D10*
D03*
X88900Y438150D02*
G54D10*
D03*
X114300Y438150D02*
G54D10*
D03*
X228600Y438150D02*
G54D10*
D03*
X254000Y438150D02*
G54D10*
D03*
X279400Y438150D02*
G54D10*
D03*
X304800Y438150D02*
G54D10*
D03*
X38100Y571500D02*
G54D10*
D03*
X38100Y596900D02*
G54D10*
D03*
G54D13*
X228600Y577850D02*
X228600Y438150D01*
G54D13*
X254000Y577850D02*
X254000Y438150D01*
G54D13*
X279400Y577850D02*
X279400Y438150D01*
G54D13*
X304800Y577850D02*
X304800Y438150D01*
X38100Y596900D02*
G54D10*
D03*
X288925Y847725D02*
G54D11*
D03*
X314325Y873125D02*
G54D11*
D03*
G36*
X291800Y451150D02*
X317800Y451150D01*
X317800Y425150D01*
X291800Y425150D01*
X291800Y451150D01*
G37*
G36*
X101300Y521000D02*
X127300Y521000D01*
X127300Y495000D01*
X101300Y495000D01*
X101300Y521000D01*
G37*
G36*
X101300Y451150D02*
X127300Y451150D01*
X127300Y425150D01*
X101300Y425150D01*
X101300Y451150D01*
G37*
G36*
X291800Y521000D02*
X317800Y521000D01*
X317800Y495000D01*
X291800Y495000D01*
X291800Y521000D01*
G37*
G36*
X291800Y590850D02*
X317800Y590850D01*
X317800Y564850D01*
X291800Y564850D01*
X291800Y590850D01*
G37*
G54D14*
X254000Y438150D02*
X254000Y419100D01*
X247650Y412750D01*
X69850Y412750D01*
X63500Y419100D01*
X63500Y438150D01*
G54D14*
X38100Y508000D02*
X38100Y520700D01*
X50800Y533400D01*
X228600Y533400D01*
X171450Y501650D02*
G54D15*
D03*
G54D13*
X120650Y742950D02*
X285750Y742950D01*
X311150Y717550D01*
X311150Y641350D01*
G36*
X299341Y657000D02*
X325341Y657000D01*
X325341Y613000D01*
X299341Y613000D01*
X299341Y657000D01*
G37*
G36*
X476200Y862065D02*
X465085Y850950D01*
X449315Y850950D01*
X438200Y862065D01*
X438200Y877835D01*
X449315Y888950D01*
X465085Y888950D01*
X476200Y877835D01*
X476200Y862065D01*
G37*
G36*
X425400Y862065D02*
X414285Y850950D01*
X398515Y850950D01*
X387400Y862065D01*
X387400Y877835D01*
X398515Y888950D01*
X414285Y888950D01*
X425400Y877835D01*
X425400Y862065D01*
G37*
X368300Y749300D02*
G54D10*
D03*
X368300Y774700D02*
G54D10*
D03*
X368300Y660400D02*
G54D10*
D03*
X368300Y685800D02*
G54D10*
D03*
G36*
X387400Y877835D02*
X398515Y888950D01*
X414285Y888950D01*
X425400Y877835D01*
X425400Y862065D01*
X414285Y850950D01*
X398515Y850950D01*
X387400Y862065D01*
X387400Y877835D01*
G37*
X368300Y774700D02*
G54D10*
D03*
X368300Y685800D02*
G54D10*
D03*
X539750Y787400D02*
G54D10*
D03*
G36*
X456245Y755950D02*
X463850Y748345D01*
X463850Y737555D01*
X456245Y729950D01*
X445455Y729950D01*
X437850Y737555D01*
X437850Y748345D01*
X445455Y755950D01*
X456245Y755950D01*
G37*
G36*
X456245Y730550D02*
X463850Y722945D01*
X463850Y712155D01*
X456245Y704550D01*
X445455Y704550D01*
X437850Y712155D01*
X437850Y722945D01*
X445455Y730550D01*
X456245Y730550D01*
G37*
G36*
X456245Y705150D02*
X463850Y697545D01*
X463850Y686755D01*
X456245Y679150D01*
X445455Y679150D01*
X437850Y686755D01*
X437850Y697545D01*
X445455Y705150D01*
X456245Y705150D01*
G37*
G36*
X456245Y730550D02*
X463850Y722945D01*
X463850Y712155D01*
X456245Y704550D01*
X445455Y704550D01*
X437850Y712155D01*
X437850Y722945D01*
X445455Y730550D01*
X456245Y730550D01*
G37*
X609600Y787400D02*
G54D10*
D03*
X584597Y787400D02*
G54D10*
D03*
X564753Y787400D02*
G54D10*
D03*
X539750Y787400D02*
G54D10*
D03*
G36*
X664358Y804428D02*
X650318Y790388D01*
X630398Y790388D01*
X616358Y804428D01*
X616358Y824348D01*
X630398Y838388D01*
X650318Y838388D01*
X664358Y824348D01*
X664358Y804428D01*
G37*
G36*
X532794Y804427D02*
X518754Y790387D01*
X498834Y790387D01*
X484794Y804427D01*
X484794Y824347D01*
X498834Y838387D01*
X518754Y838387D01*
X532794Y824347D01*
X532794Y804427D01*
G37*
X644525Y869950D02*
G54D11*
D03*
X641350Y866775D02*
G54D11*
D03*
X638175Y863600D02*
G54D11*
D03*
X635000Y860425D02*
G54D11*
D03*
X644525Y876300D02*
G54D11*
D03*
X641350Y879475D02*
G54D11*
D03*
X638175Y882650D02*
G54D11*
D03*
X635000Y885825D02*
G54D11*
D03*
X631825Y889000D02*
G54D11*
D03*
X631825Y857250D02*
G54D11*
D03*
X628650Y854075D02*
G54D11*
D03*
X625475Y850900D02*
G54D11*
D03*
X622300Y847725D02*
G54D11*
D03*
X615950Y847725D02*
G54D11*
D03*
X612775Y850900D02*
G54D11*
D03*
X609600Y854075D02*
G54D11*
D03*
X606425Y857250D02*
G54D11*
D03*
X603250Y860425D02*
G54D11*
D03*
X600075Y863600D02*
G54D11*
D03*
X596900Y866775D02*
G54D11*
D03*
X593725Y869950D02*
G54D11*
D03*
X590550Y873125D02*
G54D11*
D03*
X628650Y892175D02*
G54D11*
D03*
X625475Y895350D02*
G54D11*
D03*
X622300Y898525D02*
G54D11*
D03*
X619125Y901700D02*
G54D11*
D03*
X603250Y898525D02*
G54D11*
D03*
X593725Y889000D02*
G54D11*
D03*
X590550Y892175D02*
G54D11*
D03*
X600075Y901700D02*
G54D11*
D03*
X600075Y908050D02*
G54D11*
D03*
X596900Y911225D02*
G54D11*
D03*
X593725Y908050D02*
G54D11*
D03*
X590550Y904875D02*
G54D11*
D03*
X587375Y901700D02*
G54D11*
D03*
X584200Y898525D02*
G54D11*
D03*
X581025Y895350D02*
G54D11*
D03*
X584200Y892175D02*
G54D11*
D03*
X635000Y879475D02*
G54D11*
D03*
X631825Y879475D02*
G54D11*
D03*
X628650Y882650D02*
G54D11*
D03*
X625475Y879475D02*
G54D11*
D03*
X622300Y879475D02*
G54D11*
D03*
X619125Y879475D02*
G54D11*
D03*
X615950Y876300D02*
G54D11*
D03*
X612775Y876300D02*
G54D11*
D03*
X609600Y879475D02*
G54D11*
D03*
X606425Y879475D02*
G54D11*
D03*
X603250Y879475D02*
G54D11*
D03*
X600075Y879475D02*
G54D11*
D03*
X596900Y879475D02*
G54D11*
D03*
X593725Y876300D02*
G54D11*
D03*
X577850Y904875D02*
G54D11*
D03*
X577850Y901700D02*
G54D11*
D03*
X577850Y898525D02*
G54D11*
D03*
X574675Y898525D02*
G54D11*
D03*
X574675Y904875D02*
G54D11*
D03*
X571500Y904875D02*
G54D11*
D03*
X571500Y908050D02*
G54D11*
D03*
X571500Y911225D02*
G54D11*
D03*
X568325Y911225D02*
G54D11*
D03*
X565150Y911225D02*
G54D11*
D03*
X565150Y908050D02*
G54D11*
D03*
X565150Y904875D02*
G54D11*
D03*
X561975Y904875D02*
G54D11*
D03*
X558800Y904875D02*
G54D11*
D03*
X558800Y901700D02*
G54D11*
D03*
X558800Y898525D02*
G54D11*
D03*
X561975Y898525D02*
G54D11*
D03*
X565150Y898525D02*
G54D11*
D03*
X571500Y898525D02*
G54D11*
D03*
X571500Y895350D02*
G54D11*
D03*
X571500Y892175D02*
G54D11*
D03*
X568325Y892175D02*
G54D11*
D03*
X565150Y892175D02*
G54D11*
D03*
X565150Y895350D02*
G54D11*
D03*
X615950Y904875D02*
G54D11*
D03*
X609600Y904875D02*
G54D11*
D03*
X606425Y901700D02*
G54D11*
D03*
X590550Y885825D02*
G54D11*
D03*
X587375Y882650D02*
G54D11*
D03*
X587375Y876300D02*
G54D11*
D03*
X590550Y866775D02*
G54D11*
D03*
X587375Y866775D02*
G54D11*
D03*
X584200Y866775D02*
G54D11*
D03*
X581025Y866775D02*
G54D11*
D03*
X577850Y866775D02*
G54D11*
D03*
X584200Y863600D02*
G54D11*
D03*
X584200Y860425D02*
G54D11*
D03*
X584200Y857250D02*
G54D11*
D03*
X584200Y854075D02*
G54D11*
D03*
X584200Y850900D02*
G54D11*
D03*
X587375Y847725D02*
G54D11*
D03*
X590550Y847725D02*
G54D11*
D03*
X593725Y850900D02*
G54D11*
D03*
X574675Y847725D02*
G54D11*
D03*
X571500Y850900D02*
G54D11*
D03*
X571500Y854075D02*
G54D11*
D03*
X571500Y857250D02*
G54D11*
D03*
X571500Y860425D02*
G54D11*
D03*
X568325Y847725D02*
G54D11*
D03*
X565150Y847725D02*
G54D11*
D03*
X561975Y847725D02*
G54D11*
D03*
X561975Y850900D02*
G54D11*
D03*
X561975Y854075D02*
G54D11*
D03*
X561975Y857250D02*
G54D11*
D03*
X561975Y860425D02*
G54D11*
D03*
X555625Y863600D02*
G54D11*
D03*
X555625Y857250D02*
G54D11*
D03*
X555625Y854075D02*
G54D11*
D03*
X555625Y850900D02*
G54D11*
D03*
X555625Y847725D02*
G54D11*
D03*
X549275Y850900D02*
G54D11*
D03*
X549275Y854075D02*
G54D11*
D03*
X549275Y857250D02*
G54D11*
D03*
X546100Y860425D02*
G54D11*
D03*
X542925Y860425D02*
G54D11*
D03*
X546100Y847725D02*
G54D11*
D03*
X542925Y847725D02*
G54D11*
D03*
X539750Y847725D02*
G54D11*
D03*
X539750Y860425D02*
G54D11*
D03*
X533400Y850900D02*
G54D11*
D03*
X533400Y854075D02*
G54D11*
D03*
X533400Y857250D02*
G54D11*
D03*
X530225Y860425D02*
G54D11*
D03*
X527050Y860425D02*
G54D11*
D03*
X523875Y860425D02*
G54D11*
D03*
X530225Y847725D02*
G54D11*
D03*
X527050Y847725D02*
G54D11*
D03*
X523875Y847725D02*
G54D11*
D03*
X520700Y857250D02*
G54D11*
D03*
X520700Y854075D02*
G54D11*
D03*
X523875Y854075D02*
G54D11*
D03*
X527050Y854075D02*
G54D11*
D03*
X530225Y854075D02*
G54D11*
D03*
X622300Y866775D02*
G54D11*
D03*
X619125Y863600D02*
G54D11*
D03*
X615950Y866775D02*
G54D11*
D03*
X619125Y869950D02*
G54D11*
D03*
X609600Y863600D02*
G54D11*
D03*
X631825Y873125D02*
G54D11*
D03*
X603250Y873125D02*
G54D11*
D03*
X619125Y854075D02*
G54D11*
D03*
X635000Y869950D02*
G54D11*
D03*
X574675Y885825D02*
G54D11*
D03*
X571500Y885825D02*
G54D11*
D03*
X568325Y885825D02*
G54D11*
D03*
X565150Y885825D02*
G54D11*
D03*
X561975Y885825D02*
G54D11*
D03*
X561975Y882650D02*
G54D11*
D03*
X561975Y879475D02*
G54D11*
D03*
X565150Y876300D02*
G54D11*
D03*
X568325Y873125D02*
G54D11*
D03*
X571500Y869950D02*
G54D11*
D03*
X558800Y892175D02*
G54D11*
D03*
X558800Y889000D02*
G54D11*
D03*
X555625Y889000D02*
G54D11*
D03*
X555625Y892175D02*
G54D11*
D03*
X552450Y885825D02*
G54D11*
D03*
X549275Y885825D02*
G54D11*
D03*
X546100Y885825D02*
G54D11*
D03*
X542925Y885825D02*
G54D11*
D03*
X539750Y885825D02*
G54D11*
D03*
X552450Y879475D02*
G54D11*
D03*
X549275Y879475D02*
G54D11*
D03*
X546100Y879475D02*
G54D11*
D03*
X542925Y879475D02*
G54D11*
D03*
X539750Y879475D02*
G54D11*
D03*
X539750Y876300D02*
G54D11*
D03*
X542925Y873125D02*
G54D11*
D03*
X546100Y869950D02*
G54D11*
D03*
X552450Y869950D02*
G54D11*
D03*
X549275Y869950D02*
G54D11*
D03*
X533400Y885825D02*
G54D11*
D03*
X530225Y885825D02*
G54D11*
D03*
X527050Y885825D02*
G54D11*
D03*
X523875Y885825D02*
G54D11*
D03*
X520700Y885825D02*
G54D11*
D03*
X520700Y882650D02*
G54D11*
D03*
X523875Y879475D02*
G54D11*
D03*
X527050Y876300D02*
G54D11*
D03*
X530225Y873125D02*
G54D11*
D03*
X533400Y869950D02*
G54D11*
D03*
X523875Y873125D02*
G54D11*
D03*
X520700Y869950D02*
G54D11*
D03*
X612775Y898525D02*
G54D11*
D03*
X615950Y895350D02*
G54D11*
D03*
G54D12*
X546608Y899794D02*
X544608Y898683D01*
X543942Y897572D01*
X543942Y895350D01*
G54D12*
X549275Y895350D02*
X549275Y904239D01*
X545942Y904239D01*
X544608Y903683D01*
X543942Y902572D01*
X543942Y901461D01*
X544608Y900350D01*
X545942Y899794D01*
X549275Y899794D01*
G54D12*
X537498Y895906D02*
X538565Y895350D01*
X539898Y895350D01*
X541231Y895906D01*
X541498Y897017D01*
X541498Y898906D01*
X540831Y900017D01*
X539498Y900350D01*
X538165Y900017D01*
X537498Y899239D01*
X537498Y898128D01*
X541498Y898128D01*
G54D12*
X535054Y900350D02*
X532387Y895350D01*
X529721Y900350D01*
G54D12*
X527277Y895350D02*
X527277Y895350D01*
G54D12*
X519500Y895350D02*
X524833Y895350D01*
X524833Y895906D01*
X524166Y897017D01*
X520166Y900350D01*
X519500Y901461D01*
X519500Y902572D01*
X520166Y903683D01*
X521500Y904239D01*
X522833Y904239D01*
X524166Y903683D01*
X524833Y902572D01*
G54D12*
X517056Y895350D02*
X517056Y895350D01*
G54D12*
X509279Y902572D02*
X509279Y897017D01*
X509945Y895906D01*
X511279Y895350D01*
X512612Y895350D01*
X513945Y895906D01*
X514612Y897017D01*
X514612Y902572D01*
X513945Y903683D01*
X512612Y904239D01*
X511279Y904239D01*
X509945Y903683D01*
X509279Y902572D01*
X558800Y577850D02*
G54D10*
D03*
X584200Y577850D02*
G54D10*
D03*
X609600Y577850D02*
G54D10*
D03*
X635000Y577850D02*
G54D10*
D03*
X558800Y508000D02*
G54D10*
D03*
X584200Y508000D02*
G54D10*
D03*
X609600Y508000D02*
G54D10*
D03*
X635000Y508000D02*
G54D10*
D03*
X368300Y508000D02*
G54D10*
D03*
X393700Y508000D02*
G54D10*
D03*
X419100Y508000D02*
G54D10*
D03*
X444500Y508000D02*
G54D10*
D03*
X368300Y438150D02*
G54D10*
D03*
X393700Y438150D02*
G54D10*
D03*
X419100Y438150D02*
G54D10*
D03*
X444500Y438150D02*
G54D10*
D03*
X558800Y438150D02*
G54D10*
D03*
X584200Y438150D02*
G54D10*
D03*
X609600Y438150D02*
G54D10*
D03*
X635000Y438150D02*
G54D10*
D03*
X368300Y571500D02*
G54D10*
D03*
X368300Y596900D02*
G54D10*
D03*
G54D13*
X558800Y577850D02*
X558800Y438150D01*
G54D13*
X584200Y577850D02*
X584200Y438150D01*
G54D13*
X609600Y577850D02*
X609600Y438150D01*
G54D13*
X635000Y577850D02*
X635000Y438150D01*
X368300Y596900D02*
G54D10*
D03*
X619125Y847725D02*
G54D11*
D03*
X644525Y873125D02*
G54D11*
D03*
G36*
X622000Y451150D02*
X648000Y451150D01*
X648000Y425150D01*
X622000Y425150D01*
X622000Y451150D01*
G37*
G36*
X431500Y521000D02*
X457500Y521000D01*
X457500Y495000D01*
X431500Y495000D01*
X431500Y521000D01*
G37*
G36*
X431500Y451150D02*
X457500Y451150D01*
X457500Y425150D01*
X431500Y425150D01*
X431500Y451150D01*
G37*
G36*
X622000Y521000D02*
X648000Y521000D01*
X648000Y495000D01*
X622000Y495000D01*
X622000Y521000D01*
G37*
G36*
X622000Y590850D02*
X648000Y590850D01*
X648000Y564850D01*
X622000Y564850D01*
X622000Y590850D01*
G37*
G54D14*
X584200Y438150D02*
X584200Y419100D01*
X577850Y412750D01*
X400050Y412750D01*
X393700Y419100D01*
X393700Y438150D01*
G54D14*
X368300Y508000D02*
X368300Y520700D01*
X381000Y533400D01*
X558800Y533400D01*
X501650Y501650D02*
G54D15*
D03*
G54D13*
X450850Y742950D02*
X615950Y742950D01*
X641350Y717550D01*
X641350Y641350D01*
G36*
X629541Y657000D02*
X655541Y657000D01*
X655541Y613000D01*
X629541Y613000D01*
X629541Y657000D01*
G37*
G36*
X806400Y862065D02*
X795285Y850950D01*
X779515Y850950D01*
X768400Y862065D01*
X768400Y877835D01*
X779515Y888950D01*
X795285Y888950D01*
X806400Y877835D01*
X806400Y862065D01*
G37*
G36*
X755600Y862065D02*
X744485Y850950D01*
X728715Y850950D01*
X717600Y862065D01*
X717600Y877835D01*
X728715Y888950D01*
X744485Y888950D01*
X755600Y877835D01*
X755600Y862065D01*
G37*
X698500Y749300D02*
G54D10*
D03*
X698500Y774700D02*
G54D10*
D03*
X698500Y660400D02*
G54D10*
D03*
X698500Y685800D02*
G54D10*
D03*
G36*
X717600Y877835D02*
X728715Y888950D01*
X744485Y888950D01*
X755600Y877835D01*
X755600Y862065D01*
X744485Y850950D01*
X728715Y850950D01*
X717600Y862065D01*
X717600Y877835D01*
G37*
X698500Y774700D02*
G54D10*
D03*
X698500Y685800D02*
G54D10*
D03*
X869950Y787400D02*
G54D10*
D03*
G36*
X786445Y755950D02*
X794050Y748345D01*
X794050Y737555D01*
X786445Y729950D01*
X775655Y729950D01*
X768050Y737555D01*
X768050Y748345D01*
X775655Y755950D01*
X786445Y755950D01*
G37*
G36*
X786445Y730550D02*
X794050Y722945D01*
X794050Y712155D01*
X786445Y704550D01*
X775655Y704550D01*
X768050Y712155D01*
X768050Y722945D01*
X775655Y730550D01*
X786445Y730550D01*
G37*
G36*
X786445Y705150D02*
X794050Y697545D01*
X794050Y686755D01*
X786445Y679150D01*
X775655Y679150D01*
X768050Y686755D01*
X768050Y697545D01*
X775655Y705150D01*
X786445Y705150D01*
G37*
G36*
X786445Y730550D02*
X794050Y722945D01*
X794050Y712155D01*
X786445Y704550D01*
X775655Y704550D01*
X768050Y712155D01*
X768050Y722945D01*
X775655Y730550D01*
X786445Y730550D01*
G37*
X939800Y787400D02*
G54D10*
D03*
X914797Y787400D02*
G54D10*
D03*
X894953Y787400D02*
G54D10*
D03*
X869950Y787400D02*
G54D10*
D03*
G36*
X994558Y804428D02*
X980518Y790388D01*
X960598Y790388D01*
X946558Y804428D01*
X946558Y824348D01*
X960598Y838388D01*
X980518Y838388D01*
X994558Y824348D01*
X994558Y804428D01*
G37*
G36*
X862994Y804427D02*
X848954Y790387D01*
X829034Y790387D01*
X814994Y804427D01*
X814994Y824347D01*
X829034Y838387D01*
X848954Y838387D01*
X862994Y824347D01*
X862994Y804427D01*
G37*
X974725Y869950D02*
G54D11*
D03*
X971550Y866775D02*
G54D11*
D03*
X968375Y863600D02*
G54D11*
D03*
X965200Y860425D02*
G54D11*
D03*
X974725Y876300D02*
G54D11*
D03*
X971550Y879475D02*
G54D11*
D03*
X968375Y882650D02*
G54D11*
D03*
X965200Y885825D02*
G54D11*
D03*
X962025Y889000D02*
G54D11*
D03*
X962025Y857250D02*
G54D11*
D03*
X958850Y854075D02*
G54D11*
D03*
X955675Y850900D02*
G54D11*
D03*
X952500Y847725D02*
G54D11*
D03*
X946150Y847725D02*
G54D11*
D03*
X942975Y850900D02*
G54D11*
D03*
X939800Y854075D02*
G54D11*
D03*
X936625Y857250D02*
G54D11*
D03*
X933450Y860425D02*
G54D11*
D03*
X930275Y863600D02*
G54D11*
D03*
X927100Y866775D02*
G54D11*
D03*
X923925Y869950D02*
G54D11*
D03*
X920750Y873125D02*
G54D11*
D03*
X958850Y892175D02*
G54D11*
D03*
X955675Y895350D02*
G54D11*
D03*
X952500Y898525D02*
G54D11*
D03*
X949325Y901700D02*
G54D11*
D03*
X933450Y898525D02*
G54D11*
D03*
X923925Y889000D02*
G54D11*
D03*
X920750Y892175D02*
G54D11*
D03*
X930275Y901700D02*
G54D11*
D03*
X930275Y908050D02*
G54D11*
D03*
X927100Y911225D02*
G54D11*
D03*
X923925Y908050D02*
G54D11*
D03*
X920750Y904875D02*
G54D11*
D03*
X917575Y901700D02*
G54D11*
D03*
X914400Y898525D02*
G54D11*
D03*
X911225Y895350D02*
G54D11*
D03*
X914400Y892175D02*
G54D11*
D03*
X965200Y879475D02*
G54D11*
D03*
X962025Y879475D02*
G54D11*
D03*
X958850Y882650D02*
G54D11*
D03*
X955675Y879475D02*
G54D11*
D03*
X952500Y879475D02*
G54D11*
D03*
X949325Y879475D02*
G54D11*
D03*
X946150Y876300D02*
G54D11*
D03*
X942975Y876300D02*
G54D11*
D03*
X939800Y879475D02*
G54D11*
D03*
X936625Y879475D02*
G54D11*
D03*
X933450Y879475D02*
G54D11*
D03*
X930275Y879475D02*
G54D11*
D03*
X927100Y879475D02*
G54D11*
D03*
X923925Y876300D02*
G54D11*
D03*
X908050Y904875D02*
G54D11*
D03*
X908050Y901700D02*
G54D11*
D03*
X908050Y898525D02*
G54D11*
D03*
X904875Y898525D02*
G54D11*
D03*
X904875Y904875D02*
G54D11*
D03*
X901700Y904875D02*
G54D11*
D03*
X901700Y908050D02*
G54D11*
D03*
X901700Y911225D02*
G54D11*
D03*
X898525Y911225D02*
G54D11*
D03*
X895350Y911225D02*
G54D11*
D03*
X895350Y908050D02*
G54D11*
D03*
X895350Y904875D02*
G54D11*
D03*
X892175Y904875D02*
G54D11*
D03*
X889000Y904875D02*
G54D11*
D03*
X889000Y901700D02*
G54D11*
D03*
X889000Y898525D02*
G54D11*
D03*
X892175Y898525D02*
G54D11*
D03*
X895350Y898525D02*
G54D11*
D03*
X901700Y898525D02*
G54D11*
D03*
X901700Y895350D02*
G54D11*
D03*
X901700Y892175D02*
G54D11*
D03*
X898525Y892175D02*
G54D11*
D03*
X895350Y892175D02*
G54D11*
D03*
X895350Y895350D02*
G54D11*
D03*
X946150Y904875D02*
G54D11*
D03*
X939800Y904875D02*
G54D11*
D03*
X936625Y901700D02*
G54D11*
D03*
X920750Y885825D02*
G54D11*
D03*
X917575Y882650D02*
G54D11*
D03*
X917575Y876300D02*
G54D11*
D03*
X920750Y866775D02*
G54D11*
D03*
X917575Y866775D02*
G54D11*
D03*
X914400Y866775D02*
G54D11*
D03*
X911225Y866775D02*
G54D11*
D03*
X908050Y866775D02*
G54D11*
D03*
X914400Y863600D02*
G54D11*
D03*
X914400Y860425D02*
G54D11*
D03*
X914400Y857250D02*
G54D11*
D03*
X914400Y854075D02*
G54D11*
D03*
X914400Y850900D02*
G54D11*
D03*
X917575Y847725D02*
G54D11*
D03*
X920750Y847725D02*
G54D11*
D03*
X923925Y850900D02*
G54D11*
D03*
X904875Y847725D02*
G54D11*
D03*
X901700Y850900D02*
G54D11*
D03*
X901700Y854075D02*
G54D11*
D03*
X901700Y857250D02*
G54D11*
D03*
X901700Y860425D02*
G54D11*
D03*
X898525Y847725D02*
G54D11*
D03*
X895350Y847725D02*
G54D11*
D03*
X892175Y847725D02*
G54D11*
D03*
X892175Y850900D02*
G54D11*
D03*
X892175Y854075D02*
G54D11*
D03*
X892175Y857250D02*
G54D11*
D03*
X892175Y860425D02*
G54D11*
D03*
X885825Y863600D02*
G54D11*
D03*
X885825Y857250D02*
G54D11*
D03*
X885825Y854075D02*
G54D11*
D03*
X885825Y850900D02*
G54D11*
D03*
X885825Y847725D02*
G54D11*
D03*
X879475Y850900D02*
G54D11*
D03*
X879475Y854075D02*
G54D11*
D03*
X879475Y857250D02*
G54D11*
D03*
X876300Y860425D02*
G54D11*
D03*
X873125Y860425D02*
G54D11*
D03*
X876300Y847725D02*
G54D11*
D03*
X873125Y847725D02*
G54D11*
D03*
X869950Y847725D02*
G54D11*
D03*
X869950Y860425D02*
G54D11*
D03*
X863600Y850900D02*
G54D11*
D03*
X863600Y854075D02*
G54D11*
D03*
X863600Y857250D02*
G54D11*
D03*
X860425Y860425D02*
G54D11*
D03*
X857250Y860425D02*
G54D11*
D03*
X854075Y860425D02*
G54D11*
D03*
X860425Y847725D02*
G54D11*
D03*
X857250Y847725D02*
G54D11*
D03*
X854075Y847725D02*
G54D11*
D03*
X850900Y857250D02*
G54D11*
D03*
X850900Y854075D02*
G54D11*
D03*
X854075Y854075D02*
G54D11*
D03*
X857250Y854075D02*
G54D11*
D03*
X860425Y854075D02*
G54D11*
D03*
X952500Y866775D02*
G54D11*
D03*
X949325Y863600D02*
G54D11*
D03*
X946150Y866775D02*
G54D11*
D03*
X949325Y869950D02*
G54D11*
D03*
X939800Y863600D02*
G54D11*
D03*
X962025Y873125D02*
G54D11*
D03*
X933450Y873125D02*
G54D11*
D03*
X949325Y854075D02*
G54D11*
D03*
X965200Y869950D02*
G54D11*
D03*
X904875Y885825D02*
G54D11*
D03*
X901700Y885825D02*
G54D11*
D03*
X898525Y885825D02*
G54D11*
D03*
X895350Y885825D02*
G54D11*
D03*
X892175Y885825D02*
G54D11*
D03*
X892175Y882650D02*
G54D11*
D03*
X892175Y879475D02*
G54D11*
D03*
X895350Y876300D02*
G54D11*
D03*
X898525Y873125D02*
G54D11*
D03*
X901700Y869950D02*
G54D11*
D03*
X889000Y892175D02*
G54D11*
D03*
X889000Y889000D02*
G54D11*
D03*
X885825Y889000D02*
G54D11*
D03*
X885825Y892175D02*
G54D11*
D03*
X882650Y885825D02*
G54D11*
D03*
X879475Y885825D02*
G54D11*
D03*
X876300Y885825D02*
G54D11*
D03*
X873125Y885825D02*
G54D11*
D03*
X869950Y885825D02*
G54D11*
D03*
X882650Y879475D02*
G54D11*
D03*
X879475Y879475D02*
G54D11*
D03*
X876300Y879475D02*
G54D11*
D03*
X873125Y879475D02*
G54D11*
D03*
X869950Y879475D02*
G54D11*
D03*
X869950Y876300D02*
G54D11*
D03*
X873125Y873125D02*
G54D11*
D03*
X876300Y869950D02*
G54D11*
D03*
X882650Y869950D02*
G54D11*
D03*
X879475Y869950D02*
G54D11*
D03*
X863600Y885825D02*
G54D11*
D03*
X860425Y885825D02*
G54D11*
D03*
X857250Y885825D02*
G54D11*
D03*
X854075Y885825D02*
G54D11*
D03*
X850900Y885825D02*
G54D11*
D03*
X850900Y882650D02*
G54D11*
D03*
X854075Y879475D02*
G54D11*
D03*
X857250Y876300D02*
G54D11*
D03*
X860425Y873125D02*
G54D11*
D03*
X863600Y869950D02*
G54D11*
D03*
X854075Y873125D02*
G54D11*
D03*
X850900Y869950D02*
G54D11*
D03*
X942975Y898525D02*
G54D11*
D03*
X946150Y895350D02*
G54D11*
D03*
G54D12*
X876808Y899794D02*
X874808Y898683D01*
X874142Y897572D01*
X874142Y895350D01*
G54D12*
X879475Y895350D02*
X879475Y904239D01*
X876142Y904239D01*
X874808Y903683D01*
X874142Y902572D01*
X874142Y901461D01*
X874808Y900350D01*
X876142Y899794D01*
X879475Y899794D01*
G54D12*
X867698Y895906D02*
X868765Y895350D01*
X870098Y895350D01*
X871431Y895906D01*
X871698Y897017D01*
X871698Y898906D01*
X871031Y900017D01*
X869698Y900350D01*
X868365Y900017D01*
X867698Y899239D01*
X867698Y898128D01*
X871698Y898128D01*
G54D12*
X865254Y900350D02*
X862587Y895350D01*
X859921Y900350D01*
G54D12*
X857477Y895350D02*
X857477Y895350D01*
G54D12*
X849700Y895350D02*
X855033Y895350D01*
X855033Y895906D01*
X854366Y897017D01*
X850366Y900350D01*
X849700Y901461D01*
X849700Y902572D01*
X850366Y903683D01*
X851700Y904239D01*
X853033Y904239D01*
X854366Y903683D01*
X855033Y902572D01*
G54D12*
X847256Y895350D02*
X847256Y895350D01*
G54D12*
X839479Y902572D02*
X839479Y897017D01*
X840145Y895906D01*
X841479Y895350D01*
X842812Y895350D01*
X844145Y895906D01*
X844812Y897017D01*
X844812Y902572D01*
X844145Y903683D01*
X842812Y904239D01*
X841479Y904239D01*
X840145Y903683D01*
X839479Y902572D01*
X889000Y577850D02*
G54D10*
D03*
X914400Y577850D02*
G54D10*
D03*
X939800Y577850D02*
G54D10*
D03*
X965200Y577850D02*
G54D10*
D03*
X889000Y508000D02*
G54D10*
D03*
X914400Y508000D02*
G54D10*
D03*
X939800Y508000D02*
G54D10*
D03*
X965200Y508000D02*
G54D10*
D03*
X698500Y508000D02*
G54D10*
D03*
X723900Y508000D02*
G54D10*
D03*
X749300Y508000D02*
G54D10*
D03*
X774700Y508000D02*
G54D10*
D03*
X698500Y438150D02*
G54D10*
D03*
X723900Y438150D02*
G54D10*
D03*
X749300Y438150D02*
G54D10*
D03*
X774700Y438150D02*
G54D10*
D03*
X889000Y438150D02*
G54D10*
D03*
X914400Y438150D02*
G54D10*
D03*
X939800Y438150D02*
G54D10*
D03*
X965200Y438150D02*
G54D10*
D03*
X698500Y571500D02*
G54D10*
D03*
X698500Y596900D02*
G54D10*
D03*
G54D13*
X889000Y577850D02*
X889000Y438150D01*
G54D13*
X914400Y577850D02*
X914400Y438150D01*
G54D13*
X939800Y577850D02*
X939800Y438150D01*
G54D13*
X965200Y577850D02*
X965200Y438150D01*
X698500Y596900D02*
G54D10*
D03*
X949325Y847725D02*
G54D11*
D03*
X974725Y873125D02*
G54D11*
D03*
G36*
X952200Y451150D02*
X978200Y451150D01*
X978200Y425150D01*
X952200Y425150D01*
X952200Y451150D01*
G37*
G36*
X761700Y521000D02*
X787700Y521000D01*
X787700Y495000D01*
X761700Y495000D01*
X761700Y521000D01*
G37*
G36*
X761700Y451150D02*
X787700Y451150D01*
X787700Y425150D01*
X761700Y425150D01*
X761700Y451150D01*
G37*
G36*
X952200Y521000D02*
X978200Y521000D01*
X978200Y495000D01*
X952200Y495000D01*
X952200Y521000D01*
G37*
G36*
X952200Y590850D02*
X978200Y590850D01*
X978200Y564850D01*
X952200Y564850D01*
X952200Y590850D01*
G37*
G54D14*
X914400Y438150D02*
X914400Y419100D01*
X908050Y412750D01*
X730250Y412750D01*
X723900Y419100D01*
X723900Y438150D01*
G54D14*
X698500Y508000D02*
X698500Y520700D01*
X711200Y533400D01*
X889000Y533400D01*
X831850Y501650D02*
G54D15*
D03*
G54D13*
X781050Y742950D02*
X946150Y742950D01*
X971550Y717550D01*
X971550Y641350D01*
G36*
X959741Y657000D02*
X985741Y657000D01*
X985741Y613000D01*
X959741Y613000D01*
X959741Y657000D01*
G37*
%LPD*%
G54D16*
G36*
X72664Y873486D02*
X86453Y887274D01*
X93524Y880203D01*
X79736Y866414D01*
X72664Y873486D01*
G37*
G36*
X79736Y873486D02*
X93524Y859697D01*
X86453Y852626D01*
X72664Y866414D01*
X79736Y873486D01*
G37*
G36*
X79736Y866414D02*
X65947Y852626D01*
X58876Y859697D01*
X72664Y873486D01*
X79736Y866414D01*
G37*
G36*
X72664Y866414D02*
X58876Y880203D01*
X65947Y887274D01*
X79736Y873486D01*
X72664Y866414D01*
G37*
G54D17*
G36*
X35100Y774700D02*
X35100Y788200D01*
X41100Y788200D01*
X41100Y774700D01*
X35100Y774700D01*
G37*
G36*
X38100Y777700D02*
X51600Y777700D01*
X51600Y771700D01*
X38100Y771700D01*
X38100Y777700D01*
G37*
G36*
X38100Y771700D02*
X24600Y771700D01*
X24600Y777700D01*
X38100Y777700D01*
X38100Y771700D01*
G37*
G54D17*
G36*
X35100Y685800D02*
X35100Y699300D01*
X41100Y699300D01*
X41100Y685800D01*
X35100Y685800D01*
G37*
G36*
X38100Y688800D02*
X51600Y688800D01*
X51600Y682800D01*
X38100Y682800D01*
X38100Y688800D01*
G37*
G36*
X38100Y682800D02*
X24600Y682800D01*
X24600Y688800D01*
X38100Y688800D01*
X38100Y682800D01*
G37*
G54D17*
G36*
X207429Y789521D02*
X216975Y799067D01*
X221217Y794825D01*
X211671Y785279D01*
X207429Y789521D01*
G37*
G36*
X211671Y789521D02*
X221217Y779975D01*
X216975Y775733D01*
X207429Y785279D01*
X211671Y789521D01*
G37*
G36*
X211671Y785279D02*
X202125Y775733D01*
X197883Y779975D01*
X207429Y789521D01*
X211671Y785279D01*
G37*
G36*
X207429Y785279D02*
X197883Y794825D01*
X202125Y799067D01*
X211671Y789521D01*
X207429Y785279D01*
G37*
G54D17*
G36*
X120650Y720550D02*
X134150Y720550D01*
X134150Y714550D01*
X120650Y714550D01*
X120650Y720550D01*
G37*
G36*
X120650Y714550D02*
X107150Y714550D01*
X107150Y720550D01*
X120650Y720550D01*
X120650Y714550D01*
G37*
G54D17*
G36*
X35100Y596900D02*
X35100Y610400D01*
X41100Y610400D01*
X41100Y596900D01*
X35100Y596900D01*
G37*
G36*
X38100Y599900D02*
X51600Y599900D01*
X51600Y593900D01*
X38100Y593900D01*
X38100Y599900D01*
G37*
G36*
X38100Y593900D02*
X24600Y593900D01*
X24600Y599900D01*
X38100Y599900D01*
X38100Y593900D01*
G37*
G54D16*
G36*
X402864Y873486D02*
X416653Y887274D01*
X423724Y880203D01*
X409936Y866414D01*
X402864Y873486D01*
G37*
G36*
X409936Y873486D02*
X423724Y859697D01*
X416653Y852626D01*
X402864Y866414D01*
X409936Y873486D01*
G37*
G36*
X409936Y866414D02*
X396147Y852626D01*
X389076Y859697D01*
X402864Y873486D01*
X409936Y866414D01*
G37*
G36*
X402864Y866414D02*
X389076Y880203D01*
X396147Y887274D01*
X409936Y873486D01*
X402864Y866414D01*
G37*
G54D17*
G36*
X365300Y774700D02*
X365300Y788200D01*
X371300Y788200D01*
X371300Y774700D01*
X365300Y774700D01*
G37*
G36*
X368300Y777700D02*
X381800Y777700D01*
X381800Y771700D01*
X368300Y771700D01*
X368300Y777700D01*
G37*
G36*
X368300Y771700D02*
X354800Y771700D01*
X354800Y777700D01*
X368300Y777700D01*
X368300Y771700D01*
G37*
G54D17*
G36*
X365300Y685800D02*
X365300Y699300D01*
X371300Y699300D01*
X371300Y685800D01*
X365300Y685800D01*
G37*
G36*
X368300Y688800D02*
X381800Y688800D01*
X381800Y682800D01*
X368300Y682800D01*
X368300Y688800D01*
G37*
G36*
X368300Y682800D02*
X354800Y682800D01*
X354800Y688800D01*
X368300Y688800D01*
X368300Y682800D01*
G37*
G54D17*
G36*
X537629Y789521D02*
X547175Y799067D01*
X551417Y794825D01*
X541871Y785279D01*
X537629Y789521D01*
G37*
G36*
X541871Y789521D02*
X551417Y779975D01*
X547175Y775733D01*
X537629Y785279D01*
X541871Y789521D01*
G37*
G36*
X541871Y785279D02*
X532325Y775733D01*
X528083Y779975D01*
X537629Y789521D01*
X541871Y785279D01*
G37*
G36*
X537629Y785279D02*
X528083Y794825D01*
X532325Y799067D01*
X541871Y789521D01*
X537629Y785279D01*
G37*
G54D17*
G36*
X450850Y720550D02*
X464350Y720550D01*
X464350Y714550D01*
X450850Y714550D01*
X450850Y720550D01*
G37*
G36*
X450850Y714550D02*
X437350Y714550D01*
X437350Y720550D01*
X450850Y720550D01*
X450850Y714550D01*
G37*
G54D17*
G36*
X365300Y596900D02*
X365300Y610400D01*
X371300Y610400D01*
X371300Y596900D01*
X365300Y596900D01*
G37*
G36*
X368300Y599900D02*
X381800Y599900D01*
X381800Y593900D01*
X368300Y593900D01*
X368300Y599900D01*
G37*
G36*
X368300Y593900D02*
X354800Y593900D01*
X354800Y599900D01*
X368300Y599900D01*
X368300Y593900D01*
G37*
G54D16*
G36*
X733064Y873486D02*
X746853Y887274D01*
X753924Y880203D01*
X740136Y866414D01*
X733064Y873486D01*
G37*
G36*
X740136Y873486D02*
X753924Y859697D01*
X746853Y852626D01*
X733064Y866414D01*
X740136Y873486D01*
G37*
G36*
X740136Y866414D02*
X726347Y852626D01*
X719276Y859697D01*
X733064Y873486D01*
X740136Y866414D01*
G37*
G36*
X733064Y866414D02*
X719276Y880203D01*
X726347Y887274D01*
X740136Y873486D01*
X733064Y866414D01*
G37*
G54D17*
G36*
X695500Y774700D02*
X695500Y788200D01*
X701500Y788200D01*
X701500Y774700D01*
X695500Y774700D01*
G37*
G36*
X698500Y777700D02*
X712000Y777700D01*
X712000Y771700D01*
X698500Y771700D01*
X698500Y777700D01*
G37*
G36*
X698500Y771700D02*
X685000Y771700D01*
X685000Y777700D01*
X698500Y777700D01*
X698500Y771700D01*
G37*
G54D17*
G36*
X695500Y685800D02*
X695500Y699300D01*
X701500Y699300D01*
X701500Y685800D01*
X695500Y685800D01*
G37*
G36*
X698500Y688800D02*
X712000Y688800D01*
X712000Y682800D01*
X698500Y682800D01*
X698500Y688800D01*
G37*
G36*
X698500Y682800D02*
X685000Y682800D01*
X685000Y688800D01*
X698500Y688800D01*
X698500Y682800D01*
G37*
G54D17*
G36*
X867829Y789521D02*
X877375Y799067D01*
X881617Y794825D01*
X872071Y785279D01*
X867829Y789521D01*
G37*
G36*
X872071Y789521D02*
X881617Y779975D01*
X877375Y775733D01*
X867829Y785279D01*
X872071Y789521D01*
G37*
G36*
X872071Y785279D02*
X862525Y775733D01*
X858283Y779975D01*
X867829Y789521D01*
X872071Y785279D01*
G37*
G36*
X867829Y785279D02*
X858283Y794825D01*
X862525Y799067D01*
X872071Y789521D01*
X867829Y785279D01*
G37*
G54D17*
G36*
X781050Y720550D02*
X794550Y720550D01*
X794550Y714550D01*
X781050Y714550D01*
X781050Y720550D01*
G37*
G36*
X781050Y714550D02*
X767550Y714550D01*
X767550Y720550D01*
X781050Y720550D01*
X781050Y714550D01*
G37*
G54D17*
G36*
X695500Y596900D02*
X695500Y610400D01*
X701500Y610400D01*
X701500Y596900D01*
X695500Y596900D01*
G37*
G36*
X698500Y599900D02*
X712000Y599900D01*
X712000Y593900D01*
X698500Y593900D01*
X698500Y599900D01*
G37*
G36*
X698500Y593900D02*
X685000Y593900D01*
X685000Y599900D01*
X698500Y599900D01*
X698500Y593900D01*
G37*
G36*
X142000Y863725D02*
X133225Y854950D01*
X120775Y854950D01*
X112000Y863725D01*
X112000Y876175D01*
X120775Y884950D01*
X133225Y884950D01*
X142000Y876175D01*
X142000Y863725D01*
G37*
G36*
X91200Y863725D02*
X82425Y854950D01*
X69975Y854950D01*
X61200Y863725D01*
X61200Y876175D01*
X69975Y884950D01*
X82425Y884950D01*
X91200Y876175D01*
X91200Y863725D01*
G37*
X38100Y749300D02*
G54D18*
D03*
X38100Y774700D02*
G54D18*
D03*
X38100Y660400D02*
G54D18*
D03*
X38100Y685800D02*
G54D18*
D03*
G36*
X61200Y876175D02*
X69975Y884950D01*
X82425Y884950D01*
X91200Y876175D01*
X91200Y863725D01*
X82425Y854950D01*
X69975Y854950D01*
X61200Y863725D01*
X61200Y876175D01*
G37*
X38100Y774700D02*
G54D18*
D03*
X38100Y685800D02*
G54D18*
D03*
X209550Y787400D02*
G54D18*
D03*
G36*
X124385Y751950D02*
X129650Y746685D01*
X129650Y739215D01*
X124385Y733950D01*
X116915Y733950D01*
X111650Y739215D01*
X111650Y746685D01*
X116915Y751950D01*
X124385Y751950D01*
G37*
G36*
X124385Y726550D02*
X129650Y721285D01*
X129650Y713815D01*
X124385Y708550D01*
X116915Y708550D01*
X111650Y713815D01*
X111650Y721285D01*
X116915Y726550D01*
X124385Y726550D01*
G37*
G36*
X124385Y701150D02*
X129650Y695885D01*
X129650Y688415D01*
X124385Y683150D01*
X116915Y683150D01*
X111650Y688415D01*
X111650Y695885D01*
X116915Y701150D01*
X124385Y701150D01*
G37*
G36*
X124385Y726550D02*
X129650Y721285D01*
X129650Y713815D01*
X124385Y708550D01*
X116915Y708550D01*
X111650Y713815D01*
X111650Y721285D01*
X116915Y726550D01*
X124385Y726550D01*
G37*
X279400Y787400D02*
G54D18*
D03*
X254397Y787400D02*
G54D18*
D03*
X234553Y787400D02*
G54D18*
D03*
X209550Y787400D02*
G54D18*
D03*
G36*
X330158Y806087D02*
X318458Y794387D01*
X301858Y794387D01*
X290158Y806087D01*
X290158Y822687D01*
X301858Y834387D01*
X318458Y834387D01*
X330158Y822687D01*
X330158Y806087D01*
G37*
G36*
X198594Y806087D02*
X186894Y794387D01*
X170294Y794387D01*
X158594Y806087D01*
X158594Y822687D01*
X170294Y834387D01*
X186894Y834387D01*
X198594Y822687D01*
X198594Y806087D01*
G37*
X314325Y869950D02*
G54D19*
D03*
X311150Y866775D02*
G54D19*
D03*
X307975Y863600D02*
G54D19*
D03*
X304800Y860425D02*
G54D19*
D03*
X314325Y876300D02*
G54D19*
D03*
X311150Y879475D02*
G54D19*
D03*
X307975Y882650D02*
G54D19*
D03*
X304800Y885825D02*
G54D19*
D03*
X301625Y889000D02*
G54D19*
D03*
X301625Y857250D02*
G54D19*
D03*
X298450Y854075D02*
G54D19*
D03*
X295275Y850900D02*
G54D19*
D03*
X292100Y847725D02*
G54D19*
D03*
X285750Y847725D02*
G54D19*
D03*
X282575Y850900D02*
G54D19*
D03*
X279400Y854075D02*
G54D19*
D03*
X276225Y857250D02*
G54D19*
D03*
X273050Y860425D02*
G54D19*
D03*
X269875Y863600D02*
G54D19*
D03*
X266700Y866775D02*
G54D19*
D03*
X263525Y869950D02*
G54D19*
D03*
X260350Y873125D02*
G54D19*
D03*
X298450Y892175D02*
G54D19*
D03*
X295275Y895350D02*
G54D19*
D03*
X292100Y898525D02*
G54D19*
D03*
X288925Y901700D02*
G54D19*
D03*
X273050Y898525D02*
G54D19*
D03*
X263525Y889000D02*
G54D19*
D03*
X260350Y892175D02*
G54D19*
D03*
X269875Y901700D02*
G54D19*
D03*
X269875Y908050D02*
G54D19*
D03*
X266700Y911225D02*
G54D19*
D03*
X263525Y908050D02*
G54D19*
D03*
X260350Y904875D02*
G54D19*
D03*
X257175Y901700D02*
G54D19*
D03*
X254000Y898525D02*
G54D19*
D03*
X250825Y895350D02*
G54D19*
D03*
X254000Y892175D02*
G54D19*
D03*
X304800Y879475D02*
G54D19*
D03*
X301625Y879475D02*
G54D19*
D03*
X298450Y882650D02*
G54D19*
D03*
X295275Y879475D02*
G54D19*
D03*
X292100Y879475D02*
G54D19*
D03*
X288925Y879475D02*
G54D19*
D03*
X285750Y876300D02*
G54D19*
D03*
X282575Y876300D02*
G54D19*
D03*
X279400Y879475D02*
G54D19*
D03*
X276225Y879475D02*
G54D19*
D03*
X273050Y879475D02*
G54D19*
D03*
X269875Y879475D02*
G54D19*
D03*
X266700Y879475D02*
G54D19*
D03*
X263525Y876300D02*
G54D19*
D03*
X247650Y904875D02*
G54D19*
D03*
X247650Y901700D02*
G54D19*
D03*
X247650Y898525D02*
G54D19*
D03*
X244475Y898525D02*
G54D19*
D03*
X244475Y904875D02*
G54D19*
D03*
X241300Y904875D02*
G54D19*
D03*
X241300Y908050D02*
G54D19*
D03*
X241300Y911225D02*
G54D19*
D03*
X238125Y911225D02*
G54D19*
D03*
X234950Y911225D02*
G54D19*
D03*
X234950Y908050D02*
G54D19*
D03*
X234950Y904875D02*
G54D19*
D03*
X231775Y904875D02*
G54D19*
D03*
X228600Y904875D02*
G54D19*
D03*
X228600Y901700D02*
G54D19*
D03*
X228600Y898525D02*
G54D19*
D03*
X231775Y898525D02*
G54D19*
D03*
X234950Y898525D02*
G54D19*
D03*
X241300Y898525D02*
G54D19*
D03*
X241300Y895350D02*
G54D19*
D03*
X241300Y892175D02*
G54D19*
D03*
X238125Y892175D02*
G54D19*
D03*
X234950Y892175D02*
G54D19*
D03*
X234950Y895350D02*
G54D19*
D03*
X285750Y904875D02*
G54D19*
D03*
X279400Y904875D02*
G54D19*
D03*
X276225Y901700D02*
G54D19*
D03*
X260350Y885825D02*
G54D19*
D03*
X257175Y882650D02*
G54D19*
D03*
X257175Y876300D02*
G54D19*
D03*
X260350Y866775D02*
G54D19*
D03*
X257175Y866775D02*
G54D19*
D03*
X254000Y866775D02*
G54D19*
D03*
X250825Y866775D02*
G54D19*
D03*
X247650Y866775D02*
G54D19*
D03*
X254000Y863600D02*
G54D19*
D03*
X254000Y860425D02*
G54D19*
D03*
X254000Y857250D02*
G54D19*
D03*
X254000Y854075D02*
G54D19*
D03*
X254000Y850900D02*
G54D19*
D03*
X257175Y847725D02*
G54D19*
D03*
X260350Y847725D02*
G54D19*
D03*
X263525Y850900D02*
G54D19*
D03*
X244475Y847725D02*
G54D19*
D03*
X241300Y850900D02*
G54D19*
D03*
X241300Y854075D02*
G54D19*
D03*
X241300Y857250D02*
G54D19*
D03*
X241300Y860425D02*
G54D19*
D03*
X238125Y847725D02*
G54D19*
D03*
X234950Y847725D02*
G54D19*
D03*
X231775Y847725D02*
G54D19*
D03*
X231775Y850900D02*
G54D19*
D03*
X231775Y854075D02*
G54D19*
D03*
X231775Y857250D02*
G54D19*
D03*
X231775Y860425D02*
G54D19*
D03*
X225425Y863600D02*
G54D19*
D03*
X225425Y857250D02*
G54D19*
D03*
X225425Y854075D02*
G54D19*
D03*
X225425Y850900D02*
G54D19*
D03*
X225425Y847725D02*
G54D19*
D03*
X219075Y850900D02*
G54D19*
D03*
X219075Y854075D02*
G54D19*
D03*
X219075Y857250D02*
G54D19*
D03*
X215900Y860425D02*
G54D19*
D03*
X212725Y860425D02*
G54D19*
D03*
X215900Y847725D02*
G54D19*
D03*
X212725Y847725D02*
G54D19*
D03*
X209550Y847725D02*
G54D19*
D03*
X209550Y860425D02*
G54D19*
D03*
X203200Y850900D02*
G54D19*
D03*
X203200Y854075D02*
G54D19*
D03*
X203200Y857250D02*
G54D19*
D03*
X200025Y860425D02*
G54D19*
D03*
X196850Y860425D02*
G54D19*
D03*
X193675Y860425D02*
G54D19*
D03*
X200025Y847725D02*
G54D19*
D03*
X196850Y847725D02*
G54D19*
D03*
X193675Y847725D02*
G54D19*
D03*
X190500Y857250D02*
G54D19*
D03*
X190500Y854075D02*
G54D19*
D03*
X193675Y854075D02*
G54D19*
D03*
X196850Y854075D02*
G54D19*
D03*
X200025Y854075D02*
G54D19*
D03*
X292100Y866775D02*
G54D19*
D03*
X288925Y863600D02*
G54D19*
D03*
X285750Y866775D02*
G54D19*
D03*
X288925Y869950D02*
G54D19*
D03*
X279400Y863600D02*
G54D19*
D03*
X301625Y873125D02*
G54D19*
D03*
X273050Y873125D02*
G54D19*
D03*
X288925Y854075D02*
G54D19*
D03*
X304800Y869950D02*
G54D19*
D03*
X244475Y885825D02*
G54D19*
D03*
X241300Y885825D02*
G54D19*
D03*
X238125Y885825D02*
G54D19*
D03*
X234950Y885825D02*
G54D19*
D03*
X231775Y885825D02*
G54D19*
D03*
X231775Y882650D02*
G54D19*
D03*
X231775Y879475D02*
G54D19*
D03*
X234950Y876300D02*
G54D19*
D03*
X238125Y873125D02*
G54D19*
D03*
X241300Y869950D02*
G54D19*
D03*
X228600Y892175D02*
G54D19*
D03*
X228600Y889000D02*
G54D19*
D03*
X225425Y889000D02*
G54D19*
D03*
X225425Y892175D02*
G54D19*
D03*
X222250Y885825D02*
G54D19*
D03*
X219075Y885825D02*
G54D19*
D03*
X215900Y885825D02*
G54D19*
D03*
X212725Y885825D02*
G54D19*
D03*
X209550Y885825D02*
G54D19*
D03*
X222250Y879475D02*
G54D19*
D03*
X219075Y879475D02*
G54D19*
D03*
X215900Y879475D02*
G54D19*
D03*
X212725Y879475D02*
G54D19*
D03*
X209550Y879475D02*
G54D19*
D03*
X209550Y876300D02*
G54D19*
D03*
X212725Y873125D02*
G54D19*
D03*
X215900Y869950D02*
G54D19*
D03*
X222250Y869950D02*
G54D19*
D03*
X219075Y869950D02*
G54D19*
D03*
X203200Y885825D02*
G54D19*
D03*
X200025Y885825D02*
G54D19*
D03*
X196850Y885825D02*
G54D19*
D03*
X193675Y885825D02*
G54D19*
D03*
X190500Y885825D02*
G54D19*
D03*
X190500Y882650D02*
G54D19*
D03*
X193675Y879475D02*
G54D19*
D03*
X196850Y876300D02*
G54D19*
D03*
X200025Y873125D02*
G54D19*
D03*
X203200Y869950D02*
G54D19*
D03*
X193675Y873125D02*
G54D19*
D03*
X190500Y869950D02*
G54D19*
D03*
X282575Y898525D02*
G54D19*
D03*
X285750Y895350D02*
G54D19*
D03*
G54D20*
X216408Y899794D02*
X214408Y898683D01*
X213742Y897572D01*
X213742Y895350D01*
G54D20*
X219075Y895350D02*
X219075Y904239D01*
X215742Y904239D01*
X214408Y903683D01*
X213742Y902572D01*
X213742Y901461D01*
X214408Y900350D01*
X215742Y899794D01*
X219075Y899794D01*
G54D20*
X207298Y895906D02*
X208365Y895350D01*
X209698Y895350D01*
X211031Y895906D01*
X211298Y897017D01*
X211298Y898906D01*
X210631Y900017D01*
X209298Y900350D01*
X207965Y900017D01*
X207298Y899239D01*
X207298Y898128D01*
X211298Y898128D01*
G54D20*
X204854Y900350D02*
X202187Y895350D01*
X199521Y900350D01*
G54D20*
X197077Y895350D02*
X197077Y895350D01*
G54D20*
X189300Y895350D02*
X194633Y895350D01*
X194633Y895906D01*
X193966Y897017D01*
X189966Y900350D01*
X189300Y901461D01*
X189300Y902572D01*
X189966Y903683D01*
X191300Y904239D01*
X192633Y904239D01*
X193966Y903683D01*
X194633Y902572D01*
G54D20*
X186856Y895350D02*
X186856Y895350D01*
G54D20*
X179079Y902572D02*
X179079Y897017D01*
X179745Y895906D01*
X181079Y895350D01*
X182412Y895350D01*
X183745Y895906D01*
X184412Y897017D01*
X184412Y902572D01*
X183745Y903683D01*
X182412Y904239D01*
X181079Y904239D01*
X179745Y903683D01*
X179079Y902572D01*
X228600Y577850D02*
G54D18*
D03*
X254000Y577850D02*
G54D18*
D03*
X279400Y577850D02*
G54D18*
D03*
X304800Y577850D02*
G54D18*
D03*
X228600Y508000D02*
G54D18*
D03*
X254000Y508000D02*
G54D18*
D03*
X279400Y508000D02*
G54D18*
D03*
X304800Y508000D02*
G54D18*
D03*
X38100Y508000D02*
G54D18*
D03*
X63500Y508000D02*
G54D18*
D03*
X88900Y508000D02*
G54D18*
D03*
X114300Y508000D02*
G54D18*
D03*
X38100Y438150D02*
G54D18*
D03*
X63500Y438150D02*
G54D18*
D03*
X88900Y438150D02*
G54D18*
D03*
X114300Y438150D02*
G54D18*
D03*
X228600Y438150D02*
G54D18*
D03*
X254000Y438150D02*
G54D18*
D03*
X279400Y438150D02*
G54D18*
D03*
X304800Y438150D02*
G54D18*
D03*
X38100Y571500D02*
G54D18*
D03*
X38100Y596900D02*
G54D18*
D03*
G54D21*
X228600Y577850D02*
X228600Y438150D01*
G54D21*
X254000Y577850D02*
X254000Y438150D01*
G54D21*
X279400Y577850D02*
X279400Y438150D01*
G54D21*
X304800Y577850D02*
X304800Y438150D01*
X38100Y596900D02*
G54D18*
D03*
X288925Y847725D02*
G54D19*
D03*
X314325Y873125D02*
G54D19*
D03*
G36*
X295800Y447150D02*
X313800Y447150D01*
X313800Y429150D01*
X295800Y429150D01*
X295800Y447150D01*
G37*
G36*
X105300Y517000D02*
X123300Y517000D01*
X123300Y499000D01*
X105300Y499000D01*
X105300Y517000D01*
G37*
G36*
X105300Y447150D02*
X123300Y447150D01*
X123300Y429150D01*
X105300Y429150D01*
X105300Y447150D01*
G37*
G36*
X295800Y517000D02*
X313800Y517000D01*
X313800Y499000D01*
X295800Y499000D01*
X295800Y517000D01*
G37*
G36*
X295800Y586850D02*
X313800Y586850D01*
X313800Y568850D01*
X295800Y568850D01*
X295800Y586850D01*
G37*
G54D16*
X254000Y438150D02*
X254000Y419100D01*
X247650Y412750D01*
X69850Y412750D01*
X63500Y419100D01*
X63500Y438150D01*
G54D16*
X38100Y508000D02*
X38100Y520700D01*
X50800Y533400D01*
X228600Y533400D01*
X171450Y501650D02*
G54D22*
D03*
G54D21*
X120650Y742950D02*
X285750Y742950D01*
X311150Y717550D01*
X311150Y641350D01*
G36*
X303341Y653000D02*
X321341Y653000D01*
X321341Y617000D01*
X303341Y617000D01*
X303341Y653000D01*
G37*
G36*
X472200Y863725D02*
X463425Y854950D01*
X450975Y854950D01*
X442200Y863725D01*
X442200Y876175D01*
X450975Y884950D01*
X463425Y884950D01*
X472200Y876175D01*
X472200Y863725D01*
G37*
G36*
X421400Y863725D02*
X412625Y854950D01*
X400175Y854950D01*
X391400Y863725D01*
X391400Y876175D01*
X400175Y884950D01*
X412625Y884950D01*
X421400Y876175D01*
X421400Y863725D01*
G37*
X368300Y749300D02*
G54D18*
D03*
X368300Y774700D02*
G54D18*
D03*
X368300Y660400D02*
G54D18*
D03*
X368300Y685800D02*
G54D18*
D03*
G36*
X391400Y876175D02*
X400175Y884950D01*
X412625Y884950D01*
X421400Y876175D01*
X421400Y863725D01*
X412625Y854950D01*
X400175Y854950D01*
X391400Y863725D01*
X391400Y876175D01*
G37*
X368300Y774700D02*
G54D18*
D03*
X368300Y685800D02*
G54D18*
D03*
X539750Y787400D02*
G54D18*
D03*
G36*
X454585Y751950D02*
X459850Y746685D01*
X459850Y739215D01*
X454585Y733950D01*
X447115Y733950D01*
X441850Y739215D01*
X441850Y746685D01*
X447115Y751950D01*
X454585Y751950D01*
G37*
G36*
X454585Y726550D02*
X459850Y721285D01*
X459850Y713815D01*
X454585Y708550D01*
X447115Y708550D01*
X441850Y713815D01*
X441850Y721285D01*
X447115Y726550D01*
X454585Y726550D01*
G37*
G36*
X454585Y701150D02*
X459850Y695885D01*
X459850Y688415D01*
X454585Y683150D01*
X447115Y683150D01*
X441850Y688415D01*
X441850Y695885D01*
X447115Y701150D01*
X454585Y701150D01*
G37*
G36*
X454585Y726550D02*
X459850Y721285D01*
X459850Y713815D01*
X454585Y708550D01*
X447115Y708550D01*
X441850Y713815D01*
X441850Y721285D01*
X447115Y726550D01*
X454585Y726550D01*
G37*
X609600Y787400D02*
G54D18*
D03*
X584597Y787400D02*
G54D18*
D03*
X564753Y787400D02*
G54D18*
D03*
X539750Y787400D02*
G54D18*
D03*
G36*
X660358Y806088D02*
X648658Y794388D01*
X632058Y794388D01*
X620358Y806088D01*
X620358Y822688D01*
X632058Y834388D01*
X648658Y834388D01*
X660358Y822688D01*
X660358Y806088D01*
G37*
G36*
X528794Y806087D02*
X517094Y794387D01*
X500494Y794387D01*
X488794Y806087D01*
X488794Y822687D01*
X500494Y834387D01*
X517094Y834387D01*
X528794Y822687D01*
X528794Y806087D01*
G37*
X644525Y869950D02*
G54D19*
D03*
X641350Y866775D02*
G54D19*
D03*
X638175Y863600D02*
G54D19*
D03*
X635000Y860425D02*
G54D19*
D03*
X644525Y876300D02*
G54D19*
D03*
X641350Y879475D02*
G54D19*
D03*
X638175Y882650D02*
G54D19*
D03*
X635000Y885825D02*
G54D19*
D03*
X631825Y889000D02*
G54D19*
D03*
X631825Y857250D02*
G54D19*
D03*
X628650Y854075D02*
G54D19*
D03*
X625475Y850900D02*
G54D19*
D03*
X622300Y847725D02*
G54D19*
D03*
X615950Y847725D02*
G54D19*
D03*
X612775Y850900D02*
G54D19*
D03*
X609600Y854075D02*
G54D19*
D03*
X606425Y857250D02*
G54D19*
D03*
X603250Y860425D02*
G54D19*
D03*
X600075Y863600D02*
G54D19*
D03*
X596900Y866775D02*
G54D19*
D03*
X593725Y869950D02*
G54D19*
D03*
X590550Y873125D02*
G54D19*
D03*
X628650Y892175D02*
G54D19*
D03*
X625475Y895350D02*
G54D19*
D03*
X622300Y898525D02*
G54D19*
D03*
X619125Y901700D02*
G54D19*
D03*
X603250Y898525D02*
G54D19*
D03*
X593725Y889000D02*
G54D19*
D03*
X590550Y892175D02*
G54D19*
D03*
X600075Y901700D02*
G54D19*
D03*
X600075Y908050D02*
G54D19*
D03*
X596900Y911225D02*
G54D19*
D03*
X593725Y908050D02*
G54D19*
D03*
X590550Y904875D02*
G54D19*
D03*
X587375Y901700D02*
G54D19*
D03*
X584200Y898525D02*
G54D19*
D03*
X581025Y895350D02*
G54D19*
D03*
X584200Y892175D02*
G54D19*
D03*
X635000Y879475D02*
G54D19*
D03*
X631825Y879475D02*
G54D19*
D03*
X628650Y882650D02*
G54D19*
D03*
X625475Y879475D02*
G54D19*
D03*
X622300Y879475D02*
G54D19*
D03*
X619125Y879475D02*
G54D19*
D03*
X615950Y876300D02*
G54D19*
D03*
X612775Y876300D02*
G54D19*
D03*
X609600Y879475D02*
G54D19*
D03*
X606425Y879475D02*
G54D19*
D03*
X603250Y879475D02*
G54D19*
D03*
X600075Y879475D02*
G54D19*
D03*
X596900Y879475D02*
G54D19*
D03*
X593725Y876300D02*
G54D19*
D03*
X577850Y904875D02*
G54D19*
D03*
X577850Y901700D02*
G54D19*
D03*
X577850Y898525D02*
G54D19*
D03*
X574675Y898525D02*
G54D19*
D03*
X574675Y904875D02*
G54D19*
D03*
X571500Y904875D02*
G54D19*
D03*
X571500Y908050D02*
G54D19*
D03*
X571500Y911225D02*
G54D19*
D03*
X568325Y911225D02*
G54D19*
D03*
X565150Y911225D02*
G54D19*
D03*
X565150Y908050D02*
G54D19*
D03*
X565150Y904875D02*
G54D19*
D03*
X561975Y904875D02*
G54D19*
D03*
X558800Y904875D02*
G54D19*
D03*
X558800Y901700D02*
G54D19*
D03*
X558800Y898525D02*
G54D19*
D03*
X561975Y898525D02*
G54D19*
D03*
X565150Y898525D02*
G54D19*
D03*
X571500Y898525D02*
G54D19*
D03*
X571500Y895350D02*
G54D19*
D03*
X571500Y892175D02*
G54D19*
D03*
X568325Y892175D02*
G54D19*
D03*
X565150Y892175D02*
G54D19*
D03*
X565150Y895350D02*
G54D19*
D03*
X615950Y904875D02*
G54D19*
D03*
X609600Y904875D02*
G54D19*
D03*
X606425Y901700D02*
G54D19*
D03*
X590550Y885825D02*
G54D19*
D03*
X587375Y882650D02*
G54D19*
D03*
X587375Y876300D02*
G54D19*
D03*
X590550Y866775D02*
G54D19*
D03*
X587375Y866775D02*
G54D19*
D03*
X584200Y866775D02*
G54D19*
D03*
X581025Y866775D02*
G54D19*
D03*
X577850Y866775D02*
G54D19*
D03*
X584200Y863600D02*
G54D19*
D03*
X584200Y860425D02*
G54D19*
D03*
X584200Y857250D02*
G54D19*
D03*
X584200Y854075D02*
G54D19*
D03*
X584200Y850900D02*
G54D19*
D03*
X587375Y847725D02*
G54D19*
D03*
X590550Y847725D02*
G54D19*
D03*
X593725Y850900D02*
G54D19*
D03*
X574675Y847725D02*
G54D19*
D03*
X571500Y850900D02*
G54D19*
D03*
X571500Y854075D02*
G54D19*
D03*
X571500Y857250D02*
G54D19*
D03*
X571500Y860425D02*
G54D19*
D03*
X568325Y847725D02*
G54D19*
D03*
X565150Y847725D02*
G54D19*
D03*
X561975Y847725D02*
G54D19*
D03*
X561975Y850900D02*
G54D19*
D03*
X561975Y854075D02*
G54D19*
D03*
X561975Y857250D02*
G54D19*
D03*
X561975Y860425D02*
G54D19*
D03*
X555625Y863600D02*
G54D19*
D03*
X555625Y857250D02*
G54D19*
D03*
X555625Y854075D02*
G54D19*
D03*
X555625Y850900D02*
G54D19*
D03*
X555625Y847725D02*
G54D19*
D03*
X549275Y850900D02*
G54D19*
D03*
X549275Y854075D02*
G54D19*
D03*
X549275Y857250D02*
G54D19*
D03*
X546100Y860425D02*
G54D19*
D03*
X542925Y860425D02*
G54D19*
D03*
X546100Y847725D02*
G54D19*
D03*
X542925Y847725D02*
G54D19*
D03*
X539750Y847725D02*
G54D19*
D03*
X539750Y860425D02*
G54D19*
D03*
X533400Y850900D02*
G54D19*
D03*
X533400Y854075D02*
G54D19*
D03*
X533400Y857250D02*
G54D19*
D03*
X530225Y860425D02*
G54D19*
D03*
X527050Y860425D02*
G54D19*
D03*
X523875Y860425D02*
G54D19*
D03*
X530225Y847725D02*
G54D19*
D03*
X527050Y847725D02*
G54D19*
D03*
X523875Y847725D02*
G54D19*
D03*
X520700Y857250D02*
G54D19*
D03*
X520700Y854075D02*
G54D19*
D03*
X523875Y854075D02*
G54D19*
D03*
X527050Y854075D02*
G54D19*
D03*
X530225Y854075D02*
G54D19*
D03*
X622300Y866775D02*
G54D19*
D03*
X619125Y863600D02*
G54D19*
D03*
X615950Y866775D02*
G54D19*
D03*
X619125Y869950D02*
G54D19*
D03*
X609600Y863600D02*
G54D19*
D03*
X631825Y873125D02*
G54D19*
D03*
X603250Y873125D02*
G54D19*
D03*
X619125Y854075D02*
G54D19*
D03*
X635000Y869950D02*
G54D19*
D03*
X574675Y885825D02*
G54D19*
D03*
X571500Y885825D02*
G54D19*
D03*
X568325Y885825D02*
G54D19*
D03*
X565150Y885825D02*
G54D19*
D03*
X561975Y885825D02*
G54D19*
D03*
X561975Y882650D02*
G54D19*
D03*
X561975Y879475D02*
G54D19*
D03*
X565150Y876300D02*
G54D19*
D03*
X568325Y873125D02*
G54D19*
D03*
X571500Y869950D02*
G54D19*
D03*
X558800Y892175D02*
G54D19*
D03*
X558800Y889000D02*
G54D19*
D03*
X555625Y889000D02*
G54D19*
D03*
X555625Y892175D02*
G54D19*
D03*
X552450Y885825D02*
G54D19*
D03*
X549275Y885825D02*
G54D19*
D03*
X546100Y885825D02*
G54D19*
D03*
X542925Y885825D02*
G54D19*
D03*
X539750Y885825D02*
G54D19*
D03*
X552450Y879475D02*
G54D19*
D03*
X549275Y879475D02*
G54D19*
D03*
X546100Y879475D02*
G54D19*
D03*
X542925Y879475D02*
G54D19*
D03*
X539750Y879475D02*
G54D19*
D03*
X539750Y876300D02*
G54D19*
D03*
X542925Y873125D02*
G54D19*
D03*
X546100Y869950D02*
G54D19*
D03*
X552450Y869950D02*
G54D19*
D03*
X549275Y869950D02*
G54D19*
D03*
X533400Y885825D02*
G54D19*
D03*
X530225Y885825D02*
G54D19*
D03*
X527050Y885825D02*
G54D19*
D03*
X523875Y885825D02*
G54D19*
D03*
X520700Y885825D02*
G54D19*
D03*
X520700Y882650D02*
G54D19*
D03*
X523875Y879475D02*
G54D19*
D03*
X527050Y876300D02*
G54D19*
D03*
X530225Y873125D02*
G54D19*
D03*
X533400Y869950D02*
G54D19*
D03*
X523875Y873125D02*
G54D19*
D03*
X520700Y869950D02*
G54D19*
D03*
X612775Y898525D02*
G54D19*
D03*
X615950Y895350D02*
G54D19*
D03*
G54D20*
X546608Y899794D02*
X544608Y898683D01*
X543942Y897572D01*
X543942Y895350D01*
G54D20*
X549275Y895350D02*
X549275Y904239D01*
X545942Y904239D01*
X544608Y903683D01*
X543942Y902572D01*
X543942Y901461D01*
X544608Y900350D01*
X545942Y899794D01*
X549275Y899794D01*
G54D20*
X537498Y895906D02*
X538565Y895350D01*
X539898Y895350D01*
X541231Y895906D01*
X541498Y897017D01*
X541498Y898906D01*
X540831Y900017D01*
X539498Y900350D01*
X538165Y900017D01*
X537498Y899239D01*
X537498Y898128D01*
X541498Y898128D01*
G54D20*
X535054Y900350D02*
X532387Y895350D01*
X529721Y900350D01*
G54D20*
X527277Y895350D02*
X527277Y895350D01*
G54D20*
X519500Y895350D02*
X524833Y895350D01*
X524833Y895906D01*
X524166Y897017D01*
X520166Y900350D01*
X519500Y901461D01*
X519500Y902572D01*
X520166Y903683D01*
X521500Y904239D01*
X522833Y904239D01*
X524166Y903683D01*
X524833Y902572D01*
G54D20*
X517056Y895350D02*
X517056Y895350D01*
G54D20*
X509279Y902572D02*
X509279Y897017D01*
X509945Y895906D01*
X511279Y895350D01*
X512612Y895350D01*
X513945Y895906D01*
X514612Y897017D01*
X514612Y902572D01*
X513945Y903683D01*
X512612Y904239D01*
X511279Y904239D01*
X509945Y903683D01*
X509279Y902572D01*
X558800Y577850D02*
G54D18*
D03*
X584200Y577850D02*
G54D18*
D03*
X609600Y577850D02*
G54D18*
D03*
X635000Y577850D02*
G54D18*
D03*
X558800Y508000D02*
G54D18*
D03*
X584200Y508000D02*
G54D18*
D03*
X609600Y508000D02*
G54D18*
D03*
X635000Y508000D02*
G54D18*
D03*
X368300Y508000D02*
G54D18*
D03*
X393700Y508000D02*
G54D18*
D03*
X419100Y508000D02*
G54D18*
D03*
X444500Y508000D02*
G54D18*
D03*
X368300Y438150D02*
G54D18*
D03*
X393700Y438150D02*
G54D18*
D03*
X419100Y438150D02*
G54D18*
D03*
X444500Y438150D02*
G54D18*
D03*
X558800Y438150D02*
G54D18*
D03*
X584200Y438150D02*
G54D18*
D03*
X609600Y438150D02*
G54D18*
D03*
X635000Y438150D02*
G54D18*
D03*
X368300Y571500D02*
G54D18*
D03*
X368300Y596900D02*
G54D18*
D03*
G54D21*
X558800Y577850D02*
X558800Y438150D01*
G54D21*
X584200Y577850D02*
X584200Y438150D01*
G54D21*
X609600Y577850D02*
X609600Y438150D01*
G54D21*
X635000Y577850D02*
X635000Y438150D01*
X368300Y596900D02*
G54D18*
D03*
X619125Y847725D02*
G54D19*
D03*
X644525Y873125D02*
G54D19*
D03*
G36*
X626000Y447150D02*
X644000Y447150D01*
X644000Y429150D01*
X626000Y429150D01*
X626000Y447150D01*
G37*
G36*
X435500Y517000D02*
X453500Y517000D01*
X453500Y499000D01*
X435500Y499000D01*
X435500Y517000D01*
G37*
G36*
X435500Y447150D02*
X453500Y447150D01*
X453500Y429150D01*
X435500Y429150D01*
X435500Y447150D01*
G37*
G36*
X626000Y517000D02*
X644000Y517000D01*
X644000Y499000D01*
X626000Y499000D01*
X626000Y517000D01*
G37*
G36*
X626000Y586850D02*
X644000Y586850D01*
X644000Y568850D01*
X626000Y568850D01*
X626000Y586850D01*
G37*
G54D16*
X584200Y438150D02*
X584200Y419100D01*
X577850Y412750D01*
X400050Y412750D01*
X393700Y419100D01*
X393700Y438150D01*
G54D16*
X368300Y508000D02*
X368300Y520700D01*
X381000Y533400D01*
X558800Y533400D01*
X501650Y501650D02*
G54D22*
D03*
G54D21*
X450850Y742950D02*
X615950Y742950D01*
X641350Y717550D01*
X641350Y641350D01*
G36*
X633541Y653000D02*
X651541Y653000D01*
X651541Y617000D01*
X633541Y617000D01*
X633541Y653000D01*
G37*
G36*
X802400Y863725D02*
X793625Y854950D01*
X781175Y854950D01*
X772400Y863725D01*
X772400Y876175D01*
X781175Y884950D01*
X793625Y884950D01*
X802400Y876175D01*
X802400Y863725D01*
G37*
G36*
X751600Y863725D02*
X742825Y854950D01*
X730375Y854950D01*
X721600Y863725D01*
X721600Y876175D01*
X730375Y884950D01*
X742825Y884950D01*
X751600Y876175D01*
X751600Y863725D01*
G37*
X698500Y749300D02*
G54D18*
D03*
X698500Y774700D02*
G54D18*
D03*
X698500Y660400D02*
G54D18*
D03*
X698500Y685800D02*
G54D18*
D03*
G36*
X721600Y876175D02*
X730375Y884950D01*
X742825Y884950D01*
X751600Y876175D01*
X751600Y863725D01*
X742825Y854950D01*
X730375Y854950D01*
X721600Y863725D01*
X721600Y876175D01*
G37*
X698500Y774700D02*
G54D18*
D03*
X698500Y685800D02*
G54D18*
D03*
X869950Y787400D02*
G54D18*
D03*
G36*
X784785Y751950D02*
X790050Y746685D01*
X790050Y739215D01*
X784785Y733950D01*
X777315Y733950D01*
X772050Y739215D01*
X772050Y746685D01*
X777315Y751950D01*
X784785Y751950D01*
G37*
G36*
X784785Y726550D02*
X790050Y721285D01*
X790050Y713815D01*
X784785Y708550D01*
X777315Y708550D01*
X772050Y713815D01*
X772050Y721285D01*
X777315Y726550D01*
X784785Y726550D01*
G37*
G36*
X784785Y701150D02*
X790050Y695885D01*
X790050Y688415D01*
X784785Y683150D01*
X777315Y683150D01*
X772050Y688415D01*
X772050Y695885D01*
X777315Y701150D01*
X784785Y701150D01*
G37*
G36*
X784785Y726550D02*
X790050Y721285D01*
X790050Y713815D01*
X784785Y708550D01*
X777315Y708550D01*
X772050Y713815D01*
X772050Y721285D01*
X777315Y726550D01*
X784785Y726550D01*
G37*
X939800Y787400D02*
G54D18*
D03*
X914797Y787400D02*
G54D18*
D03*
X894953Y787400D02*
G54D18*
D03*
X869950Y787400D02*
G54D18*
D03*
G36*
X990558Y806088D02*
X978858Y794388D01*
X962258Y794388D01*
X950558Y806088D01*
X950558Y822688D01*
X962258Y834388D01*
X978858Y834388D01*
X990558Y822688D01*
X990558Y806088D01*
G37*
G36*
X858994Y806087D02*
X847294Y794387D01*
X830694Y794387D01*
X818994Y806087D01*
X818994Y822687D01*
X830694Y834387D01*
X847294Y834387D01*
X858994Y822687D01*
X858994Y806087D01*
G37*
X974725Y869950D02*
G54D19*
D03*
X971550Y866775D02*
G54D19*
D03*
X968375Y863600D02*
G54D19*
D03*
X965200Y860425D02*
G54D19*
D03*
X974725Y876300D02*
G54D19*
D03*
X971550Y879475D02*
G54D19*
D03*
X968375Y882650D02*
G54D19*
D03*
X965200Y885825D02*
G54D19*
D03*
X962025Y889000D02*
G54D19*
D03*
X962025Y857250D02*
G54D19*
D03*
X958850Y854075D02*
G54D19*
D03*
X955675Y850900D02*
G54D19*
D03*
X952500Y847725D02*
G54D19*
D03*
X946150Y847725D02*
G54D19*
D03*
X942975Y850900D02*
G54D19*
D03*
X939800Y854075D02*
G54D19*
D03*
X936625Y857250D02*
G54D19*
D03*
X933450Y860425D02*
G54D19*
D03*
X930275Y863600D02*
G54D19*
D03*
X927100Y866775D02*
G54D19*
D03*
X923925Y869950D02*
G54D19*
D03*
X920750Y873125D02*
G54D19*
D03*
X958850Y892175D02*
G54D19*
D03*
X955675Y895350D02*
G54D19*
D03*
X952500Y898525D02*
G54D19*
D03*
X949325Y901700D02*
G54D19*
D03*
X933450Y898525D02*
G54D19*
D03*
X923925Y889000D02*
G54D19*
D03*
X920750Y892175D02*
G54D19*
D03*
X930275Y901700D02*
G54D19*
D03*
X930275Y908050D02*
G54D19*
D03*
X927100Y911225D02*
G54D19*
D03*
X923925Y908050D02*
G54D19*
D03*
X920750Y904875D02*
G54D19*
D03*
X917575Y901700D02*
G54D19*
D03*
X914400Y898525D02*
G54D19*
D03*
X911225Y895350D02*
G54D19*
D03*
X914400Y892175D02*
G54D19*
D03*
X965200Y879475D02*
G54D19*
D03*
X962025Y879475D02*
G54D19*
D03*
X958850Y882650D02*
G54D19*
D03*
X955675Y879475D02*
G54D19*
D03*
X952500Y879475D02*
G54D19*
D03*
X949325Y879475D02*
G54D19*
D03*
X946150Y876300D02*
G54D19*
D03*
X942975Y876300D02*
G54D19*
D03*
X939800Y879475D02*
G54D19*
D03*
X936625Y879475D02*
G54D19*
D03*
X933450Y879475D02*
G54D19*
D03*
X930275Y879475D02*
G54D19*
D03*
X927100Y879475D02*
G54D19*
D03*
X923925Y876300D02*
G54D19*
D03*
X908050Y904875D02*
G54D19*
D03*
X908050Y901700D02*
G54D19*
D03*
X908050Y898525D02*
G54D19*
D03*
X904875Y898525D02*
G54D19*
D03*
X904875Y904875D02*
G54D19*
D03*
X901700Y904875D02*
G54D19*
D03*
X901700Y908050D02*
G54D19*
D03*
X901700Y911225D02*
G54D19*
D03*
X898525Y911225D02*
G54D19*
D03*
X895350Y911225D02*
G54D19*
D03*
X895350Y908050D02*
G54D19*
D03*
X895350Y904875D02*
G54D19*
D03*
X892175Y904875D02*
G54D19*
D03*
X889000Y904875D02*
G54D19*
D03*
X889000Y901700D02*
G54D19*
D03*
X889000Y898525D02*
G54D19*
D03*
X892175Y898525D02*
G54D19*
D03*
X895350Y898525D02*
G54D19*
D03*
X901700Y898525D02*
G54D19*
D03*
X901700Y895350D02*
G54D19*
D03*
X901700Y892175D02*
G54D19*
D03*
X898525Y892175D02*
G54D19*
D03*
X895350Y892175D02*
G54D19*
D03*
X895350Y895350D02*
G54D19*
D03*
X946150Y904875D02*
G54D19*
D03*
X939800Y904875D02*
G54D19*
D03*
X936625Y901700D02*
G54D19*
D03*
X920750Y885825D02*
G54D19*
D03*
X917575Y882650D02*
G54D19*
D03*
X917575Y876300D02*
G54D19*
D03*
X920750Y866775D02*
G54D19*
D03*
X917575Y866775D02*
G54D19*
D03*
X914400Y866775D02*
G54D19*
D03*
X911225Y866775D02*
G54D19*
D03*
X908050Y866775D02*
G54D19*
D03*
X914400Y863600D02*
G54D19*
D03*
X914400Y860425D02*
G54D19*
D03*
X914400Y857250D02*
G54D19*
D03*
X914400Y854075D02*
G54D19*
D03*
X914400Y850900D02*
G54D19*
D03*
X917575Y847725D02*
G54D19*
D03*
X920750Y847725D02*
G54D19*
D03*
X923925Y850900D02*
G54D19*
D03*
X904875Y847725D02*
G54D19*
D03*
X901700Y850900D02*
G54D19*
D03*
X901700Y854075D02*
G54D19*
D03*
X901700Y857250D02*
G54D19*
D03*
X901700Y860425D02*
G54D19*
D03*
X898525Y847725D02*
G54D19*
D03*
X895350Y847725D02*
G54D19*
D03*
X892175Y847725D02*
G54D19*
D03*
X892175Y850900D02*
G54D19*
D03*
X892175Y854075D02*
G54D19*
D03*
X892175Y857250D02*
G54D19*
D03*
X892175Y860425D02*
G54D19*
D03*
X885825Y863600D02*
G54D19*
D03*
X885825Y857250D02*
G54D19*
D03*
X885825Y854075D02*
G54D19*
D03*
X885825Y850900D02*
G54D19*
D03*
X885825Y847725D02*
G54D19*
D03*
X879475Y850900D02*
G54D19*
D03*
X879475Y854075D02*
G54D19*
D03*
X879475Y857250D02*
G54D19*
D03*
X876300Y860425D02*
G54D19*
D03*
X873125Y860425D02*
G54D19*
D03*
X876300Y847725D02*
G54D19*
D03*
X873125Y847725D02*
G54D19*
D03*
X869950Y847725D02*
G54D19*
D03*
X869950Y860425D02*
G54D19*
D03*
X863600Y850900D02*
G54D19*
D03*
X863600Y854075D02*
G54D19*
D03*
X863600Y857250D02*
G54D19*
D03*
X860425Y860425D02*
G54D19*
D03*
X857250Y860425D02*
G54D19*
D03*
X854075Y860425D02*
G54D19*
D03*
X860425Y847725D02*
G54D19*
D03*
X857250Y847725D02*
G54D19*
D03*
X854075Y847725D02*
G54D19*
D03*
X850900Y857250D02*
G54D19*
D03*
X850900Y854075D02*
G54D19*
D03*
X854075Y854075D02*
G54D19*
D03*
X857250Y854075D02*
G54D19*
D03*
X860425Y854075D02*
G54D19*
D03*
X952500Y866775D02*
G54D19*
D03*
X949325Y863600D02*
G54D19*
D03*
X946150Y866775D02*
G54D19*
D03*
X949325Y869950D02*
G54D19*
D03*
X939800Y863600D02*
G54D19*
D03*
X962025Y873125D02*
G54D19*
D03*
X933450Y873125D02*
G54D19*
D03*
X949325Y854075D02*
G54D19*
D03*
X965200Y869950D02*
G54D19*
D03*
X904875Y885825D02*
G54D19*
D03*
X901700Y885825D02*
G54D19*
D03*
X898525Y885825D02*
G54D19*
D03*
X895350Y885825D02*
G54D19*
D03*
X892175Y885825D02*
G54D19*
D03*
X892175Y882650D02*
G54D19*
D03*
X892175Y879475D02*
G54D19*
D03*
X895350Y876300D02*
G54D19*
D03*
X898525Y873125D02*
G54D19*
D03*
X901700Y869950D02*
G54D19*
D03*
X889000Y892175D02*
G54D19*
D03*
X889000Y889000D02*
G54D19*
D03*
X885825Y889000D02*
G54D19*
D03*
X885825Y892175D02*
G54D19*
D03*
X882650Y885825D02*
G54D19*
D03*
X879475Y885825D02*
G54D19*
D03*
X876300Y885825D02*
G54D19*
D03*
X873125Y885825D02*
G54D19*
D03*
X869950Y885825D02*
G54D19*
D03*
X882650Y879475D02*
G54D19*
D03*
X879475Y879475D02*
G54D19*
D03*
X876300Y879475D02*
G54D19*
D03*
X873125Y879475D02*
G54D19*
D03*
X869950Y879475D02*
G54D19*
D03*
X869950Y876300D02*
G54D19*
D03*
X873125Y873125D02*
G54D19*
D03*
X876300Y869950D02*
G54D19*
D03*
X882650Y869950D02*
G54D19*
D03*
X879475Y869950D02*
G54D19*
D03*
X863600Y885825D02*
G54D19*
D03*
X860425Y885825D02*
G54D19*
D03*
X857250Y885825D02*
G54D19*
D03*
X854075Y885825D02*
G54D19*
D03*
X850900Y885825D02*
G54D19*
D03*
X850900Y882650D02*
G54D19*
D03*
X854075Y879475D02*
G54D19*
D03*
X857250Y876300D02*
G54D19*
D03*
X860425Y873125D02*
G54D19*
D03*
X863600Y869950D02*
G54D19*
D03*
X854075Y873125D02*
G54D19*
D03*
X850900Y869950D02*
G54D19*
D03*
X942975Y898525D02*
G54D19*
D03*
X946150Y895350D02*
G54D19*
D03*
G54D20*
X876808Y899794D02*
X874808Y898683D01*
X874142Y897572D01*
X874142Y895350D01*
G54D20*
X879475Y895350D02*
X879475Y904239D01*
X876142Y904239D01*
X874808Y903683D01*
X874142Y902572D01*
X874142Y901461D01*
X874808Y900350D01*
X876142Y899794D01*
X879475Y899794D01*
G54D20*
X867698Y895906D02*
X868765Y895350D01*
X870098Y895350D01*
X871431Y895906D01*
X871698Y897017D01*
X871698Y898906D01*
X871031Y900017D01*
X869698Y900350D01*
X868365Y900017D01*
X867698Y899239D01*
X867698Y898128D01*
X871698Y898128D01*
G54D20*
X865254Y900350D02*
X862587Y895350D01*
X859921Y900350D01*
G54D20*
X857477Y895350D02*
X857477Y895350D01*
G54D20*
X849700Y895350D02*
X855033Y895350D01*
X855033Y895906D01*
X854366Y897017D01*
X850366Y900350D01*
X849700Y901461D01*
X849700Y902572D01*
X850366Y903683D01*
X851700Y904239D01*
X853033Y904239D01*
X854366Y903683D01*
X855033Y902572D01*
G54D20*
X847256Y895350D02*
X847256Y895350D01*
G54D20*
X839479Y902572D02*
X839479Y897017D01*
X840145Y895906D01*
X841479Y895350D01*
X842812Y895350D01*
X844145Y895906D01*
X844812Y897017D01*
X844812Y902572D01*
X844145Y903683D01*
X842812Y904239D01*
X841479Y904239D01*
X840145Y903683D01*
X839479Y902572D01*
X889000Y577850D02*
G54D18*
D03*
X914400Y577850D02*
G54D18*
D03*
X939800Y577850D02*
G54D18*
D03*
X965200Y577850D02*
G54D18*
D03*
X889000Y508000D02*
G54D18*
D03*
X914400Y508000D02*
G54D18*
D03*
X939800Y508000D02*
G54D18*
D03*
X965200Y508000D02*
G54D18*
D03*
X698500Y508000D02*
G54D18*
D03*
X723900Y508000D02*
G54D18*
D03*
X749300Y508000D02*
G54D18*
D03*
X774700Y508000D02*
G54D18*
D03*
X698500Y438150D02*
G54D18*
D03*
X723900Y438150D02*
G54D18*
D03*
X749300Y438150D02*
G54D18*
D03*
X774700Y438150D02*
G54D18*
D03*
X889000Y438150D02*
G54D18*
D03*
X914400Y438150D02*
G54D18*
D03*
X939800Y438150D02*
G54D18*
D03*
X965200Y438150D02*
G54D18*
D03*
X698500Y571500D02*
G54D18*
D03*
X698500Y596900D02*
G54D18*
D03*
G54D21*
X889000Y577850D02*
X889000Y438150D01*
G54D21*
X914400Y577850D02*
X914400Y438150D01*
G54D21*
X939800Y577850D02*
X939800Y438150D01*
G54D21*
X965200Y577850D02*
X965200Y438150D01*
X698500Y596900D02*
G54D18*
D03*
X949325Y847725D02*
G54D19*
D03*
X974725Y873125D02*
G54D19*
D03*
G36*
X956200Y447150D02*
X974200Y447150D01*
X974200Y429150D01*
X956200Y429150D01*
X956200Y447150D01*
G37*
G36*
X765700Y517000D02*
X783700Y517000D01*
X783700Y499000D01*
X765700Y499000D01*
X765700Y517000D01*
G37*
G36*
X765700Y447150D02*
X783700Y447150D01*
X783700Y429150D01*
X765700Y429150D01*
X765700Y447150D01*
G37*
G36*
X956200Y517000D02*
X974200Y517000D01*
X974200Y499000D01*
X956200Y499000D01*
X956200Y517000D01*
G37*
G36*
X956200Y586850D02*
X974200Y586850D01*
X974200Y568850D01*
X956200Y568850D01*
X956200Y586850D01*
G37*
G54D16*
X914400Y438150D02*
X914400Y419100D01*
X908050Y412750D01*
X730250Y412750D01*
X723900Y419100D01*
X723900Y438150D01*
G54D16*
X698500Y508000D02*
X698500Y520700D01*
X711200Y533400D01*
X889000Y533400D01*
X831850Y501650D02*
G54D22*
D03*
G54D21*
X781050Y742950D02*
X946150Y742950D01*
X971550Y717550D01*
X971550Y641350D01*
G36*
X963741Y653000D02*
X981741Y653000D01*
X981741Y617000D01*
X963741Y617000D01*
X963741Y653000D01*
G37*
M02*
