%FSLAX34Y34*%
%MOMM*%
%LNSOLDERMASK_TOP*%
G71*
G01*
%ADD10C, 2.40*%
%ADD11R, 1.98X3.35*%
%ADD12R, 1.50X1.80*%
%ADD13R, 1.00X2.20*%
%ADD14R, 2.20X4.20*%
%ADD15R, 2.20X4.70*%
%ADD16C, 3.60*%
%ADD17R, 1.80X1.50*%
%LPD*%
G36*
X145000Y932330D02*
X134470Y921800D01*
X119530Y921800D01*
X109000Y932330D01*
X109000Y947270D01*
X119530Y957800D01*
X134470Y957800D01*
X145000Y947270D01*
X145000Y932330D01*
G37*
G36*
X94200Y932330D02*
X83670Y921800D01*
X68730Y921800D01*
X58200Y932330D01*
X58200Y947270D01*
X68730Y957800D01*
X83670Y957800D01*
X94200Y947270D01*
X94200Y932330D01*
G37*
X38100Y819150D02*
G54D10*
D03*
X38100Y844550D02*
G54D10*
D03*
X38100Y730250D02*
G54D10*
D03*
X38100Y755650D02*
G54D10*
D03*
G36*
X58200Y947270D02*
X68730Y957800D01*
X83670Y957800D01*
X94200Y947270D01*
X94200Y932330D01*
X83670Y921800D01*
X68730Y921800D01*
X58200Y932330D01*
X58200Y947270D01*
G37*
X38100Y844550D02*
G54D10*
D03*
X38100Y755650D02*
G54D10*
D03*
X209550Y857250D02*
G54D10*
D03*
G36*
X125630Y824800D02*
X132650Y817780D01*
X132650Y807820D01*
X125630Y800800D01*
X115670Y800800D01*
X108650Y807820D01*
X108650Y817780D01*
X115670Y824800D01*
X125630Y824800D01*
G37*
G36*
X125630Y799400D02*
X132650Y792380D01*
X132650Y782420D01*
X125630Y775400D01*
X115670Y775400D01*
X108650Y782420D01*
X108650Y792380D01*
X115670Y799400D01*
X125630Y799400D01*
G37*
G36*
X125630Y774000D02*
X132650Y766980D01*
X132650Y757020D01*
X125630Y750000D01*
X115670Y750000D01*
X108650Y757020D01*
X108650Y766980D01*
X115670Y774000D01*
X125630Y774000D01*
G37*
G36*
X125630Y799400D02*
X132650Y792380D01*
X132650Y782420D01*
X125630Y775400D01*
X115670Y775400D01*
X108650Y782420D01*
X108650Y792380D01*
X115670Y799400D01*
X125630Y799400D01*
G37*
X140891Y866775D02*
G54D11*
D03*
X88900Y866775D02*
G54D11*
D03*
X279400Y857250D02*
G54D10*
D03*
X254397Y857250D02*
G54D10*
D03*
X234553Y857250D02*
G54D10*
D03*
X209550Y857250D02*
G54D10*
D03*
G36*
X333158Y874692D02*
X319703Y861237D01*
X300613Y861237D01*
X287158Y874692D01*
X287158Y893782D01*
X300613Y907237D01*
X319703Y907237D01*
X333158Y893782D01*
X333158Y874692D01*
G37*
G36*
X201594Y874692D02*
X188139Y861237D01*
X169049Y861237D01*
X155594Y874692D01*
X155594Y893782D01*
X169049Y907237D01*
X188139Y907237D01*
X201594Y893782D01*
X201594Y874692D01*
G37*
X19050Y946150D02*
G54D12*
D03*
X38050Y946150D02*
G54D12*
D03*
X19050Y971550D02*
G54D12*
D03*
X38050Y971550D02*
G54D12*
D03*
X28575Y885825D02*
G54D13*
D03*
X28575Y920155D02*
G54D13*
D03*
X139700Y698500D02*
G54D14*
D03*
X139700Y644525D02*
G54D14*
D03*
X139700Y700881D02*
G54D15*
D03*
G36*
X128700Y665247D02*
X150700Y665247D01*
X150700Y618247D01*
X128700Y618247D01*
X128700Y665247D01*
G37*
X228600Y647700D02*
G54D10*
D03*
X254000Y647700D02*
G54D10*
D03*
X279400Y647700D02*
G54D10*
D03*
X304800Y647700D02*
G54D10*
D03*
X228600Y577850D02*
G54D10*
D03*
X254000Y577850D02*
G54D10*
D03*
X279400Y577850D02*
G54D10*
D03*
X304800Y577850D02*
G54D10*
D03*
X38100Y577850D02*
G54D10*
D03*
X63500Y577850D02*
G54D10*
D03*
X88900Y577850D02*
G54D10*
D03*
X114300Y577850D02*
G54D10*
D03*
X38100Y508000D02*
G54D10*
D03*
X63500Y508000D02*
G54D10*
D03*
X88900Y508000D02*
G54D10*
D03*
X114300Y508000D02*
G54D10*
D03*
X228600Y508000D02*
G54D10*
D03*
X254000Y508000D02*
G54D10*
D03*
X279400Y508000D02*
G54D10*
D03*
X304800Y508000D02*
G54D10*
D03*
X38100Y641350D02*
G54D10*
D03*
X38100Y666750D02*
G54D10*
D03*
X38100Y666750D02*
G54D10*
D03*
G36*
X292800Y520000D02*
X316800Y520000D01*
X316800Y496000D01*
X292800Y496000D01*
X292800Y520000D01*
G37*
G36*
X102300Y589850D02*
X126300Y589850D01*
X126300Y565850D01*
X102300Y565850D01*
X102300Y589850D01*
G37*
G36*
X102300Y520000D02*
X126300Y520000D01*
X126300Y496000D01*
X102300Y496000D01*
X102300Y520000D01*
G37*
G36*
X292800Y589850D02*
X316800Y589850D01*
X316800Y565850D01*
X292800Y565850D01*
X292800Y589850D01*
G37*
G36*
X292800Y659700D02*
X316800Y659700D01*
X316800Y635700D01*
X292800Y635700D01*
X292800Y659700D01*
G37*
X171450Y571500D02*
G54D16*
D03*
X260350Y704850D02*
G54D11*
D03*
X312341Y704850D02*
G54D11*
D03*
G36*
X300341Y725850D02*
X324341Y725850D01*
X324341Y683850D01*
X300341Y683850D01*
X300341Y725850D01*
G37*
X139700Y700880D02*
G54D15*
D03*
X28580Y920150D02*
G54D13*
D03*
X38050Y971550D02*
G54D12*
D03*
X311150Y819150D02*
G54D17*
D03*
X311150Y800150D02*
G54D17*
D03*
X311150Y768350D02*
G54D17*
D03*
X311150Y749350D02*
G54D17*
D03*
X311150Y819150D02*
G54D17*
D03*
G36*
X475200Y932330D02*
X464670Y921800D01*
X449730Y921800D01*
X439200Y932330D01*
X439200Y947270D01*
X449730Y957800D01*
X464670Y957800D01*
X475200Y947270D01*
X475200Y932330D01*
G37*
G36*
X424400Y932330D02*
X413870Y921800D01*
X398930Y921800D01*
X388400Y932330D01*
X388400Y947270D01*
X398930Y957800D01*
X413870Y957800D01*
X424400Y947270D01*
X424400Y932330D01*
G37*
X368300Y819150D02*
G54D10*
D03*
X368300Y844550D02*
G54D10*
D03*
X368300Y730250D02*
G54D10*
D03*
X368300Y755650D02*
G54D10*
D03*
G36*
X388400Y947270D02*
X398930Y957800D01*
X413870Y957800D01*
X424400Y947270D01*
X424400Y932330D01*
X413870Y921800D01*
X398930Y921800D01*
X388400Y932330D01*
X388400Y947270D01*
G37*
X368300Y844550D02*
G54D10*
D03*
X368300Y755650D02*
G54D10*
D03*
X539750Y857250D02*
G54D10*
D03*
G36*
X455830Y824800D02*
X462850Y817780D01*
X462850Y807820D01*
X455830Y800800D01*
X445870Y800800D01*
X438850Y807820D01*
X438850Y817780D01*
X445870Y824800D01*
X455830Y824800D01*
G37*
G36*
X455830Y799400D02*
X462850Y792380D01*
X462850Y782420D01*
X455830Y775400D01*
X445870Y775400D01*
X438850Y782420D01*
X438850Y792380D01*
X445870Y799400D01*
X455830Y799400D01*
G37*
G36*
X455830Y774000D02*
X462850Y766980D01*
X462850Y757020D01*
X455830Y750000D01*
X445870Y750000D01*
X438850Y757020D01*
X438850Y766980D01*
X445870Y774000D01*
X455830Y774000D01*
G37*
G36*
X455830Y799400D02*
X462850Y792380D01*
X462850Y782420D01*
X455830Y775400D01*
X445870Y775400D01*
X438850Y782420D01*
X438850Y792380D01*
X445870Y799400D01*
X455830Y799400D01*
G37*
X471091Y866775D02*
G54D11*
D03*
X419100Y866775D02*
G54D11*
D03*
X609600Y857250D02*
G54D10*
D03*
X584597Y857250D02*
G54D10*
D03*
X564753Y857250D02*
G54D10*
D03*
X539750Y857250D02*
G54D10*
D03*
G36*
X663358Y874692D02*
X649903Y861238D01*
X630813Y861238D01*
X617358Y874692D01*
X617358Y893782D01*
X630813Y907238D01*
X649903Y907238D01*
X663358Y893782D01*
X663358Y874692D01*
G37*
G36*
X531794Y874692D02*
X518339Y861237D01*
X499249Y861237D01*
X485794Y874692D01*
X485794Y893782D01*
X499249Y907237D01*
X518339Y907237D01*
X531794Y893782D01*
X531794Y874692D01*
G37*
X349250Y946150D02*
G54D12*
D03*
X368250Y946150D02*
G54D12*
D03*
X349250Y971550D02*
G54D12*
D03*
X368250Y971550D02*
G54D12*
D03*
X358775Y885825D02*
G54D13*
D03*
X358775Y920155D02*
G54D13*
D03*
X469900Y698500D02*
G54D14*
D03*
X469900Y644525D02*
G54D14*
D03*
X469900Y700881D02*
G54D15*
D03*
G36*
X458900Y665247D02*
X480900Y665247D01*
X480900Y618247D01*
X458900Y618247D01*
X458900Y665247D01*
G37*
X558800Y647700D02*
G54D10*
D03*
X584200Y647700D02*
G54D10*
D03*
X609600Y647700D02*
G54D10*
D03*
X635000Y647700D02*
G54D10*
D03*
X558800Y577850D02*
G54D10*
D03*
X584200Y577850D02*
G54D10*
D03*
X609600Y577850D02*
G54D10*
D03*
X635000Y577850D02*
G54D10*
D03*
X368300Y577850D02*
G54D10*
D03*
X393700Y577850D02*
G54D10*
D03*
X419100Y577850D02*
G54D10*
D03*
X444500Y577850D02*
G54D10*
D03*
X368300Y508000D02*
G54D10*
D03*
X393700Y508000D02*
G54D10*
D03*
X419100Y508000D02*
G54D10*
D03*
X444500Y508000D02*
G54D10*
D03*
X558800Y508000D02*
G54D10*
D03*
X584200Y508000D02*
G54D10*
D03*
X609600Y508000D02*
G54D10*
D03*
X635000Y508000D02*
G54D10*
D03*
X368300Y641350D02*
G54D10*
D03*
X368300Y666750D02*
G54D10*
D03*
X368300Y666750D02*
G54D10*
D03*
G36*
X623000Y520000D02*
X647000Y520000D01*
X647000Y496000D01*
X623000Y496000D01*
X623000Y520000D01*
G37*
G36*
X432500Y589850D02*
X456500Y589850D01*
X456500Y565850D01*
X432500Y565850D01*
X432500Y589850D01*
G37*
G36*
X432500Y520000D02*
X456500Y520000D01*
X456500Y496000D01*
X432500Y496000D01*
X432500Y520000D01*
G37*
G36*
X623000Y589850D02*
X647000Y589850D01*
X647000Y565850D01*
X623000Y565850D01*
X623000Y589850D01*
G37*
G36*
X623000Y659700D02*
X647000Y659700D01*
X647000Y635700D01*
X623000Y635700D01*
X623000Y659700D01*
G37*
X501650Y571500D02*
G54D16*
D03*
X590550Y704850D02*
G54D11*
D03*
X642541Y704850D02*
G54D11*
D03*
G36*
X630541Y725850D02*
X654541Y725850D01*
X654541Y683850D01*
X630541Y683850D01*
X630541Y725850D01*
G37*
X469900Y700880D02*
G54D15*
D03*
X358780Y920150D02*
G54D13*
D03*
X368250Y971550D02*
G54D12*
D03*
X641350Y819150D02*
G54D17*
D03*
X641350Y800150D02*
G54D17*
D03*
X641350Y768350D02*
G54D17*
D03*
X641350Y749350D02*
G54D17*
D03*
X641350Y819150D02*
G54D17*
D03*
G36*
X805400Y932330D02*
X794870Y921800D01*
X779930Y921800D01*
X769400Y932330D01*
X769400Y947270D01*
X779930Y957800D01*
X794870Y957800D01*
X805400Y947270D01*
X805400Y932330D01*
G37*
G36*
X754600Y932330D02*
X744070Y921800D01*
X729130Y921800D01*
X718600Y932330D01*
X718600Y947270D01*
X729130Y957800D01*
X744070Y957800D01*
X754600Y947270D01*
X754600Y932330D01*
G37*
X698500Y819150D02*
G54D10*
D03*
X698500Y844550D02*
G54D10*
D03*
X698500Y730250D02*
G54D10*
D03*
X698500Y755650D02*
G54D10*
D03*
G36*
X718600Y947270D02*
X729130Y957800D01*
X744070Y957800D01*
X754600Y947270D01*
X754600Y932330D01*
X744070Y921800D01*
X729130Y921800D01*
X718600Y932330D01*
X718600Y947270D01*
G37*
X698500Y844550D02*
G54D10*
D03*
X698500Y755650D02*
G54D10*
D03*
X869950Y857250D02*
G54D10*
D03*
G36*
X786030Y824800D02*
X793050Y817780D01*
X793050Y807820D01*
X786030Y800800D01*
X776070Y800800D01*
X769050Y807820D01*
X769050Y817780D01*
X776070Y824800D01*
X786030Y824800D01*
G37*
G36*
X786030Y799400D02*
X793050Y792380D01*
X793050Y782420D01*
X786030Y775400D01*
X776070Y775400D01*
X769050Y782420D01*
X769050Y792380D01*
X776070Y799400D01*
X786030Y799400D01*
G37*
G36*
X786030Y774000D02*
X793050Y766980D01*
X793050Y757020D01*
X786030Y750000D01*
X776070Y750000D01*
X769050Y757020D01*
X769050Y766980D01*
X776070Y774000D01*
X786030Y774000D01*
G37*
G36*
X786030Y799400D02*
X793050Y792380D01*
X793050Y782420D01*
X786030Y775400D01*
X776070Y775400D01*
X769050Y782420D01*
X769050Y792380D01*
X776070Y799400D01*
X786030Y799400D01*
G37*
X801291Y866775D02*
G54D11*
D03*
X749300Y866775D02*
G54D11*
D03*
X939800Y857250D02*
G54D10*
D03*
X914797Y857250D02*
G54D10*
D03*
X894953Y857250D02*
G54D10*
D03*
X869950Y857250D02*
G54D10*
D03*
G36*
X993558Y874692D02*
X980103Y861238D01*
X961013Y861238D01*
X947558Y874692D01*
X947558Y893782D01*
X961013Y907238D01*
X980103Y907238D01*
X993558Y893782D01*
X993558Y874692D01*
G37*
G36*
X861994Y874692D02*
X848539Y861237D01*
X829449Y861237D01*
X815994Y874692D01*
X815994Y893782D01*
X829449Y907237D01*
X848539Y907237D01*
X861994Y893782D01*
X861994Y874692D01*
G37*
X679450Y946150D02*
G54D12*
D03*
X698450Y946150D02*
G54D12*
D03*
X679450Y971550D02*
G54D12*
D03*
X698450Y971550D02*
G54D12*
D03*
X688975Y885825D02*
G54D13*
D03*
X688975Y920155D02*
G54D13*
D03*
X800100Y698500D02*
G54D14*
D03*
X800100Y644525D02*
G54D14*
D03*
X800100Y700881D02*
G54D15*
D03*
G36*
X789100Y665247D02*
X811100Y665247D01*
X811100Y618247D01*
X789100Y618247D01*
X789100Y665247D01*
G37*
X889000Y647700D02*
G54D10*
D03*
X914400Y647700D02*
G54D10*
D03*
X939800Y647700D02*
G54D10*
D03*
X965200Y647700D02*
G54D10*
D03*
X889000Y577850D02*
G54D10*
D03*
X914400Y577850D02*
G54D10*
D03*
X939800Y577850D02*
G54D10*
D03*
X965200Y577850D02*
G54D10*
D03*
X698500Y577850D02*
G54D10*
D03*
X723900Y577850D02*
G54D10*
D03*
X749300Y577850D02*
G54D10*
D03*
X774700Y577850D02*
G54D10*
D03*
X698500Y508000D02*
G54D10*
D03*
X723900Y508000D02*
G54D10*
D03*
X749300Y508000D02*
G54D10*
D03*
X774700Y508000D02*
G54D10*
D03*
X889000Y508000D02*
G54D10*
D03*
X914400Y508000D02*
G54D10*
D03*
X939800Y508000D02*
G54D10*
D03*
X965200Y508000D02*
G54D10*
D03*
X698500Y641350D02*
G54D10*
D03*
X698500Y666750D02*
G54D10*
D03*
X698500Y666750D02*
G54D10*
D03*
G36*
X953200Y520000D02*
X977200Y520000D01*
X977200Y496000D01*
X953200Y496000D01*
X953200Y520000D01*
G37*
G36*
X762700Y589850D02*
X786700Y589850D01*
X786700Y565850D01*
X762700Y565850D01*
X762700Y589850D01*
G37*
G36*
X762700Y520000D02*
X786700Y520000D01*
X786700Y496000D01*
X762700Y496000D01*
X762700Y520000D01*
G37*
G36*
X953200Y589850D02*
X977200Y589850D01*
X977200Y565850D01*
X953200Y565850D01*
X953200Y589850D01*
G37*
G36*
X953200Y659700D02*
X977200Y659700D01*
X977200Y635700D01*
X953200Y635700D01*
X953200Y659700D01*
G37*
X831850Y571500D02*
G54D16*
D03*
X920750Y704850D02*
G54D11*
D03*
X972741Y704850D02*
G54D11*
D03*
G36*
X960741Y725850D02*
X984741Y725850D01*
X984741Y683850D01*
X960741Y683850D01*
X960741Y725850D01*
G37*
X800100Y700880D02*
G54D15*
D03*
X688980Y920150D02*
G54D13*
D03*
X698450Y971550D02*
G54D12*
D03*
X971550Y819150D02*
G54D17*
D03*
X971550Y800150D02*
G54D17*
D03*
X971550Y768350D02*
G54D17*
D03*
X971550Y749350D02*
G54D17*
D03*
X971550Y819150D02*
G54D17*
D03*
M02*
