%FSLAX34Y34*%
%MOMM*%
%LNSOLDERMASK_BOTTOM*%
G71*
G01*
%ADD10C, 2.40*%
%ADD11R, 0.47X0.47*%
%ADD12C, 3.60*%
%LPD*%
G36*
X145000Y932330D02*
X134470Y921800D01*
X119530Y921800D01*
X109000Y932330D01*
X109000Y947270D01*
X119530Y957800D01*
X134470Y957800D01*
X145000Y947270D01*
X145000Y932330D01*
G37*
G36*
X94200Y932330D02*
X83670Y921800D01*
X68730Y921800D01*
X58200Y932330D01*
X58200Y947270D01*
X68730Y957800D01*
X83670Y957800D01*
X94200Y947270D01*
X94200Y932330D01*
G37*
X38100Y819150D02*
G54D10*
D03*
X38100Y844550D02*
G54D10*
D03*
X38100Y730250D02*
G54D10*
D03*
X38100Y755650D02*
G54D10*
D03*
G36*
X58200Y947270D02*
X68730Y957800D01*
X83670Y957800D01*
X94200Y947270D01*
X94200Y932330D01*
X83670Y921800D01*
X68730Y921800D01*
X58200Y932330D01*
X58200Y947270D01*
G37*
X38100Y844550D02*
G54D10*
D03*
X38100Y755650D02*
G54D10*
D03*
X209550Y857250D02*
G54D10*
D03*
G36*
X125630Y824800D02*
X132650Y817780D01*
X132650Y807820D01*
X125630Y800800D01*
X115670Y800800D01*
X108650Y807820D01*
X108650Y817780D01*
X115670Y824800D01*
X125630Y824800D01*
G37*
G36*
X125630Y799400D02*
X132650Y792380D01*
X132650Y782420D01*
X125630Y775400D01*
X115670Y775400D01*
X108650Y782420D01*
X108650Y792380D01*
X115670Y799400D01*
X125630Y799400D01*
G37*
G36*
X125630Y774000D02*
X132650Y766980D01*
X132650Y757020D01*
X125630Y750000D01*
X115670Y750000D01*
X108650Y757020D01*
X108650Y766980D01*
X115670Y774000D01*
X125630Y774000D01*
G37*
G36*
X125630Y799400D02*
X132650Y792380D01*
X132650Y782420D01*
X125630Y775400D01*
X115670Y775400D01*
X108650Y782420D01*
X108650Y792380D01*
X115670Y799400D01*
X125630Y799400D01*
G37*
X279400Y857250D02*
G54D10*
D03*
X254397Y857250D02*
G54D10*
D03*
X234553Y857250D02*
G54D10*
D03*
X209550Y857250D02*
G54D10*
D03*
G36*
X333158Y874692D02*
X319703Y861237D01*
X300613Y861237D01*
X287158Y874692D01*
X287158Y893782D01*
X300613Y907237D01*
X319703Y907237D01*
X333158Y893782D01*
X333158Y874692D01*
G37*
G36*
X201594Y874692D02*
X188139Y861237D01*
X169049Y861237D01*
X155594Y874692D01*
X155594Y893782D01*
X169049Y907237D01*
X188139Y907237D01*
X201594Y893782D01*
X201594Y874692D01*
G37*
X314325Y939800D02*
G54D11*
D03*
X311150Y936625D02*
G54D11*
D03*
X307975Y933450D02*
G54D11*
D03*
X304800Y930275D02*
G54D11*
D03*
X314325Y946150D02*
G54D11*
D03*
X311150Y949325D02*
G54D11*
D03*
X307975Y952500D02*
G54D11*
D03*
X304800Y955675D02*
G54D11*
D03*
X301625Y958850D02*
G54D11*
D03*
X301625Y927100D02*
G54D11*
D03*
X298450Y923925D02*
G54D11*
D03*
X295275Y920750D02*
G54D11*
D03*
X292100Y917575D02*
G54D11*
D03*
X285750Y917575D02*
G54D11*
D03*
X282575Y920750D02*
G54D11*
D03*
X279400Y923925D02*
G54D11*
D03*
X276225Y927100D02*
G54D11*
D03*
X273050Y930275D02*
G54D11*
D03*
X269875Y933450D02*
G54D11*
D03*
X266700Y936625D02*
G54D11*
D03*
X263525Y939800D02*
G54D11*
D03*
X260350Y942975D02*
G54D11*
D03*
X298450Y962025D02*
G54D11*
D03*
X295275Y965200D02*
G54D11*
D03*
X292100Y968375D02*
G54D11*
D03*
X288925Y971550D02*
G54D11*
D03*
X273050Y968375D02*
G54D11*
D03*
X263525Y958850D02*
G54D11*
D03*
X260350Y962025D02*
G54D11*
D03*
X269875Y971550D02*
G54D11*
D03*
X269875Y977900D02*
G54D11*
D03*
X266700Y981075D02*
G54D11*
D03*
X263525Y977900D02*
G54D11*
D03*
X260350Y974725D02*
G54D11*
D03*
X257175Y971550D02*
G54D11*
D03*
X254000Y968375D02*
G54D11*
D03*
X250825Y965200D02*
G54D11*
D03*
X254000Y962025D02*
G54D11*
D03*
X304800Y949325D02*
G54D11*
D03*
X301625Y949325D02*
G54D11*
D03*
X298450Y952500D02*
G54D11*
D03*
X295275Y949325D02*
G54D11*
D03*
X292100Y949325D02*
G54D11*
D03*
X288925Y949325D02*
G54D11*
D03*
X285750Y946150D02*
G54D11*
D03*
X282575Y946150D02*
G54D11*
D03*
X279400Y949325D02*
G54D11*
D03*
X276225Y949325D02*
G54D11*
D03*
X273050Y949325D02*
G54D11*
D03*
X269875Y949325D02*
G54D11*
D03*
X266700Y949325D02*
G54D11*
D03*
X263525Y946150D02*
G54D11*
D03*
X247650Y974725D02*
G54D11*
D03*
X247650Y971550D02*
G54D11*
D03*
X247650Y968375D02*
G54D11*
D03*
X244475Y968375D02*
G54D11*
D03*
X244475Y974725D02*
G54D11*
D03*
X241300Y974725D02*
G54D11*
D03*
X241300Y977900D02*
G54D11*
D03*
X241300Y981075D02*
G54D11*
D03*
X238125Y981075D02*
G54D11*
D03*
X234950Y981075D02*
G54D11*
D03*
X234950Y977900D02*
G54D11*
D03*
X234950Y974725D02*
G54D11*
D03*
X231775Y974725D02*
G54D11*
D03*
X228600Y974725D02*
G54D11*
D03*
X228600Y971550D02*
G54D11*
D03*
X228600Y968375D02*
G54D11*
D03*
X231775Y968375D02*
G54D11*
D03*
X234950Y968375D02*
G54D11*
D03*
X241300Y968375D02*
G54D11*
D03*
X241300Y965200D02*
G54D11*
D03*
X241300Y962025D02*
G54D11*
D03*
X238125Y962025D02*
G54D11*
D03*
X234950Y962025D02*
G54D11*
D03*
X234950Y965200D02*
G54D11*
D03*
X285750Y974725D02*
G54D11*
D03*
X279400Y974725D02*
G54D11*
D03*
X276225Y971550D02*
G54D11*
D03*
X260350Y955675D02*
G54D11*
D03*
X257175Y952500D02*
G54D11*
D03*
X257175Y946150D02*
G54D11*
D03*
X260350Y936625D02*
G54D11*
D03*
X257175Y936625D02*
G54D11*
D03*
X254000Y936625D02*
G54D11*
D03*
X250825Y936625D02*
G54D11*
D03*
X247650Y936625D02*
G54D11*
D03*
X254000Y933450D02*
G54D11*
D03*
X254000Y930275D02*
G54D11*
D03*
X254000Y927100D02*
G54D11*
D03*
X254000Y923925D02*
G54D11*
D03*
X254000Y920750D02*
G54D11*
D03*
X257175Y917575D02*
G54D11*
D03*
X260350Y917575D02*
G54D11*
D03*
X263525Y920750D02*
G54D11*
D03*
X244475Y917575D02*
G54D11*
D03*
X241300Y920750D02*
G54D11*
D03*
X241300Y923925D02*
G54D11*
D03*
X241300Y927100D02*
G54D11*
D03*
X241300Y930275D02*
G54D11*
D03*
X238125Y917575D02*
G54D11*
D03*
X234950Y917575D02*
G54D11*
D03*
X231775Y917575D02*
G54D11*
D03*
X231775Y920750D02*
G54D11*
D03*
X231775Y923925D02*
G54D11*
D03*
X231775Y927100D02*
G54D11*
D03*
X231775Y930275D02*
G54D11*
D03*
X225425Y933450D02*
G54D11*
D03*
X225425Y927100D02*
G54D11*
D03*
X225425Y923925D02*
G54D11*
D03*
X225425Y920750D02*
G54D11*
D03*
X225425Y917575D02*
G54D11*
D03*
X219075Y920750D02*
G54D11*
D03*
X219075Y923925D02*
G54D11*
D03*
X219075Y927100D02*
G54D11*
D03*
X215900Y930275D02*
G54D11*
D03*
X212725Y930275D02*
G54D11*
D03*
X215900Y917575D02*
G54D11*
D03*
X212725Y917575D02*
G54D11*
D03*
X209550Y917575D02*
G54D11*
D03*
X209550Y930275D02*
G54D11*
D03*
X203200Y920750D02*
G54D11*
D03*
X203200Y923925D02*
G54D11*
D03*
X203200Y927100D02*
G54D11*
D03*
X200025Y930275D02*
G54D11*
D03*
X196850Y930275D02*
G54D11*
D03*
X193675Y930275D02*
G54D11*
D03*
X200025Y917575D02*
G54D11*
D03*
X196850Y917575D02*
G54D11*
D03*
X193675Y917575D02*
G54D11*
D03*
X190500Y927100D02*
G54D11*
D03*
X190500Y923925D02*
G54D11*
D03*
X193675Y923925D02*
G54D11*
D03*
X196850Y923925D02*
G54D11*
D03*
X200025Y923925D02*
G54D11*
D03*
X292100Y936625D02*
G54D11*
D03*
X288925Y933450D02*
G54D11*
D03*
X285750Y936625D02*
G54D11*
D03*
X288925Y939800D02*
G54D11*
D03*
X279400Y933450D02*
G54D11*
D03*
X301625Y942975D02*
G54D11*
D03*
X273050Y942975D02*
G54D11*
D03*
X288925Y923925D02*
G54D11*
D03*
X304800Y939800D02*
G54D11*
D03*
X244475Y955675D02*
G54D11*
D03*
X241300Y955675D02*
G54D11*
D03*
X238125Y955675D02*
G54D11*
D03*
X234950Y955675D02*
G54D11*
D03*
X231775Y955675D02*
G54D11*
D03*
X231775Y952500D02*
G54D11*
D03*
X231775Y949325D02*
G54D11*
D03*
X234950Y946150D02*
G54D11*
D03*
X238125Y942975D02*
G54D11*
D03*
X241300Y939800D02*
G54D11*
D03*
X228600Y962025D02*
G54D11*
D03*
X228600Y958850D02*
G54D11*
D03*
X225425Y958850D02*
G54D11*
D03*
X225425Y962025D02*
G54D11*
D03*
X222250Y955675D02*
G54D11*
D03*
X219075Y955675D02*
G54D11*
D03*
X215900Y955675D02*
G54D11*
D03*
X212725Y955675D02*
G54D11*
D03*
X209550Y955675D02*
G54D11*
D03*
X222250Y949325D02*
G54D11*
D03*
X219075Y949325D02*
G54D11*
D03*
X215900Y949325D02*
G54D11*
D03*
X212725Y949325D02*
G54D11*
D03*
X209550Y949325D02*
G54D11*
D03*
X209550Y946150D02*
G54D11*
D03*
X212725Y942975D02*
G54D11*
D03*
X215900Y939800D02*
G54D11*
D03*
X222250Y939800D02*
G54D11*
D03*
X219075Y939800D02*
G54D11*
D03*
X203200Y955675D02*
G54D11*
D03*
X200025Y955675D02*
G54D11*
D03*
X196850Y955675D02*
G54D11*
D03*
X193675Y955675D02*
G54D11*
D03*
X190500Y955675D02*
G54D11*
D03*
X190500Y952500D02*
G54D11*
D03*
X193675Y949325D02*
G54D11*
D03*
X196850Y946150D02*
G54D11*
D03*
X200025Y942975D02*
G54D11*
D03*
X203200Y939800D02*
G54D11*
D03*
X193675Y942975D02*
G54D11*
D03*
X190500Y939800D02*
G54D11*
D03*
X282575Y968375D02*
G54D11*
D03*
X285750Y965200D02*
G54D11*
D03*
X228600Y647700D02*
G54D10*
D03*
X254000Y647700D02*
G54D10*
D03*
X279400Y647700D02*
G54D10*
D03*
X304800Y647700D02*
G54D10*
D03*
X228600Y577850D02*
G54D10*
D03*
X254000Y577850D02*
G54D10*
D03*
X279400Y577850D02*
G54D10*
D03*
X304800Y577850D02*
G54D10*
D03*
X38100Y577850D02*
G54D10*
D03*
X63500Y577850D02*
G54D10*
D03*
X88900Y577850D02*
G54D10*
D03*
X114300Y577850D02*
G54D10*
D03*
X38100Y508000D02*
G54D10*
D03*
X63500Y508000D02*
G54D10*
D03*
X88900Y508000D02*
G54D10*
D03*
X114300Y508000D02*
G54D10*
D03*
X228600Y508000D02*
G54D10*
D03*
X254000Y508000D02*
G54D10*
D03*
X279400Y508000D02*
G54D10*
D03*
X304800Y508000D02*
G54D10*
D03*
X38100Y641350D02*
G54D10*
D03*
X38100Y666750D02*
G54D10*
D03*
X38100Y666750D02*
G54D10*
D03*
X288925Y917575D02*
G54D11*
D03*
X314325Y942975D02*
G54D11*
D03*
G36*
X292800Y520000D02*
X316800Y520000D01*
X316800Y496000D01*
X292800Y496000D01*
X292800Y520000D01*
G37*
G36*
X102300Y589850D02*
X126300Y589850D01*
X126300Y565850D01*
X102300Y565850D01*
X102300Y589850D01*
G37*
G36*
X102300Y520000D02*
X126300Y520000D01*
X126300Y496000D01*
X102300Y496000D01*
X102300Y520000D01*
G37*
G36*
X292800Y589850D02*
X316800Y589850D01*
X316800Y565850D01*
X292800Y565850D01*
X292800Y589850D01*
G37*
G36*
X292800Y659700D02*
X316800Y659700D01*
X316800Y635700D01*
X292800Y635700D01*
X292800Y659700D01*
G37*
X171450Y571500D02*
G54D12*
D03*
G36*
X300341Y725850D02*
X324341Y725850D01*
X324341Y683850D01*
X300341Y683850D01*
X300341Y725850D01*
G37*
G36*
X475200Y932330D02*
X464670Y921800D01*
X449730Y921800D01*
X439200Y932330D01*
X439200Y947270D01*
X449730Y957800D01*
X464670Y957800D01*
X475200Y947270D01*
X475200Y932330D01*
G37*
G36*
X424400Y932330D02*
X413870Y921800D01*
X398930Y921800D01*
X388400Y932330D01*
X388400Y947270D01*
X398930Y957800D01*
X413870Y957800D01*
X424400Y947270D01*
X424400Y932330D01*
G37*
X368300Y819150D02*
G54D10*
D03*
X368300Y844550D02*
G54D10*
D03*
X368300Y730250D02*
G54D10*
D03*
X368300Y755650D02*
G54D10*
D03*
G36*
X388400Y947270D02*
X398930Y957800D01*
X413870Y957800D01*
X424400Y947270D01*
X424400Y932330D01*
X413870Y921800D01*
X398930Y921800D01*
X388400Y932330D01*
X388400Y947270D01*
G37*
X368300Y844550D02*
G54D10*
D03*
X368300Y755650D02*
G54D10*
D03*
X539750Y857250D02*
G54D10*
D03*
G36*
X455830Y824800D02*
X462850Y817780D01*
X462850Y807820D01*
X455830Y800800D01*
X445870Y800800D01*
X438850Y807820D01*
X438850Y817780D01*
X445870Y824800D01*
X455830Y824800D01*
G37*
G36*
X455830Y799400D02*
X462850Y792380D01*
X462850Y782420D01*
X455830Y775400D01*
X445870Y775400D01*
X438850Y782420D01*
X438850Y792380D01*
X445870Y799400D01*
X455830Y799400D01*
G37*
G36*
X455830Y774000D02*
X462850Y766980D01*
X462850Y757020D01*
X455830Y750000D01*
X445870Y750000D01*
X438850Y757020D01*
X438850Y766980D01*
X445870Y774000D01*
X455830Y774000D01*
G37*
G36*
X455830Y799400D02*
X462850Y792380D01*
X462850Y782420D01*
X455830Y775400D01*
X445870Y775400D01*
X438850Y782420D01*
X438850Y792380D01*
X445870Y799400D01*
X455830Y799400D01*
G37*
X609600Y857250D02*
G54D10*
D03*
X584597Y857250D02*
G54D10*
D03*
X564753Y857250D02*
G54D10*
D03*
X539750Y857250D02*
G54D10*
D03*
G36*
X663358Y874692D02*
X649903Y861238D01*
X630813Y861238D01*
X617358Y874692D01*
X617358Y893782D01*
X630813Y907238D01*
X649903Y907238D01*
X663358Y893782D01*
X663358Y874692D01*
G37*
G36*
X531794Y874692D02*
X518339Y861237D01*
X499249Y861237D01*
X485794Y874692D01*
X485794Y893782D01*
X499249Y907237D01*
X518339Y907237D01*
X531794Y893782D01*
X531794Y874692D01*
G37*
X644525Y939800D02*
G54D11*
D03*
X641350Y936625D02*
G54D11*
D03*
X638175Y933450D02*
G54D11*
D03*
X635000Y930275D02*
G54D11*
D03*
X644525Y946150D02*
G54D11*
D03*
X641350Y949325D02*
G54D11*
D03*
X638175Y952500D02*
G54D11*
D03*
X635000Y955675D02*
G54D11*
D03*
X631825Y958850D02*
G54D11*
D03*
X631825Y927100D02*
G54D11*
D03*
X628650Y923925D02*
G54D11*
D03*
X625475Y920750D02*
G54D11*
D03*
X622300Y917575D02*
G54D11*
D03*
X615950Y917575D02*
G54D11*
D03*
X612775Y920750D02*
G54D11*
D03*
X609600Y923925D02*
G54D11*
D03*
X606425Y927100D02*
G54D11*
D03*
X603250Y930275D02*
G54D11*
D03*
X600075Y933450D02*
G54D11*
D03*
X596900Y936625D02*
G54D11*
D03*
X593725Y939800D02*
G54D11*
D03*
X590550Y942975D02*
G54D11*
D03*
X628650Y962025D02*
G54D11*
D03*
X625475Y965200D02*
G54D11*
D03*
X622300Y968375D02*
G54D11*
D03*
X619125Y971550D02*
G54D11*
D03*
X603250Y968375D02*
G54D11*
D03*
X593725Y958850D02*
G54D11*
D03*
X590550Y962025D02*
G54D11*
D03*
X600075Y971550D02*
G54D11*
D03*
X600075Y977900D02*
G54D11*
D03*
X596900Y981075D02*
G54D11*
D03*
X593725Y977900D02*
G54D11*
D03*
X590550Y974725D02*
G54D11*
D03*
X587375Y971550D02*
G54D11*
D03*
X584200Y968375D02*
G54D11*
D03*
X581025Y965200D02*
G54D11*
D03*
X584200Y962025D02*
G54D11*
D03*
X635000Y949325D02*
G54D11*
D03*
X631825Y949325D02*
G54D11*
D03*
X628650Y952500D02*
G54D11*
D03*
X625475Y949325D02*
G54D11*
D03*
X622300Y949325D02*
G54D11*
D03*
X619125Y949325D02*
G54D11*
D03*
X615950Y946150D02*
G54D11*
D03*
X612775Y946150D02*
G54D11*
D03*
X609600Y949325D02*
G54D11*
D03*
X606425Y949325D02*
G54D11*
D03*
X603250Y949325D02*
G54D11*
D03*
X600075Y949325D02*
G54D11*
D03*
X596900Y949325D02*
G54D11*
D03*
X593725Y946150D02*
G54D11*
D03*
X577850Y974725D02*
G54D11*
D03*
X577850Y971550D02*
G54D11*
D03*
X577850Y968375D02*
G54D11*
D03*
X574675Y968375D02*
G54D11*
D03*
X574675Y974725D02*
G54D11*
D03*
X571500Y974725D02*
G54D11*
D03*
X571500Y977900D02*
G54D11*
D03*
X571500Y981075D02*
G54D11*
D03*
X568325Y981075D02*
G54D11*
D03*
X565150Y981075D02*
G54D11*
D03*
X565150Y977900D02*
G54D11*
D03*
X565150Y974725D02*
G54D11*
D03*
X561975Y974725D02*
G54D11*
D03*
X558800Y974725D02*
G54D11*
D03*
X558800Y971550D02*
G54D11*
D03*
X558800Y968375D02*
G54D11*
D03*
X561975Y968375D02*
G54D11*
D03*
X565150Y968375D02*
G54D11*
D03*
X571500Y968375D02*
G54D11*
D03*
X571500Y965200D02*
G54D11*
D03*
X571500Y962025D02*
G54D11*
D03*
X568325Y962025D02*
G54D11*
D03*
X565150Y962025D02*
G54D11*
D03*
X565150Y965200D02*
G54D11*
D03*
X615950Y974725D02*
G54D11*
D03*
X609600Y974725D02*
G54D11*
D03*
X606425Y971550D02*
G54D11*
D03*
X590550Y955675D02*
G54D11*
D03*
X587375Y952500D02*
G54D11*
D03*
X587375Y946150D02*
G54D11*
D03*
X590550Y936625D02*
G54D11*
D03*
X587375Y936625D02*
G54D11*
D03*
X584200Y936625D02*
G54D11*
D03*
X581025Y936625D02*
G54D11*
D03*
X577850Y936625D02*
G54D11*
D03*
X584200Y933450D02*
G54D11*
D03*
X584200Y930275D02*
G54D11*
D03*
X584200Y927100D02*
G54D11*
D03*
X584200Y923925D02*
G54D11*
D03*
X584200Y920750D02*
G54D11*
D03*
X587375Y917575D02*
G54D11*
D03*
X590550Y917575D02*
G54D11*
D03*
X593725Y920750D02*
G54D11*
D03*
X574675Y917575D02*
G54D11*
D03*
X571500Y920750D02*
G54D11*
D03*
X571500Y923925D02*
G54D11*
D03*
X571500Y927100D02*
G54D11*
D03*
X571500Y930275D02*
G54D11*
D03*
X568325Y917575D02*
G54D11*
D03*
X565150Y917575D02*
G54D11*
D03*
X561975Y917575D02*
G54D11*
D03*
X561975Y920750D02*
G54D11*
D03*
X561975Y923925D02*
G54D11*
D03*
X561975Y927100D02*
G54D11*
D03*
X561975Y930275D02*
G54D11*
D03*
X555625Y933450D02*
G54D11*
D03*
X555625Y927100D02*
G54D11*
D03*
X555625Y923925D02*
G54D11*
D03*
X555625Y920750D02*
G54D11*
D03*
X555625Y917575D02*
G54D11*
D03*
X549275Y920750D02*
G54D11*
D03*
X549275Y923925D02*
G54D11*
D03*
X549275Y927100D02*
G54D11*
D03*
X546100Y930275D02*
G54D11*
D03*
X542925Y930275D02*
G54D11*
D03*
X546100Y917575D02*
G54D11*
D03*
X542925Y917575D02*
G54D11*
D03*
X539750Y917575D02*
G54D11*
D03*
X539750Y930275D02*
G54D11*
D03*
X533400Y920750D02*
G54D11*
D03*
X533400Y923925D02*
G54D11*
D03*
X533400Y927100D02*
G54D11*
D03*
X530225Y930275D02*
G54D11*
D03*
X527050Y930275D02*
G54D11*
D03*
X523875Y930275D02*
G54D11*
D03*
X530225Y917575D02*
G54D11*
D03*
X527050Y917575D02*
G54D11*
D03*
X523875Y917575D02*
G54D11*
D03*
X520700Y927100D02*
G54D11*
D03*
X520700Y923925D02*
G54D11*
D03*
X523875Y923925D02*
G54D11*
D03*
X527050Y923925D02*
G54D11*
D03*
X530225Y923925D02*
G54D11*
D03*
X622300Y936625D02*
G54D11*
D03*
X619125Y933450D02*
G54D11*
D03*
X615950Y936625D02*
G54D11*
D03*
X619125Y939800D02*
G54D11*
D03*
X609600Y933450D02*
G54D11*
D03*
X631825Y942975D02*
G54D11*
D03*
X603250Y942975D02*
G54D11*
D03*
X619125Y923925D02*
G54D11*
D03*
X635000Y939800D02*
G54D11*
D03*
X574675Y955675D02*
G54D11*
D03*
X571500Y955675D02*
G54D11*
D03*
X568325Y955675D02*
G54D11*
D03*
X565150Y955675D02*
G54D11*
D03*
X561975Y955675D02*
G54D11*
D03*
X561975Y952500D02*
G54D11*
D03*
X561975Y949325D02*
G54D11*
D03*
X565150Y946150D02*
G54D11*
D03*
X568325Y942975D02*
G54D11*
D03*
X571500Y939800D02*
G54D11*
D03*
X558800Y962025D02*
G54D11*
D03*
X558800Y958850D02*
G54D11*
D03*
X555625Y958850D02*
G54D11*
D03*
X555625Y962025D02*
G54D11*
D03*
X552450Y955675D02*
G54D11*
D03*
X549275Y955675D02*
G54D11*
D03*
X546100Y955675D02*
G54D11*
D03*
X542925Y955675D02*
G54D11*
D03*
X539750Y955675D02*
G54D11*
D03*
X552450Y949325D02*
G54D11*
D03*
X549275Y949325D02*
G54D11*
D03*
X546100Y949325D02*
G54D11*
D03*
X542925Y949325D02*
G54D11*
D03*
X539750Y949325D02*
G54D11*
D03*
X539750Y946150D02*
G54D11*
D03*
X542925Y942975D02*
G54D11*
D03*
X546100Y939800D02*
G54D11*
D03*
X552450Y939800D02*
G54D11*
D03*
X549275Y939800D02*
G54D11*
D03*
X533400Y955675D02*
G54D11*
D03*
X530225Y955675D02*
G54D11*
D03*
X527050Y955675D02*
G54D11*
D03*
X523875Y955675D02*
G54D11*
D03*
X520700Y955675D02*
G54D11*
D03*
X520700Y952500D02*
G54D11*
D03*
X523875Y949325D02*
G54D11*
D03*
X527050Y946150D02*
G54D11*
D03*
X530225Y942975D02*
G54D11*
D03*
X533400Y939800D02*
G54D11*
D03*
X523875Y942975D02*
G54D11*
D03*
X520700Y939800D02*
G54D11*
D03*
X612775Y968375D02*
G54D11*
D03*
X615950Y965200D02*
G54D11*
D03*
X558800Y647700D02*
G54D10*
D03*
X584200Y647700D02*
G54D10*
D03*
X609600Y647700D02*
G54D10*
D03*
X635000Y647700D02*
G54D10*
D03*
X558800Y577850D02*
G54D10*
D03*
X584200Y577850D02*
G54D10*
D03*
X609600Y577850D02*
G54D10*
D03*
X635000Y577850D02*
G54D10*
D03*
X368300Y577850D02*
G54D10*
D03*
X393700Y577850D02*
G54D10*
D03*
X419100Y577850D02*
G54D10*
D03*
X444500Y577850D02*
G54D10*
D03*
X368300Y508000D02*
G54D10*
D03*
X393700Y508000D02*
G54D10*
D03*
X419100Y508000D02*
G54D10*
D03*
X444500Y508000D02*
G54D10*
D03*
X558800Y508000D02*
G54D10*
D03*
X584200Y508000D02*
G54D10*
D03*
X609600Y508000D02*
G54D10*
D03*
X635000Y508000D02*
G54D10*
D03*
X368300Y641350D02*
G54D10*
D03*
X368300Y666750D02*
G54D10*
D03*
X368300Y666750D02*
G54D10*
D03*
X619125Y917575D02*
G54D11*
D03*
X644525Y942975D02*
G54D11*
D03*
G36*
X623000Y520000D02*
X647000Y520000D01*
X647000Y496000D01*
X623000Y496000D01*
X623000Y520000D01*
G37*
G36*
X432500Y589850D02*
X456500Y589850D01*
X456500Y565850D01*
X432500Y565850D01*
X432500Y589850D01*
G37*
G36*
X432500Y520000D02*
X456500Y520000D01*
X456500Y496000D01*
X432500Y496000D01*
X432500Y520000D01*
G37*
G36*
X623000Y589850D02*
X647000Y589850D01*
X647000Y565850D01*
X623000Y565850D01*
X623000Y589850D01*
G37*
G36*
X623000Y659700D02*
X647000Y659700D01*
X647000Y635700D01*
X623000Y635700D01*
X623000Y659700D01*
G37*
X501650Y571500D02*
G54D12*
D03*
G36*
X630541Y725850D02*
X654541Y725850D01*
X654541Y683850D01*
X630541Y683850D01*
X630541Y725850D01*
G37*
G36*
X805400Y932330D02*
X794870Y921800D01*
X779930Y921800D01*
X769400Y932330D01*
X769400Y947270D01*
X779930Y957800D01*
X794870Y957800D01*
X805400Y947270D01*
X805400Y932330D01*
G37*
G36*
X754600Y932330D02*
X744070Y921800D01*
X729130Y921800D01*
X718600Y932330D01*
X718600Y947270D01*
X729130Y957800D01*
X744070Y957800D01*
X754600Y947270D01*
X754600Y932330D01*
G37*
X698500Y819150D02*
G54D10*
D03*
X698500Y844550D02*
G54D10*
D03*
X698500Y730250D02*
G54D10*
D03*
X698500Y755650D02*
G54D10*
D03*
G36*
X718600Y947270D02*
X729130Y957800D01*
X744070Y957800D01*
X754600Y947270D01*
X754600Y932330D01*
X744070Y921800D01*
X729130Y921800D01*
X718600Y932330D01*
X718600Y947270D01*
G37*
X698500Y844550D02*
G54D10*
D03*
X698500Y755650D02*
G54D10*
D03*
X869950Y857250D02*
G54D10*
D03*
G36*
X786030Y824800D02*
X793050Y817780D01*
X793050Y807820D01*
X786030Y800800D01*
X776070Y800800D01*
X769050Y807820D01*
X769050Y817780D01*
X776070Y824800D01*
X786030Y824800D01*
G37*
G36*
X786030Y799400D02*
X793050Y792380D01*
X793050Y782420D01*
X786030Y775400D01*
X776070Y775400D01*
X769050Y782420D01*
X769050Y792380D01*
X776070Y799400D01*
X786030Y799400D01*
G37*
G36*
X786030Y774000D02*
X793050Y766980D01*
X793050Y757020D01*
X786030Y750000D01*
X776070Y750000D01*
X769050Y757020D01*
X769050Y766980D01*
X776070Y774000D01*
X786030Y774000D01*
G37*
G36*
X786030Y799400D02*
X793050Y792380D01*
X793050Y782420D01*
X786030Y775400D01*
X776070Y775400D01*
X769050Y782420D01*
X769050Y792380D01*
X776070Y799400D01*
X786030Y799400D01*
G37*
X939800Y857250D02*
G54D10*
D03*
X914797Y857250D02*
G54D10*
D03*
X894953Y857250D02*
G54D10*
D03*
X869950Y857250D02*
G54D10*
D03*
G36*
X993558Y874692D02*
X980103Y861238D01*
X961013Y861238D01*
X947558Y874692D01*
X947558Y893782D01*
X961013Y907238D01*
X980103Y907238D01*
X993558Y893782D01*
X993558Y874692D01*
G37*
G36*
X861994Y874692D02*
X848539Y861237D01*
X829449Y861237D01*
X815994Y874692D01*
X815994Y893782D01*
X829449Y907237D01*
X848539Y907237D01*
X861994Y893782D01*
X861994Y874692D01*
G37*
X974725Y939800D02*
G54D11*
D03*
X971550Y936625D02*
G54D11*
D03*
X968375Y933450D02*
G54D11*
D03*
X965200Y930275D02*
G54D11*
D03*
X974725Y946150D02*
G54D11*
D03*
X971550Y949325D02*
G54D11*
D03*
X968375Y952500D02*
G54D11*
D03*
X965200Y955675D02*
G54D11*
D03*
X962025Y958850D02*
G54D11*
D03*
X962025Y927100D02*
G54D11*
D03*
X958850Y923925D02*
G54D11*
D03*
X955675Y920750D02*
G54D11*
D03*
X952500Y917575D02*
G54D11*
D03*
X946150Y917575D02*
G54D11*
D03*
X942975Y920750D02*
G54D11*
D03*
X939800Y923925D02*
G54D11*
D03*
X936625Y927100D02*
G54D11*
D03*
X933450Y930275D02*
G54D11*
D03*
X930275Y933450D02*
G54D11*
D03*
X927100Y936625D02*
G54D11*
D03*
X923925Y939800D02*
G54D11*
D03*
X920750Y942975D02*
G54D11*
D03*
X958850Y962025D02*
G54D11*
D03*
X955675Y965200D02*
G54D11*
D03*
X952500Y968375D02*
G54D11*
D03*
X949325Y971550D02*
G54D11*
D03*
X933450Y968375D02*
G54D11*
D03*
X923925Y958850D02*
G54D11*
D03*
X920750Y962025D02*
G54D11*
D03*
X930275Y971550D02*
G54D11*
D03*
X930275Y977900D02*
G54D11*
D03*
X927100Y981075D02*
G54D11*
D03*
X923925Y977900D02*
G54D11*
D03*
X920750Y974725D02*
G54D11*
D03*
X917575Y971550D02*
G54D11*
D03*
X914400Y968375D02*
G54D11*
D03*
X911225Y965200D02*
G54D11*
D03*
X914400Y962025D02*
G54D11*
D03*
X965200Y949325D02*
G54D11*
D03*
X962025Y949325D02*
G54D11*
D03*
X958850Y952500D02*
G54D11*
D03*
X955675Y949325D02*
G54D11*
D03*
X952500Y949325D02*
G54D11*
D03*
X949325Y949325D02*
G54D11*
D03*
X946150Y946150D02*
G54D11*
D03*
X942975Y946150D02*
G54D11*
D03*
X939800Y949325D02*
G54D11*
D03*
X936625Y949325D02*
G54D11*
D03*
X933450Y949325D02*
G54D11*
D03*
X930275Y949325D02*
G54D11*
D03*
X927100Y949325D02*
G54D11*
D03*
X923925Y946150D02*
G54D11*
D03*
X908050Y974725D02*
G54D11*
D03*
X908050Y971550D02*
G54D11*
D03*
X908050Y968375D02*
G54D11*
D03*
X904875Y968375D02*
G54D11*
D03*
X904875Y974725D02*
G54D11*
D03*
X901700Y974725D02*
G54D11*
D03*
X901700Y977900D02*
G54D11*
D03*
X901700Y981075D02*
G54D11*
D03*
X898525Y981075D02*
G54D11*
D03*
X895350Y981075D02*
G54D11*
D03*
X895350Y977900D02*
G54D11*
D03*
X895350Y974725D02*
G54D11*
D03*
X892175Y974725D02*
G54D11*
D03*
X889000Y974725D02*
G54D11*
D03*
X889000Y971550D02*
G54D11*
D03*
X889000Y968375D02*
G54D11*
D03*
X892175Y968375D02*
G54D11*
D03*
X895350Y968375D02*
G54D11*
D03*
X901700Y968375D02*
G54D11*
D03*
X901700Y965200D02*
G54D11*
D03*
X901700Y962025D02*
G54D11*
D03*
X898525Y962025D02*
G54D11*
D03*
X895350Y962025D02*
G54D11*
D03*
X895350Y965200D02*
G54D11*
D03*
X946150Y974725D02*
G54D11*
D03*
X939800Y974725D02*
G54D11*
D03*
X936625Y971550D02*
G54D11*
D03*
X920750Y955675D02*
G54D11*
D03*
X917575Y952500D02*
G54D11*
D03*
X917575Y946150D02*
G54D11*
D03*
X920750Y936625D02*
G54D11*
D03*
X917575Y936625D02*
G54D11*
D03*
X914400Y936625D02*
G54D11*
D03*
X911225Y936625D02*
G54D11*
D03*
X908050Y936625D02*
G54D11*
D03*
X914400Y933450D02*
G54D11*
D03*
X914400Y930275D02*
G54D11*
D03*
X914400Y927100D02*
G54D11*
D03*
X914400Y923925D02*
G54D11*
D03*
X914400Y920750D02*
G54D11*
D03*
X917575Y917575D02*
G54D11*
D03*
X920750Y917575D02*
G54D11*
D03*
X923925Y920750D02*
G54D11*
D03*
X904875Y917575D02*
G54D11*
D03*
X901700Y920750D02*
G54D11*
D03*
X901700Y923925D02*
G54D11*
D03*
X901700Y927100D02*
G54D11*
D03*
X901700Y930275D02*
G54D11*
D03*
X898525Y917575D02*
G54D11*
D03*
X895350Y917575D02*
G54D11*
D03*
X892175Y917575D02*
G54D11*
D03*
X892175Y920750D02*
G54D11*
D03*
X892175Y923925D02*
G54D11*
D03*
X892175Y927100D02*
G54D11*
D03*
X892175Y930275D02*
G54D11*
D03*
X885825Y933450D02*
G54D11*
D03*
X885825Y927100D02*
G54D11*
D03*
X885825Y923925D02*
G54D11*
D03*
X885825Y920750D02*
G54D11*
D03*
X885825Y917575D02*
G54D11*
D03*
X879475Y920750D02*
G54D11*
D03*
X879475Y923925D02*
G54D11*
D03*
X879475Y927100D02*
G54D11*
D03*
X876300Y930275D02*
G54D11*
D03*
X873125Y930275D02*
G54D11*
D03*
X876300Y917575D02*
G54D11*
D03*
X873125Y917575D02*
G54D11*
D03*
X869950Y917575D02*
G54D11*
D03*
X869950Y930275D02*
G54D11*
D03*
X863600Y920750D02*
G54D11*
D03*
X863600Y923925D02*
G54D11*
D03*
X863600Y927100D02*
G54D11*
D03*
X860425Y930275D02*
G54D11*
D03*
X857250Y930275D02*
G54D11*
D03*
X854075Y930275D02*
G54D11*
D03*
X860425Y917575D02*
G54D11*
D03*
X857250Y917575D02*
G54D11*
D03*
X854075Y917575D02*
G54D11*
D03*
X850900Y927100D02*
G54D11*
D03*
X850900Y923925D02*
G54D11*
D03*
X854075Y923925D02*
G54D11*
D03*
X857250Y923925D02*
G54D11*
D03*
X860425Y923925D02*
G54D11*
D03*
X952500Y936625D02*
G54D11*
D03*
X949325Y933450D02*
G54D11*
D03*
X946150Y936625D02*
G54D11*
D03*
X949325Y939800D02*
G54D11*
D03*
X939800Y933450D02*
G54D11*
D03*
X962025Y942975D02*
G54D11*
D03*
X933450Y942975D02*
G54D11*
D03*
X949325Y923925D02*
G54D11*
D03*
X965200Y939800D02*
G54D11*
D03*
X904875Y955675D02*
G54D11*
D03*
X901700Y955675D02*
G54D11*
D03*
X898525Y955675D02*
G54D11*
D03*
X895350Y955675D02*
G54D11*
D03*
X892175Y955675D02*
G54D11*
D03*
X892175Y952500D02*
G54D11*
D03*
X892175Y949325D02*
G54D11*
D03*
X895350Y946150D02*
G54D11*
D03*
X898525Y942975D02*
G54D11*
D03*
X901700Y939800D02*
G54D11*
D03*
X889000Y962025D02*
G54D11*
D03*
X889000Y958850D02*
G54D11*
D03*
X885825Y958850D02*
G54D11*
D03*
X885825Y962025D02*
G54D11*
D03*
X882650Y955675D02*
G54D11*
D03*
X879475Y955675D02*
G54D11*
D03*
X876300Y955675D02*
G54D11*
D03*
X873125Y955675D02*
G54D11*
D03*
X869950Y955675D02*
G54D11*
D03*
X882650Y949325D02*
G54D11*
D03*
X879475Y949325D02*
G54D11*
D03*
X876300Y949325D02*
G54D11*
D03*
X873125Y949325D02*
G54D11*
D03*
X869950Y949325D02*
G54D11*
D03*
X869950Y946150D02*
G54D11*
D03*
X873125Y942975D02*
G54D11*
D03*
X876300Y939800D02*
G54D11*
D03*
X882650Y939800D02*
G54D11*
D03*
X879475Y939800D02*
G54D11*
D03*
X863600Y955675D02*
G54D11*
D03*
X860425Y955675D02*
G54D11*
D03*
X857250Y955675D02*
G54D11*
D03*
X854075Y955675D02*
G54D11*
D03*
X850900Y955675D02*
G54D11*
D03*
X850900Y952500D02*
G54D11*
D03*
X854075Y949325D02*
G54D11*
D03*
X857250Y946150D02*
G54D11*
D03*
X860425Y942975D02*
G54D11*
D03*
X863600Y939800D02*
G54D11*
D03*
X854075Y942975D02*
G54D11*
D03*
X850900Y939800D02*
G54D11*
D03*
X942975Y968375D02*
G54D11*
D03*
X946150Y965200D02*
G54D11*
D03*
X889000Y647700D02*
G54D10*
D03*
X914400Y647700D02*
G54D10*
D03*
X939800Y647700D02*
G54D10*
D03*
X965200Y647700D02*
G54D10*
D03*
X889000Y577850D02*
G54D10*
D03*
X914400Y577850D02*
G54D10*
D03*
X939800Y577850D02*
G54D10*
D03*
X965200Y577850D02*
G54D10*
D03*
X698500Y577850D02*
G54D10*
D03*
X723900Y577850D02*
G54D10*
D03*
X749300Y577850D02*
G54D10*
D03*
X774700Y577850D02*
G54D10*
D03*
X698500Y508000D02*
G54D10*
D03*
X723900Y508000D02*
G54D10*
D03*
X749300Y508000D02*
G54D10*
D03*
X774700Y508000D02*
G54D10*
D03*
X889000Y508000D02*
G54D10*
D03*
X914400Y508000D02*
G54D10*
D03*
X939800Y508000D02*
G54D10*
D03*
X965200Y508000D02*
G54D10*
D03*
X698500Y641350D02*
G54D10*
D03*
X698500Y666750D02*
G54D10*
D03*
X698500Y666750D02*
G54D10*
D03*
X949325Y917575D02*
G54D11*
D03*
X974725Y942975D02*
G54D11*
D03*
G36*
X953200Y520000D02*
X977200Y520000D01*
X977200Y496000D01*
X953200Y496000D01*
X953200Y520000D01*
G37*
G36*
X762700Y589850D02*
X786700Y589850D01*
X786700Y565850D01*
X762700Y565850D01*
X762700Y589850D01*
G37*
G36*
X762700Y520000D02*
X786700Y520000D01*
X786700Y496000D01*
X762700Y496000D01*
X762700Y520000D01*
G37*
G36*
X953200Y589850D02*
X977200Y589850D01*
X977200Y565850D01*
X953200Y565850D01*
X953200Y589850D01*
G37*
G36*
X953200Y659700D02*
X977200Y659700D01*
X977200Y635700D01*
X953200Y635700D01*
X953200Y659700D01*
G37*
X831850Y571500D02*
G54D12*
D03*
G36*
X960741Y725850D02*
X984741Y725850D01*
X984741Y683850D01*
X960741Y683850D01*
X960741Y725850D01*
G37*
M02*
