; Drill file
; Format: 2.4 (00.0000)
M48
INCH
T01C0.0354
T02C0.0394
T03C0.0433
T04C0.0787
T05C0.0945
%
G05
G90
T01
X001190Y009190
X002190Y009190
X004500Y009190
X005500Y009190
X007870Y009190
X008870Y009190
X011190Y009190
X012190Y009190
X014190Y009190
X015190Y009190
X017500Y009190
X018500Y009190
X020870Y009190
X021870Y009190
X024190Y009190
X025190Y009190
X027190Y009190
X028190Y009190
X030500Y009190
X031500Y009190
X033880Y009190
X034870Y009190
X037190Y009190
X038190Y009190
X038190Y025560
X037190Y025560
X034870Y025560
X033880Y025560
X031500Y025560
X030500Y025560
X028190Y025560
X027190Y025560
X025190Y025560
X024190Y025560
X021870Y025560
X020870Y025560
X018500Y025560
X017500Y025560
X015190Y025560
X014190Y025560
X012190Y025560
X011190Y025560
X008870Y025560
X007870Y025560
X005500Y025560
X004500Y025560
X002190Y025560
X001190Y025560
T02
X001440Y012440
X001440Y013440
X001440Y015940
X001440Y016940
X008190Y017440
X009170Y017440
X009950Y017440
X010940Y017440
X014440Y016940
X014440Y015940
X014440Y013440
X014440Y012440
X011940Y010690
X010940Y010690
X009940Y010690
X006940Y010690
X005940Y010690
X004940Y010690
X017940Y010690
X018940Y010690
X019940Y010690
X022940Y010690
X023940Y010690
X024940Y010690
X027440Y012440
X027440Y013440
X027440Y015940
X027440Y016940
X023940Y017440
X022950Y017440
X022170Y017440
X021190Y017440
X019940Y027060
X018940Y027060
X017940Y027060
X014440Y028810
X014440Y029810
X014440Y032310
X014440Y033310
X010940Y033810
X009950Y033810
X009170Y033810
X008190Y033810
X001440Y033310
X001440Y032310
X001440Y029810
X001440Y028810
X004940Y027060
X005940Y027060
X006940Y027060
X009940Y027060
X010940Y027060
X011940Y027060
X022940Y027060
X023940Y027060
X024940Y027060
X027440Y028810
X027440Y029810
X027440Y032310
X027440Y033310
X023940Y033810
X022950Y033810
X022170Y033810
X021190Y033810
X030940Y027060
X031940Y027060
X032940Y027060
X035940Y027060
X036940Y027060
X037940Y027060
X036940Y033810
X035950Y033810
X035170Y033810
X034190Y033810
X034190Y017440
X035170Y017440
X035950Y017440
X036940Y017440
X036940Y010690
X037940Y010690
X035940Y010690
X032940Y010690
X031940Y010690
X030940Y010690
T03
X002940Y020690
X004940Y020690
X015940Y020690
X017940Y020690
X028940Y020690
X030940Y020690
X030940Y037060
X028940Y037060
X017940Y037060
X015940Y037060
X004940Y037060
X002940Y037060
T04
X008440Y013810
X021440Y013810
X034440Y013810
X034440Y030190
X021440Y030190
X008440Y030190
T05
X006970Y018500
X012150Y018500
X019970Y018500
X025150Y018500
X032970Y018500
X038150Y018500
X038150Y034870
X032970Y034870
X025150Y034870
X019970Y034870
X012150Y034870
X006970Y034870
M30
