%FSLAX34Y34*%
%MOMM*%
%LNSMDMASK_TOP*%
G71*
G01*
%ADD10R, 1.98X3.35*%
%ADD11R, 1.80X1.50*%
%LPD*%
X139303Y868362D02*
G54D10*
D03*
X87312Y868362D02*
G54D10*
D03*
X33312Y912788D02*
G54D11*
D03*
X33312Y893788D02*
G54D11*
D03*
X33312Y950938D02*
G54D11*
D03*
X33312Y969938D02*
G54D11*
D03*
X33312Y969938D02*
G54D11*
D03*
X469503Y868362D02*
G54D10*
D03*
X417512Y868362D02*
G54D10*
D03*
X363512Y912788D02*
G54D11*
D03*
X363512Y893788D02*
G54D11*
D03*
X363512Y950938D02*
G54D11*
D03*
X363512Y969938D02*
G54D11*
D03*
X363512Y969938D02*
G54D11*
D03*
X799703Y868362D02*
G54D10*
D03*
X747712Y868362D02*
G54D10*
D03*
X693712Y912788D02*
G54D11*
D03*
X693712Y893788D02*
G54D11*
D03*
X693712Y950938D02*
G54D11*
D03*
X693712Y969938D02*
G54D11*
D03*
X693712Y969938D02*
G54D11*
D03*
X139303Y452438D02*
G54D10*
D03*
X87312Y452438D02*
G54D10*
D03*
X33312Y496862D02*
G54D11*
D03*
X33312Y477862D02*
G54D11*
D03*
X33312Y535012D02*
G54D11*
D03*
X33312Y554012D02*
G54D11*
D03*
X33312Y554012D02*
G54D11*
D03*
X469503Y452438D02*
G54D10*
D03*
X417512Y452438D02*
G54D10*
D03*
X363512Y496862D02*
G54D11*
D03*
X363512Y477862D02*
G54D11*
D03*
X363512Y535012D02*
G54D11*
D03*
X363512Y554012D02*
G54D11*
D03*
X363512Y554012D02*
G54D11*
D03*
X799703Y452438D02*
G54D10*
D03*
X747712Y452438D02*
G54D10*
D03*
X693712Y496862D02*
G54D11*
D03*
X693712Y477862D02*
G54D11*
D03*
X693712Y535012D02*
G54D11*
D03*
X693712Y554012D02*
G54D11*
D03*
X693712Y554012D02*
G54D11*
D03*
M02*
