%FSLAX34Y34*%
%MOMM*%
%LNSMDMASK_TOP*%
G71*
G01*
%ADD10R, 0.47X0.47*%
%LPD*%
X312738Y941388D02*
G54D10*
D03*
X309562Y938212D02*
G54D10*
D03*
X306388Y935038D02*
G54D10*
D03*
X303212Y931862D02*
G54D10*
D03*
X312738Y947738D02*
G54D10*
D03*
X309562Y950912D02*
G54D10*
D03*
X306388Y954088D02*
G54D10*
D03*
X303212Y957262D02*
G54D10*
D03*
X300038Y960438D02*
G54D10*
D03*
X300038Y928688D02*
G54D10*
D03*
X296862Y925512D02*
G54D10*
D03*
X293688Y922338D02*
G54D10*
D03*
X290512Y919162D02*
G54D10*
D03*
X284162Y919162D02*
G54D10*
D03*
X280988Y922338D02*
G54D10*
D03*
X277812Y925512D02*
G54D10*
D03*
X274638Y928688D02*
G54D10*
D03*
X271462Y931862D02*
G54D10*
D03*
X268288Y935038D02*
G54D10*
D03*
X265112Y938212D02*
G54D10*
D03*
X261938Y941388D02*
G54D10*
D03*
X258762Y944562D02*
G54D10*
D03*
X296862Y963612D02*
G54D10*
D03*
X293688Y966788D02*
G54D10*
D03*
X290512Y969962D02*
G54D10*
D03*
X287338Y973138D02*
G54D10*
D03*
X271462Y969962D02*
G54D10*
D03*
X261938Y960438D02*
G54D10*
D03*
X258762Y963612D02*
G54D10*
D03*
X268288Y973138D02*
G54D10*
D03*
X268288Y979488D02*
G54D10*
D03*
X265112Y982662D02*
G54D10*
D03*
X261938Y979488D02*
G54D10*
D03*
X258762Y976312D02*
G54D10*
D03*
X255588Y973138D02*
G54D10*
D03*
X252412Y969962D02*
G54D10*
D03*
X249238Y966788D02*
G54D10*
D03*
X252412Y963612D02*
G54D10*
D03*
X303212Y950912D02*
G54D10*
D03*
X300038Y950912D02*
G54D10*
D03*
X296862Y954088D02*
G54D10*
D03*
X293688Y950912D02*
G54D10*
D03*
X290512Y950912D02*
G54D10*
D03*
X287338Y950912D02*
G54D10*
D03*
X284162Y947738D02*
G54D10*
D03*
X280988Y947738D02*
G54D10*
D03*
X277812Y950912D02*
G54D10*
D03*
X274638Y950912D02*
G54D10*
D03*
X271462Y950912D02*
G54D10*
D03*
X268288Y950912D02*
G54D10*
D03*
X265112Y950912D02*
G54D10*
D03*
X261938Y947738D02*
G54D10*
D03*
X246062Y976312D02*
G54D10*
D03*
X246062Y973138D02*
G54D10*
D03*
X246062Y969962D02*
G54D10*
D03*
X242888Y969962D02*
G54D10*
D03*
X242888Y976312D02*
G54D10*
D03*
X239712Y976312D02*
G54D10*
D03*
X239712Y979488D02*
G54D10*
D03*
X239712Y982662D02*
G54D10*
D03*
X236538Y982662D02*
G54D10*
D03*
X233362Y982662D02*
G54D10*
D03*
X233362Y979488D02*
G54D10*
D03*
X233362Y976312D02*
G54D10*
D03*
X230188Y976312D02*
G54D10*
D03*
X227012Y976312D02*
G54D10*
D03*
X227012Y973138D02*
G54D10*
D03*
X227012Y969962D02*
G54D10*
D03*
X230188Y969962D02*
G54D10*
D03*
X233362Y969962D02*
G54D10*
D03*
X239712Y969962D02*
G54D10*
D03*
X239712Y966788D02*
G54D10*
D03*
X239712Y963612D02*
G54D10*
D03*
X236538Y963612D02*
G54D10*
D03*
X233362Y963612D02*
G54D10*
D03*
X233362Y966788D02*
G54D10*
D03*
X284162Y976312D02*
G54D10*
D03*
X277812Y976312D02*
G54D10*
D03*
X274638Y973138D02*
G54D10*
D03*
X258762Y957262D02*
G54D10*
D03*
X255588Y954088D02*
G54D10*
D03*
X255588Y947738D02*
G54D10*
D03*
X258762Y938212D02*
G54D10*
D03*
X255588Y938212D02*
G54D10*
D03*
X252412Y938212D02*
G54D10*
D03*
X249238Y938212D02*
G54D10*
D03*
X246062Y938212D02*
G54D10*
D03*
X252412Y935038D02*
G54D10*
D03*
X252412Y931862D02*
G54D10*
D03*
X252412Y928688D02*
G54D10*
D03*
X252412Y925512D02*
G54D10*
D03*
X252412Y922338D02*
G54D10*
D03*
X255588Y919162D02*
G54D10*
D03*
X258762Y919162D02*
G54D10*
D03*
X261938Y922338D02*
G54D10*
D03*
X242888Y919162D02*
G54D10*
D03*
X239712Y922338D02*
G54D10*
D03*
X239712Y925512D02*
G54D10*
D03*
X239712Y928688D02*
G54D10*
D03*
X239712Y931862D02*
G54D10*
D03*
X236538Y919162D02*
G54D10*
D03*
X233362Y919162D02*
G54D10*
D03*
X230188Y919162D02*
G54D10*
D03*
X230188Y922338D02*
G54D10*
D03*
X230188Y925512D02*
G54D10*
D03*
X230188Y928688D02*
G54D10*
D03*
X230188Y931862D02*
G54D10*
D03*
X223838Y935038D02*
G54D10*
D03*
X223838Y928688D02*
G54D10*
D03*
X223838Y925512D02*
G54D10*
D03*
X223838Y922338D02*
G54D10*
D03*
X223838Y919162D02*
G54D10*
D03*
X217488Y922338D02*
G54D10*
D03*
X217488Y925512D02*
G54D10*
D03*
X217488Y928688D02*
G54D10*
D03*
X214312Y931862D02*
G54D10*
D03*
X211138Y931862D02*
G54D10*
D03*
X214312Y919162D02*
G54D10*
D03*
X211138Y919162D02*
G54D10*
D03*
X207962Y919162D02*
G54D10*
D03*
X207962Y931862D02*
G54D10*
D03*
X201612Y922338D02*
G54D10*
D03*
X201612Y925512D02*
G54D10*
D03*
X201612Y928688D02*
G54D10*
D03*
X198438Y931862D02*
G54D10*
D03*
X195262Y931862D02*
G54D10*
D03*
X192088Y931862D02*
G54D10*
D03*
X198438Y919162D02*
G54D10*
D03*
X195262Y919162D02*
G54D10*
D03*
X192088Y919162D02*
G54D10*
D03*
X188912Y928688D02*
G54D10*
D03*
X188912Y925512D02*
G54D10*
D03*
X192088Y925512D02*
G54D10*
D03*
X195262Y925512D02*
G54D10*
D03*
X198438Y925512D02*
G54D10*
D03*
X290512Y938212D02*
G54D10*
D03*
X287338Y935038D02*
G54D10*
D03*
X284162Y938212D02*
G54D10*
D03*
X287338Y941388D02*
G54D10*
D03*
X277812Y935038D02*
G54D10*
D03*
X300038Y944562D02*
G54D10*
D03*
X271462Y944562D02*
G54D10*
D03*
X287338Y925512D02*
G54D10*
D03*
X303212Y941388D02*
G54D10*
D03*
X242888Y957262D02*
G54D10*
D03*
X239712Y957262D02*
G54D10*
D03*
X236538Y957262D02*
G54D10*
D03*
X233362Y957262D02*
G54D10*
D03*
X230188Y957262D02*
G54D10*
D03*
X230188Y954088D02*
G54D10*
D03*
X230188Y950912D02*
G54D10*
D03*
X233362Y947738D02*
G54D10*
D03*
X236538Y944562D02*
G54D10*
D03*
X239712Y941388D02*
G54D10*
D03*
X227012Y963612D02*
G54D10*
D03*
X227012Y960438D02*
G54D10*
D03*
X223838Y960438D02*
G54D10*
D03*
X223838Y963612D02*
G54D10*
D03*
X220662Y957262D02*
G54D10*
D03*
X217488Y957262D02*
G54D10*
D03*
X214312Y957262D02*
G54D10*
D03*
X211138Y957262D02*
G54D10*
D03*
X207962Y957262D02*
G54D10*
D03*
X220662Y950912D02*
G54D10*
D03*
X217488Y950912D02*
G54D10*
D03*
X214312Y950912D02*
G54D10*
D03*
X211138Y950912D02*
G54D10*
D03*
X207962Y950912D02*
G54D10*
D03*
X207962Y947738D02*
G54D10*
D03*
X211138Y944562D02*
G54D10*
D03*
X214312Y941388D02*
G54D10*
D03*
X220662Y941388D02*
G54D10*
D03*
X217488Y941388D02*
G54D10*
D03*
X201612Y957262D02*
G54D10*
D03*
X198438Y957262D02*
G54D10*
D03*
X195262Y957262D02*
G54D10*
D03*
X192088Y957262D02*
G54D10*
D03*
X188912Y957262D02*
G54D10*
D03*
X188912Y954088D02*
G54D10*
D03*
X192088Y950912D02*
G54D10*
D03*
X195262Y947738D02*
G54D10*
D03*
X198438Y944562D02*
G54D10*
D03*
X201612Y941388D02*
G54D10*
D03*
X192088Y944562D02*
G54D10*
D03*
X188912Y941388D02*
G54D10*
D03*
X280988Y969962D02*
G54D10*
D03*
X284162Y966788D02*
G54D10*
D03*
X287338Y919162D02*
G54D10*
D03*
X312738Y944562D02*
G54D10*
D03*
X642938Y941388D02*
G54D10*
D03*
X639762Y938212D02*
G54D10*
D03*
X636588Y935038D02*
G54D10*
D03*
X633412Y931862D02*
G54D10*
D03*
X642938Y947738D02*
G54D10*
D03*
X639762Y950912D02*
G54D10*
D03*
X636588Y954088D02*
G54D10*
D03*
X633412Y957262D02*
G54D10*
D03*
X630238Y960438D02*
G54D10*
D03*
X630238Y928688D02*
G54D10*
D03*
X627062Y925512D02*
G54D10*
D03*
X623888Y922338D02*
G54D10*
D03*
X620712Y919162D02*
G54D10*
D03*
X614362Y919162D02*
G54D10*
D03*
X611188Y922338D02*
G54D10*
D03*
X608012Y925512D02*
G54D10*
D03*
X604838Y928688D02*
G54D10*
D03*
X601662Y931862D02*
G54D10*
D03*
X598488Y935038D02*
G54D10*
D03*
X595312Y938212D02*
G54D10*
D03*
X592138Y941388D02*
G54D10*
D03*
X588962Y944562D02*
G54D10*
D03*
X627062Y963612D02*
G54D10*
D03*
X623888Y966788D02*
G54D10*
D03*
X620712Y969962D02*
G54D10*
D03*
X617538Y973138D02*
G54D10*
D03*
X601662Y969962D02*
G54D10*
D03*
X592138Y960438D02*
G54D10*
D03*
X588962Y963612D02*
G54D10*
D03*
X598488Y973138D02*
G54D10*
D03*
X598488Y979488D02*
G54D10*
D03*
X595312Y982662D02*
G54D10*
D03*
X592138Y979488D02*
G54D10*
D03*
X588962Y976312D02*
G54D10*
D03*
X585788Y973138D02*
G54D10*
D03*
X582612Y969962D02*
G54D10*
D03*
X579438Y966788D02*
G54D10*
D03*
X582612Y963612D02*
G54D10*
D03*
X633412Y950912D02*
G54D10*
D03*
X630238Y950912D02*
G54D10*
D03*
X627062Y954088D02*
G54D10*
D03*
X623888Y950912D02*
G54D10*
D03*
X620712Y950912D02*
G54D10*
D03*
X617538Y950912D02*
G54D10*
D03*
X614362Y947738D02*
G54D10*
D03*
X611188Y947738D02*
G54D10*
D03*
X608012Y950912D02*
G54D10*
D03*
X604838Y950912D02*
G54D10*
D03*
X601662Y950912D02*
G54D10*
D03*
X598488Y950912D02*
G54D10*
D03*
X595312Y950912D02*
G54D10*
D03*
X592138Y947738D02*
G54D10*
D03*
X576262Y976312D02*
G54D10*
D03*
X576262Y973138D02*
G54D10*
D03*
X576262Y969962D02*
G54D10*
D03*
X573088Y969962D02*
G54D10*
D03*
X573088Y976312D02*
G54D10*
D03*
X569912Y976312D02*
G54D10*
D03*
X569912Y979488D02*
G54D10*
D03*
X569912Y982662D02*
G54D10*
D03*
X566738Y982662D02*
G54D10*
D03*
X563562Y982662D02*
G54D10*
D03*
X563562Y979488D02*
G54D10*
D03*
X563562Y976312D02*
G54D10*
D03*
X560388Y976312D02*
G54D10*
D03*
X557212Y976312D02*
G54D10*
D03*
X557212Y973138D02*
G54D10*
D03*
X557212Y969962D02*
G54D10*
D03*
X560388Y969962D02*
G54D10*
D03*
X563562Y969962D02*
G54D10*
D03*
X569912Y969962D02*
G54D10*
D03*
X569912Y966788D02*
G54D10*
D03*
X569912Y963612D02*
G54D10*
D03*
X566738Y963612D02*
G54D10*
D03*
X563562Y963612D02*
G54D10*
D03*
X563562Y966788D02*
G54D10*
D03*
X614362Y976312D02*
G54D10*
D03*
X608012Y976312D02*
G54D10*
D03*
X604838Y973138D02*
G54D10*
D03*
X588962Y957262D02*
G54D10*
D03*
X585788Y954088D02*
G54D10*
D03*
X585788Y947738D02*
G54D10*
D03*
X588962Y938212D02*
G54D10*
D03*
X585788Y938212D02*
G54D10*
D03*
X582612Y938212D02*
G54D10*
D03*
X579438Y938212D02*
G54D10*
D03*
X576262Y938212D02*
G54D10*
D03*
X582612Y935038D02*
G54D10*
D03*
X582612Y931862D02*
G54D10*
D03*
X582612Y928688D02*
G54D10*
D03*
X582612Y925512D02*
G54D10*
D03*
X582612Y922338D02*
G54D10*
D03*
X585788Y919162D02*
G54D10*
D03*
X588962Y919162D02*
G54D10*
D03*
X592138Y922338D02*
G54D10*
D03*
X573088Y919162D02*
G54D10*
D03*
X569912Y922338D02*
G54D10*
D03*
X569912Y925512D02*
G54D10*
D03*
X569912Y928688D02*
G54D10*
D03*
X569912Y931862D02*
G54D10*
D03*
X566738Y919162D02*
G54D10*
D03*
X563562Y919162D02*
G54D10*
D03*
X560388Y919162D02*
G54D10*
D03*
X560388Y922338D02*
G54D10*
D03*
X560388Y925512D02*
G54D10*
D03*
X560388Y928688D02*
G54D10*
D03*
X560388Y931862D02*
G54D10*
D03*
X554038Y935038D02*
G54D10*
D03*
X554038Y928688D02*
G54D10*
D03*
X554038Y925512D02*
G54D10*
D03*
X554038Y922338D02*
G54D10*
D03*
X554038Y919162D02*
G54D10*
D03*
X547688Y922338D02*
G54D10*
D03*
X547688Y925512D02*
G54D10*
D03*
X547688Y928688D02*
G54D10*
D03*
X544512Y931862D02*
G54D10*
D03*
X541338Y931862D02*
G54D10*
D03*
X544512Y919162D02*
G54D10*
D03*
X541338Y919162D02*
G54D10*
D03*
X538162Y919162D02*
G54D10*
D03*
X538162Y931862D02*
G54D10*
D03*
X531812Y922338D02*
G54D10*
D03*
X531812Y925512D02*
G54D10*
D03*
X531812Y928688D02*
G54D10*
D03*
X528638Y931862D02*
G54D10*
D03*
X525462Y931862D02*
G54D10*
D03*
X522288Y931862D02*
G54D10*
D03*
X528638Y919162D02*
G54D10*
D03*
X525462Y919162D02*
G54D10*
D03*
X522288Y919162D02*
G54D10*
D03*
X519112Y928688D02*
G54D10*
D03*
X519112Y925512D02*
G54D10*
D03*
X522288Y925512D02*
G54D10*
D03*
X525462Y925512D02*
G54D10*
D03*
X528638Y925512D02*
G54D10*
D03*
X620712Y938212D02*
G54D10*
D03*
X617538Y935038D02*
G54D10*
D03*
X614362Y938212D02*
G54D10*
D03*
X617538Y941388D02*
G54D10*
D03*
X608012Y935038D02*
G54D10*
D03*
X630238Y944562D02*
G54D10*
D03*
X601662Y944562D02*
G54D10*
D03*
X617538Y925512D02*
G54D10*
D03*
X633412Y941388D02*
G54D10*
D03*
X573088Y957262D02*
G54D10*
D03*
X569912Y957262D02*
G54D10*
D03*
X566738Y957262D02*
G54D10*
D03*
X563562Y957262D02*
G54D10*
D03*
X560388Y957262D02*
G54D10*
D03*
X560388Y954088D02*
G54D10*
D03*
X560388Y950912D02*
G54D10*
D03*
X563562Y947738D02*
G54D10*
D03*
X566738Y944562D02*
G54D10*
D03*
X569912Y941388D02*
G54D10*
D03*
X557212Y963612D02*
G54D10*
D03*
X557212Y960438D02*
G54D10*
D03*
X554038Y960438D02*
G54D10*
D03*
X554038Y963612D02*
G54D10*
D03*
X550862Y957262D02*
G54D10*
D03*
X547688Y957262D02*
G54D10*
D03*
X544512Y957262D02*
G54D10*
D03*
X541338Y957262D02*
G54D10*
D03*
X538162Y957262D02*
G54D10*
D03*
X550862Y950912D02*
G54D10*
D03*
X547688Y950912D02*
G54D10*
D03*
X544512Y950912D02*
G54D10*
D03*
X541338Y950912D02*
G54D10*
D03*
X538162Y950912D02*
G54D10*
D03*
X538162Y947738D02*
G54D10*
D03*
X541338Y944562D02*
G54D10*
D03*
X544512Y941388D02*
G54D10*
D03*
X550862Y941388D02*
G54D10*
D03*
X547688Y941388D02*
G54D10*
D03*
X531812Y957262D02*
G54D10*
D03*
X528638Y957262D02*
G54D10*
D03*
X525462Y957262D02*
G54D10*
D03*
X522288Y957262D02*
G54D10*
D03*
X519112Y957262D02*
G54D10*
D03*
X519112Y954088D02*
G54D10*
D03*
X522288Y950912D02*
G54D10*
D03*
X525462Y947738D02*
G54D10*
D03*
X528638Y944562D02*
G54D10*
D03*
X531812Y941388D02*
G54D10*
D03*
X522288Y944562D02*
G54D10*
D03*
X519112Y941388D02*
G54D10*
D03*
X611188Y969962D02*
G54D10*
D03*
X614362Y966788D02*
G54D10*
D03*
X617538Y919162D02*
G54D10*
D03*
X642938Y944562D02*
G54D10*
D03*
X973138Y941388D02*
G54D10*
D03*
X969962Y938212D02*
G54D10*
D03*
X966788Y935038D02*
G54D10*
D03*
X963612Y931862D02*
G54D10*
D03*
X973138Y947738D02*
G54D10*
D03*
X969962Y950912D02*
G54D10*
D03*
X966788Y954088D02*
G54D10*
D03*
X963612Y957262D02*
G54D10*
D03*
X960438Y960438D02*
G54D10*
D03*
X960438Y928688D02*
G54D10*
D03*
X957262Y925512D02*
G54D10*
D03*
X954088Y922338D02*
G54D10*
D03*
X950912Y919162D02*
G54D10*
D03*
X944562Y919162D02*
G54D10*
D03*
X941388Y922338D02*
G54D10*
D03*
X938212Y925512D02*
G54D10*
D03*
X935038Y928688D02*
G54D10*
D03*
X931862Y931862D02*
G54D10*
D03*
X928688Y935038D02*
G54D10*
D03*
X925512Y938212D02*
G54D10*
D03*
X922338Y941388D02*
G54D10*
D03*
X919162Y944562D02*
G54D10*
D03*
X957262Y963612D02*
G54D10*
D03*
X954088Y966788D02*
G54D10*
D03*
X950912Y969962D02*
G54D10*
D03*
X947738Y973138D02*
G54D10*
D03*
X931862Y969962D02*
G54D10*
D03*
X922338Y960438D02*
G54D10*
D03*
X919162Y963612D02*
G54D10*
D03*
X928688Y973138D02*
G54D10*
D03*
X928688Y979488D02*
G54D10*
D03*
X925512Y982662D02*
G54D10*
D03*
X922338Y979488D02*
G54D10*
D03*
X919162Y976312D02*
G54D10*
D03*
X915988Y973138D02*
G54D10*
D03*
X912812Y969962D02*
G54D10*
D03*
X909638Y966788D02*
G54D10*
D03*
X912812Y963612D02*
G54D10*
D03*
X963612Y950912D02*
G54D10*
D03*
X960438Y950912D02*
G54D10*
D03*
X957262Y954088D02*
G54D10*
D03*
X954088Y950912D02*
G54D10*
D03*
X950912Y950912D02*
G54D10*
D03*
X947738Y950912D02*
G54D10*
D03*
X944562Y947738D02*
G54D10*
D03*
X941388Y947738D02*
G54D10*
D03*
X938212Y950912D02*
G54D10*
D03*
X935038Y950912D02*
G54D10*
D03*
X931862Y950912D02*
G54D10*
D03*
X928688Y950912D02*
G54D10*
D03*
X925512Y950912D02*
G54D10*
D03*
X922338Y947738D02*
G54D10*
D03*
X906462Y976312D02*
G54D10*
D03*
X906462Y973138D02*
G54D10*
D03*
X906462Y969962D02*
G54D10*
D03*
X903288Y969962D02*
G54D10*
D03*
X903288Y976312D02*
G54D10*
D03*
X900112Y976312D02*
G54D10*
D03*
X900112Y979488D02*
G54D10*
D03*
X900112Y982662D02*
G54D10*
D03*
X896938Y982662D02*
G54D10*
D03*
X893762Y982662D02*
G54D10*
D03*
X893762Y979488D02*
G54D10*
D03*
X893762Y976312D02*
G54D10*
D03*
X890588Y976312D02*
G54D10*
D03*
X887412Y976312D02*
G54D10*
D03*
X887412Y973138D02*
G54D10*
D03*
X887412Y969962D02*
G54D10*
D03*
X890588Y969962D02*
G54D10*
D03*
X893762Y969962D02*
G54D10*
D03*
X900112Y969962D02*
G54D10*
D03*
X900112Y966788D02*
G54D10*
D03*
X900112Y963612D02*
G54D10*
D03*
X896938Y963612D02*
G54D10*
D03*
X893762Y963612D02*
G54D10*
D03*
X893762Y966788D02*
G54D10*
D03*
X944562Y976312D02*
G54D10*
D03*
X938212Y976312D02*
G54D10*
D03*
X935038Y973138D02*
G54D10*
D03*
X919162Y957262D02*
G54D10*
D03*
X915988Y954088D02*
G54D10*
D03*
X915988Y947738D02*
G54D10*
D03*
X919162Y938212D02*
G54D10*
D03*
X915988Y938212D02*
G54D10*
D03*
X912812Y938212D02*
G54D10*
D03*
X909638Y938212D02*
G54D10*
D03*
X906462Y938212D02*
G54D10*
D03*
X912812Y935038D02*
G54D10*
D03*
X912812Y931862D02*
G54D10*
D03*
X912812Y928688D02*
G54D10*
D03*
X912812Y925512D02*
G54D10*
D03*
X912812Y922338D02*
G54D10*
D03*
X915988Y919162D02*
G54D10*
D03*
X919162Y919162D02*
G54D10*
D03*
X922338Y922338D02*
G54D10*
D03*
X903288Y919162D02*
G54D10*
D03*
X900112Y922338D02*
G54D10*
D03*
X900112Y925512D02*
G54D10*
D03*
X900112Y928688D02*
G54D10*
D03*
X900112Y931862D02*
G54D10*
D03*
X896938Y919162D02*
G54D10*
D03*
X893762Y919162D02*
G54D10*
D03*
X890588Y919162D02*
G54D10*
D03*
X890588Y922338D02*
G54D10*
D03*
X890588Y925512D02*
G54D10*
D03*
X890588Y928688D02*
G54D10*
D03*
X890588Y931862D02*
G54D10*
D03*
X884238Y935038D02*
G54D10*
D03*
X884238Y928688D02*
G54D10*
D03*
X884238Y925512D02*
G54D10*
D03*
X884238Y922338D02*
G54D10*
D03*
X884238Y919162D02*
G54D10*
D03*
X877888Y922338D02*
G54D10*
D03*
X877888Y925512D02*
G54D10*
D03*
X877888Y928688D02*
G54D10*
D03*
X874712Y931862D02*
G54D10*
D03*
X871538Y931862D02*
G54D10*
D03*
X874712Y919162D02*
G54D10*
D03*
X871538Y919162D02*
G54D10*
D03*
X868362Y919162D02*
G54D10*
D03*
X868362Y931862D02*
G54D10*
D03*
X862012Y922338D02*
G54D10*
D03*
X862012Y925512D02*
G54D10*
D03*
X862012Y928688D02*
G54D10*
D03*
X858838Y931862D02*
G54D10*
D03*
X855662Y931862D02*
G54D10*
D03*
X852488Y931862D02*
G54D10*
D03*
X858838Y919162D02*
G54D10*
D03*
X855662Y919162D02*
G54D10*
D03*
X852488Y919162D02*
G54D10*
D03*
X849312Y928688D02*
G54D10*
D03*
X849312Y925512D02*
G54D10*
D03*
X852488Y925512D02*
G54D10*
D03*
X855662Y925512D02*
G54D10*
D03*
X858838Y925512D02*
G54D10*
D03*
X950912Y938212D02*
G54D10*
D03*
X947738Y935038D02*
G54D10*
D03*
X944562Y938212D02*
G54D10*
D03*
X947738Y941388D02*
G54D10*
D03*
X938212Y935038D02*
G54D10*
D03*
X960438Y944562D02*
G54D10*
D03*
X931862Y944562D02*
G54D10*
D03*
X947738Y925512D02*
G54D10*
D03*
X963612Y941388D02*
G54D10*
D03*
X903288Y957262D02*
G54D10*
D03*
X900112Y957262D02*
G54D10*
D03*
X896938Y957262D02*
G54D10*
D03*
X893762Y957262D02*
G54D10*
D03*
X890588Y957262D02*
G54D10*
D03*
X890588Y954088D02*
G54D10*
D03*
X890588Y950912D02*
G54D10*
D03*
X893762Y947738D02*
G54D10*
D03*
X896938Y944562D02*
G54D10*
D03*
X900112Y941388D02*
G54D10*
D03*
X887412Y963612D02*
G54D10*
D03*
X887412Y960438D02*
G54D10*
D03*
X884238Y960438D02*
G54D10*
D03*
X884238Y963612D02*
G54D10*
D03*
X881062Y957262D02*
G54D10*
D03*
X877888Y957262D02*
G54D10*
D03*
X874712Y957262D02*
G54D10*
D03*
X871538Y957262D02*
G54D10*
D03*
X868362Y957262D02*
G54D10*
D03*
X881062Y950912D02*
G54D10*
D03*
X877888Y950912D02*
G54D10*
D03*
X874712Y950912D02*
G54D10*
D03*
X871538Y950912D02*
G54D10*
D03*
X868362Y950912D02*
G54D10*
D03*
X868362Y947738D02*
G54D10*
D03*
X871538Y944562D02*
G54D10*
D03*
X874712Y941388D02*
G54D10*
D03*
X881062Y941388D02*
G54D10*
D03*
X877888Y941388D02*
G54D10*
D03*
X862012Y957262D02*
G54D10*
D03*
X858838Y957262D02*
G54D10*
D03*
X855662Y957262D02*
G54D10*
D03*
X852488Y957262D02*
G54D10*
D03*
X849312Y957262D02*
G54D10*
D03*
X849312Y954088D02*
G54D10*
D03*
X852488Y950912D02*
G54D10*
D03*
X855662Y947738D02*
G54D10*
D03*
X858838Y944562D02*
G54D10*
D03*
X862012Y941388D02*
G54D10*
D03*
X852488Y944562D02*
G54D10*
D03*
X849312Y941388D02*
G54D10*
D03*
X941388Y969962D02*
G54D10*
D03*
X944562Y966788D02*
G54D10*
D03*
X947738Y919162D02*
G54D10*
D03*
X973138Y944562D02*
G54D10*
D03*
X312738Y525462D02*
G54D10*
D03*
X309562Y522288D02*
G54D10*
D03*
X306388Y519112D02*
G54D10*
D03*
X303212Y515938D02*
G54D10*
D03*
X312738Y531812D02*
G54D10*
D03*
X309562Y534988D02*
G54D10*
D03*
X306388Y538162D02*
G54D10*
D03*
X303212Y541338D02*
G54D10*
D03*
X300038Y544512D02*
G54D10*
D03*
X300038Y512762D02*
G54D10*
D03*
X296862Y509588D02*
G54D10*
D03*
X293688Y506412D02*
G54D10*
D03*
X290512Y503238D02*
G54D10*
D03*
X284162Y503238D02*
G54D10*
D03*
X280988Y506412D02*
G54D10*
D03*
X277812Y509588D02*
G54D10*
D03*
X274638Y512762D02*
G54D10*
D03*
X271462Y515938D02*
G54D10*
D03*
X268288Y519112D02*
G54D10*
D03*
X265112Y522288D02*
G54D10*
D03*
X261938Y525462D02*
G54D10*
D03*
X258762Y528638D02*
G54D10*
D03*
X296862Y547688D02*
G54D10*
D03*
X293688Y550862D02*
G54D10*
D03*
X290512Y554038D02*
G54D10*
D03*
X287338Y557212D02*
G54D10*
D03*
X271462Y554038D02*
G54D10*
D03*
X261938Y544512D02*
G54D10*
D03*
X258762Y547688D02*
G54D10*
D03*
X268288Y557212D02*
G54D10*
D03*
X268288Y563562D02*
G54D10*
D03*
X265112Y566738D02*
G54D10*
D03*
X261938Y563562D02*
G54D10*
D03*
X258762Y560388D02*
G54D10*
D03*
X255588Y557212D02*
G54D10*
D03*
X252412Y554038D02*
G54D10*
D03*
X249238Y550862D02*
G54D10*
D03*
X252412Y547688D02*
G54D10*
D03*
X303212Y534988D02*
G54D10*
D03*
X300038Y534988D02*
G54D10*
D03*
X296862Y538162D02*
G54D10*
D03*
X293688Y534988D02*
G54D10*
D03*
X290512Y534988D02*
G54D10*
D03*
X287338Y534988D02*
G54D10*
D03*
X284162Y531812D02*
G54D10*
D03*
X280988Y531812D02*
G54D10*
D03*
X277812Y534988D02*
G54D10*
D03*
X274638Y534988D02*
G54D10*
D03*
X271462Y534988D02*
G54D10*
D03*
X268288Y534988D02*
G54D10*
D03*
X265112Y534988D02*
G54D10*
D03*
X261938Y531812D02*
G54D10*
D03*
X246062Y560388D02*
G54D10*
D03*
X246062Y557212D02*
G54D10*
D03*
X246062Y554038D02*
G54D10*
D03*
X242888Y554038D02*
G54D10*
D03*
X242888Y560388D02*
G54D10*
D03*
X239712Y560388D02*
G54D10*
D03*
X239712Y563562D02*
G54D10*
D03*
X239712Y566738D02*
G54D10*
D03*
X236538Y566738D02*
G54D10*
D03*
X233362Y566738D02*
G54D10*
D03*
X233362Y563562D02*
G54D10*
D03*
X233362Y560388D02*
G54D10*
D03*
X230188Y560388D02*
G54D10*
D03*
X227012Y560388D02*
G54D10*
D03*
X227012Y557212D02*
G54D10*
D03*
X227012Y554038D02*
G54D10*
D03*
X230188Y554038D02*
G54D10*
D03*
X233362Y554038D02*
G54D10*
D03*
X239712Y554038D02*
G54D10*
D03*
X239712Y550862D02*
G54D10*
D03*
X239712Y547688D02*
G54D10*
D03*
X236538Y547688D02*
G54D10*
D03*
X233362Y547688D02*
G54D10*
D03*
X233362Y550862D02*
G54D10*
D03*
X284162Y560388D02*
G54D10*
D03*
X277812Y560388D02*
G54D10*
D03*
X274638Y557212D02*
G54D10*
D03*
X258762Y541338D02*
G54D10*
D03*
X255588Y538162D02*
G54D10*
D03*
X255588Y531812D02*
G54D10*
D03*
X258762Y522288D02*
G54D10*
D03*
X255588Y522288D02*
G54D10*
D03*
X252412Y522288D02*
G54D10*
D03*
X249238Y522288D02*
G54D10*
D03*
X246062Y522288D02*
G54D10*
D03*
X252412Y519112D02*
G54D10*
D03*
X252412Y515938D02*
G54D10*
D03*
X252412Y512762D02*
G54D10*
D03*
X252412Y509588D02*
G54D10*
D03*
X252412Y506412D02*
G54D10*
D03*
X255588Y503238D02*
G54D10*
D03*
X258762Y503238D02*
G54D10*
D03*
X261938Y506412D02*
G54D10*
D03*
X242888Y503238D02*
G54D10*
D03*
X239712Y506412D02*
G54D10*
D03*
X239712Y509588D02*
G54D10*
D03*
X239712Y512762D02*
G54D10*
D03*
X239712Y515938D02*
G54D10*
D03*
X236538Y503238D02*
G54D10*
D03*
X233362Y503238D02*
G54D10*
D03*
X230188Y503238D02*
G54D10*
D03*
X230188Y506412D02*
G54D10*
D03*
X230188Y509588D02*
G54D10*
D03*
X230188Y512762D02*
G54D10*
D03*
X230188Y515938D02*
G54D10*
D03*
X223838Y519112D02*
G54D10*
D03*
X223838Y512762D02*
G54D10*
D03*
X223838Y509588D02*
G54D10*
D03*
X223838Y506412D02*
G54D10*
D03*
X223838Y503238D02*
G54D10*
D03*
X217488Y506412D02*
G54D10*
D03*
X217488Y509588D02*
G54D10*
D03*
X217488Y512762D02*
G54D10*
D03*
X214312Y515938D02*
G54D10*
D03*
X211138Y515938D02*
G54D10*
D03*
X214312Y503238D02*
G54D10*
D03*
X211138Y503238D02*
G54D10*
D03*
X207962Y503238D02*
G54D10*
D03*
X207962Y515938D02*
G54D10*
D03*
X201612Y506412D02*
G54D10*
D03*
X201612Y509588D02*
G54D10*
D03*
X201612Y512762D02*
G54D10*
D03*
X198438Y515938D02*
G54D10*
D03*
X195262Y515938D02*
G54D10*
D03*
X192088Y515938D02*
G54D10*
D03*
X198438Y503238D02*
G54D10*
D03*
X195262Y503238D02*
G54D10*
D03*
X192088Y503238D02*
G54D10*
D03*
X188912Y512762D02*
G54D10*
D03*
X188912Y509588D02*
G54D10*
D03*
X192088Y509588D02*
G54D10*
D03*
X195262Y509588D02*
G54D10*
D03*
X198438Y509588D02*
G54D10*
D03*
X290512Y522288D02*
G54D10*
D03*
X287338Y519112D02*
G54D10*
D03*
X284162Y522288D02*
G54D10*
D03*
X287338Y525462D02*
G54D10*
D03*
X277812Y519112D02*
G54D10*
D03*
X300038Y528638D02*
G54D10*
D03*
X271462Y528638D02*
G54D10*
D03*
X287338Y509588D02*
G54D10*
D03*
X303212Y525462D02*
G54D10*
D03*
X242888Y541338D02*
G54D10*
D03*
X239712Y541338D02*
G54D10*
D03*
X236538Y541338D02*
G54D10*
D03*
X233362Y541338D02*
G54D10*
D03*
X230188Y541338D02*
G54D10*
D03*
X230188Y538162D02*
G54D10*
D03*
X230188Y534988D02*
G54D10*
D03*
X233362Y531812D02*
G54D10*
D03*
X236538Y528638D02*
G54D10*
D03*
X239712Y525462D02*
G54D10*
D03*
X227012Y547688D02*
G54D10*
D03*
X227012Y544512D02*
G54D10*
D03*
X223838Y544512D02*
G54D10*
D03*
X223838Y547688D02*
G54D10*
D03*
X220662Y541338D02*
G54D10*
D03*
X217488Y541338D02*
G54D10*
D03*
X214312Y541338D02*
G54D10*
D03*
X211138Y541338D02*
G54D10*
D03*
X207962Y541338D02*
G54D10*
D03*
X220662Y534988D02*
G54D10*
D03*
X217488Y534988D02*
G54D10*
D03*
X214312Y534988D02*
G54D10*
D03*
X211138Y534988D02*
G54D10*
D03*
X207962Y534988D02*
G54D10*
D03*
X207962Y531812D02*
G54D10*
D03*
X211138Y528638D02*
G54D10*
D03*
X214312Y525462D02*
G54D10*
D03*
X220662Y525462D02*
G54D10*
D03*
X217488Y525462D02*
G54D10*
D03*
X201612Y541338D02*
G54D10*
D03*
X198438Y541338D02*
G54D10*
D03*
X195262Y541338D02*
G54D10*
D03*
X192088Y541338D02*
G54D10*
D03*
X188912Y541338D02*
G54D10*
D03*
X188912Y538162D02*
G54D10*
D03*
X192088Y534988D02*
G54D10*
D03*
X195262Y531812D02*
G54D10*
D03*
X198438Y528638D02*
G54D10*
D03*
X201612Y525462D02*
G54D10*
D03*
X192088Y528638D02*
G54D10*
D03*
X188912Y525462D02*
G54D10*
D03*
X280988Y554038D02*
G54D10*
D03*
X284162Y550862D02*
G54D10*
D03*
X287338Y503238D02*
G54D10*
D03*
X312738Y528638D02*
G54D10*
D03*
X642938Y525462D02*
G54D10*
D03*
X639762Y522288D02*
G54D10*
D03*
X636588Y519112D02*
G54D10*
D03*
X633412Y515938D02*
G54D10*
D03*
X642938Y531812D02*
G54D10*
D03*
X639762Y534988D02*
G54D10*
D03*
X636588Y538162D02*
G54D10*
D03*
X633412Y541338D02*
G54D10*
D03*
X630238Y544512D02*
G54D10*
D03*
X630238Y512762D02*
G54D10*
D03*
X627062Y509588D02*
G54D10*
D03*
X623888Y506412D02*
G54D10*
D03*
X620712Y503238D02*
G54D10*
D03*
X614362Y503238D02*
G54D10*
D03*
X611188Y506412D02*
G54D10*
D03*
X608012Y509588D02*
G54D10*
D03*
X604838Y512762D02*
G54D10*
D03*
X601662Y515938D02*
G54D10*
D03*
X598488Y519112D02*
G54D10*
D03*
X595312Y522288D02*
G54D10*
D03*
X592138Y525462D02*
G54D10*
D03*
X588962Y528638D02*
G54D10*
D03*
X627062Y547688D02*
G54D10*
D03*
X623888Y550862D02*
G54D10*
D03*
X620712Y554038D02*
G54D10*
D03*
X617538Y557212D02*
G54D10*
D03*
X601662Y554038D02*
G54D10*
D03*
X592138Y544512D02*
G54D10*
D03*
X588962Y547688D02*
G54D10*
D03*
X598488Y557212D02*
G54D10*
D03*
X598488Y563562D02*
G54D10*
D03*
X595312Y566738D02*
G54D10*
D03*
X592138Y563562D02*
G54D10*
D03*
X588962Y560388D02*
G54D10*
D03*
X585788Y557212D02*
G54D10*
D03*
X582612Y554038D02*
G54D10*
D03*
X579438Y550862D02*
G54D10*
D03*
X582612Y547688D02*
G54D10*
D03*
X633412Y534988D02*
G54D10*
D03*
X630238Y534988D02*
G54D10*
D03*
X627062Y538162D02*
G54D10*
D03*
X623888Y534988D02*
G54D10*
D03*
X620712Y534988D02*
G54D10*
D03*
X617538Y534988D02*
G54D10*
D03*
X614362Y531812D02*
G54D10*
D03*
X611188Y531812D02*
G54D10*
D03*
X608012Y534988D02*
G54D10*
D03*
X604838Y534988D02*
G54D10*
D03*
X601662Y534988D02*
G54D10*
D03*
X598488Y534988D02*
G54D10*
D03*
X595312Y534988D02*
G54D10*
D03*
X592138Y531812D02*
G54D10*
D03*
X576262Y560388D02*
G54D10*
D03*
X576262Y557212D02*
G54D10*
D03*
X576262Y554038D02*
G54D10*
D03*
X573088Y554038D02*
G54D10*
D03*
X573088Y560388D02*
G54D10*
D03*
X569912Y560388D02*
G54D10*
D03*
X569912Y563562D02*
G54D10*
D03*
X569912Y566738D02*
G54D10*
D03*
X566738Y566738D02*
G54D10*
D03*
X563562Y566738D02*
G54D10*
D03*
X563562Y563562D02*
G54D10*
D03*
X563562Y560388D02*
G54D10*
D03*
X560388Y560388D02*
G54D10*
D03*
X557212Y560388D02*
G54D10*
D03*
X557212Y557212D02*
G54D10*
D03*
X557212Y554038D02*
G54D10*
D03*
X560388Y554038D02*
G54D10*
D03*
X563562Y554038D02*
G54D10*
D03*
X569912Y554038D02*
G54D10*
D03*
X569912Y550862D02*
G54D10*
D03*
X569912Y547688D02*
G54D10*
D03*
X566738Y547688D02*
G54D10*
D03*
X563562Y547688D02*
G54D10*
D03*
X563562Y550862D02*
G54D10*
D03*
X614362Y560388D02*
G54D10*
D03*
X608012Y560388D02*
G54D10*
D03*
X604838Y557212D02*
G54D10*
D03*
X588962Y541338D02*
G54D10*
D03*
X585788Y538162D02*
G54D10*
D03*
X585788Y531812D02*
G54D10*
D03*
X588962Y522288D02*
G54D10*
D03*
X585788Y522288D02*
G54D10*
D03*
X582612Y522288D02*
G54D10*
D03*
X579438Y522288D02*
G54D10*
D03*
X576262Y522288D02*
G54D10*
D03*
X582612Y519112D02*
G54D10*
D03*
X582612Y515938D02*
G54D10*
D03*
X582612Y512762D02*
G54D10*
D03*
X582612Y509588D02*
G54D10*
D03*
X582612Y506412D02*
G54D10*
D03*
X585788Y503238D02*
G54D10*
D03*
X588962Y503238D02*
G54D10*
D03*
X592138Y506412D02*
G54D10*
D03*
X573088Y503238D02*
G54D10*
D03*
X569912Y506412D02*
G54D10*
D03*
X569912Y509588D02*
G54D10*
D03*
X569912Y512762D02*
G54D10*
D03*
X569912Y515938D02*
G54D10*
D03*
X566738Y503238D02*
G54D10*
D03*
X563562Y503238D02*
G54D10*
D03*
X560388Y503238D02*
G54D10*
D03*
X560388Y506412D02*
G54D10*
D03*
X560388Y509588D02*
G54D10*
D03*
X560388Y512762D02*
G54D10*
D03*
X560388Y515938D02*
G54D10*
D03*
X554038Y519112D02*
G54D10*
D03*
X554038Y512762D02*
G54D10*
D03*
X554038Y509588D02*
G54D10*
D03*
X554038Y506412D02*
G54D10*
D03*
X554038Y503238D02*
G54D10*
D03*
X547688Y506412D02*
G54D10*
D03*
X547688Y509588D02*
G54D10*
D03*
X547688Y512762D02*
G54D10*
D03*
X544512Y515938D02*
G54D10*
D03*
X541338Y515938D02*
G54D10*
D03*
X544512Y503238D02*
G54D10*
D03*
X541338Y503238D02*
G54D10*
D03*
X538162Y503238D02*
G54D10*
D03*
X538162Y515938D02*
G54D10*
D03*
X531812Y506412D02*
G54D10*
D03*
X531812Y509588D02*
G54D10*
D03*
X531812Y512762D02*
G54D10*
D03*
X528638Y515938D02*
G54D10*
D03*
X525462Y515938D02*
G54D10*
D03*
X522288Y515938D02*
G54D10*
D03*
X528638Y503238D02*
G54D10*
D03*
X525462Y503238D02*
G54D10*
D03*
X522288Y503238D02*
G54D10*
D03*
X519112Y512762D02*
G54D10*
D03*
X519112Y509588D02*
G54D10*
D03*
X522288Y509588D02*
G54D10*
D03*
X525462Y509588D02*
G54D10*
D03*
X528638Y509588D02*
G54D10*
D03*
X620712Y522288D02*
G54D10*
D03*
X617538Y519112D02*
G54D10*
D03*
X614362Y522288D02*
G54D10*
D03*
X617538Y525462D02*
G54D10*
D03*
X608012Y519112D02*
G54D10*
D03*
X630238Y528638D02*
G54D10*
D03*
X601662Y528638D02*
G54D10*
D03*
X617538Y509588D02*
G54D10*
D03*
X633412Y525462D02*
G54D10*
D03*
X573088Y541338D02*
G54D10*
D03*
X569912Y541338D02*
G54D10*
D03*
X566738Y541338D02*
G54D10*
D03*
X563562Y541338D02*
G54D10*
D03*
X560388Y541338D02*
G54D10*
D03*
X560388Y538162D02*
G54D10*
D03*
X560388Y534988D02*
G54D10*
D03*
X563562Y531812D02*
G54D10*
D03*
X566738Y528638D02*
G54D10*
D03*
X569912Y525462D02*
G54D10*
D03*
X557212Y547688D02*
G54D10*
D03*
X557212Y544512D02*
G54D10*
D03*
X554038Y544512D02*
G54D10*
D03*
X554038Y547688D02*
G54D10*
D03*
X550862Y541338D02*
G54D10*
D03*
X547688Y541338D02*
G54D10*
D03*
X544512Y541338D02*
G54D10*
D03*
X541338Y541338D02*
G54D10*
D03*
X538162Y541338D02*
G54D10*
D03*
X550862Y534988D02*
G54D10*
D03*
X547688Y534988D02*
G54D10*
D03*
X544512Y534988D02*
G54D10*
D03*
X541338Y534988D02*
G54D10*
D03*
X538162Y534988D02*
G54D10*
D03*
X538162Y531812D02*
G54D10*
D03*
X541338Y528638D02*
G54D10*
D03*
X544512Y525462D02*
G54D10*
D03*
X550862Y525462D02*
G54D10*
D03*
X547688Y525462D02*
G54D10*
D03*
X531812Y541338D02*
G54D10*
D03*
X528638Y541338D02*
G54D10*
D03*
X525462Y541338D02*
G54D10*
D03*
X522288Y541338D02*
G54D10*
D03*
X519112Y541338D02*
G54D10*
D03*
X519112Y538162D02*
G54D10*
D03*
X522288Y534988D02*
G54D10*
D03*
X525462Y531812D02*
G54D10*
D03*
X528638Y528638D02*
G54D10*
D03*
X531812Y525462D02*
G54D10*
D03*
X522288Y528638D02*
G54D10*
D03*
X519112Y525462D02*
G54D10*
D03*
X611188Y554038D02*
G54D10*
D03*
X614362Y550862D02*
G54D10*
D03*
X617538Y503238D02*
G54D10*
D03*
X642938Y528638D02*
G54D10*
D03*
X973138Y525462D02*
G54D10*
D03*
X969962Y522288D02*
G54D10*
D03*
X966788Y519112D02*
G54D10*
D03*
X963612Y515938D02*
G54D10*
D03*
X973138Y531812D02*
G54D10*
D03*
X969962Y534988D02*
G54D10*
D03*
X966788Y538162D02*
G54D10*
D03*
X963612Y541338D02*
G54D10*
D03*
X960438Y544512D02*
G54D10*
D03*
X960438Y512762D02*
G54D10*
D03*
X957262Y509588D02*
G54D10*
D03*
X954088Y506412D02*
G54D10*
D03*
X950912Y503238D02*
G54D10*
D03*
X944562Y503238D02*
G54D10*
D03*
X941388Y506412D02*
G54D10*
D03*
X938212Y509588D02*
G54D10*
D03*
X935038Y512762D02*
G54D10*
D03*
X931862Y515938D02*
G54D10*
D03*
X928688Y519112D02*
G54D10*
D03*
X925512Y522288D02*
G54D10*
D03*
X922338Y525462D02*
G54D10*
D03*
X919162Y528638D02*
G54D10*
D03*
X957262Y547688D02*
G54D10*
D03*
X954088Y550862D02*
G54D10*
D03*
X950912Y554038D02*
G54D10*
D03*
X947738Y557212D02*
G54D10*
D03*
X931862Y554038D02*
G54D10*
D03*
X922338Y544512D02*
G54D10*
D03*
X919162Y547688D02*
G54D10*
D03*
X928688Y557212D02*
G54D10*
D03*
X928688Y563562D02*
G54D10*
D03*
X925512Y566738D02*
G54D10*
D03*
X922338Y563562D02*
G54D10*
D03*
X919162Y560388D02*
G54D10*
D03*
X915988Y557212D02*
G54D10*
D03*
X912812Y554038D02*
G54D10*
D03*
X909638Y550862D02*
G54D10*
D03*
X912812Y547688D02*
G54D10*
D03*
X963612Y534988D02*
G54D10*
D03*
X960438Y534988D02*
G54D10*
D03*
X957262Y538162D02*
G54D10*
D03*
X954088Y534988D02*
G54D10*
D03*
X950912Y534988D02*
G54D10*
D03*
X947738Y534988D02*
G54D10*
D03*
X944562Y531812D02*
G54D10*
D03*
X941388Y531812D02*
G54D10*
D03*
X938212Y534988D02*
G54D10*
D03*
X935038Y534988D02*
G54D10*
D03*
X931862Y534988D02*
G54D10*
D03*
X928688Y534988D02*
G54D10*
D03*
X925512Y534988D02*
G54D10*
D03*
X922338Y531812D02*
G54D10*
D03*
X906462Y560388D02*
G54D10*
D03*
X906462Y557212D02*
G54D10*
D03*
X906462Y554038D02*
G54D10*
D03*
X903288Y554038D02*
G54D10*
D03*
X903288Y560388D02*
G54D10*
D03*
X900112Y560388D02*
G54D10*
D03*
X900112Y563562D02*
G54D10*
D03*
X900112Y566738D02*
G54D10*
D03*
X896938Y566738D02*
G54D10*
D03*
X893762Y566738D02*
G54D10*
D03*
X893762Y563562D02*
G54D10*
D03*
X893762Y560388D02*
G54D10*
D03*
X890588Y560388D02*
G54D10*
D03*
X887412Y560388D02*
G54D10*
D03*
X887412Y557212D02*
G54D10*
D03*
X887412Y554038D02*
G54D10*
D03*
X890588Y554038D02*
G54D10*
D03*
X893762Y554038D02*
G54D10*
D03*
X900112Y554038D02*
G54D10*
D03*
X900112Y550862D02*
G54D10*
D03*
X900112Y547688D02*
G54D10*
D03*
X896938Y547688D02*
G54D10*
D03*
X893762Y547688D02*
G54D10*
D03*
X893762Y550862D02*
G54D10*
D03*
X944562Y560388D02*
G54D10*
D03*
X938212Y560388D02*
G54D10*
D03*
X935038Y557212D02*
G54D10*
D03*
X919162Y541338D02*
G54D10*
D03*
X915988Y538162D02*
G54D10*
D03*
X915988Y531812D02*
G54D10*
D03*
X919162Y522288D02*
G54D10*
D03*
X915988Y522288D02*
G54D10*
D03*
X912812Y522288D02*
G54D10*
D03*
X909638Y522288D02*
G54D10*
D03*
X906462Y522288D02*
G54D10*
D03*
X912812Y519112D02*
G54D10*
D03*
X912812Y515938D02*
G54D10*
D03*
X912812Y512762D02*
G54D10*
D03*
X912812Y509588D02*
G54D10*
D03*
X912812Y506412D02*
G54D10*
D03*
X915988Y503238D02*
G54D10*
D03*
X919162Y503238D02*
G54D10*
D03*
X922338Y506412D02*
G54D10*
D03*
X903288Y503238D02*
G54D10*
D03*
X900112Y506412D02*
G54D10*
D03*
X900112Y509588D02*
G54D10*
D03*
X900112Y512762D02*
G54D10*
D03*
X900112Y515938D02*
G54D10*
D03*
X896938Y503238D02*
G54D10*
D03*
X893762Y503238D02*
G54D10*
D03*
X890588Y503238D02*
G54D10*
D03*
X890588Y506412D02*
G54D10*
D03*
X890588Y509588D02*
G54D10*
D03*
X890588Y512762D02*
G54D10*
D03*
X890588Y515938D02*
G54D10*
D03*
X884238Y519112D02*
G54D10*
D03*
X884238Y512762D02*
G54D10*
D03*
X884238Y509588D02*
G54D10*
D03*
X884238Y506412D02*
G54D10*
D03*
X884238Y503238D02*
G54D10*
D03*
X877888Y506412D02*
G54D10*
D03*
X877888Y509588D02*
G54D10*
D03*
X877888Y512762D02*
G54D10*
D03*
X874712Y515938D02*
G54D10*
D03*
X871538Y515938D02*
G54D10*
D03*
X874712Y503238D02*
G54D10*
D03*
X871538Y503238D02*
G54D10*
D03*
X868362Y503238D02*
G54D10*
D03*
X868362Y515938D02*
G54D10*
D03*
X862012Y506412D02*
G54D10*
D03*
X862012Y509588D02*
G54D10*
D03*
X862012Y512762D02*
G54D10*
D03*
X858838Y515938D02*
G54D10*
D03*
X855662Y515938D02*
G54D10*
D03*
X852488Y515938D02*
G54D10*
D03*
X858838Y503238D02*
G54D10*
D03*
X855662Y503238D02*
G54D10*
D03*
X852488Y503238D02*
G54D10*
D03*
X849312Y512762D02*
G54D10*
D03*
X849312Y509588D02*
G54D10*
D03*
X852488Y509588D02*
G54D10*
D03*
X855662Y509588D02*
G54D10*
D03*
X858838Y509588D02*
G54D10*
D03*
X950912Y522288D02*
G54D10*
D03*
X947738Y519112D02*
G54D10*
D03*
X944562Y522288D02*
G54D10*
D03*
X947738Y525462D02*
G54D10*
D03*
X938212Y519112D02*
G54D10*
D03*
X960438Y528638D02*
G54D10*
D03*
X931862Y528638D02*
G54D10*
D03*
X947738Y509588D02*
G54D10*
D03*
X963612Y525462D02*
G54D10*
D03*
X903288Y541338D02*
G54D10*
D03*
X900112Y541338D02*
G54D10*
D03*
X896938Y541338D02*
G54D10*
D03*
X893762Y541338D02*
G54D10*
D03*
X890588Y541338D02*
G54D10*
D03*
X890588Y538162D02*
G54D10*
D03*
X890588Y534988D02*
G54D10*
D03*
X893762Y531812D02*
G54D10*
D03*
X896938Y528638D02*
G54D10*
D03*
X900112Y525462D02*
G54D10*
D03*
X887412Y547688D02*
G54D10*
D03*
X887412Y544512D02*
G54D10*
D03*
X884238Y544512D02*
G54D10*
D03*
X884238Y547688D02*
G54D10*
D03*
X881062Y541338D02*
G54D10*
D03*
X877888Y541338D02*
G54D10*
D03*
X874712Y541338D02*
G54D10*
D03*
X871538Y541338D02*
G54D10*
D03*
X868362Y541338D02*
G54D10*
D03*
X881062Y534988D02*
G54D10*
D03*
X877888Y534988D02*
G54D10*
D03*
X874712Y534988D02*
G54D10*
D03*
X871538Y534988D02*
G54D10*
D03*
X868362Y534988D02*
G54D10*
D03*
X868362Y531812D02*
G54D10*
D03*
X871538Y528638D02*
G54D10*
D03*
X874712Y525462D02*
G54D10*
D03*
X881062Y525462D02*
G54D10*
D03*
X877888Y525462D02*
G54D10*
D03*
X862012Y541338D02*
G54D10*
D03*
X858838Y541338D02*
G54D10*
D03*
X855662Y541338D02*
G54D10*
D03*
X852488Y541338D02*
G54D10*
D03*
X849312Y541338D02*
G54D10*
D03*
X849312Y538162D02*
G54D10*
D03*
X852488Y534988D02*
G54D10*
D03*
X855662Y531812D02*
G54D10*
D03*
X858838Y528638D02*
G54D10*
D03*
X862012Y525462D02*
G54D10*
D03*
X852488Y528638D02*
G54D10*
D03*
X849312Y525462D02*
G54D10*
D03*
X941388Y554038D02*
G54D10*
D03*
X944562Y550862D02*
G54D10*
D03*
X947738Y503238D02*
G54D10*
D03*
X973138Y528638D02*
G54D10*
D03*
M02*
