%FSLAX34Y34*%
%MOMM*%
%LNSILK_BOTTOM_*%
G71*
G01*
%ADD10C, 0.19*%
%ADD11C, 0.10*%
%ADD12R, 0.27X0.27*%
%ADD13C, 0.11*%
%ADD14R, 0.40X0.40*%
%LPD*%
G54D10*
X81254Y590808D02*
X96365Y590808D01*
G54D10*
X87299Y590808D02*
X89188Y591941D01*
X89754Y594208D01*
X89188Y596474D01*
X87299Y597608D01*
X81254Y597608D01*
G54D10*
X96365Y604030D02*
X82199Y604030D01*
X81254Y605164D01*
X81632Y606297D01*
G54D10*
X89754Y601764D02*
X89754Y606297D01*
G54D10*
X96365Y612720D02*
X82199Y612720D01*
X81254Y613853D01*
X81632Y614986D01*
G54D10*
X89754Y610453D02*
X89754Y614986D01*
G54D10*
X89754Y619142D02*
X77476Y619142D01*
G54D10*
X84088Y619142D02*
X81632Y620275D01*
X81254Y622542D01*
X81632Y624808D01*
X83521Y625942D01*
X87299Y625942D01*
X89188Y624808D01*
X89754Y622542D01*
X89188Y620275D01*
X86921Y619142D01*
G54D10*
X82199Y630098D02*
X81254Y632364D01*
X81254Y634631D01*
X82199Y636898D01*
X84088Y636898D01*
X85032Y635764D01*
X85976Y631231D01*
X86921Y630098D01*
X88810Y630098D01*
X89754Y632364D01*
X89754Y634631D01*
X88810Y636898D01*
G54D10*
X81254Y641054D02*
X81254Y641054D01*
G54D10*
X89754Y641054D02*
X89754Y641054D01*
G54D10*
X81254Y645210D02*
X96365Y654276D01*
G54D10*
X81254Y658433D02*
X96365Y667500D01*
G54D10*
X78421Y671656D02*
X77476Y673922D01*
X77476Y675509D01*
X78421Y677776D01*
X80310Y678456D01*
X89754Y678456D01*
G54D10*
X87299Y678456D02*
X89188Y677322D01*
X89754Y675056D01*
X89188Y672789D01*
X87299Y671656D01*
X83521Y671656D01*
X81632Y672789D01*
X81254Y675056D01*
X81632Y677322D01*
X83521Y678456D01*
G54D10*
X81254Y682612D02*
X89754Y682612D01*
G54D10*
X92588Y682612D02*
X92588Y682612D01*
G54D10*
X96365Y689034D02*
X82199Y689034D01*
X81254Y690168D01*
X81632Y691301D01*
G54D10*
X89754Y686768D02*
X89754Y691301D01*
G54D10*
X81254Y695457D02*
X96365Y695457D01*
G54D10*
X87299Y695457D02*
X89188Y696590D01*
X89754Y698857D01*
X89188Y701124D01*
X87299Y702257D01*
X81254Y702257D01*
G54D10*
X89754Y713213D02*
X81254Y713213D01*
G54D10*
X83143Y713213D02*
X81632Y712080D01*
X81254Y709813D01*
X81632Y707546D01*
X83143Y706413D01*
X89754Y706413D01*
G54D10*
X81254Y717369D02*
X96365Y717369D01*
G54D10*
X87299Y717369D02*
X89188Y718502D01*
X89754Y720769D01*
X89188Y723036D01*
X87299Y724169D01*
X83521Y724169D01*
X81632Y723036D01*
X81254Y720769D01*
X81632Y718502D01*
X83521Y717369D01*
G54D10*
X81254Y728325D02*
X81254Y728325D01*
G54D10*
X89188Y738148D02*
X89754Y735881D01*
X89188Y733614D01*
X87299Y732481D01*
X83521Y732481D01*
X81632Y733614D01*
X81254Y735881D01*
X81632Y738148D01*
G54D10*
X83521Y749104D02*
X87299Y749104D01*
X89188Y747970D01*
X89754Y745704D01*
X89188Y743437D01*
X87299Y742304D01*
X83521Y742304D01*
X81632Y743437D01*
X81254Y745704D01*
X81632Y747970D01*
X83521Y749104D01*
G54D10*
X81254Y753260D02*
X89754Y753260D01*
G54D10*
X88243Y753260D02*
X89754Y755526D01*
X89188Y757793D01*
X87865Y758926D01*
X81254Y758926D01*
G54D10*
X88243Y758926D02*
X89754Y761193D01*
X89188Y763460D01*
X87865Y764593D01*
X81254Y764593D01*
G54D10*
X81254Y768749D02*
X96365Y777816D01*
G54D11*
X165104Y838952D02*
X165105Y827839D01*
X154786Y825458D01*
X151611Y817917D01*
X157564Y808789D01*
X150420Y800852D01*
X142483Y807202D01*
X134545Y803630D01*
X132958Y792517D01*
X122242Y792517D01*
X121052Y802439D01*
X112717Y806011D01*
X105176Y800852D01*
X97636Y808392D01*
X103192Y817123D01*
X100414Y821489D01*
X117083Y829030D01*
G54D11*
X117083Y837761D02*
X100811Y845302D01*
X102795Y849667D01*
X97239Y858002D01*
X104780Y866336D01*
X112717Y860383D01*
X121052Y863955D01*
X122242Y874273D01*
X132958Y873876D01*
X134942Y863161D01*
X141292Y860383D01*
X149626Y866336D01*
X157167Y858398D01*
X151611Y849270D01*
X154786Y840539D01*
X165104Y838952D01*
G54D11*
G75*
G01X117767Y829299D02*
G03X117767Y837504I9666J4103D01*
G01*
G36*
X132958Y873876D02*
X134942Y863161D01*
X141292Y860383D01*
X149626Y866336D01*
X157167Y858398D01*
X151611Y849270D01*
X154786Y840539D01*
X165104Y838952D01*
X165105Y827839D01*
X154786Y825458D01*
X151611Y817917D01*
X157564Y808789D01*
X150420Y800852D01*
X142483Y807202D01*
X134545Y803630D01*
X132958Y792517D01*
X122242Y792517D01*
X121052Y802439D01*
X112717Y806011D01*
X105176Y800852D01*
X97636Y808392D01*
X103192Y817123D01*
X100414Y821489D01*
X117876Y829426D01*
X118273Y828236D01*
X119067Y827045D01*
X121448Y824664D01*
X124623Y823076D01*
X126608Y822680D01*
X128195Y822680D01*
X130576Y823076D01*
X133354Y824267D01*
X136133Y826648D01*
X137323Y828633D01*
X138117Y830617D01*
X138514Y832998D01*
X138117Y835380D01*
X137323Y838555D01*
X134942Y841333D01*
X130973Y844111D01*
X124623Y844111D01*
X122242Y842920D01*
X119861Y841333D01*
X117876Y838952D01*
X117876Y837364D01*
X100811Y845302D01*
X102795Y849667D01*
X97239Y858002D01*
X104780Y866336D01*
X112717Y860383D01*
X132958Y873876D01*
G37*
G54D11*
X132958Y873876D02*
X134942Y863161D01*
X141292Y860383D01*
X149626Y866336D01*
X157167Y858398D01*
X151611Y849270D01*
X154786Y840539D01*
X165104Y838952D01*
X165105Y827839D01*
X154786Y825458D01*
X151611Y817917D01*
X157564Y808789D01*
X150420Y800852D01*
X142483Y807202D01*
X134545Y803630D01*
X132958Y792517D01*
X122242Y792517D01*
X121052Y802439D01*
X112717Y806011D01*
X105176Y800852D01*
X97636Y808392D01*
X103192Y817123D01*
X100414Y821489D01*
X117876Y829426D01*
X118273Y828236D01*
X119067Y827045D01*
X121448Y824664D01*
X124623Y823076D01*
X126608Y822680D01*
X128195Y822680D01*
X130576Y823076D01*
X133354Y824267D01*
X136133Y826648D01*
X137323Y828633D01*
X138117Y830617D01*
X138514Y832998D01*
X138117Y835380D01*
X137323Y838555D01*
X134942Y841333D01*
X130973Y844111D01*
X124623Y844111D01*
X122242Y842920D01*
X119861Y841333D01*
X117876Y838952D01*
X117876Y837364D01*
X100811Y845302D01*
X102795Y849667D01*
X97239Y858002D01*
X104780Y866336D01*
X112717Y860383D01*
X132958Y873876D01*
G36*
X132958Y873876D02*
X122242Y874273D01*
X121052Y863955D01*
X132958Y873876D01*
G37*
G54D11*
X132958Y873876D02*
X122242Y874273D01*
X121052Y863955D01*
X132958Y873876D01*
G54D10*
X86431Y816659D02*
X76987Y816659D01*
X75098Y815526D01*
X74154Y813259D01*
X74154Y810993D01*
X75098Y808726D01*
X76987Y807593D01*
X86431Y807593D01*
X88320Y808726D01*
X89265Y810993D01*
X89265Y813259D01*
X88320Y815526D01*
X86431Y816659D01*
G54D10*
X76987Y820816D02*
X75098Y821949D01*
X74154Y824216D01*
X74154Y826482D01*
X75098Y828749D01*
X76987Y829882D01*
X78876Y829882D01*
X80765Y828749D01*
X81709Y826482D01*
X81709Y824216D01*
X82654Y821949D01*
X84542Y820816D01*
X86431Y820816D01*
X88320Y821949D01*
X89265Y824216D01*
X89265Y826482D01*
X88320Y828749D01*
X86431Y829882D01*
G54D10*
X74154Y834039D02*
X89265Y834039D01*
G54D10*
X74154Y843105D02*
X89265Y843105D01*
G54D10*
X81709Y834039D02*
X81709Y843105D01*
G54D10*
X89265Y847262D02*
X74154Y847262D01*
X83598Y852928D01*
X74154Y858595D01*
X89265Y858595D01*
X280988Y708025D02*
G54D12*
D03*
X277812Y711200D02*
G54D12*
D03*
X274638Y714375D02*
G54D12*
D03*
X271462Y717550D02*
G54D12*
D03*
X287338Y708025D02*
G54D12*
D03*
X290512Y711200D02*
G54D12*
D03*
X293688Y714375D02*
G54D12*
D03*
X296862Y717550D02*
G54D12*
D03*
X300038Y720725D02*
G54D12*
D03*
X268288Y720725D02*
G54D12*
D03*
X265112Y723900D02*
G54D12*
D03*
X261938Y727075D02*
G54D12*
D03*
X258762Y730250D02*
G54D12*
D03*
X258762Y736600D02*
G54D12*
D03*
X261938Y739775D02*
G54D12*
D03*
X265112Y742950D02*
G54D12*
D03*
X268288Y746125D02*
G54D12*
D03*
X271462Y749300D02*
G54D12*
D03*
X274638Y752475D02*
G54D12*
D03*
X277812Y755650D02*
G54D12*
D03*
X280988Y758825D02*
G54D12*
D03*
X284162Y762000D02*
G54D12*
D03*
X303212Y723900D02*
G54D12*
D03*
X306388Y727075D02*
G54D12*
D03*
X309562Y730250D02*
G54D12*
D03*
X312738Y733425D02*
G54D12*
D03*
X309562Y749300D02*
G54D12*
D03*
X300038Y758825D02*
G54D12*
D03*
X303212Y762000D02*
G54D12*
D03*
X312738Y752475D02*
G54D12*
D03*
X319088Y752475D02*
G54D12*
D03*
X322262Y755650D02*
G54D12*
D03*
X319088Y758825D02*
G54D12*
D03*
X315912Y762000D02*
G54D12*
D03*
X312738Y765175D02*
G54D12*
D03*
X309562Y768350D02*
G54D12*
D03*
X306388Y771525D02*
G54D12*
D03*
X303212Y768350D02*
G54D12*
D03*
X290512Y717550D02*
G54D12*
D03*
X290512Y720725D02*
G54D12*
D03*
X293688Y723900D02*
G54D12*
D03*
X290512Y727075D02*
G54D12*
D03*
X290512Y730250D02*
G54D12*
D03*
X290512Y733425D02*
G54D12*
D03*
X287338Y736600D02*
G54D12*
D03*
X287338Y739775D02*
G54D12*
D03*
X290512Y742950D02*
G54D12*
D03*
X290512Y746125D02*
G54D12*
D03*
X290512Y749300D02*
G54D12*
D03*
X290512Y752475D02*
G54D12*
D03*
X290512Y755650D02*
G54D12*
D03*
X287338Y758825D02*
G54D12*
D03*
X315912Y774700D02*
G54D12*
D03*
X312738Y774700D02*
G54D12*
D03*
X309562Y774700D02*
G54D12*
D03*
X309562Y777875D02*
G54D12*
D03*
X315912Y777875D02*
G54D12*
D03*
X315912Y781050D02*
G54D12*
D03*
X319088Y781050D02*
G54D12*
D03*
X322262Y781050D02*
G54D12*
D03*
X322262Y784225D02*
G54D12*
D03*
X322262Y787400D02*
G54D12*
D03*
X319088Y787400D02*
G54D12*
D03*
X315912Y787400D02*
G54D12*
D03*
X315912Y790575D02*
G54D12*
D03*
X315912Y793750D02*
G54D12*
D03*
X312738Y793750D02*
G54D12*
D03*
X309562Y793750D02*
G54D12*
D03*
X309562Y790575D02*
G54D12*
D03*
X309562Y787400D02*
G54D12*
D03*
X309562Y781050D02*
G54D12*
D03*
X306388Y781050D02*
G54D12*
D03*
X303212Y781050D02*
G54D12*
D03*
X303212Y784225D02*
G54D12*
D03*
X303212Y787400D02*
G54D12*
D03*
X306388Y787400D02*
G54D12*
D03*
X315912Y736600D02*
G54D12*
D03*
X315912Y742950D02*
G54D12*
D03*
X312738Y746125D02*
G54D12*
D03*
X296862Y762000D02*
G54D12*
D03*
X293688Y765175D02*
G54D12*
D03*
X287338Y765175D02*
G54D12*
D03*
X277812Y762000D02*
G54D12*
D03*
X277812Y765175D02*
G54D12*
D03*
X277812Y768350D02*
G54D12*
D03*
X277812Y771525D02*
G54D12*
D03*
X277812Y774700D02*
G54D12*
D03*
X274638Y768350D02*
G54D12*
D03*
X271462Y768350D02*
G54D12*
D03*
X268288Y768350D02*
G54D12*
D03*
X265112Y768350D02*
G54D12*
D03*
X261938Y768350D02*
G54D12*
D03*
X258762Y765175D02*
G54D12*
D03*
X258762Y762000D02*
G54D12*
D03*
X261938Y758825D02*
G54D12*
D03*
X258762Y777875D02*
G54D12*
D03*
X261938Y781050D02*
G54D12*
D03*
X265112Y781050D02*
G54D12*
D03*
X268288Y781050D02*
G54D12*
D03*
X271462Y781050D02*
G54D12*
D03*
X258762Y784225D02*
G54D12*
D03*
X258762Y787400D02*
G54D12*
D03*
X258762Y790575D02*
G54D12*
D03*
X261938Y790575D02*
G54D12*
D03*
X265112Y790575D02*
G54D12*
D03*
X268288Y790575D02*
G54D12*
D03*
X271462Y790575D02*
G54D12*
D03*
X274638Y796925D02*
G54D12*
D03*
X268288Y796925D02*
G54D12*
D03*
X265112Y796925D02*
G54D12*
D03*
X261938Y796925D02*
G54D12*
D03*
X258762Y796925D02*
G54D12*
D03*
X261938Y803275D02*
G54D12*
D03*
X265112Y803275D02*
G54D12*
D03*
X268288Y803275D02*
G54D12*
D03*
X271462Y806450D02*
G54D12*
D03*
X271462Y809625D02*
G54D12*
D03*
X258762Y806450D02*
G54D12*
D03*
X258762Y809625D02*
G54D12*
D03*
X258762Y812800D02*
G54D12*
D03*
X271462Y812800D02*
G54D12*
D03*
X261938Y819150D02*
G54D12*
D03*
X265112Y819150D02*
G54D12*
D03*
X268288Y819150D02*
G54D12*
D03*
X271462Y822325D02*
G54D12*
D03*
X271462Y825500D02*
G54D12*
D03*
X271462Y828675D02*
G54D12*
D03*
X258762Y822325D02*
G54D12*
D03*
X258762Y825500D02*
G54D12*
D03*
X258762Y828675D02*
G54D12*
D03*
X268288Y831850D02*
G54D12*
D03*
X265112Y831850D02*
G54D12*
D03*
X265112Y828675D02*
G54D12*
D03*
X265112Y825500D02*
G54D12*
D03*
X265112Y822325D02*
G54D12*
D03*
X277812Y730250D02*
G54D12*
D03*
X274638Y733425D02*
G54D12*
D03*
X277812Y736600D02*
G54D12*
D03*
X280988Y733425D02*
G54D12*
D03*
X274638Y742950D02*
G54D12*
D03*
X284162Y720725D02*
G54D12*
D03*
X284162Y749300D02*
G54D12*
D03*
X265112Y733425D02*
G54D12*
D03*
X280988Y717550D02*
G54D12*
D03*
X296862Y777875D02*
G54D12*
D03*
X296862Y781050D02*
G54D12*
D03*
X296862Y784225D02*
G54D12*
D03*
X296862Y787400D02*
G54D12*
D03*
X296862Y790575D02*
G54D12*
D03*
X293688Y790575D02*
G54D12*
D03*
X290512Y790575D02*
G54D12*
D03*
X287338Y787400D02*
G54D12*
D03*
X284162Y784225D02*
G54D12*
D03*
X280988Y781050D02*
G54D12*
D03*
X303212Y793750D02*
G54D12*
D03*
X300038Y793750D02*
G54D12*
D03*
X300038Y796925D02*
G54D12*
D03*
X303212Y796925D02*
G54D12*
D03*
X296862Y800100D02*
G54D12*
D03*
X296862Y803275D02*
G54D12*
D03*
X296862Y806450D02*
G54D12*
D03*
X296862Y809625D02*
G54D12*
D03*
X296862Y812800D02*
G54D12*
D03*
X290512Y800100D02*
G54D12*
D03*
X290512Y803275D02*
G54D12*
D03*
X290512Y806450D02*
G54D12*
D03*
X290512Y809625D02*
G54D12*
D03*
X290512Y812800D02*
G54D12*
D03*
X287338Y812800D02*
G54D12*
D03*
X284162Y809625D02*
G54D12*
D03*
X280988Y806450D02*
G54D12*
D03*
X280988Y800100D02*
G54D12*
D03*
X280988Y803275D02*
G54D12*
D03*
X296862Y819150D02*
G54D12*
D03*
X296862Y822325D02*
G54D12*
D03*
X296862Y825500D02*
G54D12*
D03*
X296862Y828675D02*
G54D12*
D03*
X296862Y831850D02*
G54D12*
D03*
X293688Y831850D02*
G54D12*
D03*
X290512Y828675D02*
G54D12*
D03*
X287338Y825500D02*
G54D12*
D03*
X284162Y822325D02*
G54D12*
D03*
X280988Y819150D02*
G54D12*
D03*
X284162Y828675D02*
G54D12*
D03*
X280988Y831850D02*
G54D12*
D03*
X309562Y739775D02*
G54D12*
D03*
X306388Y736600D02*
G54D12*
D03*
G54D13*
X310832Y805942D02*
X309721Y807942D01*
X308610Y808608D01*
X306388Y808608D01*
G54D13*
X306388Y803275D02*
X315276Y803275D01*
X315276Y806608D01*
X314721Y807942D01*
X313610Y808608D01*
X312499Y808608D01*
X311388Y807942D01*
X310832Y806608D01*
X310832Y803275D01*
G54D13*
X306943Y815052D02*
X306388Y813985D01*
X306388Y812652D01*
X306943Y811319D01*
X308054Y811052D01*
X309943Y811052D01*
X311054Y811719D01*
X311388Y813052D01*
X311054Y814385D01*
X310276Y815052D01*
X309165Y815052D01*
X309165Y811052D01*
G54D13*
X311388Y817496D02*
X306388Y820163D01*
X311388Y822829D01*
G54D13*
X306388Y825273D02*
X306388Y825273D01*
G54D13*
X306388Y833050D02*
X306388Y827717D01*
X306943Y827717D01*
X308054Y828384D01*
X311388Y832384D01*
X312499Y833050D01*
X313610Y833050D01*
X314721Y832384D01*
X315276Y831050D01*
X315276Y829717D01*
X314721Y828384D01*
X313610Y827717D01*
G54D13*
X306388Y835494D02*
X306388Y835494D01*
G54D13*
X313610Y843271D02*
X308054Y843271D01*
X306943Y842605D01*
X306388Y841271D01*
X306388Y839938D01*
X306943Y838605D01*
X308054Y837938D01*
X313610Y837938D01*
X314721Y838605D01*
X315276Y839938D01*
X315276Y841271D01*
X314721Y842605D01*
X313610Y843271D01*
X284162Y708025D02*
G54D12*
D03*
X258762Y733425D02*
G54D12*
D03*
X182562Y736203D02*
G54D14*
D03*
X182562Y740966D02*
G54D14*
D03*
X182562Y745728D02*
G54D14*
D03*
X182562Y750491D02*
G54D14*
D03*
X182562Y755253D02*
G54D14*
D03*
X182562Y760016D02*
G54D14*
D03*
X182562Y764778D02*
G54D14*
D03*
X182562Y769541D02*
G54D14*
D03*
X168275Y721916D02*
G54D14*
D03*
X163512Y721916D02*
G54D14*
D03*
X158750Y721916D02*
G54D14*
D03*
X153988Y721916D02*
G54D14*
D03*
X149225Y721916D02*
G54D14*
D03*
X144462Y721916D02*
G54D14*
D03*
X139700Y721916D02*
G54D14*
D03*
X134938Y721916D02*
G54D14*
D03*
X130175Y721916D02*
G54D14*
D03*
X125412Y721916D02*
G54D14*
D03*
X120650Y717153D02*
G54D14*
D03*
X115887Y717153D02*
G54D14*
D03*
X111125Y717153D02*
G54D14*
D03*
X111125Y712391D02*
G54D14*
D03*
X115888Y726678D02*
G54D14*
D03*
X111125Y726678D02*
G54D14*
D03*
X111125Y731441D02*
G54D14*
D03*
X115888Y736203D02*
G54D14*
D03*
X115888Y740966D02*
G54D14*
D03*
X115888Y745728D02*
G54D14*
D03*
X111125Y745728D02*
G54D14*
D03*
X111125Y750491D02*
G54D14*
D03*
X158750Y779066D02*
G54D14*
D03*
X163512Y779066D02*
G54D14*
D03*
X168275Y779066D02*
G54D14*
D03*
X173038Y779066D02*
G54D14*
D03*
X177800Y774303D02*
G54D14*
D03*
X168275Y736203D02*
G54D14*
D03*
X173038Y740966D02*
G54D14*
D03*
X173038Y745728D02*
G54D14*
D03*
X173038Y750491D02*
G54D14*
D03*
X173038Y755253D02*
G54D14*
D03*
X168275Y760016D02*
G54D14*
D03*
X163512Y740966D02*
G54D14*
D03*
X163512Y745728D02*
G54D14*
D03*
X163512Y750491D02*
G54D14*
D03*
X163512Y755253D02*
G54D14*
D03*
X168275Y745728D02*
G54D14*
D03*
X168275Y750491D02*
G54D14*
D03*
X115888Y721916D02*
G54D14*
D03*
X153988Y774303D02*
G54D14*
D03*
X153988Y769541D02*
G54D14*
D03*
X149225Y760016D02*
G54D14*
D03*
X149225Y764778D02*
G54D14*
D03*
X149225Y755253D02*
G54D14*
D03*
X144462Y755253D02*
G54D14*
D03*
X139700Y755253D02*
G54D14*
D03*
X134938Y755253D02*
G54D14*
D03*
X130175Y755253D02*
G54D14*
D03*
X125412Y755253D02*
G54D14*
D03*
X120650Y755253D02*
G54D14*
D03*
X115888Y755253D02*
G54D14*
D03*
X182562Y731441D02*
G54D14*
D03*
X177800Y726678D02*
G54D14*
D03*
X173038Y721916D02*
G54D14*
D03*
G54D10*
X58687Y707824D02*
X56799Y706691D01*
X55854Y704424D01*
X55854Y702158D01*
X56799Y699891D01*
X58687Y698758D01*
X68132Y698758D01*
X70021Y699891D01*
X70965Y702158D01*
X70965Y704424D01*
X70021Y706691D01*
X68132Y707824D01*
G54D10*
X55854Y711981D02*
X70965Y711981D01*
G54D10*
X61899Y711981D02*
X63787Y713114D01*
X64354Y715381D01*
X63787Y717648D01*
X61899Y718781D01*
X55854Y718781D01*
G54D10*
X55854Y722937D02*
X64354Y722937D01*
G54D10*
X67187Y722937D02*
X67187Y722937D01*
G54D10*
X64354Y727093D02*
X52076Y727093D01*
G54D10*
X58687Y727093D02*
X56232Y728226D01*
X55854Y730493D01*
X56232Y732760D01*
X58121Y733893D01*
X61899Y733893D01*
X63787Y732760D01*
X64354Y730493D01*
X63787Y728226D01*
X61521Y727093D01*
G54D10*
X55854Y742582D02*
X70965Y742582D01*
G54D10*
X70965Y738049D02*
X70965Y747116D01*
G54D10*
X56799Y758072D02*
X55854Y756258D01*
X55854Y753992D01*
X56799Y751725D01*
X58687Y751272D01*
X61899Y751272D01*
X63787Y752405D01*
X64354Y754672D01*
X63787Y756938D01*
X62465Y758072D01*
X60576Y758072D01*
X60576Y751272D01*
G54D10*
X63787Y767894D02*
X64354Y765628D01*
X63787Y763361D01*
X61899Y762228D01*
X58121Y762228D01*
X56232Y763361D01*
X55854Y765628D01*
X56232Y767894D01*
G54D10*
X55854Y772051D02*
X70965Y772051D01*
G54D10*
X61899Y772051D02*
X63787Y773184D01*
X64354Y775451D01*
X63787Y777718D01*
X61899Y778851D01*
X55854Y778851D01*
G54D10*
X55854Y783007D02*
X64354Y783007D01*
G54D10*
X62465Y783007D02*
X63787Y784140D01*
X64354Y786407D01*
X63787Y788674D01*
X62465Y789807D01*
X55854Y789807D01*
G54D10*
X58121Y800763D02*
X61899Y800763D01*
X63787Y799630D01*
X64354Y797363D01*
X63787Y795096D01*
X61899Y793963D01*
X58121Y793963D01*
X56232Y795096D01*
X55854Y797363D01*
X56232Y799630D01*
X58121Y800763D01*
G54D10*
X55854Y804919D02*
X70965Y813986D01*
G54D10*
X70965Y827208D02*
X58687Y827208D01*
X56799Y826075D01*
X55854Y823808D01*
X55854Y821542D01*
X56799Y819275D01*
X58687Y818142D01*
G54D10*
X64354Y838165D02*
X55854Y838165D01*
G54D10*
X57743Y838165D02*
X56232Y837032D01*
X55854Y834765D01*
X56232Y832498D01*
X57743Y831365D01*
X64354Y831365D01*
G54D10*
X55854Y842321D02*
X64354Y842321D01*
G54D10*
X67187Y842321D02*
X67187Y842321D01*
G54D10*
X63787Y852144D02*
X64354Y849877D01*
X63787Y847610D01*
X61899Y846477D01*
X58121Y846477D01*
X56232Y847610D01*
X55854Y849877D01*
X56232Y852144D01*
G54D10*
X56799Y863100D02*
X55854Y861286D01*
X55854Y859020D01*
X56799Y856753D01*
X58687Y856300D01*
X61899Y856300D01*
X63787Y857433D01*
X64354Y859700D01*
X63787Y861966D01*
X62465Y863100D01*
X60576Y863100D01*
X60576Y856300D01*
G54D10*
X62465Y867256D02*
X62465Y876322D01*
G54D10*
X64354Y880479D02*
X52076Y880479D01*
G54D10*
X58687Y880479D02*
X56232Y881612D01*
X55854Y883879D01*
X56232Y886146D01*
X58121Y887279D01*
X61899Y887279D01*
X63787Y886146D01*
X64354Y883879D01*
X63787Y881612D01*
X61521Y880479D01*
G54D10*
X55854Y891435D02*
X70965Y891435D01*
G54D10*
X64354Y902391D02*
X55854Y902391D01*
G54D10*
X57743Y902391D02*
X56232Y901258D01*
X55854Y898991D01*
X56232Y896724D01*
X57743Y895591D01*
X64354Y895591D01*
G54D10*
X56799Y906547D02*
X55854Y908814D01*
X55854Y911080D01*
X56799Y913347D01*
X58687Y913347D01*
X59632Y912214D01*
X60576Y907680D01*
X61521Y906547D01*
X63410Y906547D01*
X64354Y908814D01*
X64354Y911080D01*
X63410Y913347D01*
G54D10*
X411454Y590808D02*
X426565Y590808D01*
G54D10*
X417499Y590808D02*
X419388Y591941D01*
X419954Y594208D01*
X419388Y596474D01*
X417499Y597608D01*
X411454Y597608D01*
G54D10*
X426565Y604030D02*
X412399Y604030D01*
X411454Y605164D01*
X411832Y606297D01*
G54D10*
X419954Y601764D02*
X419954Y606297D01*
G54D10*
X426565Y612720D02*
X412399Y612720D01*
X411454Y613853D01*
X411832Y614986D01*
G54D10*
X419954Y610453D02*
X419954Y614986D01*
G54D10*
X419954Y619142D02*
X407676Y619142D01*
G54D10*
X414288Y619142D02*
X411832Y620275D01*
X411454Y622542D01*
X411832Y624808D01*
X413721Y625942D01*
X417499Y625942D01*
X419388Y624808D01*
X419954Y622542D01*
X419388Y620275D01*
X417121Y619142D01*
G54D10*
X412399Y630098D02*
X411454Y632364D01*
X411454Y634631D01*
X412399Y636898D01*
X414288Y636898D01*
X415232Y635764D01*
X416176Y631231D01*
X417121Y630098D01*
X419010Y630098D01*
X419954Y632364D01*
X419954Y634631D01*
X419010Y636898D01*
G54D10*
X411454Y641054D02*
X411454Y641054D01*
G54D10*
X419954Y641054D02*
X419954Y641054D01*
G54D10*
X411454Y645210D02*
X426565Y654276D01*
G54D10*
X411454Y658433D02*
X426565Y667500D01*
G54D10*
X408621Y671656D02*
X407676Y673922D01*
X407676Y675509D01*
X408621Y677776D01*
X410510Y678456D01*
X419954Y678456D01*
G54D10*
X417499Y678456D02*
X419388Y677322D01*
X419954Y675056D01*
X419388Y672789D01*
X417499Y671656D01*
X413721Y671656D01*
X411832Y672789D01*
X411454Y675056D01*
X411832Y677322D01*
X413721Y678456D01*
G54D10*
X411454Y682612D02*
X419954Y682612D01*
G54D10*
X422788Y682612D02*
X422788Y682612D01*
G54D10*
X426565Y689034D02*
X412399Y689034D01*
X411454Y690168D01*
X411832Y691301D01*
G54D10*
X419954Y686768D02*
X419954Y691301D01*
G54D10*
X411454Y695457D02*
X426565Y695457D01*
G54D10*
X417499Y695457D02*
X419388Y696590D01*
X419954Y698857D01*
X419388Y701124D01*
X417499Y702257D01*
X411454Y702257D01*
G54D10*
X419954Y713213D02*
X411454Y713213D01*
G54D10*
X413343Y713213D02*
X411832Y712080D01*
X411454Y709813D01*
X411832Y707546D01*
X413343Y706413D01*
X419954Y706413D01*
G54D10*
X411454Y717369D02*
X426565Y717369D01*
G54D10*
X417499Y717369D02*
X419388Y718502D01*
X419954Y720769D01*
X419388Y723036D01*
X417499Y724169D01*
X413721Y724169D01*
X411832Y723036D01*
X411454Y720769D01*
X411832Y718502D01*
X413721Y717369D01*
G54D10*
X411454Y728325D02*
X411454Y728325D01*
G54D10*
X419388Y738148D02*
X419954Y735881D01*
X419388Y733614D01*
X417499Y732481D01*
X413721Y732481D01*
X411832Y733614D01*
X411454Y735881D01*
X411832Y738148D01*
G54D10*
X413721Y749104D02*
X417499Y749104D01*
X419388Y747970D01*
X419954Y745704D01*
X419388Y743437D01*
X417499Y742304D01*
X413721Y742304D01*
X411832Y743437D01*
X411454Y745704D01*
X411832Y747970D01*
X413721Y749104D01*
G54D10*
X411454Y753260D02*
X419954Y753260D01*
G54D10*
X418443Y753260D02*
X419954Y755526D01*
X419388Y757793D01*
X418065Y758926D01*
X411454Y758926D01*
G54D10*
X418443Y758926D02*
X419954Y761193D01*
X419388Y763460D01*
X418065Y764593D01*
X411454Y764593D01*
G54D10*
X411454Y768749D02*
X426565Y777816D01*
G54D11*
X495304Y838952D02*
X495305Y827839D01*
X484986Y825458D01*
X481811Y817917D01*
X487764Y808789D01*
X480620Y800852D01*
X472683Y807202D01*
X464745Y803630D01*
X463158Y792517D01*
X452442Y792517D01*
X451252Y802439D01*
X442917Y806011D01*
X435376Y800852D01*
X427836Y808392D01*
X433392Y817123D01*
X430614Y821489D01*
X447283Y829030D01*
G54D11*
X447283Y837761D02*
X431011Y845302D01*
X432995Y849667D01*
X427439Y858002D01*
X434980Y866336D01*
X442917Y860383D01*
X451252Y863955D01*
X452442Y874273D01*
X463158Y873876D01*
X465142Y863161D01*
X471492Y860383D01*
X479826Y866336D01*
X487367Y858398D01*
X481811Y849270D01*
X484986Y840539D01*
X495304Y838952D01*
G54D11*
G75*
G01X447967Y829299D02*
G03X447967Y837504I9666J4103D01*
G01*
G36*
X463158Y873876D02*
X465142Y863161D01*
X471492Y860383D01*
X479826Y866336D01*
X487367Y858398D01*
X481811Y849270D01*
X484986Y840539D01*
X495304Y838952D01*
X495305Y827839D01*
X484986Y825458D01*
X481811Y817917D01*
X487764Y808789D01*
X480620Y800852D01*
X472683Y807202D01*
X464745Y803630D01*
X463158Y792517D01*
X452442Y792517D01*
X451252Y802439D01*
X442917Y806011D01*
X435376Y800852D01*
X427836Y808392D01*
X433392Y817123D01*
X430614Y821489D01*
X448076Y829426D01*
X448473Y828236D01*
X449267Y827045D01*
X451648Y824664D01*
X454823Y823076D01*
X456808Y822680D01*
X458395Y822680D01*
X460776Y823076D01*
X463554Y824267D01*
X466333Y826648D01*
X467523Y828633D01*
X468317Y830617D01*
X468714Y832998D01*
X468317Y835380D01*
X467523Y838555D01*
X465142Y841333D01*
X461173Y844111D01*
X454823Y844111D01*
X452442Y842920D01*
X450061Y841333D01*
X448076Y838952D01*
X448076Y837364D01*
X431011Y845302D01*
X432995Y849667D01*
X427439Y858002D01*
X434980Y866336D01*
X442917Y860383D01*
X463158Y873876D01*
G37*
G54D11*
X463158Y873876D02*
X465142Y863161D01*
X471492Y860383D01*
X479826Y866336D01*
X487367Y858398D01*
X481811Y849270D01*
X484986Y840539D01*
X495304Y838952D01*
X495305Y827839D01*
X484986Y825458D01*
X481811Y817917D01*
X487764Y808789D01*
X480620Y800852D01*
X472683Y807202D01*
X464745Y803630D01*
X463158Y792517D01*
X452442Y792517D01*
X451252Y802439D01*
X442917Y806011D01*
X435376Y800852D01*
X427836Y808392D01*
X433392Y817123D01*
X430614Y821489D01*
X448076Y829426D01*
X448473Y828236D01*
X449267Y827045D01*
X451648Y824664D01*
X454823Y823076D01*
X456808Y822680D01*
X458395Y822680D01*
X460776Y823076D01*
X463554Y824267D01*
X466333Y826648D01*
X467523Y828633D01*
X468317Y830617D01*
X468714Y832998D01*
X468317Y835380D01*
X467523Y838555D01*
X465142Y841333D01*
X461173Y844111D01*
X454823Y844111D01*
X452442Y842920D01*
X450061Y841333D01*
X448076Y838952D01*
X448076Y837364D01*
X431011Y845302D01*
X432995Y849667D01*
X427439Y858002D01*
X434980Y866336D01*
X442917Y860383D01*
X463158Y873876D01*
G36*
X463158Y873876D02*
X452442Y874273D01*
X451252Y863955D01*
X463158Y873876D01*
G37*
G54D11*
X463158Y873876D02*
X452442Y874273D01*
X451252Y863955D01*
X463158Y873876D01*
G54D10*
X416631Y816659D02*
X407187Y816659D01*
X405298Y815526D01*
X404354Y813259D01*
X404354Y810993D01*
X405298Y808726D01*
X407187Y807593D01*
X416631Y807593D01*
X418520Y808726D01*
X419465Y810993D01*
X419465Y813259D01*
X418520Y815526D01*
X416631Y816659D01*
G54D10*
X407187Y820816D02*
X405298Y821949D01*
X404354Y824216D01*
X404354Y826482D01*
X405298Y828749D01*
X407187Y829882D01*
X409076Y829882D01*
X410965Y828749D01*
X411909Y826482D01*
X411909Y824216D01*
X412854Y821949D01*
X414742Y820816D01*
X416631Y820816D01*
X418520Y821949D01*
X419465Y824216D01*
X419465Y826482D01*
X418520Y828749D01*
X416631Y829882D01*
G54D10*
X404354Y834039D02*
X419465Y834039D01*
G54D10*
X404354Y843105D02*
X419465Y843105D01*
G54D10*
X411909Y834039D02*
X411909Y843105D01*
G54D10*
X419465Y847262D02*
X404354Y847262D01*
X413798Y852928D01*
X404354Y858595D01*
X419465Y858595D01*
X611188Y708025D02*
G54D12*
D03*
X608012Y711200D02*
G54D12*
D03*
X604838Y714375D02*
G54D12*
D03*
X601662Y717550D02*
G54D12*
D03*
X617538Y708025D02*
G54D12*
D03*
X620712Y711200D02*
G54D12*
D03*
X623888Y714375D02*
G54D12*
D03*
X627062Y717550D02*
G54D12*
D03*
X630238Y720725D02*
G54D12*
D03*
X598488Y720725D02*
G54D12*
D03*
X595312Y723900D02*
G54D12*
D03*
X592138Y727075D02*
G54D12*
D03*
X588962Y730250D02*
G54D12*
D03*
X588962Y736600D02*
G54D12*
D03*
X592138Y739775D02*
G54D12*
D03*
X595312Y742950D02*
G54D12*
D03*
X598488Y746125D02*
G54D12*
D03*
X601662Y749300D02*
G54D12*
D03*
X604838Y752475D02*
G54D12*
D03*
X608012Y755650D02*
G54D12*
D03*
X611188Y758825D02*
G54D12*
D03*
X614362Y762000D02*
G54D12*
D03*
X633412Y723900D02*
G54D12*
D03*
X636588Y727075D02*
G54D12*
D03*
X639762Y730250D02*
G54D12*
D03*
X642938Y733425D02*
G54D12*
D03*
X639762Y749300D02*
G54D12*
D03*
X630238Y758825D02*
G54D12*
D03*
X633412Y762000D02*
G54D12*
D03*
X642938Y752475D02*
G54D12*
D03*
X649288Y752475D02*
G54D12*
D03*
X652462Y755650D02*
G54D12*
D03*
X649288Y758825D02*
G54D12*
D03*
X646112Y762000D02*
G54D12*
D03*
X642938Y765175D02*
G54D12*
D03*
X639762Y768350D02*
G54D12*
D03*
X636588Y771525D02*
G54D12*
D03*
X633412Y768350D02*
G54D12*
D03*
X620712Y717550D02*
G54D12*
D03*
X620712Y720725D02*
G54D12*
D03*
X623888Y723900D02*
G54D12*
D03*
X620712Y727075D02*
G54D12*
D03*
X620712Y730250D02*
G54D12*
D03*
X620712Y733425D02*
G54D12*
D03*
X617538Y736600D02*
G54D12*
D03*
X617538Y739775D02*
G54D12*
D03*
X620712Y742950D02*
G54D12*
D03*
X620712Y746125D02*
G54D12*
D03*
X620712Y749300D02*
G54D12*
D03*
X620712Y752475D02*
G54D12*
D03*
X620712Y755650D02*
G54D12*
D03*
X617538Y758825D02*
G54D12*
D03*
X646112Y774700D02*
G54D12*
D03*
X642938Y774700D02*
G54D12*
D03*
X639762Y774700D02*
G54D12*
D03*
X639762Y777875D02*
G54D12*
D03*
X646112Y777875D02*
G54D12*
D03*
X646112Y781050D02*
G54D12*
D03*
X649288Y781050D02*
G54D12*
D03*
X652462Y781050D02*
G54D12*
D03*
X652462Y784225D02*
G54D12*
D03*
X652462Y787400D02*
G54D12*
D03*
X649288Y787400D02*
G54D12*
D03*
X646112Y787400D02*
G54D12*
D03*
X646112Y790575D02*
G54D12*
D03*
X646112Y793750D02*
G54D12*
D03*
X642938Y793750D02*
G54D12*
D03*
X639762Y793750D02*
G54D12*
D03*
X639762Y790575D02*
G54D12*
D03*
X639762Y787400D02*
G54D12*
D03*
X639762Y781050D02*
G54D12*
D03*
X636588Y781050D02*
G54D12*
D03*
X633412Y781050D02*
G54D12*
D03*
X633412Y784225D02*
G54D12*
D03*
X633412Y787400D02*
G54D12*
D03*
X636588Y787400D02*
G54D12*
D03*
X646112Y736600D02*
G54D12*
D03*
X646112Y742950D02*
G54D12*
D03*
X642938Y746125D02*
G54D12*
D03*
X627062Y762000D02*
G54D12*
D03*
X623888Y765175D02*
G54D12*
D03*
X617538Y765175D02*
G54D12*
D03*
X608012Y762000D02*
G54D12*
D03*
X608012Y765175D02*
G54D12*
D03*
X608012Y768350D02*
G54D12*
D03*
X608012Y771525D02*
G54D12*
D03*
X608012Y774700D02*
G54D12*
D03*
X604838Y768350D02*
G54D12*
D03*
X601662Y768350D02*
G54D12*
D03*
X598488Y768350D02*
G54D12*
D03*
X595312Y768350D02*
G54D12*
D03*
X592138Y768350D02*
G54D12*
D03*
X588962Y765175D02*
G54D12*
D03*
X588962Y762000D02*
G54D12*
D03*
X592138Y758825D02*
G54D12*
D03*
X588962Y777875D02*
G54D12*
D03*
X592138Y781050D02*
G54D12*
D03*
X595312Y781050D02*
G54D12*
D03*
X598488Y781050D02*
G54D12*
D03*
X601662Y781050D02*
G54D12*
D03*
X588962Y784225D02*
G54D12*
D03*
X588962Y787400D02*
G54D12*
D03*
X588962Y790575D02*
G54D12*
D03*
X592138Y790575D02*
G54D12*
D03*
X595312Y790575D02*
G54D12*
D03*
X598488Y790575D02*
G54D12*
D03*
X601662Y790575D02*
G54D12*
D03*
X604838Y796925D02*
G54D12*
D03*
X598488Y796925D02*
G54D12*
D03*
X595312Y796925D02*
G54D12*
D03*
X592138Y796925D02*
G54D12*
D03*
X588962Y796925D02*
G54D12*
D03*
X592138Y803275D02*
G54D12*
D03*
X595312Y803275D02*
G54D12*
D03*
X598488Y803275D02*
G54D12*
D03*
X601662Y806450D02*
G54D12*
D03*
X601662Y809625D02*
G54D12*
D03*
X588962Y806450D02*
G54D12*
D03*
X588962Y809625D02*
G54D12*
D03*
X588962Y812800D02*
G54D12*
D03*
X601662Y812800D02*
G54D12*
D03*
X592138Y819150D02*
G54D12*
D03*
X595312Y819150D02*
G54D12*
D03*
X598488Y819150D02*
G54D12*
D03*
X601662Y822325D02*
G54D12*
D03*
X601662Y825500D02*
G54D12*
D03*
X601662Y828675D02*
G54D12*
D03*
X588962Y822325D02*
G54D12*
D03*
X588962Y825500D02*
G54D12*
D03*
X588962Y828675D02*
G54D12*
D03*
X598488Y831850D02*
G54D12*
D03*
X595312Y831850D02*
G54D12*
D03*
X595312Y828675D02*
G54D12*
D03*
X595312Y825500D02*
G54D12*
D03*
X595312Y822325D02*
G54D12*
D03*
X608012Y730250D02*
G54D12*
D03*
X604838Y733425D02*
G54D12*
D03*
X608012Y736600D02*
G54D12*
D03*
X611188Y733425D02*
G54D12*
D03*
X604838Y742950D02*
G54D12*
D03*
X614362Y720725D02*
G54D12*
D03*
X614362Y749300D02*
G54D12*
D03*
X595312Y733425D02*
G54D12*
D03*
X611188Y717550D02*
G54D12*
D03*
X627062Y777875D02*
G54D12*
D03*
X627062Y781050D02*
G54D12*
D03*
X627062Y784225D02*
G54D12*
D03*
X627062Y787400D02*
G54D12*
D03*
X627062Y790575D02*
G54D12*
D03*
X623888Y790575D02*
G54D12*
D03*
X620712Y790575D02*
G54D12*
D03*
X617538Y787400D02*
G54D12*
D03*
X614362Y784225D02*
G54D12*
D03*
X611188Y781050D02*
G54D12*
D03*
X633412Y793750D02*
G54D12*
D03*
X630238Y793750D02*
G54D12*
D03*
X630238Y796925D02*
G54D12*
D03*
X633412Y796925D02*
G54D12*
D03*
X627062Y800100D02*
G54D12*
D03*
X627062Y803275D02*
G54D12*
D03*
X627062Y806450D02*
G54D12*
D03*
X627062Y809625D02*
G54D12*
D03*
X627062Y812800D02*
G54D12*
D03*
X620712Y800100D02*
G54D12*
D03*
X620712Y803275D02*
G54D12*
D03*
X620712Y806450D02*
G54D12*
D03*
X620712Y809625D02*
G54D12*
D03*
X620712Y812800D02*
G54D12*
D03*
X617538Y812800D02*
G54D12*
D03*
X614362Y809625D02*
G54D12*
D03*
X611188Y806450D02*
G54D12*
D03*
X611188Y800100D02*
G54D12*
D03*
X611188Y803275D02*
G54D12*
D03*
X627062Y819150D02*
G54D12*
D03*
X627062Y822325D02*
G54D12*
D03*
X627062Y825500D02*
G54D12*
D03*
X627062Y828675D02*
G54D12*
D03*
X627062Y831850D02*
G54D12*
D03*
X623888Y831850D02*
G54D12*
D03*
X620712Y828675D02*
G54D12*
D03*
X617538Y825500D02*
G54D12*
D03*
X614362Y822325D02*
G54D12*
D03*
X611188Y819150D02*
G54D12*
D03*
X614362Y828675D02*
G54D12*
D03*
X611188Y831850D02*
G54D12*
D03*
X639762Y739775D02*
G54D12*
D03*
X636588Y736600D02*
G54D12*
D03*
G54D13*
X641032Y805942D02*
X639921Y807942D01*
X638810Y808608D01*
X636588Y808608D01*
G54D13*
X636588Y803275D02*
X645476Y803275D01*
X645476Y806608D01*
X644921Y807942D01*
X643810Y808608D01*
X642699Y808608D01*
X641588Y807942D01*
X641032Y806608D01*
X641032Y803275D01*
G54D13*
X637143Y815052D02*
X636588Y813985D01*
X636588Y812652D01*
X637143Y811319D01*
X638254Y811052D01*
X640143Y811052D01*
X641254Y811719D01*
X641588Y813052D01*
X641254Y814385D01*
X640476Y815052D01*
X639365Y815052D01*
X639365Y811052D01*
G54D13*
X641588Y817496D02*
X636588Y820163D01*
X641588Y822829D01*
G54D13*
X636588Y825273D02*
X636588Y825273D01*
G54D13*
X636588Y833050D02*
X636588Y827717D01*
X637143Y827717D01*
X638254Y828384D01*
X641588Y832384D01*
X642699Y833050D01*
X643810Y833050D01*
X644921Y832384D01*
X645476Y831050D01*
X645476Y829717D01*
X644921Y828384D01*
X643810Y827717D01*
G54D13*
X636588Y835494D02*
X636588Y835494D01*
G54D13*
X643810Y843271D02*
X638254Y843271D01*
X637143Y842605D01*
X636588Y841271D01*
X636588Y839938D01*
X637143Y838605D01*
X638254Y837938D01*
X643810Y837938D01*
X644921Y838605D01*
X645476Y839938D01*
X645476Y841271D01*
X644921Y842605D01*
X643810Y843271D01*
X614362Y708025D02*
G54D12*
D03*
X588962Y733425D02*
G54D12*
D03*
X512762Y736203D02*
G54D14*
D03*
X512762Y740966D02*
G54D14*
D03*
X512762Y745728D02*
G54D14*
D03*
X512762Y750491D02*
G54D14*
D03*
X512762Y755253D02*
G54D14*
D03*
X512762Y760016D02*
G54D14*
D03*
X512762Y764778D02*
G54D14*
D03*
X512762Y769541D02*
G54D14*
D03*
X498475Y721916D02*
G54D14*
D03*
X493712Y721916D02*
G54D14*
D03*
X488950Y721916D02*
G54D14*
D03*
X484188Y721916D02*
G54D14*
D03*
X479425Y721916D02*
G54D14*
D03*
X474662Y721916D02*
G54D14*
D03*
X469900Y721916D02*
G54D14*
D03*
X465138Y721916D02*
G54D14*
D03*
X460375Y721916D02*
G54D14*
D03*
X455612Y721916D02*
G54D14*
D03*
X450850Y717153D02*
G54D14*
D03*
X446087Y717153D02*
G54D14*
D03*
X441325Y717153D02*
G54D14*
D03*
X441325Y712391D02*
G54D14*
D03*
X446088Y726678D02*
G54D14*
D03*
X441325Y726678D02*
G54D14*
D03*
X441325Y731441D02*
G54D14*
D03*
X446088Y736203D02*
G54D14*
D03*
X446088Y740966D02*
G54D14*
D03*
X446088Y745728D02*
G54D14*
D03*
X441325Y745728D02*
G54D14*
D03*
X441325Y750491D02*
G54D14*
D03*
X488950Y779066D02*
G54D14*
D03*
X493712Y779066D02*
G54D14*
D03*
X498475Y779066D02*
G54D14*
D03*
X503238Y779066D02*
G54D14*
D03*
X508000Y774303D02*
G54D14*
D03*
X498475Y736203D02*
G54D14*
D03*
X503238Y740966D02*
G54D14*
D03*
X503238Y745728D02*
G54D14*
D03*
X503238Y750491D02*
G54D14*
D03*
X503238Y755253D02*
G54D14*
D03*
X498475Y760016D02*
G54D14*
D03*
X493712Y740966D02*
G54D14*
D03*
X493712Y745728D02*
G54D14*
D03*
X493712Y750491D02*
G54D14*
D03*
X493712Y755253D02*
G54D14*
D03*
X498475Y745728D02*
G54D14*
D03*
X498475Y750491D02*
G54D14*
D03*
X446088Y721916D02*
G54D14*
D03*
X484188Y774303D02*
G54D14*
D03*
X484188Y769541D02*
G54D14*
D03*
X479425Y760016D02*
G54D14*
D03*
X479425Y764778D02*
G54D14*
D03*
X479425Y755253D02*
G54D14*
D03*
X474662Y755253D02*
G54D14*
D03*
X469900Y755253D02*
G54D14*
D03*
X465138Y755253D02*
G54D14*
D03*
X460375Y755253D02*
G54D14*
D03*
X455612Y755253D02*
G54D14*
D03*
X450850Y755253D02*
G54D14*
D03*
X446088Y755253D02*
G54D14*
D03*
X512762Y731441D02*
G54D14*
D03*
X508000Y726678D02*
G54D14*
D03*
X503238Y721916D02*
G54D14*
D03*
G54D10*
X388887Y707824D02*
X386999Y706691D01*
X386054Y704424D01*
X386054Y702158D01*
X386999Y699891D01*
X388887Y698758D01*
X398332Y698758D01*
X400221Y699891D01*
X401165Y702158D01*
X401165Y704424D01*
X400221Y706691D01*
X398332Y707824D01*
G54D10*
X386054Y711981D02*
X401165Y711981D01*
G54D10*
X392099Y711981D02*
X393987Y713114D01*
X394554Y715381D01*
X393987Y717648D01*
X392099Y718781D01*
X386054Y718781D01*
G54D10*
X386054Y722937D02*
X394554Y722937D01*
G54D10*
X397387Y722937D02*
X397387Y722937D01*
G54D10*
X394554Y727093D02*
X382276Y727093D01*
G54D10*
X388887Y727093D02*
X386432Y728226D01*
X386054Y730493D01*
X386432Y732760D01*
X388321Y733893D01*
X392099Y733893D01*
X393987Y732760D01*
X394554Y730493D01*
X393987Y728226D01*
X391721Y727093D01*
G54D10*
X386054Y742582D02*
X401165Y742582D01*
G54D10*
X401165Y738049D02*
X401165Y747116D01*
G54D10*
X386999Y758072D02*
X386054Y756258D01*
X386054Y753992D01*
X386999Y751725D01*
X388887Y751272D01*
X392099Y751272D01*
X393987Y752405D01*
X394554Y754672D01*
X393987Y756938D01*
X392665Y758072D01*
X390776Y758072D01*
X390776Y751272D01*
G54D10*
X393987Y767894D02*
X394554Y765628D01*
X393987Y763361D01*
X392099Y762228D01*
X388321Y762228D01*
X386432Y763361D01*
X386054Y765628D01*
X386432Y767894D01*
G54D10*
X386054Y772051D02*
X401165Y772051D01*
G54D10*
X392099Y772051D02*
X393987Y773184D01*
X394554Y775451D01*
X393987Y777718D01*
X392099Y778851D01*
X386054Y778851D01*
G54D10*
X386054Y783007D02*
X394554Y783007D01*
G54D10*
X392665Y783007D02*
X393987Y784140D01*
X394554Y786407D01*
X393987Y788674D01*
X392665Y789807D01*
X386054Y789807D01*
G54D10*
X388321Y800763D02*
X392099Y800763D01*
X393987Y799630D01*
X394554Y797363D01*
X393987Y795096D01*
X392099Y793963D01*
X388321Y793963D01*
X386432Y795096D01*
X386054Y797363D01*
X386432Y799630D01*
X388321Y800763D01*
G54D10*
X386054Y804919D02*
X401165Y813986D01*
G54D10*
X401165Y827208D02*
X388887Y827208D01*
X386999Y826075D01*
X386054Y823808D01*
X386054Y821542D01*
X386999Y819275D01*
X388887Y818142D01*
G54D10*
X394554Y838165D02*
X386054Y838165D01*
G54D10*
X387943Y838165D02*
X386432Y837032D01*
X386054Y834765D01*
X386432Y832498D01*
X387943Y831365D01*
X394554Y831365D01*
G54D10*
X386054Y842321D02*
X394554Y842321D01*
G54D10*
X397387Y842321D02*
X397387Y842321D01*
G54D10*
X393987Y852144D02*
X394554Y849877D01*
X393987Y847610D01*
X392099Y846477D01*
X388321Y846477D01*
X386432Y847610D01*
X386054Y849877D01*
X386432Y852144D01*
G54D10*
X386999Y863100D02*
X386054Y861286D01*
X386054Y859020D01*
X386999Y856753D01*
X388887Y856300D01*
X392099Y856300D01*
X393987Y857433D01*
X394554Y859700D01*
X393987Y861966D01*
X392665Y863100D01*
X390776Y863100D01*
X390776Y856300D01*
G54D10*
X392665Y867256D02*
X392665Y876322D01*
G54D10*
X394554Y880479D02*
X382276Y880479D01*
G54D10*
X388887Y880479D02*
X386432Y881612D01*
X386054Y883879D01*
X386432Y886146D01*
X388321Y887279D01*
X392099Y887279D01*
X393987Y886146D01*
X394554Y883879D01*
X393987Y881612D01*
X391721Y880479D01*
G54D10*
X386054Y891435D02*
X401165Y891435D01*
G54D10*
X394554Y902391D02*
X386054Y902391D01*
G54D10*
X387943Y902391D02*
X386432Y901258D01*
X386054Y898991D01*
X386432Y896724D01*
X387943Y895591D01*
X394554Y895591D01*
G54D10*
X386999Y906547D02*
X386054Y908814D01*
X386054Y911080D01*
X386999Y913347D01*
X388887Y913347D01*
X389832Y912214D01*
X390776Y907680D01*
X391721Y906547D01*
X393610Y906547D01*
X394554Y908814D01*
X394554Y911080D01*
X393610Y913347D01*
G54D10*
X741654Y590808D02*
X756765Y590808D01*
G54D10*
X747699Y590808D02*
X749588Y591941D01*
X750154Y594208D01*
X749588Y596474D01*
X747699Y597608D01*
X741654Y597608D01*
G54D10*
X756765Y604030D02*
X742599Y604030D01*
X741654Y605164D01*
X742032Y606297D01*
G54D10*
X750154Y601764D02*
X750154Y606297D01*
G54D10*
X756765Y612720D02*
X742599Y612720D01*
X741654Y613853D01*
X742032Y614986D01*
G54D10*
X750154Y610453D02*
X750154Y614986D01*
G54D10*
X750154Y619142D02*
X737876Y619142D01*
G54D10*
X744488Y619142D02*
X742032Y620275D01*
X741654Y622542D01*
X742032Y624808D01*
X743921Y625942D01*
X747699Y625942D01*
X749588Y624808D01*
X750154Y622542D01*
X749588Y620275D01*
X747321Y619142D01*
G54D10*
X742599Y630098D02*
X741654Y632364D01*
X741654Y634631D01*
X742599Y636898D01*
X744488Y636898D01*
X745432Y635764D01*
X746376Y631231D01*
X747321Y630098D01*
X749210Y630098D01*
X750154Y632364D01*
X750154Y634631D01*
X749210Y636898D01*
G54D10*
X741654Y641054D02*
X741654Y641054D01*
G54D10*
X750154Y641054D02*
X750154Y641054D01*
G54D10*
X741654Y645210D02*
X756765Y654276D01*
G54D10*
X741654Y658433D02*
X756765Y667500D01*
G54D10*
X738821Y671656D02*
X737876Y673922D01*
X737876Y675509D01*
X738821Y677776D01*
X740710Y678456D01*
X750154Y678456D01*
G54D10*
X747699Y678456D02*
X749588Y677322D01*
X750154Y675056D01*
X749588Y672789D01*
X747699Y671656D01*
X743921Y671656D01*
X742032Y672789D01*
X741654Y675056D01*
X742032Y677322D01*
X743921Y678456D01*
G54D10*
X741654Y682612D02*
X750154Y682612D01*
G54D10*
X752988Y682612D02*
X752988Y682612D01*
G54D10*
X756765Y689034D02*
X742599Y689034D01*
X741654Y690168D01*
X742032Y691301D01*
G54D10*
X750154Y686768D02*
X750154Y691301D01*
G54D10*
X741654Y695457D02*
X756765Y695457D01*
G54D10*
X747699Y695457D02*
X749588Y696590D01*
X750154Y698857D01*
X749588Y701124D01*
X747699Y702257D01*
X741654Y702257D01*
G54D10*
X750154Y713213D02*
X741654Y713213D01*
G54D10*
X743543Y713213D02*
X742032Y712080D01*
X741654Y709813D01*
X742032Y707546D01*
X743543Y706413D01*
X750154Y706413D01*
G54D10*
X741654Y717369D02*
X756765Y717369D01*
G54D10*
X747699Y717369D02*
X749588Y718502D01*
X750154Y720769D01*
X749588Y723036D01*
X747699Y724169D01*
X743921Y724169D01*
X742032Y723036D01*
X741654Y720769D01*
X742032Y718502D01*
X743921Y717369D01*
G54D10*
X741654Y728325D02*
X741654Y728325D01*
G54D10*
X749588Y738148D02*
X750154Y735881D01*
X749588Y733614D01*
X747699Y732481D01*
X743921Y732481D01*
X742032Y733614D01*
X741654Y735881D01*
X742032Y738148D01*
G54D10*
X743921Y749104D02*
X747699Y749104D01*
X749588Y747970D01*
X750154Y745704D01*
X749588Y743437D01*
X747699Y742304D01*
X743921Y742304D01*
X742032Y743437D01*
X741654Y745704D01*
X742032Y747970D01*
X743921Y749104D01*
G54D10*
X741654Y753260D02*
X750154Y753260D01*
G54D10*
X748643Y753260D02*
X750154Y755526D01*
X749588Y757793D01*
X748265Y758926D01*
X741654Y758926D01*
G54D10*
X748643Y758926D02*
X750154Y761193D01*
X749588Y763460D01*
X748265Y764593D01*
X741654Y764593D01*
G54D10*
X741654Y768749D02*
X756765Y777816D01*
G54D11*
X825504Y838952D02*
X825505Y827839D01*
X815186Y825458D01*
X812011Y817917D01*
X817964Y808789D01*
X810820Y800852D01*
X802883Y807202D01*
X794945Y803630D01*
X793358Y792517D01*
X782642Y792517D01*
X781452Y802439D01*
X773117Y806011D01*
X765576Y800852D01*
X758036Y808392D01*
X763592Y817123D01*
X760814Y821489D01*
X777483Y829030D01*
G54D11*
X777483Y837761D02*
X761211Y845302D01*
X763195Y849667D01*
X757639Y858002D01*
X765180Y866336D01*
X773117Y860383D01*
X781452Y863955D01*
X782642Y874273D01*
X793358Y873876D01*
X795342Y863161D01*
X801692Y860383D01*
X810026Y866336D01*
X817567Y858398D01*
X812011Y849270D01*
X815186Y840539D01*
X825504Y838952D01*
G54D11*
G75*
G01X778167Y829299D02*
G03X778167Y837504I9666J4103D01*
G01*
G36*
X793358Y873876D02*
X795342Y863161D01*
X801692Y860383D01*
X810026Y866336D01*
X817567Y858398D01*
X812011Y849270D01*
X815186Y840539D01*
X825504Y838952D01*
X825505Y827839D01*
X815186Y825458D01*
X812011Y817917D01*
X817964Y808789D01*
X810820Y800852D01*
X802883Y807202D01*
X794945Y803630D01*
X793358Y792517D01*
X782642Y792517D01*
X781452Y802439D01*
X773117Y806011D01*
X765576Y800852D01*
X758036Y808392D01*
X763592Y817123D01*
X760814Y821489D01*
X778276Y829426D01*
X778673Y828236D01*
X779467Y827045D01*
X781848Y824664D01*
X785023Y823076D01*
X787008Y822680D01*
X788595Y822680D01*
X790976Y823076D01*
X793754Y824267D01*
X796533Y826648D01*
X797723Y828633D01*
X798517Y830617D01*
X798914Y832998D01*
X798517Y835380D01*
X797723Y838555D01*
X795342Y841333D01*
X791373Y844111D01*
X785023Y844111D01*
X782642Y842920D01*
X780261Y841333D01*
X778276Y838952D01*
X778276Y837364D01*
X761211Y845302D01*
X763195Y849667D01*
X757639Y858002D01*
X765180Y866336D01*
X773117Y860383D01*
X793358Y873876D01*
G37*
G54D11*
X793358Y873876D02*
X795342Y863161D01*
X801692Y860383D01*
X810026Y866336D01*
X817567Y858398D01*
X812011Y849270D01*
X815186Y840539D01*
X825504Y838952D01*
X825505Y827839D01*
X815186Y825458D01*
X812011Y817917D01*
X817964Y808789D01*
X810820Y800852D01*
X802883Y807202D01*
X794945Y803630D01*
X793358Y792517D01*
X782642Y792517D01*
X781452Y802439D01*
X773117Y806011D01*
X765576Y800852D01*
X758036Y808392D01*
X763592Y817123D01*
X760814Y821489D01*
X778276Y829426D01*
X778673Y828236D01*
X779467Y827045D01*
X781848Y824664D01*
X785023Y823076D01*
X787008Y822680D01*
X788595Y822680D01*
X790976Y823076D01*
X793754Y824267D01*
X796533Y826648D01*
X797723Y828633D01*
X798517Y830617D01*
X798914Y832998D01*
X798517Y835380D01*
X797723Y838555D01*
X795342Y841333D01*
X791373Y844111D01*
X785023Y844111D01*
X782642Y842920D01*
X780261Y841333D01*
X778276Y838952D01*
X778276Y837364D01*
X761211Y845302D01*
X763195Y849667D01*
X757639Y858002D01*
X765180Y866336D01*
X773117Y860383D01*
X793358Y873876D01*
G36*
X793358Y873876D02*
X782642Y874273D01*
X781452Y863955D01*
X793358Y873876D01*
G37*
G54D11*
X793358Y873876D02*
X782642Y874273D01*
X781452Y863955D01*
X793358Y873876D01*
G54D10*
X746831Y816659D02*
X737387Y816659D01*
X735498Y815526D01*
X734554Y813259D01*
X734554Y810993D01*
X735498Y808726D01*
X737387Y807593D01*
X746831Y807593D01*
X748720Y808726D01*
X749665Y810993D01*
X749665Y813259D01*
X748720Y815526D01*
X746831Y816659D01*
G54D10*
X737387Y820816D02*
X735498Y821949D01*
X734554Y824216D01*
X734554Y826482D01*
X735498Y828749D01*
X737387Y829882D01*
X739276Y829882D01*
X741165Y828749D01*
X742109Y826482D01*
X742109Y824216D01*
X743054Y821949D01*
X744942Y820816D01*
X746831Y820816D01*
X748720Y821949D01*
X749665Y824216D01*
X749665Y826482D01*
X748720Y828749D01*
X746831Y829882D01*
G54D10*
X734554Y834039D02*
X749665Y834039D01*
G54D10*
X734554Y843105D02*
X749665Y843105D01*
G54D10*
X742109Y834039D02*
X742109Y843105D01*
G54D10*
X749665Y847262D02*
X734554Y847262D01*
X743998Y852928D01*
X734554Y858595D01*
X749665Y858595D01*
X941388Y708025D02*
G54D12*
D03*
X938212Y711200D02*
G54D12*
D03*
X935038Y714375D02*
G54D12*
D03*
X931862Y717550D02*
G54D12*
D03*
X947738Y708025D02*
G54D12*
D03*
X950912Y711200D02*
G54D12*
D03*
X954088Y714375D02*
G54D12*
D03*
X957262Y717550D02*
G54D12*
D03*
X960438Y720725D02*
G54D12*
D03*
X928688Y720725D02*
G54D12*
D03*
X925512Y723900D02*
G54D12*
D03*
X922338Y727075D02*
G54D12*
D03*
X919162Y730250D02*
G54D12*
D03*
X919162Y736600D02*
G54D12*
D03*
X922338Y739775D02*
G54D12*
D03*
X925512Y742950D02*
G54D12*
D03*
X928688Y746125D02*
G54D12*
D03*
X931862Y749300D02*
G54D12*
D03*
X935038Y752475D02*
G54D12*
D03*
X938212Y755650D02*
G54D12*
D03*
X941388Y758825D02*
G54D12*
D03*
X944562Y762000D02*
G54D12*
D03*
X963612Y723900D02*
G54D12*
D03*
X966788Y727075D02*
G54D12*
D03*
X969962Y730250D02*
G54D12*
D03*
X973138Y733425D02*
G54D12*
D03*
X969962Y749300D02*
G54D12*
D03*
X960438Y758825D02*
G54D12*
D03*
X963612Y762000D02*
G54D12*
D03*
X973138Y752475D02*
G54D12*
D03*
X979488Y752475D02*
G54D12*
D03*
X982662Y755650D02*
G54D12*
D03*
X979488Y758825D02*
G54D12*
D03*
X976312Y762000D02*
G54D12*
D03*
X973138Y765175D02*
G54D12*
D03*
X969962Y768350D02*
G54D12*
D03*
X966788Y771525D02*
G54D12*
D03*
X963612Y768350D02*
G54D12*
D03*
X950912Y717550D02*
G54D12*
D03*
X950912Y720725D02*
G54D12*
D03*
X954088Y723900D02*
G54D12*
D03*
X950912Y727075D02*
G54D12*
D03*
X950912Y730250D02*
G54D12*
D03*
X950912Y733425D02*
G54D12*
D03*
X947738Y736600D02*
G54D12*
D03*
X947738Y739775D02*
G54D12*
D03*
X950912Y742950D02*
G54D12*
D03*
X950912Y746125D02*
G54D12*
D03*
X950912Y749300D02*
G54D12*
D03*
X950912Y752475D02*
G54D12*
D03*
X950912Y755650D02*
G54D12*
D03*
X947738Y758825D02*
G54D12*
D03*
X976312Y774700D02*
G54D12*
D03*
X973138Y774700D02*
G54D12*
D03*
X969962Y774700D02*
G54D12*
D03*
X969962Y777875D02*
G54D12*
D03*
X976312Y777875D02*
G54D12*
D03*
X976312Y781050D02*
G54D12*
D03*
X979488Y781050D02*
G54D12*
D03*
X982662Y781050D02*
G54D12*
D03*
X982662Y784225D02*
G54D12*
D03*
X982662Y787400D02*
G54D12*
D03*
X979488Y787400D02*
G54D12*
D03*
X976312Y787400D02*
G54D12*
D03*
X976312Y790575D02*
G54D12*
D03*
X976312Y793750D02*
G54D12*
D03*
X973138Y793750D02*
G54D12*
D03*
X969962Y793750D02*
G54D12*
D03*
X969962Y790575D02*
G54D12*
D03*
X969962Y787400D02*
G54D12*
D03*
X969962Y781050D02*
G54D12*
D03*
X966788Y781050D02*
G54D12*
D03*
X963612Y781050D02*
G54D12*
D03*
X963612Y784225D02*
G54D12*
D03*
X963612Y787400D02*
G54D12*
D03*
X966788Y787400D02*
G54D12*
D03*
X976312Y736600D02*
G54D12*
D03*
X976312Y742950D02*
G54D12*
D03*
X973138Y746125D02*
G54D12*
D03*
X957262Y762000D02*
G54D12*
D03*
X954088Y765175D02*
G54D12*
D03*
X947738Y765175D02*
G54D12*
D03*
X938212Y762000D02*
G54D12*
D03*
X938212Y765175D02*
G54D12*
D03*
X938212Y768350D02*
G54D12*
D03*
X938212Y771525D02*
G54D12*
D03*
X938212Y774700D02*
G54D12*
D03*
X935038Y768350D02*
G54D12*
D03*
X931862Y768350D02*
G54D12*
D03*
X928688Y768350D02*
G54D12*
D03*
X925512Y768350D02*
G54D12*
D03*
X922338Y768350D02*
G54D12*
D03*
X919162Y765175D02*
G54D12*
D03*
X919162Y762000D02*
G54D12*
D03*
X922338Y758825D02*
G54D12*
D03*
X919162Y777875D02*
G54D12*
D03*
X922338Y781050D02*
G54D12*
D03*
X925512Y781050D02*
G54D12*
D03*
X928688Y781050D02*
G54D12*
D03*
X931862Y781050D02*
G54D12*
D03*
X919162Y784225D02*
G54D12*
D03*
X919162Y787400D02*
G54D12*
D03*
X919162Y790575D02*
G54D12*
D03*
X922338Y790575D02*
G54D12*
D03*
X925512Y790575D02*
G54D12*
D03*
X928688Y790575D02*
G54D12*
D03*
X931862Y790575D02*
G54D12*
D03*
X935038Y796925D02*
G54D12*
D03*
X928688Y796925D02*
G54D12*
D03*
X925512Y796925D02*
G54D12*
D03*
X922338Y796925D02*
G54D12*
D03*
X919162Y796925D02*
G54D12*
D03*
X922338Y803275D02*
G54D12*
D03*
X925512Y803275D02*
G54D12*
D03*
X928688Y803275D02*
G54D12*
D03*
X931862Y806450D02*
G54D12*
D03*
X931862Y809625D02*
G54D12*
D03*
X919162Y806450D02*
G54D12*
D03*
X919162Y809625D02*
G54D12*
D03*
X919162Y812800D02*
G54D12*
D03*
X931862Y812800D02*
G54D12*
D03*
X922338Y819150D02*
G54D12*
D03*
X925512Y819150D02*
G54D12*
D03*
X928688Y819150D02*
G54D12*
D03*
X931862Y822325D02*
G54D12*
D03*
X931862Y825500D02*
G54D12*
D03*
X931862Y828675D02*
G54D12*
D03*
X919162Y822325D02*
G54D12*
D03*
X919162Y825500D02*
G54D12*
D03*
X919162Y828675D02*
G54D12*
D03*
X928688Y831850D02*
G54D12*
D03*
X925512Y831850D02*
G54D12*
D03*
X925512Y828675D02*
G54D12*
D03*
X925512Y825500D02*
G54D12*
D03*
X925512Y822325D02*
G54D12*
D03*
X938212Y730250D02*
G54D12*
D03*
X935038Y733425D02*
G54D12*
D03*
X938212Y736600D02*
G54D12*
D03*
X941388Y733425D02*
G54D12*
D03*
X935038Y742950D02*
G54D12*
D03*
X944562Y720725D02*
G54D12*
D03*
X944562Y749300D02*
G54D12*
D03*
X925512Y733425D02*
G54D12*
D03*
X941388Y717550D02*
G54D12*
D03*
X957262Y777875D02*
G54D12*
D03*
X957262Y781050D02*
G54D12*
D03*
X957262Y784225D02*
G54D12*
D03*
X957262Y787400D02*
G54D12*
D03*
X957262Y790575D02*
G54D12*
D03*
X954088Y790575D02*
G54D12*
D03*
X950912Y790575D02*
G54D12*
D03*
X947738Y787400D02*
G54D12*
D03*
X944562Y784225D02*
G54D12*
D03*
X941388Y781050D02*
G54D12*
D03*
X963612Y793750D02*
G54D12*
D03*
X960438Y793750D02*
G54D12*
D03*
X960438Y796925D02*
G54D12*
D03*
X963612Y796925D02*
G54D12*
D03*
X957262Y800100D02*
G54D12*
D03*
X957262Y803275D02*
G54D12*
D03*
X957262Y806450D02*
G54D12*
D03*
X957262Y809625D02*
G54D12*
D03*
X957262Y812800D02*
G54D12*
D03*
X950912Y800100D02*
G54D12*
D03*
X950912Y803275D02*
G54D12*
D03*
X950912Y806450D02*
G54D12*
D03*
X950912Y809625D02*
G54D12*
D03*
X950912Y812800D02*
G54D12*
D03*
X947738Y812800D02*
G54D12*
D03*
X944562Y809625D02*
G54D12*
D03*
X941388Y806450D02*
G54D12*
D03*
X941388Y800100D02*
G54D12*
D03*
X941388Y803275D02*
G54D12*
D03*
X957262Y819150D02*
G54D12*
D03*
X957262Y822325D02*
G54D12*
D03*
X957262Y825500D02*
G54D12*
D03*
X957262Y828675D02*
G54D12*
D03*
X957262Y831850D02*
G54D12*
D03*
X954088Y831850D02*
G54D12*
D03*
X950912Y828675D02*
G54D12*
D03*
X947738Y825500D02*
G54D12*
D03*
X944562Y822325D02*
G54D12*
D03*
X941388Y819150D02*
G54D12*
D03*
X944562Y828675D02*
G54D12*
D03*
X941388Y831850D02*
G54D12*
D03*
X969962Y739775D02*
G54D12*
D03*
X966788Y736600D02*
G54D12*
D03*
G54D13*
X971232Y805942D02*
X970121Y807942D01*
X969010Y808608D01*
X966788Y808608D01*
G54D13*
X966788Y803275D02*
X975676Y803275D01*
X975676Y806608D01*
X975121Y807942D01*
X974010Y808608D01*
X972899Y808608D01*
X971788Y807942D01*
X971232Y806608D01*
X971232Y803275D01*
G54D13*
X967343Y815052D02*
X966788Y813985D01*
X966788Y812652D01*
X967343Y811319D01*
X968454Y811052D01*
X970343Y811052D01*
X971454Y811719D01*
X971788Y813052D01*
X971454Y814385D01*
X970676Y815052D01*
X969565Y815052D01*
X969565Y811052D01*
G54D13*
X971788Y817496D02*
X966788Y820163D01*
X971788Y822829D01*
G54D13*
X966788Y825273D02*
X966788Y825273D01*
G54D13*
X966788Y833050D02*
X966788Y827717D01*
X967343Y827717D01*
X968454Y828384D01*
X971788Y832384D01*
X972899Y833050D01*
X974010Y833050D01*
X975121Y832384D01*
X975676Y831050D01*
X975676Y829717D01*
X975121Y828384D01*
X974010Y827717D01*
G54D13*
X966788Y835494D02*
X966788Y835494D01*
G54D13*
X974010Y843271D02*
X968454Y843271D01*
X967343Y842605D01*
X966788Y841271D01*
X966788Y839938D01*
X967343Y838605D01*
X968454Y837938D01*
X974010Y837938D01*
X975121Y838605D01*
X975676Y839938D01*
X975676Y841271D01*
X975121Y842605D01*
X974010Y843271D01*
X944562Y708025D02*
G54D12*
D03*
X919162Y733425D02*
G54D12*
D03*
X842962Y736203D02*
G54D14*
D03*
X842962Y740966D02*
G54D14*
D03*
X842962Y745728D02*
G54D14*
D03*
X842962Y750491D02*
G54D14*
D03*
X842962Y755253D02*
G54D14*
D03*
X842962Y760016D02*
G54D14*
D03*
X842962Y764778D02*
G54D14*
D03*
X842962Y769541D02*
G54D14*
D03*
X828675Y721916D02*
G54D14*
D03*
X823912Y721916D02*
G54D14*
D03*
X819150Y721916D02*
G54D14*
D03*
X814388Y721916D02*
G54D14*
D03*
X809625Y721916D02*
G54D14*
D03*
X804862Y721916D02*
G54D14*
D03*
X800100Y721916D02*
G54D14*
D03*
X795338Y721916D02*
G54D14*
D03*
X790575Y721916D02*
G54D14*
D03*
X785812Y721916D02*
G54D14*
D03*
X781050Y717153D02*
G54D14*
D03*
X776288Y717153D02*
G54D14*
D03*
X771525Y717153D02*
G54D14*
D03*
X771525Y712391D02*
G54D14*
D03*
X776288Y726678D02*
G54D14*
D03*
X771525Y726678D02*
G54D14*
D03*
X771525Y731441D02*
G54D14*
D03*
X776288Y736203D02*
G54D14*
D03*
X776288Y740966D02*
G54D14*
D03*
X776288Y745728D02*
G54D14*
D03*
X771525Y745728D02*
G54D14*
D03*
X771525Y750491D02*
G54D14*
D03*
X819150Y779066D02*
G54D14*
D03*
X823912Y779066D02*
G54D14*
D03*
X828675Y779066D02*
G54D14*
D03*
X833438Y779066D02*
G54D14*
D03*
X838200Y774303D02*
G54D14*
D03*
X828675Y736203D02*
G54D14*
D03*
X833438Y740966D02*
G54D14*
D03*
X833438Y745728D02*
G54D14*
D03*
X833438Y750491D02*
G54D14*
D03*
X833438Y755253D02*
G54D14*
D03*
X828675Y760016D02*
G54D14*
D03*
X823912Y740966D02*
G54D14*
D03*
X823912Y745728D02*
G54D14*
D03*
X823912Y750491D02*
G54D14*
D03*
X823912Y755253D02*
G54D14*
D03*
X828675Y745728D02*
G54D14*
D03*
X828675Y750491D02*
G54D14*
D03*
X776288Y721916D02*
G54D14*
D03*
X814388Y774303D02*
G54D14*
D03*
X814388Y769541D02*
G54D14*
D03*
X809625Y760016D02*
G54D14*
D03*
X809625Y764778D02*
G54D14*
D03*
X809625Y755253D02*
G54D14*
D03*
X804862Y755253D02*
G54D14*
D03*
X800100Y755253D02*
G54D14*
D03*
X795338Y755253D02*
G54D14*
D03*
X790575Y755253D02*
G54D14*
D03*
X785812Y755253D02*
G54D14*
D03*
X781050Y755253D02*
G54D14*
D03*
X776288Y755253D02*
G54D14*
D03*
X842962Y731441D02*
G54D14*
D03*
X838200Y726678D02*
G54D14*
D03*
X833438Y721916D02*
G54D14*
D03*
G54D10*
X719087Y707824D02*
X717199Y706691D01*
X716254Y704424D01*
X716254Y702158D01*
X717199Y699891D01*
X719087Y698758D01*
X728532Y698758D01*
X730421Y699891D01*
X731365Y702158D01*
X731365Y704424D01*
X730421Y706691D01*
X728532Y707824D01*
G54D10*
X716254Y711981D02*
X731365Y711981D01*
G54D10*
X722299Y711981D02*
X724187Y713114D01*
X724754Y715381D01*
X724187Y717648D01*
X722299Y718781D01*
X716254Y718781D01*
G54D10*
X716254Y722937D02*
X724754Y722937D01*
G54D10*
X727587Y722937D02*
X727587Y722937D01*
G54D10*
X724754Y727093D02*
X712476Y727093D01*
G54D10*
X719087Y727093D02*
X716632Y728226D01*
X716254Y730493D01*
X716632Y732760D01*
X718521Y733893D01*
X722299Y733893D01*
X724187Y732760D01*
X724754Y730493D01*
X724187Y728226D01*
X721921Y727093D01*
G54D10*
X716254Y742582D02*
X731365Y742582D01*
G54D10*
X731365Y738049D02*
X731365Y747116D01*
G54D10*
X717199Y758072D02*
X716254Y756258D01*
X716254Y753992D01*
X717199Y751725D01*
X719087Y751272D01*
X722299Y751272D01*
X724187Y752405D01*
X724754Y754672D01*
X724187Y756938D01*
X722865Y758072D01*
X720976Y758072D01*
X720976Y751272D01*
G54D10*
X724187Y767894D02*
X724754Y765628D01*
X724187Y763361D01*
X722299Y762228D01*
X718521Y762228D01*
X716632Y763361D01*
X716254Y765628D01*
X716632Y767894D01*
G54D10*
X716254Y772051D02*
X731365Y772051D01*
G54D10*
X722299Y772051D02*
X724187Y773184D01*
X724754Y775451D01*
X724187Y777718D01*
X722299Y778851D01*
X716254Y778851D01*
G54D10*
X716254Y783007D02*
X724754Y783007D01*
G54D10*
X722865Y783007D02*
X724187Y784140D01*
X724754Y786407D01*
X724187Y788674D01*
X722865Y789807D01*
X716254Y789807D01*
G54D10*
X718521Y800763D02*
X722299Y800763D01*
X724187Y799630D01*
X724754Y797363D01*
X724187Y795096D01*
X722299Y793963D01*
X718521Y793963D01*
X716632Y795096D01*
X716254Y797363D01*
X716632Y799630D01*
X718521Y800763D01*
G54D10*
X716254Y804919D02*
X731365Y813986D01*
G54D10*
X731365Y827208D02*
X719087Y827208D01*
X717199Y826075D01*
X716254Y823808D01*
X716254Y821542D01*
X717199Y819275D01*
X719087Y818142D01*
G54D10*
X724754Y838165D02*
X716254Y838165D01*
G54D10*
X718143Y838165D02*
X716632Y837032D01*
X716254Y834765D01*
X716632Y832498D01*
X718143Y831365D01*
X724754Y831365D01*
G54D10*
X716254Y842321D02*
X724754Y842321D01*
G54D10*
X727587Y842321D02*
X727587Y842321D01*
G54D10*
X724187Y852144D02*
X724754Y849877D01*
X724187Y847610D01*
X722299Y846477D01*
X718521Y846477D01*
X716632Y847610D01*
X716254Y849877D01*
X716632Y852144D01*
G54D10*
X717199Y863100D02*
X716254Y861286D01*
X716254Y859020D01*
X717199Y856753D01*
X719087Y856300D01*
X722299Y856300D01*
X724187Y857433D01*
X724754Y859700D01*
X724187Y861966D01*
X722865Y863100D01*
X720976Y863100D01*
X720976Y856300D01*
G54D10*
X722865Y867256D02*
X722865Y876322D01*
G54D10*
X724754Y880479D02*
X712476Y880479D01*
G54D10*
X719087Y880479D02*
X716632Y881612D01*
X716254Y883879D01*
X716632Y886146D01*
X718521Y887279D01*
X722299Y887279D01*
X724187Y886146D01*
X724754Y883879D01*
X724187Y881612D01*
X721921Y880479D01*
G54D10*
X716254Y891435D02*
X731365Y891435D01*
G54D10*
X724754Y902391D02*
X716254Y902391D01*
G54D10*
X718143Y902391D02*
X716632Y901258D01*
X716254Y898991D01*
X716632Y896724D01*
X718143Y895591D01*
X724754Y895591D01*
G54D10*
X717199Y906547D02*
X716254Y908814D01*
X716254Y911080D01*
X717199Y913347D01*
X719087Y913347D01*
X720032Y912214D01*
X720976Y907680D01*
X721921Y906547D01*
X723810Y906547D01*
X724754Y908814D01*
X724754Y911080D01*
X723810Y913347D01*
G54D10*
X81254Y174883D02*
X96365Y174883D01*
G54D10*
X87299Y174883D02*
X89188Y176016D01*
X89754Y178283D01*
X89188Y180550D01*
X87299Y181683D01*
X81254Y181683D01*
G54D10*
X96365Y188106D02*
X82199Y188106D01*
X81254Y189239D01*
X81632Y190372D01*
G54D10*
X89754Y185839D02*
X89754Y190372D01*
G54D10*
X96365Y196794D02*
X82199Y196794D01*
X81254Y197928D01*
X81632Y199061D01*
G54D10*
X89754Y194528D02*
X89754Y199061D01*
G54D10*
X89754Y203217D02*
X77476Y203217D01*
G54D10*
X84088Y203217D02*
X81632Y204350D01*
X81254Y206617D01*
X81632Y208884D01*
X83521Y210017D01*
X87299Y210017D01*
X89188Y208884D01*
X89754Y206617D01*
X89188Y204350D01*
X86921Y203217D01*
G54D10*
X82199Y214173D02*
X81254Y216440D01*
X81254Y218706D01*
X82199Y220973D01*
X84088Y220973D01*
X85032Y219840D01*
X85976Y215306D01*
X86921Y214173D01*
X88810Y214173D01*
X89754Y216440D01*
X89754Y218706D01*
X88810Y220973D01*
G54D10*
X81254Y225129D02*
X81254Y225129D01*
G54D10*
X89754Y225129D02*
X89754Y225129D01*
G54D10*
X81254Y229285D02*
X96365Y238352D01*
G54D10*
X81254Y242508D02*
X96365Y251574D01*
G54D10*
X78421Y255731D02*
X77476Y257998D01*
X77476Y259584D01*
X78421Y261851D01*
X80310Y262531D01*
X89754Y262531D01*
G54D10*
X87299Y262531D02*
X89188Y261398D01*
X89754Y259131D01*
X89188Y256864D01*
X87299Y255731D01*
X83521Y255731D01*
X81632Y256864D01*
X81254Y259131D01*
X81632Y261398D01*
X83521Y262531D01*
G54D10*
X81254Y266687D02*
X89754Y266687D01*
G54D10*
X92588Y266687D02*
X92588Y266687D01*
G54D10*
X96365Y273110D02*
X82199Y273110D01*
X81254Y274243D01*
X81632Y275376D01*
G54D10*
X89754Y270843D02*
X89754Y275376D01*
G54D10*
X81254Y279532D02*
X96365Y279532D01*
G54D10*
X87299Y279532D02*
X89188Y280665D01*
X89754Y282932D01*
X89188Y285198D01*
X87299Y286332D01*
X81254Y286332D01*
G54D10*
X89754Y297288D02*
X81254Y297288D01*
G54D10*
X83143Y297288D02*
X81632Y296154D01*
X81254Y293888D01*
X81632Y291621D01*
X83143Y290488D01*
X89754Y290488D01*
G54D10*
X81254Y301444D02*
X96365Y301444D01*
G54D10*
X87299Y301444D02*
X89188Y302577D01*
X89754Y304844D01*
X89188Y307110D01*
X87299Y308244D01*
X83521Y308244D01*
X81632Y307110D01*
X81254Y304844D01*
X81632Y302577D01*
X83521Y301444D01*
G54D10*
X81254Y312400D02*
X81254Y312400D01*
G54D10*
X89188Y322222D02*
X89754Y319956D01*
X89188Y317689D01*
X87299Y316556D01*
X83521Y316556D01*
X81632Y317689D01*
X81254Y319956D01*
X81632Y322222D01*
G54D10*
X83521Y333179D02*
X87299Y333179D01*
X89188Y332046D01*
X89754Y329779D01*
X89188Y327512D01*
X87299Y326379D01*
X83521Y326379D01*
X81632Y327512D01*
X81254Y329779D01*
X81632Y332046D01*
X83521Y333179D01*
G54D10*
X81254Y337335D02*
X89754Y337335D01*
G54D10*
X88243Y337335D02*
X89754Y339602D01*
X89188Y341868D01*
X87865Y343002D01*
X81254Y343002D01*
G54D10*
X88243Y343002D02*
X89754Y345268D01*
X89188Y347535D01*
X87865Y348668D01*
X81254Y348668D01*
G54D10*
X81254Y352824D02*
X96365Y361890D01*
G54D11*
X165104Y423026D02*
X165105Y411914D01*
X154786Y409533D01*
X151611Y401992D01*
X157564Y392864D01*
X150420Y384926D01*
X142483Y391276D01*
X134545Y387705D01*
X132958Y376592D01*
X122242Y376592D01*
X121052Y386514D01*
X112717Y390086D01*
X105176Y384926D01*
X97636Y392467D01*
X103192Y401198D01*
X100414Y405564D01*
X117083Y413105D01*
G54D11*
X117083Y421836D02*
X100811Y429376D01*
X102795Y433742D01*
X97239Y442076D01*
X104780Y450411D01*
X112717Y444458D01*
X121052Y448030D01*
X122242Y458348D01*
X132958Y457952D01*
X134942Y447236D01*
X141292Y444458D01*
X149626Y450411D01*
X157167Y442473D01*
X151611Y433345D01*
X154786Y424614D01*
X165104Y423026D01*
G54D11*
G75*
G01X117767Y413374D02*
G03X117767Y421579I9666J4102D01*
G01*
G36*
X132958Y457952D02*
X134942Y447236D01*
X141292Y444458D01*
X149626Y450411D01*
X157167Y442473D01*
X151611Y433345D01*
X154786Y424614D01*
X165104Y423026D01*
X165105Y411914D01*
X154786Y409533D01*
X151611Y401992D01*
X157564Y392864D01*
X150420Y384926D01*
X142483Y391276D01*
X134545Y387705D01*
X132958Y376592D01*
X122242Y376592D01*
X121052Y386514D01*
X112717Y390086D01*
X105176Y384926D01*
X97636Y392467D01*
X103192Y401198D01*
X100414Y405564D01*
X117876Y413502D01*
X118273Y412311D01*
X119067Y411120D01*
X121448Y408739D01*
X124623Y407152D01*
X126608Y406755D01*
X128195Y406755D01*
X130576Y407152D01*
X133354Y408342D01*
X136133Y410723D01*
X137323Y412708D01*
X138117Y414692D01*
X138514Y417073D01*
X138117Y419455D01*
X137323Y422630D01*
X134942Y425408D01*
X130973Y428186D01*
X124623Y428186D01*
X122242Y426995D01*
X119861Y425408D01*
X117876Y423026D01*
X117876Y421439D01*
X100811Y429376D01*
X102795Y433742D01*
X97239Y442076D01*
X104780Y450411D01*
X112717Y444458D01*
X132958Y457952D01*
G37*
G54D11*
X132958Y457952D02*
X134942Y447236D01*
X141292Y444458D01*
X149626Y450411D01*
X157167Y442473D01*
X151611Y433345D01*
X154786Y424614D01*
X165104Y423026D01*
X165105Y411914D01*
X154786Y409533D01*
X151611Y401992D01*
X157564Y392864D01*
X150420Y384926D01*
X142483Y391276D01*
X134545Y387705D01*
X132958Y376592D01*
X122242Y376592D01*
X121052Y386514D01*
X112717Y390086D01*
X105176Y384926D01*
X97636Y392467D01*
X103192Y401198D01*
X100414Y405564D01*
X117876Y413502D01*
X118273Y412311D01*
X119067Y411120D01*
X121448Y408739D01*
X124623Y407152D01*
X126608Y406755D01*
X128195Y406755D01*
X130576Y407152D01*
X133354Y408342D01*
X136133Y410723D01*
X137323Y412708D01*
X138117Y414692D01*
X138514Y417073D01*
X138117Y419455D01*
X137323Y422630D01*
X134942Y425408D01*
X130973Y428186D01*
X124623Y428186D01*
X122242Y426995D01*
X119861Y425408D01*
X117876Y423026D01*
X117876Y421439D01*
X100811Y429376D01*
X102795Y433742D01*
X97239Y442076D01*
X104780Y450411D01*
X112717Y444458D01*
X132958Y457952D01*
G36*
X132958Y457952D02*
X122242Y458348D01*
X121052Y448030D01*
X132958Y457952D01*
G37*
G54D11*
X132958Y457952D02*
X122242Y458348D01*
X121052Y448030D01*
X132958Y457952D01*
G54D10*
X86431Y400734D02*
X76987Y400734D01*
X75098Y399601D01*
X74154Y397334D01*
X74154Y395068D01*
X75098Y392801D01*
X76987Y391668D01*
X86431Y391668D01*
X88320Y392801D01*
X89265Y395068D01*
X89265Y397334D01*
X88320Y399601D01*
X86431Y400734D01*
G54D10*
X76987Y404891D02*
X75098Y406024D01*
X74154Y408291D01*
X74154Y410557D01*
X75098Y412824D01*
X76987Y413957D01*
X78876Y413957D01*
X80765Y412824D01*
X81709Y410557D01*
X81709Y408291D01*
X82654Y406024D01*
X84542Y404891D01*
X86431Y404891D01*
X88320Y406024D01*
X89265Y408291D01*
X89265Y410557D01*
X88320Y412824D01*
X86431Y413957D01*
G54D10*
X74154Y418114D02*
X89265Y418114D01*
G54D10*
X74154Y427180D02*
X89265Y427180D01*
G54D10*
X81709Y418114D02*
X81709Y427180D01*
G54D10*
X89265Y431337D02*
X74154Y431337D01*
X83598Y437003D01*
X74154Y442670D01*
X89265Y442670D01*
X280988Y292100D02*
G54D12*
D03*
X277812Y295275D02*
G54D12*
D03*
X274638Y298450D02*
G54D12*
D03*
X271462Y301625D02*
G54D12*
D03*
X287338Y292100D02*
G54D12*
D03*
X290512Y295275D02*
G54D12*
D03*
X293688Y298450D02*
G54D12*
D03*
X296862Y301625D02*
G54D12*
D03*
X300038Y304800D02*
G54D12*
D03*
X268288Y304800D02*
G54D12*
D03*
X265112Y307975D02*
G54D12*
D03*
X261938Y311150D02*
G54D12*
D03*
X258762Y314325D02*
G54D12*
D03*
X258762Y320675D02*
G54D12*
D03*
X261938Y323850D02*
G54D12*
D03*
X265112Y327025D02*
G54D12*
D03*
X268288Y330200D02*
G54D12*
D03*
X271462Y333375D02*
G54D12*
D03*
X274638Y336550D02*
G54D12*
D03*
X277812Y339725D02*
G54D12*
D03*
X280988Y342900D02*
G54D12*
D03*
X284162Y346075D02*
G54D12*
D03*
X303212Y307975D02*
G54D12*
D03*
X306388Y311150D02*
G54D12*
D03*
X309562Y314325D02*
G54D12*
D03*
X312738Y317500D02*
G54D12*
D03*
X309562Y333375D02*
G54D12*
D03*
X300038Y342900D02*
G54D12*
D03*
X303212Y346075D02*
G54D12*
D03*
X312738Y336550D02*
G54D12*
D03*
X319088Y336550D02*
G54D12*
D03*
X322262Y339725D02*
G54D12*
D03*
X319088Y342900D02*
G54D12*
D03*
X315912Y346075D02*
G54D12*
D03*
X312738Y349250D02*
G54D12*
D03*
X309562Y352425D02*
G54D12*
D03*
X306388Y355600D02*
G54D12*
D03*
X303212Y352425D02*
G54D12*
D03*
X290512Y301625D02*
G54D12*
D03*
X290512Y304800D02*
G54D12*
D03*
X293688Y307975D02*
G54D12*
D03*
X290512Y311150D02*
G54D12*
D03*
X290512Y314325D02*
G54D12*
D03*
X290512Y317500D02*
G54D12*
D03*
X287338Y320675D02*
G54D12*
D03*
X287338Y323850D02*
G54D12*
D03*
X290512Y327025D02*
G54D12*
D03*
X290512Y330200D02*
G54D12*
D03*
X290512Y333375D02*
G54D12*
D03*
X290512Y336550D02*
G54D12*
D03*
X290512Y339725D02*
G54D12*
D03*
X287338Y342900D02*
G54D12*
D03*
X315912Y358775D02*
G54D12*
D03*
X312738Y358775D02*
G54D12*
D03*
X309562Y358775D02*
G54D12*
D03*
X309562Y361950D02*
G54D12*
D03*
X315912Y361950D02*
G54D12*
D03*
X315912Y365125D02*
G54D12*
D03*
X319088Y365125D02*
G54D12*
D03*
X322262Y365125D02*
G54D12*
D03*
X322262Y368300D02*
G54D12*
D03*
X322262Y371475D02*
G54D12*
D03*
X319088Y371475D02*
G54D12*
D03*
X315912Y371475D02*
G54D12*
D03*
X315912Y374650D02*
G54D12*
D03*
X315912Y377825D02*
G54D12*
D03*
X312738Y377825D02*
G54D12*
D03*
X309562Y377825D02*
G54D12*
D03*
X309562Y374650D02*
G54D12*
D03*
X309562Y371475D02*
G54D12*
D03*
X309562Y365125D02*
G54D12*
D03*
X306388Y365125D02*
G54D12*
D03*
X303212Y365125D02*
G54D12*
D03*
X303212Y368300D02*
G54D12*
D03*
X303212Y371475D02*
G54D12*
D03*
X306388Y371475D02*
G54D12*
D03*
X315912Y320675D02*
G54D12*
D03*
X315912Y327025D02*
G54D12*
D03*
X312738Y330200D02*
G54D12*
D03*
X296862Y346075D02*
G54D12*
D03*
X293688Y349250D02*
G54D12*
D03*
X287338Y349250D02*
G54D12*
D03*
X277812Y346075D02*
G54D12*
D03*
X277812Y349250D02*
G54D12*
D03*
X277812Y352425D02*
G54D12*
D03*
X277812Y355600D02*
G54D12*
D03*
X277812Y358775D02*
G54D12*
D03*
X274638Y352425D02*
G54D12*
D03*
X271462Y352425D02*
G54D12*
D03*
X268288Y352425D02*
G54D12*
D03*
X265112Y352425D02*
G54D12*
D03*
X261938Y352425D02*
G54D12*
D03*
X258762Y349250D02*
G54D12*
D03*
X258762Y346075D02*
G54D12*
D03*
X261938Y342900D02*
G54D12*
D03*
X258762Y361950D02*
G54D12*
D03*
X261938Y365125D02*
G54D12*
D03*
X265112Y365125D02*
G54D12*
D03*
X268288Y365125D02*
G54D12*
D03*
X271462Y365125D02*
G54D12*
D03*
X258762Y368300D02*
G54D12*
D03*
X258762Y371475D02*
G54D12*
D03*
X258762Y374650D02*
G54D12*
D03*
X261938Y374650D02*
G54D12*
D03*
X265112Y374650D02*
G54D12*
D03*
X268288Y374650D02*
G54D12*
D03*
X271462Y374650D02*
G54D12*
D03*
X274638Y381000D02*
G54D12*
D03*
X268288Y381000D02*
G54D12*
D03*
X265112Y381000D02*
G54D12*
D03*
X261938Y381000D02*
G54D12*
D03*
X258762Y381000D02*
G54D12*
D03*
X261938Y387350D02*
G54D12*
D03*
X265112Y387350D02*
G54D12*
D03*
X268288Y387350D02*
G54D12*
D03*
X271462Y390525D02*
G54D12*
D03*
X271462Y393700D02*
G54D12*
D03*
X258762Y390525D02*
G54D12*
D03*
X258762Y393700D02*
G54D12*
D03*
X258762Y396875D02*
G54D12*
D03*
X271462Y396875D02*
G54D12*
D03*
X261938Y403225D02*
G54D12*
D03*
X265112Y403225D02*
G54D12*
D03*
X268288Y403225D02*
G54D12*
D03*
X271462Y406400D02*
G54D12*
D03*
X271462Y409575D02*
G54D12*
D03*
X271462Y412750D02*
G54D12*
D03*
X258762Y406400D02*
G54D12*
D03*
X258762Y409575D02*
G54D12*
D03*
X258762Y412750D02*
G54D12*
D03*
X268288Y415925D02*
G54D12*
D03*
X265112Y415925D02*
G54D12*
D03*
X265112Y412750D02*
G54D12*
D03*
X265112Y409575D02*
G54D12*
D03*
X265112Y406400D02*
G54D12*
D03*
X277812Y314325D02*
G54D12*
D03*
X274638Y317500D02*
G54D12*
D03*
X277812Y320675D02*
G54D12*
D03*
X280988Y317500D02*
G54D12*
D03*
X274638Y327025D02*
G54D12*
D03*
X284162Y304800D02*
G54D12*
D03*
X284162Y333375D02*
G54D12*
D03*
X265112Y317500D02*
G54D12*
D03*
X280988Y301625D02*
G54D12*
D03*
X296862Y361950D02*
G54D12*
D03*
X296862Y365125D02*
G54D12*
D03*
X296862Y368300D02*
G54D12*
D03*
X296862Y371475D02*
G54D12*
D03*
X296862Y374650D02*
G54D12*
D03*
X293688Y374650D02*
G54D12*
D03*
X290512Y374650D02*
G54D12*
D03*
X287338Y371475D02*
G54D12*
D03*
X284162Y368300D02*
G54D12*
D03*
X280988Y365125D02*
G54D12*
D03*
X303212Y377825D02*
G54D12*
D03*
X300038Y377825D02*
G54D12*
D03*
X300038Y381000D02*
G54D12*
D03*
X303212Y381000D02*
G54D12*
D03*
X296862Y384175D02*
G54D12*
D03*
X296862Y387350D02*
G54D12*
D03*
X296862Y390525D02*
G54D12*
D03*
X296862Y393700D02*
G54D12*
D03*
X296862Y396875D02*
G54D12*
D03*
X290512Y384175D02*
G54D12*
D03*
X290512Y387350D02*
G54D12*
D03*
X290512Y390525D02*
G54D12*
D03*
X290512Y393700D02*
G54D12*
D03*
X290512Y396875D02*
G54D12*
D03*
X287338Y396875D02*
G54D12*
D03*
X284162Y393700D02*
G54D12*
D03*
X280988Y390525D02*
G54D12*
D03*
X280988Y384175D02*
G54D12*
D03*
X280988Y387350D02*
G54D12*
D03*
X296862Y403225D02*
G54D12*
D03*
X296862Y406400D02*
G54D12*
D03*
X296862Y409575D02*
G54D12*
D03*
X296862Y412750D02*
G54D12*
D03*
X296862Y415925D02*
G54D12*
D03*
X293688Y415925D02*
G54D12*
D03*
X290512Y412750D02*
G54D12*
D03*
X287338Y409575D02*
G54D12*
D03*
X284162Y406400D02*
G54D12*
D03*
X280988Y403225D02*
G54D12*
D03*
X284162Y412750D02*
G54D12*
D03*
X280988Y415925D02*
G54D12*
D03*
X309562Y323850D02*
G54D12*
D03*
X306388Y320675D02*
G54D12*
D03*
G54D13*
X310832Y390017D02*
X309721Y392017D01*
X308610Y392683D01*
X306388Y392683D01*
G54D13*
X306388Y387350D02*
X315276Y387350D01*
X315276Y390683D01*
X314721Y392017D01*
X313610Y392683D01*
X312499Y392683D01*
X311388Y392017D01*
X310832Y390683D01*
X310832Y387350D01*
G54D13*
X306943Y399127D02*
X306388Y398060D01*
X306388Y396727D01*
X306943Y395394D01*
X308054Y395127D01*
X309943Y395127D01*
X311054Y395794D01*
X311388Y397127D01*
X311054Y398460D01*
X310276Y399127D01*
X309165Y399127D01*
X309165Y395127D01*
G54D13*
X311388Y401571D02*
X306388Y404238D01*
X311388Y406904D01*
G54D13*
X306388Y409348D02*
X306388Y409348D01*
G54D13*
X306388Y417125D02*
X306388Y411792D01*
X306943Y411792D01*
X308054Y412459D01*
X311388Y416459D01*
X312499Y417125D01*
X313610Y417125D01*
X314721Y416459D01*
X315276Y415125D01*
X315276Y413792D01*
X314721Y412459D01*
X313610Y411792D01*
G54D13*
X306388Y419569D02*
X306388Y419569D01*
G54D13*
X313610Y427346D02*
X308054Y427346D01*
X306943Y426680D01*
X306388Y425346D01*
X306388Y424013D01*
X306943Y422680D01*
X308054Y422013D01*
X313610Y422013D01*
X314721Y422680D01*
X315276Y424013D01*
X315276Y425346D01*
X314721Y426680D01*
X313610Y427346D01*
X284162Y292100D02*
G54D12*
D03*
X258762Y317500D02*
G54D12*
D03*
X182562Y320278D02*
G54D14*
D03*
X182562Y325041D02*
G54D14*
D03*
X182562Y329803D02*
G54D14*
D03*
X182562Y334566D02*
G54D14*
D03*
X182562Y339328D02*
G54D14*
D03*
X182562Y344091D02*
G54D14*
D03*
X182562Y348853D02*
G54D14*
D03*
X182562Y353616D02*
G54D14*
D03*
X168275Y305991D02*
G54D14*
D03*
X163512Y305991D02*
G54D14*
D03*
X158750Y305991D02*
G54D14*
D03*
X153988Y305991D02*
G54D14*
D03*
X149225Y305991D02*
G54D14*
D03*
X144462Y305991D02*
G54D14*
D03*
X139700Y305991D02*
G54D14*
D03*
X134938Y305991D02*
G54D14*
D03*
X130175Y305991D02*
G54D14*
D03*
X125412Y305991D02*
G54D14*
D03*
X120650Y301228D02*
G54D14*
D03*
X115887Y301228D02*
G54D14*
D03*
X111125Y301228D02*
G54D14*
D03*
X111125Y296466D02*
G54D14*
D03*
X115888Y310753D02*
G54D14*
D03*
X111125Y310753D02*
G54D14*
D03*
X111125Y315516D02*
G54D14*
D03*
X115888Y320278D02*
G54D14*
D03*
X115888Y325041D02*
G54D14*
D03*
X115888Y329803D02*
G54D14*
D03*
X111125Y329803D02*
G54D14*
D03*
X111125Y334566D02*
G54D14*
D03*
X158750Y363141D02*
G54D14*
D03*
X163512Y363141D02*
G54D14*
D03*
X168275Y363141D02*
G54D14*
D03*
X173038Y363141D02*
G54D14*
D03*
X177800Y358378D02*
G54D14*
D03*
X168275Y320278D02*
G54D14*
D03*
X173038Y325041D02*
G54D14*
D03*
X173038Y329803D02*
G54D14*
D03*
X173038Y334566D02*
G54D14*
D03*
X173038Y339328D02*
G54D14*
D03*
X168275Y344091D02*
G54D14*
D03*
X163512Y325041D02*
G54D14*
D03*
X163512Y329803D02*
G54D14*
D03*
X163512Y334566D02*
G54D14*
D03*
X163512Y339328D02*
G54D14*
D03*
X168275Y329803D02*
G54D14*
D03*
X168275Y334566D02*
G54D14*
D03*
X115888Y305991D02*
G54D14*
D03*
X153988Y358378D02*
G54D14*
D03*
X153988Y353616D02*
G54D14*
D03*
X149225Y344091D02*
G54D14*
D03*
X149225Y348853D02*
G54D14*
D03*
X149225Y339328D02*
G54D14*
D03*
X144462Y339328D02*
G54D14*
D03*
X139700Y339328D02*
G54D14*
D03*
X134938Y339328D02*
G54D14*
D03*
X130175Y339328D02*
G54D14*
D03*
X125412Y339328D02*
G54D14*
D03*
X120650Y339328D02*
G54D14*
D03*
X115888Y339328D02*
G54D14*
D03*
X182562Y315516D02*
G54D14*
D03*
X177800Y310753D02*
G54D14*
D03*
X173038Y305991D02*
G54D14*
D03*
G54D10*
X58687Y291900D02*
X56799Y290766D01*
X55854Y288500D01*
X55854Y286233D01*
X56799Y283966D01*
X58687Y282833D01*
X68132Y282833D01*
X70021Y283966D01*
X70965Y286233D01*
X70965Y288500D01*
X70021Y290766D01*
X68132Y291900D01*
G54D10*
X55854Y296056D02*
X70965Y296056D01*
G54D10*
X61899Y296056D02*
X63787Y297189D01*
X64354Y299456D01*
X63787Y301722D01*
X61899Y302856D01*
X55854Y302856D01*
G54D10*
X55854Y307012D02*
X64354Y307012D01*
G54D10*
X67187Y307012D02*
X67187Y307012D01*
G54D10*
X64354Y311168D02*
X52076Y311168D01*
G54D10*
X58687Y311168D02*
X56232Y312301D01*
X55854Y314568D01*
X56232Y316834D01*
X58121Y317968D01*
X61899Y317968D01*
X63787Y316834D01*
X64354Y314568D01*
X63787Y312301D01*
X61521Y311168D01*
G54D10*
X55854Y326657D02*
X70965Y326657D01*
G54D10*
X70965Y322124D02*
X70965Y331190D01*
G54D10*
X56799Y342147D02*
X55854Y340334D01*
X55854Y338067D01*
X56799Y335800D01*
X58687Y335347D01*
X61899Y335347D01*
X63787Y336480D01*
X64354Y338747D01*
X63787Y341014D01*
X62465Y342147D01*
X60576Y342147D01*
X60576Y335347D01*
G54D10*
X63787Y351970D02*
X64354Y349703D01*
X63787Y347436D01*
X61899Y346303D01*
X58121Y346303D01*
X56232Y347436D01*
X55854Y349703D01*
X56232Y351970D01*
G54D10*
X55854Y356126D02*
X70965Y356126D01*
G54D10*
X61899Y356126D02*
X63787Y357259D01*
X64354Y359526D01*
X63787Y361792D01*
X61899Y362926D01*
X55854Y362926D01*
G54D10*
X55854Y367082D02*
X64354Y367082D01*
G54D10*
X62465Y367082D02*
X63787Y368215D01*
X64354Y370482D01*
X63787Y372748D01*
X62465Y373882D01*
X55854Y373882D01*
G54D10*
X58121Y384838D02*
X61899Y384838D01*
X63787Y383704D01*
X64354Y381438D01*
X63787Y379171D01*
X61899Y378038D01*
X58121Y378038D01*
X56232Y379171D01*
X55854Y381438D01*
X56232Y383704D01*
X58121Y384838D01*
G54D10*
X55854Y388994D02*
X70965Y398060D01*
G54D10*
X70965Y411284D02*
X58687Y411284D01*
X56799Y410150D01*
X55854Y407884D01*
X55854Y405617D01*
X56799Y403350D01*
X58687Y402217D01*
G54D10*
X64354Y422240D02*
X55854Y422240D01*
G54D10*
X57743Y422240D02*
X56232Y421106D01*
X55854Y418840D01*
X56232Y416573D01*
X57743Y415440D01*
X64354Y415440D01*
G54D10*
X55854Y426396D02*
X64354Y426396D01*
G54D10*
X67187Y426396D02*
X67187Y426396D01*
G54D10*
X63787Y436218D02*
X64354Y433952D01*
X63787Y431685D01*
X61899Y430552D01*
X58121Y430552D01*
X56232Y431685D01*
X55854Y433952D01*
X56232Y436218D01*
G54D10*
X56799Y447175D02*
X55854Y445362D01*
X55854Y443095D01*
X56799Y440828D01*
X58687Y440375D01*
X61899Y440375D01*
X63787Y441508D01*
X64354Y443775D01*
X63787Y446042D01*
X62465Y447175D01*
X60576Y447175D01*
X60576Y440375D01*
G54D10*
X62465Y451331D02*
X62465Y460398D01*
G54D10*
X64354Y464554D02*
X52076Y464554D01*
G54D10*
X58687Y464554D02*
X56232Y465687D01*
X55854Y467954D01*
X56232Y470220D01*
X58121Y471354D01*
X61899Y471354D01*
X63787Y470220D01*
X64354Y467954D01*
X63787Y465687D01*
X61521Y464554D01*
G54D10*
X55854Y475510D02*
X70965Y475510D01*
G54D10*
X64354Y486466D02*
X55854Y486466D01*
G54D10*
X57743Y486466D02*
X56232Y485332D01*
X55854Y483066D01*
X56232Y480799D01*
X57743Y479666D01*
X64354Y479666D01*
G54D10*
X56799Y490622D02*
X55854Y492888D01*
X55854Y495155D01*
X56799Y497422D01*
X58687Y497422D01*
X59632Y496288D01*
X60576Y491755D01*
X61521Y490622D01*
X63410Y490622D01*
X64354Y492888D01*
X64354Y495155D01*
X63410Y497422D01*
G54D10*
X411454Y174883D02*
X426565Y174883D01*
G54D10*
X417499Y174883D02*
X419388Y176016D01*
X419954Y178283D01*
X419388Y180550D01*
X417499Y181683D01*
X411454Y181683D01*
G54D10*
X426565Y188106D02*
X412399Y188106D01*
X411454Y189239D01*
X411832Y190372D01*
G54D10*
X419954Y185839D02*
X419954Y190372D01*
G54D10*
X426565Y196794D02*
X412399Y196794D01*
X411454Y197928D01*
X411832Y199061D01*
G54D10*
X419954Y194528D02*
X419954Y199061D01*
G54D10*
X419954Y203217D02*
X407676Y203217D01*
G54D10*
X414288Y203217D02*
X411832Y204350D01*
X411454Y206617D01*
X411832Y208884D01*
X413721Y210017D01*
X417499Y210017D01*
X419388Y208884D01*
X419954Y206617D01*
X419388Y204350D01*
X417121Y203217D01*
G54D10*
X412399Y214173D02*
X411454Y216440D01*
X411454Y218706D01*
X412399Y220973D01*
X414288Y220973D01*
X415232Y219840D01*
X416176Y215306D01*
X417121Y214173D01*
X419010Y214173D01*
X419954Y216440D01*
X419954Y218706D01*
X419010Y220973D01*
G54D10*
X411454Y225129D02*
X411454Y225129D01*
G54D10*
X419954Y225129D02*
X419954Y225129D01*
G54D10*
X411454Y229285D02*
X426565Y238352D01*
G54D10*
X411454Y242508D02*
X426565Y251574D01*
G54D10*
X408621Y255731D02*
X407676Y257998D01*
X407676Y259584D01*
X408621Y261851D01*
X410510Y262531D01*
X419954Y262531D01*
G54D10*
X417499Y262531D02*
X419388Y261398D01*
X419954Y259131D01*
X419388Y256864D01*
X417499Y255731D01*
X413721Y255731D01*
X411832Y256864D01*
X411454Y259131D01*
X411832Y261398D01*
X413721Y262531D01*
G54D10*
X411454Y266687D02*
X419954Y266687D01*
G54D10*
X422788Y266687D02*
X422788Y266687D01*
G54D10*
X426565Y273110D02*
X412399Y273110D01*
X411454Y274243D01*
X411832Y275376D01*
G54D10*
X419954Y270843D02*
X419954Y275376D01*
G54D10*
X411454Y279532D02*
X426565Y279532D01*
G54D10*
X417499Y279532D02*
X419388Y280665D01*
X419954Y282932D01*
X419388Y285198D01*
X417499Y286332D01*
X411454Y286332D01*
G54D10*
X419954Y297288D02*
X411454Y297288D01*
G54D10*
X413343Y297288D02*
X411832Y296154D01*
X411454Y293888D01*
X411832Y291621D01*
X413343Y290488D01*
X419954Y290488D01*
G54D10*
X411454Y301444D02*
X426565Y301444D01*
G54D10*
X417499Y301444D02*
X419388Y302577D01*
X419954Y304844D01*
X419388Y307110D01*
X417499Y308244D01*
X413721Y308244D01*
X411832Y307110D01*
X411454Y304844D01*
X411832Y302577D01*
X413721Y301444D01*
G54D10*
X411454Y312400D02*
X411454Y312400D01*
G54D10*
X419388Y322222D02*
X419954Y319956D01*
X419388Y317689D01*
X417499Y316556D01*
X413721Y316556D01*
X411832Y317689D01*
X411454Y319956D01*
X411832Y322222D01*
G54D10*
X413721Y333179D02*
X417499Y333179D01*
X419388Y332046D01*
X419954Y329779D01*
X419388Y327512D01*
X417499Y326379D01*
X413721Y326379D01*
X411832Y327512D01*
X411454Y329779D01*
X411832Y332046D01*
X413721Y333179D01*
G54D10*
X411454Y337335D02*
X419954Y337335D01*
G54D10*
X418443Y337335D02*
X419954Y339602D01*
X419388Y341868D01*
X418065Y343002D01*
X411454Y343002D01*
G54D10*
X418443Y343002D02*
X419954Y345268D01*
X419388Y347535D01*
X418065Y348668D01*
X411454Y348668D01*
G54D10*
X411454Y352824D02*
X426565Y361890D01*
G54D11*
X495304Y423026D02*
X495305Y411914D01*
X484986Y409533D01*
X481811Y401992D01*
X487764Y392864D01*
X480620Y384926D01*
X472683Y391276D01*
X464745Y387705D01*
X463158Y376592D01*
X452442Y376592D01*
X451252Y386514D01*
X442917Y390086D01*
X435376Y384926D01*
X427836Y392467D01*
X433392Y401198D01*
X430614Y405564D01*
X447283Y413105D01*
G54D11*
X447283Y421836D02*
X431011Y429376D01*
X432995Y433742D01*
X427439Y442076D01*
X434980Y450411D01*
X442917Y444458D01*
X451252Y448030D01*
X452442Y458348D01*
X463158Y457952D01*
X465142Y447236D01*
X471492Y444458D01*
X479826Y450411D01*
X487367Y442473D01*
X481811Y433345D01*
X484986Y424614D01*
X495304Y423026D01*
G54D11*
G75*
G01X447967Y413374D02*
G03X447967Y421579I9666J4102D01*
G01*
G36*
X463158Y457952D02*
X465142Y447236D01*
X471492Y444458D01*
X479826Y450411D01*
X487367Y442473D01*
X481811Y433345D01*
X484986Y424614D01*
X495304Y423026D01*
X495305Y411914D01*
X484986Y409533D01*
X481811Y401992D01*
X487764Y392864D01*
X480620Y384926D01*
X472683Y391276D01*
X464745Y387705D01*
X463158Y376592D01*
X452442Y376592D01*
X451252Y386514D01*
X442917Y390086D01*
X435376Y384926D01*
X427836Y392467D01*
X433392Y401198D01*
X430614Y405564D01*
X448076Y413502D01*
X448473Y412311D01*
X449267Y411120D01*
X451648Y408739D01*
X454823Y407152D01*
X456808Y406755D01*
X458395Y406755D01*
X460776Y407152D01*
X463554Y408342D01*
X466333Y410723D01*
X467523Y412708D01*
X468317Y414692D01*
X468714Y417073D01*
X468317Y419455D01*
X467523Y422630D01*
X465142Y425408D01*
X461173Y428186D01*
X454823Y428186D01*
X452442Y426995D01*
X450061Y425408D01*
X448076Y423026D01*
X448076Y421439D01*
X431011Y429376D01*
X432995Y433742D01*
X427439Y442076D01*
X434980Y450411D01*
X442917Y444458D01*
X463158Y457952D01*
G37*
G54D11*
X463158Y457952D02*
X465142Y447236D01*
X471492Y444458D01*
X479826Y450411D01*
X487367Y442473D01*
X481811Y433345D01*
X484986Y424614D01*
X495304Y423026D01*
X495305Y411914D01*
X484986Y409533D01*
X481811Y401992D01*
X487764Y392864D01*
X480620Y384926D01*
X472683Y391276D01*
X464745Y387705D01*
X463158Y376592D01*
X452442Y376592D01*
X451252Y386514D01*
X442917Y390086D01*
X435376Y384926D01*
X427836Y392467D01*
X433392Y401198D01*
X430614Y405564D01*
X448076Y413502D01*
X448473Y412311D01*
X449267Y411120D01*
X451648Y408739D01*
X454823Y407152D01*
X456808Y406755D01*
X458395Y406755D01*
X460776Y407152D01*
X463554Y408342D01*
X466333Y410723D01*
X467523Y412708D01*
X468317Y414692D01*
X468714Y417073D01*
X468317Y419455D01*
X467523Y422630D01*
X465142Y425408D01*
X461173Y428186D01*
X454823Y428186D01*
X452442Y426995D01*
X450061Y425408D01*
X448076Y423026D01*
X448076Y421439D01*
X431011Y429376D01*
X432995Y433742D01*
X427439Y442076D01*
X434980Y450411D01*
X442917Y444458D01*
X463158Y457952D01*
G36*
X463158Y457952D02*
X452442Y458348D01*
X451252Y448030D01*
X463158Y457952D01*
G37*
G54D11*
X463158Y457952D02*
X452442Y458348D01*
X451252Y448030D01*
X463158Y457952D01*
G54D10*
X416631Y400734D02*
X407187Y400734D01*
X405298Y399601D01*
X404354Y397334D01*
X404354Y395068D01*
X405298Y392801D01*
X407187Y391668D01*
X416631Y391668D01*
X418520Y392801D01*
X419465Y395068D01*
X419465Y397334D01*
X418520Y399601D01*
X416631Y400734D01*
G54D10*
X407187Y404891D02*
X405298Y406024D01*
X404354Y408291D01*
X404354Y410557D01*
X405298Y412824D01*
X407187Y413957D01*
X409076Y413957D01*
X410965Y412824D01*
X411909Y410557D01*
X411909Y408291D01*
X412854Y406024D01*
X414742Y404891D01*
X416631Y404891D01*
X418520Y406024D01*
X419465Y408291D01*
X419465Y410557D01*
X418520Y412824D01*
X416631Y413957D01*
G54D10*
X404354Y418114D02*
X419465Y418114D01*
G54D10*
X404354Y427180D02*
X419465Y427180D01*
G54D10*
X411909Y418114D02*
X411909Y427180D01*
G54D10*
X419465Y431337D02*
X404354Y431337D01*
X413798Y437003D01*
X404354Y442670D01*
X419465Y442670D01*
X611188Y292100D02*
G54D12*
D03*
X608012Y295275D02*
G54D12*
D03*
X604838Y298450D02*
G54D12*
D03*
X601662Y301625D02*
G54D12*
D03*
X617538Y292100D02*
G54D12*
D03*
X620712Y295275D02*
G54D12*
D03*
X623888Y298450D02*
G54D12*
D03*
X627062Y301625D02*
G54D12*
D03*
X630238Y304800D02*
G54D12*
D03*
X598488Y304800D02*
G54D12*
D03*
X595312Y307975D02*
G54D12*
D03*
X592138Y311150D02*
G54D12*
D03*
X588962Y314325D02*
G54D12*
D03*
X588962Y320675D02*
G54D12*
D03*
X592138Y323850D02*
G54D12*
D03*
X595312Y327025D02*
G54D12*
D03*
X598488Y330200D02*
G54D12*
D03*
X601662Y333375D02*
G54D12*
D03*
X604838Y336550D02*
G54D12*
D03*
X608012Y339725D02*
G54D12*
D03*
X611188Y342900D02*
G54D12*
D03*
X614362Y346075D02*
G54D12*
D03*
X633412Y307975D02*
G54D12*
D03*
X636588Y311150D02*
G54D12*
D03*
X639762Y314325D02*
G54D12*
D03*
X642938Y317500D02*
G54D12*
D03*
X639762Y333375D02*
G54D12*
D03*
X630238Y342900D02*
G54D12*
D03*
X633412Y346075D02*
G54D12*
D03*
X642938Y336550D02*
G54D12*
D03*
X649288Y336550D02*
G54D12*
D03*
X652462Y339725D02*
G54D12*
D03*
X649288Y342900D02*
G54D12*
D03*
X646112Y346075D02*
G54D12*
D03*
X642938Y349250D02*
G54D12*
D03*
X639762Y352425D02*
G54D12*
D03*
X636588Y355600D02*
G54D12*
D03*
X633412Y352425D02*
G54D12*
D03*
X620712Y301625D02*
G54D12*
D03*
X620712Y304800D02*
G54D12*
D03*
X623888Y307975D02*
G54D12*
D03*
X620712Y311150D02*
G54D12*
D03*
X620712Y314325D02*
G54D12*
D03*
X620712Y317500D02*
G54D12*
D03*
X617538Y320675D02*
G54D12*
D03*
X617538Y323850D02*
G54D12*
D03*
X620712Y327025D02*
G54D12*
D03*
X620712Y330200D02*
G54D12*
D03*
X620712Y333375D02*
G54D12*
D03*
X620712Y336550D02*
G54D12*
D03*
X620712Y339725D02*
G54D12*
D03*
X617538Y342900D02*
G54D12*
D03*
X646112Y358775D02*
G54D12*
D03*
X642938Y358775D02*
G54D12*
D03*
X639762Y358775D02*
G54D12*
D03*
X639762Y361950D02*
G54D12*
D03*
X646112Y361950D02*
G54D12*
D03*
X646112Y365125D02*
G54D12*
D03*
X649288Y365125D02*
G54D12*
D03*
X652462Y365125D02*
G54D12*
D03*
X652462Y368300D02*
G54D12*
D03*
X652462Y371475D02*
G54D12*
D03*
X649288Y371475D02*
G54D12*
D03*
X646112Y371475D02*
G54D12*
D03*
X646112Y374650D02*
G54D12*
D03*
X646112Y377825D02*
G54D12*
D03*
X642938Y377825D02*
G54D12*
D03*
X639762Y377825D02*
G54D12*
D03*
X639762Y374650D02*
G54D12*
D03*
X639762Y371475D02*
G54D12*
D03*
X639762Y365125D02*
G54D12*
D03*
X636588Y365125D02*
G54D12*
D03*
X633412Y365125D02*
G54D12*
D03*
X633412Y368300D02*
G54D12*
D03*
X633412Y371475D02*
G54D12*
D03*
X636588Y371475D02*
G54D12*
D03*
X646112Y320675D02*
G54D12*
D03*
X646112Y327025D02*
G54D12*
D03*
X642938Y330200D02*
G54D12*
D03*
X627062Y346075D02*
G54D12*
D03*
X623888Y349250D02*
G54D12*
D03*
X617538Y349250D02*
G54D12*
D03*
X608012Y346075D02*
G54D12*
D03*
X608012Y349250D02*
G54D12*
D03*
X608012Y352425D02*
G54D12*
D03*
X608012Y355600D02*
G54D12*
D03*
X608012Y358775D02*
G54D12*
D03*
X604838Y352425D02*
G54D12*
D03*
X601662Y352425D02*
G54D12*
D03*
X598488Y352425D02*
G54D12*
D03*
X595312Y352425D02*
G54D12*
D03*
X592138Y352425D02*
G54D12*
D03*
X588962Y349250D02*
G54D12*
D03*
X588962Y346075D02*
G54D12*
D03*
X592138Y342900D02*
G54D12*
D03*
X588962Y361950D02*
G54D12*
D03*
X592138Y365125D02*
G54D12*
D03*
X595312Y365125D02*
G54D12*
D03*
X598488Y365125D02*
G54D12*
D03*
X601662Y365125D02*
G54D12*
D03*
X588962Y368300D02*
G54D12*
D03*
X588962Y371475D02*
G54D12*
D03*
X588962Y374650D02*
G54D12*
D03*
X592138Y374650D02*
G54D12*
D03*
X595312Y374650D02*
G54D12*
D03*
X598488Y374650D02*
G54D12*
D03*
X601662Y374650D02*
G54D12*
D03*
X604838Y381000D02*
G54D12*
D03*
X598488Y381000D02*
G54D12*
D03*
X595312Y381000D02*
G54D12*
D03*
X592138Y381000D02*
G54D12*
D03*
X588962Y381000D02*
G54D12*
D03*
X592138Y387350D02*
G54D12*
D03*
X595312Y387350D02*
G54D12*
D03*
X598488Y387350D02*
G54D12*
D03*
X601662Y390525D02*
G54D12*
D03*
X601662Y393700D02*
G54D12*
D03*
X588962Y390525D02*
G54D12*
D03*
X588962Y393700D02*
G54D12*
D03*
X588962Y396875D02*
G54D12*
D03*
X601662Y396875D02*
G54D12*
D03*
X592138Y403225D02*
G54D12*
D03*
X595312Y403225D02*
G54D12*
D03*
X598488Y403225D02*
G54D12*
D03*
X601662Y406400D02*
G54D12*
D03*
X601662Y409575D02*
G54D12*
D03*
X601662Y412750D02*
G54D12*
D03*
X588962Y406400D02*
G54D12*
D03*
X588962Y409575D02*
G54D12*
D03*
X588962Y412750D02*
G54D12*
D03*
X598488Y415925D02*
G54D12*
D03*
X595312Y415925D02*
G54D12*
D03*
X595312Y412750D02*
G54D12*
D03*
X595312Y409575D02*
G54D12*
D03*
X595312Y406400D02*
G54D12*
D03*
X608012Y314325D02*
G54D12*
D03*
X604838Y317500D02*
G54D12*
D03*
X608012Y320675D02*
G54D12*
D03*
X611188Y317500D02*
G54D12*
D03*
X604838Y327025D02*
G54D12*
D03*
X614362Y304800D02*
G54D12*
D03*
X614362Y333375D02*
G54D12*
D03*
X595312Y317500D02*
G54D12*
D03*
X611188Y301625D02*
G54D12*
D03*
X627062Y361950D02*
G54D12*
D03*
X627062Y365125D02*
G54D12*
D03*
X627062Y368300D02*
G54D12*
D03*
X627062Y371475D02*
G54D12*
D03*
X627062Y374650D02*
G54D12*
D03*
X623888Y374650D02*
G54D12*
D03*
X620712Y374650D02*
G54D12*
D03*
X617538Y371475D02*
G54D12*
D03*
X614362Y368300D02*
G54D12*
D03*
X611188Y365125D02*
G54D12*
D03*
X633412Y377825D02*
G54D12*
D03*
X630238Y377825D02*
G54D12*
D03*
X630238Y381000D02*
G54D12*
D03*
X633412Y381000D02*
G54D12*
D03*
X627062Y384175D02*
G54D12*
D03*
X627062Y387350D02*
G54D12*
D03*
X627062Y390525D02*
G54D12*
D03*
X627062Y393700D02*
G54D12*
D03*
X627062Y396875D02*
G54D12*
D03*
X620712Y384175D02*
G54D12*
D03*
X620712Y387350D02*
G54D12*
D03*
X620712Y390525D02*
G54D12*
D03*
X620712Y393700D02*
G54D12*
D03*
X620712Y396875D02*
G54D12*
D03*
X617538Y396875D02*
G54D12*
D03*
X614362Y393700D02*
G54D12*
D03*
X611188Y390525D02*
G54D12*
D03*
X611188Y384175D02*
G54D12*
D03*
X611188Y387350D02*
G54D12*
D03*
X627062Y403225D02*
G54D12*
D03*
X627062Y406400D02*
G54D12*
D03*
X627062Y409575D02*
G54D12*
D03*
X627062Y412750D02*
G54D12*
D03*
X627062Y415925D02*
G54D12*
D03*
X623888Y415925D02*
G54D12*
D03*
X620712Y412750D02*
G54D12*
D03*
X617538Y409575D02*
G54D12*
D03*
X614362Y406400D02*
G54D12*
D03*
X611188Y403225D02*
G54D12*
D03*
X614362Y412750D02*
G54D12*
D03*
X611188Y415925D02*
G54D12*
D03*
X639762Y323850D02*
G54D12*
D03*
X636588Y320675D02*
G54D12*
D03*
G54D13*
X641032Y390017D02*
X639921Y392017D01*
X638810Y392683D01*
X636588Y392683D01*
G54D13*
X636588Y387350D02*
X645476Y387350D01*
X645476Y390683D01*
X644921Y392017D01*
X643810Y392683D01*
X642699Y392683D01*
X641588Y392017D01*
X641032Y390683D01*
X641032Y387350D01*
G54D13*
X637143Y399127D02*
X636588Y398060D01*
X636588Y396727D01*
X637143Y395394D01*
X638254Y395127D01*
X640143Y395127D01*
X641254Y395794D01*
X641588Y397127D01*
X641254Y398460D01*
X640476Y399127D01*
X639365Y399127D01*
X639365Y395127D01*
G54D13*
X641588Y401571D02*
X636588Y404238D01*
X641588Y406904D01*
G54D13*
X636588Y409348D02*
X636588Y409348D01*
G54D13*
X636588Y417125D02*
X636588Y411792D01*
X637143Y411792D01*
X638254Y412459D01*
X641588Y416459D01*
X642699Y417125D01*
X643810Y417125D01*
X644921Y416459D01*
X645476Y415125D01*
X645476Y413792D01*
X644921Y412459D01*
X643810Y411792D01*
G54D13*
X636588Y419569D02*
X636588Y419569D01*
G54D13*
X643810Y427346D02*
X638254Y427346D01*
X637143Y426680D01*
X636588Y425346D01*
X636588Y424013D01*
X637143Y422680D01*
X638254Y422013D01*
X643810Y422013D01*
X644921Y422680D01*
X645476Y424013D01*
X645476Y425346D01*
X644921Y426680D01*
X643810Y427346D01*
X614362Y292100D02*
G54D12*
D03*
X588962Y317500D02*
G54D12*
D03*
X512762Y320278D02*
G54D14*
D03*
X512762Y325041D02*
G54D14*
D03*
X512762Y329803D02*
G54D14*
D03*
X512762Y334566D02*
G54D14*
D03*
X512762Y339328D02*
G54D14*
D03*
X512762Y344091D02*
G54D14*
D03*
X512762Y348853D02*
G54D14*
D03*
X512762Y353616D02*
G54D14*
D03*
X498475Y305991D02*
G54D14*
D03*
X493712Y305991D02*
G54D14*
D03*
X488950Y305991D02*
G54D14*
D03*
X484188Y305991D02*
G54D14*
D03*
X479425Y305991D02*
G54D14*
D03*
X474662Y305991D02*
G54D14*
D03*
X469900Y305991D02*
G54D14*
D03*
X465138Y305991D02*
G54D14*
D03*
X460375Y305991D02*
G54D14*
D03*
X455612Y305991D02*
G54D14*
D03*
X450850Y301228D02*
G54D14*
D03*
X446087Y301228D02*
G54D14*
D03*
X441325Y301228D02*
G54D14*
D03*
X441325Y296466D02*
G54D14*
D03*
X446088Y310753D02*
G54D14*
D03*
X441325Y310753D02*
G54D14*
D03*
X441325Y315516D02*
G54D14*
D03*
X446088Y320278D02*
G54D14*
D03*
X446088Y325041D02*
G54D14*
D03*
X446088Y329803D02*
G54D14*
D03*
X441325Y329803D02*
G54D14*
D03*
X441325Y334566D02*
G54D14*
D03*
X488950Y363141D02*
G54D14*
D03*
X493712Y363141D02*
G54D14*
D03*
X498475Y363141D02*
G54D14*
D03*
X503238Y363141D02*
G54D14*
D03*
X508000Y358378D02*
G54D14*
D03*
X498475Y320278D02*
G54D14*
D03*
X503238Y325041D02*
G54D14*
D03*
X503238Y329803D02*
G54D14*
D03*
X503238Y334566D02*
G54D14*
D03*
X503238Y339328D02*
G54D14*
D03*
X498475Y344091D02*
G54D14*
D03*
X493712Y325041D02*
G54D14*
D03*
X493712Y329803D02*
G54D14*
D03*
X493712Y334566D02*
G54D14*
D03*
X493712Y339328D02*
G54D14*
D03*
X498475Y329803D02*
G54D14*
D03*
X498475Y334566D02*
G54D14*
D03*
X446088Y305991D02*
G54D14*
D03*
X484188Y358378D02*
G54D14*
D03*
X484188Y353616D02*
G54D14*
D03*
X479425Y344091D02*
G54D14*
D03*
X479425Y348853D02*
G54D14*
D03*
X479425Y339328D02*
G54D14*
D03*
X474662Y339328D02*
G54D14*
D03*
X469900Y339328D02*
G54D14*
D03*
X465138Y339328D02*
G54D14*
D03*
X460375Y339328D02*
G54D14*
D03*
X455612Y339328D02*
G54D14*
D03*
X450850Y339328D02*
G54D14*
D03*
X446088Y339328D02*
G54D14*
D03*
X512762Y315516D02*
G54D14*
D03*
X508000Y310753D02*
G54D14*
D03*
X503238Y305991D02*
G54D14*
D03*
G54D10*
X388887Y291900D02*
X386999Y290766D01*
X386054Y288500D01*
X386054Y286233D01*
X386999Y283966D01*
X388887Y282833D01*
X398332Y282833D01*
X400221Y283966D01*
X401165Y286233D01*
X401165Y288500D01*
X400221Y290766D01*
X398332Y291900D01*
G54D10*
X386054Y296056D02*
X401165Y296056D01*
G54D10*
X392099Y296056D02*
X393987Y297189D01*
X394554Y299456D01*
X393987Y301722D01*
X392099Y302856D01*
X386054Y302856D01*
G54D10*
X386054Y307012D02*
X394554Y307012D01*
G54D10*
X397387Y307012D02*
X397387Y307012D01*
G54D10*
X394554Y311168D02*
X382276Y311168D01*
G54D10*
X388887Y311168D02*
X386432Y312301D01*
X386054Y314568D01*
X386432Y316834D01*
X388321Y317968D01*
X392099Y317968D01*
X393987Y316834D01*
X394554Y314568D01*
X393987Y312301D01*
X391721Y311168D01*
G54D10*
X386054Y326657D02*
X401165Y326657D01*
G54D10*
X401165Y322124D02*
X401165Y331190D01*
G54D10*
X386999Y342147D02*
X386054Y340334D01*
X386054Y338067D01*
X386999Y335800D01*
X388887Y335347D01*
X392099Y335347D01*
X393987Y336480D01*
X394554Y338747D01*
X393987Y341014D01*
X392665Y342147D01*
X390776Y342147D01*
X390776Y335347D01*
G54D10*
X393987Y351970D02*
X394554Y349703D01*
X393987Y347436D01*
X392099Y346303D01*
X388321Y346303D01*
X386432Y347436D01*
X386054Y349703D01*
X386432Y351970D01*
G54D10*
X386054Y356126D02*
X401165Y356126D01*
G54D10*
X392099Y356126D02*
X393987Y357259D01*
X394554Y359526D01*
X393987Y361792D01*
X392099Y362926D01*
X386054Y362926D01*
G54D10*
X386054Y367082D02*
X394554Y367082D01*
G54D10*
X392665Y367082D02*
X393987Y368215D01*
X394554Y370482D01*
X393987Y372748D01*
X392665Y373882D01*
X386054Y373882D01*
G54D10*
X388321Y384838D02*
X392099Y384838D01*
X393987Y383704D01*
X394554Y381438D01*
X393987Y379171D01*
X392099Y378038D01*
X388321Y378038D01*
X386432Y379171D01*
X386054Y381438D01*
X386432Y383704D01*
X388321Y384838D01*
G54D10*
X386054Y388994D02*
X401165Y398060D01*
G54D10*
X401165Y411284D02*
X388887Y411284D01*
X386999Y410150D01*
X386054Y407884D01*
X386054Y405617D01*
X386999Y403350D01*
X388887Y402217D01*
G54D10*
X394554Y422240D02*
X386054Y422240D01*
G54D10*
X387943Y422240D02*
X386432Y421106D01*
X386054Y418840D01*
X386432Y416573D01*
X387943Y415440D01*
X394554Y415440D01*
G54D10*
X386054Y426396D02*
X394554Y426396D01*
G54D10*
X397387Y426396D02*
X397387Y426396D01*
G54D10*
X393987Y436218D02*
X394554Y433952D01*
X393987Y431685D01*
X392099Y430552D01*
X388321Y430552D01*
X386432Y431685D01*
X386054Y433952D01*
X386432Y436218D01*
G54D10*
X386999Y447175D02*
X386054Y445362D01*
X386054Y443095D01*
X386999Y440828D01*
X388887Y440375D01*
X392099Y440375D01*
X393987Y441508D01*
X394554Y443775D01*
X393987Y446042D01*
X392665Y447175D01*
X390776Y447175D01*
X390776Y440375D01*
G54D10*
X392665Y451331D02*
X392665Y460398D01*
G54D10*
X394554Y464554D02*
X382276Y464554D01*
G54D10*
X388887Y464554D02*
X386432Y465687D01*
X386054Y467954D01*
X386432Y470220D01*
X388321Y471354D01*
X392099Y471354D01*
X393987Y470220D01*
X394554Y467954D01*
X393987Y465687D01*
X391721Y464554D01*
G54D10*
X386054Y475510D02*
X401165Y475510D01*
G54D10*
X394554Y486466D02*
X386054Y486466D01*
G54D10*
X387943Y486466D02*
X386432Y485332D01*
X386054Y483066D01*
X386432Y480799D01*
X387943Y479666D01*
X394554Y479666D01*
G54D10*
X386999Y490622D02*
X386054Y492888D01*
X386054Y495155D01*
X386999Y497422D01*
X388887Y497422D01*
X389832Y496288D01*
X390776Y491755D01*
X391721Y490622D01*
X393610Y490622D01*
X394554Y492888D01*
X394554Y495155D01*
X393610Y497422D01*
G54D10*
X741654Y174883D02*
X756765Y174883D01*
G54D10*
X747699Y174883D02*
X749588Y176016D01*
X750154Y178283D01*
X749588Y180550D01*
X747699Y181683D01*
X741654Y181683D01*
G54D10*
X756765Y188106D02*
X742599Y188106D01*
X741654Y189239D01*
X742032Y190372D01*
G54D10*
X750154Y185839D02*
X750154Y190372D01*
G54D10*
X756765Y196794D02*
X742599Y196794D01*
X741654Y197928D01*
X742032Y199061D01*
G54D10*
X750154Y194528D02*
X750154Y199061D01*
G54D10*
X750154Y203217D02*
X737876Y203217D01*
G54D10*
X744488Y203217D02*
X742032Y204350D01*
X741654Y206617D01*
X742032Y208884D01*
X743921Y210017D01*
X747699Y210017D01*
X749588Y208884D01*
X750154Y206617D01*
X749588Y204350D01*
X747321Y203217D01*
G54D10*
X742599Y214173D02*
X741654Y216440D01*
X741654Y218706D01*
X742599Y220973D01*
X744488Y220973D01*
X745432Y219840D01*
X746376Y215306D01*
X747321Y214173D01*
X749210Y214173D01*
X750154Y216440D01*
X750154Y218706D01*
X749210Y220973D01*
G54D10*
X741654Y225129D02*
X741654Y225129D01*
G54D10*
X750154Y225129D02*
X750154Y225129D01*
G54D10*
X741654Y229285D02*
X756765Y238352D01*
G54D10*
X741654Y242508D02*
X756765Y251574D01*
G54D10*
X738821Y255731D02*
X737876Y257998D01*
X737876Y259584D01*
X738821Y261851D01*
X740710Y262531D01*
X750154Y262531D01*
G54D10*
X747699Y262531D02*
X749588Y261398D01*
X750154Y259131D01*
X749588Y256864D01*
X747699Y255731D01*
X743921Y255731D01*
X742032Y256864D01*
X741654Y259131D01*
X742032Y261398D01*
X743921Y262531D01*
G54D10*
X741654Y266687D02*
X750154Y266687D01*
G54D10*
X752988Y266687D02*
X752988Y266687D01*
G54D10*
X756765Y273110D02*
X742599Y273110D01*
X741654Y274243D01*
X742032Y275376D01*
G54D10*
X750154Y270843D02*
X750154Y275376D01*
G54D10*
X741654Y279532D02*
X756765Y279532D01*
G54D10*
X747699Y279532D02*
X749588Y280665D01*
X750154Y282932D01*
X749588Y285198D01*
X747699Y286332D01*
X741654Y286332D01*
G54D10*
X750154Y297288D02*
X741654Y297288D01*
G54D10*
X743543Y297288D02*
X742032Y296154D01*
X741654Y293888D01*
X742032Y291621D01*
X743543Y290488D01*
X750154Y290488D01*
G54D10*
X741654Y301444D02*
X756765Y301444D01*
G54D10*
X747699Y301444D02*
X749588Y302577D01*
X750154Y304844D01*
X749588Y307110D01*
X747699Y308244D01*
X743921Y308244D01*
X742032Y307110D01*
X741654Y304844D01*
X742032Y302577D01*
X743921Y301444D01*
G54D10*
X741654Y312400D02*
X741654Y312400D01*
G54D10*
X749588Y322222D02*
X750154Y319956D01*
X749588Y317689D01*
X747699Y316556D01*
X743921Y316556D01*
X742032Y317689D01*
X741654Y319956D01*
X742032Y322222D01*
G54D10*
X743921Y333179D02*
X747699Y333179D01*
X749588Y332046D01*
X750154Y329779D01*
X749588Y327512D01*
X747699Y326379D01*
X743921Y326379D01*
X742032Y327512D01*
X741654Y329779D01*
X742032Y332046D01*
X743921Y333179D01*
G54D10*
X741654Y337335D02*
X750154Y337335D01*
G54D10*
X748643Y337335D02*
X750154Y339602D01*
X749588Y341868D01*
X748265Y343002D01*
X741654Y343002D01*
G54D10*
X748643Y343002D02*
X750154Y345268D01*
X749588Y347535D01*
X748265Y348668D01*
X741654Y348668D01*
G54D10*
X741654Y352824D02*
X756765Y361890D01*
G54D11*
X825504Y423026D02*
X825505Y411914D01*
X815186Y409533D01*
X812011Y401992D01*
X817964Y392864D01*
X810820Y384926D01*
X802883Y391276D01*
X794945Y387705D01*
X793358Y376592D01*
X782642Y376592D01*
X781452Y386514D01*
X773117Y390086D01*
X765576Y384926D01*
X758036Y392467D01*
X763592Y401198D01*
X760814Y405564D01*
X777483Y413105D01*
G54D11*
X777483Y421836D02*
X761211Y429376D01*
X763195Y433742D01*
X757639Y442076D01*
X765180Y450411D01*
X773117Y444458D01*
X781452Y448030D01*
X782642Y458348D01*
X793358Y457952D01*
X795342Y447236D01*
X801692Y444458D01*
X810026Y450411D01*
X817567Y442473D01*
X812011Y433345D01*
X815186Y424614D01*
X825504Y423026D01*
G54D11*
G75*
G01X778167Y413374D02*
G03X778167Y421579I9666J4102D01*
G01*
G36*
X793358Y457952D02*
X795342Y447236D01*
X801692Y444458D01*
X810026Y450411D01*
X817567Y442473D01*
X812011Y433345D01*
X815186Y424614D01*
X825504Y423026D01*
X825505Y411914D01*
X815186Y409533D01*
X812011Y401992D01*
X817964Y392864D01*
X810820Y384926D01*
X802883Y391276D01*
X794945Y387705D01*
X793358Y376592D01*
X782642Y376592D01*
X781452Y386514D01*
X773117Y390086D01*
X765576Y384926D01*
X758036Y392467D01*
X763592Y401198D01*
X760814Y405564D01*
X778276Y413502D01*
X778673Y412311D01*
X779467Y411120D01*
X781848Y408739D01*
X785023Y407152D01*
X787008Y406755D01*
X788595Y406755D01*
X790976Y407152D01*
X793754Y408342D01*
X796533Y410723D01*
X797723Y412708D01*
X798517Y414692D01*
X798914Y417073D01*
X798517Y419455D01*
X797723Y422630D01*
X795342Y425408D01*
X791373Y428186D01*
X785023Y428186D01*
X782642Y426995D01*
X780261Y425408D01*
X778276Y423026D01*
X778276Y421439D01*
X761211Y429376D01*
X763195Y433742D01*
X757639Y442076D01*
X765180Y450411D01*
X773117Y444458D01*
X793358Y457952D01*
G37*
G54D11*
X793358Y457952D02*
X795342Y447236D01*
X801692Y444458D01*
X810026Y450411D01*
X817567Y442473D01*
X812011Y433345D01*
X815186Y424614D01*
X825504Y423026D01*
X825505Y411914D01*
X815186Y409533D01*
X812011Y401992D01*
X817964Y392864D01*
X810820Y384926D01*
X802883Y391276D01*
X794945Y387705D01*
X793358Y376592D01*
X782642Y376592D01*
X781452Y386514D01*
X773117Y390086D01*
X765576Y384926D01*
X758036Y392467D01*
X763592Y401198D01*
X760814Y405564D01*
X778276Y413502D01*
X778673Y412311D01*
X779467Y411120D01*
X781848Y408739D01*
X785023Y407152D01*
X787008Y406755D01*
X788595Y406755D01*
X790976Y407152D01*
X793754Y408342D01*
X796533Y410723D01*
X797723Y412708D01*
X798517Y414692D01*
X798914Y417073D01*
X798517Y419455D01*
X797723Y422630D01*
X795342Y425408D01*
X791373Y428186D01*
X785023Y428186D01*
X782642Y426995D01*
X780261Y425408D01*
X778276Y423026D01*
X778276Y421439D01*
X761211Y429376D01*
X763195Y433742D01*
X757639Y442076D01*
X765180Y450411D01*
X773117Y444458D01*
X793358Y457952D01*
G36*
X793358Y457952D02*
X782642Y458348D01*
X781452Y448030D01*
X793358Y457952D01*
G37*
G54D11*
X793358Y457952D02*
X782642Y458348D01*
X781452Y448030D01*
X793358Y457952D01*
G54D10*
X746831Y400734D02*
X737387Y400734D01*
X735498Y399601D01*
X734554Y397334D01*
X734554Y395068D01*
X735498Y392801D01*
X737387Y391668D01*
X746831Y391668D01*
X748720Y392801D01*
X749665Y395068D01*
X749665Y397334D01*
X748720Y399601D01*
X746831Y400734D01*
G54D10*
X737387Y404891D02*
X735498Y406024D01*
X734554Y408291D01*
X734554Y410557D01*
X735498Y412824D01*
X737387Y413957D01*
X739276Y413957D01*
X741165Y412824D01*
X742109Y410557D01*
X742109Y408291D01*
X743054Y406024D01*
X744942Y404891D01*
X746831Y404891D01*
X748720Y406024D01*
X749665Y408291D01*
X749665Y410557D01*
X748720Y412824D01*
X746831Y413957D01*
G54D10*
X734554Y418114D02*
X749665Y418114D01*
G54D10*
X734554Y427180D02*
X749665Y427180D01*
G54D10*
X742109Y418114D02*
X742109Y427180D01*
G54D10*
X749665Y431337D02*
X734554Y431337D01*
X743998Y437003D01*
X734554Y442670D01*
X749665Y442670D01*
X941388Y292100D02*
G54D12*
D03*
X938212Y295275D02*
G54D12*
D03*
X935038Y298450D02*
G54D12*
D03*
X931862Y301625D02*
G54D12*
D03*
X947738Y292100D02*
G54D12*
D03*
X950912Y295275D02*
G54D12*
D03*
X954088Y298450D02*
G54D12*
D03*
X957262Y301625D02*
G54D12*
D03*
X960438Y304800D02*
G54D12*
D03*
X928688Y304800D02*
G54D12*
D03*
X925512Y307975D02*
G54D12*
D03*
X922338Y311150D02*
G54D12*
D03*
X919162Y314325D02*
G54D12*
D03*
X919162Y320675D02*
G54D12*
D03*
X922338Y323850D02*
G54D12*
D03*
X925512Y327025D02*
G54D12*
D03*
X928688Y330200D02*
G54D12*
D03*
X931862Y333375D02*
G54D12*
D03*
X935038Y336550D02*
G54D12*
D03*
X938212Y339725D02*
G54D12*
D03*
X941388Y342900D02*
G54D12*
D03*
X944562Y346075D02*
G54D12*
D03*
X963612Y307975D02*
G54D12*
D03*
X966788Y311150D02*
G54D12*
D03*
X969962Y314325D02*
G54D12*
D03*
X973138Y317500D02*
G54D12*
D03*
X969962Y333375D02*
G54D12*
D03*
X960438Y342900D02*
G54D12*
D03*
X963612Y346075D02*
G54D12*
D03*
X973138Y336550D02*
G54D12*
D03*
X979488Y336550D02*
G54D12*
D03*
X982662Y339725D02*
G54D12*
D03*
X979488Y342900D02*
G54D12*
D03*
X976312Y346075D02*
G54D12*
D03*
X973138Y349250D02*
G54D12*
D03*
X969962Y352425D02*
G54D12*
D03*
X966788Y355600D02*
G54D12*
D03*
X963612Y352425D02*
G54D12*
D03*
X950912Y301625D02*
G54D12*
D03*
X950912Y304800D02*
G54D12*
D03*
X954088Y307975D02*
G54D12*
D03*
X950912Y311150D02*
G54D12*
D03*
X950912Y314325D02*
G54D12*
D03*
X950912Y317500D02*
G54D12*
D03*
X947738Y320675D02*
G54D12*
D03*
X947738Y323850D02*
G54D12*
D03*
X950912Y327025D02*
G54D12*
D03*
X950912Y330200D02*
G54D12*
D03*
X950912Y333375D02*
G54D12*
D03*
X950912Y336550D02*
G54D12*
D03*
X950912Y339725D02*
G54D12*
D03*
X947738Y342900D02*
G54D12*
D03*
X976312Y358775D02*
G54D12*
D03*
X973138Y358775D02*
G54D12*
D03*
X969962Y358775D02*
G54D12*
D03*
X969962Y361950D02*
G54D12*
D03*
X976312Y361950D02*
G54D12*
D03*
X976312Y365125D02*
G54D12*
D03*
X979488Y365125D02*
G54D12*
D03*
X982662Y365125D02*
G54D12*
D03*
X982662Y368300D02*
G54D12*
D03*
X982662Y371475D02*
G54D12*
D03*
X979488Y371475D02*
G54D12*
D03*
X976312Y371475D02*
G54D12*
D03*
X976312Y374650D02*
G54D12*
D03*
X976312Y377825D02*
G54D12*
D03*
X973138Y377825D02*
G54D12*
D03*
X969962Y377825D02*
G54D12*
D03*
X969962Y374650D02*
G54D12*
D03*
X969962Y371475D02*
G54D12*
D03*
X969962Y365125D02*
G54D12*
D03*
X966788Y365125D02*
G54D12*
D03*
X963612Y365125D02*
G54D12*
D03*
X963612Y368300D02*
G54D12*
D03*
X963612Y371475D02*
G54D12*
D03*
X966788Y371475D02*
G54D12*
D03*
X976312Y320675D02*
G54D12*
D03*
X976312Y327025D02*
G54D12*
D03*
X973138Y330200D02*
G54D12*
D03*
X957262Y346075D02*
G54D12*
D03*
X954088Y349250D02*
G54D12*
D03*
X947738Y349250D02*
G54D12*
D03*
X938212Y346075D02*
G54D12*
D03*
X938212Y349250D02*
G54D12*
D03*
X938212Y352425D02*
G54D12*
D03*
X938212Y355600D02*
G54D12*
D03*
X938212Y358775D02*
G54D12*
D03*
X935038Y352425D02*
G54D12*
D03*
X931862Y352425D02*
G54D12*
D03*
X928688Y352425D02*
G54D12*
D03*
X925512Y352425D02*
G54D12*
D03*
X922338Y352425D02*
G54D12*
D03*
X919162Y349250D02*
G54D12*
D03*
X919162Y346075D02*
G54D12*
D03*
X922338Y342900D02*
G54D12*
D03*
X919162Y361950D02*
G54D12*
D03*
X922338Y365125D02*
G54D12*
D03*
X925512Y365125D02*
G54D12*
D03*
X928688Y365125D02*
G54D12*
D03*
X931862Y365125D02*
G54D12*
D03*
X919162Y368300D02*
G54D12*
D03*
X919162Y371475D02*
G54D12*
D03*
X919162Y374650D02*
G54D12*
D03*
X922338Y374650D02*
G54D12*
D03*
X925512Y374650D02*
G54D12*
D03*
X928688Y374650D02*
G54D12*
D03*
X931862Y374650D02*
G54D12*
D03*
X935038Y381000D02*
G54D12*
D03*
X928688Y381000D02*
G54D12*
D03*
X925512Y381000D02*
G54D12*
D03*
X922338Y381000D02*
G54D12*
D03*
X919162Y381000D02*
G54D12*
D03*
X922338Y387350D02*
G54D12*
D03*
X925512Y387350D02*
G54D12*
D03*
X928688Y387350D02*
G54D12*
D03*
X931862Y390525D02*
G54D12*
D03*
X931862Y393700D02*
G54D12*
D03*
X919162Y390525D02*
G54D12*
D03*
X919162Y393700D02*
G54D12*
D03*
X919162Y396875D02*
G54D12*
D03*
X931862Y396875D02*
G54D12*
D03*
X922338Y403225D02*
G54D12*
D03*
X925512Y403225D02*
G54D12*
D03*
X928688Y403225D02*
G54D12*
D03*
X931862Y406400D02*
G54D12*
D03*
X931862Y409575D02*
G54D12*
D03*
X931862Y412750D02*
G54D12*
D03*
X919162Y406400D02*
G54D12*
D03*
X919162Y409575D02*
G54D12*
D03*
X919162Y412750D02*
G54D12*
D03*
X928688Y415925D02*
G54D12*
D03*
X925512Y415925D02*
G54D12*
D03*
X925512Y412750D02*
G54D12*
D03*
X925512Y409575D02*
G54D12*
D03*
X925512Y406400D02*
G54D12*
D03*
X938212Y314325D02*
G54D12*
D03*
X935038Y317500D02*
G54D12*
D03*
X938212Y320675D02*
G54D12*
D03*
X941388Y317500D02*
G54D12*
D03*
X935038Y327025D02*
G54D12*
D03*
X944562Y304800D02*
G54D12*
D03*
X944562Y333375D02*
G54D12*
D03*
X925512Y317500D02*
G54D12*
D03*
X941388Y301625D02*
G54D12*
D03*
X957262Y361950D02*
G54D12*
D03*
X957262Y365125D02*
G54D12*
D03*
X957262Y368300D02*
G54D12*
D03*
X957262Y371475D02*
G54D12*
D03*
X957262Y374650D02*
G54D12*
D03*
X954088Y374650D02*
G54D12*
D03*
X950912Y374650D02*
G54D12*
D03*
X947738Y371475D02*
G54D12*
D03*
X944562Y368300D02*
G54D12*
D03*
X941388Y365125D02*
G54D12*
D03*
X963612Y377825D02*
G54D12*
D03*
X960438Y377825D02*
G54D12*
D03*
X960438Y381000D02*
G54D12*
D03*
X963612Y381000D02*
G54D12*
D03*
X957262Y384175D02*
G54D12*
D03*
X957262Y387350D02*
G54D12*
D03*
X957262Y390525D02*
G54D12*
D03*
X957262Y393700D02*
G54D12*
D03*
X957262Y396875D02*
G54D12*
D03*
X950912Y384175D02*
G54D12*
D03*
X950912Y387350D02*
G54D12*
D03*
X950912Y390525D02*
G54D12*
D03*
X950912Y393700D02*
G54D12*
D03*
X950912Y396875D02*
G54D12*
D03*
X947738Y396875D02*
G54D12*
D03*
X944562Y393700D02*
G54D12*
D03*
X941388Y390525D02*
G54D12*
D03*
X941388Y384175D02*
G54D12*
D03*
X941388Y387350D02*
G54D12*
D03*
X957262Y403225D02*
G54D12*
D03*
X957262Y406400D02*
G54D12*
D03*
X957262Y409575D02*
G54D12*
D03*
X957262Y412750D02*
G54D12*
D03*
X957262Y415925D02*
G54D12*
D03*
X954088Y415925D02*
G54D12*
D03*
X950912Y412750D02*
G54D12*
D03*
X947738Y409575D02*
G54D12*
D03*
X944562Y406400D02*
G54D12*
D03*
X941388Y403225D02*
G54D12*
D03*
X944562Y412750D02*
G54D12*
D03*
X941388Y415925D02*
G54D12*
D03*
X969962Y323850D02*
G54D12*
D03*
X966788Y320675D02*
G54D12*
D03*
G54D13*
X971232Y390017D02*
X970121Y392017D01*
X969010Y392683D01*
X966788Y392683D01*
G54D13*
X966788Y387350D02*
X975676Y387350D01*
X975676Y390683D01*
X975121Y392017D01*
X974010Y392683D01*
X972899Y392683D01*
X971788Y392017D01*
X971232Y390683D01*
X971232Y387350D01*
G54D13*
X967343Y399127D02*
X966788Y398060D01*
X966788Y396727D01*
X967343Y395394D01*
X968454Y395127D01*
X970343Y395127D01*
X971454Y395794D01*
X971788Y397127D01*
X971454Y398460D01*
X970676Y399127D01*
X969565Y399127D01*
X969565Y395127D01*
G54D13*
X971788Y401571D02*
X966788Y404238D01*
X971788Y406904D01*
G54D13*
X966788Y409348D02*
X966788Y409348D01*
G54D13*
X966788Y417125D02*
X966788Y411792D01*
X967343Y411792D01*
X968454Y412459D01*
X971788Y416459D01*
X972899Y417125D01*
X974010Y417125D01*
X975121Y416459D01*
X975676Y415125D01*
X975676Y413792D01*
X975121Y412459D01*
X974010Y411792D01*
G54D13*
X966788Y419569D02*
X966788Y419569D01*
G54D13*
X974010Y427346D02*
X968454Y427346D01*
X967343Y426680D01*
X966788Y425346D01*
X966788Y424013D01*
X967343Y422680D01*
X968454Y422013D01*
X974010Y422013D01*
X975121Y422680D01*
X975676Y424013D01*
X975676Y425346D01*
X975121Y426680D01*
X974010Y427346D01*
X944562Y292100D02*
G54D12*
D03*
X919162Y317500D02*
G54D12*
D03*
X842962Y320278D02*
G54D14*
D03*
X842962Y325041D02*
G54D14*
D03*
X842962Y329803D02*
G54D14*
D03*
X842962Y334566D02*
G54D14*
D03*
X842962Y339328D02*
G54D14*
D03*
X842962Y344091D02*
G54D14*
D03*
X842962Y348853D02*
G54D14*
D03*
X842962Y353616D02*
G54D14*
D03*
X828675Y305991D02*
G54D14*
D03*
X823912Y305991D02*
G54D14*
D03*
X819150Y305991D02*
G54D14*
D03*
X814388Y305991D02*
G54D14*
D03*
X809625Y305991D02*
G54D14*
D03*
X804862Y305991D02*
G54D14*
D03*
X800100Y305991D02*
G54D14*
D03*
X795338Y305991D02*
G54D14*
D03*
X790575Y305991D02*
G54D14*
D03*
X785812Y305991D02*
G54D14*
D03*
X781050Y301228D02*
G54D14*
D03*
X776288Y301228D02*
G54D14*
D03*
X771525Y301228D02*
G54D14*
D03*
X771525Y296466D02*
G54D14*
D03*
X776288Y310753D02*
G54D14*
D03*
X771525Y310753D02*
G54D14*
D03*
X771525Y315516D02*
G54D14*
D03*
X776288Y320278D02*
G54D14*
D03*
X776288Y325041D02*
G54D14*
D03*
X776288Y329803D02*
G54D14*
D03*
X771525Y329803D02*
G54D14*
D03*
X771525Y334566D02*
G54D14*
D03*
X819150Y363141D02*
G54D14*
D03*
X823912Y363141D02*
G54D14*
D03*
X828675Y363141D02*
G54D14*
D03*
X833438Y363141D02*
G54D14*
D03*
X838200Y358378D02*
G54D14*
D03*
X828675Y320278D02*
G54D14*
D03*
X833438Y325041D02*
G54D14*
D03*
X833438Y329803D02*
G54D14*
D03*
X833438Y334566D02*
G54D14*
D03*
X833438Y339328D02*
G54D14*
D03*
X828675Y344091D02*
G54D14*
D03*
X823912Y325041D02*
G54D14*
D03*
X823912Y329803D02*
G54D14*
D03*
X823912Y334566D02*
G54D14*
D03*
X823912Y339328D02*
G54D14*
D03*
X828675Y329803D02*
G54D14*
D03*
X828675Y334566D02*
G54D14*
D03*
X776288Y305991D02*
G54D14*
D03*
X814388Y358378D02*
G54D14*
D03*
X814388Y353616D02*
G54D14*
D03*
X809625Y344091D02*
G54D14*
D03*
X809625Y348853D02*
G54D14*
D03*
X809625Y339328D02*
G54D14*
D03*
X804862Y339328D02*
G54D14*
D03*
X800100Y339328D02*
G54D14*
D03*
X795338Y339328D02*
G54D14*
D03*
X790575Y339328D02*
G54D14*
D03*
X785812Y339328D02*
G54D14*
D03*
X781050Y339328D02*
G54D14*
D03*
X776288Y339328D02*
G54D14*
D03*
X842962Y315516D02*
G54D14*
D03*
X838200Y310753D02*
G54D14*
D03*
X833438Y305991D02*
G54D14*
D03*
G54D10*
X719087Y291900D02*
X717199Y290766D01*
X716254Y288500D01*
X716254Y286233D01*
X717199Y283966D01*
X719087Y282833D01*
X728532Y282833D01*
X730421Y283966D01*
X731365Y286233D01*
X731365Y288500D01*
X730421Y290766D01*
X728532Y291900D01*
G54D10*
X716254Y296056D02*
X731365Y296056D01*
G54D10*
X722299Y296056D02*
X724187Y297189D01*
X724754Y299456D01*
X724187Y301722D01*
X722299Y302856D01*
X716254Y302856D01*
G54D10*
X716254Y307012D02*
X724754Y307012D01*
G54D10*
X727587Y307012D02*
X727587Y307012D01*
G54D10*
X724754Y311168D02*
X712476Y311168D01*
G54D10*
X719087Y311168D02*
X716632Y312301D01*
X716254Y314568D01*
X716632Y316834D01*
X718521Y317968D01*
X722299Y317968D01*
X724187Y316834D01*
X724754Y314568D01*
X724187Y312301D01*
X721921Y311168D01*
G54D10*
X716254Y326657D02*
X731365Y326657D01*
G54D10*
X731365Y322124D02*
X731365Y331190D01*
G54D10*
X717199Y342147D02*
X716254Y340334D01*
X716254Y338067D01*
X717199Y335800D01*
X719087Y335347D01*
X722299Y335347D01*
X724187Y336480D01*
X724754Y338747D01*
X724187Y341014D01*
X722865Y342147D01*
X720976Y342147D01*
X720976Y335347D01*
G54D10*
X724187Y351970D02*
X724754Y349703D01*
X724187Y347436D01*
X722299Y346303D01*
X718521Y346303D01*
X716632Y347436D01*
X716254Y349703D01*
X716632Y351970D01*
G54D10*
X716254Y356126D02*
X731365Y356126D01*
G54D10*
X722299Y356126D02*
X724187Y357259D01*
X724754Y359526D01*
X724187Y361792D01*
X722299Y362926D01*
X716254Y362926D01*
G54D10*
X716254Y367082D02*
X724754Y367082D01*
G54D10*
X722865Y367082D02*
X724187Y368215D01*
X724754Y370482D01*
X724187Y372748D01*
X722865Y373882D01*
X716254Y373882D01*
G54D10*
X718521Y384838D02*
X722299Y384838D01*
X724187Y383704D01*
X724754Y381438D01*
X724187Y379171D01*
X722299Y378038D01*
X718521Y378038D01*
X716632Y379171D01*
X716254Y381438D01*
X716632Y383704D01*
X718521Y384838D01*
G54D10*
X716254Y388994D02*
X731365Y398060D01*
G54D10*
X731365Y411284D02*
X719087Y411284D01*
X717199Y410150D01*
X716254Y407884D01*
X716254Y405617D01*
X717199Y403350D01*
X719087Y402217D01*
G54D10*
X724754Y422240D02*
X716254Y422240D01*
G54D10*
X718143Y422240D02*
X716632Y421106D01*
X716254Y418840D01*
X716632Y416573D01*
X718143Y415440D01*
X724754Y415440D01*
G54D10*
X716254Y426396D02*
X724754Y426396D01*
G54D10*
X727587Y426396D02*
X727587Y426396D01*
G54D10*
X724187Y436218D02*
X724754Y433952D01*
X724187Y431685D01*
X722299Y430552D01*
X718521Y430552D01*
X716632Y431685D01*
X716254Y433952D01*
X716632Y436218D01*
G54D10*
X717199Y447175D02*
X716254Y445362D01*
X716254Y443095D01*
X717199Y440828D01*
X719087Y440375D01*
X722299Y440375D01*
X724187Y441508D01*
X724754Y443775D01*
X724187Y446042D01*
X722865Y447175D01*
X720976Y447175D01*
X720976Y440375D01*
G54D10*
X722865Y451331D02*
X722865Y460398D01*
G54D10*
X724754Y464554D02*
X712476Y464554D01*
G54D10*
X719087Y464554D02*
X716632Y465687D01*
X716254Y467954D01*
X716632Y470220D01*
X718521Y471354D01*
X722299Y471354D01*
X724187Y470220D01*
X724754Y467954D01*
X724187Y465687D01*
X721921Y464554D01*
G54D10*
X716254Y475510D02*
X731365Y475510D01*
G54D10*
X724754Y486466D02*
X716254Y486466D01*
G54D10*
X718143Y486466D02*
X716632Y485332D01*
X716254Y483066D01*
X716632Y480799D01*
X718143Y479666D01*
X724754Y479666D01*
G54D10*
X717199Y490622D02*
X716254Y492888D01*
X716254Y495155D01*
X717199Y497422D01*
X719087Y497422D01*
X720032Y496288D01*
X720976Y491755D01*
X721921Y490622D01*
X723810Y490622D01*
X724754Y492888D01*
X724754Y495155D01*
X723810Y497422D01*
M02*
