%FSLAX34Y34*%
%MOMM*%
%LNCOPPER_BOTTOM*%
G71*
G01*
%ADD10C, 0.11*%
%ADD11C, 0.10*%
%ADD12C, 0.15*%
%LPD*%
G54D10*
X79990Y847405D02*
X79990Y842071D01*
G54D10*
X76101Y834294D02*
X76101Y839628D01*
X76657Y839628D01*
X77768Y838961D01*
X81101Y834961D01*
X82212Y834294D01*
X83324Y834294D01*
X84434Y834961D01*
X84990Y836294D01*
X84990Y837628D01*
X84434Y838961D01*
X83324Y839628D01*
G54D10*
X76101Y827851D02*
X84990Y827851D01*
X79434Y831851D01*
X78324Y831851D01*
X78324Y826517D01*
G54D10*
X84990Y824074D02*
X76101Y820740D01*
X84990Y817407D01*
G54D10*
X79990Y814963D02*
X79990Y809629D01*
G54D10*
X82212Y812296D02*
X77768Y812296D01*
G54D11*
X150812Y928688D02*
X150812Y979488D01*
X49212Y979488D01*
X49212Y928688D01*
G54D11*
X150812Y928688D02*
X150812Y890588D01*
X49212Y890588D01*
X49212Y928688D01*
G54D11*
X138112Y979488D02*
X138112Y966788D01*
X112712Y966788D01*
X112712Y979488D01*
G54D11*
X87312Y979488D02*
X87312Y966788D01*
X61912Y966788D01*
X61912Y979488D01*
G54D11*
X11112Y795338D02*
X71438Y795337D01*
G54D11*
X11112Y871537D02*
X71438Y871537D01*
X71438Y795337D01*
G54D11*
X11112Y795338D02*
X11112Y871537D01*
G54D11*
X11112Y820738D02*
X17462Y820738D01*
X17462Y846138D01*
X11112Y846138D01*
G54D11*
X11112Y706438D02*
X71438Y706438D01*
G54D11*
X11112Y782638D02*
X71438Y782638D01*
X71438Y706438D01*
G54D11*
X11112Y706438D02*
X11112Y782638D01*
G54D11*
X11112Y731838D02*
X17462Y731838D01*
X17462Y757238D01*
X11112Y757238D01*
G54D11*
X98425Y674687D02*
X203200Y674687D01*
X203200Y839787D01*
X98425Y839787D01*
X98425Y674687D01*
G54D11*
X112713Y674687D02*
X112713Y700087D01*
X188913Y700087D01*
X188913Y674687D01*
G54D10*
X130746Y726360D02*
X130746Y720804D01*
X130079Y719693D01*
X128746Y719137D01*
X127413Y719137D01*
X126079Y719693D01*
X125413Y720804D01*
X125412Y726360D01*
X126079Y727471D01*
X127412Y728026D01*
X128746Y728026D01*
X130079Y727471D01*
X130746Y726360D01*
G54D10*
X133190Y719137D02*
X133190Y728026D01*
G54D10*
X133190Y721915D02*
X138523Y728026D01*
G54D10*
X135190Y723582D02*
X138523Y719137D01*
G54D10*
X140967Y719137D02*
X140967Y728026D01*
G54D10*
X143411Y723026D02*
X148744Y723026D01*
G54D10*
X151188Y728026D02*
X156521Y728026D01*
X155854Y726915D01*
X154521Y725248D01*
X153188Y723026D01*
X152521Y721360D01*
X152521Y719137D01*
G54D10*
X162298Y723582D02*
X160965Y723582D01*
X159631Y724137D01*
X158965Y725248D01*
X158965Y726360D01*
X159631Y727471D01*
X160965Y728026D01*
X162298Y728026D01*
X163631Y727471D01*
X164298Y726360D01*
X164298Y725248D01*
X163631Y724137D01*
X162298Y723582D01*
X163631Y723026D01*
X164298Y721915D01*
X164298Y720804D01*
X163631Y719693D01*
X162298Y719137D01*
X160965Y719137D01*
X159631Y719693D01*
X158965Y720804D01*
X158965Y721915D01*
X159631Y723026D01*
X160965Y723582D01*
G54D10*
X166742Y720804D02*
X167408Y719693D01*
X168742Y719137D01*
X170075Y719137D01*
X171408Y719693D01*
X172075Y720804D01*
X172075Y721915D01*
X171408Y723026D01*
X170075Y723582D01*
X168742Y723582D01*
X167408Y724137D01*
X166742Y725248D01*
X166742Y726360D01*
X167408Y727471D01*
X168742Y728026D01*
X170075Y728026D01*
X171408Y727471D01*
X172075Y726360D01*
G54D10*
X177185Y723582D02*
X179185Y722471D01*
X179852Y721360D01*
X179852Y719137D01*
G54D10*
X174519Y719137D02*
X174519Y728026D01*
X177852Y728026D01*
X179185Y727471D01*
X179852Y726360D01*
X179852Y725248D01*
X179185Y724137D01*
X177852Y723582D01*
X174519Y723582D01*
G54D10*
X130349Y713660D02*
X130349Y708104D01*
X129682Y706993D01*
X128349Y706437D01*
X127016Y706437D01*
X125682Y706993D01*
X125016Y708104D01*
X125016Y713660D01*
X125682Y714771D01*
X127016Y715326D01*
X128349Y715326D01*
X129682Y714771D01*
X130349Y713660D01*
G54D10*
X153479Y710882D02*
X156146Y710882D01*
X156146Y708104D01*
X155479Y706993D01*
X154146Y706437D01*
X152813Y706437D01*
X151479Y706993D01*
X150813Y708104D01*
X150812Y713660D01*
X151479Y714771D01*
X152813Y715326D01*
X154146Y715326D01*
X155479Y714771D01*
X156146Y713660D01*
G54D10*
X176213Y706437D02*
X176213Y715326D01*
G54D11*
X76597Y885031D02*
X149622Y885031D01*
X149622Y851694D01*
X76597Y851694D01*
X76597Y885031D01*
G54D11*
X308570Y861219D02*
X308570Y848717D01*
X177006Y848717D01*
X177006Y861219D01*
G54D11*
X308570Y910431D02*
X308570Y988616D01*
X177006Y988616D01*
X177006Y910431D01*
G54D10*
X273686Y873919D02*
X282575Y877252D01*
X273686Y880585D01*
G54D10*
X280908Y888363D02*
X282020Y887696D01*
X282575Y886363D01*
X282575Y885030D01*
X282020Y883696D01*
X280908Y883030D01*
X275353Y883030D01*
X274242Y883696D01*
X273686Y885030D01*
X273686Y886363D01*
X274242Y887696D01*
X275353Y888363D01*
G54D10*
X280908Y896140D02*
X282020Y895473D01*
X282575Y894140D01*
X282575Y892807D01*
X282020Y891473D01*
X280908Y890807D01*
X275353Y890807D01*
X274242Y891473D01*
X273686Y892807D01*
X273686Y894140D01*
X274242Y895473D01*
X275353Y896140D01*
G54D10*
X257175Y873919D02*
X248286Y873919D01*
X248286Y877252D01*
X248842Y878585D01*
X249953Y879252D01*
X255508Y879252D01*
X256620Y878585D01*
X257175Y877252D01*
X257175Y873919D01*
G54D10*
X253286Y881696D02*
X253286Y887029D01*
G54D10*
X238125Y873919D02*
X229236Y873919D01*
X229236Y877252D01*
X229792Y878585D01*
X230903Y879252D01*
X236458Y879252D01*
X237570Y878585D01*
X238125Y877252D01*
X238125Y873919D01*
G54D10*
X234236Y881696D02*
X234236Y887029D01*
G54D10*
X232014Y884362D02*
X236458Y884362D01*
G54D10*
X208280Y876585D02*
X208280Y879252D01*
X211058Y879252D01*
X212170Y878585D01*
X212725Y877252D01*
X212725Y875919D01*
X212170Y874585D01*
X211058Y873919D01*
X205503Y873919D01*
X204392Y874585D01*
X203836Y875919D01*
X203836Y877252D01*
X204392Y878585D01*
X205503Y879252D01*
G54D10*
X212725Y881696D02*
X203836Y881696D01*
X212725Y887029D01*
X203836Y887029D01*
G54D10*
X212725Y889473D02*
X203836Y889473D01*
X203836Y892806D01*
X204392Y894139D01*
X205503Y894806D01*
X211058Y894806D01*
X212170Y894139D01*
X212725Y892806D01*
X212725Y889473D01*
G54D10*
X79990Y771205D02*
X79990Y765871D01*
G54D10*
X76101Y758094D02*
X76101Y763428D01*
X76657Y763428D01*
X77768Y762761D01*
X81101Y758761D01*
X82212Y758094D01*
X83324Y758094D01*
X84434Y758761D01*
X84990Y760094D01*
X84990Y761428D01*
X84434Y762761D01*
X83324Y763428D01*
G54D10*
X76101Y751651D02*
X84990Y751651D01*
X79434Y755651D01*
X78324Y755651D01*
X78324Y750317D01*
G54D10*
X84990Y747874D02*
X76101Y744540D01*
X84990Y741207D01*
G54D10*
X79990Y738763D02*
X79990Y733429D01*
G54D10*
X82212Y736096D02*
X77768Y736096D01*
G54D12*
X22312Y922288D02*
X44312Y922288D01*
X44312Y884288D01*
X22312Y884288D01*
X22312Y922288D01*
G54D12*
X44312Y941438D02*
X22312Y941438D01*
X22312Y979438D01*
X44312Y979438D01*
X44312Y941438D01*
G54D10*
X198598Y665639D02*
X203931Y665639D01*
G54D10*
X201265Y667861D02*
X201265Y663417D01*
G54D10*
X211708Y670639D02*
X206375Y670639D01*
X206375Y666750D01*
X207042Y666750D01*
X208375Y667306D01*
X209708Y667306D01*
X211042Y666750D01*
X211708Y665639D01*
X211708Y663417D01*
X211042Y662306D01*
X209708Y661750D01*
X208375Y661750D01*
X207042Y662306D01*
X206375Y663417D01*
G54D10*
X214152Y670639D02*
X217485Y661750D01*
X220819Y670639D01*
G54D10*
X223263Y665639D02*
X228596Y665639D01*
G54D11*
X225425Y674688D02*
X330200Y674688D01*
X330200Y839788D01*
X225425Y839787D01*
X225425Y674688D01*
G54D11*
X239712Y674688D02*
X239712Y700088D01*
X315912Y700088D01*
X315912Y674688D01*
G54D10*
X257746Y726360D02*
X257746Y720804D01*
X257079Y719693D01*
X255746Y719138D01*
X254412Y719138D01*
X253079Y719693D01*
X252412Y720804D01*
X252412Y726360D01*
X253079Y727471D01*
X254412Y728026D01*
X255746Y728026D01*
X257079Y727471D01*
X257746Y726360D01*
G54D10*
X260190Y719138D02*
X260189Y728026D01*
G54D10*
X260190Y721915D02*
X265523Y728026D01*
G54D10*
X262189Y723582D02*
X265523Y719138D01*
G54D10*
X267966Y719138D02*
X267967Y728026D01*
G54D10*
X270410Y723026D02*
X275744Y723026D01*
G54D10*
X278188Y728026D02*
X283521Y728026D01*
X282854Y726915D01*
X281521Y725249D01*
X280188Y723026D01*
X279521Y721360D01*
X279521Y719138D01*
G54D10*
X289298Y723582D02*
X287964Y723582D01*
X286631Y724138D01*
X285964Y725249D01*
X285964Y726360D01*
X286631Y727471D01*
X287965Y728026D01*
X289298Y728026D01*
X290631Y727471D01*
X291298Y726360D01*
X291298Y725249D01*
X290631Y724138D01*
X289298Y723582D01*
X290631Y723026D01*
X291298Y721915D01*
X291298Y720804D01*
X290631Y719693D01*
X289298Y719138D01*
X287965Y719138D01*
X286631Y719693D01*
X285964Y720804D01*
X285964Y721915D01*
X286631Y723026D01*
X287964Y723582D01*
G54D10*
X293742Y720804D02*
X294408Y719693D01*
X295742Y719138D01*
X297075Y719138D01*
X298408Y719693D01*
X299075Y720804D01*
X299075Y721915D01*
X298408Y723026D01*
X297075Y723582D01*
X295742Y723582D01*
X294408Y724138D01*
X293742Y725249D01*
X293742Y726360D01*
X294408Y727471D01*
X295742Y728026D01*
X297075Y728026D01*
X298408Y727471D01*
X299075Y726360D01*
G54D10*
X304185Y723582D02*
X306185Y722471D01*
X306852Y721360D01*
X306852Y719138D01*
G54D10*
X301519Y719138D02*
X301519Y728026D01*
X304852Y728026D01*
X306185Y727471D01*
X306852Y726360D01*
X306852Y725249D01*
X306185Y724138D01*
X304852Y723582D01*
X301518Y723582D01*
G54D10*
X257349Y713660D02*
X257349Y708104D01*
X256682Y706993D01*
X255349Y706438D01*
X254016Y706438D01*
X252682Y706993D01*
X252016Y708104D01*
X252016Y713660D01*
X252682Y714771D01*
X254016Y715326D01*
X255349Y715326D01*
X256682Y714771D01*
X257349Y713660D01*
G54D10*
X280479Y710882D02*
X283146Y710882D01*
X283146Y708104D01*
X282479Y706993D01*
X281146Y706438D01*
X279812Y706438D01*
X278479Y706993D01*
X277812Y708104D01*
X277812Y713660D01*
X278479Y714771D01*
X279812Y715326D01*
X281146Y715326D01*
X282479Y714771D01*
X283146Y713660D01*
G54D10*
X303212Y706438D02*
X303212Y715326D01*
G54D10*
X24321Y666115D02*
X29654Y666115D01*
G54D10*
X26988Y668338D02*
X26987Y663893D01*
G54D10*
X32098Y667782D02*
X35431Y671115D01*
X35431Y662226D01*
G54D10*
X43208Y662226D02*
X37875Y662226D01*
X37875Y662782D01*
X38541Y663893D01*
X42541Y667226D01*
X43208Y668337D01*
X43208Y669448D01*
X42541Y670560D01*
X41208Y671115D01*
X39875Y671115D01*
X38541Y670560D01*
X37875Y669448D01*
G54D10*
X45652Y671115D02*
X48985Y662226D01*
X52318Y671115D01*
G54D10*
X54763Y666115D02*
X60096Y666115D01*
G54D10*
X122238Y986551D02*
X127571Y986551D01*
G54D10*
X124904Y988774D02*
X124904Y984329D01*
G54D10*
X71438Y986551D02*
X76771Y986551D01*
G54D11*
X80962Y627459D02*
X80962Y576262D01*
X4762Y576262D01*
X4762Y627459D01*
G54D11*
X80962Y627459D02*
X4762Y627459D01*
G54D11*
X55562Y576262D02*
X55562Y582612D01*
X30162Y582612D01*
X30162Y576262D01*
G54D11*
X55562Y633412D02*
X55562Y627062D01*
G54D11*
X30162Y633412D02*
X30162Y627062D01*
G54D11*
X165100Y627459D02*
X165100Y576262D01*
X88900Y576262D01*
X88900Y627459D01*
G54D11*
X165100Y627459D02*
X88900Y627459D01*
G54D11*
X139700Y576262D02*
X139700Y582612D01*
X114300Y582612D01*
X114300Y576262D01*
G54D11*
X139700Y633412D02*
X139700Y627062D01*
G54D11*
X114300Y633412D02*
X114300Y627062D01*
G54D11*
X250825Y627459D02*
X250825Y576262D01*
X174625Y576262D01*
X174625Y627459D01*
G54D11*
X250825Y627459D02*
X174625Y627459D01*
G54D11*
X225425Y576262D02*
X225425Y582612D01*
X200025Y582612D01*
X200025Y576262D01*
G54D11*
X225425Y633412D02*
X225425Y627062D01*
G54D11*
X200025Y633412D02*
X200025Y627062D01*
G54D11*
X334962Y627459D02*
X334962Y576262D01*
X258762Y576262D01*
X258762Y627459D01*
G54D11*
X334962Y627459D02*
X258762Y627459D01*
G54D11*
X309562Y576262D02*
X309562Y582612D01*
X284162Y582612D01*
X284162Y576262D01*
G54D11*
X309562Y633412D02*
X309562Y627062D01*
G54D11*
X284162Y633412D02*
X284162Y627062D01*
G54D10*
X284323Y665639D02*
X289656Y665639D01*
G54D10*
X286990Y667861D02*
X286990Y663417D01*
G54D10*
X297433Y670639D02*
X292100Y670639D01*
X292100Y666750D01*
X292767Y666750D01*
X294100Y667306D01*
X295433Y667306D01*
X296767Y666750D01*
X297433Y665639D01*
X297433Y663417D01*
X296767Y662306D01*
X295433Y661750D01*
X294100Y661750D01*
X292767Y662306D01*
X292100Y663417D01*
G54D10*
X299877Y670639D02*
X303210Y661750D01*
X306544Y670639D01*
G54D10*
X308988Y665639D02*
X314321Y665639D01*
G54D10*
X110046Y666115D02*
X115379Y666115D01*
G54D10*
X112712Y668338D02*
X112712Y663893D01*
G54D10*
X117823Y667782D02*
X121156Y671115D01*
X121156Y662226D01*
G54D10*
X128933Y662226D02*
X123600Y662226D01*
X123600Y662782D01*
X124266Y663893D01*
X128266Y667226D01*
X128933Y668337D01*
X128933Y669448D01*
X128266Y670560D01*
X126933Y671115D01*
X125600Y671115D01*
X124266Y670560D01*
X123600Y669448D01*
G54D10*
X131377Y671115D02*
X134710Y662226D01*
X138043Y671115D01*
G54D10*
X140488Y666115D02*
X145821Y666115D01*
G54D10*
X410190Y847405D02*
X410190Y842071D01*
G54D10*
X406301Y834294D02*
X406301Y839628D01*
X406857Y839628D01*
X407968Y838961D01*
X411301Y834961D01*
X412412Y834294D01*
X413524Y834294D01*
X414634Y834961D01*
X415190Y836294D01*
X415190Y837628D01*
X414634Y838961D01*
X413524Y839628D01*
G54D10*
X406301Y827851D02*
X415190Y827851D01*
X409634Y831851D01*
X408524Y831851D01*
X408524Y826517D01*
G54D10*
X415190Y824074D02*
X406301Y820740D01*
X415190Y817407D01*
G54D10*
X410190Y814963D02*
X410190Y809629D01*
G54D10*
X412412Y812296D02*
X407968Y812296D01*
G54D11*
X481012Y928688D02*
X481012Y979488D01*
X379412Y979488D01*
X379412Y928688D01*
G54D11*
X481012Y928688D02*
X481012Y890588D01*
X379412Y890588D01*
X379412Y928688D01*
G54D11*
X468312Y979488D02*
X468312Y966788D01*
X442912Y966788D01*
X442912Y979488D01*
G54D11*
X417512Y979488D02*
X417512Y966788D01*
X392112Y966788D01*
X392112Y979488D01*
G54D11*
X341312Y795338D02*
X401638Y795337D01*
G54D11*
X341312Y871537D02*
X401638Y871537D01*
X401638Y795337D01*
G54D11*
X341312Y795338D02*
X341312Y871537D01*
G54D11*
X341312Y820738D02*
X347662Y820738D01*
X347662Y846138D01*
X341312Y846138D01*
G54D11*
X341312Y706438D02*
X401638Y706438D01*
G54D11*
X341312Y782638D02*
X401638Y782638D01*
X401638Y706438D01*
G54D11*
X341312Y706438D02*
X341312Y782638D01*
G54D11*
X341312Y731838D02*
X347662Y731838D01*
X347662Y757238D01*
X341312Y757238D01*
G54D11*
X428625Y674687D02*
X533400Y674687D01*
X533400Y839787D01*
X428625Y839787D01*
X428625Y674687D01*
G54D11*
X442913Y674687D02*
X442913Y700087D01*
X519113Y700087D01*
X519113Y674687D01*
G54D10*
X460946Y726360D02*
X460946Y720804D01*
X460279Y719693D01*
X458946Y719137D01*
X457613Y719137D01*
X456279Y719693D01*
X455613Y720804D01*
X455612Y726360D01*
X456279Y727471D01*
X457612Y728026D01*
X458946Y728026D01*
X460279Y727471D01*
X460946Y726360D01*
G54D10*
X463390Y719137D02*
X463390Y728026D01*
G54D10*
X463390Y721915D02*
X468723Y728026D01*
G54D10*
X465390Y723582D02*
X468723Y719137D01*
G54D10*
X471167Y719137D02*
X471167Y728026D01*
G54D10*
X473611Y723026D02*
X478944Y723026D01*
G54D10*
X481388Y728026D02*
X486721Y728026D01*
X486054Y726915D01*
X484721Y725248D01*
X483388Y723026D01*
X482721Y721360D01*
X482721Y719137D01*
G54D10*
X492498Y723582D02*
X491165Y723582D01*
X489831Y724137D01*
X489165Y725248D01*
X489165Y726360D01*
X489831Y727471D01*
X491165Y728026D01*
X492498Y728026D01*
X493831Y727471D01*
X494498Y726360D01*
X494498Y725248D01*
X493831Y724137D01*
X492498Y723582D01*
X493831Y723026D01*
X494498Y721915D01*
X494498Y720804D01*
X493831Y719693D01*
X492498Y719137D01*
X491165Y719137D01*
X489831Y719693D01*
X489165Y720804D01*
X489165Y721915D01*
X489831Y723026D01*
X491165Y723582D01*
G54D10*
X496942Y720804D02*
X497608Y719693D01*
X498942Y719137D01*
X500275Y719137D01*
X501608Y719693D01*
X502275Y720804D01*
X502275Y721915D01*
X501608Y723026D01*
X500275Y723582D01*
X498942Y723582D01*
X497608Y724137D01*
X496942Y725248D01*
X496942Y726360D01*
X497608Y727471D01*
X498942Y728026D01*
X500275Y728026D01*
X501608Y727471D01*
X502275Y726360D01*
G54D10*
X507385Y723582D02*
X509385Y722471D01*
X510052Y721360D01*
X510052Y719137D01*
G54D10*
X504719Y719137D02*
X504719Y728026D01*
X508052Y728026D01*
X509385Y727471D01*
X510052Y726360D01*
X510052Y725248D01*
X509385Y724137D01*
X508052Y723582D01*
X504719Y723582D01*
G54D10*
X460549Y713660D02*
X460549Y708104D01*
X459882Y706993D01*
X458549Y706437D01*
X457216Y706437D01*
X455882Y706993D01*
X455216Y708104D01*
X455216Y713660D01*
X455882Y714771D01*
X457216Y715326D01*
X458549Y715326D01*
X459882Y714771D01*
X460549Y713660D01*
G54D10*
X483679Y710882D02*
X486346Y710882D01*
X486346Y708104D01*
X485679Y706993D01*
X484346Y706437D01*
X483013Y706437D01*
X481679Y706993D01*
X481013Y708104D01*
X481012Y713660D01*
X481679Y714771D01*
X483013Y715326D01*
X484346Y715326D01*
X485679Y714771D01*
X486346Y713660D01*
G54D10*
X506413Y706437D02*
X506413Y715326D01*
G54D11*
X406797Y885031D02*
X479822Y885031D01*
X479822Y851694D01*
X406797Y851694D01*
X406797Y885031D01*
G54D11*
X638770Y861219D02*
X638770Y848717D01*
X507206Y848717D01*
X507206Y861219D01*
G54D11*
X638770Y910431D02*
X638770Y988616D01*
X507206Y988616D01*
X507206Y910431D01*
G54D10*
X603886Y873919D02*
X612775Y877252D01*
X603886Y880585D01*
G54D10*
X611108Y888363D02*
X612220Y887696D01*
X612775Y886363D01*
X612775Y885030D01*
X612220Y883696D01*
X611108Y883030D01*
X605553Y883030D01*
X604442Y883696D01*
X603886Y885030D01*
X603886Y886363D01*
X604442Y887696D01*
X605553Y888363D01*
G54D10*
X611108Y896140D02*
X612220Y895473D01*
X612775Y894140D01*
X612775Y892807D01*
X612220Y891473D01*
X611108Y890807D01*
X605553Y890807D01*
X604442Y891473D01*
X603886Y892807D01*
X603886Y894140D01*
X604442Y895473D01*
X605553Y896140D01*
G54D10*
X587375Y873919D02*
X578486Y873919D01*
X578486Y877252D01*
X579042Y878585D01*
X580153Y879252D01*
X585708Y879252D01*
X586820Y878585D01*
X587375Y877252D01*
X587375Y873919D01*
G54D10*
X583486Y881696D02*
X583486Y887029D01*
G54D10*
X568325Y873919D02*
X559436Y873919D01*
X559436Y877252D01*
X559992Y878585D01*
X561103Y879252D01*
X566658Y879252D01*
X567770Y878585D01*
X568325Y877252D01*
X568325Y873919D01*
G54D10*
X564436Y881696D02*
X564436Y887029D01*
G54D10*
X562214Y884362D02*
X566658Y884362D01*
G54D10*
X538480Y876585D02*
X538480Y879252D01*
X541258Y879252D01*
X542370Y878585D01*
X542925Y877252D01*
X542925Y875919D01*
X542370Y874585D01*
X541258Y873919D01*
X535703Y873919D01*
X534592Y874585D01*
X534036Y875919D01*
X534036Y877252D01*
X534592Y878585D01*
X535703Y879252D01*
G54D10*
X542925Y881696D02*
X534036Y881696D01*
X542925Y887029D01*
X534036Y887029D01*
G54D10*
X542925Y889473D02*
X534036Y889473D01*
X534036Y892806D01*
X534592Y894139D01*
X535703Y894806D01*
X541258Y894806D01*
X542370Y894139D01*
X542925Y892806D01*
X542925Y889473D01*
G54D10*
X410190Y771205D02*
X410190Y765871D01*
G54D10*
X406301Y758094D02*
X406301Y763428D01*
X406857Y763428D01*
X407968Y762761D01*
X411301Y758761D01*
X412412Y758094D01*
X413524Y758094D01*
X414634Y758761D01*
X415190Y760094D01*
X415190Y761428D01*
X414634Y762761D01*
X413524Y763428D01*
G54D10*
X406301Y751651D02*
X415190Y751651D01*
X409634Y755651D01*
X408524Y755651D01*
X408524Y750317D01*
G54D10*
X415190Y747874D02*
X406301Y744540D01*
X415190Y741207D01*
G54D10*
X410190Y738763D02*
X410190Y733429D01*
G54D10*
X412412Y736096D02*
X407968Y736096D01*
G54D12*
X352512Y922288D02*
X374512Y922288D01*
X374512Y884288D01*
X352512Y884288D01*
X352512Y922288D01*
G54D12*
X374512Y941438D02*
X352512Y941438D01*
X352512Y979438D01*
X374512Y979438D01*
X374512Y941438D01*
G54D10*
X528798Y665639D02*
X534131Y665639D01*
G54D10*
X531465Y667861D02*
X531465Y663417D01*
G54D10*
X541908Y670639D02*
X536575Y670639D01*
X536575Y666750D01*
X537242Y666750D01*
X538575Y667306D01*
X539908Y667306D01*
X541242Y666750D01*
X541908Y665639D01*
X541908Y663417D01*
X541242Y662306D01*
X539908Y661750D01*
X538575Y661750D01*
X537242Y662306D01*
X536575Y663417D01*
G54D10*
X544352Y670639D02*
X547685Y661750D01*
X551019Y670639D01*
G54D10*
X553463Y665639D02*
X558796Y665639D01*
G54D11*
X555625Y674688D02*
X660400Y674688D01*
X660400Y839788D01*
X555625Y839788D01*
X555625Y674688D01*
G54D11*
X569912Y674688D02*
X569912Y700088D01*
X646112Y700088D01*
X646112Y674688D01*
G54D10*
X587946Y726360D02*
X587946Y720804D01*
X587279Y719693D01*
X585946Y719138D01*
X584612Y719138D01*
X583279Y719693D01*
X582612Y720804D01*
X582612Y726360D01*
X583279Y727471D01*
X584612Y728026D01*
X585946Y728026D01*
X587279Y727471D01*
X587946Y726360D01*
G54D10*
X590390Y719138D02*
X590389Y728026D01*
G54D10*
X590390Y721915D02*
X595723Y728026D01*
G54D10*
X592389Y723582D02*
X595723Y719138D01*
G54D10*
X598166Y719138D02*
X598167Y728026D01*
G54D10*
X600610Y723026D02*
X605944Y723026D01*
G54D10*
X608388Y728026D02*
X613721Y728026D01*
X613054Y726915D01*
X611721Y725249D01*
X610388Y723026D01*
X609721Y721360D01*
X609721Y719138D01*
G54D10*
X619498Y723582D02*
X618164Y723582D01*
X616831Y724138D01*
X616164Y725249D01*
X616164Y726360D01*
X616831Y727471D01*
X618165Y728026D01*
X619498Y728026D01*
X620831Y727471D01*
X621498Y726360D01*
X621498Y725249D01*
X620831Y724138D01*
X619498Y723582D01*
X620831Y723026D01*
X621498Y721915D01*
X621498Y720804D01*
X620831Y719693D01*
X619498Y719138D01*
X618165Y719138D01*
X616831Y719693D01*
X616164Y720804D01*
X616164Y721915D01*
X616831Y723026D01*
X618164Y723582D01*
G54D10*
X623942Y720804D02*
X624608Y719693D01*
X625942Y719138D01*
X627275Y719138D01*
X628608Y719693D01*
X629275Y720804D01*
X629275Y721915D01*
X628608Y723026D01*
X627275Y723582D01*
X625942Y723582D01*
X624608Y724138D01*
X623942Y725249D01*
X623942Y726360D01*
X624608Y727471D01*
X625942Y728026D01*
X627275Y728026D01*
X628608Y727471D01*
X629275Y726360D01*
G54D10*
X634385Y723582D02*
X636385Y722471D01*
X637052Y721360D01*
X637052Y719138D01*
G54D10*
X631719Y719138D02*
X631719Y728026D01*
X635052Y728026D01*
X636385Y727471D01*
X637052Y726360D01*
X637052Y725249D01*
X636385Y724138D01*
X635052Y723582D01*
X631718Y723582D01*
G54D10*
X587549Y713660D02*
X587549Y708104D01*
X586882Y706993D01*
X585549Y706438D01*
X584216Y706438D01*
X582882Y706993D01*
X582216Y708104D01*
X582216Y713660D01*
X582882Y714771D01*
X584216Y715326D01*
X585549Y715326D01*
X586882Y714771D01*
X587549Y713660D01*
G54D10*
X610679Y710882D02*
X613346Y710882D01*
X613346Y708104D01*
X612679Y706993D01*
X611346Y706438D01*
X610012Y706438D01*
X608679Y706993D01*
X608012Y708104D01*
X608012Y713660D01*
X608679Y714771D01*
X610012Y715326D01*
X611346Y715326D01*
X612679Y714771D01*
X613346Y713660D01*
G54D10*
X633412Y706438D02*
X633412Y715326D01*
G54D10*
X354521Y666115D02*
X359854Y666115D01*
G54D10*
X357188Y668338D02*
X357187Y663893D01*
G54D10*
X362298Y667782D02*
X365631Y671115D01*
X365631Y662226D01*
G54D10*
X373408Y662226D02*
X368075Y662226D01*
X368075Y662782D01*
X368741Y663893D01*
X372741Y667226D01*
X373408Y668337D01*
X373408Y669448D01*
X372741Y670560D01*
X371408Y671115D01*
X370075Y671115D01*
X368741Y670560D01*
X368075Y669448D01*
G54D10*
X375852Y671115D02*
X379185Y662226D01*
X382518Y671115D01*
G54D10*
X384963Y666115D02*
X390296Y666115D01*
G54D10*
X452438Y986551D02*
X457771Y986551D01*
G54D10*
X455104Y988774D02*
X455104Y984329D01*
G54D10*
X401638Y986551D02*
X406971Y986551D01*
G54D11*
X411162Y627459D02*
X411162Y576262D01*
X334962Y576262D01*
X334962Y627459D01*
G54D11*
X411162Y627459D02*
X334962Y627459D01*
G54D11*
X385762Y576262D02*
X385762Y582612D01*
X360362Y582612D01*
X360362Y576262D01*
G54D11*
X385762Y633412D02*
X385762Y627062D01*
G54D11*
X360362Y633412D02*
X360362Y627062D01*
G54D11*
X495300Y627459D02*
X495300Y576262D01*
X419100Y576262D01*
X419100Y627459D01*
G54D11*
X495300Y627459D02*
X419100Y627459D01*
G54D11*
X469900Y576262D02*
X469900Y582612D01*
X444500Y582612D01*
X444500Y576262D01*
G54D11*
X469900Y633412D02*
X469900Y627062D01*
G54D11*
X444500Y633412D02*
X444500Y627062D01*
G54D11*
X581025Y627459D02*
X581025Y576262D01*
X504825Y576262D01*
X504825Y627459D01*
G54D11*
X581025Y627459D02*
X504825Y627459D01*
G54D11*
X555625Y576262D02*
X555625Y582612D01*
X530225Y582612D01*
X530225Y576262D01*
G54D11*
X555625Y633412D02*
X555625Y627062D01*
G54D11*
X530225Y633412D02*
X530225Y627062D01*
G54D11*
X665162Y627459D02*
X665162Y576262D01*
X588962Y576262D01*
X588962Y627459D01*
G54D11*
X665162Y627459D02*
X588962Y627459D01*
G54D11*
X639762Y576262D02*
X639762Y582612D01*
X614362Y582612D01*
X614362Y576262D01*
G54D11*
X639762Y633412D02*
X639762Y627062D01*
G54D11*
X614362Y633412D02*
X614362Y627062D01*
G54D10*
X614523Y665639D02*
X619856Y665639D01*
G54D10*
X617190Y667861D02*
X617190Y663417D01*
G54D10*
X627633Y670639D02*
X622300Y670639D01*
X622300Y666750D01*
X622967Y666750D01*
X624300Y667306D01*
X625633Y667306D01*
X626967Y666750D01*
X627633Y665639D01*
X627633Y663417D01*
X626967Y662306D01*
X625633Y661750D01*
X624300Y661750D01*
X622967Y662306D01*
X622300Y663417D01*
G54D10*
X630077Y670639D02*
X633410Y661750D01*
X636744Y670639D01*
G54D10*
X639188Y665639D02*
X644521Y665639D01*
G54D10*
X440246Y666115D02*
X445579Y666115D01*
G54D10*
X442912Y668338D02*
X442912Y663893D01*
G54D10*
X448023Y667782D02*
X451356Y671115D01*
X451356Y662226D01*
G54D10*
X459133Y662226D02*
X453800Y662226D01*
X453800Y662782D01*
X454466Y663893D01*
X458466Y667226D01*
X459133Y668337D01*
X459133Y669448D01*
X458466Y670560D01*
X457133Y671115D01*
X455800Y671115D01*
X454466Y670560D01*
X453800Y669448D01*
G54D10*
X461577Y671115D02*
X464910Y662226D01*
X468243Y671115D01*
G54D10*
X470688Y666115D02*
X476021Y666115D01*
G54D10*
X740390Y847405D02*
X740390Y842071D01*
G54D10*
X736501Y834294D02*
X736501Y839628D01*
X737057Y839628D01*
X738168Y838961D01*
X741501Y834961D01*
X742612Y834294D01*
X743724Y834294D01*
X744834Y834961D01*
X745390Y836294D01*
X745390Y837628D01*
X744834Y838961D01*
X743724Y839628D01*
G54D10*
X736501Y827851D02*
X745390Y827851D01*
X739834Y831851D01*
X738724Y831851D01*
X738724Y826517D01*
G54D10*
X745390Y824074D02*
X736501Y820740D01*
X745390Y817407D01*
G54D10*
X740390Y814963D02*
X740390Y809629D01*
G54D10*
X742612Y812296D02*
X738168Y812296D01*
G54D11*
X811212Y928688D02*
X811212Y979488D01*
X709612Y979488D01*
X709612Y928688D01*
G54D11*
X811212Y928688D02*
X811212Y890588D01*
X709612Y890588D01*
X709612Y928688D01*
G54D11*
X798512Y979488D02*
X798512Y966788D01*
X773112Y966788D01*
X773112Y979488D01*
G54D11*
X747712Y979488D02*
X747712Y966788D01*
X722312Y966788D01*
X722312Y979488D01*
G54D11*
X671512Y795338D02*
X731838Y795337D01*
G54D11*
X671512Y871537D02*
X731838Y871537D01*
X731838Y795337D01*
G54D11*
X671512Y795338D02*
X671512Y871537D01*
G54D11*
X671512Y820738D02*
X677862Y820738D01*
X677862Y846138D01*
X671512Y846138D01*
G54D11*
X671512Y706438D02*
X731838Y706438D01*
G54D11*
X671512Y782638D02*
X731838Y782638D01*
X731838Y706438D01*
G54D11*
X671512Y706438D02*
X671512Y782638D01*
G54D11*
X671512Y731838D02*
X677862Y731838D01*
X677862Y757238D01*
X671512Y757238D01*
G54D11*
X758825Y674687D02*
X863600Y674687D01*
X863600Y839787D01*
X758825Y839787D01*
X758825Y674687D01*
G54D11*
X773113Y674687D02*
X773113Y700087D01*
X849313Y700087D01*
X849313Y674687D01*
G54D10*
X791146Y726360D02*
X791146Y720804D01*
X790479Y719693D01*
X789146Y719137D01*
X787813Y719137D01*
X786479Y719693D01*
X785813Y720804D01*
X785812Y726360D01*
X786479Y727471D01*
X787812Y728026D01*
X789146Y728026D01*
X790479Y727471D01*
X791146Y726360D01*
G54D10*
X793590Y719137D02*
X793590Y728026D01*
G54D10*
X793590Y721915D02*
X798923Y728026D01*
G54D10*
X795590Y723582D02*
X798923Y719137D01*
G54D10*
X801367Y719137D02*
X801367Y728026D01*
G54D10*
X803811Y723026D02*
X809144Y723026D01*
G54D10*
X811588Y728026D02*
X816921Y728026D01*
X816254Y726915D01*
X814921Y725248D01*
X813588Y723026D01*
X812921Y721360D01*
X812921Y719137D01*
G54D10*
X822698Y723582D02*
X821365Y723582D01*
X820031Y724137D01*
X819365Y725248D01*
X819365Y726360D01*
X820031Y727471D01*
X821365Y728026D01*
X822698Y728026D01*
X824031Y727471D01*
X824698Y726360D01*
X824698Y725248D01*
X824031Y724137D01*
X822698Y723582D01*
X824031Y723026D01*
X824698Y721915D01*
X824698Y720804D01*
X824031Y719693D01*
X822698Y719137D01*
X821365Y719137D01*
X820031Y719693D01*
X819365Y720804D01*
X819365Y721915D01*
X820031Y723026D01*
X821365Y723582D01*
G54D10*
X827142Y720804D02*
X827808Y719693D01*
X829142Y719137D01*
X830475Y719137D01*
X831808Y719693D01*
X832475Y720804D01*
X832475Y721915D01*
X831808Y723026D01*
X830475Y723582D01*
X829142Y723582D01*
X827808Y724137D01*
X827142Y725248D01*
X827142Y726360D01*
X827808Y727471D01*
X829142Y728026D01*
X830475Y728026D01*
X831808Y727471D01*
X832475Y726360D01*
G54D10*
X837585Y723582D02*
X839585Y722471D01*
X840252Y721360D01*
X840252Y719137D01*
G54D10*
X834919Y719137D02*
X834919Y728026D01*
X838252Y728026D01*
X839585Y727471D01*
X840252Y726360D01*
X840252Y725248D01*
X839585Y724137D01*
X838252Y723582D01*
X834919Y723582D01*
G54D10*
X790749Y713660D02*
X790749Y708104D01*
X790082Y706993D01*
X788749Y706437D01*
X787416Y706437D01*
X786082Y706993D01*
X785416Y708104D01*
X785416Y713660D01*
X786082Y714771D01*
X787416Y715326D01*
X788749Y715326D01*
X790082Y714771D01*
X790749Y713660D01*
G54D10*
X813879Y710882D02*
X816546Y710882D01*
X816546Y708104D01*
X815879Y706993D01*
X814546Y706437D01*
X813213Y706437D01*
X811879Y706993D01*
X811213Y708104D01*
X811212Y713660D01*
X811879Y714771D01*
X813213Y715326D01*
X814546Y715326D01*
X815879Y714771D01*
X816546Y713660D01*
G54D10*
X836613Y706437D02*
X836613Y715326D01*
G54D11*
X736997Y885031D02*
X810022Y885031D01*
X810022Y851694D01*
X736997Y851694D01*
X736997Y885031D01*
G54D11*
X968970Y861219D02*
X968970Y848717D01*
X837406Y848717D01*
X837406Y861219D01*
G54D11*
X968970Y910431D02*
X968970Y988616D01*
X837406Y988616D01*
X837406Y910431D01*
G54D10*
X934086Y873919D02*
X942975Y877252D01*
X934086Y880585D01*
G54D10*
X941308Y888363D02*
X942420Y887696D01*
X942975Y886363D01*
X942975Y885030D01*
X942420Y883696D01*
X941308Y883030D01*
X935753Y883030D01*
X934642Y883696D01*
X934086Y885030D01*
X934086Y886363D01*
X934642Y887696D01*
X935753Y888363D01*
G54D10*
X941308Y896140D02*
X942420Y895473D01*
X942975Y894140D01*
X942975Y892807D01*
X942420Y891473D01*
X941308Y890807D01*
X935753Y890807D01*
X934642Y891473D01*
X934086Y892807D01*
X934086Y894140D01*
X934642Y895473D01*
X935753Y896140D01*
G54D10*
X917575Y873919D02*
X908686Y873919D01*
X908686Y877252D01*
X909242Y878585D01*
X910353Y879252D01*
X915908Y879252D01*
X917020Y878585D01*
X917575Y877252D01*
X917575Y873919D01*
G54D10*
X913686Y881696D02*
X913686Y887029D01*
G54D10*
X898525Y873919D02*
X889636Y873919D01*
X889636Y877252D01*
X890192Y878585D01*
X891303Y879252D01*
X896858Y879252D01*
X897970Y878585D01*
X898525Y877252D01*
X898525Y873919D01*
G54D10*
X894636Y881696D02*
X894636Y887029D01*
G54D10*
X892414Y884362D02*
X896858Y884362D01*
G54D10*
X868680Y876585D02*
X868680Y879252D01*
X871458Y879252D01*
X872570Y878585D01*
X873125Y877252D01*
X873125Y875919D01*
X872570Y874585D01*
X871458Y873919D01*
X865903Y873919D01*
X864792Y874585D01*
X864236Y875919D01*
X864236Y877252D01*
X864792Y878585D01*
X865903Y879252D01*
G54D10*
X873125Y881696D02*
X864236Y881696D01*
X873125Y887029D01*
X864236Y887029D01*
G54D10*
X873125Y889473D02*
X864236Y889473D01*
X864236Y892806D01*
X864792Y894139D01*
X865903Y894806D01*
X871458Y894806D01*
X872570Y894139D01*
X873125Y892806D01*
X873125Y889473D01*
G54D10*
X740390Y771205D02*
X740390Y765871D01*
G54D10*
X736501Y758094D02*
X736501Y763428D01*
X737057Y763428D01*
X738168Y762761D01*
X741501Y758761D01*
X742612Y758094D01*
X743724Y758094D01*
X744834Y758761D01*
X745390Y760094D01*
X745390Y761428D01*
X744834Y762761D01*
X743724Y763428D01*
G54D10*
X736501Y751651D02*
X745390Y751651D01*
X739834Y755651D01*
X738724Y755651D01*
X738724Y750317D01*
G54D10*
X745390Y747874D02*
X736501Y744540D01*
X745390Y741207D01*
G54D10*
X740390Y738763D02*
X740390Y733429D01*
G54D10*
X742612Y736096D02*
X738168Y736096D01*
G54D12*
X682712Y922288D02*
X704712Y922288D01*
X704712Y884288D01*
X682712Y884288D01*
X682712Y922288D01*
G54D12*
X704712Y941438D02*
X682712Y941438D01*
X682712Y979438D01*
X704712Y979438D01*
X704712Y941438D01*
G54D10*
X858998Y665639D02*
X864331Y665639D01*
G54D10*
X861665Y667861D02*
X861665Y663417D01*
G54D10*
X872108Y670639D02*
X866775Y670639D01*
X866775Y666750D01*
X867442Y666750D01*
X868775Y667306D01*
X870108Y667306D01*
X871442Y666750D01*
X872108Y665639D01*
X872108Y663417D01*
X871442Y662306D01*
X870108Y661750D01*
X868775Y661750D01*
X867442Y662306D01*
X866775Y663417D01*
G54D10*
X874552Y670639D02*
X877885Y661750D01*
X881219Y670639D01*
G54D10*
X883663Y665639D02*
X888996Y665639D01*
G54D11*
X885825Y674688D02*
X990600Y674688D01*
X990600Y839788D01*
X885825Y839788D01*
X885825Y674688D01*
G54D11*
X900112Y674688D02*
X900112Y700088D01*
X976312Y700088D01*
X976312Y674688D01*
G54D10*
X918146Y726360D02*
X918146Y720804D01*
X917479Y719693D01*
X916146Y719138D01*
X914812Y719138D01*
X913479Y719693D01*
X912812Y720804D01*
X912812Y726360D01*
X913479Y727471D01*
X914812Y728026D01*
X916146Y728026D01*
X917479Y727471D01*
X918146Y726360D01*
G54D10*
X920590Y719138D02*
X920589Y728026D01*
G54D10*
X920590Y721915D02*
X925923Y728026D01*
G54D10*
X922589Y723582D02*
X925923Y719138D01*
G54D10*
X928366Y719138D02*
X928367Y728026D01*
G54D10*
X930810Y723026D02*
X936144Y723026D01*
G54D10*
X938588Y728026D02*
X943921Y728026D01*
X943254Y726915D01*
X941921Y725249D01*
X940588Y723026D01*
X939921Y721360D01*
X939921Y719138D01*
G54D10*
X949698Y723582D02*
X948364Y723582D01*
X947031Y724138D01*
X946364Y725249D01*
X946364Y726360D01*
X947031Y727471D01*
X948365Y728026D01*
X949698Y728026D01*
X951031Y727471D01*
X951698Y726360D01*
X951698Y725249D01*
X951031Y724138D01*
X949698Y723582D01*
X951031Y723026D01*
X951698Y721915D01*
X951698Y720804D01*
X951031Y719693D01*
X949698Y719138D01*
X948365Y719138D01*
X947031Y719693D01*
X946364Y720804D01*
X946364Y721915D01*
X947031Y723026D01*
X948364Y723582D01*
G54D10*
X954142Y720804D02*
X954808Y719693D01*
X956142Y719138D01*
X957475Y719138D01*
X958808Y719693D01*
X959475Y720804D01*
X959475Y721915D01*
X958808Y723026D01*
X957475Y723582D01*
X956142Y723582D01*
X954808Y724138D01*
X954142Y725249D01*
X954142Y726360D01*
X954808Y727471D01*
X956142Y728026D01*
X957475Y728026D01*
X958808Y727471D01*
X959475Y726360D01*
G54D10*
X964585Y723582D02*
X966585Y722471D01*
X967252Y721360D01*
X967252Y719138D01*
G54D10*
X961919Y719138D02*
X961919Y728026D01*
X965252Y728026D01*
X966585Y727471D01*
X967252Y726360D01*
X967252Y725249D01*
X966585Y724138D01*
X965252Y723582D01*
X961918Y723582D01*
G54D10*
X917749Y713660D02*
X917749Y708104D01*
X917082Y706993D01*
X915749Y706438D01*
X914416Y706438D01*
X913082Y706993D01*
X912416Y708104D01*
X912416Y713660D01*
X913082Y714771D01*
X914416Y715326D01*
X915749Y715326D01*
X917082Y714771D01*
X917749Y713660D01*
G54D10*
X940879Y710882D02*
X943546Y710882D01*
X943546Y708104D01*
X942879Y706993D01*
X941546Y706438D01*
X940212Y706438D01*
X938879Y706993D01*
X938212Y708104D01*
X938212Y713660D01*
X938879Y714771D01*
X940212Y715326D01*
X941546Y715326D01*
X942879Y714771D01*
X943546Y713660D01*
G54D10*
X963612Y706438D02*
X963612Y715326D01*
G54D10*
X684721Y666115D02*
X690054Y666115D01*
G54D10*
X687388Y668338D02*
X687387Y663893D01*
G54D10*
X692498Y667782D02*
X695831Y671115D01*
X695831Y662226D01*
G54D10*
X703608Y662226D02*
X698275Y662226D01*
X698275Y662782D01*
X698941Y663893D01*
X702941Y667226D01*
X703608Y668337D01*
X703608Y669448D01*
X702941Y670560D01*
X701608Y671115D01*
X700275Y671115D01*
X698941Y670560D01*
X698275Y669448D01*
G54D10*
X706052Y671115D02*
X709385Y662226D01*
X712718Y671115D01*
G54D10*
X715163Y666115D02*
X720496Y666115D01*
G54D10*
X782638Y986551D02*
X787971Y986551D01*
G54D10*
X785304Y988774D02*
X785304Y984329D01*
G54D10*
X731838Y986551D02*
X737171Y986551D01*
G54D11*
X741362Y627459D02*
X741362Y576262D01*
X665162Y576262D01*
X665162Y627459D01*
G54D11*
X741362Y627459D02*
X665162Y627459D01*
G54D11*
X715962Y576262D02*
X715962Y582612D01*
X690562Y582612D01*
X690562Y576262D01*
G54D11*
X715962Y633412D02*
X715962Y627062D01*
G54D11*
X690562Y633412D02*
X690562Y627062D01*
G54D11*
X825500Y627459D02*
X825500Y576262D01*
X749300Y576262D01*
X749300Y627459D01*
G54D11*
X825500Y627459D02*
X749300Y627459D01*
G54D11*
X800100Y576262D02*
X800100Y582612D01*
X774700Y582612D01*
X774700Y576262D01*
G54D11*
X800100Y633412D02*
X800100Y627062D01*
G54D11*
X774700Y633412D02*
X774700Y627062D01*
G54D11*
X911225Y627459D02*
X911225Y576262D01*
X835025Y576262D01*
X835025Y627459D01*
G54D11*
X911225Y627459D02*
X835025Y627459D01*
G54D11*
X885825Y576262D02*
X885825Y582612D01*
X860425Y582612D01*
X860425Y576262D01*
G54D11*
X885825Y633412D02*
X885825Y627062D01*
G54D11*
X860425Y633412D02*
X860425Y627062D01*
G54D11*
X995362Y627459D02*
X995362Y576262D01*
X919162Y576262D01*
X919162Y627459D01*
G54D11*
X995362Y627459D02*
X919162Y627459D01*
G54D11*
X969962Y576262D02*
X969962Y582612D01*
X944562Y582612D01*
X944562Y576262D01*
G54D11*
X969962Y633412D02*
X969962Y627062D01*
G54D11*
X944562Y633412D02*
X944562Y627062D01*
G54D10*
X944723Y665639D02*
X950056Y665639D01*
G54D10*
X947390Y667861D02*
X947390Y663417D01*
G54D10*
X957833Y670639D02*
X952500Y670639D01*
X952500Y666750D01*
X953167Y666750D01*
X954500Y667306D01*
X955833Y667306D01*
X957167Y666750D01*
X957833Y665639D01*
X957833Y663417D01*
X957167Y662306D01*
X955833Y661750D01*
X954500Y661750D01*
X953167Y662306D01*
X952500Y663417D01*
G54D10*
X960277Y670639D02*
X963610Y661750D01*
X966944Y670639D01*
G54D10*
X969388Y665639D02*
X974721Y665639D01*
G54D10*
X770446Y666115D02*
X775779Y666115D01*
G54D10*
X773112Y668338D02*
X773112Y663893D01*
G54D10*
X778223Y667782D02*
X781556Y671115D01*
X781556Y662226D01*
G54D10*
X789333Y662226D02*
X784000Y662226D01*
X784000Y662782D01*
X784666Y663893D01*
X788666Y667226D01*
X789333Y668337D01*
X789333Y669448D01*
X788666Y670560D01*
X787333Y671115D01*
X786000Y671115D01*
X784666Y670560D01*
X784000Y669448D01*
G54D10*
X791777Y671115D02*
X795110Y662226D01*
X798443Y671115D01*
G54D10*
X800888Y666115D02*
X806221Y666115D01*
G54D10*
X79990Y431480D02*
X79990Y426146D01*
G54D10*
X76101Y418369D02*
X76101Y423703D01*
X76657Y423703D01*
X77768Y423036D01*
X81101Y419036D01*
X82212Y418369D01*
X83324Y418369D01*
X84434Y419036D01*
X84990Y420369D01*
X84990Y421703D01*
X84434Y423036D01*
X83324Y423703D01*
G54D10*
X76101Y411926D02*
X84990Y411926D01*
X79434Y415926D01*
X78324Y415926D01*
X78324Y410592D01*
G54D10*
X84990Y408149D02*
X76101Y404815D01*
X84990Y401482D01*
G54D10*
X79990Y399038D02*
X79990Y393704D01*
G54D10*
X82212Y396371D02*
X77768Y396371D01*
G54D11*
X150812Y512763D02*
X150812Y563562D01*
X49212Y563562D01*
X49212Y512762D01*
G54D11*
X150812Y512763D02*
X150812Y474662D01*
X49212Y474662D01*
X49212Y512762D01*
G54D11*
X138112Y563562D02*
X138112Y550862D01*
X112712Y550862D01*
X112712Y563562D01*
G54D11*
X87312Y563562D02*
X87312Y550862D01*
X61912Y550862D01*
X61912Y563562D01*
G54D11*
X11112Y379412D02*
X71438Y379412D01*
G54D11*
X11112Y455612D02*
X71438Y455612D01*
X71438Y379412D01*
G54D11*
X11112Y379412D02*
X11112Y455612D01*
G54D11*
X11112Y404812D02*
X17462Y404812D01*
X17462Y430212D01*
X11112Y430212D01*
G54D11*
X11112Y290512D02*
X71438Y290513D01*
G54D11*
X11112Y366713D02*
X71438Y366713D01*
X71438Y290513D01*
G54D11*
X11112Y290512D02*
X11112Y366713D01*
G54D11*
X11112Y315913D02*
X17462Y315913D01*
X17462Y341312D01*
X11112Y341312D01*
G54D11*
X98425Y258762D02*
X203200Y258762D01*
X203200Y423862D01*
X98425Y423862D01*
X98425Y258762D01*
G54D11*
X112713Y258762D02*
X112713Y284162D01*
X188913Y284162D01*
X188913Y258762D01*
G54D10*
X130746Y310434D02*
X130746Y304879D01*
X130079Y303768D01*
X128746Y303212D01*
X127413Y303212D01*
X126079Y303768D01*
X125413Y304879D01*
X125412Y310434D01*
X126079Y311546D01*
X127412Y312101D01*
X128746Y312101D01*
X130079Y311546D01*
X130746Y310434D01*
G54D10*
X133190Y303212D02*
X133190Y312101D01*
G54D10*
X133190Y305990D02*
X138523Y312101D01*
G54D10*
X135190Y307657D02*
X138523Y303212D01*
G54D10*
X140967Y303212D02*
X140967Y312101D01*
G54D10*
X143411Y307101D02*
X148744Y307101D01*
G54D10*
X151188Y312101D02*
X156521Y312101D01*
X155854Y310990D01*
X154521Y309323D01*
X153188Y307101D01*
X152521Y305434D01*
X152521Y303212D01*
G54D10*
X162298Y307657D02*
X160965Y307657D01*
X159631Y308212D01*
X158965Y309323D01*
X158965Y310434D01*
X159631Y311546D01*
X160965Y312101D01*
X162298Y312101D01*
X163631Y311546D01*
X164298Y310434D01*
X164298Y309323D01*
X163631Y308212D01*
X162298Y307657D01*
X163631Y307101D01*
X164298Y305990D01*
X164298Y304879D01*
X163631Y303768D01*
X162298Y303212D01*
X160965Y303212D01*
X159631Y303768D01*
X158965Y304879D01*
X158965Y305990D01*
X159631Y307101D01*
X160965Y307657D01*
G54D10*
X166742Y304879D02*
X167408Y303768D01*
X168742Y303212D01*
X170075Y303212D01*
X171408Y303768D01*
X172075Y304879D01*
X172075Y305990D01*
X171408Y307101D01*
X170075Y307657D01*
X168742Y307657D01*
X167408Y308212D01*
X166742Y309323D01*
X166742Y310434D01*
X167408Y311546D01*
X168742Y312101D01*
X170075Y312101D01*
X171408Y311546D01*
X172075Y310434D01*
G54D10*
X177185Y307657D02*
X179185Y306546D01*
X179852Y305434D01*
X179852Y303212D01*
G54D10*
X174519Y303212D02*
X174519Y312101D01*
X177852Y312101D01*
X179185Y311546D01*
X179852Y310434D01*
X179852Y309323D01*
X179185Y308212D01*
X177852Y307657D01*
X174519Y307657D01*
G54D10*
X130349Y297734D02*
X130349Y292179D01*
X129682Y291068D01*
X128349Y290512D01*
X127016Y290512D01*
X125682Y291068D01*
X125016Y292179D01*
X125016Y297734D01*
X125682Y298846D01*
X127016Y299401D01*
X128349Y299401D01*
X129682Y298846D01*
X130349Y297734D01*
G54D10*
X153479Y294957D02*
X156146Y294957D01*
X156146Y292179D01*
X155479Y291068D01*
X154146Y290512D01*
X152813Y290512D01*
X151479Y291068D01*
X150813Y292179D01*
X150812Y297734D01*
X151479Y298846D01*
X152813Y299401D01*
X154146Y299401D01*
X155479Y298846D01*
X156146Y297734D01*
G54D10*
X176213Y290512D02*
X176213Y299401D01*
G54D11*
X76597Y469106D02*
X149622Y469106D01*
X149622Y435769D01*
X76597Y435769D01*
X76597Y469106D01*
G54D11*
X308570Y445294D02*
X308570Y432792D01*
X177006Y432792D01*
X177006Y445294D01*
G54D11*
X308570Y494506D02*
X308570Y572691D01*
X177006Y572691D01*
X177006Y494506D01*
G54D10*
X273686Y457994D02*
X282575Y461327D01*
X273686Y464660D01*
G54D10*
X280908Y472438D02*
X282020Y471771D01*
X282575Y470438D01*
X282575Y469105D01*
X282020Y467771D01*
X280908Y467105D01*
X275353Y467105D01*
X274242Y467771D01*
X273686Y469105D01*
X273686Y470438D01*
X274242Y471771D01*
X275353Y472438D01*
G54D10*
X280908Y480215D02*
X282020Y479548D01*
X282575Y478215D01*
X282575Y476882D01*
X282020Y475548D01*
X280908Y474882D01*
X275353Y474882D01*
X274242Y475548D01*
X273686Y476882D01*
X273686Y478215D01*
X274242Y479548D01*
X275353Y480215D01*
G54D10*
X257175Y457994D02*
X248286Y457994D01*
X248286Y461327D01*
X248842Y462660D01*
X249953Y463327D01*
X255508Y463327D01*
X256620Y462660D01*
X257175Y461327D01*
X257175Y457994D01*
G54D10*
X253286Y465771D02*
X253286Y471104D01*
G54D10*
X238125Y457994D02*
X229236Y457994D01*
X229236Y461327D01*
X229792Y462660D01*
X230903Y463327D01*
X236458Y463327D01*
X237570Y462660D01*
X238125Y461327D01*
X238125Y457994D01*
G54D10*
X234236Y465771D02*
X234236Y471104D01*
G54D10*
X232014Y468437D02*
X236458Y468437D01*
G54D10*
X208280Y460660D02*
X208280Y463327D01*
X211058Y463327D01*
X212170Y462660D01*
X212725Y461327D01*
X212725Y459994D01*
X212170Y458660D01*
X211058Y457994D01*
X205503Y457994D01*
X204392Y458660D01*
X203836Y459994D01*
X203836Y461327D01*
X204392Y462660D01*
X205503Y463327D01*
G54D10*
X212725Y465771D02*
X203836Y465771D01*
X212725Y471104D01*
X203836Y471104D01*
G54D10*
X212725Y473548D02*
X203836Y473548D01*
X203836Y476881D01*
X204392Y478214D01*
X205503Y478881D01*
X211058Y478881D01*
X212170Y478214D01*
X212725Y476881D01*
X212725Y473548D01*
G54D10*
X79990Y355280D02*
X79990Y349946D01*
G54D10*
X76101Y342169D02*
X76101Y347503D01*
X76657Y347503D01*
X77768Y346836D01*
X81101Y342836D01*
X82212Y342169D01*
X83324Y342169D01*
X84434Y342836D01*
X84990Y344169D01*
X84990Y345503D01*
X84434Y346836D01*
X83324Y347503D01*
G54D10*
X76101Y335726D02*
X84990Y335726D01*
X79434Y339726D01*
X78324Y339726D01*
X78324Y334392D01*
G54D10*
X84990Y331949D02*
X76101Y328615D01*
X84990Y325282D01*
G54D10*
X79990Y322838D02*
X79990Y317504D01*
G54D10*
X82212Y320171D02*
X77768Y320171D01*
G54D12*
X22312Y506362D02*
X44312Y506362D01*
X44312Y468362D01*
X22312Y468362D01*
X22312Y506362D01*
G54D12*
X44312Y525512D02*
X22312Y525512D01*
X22312Y563512D01*
X44312Y563512D01*
X44312Y525512D01*
G54D10*
X198598Y249714D02*
X203931Y249714D01*
G54D10*
X201265Y251936D02*
X201265Y247492D01*
G54D10*
X211708Y254714D02*
X206375Y254714D01*
X206375Y250825D01*
X207042Y250825D01*
X208375Y251381D01*
X209708Y251381D01*
X211042Y250825D01*
X211708Y249714D01*
X211708Y247492D01*
X211042Y246381D01*
X209708Y245825D01*
X208375Y245825D01*
X207042Y246381D01*
X206375Y247492D01*
G54D10*
X214152Y254714D02*
X217485Y245825D01*
X220819Y254714D01*
G54D10*
X223263Y249714D02*
X228596Y249714D01*
G54D11*
X225425Y258762D02*
X330200Y258762D01*
X330200Y423862D01*
X225425Y423862D01*
X225425Y258762D01*
G54D11*
X239712Y258762D02*
X239712Y284162D01*
X315912Y284162D01*
X315912Y258762D01*
G54D10*
X257746Y310435D02*
X257746Y304879D01*
X257079Y303768D01*
X255746Y303212D01*
X254412Y303212D01*
X253079Y303768D01*
X252412Y304879D01*
X252412Y310435D01*
X253079Y311546D01*
X254412Y312101D01*
X255746Y312101D01*
X257079Y311546D01*
X257746Y310435D01*
G54D10*
X260190Y303212D02*
X260189Y312101D01*
G54D10*
X260190Y305990D02*
X265523Y312101D01*
G54D10*
X262189Y307657D02*
X265523Y303212D01*
G54D10*
X267966Y303212D02*
X267967Y312101D01*
G54D10*
X270410Y307101D02*
X275744Y307101D01*
G54D10*
X278188Y312101D02*
X283521Y312101D01*
X282854Y310990D01*
X281521Y309324D01*
X280188Y307101D01*
X279521Y305435D01*
X279521Y303212D01*
G54D10*
X289298Y307657D02*
X287964Y307657D01*
X286631Y308212D01*
X285964Y309324D01*
X285964Y310435D01*
X286631Y311546D01*
X287965Y312101D01*
X289298Y312101D01*
X290631Y311546D01*
X291298Y310435D01*
X291298Y309324D01*
X290631Y308212D01*
X289298Y307657D01*
X290631Y307101D01*
X291298Y305990D01*
X291298Y304879D01*
X290631Y303768D01*
X289298Y303212D01*
X287965Y303212D01*
X286631Y303768D01*
X285964Y304879D01*
X285964Y305990D01*
X286631Y307101D01*
X287964Y307657D01*
G54D10*
X293742Y304879D02*
X294408Y303768D01*
X295742Y303212D01*
X297075Y303212D01*
X298408Y303768D01*
X299075Y304879D01*
X299075Y305990D01*
X298408Y307101D01*
X297075Y307657D01*
X295742Y307657D01*
X294408Y308212D01*
X293742Y309324D01*
X293742Y310435D01*
X294408Y311546D01*
X295742Y312101D01*
X297075Y312101D01*
X298408Y311546D01*
X299075Y310435D01*
G54D10*
X304185Y307657D02*
X306185Y306546D01*
X306852Y305435D01*
X306852Y303212D01*
G54D10*
X301519Y303212D02*
X301519Y312101D01*
X304852Y312101D01*
X306185Y311546D01*
X306852Y310435D01*
X306852Y309324D01*
X306185Y308212D01*
X304852Y307657D01*
X301518Y307657D01*
G54D10*
X257349Y297735D02*
X257349Y292179D01*
X256682Y291068D01*
X255349Y290512D01*
X254016Y290512D01*
X252682Y291068D01*
X252016Y292179D01*
X252016Y297735D01*
X252682Y298846D01*
X254016Y299401D01*
X255349Y299401D01*
X256682Y298846D01*
X257349Y297735D01*
G54D10*
X280479Y294957D02*
X283146Y294957D01*
X283146Y292179D01*
X282479Y291068D01*
X281146Y290512D01*
X279812Y290512D01*
X278479Y291068D01*
X277812Y292179D01*
X277812Y297735D01*
X278479Y298846D01*
X279812Y299401D01*
X281146Y299401D01*
X282479Y298846D01*
X283146Y297735D01*
G54D10*
X303212Y290512D02*
X303212Y299401D01*
G54D10*
X24321Y250190D02*
X29654Y250190D01*
G54D10*
X26988Y252412D02*
X26987Y247968D01*
G54D10*
X32098Y251857D02*
X35431Y255190D01*
X35431Y246301D01*
G54D10*
X43208Y246301D02*
X37875Y246301D01*
X37875Y246857D01*
X38541Y247968D01*
X42541Y251301D01*
X43208Y252412D01*
X43208Y253523D01*
X42541Y254635D01*
X41208Y255190D01*
X39875Y255190D01*
X38541Y254635D01*
X37875Y253524D01*
G54D10*
X45652Y255190D02*
X48985Y246301D01*
X52318Y255190D01*
G54D10*
X54763Y250190D02*
X60096Y250190D01*
G54D10*
X122238Y570626D02*
X127571Y570626D01*
G54D10*
X124904Y572849D02*
X124904Y568404D01*
G54D10*
X71438Y570626D02*
X76771Y570626D01*
G54D11*
X80962Y211534D02*
X80962Y160338D01*
X4762Y160338D01*
X4762Y211534D01*
G54D11*
X80962Y211534D02*
X4762Y211534D01*
G54D11*
X55562Y160338D02*
X55562Y166688D01*
X30162Y166688D01*
X30162Y160338D01*
G54D11*
X55562Y217488D02*
X55562Y211138D01*
G54D11*
X30162Y217488D02*
X30162Y211138D01*
G54D11*
X165100Y211534D02*
X165100Y160338D01*
X88900Y160338D01*
X88900Y211534D01*
G54D11*
X165100Y211534D02*
X88900Y211534D01*
G54D11*
X139700Y160338D02*
X139700Y166688D01*
X114300Y166688D01*
X114300Y160338D01*
G54D11*
X139700Y217488D02*
X139700Y211138D01*
G54D11*
X114300Y217488D02*
X114300Y211138D01*
G54D11*
X250825Y211534D02*
X250825Y160338D01*
X174625Y160338D01*
X174625Y211534D01*
G54D11*
X250825Y211534D02*
X174625Y211534D01*
G54D11*
X225425Y160338D02*
X225425Y166688D01*
X200025Y166688D01*
X200025Y160338D01*
G54D11*
X225425Y217488D02*
X225425Y211138D01*
G54D11*
X200025Y217488D02*
X200025Y211138D01*
G54D11*
X334962Y211534D02*
X334962Y160338D01*
X258762Y160338D01*
X258762Y211534D01*
G54D11*
X334962Y211534D02*
X258762Y211534D01*
G54D11*
X309562Y160338D02*
X309562Y166688D01*
X284162Y166688D01*
X284162Y160338D01*
G54D11*
X309562Y217488D02*
X309562Y211138D01*
G54D11*
X284162Y217488D02*
X284162Y211138D01*
G54D10*
X284323Y249714D02*
X289656Y249714D01*
G54D10*
X286990Y251936D02*
X286990Y247492D01*
G54D10*
X297433Y254714D02*
X292100Y254714D01*
X292100Y250825D01*
X292767Y250825D01*
X294100Y251381D01*
X295433Y251381D01*
X296767Y250825D01*
X297433Y249714D01*
X297433Y247492D01*
X296767Y246381D01*
X295433Y245825D01*
X294100Y245825D01*
X292767Y246381D01*
X292100Y247492D01*
G54D10*
X299877Y254714D02*
X303210Y245825D01*
X306544Y254714D01*
G54D10*
X308988Y249714D02*
X314321Y249714D01*
G54D10*
X110046Y250190D02*
X115379Y250190D01*
G54D10*
X112712Y252412D02*
X112712Y247968D01*
G54D10*
X117823Y251857D02*
X121156Y255190D01*
X121156Y246301D01*
G54D10*
X128933Y246301D02*
X123600Y246301D01*
X123600Y246857D01*
X124266Y247968D01*
X128266Y251301D01*
X128933Y252412D01*
X128933Y253523D01*
X128266Y254635D01*
X126933Y255190D01*
X125600Y255190D01*
X124266Y254635D01*
X123600Y253524D01*
G54D10*
X131377Y255190D02*
X134710Y246301D01*
X138043Y255190D01*
G54D10*
X140488Y250190D02*
X145821Y250190D01*
G54D10*
X410190Y431480D02*
X410190Y426146D01*
G54D10*
X406301Y418369D02*
X406301Y423703D01*
X406857Y423703D01*
X407968Y423036D01*
X411301Y419036D01*
X412412Y418369D01*
X413524Y418369D01*
X414634Y419036D01*
X415190Y420369D01*
X415190Y421703D01*
X414634Y423036D01*
X413524Y423703D01*
G54D10*
X406301Y411926D02*
X415190Y411926D01*
X409634Y415926D01*
X408524Y415926D01*
X408524Y410592D01*
G54D10*
X415190Y408149D02*
X406301Y404815D01*
X415190Y401482D01*
G54D10*
X410190Y399038D02*
X410190Y393704D01*
G54D10*
X412412Y396371D02*
X407968Y396371D01*
G54D11*
X481012Y512763D02*
X481012Y563562D01*
X379412Y563562D01*
X379412Y512762D01*
G54D11*
X481012Y512763D02*
X481012Y474662D01*
X379412Y474662D01*
X379412Y512762D01*
G54D11*
X468312Y563562D02*
X468312Y550862D01*
X442912Y550862D01*
X442912Y563562D01*
G54D11*
X417512Y563562D02*
X417512Y550862D01*
X392112Y550862D01*
X392112Y563562D01*
G54D11*
X341312Y379412D02*
X401638Y379412D01*
G54D11*
X341312Y455612D02*
X401638Y455612D01*
X401638Y379412D01*
G54D11*
X341312Y379412D02*
X341312Y455612D01*
G54D11*
X341312Y404812D02*
X347662Y404812D01*
X347662Y430212D01*
X341312Y430212D01*
G54D11*
X341312Y290512D02*
X401638Y290513D01*
G54D11*
X341312Y366713D02*
X401638Y366713D01*
X401638Y290513D01*
G54D11*
X341312Y290512D02*
X341312Y366713D01*
G54D11*
X341312Y315913D02*
X347662Y315913D01*
X347662Y341312D01*
X341312Y341312D01*
G54D11*
X428625Y258762D02*
X533400Y258762D01*
X533400Y423862D01*
X428625Y423862D01*
X428625Y258762D01*
G54D11*
X442913Y258762D02*
X442913Y284162D01*
X519113Y284162D01*
X519113Y258762D01*
G54D10*
X460946Y310434D02*
X460946Y304879D01*
X460279Y303768D01*
X458946Y303212D01*
X457613Y303212D01*
X456279Y303768D01*
X455613Y304879D01*
X455612Y310434D01*
X456279Y311546D01*
X457612Y312101D01*
X458946Y312101D01*
X460279Y311546D01*
X460946Y310434D01*
G54D10*
X463390Y303212D02*
X463390Y312101D01*
G54D10*
X463390Y305990D02*
X468723Y312101D01*
G54D10*
X465390Y307657D02*
X468723Y303212D01*
G54D10*
X471167Y303212D02*
X471167Y312101D01*
G54D10*
X473611Y307101D02*
X478944Y307101D01*
G54D10*
X481388Y312101D02*
X486721Y312101D01*
X486054Y310990D01*
X484721Y309323D01*
X483388Y307101D01*
X482721Y305434D01*
X482721Y303212D01*
G54D10*
X492498Y307657D02*
X491165Y307657D01*
X489831Y308212D01*
X489165Y309323D01*
X489165Y310434D01*
X489831Y311546D01*
X491165Y312101D01*
X492498Y312101D01*
X493831Y311546D01*
X494498Y310434D01*
X494498Y309323D01*
X493831Y308212D01*
X492498Y307657D01*
X493831Y307101D01*
X494498Y305990D01*
X494498Y304879D01*
X493831Y303768D01*
X492498Y303212D01*
X491165Y303212D01*
X489831Y303768D01*
X489165Y304879D01*
X489165Y305990D01*
X489831Y307101D01*
X491165Y307657D01*
G54D10*
X496942Y304879D02*
X497608Y303768D01*
X498942Y303212D01*
X500275Y303212D01*
X501608Y303768D01*
X502275Y304879D01*
X502275Y305990D01*
X501608Y307101D01*
X500275Y307657D01*
X498942Y307657D01*
X497608Y308212D01*
X496942Y309323D01*
X496942Y310434D01*
X497608Y311546D01*
X498942Y312101D01*
X500275Y312101D01*
X501608Y311546D01*
X502275Y310434D01*
G54D10*
X507385Y307657D02*
X509385Y306546D01*
X510052Y305434D01*
X510052Y303212D01*
G54D10*
X504719Y303212D02*
X504719Y312101D01*
X508052Y312101D01*
X509385Y311546D01*
X510052Y310434D01*
X510052Y309323D01*
X509385Y308212D01*
X508052Y307657D01*
X504719Y307657D01*
G54D10*
X460549Y297734D02*
X460549Y292179D01*
X459882Y291068D01*
X458549Y290512D01*
X457216Y290512D01*
X455882Y291068D01*
X455216Y292179D01*
X455216Y297734D01*
X455882Y298846D01*
X457216Y299401D01*
X458549Y299401D01*
X459882Y298846D01*
X460549Y297734D01*
G54D10*
X483679Y294957D02*
X486346Y294957D01*
X486346Y292179D01*
X485679Y291068D01*
X484346Y290512D01*
X483013Y290512D01*
X481679Y291068D01*
X481013Y292179D01*
X481012Y297734D01*
X481679Y298846D01*
X483013Y299401D01*
X484346Y299401D01*
X485679Y298846D01*
X486346Y297734D01*
G54D10*
X506413Y290512D02*
X506413Y299401D01*
G54D11*
X406797Y469106D02*
X479822Y469106D01*
X479822Y435769D01*
X406797Y435769D01*
X406797Y469106D01*
G54D11*
X638770Y445294D02*
X638770Y432792D01*
X507206Y432792D01*
X507206Y445294D01*
G54D11*
X638770Y494506D02*
X638770Y572691D01*
X507206Y572691D01*
X507206Y494506D01*
G54D10*
X603886Y457994D02*
X612775Y461327D01*
X603886Y464660D01*
G54D10*
X611108Y472438D02*
X612220Y471771D01*
X612775Y470438D01*
X612775Y469105D01*
X612220Y467771D01*
X611108Y467105D01*
X605553Y467105D01*
X604442Y467771D01*
X603886Y469105D01*
X603886Y470438D01*
X604442Y471771D01*
X605553Y472438D01*
G54D10*
X611108Y480215D02*
X612220Y479548D01*
X612775Y478215D01*
X612775Y476882D01*
X612220Y475548D01*
X611108Y474882D01*
X605553Y474882D01*
X604442Y475548D01*
X603886Y476882D01*
X603886Y478215D01*
X604442Y479548D01*
X605553Y480215D01*
G54D10*
X587375Y457994D02*
X578486Y457994D01*
X578486Y461327D01*
X579042Y462660D01*
X580153Y463327D01*
X585708Y463327D01*
X586820Y462660D01*
X587375Y461327D01*
X587375Y457994D01*
G54D10*
X583486Y465771D02*
X583486Y471104D01*
G54D10*
X568325Y457994D02*
X559436Y457994D01*
X559436Y461327D01*
X559992Y462660D01*
X561103Y463327D01*
X566658Y463327D01*
X567770Y462660D01*
X568325Y461327D01*
X568325Y457994D01*
G54D10*
X564436Y465771D02*
X564436Y471104D01*
G54D10*
X562214Y468437D02*
X566658Y468437D01*
G54D10*
X538480Y460660D02*
X538480Y463327D01*
X541258Y463327D01*
X542370Y462660D01*
X542925Y461327D01*
X542925Y459994D01*
X542370Y458660D01*
X541258Y457994D01*
X535703Y457994D01*
X534592Y458660D01*
X534036Y459994D01*
X534036Y461327D01*
X534592Y462660D01*
X535703Y463327D01*
G54D10*
X542925Y465771D02*
X534036Y465771D01*
X542925Y471104D01*
X534036Y471104D01*
G54D10*
X542925Y473548D02*
X534036Y473548D01*
X534036Y476881D01*
X534592Y478214D01*
X535703Y478881D01*
X541258Y478881D01*
X542370Y478214D01*
X542925Y476881D01*
X542925Y473548D01*
G54D10*
X410190Y355280D02*
X410190Y349946D01*
G54D10*
X406301Y342169D02*
X406301Y347503D01*
X406857Y347503D01*
X407968Y346836D01*
X411301Y342836D01*
X412412Y342169D01*
X413524Y342169D01*
X414634Y342836D01*
X415190Y344169D01*
X415190Y345503D01*
X414634Y346836D01*
X413524Y347503D01*
G54D10*
X406301Y335726D02*
X415190Y335726D01*
X409634Y339726D01*
X408524Y339726D01*
X408524Y334392D01*
G54D10*
X415190Y331949D02*
X406301Y328615D01*
X415190Y325282D01*
G54D10*
X410190Y322838D02*
X410190Y317504D01*
G54D10*
X412412Y320171D02*
X407968Y320171D01*
G54D12*
X352512Y506362D02*
X374512Y506362D01*
X374512Y468362D01*
X352512Y468362D01*
X352512Y506362D01*
G54D12*
X374512Y525512D02*
X352512Y525512D01*
X352512Y563512D01*
X374512Y563512D01*
X374512Y525512D01*
G54D10*
X528798Y249714D02*
X534131Y249714D01*
G54D10*
X531465Y251936D02*
X531465Y247492D01*
G54D10*
X541908Y254714D02*
X536575Y254714D01*
X536575Y250825D01*
X537242Y250825D01*
X538575Y251381D01*
X539908Y251381D01*
X541242Y250825D01*
X541908Y249714D01*
X541908Y247492D01*
X541242Y246381D01*
X539908Y245825D01*
X538575Y245825D01*
X537242Y246381D01*
X536575Y247492D01*
G54D10*
X544352Y254714D02*
X547685Y245825D01*
X551019Y254714D01*
G54D10*
X553463Y249714D02*
X558796Y249714D01*
G54D11*
X555625Y258762D02*
X660400Y258762D01*
X660400Y423862D01*
X555625Y423862D01*
X555625Y258762D01*
G54D11*
X569912Y258762D02*
X569912Y284162D01*
X646112Y284162D01*
X646112Y258762D01*
G54D10*
X587946Y310435D02*
X587946Y304879D01*
X587279Y303768D01*
X585946Y303212D01*
X584612Y303212D01*
X583279Y303768D01*
X582612Y304879D01*
X582612Y310435D01*
X583279Y311546D01*
X584612Y312101D01*
X585946Y312101D01*
X587279Y311546D01*
X587946Y310435D01*
G54D10*
X590390Y303212D02*
X590389Y312101D01*
G54D10*
X590390Y305990D02*
X595723Y312101D01*
G54D10*
X592389Y307657D02*
X595723Y303212D01*
G54D10*
X598166Y303212D02*
X598167Y312101D01*
G54D10*
X600610Y307101D02*
X605944Y307101D01*
G54D10*
X608388Y312101D02*
X613721Y312101D01*
X613054Y310990D01*
X611721Y309324D01*
X610388Y307101D01*
X609721Y305435D01*
X609721Y303212D01*
G54D10*
X619498Y307657D02*
X618164Y307657D01*
X616831Y308212D01*
X616164Y309324D01*
X616164Y310435D01*
X616831Y311546D01*
X618165Y312101D01*
X619498Y312101D01*
X620831Y311546D01*
X621498Y310435D01*
X621498Y309324D01*
X620831Y308212D01*
X619498Y307657D01*
X620831Y307101D01*
X621498Y305990D01*
X621498Y304879D01*
X620831Y303768D01*
X619498Y303212D01*
X618165Y303212D01*
X616831Y303768D01*
X616164Y304879D01*
X616164Y305990D01*
X616831Y307101D01*
X618164Y307657D01*
G54D10*
X623942Y304879D02*
X624608Y303768D01*
X625942Y303212D01*
X627275Y303212D01*
X628608Y303768D01*
X629275Y304879D01*
X629275Y305990D01*
X628608Y307101D01*
X627275Y307657D01*
X625942Y307657D01*
X624608Y308212D01*
X623942Y309324D01*
X623942Y310435D01*
X624608Y311546D01*
X625942Y312101D01*
X627275Y312101D01*
X628608Y311546D01*
X629275Y310435D01*
G54D10*
X634385Y307657D02*
X636385Y306546D01*
X637052Y305435D01*
X637052Y303212D01*
G54D10*
X631719Y303212D02*
X631719Y312101D01*
X635052Y312101D01*
X636385Y311546D01*
X637052Y310435D01*
X637052Y309324D01*
X636385Y308212D01*
X635052Y307657D01*
X631718Y307657D01*
G54D10*
X587549Y297735D02*
X587549Y292179D01*
X586882Y291068D01*
X585549Y290512D01*
X584216Y290512D01*
X582882Y291068D01*
X582216Y292179D01*
X582216Y297735D01*
X582882Y298846D01*
X584216Y299401D01*
X585549Y299401D01*
X586882Y298846D01*
X587549Y297735D01*
G54D10*
X610679Y294957D02*
X613346Y294957D01*
X613346Y292179D01*
X612679Y291068D01*
X611346Y290512D01*
X610012Y290512D01*
X608679Y291068D01*
X608012Y292179D01*
X608012Y297735D01*
X608679Y298846D01*
X610012Y299401D01*
X611346Y299401D01*
X612679Y298846D01*
X613346Y297735D01*
G54D10*
X633412Y290512D02*
X633412Y299401D01*
G54D10*
X354521Y250190D02*
X359854Y250190D01*
G54D10*
X357188Y252412D02*
X357187Y247968D01*
G54D10*
X362298Y251857D02*
X365631Y255190D01*
X365631Y246301D01*
G54D10*
X373408Y246301D02*
X368075Y246301D01*
X368075Y246857D01*
X368741Y247968D01*
X372741Y251301D01*
X373408Y252412D01*
X373408Y253524D01*
X372741Y254635D01*
X371408Y255190D01*
X370075Y255190D01*
X368741Y254635D01*
X368075Y253524D01*
G54D10*
X375852Y255190D02*
X379185Y246301D01*
X382518Y255190D01*
G54D10*
X384963Y250190D02*
X390296Y250190D01*
G54D10*
X452438Y570626D02*
X457771Y570626D01*
G54D10*
X455104Y572849D02*
X455104Y568404D01*
G54D10*
X401638Y570626D02*
X406971Y570626D01*
G54D11*
X411162Y211534D02*
X411162Y160338D01*
X334962Y160338D01*
X334962Y211534D01*
G54D11*
X411162Y211534D02*
X334962Y211534D01*
G54D11*
X385762Y160338D02*
X385762Y166688D01*
X360362Y166688D01*
X360362Y160338D01*
G54D11*
X385762Y217488D02*
X385762Y211138D01*
G54D11*
X360362Y217488D02*
X360362Y211138D01*
G54D11*
X495300Y211534D02*
X495300Y160338D01*
X419100Y160338D01*
X419100Y211534D01*
G54D11*
X495300Y211534D02*
X419100Y211534D01*
G54D11*
X469900Y160338D02*
X469900Y166688D01*
X444500Y166688D01*
X444500Y160338D01*
G54D11*
X469900Y217488D02*
X469900Y211138D01*
G54D11*
X444500Y217488D02*
X444500Y211138D01*
G54D11*
X581025Y211534D02*
X581025Y160338D01*
X504825Y160338D01*
X504825Y211534D01*
G54D11*
X581025Y211534D02*
X504825Y211534D01*
G54D11*
X555625Y160338D02*
X555625Y166688D01*
X530225Y166688D01*
X530225Y160338D01*
G54D11*
X555625Y217488D02*
X555625Y211138D01*
G54D11*
X530225Y217488D02*
X530225Y211138D01*
G54D11*
X665162Y211534D02*
X665162Y160338D01*
X588962Y160338D01*
X588962Y211534D01*
G54D11*
X665162Y211534D02*
X588962Y211534D01*
G54D11*
X639762Y160338D02*
X639762Y166688D01*
X614362Y166688D01*
X614362Y160338D01*
G54D11*
X639762Y217488D02*
X639762Y211138D01*
G54D11*
X614362Y217488D02*
X614362Y211138D01*
G54D10*
X614523Y249714D02*
X619856Y249714D01*
G54D10*
X617190Y251936D02*
X617190Y247492D01*
G54D10*
X627633Y254714D02*
X622300Y254714D01*
X622300Y250825D01*
X622967Y250825D01*
X624300Y251381D01*
X625633Y251381D01*
X626967Y250825D01*
X627633Y249714D01*
X627633Y247492D01*
X626967Y246381D01*
X625633Y245825D01*
X624300Y245825D01*
X622967Y246381D01*
X622300Y247492D01*
G54D10*
X630077Y254714D02*
X633410Y245825D01*
X636744Y254714D01*
G54D10*
X639188Y249714D02*
X644521Y249714D01*
G54D10*
X440246Y250190D02*
X445579Y250190D01*
G54D10*
X442912Y252412D02*
X442912Y247968D01*
G54D10*
X448023Y251857D02*
X451356Y255190D01*
X451356Y246301D01*
G54D10*
X459133Y246301D02*
X453800Y246301D01*
X453800Y246857D01*
X454466Y247968D01*
X458466Y251301D01*
X459133Y252412D01*
X459133Y253524D01*
X458466Y254635D01*
X457133Y255190D01*
X455800Y255190D01*
X454466Y254635D01*
X453800Y253524D01*
G54D10*
X461577Y255190D02*
X464910Y246301D01*
X468243Y255190D01*
G54D10*
X470688Y250190D02*
X476021Y250190D01*
G54D10*
X740390Y431480D02*
X740390Y426146D01*
G54D10*
X736501Y418369D02*
X736501Y423703D01*
X737057Y423703D01*
X738168Y423036D01*
X741501Y419036D01*
X742612Y418369D01*
X743724Y418369D01*
X744834Y419036D01*
X745390Y420369D01*
X745390Y421703D01*
X744834Y423036D01*
X743724Y423703D01*
G54D10*
X736501Y411926D02*
X745390Y411926D01*
X739834Y415926D01*
X738724Y415926D01*
X738724Y410592D01*
G54D10*
X745390Y408149D02*
X736501Y404815D01*
X745390Y401482D01*
G54D10*
X740390Y399038D02*
X740390Y393704D01*
G54D10*
X742612Y396371D02*
X738168Y396371D01*
G54D11*
X811212Y512763D02*
X811212Y563562D01*
X709612Y563562D01*
X709612Y512762D01*
G54D11*
X811212Y512763D02*
X811212Y474662D01*
X709612Y474662D01*
X709612Y512762D01*
G54D11*
X798512Y563562D02*
X798512Y550862D01*
X773112Y550862D01*
X773112Y563562D01*
G54D11*
X747712Y563562D02*
X747712Y550862D01*
X722312Y550862D01*
X722312Y563562D01*
G54D11*
X671512Y379412D02*
X731838Y379412D01*
G54D11*
X671512Y455612D02*
X731838Y455612D01*
X731838Y379412D01*
G54D11*
X671512Y379412D02*
X671512Y455612D01*
G54D11*
X671512Y404812D02*
X677862Y404812D01*
X677862Y430212D01*
X671512Y430212D01*
G54D11*
X671512Y290512D02*
X731838Y290513D01*
G54D11*
X671512Y366713D02*
X731838Y366713D01*
X731838Y290513D01*
G54D11*
X671512Y290512D02*
X671512Y366713D01*
G54D11*
X671512Y315913D02*
X677862Y315913D01*
X677862Y341312D01*
X671512Y341312D01*
G54D11*
X758825Y258762D02*
X863600Y258762D01*
X863600Y423862D01*
X758825Y423862D01*
X758825Y258762D01*
G54D11*
X773113Y258762D02*
X773113Y284162D01*
X849313Y284162D01*
X849313Y258762D01*
G54D10*
X791146Y310434D02*
X791146Y304879D01*
X790479Y303768D01*
X789146Y303212D01*
X787813Y303212D01*
X786479Y303768D01*
X785813Y304879D01*
X785812Y310434D01*
X786479Y311546D01*
X787812Y312101D01*
X789146Y312101D01*
X790479Y311546D01*
X791146Y310434D01*
G54D10*
X793590Y303212D02*
X793590Y312101D01*
G54D10*
X793590Y305990D02*
X798923Y312101D01*
G54D10*
X795590Y307657D02*
X798923Y303212D01*
G54D10*
X801367Y303212D02*
X801367Y312101D01*
G54D10*
X803811Y307101D02*
X809144Y307101D01*
G54D10*
X811588Y312101D02*
X816921Y312101D01*
X816254Y310990D01*
X814921Y309323D01*
X813588Y307101D01*
X812921Y305434D01*
X812921Y303212D01*
G54D10*
X822698Y307657D02*
X821365Y307657D01*
X820031Y308212D01*
X819365Y309323D01*
X819365Y310434D01*
X820031Y311546D01*
X821365Y312101D01*
X822698Y312101D01*
X824031Y311546D01*
X824698Y310434D01*
X824698Y309323D01*
X824031Y308212D01*
X822698Y307657D01*
X824031Y307101D01*
X824698Y305990D01*
X824698Y304879D01*
X824031Y303768D01*
X822698Y303212D01*
X821365Y303212D01*
X820031Y303768D01*
X819365Y304879D01*
X819365Y305990D01*
X820031Y307101D01*
X821365Y307657D01*
G54D10*
X827142Y304879D02*
X827808Y303768D01*
X829142Y303212D01*
X830475Y303212D01*
X831808Y303768D01*
X832475Y304879D01*
X832475Y305990D01*
X831808Y307101D01*
X830475Y307657D01*
X829142Y307657D01*
X827808Y308212D01*
X827142Y309323D01*
X827142Y310434D01*
X827808Y311546D01*
X829142Y312101D01*
X830475Y312101D01*
X831808Y311546D01*
X832475Y310434D01*
G54D10*
X837585Y307657D02*
X839585Y306546D01*
X840252Y305434D01*
X840252Y303212D01*
G54D10*
X834919Y303212D02*
X834919Y312101D01*
X838252Y312101D01*
X839585Y311546D01*
X840252Y310434D01*
X840252Y309323D01*
X839585Y308212D01*
X838252Y307657D01*
X834919Y307657D01*
G54D10*
X790749Y297734D02*
X790749Y292179D01*
X790082Y291068D01*
X788749Y290512D01*
X787416Y290512D01*
X786082Y291068D01*
X785416Y292179D01*
X785416Y297734D01*
X786082Y298846D01*
X787416Y299401D01*
X788749Y299401D01*
X790082Y298846D01*
X790749Y297734D01*
G54D10*
X813879Y294957D02*
X816546Y294957D01*
X816546Y292179D01*
X815879Y291068D01*
X814546Y290512D01*
X813213Y290512D01*
X811879Y291068D01*
X811213Y292179D01*
X811212Y297734D01*
X811879Y298846D01*
X813213Y299401D01*
X814546Y299401D01*
X815879Y298846D01*
X816546Y297734D01*
G54D10*
X836613Y290512D02*
X836613Y299401D01*
G54D11*
X736997Y469106D02*
X810022Y469106D01*
X810022Y435769D01*
X736997Y435769D01*
X736997Y469106D01*
G54D11*
X968970Y445294D02*
X968970Y432792D01*
X837406Y432792D01*
X837406Y445294D01*
G54D11*
X968970Y494506D02*
X968970Y572691D01*
X837406Y572691D01*
X837406Y494506D01*
G54D10*
X934086Y457994D02*
X942975Y461327D01*
X934086Y464660D01*
G54D10*
X941308Y472438D02*
X942420Y471771D01*
X942975Y470438D01*
X942975Y469105D01*
X942420Y467771D01*
X941308Y467105D01*
X935753Y467105D01*
X934642Y467771D01*
X934086Y469105D01*
X934086Y470438D01*
X934642Y471771D01*
X935753Y472438D01*
G54D10*
X941308Y480215D02*
X942420Y479548D01*
X942975Y478215D01*
X942975Y476882D01*
X942420Y475548D01*
X941308Y474882D01*
X935753Y474882D01*
X934642Y475548D01*
X934086Y476882D01*
X934086Y478215D01*
X934642Y479548D01*
X935753Y480215D01*
G54D10*
X917575Y457994D02*
X908686Y457994D01*
X908686Y461327D01*
X909242Y462660D01*
X910353Y463327D01*
X915908Y463327D01*
X917020Y462660D01*
X917575Y461327D01*
X917575Y457994D01*
G54D10*
X913686Y465771D02*
X913686Y471104D01*
G54D10*
X898525Y457994D02*
X889636Y457994D01*
X889636Y461327D01*
X890192Y462660D01*
X891303Y463327D01*
X896858Y463327D01*
X897970Y462660D01*
X898525Y461327D01*
X898525Y457994D01*
G54D10*
X894636Y465771D02*
X894636Y471104D01*
G54D10*
X892414Y468437D02*
X896858Y468437D01*
G54D10*
X868680Y460660D02*
X868680Y463327D01*
X871458Y463327D01*
X872570Y462660D01*
X873125Y461327D01*
X873125Y459994D01*
X872570Y458660D01*
X871458Y457994D01*
X865903Y457994D01*
X864792Y458660D01*
X864236Y459994D01*
X864236Y461327D01*
X864792Y462660D01*
X865903Y463327D01*
G54D10*
X873125Y465771D02*
X864236Y465771D01*
X873125Y471104D01*
X864236Y471104D01*
G54D10*
X873125Y473548D02*
X864236Y473548D01*
X864236Y476881D01*
X864792Y478214D01*
X865903Y478881D01*
X871458Y478881D01*
X872570Y478214D01*
X873125Y476881D01*
X873125Y473548D01*
G54D10*
X740390Y355280D02*
X740390Y349946D01*
G54D10*
X736501Y342169D02*
X736501Y347503D01*
X737057Y347503D01*
X738168Y346836D01*
X741501Y342836D01*
X742612Y342169D01*
X743724Y342169D01*
X744834Y342836D01*
X745390Y344169D01*
X745390Y345503D01*
X744834Y346836D01*
X743724Y347503D01*
G54D10*
X736501Y335726D02*
X745390Y335726D01*
X739834Y339726D01*
X738724Y339726D01*
X738724Y334392D01*
G54D10*
X745390Y331949D02*
X736501Y328615D01*
X745390Y325282D01*
G54D10*
X740390Y322838D02*
X740390Y317504D01*
G54D10*
X742612Y320171D02*
X738168Y320171D01*
G54D12*
X682712Y506362D02*
X704712Y506362D01*
X704712Y468362D01*
X682712Y468362D01*
X682712Y506362D01*
G54D12*
X704712Y525512D02*
X682712Y525512D01*
X682712Y563512D01*
X704712Y563512D01*
X704712Y525512D01*
G54D10*
X858998Y249714D02*
X864331Y249714D01*
G54D10*
X861665Y251936D02*
X861665Y247492D01*
G54D10*
X872108Y254714D02*
X866775Y254714D01*
X866775Y250825D01*
X867442Y250825D01*
X868775Y251381D01*
X870108Y251381D01*
X871442Y250825D01*
X872108Y249714D01*
X872108Y247492D01*
X871442Y246381D01*
X870108Y245825D01*
X868775Y245825D01*
X867442Y246381D01*
X866775Y247492D01*
G54D10*
X874552Y254714D02*
X877885Y245825D01*
X881219Y254714D01*
G54D10*
X883663Y249714D02*
X888996Y249714D01*
G54D11*
X885825Y258762D02*
X990600Y258762D01*
X990600Y423862D01*
X885825Y423862D01*
X885825Y258762D01*
G54D11*
X900112Y258762D02*
X900112Y284162D01*
X976312Y284162D01*
X976312Y258762D01*
G54D10*
X918146Y310435D02*
X918146Y304879D01*
X917479Y303768D01*
X916146Y303212D01*
X914812Y303212D01*
X913479Y303768D01*
X912812Y304879D01*
X912812Y310435D01*
X913479Y311546D01*
X914812Y312101D01*
X916146Y312101D01*
X917479Y311546D01*
X918146Y310435D01*
G54D10*
X920590Y303212D02*
X920589Y312101D01*
G54D10*
X920590Y305990D02*
X925923Y312101D01*
G54D10*
X922589Y307657D02*
X925923Y303212D01*
G54D10*
X928366Y303212D02*
X928367Y312101D01*
G54D10*
X930810Y307101D02*
X936144Y307101D01*
G54D10*
X938588Y312101D02*
X943921Y312101D01*
X943254Y310990D01*
X941921Y309324D01*
X940588Y307101D01*
X939921Y305435D01*
X939921Y303212D01*
G54D10*
X949698Y307657D02*
X948364Y307657D01*
X947031Y308212D01*
X946364Y309324D01*
X946364Y310435D01*
X947031Y311546D01*
X948365Y312101D01*
X949698Y312101D01*
X951031Y311546D01*
X951698Y310435D01*
X951698Y309324D01*
X951031Y308212D01*
X949698Y307657D01*
X951031Y307101D01*
X951698Y305990D01*
X951698Y304879D01*
X951031Y303768D01*
X949698Y303212D01*
X948365Y303212D01*
X947031Y303768D01*
X946364Y304879D01*
X946364Y305990D01*
X947031Y307101D01*
X948364Y307657D01*
G54D10*
X954142Y304879D02*
X954808Y303768D01*
X956142Y303212D01*
X957475Y303212D01*
X958808Y303768D01*
X959475Y304879D01*
X959475Y305990D01*
X958808Y307101D01*
X957475Y307657D01*
X956142Y307657D01*
X954808Y308212D01*
X954142Y309324D01*
X954142Y310435D01*
X954808Y311546D01*
X956142Y312101D01*
X957475Y312101D01*
X958808Y311546D01*
X959475Y310435D01*
G54D10*
X964585Y307657D02*
X966585Y306546D01*
X967252Y305435D01*
X967252Y303212D01*
G54D10*
X961919Y303212D02*
X961919Y312101D01*
X965252Y312101D01*
X966585Y311546D01*
X967252Y310435D01*
X967252Y309324D01*
X966585Y308212D01*
X965252Y307657D01*
X961918Y307657D01*
G54D10*
X917749Y297735D02*
X917749Y292179D01*
X917082Y291068D01*
X915749Y290512D01*
X914416Y290512D01*
X913082Y291068D01*
X912416Y292179D01*
X912416Y297735D01*
X913082Y298846D01*
X914416Y299401D01*
X915749Y299401D01*
X917082Y298846D01*
X917749Y297735D01*
G54D10*
X940879Y294957D02*
X943546Y294957D01*
X943546Y292179D01*
X942879Y291068D01*
X941546Y290512D01*
X940212Y290512D01*
X938879Y291068D01*
X938212Y292179D01*
X938212Y297735D01*
X938879Y298846D01*
X940212Y299401D01*
X941546Y299401D01*
X942879Y298846D01*
X943546Y297735D01*
G54D10*
X963612Y290512D02*
X963612Y299401D01*
G54D10*
X684721Y250190D02*
X690054Y250190D01*
G54D10*
X687388Y252412D02*
X687387Y247968D01*
G54D10*
X692498Y251857D02*
X695831Y255190D01*
X695831Y246301D01*
G54D10*
X703608Y246301D02*
X698275Y246301D01*
X698275Y246857D01*
X698941Y247968D01*
X702941Y251301D01*
X703608Y252412D01*
X703608Y253524D01*
X702941Y254635D01*
X701608Y255190D01*
X700275Y255190D01*
X698941Y254635D01*
X698275Y253524D01*
G54D10*
X706052Y255190D02*
X709385Y246301D01*
X712718Y255190D01*
G54D10*
X715163Y250190D02*
X720496Y250190D01*
G54D10*
X782638Y570626D02*
X787971Y570626D01*
G54D10*
X785304Y572849D02*
X785304Y568404D01*
G54D10*
X731838Y570626D02*
X737171Y570626D01*
G54D11*
X741362Y211534D02*
X741362Y160338D01*
X665162Y160338D01*
X665162Y211534D01*
G54D11*
X741362Y211534D02*
X665162Y211534D01*
G54D11*
X715962Y160338D02*
X715962Y166688D01*
X690562Y166688D01*
X690562Y160338D01*
G54D11*
X715962Y217488D02*
X715962Y211138D01*
G54D11*
X690562Y217488D02*
X690562Y211138D01*
G54D11*
X825500Y211534D02*
X825500Y160338D01*
X749300Y160338D01*
X749300Y211534D01*
G54D11*
X825500Y211534D02*
X749300Y211534D01*
G54D11*
X800100Y160338D02*
X800100Y166688D01*
X774700Y166688D01*
X774700Y160338D01*
G54D11*
X800100Y217488D02*
X800100Y211138D01*
G54D11*
X774700Y217488D02*
X774700Y211138D01*
G54D11*
X911225Y211534D02*
X911225Y160338D01*
X835025Y160338D01*
X835025Y211534D01*
G54D11*
X911225Y211534D02*
X835025Y211534D01*
G54D11*
X885825Y160338D02*
X885825Y166688D01*
X860425Y166688D01*
X860425Y160338D01*
G54D11*
X885825Y217488D02*
X885825Y211138D01*
G54D11*
X860425Y217488D02*
X860425Y211138D01*
G54D11*
X995362Y211534D02*
X995362Y160338D01*
X919162Y160338D01*
X919162Y211534D01*
G54D11*
X995362Y211534D02*
X919162Y211534D01*
G54D11*
X969962Y160338D02*
X969962Y166688D01*
X944562Y166688D01*
X944562Y160338D01*
G54D11*
X969962Y217488D02*
X969962Y211138D01*
G54D11*
X944562Y217488D02*
X944562Y211138D01*
G54D10*
X944723Y249714D02*
X950056Y249714D01*
G54D10*
X947390Y251936D02*
X947390Y247492D01*
G54D10*
X957833Y254714D02*
X952500Y254714D01*
X952500Y250825D01*
X953167Y250825D01*
X954500Y251381D01*
X955833Y251381D01*
X957167Y250825D01*
X957833Y249714D01*
X957833Y247492D01*
X957167Y246381D01*
X955833Y245825D01*
X954500Y245825D01*
X953167Y246381D01*
X952500Y247492D01*
G54D10*
X960277Y254714D02*
X963610Y245825D01*
X966944Y254714D01*
G54D10*
X969388Y249714D02*
X974721Y249714D01*
G54D10*
X770446Y250190D02*
X775779Y250190D01*
G54D10*
X773112Y252412D02*
X773112Y247968D01*
G54D10*
X778223Y251857D02*
X781556Y255190D01*
X781556Y246301D01*
G54D10*
X789333Y246301D02*
X784000Y246301D01*
X784000Y246857D01*
X784666Y247968D01*
X788666Y251301D01*
X789333Y252412D01*
X789333Y253524D01*
X788666Y254635D01*
X787333Y255190D01*
X786000Y255190D01*
X784666Y254635D01*
X784000Y253524D01*
G54D10*
X791777Y255190D02*
X795110Y246301D01*
X798443Y255190D01*
G54D10*
X800888Y250190D02*
X806221Y250190D01*
M02*
