%FSLAX34Y34*%
%MOMM*%
%LNCOPPER_TOP*%
G71*
G01*
%ADD10C, 2.60*%
%ADD11R, 2.58X3.95*%
%ADD12C, 2.30*%
%ADD13R, 2.40X2.10*%
%ADD14C, 1.30*%
%ADD15C, 0.10*%
%ADD16C, 2.60*%
%ADD17C, 4.30*%
%ADD18C, 1.00*%
%ADD19C, 0.60*%
%ADD20C, 0.43*%
%ADD21C, 1.80*%
%ADD22R, 1.78X3.15*%
%ADD23C, 1.50*%
%ADD24R, 1.60X1.30*%
%ADD25C, 0.50*%
%ADD26C, 1.80*%
%ADD27C, 3.50*%
%LPD*%
G36*
X0Y1000000D02*
X1000000Y1000000D01*
X1000000Y150000D01*
X0Y150000D01*
X0Y1000000D01*
G37*
%LPC*%
G36*
X144412Y933502D02*
X133298Y922388D01*
X117528Y922388D01*
X106412Y933502D01*
X106412Y949272D01*
X117528Y960388D01*
X133298Y960388D01*
X144412Y949272D01*
X144412Y933502D01*
G37*
G36*
X93612Y933502D02*
X82498Y922388D01*
X66728Y922388D01*
X55612Y933502D01*
X55612Y949272D01*
X66728Y960388D01*
X82498Y960388D01*
X93612Y949272D01*
X93612Y933502D01*
G37*
X36512Y820738D02*
G54D10*
D03*
X36512Y846138D02*
G54D10*
D03*
X36512Y731838D02*
G54D10*
D03*
X36512Y757238D02*
G54D10*
D03*
G36*
X55612Y949272D02*
X66728Y960388D01*
X82498Y960388D01*
X93612Y949272D01*
X93612Y933502D01*
X82498Y922388D01*
X66728Y922388D01*
X55612Y933502D01*
X55612Y949272D01*
G37*
X36512Y846138D02*
G54D10*
D03*
X36512Y757238D02*
G54D10*
D03*
X207962Y858838D02*
G54D10*
D03*
G36*
X112413Y692782D02*
X120018Y700387D01*
X130808Y700387D01*
X138413Y692782D01*
X138413Y681992D01*
X130808Y674387D01*
X120018Y674387D01*
X112413Y681992D01*
X112413Y692782D01*
G37*
G36*
X137813Y692782D02*
X145418Y700387D01*
X156208Y700387D01*
X163813Y692782D01*
X163813Y681992D01*
X156208Y674387D01*
X145418Y674387D01*
X137813Y681992D01*
X137813Y692782D01*
G37*
G36*
X163212Y692782D02*
X170818Y700387D01*
X181608Y700387D01*
X189212Y692782D01*
X189212Y681992D01*
X181608Y674387D01*
X170818Y674387D01*
X163212Y681992D01*
X163212Y692782D01*
G37*
G36*
X137813Y692782D02*
X145418Y700387D01*
X156208Y700387D01*
X163813Y692782D01*
X163813Y681992D01*
X156208Y674387D01*
X145418Y674387D01*
X137813Y681992D01*
X137813Y692782D01*
G37*
X139303Y868362D02*
G54D11*
D03*
X87312Y868362D02*
G54D11*
D03*
G54D12*
X125412Y941388D02*
X125412Y915988D01*
X139700Y901700D01*
X139700Y868759D01*
X139303Y868362D01*
X277812Y858838D02*
G54D10*
D03*
X252809Y858838D02*
G54D10*
D03*
X232966Y858837D02*
G54D10*
D03*
X207962Y858837D02*
G54D10*
D03*
G36*
X332570Y875865D02*
X318530Y861825D01*
X298610Y861825D01*
X284570Y875865D01*
X284570Y895785D01*
X298610Y909825D01*
X318530Y909825D01*
X332570Y895785D01*
X332570Y875865D01*
G37*
G36*
X201006Y875865D02*
X186966Y861825D01*
X167046Y861825D01*
X153006Y875865D01*
X153006Y895785D01*
X167046Y909825D01*
X186966Y909825D01*
X201006Y895785D01*
X201006Y875865D01*
G37*
G54D12*
X36512Y731838D02*
X87312Y731838D01*
X87312Y868362D01*
G54D12*
X36512Y820738D02*
X87312Y820738D01*
X33312Y912788D02*
G54D13*
D03*
X33312Y893788D02*
G54D13*
D03*
X33312Y950938D02*
G54D13*
D03*
X33312Y969938D02*
G54D13*
D03*
G54D14*
X33312Y912838D02*
X33312Y950938D01*
G36*
X98425Y889000D02*
X128588Y889000D01*
X128588Y847725D01*
X98425Y847725D01*
X98425Y889000D01*
G37*
G54D15*
X98425Y889000D02*
X128588Y889000D01*
X128588Y847725D01*
X98425Y847725D01*
X98425Y889000D01*
X33312Y969938D02*
G54D13*
D03*
G36*
X239412Y692782D02*
X247018Y700388D01*
X257808Y700388D01*
X265412Y692782D01*
X265412Y681992D01*
X257808Y674388D01*
X247018Y674388D01*
X239412Y681992D01*
X239412Y692782D01*
G37*
G36*
X264813Y692782D02*
X272418Y700388D01*
X283208Y700388D01*
X290813Y692782D01*
X290813Y681992D01*
X283208Y674388D01*
X272418Y674388D01*
X264813Y681992D01*
X264813Y692782D01*
G37*
G36*
X290212Y692782D02*
X297818Y700388D01*
X308608Y700388D01*
X316212Y692782D01*
X316212Y681992D01*
X308608Y674388D01*
X297818Y674388D01*
X290212Y681992D01*
X290212Y692782D01*
G37*
G36*
X264813Y692782D02*
X272418Y700388D01*
X283208Y700388D01*
X290813Y692782D01*
X290813Y681992D01*
X283208Y674388D01*
X272418Y674388D01*
X264813Y681992D01*
X264813Y692782D01*
G37*
X55562Y649288D02*
G54D16*
D03*
X30162Y649288D02*
G54D16*
D03*
X139700Y649288D02*
G54D16*
D03*
X114300Y649288D02*
G54D16*
D03*
X225425Y649288D02*
G54D16*
D03*
X200025Y649288D02*
G54D16*
D03*
X309562Y649288D02*
G54D16*
D03*
X284162Y649288D02*
G54D16*
D03*
G54D12*
X61912Y731838D02*
X284162Y731838D01*
X303212Y712788D01*
X303212Y687388D01*
G54D12*
X176212Y687388D02*
X176212Y731838D01*
G54D14*
X33312Y893788D02*
X33312Y887438D01*
X49212Y871538D01*
X90488Y871538D01*
X55562Y649288D02*
G54D16*
D03*
X139702Y649288D02*
G54D16*
D03*
X225422Y649288D02*
G54D16*
D03*
X309562Y649288D02*
G54D16*
D03*
G54D12*
X30162Y649288D02*
X30162Y668338D01*
X49212Y687388D01*
X125413Y687387D01*
G54D12*
X114300Y649288D02*
X114300Y685800D01*
X112712Y687388D01*
G54D12*
X200025Y649288D02*
X200025Y666750D01*
X220662Y687388D01*
X252412Y687388D01*
G54D12*
X252412Y687388D02*
X252412Y661988D01*
X265112Y649288D01*
X284162Y649288D01*
X214312Y766762D02*
G54D17*
D03*
G36*
X474612Y933502D02*
X463498Y922388D01*
X447728Y922388D01*
X436612Y933502D01*
X436612Y949272D01*
X447728Y960388D01*
X463498Y960388D01*
X474612Y949272D01*
X474612Y933502D01*
G37*
G36*
X423812Y933502D02*
X412698Y922388D01*
X396928Y922388D01*
X385812Y933502D01*
X385812Y949272D01*
X396928Y960388D01*
X412698Y960388D01*
X423812Y949272D01*
X423812Y933502D01*
G37*
X366712Y820738D02*
G54D10*
D03*
X366712Y846138D02*
G54D10*
D03*
X366712Y731838D02*
G54D10*
D03*
X366712Y757238D02*
G54D10*
D03*
G36*
X385812Y949272D02*
X396928Y960388D01*
X412698Y960388D01*
X423812Y949272D01*
X423812Y933502D01*
X412698Y922388D01*
X396928Y922388D01*
X385812Y933502D01*
X385812Y949272D01*
G37*
X366712Y846138D02*
G54D10*
D03*
X366712Y757238D02*
G54D10*
D03*
X538162Y858838D02*
G54D10*
D03*
G36*
X442613Y692782D02*
X450218Y700387D01*
X461008Y700387D01*
X468613Y692782D01*
X468613Y681992D01*
X461008Y674387D01*
X450218Y674387D01*
X442613Y681992D01*
X442613Y692782D01*
G37*
G36*
X468013Y692782D02*
X475618Y700387D01*
X486408Y700387D01*
X494013Y692782D01*
X494013Y681992D01*
X486408Y674387D01*
X475618Y674387D01*
X468013Y681992D01*
X468013Y692782D01*
G37*
G36*
X493412Y692782D02*
X501018Y700387D01*
X511808Y700387D01*
X519412Y692782D01*
X519412Y681992D01*
X511808Y674387D01*
X501018Y674387D01*
X493412Y681992D01*
X493412Y692782D01*
G37*
G36*
X468013Y692782D02*
X475618Y700387D01*
X486408Y700387D01*
X494013Y692782D01*
X494013Y681992D01*
X486408Y674387D01*
X475618Y674387D01*
X468013Y681992D01*
X468013Y692782D01*
G37*
X469503Y868362D02*
G54D11*
D03*
X417512Y868362D02*
G54D11*
D03*
G54D12*
X455612Y941388D02*
X455612Y915988D01*
X469900Y901700D01*
X469900Y868759D01*
X469503Y868362D01*
X608012Y858838D02*
G54D10*
D03*
X583009Y858838D02*
G54D10*
D03*
X563166Y858837D02*
G54D10*
D03*
X538162Y858837D02*
G54D10*
D03*
G36*
X662770Y875865D02*
X648730Y861825D01*
X628810Y861825D01*
X614770Y875865D01*
X614770Y895785D01*
X628810Y909825D01*
X648730Y909825D01*
X662770Y895785D01*
X662770Y875865D01*
G37*
G36*
X531206Y875865D02*
X517166Y861825D01*
X497246Y861825D01*
X483206Y875865D01*
X483206Y895785D01*
X497246Y909825D01*
X517166Y909825D01*
X531206Y895785D01*
X531206Y875865D01*
G37*
G54D12*
X366712Y731838D02*
X417512Y731838D01*
X417512Y868362D01*
G54D12*
X366712Y820738D02*
X417512Y820738D01*
X363512Y912788D02*
G54D13*
D03*
X363512Y893788D02*
G54D13*
D03*
X363512Y950938D02*
G54D13*
D03*
X363512Y969938D02*
G54D13*
D03*
G54D14*
X363512Y912838D02*
X363512Y950938D01*
G36*
X428625Y889000D02*
X458788Y889000D01*
X458788Y847725D01*
X428625Y847725D01*
X428625Y889000D01*
G37*
G54D15*
X428625Y889000D02*
X458788Y889000D01*
X458788Y847725D01*
X428625Y847725D01*
X428625Y889000D01*
X363512Y969938D02*
G54D13*
D03*
G36*
X569612Y692782D02*
X577218Y700388D01*
X588008Y700388D01*
X595612Y692782D01*
X595612Y681992D01*
X588008Y674388D01*
X577218Y674388D01*
X569612Y681992D01*
X569612Y692782D01*
G37*
G36*
X595013Y692782D02*
X602618Y700388D01*
X613408Y700388D01*
X621013Y692782D01*
X621013Y681992D01*
X613408Y674388D01*
X602618Y674388D01*
X595013Y681992D01*
X595013Y692782D01*
G37*
G36*
X620412Y692782D02*
X628018Y700388D01*
X638808Y700388D01*
X646412Y692782D01*
X646412Y681992D01*
X638808Y674388D01*
X628018Y674388D01*
X620412Y681992D01*
X620412Y692782D01*
G37*
G36*
X595013Y692782D02*
X602618Y700388D01*
X613408Y700388D01*
X621013Y692782D01*
X621013Y681992D01*
X613408Y674388D01*
X602618Y674388D01*
X595013Y681992D01*
X595013Y692782D01*
G37*
X385762Y649288D02*
G54D16*
D03*
X360362Y649288D02*
G54D16*
D03*
X469900Y649288D02*
G54D16*
D03*
X444500Y649288D02*
G54D16*
D03*
X555625Y649288D02*
G54D16*
D03*
X530225Y649288D02*
G54D16*
D03*
X639762Y649288D02*
G54D16*
D03*
X614362Y649288D02*
G54D16*
D03*
G54D12*
X392112Y731838D02*
X614362Y731838D01*
X633412Y712788D01*
X633412Y687388D01*
G54D12*
X506412Y687388D02*
X506412Y731838D01*
G54D14*
X363512Y893788D02*
X363512Y887438D01*
X379412Y871538D01*
X420688Y871538D01*
X385762Y649288D02*
G54D16*
D03*
X469902Y649288D02*
G54D16*
D03*
X555622Y649288D02*
G54D16*
D03*
X639762Y649288D02*
G54D16*
D03*
G54D12*
X360362Y649288D02*
X360362Y668338D01*
X379412Y687388D01*
X455613Y687387D01*
G54D12*
X444500Y649288D02*
X444500Y685800D01*
X442912Y687388D01*
G54D12*
X530225Y649288D02*
X530225Y666750D01*
X550862Y687388D01*
X582612Y687388D01*
G54D12*
X582612Y687388D02*
X582612Y661988D01*
X595312Y649288D01*
X614362Y649288D01*
X544512Y766762D02*
G54D17*
D03*
G36*
X804812Y933502D02*
X793698Y922388D01*
X777928Y922388D01*
X766812Y933502D01*
X766812Y949272D01*
X777928Y960388D01*
X793698Y960388D01*
X804812Y949272D01*
X804812Y933502D01*
G37*
G36*
X754012Y933502D02*
X742898Y922388D01*
X727128Y922388D01*
X716012Y933502D01*
X716012Y949272D01*
X727128Y960388D01*
X742898Y960388D01*
X754012Y949272D01*
X754012Y933502D01*
G37*
X696912Y820738D02*
G54D10*
D03*
X696912Y846138D02*
G54D10*
D03*
X696912Y731838D02*
G54D10*
D03*
X696912Y757238D02*
G54D10*
D03*
G36*
X716012Y949272D02*
X727128Y960388D01*
X742898Y960388D01*
X754012Y949272D01*
X754012Y933502D01*
X742898Y922388D01*
X727128Y922388D01*
X716012Y933502D01*
X716012Y949272D01*
G37*
X696912Y846138D02*
G54D10*
D03*
X696912Y757238D02*
G54D10*
D03*
X868362Y858838D02*
G54D10*
D03*
G36*
X772813Y692782D02*
X780418Y700387D01*
X791208Y700387D01*
X798813Y692782D01*
X798813Y681992D01*
X791208Y674387D01*
X780418Y674387D01*
X772813Y681992D01*
X772813Y692782D01*
G37*
G36*
X798213Y692782D02*
X805818Y700387D01*
X816608Y700387D01*
X824213Y692782D01*
X824213Y681992D01*
X816608Y674387D01*
X805818Y674387D01*
X798213Y681992D01*
X798213Y692782D01*
G37*
G36*
X823612Y692782D02*
X831218Y700387D01*
X842008Y700387D01*
X849612Y692782D01*
X849612Y681992D01*
X842008Y674387D01*
X831218Y674387D01*
X823612Y681992D01*
X823612Y692782D01*
G37*
G36*
X798213Y692782D02*
X805818Y700387D01*
X816608Y700387D01*
X824213Y692782D01*
X824213Y681992D01*
X816608Y674387D01*
X805818Y674387D01*
X798213Y681992D01*
X798213Y692782D01*
G37*
X799703Y868362D02*
G54D11*
D03*
X747712Y868362D02*
G54D11*
D03*
G54D12*
X785812Y941388D02*
X785812Y915988D01*
X800100Y901700D01*
X800100Y868759D01*
X799703Y868362D01*
X938212Y858838D02*
G54D10*
D03*
X913209Y858838D02*
G54D10*
D03*
X893366Y858837D02*
G54D10*
D03*
X868362Y858837D02*
G54D10*
D03*
G36*
X992970Y875865D02*
X978930Y861825D01*
X959010Y861825D01*
X944970Y875865D01*
X944970Y895785D01*
X959010Y909825D01*
X978930Y909825D01*
X992970Y895785D01*
X992970Y875865D01*
G37*
G36*
X861406Y875865D02*
X847366Y861825D01*
X827446Y861825D01*
X813406Y875865D01*
X813406Y895785D01*
X827446Y909825D01*
X847366Y909825D01*
X861406Y895785D01*
X861406Y875865D01*
G37*
G54D12*
X696912Y731838D02*
X747712Y731838D01*
X747712Y868362D01*
G54D12*
X696912Y820738D02*
X747712Y820738D01*
X693712Y912788D02*
G54D13*
D03*
X693712Y893788D02*
G54D13*
D03*
X693712Y950938D02*
G54D13*
D03*
X693712Y969938D02*
G54D13*
D03*
G54D14*
X693712Y912838D02*
X693712Y950938D01*
G36*
X758825Y889000D02*
X788988Y889000D01*
X788988Y847725D01*
X758825Y847725D01*
X758825Y889000D01*
G37*
G54D15*
X758825Y889000D02*
X788988Y889000D01*
X788988Y847725D01*
X758825Y847725D01*
X758825Y889000D01*
X693712Y969938D02*
G54D13*
D03*
G36*
X899812Y692782D02*
X907418Y700388D01*
X918208Y700388D01*
X925812Y692782D01*
X925812Y681992D01*
X918208Y674388D01*
X907418Y674388D01*
X899812Y681992D01*
X899812Y692782D01*
G37*
G36*
X925213Y692782D02*
X932818Y700388D01*
X943608Y700388D01*
X951213Y692782D01*
X951213Y681992D01*
X943608Y674388D01*
X932818Y674388D01*
X925213Y681992D01*
X925213Y692782D01*
G37*
G36*
X950612Y692782D02*
X958218Y700388D01*
X969008Y700388D01*
X976612Y692782D01*
X976612Y681992D01*
X969008Y674388D01*
X958218Y674388D01*
X950612Y681992D01*
X950612Y692782D01*
G37*
G36*
X925213Y692782D02*
X932818Y700388D01*
X943608Y700388D01*
X951213Y692782D01*
X951213Y681992D01*
X943608Y674388D01*
X932818Y674388D01*
X925213Y681992D01*
X925213Y692782D01*
G37*
X715962Y649288D02*
G54D16*
D03*
X690562Y649288D02*
G54D16*
D03*
X800100Y649288D02*
G54D16*
D03*
X774700Y649288D02*
G54D16*
D03*
X885825Y649288D02*
G54D16*
D03*
X860425Y649288D02*
G54D16*
D03*
X969962Y649288D02*
G54D16*
D03*
X944562Y649288D02*
G54D16*
D03*
G54D12*
X722312Y731838D02*
X944562Y731838D01*
X963612Y712788D01*
X963612Y687388D01*
G54D12*
X836612Y687388D02*
X836612Y731838D01*
G54D14*
X693712Y893788D02*
X693712Y887438D01*
X709612Y871538D01*
X750888Y871538D01*
X715962Y649288D02*
G54D16*
D03*
X800102Y649288D02*
G54D16*
D03*
X885822Y649288D02*
G54D16*
D03*
X969962Y649288D02*
G54D16*
D03*
G54D12*
X690562Y649288D02*
X690562Y668338D01*
X709612Y687388D01*
X785813Y687387D01*
G54D12*
X774700Y649288D02*
X774700Y685800D01*
X773112Y687388D01*
G54D12*
X860425Y649288D02*
X860425Y666750D01*
X881062Y687388D01*
X912812Y687388D01*
G54D12*
X912812Y687388D02*
X912812Y661988D01*
X925512Y649288D01*
X944562Y649288D01*
X874712Y766762D02*
G54D17*
D03*
G36*
X144412Y517578D02*
X133298Y506462D01*
X117528Y506462D01*
X106412Y517578D01*
X106412Y533348D01*
X117528Y544462D01*
X133298Y544462D01*
X144412Y533348D01*
X144412Y517578D01*
G37*
G36*
X93612Y517578D02*
X82498Y506462D01*
X66728Y506462D01*
X55612Y517578D01*
X55612Y533348D01*
X66728Y544462D01*
X82498Y544462D01*
X93612Y533348D01*
X93612Y517578D01*
G37*
X36512Y404812D02*
G54D10*
D03*
X36512Y430212D02*
G54D10*
D03*
X36512Y315912D02*
G54D10*
D03*
X36512Y341312D02*
G54D10*
D03*
G36*
X55612Y533348D02*
X66728Y544462D01*
X82498Y544462D01*
X93612Y533348D01*
X93612Y517578D01*
X82498Y506462D01*
X66728Y506462D01*
X55612Y517578D01*
X55612Y533348D01*
G37*
X36512Y430212D02*
G54D10*
D03*
X36512Y341312D02*
G54D10*
D03*
X207962Y442912D02*
G54D10*
D03*
G36*
X112413Y276857D02*
X120018Y284462D01*
X130808Y284462D01*
X138413Y276857D01*
X138413Y266067D01*
X130808Y258462D01*
X120018Y258462D01*
X112413Y266067D01*
X112413Y276857D01*
G37*
G36*
X137813Y276857D02*
X145418Y284462D01*
X156208Y284462D01*
X163813Y276857D01*
X163813Y266067D01*
X156208Y258462D01*
X145418Y258462D01*
X137813Y266067D01*
X137813Y276857D01*
G37*
G36*
X163212Y276857D02*
X170818Y284462D01*
X181608Y284462D01*
X189212Y276857D01*
X189212Y266067D01*
X181608Y258462D01*
X170818Y258462D01*
X163212Y266067D01*
X163212Y276857D01*
G37*
G36*
X137813Y276857D02*
X145418Y284462D01*
X156208Y284462D01*
X163813Y276857D01*
X163813Y266067D01*
X156208Y258462D01*
X145418Y258462D01*
X137813Y266067D01*
X137813Y276857D01*
G37*
X139303Y452438D02*
G54D11*
D03*
X87312Y452438D02*
G54D11*
D03*
G54D12*
X125412Y525462D02*
X125412Y500062D01*
X139700Y485775D01*
X139700Y452834D01*
X139303Y452438D01*
X277812Y442912D02*
G54D10*
D03*
X252809Y442912D02*
G54D10*
D03*
X232966Y442912D02*
G54D10*
D03*
X207962Y442912D02*
G54D10*
D03*
G36*
X332570Y459940D02*
X318530Y445900D01*
X298610Y445900D01*
X284570Y459940D01*
X284570Y479860D01*
X298610Y493900D01*
X318530Y493900D01*
X332570Y479860D01*
X332570Y459940D01*
G37*
G36*
X201006Y459940D02*
X186966Y445900D01*
X167046Y445900D01*
X153006Y459940D01*
X153006Y479860D01*
X167046Y493900D01*
X186966Y493900D01*
X201006Y479860D01*
X201006Y459940D01*
G37*
G54D12*
X36512Y315912D02*
X87312Y315912D01*
X87312Y452438D01*
G54D12*
X36512Y404812D02*
X87312Y404812D01*
X33312Y496862D02*
G54D13*
D03*
X33312Y477862D02*
G54D13*
D03*
X33312Y535012D02*
G54D13*
D03*
X33312Y554012D02*
G54D13*
D03*
G54D14*
X33312Y496912D02*
X33312Y535012D01*
G36*
X98425Y473075D02*
X128588Y473075D01*
X128588Y431800D01*
X98425Y431800D01*
X98425Y473075D01*
G37*
G54D15*
X98425Y473075D02*
X128588Y473075D01*
X128588Y431800D01*
X98425Y431800D01*
X98425Y473075D01*
X33312Y554012D02*
G54D13*
D03*
G36*
X239412Y276858D02*
X247018Y284462D01*
X257808Y284462D01*
X265412Y276858D01*
X265412Y266068D01*
X257808Y258462D01*
X247018Y258462D01*
X239412Y266068D01*
X239412Y276858D01*
G37*
G36*
X264813Y276858D02*
X272418Y284462D01*
X283208Y284462D01*
X290813Y276858D01*
X290813Y266068D01*
X283208Y258462D01*
X272418Y258462D01*
X264813Y266068D01*
X264813Y276858D01*
G37*
G36*
X290212Y276858D02*
X297818Y284462D01*
X308608Y284462D01*
X316212Y276858D01*
X316212Y266068D01*
X308608Y258462D01*
X297818Y258462D01*
X290212Y266068D01*
X290212Y276858D01*
G37*
G36*
X264813Y276858D02*
X272418Y284462D01*
X283208Y284462D01*
X290813Y276858D01*
X290813Y266068D01*
X283208Y258462D01*
X272418Y258462D01*
X264813Y266068D01*
X264813Y276858D01*
G37*
X55562Y233362D02*
G54D16*
D03*
X30162Y233362D02*
G54D16*
D03*
X139700Y233362D02*
G54D16*
D03*
X114300Y233362D02*
G54D16*
D03*
X225425Y233362D02*
G54D16*
D03*
X200025Y233362D02*
G54D16*
D03*
X309562Y233362D02*
G54D16*
D03*
X284162Y233362D02*
G54D16*
D03*
G54D12*
X61912Y315912D02*
X284162Y315912D01*
X303212Y296862D01*
X303212Y271462D01*
G54D12*
X176212Y271462D02*
X176212Y315912D01*
G54D14*
X33312Y477862D02*
X33312Y471512D01*
X49212Y455612D01*
X90488Y455612D01*
X55562Y233362D02*
G54D16*
D03*
X139702Y233362D02*
G54D16*
D03*
X225422Y233362D02*
G54D16*
D03*
X309562Y233362D02*
G54D16*
D03*
G54D12*
X30162Y233362D02*
X30162Y252412D01*
X49212Y271462D01*
X125413Y271462D01*
G54D12*
X114300Y233362D02*
X114300Y269875D01*
X112712Y271462D01*
G54D12*
X200025Y233362D02*
X200025Y250825D01*
X220662Y271462D01*
X252412Y271462D01*
G54D12*
X252412Y271462D02*
X252412Y246062D01*
X265112Y233362D01*
X284162Y233362D01*
X214312Y350838D02*
G54D17*
D03*
G36*
X474612Y517578D02*
X463498Y506462D01*
X447728Y506462D01*
X436612Y517578D01*
X436612Y533348D01*
X447728Y544462D01*
X463498Y544462D01*
X474612Y533348D01*
X474612Y517578D01*
G37*
G36*
X423812Y517578D02*
X412698Y506462D01*
X396928Y506462D01*
X385812Y517578D01*
X385812Y533348D01*
X396928Y544462D01*
X412698Y544462D01*
X423812Y533348D01*
X423812Y517578D01*
G37*
X366712Y404812D02*
G54D10*
D03*
X366712Y430212D02*
G54D10*
D03*
X366712Y315912D02*
G54D10*
D03*
X366712Y341312D02*
G54D10*
D03*
G36*
X385812Y533348D02*
X396928Y544462D01*
X412698Y544462D01*
X423812Y533348D01*
X423812Y517578D01*
X412698Y506462D01*
X396928Y506462D01*
X385812Y517578D01*
X385812Y533348D01*
G37*
X366712Y430212D02*
G54D10*
D03*
X366712Y341312D02*
G54D10*
D03*
X538162Y442912D02*
G54D10*
D03*
G36*
X442613Y276857D02*
X450218Y284462D01*
X461008Y284462D01*
X468613Y276857D01*
X468613Y266067D01*
X461008Y258462D01*
X450218Y258462D01*
X442613Y266067D01*
X442613Y276857D01*
G37*
G36*
X468013Y276857D02*
X475618Y284462D01*
X486408Y284462D01*
X494013Y276857D01*
X494013Y266067D01*
X486408Y258462D01*
X475618Y258462D01*
X468013Y266067D01*
X468013Y276857D01*
G37*
G36*
X493412Y276857D02*
X501018Y284462D01*
X511808Y284462D01*
X519412Y276857D01*
X519412Y266067D01*
X511808Y258462D01*
X501018Y258462D01*
X493412Y266067D01*
X493412Y276857D01*
G37*
G36*
X468013Y276857D02*
X475618Y284462D01*
X486408Y284462D01*
X494013Y276857D01*
X494013Y266067D01*
X486408Y258462D01*
X475618Y258462D01*
X468013Y266067D01*
X468013Y276857D01*
G37*
X469503Y452438D02*
G54D11*
D03*
X417512Y452438D02*
G54D11*
D03*
G54D12*
X455612Y525462D02*
X455612Y500062D01*
X469900Y485775D01*
X469900Y452834D01*
X469503Y452438D01*
X608012Y442912D02*
G54D10*
D03*
X583009Y442912D02*
G54D10*
D03*
X563166Y442912D02*
G54D10*
D03*
X538162Y442912D02*
G54D10*
D03*
G36*
X662770Y459940D02*
X648730Y445900D01*
X628810Y445900D01*
X614770Y459940D01*
X614770Y479860D01*
X628810Y493900D01*
X648730Y493900D01*
X662770Y479860D01*
X662770Y459940D01*
G37*
G36*
X531206Y459940D02*
X517166Y445900D01*
X497246Y445900D01*
X483206Y459940D01*
X483206Y479860D01*
X497246Y493900D01*
X517166Y493900D01*
X531206Y479860D01*
X531206Y459940D01*
G37*
G54D12*
X366712Y315912D02*
X417512Y315912D01*
X417512Y452438D01*
G54D12*
X366712Y404812D02*
X417512Y404812D01*
X363512Y496862D02*
G54D13*
D03*
X363512Y477862D02*
G54D13*
D03*
X363512Y535012D02*
G54D13*
D03*
X363512Y554012D02*
G54D13*
D03*
G54D14*
X363512Y496912D02*
X363512Y535012D01*
G36*
X428625Y473075D02*
X458788Y473075D01*
X458788Y431800D01*
X428625Y431800D01*
X428625Y473075D01*
G37*
G54D15*
X428625Y473075D02*
X458788Y473075D01*
X458788Y431800D01*
X428625Y431800D01*
X428625Y473075D01*
X363512Y554012D02*
G54D13*
D03*
G36*
X569612Y276858D02*
X577218Y284462D01*
X588008Y284462D01*
X595612Y276858D01*
X595612Y266068D01*
X588008Y258462D01*
X577218Y258462D01*
X569612Y266068D01*
X569612Y276858D01*
G37*
G36*
X595013Y276858D02*
X602618Y284462D01*
X613408Y284462D01*
X621013Y276858D01*
X621013Y266068D01*
X613408Y258462D01*
X602618Y258462D01*
X595013Y266068D01*
X595013Y276858D01*
G37*
G36*
X620412Y276858D02*
X628018Y284462D01*
X638808Y284462D01*
X646412Y276858D01*
X646412Y266068D01*
X638808Y258462D01*
X628018Y258462D01*
X620412Y266068D01*
X620412Y276858D01*
G37*
G36*
X595013Y276858D02*
X602618Y284462D01*
X613408Y284462D01*
X621013Y276858D01*
X621013Y266068D01*
X613408Y258462D01*
X602618Y258462D01*
X595013Y266068D01*
X595013Y276858D01*
G37*
X385762Y233362D02*
G54D16*
D03*
X360362Y233362D02*
G54D16*
D03*
X469900Y233362D02*
G54D16*
D03*
X444500Y233362D02*
G54D16*
D03*
X555625Y233362D02*
G54D16*
D03*
X530225Y233362D02*
G54D16*
D03*
X639762Y233362D02*
G54D16*
D03*
X614362Y233362D02*
G54D16*
D03*
G54D12*
X392112Y315912D02*
X614362Y315912D01*
X633412Y296862D01*
X633412Y271462D01*
G54D12*
X506412Y271462D02*
X506412Y315912D01*
G54D14*
X363512Y477862D02*
X363512Y471512D01*
X379412Y455612D01*
X420688Y455612D01*
X385762Y233362D02*
G54D16*
D03*
X469902Y233362D02*
G54D16*
D03*
X555622Y233362D02*
G54D16*
D03*
X639762Y233362D02*
G54D16*
D03*
G54D12*
X360362Y233362D02*
X360362Y252412D01*
X379412Y271462D01*
X455613Y271462D01*
G54D12*
X444500Y233362D02*
X444500Y269875D01*
X442912Y271462D01*
G54D12*
X530225Y233362D02*
X530225Y250825D01*
X550862Y271462D01*
X582612Y271462D01*
G54D12*
X582612Y271462D02*
X582612Y246062D01*
X595312Y233362D01*
X614362Y233362D01*
X544512Y350838D02*
G54D17*
D03*
G36*
X804812Y517578D02*
X793698Y506462D01*
X777928Y506462D01*
X766812Y517578D01*
X766812Y533348D01*
X777928Y544462D01*
X793698Y544462D01*
X804812Y533348D01*
X804812Y517578D01*
G37*
G36*
X754012Y517578D02*
X742898Y506462D01*
X727128Y506462D01*
X716012Y517578D01*
X716012Y533348D01*
X727128Y544462D01*
X742898Y544462D01*
X754012Y533348D01*
X754012Y517578D01*
G37*
X696912Y404812D02*
G54D10*
D03*
X696912Y430212D02*
G54D10*
D03*
X696912Y315912D02*
G54D10*
D03*
X696912Y341312D02*
G54D10*
D03*
G36*
X716012Y533348D02*
X727128Y544462D01*
X742898Y544462D01*
X754012Y533348D01*
X754012Y517578D01*
X742898Y506462D01*
X727128Y506462D01*
X716012Y517578D01*
X716012Y533348D01*
G37*
X696912Y430212D02*
G54D10*
D03*
X696912Y341312D02*
G54D10*
D03*
X868362Y442912D02*
G54D10*
D03*
G36*
X772813Y276857D02*
X780418Y284462D01*
X791208Y284462D01*
X798813Y276857D01*
X798813Y266067D01*
X791208Y258462D01*
X780418Y258462D01*
X772813Y266067D01*
X772813Y276857D01*
G37*
G36*
X798213Y276857D02*
X805818Y284462D01*
X816608Y284462D01*
X824213Y276857D01*
X824213Y266067D01*
X816608Y258462D01*
X805818Y258462D01*
X798213Y266067D01*
X798213Y276857D01*
G37*
G36*
X823612Y276857D02*
X831218Y284462D01*
X842008Y284462D01*
X849612Y276857D01*
X849612Y266067D01*
X842008Y258462D01*
X831218Y258462D01*
X823612Y266067D01*
X823612Y276857D01*
G37*
G36*
X798213Y276857D02*
X805818Y284462D01*
X816608Y284462D01*
X824213Y276857D01*
X824213Y266067D01*
X816608Y258462D01*
X805818Y258462D01*
X798213Y266067D01*
X798213Y276857D01*
G37*
X799703Y452438D02*
G54D11*
D03*
X747712Y452438D02*
G54D11*
D03*
G54D12*
X785812Y525462D02*
X785812Y500062D01*
X800100Y485775D01*
X800100Y452834D01*
X799703Y452438D01*
X938212Y442912D02*
G54D10*
D03*
X913209Y442912D02*
G54D10*
D03*
X893366Y442912D02*
G54D10*
D03*
X868362Y442912D02*
G54D10*
D03*
G36*
X992970Y459940D02*
X978930Y445900D01*
X959010Y445900D01*
X944970Y459940D01*
X944970Y479860D01*
X959010Y493900D01*
X978930Y493900D01*
X992970Y479860D01*
X992970Y459940D01*
G37*
G36*
X861406Y459940D02*
X847366Y445900D01*
X827446Y445900D01*
X813406Y459940D01*
X813406Y479860D01*
X827446Y493900D01*
X847366Y493900D01*
X861406Y479860D01*
X861406Y459940D01*
G37*
G54D12*
X696912Y315912D02*
X747712Y315912D01*
X747712Y452438D01*
G54D12*
X696912Y404812D02*
X747712Y404812D01*
X693712Y496862D02*
G54D13*
D03*
X693712Y477862D02*
G54D13*
D03*
X693712Y535012D02*
G54D13*
D03*
X693712Y554012D02*
G54D13*
D03*
G54D14*
X693712Y496912D02*
X693712Y535012D01*
G36*
X758825Y473075D02*
X788988Y473075D01*
X788988Y431800D01*
X758825Y431800D01*
X758825Y473075D01*
G37*
G54D15*
X758825Y473075D02*
X788988Y473075D01*
X788988Y431800D01*
X758825Y431800D01*
X758825Y473075D01*
X693712Y554012D02*
G54D13*
D03*
G36*
X899812Y276858D02*
X907418Y284462D01*
X918208Y284462D01*
X925812Y276858D01*
X925812Y266068D01*
X918208Y258462D01*
X907418Y258462D01*
X899812Y266068D01*
X899812Y276858D01*
G37*
G36*
X925213Y276858D02*
X932818Y284462D01*
X943608Y284462D01*
X951213Y276858D01*
X951213Y266068D01*
X943608Y258462D01*
X932818Y258462D01*
X925213Y266068D01*
X925213Y276858D01*
G37*
G36*
X950612Y276858D02*
X958218Y284462D01*
X969008Y284462D01*
X976612Y276858D01*
X976612Y266068D01*
X969008Y258462D01*
X958218Y258462D01*
X950612Y266068D01*
X950612Y276858D01*
G37*
G36*
X925213Y276858D02*
X932818Y284462D01*
X943608Y284462D01*
X951213Y276858D01*
X951213Y266068D01*
X943608Y258462D01*
X932818Y258462D01*
X925213Y266068D01*
X925213Y276858D01*
G37*
X715962Y233362D02*
G54D16*
D03*
X690562Y233362D02*
G54D16*
D03*
X800100Y233362D02*
G54D16*
D03*
X774700Y233362D02*
G54D16*
D03*
X885825Y233362D02*
G54D16*
D03*
X860425Y233362D02*
G54D16*
D03*
X969962Y233362D02*
G54D16*
D03*
X944562Y233362D02*
G54D16*
D03*
G54D12*
X722312Y315912D02*
X944562Y315912D01*
X963612Y296862D01*
X963612Y271462D01*
G54D12*
X836612Y271462D02*
X836612Y315912D01*
G54D14*
X693712Y477862D02*
X693712Y471512D01*
X709612Y455612D01*
X750888Y455612D01*
X715962Y233362D02*
G54D16*
D03*
X800102Y233362D02*
G54D16*
D03*
X885822Y233362D02*
G54D16*
D03*
X969962Y233362D02*
G54D16*
D03*
G54D12*
X690562Y233362D02*
X690562Y252412D01*
X709612Y271462D01*
X785813Y271462D01*
G54D12*
X774700Y233362D02*
X774700Y269875D01*
X773112Y271462D01*
G54D12*
X860425Y233362D02*
X860425Y250825D01*
X881062Y271462D01*
X912812Y271462D01*
G54D12*
X912812Y271462D02*
X912812Y246062D01*
X925512Y233362D01*
X944562Y233362D01*
X874712Y350838D02*
G54D17*
D03*
%LPD*%
G54D18*
G36*
X71077Y944923D02*
X84866Y958712D01*
X91937Y951641D01*
X78148Y937852D01*
X71077Y944923D01*
G37*
G36*
X78148Y944923D02*
X91937Y931134D01*
X84866Y924063D01*
X71077Y937852D01*
X78148Y944923D01*
G37*
G36*
X78148Y937852D02*
X64359Y924063D01*
X57288Y931134D01*
X71077Y944923D01*
X78148Y937852D01*
G37*
G36*
X71077Y937852D02*
X57288Y951641D01*
X64359Y958712D01*
X78148Y944923D01*
X71077Y937852D01*
G37*
G54D19*
G36*
X33512Y846138D02*
X33512Y859638D01*
X39512Y859638D01*
X39512Y846138D01*
X33512Y846138D01*
G37*
G36*
X36512Y849138D02*
X50012Y849138D01*
X50012Y843138D01*
X36512Y843138D01*
X36512Y849138D01*
G37*
G36*
X36512Y843138D02*
X23012Y843138D01*
X23012Y849138D01*
X36512Y849138D01*
X36512Y843138D01*
G37*
G54D19*
G36*
X33512Y757238D02*
X33512Y770738D01*
X39512Y770738D01*
X39512Y757238D01*
X33512Y757238D01*
G37*
G36*
X36512Y760238D02*
X50012Y760238D01*
X50012Y754238D01*
X36512Y754238D01*
X36512Y760238D01*
G37*
G36*
X36512Y754238D02*
X23012Y754238D01*
X23012Y760238D01*
X36512Y760238D01*
X36512Y754238D01*
G37*
G54D19*
G36*
X205841Y860959D02*
X215387Y870505D01*
X219630Y866262D01*
X210084Y856716D01*
X205841Y860959D01*
G37*
G36*
X210084Y860959D02*
X219630Y851413D01*
X215387Y847170D01*
X205841Y856716D01*
X210084Y860959D01*
G37*
G36*
X210084Y856716D02*
X200538Y847170D01*
X196295Y851413D01*
X205841Y860959D01*
X210084Y856716D01*
G37*
G36*
X205841Y856716D02*
X196295Y866262D01*
X200538Y870505D01*
X210084Y860959D01*
X205841Y856716D01*
G37*
G54D19*
G36*
X147813Y687387D02*
X147813Y700887D01*
X153813Y700887D01*
X153813Y687387D01*
X147813Y687387D01*
G37*
G36*
X153813Y687387D02*
X153813Y673887D01*
X147813Y673887D01*
X147813Y687387D01*
X153813Y687387D01*
G37*
G54D20*
G36*
X33312Y967771D02*
X20812Y967771D01*
X20812Y972104D01*
X33312Y972104D01*
X33312Y967771D01*
G37*
G36*
X31146Y969938D02*
X31146Y980938D01*
X35479Y980938D01*
X35479Y969938D01*
X31146Y969938D01*
G37*
G36*
X33312Y972104D02*
X45812Y972104D01*
X45812Y967771D01*
X33312Y967771D01*
X33312Y972104D01*
G37*
G54D19*
G36*
X274813Y687388D02*
X274813Y700888D01*
X280813Y700888D01*
X280813Y687388D01*
X274813Y687388D01*
G37*
G36*
X280813Y687388D02*
X280813Y673888D01*
X274813Y673888D01*
X274813Y687388D01*
X280813Y687388D01*
G37*
G54D19*
G36*
X52562Y649288D02*
X52562Y662788D01*
X58562Y662788D01*
X58562Y649288D01*
X52562Y649288D01*
G37*
G36*
X58562Y649288D02*
X58562Y635788D01*
X52562Y635788D01*
X52562Y649288D01*
X58562Y649288D01*
G37*
G54D19*
G36*
X136702Y649288D02*
X136702Y662788D01*
X142702Y662788D01*
X142702Y649288D01*
X136702Y649288D01*
G37*
G36*
X142702Y649288D02*
X142702Y635788D01*
X136702Y635788D01*
X136702Y649288D01*
X142702Y649288D01*
G37*
G54D19*
G36*
X222422Y649288D02*
X222422Y662788D01*
X228422Y662788D01*
X228422Y649288D01*
X222422Y649288D01*
G37*
G36*
X228422Y649288D02*
X228422Y635788D01*
X222422Y635788D01*
X222422Y649288D01*
X228422Y649288D01*
G37*
G54D19*
G36*
X306562Y649288D02*
X306562Y662788D01*
X312562Y662788D01*
X312562Y649288D01*
X306562Y649288D01*
G37*
G36*
X312562Y649288D02*
X312562Y635788D01*
X306562Y635788D01*
X306562Y649288D01*
X312562Y649288D01*
G37*
G54D18*
G36*
X401277Y944923D02*
X415066Y958712D01*
X422137Y951641D01*
X408348Y937852D01*
X401277Y944923D01*
G37*
G36*
X408348Y944923D02*
X422137Y931134D01*
X415066Y924063D01*
X401277Y937852D01*
X408348Y944923D01*
G37*
G36*
X408348Y937852D02*
X394559Y924063D01*
X387488Y931134D01*
X401277Y944923D01*
X408348Y937852D01*
G37*
G36*
X401277Y937852D02*
X387488Y951641D01*
X394559Y958712D01*
X408348Y944923D01*
X401277Y937852D01*
G37*
G54D19*
G36*
X363712Y846138D02*
X363712Y859638D01*
X369712Y859638D01*
X369712Y846138D01*
X363712Y846138D01*
G37*
G36*
X366712Y849138D02*
X380212Y849138D01*
X380212Y843138D01*
X366712Y843138D01*
X366712Y849138D01*
G37*
G36*
X366712Y843138D02*
X353212Y843138D01*
X353212Y849138D01*
X366712Y849138D01*
X366712Y843138D01*
G37*
G54D19*
G36*
X363712Y757238D02*
X363712Y770738D01*
X369712Y770738D01*
X369712Y757238D01*
X363712Y757238D01*
G37*
G36*
X366712Y760238D02*
X380212Y760238D01*
X380212Y754238D01*
X366712Y754238D01*
X366712Y760238D01*
G37*
G36*
X366712Y754238D02*
X353212Y754238D01*
X353212Y760238D01*
X366712Y760238D01*
X366712Y754238D01*
G37*
G54D19*
G36*
X536041Y860959D02*
X545587Y870505D01*
X549830Y866262D01*
X540284Y856716D01*
X536041Y860959D01*
G37*
G36*
X540284Y860959D02*
X549830Y851413D01*
X545587Y847170D01*
X536041Y856716D01*
X540284Y860959D01*
G37*
G36*
X540284Y856716D02*
X530738Y847170D01*
X526495Y851413D01*
X536041Y860959D01*
X540284Y856716D01*
G37*
G36*
X536041Y856716D02*
X526495Y866262D01*
X530738Y870505D01*
X540284Y860959D01*
X536041Y856716D01*
G37*
G54D19*
G36*
X478013Y687387D02*
X478013Y700887D01*
X484013Y700887D01*
X484013Y687387D01*
X478013Y687387D01*
G37*
G36*
X484013Y687387D02*
X484013Y673887D01*
X478013Y673887D01*
X478013Y687387D01*
X484013Y687387D01*
G37*
G54D20*
G36*
X363512Y967771D02*
X351012Y967771D01*
X351012Y972104D01*
X363512Y972104D01*
X363512Y967771D01*
G37*
G36*
X361346Y969938D02*
X361346Y980938D01*
X365679Y980938D01*
X365679Y969938D01*
X361346Y969938D01*
G37*
G36*
X363512Y972104D02*
X376012Y972104D01*
X376012Y967771D01*
X363512Y967771D01*
X363512Y972104D01*
G37*
G54D19*
G36*
X605013Y687388D02*
X605013Y700888D01*
X611013Y700888D01*
X611013Y687388D01*
X605013Y687388D01*
G37*
G36*
X611013Y687388D02*
X611013Y673888D01*
X605013Y673888D01*
X605013Y687388D01*
X611013Y687388D01*
G37*
G54D19*
G36*
X382762Y649288D02*
X382762Y662788D01*
X388762Y662788D01*
X388762Y649288D01*
X382762Y649288D01*
G37*
G36*
X388762Y649288D02*
X388762Y635788D01*
X382762Y635788D01*
X382762Y649288D01*
X388762Y649288D01*
G37*
G54D19*
G36*
X466902Y649288D02*
X466902Y662788D01*
X472902Y662788D01*
X472902Y649288D01*
X466902Y649288D01*
G37*
G36*
X472902Y649288D02*
X472902Y635788D01*
X466902Y635788D01*
X466902Y649288D01*
X472902Y649288D01*
G37*
G54D19*
G36*
X552622Y649288D02*
X552622Y662788D01*
X558622Y662788D01*
X558622Y649288D01*
X552622Y649288D01*
G37*
G36*
X558622Y649288D02*
X558622Y635788D01*
X552622Y635788D01*
X552622Y649288D01*
X558622Y649288D01*
G37*
G54D19*
G36*
X636762Y649288D02*
X636762Y662788D01*
X642762Y662788D01*
X642762Y649288D01*
X636762Y649288D01*
G37*
G36*
X642762Y649288D02*
X642762Y635788D01*
X636762Y635788D01*
X636762Y649288D01*
X642762Y649288D01*
G37*
G54D18*
G36*
X731477Y944923D02*
X745266Y958712D01*
X752337Y951641D01*
X738548Y937852D01*
X731477Y944923D01*
G37*
G36*
X738548Y944923D02*
X752337Y931134D01*
X745266Y924063D01*
X731477Y937852D01*
X738548Y944923D01*
G37*
G36*
X738548Y937852D02*
X724759Y924063D01*
X717688Y931134D01*
X731477Y944923D01*
X738548Y937852D01*
G37*
G36*
X731477Y937852D02*
X717688Y951641D01*
X724759Y958712D01*
X738548Y944923D01*
X731477Y937852D01*
G37*
G54D19*
G36*
X693912Y846138D02*
X693912Y859638D01*
X699912Y859638D01*
X699912Y846138D01*
X693912Y846138D01*
G37*
G36*
X696912Y849138D02*
X710412Y849138D01*
X710412Y843138D01*
X696912Y843138D01*
X696912Y849138D01*
G37*
G36*
X696912Y843138D02*
X683412Y843138D01*
X683412Y849138D01*
X696912Y849138D01*
X696912Y843138D01*
G37*
G54D19*
G36*
X693912Y757238D02*
X693912Y770738D01*
X699912Y770738D01*
X699912Y757238D01*
X693912Y757238D01*
G37*
G36*
X696912Y760238D02*
X710412Y760238D01*
X710412Y754238D01*
X696912Y754238D01*
X696912Y760238D01*
G37*
G36*
X696912Y754238D02*
X683412Y754238D01*
X683412Y760238D01*
X696912Y760238D01*
X696912Y754238D01*
G37*
G54D19*
G36*
X866241Y860959D02*
X875787Y870505D01*
X880030Y866262D01*
X870484Y856716D01*
X866241Y860959D01*
G37*
G36*
X870484Y860959D02*
X880030Y851413D01*
X875787Y847170D01*
X866241Y856716D01*
X870484Y860959D01*
G37*
G36*
X870484Y856716D02*
X860938Y847170D01*
X856695Y851413D01*
X866241Y860959D01*
X870484Y856716D01*
G37*
G36*
X866241Y856716D02*
X856695Y866262D01*
X860938Y870505D01*
X870484Y860959D01*
X866241Y856716D01*
G37*
G54D19*
G36*
X808213Y687387D02*
X808213Y700887D01*
X814213Y700887D01*
X814213Y687387D01*
X808213Y687387D01*
G37*
G36*
X814213Y687387D02*
X814213Y673887D01*
X808213Y673887D01*
X808213Y687387D01*
X814213Y687387D01*
G37*
G54D20*
G36*
X693712Y967771D02*
X681212Y967771D01*
X681212Y972104D01*
X693712Y972104D01*
X693712Y967771D01*
G37*
G36*
X691546Y969938D02*
X691546Y980938D01*
X695879Y980938D01*
X695879Y969938D01*
X691546Y969938D01*
G37*
G36*
X693712Y972104D02*
X706212Y972104D01*
X706212Y967771D01*
X693712Y967771D01*
X693712Y972104D01*
G37*
G54D19*
G36*
X935213Y687388D02*
X935213Y700888D01*
X941213Y700888D01*
X941213Y687388D01*
X935213Y687388D01*
G37*
G36*
X941213Y687388D02*
X941213Y673888D01*
X935213Y673888D01*
X935213Y687388D01*
X941213Y687388D01*
G37*
G54D19*
G36*
X712962Y649288D02*
X712962Y662788D01*
X718962Y662788D01*
X718962Y649288D01*
X712962Y649288D01*
G37*
G36*
X718962Y649288D02*
X718962Y635788D01*
X712962Y635788D01*
X712962Y649288D01*
X718962Y649288D01*
G37*
G54D19*
G36*
X797102Y649288D02*
X797102Y662788D01*
X803102Y662788D01*
X803102Y649288D01*
X797102Y649288D01*
G37*
G36*
X803102Y649288D02*
X803102Y635788D01*
X797102Y635788D01*
X797102Y649288D01*
X803102Y649288D01*
G37*
G54D19*
G36*
X882822Y649288D02*
X882822Y662788D01*
X888822Y662788D01*
X888822Y649288D01*
X882822Y649288D01*
G37*
G36*
X888822Y649288D02*
X888822Y635788D01*
X882822Y635788D01*
X882822Y649288D01*
X888822Y649288D01*
G37*
G54D19*
G36*
X966962Y649288D02*
X966962Y662788D01*
X972962Y662788D01*
X972962Y649288D01*
X966962Y649288D01*
G37*
G36*
X972962Y649288D02*
X972962Y635788D01*
X966962Y635788D01*
X966962Y649288D01*
X972962Y649288D01*
G37*
G54D18*
G36*
X71077Y528998D02*
X84866Y542787D01*
X91937Y535716D01*
X78148Y521927D01*
X71077Y528998D01*
G37*
G36*
X78148Y528998D02*
X91937Y515209D01*
X84866Y508138D01*
X71077Y521927D01*
X78148Y528998D01*
G37*
G36*
X78148Y521927D02*
X64359Y508138D01*
X57288Y515209D01*
X71077Y528998D01*
X78148Y521927D01*
G37*
G36*
X71077Y521927D02*
X57288Y535716D01*
X64359Y542787D01*
X78148Y528998D01*
X71077Y521927D01*
G37*
G54D19*
G36*
X33512Y430212D02*
X33512Y443712D01*
X39512Y443712D01*
X39512Y430212D01*
X33512Y430212D01*
G37*
G36*
X36512Y433212D02*
X50012Y433212D01*
X50012Y427212D01*
X36512Y427212D01*
X36512Y433212D01*
G37*
G36*
X36512Y427212D02*
X23012Y427212D01*
X23012Y433212D01*
X36512Y433212D01*
X36512Y427212D01*
G37*
G54D19*
G36*
X33512Y341312D02*
X33512Y354812D01*
X39512Y354812D01*
X39512Y341312D01*
X33512Y341312D01*
G37*
G36*
X36512Y344312D02*
X50012Y344312D01*
X50012Y338312D01*
X36512Y338312D01*
X36512Y344312D01*
G37*
G36*
X36512Y338312D02*
X23012Y338312D01*
X23012Y344312D01*
X36512Y344312D01*
X36512Y338312D01*
G37*
G54D19*
G36*
X205841Y445034D02*
X215387Y454580D01*
X219630Y450337D01*
X210084Y440791D01*
X205841Y445034D01*
G37*
G36*
X210084Y445034D02*
X219630Y435488D01*
X215387Y431245D01*
X205841Y440791D01*
X210084Y445034D01*
G37*
G36*
X210084Y440791D02*
X200538Y431245D01*
X196295Y435488D01*
X205841Y445034D01*
X210084Y440791D01*
G37*
G36*
X205841Y440791D02*
X196295Y450337D01*
X200538Y454580D01*
X210084Y445034D01*
X205841Y440791D01*
G37*
G54D19*
G36*
X147813Y271462D02*
X147813Y284962D01*
X153813Y284962D01*
X153813Y271462D01*
X147813Y271462D01*
G37*
G36*
X153813Y271462D02*
X153813Y257962D01*
X147813Y257962D01*
X147813Y271462D01*
X153813Y271462D01*
G37*
G54D20*
G36*
X33312Y551846D02*
X20812Y551846D01*
X20812Y556179D01*
X33312Y556179D01*
X33312Y551846D01*
G37*
G36*
X31146Y554012D02*
X31146Y565012D01*
X35479Y565012D01*
X35479Y554012D01*
X31146Y554012D01*
G37*
G36*
X33312Y556179D02*
X45812Y556179D01*
X45812Y551846D01*
X33312Y551846D01*
X33312Y556179D01*
G37*
G54D19*
G36*
X274813Y271462D02*
X274813Y284962D01*
X280813Y284962D01*
X280813Y271462D01*
X274813Y271462D01*
G37*
G36*
X280813Y271462D02*
X280813Y257962D01*
X274813Y257962D01*
X274813Y271462D01*
X280813Y271462D01*
G37*
G54D19*
G36*
X52562Y233362D02*
X52562Y246862D01*
X58562Y246862D01*
X58562Y233362D01*
X52562Y233362D01*
G37*
G36*
X58562Y233362D02*
X58562Y219862D01*
X52562Y219862D01*
X52562Y233362D01*
X58562Y233362D01*
G37*
G54D19*
G36*
X136702Y233362D02*
X136702Y246862D01*
X142702Y246862D01*
X142702Y233362D01*
X136702Y233362D01*
G37*
G36*
X142702Y233362D02*
X142702Y219862D01*
X136702Y219862D01*
X136702Y233362D01*
X142702Y233362D01*
G37*
G54D19*
G36*
X222422Y233362D02*
X222422Y246862D01*
X228422Y246862D01*
X228422Y233362D01*
X222422Y233362D01*
G37*
G36*
X228422Y233362D02*
X228422Y219862D01*
X222422Y219862D01*
X222422Y233362D01*
X228422Y233362D01*
G37*
G54D19*
G36*
X306562Y233362D02*
X306562Y246862D01*
X312562Y246862D01*
X312562Y233362D01*
X306562Y233362D01*
G37*
G36*
X312562Y233362D02*
X312562Y219862D01*
X306562Y219862D01*
X306562Y233362D01*
X312562Y233362D01*
G37*
G54D18*
G36*
X401277Y528998D02*
X415066Y542787D01*
X422137Y535716D01*
X408348Y521927D01*
X401277Y528998D01*
G37*
G36*
X408348Y528998D02*
X422137Y515209D01*
X415066Y508138D01*
X401277Y521927D01*
X408348Y528998D01*
G37*
G36*
X408348Y521927D02*
X394559Y508138D01*
X387488Y515209D01*
X401277Y528998D01*
X408348Y521927D01*
G37*
G36*
X401277Y521927D02*
X387488Y535716D01*
X394559Y542787D01*
X408348Y528998D01*
X401277Y521927D01*
G37*
G54D19*
G36*
X363712Y430212D02*
X363712Y443712D01*
X369712Y443712D01*
X369712Y430212D01*
X363712Y430212D01*
G37*
G36*
X366712Y433212D02*
X380212Y433212D01*
X380212Y427212D01*
X366712Y427212D01*
X366712Y433212D01*
G37*
G36*
X366712Y427212D02*
X353212Y427212D01*
X353212Y433212D01*
X366712Y433212D01*
X366712Y427212D01*
G37*
G54D19*
G36*
X363712Y341312D02*
X363712Y354812D01*
X369712Y354812D01*
X369712Y341312D01*
X363712Y341312D01*
G37*
G36*
X366712Y344312D02*
X380212Y344312D01*
X380212Y338312D01*
X366712Y338312D01*
X366712Y344312D01*
G37*
G36*
X366712Y338312D02*
X353212Y338312D01*
X353212Y344312D01*
X366712Y344312D01*
X366712Y338312D01*
G37*
G54D19*
G36*
X536041Y445034D02*
X545587Y454580D01*
X549830Y450337D01*
X540284Y440791D01*
X536041Y445034D01*
G37*
G36*
X540284Y445034D02*
X549830Y435488D01*
X545587Y431245D01*
X536041Y440791D01*
X540284Y445034D01*
G37*
G36*
X540284Y440791D02*
X530738Y431245D01*
X526495Y435488D01*
X536041Y445034D01*
X540284Y440791D01*
G37*
G36*
X536041Y440791D02*
X526495Y450337D01*
X530738Y454580D01*
X540284Y445034D01*
X536041Y440791D01*
G37*
G54D19*
G36*
X478013Y271462D02*
X478013Y284962D01*
X484013Y284962D01*
X484013Y271462D01*
X478013Y271462D01*
G37*
G36*
X484013Y271462D02*
X484013Y257962D01*
X478013Y257962D01*
X478013Y271462D01*
X484013Y271462D01*
G37*
G54D20*
G36*
X363512Y551846D02*
X351012Y551846D01*
X351012Y556179D01*
X363512Y556179D01*
X363512Y551846D01*
G37*
G36*
X361346Y554012D02*
X361346Y565012D01*
X365679Y565012D01*
X365679Y554012D01*
X361346Y554012D01*
G37*
G36*
X363512Y556179D02*
X376012Y556179D01*
X376012Y551846D01*
X363512Y551846D01*
X363512Y556179D01*
G37*
G54D19*
G36*
X605013Y271462D02*
X605013Y284962D01*
X611013Y284962D01*
X611013Y271462D01*
X605013Y271462D01*
G37*
G36*
X611013Y271462D02*
X611013Y257962D01*
X605013Y257962D01*
X605013Y271462D01*
X611013Y271462D01*
G37*
G54D19*
G36*
X382762Y233362D02*
X382762Y246862D01*
X388762Y246862D01*
X388762Y233362D01*
X382762Y233362D01*
G37*
G36*
X388762Y233362D02*
X388762Y219862D01*
X382762Y219862D01*
X382762Y233362D01*
X388762Y233362D01*
G37*
G54D19*
G36*
X466902Y233362D02*
X466902Y246862D01*
X472902Y246862D01*
X472902Y233362D01*
X466902Y233362D01*
G37*
G36*
X472902Y233362D02*
X472902Y219862D01*
X466902Y219862D01*
X466902Y233362D01*
X472902Y233362D01*
G37*
G54D19*
G36*
X552622Y233362D02*
X552622Y246862D01*
X558622Y246862D01*
X558622Y233362D01*
X552622Y233362D01*
G37*
G36*
X558622Y233362D02*
X558622Y219862D01*
X552622Y219862D01*
X552622Y233362D01*
X558622Y233362D01*
G37*
G54D19*
G36*
X636762Y233362D02*
X636762Y246862D01*
X642762Y246862D01*
X642762Y233362D01*
X636762Y233362D01*
G37*
G36*
X642762Y233362D02*
X642762Y219862D01*
X636762Y219862D01*
X636762Y233362D01*
X642762Y233362D01*
G37*
G54D18*
G36*
X731477Y528998D02*
X745266Y542787D01*
X752337Y535716D01*
X738548Y521927D01*
X731477Y528998D01*
G37*
G36*
X738548Y528998D02*
X752337Y515209D01*
X745266Y508138D01*
X731477Y521927D01*
X738548Y528998D01*
G37*
G36*
X738548Y521927D02*
X724759Y508138D01*
X717688Y515209D01*
X731477Y528998D01*
X738548Y521927D01*
G37*
G36*
X731477Y521927D02*
X717688Y535716D01*
X724759Y542787D01*
X738548Y528998D01*
X731477Y521927D01*
G37*
G54D19*
G36*
X693912Y430212D02*
X693912Y443712D01*
X699912Y443712D01*
X699912Y430212D01*
X693912Y430212D01*
G37*
G36*
X696912Y433212D02*
X710412Y433212D01*
X710412Y427212D01*
X696912Y427212D01*
X696912Y433212D01*
G37*
G36*
X696912Y427212D02*
X683412Y427212D01*
X683412Y433212D01*
X696912Y433212D01*
X696912Y427212D01*
G37*
G54D19*
G36*
X693912Y341312D02*
X693912Y354812D01*
X699912Y354812D01*
X699912Y341312D01*
X693912Y341312D01*
G37*
G36*
X696912Y344312D02*
X710412Y344312D01*
X710412Y338312D01*
X696912Y338312D01*
X696912Y344312D01*
G37*
G36*
X696912Y338312D02*
X683412Y338312D01*
X683412Y344312D01*
X696912Y344312D01*
X696912Y338312D01*
G37*
G54D19*
G36*
X866241Y445034D02*
X875787Y454580D01*
X880030Y450337D01*
X870484Y440791D01*
X866241Y445034D01*
G37*
G36*
X870484Y445034D02*
X880030Y435488D01*
X875787Y431245D01*
X866241Y440791D01*
X870484Y445034D01*
G37*
G36*
X870484Y440791D02*
X860938Y431245D01*
X856695Y435488D01*
X866241Y445034D01*
X870484Y440791D01*
G37*
G36*
X866241Y440791D02*
X856695Y450337D01*
X860938Y454580D01*
X870484Y445034D01*
X866241Y440791D01*
G37*
G54D19*
G36*
X808213Y271462D02*
X808213Y284962D01*
X814213Y284962D01*
X814213Y271462D01*
X808213Y271462D01*
G37*
G36*
X814213Y271462D02*
X814213Y257962D01*
X808213Y257962D01*
X808213Y271462D01*
X814213Y271462D01*
G37*
G54D20*
G36*
X693712Y551846D02*
X681212Y551846D01*
X681212Y556179D01*
X693712Y556179D01*
X693712Y551846D01*
G37*
G36*
X691546Y554012D02*
X691546Y565012D01*
X695879Y565012D01*
X695879Y554012D01*
X691546Y554012D01*
G37*
G36*
X693712Y556179D02*
X706212Y556179D01*
X706212Y551846D01*
X693712Y551846D01*
X693712Y556179D01*
G37*
G54D19*
G36*
X935213Y271462D02*
X935213Y284962D01*
X941213Y284962D01*
X941213Y271462D01*
X935213Y271462D01*
G37*
G36*
X941213Y271462D02*
X941213Y257962D01*
X935213Y257962D01*
X935213Y271462D01*
X941213Y271462D01*
G37*
G54D19*
G36*
X712962Y233362D02*
X712962Y246862D01*
X718962Y246862D01*
X718962Y233362D01*
X712962Y233362D01*
G37*
G36*
X718962Y233362D02*
X718962Y219862D01*
X712962Y219862D01*
X712962Y233362D01*
X718962Y233362D01*
G37*
G54D19*
G36*
X797102Y233362D02*
X797102Y246862D01*
X803102Y246862D01*
X803102Y233362D01*
X797102Y233362D01*
G37*
G36*
X803102Y233362D02*
X803102Y219862D01*
X797102Y219862D01*
X797102Y233362D01*
X803102Y233362D01*
G37*
G54D19*
G36*
X882822Y233362D02*
X882822Y246862D01*
X888822Y246862D01*
X888822Y233362D01*
X882822Y233362D01*
G37*
G36*
X888822Y233362D02*
X888822Y219862D01*
X882822Y219862D01*
X882822Y233362D01*
X888822Y233362D01*
G37*
G54D19*
G36*
X966962Y233362D02*
X966962Y246862D01*
X972962Y246862D01*
X972962Y233362D01*
X966962Y233362D01*
G37*
G36*
X972962Y233362D02*
X972962Y219862D01*
X966962Y219862D01*
X966962Y233362D01*
X972962Y233362D01*
G37*
G36*
X140412Y935162D02*
X131638Y926388D01*
X119188Y926388D01*
X110412Y935162D01*
X110412Y947612D01*
X119188Y956388D01*
X131638Y956388D01*
X140412Y947612D01*
X140412Y935162D01*
G37*
G36*
X89612Y935162D02*
X80838Y926388D01*
X68388Y926388D01*
X59612Y935162D01*
X59612Y947612D01*
X68388Y956388D01*
X80838Y956388D01*
X89612Y947612D01*
X89612Y935162D01*
G37*
X36512Y820738D02*
G54D21*
D03*
X36512Y846138D02*
G54D21*
D03*
X36512Y731838D02*
G54D21*
D03*
X36512Y757238D02*
G54D21*
D03*
G36*
X59612Y947612D02*
X68388Y956388D01*
X80838Y956388D01*
X89612Y947612D01*
X89612Y935162D01*
X80838Y926388D01*
X68388Y926388D01*
X59612Y935162D01*
X59612Y947612D01*
G37*
X36512Y846138D02*
G54D21*
D03*
X36512Y757238D02*
G54D21*
D03*
X207962Y858838D02*
G54D21*
D03*
G36*
X116413Y691122D02*
X121678Y696387D01*
X129148Y696387D01*
X134413Y691122D01*
X134413Y683652D01*
X129148Y678387D01*
X121678Y678387D01*
X116413Y683652D01*
X116413Y691122D01*
G37*
G36*
X141813Y691122D02*
X147078Y696387D01*
X154548Y696387D01*
X159813Y691122D01*
X159813Y683652D01*
X154548Y678387D01*
X147078Y678387D01*
X141813Y683652D01*
X141813Y691122D01*
G37*
G36*
X167212Y691122D02*
X172478Y696387D01*
X179948Y696387D01*
X185212Y691122D01*
X185212Y683652D01*
X179948Y678387D01*
X172478Y678387D01*
X167212Y683652D01*
X167212Y691122D01*
G37*
G36*
X141813Y691122D02*
X147078Y696387D01*
X154548Y696387D01*
X159813Y691122D01*
X159813Y683652D01*
X154548Y678387D01*
X147078Y678387D01*
X141813Y683652D01*
X141813Y691122D01*
G37*
X139303Y868362D02*
G54D22*
D03*
X87312Y868362D02*
G54D22*
D03*
G54D23*
X125412Y941388D02*
X125412Y915988D01*
X139700Y901700D01*
X139700Y868759D01*
X139303Y868362D01*
X277812Y858838D02*
G54D21*
D03*
X252809Y858838D02*
G54D21*
D03*
X232966Y858837D02*
G54D21*
D03*
X207962Y858837D02*
G54D21*
D03*
G36*
X328570Y877525D02*
X316870Y865825D01*
X300270Y865825D01*
X288570Y877525D01*
X288570Y894125D01*
X300270Y905825D01*
X316870Y905825D01*
X328570Y894125D01*
X328570Y877525D01*
G37*
G36*
X197006Y877525D02*
X185306Y865825D01*
X168706Y865825D01*
X157006Y877525D01*
X157006Y894125D01*
X168706Y905825D01*
X185306Y905825D01*
X197006Y894125D01*
X197006Y877525D01*
G37*
G54D23*
X36512Y731838D02*
X87312Y731838D01*
X87312Y868362D01*
G54D23*
X36512Y820738D02*
X87312Y820738D01*
X33312Y912788D02*
G54D24*
D03*
X33312Y893788D02*
G54D24*
D03*
X33312Y950938D02*
G54D24*
D03*
X33312Y969938D02*
G54D24*
D03*
G54D25*
X33312Y912838D02*
X33312Y950938D01*
X33312Y969938D02*
G54D24*
D03*
G36*
X243412Y691122D02*
X248678Y696388D01*
X256148Y696388D01*
X261412Y691122D01*
X261412Y683652D01*
X256148Y678388D01*
X248678Y678388D01*
X243412Y683652D01*
X243412Y691122D01*
G37*
G36*
X268813Y691122D02*
X274078Y696388D01*
X281548Y696388D01*
X286813Y691122D01*
X286813Y683652D01*
X281548Y678388D01*
X274078Y678388D01*
X268813Y683652D01*
X268813Y691122D01*
G37*
G36*
X294212Y691122D02*
X299478Y696388D01*
X306948Y696388D01*
X312212Y691122D01*
X312212Y683652D01*
X306948Y678388D01*
X299478Y678388D01*
X294212Y683652D01*
X294212Y691122D01*
G37*
G36*
X268813Y691122D02*
X274078Y696388D01*
X281548Y696388D01*
X286813Y691122D01*
X286813Y683652D01*
X281548Y678388D01*
X274078Y678388D01*
X268813Y683652D01*
X268813Y691122D01*
G37*
X55562Y649288D02*
G54D26*
D03*
X30162Y649288D02*
G54D26*
D03*
X139700Y649288D02*
G54D26*
D03*
X114300Y649288D02*
G54D26*
D03*
X225425Y649288D02*
G54D26*
D03*
X200025Y649288D02*
G54D26*
D03*
X309562Y649288D02*
G54D26*
D03*
X284162Y649288D02*
G54D26*
D03*
G54D23*
X61912Y731838D02*
X284162Y731838D01*
X303212Y712788D01*
X303212Y687388D01*
G54D23*
X176212Y687388D02*
X176212Y731838D01*
G54D25*
X33312Y893788D02*
X33312Y887438D01*
X49212Y871538D01*
X90488Y871538D01*
X55562Y649288D02*
G54D26*
D03*
X139702Y649288D02*
G54D26*
D03*
X225422Y649288D02*
G54D26*
D03*
X309562Y649288D02*
G54D26*
D03*
G54D23*
X30162Y649288D02*
X30162Y668338D01*
X49212Y687388D01*
X125413Y687387D01*
G54D23*
X114300Y649288D02*
X114300Y685800D01*
X112712Y687388D01*
G54D23*
X200025Y649288D02*
X200025Y666750D01*
X220662Y687388D01*
X252412Y687388D01*
G54D23*
X252412Y687388D02*
X252412Y661988D01*
X265112Y649288D01*
X284162Y649288D01*
X214312Y766762D02*
G54D27*
D03*
G36*
X470612Y935162D02*
X461838Y926388D01*
X449388Y926388D01*
X440612Y935162D01*
X440612Y947612D01*
X449388Y956388D01*
X461838Y956388D01*
X470612Y947612D01*
X470612Y935162D01*
G37*
G36*
X419812Y935162D02*
X411038Y926388D01*
X398588Y926388D01*
X389812Y935162D01*
X389812Y947612D01*
X398588Y956388D01*
X411038Y956388D01*
X419812Y947612D01*
X419812Y935162D01*
G37*
X366712Y820738D02*
G54D21*
D03*
X366712Y846138D02*
G54D21*
D03*
X366712Y731838D02*
G54D21*
D03*
X366712Y757238D02*
G54D21*
D03*
G36*
X389812Y947612D02*
X398588Y956388D01*
X411038Y956388D01*
X419812Y947612D01*
X419812Y935162D01*
X411038Y926388D01*
X398588Y926388D01*
X389812Y935162D01*
X389812Y947612D01*
G37*
X366712Y846138D02*
G54D21*
D03*
X366712Y757238D02*
G54D21*
D03*
X538162Y858838D02*
G54D21*
D03*
G36*
X446613Y691122D02*
X451878Y696387D01*
X459348Y696387D01*
X464613Y691122D01*
X464613Y683652D01*
X459348Y678387D01*
X451878Y678387D01*
X446613Y683652D01*
X446613Y691122D01*
G37*
G36*
X472013Y691122D02*
X477278Y696387D01*
X484748Y696387D01*
X490013Y691122D01*
X490013Y683652D01*
X484748Y678387D01*
X477278Y678387D01*
X472013Y683652D01*
X472013Y691122D01*
G37*
G36*
X497412Y691122D02*
X502678Y696387D01*
X510148Y696387D01*
X515412Y691122D01*
X515412Y683652D01*
X510148Y678387D01*
X502678Y678387D01*
X497412Y683652D01*
X497412Y691122D01*
G37*
G36*
X472013Y691122D02*
X477278Y696387D01*
X484748Y696387D01*
X490013Y691122D01*
X490013Y683652D01*
X484748Y678387D01*
X477278Y678387D01*
X472013Y683652D01*
X472013Y691122D01*
G37*
X469503Y868362D02*
G54D22*
D03*
X417512Y868362D02*
G54D22*
D03*
G54D23*
X455612Y941388D02*
X455612Y915988D01*
X469900Y901700D01*
X469900Y868759D01*
X469503Y868362D01*
X608012Y858838D02*
G54D21*
D03*
X583009Y858838D02*
G54D21*
D03*
X563166Y858837D02*
G54D21*
D03*
X538162Y858837D02*
G54D21*
D03*
G36*
X658770Y877525D02*
X647070Y865825D01*
X630470Y865825D01*
X618770Y877525D01*
X618770Y894125D01*
X630470Y905825D01*
X647070Y905825D01*
X658770Y894125D01*
X658770Y877525D01*
G37*
G36*
X527206Y877525D02*
X515506Y865825D01*
X498906Y865825D01*
X487206Y877525D01*
X487206Y894125D01*
X498906Y905825D01*
X515506Y905825D01*
X527206Y894125D01*
X527206Y877525D01*
G37*
G54D23*
X366712Y731838D02*
X417512Y731838D01*
X417512Y868362D01*
G54D23*
X366712Y820738D02*
X417512Y820738D01*
X363512Y912788D02*
G54D24*
D03*
X363512Y893788D02*
G54D24*
D03*
X363512Y950938D02*
G54D24*
D03*
X363512Y969938D02*
G54D24*
D03*
G54D25*
X363512Y912838D02*
X363512Y950938D01*
X363512Y969938D02*
G54D24*
D03*
G36*
X573612Y691122D02*
X578878Y696388D01*
X586348Y696388D01*
X591612Y691122D01*
X591612Y683652D01*
X586348Y678388D01*
X578878Y678388D01*
X573612Y683652D01*
X573612Y691122D01*
G37*
G36*
X599013Y691122D02*
X604278Y696388D01*
X611748Y696388D01*
X617013Y691122D01*
X617013Y683652D01*
X611748Y678388D01*
X604278Y678388D01*
X599013Y683652D01*
X599013Y691122D01*
G37*
G36*
X624412Y691122D02*
X629678Y696388D01*
X637148Y696388D01*
X642412Y691122D01*
X642412Y683652D01*
X637148Y678388D01*
X629678Y678388D01*
X624412Y683652D01*
X624412Y691122D01*
G37*
G36*
X599013Y691122D02*
X604278Y696388D01*
X611748Y696388D01*
X617013Y691122D01*
X617013Y683652D01*
X611748Y678388D01*
X604278Y678388D01*
X599013Y683652D01*
X599013Y691122D01*
G37*
X385762Y649288D02*
G54D26*
D03*
X360362Y649288D02*
G54D26*
D03*
X469900Y649288D02*
G54D26*
D03*
X444500Y649288D02*
G54D26*
D03*
X555625Y649288D02*
G54D26*
D03*
X530225Y649288D02*
G54D26*
D03*
X639762Y649288D02*
G54D26*
D03*
X614362Y649288D02*
G54D26*
D03*
G54D23*
X392112Y731838D02*
X614362Y731838D01*
X633412Y712788D01*
X633412Y687388D01*
G54D23*
X506412Y687388D02*
X506412Y731838D01*
G54D25*
X363512Y893788D02*
X363512Y887438D01*
X379412Y871538D01*
X420688Y871538D01*
X385762Y649288D02*
G54D26*
D03*
X469902Y649288D02*
G54D26*
D03*
X555622Y649288D02*
G54D26*
D03*
X639762Y649288D02*
G54D26*
D03*
G54D23*
X360362Y649288D02*
X360362Y668338D01*
X379412Y687388D01*
X455613Y687387D01*
G54D23*
X444500Y649288D02*
X444500Y685800D01*
X442912Y687388D01*
G54D23*
X530225Y649288D02*
X530225Y666750D01*
X550862Y687388D01*
X582612Y687388D01*
G54D23*
X582612Y687388D02*
X582612Y661988D01*
X595312Y649288D01*
X614362Y649288D01*
X544512Y766762D02*
G54D27*
D03*
G36*
X800812Y935162D02*
X792038Y926388D01*
X779588Y926388D01*
X770812Y935162D01*
X770812Y947612D01*
X779588Y956388D01*
X792038Y956388D01*
X800812Y947612D01*
X800812Y935162D01*
G37*
G36*
X750012Y935162D02*
X741238Y926388D01*
X728788Y926388D01*
X720012Y935162D01*
X720012Y947612D01*
X728788Y956388D01*
X741238Y956388D01*
X750012Y947612D01*
X750012Y935162D01*
G37*
X696912Y820738D02*
G54D21*
D03*
X696912Y846138D02*
G54D21*
D03*
X696912Y731838D02*
G54D21*
D03*
X696912Y757238D02*
G54D21*
D03*
G36*
X720012Y947612D02*
X728788Y956388D01*
X741238Y956388D01*
X750012Y947612D01*
X750012Y935162D01*
X741238Y926388D01*
X728788Y926388D01*
X720012Y935162D01*
X720012Y947612D01*
G37*
X696912Y846138D02*
G54D21*
D03*
X696912Y757238D02*
G54D21*
D03*
X868362Y858838D02*
G54D21*
D03*
G36*
X776813Y691122D02*
X782078Y696387D01*
X789548Y696387D01*
X794813Y691122D01*
X794813Y683652D01*
X789548Y678387D01*
X782078Y678387D01*
X776813Y683652D01*
X776813Y691122D01*
G37*
G36*
X802213Y691122D02*
X807478Y696387D01*
X814948Y696387D01*
X820213Y691122D01*
X820213Y683652D01*
X814948Y678387D01*
X807478Y678387D01*
X802213Y683652D01*
X802213Y691122D01*
G37*
G36*
X827612Y691122D02*
X832878Y696387D01*
X840348Y696387D01*
X845612Y691122D01*
X845612Y683652D01*
X840348Y678387D01*
X832878Y678387D01*
X827612Y683652D01*
X827612Y691122D01*
G37*
G36*
X802213Y691122D02*
X807478Y696387D01*
X814948Y696387D01*
X820213Y691122D01*
X820213Y683652D01*
X814948Y678387D01*
X807478Y678387D01*
X802213Y683652D01*
X802213Y691122D01*
G37*
X799703Y868362D02*
G54D22*
D03*
X747712Y868362D02*
G54D22*
D03*
G54D23*
X785812Y941388D02*
X785812Y915988D01*
X800100Y901700D01*
X800100Y868759D01*
X799703Y868362D01*
X938212Y858838D02*
G54D21*
D03*
X913209Y858838D02*
G54D21*
D03*
X893366Y858837D02*
G54D21*
D03*
X868362Y858837D02*
G54D21*
D03*
G36*
X988970Y877525D02*
X977270Y865825D01*
X960670Y865825D01*
X948970Y877525D01*
X948970Y894125D01*
X960670Y905825D01*
X977270Y905825D01*
X988970Y894125D01*
X988970Y877525D01*
G37*
G36*
X857406Y877525D02*
X845706Y865825D01*
X829106Y865825D01*
X817406Y877525D01*
X817406Y894125D01*
X829106Y905825D01*
X845706Y905825D01*
X857406Y894125D01*
X857406Y877525D01*
G37*
G54D23*
X696912Y731838D02*
X747712Y731838D01*
X747712Y868362D01*
G54D23*
X696912Y820738D02*
X747712Y820738D01*
X693712Y912788D02*
G54D24*
D03*
X693712Y893788D02*
G54D24*
D03*
X693712Y950938D02*
G54D24*
D03*
X693712Y969938D02*
G54D24*
D03*
G54D25*
X693712Y912838D02*
X693712Y950938D01*
X693712Y969938D02*
G54D24*
D03*
G36*
X903812Y691122D02*
X909078Y696388D01*
X916548Y696388D01*
X921812Y691122D01*
X921812Y683652D01*
X916548Y678388D01*
X909078Y678388D01*
X903812Y683652D01*
X903812Y691122D01*
G37*
G36*
X929213Y691122D02*
X934478Y696388D01*
X941948Y696388D01*
X947213Y691122D01*
X947213Y683652D01*
X941948Y678388D01*
X934478Y678388D01*
X929213Y683652D01*
X929213Y691122D01*
G37*
G36*
X954612Y691122D02*
X959878Y696388D01*
X967348Y696388D01*
X972612Y691122D01*
X972612Y683652D01*
X967348Y678388D01*
X959878Y678388D01*
X954612Y683652D01*
X954612Y691122D01*
G37*
G36*
X929213Y691122D02*
X934478Y696388D01*
X941948Y696388D01*
X947213Y691122D01*
X947213Y683652D01*
X941948Y678388D01*
X934478Y678388D01*
X929213Y683652D01*
X929213Y691122D01*
G37*
X715962Y649288D02*
G54D26*
D03*
X690562Y649288D02*
G54D26*
D03*
X800100Y649288D02*
G54D26*
D03*
X774700Y649288D02*
G54D26*
D03*
X885825Y649288D02*
G54D26*
D03*
X860425Y649288D02*
G54D26*
D03*
X969962Y649288D02*
G54D26*
D03*
X944562Y649288D02*
G54D26*
D03*
G54D23*
X722312Y731838D02*
X944562Y731838D01*
X963612Y712788D01*
X963612Y687388D01*
G54D23*
X836612Y687388D02*
X836612Y731838D01*
G54D25*
X693712Y893788D02*
X693712Y887438D01*
X709612Y871538D01*
X750888Y871538D01*
X715962Y649288D02*
G54D26*
D03*
X800102Y649288D02*
G54D26*
D03*
X885822Y649288D02*
G54D26*
D03*
X969962Y649288D02*
G54D26*
D03*
G54D23*
X690562Y649288D02*
X690562Y668338D01*
X709612Y687388D01*
X785813Y687387D01*
G54D23*
X774700Y649288D02*
X774700Y685800D01*
X773112Y687388D01*
G54D23*
X860425Y649288D02*
X860425Y666750D01*
X881062Y687388D01*
X912812Y687388D01*
G54D23*
X912812Y687388D02*
X912812Y661988D01*
X925512Y649288D01*
X944562Y649288D01*
X874712Y766762D02*
G54D27*
D03*
G36*
X140412Y519238D02*
X131638Y510462D01*
X119188Y510462D01*
X110412Y519238D01*
X110412Y531688D01*
X119188Y540462D01*
X131638Y540462D01*
X140412Y531688D01*
X140412Y519238D01*
G37*
G36*
X89612Y519238D02*
X80838Y510462D01*
X68388Y510462D01*
X59612Y519238D01*
X59612Y531688D01*
X68388Y540462D01*
X80838Y540462D01*
X89612Y531688D01*
X89612Y519238D01*
G37*
X36512Y404812D02*
G54D21*
D03*
X36512Y430212D02*
G54D21*
D03*
X36512Y315912D02*
G54D21*
D03*
X36512Y341312D02*
G54D21*
D03*
G36*
X59612Y531688D02*
X68388Y540462D01*
X80838Y540462D01*
X89612Y531688D01*
X89612Y519238D01*
X80838Y510462D01*
X68388Y510462D01*
X59612Y519238D01*
X59612Y531688D01*
G37*
X36512Y430212D02*
G54D21*
D03*
X36512Y341312D02*
G54D21*
D03*
X207962Y442912D02*
G54D21*
D03*
G36*
X116413Y275197D02*
X121678Y280462D01*
X129148Y280462D01*
X134413Y275197D01*
X134413Y267727D01*
X129148Y262462D01*
X121678Y262462D01*
X116413Y267727D01*
X116413Y275197D01*
G37*
G36*
X141813Y275197D02*
X147078Y280462D01*
X154548Y280462D01*
X159813Y275197D01*
X159813Y267727D01*
X154548Y262462D01*
X147078Y262462D01*
X141813Y267727D01*
X141813Y275197D01*
G37*
G36*
X167212Y275197D02*
X172478Y280462D01*
X179948Y280462D01*
X185212Y275197D01*
X185212Y267727D01*
X179948Y262462D01*
X172478Y262462D01*
X167212Y267727D01*
X167212Y275197D01*
G37*
G36*
X141813Y275197D02*
X147078Y280462D01*
X154548Y280462D01*
X159813Y275197D01*
X159813Y267727D01*
X154548Y262462D01*
X147078Y262462D01*
X141813Y267727D01*
X141813Y275197D01*
G37*
X139303Y452438D02*
G54D22*
D03*
X87312Y452438D02*
G54D22*
D03*
G54D23*
X125412Y525462D02*
X125412Y500062D01*
X139700Y485775D01*
X139700Y452834D01*
X139303Y452438D01*
X277812Y442912D02*
G54D21*
D03*
X252809Y442912D02*
G54D21*
D03*
X232966Y442912D02*
G54D21*
D03*
X207962Y442912D02*
G54D21*
D03*
G36*
X328570Y461600D02*
X316870Y449900D01*
X300270Y449900D01*
X288570Y461600D01*
X288570Y478200D01*
X300270Y489900D01*
X316870Y489900D01*
X328570Y478200D01*
X328570Y461600D01*
G37*
G36*
X197006Y461600D02*
X185306Y449900D01*
X168706Y449900D01*
X157006Y461600D01*
X157006Y478200D01*
X168706Y489900D01*
X185306Y489900D01*
X197006Y478200D01*
X197006Y461600D01*
G37*
G54D23*
X36512Y315912D02*
X87312Y315912D01*
X87312Y452438D01*
G54D23*
X36512Y404812D02*
X87312Y404812D01*
X33312Y496862D02*
G54D24*
D03*
X33312Y477862D02*
G54D24*
D03*
X33312Y535012D02*
G54D24*
D03*
X33312Y554012D02*
G54D24*
D03*
G54D25*
X33312Y496912D02*
X33312Y535012D01*
X33312Y554012D02*
G54D24*
D03*
G36*
X243412Y275198D02*
X248678Y280462D01*
X256148Y280462D01*
X261412Y275198D01*
X261412Y267728D01*
X256148Y262462D01*
X248678Y262462D01*
X243412Y267728D01*
X243412Y275198D01*
G37*
G36*
X268813Y275198D02*
X274078Y280462D01*
X281548Y280462D01*
X286813Y275198D01*
X286813Y267728D01*
X281548Y262462D01*
X274078Y262462D01*
X268813Y267728D01*
X268813Y275198D01*
G37*
G36*
X294212Y275198D02*
X299478Y280462D01*
X306948Y280462D01*
X312212Y275198D01*
X312212Y267728D01*
X306948Y262462D01*
X299478Y262462D01*
X294212Y267728D01*
X294212Y275198D01*
G37*
G36*
X268813Y275198D02*
X274078Y280462D01*
X281548Y280462D01*
X286813Y275198D01*
X286813Y267728D01*
X281548Y262462D01*
X274078Y262462D01*
X268813Y267728D01*
X268813Y275198D01*
G37*
X55562Y233362D02*
G54D26*
D03*
X30162Y233362D02*
G54D26*
D03*
X139700Y233362D02*
G54D26*
D03*
X114300Y233362D02*
G54D26*
D03*
X225425Y233362D02*
G54D26*
D03*
X200025Y233362D02*
G54D26*
D03*
X309562Y233362D02*
G54D26*
D03*
X284162Y233362D02*
G54D26*
D03*
G54D23*
X61912Y315912D02*
X284162Y315912D01*
X303212Y296862D01*
X303212Y271462D01*
G54D23*
X176212Y271462D02*
X176212Y315912D01*
G54D25*
X33312Y477862D02*
X33312Y471512D01*
X49212Y455612D01*
X90488Y455612D01*
X55562Y233362D02*
G54D26*
D03*
X139702Y233362D02*
G54D26*
D03*
X225422Y233362D02*
G54D26*
D03*
X309562Y233362D02*
G54D26*
D03*
G54D23*
X30162Y233362D02*
X30162Y252412D01*
X49212Y271462D01*
X125413Y271462D01*
G54D23*
X114300Y233362D02*
X114300Y269875D01*
X112712Y271462D01*
G54D23*
X200025Y233362D02*
X200025Y250825D01*
X220662Y271462D01*
X252412Y271462D01*
G54D23*
X252412Y271462D02*
X252412Y246062D01*
X265112Y233362D01*
X284162Y233362D01*
X214312Y350838D02*
G54D27*
D03*
G36*
X470612Y519238D02*
X461838Y510462D01*
X449388Y510462D01*
X440612Y519238D01*
X440612Y531688D01*
X449388Y540462D01*
X461838Y540462D01*
X470612Y531688D01*
X470612Y519238D01*
G37*
G36*
X419812Y519238D02*
X411038Y510462D01*
X398588Y510462D01*
X389812Y519238D01*
X389812Y531688D01*
X398588Y540462D01*
X411038Y540462D01*
X419812Y531688D01*
X419812Y519238D01*
G37*
X366712Y404812D02*
G54D21*
D03*
X366712Y430212D02*
G54D21*
D03*
X366712Y315912D02*
G54D21*
D03*
X366712Y341312D02*
G54D21*
D03*
G36*
X389812Y531688D02*
X398588Y540462D01*
X411038Y540462D01*
X419812Y531688D01*
X419812Y519238D01*
X411038Y510462D01*
X398588Y510462D01*
X389812Y519238D01*
X389812Y531688D01*
G37*
X366712Y430212D02*
G54D21*
D03*
X366712Y341312D02*
G54D21*
D03*
X538162Y442912D02*
G54D21*
D03*
G36*
X446613Y275197D02*
X451878Y280462D01*
X459348Y280462D01*
X464613Y275197D01*
X464613Y267727D01*
X459348Y262462D01*
X451878Y262462D01*
X446613Y267727D01*
X446613Y275197D01*
G37*
G36*
X472013Y275197D02*
X477278Y280462D01*
X484748Y280462D01*
X490013Y275197D01*
X490013Y267727D01*
X484748Y262462D01*
X477278Y262462D01*
X472013Y267727D01*
X472013Y275197D01*
G37*
G36*
X497412Y275197D02*
X502678Y280462D01*
X510148Y280462D01*
X515412Y275197D01*
X515412Y267727D01*
X510148Y262462D01*
X502678Y262462D01*
X497412Y267727D01*
X497412Y275197D01*
G37*
G36*
X472013Y275197D02*
X477278Y280462D01*
X484748Y280462D01*
X490013Y275197D01*
X490013Y267727D01*
X484748Y262462D01*
X477278Y262462D01*
X472013Y267727D01*
X472013Y275197D01*
G37*
X469503Y452438D02*
G54D22*
D03*
X417512Y452438D02*
G54D22*
D03*
G54D23*
X455612Y525462D02*
X455612Y500062D01*
X469900Y485775D01*
X469900Y452834D01*
X469503Y452438D01*
X608012Y442912D02*
G54D21*
D03*
X583009Y442912D02*
G54D21*
D03*
X563166Y442912D02*
G54D21*
D03*
X538162Y442912D02*
G54D21*
D03*
G36*
X658770Y461600D02*
X647070Y449900D01*
X630470Y449900D01*
X618770Y461600D01*
X618770Y478200D01*
X630470Y489900D01*
X647070Y489900D01*
X658770Y478200D01*
X658770Y461600D01*
G37*
G36*
X527206Y461600D02*
X515506Y449900D01*
X498906Y449900D01*
X487206Y461600D01*
X487206Y478200D01*
X498906Y489900D01*
X515506Y489900D01*
X527206Y478200D01*
X527206Y461600D01*
G37*
G54D23*
X366712Y315912D02*
X417512Y315912D01*
X417512Y452438D01*
G54D23*
X366712Y404812D02*
X417512Y404812D01*
X363512Y496862D02*
G54D24*
D03*
X363512Y477862D02*
G54D24*
D03*
X363512Y535012D02*
G54D24*
D03*
X363512Y554012D02*
G54D24*
D03*
G54D25*
X363512Y496912D02*
X363512Y535012D01*
X363512Y554012D02*
G54D24*
D03*
G36*
X573612Y275198D02*
X578878Y280462D01*
X586348Y280462D01*
X591612Y275198D01*
X591612Y267728D01*
X586348Y262462D01*
X578878Y262462D01*
X573612Y267728D01*
X573612Y275198D01*
G37*
G36*
X599013Y275198D02*
X604278Y280462D01*
X611748Y280462D01*
X617013Y275198D01*
X617013Y267728D01*
X611748Y262462D01*
X604278Y262462D01*
X599013Y267728D01*
X599013Y275198D01*
G37*
G36*
X624412Y275198D02*
X629678Y280462D01*
X637148Y280462D01*
X642412Y275198D01*
X642412Y267728D01*
X637148Y262462D01*
X629678Y262462D01*
X624412Y267728D01*
X624412Y275198D01*
G37*
G36*
X599013Y275198D02*
X604278Y280462D01*
X611748Y280462D01*
X617013Y275198D01*
X617013Y267728D01*
X611748Y262462D01*
X604278Y262462D01*
X599013Y267728D01*
X599013Y275198D01*
G37*
X385762Y233362D02*
G54D26*
D03*
X360362Y233362D02*
G54D26*
D03*
X469900Y233362D02*
G54D26*
D03*
X444500Y233362D02*
G54D26*
D03*
X555625Y233362D02*
G54D26*
D03*
X530225Y233362D02*
G54D26*
D03*
X639762Y233362D02*
G54D26*
D03*
X614362Y233362D02*
G54D26*
D03*
G54D23*
X392112Y315912D02*
X614362Y315912D01*
X633412Y296862D01*
X633412Y271462D01*
G54D23*
X506412Y271462D02*
X506412Y315912D01*
G54D25*
X363512Y477862D02*
X363512Y471512D01*
X379412Y455612D01*
X420688Y455612D01*
X385762Y233362D02*
G54D26*
D03*
X469902Y233362D02*
G54D26*
D03*
X555622Y233362D02*
G54D26*
D03*
X639762Y233362D02*
G54D26*
D03*
G54D23*
X360362Y233362D02*
X360362Y252412D01*
X379412Y271462D01*
X455613Y271462D01*
G54D23*
X444500Y233362D02*
X444500Y269875D01*
X442912Y271462D01*
G54D23*
X530225Y233362D02*
X530225Y250825D01*
X550862Y271462D01*
X582612Y271462D01*
G54D23*
X582612Y271462D02*
X582612Y246062D01*
X595312Y233362D01*
X614362Y233362D01*
X544512Y350838D02*
G54D27*
D03*
G36*
X800812Y519238D02*
X792038Y510462D01*
X779588Y510462D01*
X770812Y519238D01*
X770812Y531688D01*
X779588Y540462D01*
X792038Y540462D01*
X800812Y531688D01*
X800812Y519238D01*
G37*
G36*
X750012Y519238D02*
X741238Y510462D01*
X728788Y510462D01*
X720012Y519238D01*
X720012Y531688D01*
X728788Y540462D01*
X741238Y540462D01*
X750012Y531688D01*
X750012Y519238D01*
G37*
X696912Y404812D02*
G54D21*
D03*
X696912Y430212D02*
G54D21*
D03*
X696912Y315912D02*
G54D21*
D03*
X696912Y341312D02*
G54D21*
D03*
G36*
X720012Y531688D02*
X728788Y540462D01*
X741238Y540462D01*
X750012Y531688D01*
X750012Y519238D01*
X741238Y510462D01*
X728788Y510462D01*
X720012Y519238D01*
X720012Y531688D01*
G37*
X696912Y430212D02*
G54D21*
D03*
X696912Y341312D02*
G54D21*
D03*
X868362Y442912D02*
G54D21*
D03*
G36*
X776813Y275197D02*
X782078Y280462D01*
X789548Y280462D01*
X794813Y275197D01*
X794813Y267727D01*
X789548Y262462D01*
X782078Y262462D01*
X776813Y267727D01*
X776813Y275197D01*
G37*
G36*
X802213Y275197D02*
X807478Y280462D01*
X814948Y280462D01*
X820213Y275197D01*
X820213Y267727D01*
X814948Y262462D01*
X807478Y262462D01*
X802213Y267727D01*
X802213Y275197D01*
G37*
G36*
X827612Y275197D02*
X832878Y280462D01*
X840348Y280462D01*
X845612Y275197D01*
X845612Y267727D01*
X840348Y262462D01*
X832878Y262462D01*
X827612Y267727D01*
X827612Y275197D01*
G37*
G36*
X802213Y275197D02*
X807478Y280462D01*
X814948Y280462D01*
X820213Y275197D01*
X820213Y267727D01*
X814948Y262462D01*
X807478Y262462D01*
X802213Y267727D01*
X802213Y275197D01*
G37*
X799703Y452438D02*
G54D22*
D03*
X747712Y452438D02*
G54D22*
D03*
G54D23*
X785812Y525462D02*
X785812Y500062D01*
X800100Y485775D01*
X800100Y452834D01*
X799703Y452438D01*
X938212Y442912D02*
G54D21*
D03*
X913209Y442912D02*
G54D21*
D03*
X893366Y442912D02*
G54D21*
D03*
X868362Y442912D02*
G54D21*
D03*
G36*
X988970Y461600D02*
X977270Y449900D01*
X960670Y449900D01*
X948970Y461600D01*
X948970Y478200D01*
X960670Y489900D01*
X977270Y489900D01*
X988970Y478200D01*
X988970Y461600D01*
G37*
G36*
X857406Y461600D02*
X845706Y449900D01*
X829106Y449900D01*
X817406Y461600D01*
X817406Y478200D01*
X829106Y489900D01*
X845706Y489900D01*
X857406Y478200D01*
X857406Y461600D01*
G37*
G54D23*
X696912Y315912D02*
X747712Y315912D01*
X747712Y452438D01*
G54D23*
X696912Y404812D02*
X747712Y404812D01*
X693712Y496862D02*
G54D24*
D03*
X693712Y477862D02*
G54D24*
D03*
X693712Y535012D02*
G54D24*
D03*
X693712Y554012D02*
G54D24*
D03*
G54D25*
X693712Y496912D02*
X693712Y535012D01*
X693712Y554012D02*
G54D24*
D03*
G36*
X903812Y275198D02*
X909078Y280462D01*
X916548Y280462D01*
X921812Y275198D01*
X921812Y267728D01*
X916548Y262462D01*
X909078Y262462D01*
X903812Y267728D01*
X903812Y275198D01*
G37*
G36*
X929213Y275198D02*
X934478Y280462D01*
X941948Y280462D01*
X947213Y275198D01*
X947213Y267728D01*
X941948Y262462D01*
X934478Y262462D01*
X929213Y267728D01*
X929213Y275198D01*
G37*
G36*
X954612Y275198D02*
X959878Y280462D01*
X967348Y280462D01*
X972612Y275198D01*
X972612Y267728D01*
X967348Y262462D01*
X959878Y262462D01*
X954612Y267728D01*
X954612Y275198D01*
G37*
G36*
X929213Y275198D02*
X934478Y280462D01*
X941948Y280462D01*
X947213Y275198D01*
X947213Y267728D01*
X941948Y262462D01*
X934478Y262462D01*
X929213Y267728D01*
X929213Y275198D01*
G37*
X715962Y233362D02*
G54D26*
D03*
X690562Y233362D02*
G54D26*
D03*
X800100Y233362D02*
G54D26*
D03*
X774700Y233362D02*
G54D26*
D03*
X885825Y233362D02*
G54D26*
D03*
X860425Y233362D02*
G54D26*
D03*
X969962Y233362D02*
G54D26*
D03*
X944562Y233362D02*
G54D26*
D03*
G54D23*
X722312Y315912D02*
X944562Y315912D01*
X963612Y296862D01*
X963612Y271462D01*
G54D23*
X836612Y271462D02*
X836612Y315912D01*
G54D25*
X693712Y477862D02*
X693712Y471512D01*
X709612Y455612D01*
X750888Y455612D01*
X715962Y233362D02*
G54D26*
D03*
X800102Y233362D02*
G54D26*
D03*
X885822Y233362D02*
G54D26*
D03*
X969962Y233362D02*
G54D26*
D03*
G54D23*
X690562Y233362D02*
X690562Y252412D01*
X709612Y271462D01*
X785813Y271462D01*
G54D23*
X774700Y233362D02*
X774700Y269875D01*
X773112Y271462D01*
G54D23*
X860425Y233362D02*
X860425Y250825D01*
X881062Y271462D01*
X912812Y271462D01*
G54D23*
X912812Y271462D02*
X912812Y246062D01*
X925512Y233362D01*
X944562Y233362D01*
X874712Y350838D02*
G54D27*
D03*
M02*
