; Drill file
; Format: 2.4 (00.0000)
M48
INCH
T01C0.0197
T02C0.0394
T03C0.0472
T04C0.0984
%
G05
G90
T01
X005440Y013940
X005500Y013940
X005560Y013940
X005620Y013940
X005690Y013940
X005750Y013940
X005810Y013940
X005880Y013940
X005940Y013940
X006000Y013940
X006060Y013940
X006060Y015310
X006000Y015310
X005940Y015310
X005880Y015310
X005810Y015310
X005750Y015310
X005690Y015310
X005620Y015310
X005560Y015310
X005500Y015310
X005440Y015310
X010940Y015310
X011000Y015310
X011060Y015310
X011130Y015310
X011190Y015310
X011250Y015310
X011310Y015310
X011370Y015310
X011440Y015310
X011500Y015310
X011560Y015310
X011560Y013940
X011500Y013940
X011440Y013940
X011370Y013940
X011310Y013940
X011250Y013940
X011190Y013940
X011130Y013940
X011060Y013940
X011000Y013940
X010940Y013940
X013750Y020250
X011560Y027940
X011500Y027940
X011440Y027940
X011370Y027940
X011310Y027940
X011250Y027940
X011190Y027940
X011130Y027940
X011060Y027940
X011000Y027940
X010940Y027940
X010940Y029310
X011000Y029310
X011060Y029310
X011130Y029310
X011190Y029310
X011250Y029310
X011310Y029310
X011370Y029310
X011440Y029310
X011500Y029310
X011560Y029310
X013750Y034250
X006060Y029310
X006000Y029310
X005940Y029310
X005880Y029310
X005810Y029310
X005750Y029310
X005690Y029310
X005620Y029310
X005560Y029310
X005500Y029310
X005440Y029310
X005440Y027940
X005500Y027940
X005560Y027940
X005620Y027940
X005690Y027940
X005750Y027940
X005810Y027940
X005880Y027940
X005940Y027940
X006000Y027940
X006060Y027940
X021940Y027940
X022000Y027940
X022060Y027940
X022120Y027940
X022190Y027940
X022250Y027940
X022310Y027940
X022370Y027940
X022440Y027940
X022500Y027940
X022560Y027940
X022560Y029310
X022500Y029310
X022440Y029310
X022370Y029310
X022310Y029310
X022250Y029310
X022190Y029310
X022120Y029310
X022060Y029310
X022000Y029310
X021940Y029310
X027440Y029310
X027500Y029310
X027560Y029310
X027630Y029310
X027690Y029310
X027750Y029310
X027810Y029310
X027880Y029310
X027940Y029310
X028000Y029310
X028060Y029310
X028060Y027940
X028000Y027940
X027940Y027940
X027880Y027940
X027810Y027940
X027750Y027940
X027690Y027940
X027630Y027940
X027560Y027940
X027500Y027940
X027440Y027940
X030250Y034250
X030250Y020250
X028060Y015310
X028000Y015310
X027940Y015310
X027880Y015310
X027810Y015310
X027750Y015310
X027690Y015310
X027630Y015310
X027560Y015310
X027500Y015310
X027440Y015310
X027440Y013940
X027500Y013940
X027560Y013940
X027630Y013940
X027690Y013940
X027750Y013940
X027810Y013940
X027880Y013940
X027940Y013940
X028000Y013940
X028060Y013940
X022560Y013940
X022500Y013940
X022440Y013940
X022370Y013940
X022310Y013940
X022250Y013940
X022190Y013940
X022120Y013940
X022060Y013940
X022000Y013940
X021940Y013940
X021940Y015310
X022000Y015310
X022060Y015310
X022120Y015310
X022190Y015310
X022250Y015310
X022310Y015310
X022370Y015310
X022440Y015310
X022500Y015310
X022560Y015310
T02
X001250Y018500
X002250Y018500
X004750Y018500
X005750Y018500
X008250Y018500
X009250Y018500
X010250Y018500
X011250Y018500
X012250Y018500
X014750Y018500
X015750Y018500
X017750Y018500
X018750Y018500
X021250Y018500
X022250Y018500
X024750Y018500
X025750Y018500
X026750Y018500
X027750Y018500
X028750Y018500
X031250Y018500
X032250Y018500
X032250Y023250
X031250Y023250
X028750Y023250
X027750Y023250
X026750Y023250
X025750Y023250
X024750Y023250
X022250Y023250
X021250Y023250
X018750Y023250
X017750Y023250
X015750Y023250
X014750Y023250
X012250Y023250
X011250Y023250
X010250Y023250
X009250Y023250
X008250Y023250
X005750Y023250
X004750Y023250
X002250Y023250
X001250Y023250
X001250Y032500
X002250Y032500
X004750Y032500
X005750Y032500
X008250Y032500
X009250Y032500
X010250Y032500
X011250Y032500
X012250Y032500
X014750Y032500
X015750Y032500
X017750Y032500
X018750Y032500
X021250Y032500
X022250Y032500
X024750Y032500
X025750Y032500
X026750Y032500
X027750Y032500
X028750Y032500
X031250Y032500
X032250Y032500
X032250Y037250
X031250Y037250
X028750Y037250
X027750Y037250
X026750Y037250
X025750Y037250
X024750Y037250
X022250Y037250
X021250Y037250
X018750Y037250
X017750Y037250
X015750Y037250
X014750Y037250
X012250Y037250
X011250Y037250
X010250Y037250
X009250Y037250
X008250Y037250
X005750Y037250
X004750Y037250
X002250Y037250
X001250Y037250
T03
X001250Y013750
X003250Y013750
X013750Y013750
X015750Y013750
X017750Y013750
X019750Y013750
X030250Y013750
X032250Y013750
X032250Y027750
X030250Y027750
X019750Y027750
X017750Y027750
X015750Y027750
X013750Y027750
X003250Y027750
X001250Y027750
T04
X005880Y012250
X011130Y012250
X022370Y012250
X027630Y012250
X027630Y026250
X022370Y026250
X011130Y026250
X005880Y026250
M30
