%FSLAX34Y34*%
%MOMM*%
%LNSOLDERMASK_BOTTOM*%
G71*
G01*
%ADD10C, 2.40*%
%ADD11C, 5.10*%
%ADD12C, 2.60*%
%ADD13C, 4.60*%
%LPD*%
X209550Y946150D02*
G54D10*
D03*
X234950Y946150D02*
G54D10*
D03*
X260350Y946150D02*
G54D10*
D03*
X285750Y946150D02*
G54D10*
D03*
X311150Y946150D02*
G54D10*
D03*
X31750Y946150D02*
G54D10*
D03*
X57150Y946150D02*
G54D10*
D03*
X120650Y946150D02*
G54D10*
D03*
X146050Y946150D02*
G54D10*
D03*
X374650Y946150D02*
G54D10*
D03*
X400050Y946150D02*
G54D10*
D03*
X209550Y825500D02*
G54D10*
D03*
X234950Y825500D02*
G54D10*
D03*
X260350Y825500D02*
G54D10*
D03*
X285750Y825500D02*
G54D10*
D03*
X311150Y825500D02*
G54D10*
D03*
X31750Y825500D02*
G54D10*
D03*
X57150Y825500D02*
G54D10*
D03*
X120650Y825500D02*
G54D10*
D03*
X146050Y825500D02*
G54D10*
D03*
X374650Y825500D02*
G54D10*
D03*
X400050Y825500D02*
G54D10*
D03*
X149225Y666750D02*
G54D11*
D03*
X282575Y666750D02*
G54D11*
D03*
X138112Y744538D02*
G54D12*
D03*
X139700Y744538D02*
G54D12*
D03*
X141288Y744538D02*
G54D12*
D03*
X142875Y744538D02*
G54D12*
D03*
X144462Y744538D02*
G54D12*
D03*
X146050Y744538D02*
G54D12*
D03*
X147638Y744538D02*
G54D12*
D03*
X149225Y744538D02*
G54D12*
D03*
X150812Y744538D02*
G54D12*
D03*
X152400Y744538D02*
G54D12*
D03*
X153988Y744538D02*
G54D12*
D03*
X138112Y709612D02*
G54D12*
D03*
X139700Y709612D02*
G54D12*
D03*
X141288Y709612D02*
G54D12*
D03*
X142875Y709612D02*
G54D12*
D03*
X144462Y709612D02*
G54D12*
D03*
X146050Y709612D02*
G54D12*
D03*
X147638Y709612D02*
G54D12*
D03*
X149225Y709612D02*
G54D12*
D03*
X150812Y709612D02*
G54D12*
D03*
X152400Y709612D02*
G54D12*
D03*
X153988Y709612D02*
G54D12*
D03*
X277812Y744538D02*
G54D12*
D03*
X279400Y744538D02*
G54D12*
D03*
X280988Y744538D02*
G54D12*
D03*
X282575Y744538D02*
G54D12*
D03*
X284162Y744538D02*
G54D12*
D03*
X285750Y744538D02*
G54D12*
D03*
X287338Y744538D02*
G54D12*
D03*
X288925Y744538D02*
G54D12*
D03*
X290512Y744538D02*
G54D12*
D03*
X292100Y744538D02*
G54D12*
D03*
X293688Y744538D02*
G54D12*
D03*
X279400Y709612D02*
G54D12*
D03*
X277812Y709612D02*
G54D12*
D03*
X280988Y709612D02*
G54D12*
D03*
X282575Y709612D02*
G54D12*
D03*
X284162Y709612D02*
G54D12*
D03*
X285750Y709612D02*
G54D12*
D03*
X287338Y709612D02*
G54D12*
D03*
X288925Y709612D02*
G54D12*
D03*
X290512Y709612D02*
G54D12*
D03*
X292100Y709612D02*
G54D12*
D03*
X293688Y709612D02*
G54D12*
D03*
X349250Y704850D02*
G54D13*
D03*
X400050Y704850D02*
G54D13*
D03*
X31750Y704850D02*
G54D13*
D03*
X82550Y704850D02*
G54D13*
D03*
G36*
X341250Y877950D02*
X357250Y877950D01*
X357250Y861950D01*
X341250Y861950D01*
X341250Y877950D01*
G37*
X628650Y946150D02*
G54D10*
D03*
X654050Y946150D02*
G54D10*
D03*
X679450Y946150D02*
G54D10*
D03*
X704850Y946150D02*
G54D10*
D03*
X730250Y946150D02*
G54D10*
D03*
X450850Y946150D02*
G54D10*
D03*
X476250Y946150D02*
G54D10*
D03*
X539750Y946150D02*
G54D10*
D03*
X565150Y946150D02*
G54D10*
D03*
X793750Y946150D02*
G54D10*
D03*
X819150Y946150D02*
G54D10*
D03*
X628650Y825500D02*
G54D10*
D03*
X654050Y825500D02*
G54D10*
D03*
X679450Y825500D02*
G54D10*
D03*
X704850Y825500D02*
G54D10*
D03*
X730250Y825500D02*
G54D10*
D03*
X450850Y825500D02*
G54D10*
D03*
X476250Y825500D02*
G54D10*
D03*
X539750Y825500D02*
G54D10*
D03*
X565150Y825500D02*
G54D10*
D03*
X793750Y825500D02*
G54D10*
D03*
X819150Y825500D02*
G54D10*
D03*
X568325Y666750D02*
G54D11*
D03*
X701675Y666750D02*
G54D11*
D03*
X557212Y744538D02*
G54D12*
D03*
X558800Y744538D02*
G54D12*
D03*
X560388Y744538D02*
G54D12*
D03*
X561975Y744538D02*
G54D12*
D03*
X563562Y744538D02*
G54D12*
D03*
X565150Y744538D02*
G54D12*
D03*
X566738Y744538D02*
G54D12*
D03*
X568325Y744538D02*
G54D12*
D03*
X569912Y744538D02*
G54D12*
D03*
X571500Y744538D02*
G54D12*
D03*
X573088Y744538D02*
G54D12*
D03*
X557212Y709612D02*
G54D12*
D03*
X558800Y709612D02*
G54D12*
D03*
X560388Y709612D02*
G54D12*
D03*
X561975Y709612D02*
G54D12*
D03*
X563562Y709612D02*
G54D12*
D03*
X565150Y709612D02*
G54D12*
D03*
X566738Y709612D02*
G54D12*
D03*
X568325Y709612D02*
G54D12*
D03*
X569912Y709612D02*
G54D12*
D03*
X571500Y709612D02*
G54D12*
D03*
X573088Y709612D02*
G54D12*
D03*
X696912Y744538D02*
G54D12*
D03*
X698500Y744538D02*
G54D12*
D03*
X700088Y744538D02*
G54D12*
D03*
X701675Y744538D02*
G54D12*
D03*
X703262Y744538D02*
G54D12*
D03*
X704850Y744538D02*
G54D12*
D03*
X706438Y744538D02*
G54D12*
D03*
X708025Y744538D02*
G54D12*
D03*
X709612Y744538D02*
G54D12*
D03*
X711200Y744538D02*
G54D12*
D03*
X712788Y744538D02*
G54D12*
D03*
X698500Y709612D02*
G54D12*
D03*
X696912Y709612D02*
G54D12*
D03*
X700088Y709612D02*
G54D12*
D03*
X701675Y709612D02*
G54D12*
D03*
X703262Y709612D02*
G54D12*
D03*
X704850Y709612D02*
G54D12*
D03*
X706438Y709612D02*
G54D12*
D03*
X708025Y709612D02*
G54D12*
D03*
X709612Y709612D02*
G54D12*
D03*
X711200Y709612D02*
G54D12*
D03*
X712788Y709612D02*
G54D12*
D03*
X768350Y704850D02*
G54D13*
D03*
X819150Y704850D02*
G54D13*
D03*
X450850Y704850D02*
G54D13*
D03*
X501650Y704850D02*
G54D13*
D03*
G36*
X760350Y877950D02*
X776350Y877950D01*
X776350Y861950D01*
X760350Y861950D01*
X760350Y877950D01*
G37*
X209550Y590550D02*
G54D10*
D03*
X234950Y590550D02*
G54D10*
D03*
X260350Y590550D02*
G54D10*
D03*
X285750Y590550D02*
G54D10*
D03*
X311150Y590550D02*
G54D10*
D03*
X31750Y590550D02*
G54D10*
D03*
X57150Y590550D02*
G54D10*
D03*
X120650Y590550D02*
G54D10*
D03*
X146050Y590550D02*
G54D10*
D03*
X374650Y590550D02*
G54D10*
D03*
X400050Y590550D02*
G54D10*
D03*
X209550Y469900D02*
G54D10*
D03*
X234950Y469900D02*
G54D10*
D03*
X260350Y469900D02*
G54D10*
D03*
X285750Y469900D02*
G54D10*
D03*
X311150Y469900D02*
G54D10*
D03*
X31750Y469900D02*
G54D10*
D03*
X57150Y469900D02*
G54D10*
D03*
X120650Y469900D02*
G54D10*
D03*
X146050Y469900D02*
G54D10*
D03*
X374650Y469900D02*
G54D10*
D03*
X400050Y469900D02*
G54D10*
D03*
X149225Y311150D02*
G54D11*
D03*
X282575Y311150D02*
G54D11*
D03*
X138112Y388938D02*
G54D12*
D03*
X139700Y388938D02*
G54D12*
D03*
X141288Y388938D02*
G54D12*
D03*
X142875Y388938D02*
G54D12*
D03*
X144462Y388938D02*
G54D12*
D03*
X146050Y388938D02*
G54D12*
D03*
X147638Y388938D02*
G54D12*
D03*
X149225Y388938D02*
G54D12*
D03*
X150812Y388938D02*
G54D12*
D03*
X152400Y388938D02*
G54D12*
D03*
X153988Y388938D02*
G54D12*
D03*
X138112Y354012D02*
G54D12*
D03*
X139700Y354012D02*
G54D12*
D03*
X141288Y354012D02*
G54D12*
D03*
X142875Y354012D02*
G54D12*
D03*
X144462Y354012D02*
G54D12*
D03*
X146050Y354012D02*
G54D12*
D03*
X147638Y354012D02*
G54D12*
D03*
X149225Y354012D02*
G54D12*
D03*
X150812Y354012D02*
G54D12*
D03*
X152400Y354012D02*
G54D12*
D03*
X153988Y354012D02*
G54D12*
D03*
X277812Y388938D02*
G54D12*
D03*
X279400Y388938D02*
G54D12*
D03*
X280988Y388938D02*
G54D12*
D03*
X282575Y388938D02*
G54D12*
D03*
X284162Y388938D02*
G54D12*
D03*
X285750Y388938D02*
G54D12*
D03*
X287338Y388938D02*
G54D12*
D03*
X288925Y388938D02*
G54D12*
D03*
X290512Y388938D02*
G54D12*
D03*
X292100Y388938D02*
G54D12*
D03*
X293688Y388938D02*
G54D12*
D03*
X279400Y354012D02*
G54D12*
D03*
X277812Y354012D02*
G54D12*
D03*
X280988Y354012D02*
G54D12*
D03*
X282575Y354012D02*
G54D12*
D03*
X284162Y354012D02*
G54D12*
D03*
X285750Y354012D02*
G54D12*
D03*
X287338Y354012D02*
G54D12*
D03*
X288925Y354012D02*
G54D12*
D03*
X290512Y354012D02*
G54D12*
D03*
X292100Y354012D02*
G54D12*
D03*
X293688Y354012D02*
G54D12*
D03*
X349250Y349250D02*
G54D13*
D03*
X400050Y349250D02*
G54D13*
D03*
X31750Y349250D02*
G54D13*
D03*
X82550Y349250D02*
G54D13*
D03*
G36*
X341250Y522350D02*
X357250Y522350D01*
X357250Y506350D01*
X341250Y506350D01*
X341250Y522350D01*
G37*
X628650Y590550D02*
G54D10*
D03*
X654050Y590550D02*
G54D10*
D03*
X679450Y590550D02*
G54D10*
D03*
X704850Y590550D02*
G54D10*
D03*
X730250Y590550D02*
G54D10*
D03*
X450850Y590550D02*
G54D10*
D03*
X476250Y590550D02*
G54D10*
D03*
X539750Y590550D02*
G54D10*
D03*
X565150Y590550D02*
G54D10*
D03*
X793750Y590550D02*
G54D10*
D03*
X819150Y590550D02*
G54D10*
D03*
X628650Y469900D02*
G54D10*
D03*
X654050Y469900D02*
G54D10*
D03*
X679450Y469900D02*
G54D10*
D03*
X704850Y469900D02*
G54D10*
D03*
X730250Y469900D02*
G54D10*
D03*
X450850Y469900D02*
G54D10*
D03*
X476250Y469900D02*
G54D10*
D03*
X539750Y469900D02*
G54D10*
D03*
X565150Y469900D02*
G54D10*
D03*
X793750Y469900D02*
G54D10*
D03*
X819150Y469900D02*
G54D10*
D03*
X568325Y311150D02*
G54D11*
D03*
X701675Y311150D02*
G54D11*
D03*
X557212Y388938D02*
G54D12*
D03*
X558800Y388938D02*
G54D12*
D03*
X560388Y388938D02*
G54D12*
D03*
X561975Y388938D02*
G54D12*
D03*
X563562Y388938D02*
G54D12*
D03*
X565150Y388938D02*
G54D12*
D03*
X566738Y388938D02*
G54D12*
D03*
X568325Y388938D02*
G54D12*
D03*
X569912Y388938D02*
G54D12*
D03*
X571500Y388938D02*
G54D12*
D03*
X573088Y388938D02*
G54D12*
D03*
X557212Y354012D02*
G54D12*
D03*
X558800Y354012D02*
G54D12*
D03*
X560388Y354012D02*
G54D12*
D03*
X561975Y354012D02*
G54D12*
D03*
X563562Y354012D02*
G54D12*
D03*
X565150Y354012D02*
G54D12*
D03*
X566738Y354012D02*
G54D12*
D03*
X568325Y354012D02*
G54D12*
D03*
X569912Y354012D02*
G54D12*
D03*
X571500Y354012D02*
G54D12*
D03*
X573088Y354012D02*
G54D12*
D03*
X696912Y388938D02*
G54D12*
D03*
X698500Y388938D02*
G54D12*
D03*
X700088Y388938D02*
G54D12*
D03*
X701675Y388938D02*
G54D12*
D03*
X703262Y388938D02*
G54D12*
D03*
X704850Y388938D02*
G54D12*
D03*
X706438Y388938D02*
G54D12*
D03*
X708025Y388938D02*
G54D12*
D03*
X709612Y388938D02*
G54D12*
D03*
X711200Y388938D02*
G54D12*
D03*
X712788Y388938D02*
G54D12*
D03*
X698500Y354012D02*
G54D12*
D03*
X696912Y354012D02*
G54D12*
D03*
X700088Y354012D02*
G54D12*
D03*
X701675Y354012D02*
G54D12*
D03*
X703262Y354012D02*
G54D12*
D03*
X704850Y354012D02*
G54D12*
D03*
X706438Y354012D02*
G54D12*
D03*
X708025Y354012D02*
G54D12*
D03*
X709612Y354012D02*
G54D12*
D03*
X711200Y354012D02*
G54D12*
D03*
X712788Y354012D02*
G54D12*
D03*
X768350Y349250D02*
G54D13*
D03*
X819150Y349250D02*
G54D13*
D03*
X450850Y349250D02*
G54D13*
D03*
X501650Y349250D02*
G54D13*
D03*
G36*
X760350Y522350D02*
X776350Y522350D01*
X776350Y506350D01*
X760350Y506350D01*
X760350Y522350D01*
G37*
M02*
