%FSLAX34Y34*%
%MOMM*%
%LNSILK_TOP*%
G71*
G01*
%ADD10C, 2.60*%
%ADD11C, 5.30*%
%ADD12C, 2.80*%
%ADD13C, 4.80*%
%ADD14C, 3.80*%
%ADD15C, 0.10*%
%ADD16C, 1.30*%
%ADD17C, 1.80*%
%ADD18C, 4.50*%
%ADD19C, 2.00*%
%ADD20C, 4.00*%
%ADD21C, 3.00*%
%ADD22C, 0.50*%
%LPD*%
G36*
X0Y1000000D02*
X850000Y1000000D01*
X850000Y280000D01*
X0Y280000D01*
X0Y1000000D01*
G37*
%LPC*%
X209550Y946150D02*
G54D10*
D03*
X234950Y946150D02*
G54D10*
D03*
X260350Y946150D02*
G54D10*
D03*
X285750Y946150D02*
G54D10*
D03*
X311150Y946150D02*
G54D10*
D03*
X31750Y946150D02*
G54D10*
D03*
X57150Y946150D02*
G54D10*
D03*
X120650Y946150D02*
G54D10*
D03*
X146050Y946150D02*
G54D10*
D03*
X374650Y946150D02*
G54D10*
D03*
X400050Y946150D02*
G54D10*
D03*
X209550Y825500D02*
G54D10*
D03*
X234950Y825500D02*
G54D10*
D03*
X260350Y825500D02*
G54D10*
D03*
X285750Y825500D02*
G54D10*
D03*
X311150Y825500D02*
G54D10*
D03*
X31750Y825500D02*
G54D10*
D03*
X57150Y825500D02*
G54D10*
D03*
X120650Y825500D02*
G54D10*
D03*
X146050Y825500D02*
G54D10*
D03*
X374650Y825500D02*
G54D10*
D03*
X400050Y825500D02*
G54D10*
D03*
X149225Y666750D02*
G54D11*
D03*
X282575Y666750D02*
G54D11*
D03*
X138112Y744538D02*
G54D12*
D03*
X139700Y744538D02*
G54D12*
D03*
X141288Y744538D02*
G54D12*
D03*
X142875Y744538D02*
G54D12*
D03*
X144462Y744538D02*
G54D12*
D03*
X146050Y744538D02*
G54D12*
D03*
X147638Y744538D02*
G54D12*
D03*
X149225Y744538D02*
G54D12*
D03*
X150812Y744538D02*
G54D12*
D03*
X152400Y744538D02*
G54D12*
D03*
X153988Y744538D02*
G54D12*
D03*
X138112Y709612D02*
G54D12*
D03*
X139700Y709612D02*
G54D12*
D03*
X141288Y709612D02*
G54D12*
D03*
X142875Y709612D02*
G54D12*
D03*
X144462Y709612D02*
G54D12*
D03*
X146050Y709612D02*
G54D12*
D03*
X147638Y709612D02*
G54D12*
D03*
X149225Y709612D02*
G54D12*
D03*
X150812Y709612D02*
G54D12*
D03*
X152400Y709612D02*
G54D12*
D03*
X153988Y709612D02*
G54D12*
D03*
X277812Y744538D02*
G54D12*
D03*
X279400Y744538D02*
G54D12*
D03*
X280988Y744538D02*
G54D12*
D03*
X282575Y744538D02*
G54D12*
D03*
X284162Y744538D02*
G54D12*
D03*
X285750Y744538D02*
G54D12*
D03*
X287338Y744538D02*
G54D12*
D03*
X288925Y744538D02*
G54D12*
D03*
X290512Y744538D02*
G54D12*
D03*
X292100Y744538D02*
G54D12*
D03*
X293688Y744538D02*
G54D12*
D03*
X279400Y709612D02*
G54D12*
D03*
X277812Y709612D02*
G54D12*
D03*
X280988Y709612D02*
G54D12*
D03*
X282575Y709612D02*
G54D12*
D03*
X284162Y709612D02*
G54D12*
D03*
X285750Y709612D02*
G54D12*
D03*
X287338Y709612D02*
G54D12*
D03*
X288925Y709612D02*
G54D12*
D03*
X290512Y709612D02*
G54D12*
D03*
X292100Y709612D02*
G54D12*
D03*
X293688Y709612D02*
G54D12*
D03*
X349250Y704850D02*
G54D13*
D03*
X400050Y704850D02*
G54D13*
D03*
X31750Y704850D02*
G54D13*
D03*
X82550Y704850D02*
G54D13*
D03*
G54D14*
X31750Y704850D02*
X31750Y736600D01*
X76200Y781050D01*
X355600Y781050D01*
X400050Y736600D01*
X400050Y704850D01*
G54D14*
X82550Y704850D02*
X101600Y723900D01*
X139700Y723900D01*
G54D14*
X349250Y704850D02*
X330200Y723900D01*
X292100Y723900D01*
G54D14*
X146050Y736600D02*
X146050Y717550D01*
G54D14*
X285750Y736600D02*
X285750Y717550D01*
G36*
X6350Y641350D02*
X425450Y641350D01*
X425450Y806450D01*
X6350Y806450D01*
X6350Y641350D01*
G37*
G54D15*
X6350Y641350D02*
X425450Y641350D01*
X425450Y806450D01*
X6350Y806450D01*
X6350Y641350D01*
G36*
X340250Y878950D02*
X358250Y878950D01*
X358250Y860950D01*
X340250Y860950D01*
X340250Y878950D01*
G37*
G54D16*
X285750Y825500D02*
X285750Y844550D01*
X311150Y869950D01*
X349250Y869950D01*
X628650Y946150D02*
G54D10*
D03*
X654050Y946150D02*
G54D10*
D03*
X679450Y946150D02*
G54D10*
D03*
X704850Y946150D02*
G54D10*
D03*
X730250Y946150D02*
G54D10*
D03*
X450850Y946150D02*
G54D10*
D03*
X476250Y946150D02*
G54D10*
D03*
X539750Y946150D02*
G54D10*
D03*
X565150Y946150D02*
G54D10*
D03*
X793750Y946150D02*
G54D10*
D03*
X819150Y946150D02*
G54D10*
D03*
X628650Y825500D02*
G54D10*
D03*
X654050Y825500D02*
G54D10*
D03*
X679450Y825500D02*
G54D10*
D03*
X704850Y825500D02*
G54D10*
D03*
X730250Y825500D02*
G54D10*
D03*
X450850Y825500D02*
G54D10*
D03*
X476250Y825500D02*
G54D10*
D03*
X539750Y825500D02*
G54D10*
D03*
X565150Y825500D02*
G54D10*
D03*
X793750Y825500D02*
G54D10*
D03*
X819150Y825500D02*
G54D10*
D03*
X568325Y666750D02*
G54D11*
D03*
X701675Y666750D02*
G54D11*
D03*
X557212Y744538D02*
G54D12*
D03*
X558800Y744538D02*
G54D12*
D03*
X560388Y744538D02*
G54D12*
D03*
X561975Y744538D02*
G54D12*
D03*
X563562Y744538D02*
G54D12*
D03*
X565150Y744538D02*
G54D12*
D03*
X566738Y744538D02*
G54D12*
D03*
X568325Y744538D02*
G54D12*
D03*
X569912Y744538D02*
G54D12*
D03*
X571500Y744538D02*
G54D12*
D03*
X573088Y744538D02*
G54D12*
D03*
X557212Y709612D02*
G54D12*
D03*
X558800Y709612D02*
G54D12*
D03*
X560388Y709612D02*
G54D12*
D03*
X561975Y709612D02*
G54D12*
D03*
X563562Y709612D02*
G54D12*
D03*
X565150Y709612D02*
G54D12*
D03*
X566738Y709612D02*
G54D12*
D03*
X568325Y709612D02*
G54D12*
D03*
X569912Y709612D02*
G54D12*
D03*
X571500Y709612D02*
G54D12*
D03*
X573088Y709612D02*
G54D12*
D03*
X696912Y744538D02*
G54D12*
D03*
X698500Y744538D02*
G54D12*
D03*
X700088Y744538D02*
G54D12*
D03*
X701675Y744538D02*
G54D12*
D03*
X703262Y744538D02*
G54D12*
D03*
X704850Y744538D02*
G54D12*
D03*
X706438Y744538D02*
G54D12*
D03*
X708025Y744538D02*
G54D12*
D03*
X709612Y744538D02*
G54D12*
D03*
X711200Y744538D02*
G54D12*
D03*
X712788Y744538D02*
G54D12*
D03*
X698500Y709612D02*
G54D12*
D03*
X696912Y709612D02*
G54D12*
D03*
X700088Y709612D02*
G54D12*
D03*
X701675Y709612D02*
G54D12*
D03*
X703262Y709612D02*
G54D12*
D03*
X704850Y709612D02*
G54D12*
D03*
X706438Y709612D02*
G54D12*
D03*
X708025Y709612D02*
G54D12*
D03*
X709612Y709612D02*
G54D12*
D03*
X711200Y709612D02*
G54D12*
D03*
X712788Y709612D02*
G54D12*
D03*
X768350Y704850D02*
G54D13*
D03*
X819150Y704850D02*
G54D13*
D03*
X450850Y704850D02*
G54D13*
D03*
X501650Y704850D02*
G54D13*
D03*
G54D14*
X450850Y704850D02*
X450850Y736600D01*
X495300Y781050D01*
X774700Y781050D01*
X819150Y736600D01*
X819150Y704850D01*
G54D14*
X501650Y704850D02*
X520700Y723900D01*
X558800Y723900D01*
G54D14*
X768350Y704850D02*
X749300Y723900D01*
X711200Y723900D01*
G54D14*
X565150Y736600D02*
X565150Y717550D01*
G54D14*
X704850Y736600D02*
X704850Y717550D01*
G36*
X425450Y641350D02*
X844550Y641350D01*
X844550Y806450D01*
X425450Y806450D01*
X425450Y641350D01*
G37*
G54D15*
X425450Y641350D02*
X844550Y641350D01*
X844550Y806450D01*
X425450Y806450D01*
X425450Y641350D01*
G36*
X759350Y878950D02*
X777350Y878950D01*
X777350Y860950D01*
X759350Y860950D01*
X759350Y878950D01*
G37*
G54D16*
X704850Y825500D02*
X704850Y844550D01*
X730250Y869950D01*
X768350Y869950D01*
X209550Y590550D02*
G54D10*
D03*
X234950Y590550D02*
G54D10*
D03*
X260350Y590550D02*
G54D10*
D03*
X285750Y590550D02*
G54D10*
D03*
X311150Y590550D02*
G54D10*
D03*
X31750Y590550D02*
G54D10*
D03*
X57150Y590550D02*
G54D10*
D03*
X120650Y590550D02*
G54D10*
D03*
X146050Y590550D02*
G54D10*
D03*
X374650Y590550D02*
G54D10*
D03*
X400050Y590550D02*
G54D10*
D03*
X209550Y469900D02*
G54D10*
D03*
X234950Y469900D02*
G54D10*
D03*
X260350Y469900D02*
G54D10*
D03*
X285750Y469900D02*
G54D10*
D03*
X311150Y469900D02*
G54D10*
D03*
X31750Y469900D02*
G54D10*
D03*
X57150Y469900D02*
G54D10*
D03*
X120650Y469900D02*
G54D10*
D03*
X146050Y469900D02*
G54D10*
D03*
X374650Y469900D02*
G54D10*
D03*
X400050Y469900D02*
G54D10*
D03*
X149225Y311150D02*
G54D11*
D03*
X282575Y311150D02*
G54D11*
D03*
X138112Y388938D02*
G54D12*
D03*
X139700Y388938D02*
G54D12*
D03*
X141288Y388938D02*
G54D12*
D03*
X142875Y388938D02*
G54D12*
D03*
X144462Y388938D02*
G54D12*
D03*
X146050Y388938D02*
G54D12*
D03*
X147638Y388938D02*
G54D12*
D03*
X149225Y388938D02*
G54D12*
D03*
X150812Y388938D02*
G54D12*
D03*
X152400Y388938D02*
G54D12*
D03*
X153988Y388938D02*
G54D12*
D03*
X138112Y354012D02*
G54D12*
D03*
X139700Y354012D02*
G54D12*
D03*
X141288Y354012D02*
G54D12*
D03*
X142875Y354012D02*
G54D12*
D03*
X144462Y354012D02*
G54D12*
D03*
X146050Y354012D02*
G54D12*
D03*
X147638Y354012D02*
G54D12*
D03*
X149225Y354012D02*
G54D12*
D03*
X150812Y354012D02*
G54D12*
D03*
X152400Y354012D02*
G54D12*
D03*
X153988Y354012D02*
G54D12*
D03*
X277812Y388938D02*
G54D12*
D03*
X279400Y388938D02*
G54D12*
D03*
X280988Y388938D02*
G54D12*
D03*
X282575Y388938D02*
G54D12*
D03*
X284162Y388938D02*
G54D12*
D03*
X285750Y388938D02*
G54D12*
D03*
X287338Y388938D02*
G54D12*
D03*
X288925Y388938D02*
G54D12*
D03*
X290512Y388938D02*
G54D12*
D03*
X292100Y388938D02*
G54D12*
D03*
X293688Y388938D02*
G54D12*
D03*
X279400Y354012D02*
G54D12*
D03*
X277812Y354012D02*
G54D12*
D03*
X280988Y354012D02*
G54D12*
D03*
X282575Y354012D02*
G54D12*
D03*
X284162Y354012D02*
G54D12*
D03*
X285750Y354012D02*
G54D12*
D03*
X287338Y354012D02*
G54D12*
D03*
X288925Y354012D02*
G54D12*
D03*
X290512Y354012D02*
G54D12*
D03*
X292100Y354012D02*
G54D12*
D03*
X293688Y354012D02*
G54D12*
D03*
X349250Y349250D02*
G54D13*
D03*
X400050Y349250D02*
G54D13*
D03*
X31750Y349250D02*
G54D13*
D03*
X82550Y349250D02*
G54D13*
D03*
G54D14*
X31750Y349250D02*
X31750Y381000D01*
X76200Y425450D01*
X355600Y425450D01*
X400050Y381000D01*
X400050Y349250D01*
G54D14*
X82550Y349250D02*
X101600Y368300D01*
X139700Y368300D01*
G54D14*
X349250Y349250D02*
X330200Y368300D01*
X292100Y368300D01*
G54D14*
X146050Y381000D02*
X146050Y361950D01*
G54D14*
X285750Y381000D02*
X285750Y361950D01*
G36*
X6350Y285750D02*
X425450Y285750D01*
X425450Y450850D01*
X6350Y450850D01*
X6350Y285750D01*
G37*
G54D15*
X6350Y285750D02*
X425450Y285750D01*
X425450Y450850D01*
X6350Y450850D01*
X6350Y285750D01*
G36*
X340250Y523350D02*
X358250Y523350D01*
X358250Y505350D01*
X340250Y505350D01*
X340250Y523350D01*
G37*
G54D16*
X285750Y469900D02*
X285750Y488950D01*
X311150Y514350D01*
X349250Y514350D01*
X628650Y590550D02*
G54D10*
D03*
X654050Y590550D02*
G54D10*
D03*
X679450Y590550D02*
G54D10*
D03*
X704850Y590550D02*
G54D10*
D03*
X730250Y590550D02*
G54D10*
D03*
X450850Y590550D02*
G54D10*
D03*
X476250Y590550D02*
G54D10*
D03*
X539750Y590550D02*
G54D10*
D03*
X565150Y590550D02*
G54D10*
D03*
X793750Y590550D02*
G54D10*
D03*
X819150Y590550D02*
G54D10*
D03*
X628650Y469900D02*
G54D10*
D03*
X654050Y469900D02*
G54D10*
D03*
X679450Y469900D02*
G54D10*
D03*
X704850Y469900D02*
G54D10*
D03*
X730250Y469900D02*
G54D10*
D03*
X450850Y469900D02*
G54D10*
D03*
X476250Y469900D02*
G54D10*
D03*
X539750Y469900D02*
G54D10*
D03*
X565150Y469900D02*
G54D10*
D03*
X793750Y469900D02*
G54D10*
D03*
X819150Y469900D02*
G54D10*
D03*
X568325Y311150D02*
G54D11*
D03*
X701675Y311150D02*
G54D11*
D03*
X557212Y388938D02*
G54D12*
D03*
X558800Y388938D02*
G54D12*
D03*
X560388Y388938D02*
G54D12*
D03*
X561975Y388938D02*
G54D12*
D03*
X563562Y388938D02*
G54D12*
D03*
X565150Y388938D02*
G54D12*
D03*
X566738Y388938D02*
G54D12*
D03*
X568325Y388938D02*
G54D12*
D03*
X569912Y388938D02*
G54D12*
D03*
X571500Y388938D02*
G54D12*
D03*
X573088Y388938D02*
G54D12*
D03*
X557212Y354012D02*
G54D12*
D03*
X558800Y354012D02*
G54D12*
D03*
X560388Y354012D02*
G54D12*
D03*
X561975Y354012D02*
G54D12*
D03*
X563562Y354012D02*
G54D12*
D03*
X565150Y354012D02*
G54D12*
D03*
X566738Y354012D02*
G54D12*
D03*
X568325Y354012D02*
G54D12*
D03*
X569912Y354012D02*
G54D12*
D03*
X571500Y354012D02*
G54D12*
D03*
X573088Y354012D02*
G54D12*
D03*
X696912Y388938D02*
G54D12*
D03*
X698500Y388938D02*
G54D12*
D03*
X700088Y388938D02*
G54D12*
D03*
X701675Y388938D02*
G54D12*
D03*
X703262Y388938D02*
G54D12*
D03*
X704850Y388938D02*
G54D12*
D03*
X706438Y388938D02*
G54D12*
D03*
X708025Y388938D02*
G54D12*
D03*
X709612Y388938D02*
G54D12*
D03*
X711200Y388938D02*
G54D12*
D03*
X712788Y388938D02*
G54D12*
D03*
X698500Y354012D02*
G54D12*
D03*
X696912Y354012D02*
G54D12*
D03*
X700088Y354012D02*
G54D12*
D03*
X701675Y354012D02*
G54D12*
D03*
X703262Y354012D02*
G54D12*
D03*
X704850Y354012D02*
G54D12*
D03*
X706438Y354012D02*
G54D12*
D03*
X708025Y354012D02*
G54D12*
D03*
X709612Y354012D02*
G54D12*
D03*
X711200Y354012D02*
G54D12*
D03*
X712788Y354012D02*
G54D12*
D03*
X768350Y349250D02*
G54D13*
D03*
X819150Y349250D02*
G54D13*
D03*
X450850Y349250D02*
G54D13*
D03*
X501650Y349250D02*
G54D13*
D03*
G54D14*
X450850Y349250D02*
X450850Y381000D01*
X495300Y425450D01*
X774700Y425450D01*
X819150Y381000D01*
X819150Y349250D01*
G54D14*
X501650Y349250D02*
X520700Y368300D01*
X558800Y368300D01*
G54D14*
X768350Y349250D02*
X749300Y368300D01*
X711200Y368300D01*
G54D14*
X565150Y381000D02*
X565150Y361950D01*
G54D14*
X704850Y381000D02*
X704850Y361950D01*
G36*
X425450Y285750D02*
X844550Y285750D01*
X844550Y450850D01*
X425450Y450850D01*
X425450Y285750D01*
G37*
G54D15*
X425450Y285750D02*
X844550Y285750D01*
X844550Y450850D01*
X425450Y450850D01*
X425450Y285750D01*
G36*
X759350Y523350D02*
X777350Y523350D01*
X777350Y505350D01*
X759350Y505350D01*
X759350Y523350D01*
G37*
G54D16*
X704850Y469900D02*
X704850Y488950D01*
X730250Y514350D01*
X768350Y514350D01*
%LPD*%
X209550Y946150D02*
G54D17*
D03*
X234950Y946150D02*
G54D17*
D03*
X260350Y946150D02*
G54D17*
D03*
X285750Y946150D02*
G54D17*
D03*
X311150Y946150D02*
G54D17*
D03*
X31750Y946150D02*
G54D17*
D03*
X57150Y946150D02*
G54D17*
D03*
X120650Y946150D02*
G54D17*
D03*
X146050Y946150D02*
G54D17*
D03*
X374650Y946150D02*
G54D17*
D03*
X400050Y946150D02*
G54D17*
D03*
X209550Y825500D02*
G54D17*
D03*
X234950Y825500D02*
G54D17*
D03*
X260350Y825500D02*
G54D17*
D03*
X285750Y825500D02*
G54D17*
D03*
X311150Y825500D02*
G54D17*
D03*
X31750Y825500D02*
G54D17*
D03*
X57150Y825500D02*
G54D17*
D03*
X120650Y825500D02*
G54D17*
D03*
X146050Y825500D02*
G54D17*
D03*
X374650Y825500D02*
G54D17*
D03*
X400050Y825500D02*
G54D17*
D03*
X149225Y666750D02*
G54D18*
D03*
X282575Y666750D02*
G54D18*
D03*
X138112Y744538D02*
G54D19*
D03*
X139700Y744538D02*
G54D19*
D03*
X141288Y744538D02*
G54D19*
D03*
X142875Y744538D02*
G54D19*
D03*
X144462Y744538D02*
G54D19*
D03*
X146050Y744538D02*
G54D19*
D03*
X147638Y744538D02*
G54D19*
D03*
X149225Y744538D02*
G54D19*
D03*
X150812Y744538D02*
G54D19*
D03*
X152400Y744538D02*
G54D19*
D03*
X153988Y744538D02*
G54D19*
D03*
X138112Y709612D02*
G54D19*
D03*
X139700Y709612D02*
G54D19*
D03*
X141288Y709612D02*
G54D19*
D03*
X142875Y709612D02*
G54D19*
D03*
X144462Y709612D02*
G54D19*
D03*
X146050Y709612D02*
G54D19*
D03*
X147638Y709612D02*
G54D19*
D03*
X149225Y709612D02*
G54D19*
D03*
X150812Y709612D02*
G54D19*
D03*
X152400Y709612D02*
G54D19*
D03*
X153988Y709612D02*
G54D19*
D03*
X277812Y744538D02*
G54D19*
D03*
X279400Y744538D02*
G54D19*
D03*
X280988Y744538D02*
G54D19*
D03*
X282575Y744538D02*
G54D19*
D03*
X284162Y744538D02*
G54D19*
D03*
X285750Y744538D02*
G54D19*
D03*
X287338Y744538D02*
G54D19*
D03*
X288925Y744538D02*
G54D19*
D03*
X290512Y744538D02*
G54D19*
D03*
X292100Y744538D02*
G54D19*
D03*
X293688Y744538D02*
G54D19*
D03*
X279400Y709612D02*
G54D19*
D03*
X277812Y709612D02*
G54D19*
D03*
X280988Y709612D02*
G54D19*
D03*
X282575Y709612D02*
G54D19*
D03*
X284162Y709612D02*
G54D19*
D03*
X285750Y709612D02*
G54D19*
D03*
X287338Y709612D02*
G54D19*
D03*
X288925Y709612D02*
G54D19*
D03*
X290512Y709612D02*
G54D19*
D03*
X292100Y709612D02*
G54D19*
D03*
X293688Y709612D02*
G54D19*
D03*
X349250Y704850D02*
G54D20*
D03*
X400050Y704850D02*
G54D20*
D03*
X31750Y704850D02*
G54D20*
D03*
X82550Y704850D02*
G54D20*
D03*
G54D21*
X31750Y704850D02*
X31750Y736600D01*
X76200Y781050D01*
X355600Y781050D01*
X400050Y736600D01*
X400050Y704850D01*
G54D21*
X82550Y704850D02*
X101600Y723900D01*
X139700Y723900D01*
G54D21*
X349250Y704850D02*
X330200Y723900D01*
X292100Y723900D01*
G54D21*
X146050Y736600D02*
X146050Y717550D01*
G54D21*
X285750Y736600D02*
X285750Y717550D01*
G36*
X344250Y874950D02*
X354250Y874950D01*
X354250Y864950D01*
X344250Y864950D01*
X344250Y874950D01*
G37*
G54D22*
X285750Y825500D02*
X285750Y844550D01*
X311150Y869950D01*
X349250Y869950D01*
X628650Y946150D02*
G54D17*
D03*
X654050Y946150D02*
G54D17*
D03*
X679450Y946150D02*
G54D17*
D03*
X704850Y946150D02*
G54D17*
D03*
X730250Y946150D02*
G54D17*
D03*
X450850Y946150D02*
G54D17*
D03*
X476250Y946150D02*
G54D17*
D03*
X539750Y946150D02*
G54D17*
D03*
X565150Y946150D02*
G54D17*
D03*
X793750Y946150D02*
G54D17*
D03*
X819150Y946150D02*
G54D17*
D03*
X628650Y825500D02*
G54D17*
D03*
X654050Y825500D02*
G54D17*
D03*
X679450Y825500D02*
G54D17*
D03*
X704850Y825500D02*
G54D17*
D03*
X730250Y825500D02*
G54D17*
D03*
X450850Y825500D02*
G54D17*
D03*
X476250Y825500D02*
G54D17*
D03*
X539750Y825500D02*
G54D17*
D03*
X565150Y825500D02*
G54D17*
D03*
X793750Y825500D02*
G54D17*
D03*
X819150Y825500D02*
G54D17*
D03*
X568325Y666750D02*
G54D18*
D03*
X701675Y666750D02*
G54D18*
D03*
X557212Y744538D02*
G54D19*
D03*
X558800Y744538D02*
G54D19*
D03*
X560388Y744538D02*
G54D19*
D03*
X561975Y744538D02*
G54D19*
D03*
X563562Y744538D02*
G54D19*
D03*
X565150Y744538D02*
G54D19*
D03*
X566738Y744538D02*
G54D19*
D03*
X568325Y744538D02*
G54D19*
D03*
X569912Y744538D02*
G54D19*
D03*
X571500Y744538D02*
G54D19*
D03*
X573088Y744538D02*
G54D19*
D03*
X557212Y709612D02*
G54D19*
D03*
X558800Y709612D02*
G54D19*
D03*
X560388Y709612D02*
G54D19*
D03*
X561975Y709612D02*
G54D19*
D03*
X563562Y709612D02*
G54D19*
D03*
X565150Y709612D02*
G54D19*
D03*
X566738Y709612D02*
G54D19*
D03*
X568325Y709612D02*
G54D19*
D03*
X569912Y709612D02*
G54D19*
D03*
X571500Y709612D02*
G54D19*
D03*
X573088Y709612D02*
G54D19*
D03*
X696912Y744538D02*
G54D19*
D03*
X698500Y744538D02*
G54D19*
D03*
X700088Y744538D02*
G54D19*
D03*
X701675Y744538D02*
G54D19*
D03*
X703262Y744538D02*
G54D19*
D03*
X704850Y744538D02*
G54D19*
D03*
X706438Y744538D02*
G54D19*
D03*
X708025Y744538D02*
G54D19*
D03*
X709612Y744538D02*
G54D19*
D03*
X711200Y744538D02*
G54D19*
D03*
X712788Y744538D02*
G54D19*
D03*
X698500Y709612D02*
G54D19*
D03*
X696912Y709612D02*
G54D19*
D03*
X700088Y709612D02*
G54D19*
D03*
X701675Y709612D02*
G54D19*
D03*
X703262Y709612D02*
G54D19*
D03*
X704850Y709612D02*
G54D19*
D03*
X706438Y709612D02*
G54D19*
D03*
X708025Y709612D02*
G54D19*
D03*
X709612Y709612D02*
G54D19*
D03*
X711200Y709612D02*
G54D19*
D03*
X712788Y709612D02*
G54D19*
D03*
X768350Y704850D02*
G54D20*
D03*
X819150Y704850D02*
G54D20*
D03*
X450850Y704850D02*
G54D20*
D03*
X501650Y704850D02*
G54D20*
D03*
G54D21*
X450850Y704850D02*
X450850Y736600D01*
X495300Y781050D01*
X774700Y781050D01*
X819150Y736600D01*
X819150Y704850D01*
G54D21*
X501650Y704850D02*
X520700Y723900D01*
X558800Y723900D01*
G54D21*
X768350Y704850D02*
X749300Y723900D01*
X711200Y723900D01*
G54D21*
X565150Y736600D02*
X565150Y717550D01*
G54D21*
X704850Y736600D02*
X704850Y717550D01*
G36*
X763350Y874950D02*
X773350Y874950D01*
X773350Y864950D01*
X763350Y864950D01*
X763350Y874950D01*
G37*
G54D22*
X704850Y825500D02*
X704850Y844550D01*
X730250Y869950D01*
X768350Y869950D01*
X209550Y590550D02*
G54D17*
D03*
X234950Y590550D02*
G54D17*
D03*
X260350Y590550D02*
G54D17*
D03*
X285750Y590550D02*
G54D17*
D03*
X311150Y590550D02*
G54D17*
D03*
X31750Y590550D02*
G54D17*
D03*
X57150Y590550D02*
G54D17*
D03*
X120650Y590550D02*
G54D17*
D03*
X146050Y590550D02*
G54D17*
D03*
X374650Y590550D02*
G54D17*
D03*
X400050Y590550D02*
G54D17*
D03*
X209550Y469900D02*
G54D17*
D03*
X234950Y469900D02*
G54D17*
D03*
X260350Y469900D02*
G54D17*
D03*
X285750Y469900D02*
G54D17*
D03*
X311150Y469900D02*
G54D17*
D03*
X31750Y469900D02*
G54D17*
D03*
X57150Y469900D02*
G54D17*
D03*
X120650Y469900D02*
G54D17*
D03*
X146050Y469900D02*
G54D17*
D03*
X374650Y469900D02*
G54D17*
D03*
X400050Y469900D02*
G54D17*
D03*
X149225Y311150D02*
G54D18*
D03*
X282575Y311150D02*
G54D18*
D03*
X138112Y388938D02*
G54D19*
D03*
X139700Y388938D02*
G54D19*
D03*
X141288Y388938D02*
G54D19*
D03*
X142875Y388938D02*
G54D19*
D03*
X144462Y388938D02*
G54D19*
D03*
X146050Y388938D02*
G54D19*
D03*
X147638Y388938D02*
G54D19*
D03*
X149225Y388938D02*
G54D19*
D03*
X150812Y388938D02*
G54D19*
D03*
X152400Y388938D02*
G54D19*
D03*
X153988Y388938D02*
G54D19*
D03*
X138112Y354012D02*
G54D19*
D03*
X139700Y354012D02*
G54D19*
D03*
X141288Y354012D02*
G54D19*
D03*
X142875Y354012D02*
G54D19*
D03*
X144462Y354012D02*
G54D19*
D03*
X146050Y354012D02*
G54D19*
D03*
X147638Y354012D02*
G54D19*
D03*
X149225Y354012D02*
G54D19*
D03*
X150812Y354012D02*
G54D19*
D03*
X152400Y354012D02*
G54D19*
D03*
X153988Y354012D02*
G54D19*
D03*
X277812Y388938D02*
G54D19*
D03*
X279400Y388938D02*
G54D19*
D03*
X280988Y388938D02*
G54D19*
D03*
X282575Y388938D02*
G54D19*
D03*
X284162Y388938D02*
G54D19*
D03*
X285750Y388938D02*
G54D19*
D03*
X287338Y388938D02*
G54D19*
D03*
X288925Y388938D02*
G54D19*
D03*
X290512Y388938D02*
G54D19*
D03*
X292100Y388938D02*
G54D19*
D03*
X293688Y388938D02*
G54D19*
D03*
X279400Y354012D02*
G54D19*
D03*
X277812Y354012D02*
G54D19*
D03*
X280988Y354012D02*
G54D19*
D03*
X282575Y354012D02*
G54D19*
D03*
X284162Y354012D02*
G54D19*
D03*
X285750Y354012D02*
G54D19*
D03*
X287338Y354012D02*
G54D19*
D03*
X288925Y354012D02*
G54D19*
D03*
X290512Y354012D02*
G54D19*
D03*
X292100Y354012D02*
G54D19*
D03*
X293688Y354012D02*
G54D19*
D03*
X349250Y349250D02*
G54D20*
D03*
X400050Y349250D02*
G54D20*
D03*
X31750Y349250D02*
G54D20*
D03*
X82550Y349250D02*
G54D20*
D03*
G54D21*
X31750Y349250D02*
X31750Y381000D01*
X76200Y425450D01*
X355600Y425450D01*
X400050Y381000D01*
X400050Y349250D01*
G54D21*
X82550Y349250D02*
X101600Y368300D01*
X139700Y368300D01*
G54D21*
X349250Y349250D02*
X330200Y368300D01*
X292100Y368300D01*
G54D21*
X146050Y381000D02*
X146050Y361950D01*
G54D21*
X285750Y381000D02*
X285750Y361950D01*
G36*
X344250Y519350D02*
X354250Y519350D01*
X354250Y509350D01*
X344250Y509350D01*
X344250Y519350D01*
G37*
G54D22*
X285750Y469900D02*
X285750Y488950D01*
X311150Y514350D01*
X349250Y514350D01*
X628650Y590550D02*
G54D17*
D03*
X654050Y590550D02*
G54D17*
D03*
X679450Y590550D02*
G54D17*
D03*
X704850Y590550D02*
G54D17*
D03*
X730250Y590550D02*
G54D17*
D03*
X450850Y590550D02*
G54D17*
D03*
X476250Y590550D02*
G54D17*
D03*
X539750Y590550D02*
G54D17*
D03*
X565150Y590550D02*
G54D17*
D03*
X793750Y590550D02*
G54D17*
D03*
X819150Y590550D02*
G54D17*
D03*
X628650Y469900D02*
G54D17*
D03*
X654050Y469900D02*
G54D17*
D03*
X679450Y469900D02*
G54D17*
D03*
X704850Y469900D02*
G54D17*
D03*
X730250Y469900D02*
G54D17*
D03*
X450850Y469900D02*
G54D17*
D03*
X476250Y469900D02*
G54D17*
D03*
X539750Y469900D02*
G54D17*
D03*
X565150Y469900D02*
G54D17*
D03*
X793750Y469900D02*
G54D17*
D03*
X819150Y469900D02*
G54D17*
D03*
X568325Y311150D02*
G54D18*
D03*
X701675Y311150D02*
G54D18*
D03*
X557212Y388938D02*
G54D19*
D03*
X558800Y388938D02*
G54D19*
D03*
X560388Y388938D02*
G54D19*
D03*
X561975Y388938D02*
G54D19*
D03*
X563562Y388938D02*
G54D19*
D03*
X565150Y388938D02*
G54D19*
D03*
X566738Y388938D02*
G54D19*
D03*
X568325Y388938D02*
G54D19*
D03*
X569912Y388938D02*
G54D19*
D03*
X571500Y388938D02*
G54D19*
D03*
X573088Y388938D02*
G54D19*
D03*
X557212Y354012D02*
G54D19*
D03*
X558800Y354012D02*
G54D19*
D03*
X560388Y354012D02*
G54D19*
D03*
X561975Y354012D02*
G54D19*
D03*
X563562Y354012D02*
G54D19*
D03*
X565150Y354012D02*
G54D19*
D03*
X566738Y354012D02*
G54D19*
D03*
X568325Y354012D02*
G54D19*
D03*
X569912Y354012D02*
G54D19*
D03*
X571500Y354012D02*
G54D19*
D03*
X573088Y354012D02*
G54D19*
D03*
X696912Y388938D02*
G54D19*
D03*
X698500Y388938D02*
G54D19*
D03*
X700088Y388938D02*
G54D19*
D03*
X701675Y388938D02*
G54D19*
D03*
X703262Y388938D02*
G54D19*
D03*
X704850Y388938D02*
G54D19*
D03*
X706438Y388938D02*
G54D19*
D03*
X708025Y388938D02*
G54D19*
D03*
X709612Y388938D02*
G54D19*
D03*
X711200Y388938D02*
G54D19*
D03*
X712788Y388938D02*
G54D19*
D03*
X698500Y354012D02*
G54D19*
D03*
X696912Y354012D02*
G54D19*
D03*
X700088Y354012D02*
G54D19*
D03*
X701675Y354012D02*
G54D19*
D03*
X703262Y354012D02*
G54D19*
D03*
X704850Y354012D02*
G54D19*
D03*
X706438Y354012D02*
G54D19*
D03*
X708025Y354012D02*
G54D19*
D03*
X709612Y354012D02*
G54D19*
D03*
X711200Y354012D02*
G54D19*
D03*
X712788Y354012D02*
G54D19*
D03*
X768350Y349250D02*
G54D20*
D03*
X819150Y349250D02*
G54D20*
D03*
X450850Y349250D02*
G54D20*
D03*
X501650Y349250D02*
G54D20*
D03*
G54D21*
X450850Y349250D02*
X450850Y381000D01*
X495300Y425450D01*
X774700Y425450D01*
X819150Y381000D01*
X819150Y349250D01*
G54D21*
X501650Y349250D02*
X520700Y368300D01*
X558800Y368300D01*
G54D21*
X768350Y349250D02*
X749300Y368300D01*
X711200Y368300D01*
G54D21*
X565150Y381000D02*
X565150Y361950D01*
G54D21*
X704850Y381000D02*
X704850Y361950D01*
G36*
X763350Y519350D02*
X773350Y519350D01*
X773350Y509350D01*
X763350Y509350D01*
X763350Y519350D01*
G37*
G54D22*
X704850Y469900D02*
X704850Y488950D01*
X730250Y514350D01*
X768350Y514350D01*
M02*
